g A1_collisionGround_indoor_geo
v -8.750244 1.24753 -4
v 2.749746 5 -4
v 2.749746 5 -16
v 7.999746 5 -16
v 7.999746 5 8
v -8.750244 5 8
v -8.750244 5 2.25
v -4.500254 5 2.25
v -4.500254 5 0.25
v 2.749746 5 0.25
v 2.749746 5 -0.25
v 8.499746 5.000001 -7.973947
v 8.499746 5.000001 -10.02605
v 21.99975 5 -16
v 8.499746 5 -2
v 21.99975 5 -2
v 7.999746 5 -10.02605
v 7.999746 5 -7.973947
v 8.499746 5 -16
v -4.500254 0 10
v -8.750244 0 10
v -4.927363 0 0.25
v 2.999746 0 0.25
v 4.499746 0 10
v 7.999746 0 10
v 2.999746 0 -4
v 7.999746 0 -4
v -4.500254 0 12
v 4.499746 0 12
v -8.750244 1.24753 -0.25
v -8.750244 0 2.717669
v 2.999746 0 0.240001
v -8.750244 0 0.25
v 7.999746 0 0.25
v -4.927363 1.24753 -0.25
v -4.927363 0 2.717669
v 2.210649 5.017753 -4
v 2.210649 5.017753 -0.25
v -8.750244 1.247529 0.2187291
v -4.927363 1.247529 0.3699993
v -5.379792 1.24753 -4
v -5.379792 1.24753 -0.25
v -5.379792 1.247529 0.2187291
v -5.379792 0 2.717669
v 2.048407 0 -0.25
v -5.608342 0 -0.25
v 2.999746 0 0.25
v 2.999746 0 -4
v -8.750244 1.24753 -0.25
v 2.210649 5.017753 -0.25
v -5.379792 1.24753 -4
v 2.210649 5.017753 -4
v -5.379792 1.24753 -0.25
v 2.210649 5.017753 -0.25
v -5.379792 1.24753 -0.25
vt 0.007223859 0.9887629
vt 0.007223845 0.9887629
vt 0.007223845 0.9887629
vt 0.007223845 0.9887629
vt 0.007223856 0.9887629
vt 0.007223856 0.9887629
vt 0.007223852 0.9887629
vt 0.007223852 0.988763
vt 0.007223852 0.988763
vt 0.007223852 0.9887629
vt 0.007223859 0.9887629
vt 0.007223859 0.9887629
vt 0.007223845 0.9887629
vt 0.007223845 0.9887629
vt 0.007223859 0.9887629
vt 0.007223859 0.9887629
vt 0.007223845 0.9887629
vt 0.007223859 0.9887629
vt 0.007223845 0.9887629
vt 0.007223845 0.9887629
vt 0.007223845 0.988763
vt 0.007223845 0.9887629
vt 0.007223845 0.9887629
vt 0.007223845 0.9887629
vt 0.007223845 0.9887629
vt 0.007223845 0.9887629
vt 0.007223845 0.9887629
vt 0.007223845 0.9887629
vt 0.007223845 0.9887629
vt 0.007223859 0.9887629
vt 0.007223859 0.9887629
vt 0.007223845 0.9887629
vt 0.007223845 0.988763
vt 0.007223845 0.9887629
vt 0.007223859 0.9887629
vt 0.007223859 0.9887629
vt 0.007223845 0.9887629
vt 0.007223859 0.9887629
vt 0.007223859 0.9887629
vt 0.007223859 0.9887629
vt 0.007223859 0.9887629
vt 0.007223859 0.9887629
vt 0.007223859 0.9887629
vt 0.007223859 0.9887629
vt 0.007223859 0.9887629
vt 0.007223845 0.9887629
vt 0.007223845 0.9887629
vt 0.007223845 0.9887629
vt 0.007223859 0.9887629
vt 0.007223859 0.9887629
vt 0.007223845 0.9887629
vt 0.007223845 0.9887629
vt 0.007223859 0.9887629
vt 0.007223859 0.9887629
vt 0.007223845 0.9887629
vn 0 1 0
vn -0.4391363 0.8984205 0
vn 0 1 0
vn -0.5773503 0.5773503 0.5773503
vn -0.301511 0.9045342 -0.301511
vn 0 1 0
vn 0 1 0
vn 0 1 0
vn 0 1 0
vn 0 1 0
vn -0.4391363 0.8984205 0
vn 0 1 0
vn 0 1 0
vn 0 1 0
vn 0 1 0
vn 0 1 0
vn -0.2425358 0.9701424 0
vn -0.3162281 0.9486832 0
vn 0 1 0
vn 0 1 0
vn 0 1 0
vn 0 1 0
vn 0.5773503 0.5773503 0.5773503
vn 0 1 0
vn 0 1 0
vn 0.5773503 0.5773503 0.5773503
vn 0 1 0
vn 0 1 0
vn 0 1 0
vn 0 1 0
vn 0 0.8947808 0.4465059
vn 0.894427 0.447214 0
vn 0 1 0
vn 0 1 0
vn 0 0.8947808 0.4465059
vn 0 0.8947808 0.4465059
vn 0.03291201 0.9994583 0
vn 0.03291201 0.9994583 0
vn 0 0.9733202 0.2294507
vn -0.03927854 0.9712127 0.2349533
vn 0 1 0
vn 0 1 4.455156E-07
vn -0.01962186 0.9724594 0.2322448
vn -0.03817639 0.8912735 0.4518563
vn 0 0 1
vn 0 0 1
vn 0 1 0
vn 0 1 0
vn 0 0.8947808 0.4465059
vn -0.4448525 0.8956038 0
vn -0.4448525 0.8956038 0
vn -0.4448525 0.8956038 0
vn -0.4448525 0.8956038 0
vn 0 0 1
vn 0 0 1
g A1_collisionGround_indoor_geo_0
f 32/32/32 23/23/23 26/26/26
f 13/13/13 16/16/16 14/14/14
f 12/12/12 16/16/16 13/13/13
f 17/17/17 12/12/12 13/13/13
f 18/18/18 12/12/12 17/17/17
f 10/10/10 18/18/18 17/17/17
f 5/5/5 18/18/18 10/10/10
f 8/8/8 5/5/5 10/10/10
f 6/6/6 5/5/5 8/8/8
f 7/7/7 6/6/6 8/8/8
f 17/17/17 3/3/3 10/10/10
f 4/4/4 3/3/3 17/17/17
f 9/9/9 8/8/8 10/10/10
f 14/14/14 19/19/19 13/13/13
f 16/16/16 12/12/12 15/15/15
f 20/20/20 47/47/47 22/22/22
f 24/24/24 47/47/47 20/20/20
f 28/28/28 24/24/24 20/20/20
f 29/29/29 24/24/24 28/28/28
f 22/22/22 21/21/21 20/20/20
f 33/33/33 21/21/21 22/22/22
f 47/47/47 27/27/27 48/48/48
f 34/34/34 27/27/27 47/47/47
f 24/24/24 34/34/34 47/47/47
f 25/25/25 34/34/34 24/24/24
f 11/11/11 37/37/37 38/38/38
f 2/2/2 37/37/37 11/11/11
f 43/43/43 44/44/44 36/36/36
f 40/40/40 43/43/43 36/36/36
f 42/42/42 43/43/43 40/40/40
f 35/35/35 42/42/42 40/40/40
f 30/30/30 41/41/41 1/1/1
f 42/42/42 41/41/41 30/30/30
f 43/43/43 42/42/42 49/49/49
f 39/39/39 43/43/43 49/49/49
f 44/44/44 43/43/43 39/39/39
f 31/31/31 44/44/44 39/39/39
f 51/51/51 50/50/50 52/52/52
f 53/53/53 50/50/50 51/51/51
f 46/46/46 54/54/54 55/55/55
f 45/45/45 54/54/54 46/46/46
