g A1_chainlink_geo
v 8.846439 5.108531 -7.076297
v 8.796001 5.108531 -6.954527
v 8.846439 5.108531 -6.83276
v 8.968207 5.108531 -6.782321
v 9.089978 5.108531 -6.83276
v 9.140416 5.108531 -6.954527
v 9.089978 5.108531 -7.076297
v 8.968207 5.108531 -7.126736
v 8.80878 5.401666 -7.113956
v 8.742743 5.401666 -6.954527
v 8.80878 5.401666 -6.7951
v 8.968207 5.401666 -6.729063
v 9.127637 5.401666 -6.7951
v 9.193674 5.401666 -6.954527
v 9.127637 5.401666 -7.113957
v 8.968207 5.401666 -7.179993
v 8.80878 5.401666 -7.113956
v 8.846439 5.108531 -7.076297
vt -1.44002 0.1396393
vt -1.009764 0.1396393
vt -0.5795078 0.1396393
vt -0.149252 0.1396393
vt 0.2810041 0.1396393
vt 0.7112601 0.1396393
vt 1.141516 0.1396393
vt 1.571772 0.1396393
vt -1.44002 0.8613005
vt -1.009764 0.8613005
vt -0.5795078 0.8613005
vt -0.149252 0.8613005
vt 0.2810041 0.8613005
vt 0.7112601 0.8613005
vt 1.141516 0.8613005
vt 1.571772 0.8613005
vt 2.002028 0.8613005
vt 2.002028 0.1396393
vn -0.6957186 -0.1787585 -0.6957162
vn -0.983893 -0.1787587 3.282581E-06
vn -0.6957186 -0.1787609 0.6957156
vn -1.045923E-06 -0.1787603 0.9838927
vn 0.6957162 -0.1787593 0.6957183
vn 0.983893 -0.1787586 3.025131E-06
vn 0.6957157 -0.1787581 -0.6957193
vn -1.271195E-06 -0.1787578 -0.9838932
vn -0.6957186 -0.1787585 -0.6957162
vn -0.983893 -0.1787587 3.282581E-06
vn -0.6957186 -0.1787609 0.6957156
vn -1.045923E-06 -0.1787603 0.9838927
vn 0.6957162 -0.1787593 0.6957183
vn 0.983893 -0.1787586 3.025131E-06
vn 0.6957157 -0.1787581 -0.6957193
vn -1.271195E-06 -0.1787578 -0.9838932
vn -0.6957186 -0.1787585 -0.6957162
vn -0.6957186 -0.1787585 -0.6957162
g A1_chainlink_geo_0
f 8/8/8 18/18/18 17/17/17
f 16/16/16 8/8/8 17/17/17
f 7/7/7 8/8/8 16/16/16
f 15/15/15 7/7/7 16/16/16
f 6/6/6 7/7/7 15/15/15
f 14/14/14 6/6/6 15/15/15
f 5/5/5 6/6/6 14/14/14
f 13/13/13 5/5/5 14/14/14
f 4/4/4 5/5/5 13/13/13
f 12/12/12 4/4/4 13/13/13
f 3/3/3 4/4/4 12/12/12
f 11/11/11 3/3/3 12/12/12
f 2/2/2 3/3/3 11/11/11
f 10/10/10 2/2/2 11/11/11
f 1/1/1 2/2/2 10/10/10
f 9/9/9 1/1/1 10/10/10
