g A1_colourPalette_geo
v -0.7704617 -1.12562 0.06308349
v 0.7704617 -1.12562 0.06308349
v -0.7704617 1.12562 0.06308349
v 0.7704617 1.12562 0.06308349
v -0.7704617 1.12562 -0.06308351
v 0.7704617 1.12562 -0.06308351
v -0.7704617 -1.12562 -0.06308351
v 0.7704617 -1.12562 -0.06308351
v -0.6996766 1.037161 -0.06308351
v 0.6996768 1.037161 -0.06308351
v 0.6996768 -1.037162 -0.06308351
v -0.6996766 -1.037162 -0.06308351
v -0.6869854 1.025068 -0.06308351
v 0.6869858 1.025068 -0.06308351
v 0.6869858 -1.025068 -0.06308351
v -0.6869854 -1.025068 -0.06308351
v -0.6996766 -1.037162 0.06308349
v 0.6996768 -1.037162 0.06308349
v 0.6996768 1.037161 0.06308349
v -0.6996766 1.037161 0.06308349
v -0.6869854 -1.025068 0.06308349
v 0.6869858 -1.025068 0.06308349
v 0.6869858 1.025068 0.06308349
v -0.6869854 1.025068 0.06308349
v -0.6869854 1.025068 0.02366352
v 0.6869856 1.025068 0.02366352
v 0.6869856 -1.025068 0.02366352
v -0.6869854 -1.025068 0.02366352
v -0.6869854 7.629394E-08 0.02366352
v 0.6869854 7.629394E-08 0.02366352
v -0.6869854 1.025068 -0.02838758
v 0.6869856 1.025068 -0.02838758
v 0.6869856 -1.025068 -0.02838758
v -0.6869854 -1.025068 -0.02838758
v -0.6869854 7.629394E-08 -0.02838758
v 0.6869854 7.629394E-08 -0.02838758
v 0.6869858 -7.629394E-08 -0.06308351
v 0.6996768 -7.629394E-08 -0.06308351
v 0.7704617 -7.629394E-08 -0.06308351
v 0.7704617 -7.629394E-08 0.06308349
v 0.6996768 -7.629394E-08 0.06308349
v 0.6869858 -7.629394E-08 0.06308349
v -0.6869854 -7.629394E-08 0.06308349
v -0.6996766 -7.629394E-08 0.06308349
v -0.7704617 -7.629394E-08 0.06308349
v -0.7704617 -7.629394E-08 -0.06308351
v -0.6996766 -7.629394E-08 -0.06308351
v -0.6869854 -7.629394E-08 -0.06308351
v -0.7704617 1.12562 -0.06308351
v 0.7704617 1.12562 -0.06308351
v 0.7704617 -7.629394E-08 -0.06308351
v 0.7704617 -1.12562 -0.06308351
v -0.7704617 -1.12562 -0.06308351
v -0.7704617 -7.629394E-08 -0.06308351
v -0.6996766 1.037161 -0.06308351
v 0.6996768 1.037161 -0.06308351
v 0.6996768 -7.629394E-08 -0.06308351
v 0.6996768 -1.037162 -0.06308351
v -0.6996766 -1.037162 -0.06308351
v -0.6996766 -7.629394E-08 -0.06308351
v -0.7704617 -1.12562 0.06308349
v 0.7704617 -1.12562 0.06308349
v 0.7704617 -7.629394E-08 0.06308349
v 0.7704617 1.12562 0.06308349
v -0.7704617 1.12562 0.06308349
v -0.7704617 -7.629394E-08 0.06308349
v -0.6996766 -1.037162 0.06308349
v 0.6996768 -1.037162 0.06308349
v 0.6996768 -7.629394E-08 0.06308349
v 0.6996768 1.037161 0.06308349
v -0.6996766 1.037161 0.06308349
v -0.6996766 -7.629394E-08 0.06308349
v -0.6869854 -1.025068 0.06308349
v 0.6869856 -1.025068 0.02366352
v 0.6869858 -1.025068 0.06308349
v -0.6869854 -1.025068 0.02366352
v 0.6869854 7.629394E-08 0.02366352
v 0.6869858 -7.629394E-08 0.06308349
v 0.6869858 1.025068 0.06308349
v -0.6869854 1.025068 0.02366352
v -0.6869854 1.025068 0.06308349
v 0.6869856 1.025068 0.02366352
v -0.6869854 -7.629394E-08 0.06308349
v -0.6869854 7.629394E-08 0.02366352
v -0.6869854 1.025068 -0.06308351
v 0.6869858 1.025068 -0.06308351
v 0.6869858 -7.629394E-08 -0.06308351
v 0.6869858 -1.025068 -0.06308351
v -0.6869854 -1.025068 -0.06308351
v -0.6869854 -7.629394E-08 -0.06308351
v -0.6869854 1.025068 -0.02838758
v 0.6869854 7.629394E-08 -0.02838758
v 0.6869856 1.025068 -0.02838758
v -0.6869854 7.629394E-08 -0.02838758
v 0.6869856 -1.025068 -0.02838758
v -0.6869854 -1.025068 -0.02838758
v 0.6869858 -1.025068 0.06308349
v 0.6869856 -1.025068 0.02366352
v -0.6869854 -1.025068 0.02366352
v -0.6869854 -1.025068 0.06308349
v 0.6869858 -1.025068 -0.06308351
v 0.6869856 -1.025068 -0.02838758
v -0.6869854 -1.025068 -0.06308351
v -0.6869854 -1.025068 -0.02838758
v 0.6869858 1.025068 -0.06308351
v 0.6869856 1.025068 -0.02838758
v 0.6869858 1.025068 0.06308349
v 0.6869856 1.025068 0.02366352
v -0.6869854 1.025068 0.06308349
v -0.6869854 1.025068 0.02366352
v -0.6869854 1.025068 -0.06308351
v -0.6869854 1.025068 -0.02838758
vt 0.8934032 0.01290084
vt 0.8934032 0.01290078
vt 0.8934032 0.01290084
vt 0.8934032 0.01290078
vt 0.8934032 0.01290084
vt 0.8934032 0.01290078
vt 0.8934032 0.01290084
vt 0.8934032 0.01290078
vt 0.06828925 0.01405287
vt 0.06828928 0.01405287
vt 0.06828928 0.01405284
vt 0.06828925 0.01405284
vt 0.9743381 0.01402521
vt 0.9743381 0.01402521
vt 0.9743381 0.01402521
vt 0.9743381 0.01402521
vt 0.06828928 0.01405293
vt 0.06828928 0.01405293
vt 0.06828928 0.01405284
vt 0.06828928 0.01405284
vt 0.9743381 0.01402521
vt 0.9743381 0.01402521
vt 0.9743381 0.01402521
vt 0.9743381 0.01402521
vt 0.009328485 2.990543
vt 0.9897116 2.990543
vt 0.9897116 2.990543
vt 0.009328485 2.990543
vt 0.009328485 2.056007
vt 0.9897116 2.056007
vt 0.8951817 0.01031291
vt 0.8951817 0.01031291
vt 0.8951817 0.01031291
vt 0.8951817 0.01031291
vt 0.8951817 0.01031291
vt 0.8951817 0.01031291
vt 0.9743381 0.01402521
vt 0.06828928 0.01405285
vt 0.8934032 0.01290081
vt 0.8934032 0.01290081
vt 0.06828928 0.01405288
vt 0.9743381 0.01402521
vt 0.9743381 0.01402521
vt 0.06828928 0.01405288
vt 0.8934032 0.01290081
vt 0.8934032 0.01290081
vt 0.06828925 0.01405285
vt 0.9743381 0.01402521
vt 0.06828928 0.01405293
vt 0.06828928 0.01405293
vt 0.06828928 0.01405288
vt 0.06828928 0.01405284
vt 0.06828928 0.01405284
vt 0.06828928 0.01405288
vt 0.9743381 0.01402521
vt 0.9743381 0.01402521
vt 0.9743381 0.01402521
vt 0.9743381 0.01402521
vt 0.9743381 0.01402521
vt 0.9743381 0.01402521
vt 0.06828928 0.01405293
vt 0.06828928 0.01405293
vt 0.06828928 0.01405288
vt 0.06828928 0.01405284
vt 0.06828928 0.01405284
vt 0.06828928 0.01405288
vt 0.9743381 0.01402521
vt 0.9743381 0.01402521
vt 0.9743381 0.01402521
vt 0.9743381 0.01402521
vt 0.9743381 0.01402521
vt 0.9743381 0.01402521
vt 0.8951817 0.01031294
vt 0.8951817 0.01031291
vt 0.8951817 0.01031294
vt 0.8951817 0.01031291
vt 0.8951817 0.01031291
vt 0.8951817 0.01031294
vt 0.8951817 0.01031294
vt 0.8951817 0.01031291
vt 0.8951817 0.01031294
vt 0.8951817 0.01031291
vt 0.8951817 0.01031294
vt 0.8951817 0.01031291
vt 0.8951817 0.01031294
vt 0.8951817 0.01031294
vt 0.8951817 0.01031294
vt 0.8951817 0.01031294
vt 0.8951817 0.01031294
vt 0.8951817 0.01031294
vt 0.009328485 2.990543
vt 0.9897116 2.056007
vt 0.9897116 2.990543
vt 0.009328485 2.056007
vt 0.9897116 2.990543
vt 0.009328485 2.990543
vt 0.8951817 0.01031294
vt 0.8951817 0.01031291
vt 0.8951817 0.01031291
vt 0.8951817 0.01031294
vt 0.8951817 0.01031294
vt 0.8951817 0.01031291
vt 0.8951817 0.01031294
vt 0.8951817 0.01031291
vt 0.8951817 0.01031294
vt 0.8951817 0.01031291
vt 0.8951817 0.01031294
vt 0.8951817 0.01031291
vt 0.8951817 0.01031294
vt 0.8951817 0.01031291
vt 0.8951817 0.01031294
vt 0.8951817 0.01031291
vn -0.4082483 -0.4082483 0.8164966
vn 0.4082483 -0.4082483 0.8164966
vn -0.4082483 0.4082483 0.8164966
vn 0.4082483 0.4082483 0.8164966
vn -0.4082483 0.4082483 -0.8164966
vn 0.4082483 0.4082483 -0.8164966
vn -0.4082483 -0.4082483 -0.8164966
vn 0.4082483 -0.4082483 -0.8164966
vn 0 0 -1
vn 0 0 -1
vn 0 0 -1
vn 0 0 -1
vn 0.4082497 -0.4082497 -0.8164951
vn -0.4082488 -0.4082487 -0.8164961
vn -0.4082476 0.4082475 -0.8164973
vn 0.4082487 0.4082486 -0.8164963
vn 0 0 1
vn 0 0 1
vn 0 0 1
vn 0 0 1
vn 0.4082486 0.4082486 0.8164963
vn -0.4082477 0.4082476 0.8164973
vn -0.4082484 -0.4082484 0.8164964
vn 0.4082494 -0.4082493 0.8164954
vn 0.5773518 -0.5773518 0.5773472
vn -0.5773505 -0.5773504 0.5773498
vn -0.5773494 0.5773493 0.5773521
vn 0.5773507 0.5773507 0.5773495
vn 0.7071074 0 0.7071061
vn -0.707105 0 0.7071084
vn 0.5773524 -0.5773524 -0.577346
vn -0.577351 -0.5773509 -0.577349
vn -0.5773493 0.5773492 -0.5773523
vn 0.5773507 0.5773507 -0.5773494
vn 0.7071075 0 -0.7071061
vn -0.7071048 0 -0.7071087
vn -0.7071049 0 -0.7071087
vn 0 0 -1
vn 0.7071068 0 -0.7071068
vn 0.7071068 0 0.7071068
vn 0 0 1
vn -0.707105 0 0.7071084
vn 0.7071074 0 0.7071061
vn 0 0 1
vn -0.7071068 0 0.7071068
vn -0.7071068 0 -0.7071068
vn 0 0 -1
vn 0.7071075 0 -0.7071061
vn -0.4082483 0.4082483 -0.8164966
vn 0.4082483 0.4082483 -0.8164966
vn 0.7071068 0 -0.7071068
vn 0.4082483 -0.4082483 -0.8164966
vn -0.4082483 -0.4082483 -0.8164966
vn -0.7071068 0 -0.7071068
vn 0 0 -1
vn 0 0 -1
vn 0 0 -1
vn 0 0 -1
vn 0 0 -1
vn 0 0 -1
vn -0.4082483 -0.4082483 0.8164966
vn 0.4082483 -0.4082483 0.8164966
vn 0.7071068 0 0.7071068
vn 0.4082483 0.4082483 0.8164966
vn -0.4082483 0.4082483 0.8164966
vn -0.7071068 0 0.7071068
vn 0 0 1
vn 0 0 1
vn 0 0 1
vn 0 0 1
vn 0 0 1
vn 0 0 1
vn 0.4082486 0.4082486 0.8164963
vn -0.5773494 0.5773493 0.5773521
vn -0.4082477 0.4082476 0.8164973
vn 0.5773507 0.5773507 0.5773495
vn -0.707105 0 0.7071084
vn -0.707105 0 0.7071084
vn -0.4082484 -0.4082484 0.8164964
vn 0.5773518 -0.5773518 0.5773472
vn 0.4082494 -0.4082493 0.8164954
vn -0.5773505 -0.5773504 0.5773498
vn 0.7071074 0 0.7071061
vn 0.7071074 0 0.7071061
vn 0.4082497 -0.4082497 -0.8164951
vn -0.4082488 -0.4082487 -0.8164961
vn -0.7071049 0 -0.7071087
vn -0.4082476 0.4082475 -0.8164973
vn 0.4082487 0.4082486 -0.8164963
vn 0.7071075 0 -0.7071061
vn 0.5773524 -0.5773524 -0.577346
vn -0.7071048 0 -0.7071087
vn -0.577351 -0.5773509 -0.577349
vn 0.7071075 0 -0.7071061
vn -0.5773493 0.5773492 -0.5773523
vn 0.5773507 0.5773507 -0.5773494
vn -0.4082477 0.4082476 0.8164973
vn -0.5773494 0.5773493 0.5773521
vn 0.5773507 0.5773507 0.5773495
vn 0.4082486 0.4082486 0.8164963
vn -0.4082476 0.4082475 -0.8164973
vn -0.5773493 0.5773492 -0.5773523
vn 0.4082487 0.4082486 -0.8164963
vn 0.5773507 0.5773507 -0.5773494
vn -0.4082488 -0.4082487 -0.8164961
vn -0.577351 -0.5773509 -0.577349
vn -0.4082484 -0.4082484 0.8164964
vn -0.5773505 -0.5773504 0.5773498
vn 0.4082494 -0.4082493 0.8164954
vn 0.5773518 -0.5773518 0.5773472
vn 0.4082497 -0.4082497 -0.8164951
vn 0.5773524 -0.5773524 -0.577346
g A1_colourPalette_geo_0
f 29/29/29 28/28/28 27/27/27
f 30/30/30 29/29/29 27/27/27
f 25/25/25 29/29/29 30/30/30
f 26/26/26 25/25/25 30/30/30
f 74/74/74 73/73/73 75/75/75
f 76/76/76 73/73/73 74/74/74
f 77/77/77 78/78/78 107/107/107
f 97/97/97 78/78/78 77/77/77
f 98/98/98 97/97/97 77/77/77
f 80/80/80 79/79/79 81/81/81
f 82/82/82 79/79/79 80/80/80
f 84/84/84 110/110/110 109/109/109
f 83/83/83 84/84/84 109/109/109
f 99/99/99 84/84/84 83/83/83
f 100/100/100 99/99/99 83/83/83
f 32/32/32 85/85/85 86/86/86
f 31/31/31 85/85/85 32/32/32
f 36/36/36 106/106/106 105/105/105
f 87/87/87 36/36/36 105/105/105
f 33/33/33 36/36/36 87/87/87
f 88/88/88 33/33/33 87/87/87
f 34/34/34 101/101/101 89/89/89
f 102/102/102 101/101/101 34/34/34
f 35/35/35 90/90/90 111/111/111
f 103/103/103 90/90/90 35/35/35
f 104/104/104 103/103/103 35/35/35
f 94/94/94 95/95/95 96/96/96
f 92/92/92 95/95/95 94/94/94
f 91/91/91 92/92/92 94/94/94
f 93/93/93 92/92/92 91/91/91
f 108/108/108 77/77/77 107/107/107
f 112/112/112 35/35/35 111/111/111
f 2/2/2 7/7/7 8/8/8
f 39/39/39 2/2/2 8/8/8
f 40/40/40 2/2/2 39/39/39
f 6/6/6 40/40/40 39/39/39
f 4/4/4 40/40/40 6/6/6
f 3/3/3 4/4/4 6/6/6
f 7/7/7 2/2/2 1/1/1
f 45/45/45 7/7/7 1/1/1
f 46/46/46 7/7/7 45/45/45
f 3/3/3 46/46/46 45/45/45
f 5/5/5 46/46/46 3/3/3
f 6/6/6 5/5/5 3/3/3
f 47/47/47 54/54/54 49/49/49
f 53/53/53 54/54/54 47/47/47
f 12/12/12 53/53/53 47/47/47
f 52/52/52 53/53/53 12/12/12
f 11/11/11 52/52/52 12/12/12
f 51/51/51 52/52/52 11/11/11
f 38/38/38 51/51/51 11/11/11
f 50/50/50 51/51/51 38/38/38
f 10/10/10 50/50/50 38/38/38
f 49/49/49 50/50/50 10/10/10
f 9/9/9 49/49/49 10/10/10
f 47/47/47 49/49/49 9/9/9
f 48/48/48 60/60/60 55/55/55
f 59/59/59 60/60/60 48/48/48
f 16/16/16 59/59/59 48/48/48
f 58/58/58 59/59/59 16/16/16
f 15/15/15 58/58/58 16/16/16
f 57/57/57 58/58/58 15/15/15
f 37/37/37 57/57/57 15/15/15
f 56/56/56 57/57/57 37/37/37
f 14/14/14 56/56/56 37/37/37
f 55/55/55 56/56/56 14/14/14
f 13/13/13 55/55/55 14/14/14
f 48/48/48 55/55/55 13/13/13
f 41/41/41 63/63/63 64/64/64
f 62/62/62 63/63/63 41/41/41
f 18/18/18 62/62/62 41/41/41
f 61/61/61 62/62/62 18/18/18
f 17/17/17 61/61/61 18/18/18
f 66/66/66 61/61/61 17/17/17
f 44/44/44 66/66/66 17/17/17
f 65/65/65 66/66/66 44/44/44
f 20/20/20 65/65/65 44/44/44
f 64/64/64 65/65/65 20/20/20
f 19/19/19 64/64/64 20/20/20
f 41/41/41 64/64/64 19/19/19
f 42/42/42 69/69/69 70/70/70
f 68/68/68 69/69/69 42/42/42
f 22/22/22 68/68/68 42/42/42
f 67/67/67 68/68/68 22/22/22
f 21/21/21 67/67/67 22/22/22
f 72/72/72 67/67/67 21/21/21
f 43/43/43 72/72/72 21/21/21
f 71/71/71 72/72/72 43/43/43
f 24/24/24 71/71/71 43/43/43
f 70/70/70 71/71/71 24/24/24
f 23/23/23 70/70/70 24/24/24
f 42/42/42 70/70/70 23/23/23
