g A1_floor1_ceiling_geo
v -5 4.5 12
v 4.5 4.5 12
v -5 4.5 10
v 4.5 4.5 10
v -5 5.747529 0.25
v 3 4.5 0.25
v -8.749991 4.5 10
v -8.749991 5.747529 0.25
v 8 4.5 10
v 8 4.5 -4
v 3 4.5 -4
v -5 5.747529 -0.25
v -8.749991 5.747529 -0.25
v -8.749991 4.5 2.25
v -5 4.5 2.25
v -5 4.5 0.25
v -6.870858 5.747529 -0.25
v -6.769937 5.747529 0.25
v -6.769937 4.5 2.25
v -6.769937 4.5 5.713275
v 5.593325 4.5 0.25
v 5.554868 4.5 5.79844
v -5 5.736341 0.25
v -5 4.5 2.21613
v -5 4.506716 2.229347
v -6.769937 4.506716 2.229347
v -8.749991 4.506716 2.229347
v -5 5.74396 0.2616163
v -6.769937 5.741892 0.2590382
v -8.749991 5.743546 0.256387
v -8.749991 5.747529 0.25
v -6.769937 5.747529 0.25
v -5 4.5 2.21613
v -5 5.747529 0.25
v -5 4.5 2.21613
v -5 4.5 0.25
v -5 5.736341 0.25
v -5 4.5 2.25
v -6.769937 4.5 2.25
v -8.749991 4.5 2.25
v -5 4.506716 2.229347
v -6.769937 5.741892 0.2590382
v -6.769937 4.506716 2.229347
v -5 5.74396 0.2616163
v -8.749991 5.743546 0.256387
v -8.749991 4.506716 2.229347
vt 0.1349761 0.8636992
vt 0.1349761 0.8636992
vt 0.1349761 0.8636992
vt 0.1349761 0.8636992
vt 0 1
vt 0.1349761 0.8636992
vt 0.1349761 0.8636992
vt 0.1349761 0.8703284
vt 0.1349761 0.8636992
vt 0.1349761 0.8636992
vt 0.1349761 0.8636992
vt 0.1349761 0.861176
vt 0.1349761 0.861176
vt 0.1349761 0.8636992
vt 0.1349761 0.8742255
vt 0.1349761 0.8636992
vt 0.1349761 0.8799598
vt 0.1349761 0.8854028
vt 0.1349761 0.8798096
vt 0.1349761 0.8798494
vt 0.1349761 0.8901609
vt 0.1349761 0.8798494
vt 0 1
vt 0 1
vt 0 1
vt 0 1
vt 0 1
vt 0 1
vt 0 1
vt 0 1
vt 0 1
vt 0 1
vt 0.1349761 0.8738966
vt 0.1349761 0.8703284
vt 0.4831836 0.4903122
vt 0.4831836 0.4903122
vt 0.4831836 0.499869
vt 0 1
vt 0 1
vt 0 1
vt 0.1319113 0.8898084
vt 0.1319113 0.8966441
vt 0.1319113 0.8966441
vt 0.1319113 0.8779256
vt 0.1319113 0.8778265
vt 0.1319113 0.8778265
vn 0 -1 0
vn 0 -1 0
vn 0 -1 0
vn 0 -1 0
vn -0.4548687 -0.8710608 -0.185331
vn 0 -1 0
vn 0 -1 0
vn 0 -0.9831756 -0.1826626
vn 0 -1 0
vn 0 -1 0
vn 0 -1 0
vn 0 -1 0
vn 0 -1 0
vn 0 -0.9876693 -0.1565551
vn -0.2446613 -0.966652 -0.07566211
vn -0.7071068 -0.7071068 0
vn 0 -1 0
vn 0.0001710797 -0.9812118 -0.1929335
vn 0 -0.9876691 -0.1565559
vn 0 -1 0
vn 0 -1 0
vn 0 -1 0
vn -1 4.135255E-07 0
vn -0.9486834 -0.3162275 0
vn -0.7096326 -0.6382051 -0.2985229
vn 0.0002227077 -0.9058771 -0.4235407
vn 1.053844E-06 -0.9059486 -0.4233876
vn -0.4474951 -0.7890773 -0.4208386
vn 0.000429366 -0.8656099 -0.5007188
vn 9.987887E-07 -0.8478827 -0.5301839
vn 0 -0.9831756 -0.1826626
vn 0.0001710797 -0.9812118 -0.1929335
vn -0.9486834 -0.3162275 0
vn -0.4548687 -0.8710608 -0.185331
vn -0.9486834 -0.3162275 0
vn -0.7071068 -0.7071068 0
vn -1 4.135255E-07 0
vn -0.2446613 -0.966652 -0.07566211
vn 0 -0.9876691 -0.1565559
vn 0 -0.9876693 -0.1565551
vn -0.7096326 -0.6382051 -0.2985229
vn 0.000429366 -0.8656099 -0.5007188
vn 0.0002227077 -0.9058771 -0.4235407
vn -0.4474951 -0.7890773 -0.4208386
vn 9.987887E-07 -0.8478827 -0.5301839
vn 1.053844E-06 -0.9059486 -0.4233876
g A1_floor1_ceiling_geo_0
f 36/36/36 35/35/35 37/37/37
f 18/18/18 12/12/12 34/34/34
f 17/17/17 12/12/12 18/18/18
f 8/8/8 17/17/17 18/18/18
f 13/13/13 17/17/17 8/8/8
f 28/28/28 5/5/5 23/23/23
f 32/32/32 5/5/5 28/28/28
f 29/29/29 32/32/32 28/28/28
f 31/31/31 32/32/32 29/29/29
f 30/30/30 31/31/31 29/29/29
f 6/6/6 33/33/33 16/16/16
f 15/15/15 33/33/33 6/6/6
f 20/20/20 15/15/15 6/6/6
f 19/19/19 15/15/15 20/20/20
f 14/14/14 19/19/19 20/20/20
f 22/22/22 20/20/20 6/6/6
f 3/3/3 20/20/20 22/22/22
f 4/4/4 3/3/3 22/22/22
f 1/1/1 3/3/3 4/4/4
f 2/2/2 1/1/1 4/4/4
f 25/25/25 23/23/23 24/24/24
f 38/38/38 25/25/25 24/24/24
f 26/26/26 25/25/25 38/38/38
f 39/39/39 26/26/26 38/38/38
f 27/27/27 26/26/26 39/39/39
f 40/40/40 27/27/27 39/39/39
f 43/43/43 46/46/46 45/45/45
f 42/42/42 43/43/43 45/45/45
f 41/41/41 43/43/43 42/42/42
f 44/44/44 41/41/41 42/42/42
f 20/20/20 7/7/7 14/14/14
f 3/3/3 7/7/7 20/20/20
f 22/22/22 9/9/9 4/4/4
f 10/10/10 9/9/9 22/22/22
f 21/21/21 10/10/10 22/22/22
f 11/11/11 10/10/10 21/21/21
f 6/6/6 11/11/11 21/21/21
f 28/28/28 23/23/23 25/25/25
f 22/22/22 6/6/6 21/21/21
