g A1_paintings_geo
v -7.221109 2.990546 -3.936196
v -6.141114 2.990546 -3.936196
v -7.221109 3.701176 -3.936196
v -6.141114 3.701176 -3.936196
v 7.935476 1.46644 7.06084
v 7.935476 1.46644 8.140836
v 7.935476 2.17707 7.06084
v 7.935476 2.17707 8.140836
v -8.685468 1.46644 6.558111
v -8.685468 1.46644 5.478117
v -8.685468 2.17707 6.558111
v -8.685468 2.17707 5.478117
v 7.935476 1.46644 -0.8965269
v 7.935476 1.46644 0.1834681
v 7.935476 2.17707 -0.8965269
v 7.935476 2.17707 0.1834681
v 0.05011406 6.466441 7.934977
v -1.029881 6.466441 7.934977
v 0.05011406 7.17707 7.934977
v -1.029881 7.17707 7.934977
v -1.923124 5.169755 -3.936196
v -0.8431286 5.169755 -3.936196
v -1.923124 5.880384 -3.936196
v -0.8431286 5.880384 -3.936196
v 7.925477 6.511139 -3.551922
v 7.925477 6.511139 -2.471927
v 7.925477 7.221768 -3.551922
v 7.925477 7.221768 -2.471927
vt 0.01257783 0.1390986
vt 0.3314891 0.1390986
vt 0.01257783 0.316359
vt 0.3314891 0.316359
vt 0.3537951 0.7770756
vt 0.6443262 0.7770756
vt 0.3537951 0.9925869
vt 0.6443262 0.9925869
vt 0.6619518 0.1153895
vt 0.9959651 0.1153895
vt 0.6619518 0.2779658
vt 0.9959651 0.2779658
vt 0.02420425 0.7806749
vt 0.3431154 0.7806749
vt 0.02420425 0.9579353
vt 0.3431154 0.9579353
vt 0.6622612 0.6566629
vt 0.9811725 0.6566629
vt 0.6622612 0.8339233
vt 0.9811725 0.8339233
vt 0.6581689 0.4681113
vt 0.9770801 0.4681113
vt 0.6581689 0.6453716
vt 0.9770801 0.6453716
vt 0.6622612 0.6566629
vt 0.9811725 0.6566629
vt 0.6622612 0.8339233
vt 0.9811725 0.8339233
vn 0 0 1
vn 0 0 1
vn 0 0 1
vn 0 0 1
vn -1 0 0
vn -1 0 0
vn -1 0 0
vn -1 0 0
vn 1 0 0
vn 1 0 0
vn 1 0 0
vn 1 0 0
vn -1 0 0
vn -1 0 0
vn -1 0 0
vn -1 0 0
vn 0 0 -1
vn 0 0 -1
vn 0 0 -1
vn 0 0 -1
vn 0 0 1
vn 0 0 1
vn 0 0 1
vn 0 0 1
vn -1 0 0
vn -1 0 0
vn -1 0 0
vn -1 0 0
g A1_paintings_geo_0
f 4/4/4 1/1/1 2/2/2
f 3/3/3 1/1/1 4/4/4
f 8/8/8 5/5/5 6/6/6
f 7/7/7 5/5/5 8/8/8
f 12/12/12 9/9/9 10/10/10
f 11/11/11 9/9/9 12/12/12
f 16/16/16 13/13/13 14/14/14
f 15/15/15 13/13/13 16/16/16
f 20/20/20 17/17/17 18/18/18
f 19/19/19 17/17/17 20/20/20
f 24/24/24 21/21/21 22/22/22
f 23/23/23 21/21/21 24/24/24
f 28/28/28 25/25/25 26/26/26
f 27/27/27 25/25/25 28/28/28
