g answeringMachine_geo
v -0.1463251 0 0.1276087
v 0.1463251 0 0.1276087
v -0.1463251 0.09053126 0.1518665
v 0.1463251 0.09053126 0.1518665
v -0.1463251 0.1654164 -0.1276087
v 0.1463251 0.1654164 -0.1276087
v -0.1463251 0.07488515 -0.1518665
v 0.1463251 0.07488515 -0.1518665
v -0.1463251 0.05182637 0.1414955
v -0.1463251 0.0387049 0.1379797
v -0.1463251 0.1135901 -0.1414956
v -0.1463251 0.1267115 -0.1379797
v 0.1463251 0.1267115 -0.1379797
v 0.1463251 0.11359 -0.1414956
v 0.1463251 0.03870489 0.1379796
v 0.1463251 0.05182636 0.1414955
v 0.04620026 0.09053126 0.1518665
v 0.03261566 0.09053126 0.1518665
v 0.03261566 0.1654164 -0.1276087
v 0.04620026 0.1654164 -0.1276087
v -0.130405 -2.366737E-09 0.1276087
v 0.1304053 -2.366737E-09 0.1276087
v -0.130405 0.08435517 0.1276087
v -0.130405 0.08435517 -0.1289642
v 0.1304053 0.08435517 -0.1289642
v -0.130405 -2.366737E-09 -0.1289642
v 0.1304053 -2.366737E-09 -0.1289642
v -0.1463251 0.07488515 -0.1518665
v 0.1463251 0 0.1276087
v 0.1463251 0.07488515 -0.1518665
v -0.1463251 0 0.1276087
v -0.1463251 0.09053126 0.1518665
v -0.1463251 0.1654164 -0.1276087
v 0.03261566 0.1654164 -0.1276087
v 0.03261566 0.09053126 0.1518665
v 0.1463251 0.09053126 0.1518665
v 0.1463251 0.1654164 -0.1276087
v 0.04620026 0.1654164 -0.1276087
v 0.04620026 0.09053126 0.1518665
v -0.1463251 0.05182637 0.1414955
v 0.1463251 0.03870489 0.1379796
v -0.1463251 0.0387049 0.1379797
v 0.1463251 0.05182636 0.1414955
v -0.1463251 0.1267115 -0.1379797
v -0.1463251 0.1135901 -0.1414956
v 0.1463251 0.1267115 -0.1379797
v 0.1463251 0.11359 -0.1414956
v 0.03261566 0.09053126 0.1518665
v 0.04620026 0.1654164 -0.1276087
v 0.04620026 0.09053126 0.1518665
v 0.03261566 0.1654164 -0.1276087
vt 0.7460196 0.8821586
vt 0.7460196 0.8821586
vt -9.536743E-07 0.002451488
vt 0.7460196 0.8821586
vt -9.536743E-07 0.7508255
vt 0.7460196 0.8821586
vt 0.7460196 0.8821586
vt 0.7460196 0.8821586
vt 0.7460196 0.8821586
vt 0.7460196 0.8821586
vt 0.7460195 0.8821586
vt 0.7460196 0.8821586
vt 0.7460196 0.8821586
vt 0.7460196 0.8821586
vt 0.7460195 0.8821586
vt 0.7460196 0.8821586
vt 0.6535748 0.005665541
vt 0.6336647 0.002451488
vt 0.6336647 0.7508255
vt 0.6535748 0.7002875
vt 0.984992 0.8820376
vt 0.984992 0.8820376
vt 0.984992 0.8820376
vt 0.984992 0.8820376
vt 0.984992 0.8820376
vt 0.984992 0.8820376
vt 0.984992 0.8820376
vt 0.9816782 0.7806039
vt 0.9816782 0.7806039
vt 0.9816782 0.7806039
vt 0.9816782 0.7806039
vt 0.7460196 0.8821586
vt 0.7460196 0.8821586
vt 0.7460196 0.8821586
vt 0.7460196 0.8821586
vt 1 0.005665541
vt 1 0.7002875
vt 0.7460196 0.8821586
vt 0.7460195 0.8821586
vt 0.9267743 0.5965299
vt 0.9267743 0.5965299
vt 0.9267743 0.5965299
vt 0.9267743 0.5965299
vt 0.9267743 0.5965299
vt 0.9267743 0.5965299
vt 0.9267743 0.5965299
vt 0.9267743 0.5965299
vt 0.9267743 0.5965299
vt 0.9267743 0.5965299
vt 0.9267743 0.5965299
vt 0.9267743 0.5965299
vn -0.5773503 -0.7071067 0.4082483
vn 0.5773503 -0.7071066 0.4082483
vn -0.5773503 0.4082482 0.7071067
vn 0.5773503 0.4082482 0.7071068
vn -0.5773503 0.7071068 -0.4082483
vn 0.5773502 0.7071069 -0.4082482
vn -0.5773503 -0.4082483 -0.7071068
vn 0.5773503 -0.4082483 -0.7071068
vn -0.7071068 -0.1830128 0.6830127
vn -0.7071068 -0.1830127 0.6830127
vn -0.7071068 0.1830127 -0.6830127
vn -0.7071068 0.1830127 -0.6830127
vn 0.4472136 0.2314949 -0.8639503
vn 0.7071068 0.1830127 -0.6830127
vn 0.7071068 -0.1830127 0.6830127
vn 0.4472136 -0.2314949 0.8639503
vn 0 0.5 0.8660254
vn 0 0.5 0.8660254
vn 0 0.8660254 -0.5
vn 0 0.8660255 -0.4999999
vn -0.7071068 -0.7071068 0
vn 0.7071068 -0.7071068 0
vn -1 0 0
vn -0.7071068 0 -0.7071068
vn 0.7071068 0 -0.7071068
vn -0.5773502 -0.5773503 -0.5773503
vn 0.5773503 -0.5773503 -0.5773503
vn -0.5773503 -0.4082483 -0.7071068
vn 0.5773503 -0.7071066 0.4082483
vn 0.5773503 -0.4082483 -0.7071068
vn -0.5773503 -0.7071067 0.4082483
vn -0.5773503 0.4082482 0.7071067
vn -0.5773503 0.7071068 -0.4082483
vn 0 0.8660254 -0.5
vn 0 0.5 0.8660254
vn 0.5773503 0.4082482 0.7071068
vn 0.5773502 0.7071069 -0.4082482
vn 0 0.8660255 -0.4999999
vn 0 0.5 0.8660254
vn -0.7071068 -0.1830128 0.6830127
vn 0.7071068 -0.1830127 0.6830127
vn -0.7071068 -0.1830127 0.6830127
vn 0.4472136 -0.2314949 0.8639503
vn -0.7071068 0.1830127 -0.6830127
vn -0.7071068 0.1830127 -0.6830127
vn 0.4472136 0.2314949 -0.8639503
vn 0.7071068 0.1830127 -0.6830127
vn 0 0.5 0.8660254
vn 0 0.8660255 -0.4999999
vn 0 0.5 0.8660254
vn 0 0.8660254 -0.5
g answeringMachine_geo_0
f 19/19/19 3/3/3 18/18/18
f 5/5/5 3/3/3 19/19/19
f 29/29/29 28/28/28 30/30/30
f 31/31/31 28/28/28 29/29/29
f 36/36/36 20/20/20 17/17/17
f 37/37/37 20/20/20 36/36/36
f 49/49/49 48/48/48 50/50/50
f 51/51/51 48/48/48 49/49/49
f 10/10/10 1/1/1 15/15/15
f 7/7/7 1/1/1 10/10/10
f 11/11/11 7/7/7 10/10/10
f 8/8/8 7/7/7 11/11/11
f 14/14/14 8/8/8 11/11/11
f 2/2/2 8/8/8 14/14/14
f 15/15/15 2/2/2 14/14/14
f 1/1/1 2/2/2 15/15/15
f 13/13/13 34/34/34 38/38/38
f 33/33/33 34/34/34 13/13/13
f 12/12/12 33/33/33 13/13/13
f 32/32/32 33/33/33 12/12/12
f 9/9/9 32/32/32 12/12/12
f 35/35/35 32/32/32 9/9/9
f 16/16/16 35/35/35 9/9/9
f 39/39/39 35/35/35 16/16/16
f 4/4/4 39/39/39 16/16/16
f 6/6/6 13/13/13 38/38/38
f 16/16/16 13/13/13 6/6/6
f 4/4/4 16/16/16 6/6/6
f 44/44/44 42/42/42 40/40/40
f 45/45/45 42/42/42 44/44/44
f 46/46/46 45/45/45 44/44/44
f 47/47/47 45/45/45 46/46/46
f 43/43/43 47/47/47 46/46/46
f 41/41/41 47/47/47 43/43/43
f 40/40/40 41/41/41 43/43/43
f 42/42/42 41/41/41 40/40/40
f 27/27/27 25/25/25 22/22/22
f 24/24/24 25/25/25 27/27/27
f 26/26/26 24/24/24 27/27/27
f 23/23/23 24/24/24 26/26/26
f 21/21/21 23/23/23 26/26/26
f 26/26/26 22/22/22 21/21/21
f 27/27/27 22/22/22 26/26/26
