g apple_geo
v 0.1146562 1.313029 0.1488726
v 0.1315649 1.345198 0.1422008
v 0.08753709 1.35186 0.1779012
v 0.06603739 1.325334 0.1800583
v 0.05592306 1.350906 0.1819141
v 0.04601901 1.363877 0.1805769
v 0.1341001 1.380986 0.1421292
v 0.09011211 1.381809 0.1695402
v 0.123511 1.400932 0.1467639
v 0.03929421 1.286875 -0.03749897
v -1.456257E-23 1.283553 -0.04225942
v 0.07499216 1.301332 -0.02778842
v 0.1021095 1.326866 -0.02159022
v 0.04392613 1.257044 0.00465096
v -2.434206E-24 1.259177 -0.0221578
v 0.0733681 1.284016 0.00910655
v 0.1166647 1.315294 0.00473313
v 0.07318121 1.273361 0.05815222
v 0.05618283 1.245546 0.06704794
v 0.1152225 1.306755 0.05281858
v -4.071364E-20 1.225689 0.07538773
v 0.04963628 1.232485 0.1229627
v -1.279402E-19 1.219183 0.1224589
v 0.08816277 1.277143 0.1102234
v 0.1188735 1.308136 0.09580178
v 0.08168612 1.287774 0.1555878
v 0.1181 1.35067 -0.01374374
v 0.1368367 1.348674 0.01067679
v 0.1406345 1.347531 0.0523354
v 0.1407824 1.345402 0.09753739
v 0.1403743 1.374042 0.01877816
v 0.1468557 1.39099 0.04311103
v 0.147111 1.38152 0.09776738
v 0.1397124 1.407977 0.0974275
v 0.1425691 1.408141 0.06345906
v 0.131731 1.423 0.09391595
v -3.860647E-19 1.226101 0.2035307
v 0.03749091 1.230046 0.1960061
v 0.03453506 1.239562 0.2039876
v -3.047183E-19 1.23741 0.2100892
v 0.0619489 1.251462 0.1505937
v 0.05099519 1.276744 0.1849016
v 0.06426293 1.296463 0.181237
v -1.096303E-19 1.270506 0.20024
v -5.11131E-20 1.289336 0.1960446
v -1.780843E-20 1.322057 0.1936887
v -1.202954E-20 1.341879 0.1896978
v 0.03202273 1.234008 -0.001582043
v -4.411414E-25 1.235551 -0.01502553
v 0.04874292 1.230203 0.0306926
v 0.03632342 1.227786 0.05316169
v -3.334464E-20 1.222517 0.06881739
v 0.03065886 1.222404 0.1843903
v -4.220777E-19 1.217161 0.188677
v 0.00899289 1.352196 0.1857211
v -1.169924E-20 1.35024 0.1879142
v 0.02748297 1.205848 -0.005407845
v 5.025004E-12 1.206701 -0.01441916
v 0.04401299 1.204432 0.02435903
v 0.03389057 1.192549 0.05261865
v -2.687383E-19 1.187788 0.06550195
v -0.1146562 1.313029 0.1488726
v -0.06603739 1.325334 0.1800583
v -0.08753709 1.35186 0.1779012
v -0.1315649 1.345198 0.1422008
v -0.05592306 1.350906 0.1819141
v -0.04601901 1.363877 0.1805769
v -0.1341001 1.380986 0.1421292
v -0.09011211 1.381809 0.1695402
v -0.123511 1.400932 0.1467639
v -0.03929421 1.286875 -0.03749897
v -0.07499216 1.301332 -0.02778842
v -0.1021095 1.326866 -0.02159022
v -0.04392613 1.257044 0.00465096
v -0.0733681 1.284016 0.00910655
v -0.1166647 1.315294 0.00473313
v -0.05618283 1.245546 0.06704794
v -0.07318121 1.273361 0.05815222
v -0.1152225 1.306755 0.05281858
v -0.04963628 1.232485 0.1229627
v -0.08816277 1.277143 0.1102234
v -0.1188735 1.308136 0.09580178
v -0.08168612 1.287774 0.1555878
v -0.1181 1.35067 -0.01374374
v -0.1368367 1.348674 0.01067679
v -0.1406345 1.347531 0.0523354
v -0.1407824 1.345402 0.09753739
v -0.1403743 1.374042 0.01877816
v -0.1468557 1.39099 0.04311103
v -0.147111 1.38152 0.09776738
v -0.1397124 1.407977 0.0974275
v -0.131731 1.423 0.09391595
v -0.1425691 1.408141 0.06345906
v -0.03453506 1.239562 0.2039876
v -0.03749091 1.230046 0.1960061
v -0.0619489 1.251462 0.1505937
v -0.05099519 1.276744 0.1849016
v -0.06426293 1.296463 0.181237
v -0.03202273 1.234008 -0.00158205
v -0.04874292 1.230203 0.0306926
v -0.03632342 1.227786 0.05316169
v -0.03065886 1.222404 0.1843903
v -0.00899289 1.352196 0.1857211
v -0.02748297 1.205848 -0.005407845
v -0.04401299 1.204432 0.02435903
v -0.03389057 1.192549 0.05261865
v 0.02749415 1.271694 0.1948724
v -0.02749415 1.271694 0.1948724
v -0.08337782 1.320946 0.1689356
v -0.07477818 1.29992 0.1744837
v 0.0827251 1.321111 0.1693542
v 0.07708372 1.300678 0.173003
v -1.456257E-23 1.283553 -0.04225942
v -2.434206E-24 1.259177 -0.0221578
v -4.411414E-25 1.235551 -0.01502553
v 5.025004E-12 1.206701 -0.01441916
v 0.08753709 1.35186 0.1779012
v 0.1315649 1.345198 0.1422008
v 0.1146562 1.313029 0.1488726
v 0.05592306 1.350906 0.1819141
v 0.08753709 1.35186 0.1779012
v 0.05099519 1.276744 0.1849016
v -3.047183E-19 1.23741 0.2100892
v 0.03453506 1.239562 0.2039876
v 0.05099519 1.276744 0.1849016
v 0.08168612 1.287774 0.1555878
v 0.04601901 1.363877 0.1805769
v -0.08753709 1.35186 0.1779012
v -0.05592306 1.350906 0.1819141
v -0.03453506 1.239562 0.2039876
v -0.05099519 1.276744 0.1849016
v -0.04601901 1.363877 0.1805769
v -0.1146562 1.313029 0.1488726
v -0.08753709 1.35186 0.1779012
v -0.08337782 1.320946 0.1689356
v -0.1315649 1.345198 0.1422008
v -0.07477818 1.29992 0.1744837
v -0.08168612 1.287774 0.1555878
v -0.05099519 1.276744 0.1849016
v 0.0827251 1.321111 0.1693542
v 0.07708372 1.300678 0.173003
vt 0.6481199 0.208166
vt 0.6524641 0.2150296
vt 0.6388922 0.2170778
vt 0.6337922 0.2113416
vt 0.6276797 0.2190925
vt 0.6284628 0.222931
vt 0.6524832 0.2230924
vt 0.6399164 0.2257068
vt 0.652884 0.228902
vt 0.6782016 0.1556399
vt 0.6768724 0.1405076
vt 0.6839072 0.1708156
vt 0.6937607 0.1873636
vt 0.6599367 0.1564025
vt 0.6691192 0.1406595
vt 0.6688649 0.1701376
vt 0.6824616 0.1872867
vt 0.6508274 0.175031
vt 0.6384156 0.1680728
vt 0.6662704 0.1912525
vt 0.6132437 0.1619004
vt 0.6302049 0.1735821
vt 0.6131777 0.1686002
vt 0.6455373 0.1870516
vt 0.6569771 0.198271
vt 0.634198 0.1980224
vt 0.700038 0.1993068
vt 0.6879273 0.2017619
vt 0.6741753 0.2064033
vt 0.6625025 0.2106596
vt 0.688744 0.21431
vt 0.6755589 0.2180011
vt 0.6639635 0.221102
vt 0.6641741 0.2293843
vt 0.6729356 0.2308903
vt 0.6631536 0.2363926
vt 0.612907 0.1865104
vt 0.620836 0.1862129
vt 0.6199461 0.1897883
vt 0.6128466 0.1903634
vt 0.6339532 0.1854257
vt 0.628399 0.1951298
vt 0.6273139 0.2028417
vt 0.612817 0.1972715
vt 0.6129218 0.20255
vt 0.6132809 0.2101159
vt 0.6135575 0.2151931
vt 0.6545197 0.1478033
vt 0.6618748 0.1382187
vt 0.6433508 0.1560979
vt 0.6314964 0.1583963
vt 0.6132584 0.1593211
vt 0.6192386 0.1822099
vt 0.6129803 0.1813874
vt 0.6168985 0.2181031
vt 0.6135917 0.2181215
vt 0.6483414 0.1394429
vt 0.6553187 0.1323067
vt 0.6391676 0.1477806
vt 0.6271228 0.1486024
vt 0.6132445 0.1484632
vt 0.5798987 0.2047497
vt 0.592824 0.2102732
vt 0.5882806 0.2156344
vt 0.5753994 0.213336
vt 0.5992207 0.2183687
vt 0.5985858 0.2222287
vt 0.5754034 0.2223753
vt 0.5876828 0.2240262
vt 0.575205 0.2286933
vt 0.5486226 0.1559633
vt 0.5431945 0.1709453
vt 0.5337831 0.1873777
vt 0.5667564 0.1565171
vt 0.5580497 0.1700958
vt 0.5449328 0.1871795
vt 0.5880822 0.1678684
vt 0.5757357 0.1746182
vt 0.5607415 0.1907752
vt 0.5960594 0.1733494
vt 0.5803062 0.1861074
vt 0.5698514 0.1971725
vt 0.5884169 0.197443
vt 0.5279384 0.1992478
vt 0.5398442 0.2016325
vt 0.5534407 0.206107
vt 0.5651206 0.209965
vt 0.5391265 0.2140937
vt 0.5522733 0.2177534
vt 0.5639325 0.2207199
vt 0.5638292 0.2291784
vt 0.5647203 0.2362638
vt 0.5548831 0.2306825
vt 0.6057213 0.1896758
vt 0.6049666 0.1860764
vt 0.5915792 0.1849463
vt 0.5966163 0.194729
vt 0.5981598 0.2021344
vt 0.5720529 0.1479849
vt 0.5832225 0.1561415
vt 0.5950508 0.1583778
vt 0.6067003 0.1821189
vt 0.6102908 0.2180171
vt 0.5781282 0.1396338
vt 0.5873545 0.147866
vt 0.5993829 0.1486501
vt 0.620608 0.1962007
vt 0.6047167 0.1960003
vt 0.588214 0.2083032
vt 0.5949146 0.2017621
vt 0.63871 0.2102516
vt 0.6311905 0.202658
vt 0.5496819 0.1409889
vt 0.5574121 0.1410277
vt 0.5646003 0.1385384
vt 0.5710686 0.132611
vt 0.6388922 0.2170778
vt 0.6524641 0.2150296
vt 0.6481199 0.208166
vt 0.6276797 0.2190925
vt 0.6388922 0.2170778
vt 0.628399 0.1951298
vt 0.6128466 0.1903634
vt 0.6199461 0.1897883
vt 0.628399 0.1951298
vt 0.634198 0.1980224
vt 0.6284628 0.222931
vt 0.5882806 0.2156344
vt 0.5992207 0.2183687
vt 0.6057213 0.1896758
vt 0.5966163 0.194729
vt 0.5985858 0.2222287
vt 0.5798987 0.2047497
vt 0.5882806 0.2156344
vt 0.588214 0.2083032
vt 0.5753994 0.213336
vt 0.5949146 0.2017621
vt 0.5884169 0.197443
vt 0.5966163 0.194729
vt 0.63871 0.2102516
vt 0.6311905 0.202658
vn 0.7048915 -0.4341175 0.5609545
vn 0.8147483 -0.2306793 0.5319514
vn 0.4210405 -0.03424256 0.9063952
vn 0.3078573 -0.03939769 0.9506165
vn 0.1275733 0.1322058 0.9829785
vn 0.1081925 0.2323716 0.9665908
vn 0.8373335 0.1344379 0.5299047
vn 0.3358464 0.1978383 0.9209056
vn 0.7672999 0.3610487 0.529995
vn 0.4079167 -0.7260463 -0.5535889
vn 0 -0.7443522 -0.6677873
vn 0.5600134 -0.7023748 -0.4393798
vn 0.6744415 -0.5258314 -0.5182953
vn 0.7085736 -0.468821 -0.5273805
vn 0 -0.4887354 -0.8724321
vn 0.6192706 -0.7202838 -0.3125622
vn 0.7210151 -0.6125274 -0.3239559
vn 0.6903082 -0.709919 -0.1396054
vn 0.692821 -0.7210849 0.005963565
vn 0.7474685 -0.6582199 -0.08965106
vn 0 -0.9830949 0.1830968
vn 0.5846403 -0.8107476 -0.0297346
vn 0 -0.9934424 -0.1143336
vn 0.7486818 -0.655947 0.09596385
vn 0.7783613 -0.6257279 0.05116849
vn 0.6949782 -0.5743795 0.4325431
vn 0.7870415 -0.1280154 -0.6034713
vn 0.8982319 -0.2421424 -0.3668059
vn 0.9378666 -0.3405461 -0.06659271
vn 0.9419362 -0.3257307 0.08158223
vn 0.9260308 -0.03106448 -0.3761677
vn 0.9993186 -0.02183993 -0.02975277
vn 0.9884986 0.05653177 0.1402659
vn 0.8997011 0.3779218 0.2184331
vn 0.9300239 0.3616165 0.06549045
vn 0.8432151 0.4962848 0.206615
vn 0 -0.7315905 0.6817443
vn 0.5755276 -0.6327657 0.5180497
vn 0.4524124 -0.02488159 0.8914617
vn 1.00601E-07 -0.1407678 0.9900427
vn 0.8233513 -0.5042438 0.2604437
vn 0.6520256 -0.1649405 0.7400387
vn 0.4058433 -0.009348586 0.9138948
vn 0 0.2565809 0.9665227
vn 0 0.144407 0.9895185
vn 0 0.06763764 0.99771
vn 0 0.1732228 0.9848827
vn 0.6697694 -0.125885 -0.7318209
vn 1.230442E-07 -0.06021594 -0.9981853
vn 0.9455227 -0.3008804 -0.1243292
vn 0.6327484 -0.5207559 0.5730994
vn 0 -0.5241753 0.8516104
vn 0.411604 -0.8920403 0.186672
vn 0 -0.9741212 0.2260264
vn 0.1374704 0.2151454 0.966858
vn 0 0.2086406 0.9779924
vn 0.6575419 -0.01956772 -0.7531639
vn 1.911805E-07 0.02632886 -0.9996533
vn 0.9913988 -0.1161248 -0.06036141
vn 0.7063529 -0.1156811 0.6983434
vn 0 -0.06945826 0.9975848
vn -0.705045 -0.4339573 0.5608855
vn -0.3078569 -0.03939753 0.9506166
vn -0.4211636 -0.03411679 0.9063428
vn -0.8148849 -0.2304679 0.5318337
vn -0.1275731 0.1322056 0.9829785
vn -0.1081922 0.2323712 0.9665909
vn -0.8373333 0.1344378 0.5299051
vn -0.3358457 0.1978381 0.9209059
vn -0.7672995 0.3610485 0.5299956
vn -0.4079167 -0.7260463 -0.5535889
vn -0.5600133 -0.7023748 -0.4393801
vn -0.6744412 -0.5258311 -0.5182961
vn -0.7085737 -0.468821 -0.5273804
vn -0.6192706 -0.7202839 -0.3125623
vn -0.721015 -0.6125272 -0.3239566
vn -0.6928211 -0.7210848 0.00596376
vn -0.690308 -0.709919 -0.1396053
vn -0.7474685 -0.6582199 -0.08965126
vn -0.5846403 -0.8107476 -0.02973457
vn -0.7486818 -0.655947 0.09596386
vn -0.7783614 -0.6257279 0.05116867
vn -0.6965839 -0.5699279 0.4358359
vn -0.7870407 -0.1280152 -0.6034725
vn -0.8982316 -0.2421421 -0.3668066
vn -0.9378666 -0.340546 -0.06659268
vn -0.9419362 -0.3257307 0.08158251
vn -0.9260305 -0.03106432 -0.3761684
vn -0.9993186 -0.02183984 -0.02975275
vn -0.9884986 0.05653169 0.1402658
vn -0.8997011 0.3779217 0.2184334
vn -0.8432151 0.4962848 0.206615
vn -0.9300239 0.3616164 0.06549049
vn -0.4524125 -0.0248817 0.8914616
vn -0.575528 -0.6327658 0.5180492
vn -0.8233513 -0.5042438 0.2604432
vn -0.6518118 -0.1611167 0.7410687
vn -0.4058492 -0.009350707 0.9138921
vn -0.6697693 -0.1258849 -0.731821
vn -0.9455227 -0.3008804 -0.1243296
vn -0.6327484 -0.5207557 0.5730995
vn -0.411604 -0.8920403 0.1866719
vn -0.1374703 0.2151451 0.9668581
vn -0.6575416 -0.01956775 -0.7531641
vn -0.9913988 -0.1161247 -0.06036134
vn -0.7063528 -0.1156811 0.6983434
vn 0.2247617 0.2473719 0.942491
vn -0.2247617 0.2473719 0.9424911
vn -0.5284702 -0.1302516 0.8389003
vn -0.6073355 -0.268569 0.7476726
vn 0.5282939 -0.1304346 0.8389829
vn 0.6072233 -0.2729091 0.7461907
vn 0 -0.7443522 -0.6677873
vn 0 -0.4887354 -0.8724321
vn 1.230442E-07 -0.06021594 -0.9981853
vn 1.911805E-07 0.02632886 -0.9996533
vn 0.4210405 -0.03424256 0.9063952
vn 0.8147483 -0.2306793 0.5319514
vn 0.7048915 -0.4341175 0.5609545
vn 0.1275733 0.1322058 0.9829785
vn 0.4210405 -0.03424256 0.9063952
vn 0.6520256 -0.1649405 0.7400387
vn 1.00601E-07 -0.1407678 0.9900427
vn 0.4524124 -0.02488159 0.8914617
vn 0.6520256 -0.1649405 0.7400387
vn 0.6949782 -0.5743795 0.4325431
vn 0.1081925 0.2323716 0.9665908
vn -0.4211636 -0.03411679 0.9063428
vn -0.1275731 0.1322056 0.9829785
vn -0.4524125 -0.0248817 0.8914616
vn -0.6518118 -0.1611167 0.7410687
vn -0.1081922 0.2323712 0.9665909
vn -0.705045 -0.4339573 0.5608855
vn -0.4211636 -0.03411679 0.9063428
vn -0.5284702 -0.1302516 0.8389003
vn -0.8148849 -0.2304679 0.5318337
vn -0.6073355 -0.268569 0.7476726
vn -0.6965839 -0.5699279 0.4358359
vn -0.6518118 -0.1611167 0.7410687
vn 0.5282939 -0.1304346 0.8389829
vn 0.6072233 -0.2729091 0.7461907
g apple_geo_0
f 1/1/1 111/111/111 112/112/112
f 3/3/3 111/111/111 1/1/1
f 2/2/2 3/3/3 1/1/1
f 112/112/112 126/126/126 1/1/1
f 125/125/125 126/126/126 112/112/112
f 117/117/117 9/9/9 8/8/8
f 7/7/7 9/9/9 117/117/117
f 118/118/118 7/7/7 117/117/117
f 33/33/33 7/7/7 118/118/118
f 30/30/30 33/33/33 118/118/118
f 32/32/32 33/33/33 30/30/30
f 29/29/29 32/32/32 30/30/30
f 31/31/31 32/32/32 29/29/29
f 28/28/28 31/31/31 29/29/29
f 27/27/27 31/31/31 28/28/28
f 17/17/17 27/27/27 28/28/28
f 13/13/13 27/27/27 17/17/17
f 12/12/12 13/13/13 17/17/17
f 133/133/133 134/134/134 136/136/136
f 135/135/135 134/134/134 133/133/133
f 137/137/137 135/135/135 133/133/133
f 138/138/138 137/137/137 133/133/133
f 139/139/139 137/137/137 138/138/138
f 25/25/25 29/29/29 30/30/30
f 20/20/20 29/29/29 25/25/25
f 18/18/18 20/20/20 25/25/25
f 16/16/16 20/20/20 18/18/18
f 14/14/14 16/16/16 18/18/18
f 10/10/10 16/16/16 14/14/14
f 11/11/11 10/10/10 14/14/14
f 14/14/14 15/15/15 11/11/11
f 48/48/48 15/15/15 14/14/14
f 50/50/50 48/48/48 14/14/14
f 57/57/57 48/48/48 50/50/50
f 59/59/59 57/57/57 50/50/50
f 20/20/20 28/28/28 29/29/29
f 17/17/17 28/28/28 20/20/20
f 16/16/16 17/17/17 20/20/20
f 12/12/12 17/17/17 16/16/16
f 10/10/10 12/12/12 16/16/16
f 41/41/41 26/26/26 42/42/42
f 39/39/39 41/41/41 42/42/42
f 38/38/38 41/41/41 39/39/39
f 37/37/37 38/38/38 39/39/39
f 54/54/54 38/38/38 37/37/37
f 95/95/95 54/54/54 37/37/37
f 102/102/102 54/54/54 95/95/95
f 80/80/80 102/102/102 95/95/95
f 54/54/54 102/102/102 80/80/80
f 23/23/23 54/54/54 80/80/80
f 53/53/53 54/54/54 23/23/23
f 22/22/22 53/53/53 23/23/23
f 41/41/41 53/53/53 22/22/22
f 24/24/24 41/41/41 22/22/22
f 26/26/26 41/41/41 24/24/24
f 119/119/119 26/26/26 24/24/24
f 119/119/119 30/30/30 118/118/118
f 25/25/25 30/30/30 119/119/119
f 24/24/24 25/25/25 119/119/119
f 18/18/18 25/25/25 24/24/24
f 19/19/19 18/18/18 24/24/24
f 14/14/14 18/18/18 19/19/19
f 50/50/50 14/14/14 19/19/19
f 34/34/34 36/36/36 9/9/9
f 35/35/35 36/36/36 34/34/34
f 33/33/33 35/35/35 34/34/34
f 32/32/32 35/35/35 33/33/33
f 86/86/86 89/89/89 88/88/88
f 87/87/87 89/89/89 86/86/86
f 82/82/82 87/87/87 86/86/86
f 62/62/62 87/87/87 82/82/82
f 81/81/81 62/62/62 82/82/82
f 83/83/83 62/62/62 81/81/81
f 96/96/96 83/83/83 81/81/81
f 97/97/97 83/83/83 96/96/96
f 95/95/95 97/97/97 96/96/96
f 94/94/94 97/97/97 95/95/95
f 37/37/37 94/94/94 95/95/95
f 40/40/40 94/94/94 37/37/37
f 39/39/39 40/40/40 37/37/37
f 48/48/48 49/49/49 15/15/15
f 58/58/58 49/49/49 48/48/48
f 57/57/57 58/58/58 48/48/48
f 51/51/51 60/60/60 59/59/59
f 61/61/61 60/60/60 51/51/51
f 52/52/52 61/61/61 51/51/51
f 101/101/101 61/61/61 52/52/52
f 21/21/21 101/101/101 52/52/52
f 77/77/77 101/101/101 21/21/21
f 80/80/80 77/77/77 21/21/21
f 81/81/81 77/77/77 80/80/80
f 96/96/96 81/81/81 80/80/80
f 68/68/68 128/128/128 69/69/69
f 65/65/65 128/128/128 68/68/68
f 90/90/90 65/65/65 68/68/68
f 87/87/87 65/65/65 90/90/90
f 89/89/89 87/87/87 90/90/90
f 74/74/74 113/113/113 114/114/114
f 71/71/71 113/113/113 74/74/74
f 75/75/75 71/71/71 74/74/74
f 72/72/72 71/71/71 75/75/75
f 76/76/76 72/72/72 75/75/75
f 73/73/73 72/72/72 76/76/76
f 84/84/84 73/73/73 76/76/76
f 87/87/87 62/62/62 65/65/65
f 101/101/101 105/105/105 106/106/106
f 100/100/100 105/105/105 101/101/101
f 77/77/77 100/100/100 101/101/101
f 74/74/74 100/100/100 77/77/77
f 78/78/78 74/74/74 77/77/77
f 75/75/75 74/74/74 78/78/78
f 79/79/79 75/75/75 78/78/78
f 76/76/76 75/75/75 79/79/79
f 85/85/85 76/76/76 79/79/79
f 84/84/84 76/76/76 85/85/85
f 88/88/88 84/84/84 85/85/85
f 91/91/91 70/70/70 92/92/92
f 93/93/93 91/91/91 92/92/92
f 90/90/90 91/91/91 93/93/93
f 89/89/89 90/90/90 93/93/93
f 99/99/99 115/115/115 116/116/116
f 114/114/114 115/115/115 99/99/99
f 74/74/74 114/114/114 99/99/99
f 99/99/99 100/100/100 74/74/74
f 104/104/104 100/100/100 99/99/99
f 116/116/116 104/104/104 99/99/99
f 105/105/105 100/100/100 104/104/104
f 106/106/106 61/61/61 101/101/101
f 68/68/68 91/91/91 90/90/90
f 70/70/70 91/91/91 68/68/68
f 69/69/69 70/70/70 68/68/68
f 21/21/21 22/22/22 23/23/23
f 19/19/19 22/22/22 21/21/21
f 51/51/51 19/19/19 21/21/21
f 50/50/50 19/19/19 51/51/51
f 59/59/59 50/50/50 51/51/51
f 22/22/22 19/19/19 24/24/24
f 52/52/52 51/51/51 21/21/21
f 38/38/38 53/53/53 41/41/41
f 54/54/54 53/53/53 38/38/38
f 34/34/34 7/7/7 33/33/33
f 9/9/9 7/7/7 34/34/34
f 80/80/80 21/21/21 23/23/23
f 86/86/86 88/88/88 85/85/85
f 79/79/79 86/86/86 85/85/85
f 82/82/82 86/86/86 79/79/79
f 78/78/78 82/82/82 79/79/79
f 81/81/81 82/82/82 78/78/78
f 77/77/77 81/81/81 78/78/78
f 96/96/96 80/80/80 95/95/95
g apple_geo_1
f 117/117/117 6/6/6 5/5/5
f 8/8/8 6/6/6 117/117/117
f 107/107/107 123/123/123 124/124/124
f 122/122/122 107/107/107 124/124/124
f 45/45/45 107/107/107 122/122/122
f 43/43/43 45/45/45 122/122/122
f 46/46/46 45/45/45 43/43/43
f 4/4/4 46/46/46 43/43/43
f 47/47/47 46/46/46 4/4/4
f 120/120/120 47/47/47 4/4/4
f 55/55/55 47/47/47 120/120/120
f 127/127/127 55/55/55 120/120/120
f 67/67/67 128/128/128 66/66/66
f 69/69/69 128/128/128 67/67/67
f 47/47/47 55/55/55 56/56/56
f 103/103/103 47/47/47 56/56/56
f 129/129/129 47/47/47 103/103/103
f 132/132/132 129/129/129 103/103/103
f 4/4/4 121/121/121 120/120/120
f 140/140/140 121/121/121 4/4/4
f 141/141/141 140/140/140 4/4/4
f 44/44/44 123/123/123 107/107/107
f 108/108/108 123/123/123 44/44/44
f 45/45/45 108/108/108 44/44/44
f 131/131/131 108/108/108 45/45/45
f 98/98/98 131/131/131 45/45/45
f 110/110/110 131/131/131 98/98/98
f 63/63/63 110/110/110 98/98/98
f 109/109/109 110/110/110 63/63/63
f 64/64/64 109/109/109 63/63/63
f 63/63/63 129/129/129 64/64/64
f 46/46/46 129/129/129 63/63/63
f 45/45/45 46/46/46 63/63/63
f 130/130/130 108/108/108 131/131/131
f 123/123/123 108/108/108 130/130/130
f 43/43/43 141/141/141 4/4/4
f 122/122/122 141/141/141 43/43/43
f 47/47/47 129/129/129 46/46/46
f 98/98/98 45/45/45 63/63/63
f 45/45/45 44/44/44 107/107/107
