g application_geo
v -0.1587289 6.109476E-09 0.2203117
v 0.1587289 6.109476E-09 0.2203117
v -0.1587289 6.109476E-09 -0.2203117
v 0.1587289 6.109476E-09 -0.2203117
v -0.1719563 6.109476E-09 0.2335217
v 0.1719563 6.109476E-09 0.2335217
v -0.1719563 6.109476E-09 -0.2335217
v 0.1719563 6.109476E-09 -0.2335217
v 0.1587289 6.109476E-09 0.2203117
v -0.1587289 6.109476E-09 0.2203117
v -0.1587289 6.109476E-09 -0.2203117
v 0.1587289 6.109476E-09 -0.2203117
vt 0.1308546 0.00199204
vt 0.8484585 0.00199204
vt 0.1308546 0.998008
vt 0.8484585 0.998008
vt 0.7230056 0.9527977
vt 0.7230055 0.9527977
vt 0.7230056 0.9527977
vt 0.7230055 0.9527977
vt 0.7230055 0.9527977
vt 0.7230055 0.9527977
vt 0.7230055 0.9527977
vt 0.7230055 0.9527977
vn 0 1 0
vn 0 1 0
vn 0 1 0
vn 0 1 0
vn 0 1 0
vn 0 1 0
vn 0 1 0
vn 0 1 0
vn 0 1 0
vn 0 1 0
vn 0 1 0
vn 0 1 0
g application_geo_0
f 4/4/4 1/1/1 2/2/2
f 3/3/3 1/1/1 4/4/4
f 6/6/6 9/9/9 5/5/5
f 12/12/12 9/9/9 6/6/6
f 8/8/8 12/12/12 6/6/6
f 11/11/11 12/12/12 8/8/8
f 7/7/7 11/11/11 8/8/8
f 10/10/10 11/11/11 7/7/7
f 5/5/5 10/10/10 7/7/7
f 9/9/9 10/10/10 5/5/5
