g arm2_geo
v -0.07121076 -3.552714E-17 -0.3430691
v -0.1772249 0 -0.3262781
v -0.3487594 0 -0.2016509
v -0.4142798 0 0
v -0.3487594 0 0.2016509
v -0.1772249 0 0.326278
v -0.07121079 0 0.343069
v -0.07121076 0.101601 -0.3430691
v -0.1772249 0.02965763 -0.3262781
v -0.2728617 0.101601 -0.2775487
v -0.3487595 0.02965763 -0.201651
v -0.3974889 0.101601 -0.1060141
v -0.4142798 0.02965763 0
v -0.3974886 0.101601 0.1060142
v -0.3487594 0.02965763 0.2016509
v -0.2728617 0.101601 0.2775487
v -0.1772249 0.02965763 0.326278
v -0.07121079 0.101601 0.343069
v -0.07121076 0.101601 -0.3296703
v -0.1730845 0.02965763 -0.3135351
v -0.2649861 0.101601 -0.2667089
v -0.3379196 0.02965763 -0.1937753
v -0.3847459 0.101601 -0.1018737
v -0.400881 0.02965763 -2.160668E-09
v -0.3847458 0.101601 0.1018737
v -0.3379196 0.02965763 0.1937753
v -0.2649861 0.101601 0.2667088
v -0.1730845 0.02965763 0.313535
v -0.07121079 0.101601 0.3296702
v -0.07121076 0 -0.3296703
v -0.1730845 0 -0.3135351
v -0.3379196 0 -0.1937753
v -0.400881 0 -1.080334E-09
v -0.3379196 0 0.1937753
v -0.1730845 0 0.313535
v -0.07121079 0 0.3296702
v -0.07121076 0.101601 -0.3430691
v -0.1772249 0.02965763 -0.3262781
v -0.2728617 0.101601 -0.2775487
v -0.3487595 0.02965763 -0.201651
v -0.3974889 0.101601 -0.1060141
v -0.4142798 0.02965763 0
v -0.3974886 0.101601 0.1060142
v -0.3487594 0.02965763 0.2016509
v -0.2728617 0.101601 0.2775487
v -0.1772249 0.02965763 0.326278
v -0.07121079 0.101601 0.343069
v -0.07121076 0.101601 -0.3296703
v -0.1730845 0.02965763 -0.3135351
v -0.2649861 0.101601 -0.2667089
v -0.3379196 0.02965763 -0.1937753
v -0.3847459 0.101601 -0.1018737
v -0.400881 0.02965763 -2.160668E-09
v -0.3847458 0.101601 0.1018737
v -0.3379196 0.02965763 0.1937753
v -0.2649861 0.101601 0.2667088
v -0.1730845 0.02965763 0.313535
v -0.07121079 0.101601 0.3296702
v -0.07121076 -3.552714E-17 -0.3430691
v -0.07121076 0 -0.3296703
v -0.07121079 0 0.3296702
v -0.07121079 0 0.343069
v -0.07121076 -3.552714E-17 -0.3430691
v -0.1772249 0 -0.3262781
v -0.07121076 0 -0.3296703
v -0.1730845 0 -0.3135351
v -0.07121079 0 0.343069
v -0.07121079 0 0.3296702
v -0.1772249 0 0.326278
v -0.1730845 0 0.313535
v -0.3487594 0 0.2016509
v -0.3379196 0 0.1937753
v -0.4142798 0 0
v -0.400881 0 -1.080334E-09
v -0.3487594 0 -0.2016509
v -0.3379196 0 -0.1937753
vt 0.8065062 0.8773732
vt 0.8065062 0.8773732
vt 0.8065062 0.8773734
vt 0.8065063 0.8773732
vt 0.8065063 0.8773732
vt 0.8065062 0.8773732
vt 0.8065062 0.8773732
vt 0.8065062 0.8773732
vt 0.8065061 0.8773732
vt 0.8065062 0.8773732
vt 0.8065061 0.8773732
vt 0.8065063 0.8773733
vt 0.8065063 0.8773732
vt 0.8065062 0.8773733
vt 0.8065061 0.8773732
vt 0.8065062 0.8773733
vt 0.8065062 0.8773732
vt 0.8065061 0.8773732
vt 0.8065062 0.9092091
vt 0.8065062 0.9092091
vt 0.8065063 0.9092091
vt 0.8065063 0.9092091
vt 0.8065063 0.9092091
vt 0.8065063 0.909209
vt 0.8065063 0.9092089
vt 0.8065063 0.909209
vt 0.8065063 0.9092091
vt 0.8065062 0.9092091
vt 0.8065062 0.9092091
vt 0.8053743 0.8505325
vt 0.8053743 0.8505325
vt 0.8053744 0.8505324
vt 0.8053743 0.8505325
vt 0.8053743 0.8505325
vt 0.8053744 0.8505324
vt 0.8053744 0.8505324
vt 0.8065062 0.9092091
vt 0.8065063 0.9092091
vt 0.8065063 0.909209
vt 0.8065063 0.9092091
vt 0.8065063 0.909209
vt 0.8065063 0.909209
vt 0.8065063 0.9092091
vt 0.8065063 0.9092091
vt 0.8065063 0.9092091
vt 0.8065063 0.9092091
vt 0.8065062 0.9092091
vt 0.8053743 0.8505325
vt 0.8053743 0.8505325
vt 0.8053743 0.8505325
vt 0.8053743 0.8505324
vt 0.8053743 0.8505325
vt 0.8053743 0.8505325
vt 0.8053743 0.8505324
vt 0.8053743 0.8505325
vt 0.8053744 0.8505325
vt 0.8053744 0.8505324
vt 0.8053744 0.8505324
vt 0.8065062 0.9092091
vt 0.8065063 0.9092091
vt 0.8065063 0.9092091
vt 0.8065062 0.9092091
vt 0.8142825 0.857024
vt 0.8142825 0.857024
vt 0.8142825 0.857024
vt 0.8142825 0.857024
vt 0.8142825 0.857024
vt 0.8142825 0.857024
vt 0.8142825 0.857024
vt 0.8142825 0.857024
vt 0.8142825 0.857024
vt 0.8142825 0.857024
vt 0.8142825 0.857024
vt 0.8142825 0.857024
vt 0.8142825 0.857024
vt 0.8142825 0.857024
vn 0.2964011 -0.4313608 -0.8521
vn -0.2338345 -0.8178011 -0.5258543
vn -0.6123332 -0.6535474 -0.4448863
vn -0.7568864 -0.6535463 5.621625E-07
vn -0.6123342 -0.6535463 0.4448866
vn -0.2760969 -0.7336612 0.620896
vn 0.2964013 -0.4313607 0.8520999
vn 0.2282148 0.6583617 -0.7172712
vn -0.2313379 0.4649931 -0.8545549
vn -0.5184433 0.4711937 -0.7135777
vn -0.6418616 0.6087204 -0.4663402
vn -0.8388607 0.4711936 -0.2725608
vn -0.793384 0.6087216 1.274561E-06
vn -0.8388594 0.4711949 0.2725621
vn -0.6418609 0.6087219 0.4663392
vn -0.5184435 0.4711944 0.713577
vn -0.2313374 0.4649929 0.8545551
vn 0.2282149 0.6583613 0.7172714
vn 0.4040465 0.5568212 0.7257386
vn 0.2196623 0.5091666 0.8321645
vn 0.5093682 0.499024 0.7010841
vn 0.5960129 0.6762062 0.4330286
vn 0.8241743 0.4990241 0.2677905
vn 0.7367127 0.6762059 0
vn 0.8241745 0.4990239 -0.2677901
vn 0.5960131 0.6762062 -0.4330284
vn 0.5093675 0.499024 -0.7010847
vn 0.219662 0.5091664 -0.8321647
vn 0.4040461 0.5568212 -0.7257389
vn 0.4231599 -0.6446337 0.6366971
vn 0.3439997 -0.5323923 0.7734485
vn 0.6636978 -0.5718251 0.4822045
vn 0.8203757 -0.571825 -2.030051E-07
vn 0.6636979 -0.5718249 -0.4822047
vn 0.2916721 -0.696318 -0.6557961
vn 0.4231599 -0.6446337 -0.6366971
vn 0.2282148 0.6583617 -0.7172712
vn -0.2313379 0.4649931 -0.8545549
vn -0.5184433 0.4711937 -0.7135777
vn -0.6418616 0.6087204 -0.4663402
vn -0.8388607 0.4711936 -0.2725608
vn -0.793384 0.6087216 1.274561E-06
vn -0.8388594 0.4711949 0.2725621
vn -0.6418609 0.6087219 0.4663392
vn -0.5184435 0.4711944 0.713577
vn -0.2313374 0.4649929 0.8545551
vn 0.2282149 0.6583613 0.7172714
vn 0.4040465 0.5568212 0.7257386
vn 0.2196623 0.5091666 0.8321645
vn 0.5093682 0.499024 0.7010841
vn 0.5960129 0.6762062 0.4330286
vn 0.8241743 0.4990241 0.2677905
vn 0.7367127 0.6762059 0
vn 0.8241745 0.4990239 -0.2677901
vn 0.5960131 0.6762062 -0.4330284
vn 0.5093675 0.499024 -0.7010847
vn 0.219662 0.5091664 -0.8321647
vn 0.4040461 0.5568212 -0.7257389
vn 0.2964011 -0.4313608 -0.8521
vn 0.4231599 -0.6446337 0.6366971
vn 0.4231599 -0.6446337 -0.6366971
vn 0.2964013 -0.4313607 0.8520999
vn 0.2964011 -0.4313608 -0.8521
vn -0.2338345 -0.8178011 -0.5258543
vn 0.4231599 -0.6446337 0.6366971
vn 0.3439997 -0.5323923 0.7734485
vn 0.2964013 -0.4313607 0.8520999
vn 0.4231599 -0.6446337 -0.6366971
vn -0.2760969 -0.7336612 0.620896
vn 0.2916721 -0.696318 -0.6557961
vn -0.6123342 -0.6535463 0.4448866
vn 0.6636979 -0.5718249 -0.4822047
vn -0.7568864 -0.6535463 5.621625E-07
vn 0.8203757 -0.571825 -2.030051E-07
vn -0.6123332 -0.6535474 -0.4448863
vn 0.6636978 -0.5718251 0.4822045
g arm2_geo_0
f 3/3/3 12/12/12 11/11/11
f 10/10/10 3/3/3 11/11/11
f 2/2/2 3/3/3 10/10/10
f 9/9/9 2/2/2 10/10/10
f 1/1/1 2/2/2 9/9/9
f 8/8/8 1/1/1 9/9/9
f 5/5/5 15/15/15 14/14/14
f 16/16/16 15/15/15 5/5/5
f 6/6/6 16/16/16 5/5/5
f 17/17/17 16/16/16 6/6/6
f 7/7/7 17/17/17 6/6/6
f 18/18/18 17/17/17 7/7/7
f 32/32/32 51/51/51 52/52/52
f 50/50/50 51/51/51 32/32/32
f 31/31/31 50/50/50 32/32/32
f 49/49/49 50/50/50 31/31/31
f 30/30/30 49/49/49 31/31/31
f 48/48/48 49/49/49 30/30/30
f 34/34/34 54/54/54 55/55/55
f 56/56/56 34/34/34 55/55/55
f 35/35/35 34/34/34 56/56/56
f 57/57/57 35/35/35 56/56/56
f 36/36/36 35/35/35 57/57/57
f 58/58/58 36/36/36 57/57/57
f 47/47/47 62/62/62 61/61/61
f 29/29/29 47/47/47 61/61/61
f 46/46/46 47/47/47 29/29/29
f 28/28/28 46/46/46 29/29/29
f 45/45/45 46/46/46 28/28/28
f 27/27/27 45/45/45 28/28/28
f 44/44/44 45/45/45 27/27/27
f 26/26/26 44/44/44 27/27/27
f 43/43/43 44/44/44 26/26/26
f 25/25/25 43/43/43 26/26/26
f 42/42/42 43/43/43 25/25/25
f 24/24/24 42/42/42 25/25/25
f 41/41/41 42/42/42 24/24/24
f 23/23/23 41/41/41 24/24/24
f 40/40/40 41/41/41 23/23/23
f 22/22/22 40/40/40 23/23/23
f 39/39/39 40/40/40 22/22/22
f 21/21/21 39/39/39 22/22/22
f 38/38/38 39/39/39 21/21/21
f 20/20/20 38/38/38 21/21/21
f 37/37/37 38/38/38 20/20/20
f 19/19/19 37/37/37 20/20/20
f 59/59/59 37/37/37 19/19/19
f 60/60/60 59/59/59 19/19/19
f 64/64/64 66/66/66 76/76/76
f 65/65/65 66/66/66 64/64/64
f 63/63/63 65/65/65 64/64/64
f 69/69/69 68/68/68 67/67/67
f 70/70/70 68/68/68 69/69/69
f 71/71/71 70/70/70 69/69/69
f 72/72/72 70/70/70 71/71/71
f 73/73/73 72/72/72 71/71/71
f 74/74/74 72/72/72 73/73/73
f 75/75/75 74/74/74 73/73/73
f 76/76/76 74/74/74 75/75/75
f 64/64/64 76/76/76 75/75/75
f 4/4/4 12/12/12 3/3/3
f 13/13/13 12/12/12 4/4/4
f 14/14/14 13/13/13 4/4/4
f 14/14/14 4/4/4 5/5/5
f 33/33/33 54/54/54 34/34/34
f 53/53/53 54/54/54 33/33/33
f 52/52/52 53/53/53 33/33/33
f 32/32/32 52/52/52 33/33/33
