g axePoster_geo
v -0.7029346 0.864166 0.07189453
v -0.7029346 -0.8145021 0.1294995
v 0.7029382 0.864166 0.05126465
v 0.7029382 -0.8145021 0.1294995
v 0.7029382 -0.3390701 0.008637696
v -0.7029346 -0.3390701 0.008637696
v -0.7029346 -0.6960243 0.0637622
v 0.7029382 -0.6960243 0.0637622
v -0.7029346 -0.5140576 0.02516846
v 0.7029382 -0.5140576 0.02516846
v 0.4786035 0.864166 0.008637696
v 0.7029382 0.694129 0.009006348
v 0.5933117 0.864166 0.02184326
v 0.7029382 0.7856005 0.02483154
v -0.7029346 0.6936374 0.008635254
v -0.5098401 0.864166 0.008637696
v -0.7029382 0.7835217 0.02836914
v -0.6013001 0.864166 0.02836914
vt 0.1082084 1.00033
vt 0.1158548 0.009250876
vt 0.9002213 0.9960204
vt 0.8965057 0.009142905
vt 0.8979782 0.2978693
vt 0.1145922 0.2980195
vt 0.1155659 0.08699802
vt 0.8968204 0.08688129
vt 0.1152847 0.1957272
vt 0.8971661 0.1955937
vt 0.7804943 0.9921276
vt 0.9020945 0.8942336
vt 0.843623 0.9925379
vt 0.899158 0.9479513
vt 0.1110563 0.8941264
vt 0.216524 0.9923027
vt 0.1128279 0.9471874
vt 0.164583 0.9937966
vn 0.352652 -0.4444571 0.8234649
vn 0 0.485171 0.8744193
vn -0.2465171 -0.3090414 0.9185438
vn 0 0.485171 0.8744193
vn -6.748096E-05 0.04706456 0.9988919
vn -6.748096E-05 0.04706456 0.9988919
vn 0 0.3501929 0.9366776
vn 0 0.3501929 0.9366776
vn 0 0.1510121 0.9885318
vn 0 0.1510121 0.9885318
vn -0.062806 -0.07764195 0.995001
vn -0.062806 -0.07764195 0.995001
vn -0.1866777 -0.2330034 0.9543903
vn -0.1866777 -0.2330034 0.9543903
vn 0.09674812 -0.113624 0.988802
vn 0.09674812 -0.113624 0.988802
vn 0.2752304 -0.338469 0.8998261
vn 0.2752304 -0.338469 0.8998261
g axePoster_geo_0
f 11/11/11 5/5/5 12/12/12
f 14/14/14 11/11/11 12/12/12
f 13/13/13 11/11/11 14/14/14
f 3/3/3 13/13/13 14/14/14
f 6/6/6 5/5/5 11/11/11
f 10/10/10 5/5/5 6/6/6
f 9/9/9 10/10/10 6/6/6
f 8/8/8 10/10/10 9/9/9
f 7/7/7 8/8/8 9/9/9
f 4/4/4 8/8/8 7/7/7
f 2/2/2 4/4/4 7/7/7
f 16/16/16 15/15/15 6/6/6
f 17/17/17 15/15/15 16/16/16
f 18/18/18 17/17/17 16/16/16
f 1/1/1 17/17/17 18/18/18
f 16/16/16 6/6/6 11/11/11
