g axeShowerGelPosterHighMaintenance_geo
v -0.2381279 -0.8849699 0.0431007
v 0.2381279 -0.8849699 0.0431007
v -0.2381279 0.8849699 0.02099806
v 0.2381279 0.8849699 0
v -0.2381279 -0.6481407 0
v 0.2381279 -0.6481407 0
v -0.2381279 -0.7270838 0.007376294
v 0.2381279 -0.7270838 0.007376294
v -0.2381279 -0.8060269 0.01835245
v 0.2381279 -0.8060269 0.01835245
v -0.2381279 0.8117718 0
v -0.1693459 0.8849699 0
v -0.2381279 0.8117718 0
v -0.1693459 0.8849699 0
vt 0.4009963 0.004981309
vt 0.5990038 0.004981309
vt 0.4009963 0.9950187
vt 0.5990038 0.9950187
vt 0.4009963 0.1374547
vt 0.5990038 0.1374547
vt 0.4009963 0.09329686
vt 0.5990038 0.09329686
vt 0.4009963 0.04913908
vt 0.5990038 0.04913908
vt 0.4009963 0.9540744
vt 0.429593 0.9950187
vt 0.4009963 0.9540744
vt 0.429593 0.9950187
vn 0 0.2991399 0.9542093
vn 0 0.2991399 0.9542093
vn 0.2815751 -0.2645876 0.9223388
vn 0 0 1
vn 0 0.04656698 0.9989152
vn 0 0.04656698 0.9989152
vn 0 0.1154027 0.9933188
vn 0 0.1154027 0.9933188
vn 0 0.2191782 0.9756848
vn 0 0.2191782 0.9756848
vn 0 0 1
vn 0 0 1
vn 0.2815751 -0.2645876 0.9223388
vn 0.2815751 -0.2645876 0.9223388
g axeShowerGelPosterHighMaintenance_geo_0
f 3/3/3 13/13/13 14/14/14
f 6/6/6 5/5/5 7/7/7
f 12/12/12 5/5/5 6/6/6
f 4/4/4 12/12/12 6/6/6
f 11/11/11 5/5/5 12/12/12
f 10/10/10 1/1/1 2/2/2
f 9/9/9 1/1/1 10/10/10
f 8/8/8 9/9/9 10/10/10
f 7/7/7 9/9/9 8/8/8
f 6/6/6 7/7/7 8/8/8
