g B2_collisionGround_dirt_geo
v 102.3997 -3E-08 -177.3668
v 97.6798 -3E-08 -177.3669
v 97.6575 -3E-08 -169.7636
v 102.3997 -3E-08 -169.7636
v 78.21681 0.01129593 -113.0222
v 61.94529 0.01129233 -112.9861
v 78.2168 0.01129844 -113.3043
v 62.03452 0.01128783 -113.2681
v 79.47869 0.02258234 -90.96666
v 61.56163 0.01129205 -92.69978
v 78.21327 0.01128923 -94.2299
v 61.55176 0.01128664 -94.22639
v 82.50994 0.01128958 -94.00026
v 81.04066 0.01129219 -92.54686
v 78.26939 0.01128883 -94.71886
v 78.44817 0.01128899 -95.08201
v 78.81812 0.01128976 -95.24199
v 79.29018 0.01128964 -95.29556
v 80.76199 0.02257923 -111.9347
v 79.29007 0.01128953 -111.9429
v 78.21682 0.01128922 -113.3024
v 79.57526 0.01128908 -113.3024
v 78.80009 0.01128937 -111.9984
v 78.43687 0.01128908 -112.1771
v 78.27695 0.01128938 -112.5471
v 78.23027 0.01128939 -113.0101
v 78.21683 0.01128908 -113.0281
v 60.20317 0.01128971 -111.3743
v 58.44402 0.02257892 -113.1365
v 60.27988 0.01128844 -114.9587
v 60.4852 0.01129031 -111.4803
v 60.20316 0.02257886 -95.31324
v 60.48957 0.01128981 -95.3035
v 61.56163 0.01128928 -92.70173
v 60.20317 0.01128915 -93.94559
v 60.97836 0.01129012 -95.24955
v 61.34154 0.01129036 -95.07078
v 61.50146 0.01128966 -94.70082
v 63.33326 0.01128693 -94.22678
v 63.34118 0.0125595 -90.93893
v 75.63869 0.01587702 -94.22919
v 75.63457 0.01587702 -89.05322
v 71.38324 0.01587702 -94.22843
v 71.38324 0.01587702 -88.38634
v 67.14526 0.01587702 -94.22759
v 67.14909 0.01587702 -88.9643
v 79.29017 0.01128962 -97.83968
v 84.44347 0.01314494 -97.83968
v 79.29014 0.01128959 -102.0957
v 85.08811 0.01587702 -102.0957
v 79.29011 0.01128957 -106.3517
v 84.48793 0.01854556 -106.3517
v 79.29008 0.01128954 -110.1912
v 82.50952 0.02130942 -110.1912
vt 0 1
vt 0 1
vt 0 1
vt 0 1
vt 0 1
vt 0 1
vt 0 1
vt 0 1
vt 0 1
vt 0 1
vt 0 1
vt 0 1
vt 0 1
vt 0 1
vt 0 1
vt 0 1
vt 0 1
vt 0 1
vt 0 1
vt 0 1
vt 0 1
vt 0 1
vt 0 1
vt 0 1
vt 0 1
vt 0 1
vt 0 1
vt 0 1
vt 0 1
vt 0 1
vt 0 1
vt 0 1
vt 0 1
vt 0 1
vt 0 1
vt 0 1
vt 0 1
vt 0 1
vt 0 1
vt 0 1
vt 0 1
vt 0 1
vt 0 1
vt 0 1
vt 0 1
vt 0 1
vt 0 1
vt 0 1
vt 0 1
vt 0 1
vt 0 1
vt 0 1
vt 0 1
vt 0 1
vn 0.02056201 0.9839233 0.177404
vn 0 1 0
vn 0 1 0
vn 0 1 0
vn -4.459748E-07 1 -3.587183E-06
vn 5.79346E-06 1 -7.855522E-06
vn -4.459748E-07 1 -3.587183E-06
vn 5.79346E-06 1 -7.855522E-06
vn 0.0009895061 0.9999955 -0.002866294
vn -0.0002251824 1 -0.000264617
vn 0.0006594068 0.999998 -0.001910983
vn 1.085687E-06 1 1.618905E-07
vn 5.25606E-07 1 -1.263762E-06
vn 0.0008922004 0.9999985 -0.001500112
vn -1.582795E-06 1 -5.332029E-07
vn -2.373392E-06 1 -7.070266E-07
vn -1.582795E-06 1 -5.332029E-07
vn -1.332959E-07 1 -8.115705E-07
vn -0.006103873 0.9999813 0.0005146031
vn -0.004069244 0.9999917 0.0003430131
vn -1.143318E-07 1 -5.466501E-07
vn -0.002553652 0.9999967 -0.000536057
vn -7.283116E-07 1 6.471017E-07
vn -1.508209E-06 1 1.464036E-06
vn -7.283116E-07 1 6.471017E-07
vn 0 1 -3.582414E-07
vn -1.143318E-07 1 -5.466501E-07
vn 0.01077208 0.9999397 0.002154013
vn 0.002490172 0.9999944 0.002234658
vn 0.001621914 0.9999987 -0.0001017126
vn 0.002490172 0.9999944 0.002234658
vn 0.02945065 0.9995584 0.003947787
vn 0.01963555 0.9998037 0.002632758
vn 1.497605E-06 1 -1.745334E-06
vn 0.01303748 0.9999112 0.002749896
vn -6.757188E-07 1 2.415819E-06
vn -2.025206E-06 1 2.762522E-06
vn -6.757188E-07 1 2.415819E-06
vn -0.000612372 0.9999998 -0.0002060322
vn -0.000612372 0.9999998 -0.0002060322
vn -0.0003489266 0.9999998 -0.0006169358
vn -0.0003489266 0.9999998 -0.0006169358
vn 0 1 0
vn 0 1 0
vn -0.0004997809 0.9999999 -7.372374E-05
vn -0.0004997809 0.9999999 -7.372374E-05
vn -0.0004214577 0.9999999 0.0002449685
vn -0.0004214577 0.9999999 0.0002449685
vn -0.0008326972 0.9999996 0.0003329289
vn -0.0008326972 0.9999996 0.0003329289
vn -0.001564758 0.9999986 0.0006390868
vn -0.001564758 0.9999986 0.0006390868
vn -0.00329965 0.9999931 0.001762689
vn -0.00329965 0.9999931 0.001762689
g B2_collisionGround_dirt_geo_0
f 4/4/4 2/2/2 3/3/3
f 1/1/1 2/2/2 4/4/4
g B2_collisionGround_dirt_geo_1
f 6/6/6 8/8/8 30/30/30
f 7/7/7 8/8/8 6/6/6
f 5/5/5 7/7/7 6/6/6
f 20/20/20 19/19/19 22/22/22
f 54/54/54 19/19/19 20/20/20
f 53/53/53 54/54/54 20/20/20
f 52/52/52 54/54/54 53/53/53
f 51/51/51 52/52/52 53/53/53
f 50/50/50 52/52/52 51/51/51
f 49/49/49 50/50/50 51/51/51
f 48/48/48 50/50/50 49/49/49
f 47/47/47 48/48/48 49/49/49
f 13/13/13 48/48/48 47/47/47
f 18/18/18 13/13/13 47/47/47
f 14/14/14 13/13/13 18/18/18
f 17/17/17 14/14/14 18/18/18
f 15/15/15 14/14/14 17/17/17
f 16/16/16 15/15/15 17/17/17
f 26/26/26 22/22/22 21/21/21
f 20/20/20 22/22/22 26/26/26
f 25/25/25 20/20/20 26/26/26
f 23/23/23 20/20/20 25/25/25
f 24/24/24 23/23/23 25/25/25
f 27/27/27 26/26/26 21/21/21
f 36/36/36 38/38/38 37/37/37
f 35/35/35 38/38/38 36/36/36
f 33/33/33 35/35/35 36/36/36
f 32/32/32 35/35/35 33/33/33
f 28/28/28 32/32/32 33/33/33
f 12/12/12 35/35/35 34/34/34
f 38/38/38 35/35/35 12/12/12
f 11/11/11 9/9/9 14/14/14
f 42/42/42 9/9/9 11/11/11
f 41/41/41 42/42/42 11/11/11
f 44/44/44 42/42/42 41/41/41
f 43/43/43 44/44/44 41/41/41
f 46/46/46 44/44/44 43/43/43
f 45/45/45 46/46/46 43/43/43
f 40/40/40 46/46/46 45/45/45
f 39/39/39 40/40/40 45/45/45
f 10/10/10 40/40/40 39/39/39
f 12/12/12 10/10/10 39/39/39
f 11/11/11 14/14/14 15/15/15
f 31/31/31 29/29/29 28/28/28
f 30/30/30 29/29/29 31/31/31
f 6/6/6 30/30/30 31/31/31
f 31/31/31 28/28/28 33/33/33
