g B2_collection01_geo
v 87.45561 0.04599444 -89.49274
v 87.43275 0.04599444 -89.50221
v 87.40989 0.04599444 -89.49274
v 87.40042 0.04599444 -89.46988
v 87.40989 0.04599444 -89.44702
v 87.43275 0.04599444 -89.43755
v 87.45561 0.04599444 -89.44702
v 87.46509 0.04599444 -89.46988
v 87.47235 0.06966488 -89.50948
v 87.43275 0.06966488 -89.52589
v 87.39317 0.06966488 -89.50948
v 87.37675 0.06966488 -89.46988
v 87.39317 0.06966488 -89.43028
v 87.43275 0.0687523 -89.42445
v 87.47235 0.06966488 -89.43028
v 87.48875 0.06966488 -89.46988
v 87.47894 0.101957 -89.51455
v 87.43275 0.1019993 -89.53455
v 87.38669 0.1024038 -89.51455
v 87.36809 0.1019993 -89.46988
v 87.38707 0.1022342 -89.42484
v 87.43275 0.1019993 -89.40521
v 87.4781 0.1036269 -89.42544
v 87.49743 0.1019993 -89.46988
v 87.47235 0.1343338 -89.50948
v 87.43275 0.1343338 -89.52589
v 87.39317 0.1343338 -89.50948
v 87.37675 0.1343338 -89.46988
v 87.39317 0.1343338 -89.43028
v 87.43275 0.1343338 -89.41387
v 87.47235 0.1343338 -89.43028
v 87.48875 0.1343338 -89.46988
v 87.45561 0.1580042 -89.49274
v 87.43275 0.1580042 -89.50221
v 87.40989 0.1580042 -89.49274
v 87.40042 0.1580042 -89.46988
v 87.40989 0.1580042 -89.44702
v 87.43275 0.1580042 -89.43755
v 87.45561 0.1580042 -89.44702
v 87.46509 0.1580042 -89.46988
v 87.43275 0.03733041 -89.46988
v 87.43275 0.1642655 -89.46988
v 87.43275 0.07881326 -89.41143
v 87.43275 0.0655079 -89.41804
v 87.44577 0.07777283 -89.41442
v 87.45742 0.07174706 -89.42204
v 87.45418 0.07723764 -89.41847
v 87.43275 0.07290035 -89.42094
v 87.40936 0.0720576 -89.42078
v 87.43279 0.0760395 -89.41535
v 87.42248 0.07782052 -89.41398
v 87.44291 0.04117801 -89.45972
v 87.43275 0.03910472 -89.45055
v 87.42133 0.04166242 -89.45846
v 87.43274 0.04203681 -89.45316
v 87.43273 0.03808489 -89.45958
v 87.45256 0.0698279 -89.42737
v 87.45256 0.0675864 -89.42133
v 87.41295 0.0675864 -89.42222
v 87.44794 0.0739556 -89.42049
v 87.43274 0.03939611 -89.45393
v 87.42554 0.04127186 -89.45442
v 87.46587 0.05889942 -89.50369
v 87.47298 0.05769052 -89.49281
v 87.45606 0.05790357 -89.5106
v 87.46249 0.05794521 -89.49927
v 87.46214 0.0537096 -89.49864
v 87.38882 0.122911 -89.51398
v 87.38799 0.1173268 -89.51491
v 87.39268 0.1281177 -89.51005
v 87.38864 0.1104994 -89.514
v 87.38977 0.1198649 -89.51308
v 87.3742 0.109339 -89.492
v 87.38031 0.1273053 -89.49206
v 87.40832 0.1104114 -89.52661
v 87.40957 0.1290463 -89.52131
v 87.37936 0.1196818 -89.49374
v 87.40604 0.1198413 -89.52145
v 87.4745 0.1485883 -89.46988
v 87.46349 0.1502427 -89.49988
v 87.45694 0.1523712 -89.49367
v 87.46412 0.05814533 -89.43853
v 87.43275 0.06966488 -89.52589
v 87.43275 0.1019993 -89.53455
v 87.43275 0.1580042 -89.50221
v 87.43275 0.1343338 -89.41387
v 87.43275 0.03733041 -89.46988
v 87.43275 0.04599444 -89.50221
v 87.43273 0.03808489 -89.45958
v 87.43275 0.1580042 -89.43755
v 87.43275 0.1642655 -89.46988
v 87.43279 0.0760395 -89.41535
v 87.43275 0.07881326 -89.41143
v 87.43275 0.1019993 -89.40521
v 87.43275 0.0655079 -89.41804
v 87.43275 0.0687523 -89.42445
v 87.43275 0.07290035 -89.42094
v 87.43274 0.03939611 -89.45393
v 87.43275 0.03910472 -89.45055
v 87.43274 0.04203681 -89.45316
v 87.43275 0.1343338 -89.52589
v 87.43275 0.04599444 -89.43755
vt 0.9073342 0.2996628
vt 0.9367501 0.272798
vt 0.6592057 0.2981966
vt 0.6277782 0.3063311
vt 0.5974693 0.2997995
vt 0.8174734 0.272798
vt 0.8437465 0.2990951
vt 0.874415 0.3072784
vt 0.9207222 0.3392579
vt 0.9809538 0.3178386
vt 0.6737922 0.338851
vt 0.6283269 0.3443853
vt 0.5824171 0.3400035
vt 0.5417041 0.3199812
vt 0.8269751 0.339449
vt 0.8750856 0.344489
vt 0.9243847 0.3788141
vt 0.9971337 0.3793654
vt 0.676873 0.3787253
vt 0.6289996 0.3781503
vt 0.5794638 0.3776024
vt 0.7555988 0.3793654
vt 0.8258997 0.3798624
vt 0.8755157 0.3787109
vt 0.9215731 0.4183335
vt 0.7327054 0.4395925
vt 0.6740203 0.4166454
vt 0.6286163 0.4115251
vt 0.5828632 0.4168938
vt 0.7717786 0.4408922
vt 0.8302581 0.4177386
vt 0.8760658 0.4130725
vt 0.9069115 0.4592135
vt 0.9367501 0.4859328
vt 0.6594014 0.4572889
vt 0.6283429 0.4496187
vt 0.5971445 0.4573555
vt 0.567734 0.484633
vt 0.8448254 0.4587132
vt 0.8762429 0.4507279
vt 0.8763663 0.2563119
vt 0.6281177 0.4965471
vt 0.7672008 0.3352464
vt 0.5312931 0.3086289
vt 0.7850037 0.3427036
vt 0.8046514 0.3389574
vt 0.7975505 0.3443744
vt 0.5408981 0.3295713
vt 0.5588586 0.3360028
vt 0.5321602 0.3383263
vt 0.5377994 0.3413546
vt 0.8578185 0.2749031
vt 0.8402492 0.259688
vt 0.6097176 0.2782685
vt 0.8401781 0.2646858
vt 0.6088637 0.2564477
vt 0.8025125 0.3308433
vt 0.8044211 0.3238469
vt 0.5585071 0.3275349
vt 0.792249 0.3363027
vt 0.8463987 0.2589089
vt 0.6016711 0.2745902
vt 0.9178497 0.3239646
vt 0.902422 0.3259283
vt 0.932514 0.3163457
vt 0.9149438 0.3184759
vt 0.9129609 0.3139528
vt 0.677366 0.4020864
vt 0.6782025 0.3951517
vt 0.6759168 0.4100238
vt 0.6784123 0.3877573
vt 0.67788 0.398807
vt 0.6514241 0.3859914
vt 0.6526656 0.4052012
vt 0.7099322 0.3896581
vt 0.7029333 0.4177987
vt 0.6544045 0.3973335
vt 0.7016685 0.4036058
vt 0.8765368 0.4351242
vt 0.913925 0.4418001
vt 0.909724 0.4526702
vt 0.8345331 0.3202603
vt 0.7327054 0.3165389
vt 0.7488852 0.3780657
vt 0.6885015 0.484633
vt 0.5235301 0.4395925
vt 0.6281177 0.2550121
vt 0.6885015 0.2714982
vt 0.8571121 0.2577475
vt 0.8159825 0.4859328
vt 0.8763663 0.4978469
vt 0.7712126 0.3309426
vt 0.5189523 0.3339466
vt 0.5073503 0.3780657
vt 0.7795416 0.3099286
vt 0.7780689 0.3192391
vt 0.7753255 0.3248848
vt 0.5983378 0.2589427
vt 0.5920006 0.2583883
vt 0.5966713 0.2730159
vt 0.9809538 0.4408922
vt 0.567734 0.2714982
vn 0.3305172 -0.8833624 -0.3323089
vn 0.06457694 -0.8513903 -0.5205424
vn -0.3507401 -0.868341 -0.3506641
vn -0.4488528 -0.8933222 0.02250862
vn -0.3241398 -0.8936691 0.3103045
vn 0.04074616 -0.8119526 0.5822996
vn 0.3489113 -0.8687412 0.3514962
vn 0.484635 -0.8738388 -0.03917456
vn 0.6326432 -0.4538803 -0.6274993
vn 0.03762445 -0.4870119 -0.8725845
vn -0.6137772 -0.4995788 -0.6113089
vn -0.8646774 -0.5023273 0.0004840253
vn -0.5838111 -0.5135041 0.6288704
vn 0.07107987 0.05865178 0.9957448
vn 0.5693443 -0.412052 0.7113791
vn 0.8685212 -0.4943611 -0.0357509
vn 0.7097473 -0.0001208491 -0.7044563
vn -0.07878505 0.03419996 -0.9963049
vn -0.701918 -0.1277289 -0.7007114
vn -0.9978516 0.01398684 -0.06400325
vn -0.6207452 -0.05966675 0.7817387
vn 0.002128653 -0.06184387 0.9980836
vn 0.6664888 -0.02037424 0.7452366
vn 0.9999815 0.003044914 0.005272401
vn 0.6206499 0.4840793 -0.6168151
vn -0.07749077 0.4646374 -0.8821038
vn -0.6086766 0.5136878 -0.6046798
vn -0.8803967 0.4688491 -0.07128989
vn -0.6126139 0.5007606 0.6115089
vn 0.001082409 0.4995764 0.8662691
vn 0.6355955 0.5440963 0.547702
vn 0.8721555 0.4892058 0.004730388
vn 0.4933445 0.7355484 -0.4643057
vn 0.1136853 0.8488583 -0.516251
vn -0.3281743 0.8858032 -0.3281075
vn -0.4640175 0.885826 -4.571843E-06
vn -0.3281678 0.8858032 0.328114
vn -9.23879E-06 0.8858442 0.4639827
vn 0.4076969 0.8541854 0.3227236
vn 0.4638273 0.8859257 -3.126942E-05
vn -6.719418E-05 -0.9988068 -0.04883459
vn -2.194878E-05 1 6.192781E-06
vn -0.002370617 -0.5743805 0.818585
vn -0.0178497 0.1856397 0.9824557
vn 0.2080729 -0.61331 0.7619426
vn 0.09428081 -0.7350632 0.6714115
vn 0.3269015 -0.4127474 0.8501617
vn 0.04606342 -0.7734867 0.6321364
vn -0.1917636 -0.4663691 0.8635547
vn 0.01658032 -0.8252453 0.564531
vn -0.2284254 -0.479849 0.8470932
vn 0.3176887 -0.9185293 0.2353254
vn 0.1100863 -0.5026006 0.857481
vn -0.2615574 -0.9571426 0.1243618
vn 0.1406311 -0.3240865 0.9355164
vn -0.05237421 -0.985551 0.1610785
vn 0.01948892 -0.3281471 0.9444256
vn 0.315941 -0.09755155 0.9437504
vn -0.2003307 -0.3277753 0.9232718
vn 0.05228115 -0.7834305 0.6192764
vn -0.02472892 -0.9972727 0.06953864
vn -0.2817425 -0.9006979 0.3307029
vn 0.3599975 -0.8625323 -0.3555837
vn 0.5913189 -0.6954406 -0.4082943
vn 0.4183257 -0.6902867 -0.5903456
vn 0.5030137 -0.7105496 -0.4920331
vn 0.5520366 -0.634297 -0.5412236
vn -0.6927721 0.2040644 -0.6916824
vn -0.6596519 0.3378742 -0.6713423
vn -0.6397802 0.4506994 -0.6225362
vn -0.7032667 0.02663329 -0.710427
vn -0.687005 0.1931267 -0.7005185
vn -0.9055158 0.1062188 -0.4108026
vn -0.8425592 0.3764538 -0.3851969
vn -0.4107012 0.1198553 -0.9038579
vn -0.3903607 0.3731388 -0.8416566
vn -0.9103414 0.2598745 -0.3220926
vn -0.3216801 0.2501677 -0.9132021
vn 0.6990707 0.7135938 -0.0456534
vn 0.403744 0.8664219 -0.2937752
vn 0.5031453 0.7292117 -0.4637834
vn 0.4151098 -0.7148777 0.5627022
vn 0.03762445 -0.4870119 -0.8725845
vn -0.07878505 0.03419996 -0.9963049
vn 0.1136853 0.8488583 -0.516251
vn 0.001082409 0.4995764 0.8662691
vn -6.719418E-05 -0.9988068 -0.04883459
vn 0.06457694 -0.8513903 -0.5205424
vn -0.05237421 -0.985551 0.1610785
vn -9.23879E-06 0.8858442 0.4639827
vn -2.194878E-05 1 6.192781E-06
vn 0.01658032 -0.8252453 0.564531
vn -0.002370617 -0.5743805 0.818585
vn 0.002128653 -0.06184387 0.9980836
vn -0.0178497 0.1856397 0.9824557
vn 0.07107987 0.05865178 0.9957448
vn 0.04606342 -0.7734867 0.6321364
vn -0.02472892 -0.9972727 0.06953864
vn 0.1100863 -0.5026006 0.857481
vn 0.1406311 -0.3240865 0.9355164
vn -0.07749077 0.4646374 -0.8821038
vn 0.04074616 -0.8119526 0.5822996
g B2_collection01_geo_0
f 52/52/52 61/61/61 89/89/89
f 41/41/41 52/52/52 89/89/89
f 8/8/8 52/52/52 41/41/41
f 1/1/1 8/8/8 41/41/41
f 67/67/67 8/8/8 1/1/1
f 2/2/2 67/67/67 1/1/1
f 65/65/65 67/67/67 2/2/2
f 10/10/10 65/65/65 2/2/2
f 9/9/9 65/65/65 10/10/10
f 18/18/18 9/9/9 10/10/10
f 17/17/17 9/9/9 18/18/18
f 25/25/25 17/17/17 18/18/18
f 24/24/24 17/17/17 25/25/25
f 32/32/32 24/24/24 25/25/25
f 23/23/23 24/24/24 32/32/32
f 31/31/31 23/23/23 32/32/32
f 30/30/30 23/23/23 31/31/31
f 39/39/39 30/30/30 31/31/31
f 90/90/90 30/30/30 39/39/39
f 91/91/91 90/90/90 39/39/39
f 62/62/62 98/98/98 99/99/99
f 56/56/56 98/98/98 62/62/62
f 54/54/54 56/56/56 62/62/62
f 87/87/87 56/56/56 54/54/54
f 4/4/4 87/87/87 54/54/54
f 3/3/3 87/87/87 4/4/4
f 11/11/11 3/3/3 4/4/4
f 83/83/83 3/3/3 11/11/11
f 19/19/19 83/83/83 11/11/11
f 84/84/84 83/83/83 19/19/19
f 75/75/75 84/84/84 19/19/19
f 78/78/78 84/84/84 75/75/75
f 69/69/69 78/78/78 75/75/75
f 72/72/72 78/78/78 69/69/69
f 77/77/77 72/72/72 69/69/69
f 68/68/68 72/72/72 77/77/77
f 74/74/74 68/68/68 77/77/77
f 70/70/70 68/68/68 74/74/74
f 27/27/27 70/70/70 74/74/74
f 76/76/76 70/70/70 27/27/27
f 26/26/26 76/76/76 27/27/27
f 78/78/78 76/76/76 26/26/26
f 84/84/84 78/78/78 26/26/26
f 52/52/52 53/53/53 61/61/61
f 55/55/55 53/53/53 52/52/52
f 7/7/7 55/55/55 52/52/52
f 6/6/6 55/55/55 7/7/7
f 82/82/82 6/6/6 7/7/7
f 58/58/58 6/6/6 82/82/82
f 15/15/15 58/58/58 82/82/82
f 57/57/57 58/58/58 15/15/15
f 46/46/46 57/57/57 15/15/15
f 60/60/60 57/57/57 46/46/46
f 47/47/47 60/60/60 46/46/46
f 45/45/45 60/60/60 47/47/47
f 23/23/23 45/45/45 47/47/47
f 22/22/22 45/45/45 23/23/23
f 30/30/30 22/22/22 23/23/23
f 51/51/51 50/50/50 93/93/93
f 94/94/94 51/51/51 93/93/93
f 21/21/21 51/51/51 94/94/94
f 29/29/29 21/21/21 94/94/94
f 28/28/28 21/21/21 29/29/29
f 37/37/37 28/28/28 29/29/29
f 36/36/36 28/28/28 37/37/37
f 42/42/42 36/36/36 37/37/37
f 35/35/35 36/36/36 42/42/42
f 85/85/85 35/35/35 42/42/42
f 27/27/27 35/35/35 85/85/85
f 26/26/26 27/27/27 85/85/85
f 37/37/37 38/38/38 42/42/42
f 86/86/86 38/38/38 37/37/37
f 29/29/29 86/86/86 37/37/37
f 94/94/94 86/86/86 29/29/29
f 41/41/41 2/2/2 1/1/1
f 3/3/3 88/88/88 87/87/87
f 83/83/83 88/88/88 3/3/3
f 79/79/79 31/31/31 32/32/32
f 39/39/39 31/31/31 79/79/79
f 40/40/40 39/39/39 79/79/79
f 91/91/91 39/39/39 40/40/40
f 33/33/33 91/91/91 40/40/40
f 34/34/34 91/91/91 33/33/33
f 81/81/81 34/34/34 33/33/33
f 80/80/80 34/34/34 81/81/81
f 79/79/79 80/80/80 81/81/81
f 32/32/32 80/80/80 79/79/79
f 28/28/28 74/74/74 77/77/77
f 20/20/20 28/28/28 77/77/77
f 21/21/21 28/28/28 20/20/20
f 13/13/13 21/21/21 20/20/20
f 49/49/49 21/21/21 13/13/13
f 59/59/59 49/49/49 13/13/13
f 14/14/14 49/49/49 59/59/59
f 44/44/44 14/14/14 59/59/59
f 49/49/49 51/51/51 21/21/21
f 50/50/50 51/51/51 49/49/49
f 48/48/48 50/50/50 49/49/49
f 95/95/95 6/6/6 58/58/58
f 57/57/57 95/95/95 58/58/58
f 96/96/96 95/95/95 57/57/57
f 60/60/60 96/96/96 57/57/57
f 97/97/97 96/96/96 60/60/60
f 45/45/45 97/97/97 60/60/60
f 92/92/92 97/97/97 45/45/45
f 43/43/43 92/92/92 45/45/45
f 22/22/22 43/43/43 45/45/45
f 49/49/49 14/14/14 48/48/48
f 100/100/100 62/62/62 99/99/99
f 5/5/5 62/62/62 100/100/100
f 102/102/102 5/5/5 100/100/100
f 59/59/59 5/5/5 102/102/102
f 44/44/44 59/59/59 102/102/102
f 101/101/101 25/25/25 18/18/18
f 80/80/80 25/25/25 101/101/101
f 34/34/34 80/80/80 101/101/101
f 73/73/73 77/77/77 69/69/69
f 20/20/20 77/77/77 73/73/73
f 19/19/19 20/20/20 73/73/73
f 12/12/12 20/20/20 19/19/19
f 11/11/11 12/12/12 19/19/19
f 4/4/4 12/12/12 11/11/11
f 15/15/15 23/23/23 47/47/47
f 16/16/16 23/23/23 15/15/15
f 8/8/8 16/16/16 15/15/15
f 64/64/64 16/16/16 8/8/8
f 67/67/67 64/64/64 8/8/8
f 66/66/66 64/64/64 67/67/67
f 65/65/65 66/66/66 67/67/67
f 63/63/63 66/66/66 65/65/65
f 9/9/9 63/63/63 65/65/65
f 64/64/64 63/63/63 9/9/9
f 16/16/16 64/64/64 9/9/9
f 16/16/16 24/24/24 23/23/23
f 17/17/17 24/24/24 16/16/16
f 9/9/9 17/17/17 16/16/16
f 28/28/28 27/27/27 74/74/74
f 35/35/35 27/27/27 28/28/28
f 36/36/36 35/35/35 28/28/28
f 8/8/8 7/7/7 52/52/52
f 82/82/82 7/7/7 8/8/8
f 15/15/15 82/82/82 8/8/8
f 5/5/5 54/54/54 62/62/62
f 4/4/4 54/54/54 5/5/5
f 13/13/13 4/4/4 5/5/5
f 12/12/12 4/4/4 13/13/13
f 20/20/20 12/12/12 13/13/13
f 46/46/46 15/15/15 47/47/47
f 63/63/63 64/64/64 66/66/66
f 71/71/71 73/73/73 69/69/69
f 19/19/19 73/73/73 71/71/71
f 75/75/75 19/19/19 71/71/71
f 75/75/75 71/71/71 69/69/69
f 68/68/68 78/78/78 72/72/72
f 76/76/76 78/78/78 68/68/68
f 70/70/70 76/76/76 68/68/68
f 80/80/80 32/32/32 25/25/25
f 5/5/5 59/59/59 13/13/13
f 33/33/33 79/79/79 81/81/81
f 40/40/40 79/79/79 33/33/33
