g B2_shadowCircle_geo
v 102.1617 0.02 -65.29214
v 101.8576 0.02 -65.29214
v 102.1617 0.02 -65.01023
v 101.8576 0.02 -65.01023
v 101.5942 0.02 -176.994
v 101.2901 0.02 -176.994
v 101.5942 0.02 -176.7121
v 101.2901 0.02 -176.7121
v 49.45046 2.041687 -148.8024
v 48.87956 2.097646 -148.8024
v 49.45046 2.041687 -148.2706
v 48.87956 2.097646 -148.2706
v 49.37251 2.07881 -118.493
v 48.79995 2.114004 -118.493
v 49.37251 2.07881 -117.9612
v 48.79995 2.114004 -117.9612
v 49.39785 2.074606 -100.0144
v 48.82744 2.135344 -100.0144
v 49.39785 2.074606 -99.48264
v 48.82744 2.135344 -99.48264
v 49.46258 2.021491 -81.53452
v 48.88894 2.021491 -81.53452
v 49.46258 2.021491 -81.00278
v 48.88894 2.021491 -81.00278
v 50.12324 0.06214803 -65.18192
v 49.54961 0.06214803 -65.18192
v 50.12324 0.06214803 -64.65018
v 49.54961 0.06214803 -64.65018
v 67.24412 0.05231613 -65.25912
v 66.67049 0.05231613 -65.25912
v 67.24412 0.05231613 -64.72734
v 66.67049 0.05231613 -64.72734
v 104.2739 -0.1244635 -180.4645
v 46.12555 1.985603 -180.4645
v 104.8288 -0.1244635 -179.7657
v 46.68049 1.985603 -179.7657
v 46.12555 -0.1244629 -63.1264
v 46.68049 -0.1244629 -62.42765
v 46.12555 1.985603 -82.82441
v 46.68049 1.985603 -82.82441
v 46.12555 1.583557 -76.56033
v 46.68049 1.583557 -76.56033
v 46.12555 0.3055274 -69.24631
v 46.68049 0.3055274 -69.24631
v 46.12555 -0.1244628 -64.41302
v 46.68049 -0.1244628 -64.41302
v 74.65647 1.071279 -180.4645
v 74.65647 1.071279 -179.7657
v 61.53061 1.522821 -180.4645
v 61.53061 1.522821 -179.7657
v 54.92314 1.81332 -180.4645
v 54.92314 1.81332 -179.7657
v 48.6805 1.98482 -180.4645
v 48.6805 1.98482 -179.7657
v 132.1178 0.02 -111.0715
v 130.813 0.02 -111.157
v 131.9944 0.02 -109.7184
v 130.6896 0.02 -109.8039
v 131.1993 0.02 -111.496
v 130.155 0.02 -111.496
v 131.1993 0.02 -110.5277
v 130.155 0.02 -110.5277
v 123.2521 0.02 -129.5682
v 122.3017 0.02 -128.1456
v 124.7048 0.02 -128.5432
v 123.7543 0.02 -127.1206
v 123.8902 0.02 -130.5918
v 123.3013 0.02 -129.7103
v 124.7903 0.02 -129.9567
v 124.2013 0.02 -129.0752
v 135.6259 0.02 -126.362
v 134.5816 0.02 -126.362
v 135.6259 0.02 -125.3937
v 134.5816 0.02 -125.3937
v 93.90504 0.02 -135.9948
v 93.3161 0.02 -135.1133
v 94.80512 0.02 -135.3597
v 94.21619 0.02 -134.4782
v 93.26699 0.02 -134.9711
v 92.31652 0.02 -133.5486
v 94.7196 0.02 -133.9462
v 93.76915 0.02 -132.5236
v 116.1731 -0.1244629 -180.4741
v 116.8296 -0.1244629 -179.7657
v 127.4063 -0.1244629 -182.7964
v 127.6052 -0.1244629 -181.9585
v 135.5823 -0.1244629 -186.6302
v 136.0029 -0.1244629 -185.8532
v 142.9711 -0.1244629 -192.0582
v 143.6439 -0.1244629 -191.3146
v 118.8194 -0.1244629 -179.7657
v 118.8288 -0.1244629 -180.4741
v 116.1731 -0.1244629 -98.92496
v 116.8296 -0.1244629 -98.46488
v 116.1731 -0.1244629 -60.01316
v 116.8296 -0.1244629 -59.67158
v 116.1731 -0.1244629 -88.97619
v 116.8296 -0.1244629 -88.54644
v 54.63987 0.02 -121.4193
v 55.83687 0.02 -120.4901
v 73.40658 0.02 -128.1373
v 54.63987 0.02 -128.1373
v 74.09825 0.02 -127.1577
v 55.83687 0.02 -127.1577
v 83.28069 0.02 -70.4892
v 72.73299 0.02 -70.4892
v 83.28069 0.02 -70.00322
v 72.73299 0.02 -70.00322
vt 0 0
vt 1 0
vt 0 1
vt 1 1
vt 0 0
vt 1 0
vt 0 1
vt 1 1
vt 0 0
vt 1 0
vt 0 1
vt 1 1
vt 0 0
vt 1 0
vt 0 1
vt 1 1
vt 0 0
vt 1 0
vt 0 1
vt 1 1
vt 0 0
vt 1 0
vt 0 1
vt 1 1
vt 0 0
vt 1 0
vt 0 1
vt 1 1
vt 0 0
vt 1 0
vt 0 1
vt 1 1
vt 0.5 0.5
vt 0.5 0.5
vt 0.5 0.5
vt 0.5 0.5
vt 0.5 0.5
vt 0.5 0.5
vt 0.5 0.5
vt 0.5 0.5
vt 0.5 0.5
vt 0.5 0.5
vt 0.5 0.5
vt 0.5 0.5
vt 0.5 0.5
vt 0.5 0.5
vt 0.5 0.5
vt 0.5 0.5
vt 0.5 0.5
vt 0.5 0.5
vt 0.5 0.5
vt 0.5 0.5
vt 0.5 0.5
vt 0.5 0.5
vt 0 0
vt 1 0
vt 0 1
vt 1 1
vt 0 0
vt 1 0
vt 0 1
vt 1 1
vt 0 0
vt 1 0
vt 0 1
vt 1 1
vt 0 0
vt 1 0
vt 0 1
vt 1 1
vt 0 0
vt 1 0
vt 0 1
vt 1 1
vt 0 0
vt 1 0
vt 0 1
vt 1 1
vt 0 0
vt 1 0
vt 0 1
vt 1 1
vt 0.5 0.5
vt 0.5 0.5
vt 0.5 0.5
vt 0.5 0.5
vt 0.5 0.5
vt 0.5 0.5
vt 0.5 0.5
vt 0.5 0.5
vt 0.5 0.5
vt 0.5 0.5
vt 0.5 0.5
vt 0.5 0.5
vt 0.5 0.5
vt 0.5 0.5
vt 0.5 0.5
vt 0.5 0.5
vt 0.5 0.5
vt 0.5 0.5
vt 0.5 0.5
vt 0.5 0.5
vt 0.5 0.5
vt 0.5 0.5
vt 0.5 0.5
vt 0.5 0.5
vt 0.5 0.5
vt 0.5 0.5
vn 0 1 0
vn 0 1 0
vn 0 1 0
vn 0 1 0
vn 0 1 0
vn 0 1 0
vn 0 1 0
vn 0 1 0
vn 0.09755087 0.9952305 0
vn 0.09755087 0.9952305 0
vn 0.09755087 0.9952305 0
vn 0.09755087 0.9952305 0
vn 0.0613524 0.9981161 0
vn 0.0613524 0.9981161 0
vn 0.0613524 0.9981161 0
vn 0.0613524 0.9981161 0
vn 0.105884 0.9943785 0
vn 0.105884 0.9943785 0
vn 0.105884 0.9943785 0
vn 0.105884 0.9943785 0
vn 0 1 0
vn 0 1 0
vn 0 1 0
vn 0 1 0
vn 0 1 0
vn 0 1 0
vn 0 1 0
vn 0 1 0
vn 0 1 0
vn 0 1 0
vn 0 1 0
vn 0 1 0
vn 0.03996079 0.9990753 -0.01586826
vn 0.0001720487 1 -6.823154E-05
vn 0.03996079 0.9990753 -0.01586826
vn 0.0001720487 1 -6.823154E-05
vn 0 1 0
vn 0 1 0
vn 0 0.9994866 0.03204194
vn 0 0.9994866 0.03204194
vn 0 0.992982 0.1182652
vn 0 0.992982 0.1182652
vn 0 0.9914499 0.1304877
vn 0 0.9914499 0.1304877
vn 0 0.999016 0.04435111
vn 0 0.999016 0.04435111
vn 0.03717187 0.9992774 -0.007934407
vn 0.03717187 0.9992774 -0.007934407
vn 0.03915161 0.9992332 0
vn 0.03915161 0.9992332 0
vn 0.03569335 0.9993628 0
vn 0.03569335 0.9993628 0
vn 0.01390447 0.9999033 -6.824052E-05
vn 0.01390447 0.9999033 -6.824052E-05
vn 0 1 0
vn 0 1 0
vn 0 1 0
vn 0 1 0
vn 0 1 0
vn 0 1 0
vn 0 1 0
vn 0 1 0
vn 0 1 0
vn 0 1 0
vn 0 1 0
vn 0 1 0
vn 0 1 0
vn 0 1 0
vn 0 1 0
vn 0 1 0
vn 0 1 0
vn 0 1 0
vn 0 1 0
vn 0 1 0
vn 0 1 0
vn 0 1 0
vn 0 1 0
vn 0 1 0
vn 0 1 0
vn 0 1 0
vn 0 1 0
vn 0 1 0
vn 0 1 0
vn 0 1 0
vn 0 1 0
vn 0 1 0
vn 0 1 0
vn 0 1 0
vn 0 1 0
vn 0 1 0
vn 0 1 0
vn 0 1 0
vn 0 1 0
vn 0 1 0
vn 0 1 0
vn 0 1 0
vn 0 1 0
vn 0 1 0
vn 0 1 0
vn 0 1 0
vn 0 1 0
vn 0 1 0
vn 0 1 0
vn 0 1 0
vn 0 1 0
vn 0 1 0
vn 0 1 0
vn 0 1 0
g B2_shadowCircle_geo_0
f 4/4/4 1/1/1 2/2/2
f 3/3/3 1/1/1 4/4/4
f 8/8/8 5/5/5 6/6/6
f 7/7/7 5/5/5 8/8/8
f 12/12/12 9/9/9 10/10/10
f 11/11/11 9/9/9 12/12/12
f 16/16/16 13/13/13 14/14/14
f 15/15/15 13/13/13 16/16/16
f 20/20/20 17/17/17 18/18/18
f 19/19/19 17/17/17 20/20/20
f 24/24/24 21/21/21 22/22/22
f 23/23/23 21/21/21 24/24/24
f 28/28/28 25/25/25 26/26/26
f 27/27/27 25/25/25 28/28/28
f 32/32/32 29/29/29 30/30/30
f 31/31/31 29/29/29 32/32/32
f 36/36/36 34/34/34 39/39/39
f 53/53/53 34/34/34 36/36/36
f 54/54/54 53/53/53 36/36/36
f 51/51/51 53/53/53 54/54/54
f 52/52/52 51/51/51 54/54/54
f 49/49/49 51/51/51 52/52/52
f 50/50/50 49/49/49 52/52/52
f 47/47/47 49/49/49 50/50/50
f 48/48/48 47/47/47 50/50/50
f 33/33/33 47/47/47 48/48/48
f 35/35/35 33/33/33 48/48/48
f 46/46/46 37/37/37 38/38/38
f 45/45/45 37/37/37 46/46/46
f 44/44/44 45/45/45 46/46/46
f 43/43/43 45/45/45 44/44/44
f 42/42/42 43/43/43 44/44/44
f 41/41/41 43/43/43 42/42/42
f 40/40/40 41/41/41 42/42/42
f 39/39/39 41/41/41 40/40/40
f 36/36/36 39/39/39 40/40/40
f 58/58/58 55/55/55 56/56/56
f 57/57/57 55/55/55 58/58/58
f 62/62/62 59/59/59 60/60/60
f 61/61/61 59/59/59 62/62/62
f 66/66/66 63/63/63 64/64/64
f 65/65/65 63/63/63 66/66/66
f 70/70/70 67/67/67 68/68/68
f 69/69/69 67/67/67 70/70/70
f 74/74/74 71/71/71 72/72/72
f 73/73/73 71/71/71 74/74/74
f 78/78/78 75/75/75 76/76/76
f 77/77/77 75/75/75 78/78/78
f 82/82/82 79/79/79 80/80/80
f 81/81/81 79/79/79 82/82/82
f 87/87/87 90/90/90 89/89/89
f 88/88/88 90/90/90 87/87/87
f 85/85/85 88/88/88 87/87/87
f 86/86/86 88/88/88 85/85/85
f 92/92/92 86/86/86 85/85/85
f 91/91/91 86/86/86 92/92/92
f 83/83/83 91/91/91 92/92/92
f 84/84/84 91/91/91 83/83/83
f 93/93/93 84/84/84 83/83/83
f 94/94/94 84/84/84 93/93/93
f 98/98/98 95/95/95 96/96/96
f 97/97/97 95/95/95 98/98/98
f 104/104/104 102/102/102 99/99/99
f 101/101/101 102/102/102 104/104/104
f 103/103/103 101/101/101 104/104/104
f 100/100/100 104/104/104 99/99/99
f 108/108/108 105/105/105 106/106/106
f 107/107/107 105/105/105 108/108/108
