g B2_shadowTree_geo
v 88.91212 0.0321997 -140.2431
v 84.53275 0.0321997 -136.1774
v 92.97788 0.0321997 -135.8638
v 88.59853 0.0321997 -131.798
v 68.25171 0.01799103 -149.6258
v 62.59252 0.01799103 -149.7165
v 68.161 0.01799103 -143.9666
v 62.50182 0.01799103 -144.0572
v 68.70439 0.1025262 -138.3289
v 74.75982 0.1025262 -138.3289
v 68.70439 0.1025262 -144.6241
v 74.75982 0.1025262 -144.6241
v 188.6698 0.08412796 -104.8669
v 188.6698 0.08412796 -111.8793
v 182.5429 0.08412796 -104.8669
v 182.5429 0.08412796 -111.8793
v 71.34818 0.01799097 -174.6095
v 69.45453 0.01799097 -169.9108
v 77.05116 0.01799097 -173.0494
v 75.15752 0.01799097 -168.3508
v 103.256 0.02363689 -170.3398
v 101.9856 0.02363689 -175.8111
v 97.78486 0.02363689 -169.0696
v 96.51445 0.02363689 -175.6374
v 80.99196 0.02363693 -135.6645
v 81.92433 0.02363693 -141.5151
v 75.1851 0.02363693 -136.5901
v 76.11752 0.02363693 -142.4406
v 102.038 0.03219958 -127.338
v 102.1499 0.03219958 -134.3196
v 95.05641 0.03219958 -127.45
v 95.16827 0.03219958 -134.4315
v 103.3497 0.03219955 -114.5822
v 103.4616 0.03219955 -121.5637
v 96.3682 0.03219955 -114.694
v 96.48008 0.03219955 -121.6756
v 83.58079 0.03219937 -133.343
v 76.11034 0.03219944 -133.344
v 83.58079 0.03219937 -125.5767
v 76.11034 0.03219944 -125.5777
v 135.718 0.05817149 -95.28556
v 137.7373 0.05817149 -92.75835
v 140.113 0.05817149 -98.79719
v 142.1323 0.05817149 -96.26996
v 127.5464 0.0659314 -140.8617
v 131.9951 0.0659314 -140.8617
v 127.5464 0.0659314 -148.2582
v 131.9951 0.0659314 -148.2582
v 130.3675 0.06316447 -109.8554
v 134.7041 0.06316447 -109.8554
v 130.3675 0.06316447 -115.8076
v 134.7041 0.06316447 -115.8076
v 137.7001 0.06593139 -113.9146
v 137.7001 0.06593139 -118.5971
v 132.2884 0.06593139 -113.9146
v 132.2884 0.06593139 -118.5971
v 130.0273 0.06316448 -139.8588
v 130.0273 0.06316448 -145.0091
v 124.0751 0.06316448 -139.8588
v 124.0751 0.06316448 -145.0091
v 122.7442 0.0659314 -121.4856
v 127.1929 0.0659314 -121.4856
v 122.7442 0.0659314 -128.8821
v 127.1929 0.0659314 -128.8821
v 122.938 0.05431794 -156.0629
v 120.9191 0.05431794 -149.8781
v 129.018 0.05431794 -154.0093
v 126.9992 0.05431794 -147.8244
v 150.759 0.05431793 -190.0522
v 148.7029 0.05431793 -183.7534
v 156.9512 0.05431793 -187.9607
v 154.8952 0.05431793 -181.6619
v 129.5155 0.05431793 -141.5512
v 127.7272 0.05431793 -135.0149
v 134.9011 0.05431793 -139.3809
v 133.1129 0.05431793 -132.8445
v 131.2395 0.05431794 -93.81406
v 129.4513 0.05431794 -87.27773
v 136.6252 0.05431794 -91.64371
v 134.837 0.05431794 -85.10739
v 130.6457 0.05431793 -176.0412
v 129.2752 0.05431793 -172.2038
v 134.7735 0.05431793 -174.767
v 133.4029 0.05431793 -170.9296
v 181.5332 0.04489528 -66.18246
v 180.8971 0.04489528 -69.91685
v 177.8267 0.04489528 -65.55112
v 177.1906 0.04489528 -69.28545
v 185.5098 0.04489528 -86.05519
v 184.8737 0.04489528 -89.78958
v 181.8033 0.04489528 -85.42386
v 181.1672 0.04489528 -89.15819
vt 0 3.814697E-06
vt 1 3.814697E-06
vt 0 0.9999962
vt 1 0.9999962
vt 0 3.814697E-06
vt 1 3.814697E-06
vt 0 0.9999962
vt 1 0.9999962
vt 0 3.814697E-06
vt 1 3.814697E-06
vt 0 0.9999962
vt 1 0.9999962
vt 0 3.814697E-06
vt 1 3.814697E-06
vt 0 0.9999962
vt 1 0.9999962
vt 0 3.814697E-06
vt 1 3.814697E-06
vt 0 0.9999962
vt 1 0.9999962
vt 0 3.814697E-06
vt 1 3.814697E-06
vt 0 0.9999962
vt 1 0.9999962
vt 0 3.814697E-06
vt 1 3.814697E-06
vt 0 0.9999962
vt 1 0.9999962
vt 0 3.814697E-06
vt 1 3.814697E-06
vt 0 0.9999962
vt 1 0.9999962
vt 0 3.814697E-06
vt 1 3.814697E-06
vt 0 0.9999962
vt 1 0.9999962
vt 0 3.814697E-06
vt 1 3.814697E-06
vt 0 0.9999962
vt 1 0.9999962
vt 0 3.814697E-06
vt 1 3.814697E-06
vt 0 0.9999962
vt 1 0.9999962
vt 0 3.814697E-06
vt 1 3.814697E-06
vt 0 0.9999962
vt 1 0.9999962
vt 0 3.814697E-06
vt 1 3.814697E-06
vt 0 0.9999962
vt 1 0.9999962
vt 0 3.814697E-06
vt 1 3.814697E-06
vt 0 0.9999962
vt 1 0.9999962
vt 0 3.814697E-06
vt 1 3.814697E-06
vt 0 0.9999962
vt 1 0.9999962
vt 0 3.814697E-06
vt 1 3.814697E-06
vt 0 0.9999962
vt 1 0.9999962
vt 0 3.814697E-06
vt 1 3.814697E-06
vt 0 0.9999962
vt 1 0.9999962
vt 0 3.814697E-06
vt 1 3.814697E-06
vt 0 0.9999962
vt 1 0.9999962
vt 0 3.814697E-06
vt 1 3.814697E-06
vt 0 0.9999962
vt 1 0.9999962
vt 0 3.814697E-06
vt 1 3.814697E-06
vt 0 0.9999962
vt 1 0.9999962
vt 0 3.814697E-06
vt 1 3.814697E-06
vt 0 0.9999962
vt 1 0.9999962
vt 0 3.814697E-06
vt 1 3.814697E-06
vt 0 0.9999962
vt 1 0.9999962
vt 0 3.814697E-06
vt 1 3.814697E-06
vt 0 0.9999962
vt 1 0.9999962
vn 0 1 0
vn 0 1 0
vn 0 1 0
vn 0 1 0
vn 0 1 0
vn 0 1 0
vn 0 1 0
vn 0 1 0
vn 0 1 0
vn 0 1 0
vn 0 1 0
vn 0 1 0
vn 0 1 0
vn 0 1 0
vn 0 1 0
vn 0 1 0
vn 0 1 0
vn 0 1 0
vn 0 1 0
vn 0 1 0
vn 0 1 0
vn 0 1 0
vn 0 1 0
vn 0 1 0
vn 0 1 0
vn 0 1 0
vn 0 1 0
vn 0 1 0
vn 0 1 0
vn 0 1 0
vn 0 1 0
vn 0 1 0
vn 0 1 0
vn 0 1 0
vn 0 1 0
vn 0 1 0
vn 0 1 0
vn 0 1 0
vn 0 1 0
vn 0 1 0
vn 0 1 0
vn 0 1 0
vn 0 1 0
vn 0 1 0
vn 0 1 0
vn 0 1 0
vn 0 1 0
vn 0 1 0
vn 0 1 0
vn 0 1 0
vn 0 1 0
vn 0 1 0
vn 0 1 0
vn 0 1 0
vn 0 1 0
vn 0 1 0
vn 0 1 0
vn 0 1 0
vn 0 1 0
vn 0 1 0
vn 0 1 0
vn 0 1 0
vn 0 1 0
vn 0 1 0
vn 0 1 0
vn 0 1 0
vn 0 1 0
vn 0 1 0
vn 0 1 0
vn 0 1 0
vn 0 1 0
vn 0 1 0
vn 0 1 0
vn 0 1 0
vn 0 1 0
vn 0 1 0
vn 0 1 0
vn 0 1 0
vn 0 1 0
vn 0 1 0
vn 0 1 0
vn 0 1 0
vn 0 1 0
vn 0 1 0
vn 0 1 0
vn 0 1 0
vn 0 1 0
vn 0 1 0
vn 0 1 0
vn 0 1 0
vn 0 1 0
vn 0 1 0
g B2_shadowTree_geo_0
f 4/4/4 1/1/1 2/2/2
f 3/3/3 1/1/1 4/4/4
f 8/8/8 5/5/5 6/6/6
f 7/7/7 5/5/5 8/8/8
f 12/12/12 9/9/9 10/10/10
f 11/11/11 9/9/9 12/12/12
f 16/16/16 13/13/13 14/14/14
f 15/15/15 13/13/13 16/16/16
f 20/20/20 17/17/17 18/18/18
f 19/19/19 17/17/17 20/20/20
f 24/24/24 21/21/21 22/22/22
f 23/23/23 21/21/21 24/24/24
f 28/28/28 25/25/25 26/26/26
f 27/27/27 25/25/25 28/28/28
f 32/32/32 29/29/29 30/30/30
f 31/31/31 29/29/29 32/32/32
f 36/36/36 33/33/33 34/34/34
f 35/35/35 33/33/33 36/36/36
f 40/40/40 37/37/37 38/38/38
f 39/39/39 37/37/37 40/40/40
f 44/44/44 41/41/41 42/42/42
f 43/43/43 41/41/41 44/44/44
f 48/48/48 45/45/45 46/46/46
f 47/47/47 45/45/45 48/48/48
f 52/52/52 49/49/49 50/50/50
f 51/51/51 49/49/49 52/52/52
f 56/56/56 53/53/53 54/54/54
f 55/55/55 53/53/53 56/56/56
f 60/60/60 57/57/57 58/58/58
f 59/59/59 57/57/57 60/60/60
f 64/64/64 61/61/61 62/62/62
f 63/63/63 61/61/61 64/64/64
f 68/68/68 65/65/65 66/66/66
f 67/67/67 65/65/65 68/68/68
f 72/72/72 69/69/69 70/70/70
f 71/71/71 69/69/69 72/72/72
f 76/76/76 73/73/73 74/74/74
f 75/75/75 73/73/73 76/76/76
f 80/80/80 77/77/77 78/78/78
f 79/79/79 77/77/77 80/80/80
f 84/84/84 81/81/81 82/82/82
f 83/83/83 81/81/81 84/84/84
f 88/88/88 85/85/85 86/86/86
f 87/87/87 85/85/85 88/88/88
f 92/92/92 89/89/89 90/90/90
f 91/91/91 89/89/89 92/92/92
