g B2_shadowPine_geo
v 162.6131 0.05431793 -110.7425
v 162.6131 0.05431793 -117.755
v 156.4863 0.05431793 -110.7425
v 156.4863 0.05431793 -117.755
v 153.9685 0.05431789 -111.8004
v 153.9685 0.05431789 -117.0065
v 149.4199 0.05431789 -111.8004
v 149.4199 0.05431789 -117.0065
vt 0 2.000004
vt 1 2.000004
vt 0 2.999996
vt 1 2.999996
vt 0 2.000004
vt 1 2.000004
vt 0 2.999996
vt 1 2.999996
vn 0 1 0
vn 0 1 0
vn 0 1 0
vn 0 1 0
vn 0 1 0
vn 0 1 0
vn 0 1 0
vn 0 1 0
g B2_shadowPine_geo_0
f 4/4/4 1/1/1 2/2/2
f 3/3/3 1/1/1 4/4/4
f 8/8/8 5/5/5 6/6/6
f 7/7/7 5/5/5 8/8/8
