g B3_billboardBush_geo
v 168.2886 -0.04474891 78.35783
v 167.9599 -0.04474907 83.63972
v 168.2886 5.5917 78.35781
v 167.9599 5.591701 83.63975
v 166.8993 -0.03823943 46.4955
v 161.672 -0.03823953 53.91539
v 166.8993 3.986799 46.4955
v 161.672 3.9868 53.91539
v 163.7848 3.986799 48.14778
v 163.7848 -0.03823949 48.14777
v 183.118 0.01568727 42.64653
v 182.5685 0.01568742 49.61243
v 183.118 3.120099 42.64653
v 182.5685 3.120098 49.61243
v 183.9763 0.01568746 40.73325
v 182.0738 0.01568747 42.63627
v 183.9763 3.341811 40.73326
v 182.0738 3.341811 42.63628
v 184.5892 0.01568732 38.6841
v 180.8159 0.01568732 43.38972
v 184.5892 3.027701 38.6841
v 180.8159 3.027701 43.38972
v 187.1158 -0.006664566 39.05524
v 183.8366 -0.006664529 40.21264
v 187.1158 2.391264 39.05524
v 183.8366 2.391264 40.21262
v 189.3067 -0.02105342 25.58683
v 184.2867 -0.02641235 28.69863
v 189.272 6.045802 25.54148
v 184.2521 6.040443 28.65326
v 186.0243 6.027894 25.62362
v 186.0589 -0.03896044 25.669
v 211.2941 1.934558 18.64011
v 209.4336 1.934557 23.45455
v 211.2941 4.460336 18.64011
v 209.4335 4.460336 23.45455
v 208.4861 4.460336 21.24396
v 208.4861 1.934557 21.24396
v 209.1063 4.460336 19.6391
v 209.1063 1.934558 19.6391
v 180.8278 0.01568729 42.64231
v 181.4898 0.01568747 46.47407
v 180.8278 2.697087 42.64231
v 181.4898 2.697087 46.47407
v 167.922 -0.01289754 45.01204
v 166.4821 -0.01289763 46.70323
v 167.922 2.07849 45.01204
v 166.4821 2.07849 46.70324
v 166.47 2.07849 45.23436
v 166.47 -0.01289758 45.23436
v 177.1489 -0.01340405 41.14204
v 174.4156 -0.0134044 45.63641
v 177.1489 5.589004 41.14204
v 174.4156 5.589004 45.63643
v 175.7033 -0.06083688 44.69234
v 168.662 -0.06083689 47.44323
v 175.7033 2.048869 44.69228
v 168.662 2.048869 47.44325
v 172.0045 2.048869 48.55817
v 172.0046 -0.0608369 48.55819
v 163.7227 -0.01289731 60.03544
v 163.3503 -0.01289745 63.0064
v 163.7226 3.68818 60.0355
v 163.3503 3.68818 63.00639
v 163.3513 0.05258159 50.86299
v 163.06 0.05258192 59.16274
v 163.3513 4.199768 50.86298
v 163.0601 4.199768 59.16271
v 169.6177 -0.01340439 57.86313
v 166.1479 -0.01340437 62.91585
v 169.6177 6.282952 57.86313
v 166.148 6.282952 62.91585
v 168.3049 -0.01289767 83.36974
v 165.0146 -0.01289766 87.31871
v 168.3049 2.277183 83.36974
v 165.0145 2.277183 87.31867
vt 0.002221741 1.037909
vt 0.4119354 1.037909
vt 0.002221741 1.49278
vt 0.39608 1.49278
vt 0.4736867 1.738412
vt 0.9966328 1.738412
vt 0.4736867 1.993683
vt 0.9966328 1.993683
vt 0.6480021 1.993683
vt 0.6480021 1.738412
vt 0.4736867 1.738412
vt 0.9966328 1.738412
vt 0.4736867 1.993683
vt 0.9966328 1.993683
vt 0.7848603 1.500536
vt 0.9836571 1.500536
vt 0.7848603 1.734541
vt 0.9836571 1.734541
vt -0.002610027 1.738412
vt 0.4656537 1.738412
vt -0.002610027 1.987088
vt 0.4656537 1.987088
vt -0.002610027 1.500536
vt 0.3268212 1.500536
vt -0.002610027 1.733353
vt 0.3268212 1.733353
vt 0.002221741 1.037909
vt 0.4119354 1.037909
vt 0.002221741 1.49278
vt 0.39608 1.49278
vt 0.2070785 1.49278
vt 0.2070785 1.037909
vt 0.3242259 1.501435
vt 0.7844331 1.501435
vt 0.3242259 1.735291
vt 0.7844331 1.735291
vt 0.6310307 1.735291
vt 0.6310307 1.501435
vt 0.4776283 1.735291
vt 0.4776283 1.501435
vt -0.002610027 1.500536
vt 0.3268212 1.500536
vt -0.002610027 1.733353
vt 0.3268212 1.733353
vt 0.7089003 1.040445
vt 0.8541384 1.040445
vt 0.7089003 1.181787
vt 0.8541384 1.181787
vt 0.7815193 1.181787
vt 0.7815193 1.040445
vt 0.002221741 1.037909
vt 0.4119354 1.037909
vt 0.002221741 1.49278
vt 0.39608 1.49278
vt 0.3968211 1.326789
vt 0.9926597 1.326789
vt 0.3968211 1.497952
vt 0.9926597 1.497952
vt 0.794047 1.497952
vt 0.794047 1.326789
vt 0.7848603 1.500536
vt 0.9836571 1.500536
vt 0.7848603 1.734541
vt 0.9836571 1.734541
vt -0.002610027 1.738412
vt 0.4656537 1.738412
vt -0.002610027 1.987088
vt 0.4656537 1.987088
vt 0.002221741 1.037909
vt 0.4119354 1.037909
vt 0.002221741 1.49278
vt 0.39608 1.49278
vt 0.4119896 1.040445
vt 0.7102835 1.040445
vt 0.4119896 1.181787
vt 0.7102835 1.181787
vn -0.9980686 4.396086E-07 -0.06212047
vn -0.9980686 4.396086E-07 -0.06212047
vn -0.9980686 4.396086E-07 -0.06212047
vn -0.9980686 4.396086E-07 -0.06212047
vn -0.4686453 1.761695E-06 -0.8833865
vn -0.9389815 0 -0.3439678
vn -0.4686453 1.761695E-06 -0.8833865
vn -0.9389815 0 -0.3439678
vn -0.7537217 9.316397E-07 -0.6571937
vn -0.7537217 9.316397E-07 -0.6571937
vn -0.9969028 -4.609953E-06 -0.07864304
vn -0.9969028 -4.609953E-06 -0.07864304
vn -0.9969028 -4.609953E-06 -0.07864304
vn -0.9969028 -4.609953E-06 -0.07864304
vn -0.7072111 2.324439E-06 -0.7070025
vn -0.7072111 2.324439E-06 -0.7070025
vn -0.7072111 2.324439E-06 -0.7070025
vn -0.7072111 2.324439E-06 -0.7070025
vn -0.7801548 0 -0.6255866
vn -0.7801548 0 -0.6255866
vn -0.7801548 0 -0.6255866
vn -0.7801548 0 -0.6255866
vn -0.3328252 -2.998074E-06 -0.9429885
vn -0.3328252 -2.998074E-06 -0.9429885
vn -0.3328252 -2.998074E-06 -0.9429885
vn -0.3328252 -2.998074E-06 -0.9429885
vn -0.0252443 -0.007619163 -0.9996523
vn -0.8631455 -0.008700492 -0.5048804
vn -0.0252443 -0.007619163 -0.9996523
vn -0.8631455 -0.008700492 -0.5048804
vn -0.5084304 -0.009339829 -0.8610525
vn -0.5084304 -0.009339829 -0.8610525
vn -0.4153629 0 -0.9096557
vn -0.9191367 8.230884E-06 0.3939387
vn -0.4153629 0 -0.9096557
vn -0.9191367 8.230884E-06 0.3939387
vn -0.9998368 3.950231E-06 0.01806532
vn -0.9998368 3.950231E-06 0.01806532
vn -0.7278483 -4.935937E-07 -0.6857381
vn -0.7278483 -4.935937E-07 -0.6857381
vn -0.9854031 0 0.1702377
vn -0.9854031 0 0.1702377
vn -0.9854031 0 0.1702377
vn -0.9854031 0 0.1702377
vn -0.1513575 0 -0.9884791
vn -0.9999661 8.137795E-06 0.008230422
vn -0.1513575 0 -0.9884791
vn -0.9999661 8.137795E-06 0.008230422
vn -0.7614092 5.381798E-06 -0.6482715
vn -0.7614092 5.381798E-06 -0.6482715
vn -0.8544046 -2.205114E-06 -0.5196084
vn -0.8544046 -2.205114E-06 -0.5196084
vn -0.8544046 -2.205114E-06 -0.5196084
vn -0.8544046 -2.205114E-06 -0.5196084
vn -0.7225534 -2.754965E-05 -0.6913151
vn 0.3164192 -1.273138E-06 -0.9486195
vn -0.7225534 -2.754965E-05 -0.6913151
vn 0.3164192 -1.273138E-06 -0.9486195
vn -0.2403906 -1.706019E-05 -0.9706762
vn -0.2403906 -1.706019E-05 -0.9706762
vn -0.9922364 -9.644508E-06 -0.124366
vn -0.9922364 -9.644508E-06 -0.124366
vn -0.9922364 -9.644508E-06 -0.124366
vn -0.9922364 -9.644508E-06 -0.124366
vn -0.9993849 6.014757E-06 -0.03506813
vn -0.9993849 6.014757E-06 -0.03506813
vn -0.9993849 6.014757E-06 -0.03506813
vn -0.9993849 6.014757E-06 -0.03506813
vn -0.8243484 5.182348E-06 -0.5660828
vn -0.8243484 5.182348E-06 -0.5660828
vn -0.8243484 5.182348E-06 -0.5660828
vn -0.8243484 5.182348E-06 -0.5660828
vn -0.7682685 -1.274303E-05 -0.6401277
vn -0.7682685 -1.274303E-05 -0.6401277
vn -0.7682685 -1.274303E-05 -0.6401277
vn -0.7682685 -1.274303E-05 -0.6401277
g B3_billboardBush_geo_0
f 4/4/4 1/1/1 2/2/2
f 3/3/3 1/1/1 4/4/4
f 9/9/9 7/7/7 5/5/5
f 10/10/10 9/9/9 5/5/5
f 8/8/8 9/9/9 10/10/10
f 6/6/6 8/8/8 10/10/10
f 14/14/14 11/11/11 12/12/12
f 13/13/13 11/11/11 14/14/14
f 18/18/18 15/15/15 16/16/16
f 17/17/17 15/15/15 18/18/18
f 22/22/22 19/19/19 20/20/20
f 21/21/21 19/19/19 22/22/22
f 26/26/26 23/23/23 24/24/24
f 25/25/25 23/23/23 26/26/26
f 31/31/31 29/29/29 27/27/27
f 32/32/32 31/31/31 27/27/27
f 30/30/30 31/31/31 32/32/32
f 28/28/28 30/30/30 32/32/32
f 39/39/39 35/35/35 33/33/33
f 40/40/40 39/39/39 33/33/33
f 37/37/37 39/39/39 40/40/40
f 38/38/38 37/37/37 40/40/40
f 36/36/36 37/37/37 38/38/38
f 34/34/34 36/36/36 38/38/38
f 44/44/44 41/41/41 42/42/42
f 43/43/43 41/41/41 44/44/44
f 49/49/49 47/47/47 45/45/45
f 50/50/50 49/49/49 45/45/45
f 48/48/48 49/49/49 50/50/50
f 46/46/46 48/48/48 50/50/50
f 54/54/54 51/51/51 52/52/52
f 53/53/53 51/51/51 54/54/54
f 59/59/59 57/57/57 55/55/55
f 60/60/60 59/59/59 55/55/55
f 58/58/58 59/59/59 60/60/60
f 56/56/56 58/58/58 60/60/60
f 64/64/64 61/61/61 62/62/62
f 63/63/63 61/61/61 64/64/64
f 68/68/68 65/65/65 66/66/66
f 67/67/67 65/65/65 68/68/68
f 72/72/72 69/69/69 70/70/70
f 71/71/71 69/69/69 72/72/72
f 76/76/76 73/73/73 74/74/74
f 75/75/75 73/73/73 76/76/76
