g B3_rock01_geo
v 155.8322 0.02000073 -53.11109
v 155.4539 0.01999823 -53.20781
v 155.0499 0.0200002 -53.10969
v 155.891 0.2504372 -53.11111
v 155.4539 0.2504322 -53.24621
v 155.0499 0.2504339 -53.14804
v 155.7649 0.3959217 -53.00728
v 155.4833 0.4568426 -53.10982
v 155.1355 0.4673491 -53.05844
v 155.8294 0.4383827 -52.68388
v 155.0349 0.4673479 -52.64836
v 155.7819 0.4331979 -52.43709
v 155.4515 0.4583255 -52.23926
v 155.1014 0.467342 -52.38131
v 155.8743 0.2504334 -52.36639
v 155.4848 0.2504285 -52.11559
v 154.9218 0.250426 -52.26365
v 155.8743 0.02000269 -52.36639
v 155.4539 0.01999914 -52.14299
v 154.9541 0.01999724 -52.25353
v 155.8985 0.02000462 -52.64496
v 154.9364 0.01999884 -52.64496
v 154.8798 0.2504322 -52.64494
v 155.9572 0.2504375 -52.64496
v 182.5234 0.01999626 -13.61621
v 182.1663 0.02000026 -13.25082
v 182.0132 0.0200028 -12.72881
v 182.5618 0.3215002 -13.68272
v 182.1228 0.3215044 -13.27594
v 181.9697 0.3215089 -12.75389
v 182.597 0.5118586 -13.47192
v 182.2966 0.5915764 -13.21997
v 182.1272 0.6053259 -12.79218
v 183.0057 0.5673978 -13.3335
v 182.5261 0.6053249 -12.40999
v 183.2542 0.5606209 -13.11824
v 183.2622 0.5935227 -12.61435
v 182.8722 0.6053224 -12.31067
v 183.3947 0.3214854 -13.17662
v 183.4241 0.3215034 -12.5712
v 182.888 0.3215061 -12.03015
v 183.3947 0.01999135 -13.17657
v 183.3729 0.01999702 -12.55417
v 182.9206 0.02000159 -12.06012
v 183.0949 0.01999019 -13.38634
v 182.4655 0.02000455 -12.29619
v 182.4285 0.321509 -12.23199
v 183.1333 0.3214836 -13.45285
v 126.4073 0.02000107 25.34423
v 126.029 0.02000044 25.24749
v 125.625 0.01999851 25.34563
v 126.466 0.250428 25.34423
v 126.029 0.2504308 25.20912
v 125.625 0.2504314 25.30725
v 126.3399 0.3959124 25.44803
v 126.0583 0.4568402 25.3455
v 125.7105 0.4673469 25.3969
v 126.4045 0.4383745 25.77142
v 125.61 0.4673461 25.80696
v 126.357 0.4331974 26.01823
v 126.0265 0.4583296 26.21602
v 125.6765 0.4673474 26.07398
v 126.4493 0.250432 26.08891
v 126.0598 0.2504326 26.33971
v 125.4968 0.2504331 26.19165
v 126.4493 0.0200007 26.08891
v 126.029 0.01999923 26.31232
v 125.5292 0.02000081 26.20177
v 126.4736 0.02000118 25.81033
v 125.5115 0.02000025 25.81033
v 125.4548 0.2504317 25.81033
v 126.5322 0.2504297 25.81033
v 125.5697 0.01999486 24.85342
v 125.2996 0.01999715 24.77197
v 125.0111 0.02000178 24.85463
v 125.4364 0.3017894 25.04125
v 125.3075 0.3017952 24.98586
v 125.1481 0.3052015 25.01363
v 125.5051 0.2919294 25.21597
v 125.0672 0.3051942 25.23515
v 125.4442 0.2895586 25.3493
v 125.2929 0.3010727 25.45616
v 125.1326 0.3051955 25.37943
v 125.5997 0.02000096 25.48049
v 125.2996 0.02000467 25.66859
v 124.9428 0.0199929 25.5755
v 125.6869 0.01999765 25.24591
v 124.8602 0.01999112 25.24591
vt 0.05590532 0.1057783
vt 0.4365335 -0.02905096
vt 0.8675842 0.06010723
vt 0.1498756 0.2055191
vt 0.4544776 0.106509
vt 0.7293037 0.1515977
vt 0.28541 0.3239301
vt 0.4716615 0.2422232
vt 0.6284655 0.2839758
vt 0.3350164 0.5032771
vt 0.6774055 0.4965523
vt 0.2702909 0.7081136
vt 0.4680784 0.7478172
vt 0.6661782 0.6989202
vt 0.1801726 0.8199484
vt 0.4939252 0.8619339
vt 0.7503185 0.7883314
vt 0.04793481 0.9436902
vt 0.4458565 1.069718
vt 0.9339983 0.9560127
vt -0.01133399 0.5680103
vt 0.9888839 0.5036293
vt 0.8029217 0.4916567
vt 0.2090266 0.5143588
vt 0.05590532 0.1057783
vt 0.4365335 -0.02905096
vt 0.8675842 0.06010723
vt 0.1498756 0.2055191
vt 0.4544776 0.106509
vt 0.7293037 0.1515977
vt 0.28541 0.3239301
vt 0.4716615 0.2422232
vt 0.6284655 0.2839758
vt 0.3350164 0.5032771
vt 0.6774055 0.4965523
vt 0.2702909 0.7081136
vt 0.4680784 0.7478172
vt 0.6661782 0.6989202
vt 0.1801726 0.8199484
vt 0.4939252 0.8619339
vt 0.7503185 0.7883314
vt 0.04793481 0.9436902
vt 0.4458565 1.069718
vt 0.9339983 0.9560127
vt -0.01133399 0.5680103
vt 0.9888839 0.5036293
vt 0.8029217 0.4916567
vt 0.2090266 0.5143588
vt 0.05590532 0.1057783
vt 0.4365335 -0.02905096
vt 0.8675842 0.06010723
vt 0.1498756 0.2055191
vt 0.4544776 0.106509
vt 0.7293037 0.1515977
vt 0.28541 0.3239301
vt 0.4716615 0.2422232
vt 0.6284655 0.2839758
vt 0.3350164 0.5032771
vt 0.6774055 0.4965523
vt 0.2702909 0.7081136
vt 0.4680784 0.7478172
vt 0.6661782 0.6989202
vt 0.1801726 0.8199484
vt 0.4939252 0.8619339
vt 0.7503185 0.7883314
vt 0.04793481 0.9436902
vt 0.4458565 1.069718
vt 0.9339983 0.9560127
vt -0.01133399 0.5680103
vt 0.9888839 0.5036293
vt 0.8029217 0.4916567
vt 0.2090266 0.5143588
vt 0.1359153 0.5175096
vt 0.3330997 0.4542564
vt 0.4833359 0.4916672
vt 0.2156644 0.6130923
vt 0.307606 0.5727584
vt 0.401988 0.5935699
vt 0.2007046 0.7016255
vt 0.4354683 0.695676
vt 0.2082011 0.8027413
vt 0.3058372 0.8223408
vt 0.40336 0.7968715
vt 0.03391971 0.9170907
vt 0.2954907 0.9729975
vt 0.4776807 0.9089139
vt 0.02639598 0.7193839
vt 0.5091376 0.708305
vn 0.7310915 -0.2129689 -0.6481894
vn 0.01998508 -0.1416245 -0.9897187
vn -0.6806551 -0.1723783 -0.7120354
vn 0.7265201 0.2690287 -0.6322911
vn 0.04817219 0.2262464 -0.9728782
vn -0.6650972 0.216218 -0.7147695
vn 0.3259401 0.9046773 -0.2744485
vn 0.0772831 0.885497 -0.4581729
vn -0.3887185 0.8086393 -0.4415885
vn 0.5855218 0.8106283 -0.006785976
vn -0.5916757 0.8050056 -0.04342764
vn 0.4917948 0.8023464 0.3381984
vn 0.08966859 0.897712 0.4313614
vn -0.2586351 0.9263982 0.2736682
vn 0.7888025 0.241636 0.5651572
vn 0.1380379 0.2644628 0.9544658
vn -0.7135762 0.3021779 0.6320581
vn 0.8105558 -0.1145314 0.5743535
vn 0.1441013 -0.06575999 0.9873755
vn -0.7504982 -0.1385571 0.6461845
vn 0.9819983 -0.1871119 0.02585522
vn -0.9806759 -0.166286 -0.1030713
vn -0.9709212 0.2226516 -0.08796647
vn 0.975155 0.2198722 0.02699876
vn -0.1957971 -0.2129398 -0.9572461
vn -0.8471139 -0.1416566 -0.512183
vn -0.9569367 -0.1725535 0.2334471
vn -0.1843137 0.2690309 -0.9453311
vn -0.8184384 0.2262243 -0.5281868
vn -0.9515698 0.2161551 0.2186139
vn -0.07469124 0.9046657 -0.4195249
vn -0.3581421 0.885491 -0.2960405
vn -0.5767613 0.8086578 0.1158398
vn 0.2869198 0.8105975 -0.5104985
vn -0.3334445 0.8050113 0.4906848
vn 0.5388497 0.8022872 -0.2568585
vn 0.4184471 0.897695 0.1380059
vn 0.1076812 0.9263999 0.3608155
vn 0.8838711 0.2415494 -0.4005319
vn 0.8956214 0.2644305 0.3576852
vn 0.1905608 0.3021634 0.934015
vn 0.9026992 -0.1145842 -0.4147344
vn 0.9271444 -0.06575794 0.3688889
vn 0.1843122 -0.1385944 0.9730471
vn 0.5134366 -0.1871838 -0.8374635
vn -0.5796098 -0.1663925 0.7977255
vn -0.5616586 0.2226054 0.7968603
vn 0.5110009 0.2198177 -0.8309983
vn 0.7311089 -0.2129059 -0.6481905
vn 0.02002137 -0.141584 -0.9897238
vn -0.6806494 -0.1724105 -0.7120329
vn 0.7265161 0.2690403 -0.6322908
vn 0.0481963 0.2262646 -0.9728727
vn -0.6650887 0.216235 -0.7147723
vn 0.3259552 0.9046667 -0.2744654
vn 0.07729043 0.8854927 -0.4581799
vn -0.3886943 0.808658 -0.4415756
vn 0.5855523 0.810606 -0.006806017
vn -0.5916416 0.8050298 -0.04344057
vn 0.4918318 0.8023184 0.3382109
vn 0.08968557 0.8977056 0.4313712
vn -0.2586164 0.9264089 0.2736495
vn 0.7888104 0.241593 0.5651646
vn 0.1380533 0.2644622 0.9544637
vn -0.713573 0.3021805 0.6320605
vn 0.8105499 -0.1145405 0.5743601
vn 0.1441251 -0.06573517 0.9873737
vn -0.7504903 -0.138607 0.6461828
vn 0.9819953 -0.1871246 0.02587507
vn -0.9806643 -0.1663615 -0.1030608
vn -0.9709224 0.2226453 -0.08797013
vn 0.9751613 0.2198451 0.02699607
vn 0.5751269 0.6090689 -0.5461355
vn 0.03484434 0.6013097 -0.798256
vn -0.5282911 0.6081596 -0.5924952
vn 0.4226047 0.8198454 -0.3863403
vn 0.0369188 0.8141619 -0.579463
vn -0.3683901 0.8280174 -0.4227009
vn 0.6061786 0.7949457 0.02467419
vn -0.5722875 0.8198317 -0.01905239
vn 0.470233 0.7981097 0.3766986
vn 0.09575719 0.8300804 0.5493607
vn -0.368058 0.8491268 0.3788361
vn 0.6307226 0.5824245 0.5128066
vn 0.1181503 0.6315176 0.7663067
vn -0.5347676 0.6595161 0.5282633
vn 0.8187805 0.5733817 0.0288437
vn -0.7980446 0.6017928 -0.03114819
g B3_rock01_geo_0
f 4/4/4 1/1/1 5/5/5
f 21/21/21 1/1/1 4/4/4
f 24/24/24 21/21/21 4/4/4
f 18/18/18 21/21/21 24/24/24
f 15/15/15 18/18/18 24/24/24
f 19/19/19 18/18/18 15/15/15
f 16/16/16 19/19/19 15/15/15
f 20/20/20 19/19/19 16/16/16
f 17/17/17 20/20/20 16/16/16
f 22/22/22 20/20/20 17/17/17
f 23/23/23 22/22/22 17/17/17
f 3/3/3 22/22/22 23/23/23
f 6/6/6 3/3/3 23/23/23
f 2/2/2 3/3/3 6/6/6
f 5/5/5 2/2/2 6/6/6
f 1/1/1 2/2/2 5/5/5
f 28/28/28 25/25/25 29/29/29
f 45/45/45 25/25/25 28/28/28
f 48/48/48 45/45/45 28/28/28
f 42/42/42 45/45/45 48/48/48
f 39/39/39 42/42/42 48/48/48
f 43/43/43 42/42/42 39/39/39
f 40/40/40 43/43/43 39/39/39
f 44/44/44 43/43/43 40/40/40
f 41/41/41 44/44/44 40/40/40
f 46/46/46 44/44/44 41/41/41
f 47/47/47 46/46/46 41/41/41
f 27/27/27 46/46/46 47/47/47
f 30/30/30 27/27/27 47/47/47
f 26/26/26 27/27/27 30/30/30
f 29/29/29 26/26/26 30/30/30
f 25/25/25 26/26/26 29/29/29
f 52/52/52 49/49/49 53/53/53
f 69/69/69 49/49/49 52/52/52
f 72/72/72 69/69/69 52/52/52
f 66/66/66 69/69/69 72/72/72
f 63/63/63 66/66/66 72/72/72
f 67/67/67 66/66/66 63/63/63
f 64/64/64 67/67/67 63/63/63
f 68/68/68 67/67/67 64/64/64
f 65/65/65 68/68/68 64/64/64
f 70/70/70 68/68/68 65/65/65
f 71/71/71 70/70/70 65/65/65
f 51/51/51 70/70/70 71/71/71
f 54/54/54 51/51/51 71/71/71
f 50/50/50 51/51/51 54/54/54
f 53/53/53 50/50/50 54/54/54
f 49/49/49 50/50/50 53/53/53
f 73/73/73 79/79/79 87/87/87
f 76/76/76 79/79/79 73/73/73
f 74/74/74 76/76/76 73/73/73
f 77/77/77 76/76/76 74/74/74
f 78/78/78 77/77/77 74/74/74
f 76/76/76 77/77/77 78/78/78
f 80/80/80 76/76/76 78/78/78
f 79/79/79 76/76/76 80/80/80
f 81/81/81 79/79/79 80/80/80
f 87/87/87 79/79/79 81/81/81
f 84/84/84 87/87/87 81/81/81
f 82/82/82 85/85/85 84/84/84
f 81/81/81 82/82/82 84/84/84
f 83/83/83 82/82/82 81/81/81
f 80/80/80 83/83/83 81/81/81
f 88/88/88 83/83/83 80/80/80
f 78/78/78 88/88/88 80/80/80
f 75/75/75 88/88/88 78/78/78
f 74/74/74 75/75/75 78/78/78
f 86/86/86 83/83/83 88/88/88
f 82/82/82 83/83/83 86/86/86
f 85/85/85 82/82/82 86/86/86
f 7/7/7 4/4/4 8/8/8
f 24/24/24 4/4/4 7/7/7
f 10/10/10 24/24/24 7/7/7
f 15/15/15 24/24/24 10/10/10
f 12/12/12 15/15/15 10/10/10
f 16/16/16 15/15/15 12/12/12
f 13/13/13 16/16/16 12/12/12
f 17/17/17 16/16/16 13/13/13
f 14/14/14 17/17/17 13/13/13
f 23/23/23 17/17/17 14/14/14
f 11/11/11 23/23/23 14/14/14
f 6/6/6 23/23/23 11/11/11
f 9/9/9 6/6/6 11/11/11
f 5/5/5 6/6/6 9/9/9
f 8/8/8 5/5/5 9/9/9
f 4/4/4 5/5/5 8/8/8
f 14/14/14 9/9/9 11/11/11
f 8/8/8 9/9/9 14/14/14
f 13/13/13 8/8/8 14/14/14
f 7/7/7 8/8/8 13/13/13
f 10/10/10 7/7/7 13/13/13
f 10/10/10 13/13/13 12/12/12
f 31/31/31 28/28/28 32/32/32
f 48/48/48 28/28/28 31/31/31
f 34/34/34 48/48/48 31/31/31
f 39/39/39 48/48/48 34/34/34
f 36/36/36 39/39/39 34/34/34
f 40/40/40 39/39/39 36/36/36
f 37/37/37 40/40/40 36/36/36
f 41/41/41 40/40/40 37/37/37
f 38/38/38 41/41/41 37/37/37
f 47/47/47 41/41/41 38/38/38
f 35/35/35 47/47/47 38/38/38
f 30/30/30 47/47/47 35/35/35
f 33/33/33 30/30/30 35/35/35
f 29/29/29 30/30/30 33/33/33
f 32/32/32 29/29/29 33/33/33
f 28/28/28 29/29/29 32/32/32
f 38/38/38 33/33/33 35/35/35
f 32/32/32 33/33/33 38/38/38
f 37/37/37 32/32/32 38/38/38
f 31/31/31 32/32/32 37/37/37
f 34/34/34 31/31/31 37/37/37
f 34/34/34 37/37/37 36/36/36
f 55/55/55 52/52/52 56/56/56
f 72/72/72 52/52/52 55/55/55
f 58/58/58 72/72/72 55/55/55
f 63/63/63 72/72/72 58/58/58
f 60/60/60 63/63/63 58/58/58
f 64/64/64 63/63/63 60/60/60
f 61/61/61 64/64/64 60/60/60
f 65/65/65 64/64/64 61/61/61
f 62/62/62 65/65/65 61/61/61
f 71/71/71 65/65/65 62/62/62
f 59/59/59 71/71/71 62/62/62
f 54/54/54 71/71/71 59/59/59
f 57/57/57 54/54/54 59/59/59
f 53/53/53 54/54/54 57/57/57
f 56/56/56 53/53/53 57/57/57
f 52/52/52 53/53/53 56/56/56
f 62/62/62 57/57/57 59/59/59
f 56/56/56 57/57/57 62/62/62
f 61/61/61 56/56/56 62/62/62
f 55/55/55 56/56/56 61/61/61
f 58/58/58 55/55/55 61/61/61
f 58/58/58 61/61/61 60/60/60
