g B3_signs_geo
v 102.0131 2.511641 -65.05666
v 102.0131 2.682076 -65.05666
v 102.0144 2.511641 -65.13603
v 102.0144 2.682076 -65.13603
v 102.0319 2.484821 -65.05643
v 101.9943 2.484821 -65.05701
v 102.0319 2.708894 -65.05643
v 101.9943 2.708894 -65.05701
v 102.0185 2.708894 -64.24504
v 101.981 2.708894 -64.24563
v 102.0185 2.484821 -64.24504
v 101.981 2.484821 -64.24563
v 102.1107 2.266495 -65.15199
v 102.1107 2.436929 -65.15199
v 102.0313 2.266495 -65.1506
v 102.0313 2.436929 -65.1506
v 102.1104 2.239675 -65.17082
v 102.111 2.239675 -65.13322
v 102.1104 2.463748 -65.17082
v 102.111 2.463748 -65.13322
v 102.9217 2.463748 -65.18498
v 102.9224 2.463748 -65.14738
v 102.9217 2.239676 -65.18498
v 102.9224 2.239676 -65.14738
v 101.9797 -1.518812E-07 -65.09869
v 102.0393 -1.525871E-07 -65.09869
v 102.0691 -1.531839E-07 -65.15025
v 102.0393 -1.192919E-09 -65.20186
v 101.9797 -1.524568E-07 -65.20186
v 101.9499 -1.511542E-07 -65.15031
v 101.9797 3.072725 -65.09869
v 102.0393 3.072725 -65.09869
v 102.0691 3.072725 -65.15028
v 102.0393 3.072725 -65.20186
v 101.9797 3.072725 -65.20186
v 101.9499 3.072725 -65.15028
v 102.0393 0.03164566 -65.20186
v 102.0691 0.03164566 -65.15028
v 102.0393 0.03164566 -65.09869
v 101.9797 0.03164562 -65.09869
v 101.9499 0.03164562 -65.15028
v 101.9797 0.03164566 -65.20186
v 92.47853 4.639688 -48.54432
v 92.47853 3.802487 -48.54432
v 87.66435 3.802487 -48.54432
v 87.66435 4.639688 -48.54432
v 102.0144 2.511641 -65.13603
v 102.0131 2.511641 -65.05666
v 102.0144 2.682076 -65.13603
v 101.9943 2.484821 -65.05701
v 101.981 2.708894 -64.24563
v 101.981 2.484821 -64.24563
v 101.9943 2.708894 -65.05701
v 102.0185 2.484821 -64.24504
v 102.0319 2.708894 -65.05643
v 102.0319 2.484821 -65.05643
v 102.0185 2.708894 -64.24504
v 102.0313 2.266495 -65.1506
v 102.1107 2.266495 -65.15199
v 102.0313 2.436929 -65.1506
v 102.111 2.239675 -65.13322
v 102.9224 2.463748 -65.14738
v 102.9224 2.239676 -65.14738
v 102.111 2.463748 -65.13322
v 102.9217 2.239676 -65.18498
v 102.1104 2.463748 -65.17082
v 102.1104 2.239675 -65.17082
v 102.9217 2.463748 -65.18498
v 102.0691 0.03164566 -65.15028
v 102.0393 0.03164566 -65.20186
v 102.0393 0.03164566 -65.09869
v 101.9797 0.03164562 -65.09869
v 101.9499 0.03164562 -65.15028
v 101.9797 0.03164566 -65.20186
vt 0.8971465 0.13058
vt 0.8971465 0.13058
vt 0.8971465 0.13058
vt 0.8971465 0.13058
vt 0.9671286 0.0900898
vt 0.9671286 0.0900898
vt 0.9671286 0.0900898
vt 0.9671286 0.0900898
vt 0.9671286 0.0900898
vt 0.9671286 0.0900898
vt 0.9671286 0.0900898
vt 0.9671286 0.0900898
vt 0.8971465 0.13058
vt 0.8971465 0.13058
vt 0.8971465 0.13058
vt 0.8971465 0.13058
vt 0.9671286 0.0900898
vt 0.9671286 0.0900898
vt 0.9671286 0.0900898
vt 0.9671286 0.0900898
vt 0.9671286 0.0900898
vt 0.9671286 0.0900898
vt 0.9671286 0.0900898
vt 0.9671286 0.0900898
vt 0.9671286 0.0900898
vt 0.9671286 0.0900898
vt 0.9671286 0.0900898
vt 0.9671286 0.0900898
vt 0.9671286 0.0900898
vt 0.9671286 0.0900898
vt 0.8971465 0.13058
vt 0.8971465 0.13058
vt 0.8971465 0.13058
vt 0.8971465 0.13058
vt 0.8971465 0.13058
vt 0.8971465 0.13058
vt 0.9671286 0.0900898
vt 0.9671286 0.0900898
vt 0.9671286 0.0900898
vt 0.9671286 0.0900898
vt 0.9671286 0.0900898
vt 0.9671286 0.0900898
vt 0.006680441 0.5010251
vt 0.006680441 0.4423309
vt 0.3107584 0.4423309
vt 0.3107584 0.5010251
vt 0.8971465 0.13058
vt 0.8971465 0.13058
vt 0.8971465 0.13058
vt 0.01929524 0.5803907
vt 0.2926136 0.6310181
vt 0.2926136 0.5803907
vt 0.01929524 0.6310181
vt 0.01929524 0.5803907
vt 0.2926136 0.6310181
vt 0.2926136 0.5803907
vt 0.01929524 0.6310181
vt 0.8971465 0.13058
vt 0.8971465 0.13058
vt 0.8971465 0.13058
vt 0.04520264 0.8359765
vt 0.2592147 0.8955371
vt 0.2592147 0.8359765
vt 0.04520264 0.8955371
vt 0.04520264 0.8359765
vt 0.2592147 0.8955371
vt 0.2592147 0.8359765
vt 0.04520264 0.8955371
vt 0.8971465 0.13058
vt 0.8971465 0.13058
vt 0.8971465 0.13058
vt 0.8971465 0.13058
vt 0.8971465 0.13058
vt 0.8971465 0.13058
vn -0.9998641 0 -0.01648609
vn 0 1 0
vn -0.9998641 0 -0.01648609
vn -0.9998641 0 -0.01648609
vn 0.5865219 -0.5774857 -0.5678928
vn -0.5680261 -0.577215 -0.5866593
vn 0.5865219 0.5774857 -0.5678928
vn -0.5680261 0.577215 -0.5866593
vn 0.5680981 0.5771792 0.5866248
vn -0.5864509 0.5775214 0.5679299
vn 0.5680981 -0.5771792 0.5866248
vn -0.5864509 -0.5775214 0.5679299
vn 0.01749767 0 0.9998469
vn 0 1 0
vn 0.01749767 0 0.9998469
vn 0.01749767 0 0.9998469
vn -0.5873767 -0.5773901 -0.5671061
vn -0.5671449 -0.5773106 0.5874173
vn -0.5873781 0.5773912 -0.5671036
vn -0.5671439 0.5773093 0.5874197
vn 0.567198 0.5773618 -0.5873157
vn 0.5873273 0.5773388 0.5672094
vn 0.567197 -0.5773605 -0.587318
vn 0.5873289 -0.5773399 0.5672067
vn -0.5000483 -0.0001653074 0.8659974
vn 0.4998687 0 0.8661013
vn 1 -0.000157577 0.0001559626
vn 0.5000935 -0.0001575734 -0.8659714
vn -0.4998913 0.0001196628 -0.8660882
vn -1 -4.564947E-05 -7.789641E-05
vn -0.3273113 0.7559231 0.5669634
vn 0.4329892 0.4999928 0.7500184
vn 0.8660169 0.500015 -6.619839E-07
vn 0.3273107 0.7559218 -0.5669655
vn -0.4329886 0.4999921 -0.7500193
vn -0.8660169 0.500015 -1.323968E-06
vn 0.5000318 -7.878583E-05 -0.866007
vn 1 -7.878908E-05 7.798185E-05
vn 0.4999194 0 0.8660719
vn -0.5000093 -8.265402E-05 0.8660201
vn -1 -2.282473E-05 -3.89482E-05
vn -0.4999307 5.983117E-05 -0.8660654
vn 0 0 -1
vn 0 0 -1
vn 0 0 -1
vn 0 0 -1
vn 0.9998641 0 0.01648609
vn 0.9998641 0 0.01648609
vn 0.9998641 0 0.01648609
vn -0.5680261 -0.577215 -0.5866593
vn -0.5864509 0.5775214 0.5679299
vn -0.5864509 -0.5775214 0.5679299
vn -0.5680261 0.577215 -0.5866593
vn 0.5680981 -0.5771792 0.5866248
vn 0.5865219 0.5774857 -0.5678928
vn 0.5865219 -0.5774857 -0.5678928
vn 0.5680981 0.5771792 0.5866248
vn -0.01749767 0 -0.9998469
vn -0.01749767 0 -0.9998469
vn -0.01749767 0 -0.9998469
vn -0.5671449 -0.5773106 0.5874173
vn 0.5873273 0.5773388 0.5672094
vn 0.5873289 -0.5773399 0.5672067
vn -0.5671439 0.5773093 0.5874197
vn 0.567197 -0.5773605 -0.587318
vn -0.5873781 0.5773912 -0.5671036
vn -0.5873767 -0.5773901 -0.5671061
vn 0.567198 0.5773618 -0.5873157
vn 1 -7.878908E-05 7.798185E-05
vn 0.5000318 -7.878583E-05 -0.866007
vn 0.4999194 0 0.8660719
vn -0.5000093 -8.265402E-05 0.8660201
vn -1 -2.282473E-05 -3.89482E-05
vn -0.4999307 5.983117E-05 -0.8660654
g B3_signs_geo_0
f 4/4/4 1/1/1 2/2/2
f 3/3/3 1/1/1 4/4/4
f 47/47/47 2/2/2 48/48/48
f 49/49/49 2/2/2 47/47/47
f 51/51/51 50/50/50 52/52/52
f 53/53/53 50/50/50 51/51/51
f 55/55/55 54/54/54 56/56/56
f 57/57/57 54/54/54 55/55/55
f 16/16/16 13/13/13 14/14/14
f 15/15/15 13/13/13 16/16/16
f 58/58/58 14/14/14 59/59/59
f 60/60/60 14/14/14 58/58/58
f 62/62/62 61/61/61 63/63/63
f 64/64/64 61/61/61 62/62/62
f 66/66/66 65/65/65 67/67/67
f 68/68/68 65/65/65 66/66/66
f 45/45/45 43/43/43 44/44/44
f 46/46/46 43/43/43 45/45/45
f 11/11/11 6/6/6 5/5/5
f 12/12/12 6/6/6 11/11/11
f 9/9/9 12/12/12 11/11/11
f 10/10/10 12/12/12 9/9/9
f 7/7/7 10/10/10 9/9/9
f 8/8/8 10/10/10 7/7/7
f 5/5/5 8/8/8 7/7/7
f 6/6/6 8/8/8 5/5/5
f 23/23/23 18/18/18 17/17/17
f 24/24/24 18/18/18 23/23/23
f 21/21/21 24/24/24 23/23/23
f 22/22/22 24/24/24 21/21/21
f 19/19/19 22/22/22 21/21/21
f 20/20/20 22/22/22 19/19/19
f 17/17/17 20/20/20 19/19/19
f 18/18/18 20/20/20 17/17/17
f 40/40/40 25/25/25 39/39/39
f 30/30/30 25/25/25 40/40/40
f 41/41/41 30/30/30 40/40/40
f 29/29/29 30/30/30 41/41/41
f 42/42/42 29/29/29 41/41/41
f 28/28/28 29/29/29 42/42/42
f 37/37/37 28/28/28 42/42/42
f 27/27/27 28/28/28 37/37/37
f 38/38/38 27/27/27 37/37/37
f 26/26/26 27/27/27 38/38/38
f 39/39/39 26/26/26 38/38/38
f 25/25/25 26/26/26 39/39/39
f 33/33/33 69/69/69 34/34/34
f 71/71/71 69/69/69 33/33/33
f 32/32/32 71/71/71 33/33/33
f 72/72/72 71/71/71 32/32/32
f 31/31/31 72/72/72 32/32/32
f 73/73/73 72/72/72 31/31/31
f 36/36/36 73/73/73 31/31/31
f 74/74/74 73/73/73 36/36/36
f 35/35/35 74/74/74 36/36/36
f 70/70/70 74/74/74 35/35/35
f 34/34/34 70/70/70 35/35/35
f 69/69/69 70/70/70 34/34/34
f 31/31/31 32/32/32 33/33/33
f 34/34/34 31/31/31 33/33/33
f 36/36/36 31/31/31 34/34/34
f 35/35/35 36/36/36 34/34/34
