g B3_shadowCircle_geo
v 68.18987 0.2331392 -31.31408
v 66.25391 0.2331392 -31.31408
v 68.18987 0.2331392 -30.89719
v 66.2539 0.2331392 -30.89719
v 75.18748 0.02 -31.31408
v 64.58255 0.02 -31.31408
v 75.87914 0.02 -30.3849
v 64.58255 0.02 -30.3849
v 67.93984 4.091704 -30.47725
v 66.14543 4.091703 -30.47725
v 67.30389 6.805326 -27.07883
v 66.14543 5.790272 -28.35004
v 66.14543 4.335215 -30.1723
v 68.2141 4.335215 -30.1723
v 129.4686 0.02 45.06288
v 127.335 0.02 45.06289
v 130.6399 0.02 45.99204
v 128.5099 0.02 45.99205
v 127.335 0.02 52.06654
v 128.5099 0.02 52.55959
v 141.452 0.02 41.30221
v 129.4687 0.02 41.3022
v 142.1437 0.02 42.23138
v 130.6436 0.02 42.23137
v 131.3751 0.02 52.63517
v 132.55 0.02 53.56435
v 131.3751 0.02 58.59513
v 132.5463 0.02 59.52428
v 119.5648 0.02 55.80898
v 119.2606 0.02 55.80898
v 119.5648 0.02 56.09088
v 119.2606 0.02 56.09088
v 121.2006 0.02 -71.69183
v 120.488 0.02 -71.69183
v 121.2006 0.02 -71.0313
v 120.488 0.02 -71.0313
v 104.2569 -0.1244629 -51.11187
v 104.8118 -0.1244629 -50.41309
v 64.90784 -0.1244629 -51.11184
v 64.90784 -0.1244629 -50.41304
v 119.3385 0.02 -26.5334
v 119.7961 0.02 -26.5334
v 119.3385 0.02 -26.9741
v 119.7961 0.02 -26.9741
v 156.1413 0.02 -53.2939
v 154.8365 0.02 -53.37938
v 156.018 0.02 -51.94072
v 154.7132 0.02 -52.02621
v 182.5185 0.02 -14.086
v 181.568 0.02 -12.66342
v 183.9711 0.02 -13.06099
v 183.0206 0.02 -11.63843
v 126.7164 0.02 25.16142
v 125.4116 0.02 25.07594
v 126.593 0.02 26.51458
v 125.2883 0.02 26.4291
v 125.7979 0.02 24.73702
v 124.7536 0.02 24.73702
v 125.7979 0.02 25.70525
v 124.7536 0.02 25.70525
v 114.9823 -0.1244629 68.21312
v 115.6253 -0.1244629 68.38681
v 116.1731 -0.1244629 60.8263
v 116.8296 -0.1244629 60.79993
v 116.1731 -0.1244629 3.118203
v 116.8296 -0.1244629 3.267549
v 116.1731 -0.1244629 -8.513525
v 116.8296 -0.1244629 -8.32876
v 116.1731 -0.1244629 -48.49978
v 116.8296 -0.1244629 -48.19324
v 84.23898 0.02 -37.76273
v 85.4102 0.02 -36.8336
v 94.72609 0.02 -49.34217
v 84.23898 0.02 -49.34217
v 95.41777 0.02 -48.41299
v 85.41392 0.02 -48.41301
v 119.1295 0.02 -66.80928
v 119.8043 0.02 -65.88016
v 121.1198 0.02 -70.41412
v 119.1295 0.02 -70.41412
v 121.8114 0.02 -69.99957
v 119.8081 0.02 -69.99953
v 139.1176 0.02 -95.93318
v 140.2888 0.02 -95.00404
v 174.3928 0.02 -110.9838
v 139.1176 0.02 -110.9838
v 175.0845 0.02 -110.0547
v 140.2925 0.02 -110.0546
v 135.3761 0.02 -84.85101
v 136.5473 0.02 -83.92188
v 135.3761 0.02 -95.91402
v 136.5511 0.02 -94.98486
v 135.3761 0.02 -62.28816
v 136.5473 0.02 -61.35902
v 138.5707 0.02 -74.53467
v 135.3761 0.02 -74.51555
v 139.7419 0.02 -73.60553
v 136.5511 0.02 -73.58636
v 146.6212 0.03628458 -27.90822
v 147.7924 0.03628458 -26.97908
v 166.3909 0.03628458 -46.04613
v 146.6212 0.03628458 -46.02697
v 167.5621 0.03628458 -45.11699
v 147.7961 0.03628458 -45.09781
v 149.705 0.03628458 -46.03004
v 149.705 0.03628458 -45.10088
v 152.9305 0.03628458 -46.03308
v 152.9305 0.03628458 -45.10392
v 152.9305 0.03628458 -61.34869
v 149.705 0.03628458 -61.34562
v 151.7059 0.04760371 15.86909
v 152.8772 0.04760371 16.79824
v 171.4756 0.04760371 -2.268799
v 149.7655 0.04760371 -2.249658
v 172.6469 0.04760371 -1.339658
v 152.8809 0.04760371 -1.320498
v 151.7059 0.04760371 6.300147
v 152.8791 0.04760371 6.300147
v 152.9008 0.04760371 -2.250918
v 149.7655 0.04760371 6.300127
v 152.9008 0.04760371 -27.00064
v 149.7655 0.04760371 -26.99937
v 151.7611 4.079254 -62.31396
v 152.9323 4.079254 -61.38482
v 165.7719 4.079253 -80.93275
v 151.7611 4.079253 -80.91363
v 166.2856 4.079253 -80.00362
v 152.936 4.079253 -79.98445
v 136.8429 4.079254 -62.31398
v 136.8429 4.079254 -61.38484
v 151.7611 4.079253 -89.73687
v 152.9323 4.079253 -88.80773
v 171.0755 4.079253 -106.4789
v 151.7611 4.079253 -106.4597
v 172.2467 4.079253 -105.5498
v 152.936 4.079253 -105.5306
v 165.7719 4.079254 -80.93277
v 166.2856 4.079254 -80.00363
v 174.3058 4.079253 -83.8708
v 165.7719 4.079253 -83.85164
v 174.7606 4.079253 -83.45432
v 166.2171 4.079253 -83.43513
v 174.3058 4.079253 -109.7068
v 174.7606 4.079253 -109.7068
v 139.5585 4.079254 -84.72295
v 136.852 4.079254 -84.7038
v 140.0133 4.079254 -84.30648
v 136.852 4.079254 -84.2873
v 153.3769 9.394673 -74.2676
v 154.5481 9.394673 -73.33846
v 159.1249 9.394672 -78.1949
v 153.3769 9.394672 -78.17571
v 159.6386 9.394672 -77.26576
v 154.5518 9.394672 -77.24658
v 153.3769 9.394672 -67.41267
v 154.5481 9.394672 -66.48354
v 159.1249 9.394671 -71.33998
v 153.3769 9.394671 -71.32082
v 159.6386 9.394671 -70.41084
v 154.5518 9.394671 -70.39166
v 160.1494 9.394671 -66.57415
v 161.3206 9.394671 -65.64504
v 165.8974 9.394674 -70.50153
v 160.1494 9.394672 -70.48235
v 166.4111 9.394674 -69.57234
v 161.3243 9.394672 -69.55315
v 148.9593 8.195927 -40.8604
v 150.1305 8.195927 -39.93127
v 153.6297 8.195926 -44.29699
v 148.9593 8.195927 -44.27783
v 154.1435 8.195926 -43.36785
v 150.1342 8.195927 -43.34867
v 148.9593 8.195927 -36.56498
v 150.1305 8.195927 -35.63582
v 152.4388 8.195927 -39.6735
v 148.9593 8.195927 -39.65434
v 152.9525 8.195927 -38.74435
v 150.1342 8.195927 -38.72517
v 160.584 8.195928 -31.03187
v 161.7552 8.195928 -30.10273
v 163.5796 8.195927 -33.05092
v 160.584 8.195927 -33.03174
v 164.0933 8.195927 -32.12179
v 161.7589 8.195927 -32.10258
v 119.2027 0.02 59.21084
v 119.2027 0.02 59.81865
v 119.7275 0.02 59.21084
v 119.7275 0.02 59.81865
v 100.1217 0.05231613 -64.68297
v 100.6953 0.05231613 -64.68297
v 100.1217 0.05231613 -65.21475
v 100.6953 0.05231613 -65.21475
v 101.9937 0.05231613 -47.62589
v 102.5674 0.05231613 -47.62589
v 101.9937 0.05231613 -48.15767
v 102.5674 0.05231613 -48.15767
v 101.9972 0.09929645 -31.43207
v 102.5708 0.003089909 -31.43207
v 101.9972 0.09929645 -31.96386
v 102.5708 0.003089909 -31.96386
v 101.9972 0.09929645 -15.39258
v 102.5708 0.003089909 -15.39258
v 101.9972 0.09929645 -15.92437
v 102.5708 0.003089909 -15.92437
v 101.9937 0.05231613 0.6515285
v 102.5674 0.05231613 0.6515285
v 101.9937 0.05231613 0.1197414
v 102.5674 0.05231613 0.1197414
v 127.1335 0.01251344 56.24824
v 128.2412 0.01251851 56.24824
v 127.1335 0.01251617 55.13998
v 128.2423 0.01252125 55.13998
v 124.2306 0.01251344 56.24824
v 125.3383 0.01251851 56.24824
v 124.2306 0.01251617 55.13998
v 125.3394 0.01252125 55.13998
v 121.4467 0.01251344 56.24824
v 122.5544 0.01251851 56.24824
v 121.4467 0.01251617 55.13998
v 122.5555 0.01252125 55.13998
v 150.2129 0.02 53.37069
v 146.5421 0.02 53.37069
v 147.7171 0.02 54.319
v 151.3841 0.02 54.29984
v 146.5421 0.02 58.33461
v 147.7134 0.02 59.26376
v 118.189 0.01559404 71.67138
v 118.7895 0.01559404 71.67138
v 118.189 0.01559404 71.0709
v 118.7895 0.01559404 71.0709
v 82.70686 0.05231613 -64.72734
v 83.28049 0.05231613 -64.72734
v 82.70686 0.05231613 -65.25913
v 83.28049 0.05231613 -65.25913
v 72.79788 0.01477121 34.60085
v 70.69931 0.01477121 34.60085
v 72.79791 0.01477121 36.31242
v 70.69926 0.01477121 36.3124
v 72.79788 0.01477121 26.86839
v 70.69931 0.01477121 26.86839
v 72.79791 0.01477121 28.57996
v 70.69926 0.01477121 28.57995
vt 0.5 0.5
vt 0.5 0.5
vt 0.5 0.5
vt 0.5 0.5
vt 0.5 0.5
vt 0.5 0.5
vt 0.5 0.5
vt 0.5 0.5
vt 0.5 0.5
vt 0.5 0.5
vt 0.5 0.5
vt 0.5 0.5
vt 0.5 0.5
vt 0.5 0.5
vt 0.5 0.5
vt 0.5 0.5
vt 0.5 0.5
vt 0.5 0.5
vt 0.5 0.5
vt 0.5 0.5
vt 0.5 0.5
vt 0.5 0.5
vt 0.5 0.5
vt 0.5 0.5
vt 0.5 0.5
vt 0.5 0.5
vt 0.5 0.5
vt 0.5 0.5
vt 0 0
vt 1 0
vt 0 1
vt 1 1
vt 0 0
vt 1 0
vt 0 1
vt 1 1
vt 0.5 0.5
vt 0.5 0.5
vt 0.5 0.5
vt 0.5 0.5
vt 0 0
vt 1 0
vt 0 1
vt 1 1
vt 0 0
vt 1 0
vt 0 1
vt 1 1
vt 0 0
vt 1 0
vt 0 1
vt 1 1
vt 0 0
vt 1 0
vt 0 1
vt 1 1
vt 0 0
vt 1 0
vt 0 1
vt 1 1
vt 0.5 0.5
vt 0.5 0.5
vt 0.5 0.5
vt 0.5 0.5
vt 0.5 0.5
vt 0.5 0.5
vt 0.5 0.5
vt 0.5 0.5
vt 0.5 0.5
vt 0.5 0.5
vt 0.5 0.5
vt 0.5 0.5
vt 0.5 0.5
vt 0.5 0.5
vt 0.5 0.5
vt 0.5 0.5
vt 0.5 0.5
vt 0.5 0.5
vt 0.5 0.5
vt 0.5 0.5
vt 0.5 0.5
vt 0.5 0.5
vt 0.5 0.5
vt 0.5 0.5
vt 0.5 0.5
vt 0.5 0.5
vt 0.5 0.5
vt 0.5 0.5
vt 0.5 0.5
vt 0.5 0.5
vt 0.5 0.5
vt 0.5 0.5
vt 0.5 0.5
vt 0.5 0.5
vt 0.5 0.5
vt 0.5 0.5
vt 0.5 0.5
vt 0.5 0.5
vt 0.5 0.5
vt 0.5 0.5
vt 0.5 0.5
vt 0.5 0.5
vt 0.5 0.5
vt 0.5 0.5
vt 0.5 0.5
vt 0.5 0.5
vt 0.5 0.5
vt 0.5 0.5
vt 0.5 0.5
vt 0.5 0.5
vt 0.5 0.5
vt 0.5 0.5
vt 0.5 0.5
vt 0.5 0.5
vt 0.5 0.5
vt 0.5 0.5
vt 0.5 0.5
vt 0.5 0.5
vt 0.5 0.5
vt 0.5 0.5
vt 0.5 0.5
vt 0.5 0.5
vt 0.5 0.5
vt 0.5 0.5
vt 0.5 0.5
vt 0.5 0.5
vt 0.5 0.5
vt 0.5 0.5
vt 0.5 0.5
vt 0.5 0.5
vt 0.5 0.5
vt 0.5 0.5
vt 0.5 0.5
vt 0.5 0.5
vt 0.5 0.5
vt 0.5 0.5
vt 0.5 0.5
vt 0.5 0.5
vt 0.5 0.5
vt 0.5 0.5
vt 0.5 0.5
vt 0.5 0.5
vt 0.5 0.5
vt 0.5 0.5
vt 0.5 0.5
vt 0.5 0.5
vt 0.5 0.5
vt 0.5 0.5
vt 0.5 0.5
vt 0.5 0.5
vt 0.5 0.5
vt 0.5 0.5
vt 0.5 0.5
vt 0.5 0.5
vt 0.5 0.5
vt 0.5 0.5
vt 0.5 0.5
vt 0.5 0.5
vt 0.5 0.5
vt 0.5 0.5
vt 0.5 0.5
vt 0.5 0.5
vt 0.5 0.5
vt 0.5 0.5
vt 0.5 0.5
vt 0.5 0.5
vt 0.5 0.5
vt 0.5 0.5
vt 0.5 0.5
vt 0.5 0.5
vt 0.5 0.5
vt 0.5 0.5
vt 0.5 0.5
vt 0.5 0.5
vt 0.5 0.5
vt 0.5 0.5
vt 0.5 0.5
vt 0.5 0.5
vt 0.5 0.5
vt 0.5 0.5
vt 0.5 0.5
vt 0.5 0.5
vt 0.5 0.5
vt 0.5 0.5
vt 0 0
vt 1 0
vt 0 1
vt 1 1
vt 0 0
vt 1 0
vt 0 1
vt 1 1
vt 0 0
vt 1 0
vt 0 1
vt 1 1
vt 0 0
vt 1 0
vt 0 1
vt 1 1
vt 0 0
vt 1 0
vt 0 1
vt 1 1
vt 0 0
vt 1 0
vt 0 1
vt 1 1
vt 0.5 0.5
vt 0.5 0.5
vt 0.5 0.5
vt 0.5 0.5
vt 0.5 0.5
vt 0.5 0.5
vt 0.5 0.5
vt 0.5 0.5
vt 0.5 0.5
vt 0.5 0.5
vt 0.5 0.5
vt 0.5 0.5
vt 0.5 0.5
vt 0.5 0.5
vt 0.5 0.5
vt 0.5 0.5
vt 0.5 0.5
vt 0.5 0.5
vt 0 0
vt 1 0
vt 0 1
vt 1 1
vt 0 0
vt 1 0
vt 0 1
vt 1 1
vt 0.5 0.5
vt 0.5 0.5
vt 0.5 0.5
vt 0.5 0.5
vt 0.5 0.5
vt 0.5 0.5
vt 0.5 0.5
vt 0.5 0.5
vn 0 1 0
vn 0 1 0
vn 0 1 0
vn 0 1 0
vn 0 1 0
vn 0 1 0
vn 0 1 0
vn 0 1 0
vn 0 0.7814211 -0.6240041
vn 0 0.7814211 -0.6240041
vn -1.147776E-06 0.7814449 -0.6239743
vn -1.147776E-06 0.7814449 -0.6239743
vn -5.73888E-07 0.781433 -0.6239892
vn -5.73888E-07 0.781433 -0.6239892
vn 0 1 0
vn 0 1 0
vn 0 1 0
vn 0 1 0
vn 0 1 0
vn 0 1 0
vn 0 1 0
vn 0 1 0
vn 0 1 0
vn 0 1 0
vn 0 1 0
vn 0 1 0
vn 0 1 0
vn 0 1 0
vn 0 1 0
vn 0 1 0
vn 0 1 0
vn 0 1 0
vn 0 1 0
vn 0 1 0
vn 0 1 0
vn 0 1 0
vn 0 1 0
vn 0 1 0
vn 0 1 0
vn 0 1 0
vn 0 1 0
vn 0 1 0
vn 0 1 0
vn 0 1 0
vn 0 1 0
vn 0 1 0
vn 0 1 0
vn 0 1 0
vn 0 1 0
vn 0 1 0
vn 0 1 0
vn 0 1 0
vn 0 1 0
vn 0 1 0
vn 0 1 0
vn 0 1 0
vn 0 1 0
vn 0 1 0
vn 0 1 0
vn 0 1 0
vn 0 1 0
vn 0 1 0
vn 0 1 0
vn 0 1 0
vn 0 1 0
vn 0 1 0
vn 0 1 0
vn 0 1 0
vn 0 1 0
vn 0 1 0
vn 0 1 0
vn 0 1 0
vn 0 1 0
vn 0 1 0
vn 0 1 0
vn 0 1 0
vn 0 1 0
vn 0 1 0
vn 0 1 0
vn 0 1 0
vn 0 1 0
vn 0 1 0
vn 0 1 0
vn 0 1 0
vn 0 1 0
vn 0 1 0
vn 0 1 0
vn 0 1 0
vn 0 1 0
vn 0 1 0
vn 0 1 0
vn 0 1 0
vn 0 1 0
vn 0 1 0
vn 0 1 0
vn 0 1 0
vn 0 1 0
vn 0 1 0
vn 0 1 0
vn 0 1 0
vn 0 1 0
vn 0 1 0
vn 0 1 0
vn 0 1 0
vn 0 1 0
vn 0 1 0
vn 0 1 0
vn 0 1 0
vn 0 1 0
vn 0 1 0
vn 0 1 0
vn 0 1 0
vn 0 1 0
vn 0 1 0
vn 0 1 0
vn 0 1 0
vn 0 1 0
vn 0 1 0
vn 0 1 0
vn 0 1 0
vn 0 1 0
vn 0 1 0
vn 0 1 0
vn 0 1 0
vn 0 1 5.217638E-07
vn 0 1 2.520709E-07
vn 0 1 5.217638E-07
vn 0 1 2.520709E-07
vn 0 1 0
vn 0 1 0
vn 0 1 0
vn 0 1 0
vn 0 1 4.130889E-07
vn 0 1 1.86867E-07
vn 0 1 4.130889E-07
vn 0 1 1.86867E-07
vn 1.369545E-07 1 -1.302735E-07
vn 1.369545E-07 1 -1.302735E-07
vn 0 1 1.369667E-07
vn 0 1 0
vn 0 1 1.369667E-07
vn 0 1 0
vn 0 1 0
vn 0 1 0
vn 0 1 3.185444E-07
vn 0 1 3.185444E-07
vn 0 1 3.185444E-07
vn 0 1 3.185444E-07
vn 2.473055E-07 1 -1.63692E-07
vn 2.473055E-07 1 -1.63692E-07
vn 0 1 2.320683E-07
vn 1.236528E-07 1 0
vn 0 1 2.320683E-07
vn 1.236528E-07 1 0
vn 1.236527E-07 1 -1.630248E-07
vn 1.236527E-07 1 -1.630248E-07
vn 0 1 -4.641331E-07
vn 0 1 -3.135789E-07
vn 0 1 -4.641331E-07
vn 0 1 -3.135789E-07
vn -1.236527E-07 1 1.490513E-07
vn -1.236527E-07 1 1.490513E-07
vn -3.369109E-07 1 1.082934E-06
vn -2.302818E-07 1 6.159927E-07
vn -3.369109E-07 1 1.082934E-06
vn -2.302818E-07 1 6.159927E-07
vn 0 1 -1.270741E-07
vn 0 1 -1.270741E-07
vn 1.400756E-07 1 -2.894528E-07
vn 0 1 -2.082635E-07
vn 1.400756E-07 1 -2.894528E-07
vn 0 1 -2.082635E-07
vn 0 1 0
vn 0 1 0
vn 0 1 1.327753E-07
vn 0 1 0
vn 0 1 1.327753E-07
vn 0 1 0
vn 4.831183E-07 1 -5.160574E-07
vn 4.831183E-07 1 -5.160574E-07
vn 0 1 1.567304E-07
vn 2.415591E-07 1 -1.796635E-07
vn 0 1 1.567304E-07
vn 2.415591E-07 1 -1.796635E-07
vn 0 1 0
vn 0 1 0
vn 0 1 0
vn 0 1 0
vn 0 1 0
vn 0 1 0
vn 0 1 0
vn 0 1 0
vn 0 1 0
vn 0 1 0
vn 0 1 0
vn 0 1 0
vn 0.1654044 0.9862258 0
vn 0.1654044 0.9862258 0
vn 0.1654044 0.9862258 0
vn 0.1654044 0.9862258 0
vn 0.1654048 0.9862258 0
vn 0.1654048 0.9862258 0
vn 0.1654048 0.9862258 0
vn 0.1654048 0.9862258 0
vn 0 1 0
vn 0 1 0
vn 0 1 0
vn 0 1 0
vn -4.580166E-06 1 2.464341E-06
vn -4.580166E-06 1 2.464341E-06
vn -4.580166E-06 1 2.464341E-06
vn -4.580166E-06 1 2.464341E-06
vn -4.580119E-06 1 2.464475E-06
vn -4.580119E-06 1 2.464475E-06
vn -4.580119E-06 1 2.464475E-06
vn -4.580119E-06 1 2.464475E-06
vn -4.580166E-06 1 2.464501E-06
vn -4.580166E-06 1 2.464501E-06
vn -4.580166E-06 1 2.464501E-06
vn -4.580166E-06 1 2.464501E-06
vn 0 1 0
vn 0 1 0
vn 0 1 0
vn 0 1 0
vn 0 1 0
vn 0 1 0
vn 0 1 0
vn 0 1 0
vn 0 1 0
vn 0 1 0
vn 0 1 0
vn 0 1 0
vn 0 1 0
vn 0 1 0
vn 0 1 0
vn 0 1 0
vn 0 1 0
vn 0 1 0
vn 0 1 0
vn 0 1 0
vn 0 1 0
vn 0 1 0
g B3_shadowCircle_geo_0
f 4/4/4 1/1/1 2/2/2
f 3/3/3 1/1/1 4/4/4
f 8/8/8 5/5/5 6/6/6
f 7/7/7 5/5/5 8/8/8
f 14/14/14 12/12/12 11/11/11
f 13/13/13 12/12/12 14/14/14
f 9/9/9 13/13/13 14/14/14
f 10/10/10 13/13/13 9/9/9
f 18/18/18 19/19/19 20/20/20
f 16/16/16 19/19/19 18/18/18
f 15/15/15 16/16/16 18/18/18
f 24/24/24 22/22/22 15/15/15
f 21/21/21 22/22/22 24/24/24
f 23/23/23 21/21/21 24/24/24
f 27/27/27 26/26/26 25/25/25
f 28/28/28 26/26/26 27/27/27
f 32/32/32 29/29/29 30/30/30
f 31/31/31 29/29/29 32/32/32
f 36/36/36 33/33/33 34/34/34
f 35/35/35 33/33/33 36/36/36
f 40/40/40 37/37/37 39/39/39
f 38/38/38 37/37/37 40/40/40
f 44/44/44 41/41/41 42/42/42
f 43/43/43 41/41/41 44/44/44
f 48/48/48 45/45/45 46/46/46
f 47/47/47 45/45/45 48/48/48
f 52/52/52 49/49/49 50/50/50
f 51/51/51 49/49/49 52/52/52
f 56/56/56 53/53/53 54/54/54
f 55/55/55 53/53/53 56/56/56
f 60/60/60 57/57/57 58/58/58
f 59/59/59 57/57/57 60/60/60
f 63/63/63 66/66/66 65/65/65
f 64/64/64 66/66/66 63/63/63
f 61/61/61 64/64/64 63/63/63
f 62/62/62 64/64/64 61/61/61
f 70/70/70 67/67/67 68/68/68
f 69/69/69 67/67/67 70/70/70
f 76/76/76 74/74/74 71/71/71
f 73/73/73 74/74/74 76/76/76
f 75/75/75 73/73/73 76/76/76
f 72/72/72 76/76/76 71/71/71
f 82/82/82 80/80/80 77/77/77
f 79/79/79 80/80/80 82/82/82
f 81/81/81 79/79/79 82/82/82
f 78/78/78 82/82/82 77/77/77
f 88/88/88 86/86/86 83/83/83
f 85/85/85 86/86/86 88/88/88
f 87/87/87 85/85/85 88/88/88
f 92/92/92 89/89/89 90/90/90
f 91/91/91 89/89/89 92/92/92
f 83/83/83 91/91/91 92/92/92
f 98/98/98 96/96/96 93/93/93
f 95/95/95 96/96/96 98/98/98
f 97/97/97 95/95/95 98/98/98
f 94/94/94 98/98/98 93/93/93
f 104/104/104 102/102/102 99/99/99
f 105/105/105 102/102/102 104/104/104
f 106/106/106 105/105/105 104/104/104
f 107/107/107 105/105/105 106/106/106
f 108/108/108 107/107/107 106/106/106
f 101/101/101 107/107/107 108/108/108
f 103/103/103 101/101/101 108/108/108
f 100/100/100 104/104/104 99/99/99
f 105/105/105 109/109/109 110/110/110
f 107/107/107 109/109/109 105/105/105
f 114/114/114 121/121/121 122/122/122
f 119/119/119 121/121/121 114/114/114
f 116/116/116 119/119/119 114/114/114
f 113/113/113 119/119/119 116/116/116
f 115/115/115 113/113/113 116/116/116
f 117/117/117 116/116/116 114/114/114
f 118/118/118 116/116/116 117/117/117
f 111/111/111 118/118/118 117/117/117
f 112/112/112 118/118/118 111/111/111
f 120/120/120 117/117/117 114/114/114
f 128/128/128 126/126/126 123/123/123
f 125/125/125 126/126/126 128/128/128
f 127/127/127 125/125/125 128/128/128
f 124/124/124 129/129/129 130/130/130
f 123/123/123 129/129/129 124/124/124
f 128/128/128 123/123/123 124/124/124
f 136/136/136 134/134/134 131/131/131
f 133/133/133 134/134/134 136/136/136
f 135/135/135 133/133/133 136/136/136
f 132/132/132 136/136/136 131/131/131
f 142/142/142 137/137/137 138/138/138
f 140/140/140 137/137/137 142/142/142
f 139/139/139 140/140/140 142/142/142
f 139/139/139 144/144/144 143/143/143
f 141/141/141 144/144/144 139/139/139
f 142/142/142 141/141/141 139/139/139
f 148/148/148 145/145/145 146/146/146
f 147/147/147 145/145/145 148/148/148
f 154/154/154 152/152/152 149/149/149
f 151/151/151 152/152/152 154/154/154
f 153/153/153 151/151/151 154/154/154
f 150/150/150 154/154/154 149/149/149
f 160/160/160 158/158/158 155/155/155
f 157/157/157 158/158/158 160/160/160
f 159/159/159 157/157/157 160/160/160
f 156/156/156 160/160/160 155/155/155
f 166/166/166 164/164/164 161/161/161
f 163/163/163 164/164/164 166/166/166
f 165/165/165 163/163/163 166/166/166
f 162/162/162 166/166/166 161/161/161
f 172/172/172 170/170/170 167/167/167
f 169/169/169 170/170/170 172/172/172
f 171/171/171 169/169/169 172/172/172
f 168/168/168 172/172/172 167/167/167
f 178/178/178 176/176/176 173/173/173
f 175/175/175 176/176/176 178/178/178
f 177/177/177 175/175/175 178/178/178
f 174/174/174 178/178/178 173/173/173
f 184/184/184 182/182/182 179/179/179
f 181/181/181 182/182/182 184/184/184
f 183/183/183 181/181/181 184/184/184
f 180/180/180 184/184/184 179/179/179
f 188/188/188 185/185/185 186/186/186
f 187/187/187 185/185/185 188/188/188
f 192/192/192 189/189/189 190/190/190
f 191/191/191 189/189/189 192/192/192
f 196/196/196 193/193/193 194/194/194
f 195/195/195 193/193/193 196/196/196
f 200/200/200 197/197/197 198/198/198
f 199/199/199 197/197/197 200/200/200
f 204/204/204 201/201/201 202/202/202
f 203/203/203 201/201/201 204/204/204
f 208/208/208 205/205/205 206/206/206
f 207/207/207 205/205/205 208/208/208
f 209/209/209 212/212/212 211/211/211
f 210/210/210 212/212/212 209/209/209
f 213/213/213 216/216/216 215/215/215
f 214/214/214 216/216/216 213/213/213
f 217/217/217 220/220/220 219/219/219
f 218/218/218 220/220/220 217/217/217
f 223/223/223 222/222/222 225/225/225
f 221/221/221 222/222/222 223/223/223
f 224/224/224 221/221/221 223/223/223
f 226/226/226 223/223/223 225/225/225
f 230/230/230 227/227/227 228/228/228
f 229/229/229 227/227/227 230/230/230
f 234/234/234 231/231/231 232/232/232
f 233/233/233 231/231/231 234/234/234
f 238/238/238 235/235/235 236/236/236
f 237/237/237 235/235/235 238/238/238
f 242/242/242 239/239/239 240/240/240
f 241/241/241 239/239/239 242/242/242
f 17/17/17 15/15/15 18/18/18
f 24/24/24 15/15/15 17/17/17
f 84/84/84 83/83/83 92/92/92
f 88/88/88 83/83/83 84/84/84
