g B3_shadowTree_geo
v 133.2091 0.04489528 -56.85781
v 132.2514 0.04489528 -62.48004
v 127.6288 0.04489528 -55.90731
v 126.671 0.04489528 -61.52953
v 174.186 0.05048248 -6.701476
v 172.995 0.05048248 -11.83068
v 169.0567 0.05048248 -5.51044
v 167.8658 0.05048248 -11.66782
v 76.40694 0.05340097 -41.17404
v 70.96599 0.05340097 -39.83943
v 77.74155 0.05340097 -35.7331
v 72.30061 0.05340097 -34.39849
v 153.7298 0.05231613 37.62996
v 153.7298 0.05231613 43.3069
v 158.2777 0.05231613 37.62996
v 158.2777 0.05231613 43.3069
v 98.75851 0.5994236 -16.15446
v 93.45834 0.8355639 -16.24122
v 98.67648 0.7073305 -10.85015
v 93.3763 0.9434702 -10.93685
v 122.8214 0.06593139 17.75074
v 122.8214 0.06593139 11.72965
v 117.5607 0.06593139 17.75074
v 117.5607 0.06593139 11.72965
v 118.747 0.06593139 35.55479
v 118.747 0.06593139 41.23176
v 124.6488 0.06593139 35.55479
v 124.6488 0.06593139 41.23176
v 88.10233 0.1025263 -29.18024
v 88.10233 0.1025263 -23.50324
v 94.00408 0.1025263 -29.18024
v 94.00408 0.1025263 -23.50324
v 129.0607 0.06593124 31.35157
v 127.2953 0.06593124 36.66839
v 134.3775 0.06593124 33.11696
v 132.6121 0.06593124 38.43377
v 82.84402 0.046847 41.24615
v 84.17432 0.010858 44.67971
v 86.74953 0.08044197 40.08102
v 88.08343 0.00103035 43.51419
v 99.96716 0.3344711 -33.90299
v 98.7762 0.02363689 -39.03221
v 94.83796 0.02363689 -32.71205
v 93.64698 0.02363689 -38.86943
v 81.37126 0.01799098 -34.07891
v 79.59598 0.01799098 -29.67394
v 86.7178 0.01799098 -32.61629
v 84.94253 0.01799098 -28.21133
v 92.58389 1.034929 5.965769
v 92.58703 0.7963947 12.76028
v 97.94226 0.1068844 5.930738
v 97.95206 0.02038544 12.73552
v 160.015 0.0581715 -24.69281
v 160.015 0.0581715 -28.44533
v 153.4892 0.0581715 -24.69281
v 153.4892 0.0581715 -28.44533
v 160.6534 0.0581715 -3.738047
v 160.6534 0.0581715 0.01447266
v 167.1793 0.0581715 -3.738047
v 167.1793 0.0581715 0.01447266
v 162.0484 0.0581715 -49.06929
v 158.2959 0.0581715 -49.06929
v 162.0484 0.0581715 -43.64953
v 158.2959 0.0581715 -43.64953
v 155.0308 0.0581715 -57.83322
v 158.7834 0.0581715 -57.83322
v 155.0308 0.0581715 -63.25301
v 158.7834 0.0581715 -63.25301
v 156.9853 0.06593141 -7.694199
v 161.434 0.06593141 -7.694199
v 156.9853 0.06593141 -15.0907
v 161.434 0.06593141 -15.0907
v 155.482 0.0659314 -15.77971
v 159.9308 0.0659314 -15.77971
v 155.482 0.0659314 -23.17621
v 159.9308 0.0659314 -23.17621
v 163.7635 0.0659314 -13.46761
v 163.7635 0.0659314 -18.15022
v 158.3518 0.0659314 -13.46761
v 158.3518 0.0659314 -18.15022
v 164.5677 0.06316447 -4.128516
v 164.5677 0.06316447 -8.872656
v 159.085 0.06316447 -4.128516
v 159.085 0.06316447 -8.872656
v 182.0008 0.0659314 -17.8181
v 186.4495 0.0659314 -17.81812
v 182.0008 0.0659314 -25.21461
v 186.4495 0.0659314 -25.21461
v 181.547 0.0659314 -53.78385
v 185.9957 0.0659314 -53.78385
v 181.547 0.0659314 -61.18037
v 185.9957 0.0659314 -61.18037
v 145.2423 0.06593139 20.62845
v 149.095 0.06593139 22.85281
v 148.9406 0.06593139 14.22287
v 152.7933 0.06593139 16.44724
v 147.842 0.06593139 26.89078
v 152.2907 0.06593139 26.89077
v 147.842 0.06593139 19.49429
v 152.2907 0.06593139 19.49429
v 155.4245 0.06316447 30.45642
v 155.4245 0.06316447 25.71233
v 149.9417 0.06316447 30.45642
v 149.9417 0.06316447 25.71233
v 135.6684 0.0659314 24.50691
v 135.6684 0.0659314 19.28674
v 130.2567 0.0659314 24.50691
v 130.2567 0.0659314 19.28674
v 84.83015 0.06316447 -37.68531
v 84.83015 0.06316447 -42.83562
v 78.87798 0.06316448 -37.68531
v 78.87798 0.06316448 -42.83562
v 154.1066 0.06316447 -45.79295
v 158.4432 0.06316447 -45.79295
v 154.1066 0.06316447 -51.74512
v 158.4432 0.06316447 -51.74512
v 67.92375 1.298414 2.981514
v 78.18344 1.298413 2.981514
v 67.92375 0.2134606 -5.916611
v 78.18344 0.2134594 -5.916611
v 67.6059 0.003901644 63.77962
v 76.30479 -0.03248119 63.77962
v 67.6059 0.5393316 56.17915
v 76.30479 0.5393314 56.17915
v 154.0006 0.05231614 32.27096
v 124.7465 0.05231614 32.30478
v 124.8279 0.05231614 30.33401
v 151.9106 0.05231614 32.33918
v 154.1862 0.05231614 60.90957
v 124.5749 0.05231613 62.64394
v 124.5749 0.05231613 60.86076
v 125.7634 0.05231613 62.66414
v 125.7634 0.05231613 60.86459
v 152.7462 0.05231614 62.86303
v 152.2567 0.05231614 30.3285
v 126.3925 0.05231614 32.25593
v 126.3925 0.05231614 30.33401
v 153.8575 0.05231614 30.62669
v 153.8657 0.05231614 62.48916
v 152.0604 0.05231614 60.6341
v 95.13277 0.05231614 -48.28328
v 97.10352 0.05231614 -48.20187
v 95.10031 0.05231613 -38.62801
v 97.06468 0.05231614 -37.43949
v 95.09648 0.05231613 -37.43951
v 97.08488 0.05231611 -38.62801
v 95.18159 0.05231613 -46.63725
v 97.10352 0.05231613 -46.63725
v 76.87383 0.05231614 -39.36642
v 78.84457 0.05231614 -39.285
v 76.84135 0.05231614 -20.47945
v 78.80574 0.05231614 -19.29094
v 76.83751 0.05231613 -19.29094
v 78.82591 0.05231611 -20.47947
v 76.92265 0.05231614 -37.72039
v 78.84457 0.05231614 -37.72039
v 148.1118 0.06593141 23.72134
v 148.1118 0.06593141 17.70023
v 142.8511 0.06593141 23.72134
v 142.8511 0.06593141 17.70023
v 159.265 0.04489528 -54.95207
v 158.3072 0.04489528 -60.57433
v 153.6846 0.04489528 -54.00156
v 152.7269 0.04489528 -59.62375
v 205.9367 0.04489528 -46.63465
v 204.979 0.04489528 -52.25691
v 200.3565 0.04489528 -45.68414
v 199.3987 0.04489528 -51.30633
v 231.7725 0.04489528 -44.50806
v 230.8148 0.04489528 -50.13033
v 226.1922 0.04489528 -43.55756
v 225.2345 0.04489528 -49.17974
v 181.8667 0.04489528 0.113953
v 180.951 0.04489528 -5.261565
v 176.5313 0.04489528 1.022745
v 175.6156 0.04489528 -4.352698
v 153.0366 0.05231613 55.71309
v 153.0366 0.05231613 61.39003
v 157.5845 0.05231613 55.71309
v 157.5845 0.05231613 61.39003
v 96.34731 0.02363689 -33.0625
v 76.30479 0.1042104 60.79054
v 67.6059 0.09139846 60.29177
v 71.01309 0.06363934 63.87452
v 69.51192 0.06363913 60.57032
v 67.6059 0.52075 56.42614
v 74.87331 0.5393314 56.17915
v 67.6059 0.05365387 61.81615
v 76.30479 0.0786591 62.0961
v 125.7634 0.05231613 62.66414
v 125.7634 0.05231613 60.86459
v 152.0604 0.05231614 60.6341
v 126.3925 0.05231614 30.33401
v 126.3925 0.05231614 32.25593
v 152.7462 0.05231614 62.86303
v 95.10031 0.05231613 -38.62801
v 97.10352 0.05231613 -46.63725
v 97.08488 0.05231611 -38.62801
v 95.18159 0.05231613 -46.63725
v 76.84135 0.05231614 -20.47945
v 78.84457 0.05231614 -37.72039
v 78.82591 0.05231611 -20.47947
v 76.92265 0.05231614 -37.72039
v 69.51192 0.06363913 60.57032
v 76.30479 0.1042104 60.79054
v 67.6059 0.09139846 60.29177
v 71.01309 0.06363934 63.87452
v 76.30479 0.0786591 62.0961
vt 0 3.814697E-06
vt 1 3.814697E-06
vt 0 0.9999962
vt 1 0.9999962
vt 0 3.814697E-06
vt 1 3.814697E-06
vt 0 0.9999962
vt 1 0.9999962
vt 0 3.814697E-06
vt 1 3.814697E-06
vt 0 0.9999962
vt 1 0.9999962
vt 0 3.814697E-06
vt 1 3.814697E-06
vt 0 0.9999962
vt 1 0.9999962
vt 0 3.814697E-06
vt 1 3.814697E-06
vt 0 0.9999962
vt 1 0.9999962
vt 0 3.814697E-06
vt 1 3.814697E-06
vt 0 0.9999962
vt 1 0.9999962
vt 0 3.814697E-06
vt 1 3.814697E-06
vt 0 0.9999962
vt 1 0.9999962
vt 0 3.814697E-06
vt 1 3.814697E-06
vt 0 0.9999962
vt 1 0.9999962
vt 0 3.814697E-06
vt 1 3.814697E-06
vt 0 0.9999962
vt 1 0.9999962
vt 0 3.814697E-06
vt 1 3.814697E-06
vt 0 0.9999962
vt 1 0.9999962
vt 0 3.814697E-06
vt 1 3.814697E-06
vt 0 0.9999962
vt 1 0.9999962
vt 0 3.814697E-06
vt 1 3.814697E-06
vt 0 0.9999962
vt 1 0.9999962
vt 0 3.814697E-06
vt 1 3.814697E-06
vt 0 0.9999962
vt 1 0.9999962
vt 0 3.814697E-06
vt 1 3.814697E-06
vt 0 0.9999962
vt 1 0.9999962
vt 0 3.814697E-06
vt 1 3.814697E-06
vt 0 0.9999962
vt 1 0.9999962
vt 0 3.814697E-06
vt 1 3.814697E-06
vt 0 0.9999962
vt 1 0.9999962
vt 0 3.814697E-06
vt 1 3.814697E-06
vt 0 0.9999962
vt 1 0.9999962
vt 0 3.814697E-06
vt 1 3.814697E-06
vt 0 0.9999962
vt 1 0.9999962
vt 0 3.814697E-06
vt 1 3.814697E-06
vt 0 0.9999962
vt 1 0.9999962
vt 0 3.814697E-06
vt 1 3.814697E-06
vt 0 0.9999962
vt 1 0.9999962
vt 0 3.814697E-06
vt 1 3.814697E-06
vt 0 0.9999962
vt 1 0.9999962
vt 0 3.814697E-06
vt 1 3.814697E-06
vt 0 0.9999962
vt 1 0.9999962
vt 0 3.814697E-06
vt 1 3.814697E-06
vt 0 0.9999962
vt 1 0.9999962
vt 0 3.814697E-06
vt 1 3.814697E-06
vt 0 0.9999962
vt 1 0.9999962
vt 0 3.814697E-06
vt 1 3.814697E-06
vt 0 0.9999962
vt 1 0.9999962
vt 0 3.814697E-06
vt 1 3.814697E-06
vt 0 0.9999962
vt 1 0.9999962
vt 0 3.814697E-06
vt 1 3.814697E-06
vt 0 0.9999962
vt 1 0.9999962
vt 0 3.814697E-06
vt 1 3.814697E-06
vt 0 0.9999962
vt 1 0.9999962
vt 0 3.814697E-06
vt 1 3.814697E-06
vt 0 0.9999962
vt 1 0.9999962
vt 0 3.814697E-06
vt 1 3.814697E-06
vt 0 0.9999962
vt 1 0.9999962
vt 0 3.814697E-06
vt 1 3.814697E-06
vt 0 0.9999962
vt 1 0.9999962
vt 0.5 0.5
vt 0.2474039 0.05778908
vt 0.04892898 0.291035
vt 0.5 0.5
vt 0.5 0.5
vt 0.04892898 0.291035
vt 0.2474039 0.05778908
vt 0.1673828 0.3876628
vt 0.3658597 0.1544134
vt 0.5 0.45
vt 0.5 0.5
vt 0.3658597 0.1544134
vt 0.1673828 0.3876628
vt 0.5 0.5
vt 0.5 0.5
vt 0.5 0.45
vt 0.2474039 0.05778908
vt 0.04892898 0.291035
vt 0.3658597 0.1544134
vt 0.04892898 0.291035
vt 0.2474039 0.05778908
vt 0.1673828 0.3876628
vt 0.3658597 0.1544134
vt 0.1673828 0.3876628
vt 0.2474039 0.05778908
vt 0.04892898 0.291035
vt 0.3658597 0.1544134
vt 0.04892898 0.291035
vt 0.2474039 0.05778908
vt 0.1673828 0.3876628
vt 0.3658597 0.1544134
vt 0.1673828 0.3876628
vt 0 3.814697E-06
vt 1 3.814697E-06
vt 0 0.9999962
vt 1 0.9999962
vt 0 3.814697E-06
vt 1 3.814697E-06
vt 0 0.9999962
vt 1 0.9999962
vt 0 3.814697E-06
vt 1 3.814697E-06
vt 0 0.9999962
vt 1 0.9999962
vt 0 3.814697E-06
vt 1 3.814697E-06
vt 0 0.9999962
vt 1 0.9999962
vt 0 3.814697E-06
vt 1 3.814697E-06
vt 0 0.9999962
vt 1 0.9999962
vt 0 3.814697E-06
vt 1 3.814697E-06
vt 0 0.9999962
vt 1 0.9999962
vt 0 0.7057332
vt 1 0.3932761
vt 0 0.4589002
vt 0.3650826 3.814697E-06
vt 0.2020171 0.4409141
vt 0 0.9675006
vt 0.8354401 0.9999962
vt 0 0.2583373
vt 1 0.2215037
vt 0.5 0.45
vt 0.5 0.45
vt 0.5 0.5
vt 0.5 0.5
vt 0.5 0.5
vt 0.5 0.5
vt 0.5 0.5
vt 0.5 0.5
vt 0.5 0.5
vt 0.5 0.5
vt 0.5 0.5
vt 0.5 0.5
vt 0.5 0.5
vt 0.5 0.5
vt 0.2020171 0.4409141
vt 1 0.3932761
vt 0 0.4589002
vt 0.3650826 3.814697E-06
vt 1 0.2215037
vn 0 1 0
vn 0 1 0
vn 0 1 0
vn 0 1 0
vn 0 1 0
vn 0 1 0
vn 0 1 0
vn 0 1 0
vn 0 1 0
vn 0 1 0
vn 0 1 0
vn 0 1 0
vn 0 1 0
vn 0 1 0
vn 0 1 0
vn 0 1 0
vn 0.04482098 0.9988023 -0.01962553
vn 0.04482098 0.9988023 -0.01962553
vn 0.04482098 0.9988023 -0.01962553
vn 0.04482098 0.9988023 -0.01962553
vn 0 1 0
vn 0 1 0
vn 0 1 0
vn 0 1 0
vn 0 1 0
vn 0 1 0
vn 0 1 0
vn 0 1 0
vn 0 1 0
vn 0 1 0
vn 0 1 0
vn 0 1 0
vn 0 1 0
vn 0 1 0
vn 0 1 0
vn 0 1 0
vn 0.001766164 0.9998685 0.01611831
vn 0.001766164 0.9998685 0.01611831
vn 0.001766164 0.9998685 0.01611831
vn 0.001766164 0.9998685 0.01611831
vn -0.09433476 0.9948004 -0.03838199
vn -0.0472288 0.9986992 -0.01921599
vn 0 1 0
vn 0 1 0
vn 0 1 0
vn 0 1 0
vn 0 1 0
vn 0 1 0
vn 0.1570249 0.9873163 0.02344829
vn 0.1570249 0.9873163 0.02344829
vn 0.1570249 0.9873163 0.02344829
vn 0.1570249 0.9873163 0.02344829
vn 0 1 0
vn 0 1 0
vn 0 1 0
vn 0 1 0
vn 0 1 0
vn 0 1 0
vn 0 1 0
vn 0 1 0
vn 0 1 0
vn 0 1 0
vn 0 1 0
vn 0 1 0
vn 0 1 0
vn 0 1 0
vn 0 1 0
vn 0 1 0
vn 0 1 0
vn 0 1 0
vn 0 1 0
vn 0 1 0
vn 0 1 0
vn 0 1 0
vn 0 1 0
vn 0 1 0
vn 0 1 0
vn 0 1 0
vn 0 1 0
vn 0 1 0
vn 0 1 0
vn 0 1 0
vn 0 1 0
vn 0 1 0
vn 0 1 0
vn 0 1 0
vn 0 1 0
vn 0 1 0
vn 0 1 0
vn 0 1 0
vn 0 1 0
vn 0 1 0
vn 0 1 0
vn 0 1 0
vn 0 1 0
vn 0 1 0
vn 0 1 0
vn 0 1 0
vn 0 1 0
vn 0 1 0
vn 0 1 0
vn 0 1 0
vn 0 1 0
vn 0 1 0
vn 0 1 0
vn 0 1 0
vn 0 1 0
vn 0 1 0
vn 0 1 0
vn 0 1 0
vn 0 1 0
vn 0 1 0
vn 0 1 0
vn 0 1 0
vn 0 1 0
vn 0 1 0
vn 1.114941E-07 0.9926483 -0.1210341
vn 1.114941E-07 0.9926483 -0.1210341
vn 1.114941E-07 0.9926483 -0.1210341
vn 1.114941E-07 0.9926483 -0.1210341
vn -0.01822973 0.999513 0.02532667
vn 0.01930284 0.997642 0.06586112
vn 0.001102156 0.994234 0.1072261
vn -0.007487029 0.9953299 0.09624128
vn 0 1 0
vn 0 1 0
vn 0 1 0
vn 0 1 0
vn 0 1 0
vn 0 1 0
vn 0 1 0
vn 0 1 0
vn 0 1 0
vn 0 1 0
vn 0 1 0
vn 0 1 0
vn 0 1 0
vn 0 1 0
vn 0 1 0
vn 0 1 0
vn 0 1 0
vn 0 1 0
vn 0 1 0
vn 0 1 0
vn 0 1 0
vn 0 1 0
vn 0 1 0
vn 0 1 0
vn 0 1 0
vn 0 1 0
vn 0 1 0
vn 0 1 0
vn 0 1 0
vn 0 1 0
vn 0 1 0
vn 0 1 0
vn 0 1 0
vn 0 1 0
vn 0 1 0
vn 0 1 0
vn 0 1 0
vn 0 1 0
vn 0 1 0
vn 0 1 0
vn 0 1 0
vn 0 1 0
vn 0 1 0
vn 0 1 0
vn 0 1 0
vn 0 1 0
vn 0 1 0
vn 0 1 0
vn 0 1 0
vn 0 1 0
vn 0 1 0
vn 0 1 0
vn 0 1 0
vn 0 1 0
vn 0 1 0
vn 0 1 0
vn -0.0472288 0.9986992 -0.01921599
vn -0.003728793 0.9999702 0.006756958
vn -0.001657923 0.993887 0.1103903
vn -0.01822973 0.999513 0.02532667
vn -0.001657923 0.993887 0.1103903
vn -0.001657923 0.993887 0.1103903
vn -0.007487029 0.9953299 0.09624128
vn -0.01822973 0.999513 0.02532667
vn -0.003728793 0.9999702 0.006756958
vn 0 1 0
vn 0 1 0
vn 0 1 0
vn 0 1 0
vn 0 1 0
vn 0 1 0
vn 0 1 0
vn 0 1 0
vn 0 1 0
vn 0 1 0
vn 0 1 0
vn 0 1 0
vn 0 1 0
vn 0 1 0
vn -0.003728793 0.9999702 0.006756958
vn -0.007487029 0.9953299 0.09624128
vn 0.01094151 0.9996338 0.02475145
vn 0.01930284 0.997642 0.06586112
vn 0.01930284 0.997642 0.06586112
g B3_shadowTree_geo_0
f 208/208/208 207/207/207 122/122/122
f 4/4/4 1/1/1 2/2/2
f 3/3/3 1/1/1 4/4/4
f 8/8/8 5/5/5 6/6/6
f 7/7/7 5/5/5 8/8/8
f 12/12/12 9/9/9 10/10/10
f 11/11/11 9/9/9 12/12/12
f 16/16/16 13/13/13 14/14/14
f 15/15/15 13/13/13 16/16/16
f 20/20/20 17/17/17 18/18/18
f 19/19/19 17/17/17 20/20/20
f 24/24/24 21/21/21 22/22/22
f 23/23/23 21/21/21 24/24/24
f 28/28/28 25/25/25 26/26/26
f 27/27/27 25/25/25 28/28/28
f 32/32/32 29/29/29 30/30/30
f 31/31/31 29/29/29 32/32/32
f 36/36/36 33/33/33 34/34/34
f 35/35/35 33/33/33 36/36/36
f 40/40/40 37/37/37 38/38/38
f 39/39/39 37/37/37 40/40/40
f 181/181/181 44/44/44 43/43/43
f 42/42/42 44/44/44 181/181/181
f 41/41/41 42/42/42 181/181/181
f 48/48/48 45/45/45 46/46/46
f 47/47/47 45/45/45 48/48/48
f 52/52/52 49/49/49 50/50/50
f 51/51/51 49/49/49 52/52/52
f 56/56/56 53/53/53 54/54/54
f 55/55/55 53/53/53 56/56/56
f 60/60/60 57/57/57 58/58/58
f 59/59/59 57/57/57 60/60/60
f 64/64/64 61/61/61 62/62/62
f 63/63/63 61/61/61 64/64/64
f 68/68/68 65/65/65 66/66/66
f 67/67/67 65/65/65 68/68/68
f 72/72/72 69/69/69 70/70/70
f 71/71/71 69/69/69 72/72/72
f 76/76/76 73/73/73 74/74/74
f 75/75/75 73/73/73 76/76/76
f 80/80/80 77/77/77 78/78/78
f 79/79/79 77/77/77 80/80/80
f 84/84/84 81/81/81 82/82/82
f 83/83/83 81/81/81 84/84/84
f 88/88/88 85/85/85 86/86/86
f 87/87/87 85/85/85 88/88/88
f 92/92/92 89/89/89 90/90/90
f 91/91/91 89/89/89 92/92/92
f 96/96/96 93/93/93 94/94/94
f 95/95/95 93/93/93 96/96/96
f 100/100/100 97/97/97 98/98/98
f 99/99/99 97/97/97 100/100/100
f 104/104/104 101/101/101 102/102/102
f 103/103/103 101/101/101 104/104/104
f 108/108/108 105/105/105 106/106/106
f 107/107/107 105/105/105 108/108/108
f 112/112/112 109/109/109 110/110/110
f 111/111/111 109/109/109 112/112/112
f 116/116/116 113/113/113 114/114/114
f 115/115/115 113/113/113 116/116/116
f 120/120/120 117/117/117 118/118/118
f 119/119/119 117/117/117 120/120/120
f 184/184/184 188/188/188 121/121/121
f 204/204/204 188/188/188 184/184/184
f 182/182/182 204/204/204 184/184/184
f 131/131/131 132/132/132 133/133/133
f 130/130/130 132/132/132 131/131/131
f 190/190/190 140/140/140 191/191/191
f 134/134/134 140/140/140 190/190/190
f 127/127/127 136/136/136 137/137/137
f 126/126/126 136/136/136 127/127/127
f 128/128/128 193/193/193 194/194/194
f 135/135/135 193/193/193 128/128/128
f 138/138/138 135/135/135 128/128/128
f 128/128/128 125/125/125 138/138/138
f 129/129/129 125/125/125 128/128/128
f 192/192/192 129/129/129 128/128/128
f 139/139/139 129/129/129 192/192/192
f 195/195/195 139/139/139 192/192/192
f 145/145/145 146/146/146 143/143/143
f 144/144/144 146/146/146 145/145/145
f 142/142/142 147/147/147 148/148/148
f 141/141/141 147/147/147 142/142/142
f 197/197/197 196/196/196 198/198/198
f 199/199/199 196/196/196 197/197/197
f 153/153/153 154/154/154 151/151/151
f 152/152/152 154/154/154 153/153/153
f 150/150/150 155/155/155 156/156/156
f 149/149/149 155/155/155 150/150/150
f 201/201/201 200/200/200 202/202/202
f 203/203/203 200/200/200 201/201/201
f 160/160/160 157/157/157 158/158/158
f 159/159/159 157/157/157 160/160/160
f 164/164/164 161/161/161 162/162/162
f 163/163/163 161/161/161 164/164/164
f 168/168/168 165/165/165 166/166/166
f 167/167/167 165/165/165 168/168/168
f 172/172/172 169/169/169 170/170/170
f 171/171/171 169/169/169 172/172/172
f 176/176/176 173/173/173 174/174/174
f 175/175/175 173/173/173 176/176/176
f 180/180/180 177/177/177 178/178/178
f 179/179/179 177/177/177 180/180/180
f 187/187/187 205/205/205 124/124/124
f 185/185/185 205/205/205 187/187/187
f 186/186/186 185/185/185 187/187/187
f 183/183/183 185/185/185 186/186/186
f 182/182/182 184/184/184 189/189/189
f 123/123/123 186/186/186 187/187/187
f 206/206/206 188/188/188 204/204/204
