g B3_shadowPine_geo
v 74.27428 0.03705316 -13.85864
v 74.40649 0.03705316 -22.10833
v 66.02464 0.03705316 -13.99085
v 66.15685 0.03705316 -22.24056
v 88.69494 0.03947693 20.84928
v 89.35768 0.007255706 12.27331
v 80.09725 0.05842255 20.17741
v 80.7651 0.08203415 11.60027
v 72.83917 0.01827347 47.65235
v 72.93536 0.0268515 41.64351
v 66.83417 0.01840942 47.55603
v 66.93041 0.02698883 41.54721
v 75.9389 0.0438739 25.18803
v 76.14409 0.0438739 12.3818
v 63.13269 0.0438742 24.98278
v 63.33794 0.0438742 12.17653
v 97.46678 0.04745721 59.29789
v 97.56297 0.07546799 53.28912
v 91.46178 0.04790625 59.2016
v 91.55801 0.07591858 53.19284
v 183.2273 -0.007815962 51.76314
v 183.3595 -0.009891969 43.51186
v 174.9771 0.1217499 51.63091
v 175.1093 0.1196731 43.37963
v 183.2331 0.03432087 41.67955
v 183.3751 0.03209068 32.81547
v 174.3701 0.1735093 41.53749
v 174.5122 0.1712782 32.67341
v 167.0573 0.02539799 68.37671
v 167.1556 0.02385417 62.24063
v 160.922 0.1217499 68.27837
v 161.0203 0.1202055 62.14229
vt 0 2.000004
vt 1 2.000004
vt 0 2.999996
vt 1 2.999996
vt 0 2.000004
vt 1 2.000004
vt 0 2.999996
vt 1 2.999996
vt 0 2.000004
vt 1 2.000004
vt 0 2.999996
vt 1 2.999996
vt 0 2.000004
vt 1 2.000004
vt 0 2.999996
vt 1 2.999996
vt 0 2.000004
vt 1 2.000004
vt 0 2.999996
vt 1 2.999996
vt 0 2.000004
vt 1 2.000004
vt 0 2.999996
vt 1 2.999996
vt 0 2.000004
vt 1 2.000004
vt 0 2.999996
vt 1 2.999996
vt 0 2.000004
vt 1 2.000004
vt 0 2.999996
vt 1 2.999996
vn 0 1 0
vn 0 1 0
vn 0 1 0
vn 0 1 0
vn 0.005458222 0.9999851 -7.851663E-05
vn 0.005458222 0.9999851 -7.851663E-05
vn 0.005458222 0.9999851 -7.851663E-05
vn 0.005458222 0.9999851 -7.851663E-05
vn -1.421572E-07 0.999999 0.001427681
vn -1.421572E-07 0.999999 0.001427681
vn -1.421572E-07 0.999999 0.001427681
vn -1.421572E-07 0.999999 0.001427681
vn 0 1 0
vn 0 1 0
vn 0 1 0
vn 0 1 0
vn 1.569332E-07 0.9999892 0.004661731
vn 1.569332E-07 0.9999892 0.004661731
vn 1.569332E-07 0.9999892 0.004661731
vn 1.569332E-07 0.9999892 0.004661731
vn 0.01570264 0.9998767 0
vn 0.01570264 0.9998767 0
vn 0.01570264 0.9998767 0
vn 0.01570264 0.9998767 0
vn 0.01570258 0.9998767 0
vn 0.01570258 0.9998767 0
vn 0.01570258 0.9998767 0
vn 0.01570258 0.9998767 0
vn 0.01570252 0.9998767 0
vn 0.01570252 0.9998767 0
vn 0.01570252 0.9998767 0
vn 0.01570252 0.9998767 0
g B3_shadowPine_geo_0
f 4/4/4 1/1/1 2/2/2
f 3/3/3 1/1/1 4/4/4
f 8/8/8 5/5/5 6/6/6
f 7/7/7 5/5/5 8/8/8
f 12/12/12 9/9/9 10/10/10
f 11/11/11 9/9/9 12/12/12
f 16/16/16 13/13/13 14/14/14
f 15/15/15 13/13/13 16/16/16
f 20/20/20 17/17/17 18/18/18
f 19/19/19 17/17/17 20/20/20
f 24/24/24 21/21/21 22/22/22
f 23/23/23 21/21/21 24/24/24
f 28/28/28 25/25/25 26/26/26
f 27/27/27 25/25/25 28/28/28
f 32/32/32 29/29/29 30/30/30
f 31/31/31 29/29/29 32/32/32
