g B4_collisionGround_grass_geo
v 64.64156 -9.536743E-08 63.87452
v 64.64156 -9.536743E-08 63.87452
v 64.64156 -9.536743E-08 83.65515
v 64.64156 -9.536743E-08 71.83114
v 64.64156 -2.206868E-07 193.6877
v 64.64156 -3.273359E-07 173.4606
v 223.8176 1.6546E-07 49.437
v 200.905 -1.321999E-06 63.87452
v 196.3546 3.004258 63.87452
v 79.99995 -9.536742E-08 63.87452
v 71.01309 -9.536741E-08 63.87452
v 102.2927 -8.493431E-08 63.87452
v 144.2889 -2.466465E-07 63.87452
v 125.118 -2.466465E-07 63.87452
v 149.7827 -2.466465E-07 63.87452
v 118.8288 -2.466464E-07 63.87452
v 118.3333 -1.531431E-07 63.87452
v 176.1921 3.067277E-07 63.87452
v 187.829 8.633029 63.87452
v 159.0758 -2.466464E-07 63.87452
v 67.36955 -4.368276E-07 171.5627
v 74.63954 -7.286177E-07 162.8629
v 78.69301 -4.433404E-07 153.0408
v 80 -2.466465E-07 145
v 118.8288 -2.466465E-07 145
v 80.00001 -2.466463E-07 99.65515
v 118.8288 -2.466464E-07 99.65515
v 89.25828 2.071587E-13 97.13537
v 98.06455 -4.928264E-16 93.04789
v 106.1984 -3.702484E-14 87.38895
v 113.4684 -4.744021E-14 78.68913
v 117.5218 1.102519E-13 68.86703
v 151.9153 2.729122E-07 154.4002
v 156.6701 2.318949E-08 116.2978
v 173.3629 3.251158E-08 66.75454
v 158.0788 2.436994 157.5613
v 164.0839 2.306174 120.9591
v 179.7538 6.246518 72.05552
v 167.3272 -9.60016E-07 160.4267
v 173.5943 -4.193379E-07 123.9507
v 186.834 -1.191632E-06 78.87312
v 79.99998 -3.308334E-07 193.6877
v 118.8288 -2.466465E-07 193.6877
v 137.5662 -9.676709E-08 193.6877
v 144.6806 4.278667 193.6877
v 154.5546 -1.237259E-06 193.6877
v 79.99995 -9.536743E-08 83.65515
v 85.57635 -9.536743E-08 82.47758
v 90.69302 -1.089418E-07 79.98282
v 95.7169 -0.06346679 76.37682
v 99.57301 -1.293348E-07 71.27854
v 101.9677 -7.629394E-08 65.72307
v 149.7827 -2.741385E-08 113.1767
v 144.2889 -7.901336E-08 109.9942
v 200.4912 -1.570368E-06 165.861
v 216.2566 -4.193379E-07 128.7003
v 182.0159 6.888173 160.6463
v 191.27 6.897726 125.6841
v 198.2874 5.814601 82.02041
v 94.00388 2.047175 65.78446
v 93.65245 6.072757E-07 65.77249
v 94.45771 1.963527 64.38673
v 94.14223 -6.080653E-07 64.23785
v 94.13044 1.756521 67.08378
v 93.86451 1.787646E-06 67.26223
v 96.52129 1.191335 65.11429
v 95.06593 1.193927 63.61549
v 94.31771 1.220261 64.46764
v 93.86305 1.226822 65.77966
v 94.03904 1.152826 67.14511
v 95.90928 1.222853 67.6589
v 95.288 1.2219 68.26402
v 92.8731 -0.1623444 66.31599
v 93.31433 1.889817 66.25899
v 95.69334 4.097255E-07 69.00306
v 95.73094 2.052162 68.56149
v 93.0862 3.876444E-07 65.47438
v 93.47289 1.963391 65.52464
v 95.47019 4.048557E-07 62.67075
v 95.51567 1.963391 63.079
v 95.78697 1.963527 67.62158
v 96.07868 2.954125E-07 67.81293
v 96.48769 1.749966 64.96691
v 96.7746 3.987583E-07 64.85663
v 97.62466 -0.162345 65.93164
v 97.1798 1.889816 65.92668
v 94.89384 -3.323673E-07 63.09573
v 94.79514 2.052161 63.52777
v 97.29652 -3.065901E-07 66.73539
v 96.92059 1.96339 66.6318
v 94.54553 -3.118082E-07 69.17994
v 94.55731 1.96339 68.76933
v 81.67558 0.5877855 169.8419
v 81.56136 0.9510567 170.0954
v 99.75069 0.9510576 178.0231
v 99.68102 0.587786 177.8392
v 99.64816 -6.9E-07 177.7102
v 81.76116 -8E-08 169.6519
v 100.1647 0.5877852 179.1584
v 99.82265 1.9E-07 179.1863
v 100.1845 -3.9E-07 179.2303
v 81.42017 0.9510562 170.4088
v 81.30597 0.5877852 170.6623
v 100.0254 0.9510562 178.7906
v 81.28931 0.5328465 169.8204
v 81.23778 1.1E-07 170.8137
v 81.04062 0.541378 170.3903
v 81.05074 -2.9E-07 169.713
v 80.79534 -1E-08 170.2798
v 107.7207 0.5877849 162.3853
v 107.4671 0.9510561 162.271
v 106.8249 0.5877858 161.9817
v 106.7491 -6.099999E-07 161.9476
v 106.9517 0.9510574 162.0388
v 107.7422 0.5328466 161.999
v 107.9107 5.5E-07 162.4709
v 107.097 0.5413781 161.7164
v 107.8497 9E-08 161.7604
v 107.2828 1.8E-07 161.505
v 100.4522 -6E-08 178.9657
v 98.90783 0.5877857 99.64879
v 98.90782 0.951057 99.37074
v 89.20394 0.9510565 99.61395
v 89.34296 0.5877851 99.75297
v 89.42594 -1.3E-07 99.85719
v 98.90783 2.6E-07 99.85716
v 88.36012 0.5877854 98.74894
v 88.66052 2.2E-07 98.58297
v 88.3125 9.999999E-08 98.69151
v 98.90783 0.9510542 99.02701
v 98.90782 0.5877829 98.74894
v 88.6382 0.9510564 99.02703
v 99.26884 0.532847 99.50977
v 98.90783 -1.94E-06 98.58295
v 99.26148 0.5413752 98.88799
v 99.5305 2.5E-07 99.50977
v 99.5305 -2.41E-06 98.88797
v 88.36056 0.5877855 108.48
v 88.63862 0.9510565 108.48
v 89.34298 0.5877855 108.48
v 89.42618 -8.5E-08 108.48
v 89.20394 0.9510564 108.48
v 88.49958 0.5328463 108.8411
v 88.15218 7E-08 108.48
v 89.20393 0.5413778 108.8337
v 88.4996 -3.5E-07 109.1028
v 89.12137 -3E-07 109.1028
v 88.17718 1.4E-07 99.04267
v 117.0323 0.9510569 127.4702
v 117.0323 0.5877854 127.7483
v 117.3933 0.5292392 127.6277
v 117.0323 6E-08 127.9143
v 117.0323 1.3E-07 126.64
v 117.0322 0.5877859 126.7443
v 117.386 0.5292395 126.8649
v 117.0323 0.9510573 126.8833
v 117.655 -3.1E-07 127.5668
v 117.6549 -2.4E-07 126.9451
v 83.97623 0.5877855 126.8485
v 83.97623 0.9510569 127.1265
v 83.97623 -1E-08 126.64
v 83.97623 0.9510559 127.4702
v 83.97623 0.587785 127.7483
v 83.6152 0.5328468 126.9875
v 83.97623 7E-08 127.9143
v 83.62256 0.5413778 127.6092
v 83.35355 1.7E-07 126.9875
v 83.35355 -5E-08 127.6092
v 62.80379 0.9510568 197.4022
v 62.52571 0.5877855 197.4008
v 62.64448 0.5292392 197.7624
v 62.35973 -2.2E-07 197.3999
v 63.63394 -5.5E-07 197.4064
v 63.52973 0.5877855 197.4059
v 63.40732 0.5292388 197.759
v 63.39069 0.9510567 197.4052
v 62.70396 -2.8E-07 198.0244
v 63.32573 -6.7E-07 198.0276
v 63.51394 0.5877874 180.1163
v 63.2359 0.951058 180.1149
v 63.72234 1.12E-06 180.1174
v 62.8922 0.9510567 180.1131
v 62.61412 0.5877854 180.1117
v 63.37678 0.5328481 179.7546
v 62.44814 -7.3E-07 180.1108
v 62.75499 0.5413777 179.7587
v 63.37811 -2.9E-07 179.4929
v 62.75635 -7.2E-07 179.4897
vt 0 1
vt 0 1
vt 0 1
vt 0 1
vt 0 1
vt 0 1
vt 0 1
vt 0 1
vt 0 1
vt 0 1
vt 0 1
vt 0 1
vt 0 1
vt 0 1
vt 0 1
vt 0 1
vt 0 1
vt 0 1
vt 0 1
vt 0 1
vt 0 1
vt 0 1
vt 0 1
vt 0 1
vt 0 1
vt 0 1
vt 0 1
vt 0 1
vt 0 1
vt 0 1
vt 0 1
vt 0 1
vt 0 1
vt 0 1
vt 0 1
vt 0 1
vt 0 1
vt 0 1
vt 0 1
vt 0 1
vt 0 1
vt 0 1
vt 0 1
vt 0 1
vt 0 1
vt 0 1
vt 0 1
vt 0 1
vt 0 1
vt 0 1
vt 0 1
vt 0 1
vt 0 1
vt 0 1
vt 0 1
vt 0 1
vt 0 1
vt 0 1
vt 0 1
vt 0 1
vt 0 1
vt 0 1
vt 0 1
vt 0 1
vt 0 1
vt 0 1
vt 0 1
vt 0 1
vt 0 1
vt 0 1
vt 0 1
vt 0 1
vt 0 1
vt 0 1
vt 0 1
vt 0 1
vt 0 1
vt 0 1
vt 0 1
vt 0 1
vt 0 1
vt 0 1
vt 0 1
vt 0 1
vt 0 1
vt 0 1
vt 0 1
vt 0 1
vt 0 1
vt 0 1
vt 0 1
vt 0 1
vt 0 1
vt 0 1
vt 0 1
vt 0 1
vt 0 1
vt 0 1
vt 0 1
vt 0 1
vt 0 1
vt 0 1
vt 0 1
vt 0 1
vt 0 1
vt 0 1
vt 0 1
vt 0 1
vt 0 1
vt 0 1
vt 0 1
vt 0 1
vt 0 1
vt 0 1
vt 0 1
vt 0 1
vt 0 1
vt 0 1
vt 0 1
vt 0 1
vt 0 1
vt 0 1
vt 0 1
vt 0 1
vt 0 1
vt 0 1
vt 0 1
vt 0 1
vt 0 1
vt 0 1
vt 0 1
vt 0 1
vt 0 1
vt 0 1
vt 0 1
vt 0 1
vt 0 1
vt 0 1
vt 0 1
vt 0 1
vt 0 1
vt 0 1
vt 0 1
vt 0 1
vt 0 1
vt 0 1
vt 0 1
vt 0 1
vt 0 1
vt 0 1
vt 0 1
vt 0 1
vt 0 1
vt 0 1
vt 0 1
vt 0 1
vt 0 1
vt 0 1
vt 0 1
vt 0 1
vt 0 1
vt 0 1
vt 0 1
vt 0 1
vt 0 1
vt 0 1
vt 0 1
vt 0 1
vt 0 1
vt 0 1
vt 0 1
vt 0 1
vt 0 1
vt 0 1
vt 0 1
vt 0 1
vt 0 1
vt 0 1
vt 0 1
vt 0 1
vt 0 1
vt 0 1
vt 0 1
vt 0 1
vt 0 1
vt 0 1
vt 0 1
vt 0 1
vn 0 1 0
vn 0 1 0
vn 0 1 0
vn 0 1 0
vn 0 1 0
vn 0 1 0
vn 0.1124073 0.992867 0.03974492
vn 0.22008 0.9478321 0.2306057
vn 0.4288605 0.8315945 0.352887
vn 0 1 0
vn -0.02395062 0.9989125 -0.04000376
vn 0 1 0
vn 0 1 0
vn 0 1 0
vn 0 1 0
vn 0 1 0
vn 0 1 0
vn -0.3487382 0.8987293 -0.2658333
vn 0 1 0
vn 0 1 0
vn 0 1 0
vn 1.031578E-07 1 0
vn -0.2596316 0.9641974 -0.05398887
vn -0.3151218 0.9425399 -0.1109807
vn 0 1 0
vn -0.07401762 0.9971884 -0.01168864
vn -0.08514273 0.9960336 0.02584198
vn -0.04540604 0.9988176 -0.01736805
vn -0.4240012 0.8799682 -0.2141936
vn -0.05352269 0.9984682 0.01401305
vn 0.04204391 0.992348 0.1160943
vn -0.2997225 0.9504207 -0.08286646
vn -0.264067 0.9613791 -0.07758149
vn 0 1 0
vn -0.002367496 0.9999874 0.00443342
vn 0.004509492 0.9999866 -0.002517177
vn 0.00214207 0.9999959 0.001916308
vn 0 1 0
vn 0.07753287 0.9967496 -0.02188235
vn -0.01315673 0.9806923 -0.1951136
vn 0.5578164 0.7046735 0.438493
vn 0 1 0
vn -0.3168353 0.9454632 -0.07559662
vn -0.1775945 0.9781351 -0.1082219
vn 0 1 0
vn -0.01477295 0.9837076 0.1791679
vn 0.6375745 0.7617673 0.1149316
vn 0 1 0
vn 0 1 0
vn -0.2338533 0.923755 -0.3032973
vn -0.2801347 0.9411943 -0.1888856
vn -0.1614976 0.936355 -0.3117014
vn 0 1 0
vn -0.04124177 0.9978217 -0.05148819
vn -0.0471833 0.9988557 0.007815799
vn -0.02516163 0.9932455 -0.11327
vn -0.02376123 0.9994316 -0.02391673
vn 0.2401935 0.9602618 0.142142
vn 0.2333352 0.9519914 0.1981589
vn -0.9814587 0.170559 -0.08745563
vn -0.9814587 0.170559 -0.08745563
vn -0.9369744 0.1680917 -0.3063073
vn -0.9369744 0.1680917 -0.3063073
vn -0.9769868 0.1645186 0.1357584
vn -0.9769868 0.1645186 0.1357584
vn -0.001473146 0.9999988 0.0005839192
vn -0.001473146 0.9999988 0.0005839192
vn -0.001473146 0.9999988 0.0005839192
vn -0.001473146 0.9999988 0.0005839192
vn -0.001473146 0.9999988 0.0005839192
vn -0.001473146 0.9999988 0.0005839192
vn -0.001473146 0.9999988 0.0005839192
vn -0.685605 0.1660804 0.7087758
vn -0.685605 0.1660804 0.7087758
vn -0.685605 0.1660804 0.7087758
vn -0.685605 0.1660804 0.7087758
vn -0.7549244 0.1574183 -0.6366385
vn -0.7549244 0.1574183 -0.6366385
vn -0.7549244 0.1574183 -0.6366385
vn -0.7549244 0.1574183 -0.6366385
vn 0.9600744 0.1546859 0.2330865
vn 0.9600744 0.1546859 0.2330865
vn 0.9600744 0.1546859 0.2330865
vn 0.9600744 0.1546859 0.2330865
vn 0.7104812 0.1652746 -0.6840327
vn 0.7104812 0.1652746 -0.6840327
vn 0.7104812 0.1652746 -0.6840327
vn 0.7104812 0.1652746 -0.6840327
vn 0.6589713 0.1574281 0.7355088
vn 0.6589713 0.1574281 0.7355088
vn 0.6589713 0.1574281 0.7355088
vn 0.6589713 0.1574281 0.7355088
vn 0.375033 0.381311 -0.8449569
vn 0.201578 0.8657159 -0.458151
vn 0.201578 0.8657159 -0.458151
vn 0.375033 0.381311 -0.8449569
vn 0.3946022 0.2571431 -0.8821375
vn 0.3946022 0.2571431 -0.8821375
vn -0.119923 0.116643 0.9859072
vn -0.119923 0.116643 0.9859072
vn -0.119923 0.116643 0.9859072
vn -0.181888 0.8966108 0.4037399
vn -0.3672688 0.4477828 0.8152326
vn -0.181888 0.8966108 0.4037399
vn -0.03438399 0.5646577 -0.8246086
vn -0.7139561 0.251139 0.6536022
vn -0.7139561 0.251139 0.6536022
vn -0.08325598 0.232677 -0.9689839
vn -0.8183628 0.4429139 -0.3662099
vn 0.8055102 0.4682041 0.3632331
vn 0.4037432 0.8966113 0.1818781
vn -0.8827425 0.2502299 -0.3976818
vn -0.9027941 0.139806 -0.406715
vn -0.5167759 0.8238578 -0.2328109
vn 0.8245952 0.5646812 -0.03432201
vn 0.951101 0.308745 0.009130999
vn -0.6808279 0.130102 -0.7207959
vn 0.9689909 0.232681 -0.083164
vn 0.3663262 0.4427592 -0.8183944
vn 0.698794 0.110082 0.706802
vn 0.01053999 0.3819947 0.9241045
vn 0.009013002 0.8660362 0.4999001
vn 0.009013002 0.8660362 0.4999001
vn 0.01053999 0.3819947 0.9241045
vn 0.005286001 0.257326 0.9663101
vn 0.005286001 0.257326 0.9663101
vn -0.2957049 0.116625 -0.9481336
vn -0.2957049 0.116625 -0.9481336
vn -0.2957049 0.116625 -0.9481336
vn 0 0.8966144 -0.4428122
vn 0 0.4477799 -0.8941438
vn 0 0.8966144 -0.4428122
vn 0.370001 0.56467 0.7377309
vn 0.3825532 0.2511061 -0.8891563
vn 0.3825532 0.2511061 -0.8891563
vn 0.473822 0.232687 0.8493229
vn 0.8965662 0.4429041 -0.002272001
vn -0.8836568 0.4681349 -0.000599
vn -0.4428122 0.8966144 2.000001E-05
vn 0.9681952 0.2501961 -1E-06
vn 0.9901801 0.139798 -2E-06
vn 0.5668228 0.8238397 0
vn -0.7377197 0.5646887 0.3699948
vn -0.8709109 0.308766 0.382332
vn 0.9168221 0.130093 0.3775091
vn -0.8493227 0.2326249 0.4738528
vn 0.002125001 0.4427831 0.8966262
vn -0.927447 0.110069 -0.357389
vn 0.3419012 0.5711752 0.7462323
vn 0.3419012 0.5711752 0.7462323
vn 0.3419012 0.5711752 0.7462323
vn 0.3433479 0.2552979 0.9038447
vn 0.3425731 0.1640001 -0.9250664
vn 0.3425731 0.1640001 -0.9250664
vn 0.3425731 0.1640001 -0.9250664
vn 0.353272 0.334316 -0.8737459
vn 0.4825088 0.139185 0.8647617
vn 0.8939781 0.4480851 -0.004773
vn -0.003066 0.380655 -0.924712
vn -0.002633 0.865401 -0.501073
vn -0.001523001 0.2569881 -0.9664134
vn 0 0.896611 0.442819
vn 9.999998E-07 0.4477779 0.8941448
vn -0.3700591 0.5646342 -0.7377293
vn -0.3825469 0.2510749 0.8891678
vn -0.3825469 0.2510749 0.8891678
vn -0.4738627 0.2327079 -0.8492945
vn -0.8965588 0.4429189 0.002263
vn -0.441851 0.5712129 0.691725
vn -0.441851 0.5712129 0.691725
vn -0.441851 0.5712129 0.691725
vn -0.5736353 0.2552341 0.7783304
vn 0.96311 0.164022 -0.213345
vn 0.96311 0.164022 -0.213345
vn 0.96311 0.164022 -0.213345
vn 0.9257339 0.33444 -0.176541
vn -0.4653269 0.139162 0.8741309
vn 0.4883839 0.4480929 0.7487949
vn 0.7739982 0.3806691 -0.5059821
vn 0.418383 0.8654079 -0.275726
vn 0.8106591 0.256989 -0.526107
vn -0.372167 0.896616 0.239941
vn -0.7515002 0.4477781 0.4845021
vn 0.4195517 0.5646756 -0.7107165
vn -0.9546129 0.2510559 0.160266
vn -0.9546129 0.2510559 0.160266
vn 0.4570369 0.232702 -0.8584679
vn -0.487702 0.442918 -0.75231
g B4_collisionGround_grass_geo_0
f 10/10/10 47/47/47 48/48/48
f 4/4/4 47/47/47 10/10/10
f 11/11/11 4/4/4 10/10/10
f 1/1/1 4/4/4 11/11/11
f 2/2/2 1/1/1 11/11/11
f 42/42/42 23/23/23 22/22/22
f 21/21/21 42/42/42 22/22/22
f 5/5/5 42/42/42 21/21/21
f 6/6/6 5/5/5 21/21/21
f 47/47/47 4/4/4 3/3/3
f 10/10/10 52/52/52 12/12/12
f 51/51/51 52/52/52 10/10/10
f 50/50/50 51/51/51 10/10/10
f 61/61/61 65/65/65 64/64/64
f 60/60/60 61/61/61 64/64/64
f 63/63/63 61/61/61 60/60/60
f 62/62/62 63/63/63 60/60/60
f 71/71/71 70/70/70 72/72/72
f 69/69/69 70/70/70 71/71/71
f 66/66/66 69/69/69 71/71/71
f 68/68/68 69/69/69 66/66/66
f 67/67/67 68/68/68 66/66/66
f 76/76/76 73/73/73 75/75/75
f 74/74/74 73/73/73 76/76/76
f 78/78/78 79/79/79 77/77/77
f 80/80/80 79/79/79 78/78/78
f 83/83/83 82/82/82 84/84/84
f 81/81/81 82/82/82 83/83/83
f 88/88/88 85/85/85 87/87/87
f 86/86/86 85/85/85 88/88/88
f 90/90/90 91/91/91 89/89/89
f 92/92/92 91/91/91 90/90/90
f 38/38/38 19/19/19 18/18/18
f 35/35/35 38/38/38 18/18/18
f 34/34/34 38/38/38 35/35/35
f 53/53/53 34/34/34 35/35/35
f 33/33/33 34/34/34 53/53/53
f 25/25/25 33/33/33 53/53/53
f 43/43/43 33/33/33 25/25/25
f 24/24/24 43/43/43 25/25/25
f 42/42/42 43/43/43 24/24/24
f 23/23/23 42/42/42 24/24/24
f 20/20/20 35/35/35 18/18/18
f 53/53/53 35/35/35 20/20/20
f 54/54/54 53/53/53 20/20/20
f 25/25/25 53/53/53 54/54/54
f 27/27/27 25/25/25 54/54/54
f 24/24/24 25/25/25 27/27/27
f 26/26/26 24/24/24 27/27/27
f 27/27/27 28/28/28 26/26/26
f 29/29/29 28/28/28 27/27/27
f 30/30/30 29/29/29 27/27/27
f 27/27/27 31/31/31 30/30/30
f 32/32/32 31/31/31 27/27/27
f 17/17/17 32/32/32 27/27/27
f 27/27/27 16/16/16 17/17/17
f 14/14/14 16/16/16 27/27/27
f 13/13/13 14/14/14 27/27/27
f 59/59/59 7/7/7 8/8/8
f 41/41/41 59/59/59 8/8/8
f 58/58/58 59/59/59 41/41/41
f 40/40/40 58/58/58 41/41/41
f 57/57/57 58/58/58 40/40/40
f 39/39/39 57/57/57 40/40/40
f 46/46/46 57/57/57 39/39/39
f 36/36/36 46/46/46 39/39/39
f 45/45/45 46/46/46 36/36/36
f 33/33/33 45/45/45 36/36/36
f 44/44/44 45/45/45 33/33/33
f 43/43/43 44/44/44 33/33/33
f 54/54/54 13/13/13 27/27/27
f 15/15/15 13/13/13 54/54/54
f 20/20/20 15/15/15 54/54/54
f 37/37/37 34/34/34 33/33/33
f 38/38/38 34/34/34 37/37/37
f 41/41/41 38/38/38 37/37/37
f 19/19/19 38/38/38 41/41/41
f 9/9/9 19/19/19 41/41/41
f 49/49/49 10/10/10 48/48/48
f 50/50/50 10/10/10 49/49/49
f 41/41/41 8/8/8 9/9/9
f 55/55/55 57/57/57 46/46/46
f 58/58/58 57/57/57 55/55/55
f 56/56/56 58/58/58 55/55/55
f 59/59/59 58/58/58 56/56/56
f 7/7/7 59/59/59 56/56/56
f 117/117/117 119/119/119 113/113/113
f 118/118/118 119/119/119 117/117/117
f 115/115/115 118/118/118 117/117/117
f 116/116/116 118/118/118 115/115/115
f 110/110/110 116/116/116 115/115/115
f 99/99/99 116/116/116 110/110/110
f 104/104/104 99/99/99 110/110/110
f 102/102/102 99/99/99 104/104/104
f 94/94/94 102/102/102 104/104/104
f 105/105/105 102/102/102 94/94/94
f 93/93/93 105/105/105 94/94/94
f 98/98/98 105/105/105 93/93/93
f 96/96/96 98/98/98 93/93/93
f 97/97/97 98/98/98 96/96/96
f 112/112/112 97/97/97 96/96/96
f 113/113/113 97/97/97 112/112/112
f 117/117/117 113/113/113 112/112/112
f 99/99/99 101/101/101 120/120/120
f 100/100/100 101/101/101 99/99/99
f 103/103/103 100/100/100 99/99/99
f 106/106/106 100/100/100 103/103/103
f 107/107/107 106/106/106 103/103/103
f 109/109/109 106/106/106 107/107/107
f 108/108/108 109/109/109 107/107/107
f 102/102/102 103/103/103 99/99/99
f 107/107/107 103/103/103 102/102/102
f 105/105/105 107/107/107 102/102/102
f 108/108/108 107/107/107 105/105/105
f 98/98/98 108/108/108 105/105/105
f 116/116/116 99/99/99 120/120/120
f 145/145/145 147/147/147 141/141/141
f 146/146/146 147/147/147 145/145/145
f 143/143/143 146/146/146 145/145/145
f 144/144/144 146/146/146 143/143/143
f 138/138/138 144/144/144 143/143/143
f 127/127/127 144/144/144 138/138/138
f 132/132/132 127/127/127 138/138/138
f 130/130/130 127/127/127 132/132/132
f 122/122/122 130/130/130 132/132/132
f 133/133/133 130/130/130 122/122/122
f 121/121/121 133/133/133 122/122/122
f 126/126/126 133/133/133 121/121/121
f 124/124/124 126/126/126 121/121/121
f 125/125/125 126/126/126 124/124/124
f 140/140/140 125/125/125 124/124/124
f 141/141/141 125/125/125 140/140/140
f 145/145/145 141/141/141 140/140/140
f 127/127/127 129/129/129 148/148/148
f 128/128/128 129/129/129 127/127/127
f 131/131/131 128/128/128 127/127/127
f 134/134/134 128/128/128 131/131/131
f 135/135/135 134/134/134 131/131/131
f 137/137/137 134/134/134 135/135/135
f 136/136/136 137/137/137 135/135/135
f 130/130/130 131/131/131 127/127/127
f 135/135/135 131/131/131 130/130/130
f 133/133/133 135/135/135 130/130/130
f 136/136/136 135/135/135 133/133/133
f 126/126/126 136/136/136 133/133/133
f 144/144/144 127/127/127 148/148/148
f 151/151/151 152/152/152 157/157/157
f 150/150/150 152/152/152 151/151/151
f 149/149/149 150/150/150 151/151/151
f 162/162/162 150/150/150 149/149/149
f 160/160/160 162/162/162 149/149/149
f 164/164/164 162/162/162 160/160/160
f 159/159/159 164/164/164 160/160/160
f 161/161/161 164/164/164 159/159/159
f 154/154/154 161/161/161 159/159/159
f 153/153/153 161/161/161 154/154/154
f 155/155/155 153/153/153 154/154/154
f 158/158/158 153/153/153 155/155/155
f 157/157/157 158/158/158 155/155/155
f 163/163/163 152/152/152 150/150/150
f 162/162/162 163/163/163 150/150/150
f 166/166/166 163/163/163 162/162/162
f 164/164/164 166/166/166 162/162/162
f 167/167/167 166/166/166 164/164/164
f 161/161/161 167/167/167 164/164/164
f 165/165/165 152/152/152 163/163/163
f 166/166/166 165/165/165 163/163/163
f 168/168/168 165/165/165 166/166/166
f 167/167/167 168/168/168 166/166/166
f 171/171/171 172/172/172 177/177/177
f 170/170/170 172/172/172 171/171/171
f 169/169/169 170/170/170 171/171/171
f 182/182/182 170/170/170 169/169/169
f 180/180/180 182/182/182 169/169/169
f 184/184/184 182/182/182 180/180/180
f 179/179/179 184/184/184 180/180/180
f 181/181/181 184/184/184 179/179/179
f 174/174/174 181/181/181 179/179/179
f 173/173/173 181/181/181 174/174/174
f 175/175/175 173/173/173 174/174/174
f 178/178/178 173/173/173 175/175/175
f 177/177/177 178/178/178 175/175/175
f 183/183/183 172/172/172 170/170/170
f 182/182/182 183/183/183 170/170/170
f 186/186/186 183/183/183 182/182/182
f 184/184/184 186/186/186 182/182/182
f 187/187/187 186/186/186 184/184/184
f 181/181/181 187/187/187 184/184/184
f 185/185/185 172/172/172 183/183/183
f 186/186/186 185/185/185 183/183/183
f 188/188/188 185/185/185 186/186/186
f 187/187/187 188/188/188 186/186/186
f 37/37/37 40/40/40 41/41/41
f 36/36/36 40/40/40 37/37/37
f 33/33/33 36/36/36 37/37/37
f 39/39/39 40/40/40 36/36/36
f 95/95/95 93/93/93 94/94/94
f 96/96/96 93/93/93 95/95/95
f 114/114/114 96/96/96 95/95/95
f 112/112/112 96/96/96 114/114/114
f 117/117/117 112/112/112 114/114/114
f 114/114/114 115/115/115 117/117/117
f 111/111/111 115/115/115 114/114/114
f 95/95/95 111/111/111 114/114/114
f 104/104/104 111/111/111 95/95/95
f 94/94/94 104/104/104 95/95/95
f 110/110/110 111/111/111 104/104/104
f 115/115/115 111/111/111 110/110/110
f 123/123/123 121/121/121 122/122/122
f 124/124/124 121/121/121 123/123/123
f 142/142/142 124/124/124 123/123/123
f 140/140/140 124/124/124 142/142/142
f 145/145/145 140/140/140 142/142/142
f 142/142/142 143/143/143 145/145/145
f 139/139/139 143/143/143 142/142/142
f 123/123/123 139/139/139 142/142/142
f 132/132/132 139/139/139 123/123/123
f 122/122/122 132/132/132 123/123/123
f 138/138/138 139/139/139 132/132/132
f 143/143/143 139/139/139 138/138/138
f 156/156/156 154/154/154 159/159/159
f 155/155/155 154/154/154 156/156/156
f 151/151/151 155/155/155 156/156/156
f 157/157/157 155/155/155 151/151/151
f 156/156/156 149/149/149 151/151/151
f 160/160/160 149/149/149 156/156/156
f 159/159/159 160/160/160 156/156/156
f 176/176/176 174/174/174 179/179/179
f 175/175/175 174/174/174 176/176/176
f 171/171/171 175/175/175 176/176/176
f 177/177/177 175/175/175 171/171/171
f 176/176/176 169/169/169 171/171/171
f 180/180/180 169/169/169 176/176/176
f 179/179/179 180/180/180 176/176/176
