g B4_detailGarbage_geo
v 68.41247 0.8081431 187.5798
v 68.53448 0.8081436 187.7019
v 68.70119 0.8081436 187.7465
v 68.86787 0.8081436 187.7018
v 68.9899 0.8081433 187.5798
v 69.03459 0.8081419 187.4131
v 68.98991 0.8081422 187.2464
v 68.86789 0.8081424 187.1244
v 68.7012 0.8081427 187.0797
v 68.53452 0.8081418 187.1244
v 68.41251 0.8081421 187.2464
v 68.3678 0.8081433 187.4131
v 68.99743 0.09904252 187.4131
v 68.95771 0.09904388 187.5612
v 68.84927 0.09904431 187.6697
v 68.70119 0.09904398 187.7094
v 68.55308 0.09904422 187.6697
v 68.44466 0.09904352 187.5612
v 68.40496 0.09904381 187.4131
v 68.44468 0.09904272 187.2651
v 68.55311 0.09904235 187.1566
v 68.7012 0.09904325 187.1169
v 68.8493 0.09904312 187.1566
v 68.95773 0.09904294 187.265
v 80.27045 0.6697571 147.8251
v 80.21294 0.6697571 147.7676
v 80.13438 0.6697571 147.7465
v 80.05581 0.6697572 147.7676
v 79.99828 0.6697571 147.8251
v 79.97722 0.6697571 147.9037
v 79.99828 0.6697571 147.9822
v 80.05581 0.6697571 148.0397
v 80.13438 0.6697571 148.0608
v 80.21294 0.6697571 148.0397
v 80.27045 0.6697571 147.9822
v 80.29153 0.6697571 147.9037
v 79.97744 0.1245199 147.9037
v 79.99846 0.1245199 147.8252
v 80.05592 0.1245199 147.7677
v 80.13438 0.1245199 147.7467
v 80.21285 0.1245199 147.7677
v 80.27029 0.1245199 147.8252
v 80.29131 0.1245199 147.9037
v 80.27029 0.1245199 147.9821
v 80.21285 0.1245199 148.0396
v 80.13438 0.1245199 148.0606
v 80.05592 0.1245199 148.0396
v 79.99846 0.1245199 147.9821
v 80.89602 0.8177382 139.5782
v 81.01952 0.8177383 139.7017
v 81.18826 0.8177382 139.7469
v 81.35696 0.8177385 139.7017
v 81.48048 0.8177384 139.5782
v 81.52571 0.817737 139.4095
v 81.4805 0.8177377 139.2407
v 81.35698 0.8177378 139.1172
v 81.18826 0.8177382 139.072
v 81.01955 0.817737 139.1172
v 80.89606 0.8177374 139.2408
v 80.85081 0.8177383 139.4095
v 81.48811 0.1000048 139.4095
v 81.4479 0.1000062 139.5593
v 81.33814 0.1000066 139.6691
v 81.18826 0.1000058 139.7093
v 81.03833 0.1000061 139.6691
v 80.92857 0.1000057 139.5594
v 80.88841 0.100006 139.4095
v 80.92862 0.1000051 139.2596
v 81.03837 0.1000047 139.1498
v 81.18826 0.1000057 139.1096
v 81.33817 0.1000055 139.1498
v 81.44792 0.1000052 139.2596
v 81.5645 0.8177382 140.2459
v 81.688 0.8177383 140.3694
v 81.85673 0.8177382 140.4146
v 82.02543 0.8177385 140.3694
v 82.14896 0.8177384 140.2459
v 82.19419 0.817737 140.0772
v 82.14897 0.8177376 139.9084
v 82.02546 0.8177378 139.7849
v 81.85674 0.8177382 139.7397
v 81.68803 0.817737 139.7849
v 81.56453 0.8177374 139.9085
v 81.51926 0.8177383 140.0772
v 82.15657 0.1000047 140.0772
v 82.11638 0.1000061 140.2271
v 82.00662 0.1000066 140.3368
v 81.85673 0.1000058 140.377
v 81.70682 0.100006 140.3368
v 81.59707 0.1000057 140.2271
v 81.55689 0.100006 140.0772
v 81.5971 0.100005 139.9273
v 81.70684 0.1000047 139.8175
v 81.85674 0.1000057 139.7773
v 82.00665 0.1000055 139.8175
v 82.11639 0.1000052 139.9272
v 68.41247 0.8081431 187.5798
v 68.44466 0.09904352 187.5612
v 80.27045 0.6697571 147.8251
v 80.27029 0.1245199 147.8252
v 80.89602 0.8177382 139.5782
v 80.92857 0.1000057 139.5594
v 81.5645 0.8177382 140.2459
v 81.59707 0.1000057 140.2271
vt 0.9762881 0.6838939
vt 0.9762881 0.6838939
vt 0.9762881 0.6838939
vt 0.9762881 0.6838939
vt 0.9762881 0.6838939
vt 0.9762881 0.6838939
vt 0.9762881 0.6838939
vt 0.9762881 0.6838939
vt 0.9762881 0.6838939
vt 0.9762881 0.6838939
vt 0.9762881 0.6838939
vt 0.9762881 0.6838939
vt 0.9762881 0.6838939
vt 0.9762881 0.6838939
vt 0.9762881 0.6838939
vt 0.9762881 0.6838939
vt 0.9762881 0.6838939
vt 0.9762881 0.6838939
vt 0.9762881 0.6838939
vt 0.9762881 0.6838939
vt 0.9762881 0.6838939
vt 0.9762881 0.6838939
vt 0.9762881 0.6838939
vt 0.9762881 0.6838939
vt 0.3310535 0.7786525
vt 0.3310535 0.7786525
vt 0.3310535 0.7786525
vt 0.3310535 0.7786525
vt 0.3310535 0.7786525
vt 0.3310535 0.7786525
vt 0.3310535 0.7786525
vt 0.3310535 0.7786525
vt 0.3310535 0.7786525
vt 0.3310535 0.7786525
vt 0.3310535 0.7786525
vt 0.3310535 0.7786525
vt 0.3310535 0.7786525
vt 0.3310535 0.7786525
vt 0.3310535 0.7786525
vt 0.3310535 0.7786525
vt 0.3310535 0.7786525
vt 0.3310535 0.7786525
vt 0.3310535 0.7786525
vt 0.3310535 0.7786525
vt 0.3310535 0.7786525
vt 0.3310535 0.7786525
vt 0.3310535 0.7786525
vt 0.3310535 0.7786525
vt 0.9762881 0.6838939
vt 0.9762881 0.6838939
vt 0.9762881 0.6838939
vt 0.9762881 0.6838939
vt 0.9762881 0.6838939
vt 0.9762881 0.6838939
vt 0.9762881 0.6838939
vt 0.9762881 0.6838939
vt 0.9762881 0.6838939
vt 0.9762881 0.6838939
vt 0.9762881 0.6838939
vt 0.9762881 0.6838939
vt 0.9762881 0.6838939
vt 0.9762881 0.6838939
vt 0.9762881 0.6838939
vt 0.9762881 0.6838939
vt 0.9762881 0.6838939
vt 0.9762881 0.6838939
vt 0.9762881 0.6838939
vt 0.9762881 0.6838939
vt 0.9762881 0.6838939
vt 0.9762881 0.6838939
vt 0.9762881 0.6838939
vt 0.9762881 0.6838939
vt 0.9762881 0.6838939
vt 0.9762881 0.6838939
vt 0.9762881 0.6838939
vt 0.9762881 0.6838939
vt 0.9762881 0.6838939
vt 0.9762881 0.6838939
vt 0.9762881 0.6838939
vt 0.9762881 0.6838939
vt 0.9762881 0.6838939
vt 0.9762881 0.6838939
vt 0.9762881 0.6838939
vt 0.9762881 0.6838939
vt 0.9762881 0.6838939
vt 0.9762881 0.6838939
vt 0.9762881 0.6838939
vt 0.9762881 0.6838939
vt 0.9762881 0.6838939
vt 0.9762881 0.6838939
vt 0.9762881 0.6838939
vt 0.9762881 0.6838939
vt 0.9762881 0.6838939
vt 0.9762881 0.6838939
vt 0.9762881 0.6838939
vt 0.9762881 0.6838939
vt 0.9762881 0.6838939
vt 0.9762881 0.6838939
vt 0.3310535 0.7786525
vt 0.3310535 0.7786525
vt 0.9762881 0.6838939
vt 0.9762881 0.6838939
vt 0.9762881 0.6838939
vt 0.9762881 0.6838939
vn -0.864844 -0.05234806 0.4993041
vn -0.4993233 -0.05234776 0.8648329
vn 0.0001915174 -0.05233904 0.9986293
vn 0.4994577 -0.05232589 0.8647566
vn 0.8647617 -0.05233905 0.4994478
vn 0.9986291 -0.05234356 8.587651E-05
vn 0.8648153 -0.0523373 -0.4993549
vn 0.4993231 -0.05235562 -0.8648326
vn -0.0001139989 -0.05237425 -0.9986275
vn -0.4993883 -0.05236769 -0.8647941
vn -0.8647526 -0.05235297 -0.4994618
vn -0.9986292 -0.05234307 -0.0001285125
vn 0.9986291 -0.05234356 8.587651E-05
vn 0.8647617 -0.05233905 0.4994478
vn 0.4994577 -0.05232589 0.8647566
vn 0.0001915174 -0.05233904 0.9986293
vn -0.4993233 -0.05234776 0.8648329
vn -0.864844 -0.05234806 0.4993041
vn -0.9986292 -0.05234307 -0.0001285125
vn -0.8647526 -0.05235297 -0.4994618
vn -0.4993883 -0.05236769 -0.8647941
vn -0.0001139989 -0.05237425 -0.9986275
vn 0.4993231 -0.05235562 -0.8648326
vn 0.8648153 -0.0523373 -0.4993549
vn 0.8660464 -0.0003620163 -0.4999635
vn 0.5001237 -0.0003519988 -0.8659539
vn 9.143179E-05 -0.0003480106 -1
vn -0.5000049 -0.0003631509 -0.8660226
vn -0.8660525 -0.0003817784 -0.4999528
vn -1 -0.0003948751 -9.126563E-05
vn -0.8659985 -0.0003806446 0.5000465
vn -0.4998913 -0.0003558163 0.8660882
vn 2.332502E-05 -0.0003512721 1
vn 0.4999942 -0.0003449717 0.8660287
vn 0.8660082 -0.000350399 0.5000298
vn 1 -0.0003634132 -7.303365E-05
vn -1 -0.0003948751 -9.126563E-05
vn -0.8660525 -0.0003817784 -0.4999528
vn -0.5000049 -0.0003631509 -0.8660226
vn 9.143179E-05 -0.0003480106 -1
vn 0.5001237 -0.0003519988 -0.8659539
vn 0.8660464 -0.0003620163 -0.4999635
vn 1 -0.0003634132 -7.303365E-05
vn 0.8660082 -0.000350399 0.5000298
vn 0.4999942 -0.0003449717 0.8660287
vn 2.332502E-05 -0.0003512721 1
vn -0.4998913 -0.0003558163 0.8660882
vn -0.8659985 -0.0003806446 0.5000465
vn -0.8648739 -0.0523123 0.499256
vn -0.4993483 -0.05231809 0.8648203
vn 0.0001560484 -0.05232549 0.99863
vn 0.4993954 -0.05234041 0.8647917
vn 0.8647689 -0.05234503 0.4994344
vn 0.9986296 -0.05233608 4.36093E-05
vn 0.8648376 -0.05233484 -0.4993165
vn 0.49929 -0.05233407 -0.864853
vn -0.0001603165 -0.05234188 -0.9986292
vn -0.4994074 -0.05235029 -0.8647842
vn -0.8647764 -0.05232808 -0.4994233
vn -0.9986306 -0.05231538 -0.0001619263
vn 0.9986296 -0.05233608 4.36093E-05
vn 0.8647689 -0.05234503 0.4994344
vn 0.4993954 -0.05234041 0.8647917
vn 0.0001560484 -0.05232549 0.99863
vn -0.4993483 -0.05231809 0.8648203
vn -0.8648739 -0.0523123 0.499256
vn -0.9986306 -0.05231538 -0.0001619263
vn -0.8647764 -0.05232808 -0.4994233
vn -0.4994074 -0.05235029 -0.8647842
vn -0.0001603165 -0.05234188 -0.9986292
vn 0.49929 -0.05233407 -0.864853
vn 0.8648376 -0.05233484 -0.4993165
vn -0.8648226 -0.05233438 0.4993427
vn -0.4993325 -0.052334 0.8648283
vn 9.570243E-05 -0.05232925 0.9986299
vn 0.4993843 -0.0523125 0.8647999
vn 0.8647798 -0.05233035 0.4994172
vn 0.9986291 -0.05234382 9.124324E-05
vn 0.8648168 -0.0523435 -0.4993516
vn 0.4993083 -0.05235111 -0.8648414
vn -9.741608E-05 -0.05236026 -0.9986283
vn -0.4994707 -0.0523599 -0.8647471
vn -0.8647738 -0.05235075 -0.4994254
vn -0.998629 -0.05234585 -0.0001336377
vn 0.9986291 -0.05234382 9.124324E-05
vn 0.8647798 -0.05233035 0.4994172
vn 0.4993843 -0.0523125 0.8647999
vn 9.570243E-05 -0.05232925 0.9986299
vn -0.4993325 -0.052334 0.8648283
vn -0.8648226 -0.05233438 0.4993427
vn -0.998629 -0.05234585 -0.0001336377
vn -0.8647738 -0.05235075 -0.4994254
vn -0.4994707 -0.0523599 -0.8647471
vn -9.741608E-05 -0.05236026 -0.9986283
vn 0.4993083 -0.05235111 -0.8648414
vn 0.8648168 -0.0523435 -0.4993516
vn -0.864844 -0.05234806 0.4993041
vn -0.864844 -0.05234806 0.4993041
vn 0.8660464 -0.0003620163 -0.4999635
vn 0.8660464 -0.0003620163 -0.4999635
vn -0.8648739 -0.0523123 0.499256
vn -0.8648739 -0.0523123 0.499256
vn -0.8648226 -0.05233438 0.4993427
vn -0.8648226 -0.05233438 0.4993427
g B4_detailGarbage_geo_0
f 19/19/19 98/98/98 97/97/97
f 12/12/12 19/19/19 97/97/97
f 20/20/20 19/19/19 12/12/12
f 11/11/11 20/20/20 12/12/12
f 21/21/21 20/20/20 11/11/11
f 10/10/10 21/21/21 11/11/11
f 22/22/22 21/21/21 10/10/10
f 9/9/9 22/22/22 10/10/10
f 23/23/23 22/22/22 9/9/9
f 8/8/8 23/23/23 9/9/9
f 24/24/24 23/23/23 8/8/8
f 7/7/7 24/24/24 8/8/8
f 13/13/13 24/24/24 7/7/7
f 6/6/6 13/13/13 7/7/7
f 14/14/14 13/13/13 6/6/6
f 5/5/5 14/14/14 6/6/6
f 15/15/15 14/14/14 5/5/5
f 4/4/4 15/15/15 5/5/5
f 16/16/16 15/15/15 4/4/4
f 3/3/3 16/16/16 4/4/4
f 17/17/17 16/16/16 3/3/3
f 2/2/2 17/17/17 3/3/3
f 18/18/18 17/17/17 2/2/2
f 1/1/1 18/18/18 2/2/2
f 43/43/43 100/100/100 99/99/99
f 36/36/36 43/43/43 99/99/99
f 44/44/44 43/43/43 36/36/36
f 35/35/35 44/44/44 36/36/36
f 45/45/45 44/44/44 35/35/35
f 34/34/34 45/45/45 35/35/35
f 46/46/46 45/45/45 34/34/34
f 33/33/33 46/46/46 34/34/34
f 47/47/47 46/46/46 33/33/33
f 32/32/32 47/47/47 33/33/33
f 48/48/48 47/47/47 32/32/32
f 31/31/31 48/48/48 32/32/32
f 37/37/37 48/48/48 31/31/31
f 30/30/30 37/37/37 31/31/31
f 38/38/38 37/37/37 30/30/30
f 29/29/29 38/38/38 30/30/30
f 39/39/39 38/38/38 29/29/29
f 28/28/28 39/39/39 29/29/29
f 40/40/40 39/39/39 28/28/28
f 27/27/27 40/40/40 28/28/28
f 41/41/41 40/40/40 27/27/27
f 26/26/26 41/41/41 27/27/27
f 42/42/42 41/41/41 26/26/26
f 25/25/25 42/42/42 26/26/26
f 67/67/67 102/102/102 101/101/101
f 60/60/60 67/67/67 101/101/101
f 68/68/68 67/67/67 60/60/60
f 59/59/59 68/68/68 60/60/60
f 69/69/69 68/68/68 59/59/59
f 58/58/58 69/69/69 59/59/59
f 70/70/70 69/69/69 58/58/58
f 57/57/57 70/70/70 58/58/58
f 71/71/71 70/70/70 57/57/57
f 56/56/56 71/71/71 57/57/57
f 72/72/72 71/71/71 56/56/56
f 55/55/55 72/72/72 56/56/56
f 61/61/61 72/72/72 55/55/55
f 54/54/54 61/61/61 55/55/55
f 62/62/62 61/61/61 54/54/54
f 53/53/53 62/62/62 54/54/54
f 63/63/63 62/62/62 53/53/53
f 52/52/52 63/63/63 53/53/53
f 64/64/64 63/63/63 52/52/52
f 51/51/51 64/64/64 52/52/52
f 65/65/65 64/64/64 51/51/51
f 50/50/50 65/65/65 51/51/51
f 66/66/66 65/65/65 50/50/50
f 49/49/49 66/66/66 50/50/50
f 91/91/91 104/104/104 103/103/103
f 84/84/84 91/91/91 103/103/103
f 92/92/92 91/91/91 84/84/84
f 83/83/83 92/92/92 84/84/84
f 93/93/93 92/92/92 83/83/83
f 82/82/82 93/93/93 83/83/83
f 94/94/94 93/93/93 82/82/82
f 81/81/81 94/94/94 82/82/82
f 95/95/95 94/94/94 81/81/81
f 80/80/80 95/95/95 81/81/81
f 96/96/96 95/95/95 80/80/80
f 79/79/79 96/96/96 80/80/80
f 85/85/85 96/96/96 79/79/79
f 78/78/78 85/85/85 79/79/79
f 86/86/86 85/85/85 78/78/78
f 77/77/77 86/86/86 78/78/78
f 87/87/87 86/86/86 77/77/77
f 76/76/76 87/87/87 77/77/77
f 88/88/88 87/87/87 76/76/76
f 75/75/75 88/88/88 76/76/76
f 89/89/89 88/88/88 75/75/75
f 74/74/74 89/89/89 75/75/75
f 90/90/90 89/89/89 74/74/74
f 73/73/73 90/90/90 74/74/74
