g B4_trashbag_geo
v 81.08939 0.007002506 140.0936
v 81.08939 0.007002506 139.8813
v 80.97151 0.007002506 139.7751
v 80.85362 0.007002506 139.8813
v 80.85362 0.007002506 140.0936
v 80.97151 0.007002506 140.1998
v 81.19878 0.08621271 140.1267
v 81.19878 0.08621271 139.8482
v 80.97151 0.08621271 139.709
v 80.74425 0.08621271 139.8482
v 80.74425 0.08621271 140.1267
v 80.97151 0.08621271 140.2659
v 81.19999 0.2537415 140.1584
v 81.19999 0.293921 139.8876
v 80.97151 0.3140109 139.7618
v 80.74303 0.293921 139.8876
v 80.74303 0.2537415 140.1584
v 80.97151 0.2336518 140.2937
v 81.09002 0.3965959 140.1538
v 81.12081 0.4267825 139.9872
v 80.97151 0.4470668 139.9468
v 80.853 0.4302432 140.0158
v 80.853 0.3965959 140.1538
v 80.97151 0.3797722 140.2227
v 80.96633 0.4772813 140.1026
v 80.96633 0.4807004 140.0886
v 80.95428 0.48241 140.0816
v 80.94224 0.4807004 140.0886
v 80.94224 0.4772813 140.1026
v 80.95428 0.4755718 140.1096
v 80.95428 0.4986037 140.1242
v 80.96913 0.5007112 140.1156
v 80.96913 0.5049261 140.0983
v 80.95428 0.5070337 140.0897
v 80.93944 0.5049261 140.0983
v 80.93944 0.5007112 140.1156
v 80.95267 0.5484064 140.1847
v 80.97304 0.5572217 140.1539
v 80.9824 0.5680335 140.1043
v 80.95267 0.5990664 140.0775
v 80.92296 0.5680335 140.1043
v 80.90727 0.5677466 140.165
v 81.19121 0.007002525 140.3874
v 81.19121 0.007002525 140.6234
v 81.31638 0.007002525 140.7414
v 81.44156 0.007002525 140.6234
v 81.44156 0.007002525 140.3874
v 81.31638 0.007002525 140.2694
v 81.07505 0.09766277 140.3507
v 81.07505 0.09766277 140.6602
v 81.31638 0.09766277 140.8149
v 81.55771 0.09766277 140.6602
v 81.55771 0.09766277 140.3507
v 81.31638 0.09766277 140.1959
v 81.07376 0.2894082 140.3155
v 81.07376 0.3353958 140.6164
v 81.31638 0.3583897 140.7562
v 81.559 0.3353958 140.6164
v 81.559 0.2894083 140.3155
v 81.31638 0.2664145 140.165
v 81.19053 0.4529126 140.3206
v 81.15784 0.4874628 140.5057
v 81.31638 0.5106792 140.5506
v 81.44223 0.4914237 140.4739
v 81.44223 0.4529126 140.3206
v 81.31638 0.4336571 140.2439
v 81.32188 0.5452613 140.3774
v 81.32188 0.5491747 140.393
v 81.33468 0.5511314 140.4008
v 81.34747 0.5491747 140.393
v 81.34747 0.5452613 140.3774
v 81.33468 0.5433048 140.3696
v 81.33468 0.569666 140.3534
v 81.3189 0.572078 140.363
v 81.3189 0.5769023 140.3822
v 81.33468 0.5793145 140.3918
v 81.35044 0.5769023 140.3822
v 81.35044 0.572078 140.363
v 81.33638 0.6266677 140.2861
v 81.31477 0.6367573 140.3204
v 81.30482 0.6491319 140.3755
v 81.33638 0.6846508 140.4054
v 81.36794 0.6491319 140.3755
v 81.3846 0.6488036 140.3081
v 81.08939 0.007002506 139.8813
v 81.19878 0.08621271 139.8482
v 81.19999 0.293921 139.8876
v 81.19999 0.2537415 140.1584
v 81.19999 0.293921 139.8876
v 80.97151 0.3140109 139.7618
v 80.74303 0.293921 139.8876
v 80.74303 0.2537415 140.1584
v 80.97151 0.2336518 140.2937
v 80.95428 0.4755718 140.1096
v 80.96913 0.5007112 140.1156
v 80.96633 0.4772813 140.1026
v 80.95428 0.4986037 140.1242
v 80.96913 0.5049261 140.0983
v 80.96633 0.4807004 140.0886
v 80.95428 0.5070337 140.0897
v 80.95428 0.48241 140.0816
v 80.95428 0.48241 140.0816
v 80.93944 0.5049261 140.0983
v 80.94224 0.4807004 140.0886
v 80.95428 0.5070337 140.0897
v 80.93944 0.5007112 140.1156
v 80.94224 0.4772813 140.1026
v 80.95428 0.4986037 140.1242
v 80.96913 0.5007112 140.1156
v 80.96913 0.5049261 140.0983
v 80.95428 0.5070337 140.0897
v 80.95428 0.5070337 140.0897
v 80.93944 0.5049261 140.0983
v 80.95267 0.5990664 140.0775
v 80.93944 0.5007112 140.1156
v 81.19121 0.007002525 140.6234
v 81.07505 0.09766277 140.6602
v 81.07376 0.3353958 140.6164
v 81.07376 0.2894082 140.3155
v 81.07376 0.3353958 140.6164
v 81.31638 0.3583897 140.7562
v 81.559 0.3353958 140.6164
v 81.559 0.2894083 140.3155
v 81.31638 0.2664145 140.165
v 81.33468 0.5433048 140.3696
v 81.3189 0.572078 140.363
v 81.32188 0.5452613 140.3774
v 81.33468 0.569666 140.3534
v 81.3189 0.5769023 140.3822
v 81.32188 0.5491747 140.393
v 81.33468 0.5793145 140.3918
v 81.33468 0.5511314 140.4008
v 81.33468 0.5511314 140.4008
v 81.35044 0.5769023 140.3822
v 81.34747 0.5491747 140.393
v 81.33468 0.5793145 140.3918
v 81.35044 0.572078 140.363
v 81.34747 0.5452613 140.3774
v 81.33468 0.569666 140.3534
v 81.3189 0.572078 140.363
v 81.3189 0.5769023 140.3822
v 81.33468 0.5793145 140.3918
v 81.33468 0.5793145 140.3918
v 81.35044 0.5769023 140.3822
v 81.33638 0.6846508 140.4054
v 81.35044 0.572078 140.363
vt 0.8144729 0.009439625
vt 1 0.009439632
vt 0.2048868 0.009439677
vt 0.3610763 0.009439707
vt 0.5826623 0.009439707
vt 0.7030784 0.009439707
vt 0.847901 0.07835568
vt 1 0.0783557
vt 0.2119969 0.07835573
vt 0.3907563 0.07835573
vt 0.5483969 0.07835579
vt 0.7037702 0.07835573
vt 0.8516515 0.2940356
vt 1 0.2940356
vt 0.225302 0.2940357
vt 0.3887928 0.2940357
vt 0.5534508 0.2940357
vt 0.7006505 0.2940357
vt 0.5292199 0.8461162
vt 0.3762572 0.6720608
vt 0.5179244 0.5176187
vt 0.7042271 0.5172081
vt 0.8030235 0.6812466
vt 0.7155196 0.8457006
vt 0.6281947 0.6891595
vt 0.6181537 0.6724864
vt 0.627044 0.6557739
vt 0.6459755 0.6557341
vt 0.6560175 0.672406
vt 0.6471217 0.6891094
vt 0.2331319 0.8628368
vt 0.2008405 0.9183646
vt 0.136179 0.9183646
vt 0.1039034 0.8628368
vt 0.136179 0.8073007
vt 0.2008405 0.8073007
vt 0.04046844 0.5238366
vt 0.04303768 0.5811288
vt 0.07972343 0.6510901
vt 0.09533343 0.7309853
vt 0.08464019 0.3963856
vt 0.007440165 0.4503645
vt 0.8144729 0.009439625
vt 1 0.009439632
vt 0.2048868 0.009439677
vt 0.3610763 0.009439707
vt 0.5826623 0.009439707
vt 0.7030784 0.009439707
vt 0.847901 0.07835568
vt 1 0.0783557
vt 0.2119969 0.07835573
vt 0.3907563 0.07835573
vt 0.5483969 0.07835579
vt 0.7037702 0.07835573
vt 0.8516515 0.2940356
vt 1 0.2940356
vt 0.225302 0.2940357
vt 0.3887928 0.2940357
vt 0.5534508 0.2940357
vt 0.7006505 0.2940357
vt 0.5292199 0.8461162
vt 0.3762572 0.6720608
vt 0.5179244 0.5176187
vt 0.7042271 0.5172081
vt 0.8030235 0.6812466
vt 0.7155196 0.8457006
vt 0.6281947 0.6891595
vt 0.6181537 0.6724864
vt 0.627044 0.6557739
vt 0.6459755 0.6557341
vt 0.6560175 0.672406
vt 0.6471217 0.6891094
vt 0.2331319 0.8628368
vt 0.2008405 0.9183646
vt 0.136179 0.9183646
vt 0.1039034 0.8628368
vt 0.136179 0.8073007
vt 0.2008405 0.8073007
vt 0.04046844 0.5238366
vt 0.04303768 0.5811288
vt 0.07972343 0.6510901
vt 0.09533343 0.7309853
vt 0.08464019 0.3963856
vt 0.007440165 0.4503645
vt 0 0.009439632
vt 0 0.0783557
vt 0 0.2940356
vt 0.4227498 0.9955504
vt 0.2172121 0.6528613
vt 0.4011911 0.3088561
vt 0.7907097 0.3075457
vt 0.9962438 0.6502291
vt 0.8122665 0.9942337
vt 0.2135396 0.5270636
vt 0.1502172 0.5553858
vt 0.2108832 0.5490575
vt 0.1403351 0.5270636
vt 0.1591217 0.5832022
vt 0.2211786 0.5692167
vt 0.1716179 0.6086937
vt 0.2295309 0.5905236
vt 0.2295374 0.4642017
vt 0.1586159 0.4707776
vt 0.2208012 0.4853286
vt 0.1721317 0.4459018
vt 0.1492777 0.4984054
vt 0.2101584 0.5052146
vt 0.1403351 0.5270636
vt 0.1502172 0.5553858
vt 0.1591217 0.5832022
vt 0.1716179 0.6086937
vt 0.1721317 0.4459018
vt 0.1586159 0.4707776
vt 0.1066659 0.318401
vt 0.1492777 0.4984054
vt 0 0.009439632
vt 0 0.0783557
vt 0 0.2940356
vt 0.4227498 0.9955504
vt 0.2172121 0.6528613
vt 0.4011911 0.3088561
vt 0.7907097 0.3075457
vt 0.9962438 0.6502291
vt 0.8122665 0.9942337
vt 0.2135396 0.5270636
vt 0.1502172 0.5553858
vt 0.2108832 0.5490575
vt 0.1403351 0.5270636
vt 0.1591217 0.5832022
vt 0.2211786 0.5692167
vt 0.1716179 0.6086937
vt 0.2295309 0.5905236
vt 0.2295374 0.4642017
vt 0.1586159 0.4707776
vt 0.2208012 0.4853286
vt 0.1721317 0.4459018
vt 0.1492777 0.4984054
vt 0.2101584 0.5052146
vt 0.1403351 0.5270636
vt 0.1502172 0.5553858
vt 0.1591217 0.5832022
vt 0.1716179 0.6086937
vt 0.1721317 0.4459018
vt 0.1586159 0.4707776
vt 0.1066659 0.318401
vt 0.1492777 0.4984054
vn 0.5354687 -0.7824313 0.3179224
vn 0.5354332 -0.7824553 -0.317923
vn 6.563555E-06 -0.7450991 -0.6669537
vn -0.5354376 -0.7824521 -0.3179234
vn -0.5354814 -0.7824183 0.317933
vn -3.298399E-07 -0.7450674 0.6669893
vn 0.7555195 -0.493042 0.4313929
vn 0.789497 -0.4116749 -0.4552125
vn 6.963502E-06 -0.3232758 -0.9463048
vn -0.7894978 -0.4116717 -0.4552141
vn -0.755528 -0.4930284 0.4313936
vn -6.269673E-06 -0.5001074 0.8659634
vn 0.8205421 0.2169527 0.5288121
vn 0.811293 0.4333958 -0.3923922
vn -0.01122381 0.5503638 -0.8348495
vn -0.8043126 0.4566426 -0.3802089
vn -0.8186277 0.2371058 0.523096
vn 7.643814E-06 0.1310172 0.99138
vn 0.5384941 0.6857678 0.4896395
vn 0.507971 0.8530796 -0.1192501
vn -0.0359601 0.9013614 -0.4315722
vn -0.5563285 0.8197156 -0.1362531
vn -0.5731115 0.6669264 0.4761853
vn -0.008247051 0.6126052 0.790346
vn 0.7604973 0.3626676 0.5386243
vn 0.7101028 0.6499731 -0.2707193
vn -0.02999494 0.7489872 -0.6619051
vn -0.7552152 0.5864652 -0.29276
vn -0.7950842 0.3109799 0.520704
vn -0.01081749 0.1943831 0.9808661
vn -9.244386E-05 0.9715233 0.2369442
vn -9.244386E-05 0.9715233 0.2369442
vn -9.244386E-05 0.9715233 0.2369442
vn -9.244386E-05 0.9715233 0.2369442
vn -9.244386E-05 0.9715233 0.2369442
vn -9.244386E-05 0.9715233 0.2369442
vn 0.1375953 -0.7286615 0.6709098
vn 0.8846321 -0.3447538 0.31396
vn 0.9009102 -0.1456748 -0.4088274
vn 0.007498504 -0.1079505 -0.994128
vn -0.8139033 -0.1957742 -0.5470228
vn -0.8228219 -0.5319334 0.2000274
vn -0.5624492 -0.7626306 -0.3194455
vn -0.5624737 -0.7626151 0.3194394
vn 3.571474E-06 -0.7352502 0.6777958
vn 0.562472 -0.7626163 0.3194396
vn 0.5624503 -0.7626283 -0.3194491
vn 5.924482E-06 -0.7352538 -0.6777918
vn -0.7697102 -0.4756603 -0.4257857
vn -0.801271 -0.3968947 0.4477048
vn 5.108272E-06 -0.3188894 0.9477919
vn 0.8012743 -0.3968874 0.4477051
vn 0.7697208 -0.4756457 -0.425783
vn 1.189881E-05 -0.4914315 -0.8709162
vn -0.8294539 0.2053782 -0.5194476
vn -0.821823 0.4156789 0.3896382
vn 0.01199655 0.5423767 0.8400498
vn 0.8160036 0.4383525 0.376809
vn 0.8279619 0.2248787 -0.5137203
vn 2.204574E-05 0.128377 -0.9917254
vn -0.5598013 0.6676129 -0.4908316
vn -0.5310579 0.8383563 0.1230299
vn 0.0383602 0.8968088 0.440752
vn 0.5815789 0.8013512 0.140008
vn 0.5957707 0.646419 -0.4766548
vn 0.008610789 0.6028377 -0.7978174
vn -0.768591 0.3549212 -0.5322582
vn -0.7235221 0.6368735 0.2662853
vn 0.03216434 0.7451274 0.6661461
vn 0.7690148 0.5703201 0.288706
vn 0.8032561 0.3017865 -0.5135219
vn 0.01126525 0.1959884 -0.9805415
vn 2.60622E-05 0.9698788 -0.2435879
vn 2.60622E-05 0.9698788 -0.2435879
vn 2.60622E-05 0.9698788 -0.2435879
vn 2.60622E-05 0.9698788 -0.2435879
vn 2.60622E-05 0.9698788 -0.2435879
vn 2.60622E-05 0.9698788 -0.2435879
vn -0.1385723 -0.7189931 -0.6810629
vn -0.8943349 -0.325954 -0.3064622
vn -0.9060087 -0.1356345 0.4009383
vn -0.007539302 -0.1047191 0.9944733
vn 0.8247522 -0.1836521 0.5348418
vn 0.8363075 -0.5089744 -0.203801
vn 0.5354332 -0.7824553 -0.317923
vn 0.789497 -0.4116749 -0.4552125
vn 0.811293 0.4333958 -0.3923922
vn 0.8205421 0.2169527 0.5288121
vn 0.811293 0.4333958 -0.3923922
vn -0.01122381 0.5503638 -0.8348495
vn -0.8043126 0.4566426 -0.3802089
vn -0.8186277 0.2371058 0.523096
vn 7.643814E-06 0.1310172 0.99138
vn -0.01081749 0.1943831 0.9808661
vn 0.8531016 -0.3272212 0.4063793
vn 0.7604973 0.3626676 0.5386243
vn 5.611345E-05 -0.5358785 0.844295
vn 0.8693429 0.09445553 -0.485099
vn 0.7101028 0.6499731 -0.2707193
vn 8.12646E-05 0.3125802 -0.9498914
vn -0.02999494 0.7489872 -0.6619051
vn -0.02999494 0.7489872 -0.6619051
vn -0.8692892 0.09462769 -0.4851617
vn -0.7552152 0.5864652 -0.29276
vn 8.12646E-05 0.3125802 -0.9498914
vn -0.853125 -0.3270504 0.4064673
vn -0.7950842 0.3109799 0.520704
vn 0.1375953 -0.7286615 0.6709098
vn 0.8846321 -0.3447538 0.31396
vn 0.9009102 -0.1456748 -0.4088274
vn 0.007498504 -0.1079505 -0.994128
vn 0.007498504 -0.1079505 -0.994128
vn -0.8139033 -0.1957742 -0.5470228
vn 0.007498504 -0.1079505 -0.994128
vn -0.8228219 -0.5319334 0.2000274
vn -0.5624737 -0.7626151 0.3194394
vn -0.801271 -0.3968947 0.4477048
vn -0.821823 0.4156789 0.3896382
vn -0.8294539 0.2053782 -0.5194476
vn -0.821823 0.4156789 0.3896382
vn 0.01199655 0.5423767 0.8400498
vn 0.8160036 0.4383525 0.376809
vn 0.8279619 0.2248787 -0.5137203
vn 2.204574E-05 0.128377 -0.9917254
vn 0.01126525 0.1959884 -0.9805415
vn -0.8602929 -0.3125033 -0.4027876
vn -0.768591 0.3549212 -0.5322582
vn 0.0001316064 -0.5249115 -0.8511568
vn -0.8743639 0.09195469 0.4764788
vn -0.7235221 0.6368735 0.2662853
vn 0.0001225512 0.3041204 0.9526336
vn 0.03216434 0.7451274 0.6661461
vn 0.03216434 0.7451274 0.6661461
vn 0.8744193 0.0920995 0.4763492
vn 0.7690148 0.5703201 0.288706
vn 0.0001225512 0.3041204 0.9526336
vn 0.8604167 -0.3121835 -0.4027711
vn 0.8032561 0.3017865 -0.5135219
vn -0.1385723 -0.7189931 -0.6810629
vn -0.8943349 -0.325954 -0.3064622
vn -0.9060087 -0.1356345 0.4009383
vn -0.007539302 -0.1047191 0.9944733
vn -0.007539302 -0.1047191 0.9944733
vn 0.8247522 -0.1836521 0.5348418
vn -0.007539302 -0.1047191 0.9944733
vn 0.8363075 -0.5089744 -0.203801
g B4_trashbag_geo_0
f 9/9/9 86/86/86 85/85/85
f 3/3/3 9/9/9 85/85/85
f 10/10/10 9/9/9 3/3/3
f 4/4/4 10/10/10 3/3/3
f 11/11/11 10/10/10 4/4/4
f 5/5/5 11/11/11 4/4/4
f 12/12/12 11/11/11 5/5/5
f 6/6/6 12/12/12 5/5/5
f 7/7/7 12/12/12 6/6/6
f 1/1/1 7/7/7 6/6/6
f 8/8/8 7/7/7 1/1/1
f 2/2/2 8/8/8 1/1/1
f 7/7/7 8/8/8 14/14/14
f 13/13/13 7/7/7 14/14/14
f 12/12/12 7/7/7 13/13/13
f 18/18/18 12/12/12 13/13/13
f 11/11/11 12/12/12 18/18/18
f 17/17/17 11/11/11 18/18/18
f 10/10/10 11/11/11 17/17/17
f 16/16/16 10/10/10 17/17/17
f 9/9/9 10/10/10 16/16/16
f 15/15/15 9/9/9 16/16/16
f 86/86/86 9/9/9 15/15/15
f 87/87/87 86/86/86 15/15/15
f 36/36/36 31/31/31 32/32/32
f 33/33/33 36/36/36 32/32/32
f 35/35/35 36/36/36 33/33/33
f 34/34/34 35/35/35 33/33/33
f 103/103/103 105/105/105 102/102/102
f 104/104/104 103/103/103 102/102/102
f 106/106/106 103/103/103 104/104/104
f 107/107/107 106/106/106 104/104/104
f 97/97/97 106/106/106 107/107/107
f 94/94/94 97/97/97 107/107/107
f 95/95/95 97/97/97 94/94/94
f 96/96/96 95/95/95 94/94/94
f 98/98/98 95/95/95 96/96/96
f 99/99/99 98/98/98 96/96/96
f 100/100/100 98/98/98 99/99/99
f 101/101/101 100/100/100 99/99/99
f 41/41/41 114/114/114 112/112/112
f 113/113/113 41/41/41 112/112/112
f 42/42/42 41/41/41 113/113/113
f 115/115/115 42/42/42 113/113/113
f 37/37/37 42/42/42 115/115/115
f 108/108/108 37/37/37 115/115/115
f 38/38/38 37/37/37 108/108/108
f 109/109/109 38/38/38 108/108/108
f 39/39/39 38/38/38 109/109/109
f 110/110/110 39/39/39 109/109/109
f 40/40/40 39/39/39 110/110/110
f 111/111/111 40/40/40 110/110/110
f 51/51/51 117/117/117 116/116/116
f 45/45/45 51/51/51 116/116/116
f 52/52/52 51/51/51 45/45/45
f 46/46/46 52/52/52 45/45/45
f 53/53/53 52/52/52 46/46/46
f 47/47/47 53/53/53 46/46/46
f 54/54/54 53/53/53 47/47/47
f 48/48/48 54/54/54 47/47/47
f 49/49/49 54/54/54 48/48/48
f 43/43/43 49/49/49 48/48/48
f 50/50/50 49/49/49 43/43/43
f 44/44/44 50/50/50 43/43/43
f 49/49/49 50/50/50 56/56/56
f 55/55/55 49/49/49 56/56/56
f 54/54/54 49/49/49 55/55/55
f 60/60/60 54/54/54 55/55/55
f 53/53/53 54/54/54 60/60/60
f 59/59/59 53/53/53 60/60/60
f 52/52/52 53/53/53 59/59/59
f 58/58/58 52/52/52 59/59/59
f 51/51/51 52/52/52 58/58/58
f 57/57/57 51/51/51 58/58/58
f 117/117/117 51/51/51 57/57/57
f 118/118/118 117/117/117 57/57/57
f 75/75/75 76/76/76 77/77/77
f 78/78/78 75/75/75 77/77/77
f 74/74/74 75/75/75 78/78/78
f 73/73/73 74/74/74 78/78/78
f 134/134/134 136/136/136 133/133/133
f 135/135/135 134/134/134 133/133/133
f 137/137/137 134/134/134 135/135/135
f 138/138/138 137/137/137 135/135/135
f 128/128/128 137/137/137 138/138/138
f 125/125/125 128/128/128 138/138/138
f 126/126/126 128/128/128 125/125/125
f 127/127/127 126/126/126 125/125/125
f 129/129/129 126/126/126 127/127/127
f 130/130/130 129/129/129 127/127/127
f 131/131/131 129/129/129 130/130/130
f 132/132/132 131/131/131 130/130/130
f 83/83/83 145/145/145 143/143/143
f 144/144/144 83/83/83 143/143/143
f 84/84/84 83/83/83 144/144/144
f 146/146/146 84/84/84 144/144/144
f 79/79/79 84/84/84 146/146/146
f 139/139/139 79/79/79 146/146/146
f 80/80/80 79/79/79 139/139/139
f 140/140/140 80/80/80 139/139/139
f 81/81/81 80/80/80 140/140/140
f 141/141/141 81/81/81 140/140/140
f 82/82/82 81/81/81 141/141/141
f 142/142/142 82/82/82 141/141/141
f 19/19/19 88/88/88 20/20/20
f 93/93/93 88/88/88 19/19/19
f 24/24/24 93/93/93 19/19/19
f 92/92/92 93/93/93 24/24/24
f 23/23/23 92/92/92 24/24/24
f 91/91/91 92/92/92 23/23/23
f 22/22/22 91/91/91 23/23/23
f 90/90/90 91/91/91 22/22/22
f 21/21/21 90/90/90 22/22/22
f 89/89/89 90/90/90 21/21/21
f 20/20/20 89/89/89 21/21/21
f 88/88/88 89/89/89 20/20/20
f 19/19/19 25/25/25 24/24/24
f 26/26/26 25/25/25 19/19/19
f 20/20/20 26/26/26 19/19/19
f 27/27/27 26/26/26 20/20/20
f 21/21/21 27/27/27 20/20/20
f 28/28/28 27/27/27 21/21/21
f 22/22/22 28/28/28 21/21/21
f 29/29/29 28/28/28 22/22/22
f 23/23/23 29/29/29 22/22/22
f 30/30/30 29/29/29 23/23/23
f 24/24/24 30/30/30 23/23/23
f 25/25/25 30/30/30 24/24/24
f 61/61/61 119/119/119 62/62/62
f 124/124/124 119/119/119 61/61/61
f 66/66/66 124/124/124 61/61/61
f 123/123/123 124/124/124 66/66/66
f 65/65/65 123/123/123 66/66/66
f 122/122/122 123/123/123 65/65/65
f 64/64/64 122/122/122 65/65/65
f 121/121/121 122/122/122 64/64/64
f 63/63/63 121/121/121 64/64/64
f 120/120/120 121/121/121 63/63/63
f 62/62/62 120/120/120 63/63/63
f 119/119/119 120/120/120 62/62/62
f 61/61/61 67/67/67 66/66/66
f 68/68/68 67/67/67 61/61/61
f 62/62/62 68/68/68 61/61/61
f 69/69/69 68/68/68 62/62/62
f 63/63/63 69/69/69 62/62/62
f 70/70/70 69/69/69 63/63/63
f 64/64/64 70/70/70 63/63/63
f 71/71/71 70/70/70 64/64/64
f 65/65/65 71/71/71 64/64/64
f 72/72/72 71/71/71 65/65/65
f 66/66/66 72/72/72 65/65/65
f 67/67/67 72/72/72 66/66/66
