g B5_collisionInvisible_geo
v 63.66042 -0.1288721 197.2749
v 63.66042 19.87113 197.2749
v 61.72905 -0.1288873 175.6869
v 61.72905 19.87111 175.6869
v 61.55605 -0.1288879 224.2286
v 61.55605 19.87111 224.2286
v 61.91712 19.87112 175.6869
v 61.91712 -0.1288797 175.6869
v 61.91712 19.87112 179.3793
v 61.91712 -0.1288771 179.3793
v 63.66252 19.87113 179.3793
v 63.66252 -0.1288746 179.3793
vt 0.009305123 0.9919356
vt 0.009305123 0.9919356
vt 0.009305123 0.9919356
vt 0.009305123 0.9919356
vt 0.009305123 0.9919356
vt 0.009305123 0.9919356
vt 0.009305123 0.9919356
vt 0.009305123 0.9919356
vt 0.009305123 0.9919356
vt 0.009305123 0.9919356
vt 0.009305123 0.9919356
vt 0.009305123 0.9919356
vn 1 0 0.0001170529
vn 1 0 0.0001170529
vn -0.705874 0 -0.7083375
vn -0.705874 0 -0.7083375
vn -0.9999937 0 -0.00356388
vn -0.9999937 0 -0.00356388
vn 0.7070785 0 -0.7071351
vn 0.7070785 0 -0.7071351
vn 0.7071082 0 -0.7071053
vn 0.7071082 0 -0.7071053
vn 0.7071496 0 -0.7070639
vn 0.7071496 0 -0.7070639
g B5_collisionInvisible_geo_0
f 11/11/11 2/2/2 1/1/1
f 12/12/12 11/11/11 1/1/1
f 9/9/9 11/11/11 12/12/12
f 10/10/10 9/9/9 12/12/12
f 7/7/7 9/9/9 10/10/10
f 8/8/8 7/7/7 10/10/10
f 4/4/4 7/7/7 8/8/8
f 3/3/3 4/4/4 8/8/8
f 6/6/6 4/4/4 3/3/3
f 5/5/5 6/6/6 3/3/3
