g B5_collisionGround_grass_geo
v 80 -3.460275E-07 202.4749
v 118.8288 -2.466465E-07 202.4749
v 135.0161 -3.406309E-07 201.1256
v 84.23191 -4.005724E-08 243.2453
v 117.3153 -1.087714E-06 226.2672
v 140.9953 5.024117 204.2195
v 118.8618 7.621683 233.376
v 149.2703 -3.151399E-07 207.8309
v 123.3263 -1.465157E-06 240.8477
v 85.34636 3.662109E-06 252.1574
v 85.93011 4.591444E-07 258.5794
v 64.64156 -2.528137E-07 202.4749
v 64.61821 3.439883E-07 246.4483
v 64.53893 3.356934E-06 255.1607
v 64.64156 3.36164E-06 261.0186
v 64.64156 -2.321931E-07 193.6877
v 79.99998 -3.308334E-07 193.6877
v 118.8288 -2.466465E-07 193.6877
v 137.5662 -1.493707E-07 193.6877
v 144.6806 4.278667 193.6877
v 154.5546 -8.562774E-07 193.6877
v 88.68978 5.527946 269.7739
v 64.39837 6.825968 273.3541
v 91.13509 4.591444E-07 281.1532
v 64.39837 3.36164E-06 285.7368
vt 0 1
vt 0 1
vt 0 1
vt 0 1
vt 0 1
vt 0 1
vt 0 1
vt 0 1
vt 0 1
vt 0 1
vt 0 1
vt 0 1
vt 0 1
vt 0 1
vt 0 1
vt 0 1
vt 0 1
vt 0 1
vt 0 1
vt 0 1
vt 0 1
vt 0 1
vt 0 1
vt 0 1
vt 0 1
vn 0 1 0
vn 0 1 0
vn -0.2801347 0.9411943 -0.1888856
vn -0.1614976 0.936355 -0.3117014
vn -0.2338533 0.923755 -0.3032973
vn -0.04124177 0.9978217 -0.05148819
vn -0.02376123 0.9994316 -0.02391673
vn 0.2401935 0.9602618 0.142142
vn 0.2333352 0.9519914 0.1981589
vn -0.0471833 0.9988557 0.007815799
vn -0.02516163 0.9932455 -0.11327
vn 0 1 0
vn -0.03443252 0.9571524 -0.2875305
vn -0.008640504 0.9999548 0.003969854
vn 0.0008847082 0.9912236 -0.1321933
vn 0 1 0
vn 0 1 0
vn 0 1 0
vn -0.3151218 0.9425399 -0.1109807
vn -0.07401762 0.9971884 -0.01168864
vn 0.04204391 0.992348 0.1160943
vn 0.07899192 0.9966127 -0.02287438
vn -0.003747144 0.9999655 0.007410577
vn 0.2553846 0.8826339 0.3946342
vn 0.004710908 0.8957488 0.4445355
g B5_collisionGround_grass_geo_0
f 12/12/12 17/17/17 16/16/16
f 1/1/1 17/17/17 12/12/12
f 4/4/4 1/1/1 12/12/12
f 5/5/5 1/1/1 4/4/4
f 7/7/7 5/5/5 4/4/4
f 6/6/6 5/5/5 7/7/7
f 8/8/8 6/6/6 7/7/7
f 20/20/20 6/6/6 8/8/8
f 21/21/21 20/20/20 8/8/8
f 13/13/13 4/4/4 12/12/12
f 10/10/10 4/4/4 13/13/13
f 14/14/14 10/10/10 13/13/13
f 11/11/11 10/10/10 14/14/14
f 15/15/15 11/11/11 14/14/14
f 22/22/22 11/11/11 15/15/15
f 23/23/23 22/22/22 15/15/15
f 24/24/24 22/22/22 23/23/23
f 25/25/25 24/24/24 23/23/23
f 7/7/7 9/9/9 8/8/8
f 10/10/10 9/9/9 7/7/7
f 4/4/4 10/10/10 7/7/7
f 2/2/2 17/17/17 1/1/1
f 18/18/18 17/17/17 2/2/2
f 3/3/3 18/18/18 2/2/2
f 19/19/19 18/18/18 3/3/3
f 6/6/6 19/19/19 3/3/3
f 20/20/20 19/19/19 6/6/6
f 9/9/9 22/22/22 24/24/24
f 11/11/11 22/22/22 9/9/9
f 10/10/10 11/11/11 9/9/9
f 5/5/5 2/2/2 1/1/1
f 3/3/3 2/2/2 5/5/5
f 6/6/6 3/3/3 5/5/5
