g B5_shadowTree_geo
v 74.66419 0.0445648 198.2051
v 67.47439 0.0445648 201.8267
v 78.4291 0.0445648 205.6797
v 71.2393 0.0445648 209.3012
v 89.00706 0.03990792 194.2685
v 80.63906 0.03990792 197.3084
v 91.92121 0.03990792 202.5529
v 83.55322 0.03990792 205.5928
vt 0 3.814697E-06
vt 1 3.814697E-06
vt 0 0.9999962
vt 1 0.9999962
vt 0 3.814697E-06
vt 1 3.814697E-06
vt 0 0.9999962
vt 1 0.9999962
vn 0 1 0
vn 0 1 0
vn 0 1 0
vn 0 1 0
vn 0 1 0
vn 0 1 0
vn 0 1 0
vn 0 1 0
g B5_shadowTree_geo_0
f 4/4/4 1/1/1 2/2/2
f 3/3/3 1/1/1 4/4/4
f 8/8/8 5/5/5 6/6/6
f 7/7/7 5/5/5 8/8/8
