g B5_tree03_geo
v 107.6836 7.048975 212.5243
v 105.7361 7.044682 215.2179
v 107.217 4.752758 212.1739
v 105.2695 4.748466 214.8675
v 102.9469 11.24592 209.3203
v 101.363 10.97338 213.2074
v 103.6722 13.85313 209.963
v 102.0883 13.58058 213.85
v 102.1534 13.86324 211.6068
v 101.4281 11.25603 210.9642
v 99.33803 5.239711 211.7599
v 99.99883 5.121362 208.9548
v 102.003 5.544601 206.7891
v 100.2292 3.217656 212.0398
v 100.5911 3.099306 208.9809
v 102.8942 3.522549 207.0691
v 99.27663 6.483555 213.9747
v 99.74916 5.191417 212.632
v 101.4397 4.437007 211.3632
v 98.93478 5.157835 215.7717
v 99.40734 3.865696 214.429
v 101.0978 3.111287 213.1602
v 104.4546 4.317329 210.9128
v 105.5934 5.176357 208.918
v 107.1663 6.978628 208.6219
v 106.2389 2.916142 210.1244
v 107.3778 3.775172 208.1296
v 108.9507 5.577439 207.8335
v 99.07997 7.420738 216.0577
v 97.4342 7.756059 213.6706
v 98.19497 5.759494 213.1974
v 99.92621 5.424172 215.4837
v 98.25572 6.447362 214.822
v 100.5339 11.02152 213.1292
v 99.02498 9.6204 214.0547
v 98.55874 7.714927 215.0588
v 100.7392 11.95014 214.946
v 99.23031 10.54902 215.8715
v 98.76404 8.643548 216.8757
v 105.7395 10.78236 209.8957
v 107.0729 8.938067 210.2827
v 107.3844 6.518347 209.8896
v 106.2881 11.16021 206.4623
v 107.6215 9.315916 206.8493
v 107.933 6.896198 206.4562
v 101.9518 5.725865 215.4157
v 101.7404 7.705631 216.4451
v 101.0522 9.541348 215.5935
v 99.78796 5.398296 216.868
v 99.5766 7.378062 217.8974
v 98.88834 9.213779 217.0458
v 108.3714 8.550776 210.2916
v 108.1424 7.226527 211.9797
v 106.8803 5.486134 211.9072
v 109.4486 7.312786 207.9734
v 109.2197 5.988539 209.6614
v 107.9575 4.248142 209.5888
v 104.687 5.447769 207.8483
v 103.9022 7.193733 206.4799
v 104.1529 9.30697 206.7687
v 107.7128 5.3539 207.3441
v 106.928 7.099864 205.9757
v 107.1786 9.213103 206.2645
v 98.72744 10.38204 212.1722
v 97.57484 8.35008 211.7983
v 97.87836 6.374211 211.9392
v 97.80006 10.31767 214.5553
v 96.6475 8.285712 214.1813
v 96.951 6.309844 214.3222
v 97.95309 9.473822 210.0954
v 97.57503 7.765992 208.9129
v 98.28742 5.930147 209.7397
v 95.86806 9.343843 211.4631
v 95.49001 7.636014 210.2806
v 95.99314 5.807075 210.8286
v 103.9945 10.45152 214.7245
v 105.8022 10.713 212.1445
v 105.3774 10.38048 208.9632
v 103.0413 12.54883 214.4159
v 104.8489 12.8103 211.8358
v 104.4241 12.47778 208.6545
v 99.37833 10.41008 211.6096
v 101.1293 10.47198 214.4909
v 104.1956 10.34791 214.4608
v 99.51943 12.43695 211.4472
v 101.2704 12.49886 214.3285
v 104.3367 12.37478 214.2984
v 103.9816 10.64027 208.3817
v 99.95648 10.67847 209.6829
v 104.4084 13.20682 209.4469
v 100.3833 13.24502 210.7481
v 102.1386 13.41067 209.3735
v 101.7118 10.84412 208.3084
v 102.3481 9.288672 215.7472
v 105.5748 9.281115 214.8516
v 102.3042 11.37394 215.392
v 105.5309 11.36638 214.4965
v 104.1051 11.47078 215.5388
v 104.1491 9.385516 215.8939
v 100.0565 9.402102 207.2797
v 97.55723 9.612843 210.5087
v 99.18988 9.377152 214.1422
v 101.2599 12.1076 207.9416
v 98.76067 12.31834 211.1706
v 100.3933 12.08265 214.804
v 106.7187 9.742685 211.4784
v 105.2209 9.936428 207.5379
v 101.4093 9.672403 206.8279
v 106.3446 12.27166 211.8354
v 104.8468 12.4654 207.895
v 101.0352 12.20137 207.1849
v 106.2781 5.082539 208.811
v 106.3716 4.807765 212.175
v 104.1349 4.894725 214.6285
v 105.7457 2.793529 208.4664
v 105.8392 2.518756 211.8304
v 103.6025 2.605717 214.284
v 106.2901 5.005254 213.2594
v 103.9551 4.605403 215.2112
v 100.8646 5.162565 214.9701
v 106.0191 2.906128 212.8
v 103.6841 2.506275 214.7518
v 100.5937 3.063438 214.5107
v 100.2995 5.892869 208.7123
v 102.9782 5.504058 207.1153
v 106.007 5.525751 208.321
v 100.1176 3.805987 209.2834
v 102.7964 3.417176 207.6863
v 105.8252 3.438869 208.8921
v 98.31417 6.205596 213.8542
v 97.6898 5.988666 210.8089
v 99.20546 6.407531 208.2223
v 99.38029 4.222404 213.9345
v 98.75593 4.005473 210.8892
v 100.2716 4.424341 208.3026
v 102.5497 8.915191 217.2212
v 101.819 5.681756 217.2762
v 105.9933 5.61789 215.9787
v 106.7241 8.851327 215.9236
v 104.55 7.243299 217.4032
v 103.2676 9.122474 205.4184
v 103.4214 5.572177 206.3811
v 98.18732 6.097563 207.8523
v 98.94273 9.921051 207.8873
v 100.1105 7.551189 205.2616
v 106.2197 11.2849 212.8336
v 105.9023 8.443989 216.1744
v 108.3831 6.05837 213.4805
v 108.7006 8.899283 210.1398
v 108.0169 9.242706 213.2829
v 104.0063 4.231066 215.2278
v 106.6823 4.231066 211.9614
v 105.2531 5.179385 208.0385
v 101.0255 5.179386 207.2807
v 98.34955 5.179385 210.5471
v 99.90119 5.179385 214.5713
v 104.8489 7.828527 217.1967
v 108.7667 7.828526 212.4144
v 106.495 7.828527 206.5227
v 100.3054 7.828529 205.4131
v 96.38756 7.828529 210.1954
v 98.65929 7.828528 216.0872
v 104.1287 10.47767 215.3291
v 106.8047 10.47767 212.0627
v 105.2531 10.47767 208.0385
v 101.0255 10.47767 207.2807
v 98.34955 10.47767 210.5471
v 99.90119 10.47767 214.5713
v 102.5771 3.949913 211.3049
v 102.5771 11.70714 211.3049
v 104.8489 7.828527 217.1967
v 104.0063 4.231066 215.2278
v 104.1287 10.47767 215.3291
v 102.5771 3.949913 211.3049
v 102.5771 3.949913 211.3049
v 102.5771 3.949913 211.3049
v 102.5771 3.949913 211.3049
v 102.5771 3.949913 211.3049
v 102.5771 11.70714 211.3049
v 102.5771 11.70714 211.3049
v 102.5771 11.70714 211.3049
v 102.5771 11.70714 211.3049
v 102.5771 11.70714 211.3049
vt -1.277744 0.5175002
vt -1.129462 0.5175002
vt -1.277744 0.6664862
vt -1.129462 0.6664862
vt -1.481326 0.03697948
vt -1.676161 0.03697948
vt -1.481326 0.1889176
vt -1.676161 0.1889176
vt -1.578743 0.1889176
vt -1.578743 0.03697948
vt -1.323214 0.51732
vt -1.162973 0.51732
vt -1.002731 0.51732
vt -1.323214 0.6775613
vt -1.162973 0.6775613
vt -1.002731 0.6775613
vt -1.00064 0.5163888
vt -1.161353 0.5163888
vt -1.322067 0.5163888
vt -1.00064 0.6756661
vt -1.161353 0.6756661
vt -1.322067 0.6756661
vt -1.008595 0.3589694
vt -1.159004 0.3589694
vt -1.309413 0.3589694
vt -1.008595 0.4947548
vt -1.159004 0.4947548
vt -1.309413 0.4947548
vt -1.006046 0.9196587
vt -1.201672 0.9196588
vt -1.201672 0.7208177
vt -1.006046 0.7208176
vt -1.101068 0.8208752
vt -1.390534 0.2044009
vt -1.196745 0.2044009
vt -1.002955 0.2044009
vt -1.390534 0.3351956
vt -1.196745 0.3351956
vt -1.002955 0.3351956
vt -1.986878 0.03800292
vt -1.830928 0.03800292
vt -1.674978 0.03800292
vt -1.986878 0.1732106
vt -1.830928 0.1732106
vt -1.674978 0.1732106
vt -1.635377 0.5018924
vt -1.491916 0.5018924
vt -1.348456 0.5018924
vt -1.635377 0.6453528
vt -1.491916 0.6453528
vt -1.348456 0.6453528
vt -1.686224 0.2064656
vt -1.561915 0.2064656
vt -1.437605 0.2064656
vt -1.686224 0.3322405
vt -1.561915 0.3322405
vt -1.437605 0.3322405
vt -1.959465 0.2021883
vt -1.825262 0.2021883
vt -1.691058 0.2021883
vt -1.959465 0.3379737
vt -1.825262 0.3379737
vt -1.691058 0.3379737
vt -1.666137 0.3538189
vt -1.497257 0.3538189
vt -1.328378 0.3538189
vt -1.666137 0.4846136
vt -1.497257 0.4846136
vt -1.328378 0.4846136
vt -1.635377 0.5018924
vt -1.491916 0.5018924
vt -1.348456 0.5018924
vt -1.635377 0.6453528
vt -1.491916 0.6453528
vt -1.348456 0.6453528
vt -1.983459 0.03697948
vt -1.831521 0.03697948
vt -1.679583 0.03697948
vt -1.983459 0.1889176
vt -1.831521 0.1889176
vt -1.679583 0.1889176
vt -1.392313 0.2041541
vt -1.197366 0.2041541
vt -1.002417 0.2041541
vt -1.392313 0.3476145
vt -1.197366 0.3476145
vt -1.002417 0.3476145
vt -1.676161 0.03697948
vt -1.481326 0.03697948
vt -1.676161 0.1889176
vt -1.481326 0.1889176
vt -1.578743 0.1889176
vt -1.578743 0.03697948
vt -1.676161 0.03697948
vt -1.481326 0.03697948
vt -1.676161 0.1889176
vt -1.481326 0.1889176
vt -1.578743 0.1889176
vt -1.578743 0.03697948
vt -1.983459 0.03697948
vt -1.831521 0.03697948
vt -1.679583 0.03697948
vt -1.983459 0.1889176
vt -1.831521 0.1889176
vt -1.679583 0.1889176
vt -1.392313 0.2041541
vt -1.197366 0.2041541
vt -1.002417 0.2041541
vt -1.392313 0.3476145
vt -1.197366 0.3476145
vt -1.002417 0.3476145
vt -1.311959 0.3580632
vt -1.162973 0.3580632
vt -1.013987 0.3580632
vt -1.311959 0.5070491
vt -1.162973 0.5070491
vt -1.013987 0.5070491
vt -1.323214 0.51732
vt -1.162973 0.51732
vt -1.002731 0.51732
vt -1.323214 0.6775613
vt -1.162973 0.6775613
vt -1.002731 0.6775613
vt -1.311959 0.3580632
vt -1.162973 0.3580632
vt -1.013987 0.3580632
vt -1.311959 0.5070491
vt -1.162973 0.5070491
vt -1.013987 0.5070491
vt -1.323214 0.51732
vt -1.162973 0.51732
vt -1.002731 0.51732
vt -1.323214 0.6775613
vt -1.162973 0.6775613
vt -1.002731 0.6775613
vt -1.979463 0.6278687
vt -1.979463 0.36494
vt -1.684822 0.36494
vt -1.684822 0.6278687
vt -1.827553 0.4951525
vt -1.980353 0.6302548
vt -1.980353 0.3625724
vt -1.683542 0.3625724
vt -1.683542 0.6302549
vt -1.825049 0.4918143
vt -1.47861 0.9203007
vt -1.47861 0.6944606
vt -1.239956 0.6944605
vt -1.239956 0.9213501
vt -1.357672 0.8064815
vt -1.474331 0.04331862
vt -1.39537 0.04331862
vt -1.316409 0.04331862
vt -1.237447 0.04331862
vt -1.158486 0.04331862
vt -1.079523 0.04331862
vt -1.474331 0.08012509
vt -1.39537 0.08012509
vt -1.316409 0.08012509
vt -1.237447 0.08012509
vt -1.158486 0.08012509
vt -1.079523 0.08012509
vt -1.474331 0.1169312
vt -1.39537 0.1169312
vt -1.316409 0.1169312
vt -1.237447 0.1169312
vt -1.158486 0.1169312
vt -1.079523 0.1169312
vt -1.434852 0.006512524
vt -1.434852 0.1537374
vt -1.003229 0.08012509
vt -1.003229 0.04331862
vt -1.003229 0.1169312
vt -1.35589 0.006512524
vt -1.276927 0.006512524
vt -1.197967 0.006512524
vt -1.119004 0.006512524
vt -1.040042 0.006512524
vt -1.35589 0.1537374
vt -1.276927 0.1537374
vt -1.197967 0.1537374
vt -1.119004 0.1537374
vt -1.040042 0.1537374
vn 0.7855975 -0.2462663 0.5676174
vn 0.7855975 -0.2462663 0.5676174
vn 0.7855975 -0.2462663 0.5676174
vn 0.7855975 -0.2462663 0.5676174
vn -0.6874333 0.3483099 -0.6372721
vn -0.963761 0.2667071 0.005658931
vn -0.6874333 0.3483099 -0.6372721
vn -0.963761 0.2667071 0.005658931
vn -0.882144 0.3285703 -0.3374368
vn -0.882144 0.3285703 -0.3374368
vn -0.924953 -0.3504308 -0.1471739
vn -0.8216016 -0.3362181 -0.4603566
vn -0.6287228 -0.2853687 -0.7233757
vn -0.924953 -0.3504308 -0.1471739
vn -0.8216016 -0.3362181 -0.4603566
vn -0.6287228 -0.2853687 -0.7233757
vn -0.9636553 -0.0916619 -0.2509311
vn -0.8463233 -0.3388655 -0.410983
vn -0.6439416 -0.5520155 -0.5297339
vn -0.9636553 -0.0916619 -0.2509311
vn -0.8463233 -0.3388655 -0.410983
vn -0.6439416 -0.5520155 -0.5297339
vn -0.6455936 -0.4948478 -0.5816653
vn -0.5241494 -0.2019563 -0.8273337
vn -0.3183762 0.1234273 -0.9398948
vn -0.6455936 -0.4948478 -0.5816653
vn -0.5241494 -0.2019563 -0.8273337
vn -0.3183762 0.1234273 -0.9398948
vn -0.7116881 -0.2368997 0.661346
vn -0.8933352 -0.2122939 0.3960853
vn -0.7653679 -0.5818835 0.2749972
vn -0.5848063 -0.6061406 0.5390689
vn -0.7649692 -0.4243991 0.4844662
vn -0.735593 0.6332779 -0.240545
vn -0.8843432 0.4485658 -0.1293282
vn -0.9724148 0.2330755 -0.009237713
vn -0.735593 0.6332779 -0.240545
vn -0.8843432 0.4485658 -0.1293282
vn -0.9724148 0.2330755 -0.009237713
vn 0.7762063 0.6011109 0.190183
vn 0.9127743 0.3637191 0.1858803
vn 0.9808622 0.09903959 0.167632
vn 0.7762063 0.6011109 0.190183
vn 0.9127743 0.3637191 0.1858803
vn 0.9808622 0.09903959 0.167632
vn 0.5595766 -0.3345153 0.7582701
vn 0.5447463 0.0954692 0.8331489
vn 0.4260255 0.5072464 0.749135
vn 0.5595766 -0.3345153 0.7582701
vn 0.5447463 0.0954692 0.8331489
vn 0.4260255 0.5072464 0.749135
vn 0.9236674 0.2305018 0.3061165
vn 0.8648433 -0.1466033 0.48016
vn 0.6538416 -0.497912 0.5697146
vn 0.9236674 0.2305018 0.3061165
vn 0.8648433 -0.1466033 0.48016
vn 0.6538416 -0.497912 0.5697146
vn -0.1445166 -0.6498126 -0.7462295
vn -0.1663629 -0.2738396 -0.9472778
vn -0.1578889 0.1520416 -0.9756815
vn -0.1445166 -0.6498126 -0.7462295
vn -0.1663629 -0.2738396 -0.9472778
vn -0.1578889 0.1520416 -0.9756815
vn -0.8051794 0.5118415 -0.2995069
vn -0.9177024 0.1838832 -0.3521495
vn -0.9173578 -0.1666907 -0.3614814
vn -0.8051794 0.5118415 -0.2995069
vn -0.9177024 0.1838832 -0.3521495
vn -0.9173578 -0.1666907 -0.3614814
vn -0.4753747 0.5695273 -0.6705652
vn -0.5201033 0.07657378 -0.8506638
vn -0.420535 -0.4376242 -0.7947549
vn -0.4753747 0.5695273 -0.6705652
vn -0.5201033 0.07657378 -0.8506638
vn -0.420535 -0.4376242 -0.7947549
vn 0.7264478 0.4112022 0.5506237
vn 0.8783048 0.4299598 0.2090821
vn 0.9071438 0.388496 -0.1617441
vn 0.7264478 0.4112022 0.5506237
vn 0.8783048 0.4299598 0.2090821
vn 0.9071438 0.388496 -0.1617441
vn -0.8512086 0.1005272 0.5151099
vn -0.4822915 0.1032793 0.8699013
vn 0.01297859 0.07897385 0.9967921
vn -0.8512086 0.1005272 0.5151099
vn -0.4822915 0.1032793 0.8699013
vn 0.01297859 0.07897385 0.9967921
vn 0.06344009 0.3735147 -0.9254524
vn -0.5899947 0.3912274 -0.7062913
vn 0.06344009 0.3735147 -0.9254524
vn -0.5899947 0.3912274 -0.7062913
vn -0.2804683 0.4073384 -0.869145
vn -0.2804683 0.4073384 -0.869145
vn -0.08891535 0.1654035 0.9822097
vn 0.590706 0.1475579 0.7932799
vn -0.08891535 0.1654035 0.9822097
vn 0.590706 0.1475579 0.7932799
vn 0.2681379 0.1672347 0.9487543
vn 0.2681379 0.1672347 0.9487543
vn -0.6931583 0.4467166 -0.5656641
vn -0.9014347 0.4232384 -0.09102014
vn -0.8670295 0.2858171 0.4081279
vn -0.6931583 0.4467166 -0.5656641
vn -0.9014347 0.4232384 -0.09102014
vn -0.8670295 0.2858171 0.4081279
vn 0.9216807 0.1845207 -0.3412578
vn 0.6263933 0.1990663 -0.7536606
vn 0.1698205 0.1623559 -0.972009
vn 0.9216807 0.1845207 -0.3412578
vn 0.6263933 0.1990663 -0.7536606
vn 0.1698205 0.1623559 -0.972009
vn 0.9744866 -0.2198816 -0.04503321
vn 0.907649 -0.2606383 0.3290001
vn 0.7082679 -0.2633342 0.6549897
vn 0.9744866 -0.2198816 -0.04503321
vn 0.907649 -0.2606383 0.3290001
vn 0.7082679 -0.2633342 0.6549897
vn 0.6463567 -0.2418194 0.7237032
vn 0.2916032 -0.2402726 0.9258707
vn -0.1117676 -0.1986666 0.9736733
vn 0.6463567 -0.2418194 0.7237032
vn 0.2916032 -0.2402726 0.9258707
vn -0.1117676 -0.1986666 0.9736733
vn -0.5228949 -0.1822947 -0.8326761
vn -0.09240244 -0.2553065 -0.9624346
vn 0.3572628 -0.2753443 -0.8924959
vn -0.5228949 -0.1822947 -0.8326761
vn -0.09240244 -0.2553065 -0.9624346
vn 0.3572628 -0.2753443 -0.8924959
vn -0.8647116 -0.4563537 0.2097977
vn -0.8667153 -0.472414 -0.1600921
vn -0.7499093 -0.4237157 -0.5080366
vn -0.8647116 -0.4563537 0.2097977
vn -0.8667153 -0.472414 -0.1600921
vn -0.7499093 -0.4237157 -0.5080366
vn 0.1092192 0.2357861 0.9656479
vn 0.09771129 -0.2492159 0.9635061
vn 0.4512233 -0.3270326 0.8303297
vn 0.4739268 0.1565429 0.8665377
vn 0.2975851 -0.04852078 0.9534615
vn -0.06632513 0.2301637 -0.9708891
vn -0.03997859 -0.5418173 -0.839545
vn -0.6469772 -0.3507106 -0.6770692
vn -0.6040342 0.4391766 -0.6650314
vn -0.3924437 -0.06309339 -0.9176095
vn 0.6672658 0.6622187 0.3409143
vn 0.6921191 0.3827838 0.6119212
vn 0.9011478 0.1293032 0.4137793
vn 0.8970323 0.4158488 0.1496759
vn 0.8208271 0.4126954 0.3948737
vn 0.09189278 -0.8698588 0.4846661
vn 0.4947059 -0.8690552 -0.003011405
vn 0.3097093 -0.8155928 -0.4887622
vn -0.1903574 -0.8329821 -0.5195238
vn -0.5479933 -0.8320115 -0.08637334
vn -0.4219933 -0.8152317 0.3966343
vn 0.3366955 0.04663406 0.9404581
vn 0.987822 0.04645706 0.1484905
vn 0.6323649 0.01846577 -0.7744506
vn -0.3448126 -2.681036E-07 -0.9386715
vn -0.9876467 0 -0.1566969
vn -0.6411517 0.01850984 0.7671909
vn 0.190357 0.8329849 0.5195194
vn 0.5479934 0.8320115 0.08637335
vn 0.3570436 0.828158 -0.4320581
vn -0.1903588 0.8329819 -0.5195234
vn -0.5479928 0.8320118 -0.08637303
vn -0.3570416 0.82816 0.4320559
vn -0.0962462 -0.9922261 -0.07889167
vn 1.168424E-06 1 -8.269251E-07
vn 0.3366955 0.04663406 0.9404581
vn 0.09189278 -0.8698588 0.4846661
vn 0.190357 0.8329849 0.5195194
vn -0.0962462 -0.9922261 -0.07889167
vn -0.0962462 -0.9922261 -0.07889167
vn -0.0962462 -0.9922261 -0.07889167
vn -0.0962462 -0.9922261 -0.07889167
vn -0.0962462 -0.9922261 -0.07889167
vn 1.168424E-06 1 -8.269251E-07
vn 1.168424E-06 1 -8.269251E-07
vn 1.168424E-06 1 -8.269251E-07
vn 1.168424E-06 1 -8.269251E-07
vn 1.168424E-06 1 -8.269251E-07
g B5_tree03_geo_0
f 1/1/1 4/4/4 3/3/3
f 2/2/2 4/4/4 1/1/1
f 9/9/9 7/7/7 5/5/5
f 10/10/10 9/9/9 5/5/5
f 8/8/8 9/9/9 10/10/10
f 6/6/6 8/8/8 10/10/10
f 12/12/12 13/13/13 16/16/16
f 15/15/15 12/12/12 16/16/16
f 11/11/11 12/12/12 15/15/15
f 14/14/14 11/11/11 15/15/15
f 18/18/18 20/20/20 17/17/17
f 21/21/21 20/20/20 18/18/18
f 22/22/22 21/21/21 18/18/18
f 22/22/22 18/18/18 19/19/19
f 24/24/24 26/26/26 23/23/23
f 27/27/27 26/26/26 24/24/24
f 28/28/28 27/27/27 24/24/24
f 28/28/28 24/24/24 25/25/25
f 35/35/35 37/37/37 34/34/34
f 38/38/38 37/37/37 35/35/35
f 39/39/39 38/38/38 35/35/35
f 39/39/39 35/35/35 36/36/36
f 41/41/41 43/43/43 40/40/40
f 44/44/44 43/43/43 41/41/41
f 45/45/45 44/44/44 41/41/41
f 45/45/45 41/41/41 42/42/42
f 47/47/47 49/49/49 46/46/46
f 50/50/50 49/49/49 47/47/47
f 51/51/51 50/50/50 47/47/47
f 51/51/51 47/47/47 48/48/48
f 53/53/53 55/55/55 52/52/52
f 56/56/56 55/55/55 53/53/53
f 57/57/57 56/56/56 53/53/53
f 57/57/57 53/53/53 54/54/54
f 59/59/59 61/61/61 58/58/58
f 62/62/62 61/61/61 59/59/59
f 63/63/63 62/62/62 59/59/59
f 63/63/63 59/59/59 60/60/60
f 65/65/65 67/67/67 64/64/64
f 68/68/68 67/67/67 65/65/65
f 69/69/69 68/68/68 65/65/65
f 69/69/69 65/65/65 66/66/66
f 71/71/71 73/73/73 70/70/70
f 74/74/74 73/73/73 71/71/71
f 75/75/75 74/74/74 71/71/71
f 75/75/75 71/71/71 72/72/72
f 77/77/77 78/78/78 81/81/81
f 80/80/80 77/77/77 81/81/81
f 76/76/76 77/77/77 80/80/80
f 79/79/79 76/76/76 80/80/80
f 83/83/83 84/84/84 87/87/87
f 86/86/86 83/83/83 87/87/87
f 82/82/82 83/83/83 86/86/86
f 85/85/85 82/82/82 86/86/86
f 92/92/92 90/90/90 88/88/88
f 93/93/93 92/92/92 88/88/88
f 91/91/91 92/92/92 93/93/93
f 89/89/89 91/91/91 93/93/93
f 98/98/98 96/96/96 94/94/94
f 99/99/99 98/98/98 94/94/94
f 97/97/97 98/98/98 99/99/99
f 95/95/95 97/97/97 99/99/99
f 101/101/101 102/102/102 105/105/105
f 104/104/104 101/101/101 105/105/105
f 100/100/100 101/101/101 104/104/104
f 103/103/103 100/100/100 104/104/104
f 107/107/107 108/108/108 111/111/111
f 110/110/110 107/107/107 111/111/111
f 106/106/106 107/107/107 110/110/110
f 109/109/109 106/106/106 110/110/110
f 113/113/113 114/114/114 117/117/117
f 116/116/116 113/113/113 117/117/117
f 112/112/112 113/113/113 116/116/116
f 115/115/115 112/112/112 116/116/116
f 119/119/119 120/120/120 123/123/123
f 122/122/122 119/119/119 123/123/123
f 118/118/118 119/119/119 122/122/122
f 121/121/121 118/118/118 122/122/122
f 125/125/125 126/126/126 129/129/129
f 128/128/128 125/125/125 129/129/129
f 124/124/124 125/125/125 128/128/128
f 127/127/127 124/124/124 128/128/128
f 131/131/131 132/132/132 135/135/135
f 134/134/134 131/131/131 135/135/135
f 130/130/130 131/131/131 134/134/134
f 133/133/133 130/130/130 134/134/134
f 164/164/164 170/170/170 163/163/163
f 157/157/157 164/164/164 163/163/163
f 158/158/158 164/164/164 157/157/157
f 151/151/151 158/158/158 157/157/157
f 152/152/152 158/158/158 151/151/151
f 169/169/169 152/152/152 151/151/151
f 165/165/165 179/179/179 164/164/164
f 158/158/158 165/165/165 164/164/164
f 159/159/159 165/165/165 158/158/158
f 152/152/152 159/159/159 158/158/158
f 153/153/153 159/159/159 152/152/152
f 174/174/174 153/153/153 152/152/152
f 166/166/166 180/180/180 165/165/165
f 159/159/159 166/166/166 165/165/165
f 160/160/160 166/166/166 159/159/159
f 153/153/153 160/160/160 159/159/159
f 154/154/154 160/160/160 153/153/153
f 175/175/175 154/154/154 153/153/153
f 167/167/167 181/181/181 166/166/166
f 160/160/160 167/167/167 166/166/166
f 161/161/161 167/167/167 160/160/160
f 154/154/154 161/161/161 160/160/160
f 155/155/155 161/161/161 154/154/154
f 176/176/176 155/155/155 154/154/154
f 168/168/168 182/182/182 167/167/167
f 161/161/161 168/168/168 167/167/167
f 162/162/162 168/168/168 161/161/161
f 155/155/155 162/162/162 161/161/161
f 156/156/156 162/162/162 155/155/155
f 177/177/177 156/156/156 155/155/155
f 173/173/173 183/183/183 168/168/168
f 162/162/162 173/173/173 168/168/168
f 171/171/171 173/173/173 162/162/162
f 156/156/156 171/171/171 162/162/162
f 172/172/172 171/171/171 156/156/156
f 178/178/178 172/172/172 156/156/156
f 33/33/33 30/30/30 31/31/31
f 29/29/29 30/30/30 33/33/33
f 32/32/32 29/29/29 33/33/33
f 33/33/33 31/31/31 32/32/32
f 140/140/140 137/137/137 138/138/138
f 136/136/136 137/137/137 140/140/140
f 139/139/139 136/136/136 140/140/140
f 140/140/140 138/138/138 139/139/139
f 145/145/145 142/142/142 143/143/143
f 141/141/141 142/142/142 145/145/145
f 144/144/144 141/141/141 145/145/145
f 145/145/145 143/143/143 144/144/144
f 150/150/150 147/147/147 148/148/148
f 146/146/146 147/147/147 150/150/150
f 149/149/149 146/146/146 150/150/150
f 150/150/150 148/148/148 149/149/149
