g B5_window_geo
v 69.48182 2.315708 243.9218
v 69.48182 2.010176 243.9218
v 69.21298 2.010176 243.9218
v 69.21298 2.315708 243.9218
v 77.47209 1.463896 243.9218
v 77.47209 1.154948 243.9218
v 77.20679 1.154948 243.9218
v 77.20679 1.463896 243.9218
v 68.0108 1.809496 245.7603
v 68.0108 1.809496 246.2762
v 68.0108 2.299382 246.2762
v 68.0108 2.299382 245.7603
v 68.01077 2.421271 246.2762
v 68.01077 2.421269 245.7603
v 68.01077 2.895653 246.2762
v 68.01077 2.895653 245.7603
v 68.0108 1.809496 246.404
v 68.0108 2.299382 246.404
v 68.0108 1.809496 246.9377
v 68.0108 2.299382 246.9377
v 68.01078 2.421267 246.404
v 68.01078 2.895651 246.404
v 68.01078 2.421267 246.9376
v 68.01078 2.895651 246.9376
v 68.0108 1.809496 251.1864
v 68.0108 1.809496 251.7024
v 68.0108 2.299382 251.7024
v 68.0108 2.299382 251.1864
v 68.01077 2.421271 251.7024
v 68.01077 2.421269 251.1864
v 68.01077 2.895654 251.7024
v 68.01077 2.895654 251.1864
v 68.01077 1.809496 251.8302
v 68.01077 2.299382 251.8302
v 68.01077 1.809496 252.3638
v 68.01077 2.299382 252.3638
v 77.10898 1.463896 243.9218
v 77.10898 1.154948 243.9218
v 76.84019 1.154948 243.9218
v 76.84019 1.463896 243.9218
v 76.74588 1.463896 243.9218
v 76.74588 1.154948 243.9218
v 76.47706 1.154948 243.9218
v 76.47706 1.463896 243.9218
v 76.74589 1.877136 243.9218
v 76.74589 1.576814 243.9218
v 76.47706 1.576814 243.9218
v 76.47706 1.877136 243.9218
v 77.10898 1.877136 243.9218
v 77.10898 1.576814 243.9218
v 76.84019 1.576814 243.9218
v 76.84019 1.877136 243.9218
v 77.47209 1.877137 243.9218
v 77.47209 1.576814 243.9218
v 77.20679 1.576814 243.9218
v 77.20679 1.877137 243.9218
v 77.47209 2.315707 243.9218
v 77.47209 2.010176 243.9218
v 77.20679 2.010176 243.9218
v 77.20679 2.315707 243.9218
v 77.10898 2.315708 243.9218
v 77.10898 2.010176 243.9218
v 76.84019 2.010176 243.9218
v 76.84019 2.315708 243.9218
v 76.74589 2.732364 243.9218
v 76.74589 2.429963 243.9218
v 76.47706 2.429963 243.9218
v 76.47706 2.732364 243.9218
v 77.10899 2.732363 243.9218
v 77.10899 2.429963 243.9218
v 76.84019 2.429963 243.9218
v 76.84019 2.732363 243.9218
v 77.47209 2.732363 243.9218
v 77.47209 2.429963 243.9218
v 77.20679 2.429963 243.9218
v 77.20679 2.732363 243.9218
v 76.74589 2.315708 243.9218
v 76.74589 2.010176 243.9218
v 76.47706 2.010176 243.9218
v 76.47706 2.315708 243.9218
v 68.01077 2.421268 251.8302
v 68.01077 2.895652 251.8302
v 68.01077 2.421268 252.3638
v 68.01077 2.895652 252.3638
v 70.20804 2.732364 243.9218
v 70.20804 2.429963 243.9218
v 69.94272 2.429963 243.9218
v 69.94272 2.732364 243.9218
v 69.84491 2.732364 243.9218
v 69.84491 2.429963 243.9218
v 69.57613 2.429963 243.9218
v 69.57613 2.732364 243.9218
v 69.48183 2.732364 243.9218
v 69.48183 2.429963 243.9218
v 69.21299 2.429963 243.9218
v 69.21299 2.732364 243.9218
v 79.33656 6.426394 248.3064
v 79.33656 6.245294 248.2884
v 79.33661 6.245294 249.5811
v 79.33663 6.426394 249.563
v 79.33663 6.647806 249.5108
v 79.33663 6.881263 249.2852
v 79.33658 6.974394 248.9299
v 79.33656 6.873762 248.5687
v 79.33656 6.677717 248.37
v 79.33662 5.337237 249.5811
v 79.33662 6.06156 249.5811
v 79.33656 6.06156 248.2884
v 79.33656 5.337237 248.2884
v 70.20804 1.463896 243.9217
v 70.20804 1.154948 243.9217
v 69.94272 1.154948 243.9217
v 69.94272 1.463896 243.9217
v 69.84491 1.463896 243.9218
v 69.84491 1.154948 243.9218
v 69.57613 1.154948 243.9218
v 69.57613 1.463896 243.9218
v 69.48183 1.463896 243.9217
v 69.48183 1.154948 243.9217
v 69.21299 1.154948 243.9217
v 69.21299 1.463896 243.9217
v 69.48184 1.877136 243.9218
v 69.48184 1.576813 243.9218
v 69.213 1.576813 243.9218
v 69.213 1.877136 243.9218
v 69.84491 1.877136 243.9218
v 69.84491 1.576814 243.9218
v 69.57613 1.576814 243.9218
v 69.57613 1.877136 243.9218
v 70.20804 1.877136 243.9218
v 70.20804 1.576814 243.9218
v 69.94272 1.576814 243.9218
v 69.94272 1.877136 243.9218
v 70.20804 2.315708 243.9218
v 70.20804 2.010176 243.9218
v 69.94272 2.010176 243.9218
v 69.94272 2.315708 243.9218
v 69.84491 2.315708 243.9218
v 69.84491 2.010176 243.9218
v 69.57613 2.010176 243.9218
v 69.57613 2.315708 243.9218
vt 0.6405122 0.3528137
vt 0.6405122 0.3528137
vt 0.6405122 0.3528137
vt 0.6405122 0.3528137
vt 0.6405122 0.3528137
vt 0.6405122 0.3528137
vt 0.6405122 0.3528137
vt 0.6405122 0.3528137
vt 0.6417205 0.2842632
vt 0.6417205 0.2842632
vt 0.6417205 0.2842632
vt 0.6417205 0.2842632
vt 0.6417205 0.2842632
vt 0.6417205 0.2842632
vt 0.6417205 0.2842632
vt 0.6417205 0.2842632
vt 0.6417205 0.2842632
vt 0.6417205 0.2842632
vt 0.6417205 0.2842632
vt 0.6417205 0.2842632
vt 0.6417205 0.2842632
vt 0.6417205 0.2842632
vt 0.6417205 0.2842632
vt 0.6417205 0.2842632
vt 0.6417205 0.2842632
vt 0.6417205 0.2842632
vt 0.6417205 0.2842632
vt 0.6417205 0.2842632
vt 0.6417205 0.2842632
vt 0.6417205 0.2842632
vt 0.6417205 0.2842632
vt 0.6417205 0.2842632
vt 0.6417205 0.2842632
vt 0.6417205 0.2842632
vt 0.6417205 0.2842632
vt 0.6417205 0.2842632
vt 0.6405122 0.3528137
vt 0.6405122 0.3528137
vt 0.6405122 0.3528137
vt 0.6405122 0.3528137
vt 0.6405122 0.3528137
vt 0.6405122 0.3528137
vt 0.6405122 0.3528137
vt 0.6405122 0.3528137
vt 0.6405122 0.3528137
vt 0.6405122 0.3528137
vt 0.6405122 0.3528137
vt 0.6405122 0.3528137
vt 0.6405122 0.3528137
vt 0.6405122 0.3528137
vt 0.6405122 0.3528137
vt 0.6405122 0.3528137
vt 0.6405122 0.3528137
vt 0.6405122 0.3528137
vt 0.6405122 0.3528137
vt 0.6405122 0.3528137
vt 0.6405122 0.3528137
vt 0.6405122 0.3528137
vt 0.6405122 0.3528137
vt 0.6405122 0.3528137
vt 0.6405122 0.3528137
vt 0.6405122 0.3528137
vt 0.6405122 0.3528137
vt 0.6405122 0.3528137
vt 0.6405122 0.3528137
vt 0.6405122 0.3528137
vt 0.6405122 0.3528137
vt 0.6405122 0.3528137
vt 0.6405122 0.3528137
vt 0.6405122 0.3528137
vt 0.6405122 0.3528137
vt 0.6405122 0.3528137
vt 0.6405122 0.3528137
vt 0.6405122 0.3528137
vt 0.6405122 0.3528137
vt 0.6405122 0.3528137
vt 0.6405122 0.3528137
vt 0.6405122 0.3528137
vt 0.6405122 0.3528137
vt 0.6405122 0.3528137
vt 0.6417205 0.2842632
vt 0.6417205 0.2842632
vt 0.6417205 0.2842632
vt 0.6417205 0.2842632
vt 0.6405122 0.3528137
vt 0.6405122 0.3528137
vt 0.6405122 0.3528137
vt 0.6405122 0.3528137
vt 0.6405122 0.3528137
vt 0.6405122 0.3528137
vt 0.6405122 0.3528137
vt 0.6405122 0.3528137
vt 0.6405122 0.3528137
vt 0.6405122 0.3528137
vt 0.6405122 0.3528137
vt 0.6405122 0.3528137
vt 0.6405122 0.3528137
vt 0.6405122 0.3528137
vt 0.6405122 0.3528137
vt 0.6405122 0.3528137
vt 0.6405122 0.3528137
vt 0.6405122 0.3528137
vt 0.6405122 0.3528137
vt 0.6405122 0.3528137
vt 0.6405122 0.3528137
vt 0.6405122 0.3528137
vt 0.6405122 0.3528137
vt 0.6405122 0.3528137
vt 0.6405122 0.3528137
vt 0.6405122 0.3528137
vt 0.6405122 0.3528137
vt 0.6405122 0.3528137
vt 0.6405122 0.3528137
vt 0.6405122 0.3528137
vt 0.6405122 0.3528137
vt 0.6405122 0.3528137
vt 0.6405122 0.3528137
vt 0.6405122 0.3528137
vt 0.6405122 0.3528137
vt 0.6405122 0.3528137
vt 0.6405122 0.3528137
vt 0.6405122 0.3528137
vt 0.6405122 0.3528137
vt 0.6405122 0.3528137
vt 0.6405122 0.3528137
vt 0.6405122 0.3528137
vt 0.6405122 0.3528137
vt 0.6405122 0.3528137
vt 0.6405122 0.3528137
vt 0.6405122 0.3528137
vt 0.6405122 0.3528137
vt 0.6405122 0.3528137
vt 0.6405122 0.3528137
vt 0.6405122 0.3528137
vt 0.6405122 0.3528137
vt 0.6405122 0.3528137
vt 0.6405122 0.3528137
vt 0.6405122 0.3528137
vt 0.6405122 0.3528137
vt 0.6405122 0.3528137
vt 0.6405122 0.3528137
vn 0 0 -1
vn 0 0 -1
vn 0 0 -1
vn 0 0 -1
vn 0 0 -1
vn 0 0 -1
vn 0 0 -1
vn 0 0 -1
vn -1 0 0
vn -1 0 0
vn -1 0 0
vn -1 0 0
vn -1 0 0
vn -1 0 0
vn -1 0 0
vn -1 0 0
vn -1 0 0
vn -1 0 0
vn -1 0 0
vn -1 0 0
vn -1 0 0
vn -1 0 0
vn -1 0 0
vn -1 0 0
vn -1 0 0
vn -1 0 0
vn -1 0 0
vn -1 0 0
vn -1 0 0
vn -1 0 0
vn -1 0 0
vn -1 0 0
vn -1 0 0
vn -1 0 0
vn -1 0 0
vn -1 0 0
vn 0 0 -1
vn 0 0 -1
vn 0 0 -1
vn 0 0 -1
vn 0 0 -1
vn 0 0 -1
vn 0 0 -1
vn 0 0 -1
vn 0 0 -1
vn 0 0 -1
vn 0 0 -1
vn 0 0 -1
vn -1.389875E-05 0 -1
vn -1.389875E-05 0 -1
vn -1.389875E-05 0 -1
vn -1.389875E-05 0 -1
vn 0 0 -1
vn 0 0 -1
vn 0 0 -1
vn 0 0 -1
vn 0 0 -1
vn 0 0 -1
vn 0 0 -1
vn 0 0 -1
vn 0 0 -1
vn 0 0 -1
vn 0 0 -1
vn 0 0 -1
vn 0 0 -1
vn 0 0 -1
vn 0 0 -1
vn 0 0 -1
vn 0 0 -1
vn 0 0 -1
vn 0 0 -1
vn 0 0 -1
vn 0 0 -1
vn 0 0 -1
vn 0 0 -1
vn 0 0 -1
vn 0 0 -1
vn 0 0 -1
vn 0 0 -1
vn 0 0 -1
vn -1 0 0
vn -1 0 0
vn -1 0 0
vn -1 0 0
vn 0 0 -1
vn 0 0 -1
vn 0 0 -1
vn 0 0 -1
vn 0 0 -1
vn 0 0 -1
vn 0 0 -1
vn 0 0 -1
vn 0 0 -1
vn 0 0 -1
vn 0 0 -1
vn 0 0 -1
vn 1 -1.2138E-05 -6.434972E-05
vn 1 -1.2138E-05 -6.434972E-05
vn 1 -1.2138E-05 -6.434972E-05
vn 1 -1.2138E-05 -6.434972E-05
vn 1 -1.2138E-05 -6.434972E-05
vn 1 -1.2138E-05 -6.434972E-05
vn 1 -1.2138E-05 -6.434972E-05
vn 1 -1.2138E-05 -6.434972E-05
vn 1 -1.2138E-05 -6.434972E-05
vn 1 0 -4.910229E-05
vn 1 0 -4.910229E-05
vn 1 0 -4.910229E-05
vn 1 0 -4.910229E-05
vn 0 0 -1
vn 0 0 -1
vn 0 0 -1
vn 0 0 -1
vn 0 0 -1
vn 0 0 -1
vn 0 0 -1
vn 0 0 -1
vn 0 0 -1
vn 0 0 -1
vn 0 0 -1
vn 0 0 -1
vn 0 0 -1
vn 0 0 -1
vn 0 0 -1
vn 0 0 -1
vn 0 0 -1
vn 0 0 -1
vn 0 0 -1
vn 0 0 -1
vn 0 0 -1
vn 0 0 -1
vn 0 0 -1
vn 0 0 -1
vn 0 0 -1
vn 0 0 -1
vn 0 0 -1
vn 0 0 -1
vn 0 0 -1
vn 0 0 -1
vn 0 0 -1
vn 0 0 -1
g B5_window_geo_0
f 3/3/3 1/1/1 2/2/2
f 4/4/4 1/1/1 3/3/3
f 7/7/7 5/5/5 6/6/6
f 8/8/8 5/5/5 7/7/7
f 11/11/11 9/9/9 10/10/10
f 12/12/12 9/9/9 11/11/11
f 15/15/15 14/14/14 13/13/13
f 16/16/16 14/14/14 15/15/15
f 19/19/19 18/18/18 17/17/17
f 20/20/20 18/18/18 19/19/19
f 23/23/23 22/22/22 21/21/21
f 24/24/24 22/22/22 23/23/23
f 27/27/27 25/25/25 26/26/26
f 28/28/28 25/25/25 27/27/27
f 31/31/31 30/30/30 29/29/29
f 32/32/32 30/30/30 31/31/31
f 35/35/35 34/34/34 33/33/33
f 36/36/36 34/34/34 35/35/35
f 39/39/39 37/37/37 38/38/38
f 40/40/40 37/37/37 39/39/39
f 43/43/43 41/41/41 42/42/42
f 44/44/44 41/41/41 43/43/43
f 47/47/47 45/45/45 46/46/46
f 48/48/48 45/45/45 47/47/47
f 51/51/51 49/49/49 50/50/50
f 52/52/52 49/49/49 51/51/51
f 55/55/55 53/53/53 54/54/54
f 56/56/56 53/53/53 55/55/55
f 59/59/59 57/57/57 58/58/58
f 60/60/60 57/57/57 59/59/59
f 63/63/63 61/61/61 62/62/62
f 64/64/64 61/61/61 63/63/63
f 67/67/67 65/65/65 66/66/66
f 68/68/68 65/65/65 67/67/67
f 71/71/71 69/69/69 70/70/70
f 72/72/72 69/69/69 71/71/71
f 75/75/75 73/73/73 74/74/74
f 76/76/76 73/73/73 75/75/75
f 79/79/79 77/77/77 78/78/78
f 80/80/80 77/77/77 79/79/79
f 83/83/83 82/82/82 81/81/81
f 84/84/84 82/82/82 83/83/83
f 87/87/87 85/85/85 86/86/86
f 88/88/88 85/85/85 87/87/87
f 91/91/91 89/89/89 90/90/90
f 92/92/92 89/89/89 91/91/91
f 95/95/95 93/93/93 94/94/94
f 96/96/96 93/93/93 95/95/95
f 97/97/97 99/99/99 98/98/98
f 100/100/100 99/99/99 97/97/97
f 105/105/105 100/100/100 97/97/97
f 101/101/101 100/100/100 105/105/105
f 102/102/102 101/101/101 105/105/105
f 102/102/102 104/104/104 103/103/103
f 105/105/105 104/104/104 102/102/102
f 108/108/108 106/106/106 109/109/109
f 107/107/107 106/106/106 108/108/108
f 112/112/112 110/110/110 111/111/111
f 113/113/113 110/110/110 112/112/112
f 116/116/116 114/114/114 115/115/115
f 117/117/117 114/114/114 116/116/116
f 120/120/120 118/118/118 119/119/119
f 121/121/121 118/118/118 120/120/120
f 124/124/124 122/122/122 123/123/123
f 125/125/125 122/122/122 124/124/124
f 128/128/128 126/126/126 127/127/127
f 129/129/129 126/126/126 128/128/128
f 132/132/132 130/130/130 131/131/131
f 133/133/133 130/130/130 132/132/132
f 136/136/136 134/134/134 135/135/135
f 137/137/137 134/134/134 136/136/136
f 140/140/140 138/138/138 139/139/139
f 141/141/141 138/138/138 140/140/140
