g backdrop_detailRoofingSuburbs_geo
v -212.4927 3.427967 -100.3378
v -214.1999 6.339345 -100.3378
v -215.9055 3.427967 -100.3378
v -212.4927 3.427966 -98.12836
v -214.1999 6.339345 -95.34901
v -212.7239 3.823516 -98.22942
v -215.9055 3.427967 -98.39413
v -215.8062 3.586196 -98.50346
v -218.9421 7.210337 -94.33347
v -221.4358 3.586282 -90.17984
v -216.4711 3.586196 -98.48846
v -207.8971 3.586196 -98.48846
v -207.8971 7.210337 -94.33347
v -207.8971 3.586281 -90.17984
v -221.4508 3.586282 -90.17984
v -216.4861 3.586196 -98.48846
v -218.9571 7.210337 -94.33347
v -216.4859 3.586196 -99.20167
v -218.9571 7.210337 -99.20167
v -221.4508 3.58587 -99.20167
v -208.9874 3.28439 -80.69045
v -208.9874 3.284392 -89.75532
v -208.9062 3.130035 -80.69044
v -208.9062 3.130038 -89.75532
v -208.9944 3.297665 -80.69045
v -206.2811 6.421782 -80.69044
v -208.9944 3.297665 -89.75532
v -206.2811 6.421781 -89.75532
v -203.5688 3.297665 -80.69044
v -203.5688 3.297665 -89.75532
v 23.39054 10.41883 -205.2177
v 23.39053 8.347101 -200.2209
v 23.39054 8.333188 -210.2938
v 11.40429 8.347101 -200.223
v 11.40429 10.41883 -205.2177
v 11.40429 8.333188 -210.2938
v 20.05176 10.19721 -201.4807
v 20.05176 10.19721 -204.2622
v 19.14859 11.05524 -204.2622
v 19.14859 11.05524 -201.4807
v 18.24542 10.19721 -201.4807
v 18.24542 10.19721 -204.2622
v 16.35092 10.19721 -201.4807
v 16.35092 10.19721 -204.2622
v 15.42648 11.05524 -204.2622
v 15.42648 11.05524 -201.4807
v 14.54457 10.19721 -201.4807
v 14.54457 10.19721 -204.2622
v 6.627332 5.501328 -203.6473
v 6.627332 7.210258 -206.1527
v 6.627332 5.499843 -208.5487
v 11.76435 5.501328 -203.6473
v 11.76467 7.215647 -206.1527
v 11.76403 5.499843 -208.5487
v 26.19698 6.223744 -203.0444
v 22.95297 6.22318 -203.0425
v 26.19698 7.613867 -205.6959
v 22.95297 7.613867 -205.6959
v 26.19698 6.255108 -208.2953
v 22.96704 6.252412 -208.2937
v 97.13907 2.341425 27.56505
v 97.13907 3.345047 26.10073
v 96.04761 2.341425 27.56505
v 96.04761 3.345046 26.10073
v 79.72958 7.340267 26.10073
v 96.75127 7.340269 26.10073
v 96.7515 3.905452 21.69264
v 75.3215 3.905449 21.69264
v 84.13766 3.905451 30.50881
v 96.7515 3.905452 30.50881
v 79.71458 7.340269 26.10073
v 79.71458 7.340269 42.99262
v 84.12267 3.905452 42.99285
v 84.12267 3.905452 30.50881
v 75.3065 3.905451 21.69264
v 75.3065 3.905452 42.99285
v 97.13907 2.341425 24.6364
v 96.04761 2.341425 24.6364
v -214.1999 6.339345 -100.3378
v -214.1999 6.339345 -95.34901
v -218.9421 7.210337 -94.33347
v -207.8971 7.210337 -94.33347
v -218.9571 7.210337 -99.20167
v -218.9571 7.210337 -94.33347
v -206.2811 6.421782 -80.69044
v -206.2811 6.421781 -89.75532
v 11.40429 10.41883 -205.2177
v 23.39054 10.41883 -205.2177
v 19.14859 11.05524 -204.2622
v 19.14859 11.05524 -201.4807
v 15.42648 11.05524 -204.2622
v 15.42648 11.05524 -201.4807
v 11.76467 7.215647 -206.1527
v 6.627332 7.210258 -206.1527
v 22.95297 7.613867 -205.6959
v 26.19698 7.613867 -205.6959
v 79.72958 7.340267 26.10073
v 96.75127 7.340269 26.10073
v 79.71458 7.340269 26.10073
v 79.71458 7.340269 42.99262
v 97.13907 3.345047 26.10073
v 96.04761 3.345046 26.10073
vt 0.1302781 0.7785795
vt 0.1302781 0.8003775
vt 0.1344169 0.8141852
vt 0.1302781 0.7785795
vt 0.1302781 0.8003774
vt 0.1302781 0.7866973
vt 0.1344169 0.8141852
vt 0.1344169 0.8188822
vt 0.1302781 0.8359832
vt 0.1302781 0.7786743
vt 0.1302781 0.8141852
vt 0.1302781 0.8141852
vt 0.1302781 0.8359832
vt 0.1302781 0.7786743
vt 0.1344169 0.7990409
vt 0.1302781 0.7819421
vt 0.1302781 0.8037401
vt 0.1302781 0.7819421
vt 0.1302781 0.8037401
vt 0.1344169 0.7990409
vt 0.1358658 0.7940558
vt 0.1358658 0.7940558
vt 0.1358658 0.7940558
vt 0.1358658 0.7940558
vt 0.1344169 0.8141852
vt 0.1344169 0.8359832
vt 0.1344169 0.8141851
vt 0.1344169 0.8359832
vt 0.1302781 0.7819421
vt 0.1302781 0.7819421
vt 0.7221482 0.4176509
vt 0.7221482 0.377336
vt 0.7152443 0.3616318
vt 0.7221482 0.377336
vt 0.7221482 0.4176509
vt 0.7152443 0.3616318
vt 0.7110119 0.3835548
vt 0.7110119 0.3835548
vt 0.7110118 0.4238696
vt 0.7110118 0.4238696
vt 0.7110118 0.360964
vt 0.7110118 0.360964
vt 0.7110119 0.3835548
vt 0.7110119 0.3835548
vt 0.7110117 0.4238696
vt 0.7110117 0.4238696
vt 0.7110119 0.360964
vt 0.7110119 0.360964
vt 0.7221481 0.377336
vt 0.7221482 0.4176509
vt 0.7152443 0.3616318
vt 0.7221481 0.377336
vt 0.7221482 0.4176509
vt 0.7152443 0.3616318
vt 0.7221482 0.377336
vt 0.7221482 0.377336
vt 0.7221482 0.4176509
vt 0.7221482 0.4176509
vt 0.7152443 0.3616318
vt 0.7152443 0.3616318
vt 0.7920363 0.3902473
vt 0.7920363 0.4046536
vt 0.7920363 0.3902473
vt 0.7920363 0.4046536
vt 0.779645 0.434359
vt 0.779645 0.434359
vt 0.779645 0.4185044
vt 0.779645 0.4185044
vt 0.790445 0.3888492
vt 0.790445 0.3888492
vt 0.790445 0.4350763
vt 0.790445 0.4350763
vt 0.790445 0.4176714
vt 0.790445 0.4176714
vt 0.779645 0.3892439
vt 0.779645 0.3892439
vt 0.778054 0.4188677
vt 0.778054 0.4188677
vt 0.1344169 0.8359832
vt 0.1344169 0.8359832
vt 0.1302781 0.8004723
vt 0.1302781 0.8004723
vt 0.1344169 0.8208389
vt 0.1344169 0.8208389
vt 0.1302781 0.8038574
vt 0.1302781 0.8038574
vt 0.7152443 0.3970749
vt 0.7152443 0.3970749
vt 0.7110117 0.394491
vt 0.7110119 0.394491
vt 0.7110118 0.394491
vt 0.7110118 0.394491
vt 0.7152443 0.3970749
vt 0.7152443 0.3970749
vt 0.7152443 0.3970749
vt 0.7152443 0.3970749
vt 0.790445 0.4070809
vt 0.790445 0.4070809
vt 0.779645 0.4058518
vt 0.779645 0.4058517
vt 0.778054 0.4313957
vt 0.778054 0.4313957
vn 0.8627172 0.5056866 -0.0002633592
vn -0.0006569279 0.9999988 0.001401103
vn -0.8470918 0.5314465 -2.689768E-07
vn 0.8627172 0.5056866 -0.0002633592
vn -0.0012025 0.9999993 0
vn 0.8626169 0.5058577 -0.0001316796
vn -0.8470918 0.5314465 -2.689768E-07
vn -0.8470918 0.5314465 -2.689768E-07
vn 0 1 7.569649E-05
vn -1.116053E-07 0.7535076 0.6574393
vn 0 0.7536071 -0.6573251
vn 0 0.7536071 -0.6573251
vn 0 1 7.569649E-05
vn -1.116053E-07 0.7535076 0.6574393
vn -0.8238316 0.5668346 -1.677384E-05
vn 0.826215 0.5633549 1.735926E-05
vn 0.002108803 0.9999979 5.17986E-07
vn 0.826215 0.5633549 1.735926E-05
vn 0.002108803 0.9999979 5.17986E-07
vn -0.8238316 0.5668346 -1.677384E-05
vn -0.8850286 -0.4655367 -1.235396E-07
vn -0.8850286 -0.4655367 -1.235396E-07
vn -0.8850286 -0.4655367 -1.235396E-07
vn -0.8850286 -0.4655367 -1.235396E-07
vn -0.7550067 0.6557171 0
vn 8.709088E-05 1 0
vn -0.7550067 0.6557171 0
vn 8.709088E-05 1 0
vn 0.7551208 0.6555855 0
vn 0.7551208 0.6555855 0
vn -1.710581E-05 0.9999987 0.001630326
vn -3.162335E-05 0.9237223 0.3830627
vn 0 0.9249665 -0.3800488
vn -3.162335E-05 0.9237223 0.3830627
vn -1.710581E-05 0.9999987 0.001630326
vn 0 0.9249665 -0.3800488
vn 0.6887543 0.7249948 0
vn 0.6887543 0.7249948 0
vn -9.043536E-07 1 0
vn -9.043536E-07 1 0
vn -0.6887556 0.7249936 0
vn -0.6887556 0.7249936 0
vn 0.6802933 0.73294 0
vn 0.6802933 0.73294 0
vn -0.01175483 0.999931 1.574545E-07
vn -0.01175483 0.999931 1.574545E-07
vn -0.6973353 0.7167451 2.282753E-07
vn -0.6973353 0.7167451 2.282753E-07
vn -0.0004346363 0.825712 0.5640917
vn -0.0005231715 0.9999428 -0.01069174
vn -0.0004229817 0.8134617 -0.5816184
vn -0.0004346363 0.825712 0.5640917
vn -0.0005231715 0.9999428 -0.01069174
vn -0.0004229817 0.8134617 -0.5816184
vn 6.004254E-05 0.885688 0.4642808
vn 6.004254E-05 0.885688 0.4642808
vn -0.0002395849 1 0.0003165658
vn -0.0002395849 1 0.0003165658
vn -0.0004845077 0.8859816 -0.4637199
vn -0.0004845077 0.8859816 -0.4637199
vn -1.61281E-06 0.8248553 0.5653439
vn -1.073242E-06 1 0
vn -1.61281E-06 0.8248553 0.5653439
vn -1.073242E-06 1 0
vn 0 1 0
vn 0 1 0
vn 0 0.7888052 -0.6146433
vn 0 0.7888052 -0.6146433
vn 0 0.7888052 0.6146433
vn 0 0.7888052 0.6146433
vn -4.911607E-07 1 0
vn -4.911607E-07 1 0
vn 0.6146427 0.7888057 0
vn 0.6146427 0.7888057 0
vn -0.6146435 0.7888049 0
vn -0.6146435 0.7888049 0
vn -1.577293E-07 0.8248553 -0.5653439
vn -1.577293E-07 0.8248553 -0.5653439
vn -0.0006569279 0.9999988 0.001401103
vn -0.0012025 0.9999993 0
vn 0 1 7.569649E-05
vn 0 1 7.569649E-05
vn 0.002108803 0.9999979 5.17986E-07
vn 0.002108803 0.9999979 5.17986E-07
vn 8.709088E-05 1 0
vn 8.709088E-05 1 0
vn -1.710581E-05 0.9999987 0.001630326
vn -1.710581E-05 0.9999987 0.001630326
vn -9.043536E-07 1 0
vn -9.043536E-07 1 0
vn -0.01175483 0.999931 1.574545E-07
vn -0.01175483 0.999931 1.574545E-07
vn -0.0005231715 0.9999428 -0.01069174
vn -0.0005231715 0.9999428 -0.01069174
vn -0.0002395849 1 0.0003165658
vn -0.0002395849 1 0.0003165658
vn 0 1 0
vn 0 1 0
vn -4.911607E-07 1 0
vn -4.911607E-07 1 0
vn -1.073242E-06 1 0
vn -1.073242E-06 1 0
g backdrop_detailRoofingSuburbs_geo_0
f 6/6/6 2/2/2 5/5/5
f 1/1/1 2/2/2 6/6/6
f 4/4/4 1/1/1 6/6/6
f 8/8/8 3/3/3 7/7/7
f 79/79/79 3/3/3 8/8/8
f 80/80/80 79/79/79 8/8/8
f 13/13/13 11/11/11 9/9/9
f 12/12/12 11/11/11 13/13/13
f 81/81/81 14/14/14 82/82/82
f 10/10/10 14/14/14 81/81/81
f 16/16/16 19/19/19 17/17/17
f 18/18/18 19/19/19 16/16/16
f 83/83/83 15/15/15 84/84/84
f 20/20/20 15/15/15 83/83/83
f 23/23/23 22/22/22 24/24/24
f 21/21/21 22/22/22 23/23/23
f 27/27/27 26/26/26 28/28/28
f 25/25/25 26/26/26 27/27/27
f 85/85/85 30/30/30 86/86/86
f 29/29/29 30/30/30 85/85/85
f 31/31/31 34/34/34 32/32/32
f 35/35/35 34/34/34 31/31/31
f 87/87/87 33/33/33 36/36/36
f 88/88/88 33/33/33 87/87/87
f 39/39/39 37/37/37 38/38/38
f 40/40/40 37/37/37 39/39/39
f 89/89/89 41/41/41 90/90/90
f 42/42/42 41/41/41 89/89/89
f 45/45/45 43/43/43 44/44/44
f 46/46/46 43/43/43 45/45/45
f 91/91/91 47/47/47 92/92/92
f 48/48/48 47/47/47 91/91/91
f 53/53/53 49/49/49 52/52/52
f 50/50/50 49/49/49 53/53/53
f 93/93/93 51/51/51 94/94/94
f 54/54/54 51/51/51 93/93/93
f 58/58/58 55/55/55 57/57/57
f 56/56/56 55/55/55 58/58/58
f 95/95/95 59/59/59 60/60/60
f 96/96/96 59/59/59 95/95/95
f 63/63/63 62/62/62 64/64/64
f 61/61/61 62/62/62 63/63/63
f 67/67/67 65/65/65 66/66/66
f 68/68/68 65/65/65 67/67/67
f 70/70/70 97/97/97 69/69/69
f 98/98/98 97/97/97 70/70/70
f 73/73/73 71/71/71 72/72/72
f 74/74/74 71/71/71 73/73/73
f 76/76/76 99/99/99 75/75/75
f 100/100/100 99/99/99 76/76/76
f 78/78/78 101/101/101 77/77/77
f 102/102/102 101/101/101 78/78/78
