g backwardsBallcap_geo
v -0.001899902 1.426971 0.07535447
v -0.001899906 1.386446 -0.02107515
v -0.001899919 1.293707 0.3052151
v -0.001958721 1.176368 -0.07827009
v -0.001899983 1.428106 0.1646017
v 0.09117136 1.374261 -0.007571259
v 0.1541403 1.340048 -0.01639818
v 0.1802581 1.236841 0.1268105
v 0.08915895 1.184638 -0.06392653
v 0.1021908 1.402173 0.07544794
v 0.06186119 1.288494 0.2945613
v 0.1134842 1.274305 0.2667203
v 0.1028052 1.41298 0.164193
v 0.1594568 1.379653 0.1608309
v 0.1563427 1.202512 -0.004826641
v -0.09497115 1.374261 -0.007571259
v -0.1579401 1.340048 -0.01639818
v -0.1814038 1.236119 0.1271088
v -0.09050472 1.185575 -0.06425762
v -0.1059906 1.402173 0.07544796
v -0.06445328 1.288522 0.2938108
v -0.1159693 1.274355 0.2655987
v -0.1066049 1.412979 0.1641929
v -0.1632566 1.379653 0.1608308
v -0.1564421 1.202976 -0.001285725
v 0.1394899 1.377136 0.2091934
v 0.09638079 1.395615 0.2353295
v -0.001899887 1.40416 0.2452006
v -0.1001807 1.395615 0.2353294
v -0.144909 1.38316 0.2103838
v -0.1769492 1.366643 0.0776924
v 0.1731493 1.366643 0.07769237
v 0.09937664 1.332878 -0.06070978
v -0.0018999 1.345916 -0.07555304
v -0.1031764 1.332878 -0.06070986
v -0.1538177 1.253572 0.2104044
v 0.1519252 1.253162 0.2110277
v -0.1810296 1.243922 0.1253817
v -0.155368 1.210723 -0.002964573
v -0.09087714 1.193503 -0.06525593
v -0.00195871 1.183337 -0.08219884
v 0.08951739 1.192565 -0.0649462
v 0.1552686 1.21026 -0.006506004
v 0.1797991 1.244628 0.1250344
v 0.1517267 1.260969 0.2092948
v 0.1125556 1.2815 0.2633486
v 0.06010721 1.31453 0.2866807
v -0.00189991 1.315854 0.2995019
v -0.06397402 1.313757 0.2878904
v -0.1146074 1.281567 0.2624175
v -0.1537949 1.261371 0.2086239
v 0.1581573 1.114965 -0.1374886
v 0.08981383 1.122066 -0.1768793
v 0.1571442 1.122767 -0.1389402
v -0.1619522 1.114965 -0.1374885
v -0.09359757 1.122115 -0.1769033
v -0.1609389 1.122767 -0.1389402
v -0.09430674 1.130083 -0.1769405
v 0.09050138 1.130036 -0.176943
v -0.001897399 1.130391 -0.1902379
v -0.001897376 1.1224 -0.1906179
v -0.001899903 1.36089 0.2806646
v -0.04142148 1.348434 0.2806158
v 0.03898209 1.349461 0.2831118
v -0.06365583 1.320877 0.2842575
v 0.05973247 1.318623 0.2798175
v 0.0481102 1.320335 0.284054
v -0.00189988 1.322767 0.2954765
v -0.05394695 1.320981 0.2863453
v -0.001899878 1.353657 0.2840842
v 0.03202501 1.346229 0.285382
v -0.03461238 1.345427 0.2835471
v -0.06303874 1.296167 0.2919272
v -0.001899916 1.301454 0.3032169
v 0.06044686 1.296139 0.2926778
v -0.1789215 1.232198 0.07508619
v -0.1794568 1.22426 0.07592351
v 0.1769346 1.232298 0.07380388
v 0.1776273 1.224492 0.0754144
v 0.1684023 1.249727 0.1756119
v 0.168731 1.241929 0.1773658
v -0.170449 1.248819 0.1756503
v -0.1706476 1.241017 0.1774041
v -0.1789215 1.232198 0.07508619
v -0.1769492 1.366643 0.0776924
v -0.1810296 1.243922 0.1253817
v -0.1579401 1.340048 -0.01639818
v -0.1031764 1.332878 -0.06070986
v -0.0018999 1.345916 -0.07555304
v 0.09937664 1.332878 -0.06070978
v 0.1552686 1.21026 -0.006506004
v 0.1541403 1.340048 -0.01639818
v 0.1769346 1.232298 0.07380388
v 0.1731493 1.366643 0.07769237
v 0.1684023 1.249727 0.1756119
v 0.1797991 1.244628 0.1250344
v 0.1594568 1.379653 0.1608309
v -0.170449 1.248819 0.1756503
v -0.1632566 1.379653 0.1608308
v -0.1537949 1.261371 0.2086239
v 0.1563427 1.202512 -0.004826641
v 0.08981383 1.122066 -0.1768793
v 0.1581573 1.114965 -0.1374886
v 0.08951739 1.192565 -0.0649462
v 0.1552686 1.21026 -0.006506004
v 0.1563427 1.202512 -0.004826641
v -0.1619522 1.114965 -0.1374885
v -0.09359757 1.122115 -0.1769033
v -0.1564421 1.202976 -0.001285725
v -0.155368 1.210723 -0.002964573
v -0.09087714 1.193503 -0.06525593
v -0.00195871 1.183337 -0.08219884
v -0.001897376 1.1224 -0.1906179
v -0.1146074 1.281567 0.2624175
v -0.144909 1.38316 0.2103838
v -0.1001807 1.395615 0.2353294
v -0.06365583 1.320877 0.2842575
v 0.1517267 1.260969 0.2092948
v 0.1125556 1.2815 0.2633486
v -0.001899916 1.301454 0.3032169
v -0.00189991 1.315854 0.2995019
v 0.1394899 1.377136 0.2091934
v 0.09638079 1.395615 0.2353295
v 0.05973247 1.318623 0.2798175
v -0.00189991 1.315854 0.2995019
v 0.06010721 1.31453 0.2866807
v -0.06397402 1.313757 0.2878904
v 0.03898209 1.349461 0.2831118
v -0.001899903 1.36089 0.2806646
v -0.04142148 1.348434 0.2806158
v -0.06365583 1.320877 0.2842575
v 0.05973247 1.318623 0.2798175
v -0.06303874 1.296167 0.2919272
v -0.001899916 1.301454 0.3032169
v 0.06044686 1.296139 0.2926778
v -0.1564421 1.202976 -0.001285725
v -0.155368 1.210723 -0.002964573
v 0.03202501 1.346229 0.285382
v -0.00189988 1.322767 0.2954765
v -0.001899878 1.353657 0.2840842
v 0.0481102 1.320335 0.284054
v -0.05394695 1.320981 0.2863453
v -0.03461238 1.345427 0.2835471
vt 0.822331 0.8247916
vt 0.8223373 0.7842581
vt 0.9945219 0.7550505
vt 0.9112246 0.8293893
vt 0.8223165 0.8585591
vt 0.7880219 0.7877082
vt 0.7610215 0.779821
vt 0.9945219 0.7550505
vt 0.9112613 0.8676963
vt 0.78521 0.8231866
vt 0.9945219 0.7550505
vt 0.9945219 0.7550505
vt 0.7855254 0.8586595
vt 0.7584646 0.8570213
vt 0.9945219 0.7550505
vt 0.8566538 0.7877165
vt 0.8836548 0.779829
vt 0.9945219 0.7550505
vt 0.9111879 0.7910887
vt 0.8594629 0.8232047
vt 0.9945219 0.7550505
vt 0.9945219 0.7550505
vt 0.859145 0.8587252
vt 0.8862369 0.857025
vt 0.9111563 0.7582985
vt 0.9547077 0.9726781
vt 0.7866368 0.8885327
vt 0.8222739 0.8909429
vt 0.857916 0.8886247
vt 0.7952849 0.9714659
vt 0.8891913 0.8214383
vt 0.7554867 0.8214316
vt 0.7823292 0.7595626
vt 0.8223401 0.7550324
vt 0.8623501 0.7595701
vt 0.9945218 0.7550505
vt 0.9945218 0.7550505
vt 0.9945219 0.7550505
vt 0.840669 0.9925385
vt 0.8581722 0.9925385
vt 0.8741743 0.9925385
vt 0.8901878 0.9925385
vt 0.9945218 0.7550505
vt 0.9945219 0.7550505
vt 0.9945218 0.7550505
vt 0.9945219 0.7550505
vt 0.9699482 0.9886925
vt 0.7534727 0.988352
vt 0.7778031 0.988351
vt 0.9945218 0.7550505
vt 0.9945219 0.7550505
vt 0.9805254 0.9489471
vt 0.9550686 0.9599807
vt 0.9779347 0.9473566
vt 0.8705723 0.9469867
vt 0.8947077 0.958807
vt 0.8727904 0.9457049
vt 0.8954107 0.9562391
vt 0.9544614 0.9573799
vt 0.9247577 0.9608679
vt 0.9247064 0.9635313
vt 0.8222469 0.9144996
vt 0.8390619 0.9146739
vt 0.8058023 0.9146634
vt 0.7782056 0.9868826
vt 0.9695532 0.9872385
vt 0.9943085 0.7563773
vt 0.9943085 0.7563773
vt 0.9943085 0.7563773
vt 0.9943085 0.7563773
vt 0.9943085 0.7563773
vt 0.9943085 0.7563773
vt 0.7778615 0.995211
vt 0.7534727 0.9959093
vt 0.9699676 0.994252
vt 0.9945219 0.7550505
vt 0.9945219 0.7550505
vt 0.9945219 0.7550505
vt 0.9945219 0.7550505
vt 0.9945219 0.7550505
vt 0.9945219 0.7550505
vt 0.9945219 0.7550505
vt 0.9945219 0.7550505
vt 0.8297065 0.9925385
vt 0.8232352 0.9685516
vt 0.8214811 0.9925385
vt 0.8407809 0.9693014
vt 0.8544059 0.9674793
vt 0.8729647 0.9641684
vt 0.8918082 0.9657809
vt 0.907691 0.9925384
vt 0.9069979 0.9670048
vt 0.9191111 0.9925385
vt 0.927047 0.9658968
vt 0.9371504 0.993386
vt 0.9271049 0.9925385
vt 0.9442128 0.9685765
vt 0.811561 0.9936426
vt 0.8063393 0.9692658
vt 0.8044386 0.9925385
vt 0.9112928 0.9004804
vt 0.9563071 0.8558716
vt 0.9507681 0.8773945
vt 0.955419 0.9082298
vt 0.9828971 0.8885679
vt 0.9854116 0.889554
vt 0.950667 0.7813073
vt 0.956251 0.8028194
vt 0.8668445 0.8892243
vt 0.8693128 0.8883036
vt 0.895729 0.9078584
vt 0.9253749 0.9140246
vt 0.958804 0.8293357
vt 0.7929364 0.9925385
vt 0.8764063 0.8786896
vt 0.7856967 0.9709631
vt 0.8494796 0.922169
vt 0.9439846 0.9925385
vt 0.9556471 0.9925385
vt 0.9957458 0.9947844
vt 0.9957458 0.988702
vt 0.7650932 0.8784021
vt 0.963929 0.9718311
vt 0.7949995 0.9221566
vt 0.9943085 0.7563773
vt 0.9943085 0.7563773
vt 0.9943085 0.7563773
vt 0.9943085 0.7563772
vt 0.9943085 0.7563773
vt 0.9943085 0.7563773
vt 0.9943085 0.7563773
vt 0.9943085 0.7563773
vt 0.9945219 0.7550505
vt 0.9945219 0.7550505
vt 0.9945219 0.7550505
vt 0.9945219 0.7550505
vt 0.9945219 0.7550505
vt 0.9777334 0.5067405
vt 0.9777333 0.5067407
vt 0.9777334 0.5067405
vt 0.9777333 0.5067405
vt 0.9777333 0.5067402
vt 0.9777334 0.5067407
vn -3.917987E-07 0.9755483 -0.2197849
vn 2.756836E-07 0.8739539 -0.4860088
vn -0.007351576 0.2610494 0.9652975
vn -0.002375558 -0.8874589 0.4608809
vn -8.689998E-07 0.9947507 0.1023288
vn 0.2904223 0.8383812 -0.4612719
vn 0.698612 0.46381 -0.5448132
vn 0.9942714 0.07868624 0.07233862
vn -0.165361 -0.8603245 0.4821799
vn 0.3258606 0.9206764 -0.2148719
vn 0.3602459 0.3126229 0.8789141
vn 0.6954693 0.3018391 0.6520855
vn 0.3320825 0.9386116 0.09343255
vn 0.8455354 0.4552585 0.2789436
vn 0.9281309 -0.3613767 0.08933046
vn -0.2904219 0.8383814 -0.4612719
vn -0.7073286 0.4515737 -0.5438452
vn -0.9950687 0.0653206 0.07464325
vn 0.1697802 -0.8609157 0.4795819
vn -0.3258602 0.9206768 -0.2148706
vn -0.3700878 0.3148243 0.8740256
vn -0.6973249 0.3079689 0.6472197
vn -0.3161688 0.945456 0.07842326
vn -0.8474621 0.4577394 0.2688543
vn -0.9275131 -0.3643954 0.08327977
vn 0.6605421 0.3917873 0.6404584
vn 0.4083748 0.6382424 0.6525922
vn -0.004556571 0.8338978 0.5519
vn -0.3511561 0.6829925 0.6404767
vn -0.6149692 0.4100861 0.6735297
vn -0.8979781 0.4221714 -0.1241238
vn 0.8926044 0.4330482 -0.1254055
vn 0.3811677 0.4385737 -0.8138576
vn -0.000125946 0.4618376 -0.8869645
vn -0.3888358 0.4338179 -0.8127784
vn -0.8708901 0.1749995 0.4592664
vn 0.8717648 0.1780668 0.456419
vn -0.9960042 0.05792975 0.06797058
vn -0.8877352 0.2087878 -0.4102851
vn -0.349886 0.4951259 -0.7952548
vn 0.001182471 0.5328768 -0.8461919
vn 0.339039 0.499345 -0.7973124
vn 0.8830411 0.2193673 -0.414869
vn 0.995353 0.07272014 0.06311971
vn 0.8804991 0.1394188 0.4530825
vn 0.6714193 0.3446161 0.6560763
vn 0.3878658 0.5698311 0.7244672
vn 0.004297683 0.4026603 0.9153394
vn -0.3477005 0.3374479 0.8747761
vn -0.6844245 0.2196316 0.6952159
vn -0.8820232 0.126178 0.4539979
vn 0.8010331 -0.5203706 -0.2959059
vn 0.1535293 -0.8796839 -0.4500946
vn 0.7289725 0.3531718 -0.5864033
vn -0.8020076 -0.522922 -0.2886805
vn -0.1494524 -0.8786811 -0.4534132
vn -0.7369825 0.3569243 -0.5739877
vn -0.2872391 0.4828413 -0.8272593
vn 0.2844366 0.4821381 -0.8286366
vn 0.001350134 0.5253022 -0.8509147
vn -0.002271141 -0.855402 -0.5179598
vn -0.02224441 0.539158 0.8419108
vn -0.217179 0.4414529 0.8706047
vn 0.2622733 0.3746816 0.8892843
vn -0.3427868 0.3725795 0.8623698
vn 0.493085 0.4302807 0.7561255
vn 0.2524069 0.4695642 0.8460498
vn 0.003900161 0.4004712 0.9163011
vn -0.1851365 0.3787386 0.9067973
vn -0.0181411 0.3549848 0.934696
vn 0.1781048 0.2651621 0.9476116
vn -0.1703366 0.3496962 0.9212481
vn -0.3675855 0.2568449 0.8938185
vn -0.003531166 0.2595739 0.9657168
vn 0.3633748 0.2967903 0.8831049
vn -0.9868809 0.02582487 -0.1593709
vn -0.9829811 0.04989388 -0.176801
vn 0.9865541 0.03855082 -0.1588236
vn 0.9838171 0.05564146 -0.1703171
vn 0.9470075 0.1083743 0.302377
vn 0.9438306 0.1100243 0.311574
vn -0.9484017 0.09313254 0.3030851
vn -0.945909 0.09444745 0.3103798
vn -0.9868809 0.02582487 -0.1593709
vn -0.8979781 0.4221714 -0.1241238
vn -0.9960042 0.05792975 0.06797058
vn -0.7073286 0.4515737 -0.5438452
vn -0.3888358 0.4338179 -0.8127784
vn -0.000125946 0.4618376 -0.8869645
vn 0.3811677 0.4385737 -0.8138576
vn 0.8830411 0.2193673 -0.414869
vn 0.698612 0.46381 -0.5448132
vn 0.9865541 0.03855082 -0.1588236
vn 0.8926044 0.4330482 -0.1254055
vn 0.9470075 0.1083743 0.302377
vn 0.995353 0.07272014 0.06311971
vn 0.8455354 0.4552585 0.2789436
vn -0.9484017 0.09313254 0.3030851
vn -0.8474621 0.4577394 0.2688543
vn -0.8820232 0.126178 0.4539979
vn 0.9281309 -0.3613767 0.08933046
vn 0.1535293 -0.8796839 -0.4500946
vn 0.8010331 -0.5203706 -0.2959059
vn 0.339039 0.499345 -0.7973124
vn 0.8830411 0.2193673 -0.414869
vn 0.9281309 -0.3613767 0.08933046
vn -0.8020076 -0.522922 -0.2886805
vn -0.1494524 -0.8786811 -0.4534132
vn -0.9275131 -0.3643954 0.08327977
vn -0.8877352 0.2087878 -0.4102851
vn -0.349886 0.4951259 -0.7952548
vn 0.001182471 0.5328768 -0.8461919
vn -0.002271141 -0.855402 -0.5179598
vn -0.6844245 0.2196316 0.6952159
vn -0.6149692 0.4100861 0.6735297
vn -0.3511561 0.6829925 0.6404767
vn -0.3427868 0.3725795 0.8623698
vn 0.8804991 0.1394188 0.4530825
vn 0.6714193 0.3446161 0.6560763
vn -0.003531166 0.2595739 0.9657168
vn 0.004297683 0.4026603 0.9153394
vn 0.6605421 0.3917873 0.6404584
vn 0.4083748 0.6382424 0.6525922
vn 0.493085 0.4302807 0.7561255
vn 0.004297683 0.4026603 0.9153394
vn 0.3878658 0.5698311 0.7244672
vn -0.3477005 0.3374479 0.8747761
vn 0.2622733 0.3746816 0.8892843
vn -0.02224441 0.539158 0.8419108
vn -0.217179 0.4414529 0.8706047
vn -0.3427868 0.3725795 0.8623698
vn 0.493085 0.4302807 0.7561255
vn -0.3675855 0.2568449 0.8938185
vn -0.003531166 0.2595739 0.9657168
vn 0.3633748 0.2967903 0.8831049
vn -0.9275131 -0.3643954 0.08327977
vn -0.8877352 0.2087878 -0.4102851
vn 0.1781048 0.2651621 0.9476116
vn 0.003900161 0.4004712 0.9163011
vn -0.0181411 0.3549848 0.934696
vn 0.2524069 0.4695642 0.8460498
vn -0.1851365 0.3787386 0.9067973
vn -0.1703366 0.3496962 0.9212481
g backwardsBallcap_geo_0
f 78/78/78 15/15/15 43/43/43
f 79/79/79 15/15/15 78/78/78
f 44/44/44 79/79/79 78/78/78
f 8/8/8 79/79/79 44/44/44
f 80/80/80 8/8/8 44/44/44
f 81/81/81 8/8/8 80/80/80
f 45/45/45 81/81/81 80/80/80
f 37/37/37 81/81/81 45/45/45
f 12/12/12 37/37/37 45/45/45
f 19/19/19 25/25/25 107/107/107
f 108/108/108 19/19/19 107/107/107
f 4/4/4 19/19/19 108/108/108
f 113/113/113 4/4/4 108/108/108
f 9/9/9 4/4/4 113/113/113
f 102/102/102 9/9/9 113/113/113
f 101/101/101 9/9/9 102/102/102
f 103/103/103 101/101/101 102/102/102
f 57/57/57 55/55/55 109/109/109
f 110/110/110 57/57/57 109/109/109
f 58/58/58 57/57/57 110/110/110
f 111/111/111 58/58/58 110/110/110
f 60/60/60 58/58/58 111/111/111
f 112/112/112 60/60/60 111/111/111
f 59/59/59 60/60/60 112/112/112
f 104/104/104 59/59/59 112/112/112
f 54/54/54 59/59/59 104/104/104
f 105/105/105 54/54/54 104/104/104
f 52/52/52 54/54/54 105/105/105
f 106/106/106 52/52/52 105/105/105
f 49/49/49 114/114/114 73/73/73
f 30/30/30 114/114/114 49/49/49
f 65/65/65 30/30/30 49/49/49
f 116/116/116 30/30/30 65/65/65
f 13/13/13 122/122/122 14/14/14
f 27/27/27 122/122/122 13/13/13
f 5/5/5 27/27/27 13/13/13
f 28/28/28 27/27/27 5/5/5
f 29/29/29 28/28/28 5/5/5
f 63/63/63 28/28/28 29/29/29
f 117/117/117 63/63/63 29/29/29
f 49/49/49 74/74/74 48/48/48
f 73/73/73 74/74/74 49/49/49
f 47/47/47 75/75/75 119/119/119
f 120/120/120 75/75/75 47/47/47
f 121/121/121 120/120/120 47/47/47
f 26/26/26 119/119/119 118/118/118
f 66/66/66 119/119/119 26/26/26
f 123/123/123 66/66/66 26/26/26
f 28/28/28 63/63/63 62/62/62
f 64/64/64 28/28/28 62/62/62
f 27/27/27 28/28/28 64/64/64
f 124/124/124 27/27/27 64/64/64
f 51/51/51 36/36/36 22/22/22
f 83/83/83 36/36/36 51/51/51
f 82/82/82 83/83/83 51/51/51
f 18/18/18 83/83/83 82/82/82
f 38/38/38 18/18/18 82/82/82
f 77/77/77 18/18/18 38/38/38
f 76/76/76 77/77/77 38/38/38
f 136/136/136 77/77/77 76/76/76
f 137/137/137 136/136/136 76/76/76
f 140/140/140 143/143/143 142/142/142
f 139/139/139 140/140/140 142/142/142
f 138/138/138 140/140/140 139/139/139
f 141/141/141 138/138/138 139/139/139
f 59/59/59 54/54/54 52/52/52
f 53/53/53 59/59/59 52/52/52
f 60/60/60 59/59/59 53/53/53
f 61/61/61 60/60/60 53/53/53
f 58/58/58 60/60/60 61/61/61
f 56/56/56 58/58/58 61/61/61
f 57/57/57 58/58/58 56/56/56
f 55/55/55 57/57/57 56/56/56
f 23/23/23 115/115/115 29/29/29
f 5/5/5 23/23/23 29/29/29
f 1/1/1 23/23/23 5/5/5
f 10/10/10 1/1/1 5/5/5
f 2/2/2 1/1/1 10/10/10
f 6/6/6 2/2/2 10/10/10
f 33/33/33 2/2/2 6/6/6
f 7/7/7 33/33/33 6/6/6
f 10/10/10 5/5/5 13/13/13
f 32/32/32 10/10/10 13/13/13
f 6/6/6 10/10/10 32/32/32
f 7/7/7 6/6/6 32/32/32
f 16/16/16 17/17/17 31/31/31
f 35/35/35 17/17/17 16/16/16
f 2/2/2 35/35/35 16/16/16
f 34/34/34 35/35/35 2/2/2
f 33/33/33 34/34/34 2/2/2
f 20/20/20 16/16/16 31/31/31
f 24/24/24 20/20/20 31/31/31
f 23/23/23 20/20/20 24/24/24
f 115/115/115 23/23/23 24/24/24
f 14/14/14 32/32/32 13/13/13
f 85/85/85 84/84/84 86/86/86
f 39/39/39 84/84/84 85/85/85
f 87/87/87 39/39/39 85/85/85
f 40/40/40 39/39/39 87/87/87
f 88/88/88 40/40/40 87/87/87
f 41/41/41 40/40/40 88/88/88
f 89/89/89 41/41/41 88/88/88
f 42/42/42 41/41/41 89/89/89
f 90/90/90 42/42/42 89/89/89
f 91/91/91 42/42/42 90/90/90
f 92/92/92 91/91/91 90/90/90
f 93/93/93 91/91/91 92/92/92
f 94/94/94 93/93/93 92/92/92
f 96/96/96 93/93/93 94/94/94
f 95/95/95 96/96/96 94/94/94
f 97/97/97 95/95/95 94/94/94
f 118/118/118 95/95/95 97/97/97
f 26/26/26 118/118/118 97/97/97
f 99/99/99 86/86/86 98/98/98
f 100/100/100 99/99/99 98/98/98
f 30/30/30 99/99/99 100/100/100
f 114/114/114 30/30/30 100/100/100
f 3/3/3 135/135/135 134/134/134
f 133/133/133 3/3/3 134/134/134
f 21/21/21 3/3/3 133/133/133
f 50/50/50 21/21/21 133/133/133
f 22/22/22 21/21/21 50/50/50
f 51/51/51 22/22/22 50/50/50
f 11/11/11 135/135/135 3/3/3
f 46/46/46 135/135/135 11/11/11
f 12/12/12 46/46/46 11/11/11
f 45/45/45 46/46/46 12/12/12
f 66/66/66 47/47/47 119/119/119
f 69/69/69 131/131/131 127/127/127
f 130/130/130 131/131/131 69/69/69
f 72/72/72 130/130/130 69/69/69
f 129/129/129 130/130/130 72/72/72
f 70/70/70 129/129/129 72/72/72
f 128/128/128 129/129/129 70/70/70
f 71/71/71 128/128/128 70/70/70
f 132/132/132 128/128/128 71/71/71
f 67/67/67 132/132/132 71/71/71
f 126/126/126 132/132/132 67/67/67
f 125/125/125 126/126/126 67/67/67
f 68/68/68 125/125/125 67/67/67
f 127/127/127 125/125/125 68/68/68
f 69/69/69 127/127/127 68/68/68
f 85/85/85 86/86/86 99/99/99
f 20/20/20 2/2/2 16/16/16
f 1/1/1 2/2/2 20/20/20
f 23/23/23 1/1/1 20/20/20
