g backdrop_fence_geo
v -220.803 3.458287 144.1577
v -220.803 1.781651 144.1577
v -213.9221 1.67757 87.14545
v -213.9221 0.0009324646 87.14545
v -220.4964 3.458287 104.7904
v -220.4964 1.781651 104.7904
v -213.893 3.458287 104.6483
v -213.893 1.781651 104.6483
v -213.901 1.644837 99.83301
v -213.901 -0.03179993 99.83301
v -213.8955 3.243306 103.157
v -213.8955 1.566669 103.157
vt -7.127692 0.9924523
vt -7.127693 0.4963306
vt 11.34908 0.9924522
vt 11.34908 0.4963306
vt 4.94541 0.9924522
vt 4.94541 0.4963306
vt 6.929292 0.9924523
vt 6.929292 0.4963306
vt 8.145241 0.9924523
vt 8.145241 0.4963306
vt 7.305875 0.9924523
vt 7.305875 0.4963306
vn 0.9999697 0 0.007787017
vn 0.9999697 0 0.007787017
vn 0.9999987 0 -0.001657934
vn 0.9999987 0 -0.001657934
vn 0.7119456 0 0.7022346
vn 0.7119456 0 0.7022346
vn 0.7152512 0 0.6988674
vn 0.7152512 0 0.6988674
vn 0.9999987 0 -0.0016604
vn 0.9999987 0 -0.0016604
vn 0.9999987 0 -0.001656522
vn 0.9999987 0 -0.001656522
g backdrop_fence_geo_0
f 6/6/6 1/1/1 2/2/2
f 5/5/5 1/1/1 6/6/6
f 8/8/8 5/5/5 6/6/6
f 7/7/7 5/5/5 8/8/8
f 12/12/12 7/7/7 8/8/8
f 11/11/11 7/7/7 12/12/12
f 10/10/10 11/11/11 12/12/12
f 9/9/9 11/11/11 10/10/10
f 4/4/4 9/9/9 10/10/10
f 3/3/3 9/9/9 4/4/4
