g backdrop_dimicoHouse_geo
v -212.1997 3.981536 -98.21442
v -212.095 3.838224 -98.21442
v -212.715 3.835565 -98.21442
v -211.2377 2.66453 -99.34505
v -212.1997 3.981536 -99.35255
v -212.1997 6.554434 -99.34505
v -212.6187 3.307617 -99.34505
v -212.4674 3.427967 -99.34505
v -213.5046 6.54845 -99.34505
v -213.5046 5.175076 -99.34505
v -211.2377 0.02500064 -99.34505
v -212.6187 0.02500062 -99.34505
v -212.1997 6.554434 -98.22942
v -212.1997 3.981536 -98.22942
v -212.1997 3.981535 -99.33755
v -212.1997 6.554434 -99.33755
v -211.2377 2.66453 -98.22942
v -212.1886 3.966131 -99.33755
v -212.1877 3.965076 -98.22942
v -211.2377 2.66453 -99.33005
v -211.2377 2.64953 -98.22942
v -211.2377 2.64953 -99.33005
v -211.2377 0.02500064 -98.22942
v -211.2377 0.02500064 -99.33005
v -213.5196 6.546033 -98.21442
v -213.5196 6.546033 -99.34505
v -213.5196 5.200221 -99.34505
v -213.5196 5.200221 -98.21442
v -212.1997 6.554434 -98.21442
v -213.5046 5.175076 -98.21442
v -213.5046 6.546128 -98.21442
v -212.1997 3.981536 -99.35255
v -212.4674 3.427967 -99.34505
vt 0.9276706 0.7628499
vt 0.9276706 0.7628499
vt 0.9276706 0.7628499
vt 0.9269296 0.8349118
vt 0.9269296 0.8349118
vt 0.9269296 0.8349118
vt 0.9269296 0.8349118
vt 0.9269296 0.8349118
vt 0.9269296 0.8349118
vt 0.9269296 0.8349118
vt 0.9269296 0.8349118
vt 0.9269296 0.8349118
vt 0.9247956 0.789046
vt 0.9247956 0.789046
vt 0.9247956 0.789046
vt 0.9247956 0.789046
vt 0.9247957 0.789046
vt 0.9247956 0.789046
vt 0.9247956 0.789046
vt 0.9247957 0.789046
vt 0.9247957 0.789046
vt 0.9247957 0.789046
vt 0.9247957 0.789046
vt 0.9247957 0.789046
vt 0.9247956 0.789046
vt 0.9247956 0.789046
vt 0.9247956 0.789046
vt 0.9247956 0.789046
vt 0.9276706 0.7628499
vt 0.9276706 0.7628499
vt 0.9276706 0.7628499
vt 0.9269296 0.8349118
vt 0.9269296 0.8349118
vn 0 0 1
vn 0 0 1
vn 0 0 1
vn -0.002165797 -0.003473266 -0.9999917
vn -0.005913372 -0.004981676 -0.9999701
vn -0.002665366 0.0002282113 -0.9999964
vn 0 0 -1
vn -0.003942254 -0.003321123 -0.9999868
vn 0 0 -1
vn -0.002665366 0.0002282113 -0.9999964
vn -1.429418E-06 0 -1
vn -7.14709E-07 0 -1
vn 1 0 0
vn 1 0 0
vn 1 0 0
vn 1 0 0
vn 0.8074754 0.5899013 -6.091681E-05
vn 0.8074754 0.5899013 -6.091681E-05
vn 0.8074754 0.5899013 -6.091681E-05
vn 0.8074754 0.5899013 -6.091681E-05
vn 1 0 0
vn 1 0 0
vn 1 0 0
vn 1 0 0
vn -1 0 0
vn -1 0 0
vn -1 0 0
vn -1 0 0
vn -6.987217E-06 0 1
vn -6.987217E-06 0 1
vn -1.397443E-05 0 1
vn -0.005913372 -0.004981676 -0.9999701
vn -0.003942254 -0.003321123 -0.9999868
g backdrop_dimicoHouse_geo_0
f 29/29/29 31/31/31 30/30/30
f 3/3/3 29/29/29 30/30/30
f 1/1/1 29/29/29 3/3/3
f 2/2/2 1/1/1 3/3/3
f 12/12/12 4/4/4 11/11/11
f 8/8/8 4/4/4 12/12/12
f 7/7/7 8/8/8 12/12/12
f 5/5/5 4/4/4 8/8/8
f 10/10/10 32/32/32 33/33/33
f 6/6/6 32/32/32 10/10/10
f 9/9/9 6/6/6 10/10/10
f 16/16/16 14/14/14 15/15/15
f 13/13/13 14/14/14 16/16/16
f 18/18/18 17/17/17 20/20/20
f 19/19/19 17/17/17 18/18/18
f 22/22/22 23/23/23 24/24/24
f 21/21/21 23/23/23 22/22/22
f 25/25/25 27/27/27 28/28/28
f 26/26/26 27/27/27 25/25/25
