g backdrop_Clouds2_geo
v -1540.777 385.6435 855.9184
v -486.2712 385.6435 1695.829
v 853.085 385.6435 1542.347
v 1692.717 385.6435 485.3781
v 1540.777 385.6435 -855.9194
v 486.2722 385.6435 -1695.832
v -853.0837 385.6435 -1542.348
v -1692.717 385.6435 -485.3794
v -1750.661 385.6435 200.6157
v -1378.334 385.6435 -1097.84
v -198.5977 385.6435 -1753.198
v 1097.474 385.6435 -1381.556
v 1750.661 385.6435 -200.617
v 1378.335 385.6435 1097.841
v 198.5985 385.6435 1753.198
v -1097.473 385.6435 1381.554
v -1378.334 95.82832 -1097.84
v -853.0837 95.82832 -1542.348
v -198.5977 95.82832 -1753.198
v 486.2722 95.82832 -1695.832
v 1097.474 95.82832 -1381.556
v 1540.777 95.82832 -855.9194
v 1750.661 95.82832 -200.617
v 1692.717 95.82832 485.3781
v 1378.335 95.82832 1097.841
v 853.085 95.82832 1542.347
v 198.5985 95.82832 1753.198
v -486.2712 95.82832 1695.829
v -1097.473 95.82832 1381.554
v -1540.777 95.82832 855.9184
v -1750.661 95.82832 200.6157
v -1692.717 95.82832 -485.3794
v -240.4308 395.4527 1298.056
v 119.3481 395.4527 -1381.348
v -1134.819 395.4527 776.7244
v -739.5665 395.4527 1126.766
v -1367.326 395.4527 302.7041
v 1246.244 395.4527 -385.995
v 285.9569 395.4527 1266.39
v 1180.369 606.6194 126.8657
v 1150.193 606.6194 -360.8852
v 934.8813 606.6194 -799.8505
v 568.8586 606.6194 -1124.006
v 106.6351 606.6194 -1282.628
v -819.1953 606.6194 -1038.665
v -1142.545 606.6194 -673.0364
v -1300.27 606.6194 -210.8678
v -1270.094 606.6194 276.8834
v -1054.784 606.6194 715.8482
v -688.7609 606.6194 1040.005
v -226.5373 606.6194 1198.626
v 260.9227 606.6194 1169.301
v 699.2932 606.6194 954.6619
v 1022.643 606.6194 589.0348
v 867.3672 771.5168 -748.3466
v 526.3546 771.5168 -1050.352
v -358.4391 771.5168 -1170.817
v -1068.113 771.5168 -630.1969
v -1215.061 771.5168 -199.6067
v -1186.949 771.5168 254.8169
v -986.3481 771.5168 663.7881
v -645.3343 771.5168 965.7966
v 949.132 771.5168 545.6393
v 1096.082 771.5168 115.0497
v -844.405 522.3576 -1071.306
v -1004.508 489.5169 -913.4181
v -303.8544 606.6194 -1257.935
v -317.3609 495.6138 -1309.827
v -1347.043 510.2935 -217.0369
v -1383.034 395.4527 48.79456
v -1342.977 488.3539 14.51521
v 725.9445 515.6945 990.1346
v 304.5696 771.5168 -1126.465
v 323.363 606.6194 -1208.254
v 897.597 699.2494 -771.4065
v 779.5316 679.8962 -889.0333
v 466.6225 395.4527 -1262.173
v 598.6001 482.8504 -1175.569
v 973.9445 504.8658 -829.6543
v 1097.644 395.4527 -688.9491
v 1051.5 489.2492 -687.8461
v -370.8543 681.5982 -1216.583
v -465.7604 606.6194 -1211.718
v -398.9476 606.6194 1139.461
v -376.9673 771.5168 1057.892
v 826.4942 771.5168 684.3126
v 671.336 697.8567 917.4741
v 827.3817 703.6176 736.5796
v 251.5018 680.5908 1132.833
v 1123.39 661.7844 -353.8746
v 1073.361 771.5168 -252.202
v 1117.14 683.9662 -274.5991
v 1263.016 395.4527 -114.8583
v 1219.415 494.736 -99.14796
v 986.4328 606.6194 629.9781
v 1019.245 524.6133 652.1813
v 276.9461 474.1767 1231.409
v 165.0005 606.6194 1175.072
v 173.2249 510.7203 1220.662
v -946.6346 771.5168 -767.5567
v -789.0964 702.9688 -999.6698
v -953.0776 702.463 -814.6401
v -668.3642 771.5168 -1019.067
v -1092.118 493.9565 -809.2648
v -324.5061 395.4527 -1354.646
v 842.3403 517.611 856.6217
v 486.2722 385.6435 -1695.832
v 486.2722 95.82832 -1695.832
v -853.0837 385.6435 -1542.348
v -853.0837 95.82832 -1542.348
v -1692.717 385.6435 -485.3794
v -1692.717 95.82832 -485.3794
v -1540.777 385.6435 855.9184
v -1540.777 95.82832 855.9184
v -486.2712 385.6435 1695.829
v -486.2712 95.82832 1695.829
v 853.085 385.6435 1542.347
v 853.085 95.82832 1542.347
v 1692.717 385.6435 485.3781
v 1692.717 95.82832 485.3781
v 1540.777 95.82832 -855.9194
v 1540.777 385.6435 -855.9194
v 568.8586 606.6194 -1124.006
v 323.363 606.6194 -1208.254
v -1142.545 606.6194 -673.0364
v -1270.094 606.6194 276.8834
v -1300.27 606.6194 -210.8678
v -1215.061 771.5168 -199.6067
v -1054.784 606.6194 715.8482
v -986.3481 771.5168 663.7881
v -1054.784 606.6194 715.8482
v -688.7609 606.6194 1040.005
v 1180.369 606.6194 126.8657
v 106.6351 606.6194 -1282.628
v 119.3481 395.4527 -1381.348
v -1300.27 606.6194 -210.8678
v -398.9476 606.6194 1139.461
v 671.336 697.8567 917.4741
v 699.2932 606.6194 954.6619
v 1150.193 606.6194 -360.8852
v 1180.369 606.6194 126.8657
v 1096.082 771.5168 115.0497
v 986.4328 606.6194 629.9781
v 699.2932 606.6194 954.6619
v -226.5373 606.6194 1198.626
v -240.4308 395.4527 1298.056
v -819.1953 606.6194 -1038.665
v -1142.545 606.6194 -673.0364
v -1068.113 771.5168 -630.1969
v -819.1953 606.6194 -1038.665
vt 1.400291 0.4991109
vt 1.400291 0.4991109
vt 1.400291 0.4991109
vt 1.400291 0.4991109
vt -0.599709 0.4991109
vt 1.400291 0.4991109
vt 1.400291 0.4991109
vt 1.400291 0.4991109
vt 0.400291 0.4991109
vt 0.400291 0.4991109
vt 0.400291 0.4991109
vt 0.400291 0.4991109
vt 0.400291 0.4991109
vt 0.400291 0.4991109
vt 0.400291 0.4991109
vt 0.400291 0.4991109
vt 0.400291 -0.01446046
vt 1.400291 -0.01446043
vt 0.400291 -0.01446046
vt 1.400291 -0.01446046
vt 0.400291 -0.01446046
vt -0.599709 -0.01446046
vt 0.400291 -0.01446046
vt 1.400291 -0.01446046
vt 0.400291 -0.01446046
vt 1.400291 -0.01446043
vt 0.400291 -0.01446046
vt 1.400291 -0.01446046
vt 0.400291 -0.01446046
vt 1.400291 -0.01446046
vt 0.400291 -0.01446046
vt 1.400291 -0.01446046
vt 1.199418 0.6452588
vt 1.199418 0.6452588
vt 1.633695 0.6452588
vt 0.4374677 0.6452588
vt 0.6994183 0.6452588
vt 0.8976505 0.6452588
vt 0.6187686 0.6452588
vt 0.4385231 1.002503
vt 0.8976505 1.002503
vt 1.397651 1.002503
vt 0.6602004 1.002503
vt 1.199418 1.002503
vt 0.03105924 1.002503
vt 0.6753727 1.002503
vt 0.05832446 0.6929902
vt 0.6994183 1.002503
vt 1.205866 1.002503
vt 0.7517858 1.002503
vt 1.199418 1.002503
vt -0.4524265 0.7568203
vt -0.7629308 0.6929902
vt -0.2629308 0.6929902
vt -0.9600222 0.9719577
vt -0.2629308 0.9719577
vt -0.3286217 0.9719577
vt -0.3831872 0.9719577
vt 0.2370692 0.9719577
vt -0.2629308 0.9719577
vt 0.2370692 0.9719577
vt -0.2629308 0.9719577
vt -0.2629308 0.9719577
vt 0.2370692 0.9719577
vt 0.03105924 0.8599519
vt 0.4081053 0.8043933
vt 0.6204678 1.002503
vt 0.6388543 0.8147078
vt 0.02067351 0.8395424
vt 0.5214672 0.6452589
vt 0.48006 0.8024257
vt -0.03347012 0.8486796
vt -0.005425155 0.9719577
vt 0.9649777 1.002503
vt -0.9600222 0.8496982
vt -0.5753675 0.8169572
vt 0.8515431 0.6452588
vt 0.632669 0.7931151
vt 1.397651 0.8303599
vt 1.121158 0.6452588
vt 1.149838 0.8039404
vt -0.3954309 0.8198365
vt -0.2858264 0.6929902
vt 0.9858307 1.002503
vt 0.02157335 0.9719577
vt -0.4664755 0.9719577
vt -0.7629308 0.847342
vt -0.4979739 0.8570881
vt -0.4524265 0.8819623
vt -0.3887885 0.7863162
vt -0.4847032 0.9719577
vt -0.4740865 0.8238425
vt 0.6402591 0.6452588
vt 0.6155375 0.8132228
vt -0.3189225 0.6929902
vt 0.4214117 0.8637682
vt 0.6187686 0.7784413
vt 0.5106645 1.002503
vt 0.5048854 0.8402644
vt -0.4645483 0.9719577
vt 0.3947389 0.8559905
vt -0.6241968 0.8551347
vt 0.2583184 0.9719577
vt 0.5474401 0.8119041
vt 0.6540494 0.6452588
vt 0.1317624 0.8519219
vt -0.599709 0.4991109
vt -0.599709 -0.01446046
vt -0.599709 0.4991109
vt -0.599709 -0.01446046
vt -0.599709 0.4991109
vt -0.599709 -0.01446043
vt -0.599709 0.4991109
vt -0.599709 -0.01446046
vt -0.599709 0.4991109
vt -0.599709 -0.01446046
vt -0.599709 0.4991109
vt -0.599709 -0.01446046
vt -0.599709 0.4991109
vt -0.599709 -0.01446046
vt 1.400291 -0.01446043
vt 1.400291 0.4991109
vt -0.2629308 0.6929902
vt 0.002628654 0.6929902
vt -0.3831872 0.6929902
vt -0.2629308 0.6929902
vt -0.9416755 0.6929902
vt -0.7629308 0.9719577
vt 0.2435167 0.6929902
vt -0.7629308 0.9719577
vt -0.7564833 0.6929902
vt -0.2105633 0.6929902
vt 0.2779419 0.6929902
vt 0.1994183 1.002503
vt 0.1994183 0.6452588
vt 0.02067351 1.002503
vt 0.02348162 0.6929902
vt 0.2370692 0.847342
vt 0.2370692 0.6929902
vt -0.2629308 0.6929902
vt -0.7220581 0.6929902
vt -0.7629308 0.9719577
vt 0.4105381 1.002503
vt -0.03347012 1.002503
vt 0.1994183 1.002503
vt 0.1994183 0.6452588
vt -1.06758 0.6929902
vt -0.3992214 0.6929902
vt -0.2629308 0.9719577
vt 0.06871018 0.6929902
vn 0.7796059 -0.4541088 -0.431277
vn 0.2455745 -0.4541338 -0.8564202
vn -0.4326014 -0.4541087 -0.7788718
vn -0.8564447 -0.4540839 -0.2455814
vn -0.779606 -0.4541088 0.4312767
vn -0.2455746 -0.4541338 0.8564202
vn 0.4326016 -0.4541088 0.7788717
vn 0.8564447 -0.4540839 0.2455817
vn 0.8852146 -0.4542367 -0.10032
vn 0.6975431 -0.4542366 0.5541684
vn 0.10138 -0.4542727 0.8850754
vn -0.5549937 -0.4542727 0.6968632
vn -0.8852146 -0.4542366 0.1003198
vn -0.6975432 -0.4542366 -0.5541684
vn -0.1013799 -0.4542726 -0.8850754
vn 0.5549935 -0.4542727 -0.6968634
vn 0.7829807 0 0.6220461
vn 0.4855528 0 0.8742074
vn 0.1138006 0 0.9935036
vn -0.2756369 0 0.9612618
vn -0.6229849 0 0.7822339
vn -0.8750317 0 0.4840656
vn -0.9936395 0 0.1126079
vn -0.9612619 0 -0.2756364
vn -0.782981 0 -0.6220456
vn -0.4855525 0 -0.8742076
vn -0.1137988 0 -0.9935039
vn 0.2756385 0 -0.9612614
vn 0.6229835 0 -0.7822349
vn 0.8750313 0 -0.4840665
vn 0.9936395 0 -0.1126076
vn 0.9612616 0 0.2756377
vn 0.1348342 0 -0.9908682
vn -0.1348346 0 0.9908681
vn 0.7954773 0 -0.6059834
vn 0.5035431 0 -0.8639701
vn 0.9666717 0 -0.2560192
vn -0.9666717 0 0.2560193
vn -0.2548593 0 -0.9669781
vn -0.890626 -0.4526122 -0.04390423
vn -0.8796049 -0.4283666 0.2068751
vn -0.8119675 -0.4273416 0.397603
vn -0.3964469 -0.4493537 0.8005692
vn -0.1226971 -0.4283994 0.8952203
vn 0.6740116 -0.4374417 0.5952756
vn 0.7314135 -0.4510176 0.5114856
vn 0.8926899 -0.4504795 0.01314935
vn 0.8722871 -0.4438465 -0.2052202
vn 0.7320899 -0.4491867 -0.5121285
vn 0.396641 -0.4507353 -0.799696
vn 0.06369665 -0.4319498 -0.8996455
vn -0.3935133 -0.4463423 -0.8036951
vn -0.601327 -0.4453143 -0.6634011
vn -0.7678187 -0.4597201 -0.4462196
vn -0.5890061 -0.4578578 0.6659114
vn -0.4465281 -0.4598843 0.7675409
vn 0.3904999 -0.4598359 0.7975342
vn 0.7667939 -0.4619163 0.4457135
vn 0.8696237 -0.4613731 0.1757545
vn 0.870658 -0.4617119 -0.1696372
vn 0.7394457 -0.4615965 -0.4900499
vn 0.4464804 -0.4623465 -0.7660882
vn -0.7678207 -0.4597186 -0.4462177
vn -0.8807107 -0.4586489 -0.118279
vn 0.676361 -0.4331408 0.5957558
vn 0.6802481 -0.4256167 0.5967519
vn 0.05426149 -0.4282759 0.9020175
vn 0.05365017 -0.4199196 0.9059742
vn 0.899528 -0.4331499 -0.05683709
vn 0.9058705 -0.4192222 -0.06042792
vn 0.9025109 -0.4265849 -0.05915437
vn -0.6770441 -0.4311372 -0.5964328
vn -0.2896152 -0.4515904 0.843913
vn -0.2914622 -0.4332238 0.8528582
vn -0.5883359 -0.458613 0.6659842
vn -0.5893235 -0.4556308 0.6671569
vn -0.2930108 -0.4183113 0.8597443
vn -0.2915942 -0.4217156 0.8585621
vn -0.8119616 -0.4279742 0.3969338
vn -0.8189366 -0.4138617 0.3975694
vn -0.8154906 -0.4213305 0.3968067
vn 0.3932301 -0.4545317 0.7992315
vn 0.3924775 -0.4515257 0.8013026
vn 0.2921326 -0.435876 -0.851276
vn 0.2890204 -0.455137 -0.8422099
vn -0.6691499 -0.455573 -0.5871044
vn -0.5400987 -0.4542688 -0.7084726
vn -0.6702626 -0.4507756 -0.5895333
vn -0.3934786 -0.4470816 -0.803301
vn -0.8941546 -0.4443692 0.0549867
vn -0.8892654 -0.4542607 0.05342486
vn -0.8904526 -0.4519595 0.05316676
vn -0.9080627 -0.4144078 0.06073111
vn -0.9060606 -0.4187846 0.06061015
vn -0.6703479 -0.4487648 -0.5909685
vn -0.6761332 -0.4292719 -0.5988068
vn -0.05400033 -0.4142786 -0.9085468
vn -0.05414194 -0.4324984 -0.9000077
vn -0.05297013 -0.42435 -0.9039477
vn 0.6681299 -0.4574094 0.5868384
vn 0.3907411 -0.4526806 0.8014996
vn 0.6692421 -0.4545156 0.5878184
vn 0.3915827 -0.4555274 0.7994735
vn 0.6881297 -0.4131983 0.5964434
vn 0.05474026 -0.4110821 0.9099532
vn -0.6768751 -0.4288065 -0.5983018
vn -0.2455746 -0.4541338 0.8564202
vn -0.2756369 0 0.9612618
vn 0.4326016 -0.4541088 0.7788717
vn 0.4855528 0 0.8742074
vn 0.8564447 -0.4540839 0.2455817
vn 0.9612616 0 0.2756377
vn 0.7796059 -0.4541088 -0.431277
vn 0.8750313 0 -0.4840665
vn 0.2455745 -0.4541338 -0.8564202
vn 0.2756385 0 -0.9612614
vn -0.4326014 -0.4541087 -0.7788718
vn -0.4855525 0 -0.8742076
vn -0.8564447 -0.4540839 -0.2455814
vn -0.9612619 0 -0.2756364
vn -0.8750317 0 0.4840656
vn -0.779606 -0.4541088 0.4312767
vn -0.3964469 -0.4493537 0.8005692
vn -0.2914622 -0.4332238 0.8528582
vn 0.7314135 -0.4510176 0.5114856
vn 0.8722871 -0.4438465 -0.2052202
vn 0.8926899 -0.4504795 0.01314935
vn 0.8696237 -0.4613731 0.1757545
vn 0.7320899 -0.4491867 -0.5121285
vn 0.7394457 -0.4615965 -0.4900499
vn 0.7320899 -0.4491867 -0.5121285
vn 0.396641 -0.4507353 -0.799696
vn -0.890626 -0.4526122 -0.04390423
vn -0.1226971 -0.4283994 0.8952203
vn -0.1348346 0 0.9908681
vn 0.8926899 -0.4504795 0.01314935
vn 0.2921326 -0.435876 -0.851276
vn -0.5400987 -0.4542688 -0.7084726
vn -0.601327 -0.4453143 -0.6634011
vn -0.8796049 -0.4283666 0.2068751
vn -0.890626 -0.4526122 -0.04390423
vn -0.8807107 -0.4586489 -0.118279
vn -0.6703479 -0.4487648 -0.5909685
vn -0.601327 -0.4453143 -0.6634011
vn 0.06369665 -0.4319498 -0.8996455
vn 0.1348342 0 -0.9908682
vn 0.6740116 -0.4374417 0.5952756
vn 0.7314135 -0.4510176 0.5114856
vn 0.7667939 -0.4619163 0.4457135
vn 0.3931861 -0.4478332 0.8030256
g backdrop_Clouds2_geo_0
f 12/12/12 22/22/22 5/5/5
f 21/21/21 22/22/22 12/12/12
f 20/20/20 21/21/21 12/12/12
f 20/20/20 12/12/12 6/6/6
f 11/11/11 7/7/7 18/18/18
f 19/19/19 11/11/11 18/18/18
f 107/107/107 11/11/11 19/19/19
f 108/108/108 107/107/107 19/19/19
f 10/10/10 8/8/8 32/32/32
f 17/17/17 10/10/10 32/32/32
f 109/109/109 10/10/10 17/17/17
f 110/110/110 109/109/109 17/17/17
f 9/9/9 1/1/1 30/30/30
f 31/31/31 9/9/9 30/30/30
f 111/111/111 9/9/9 31/31/31
f 112/112/112 111/111/111 31/31/31
f 16/16/16 2/2/2 28/28/28
f 29/29/29 16/16/16 28/28/28
f 113/113/113 16/16/16 29/29/29
f 114/114/114 113/113/113 29/29/29
f 15/15/15 3/3/3 26/26/26
f 27/27/27 15/15/15 26/26/26
f 115/115/115 15/15/15 27/27/27
f 116/116/116 115/115/115 27/27/27
f 14/14/14 4/4/4 24/24/24
f 25/25/25 14/14/14 24/24/24
f 117/117/117 14/14/14 25/25/25
f 118/118/118 117/117/117 25/25/25
f 13/13/13 122/122/122 121/121/121
f 23/23/23 13/13/13 121/121/121
f 119/119/119 13/13/13 23/23/23
f 120/120/120 119/119/119 23/23/23
f 41/41/41 94/94/94 40/40/40
f 93/93/93 94/94/94 41/41/41
f 38/38/38 93/93/93 41/41/41
f 66/66/66 46/46/46 104/104/104
f 45/45/45 46/46/46 66/66/66
f 65/65/65 45/45/45 66/66/66
f 84/84/84 36/36/36 50/50/50
f 33/33/33 36/36/36 84/84/84
f 51/51/51 33/33/33 84/84/84
f 48/48/48 70/70/70 71/71/71
f 37/37/37 70/70/70 48/48/48
f 49/49/49 37/37/37 48/48/48
f 35/35/35 37/37/37 49/49/49
f 77/77/77 44/44/44 34/34/34
f 74/74/74 44/44/44 77/77/77
f 78/78/78 74/74/74 77/77/77
f 43/43/43 74/74/74 78/78/78
f 41/41/41 80/80/80 38/38/38
f 81/81/81 80/80/80 41/41/41
f 42/42/42 81/81/81 41/41/41
f 79/79/79 81/81/81 42/42/42
f 56/56/56 124/124/124 123/123/123
f 76/76/76 56/56/56 123/123/123
f 55/55/55 56/56/56 76/76/76
f 75/75/75 55/55/55 76/76/76
f 56/56/56 73/73/73 124/124/124
f 125/125/125 59/59/59 47/47/47
f 58/58/58 59/59/59 125/125/125
f 126/126/126 61/61/61 129/129/129
f 60/60/60 61/61/61 126/126/126
f 127/127/127 60/60/60 126/126/126
f 128/128/128 60/60/60 127/127/127
f 62/62/62 131/131/131 130/130/130
f 132/132/132 131/131/131 62/62/62
f 137/137/137 132/132/132 62/62/62
f 63/63/63 54/54/54 95/95/95
f 133/133/133 54/54/54 63/63/63
f 64/64/64 133/133/133 63/63/63
f 68/68/68 134/134/134 67/67/67
f 135/135/135 134/134/134 68/68/68
f 105/105/105 135/135/135 68/68/68
f 71/71/71 136/136/136 48/48/48
f 69/69/69 136/136/136 71/71/71
f 62/62/62 85/85/85 137/137/137
f 95/95/95 86/86/86 63/63/63
f 88/88/88 86/86/86 95/95/95
f 53/53/53 88/88/88 95/95/95
f 87/87/87 88/88/88 53/53/53
f 89/89/89 139/139/139 52/52/52
f 138/138/138 139/139/139 89/89/89
f 141/141/141 90/90/90 140/140/140
f 92/92/92 90/90/90 141/141/141
f 91/91/91 92/92/92 141/141/141
f 141/141/141 142/142/142 91/91/91
f 144/144/144 106/106/106 72/72/72
f 96/96/96 106/106/106 144/144/144
f 143/143/143 96/96/96 144/144/144
f 146/146/146 97/97/97 39/39/39
f 99/99/99 97/97/97 146/146/146
f 145/145/145 99/99/99 146/146/146
f 98/98/98 99/99/99 145/145/145
f 148/148/148 100/100/100 149/149/149
f 102/102/102 100/100/100 148/148/148
f 147/147/147 102/102/102 148/148/148
f 83/83/83 101/101/101 150/150/150
f 103/103/103 101/101/101 83/83/83
f 82/82/82 103/103/103 83/83/83
f 57/57/57 103/103/103 82/82/82
