g backdrops_skyClouds_geo
v -1279.652 19.20186 1374.79
v 65.60804 19.20186 1878.76
v 1372.435 19.20186 1282.177
v 1875.309 19.20186 -65.48706
v 1279.652 19.20186 -1374.79
v -65.60743 19.20186 -1878.76
v -1372.435 19.20186 -1282.177
v -1875.309 19.20186 65.4874
v -1279.652 1242.161 1374.79
v 65.60804 1242.161 1878.76
v 1372.435 1242.161 1282.177
v 1875.309 1242.161 -65.48706
v 1279.652 1242.161 -1374.79
v -65.60743 1242.161 -1878.76
v -1372.435 1242.161 -1282.177
v -1875.309 1242.161 65.4874
v -1708.143 1242.161 779.7881
v -1758.378 1242.161 -658.7341
v -778.5779 1242.161 -1711.379
v 657.3022 1242.161 -1761.521
v 1708.144 1242.161 -779.7875
v 1758.378 1242.161 658.7345
v 778.5785 1242.161 1711.379
v -657.3015 1242.161 1761.521
v -1708.143 19.20186 779.7881
v -1758.378 19.20186 -658.7341
v -778.5779 19.20186 -1711.379
v 657.3022 19.20186 -1761.521
v 1708.144 19.20186 -779.7875
v 1758.378 19.20186 658.7345
v 778.5785 19.20186 1711.379
v -657.3015 19.20186 1761.521
v -1279.652 -1088.641 1374.79
v -657.3015 -1088.641 1761.521
v 65.60804 -1088.641 1878.76
v 778.5785 -1088.641 1711.379
v 1372.435 -1088.641 1282.177
v 1758.378 -1088.641 658.7345
v 1875.309 -1088.641 -65.48706
v 1708.144 -1088.641 -779.7875
v 1279.652 -1088.641 -1374.79
v 657.3022 -1088.641 -1761.521
v -65.60743 -1088.641 -1878.76
v -778.5779 -1088.641 -1711.379
v -1372.435 -1088.641 -1282.177
v -1758.378 -1088.641 -658.7341
v -1875.309 -1088.641 65.4874
v -1708.143 -1088.641 779.7881
vt 0.3629763 0.004575312
vt 0.3629763 0.004575312
vt 0.3629763 0.004575312
vt 0.3629763 0.004575312
vt 0.3629763 0.004575312
vt 0.3629763 0.004575312
vt 0.3629763 0.004575312
vt 0.3629763 0.004575312
vt 0.3629763 0.9938996
vt 0.3629763 0.9938996
vt 0.3629763 0.9938996
vt 0.3629763 0.9938996
vt 0.3629763 0.9938996
vt 0.3629763 0.9938996
vt 0.3629763 0.9938996
vt 0.3629763 0.9938996
vt 0.3629763 0.9938996
vt 0.3629763 0.9938996
vt 0.3629763 0.9938996
vt 0.3629763 0.9938996
vt 0.3629763 0.9938996
vt 0.3629763 0.9938996
vt 0.3629763 0.9938996
vt 0.3629763 0.9938996
vt 0.3629763 0.004575312
vt 0.3629763 0.004575312
vt 0.3629763 0.004575312
vt 0.3629763 0.004575312
vt 0.3629763 0.004575312
vt 0.3629763 0.004575312
vt 0.3629763 0.004575312
vt 0.3629763 0.004575312
vt 0.3629763 0.004575312
vt 0.3629763 0.004575312
vt 0.3629763 0.004575342
vt 0.3629763 0.004575327
vt 0.3629763 0.004575357
vt 0.3629763 0.004575338
vt 0.3629763 0.004575312
vt 0.3629763 0.004575342
vt 0.3629763 0.004575312
vt 0.3629763 0.004575312
vt 0.3629763 0.004575327
vt 0.3629763 0.004575342
vt 0.3629763 0.004575312
vt 0.3629763 0.004575312
vt 0.3629763 0.004575312
vt 0.3629763 0.004575312
vn 0.6826195 0 -0.730774
vn -0.03489948 0 -0.9993908
vn -0.731933 0 -0.6813766
vn -0.9993908 0 0.03489952
vn -0.6826199 0 0.7307737
vn 0.0348995 0 0.9993908
vn 0.7319331 0 0.6813764
vn 0.9993908 0 -0.03489947
vn 0.6081774 -0.4541088 -0.6510804
vn -0.03109311 -0.4541338 -0.8903908
vn -0.652113 -0.4541088 -0.6070698
vn -0.8904161 -0.4540839 0.03109405
vn -0.6081776 -0.4541088 0.65108
vn 0.03109313 -0.4541338 0.8903908
vn 0.6521131 -0.4541088 0.6070697
vn 0.8904161 -0.4540839 -0.03109399
vn 0.8108885 -0.4542367 -0.3689564
vn 0.8346504 -0.4542367 0.3114927
vn 0.3699213 -0.4542727 0.8104286
vn -0.3124877 -0.4542727 0.8342588
vn -0.8108887 -0.4542367 0.3689561
vn -0.8346504 -0.4542367 -0.3114927
vn -0.3699213 -0.4542727 -0.8104286
vn 0.3124875 -0.4542727 -0.8342589
vn 0.9102097 0 -0.4141478
vn 0.936882 0 0.3496457
vn 0.4152395 0 0.9097121
vn -0.3507698 0 0.9364617
vn -0.9102098 0 0.4141474
vn -0.936882 0 -0.3496456
vn -0.4152394 0 -0.9097122
vn 0.3507695 0 -0.9364619
vn 0.6826195 0 -0.730774
vn 0.3507695 0 -0.9364619
vn -0.03489948 0 -0.9993908
vn -0.4152394 0 -0.9097122
vn -0.731933 0 -0.6813766
vn -0.936882 0 -0.3496456
vn -0.9993908 0 0.03489952
vn -0.9102098 0 0.4141475
vn -0.6826199 0 0.7307737
vn -0.3507698 0 0.9364617
vn 0.0348995 0 0.9993908
vn 0.4152395 0 0.9097121
vn 0.7319331 0 0.6813765
vn 0.936882 0 0.3496458
vn 0.9993908 0 -0.03489948
vn 0.9102097 0 -0.4141478
g backdrops_skyClouds_geo_0
f 2/2/2 34/34/34 32/32/32
f 35/35/35 34/34/34 2/2/2
f 31/31/31 35/35/35 2/2/2
f 36/36/36 35/35/35 31/31/31
f 3/3/3 36/36/36 31/31/31
f 37/37/37 36/36/36 3/3/3
f 30/30/30 37/37/37 3/3/3
f 38/38/38 37/37/37 30/30/30
f 4/4/4 38/38/38 30/30/30
f 39/39/39 38/38/38 4/4/4
f 29/29/29 39/39/39 4/4/4
f 40/40/40 39/39/39 29/29/29
f 5/5/5 40/40/40 29/29/29
f 41/41/41 40/40/40 5/5/5
f 28/28/28 41/41/41 5/5/5
f 42/42/42 41/41/41 28/28/28
f 6/6/6 42/42/42 28/28/28
f 43/43/43 42/42/42 6/6/6
f 27/27/27 43/43/43 6/6/6
f 44/44/44 43/43/43 27/27/27
f 7/7/7 44/44/44 27/27/27
f 45/45/45 44/44/44 7/7/7
f 26/26/26 45/45/45 7/7/7
f 46/46/46 45/45/45 26/26/26
f 8/8/8 46/46/46 26/26/26
f 47/47/47 46/46/46 8/8/8
f 25/25/25 47/47/47 8/8/8
f 48/48/48 47/47/47 25/25/25
f 1/1/1 48/48/48 25/25/25
f 33/33/33 48/48/48 1/1/1
f 32/32/32 33/33/33 1/1/1
f 34/34/34 33/33/33 32/32/32
f 24/24/24 32/32/32 1/1/1
f 2/2/2 32/32/32 24/24/24
f 10/10/10 2/2/2 24/24/24
f 23/23/23 2/2/2 10/10/10
f 11/11/11 23/23/23 10/10/10
f 3/3/3 23/23/23 11/11/11
f 22/22/22 3/3/3 11/11/11
f 30/30/30 3/3/3 22/22/22
f 4/4/4 30/30/30 22/22/22
f 18/18/18 26/26/26 7/7/7
f 8/8/8 26/26/26 18/18/18
f 16/16/16 8/8/8 18/18/18
f 25/25/25 8/8/8 16/16/16
f 17/17/17 25/25/25 16/16/16
f 1/1/1 25/25/25 17/17/17
f 9/9/9 1/1/1 17/17/17
f 24/24/24 1/1/1 9/9/9
f 10/10/10 24/24/24 9/9/9
f 23/23/23 31/31/31 2/2/2
f 3/3/3 31/31/31 23/23/23
f 21/21/21 29/29/29 4/4/4
f 12/12/12 21/21/21 4/4/4
f 13/13/13 21/21/21 12/12/12
f 15/15/15 13/13/13 12/12/12
f 14/14/14 13/13/13 15/15/15
f 19/19/19 14/14/14 15/15/15
f 6/6/6 14/14/14 19/19/19
f 27/27/27 6/6/6 19/19/19
f 20/20/20 14/14/14 6/6/6
f 13/13/13 14/14/14 20/20/20
f 5/5/5 13/13/13 20/20/20
f 21/21/21 13/13/13 5/5/5
f 29/29/29 21/21/21 5/5/5
f 28/28/28 20/20/20 6/6/6
f 5/5/5 20/20/20 28/28/28
f 9/9/9 11/11/11 10/10/10
f 12/12/12 11/11/11 9/9/9
f 16/16/16 12/12/12 9/9/9
f 15/15/15 12/12/12 16/16/16
f 18/18/18 15/15/15 16/16/16
f 7/7/7 15/15/15 18/18/18
f 22/22/22 12/12/12 4/4/4
f 11/11/11 12/12/12 22/22/22
f 17/17/17 16/16/16 9/9/9
f 19/19/19 7/7/7 27/27/27
f 15/15/15 7/7/7 19/19/19
