g backwardsBallcap_geo
v 1.832843E-08 1.895459 -0.1262534
v 1.445413E-08 1.850636 -0.2329145
v -1.005539E-19 1.748057 0.1279951
v -2.041425E-18 1.608291 -0.2878911
v -7.033348E-08 1.896715 -0.02753717
v 0.102946 1.837158 -0.2179768
v 0.1725958 1.799314 -0.227741
v 0.1932447 1.695813 -0.05556341
v 0.09307861 1.612789 -0.2690216
v 0.1151345 1.868031 -0.1261497
v 0.0797709 1.745441 0.1042907
v 0.1484269 1.727557 0.03991025
v 0.1158141 1.879984 -0.02798897
v 0.1784763 1.843122 -0.03170808
v 0.1518026 1.639439 -0.2236144
v -0.1029459 1.837158 -0.2179768
v -0.1725958 1.799314 -0.227741
v -0.200819 1.695813 -0.05722214
v -0.09307861 1.612789 -0.2635347
v -0.1151345 1.868031 -0.1261497
v -0.0797709 1.745441 0.1042907
v -0.1484269 1.727557 0.03991025
v -0.1158139 1.879983 -0.02798902
v -0.1784763 1.843122 -0.03170817
v -0.1651627 1.640065 -0.2218439
v 0.156391 1.840338 0.02178532
v 0.1087081 1.860778 0.05069454
v 3.576278E-08 1.870228 0.06161362
v -0.1087081 1.860778 0.05069445
v -0.1581821 1.847001 0.02310242
v -0.1936217 1.828731 -0.1236674
v 0.1936217 1.828731 -0.1236674
v 0.1120218 1.791383 -0.2767537
v 2.130866E-08 1.805805 -0.2931722
v -0.1120217 1.791383 -0.2767538
v -0.2004448 1.703616 -0.05894902
v -0.1640887 1.647812 -0.223523
v -0.09345104 1.626227 -0.2717336
v 1.072884E-08 1.615648 -0.2974725
v 0.09343707 1.625171 -0.2771395
v 0.1507286 1.647187 -0.2252936
v 0.1927857 1.7036 -0.05733953
v 0.1478633 1.735058 0.03735818
v 0.07772442 1.773386 0.0975576
v 9.834766E-09 1.772554 0.1216755
v -0.07792526 1.77333 0.09842335
v -0.1477347 1.735063 0.03742951
v 0.1769825 1.532929 -0.3614947
v 0.1014781 1.540792 -0.4049911
v 0.1759693 1.54073 -0.3629468
v -0.1769827 1.532929 -0.3614947
v -0.1014671 1.540845 -0.4050165
v -0.1759693 1.54073 -0.3629467
v -0.1021762 1.548814 -0.4050541
v 0.1021656 1.548762 -0.4050553
v -4.410744E-08 1.549153 -0.4197844
v -2.101064E-08 1.541162 -0.420164
v 1.817942E-08 1.82155 0.1005451
v -0.05635352 1.810927 0.08998702
v 0.05767287 1.812136 0.09190717
v -0.07759353 1.781043 0.09448756
v 0.07718925 1.77946 0.09230448
v 0.06742928 1.78058 0.09828762
v 4.306435E-08 1.7802 0.1172234
v -0.06989136 1.781239 0.09847931
v 4.574656E-08 1.814369 0.1043268
v 0.05140626 1.805815 0.09466416
v -0.05029784 1.804849 0.09347671
v -0.07840952 1.753087 0.1024066
v 3.278255E-09 1.755804 0.1259968
v 0.07840963 1.753086 0.1024066
v -0.1996256 1.679783 -0.1511919
v -0.2001607 1.671845 -0.1503545
v 0.193197 1.678787 -0.1501724
v 0.1938897 1.670981 -0.1485616
v 0.1932607 1.701278 -0.1461966
v 0.1540086 1.670006 -0.2256607
v 0.09622477 1.650105 -0.2830264
v 1.231581E-08 1.643662 -0.3031408
v -0.09623664 1.651003 -0.2784315
v -0.1653648 1.670538 -0.2241557
v -0.198725 1.702125 -0.1470632
v -0.1984698 1.708455 -0.1458934
v -0.1657263 1.676976 -0.224335
v -0.0970259 1.658022 -0.2803292
v 1.276545E-08 1.6516 -0.3047467
v 0.09701463 1.65717 -0.2846944
v 0.154938 1.676471 -0.2257647
v 0.1932787 1.707651 -0.1450702
v -0.1989481 1.731061 -0.07314546
v -0.1526719 1.762201 0.02751838
v -0.199212 1.726221 -0.07064219
v -0.1513342 1.754848 0.03020371
v 0.1929733 1.731671 -0.07221911
v 0.152933 1.764037 0.02646104
v 0.1929343 1.725841 -0.06912898
v 0.1515568 1.756171 0.02941897
v -0.0704679 1.773229 0.1014414
v -0.07249428 1.753386 0.1050086
v 0.06786483 1.773253 0.1014111
v 0.06920327 1.753496 0.1059615
v -0.1936217 1.828731 -0.1236674
v 0.1927857 1.7036 -0.05733953
v 0.1478633 1.735058 0.03735818
v -0.1784763 1.843122 -0.03170817
v 0.1769825 1.532929 -0.3614947
v 0.1014781 1.540792 -0.4049911
v 0.1507286 1.647187 -0.2252936
v 0.1518026 1.639439 -0.2236144
v -0.1014671 1.540845 -0.4050165
v -0.1769827 1.532929 -0.3614947
v -0.1651627 1.640065 -0.2218439
v -2.101064E-08 1.541162 -0.420164
v -0.1477347 1.735063 0.03742951
v -0.1581821 1.847001 0.02310242
v -0.1087081 1.860778 0.05069445
v -0.07759353 1.781043 0.09448756
v 0.07772442 1.773386 0.0975576
v 0.07840963 1.753086 0.1024066
v 0.156391 1.840338 0.02178532
v 0.1087081 1.860778 0.05069454
v 0.07718925 1.77946 0.09230448
v 0.07772442 1.773386 0.0975576
v 0.06786483 1.773253 0.1014111
v 0.07718925 1.77946 0.09230448
v -0.0704679 1.773229 0.1014414
v 9.834766E-09 1.772554 0.1216755
v 0.05767287 1.812136 0.09190717
v 1.817942E-08 1.82155 0.1005451
v -0.05635352 1.810927 0.08998702
v -0.07792526 1.77333 0.09842335
v -0.07759353 1.781043 0.09448756
v -0.07840952 1.753087 0.1024066
v -0.07249428 1.753386 0.1050086
v 3.278255E-09 1.755804 0.1259968
v -0.1984698 1.708455 -0.1458934
v -0.1651627 1.640065 -0.2218439
v -0.1640887 1.647812 -0.223523
v 0.193197 1.678787 -0.1501724
v 0.1932607 1.701278 -0.1461966
v 4.306435E-08 1.7802 0.1172234
v 0.05140626 1.805815 0.09466416
v 0.06742928 1.78058 0.09828762
v 4.574656E-08 1.814369 0.1043268
v -0.05029784 1.804849 0.09347671
v -0.06989136 1.781239 0.09847931
v 0.1540086 1.670006 -0.2256607
v 0.1507286 1.647187 -0.2252936
v 0.09622477 1.650105 -0.2830264
v 0.09343707 1.625171 -0.2771395
v 1.231581E-08 1.643662 -0.3031408
v 1.072884E-08 1.615648 -0.2974725
v -0.09623664 1.651003 -0.2784315
v -0.09345104 1.626227 -0.2717336
v -0.1653648 1.670538 -0.2241557
v -0.1640887 1.647812 -0.223523
v -0.198725 1.702125 -0.1470632
v -0.1996256 1.679783 -0.1511919
v -0.1657263 1.676976 -0.224335
v -0.1725958 1.799314 -0.227741
v -0.0970259 1.658022 -0.2803292
v -0.1120217 1.791383 -0.2767538
v 1.276545E-08 1.6516 -0.3047467
v 2.130866E-08 1.805805 -0.2931722
v 0.09701463 1.65717 -0.2846944
v 0.1120218 1.791383 -0.2767537
v 0.154938 1.676471 -0.2257647
v 0.1725958 1.799314 -0.227741
v 0.1932787 1.707651 -0.1450702
v 0.1936217 1.828731 -0.1236674
v -0.1989481 1.731061 -0.07314546
v -0.1513342 1.754848 0.03020371
v -0.1526719 1.762201 0.02751838
v -0.199212 1.726221 -0.07064219
v -0.2004448 1.703616 -0.05894902
v 0.1784763 1.843122 -0.03170808
v 0.1929343 1.725841 -0.06912898
v 0.1929733 1.731671 -0.07221911
v 0.1515568 1.756171 0.02941897
v 0.152933 1.764037 0.02646104
v -0.07792526 1.77333 0.09842335
v -0.0704679 1.773229 0.1014414
v 0.06920327 1.753496 0.1059615
v 9.834766E-09 1.772554 0.1216755
v 0.06786483 1.773253 0.1014111
v 3.278255E-09 1.755804 0.1259968
v 0.1518026 1.639439 -0.2236144
vt 0.822331 0.8247916
vt 0.8223373 0.7842581
vt 0.9945219 0.7550505
vt 0.9112246 0.8293893
vt 0.8223165 0.8585591
vt 0.7880219 0.7877082
vt 0.7610215 0.779821
vt 0.9945219 0.7550505
vt 0.9112613 0.8676963
vt 0.78521 0.8231866
vt 0.9945219 0.7550505
vt 0.9945219 0.7550505
vt 0.7855254 0.8586595
vt 0.7584646 0.8570213
vt 0.9945219 0.7550505
vt 0.8566538 0.7877165
vt 0.8836548 0.779829
vt 0.9945219 0.7550505
vt 0.9111879 0.7910887
vt 0.8594629 0.8232047
vt 0.9945219 0.7550505
vt 0.9945219 0.7550505
vt 0.859145 0.8587252
vt 0.8862369 0.857025
vt 0.9111563 0.7582985
vt 0.7650932 0.8784021
vt 0.7866368 0.8885327
vt 0.8222739 0.8909429
vt 0.857916 0.8886247
vt 0.7952849 0.9714659
vt 0.8891913 0.8214383
vt 0.7554867 0.8214316
vt 0.7823292 0.7595626
vt 0.8223401 0.7550324
vt 0.8623501 0.7595701
vt 0.9945219 0.7550505
vt 0.8693128 0.8883036
vt 0.895729 0.9078584
vt 0.9253749 0.9140246
vt 0.955419 0.9082298
vt 0.9945218 0.7550505
vt 0.9945219 0.7550505
vt 0.9945219 0.7550505
vt 0.994235 0.7552713
vt 0.7534727 0.988352
vt 0.7778031 0.988351
vt 0.9945219 0.7550505
vt 0.9805254 0.9489471
vt 0.9550686 0.9599807
vt 0.9779347 0.9473566
vt 0.8705723 0.9469867
vt 0.8947077 0.958807
vt 0.8727904 0.9457049
vt 0.8954107 0.9562391
vt 0.9544614 0.9573799
vt 0.9247577 0.9608679
vt 0.9247064 0.9635313
vt 0.8222469 0.9144996
vt 0.8390619 0.9146739
vt 0.8058023 0.9146634
vt 0.7782056 0.9868826
vt 0.9695532 0.9872385
vt 0.9943085 0.7563773
vt 0.9943085 0.7563773
vt 0.9943085 0.7563773
vt 0.9943085 0.7563773
vt 0.9943085 0.7563773
vt 0.9943085 0.7563773
vt 0.7778615 0.995211
vt 0.7534727 0.9959093
vt 0.994235 0.7552713
vt 0.9945219 0.7550505
vt 0.9945219 0.7550505
vt 0.9945219 0.7550505
vt 0.9945219 0.7550505
vt 0.9946132 0.7565376
vt 0.9946132 0.7565376
vt 0.9946132 0.7565374
vt 0.9946133 0.7565374
vt 0.9946132 0.7565374
vt 0.9946132 0.7565376
vt 0.9946132 0.7565376
vt 0.8284608 0.987921
vt 0.9946132 0.7565374
vt 0.9946132 0.7565374
vt 0.9946132 0.7565376
vt 0.9946132 0.7565376
vt 0.9946132 0.7565376
vt 0.9946132 0.7565376
vt 0.8218659 0.9872768
vt 0.7991356 0.9870886
vt 0.9946132 0.7565376
vt 0.7990142 0.9885652
vt 0.927092 0.9865618
vt 0.9498393 0.9866264
vt 0.9270946 0.987803
vt 0.9498329 0.9882312
vt 0.7746451 0.9883512
vt 0.7751713 0.995288
vt 0.994235 0.7552713
vt 0.994235 0.7552713
vt 0.8232352 0.9685516
vt 0.9271049 0.9925385
vt 0.9498159 0.9925385
vt 0.8063393 0.9692658
vt 0.9507681 0.8773945
vt 0.9563071 0.8558716
vt 0.9828971 0.8885679
vt 0.9854116 0.889554
vt 0.956251 0.8028194
vt 0.950667 0.7813073
vt 0.8668445 0.8892243
vt 0.958804 0.8293357
vt 0.7986875 0.9925385
vt 0.8764063 0.8786896
vt 0.7856967 0.9709631
vt 0.8494796 0.922169
vt 0.9699482 0.9886925
vt 0.9699676 0.994252
vt 0.9547077 0.9726781
vt 0.963929 0.9718311
vt 0.7949995 0.9221566
vt 0.9943085 0.7563773
vt 0.9943085 0.7563773
vt 0.9943085 0.7563773
vt 0.9943085 0.7563773
vt 0.9943085 0.7563773
vt 0.9943085 0.7563772
vt 0.9943085 0.7563773
vt 0.9943085 0.7563773
vt 0.9943085 0.7563773
vt 0.9943085 0.7563773
vt 0.9945219 0.7550505
vt 0.9945219 0.7550505
vt 0.9945219 0.7550505
vt 0.9946133 0.7565376
vt 0.9945219 0.7550505
vt 0.9945219 0.7550505
vt 0.9191111 0.9925385
vt 0.9203015 0.9885422
vt 0.8714894 0.6441738
vt 0.8714894 0.6441738
vt 0.8714894 0.6441738
vt 0.8714894 0.6441738
vt 0.8714894 0.6441738
vt 0.8714894 0.6441738
vt 0.9075871 0.9887084
vt 0.907691 0.9925384
vt 0.8904308 0.9885249
vt 0.8901878 0.9925385
vt 0.8739929 0.988283
vt 0.8741743 0.9925385
vt 0.8576072 0.9887796
vt 0.8581722 0.9925385
vt 0.8406858 0.9890529
vt 0.840669 0.9925385
vt 0.8287358 0.9889405
vt 0.8297065 0.9925385
vt 0.8406905 0.9880653
vt 0.8407809 0.9693014
vt 0.8574472 0.9877146
vt 0.8544059 0.9674793
vt 0.8739414 0.9870772
vt 0.8729647 0.9641684
vt 0.8904997 0.9873877
vt 0.8918082 0.9657809
vt 0.9075576 0.9876232
vt 0.9069979 0.9670048
vt 0.9206388 0.9874099
vt 0.927047 0.9658968
vt 0.9946132 0.7565376
vt 0.9946132 0.7565376
vt 0.9946132 0.7565376
vt 0.8217981 0.9882046
vt 0.8214811 0.9925385
vt 0.9442128 0.9685765
vt 0.9946133 0.7565374
vt 0.9946132 0.7565374
vt 0.9946132 0.7565376
vt 0.9946132 0.7565376
vt 0.9942349 0.7552713
vt 0.9942349 0.7552713
vt 0.9738522 0.9943323
vt 0.9957458 0.988702
vt 0.9740701 0.9886941
vt 0.9957458 0.9947844
vt 0.9112928 0.9004804
vn -4.148453E-07 0.9755489 -0.2197824
vn 2.259078E-07 0.8739544 -0.486008
vn 3.106163E-05 0.2163028 0.9763264
vn 0.005468019 -0.8904601 0.4550286
vn -7.694666E-07 0.9947509 0.1023264
vn 0.2904242 0.8383806 -0.4612719
vn 0.7049063 0.4387557 -0.5573156
vn 0.9752593 0.12151 0.1846742
vn -0.1664583 -0.8506716 0.4986476
vn 0.3258609 0.9206768 -0.2148693
vn 0.4551311 0.2640636 0.8503681
vn 0.8177846 0.2287809 0.5280982
vn 0.3320805 0.9386125 0.09342992
vn 0.8335756 0.4986782 0.2376378
vn 0.9331717 -0.3472054 0.09294608
vn -0.290424 0.8383808 -0.4612716
vn -0.6874907 0.4580123 -0.5635436
vn -0.9709936 0.1196831 0.2069961
vn -3.248396E-05 -0.8910416 0.4539216
vn -0.3258604 0.9206771 -0.2148691
vn -0.4686794 0.2652117 0.8426164
vn -0.8015827 0.2345877 0.5499399
vn -0.3161674 0.9454568 0.07842052
vn -0.8250819 0.5210378 0.2185393
vn -0.7053372 -0.6672432 0.239345
vn 0.7404241 0.2833887 0.6094776
vn 0.4002194 0.6304273 0.665121
vn -0.003699973 0.8170842 0.5765064
vn -0.3529093 0.6637754 0.6594371
vn -0.7366451 0.3065411 0.6028155
vn -0.8950191 0.4341175 -0.1023858
vn 0.9088771 0.4042197 -0.102707
vn 0.3929947 0.4386393 -0.8081775
vn -0.005382096 0.4714278 -0.8818883
vn -0.3836488 0.4360362 -0.8140553
vn -0.9729162 0.1060418 0.2054
vn -0.7761025 0.3239264 -0.5410514
vn -0.3206661 0.4201222 -0.8489231
vn -0.0180546 0.4094388 -0.912159
vn 0.3786554 0.5080594 -0.7736251
vn 0.8524979 0.168171 -0.4949404
vn 0.9780221 0.0832954 0.1911407
vn 0.8214093 0.180573 0.5409992
vn 0.5436572 0.3203124 0.7757815
vn 0.003193691 0.3437807 0.9390445
vn -0.5488321 0.2501895 0.7976143
vn -0.8063756 0.1884996 0.5605589
vn 0.5512484 -0.8261421 0.1166811
vn 0.1177494 -0.8720001 -0.4751325
vn 0.6348583 0.5212715 -0.5702903
vn -0.8172479 -0.5154927 -0.2576299
vn -0.09378608 -0.9831136 -0.1571361
vn -0.7530929 0.3233275 -0.572984
vn -0.2675984 0.561138 -0.7832721
vn 0.3038149 0.475744 -0.8254479
vn -0.002113996 0.5124391 -0.858721
vn 0.005377881 -0.8528786 -0.5220817
vn -0.01374597 0.4756825 0.8795096
vn -0.2633089 0.4211941 0.8679078
vn 0.3012837 0.3774523 0.8756472
vn -0.4929172 0.2782375 0.8243886
vn 0.5303003 0.2766316 0.8014091
vn 0.322022 0.3941777 0.8607704
vn 0.001051121 0.3996913 0.9166492
vn -0.2956201 0.3914811 0.8714076
vn -0.01137188 0.3611621 0.9324337
vn 0.2790814 0.3211977 0.9049562
vn -0.2679521 0.3754649 0.8872586
vn -0.5527813 0.2313348 0.8005729
vn 0.000987991 0.2261307 0.9740965
vn 0.5362735 0.2457798 0.807467
vn -0.9713623 0.03678206 -0.2347389
vn -0.9699041 0.03795774 -0.2405104
vn 0.9691658 0.008632984 -0.2462582
vn 0.9651628 0.03426498 -0.259397
vn 0.9744011 -0.01787044 -0.2241053
vn 0.8187445 -0.1065774 -0.5641796
vn 0.488379 -0.2079947 -0.8474811
vn -0.02391628 -0.2328975 -0.9722072
vn -0.4560098 -0.2064345 -0.8657019
vn -0.7936664 -0.07541137 -0.6036611
vn -0.9745716 0.03496155 -0.2213316
vn -0.9823529 0.03186585 -0.1843025
vn -0.8191473 -0.04841585 -0.5715362
vn -0.4470427 -0.1075177 -0.8880275
vn -0.01618911 -0.09125307 -0.9956961
vn 0.4715417 -0.1078974 -0.875218
vn 0.837162 -0.08427113 -0.5404239
vn 0.9834374 -0.02235859 -0.1798638
vn -0.984318 0.06252954 0.1649488
vn -0.8573409 0.07529081 0.5092131
vn -0.9766874 0.08043227 0.1990286
vn -0.8123639 0.1586614 0.5611517
vn 0.9862748 0.02104383 0.1637654
vn 0.8590494 0.09056429 0.5038177
vn 0.9805737 0.0379071 0.1924532
vn 0.8236079 0.172174 0.5403945
vn -0.3230465 0.3082465 0.8947765
vn -0.3346766 0.2266157 0.9146786
vn 0.3250794 0.3580462 0.8752863
vn 0.3179754 0.239771 0.9172794
vn -0.8950191 0.4341175 -0.1023858
vn 0.9780221 0.0832954 0.1911407
vn 0.8214093 0.180573 0.5409992
vn -0.8250819 0.5210378 0.2185393
vn 0.5512484 -0.8261421 0.1166811
vn 0.1177494 -0.8720001 -0.4751325
vn 0.8524979 0.168171 -0.4949404
vn 0.9331717 -0.3472054 0.09294608
vn -0.09378608 -0.9831136 -0.1571361
vn -0.8172479 -0.5154927 -0.2576299
vn -0.7053372 -0.6672432 0.239345
vn 0.005377881 -0.8528786 -0.5220817
vn -0.8063756 0.1884996 0.5605589
vn -0.7366451 0.3065411 0.6028155
vn -0.3529093 0.6637754 0.6594371
vn -0.4929172 0.2782375 0.8243886
vn 0.5436572 0.3203124 0.7757815
vn 0.5362735 0.2457798 0.807467
vn 0.7404241 0.2833887 0.6094776
vn 0.4002194 0.6304273 0.665121
vn 0.5303003 0.2766316 0.8014091
vn 0.5436572 0.3203124 0.7757815
vn 0.3250794 0.3580462 0.8752863
vn 0.5303003 0.2766316 0.8014091
vn -0.3230465 0.3082465 0.8947765
vn 0.003193691 0.3437807 0.9390445
vn 0.3012837 0.3774523 0.8756472
vn -0.01374597 0.4756825 0.8795096
vn -0.2633089 0.4211941 0.8679078
vn -0.5488321 0.2501895 0.7976143
vn -0.4929172 0.2782375 0.8243886
vn -0.5527813 0.2313348 0.8005729
vn -0.3346766 0.2266157 0.9146786
vn 0.000987991 0.2261307 0.9740965
vn -0.9823529 0.03186585 -0.1843025
vn -0.7053372 -0.6672432 0.239345
vn -0.7761025 0.3239264 -0.5410514
vn 0.9691658 0.008632984 -0.2462582
vn 0.9744011 -0.01787044 -0.2241053
vn 0.001051121 0.3996913 0.9166492
vn 0.2790814 0.3211977 0.9049562
vn 0.322022 0.3941777 0.8607704
vn -0.01137188 0.3611621 0.9324337
vn -0.2679521 0.3754649 0.8872586
vn -0.2956201 0.3914811 0.8714076
vn 0.8187445 -0.1065774 -0.5641796
vn 0.8524979 0.168171 -0.4949404
vn 0.488379 -0.2079947 -0.8474811
vn 0.3786554 0.5080594 -0.7736251
vn -0.02391628 -0.2328975 -0.9722072
vn -0.0180546 0.4094388 -0.912159
vn -0.4560098 -0.2064345 -0.8657019
vn -0.3206661 0.4201222 -0.8489231
vn -0.7936664 -0.07541137 -0.6036611
vn -0.7761025 0.3239264 -0.5410514
vn -0.9745716 0.03496155 -0.2213316
vn -0.9713623 0.03678206 -0.2347389
vn -0.8191473 -0.04841585 -0.5715362
vn -0.6874907 0.4580123 -0.5635436
vn -0.4470427 -0.1075177 -0.8880275
vn -0.3836488 0.4360362 -0.8140553
vn -0.01618911 -0.09125307 -0.9956961
vn -0.005382096 0.4714278 -0.8818883
vn 0.4715417 -0.1078974 -0.875218
vn 0.3929947 0.4386393 -0.8081775
vn 0.837162 -0.08427113 -0.5404239
vn 0.7049063 0.4387557 -0.5573156
vn 0.9834374 -0.02235859 -0.1798638
vn 0.9088771 0.4042197 -0.102707
vn -0.984318 0.06252954 0.1649488
vn -0.8123639 0.1586614 0.5611517
vn -0.8573409 0.07529081 0.5092131
vn -0.9766874 0.08043227 0.1990286
vn -0.9729162 0.1060418 0.2054
vn 0.8335756 0.4986782 0.2376378
vn 0.9805737 0.0379071 0.1924532
vn 0.9862748 0.02104383 0.1637654
vn 0.8236079 0.172174 0.5403945
vn 0.8590494 0.09056429 0.5038177
vn -0.5488321 0.2501895 0.7976143
vn -0.3230465 0.3082465 0.8947765
vn 0.3179754 0.239771 0.9172794
vn 0.003193691 0.3437807 0.9390445
vn 0.3250794 0.3580462 0.8752863
vn 0.000987991 0.2261307 0.9740965
vn 0.9331717 -0.3472054 0.09294608
g backwardsBallcap_geo_0
f 74/74/74 15/15/15 41/41/41
f 75/75/75 15/15/15 74/74/74
f 8/8/8 75/75/75 74/74/74
f 53/53/53 51/51/51 112/112/112
f 37/37/37 53/53/53 112/112/112
f 54/54/54 53/53/53 37/37/37
f 38/38/38 54/54/54 37/37/37
f 56/56/56 54/54/54 38/38/38
f 39/39/39 56/56/56 38/38/38
f 55/55/55 56/56/56 39/39/39
f 40/40/40 55/55/55 39/39/39
f 50/50/50 55/55/55 40/40/40
f 108/108/108 50/50/50 40/40/40
f 48/48/48 50/50/50 108/108/108
f 109/109/109 48/48/48 108/108/108
f 110/110/110 25/25/25 111/111/111
f 19/19/19 25/25/25 110/110/110
f 4/4/4 19/19/19 110/110/110
f 114/114/114 93/93/93 174/174/174
f 46/46/46 93/93/93 114/114/114
f 69/69/69 46/46/46 114/114/114
f 91/91/91 105/105/105 102/102/102
f 30/30/30 105/105/105 91/91/91
f 61/61/61 30/30/30 91/91/91
f 116/116/116 30/30/30 61/61/61
f 13/13/13 26/26/26 14/14/14
f 27/27/27 26/26/26 13/13/13
f 5/5/5 27/27/27 13/13/13
f 28/28/28 27/27/27 5/5/5
f 29/29/29 28/28/28 5/5/5
f 59/59/59 28/28/28 29/29/29
f 117/117/117 59/59/59 29/29/29
f 98/98/98 70/70/70 45/45/45
f 99/99/99 70/70/70 98/98/98
f 42/42/42 8/8/8 74/74/74
f 12/12/12 8/8/8 42/42/42
f 43/43/43 12/12/12 42/42/42
f 11/11/11 12/12/12 43/43/43
f 71/71/71 11/11/11 43/43/43
f 101/101/101 11/11/11 71/71/71
f 44/44/44 101/101/101 71/71/71
f 100/100/100 101/101/101 44/44/44
f 104/104/104 118/118/118 119/119/119
f 97/97/97 118/118/118 104/104/104
f 103/103/103 97/97/97 104/104/104
f 96/96/96 97/97/97 103/103/103
f 139/139/139 96/96/96 103/103/103
f 140/140/140 96/96/96 139/139/139
f 147/147/147 140/140/140 139/139/139
f 95/95/95 170/170/170 176/176/176
f 120/120/120 95/95/95 176/176/176
f 62/62/62 95/95/95 120/120/120
f 121/121/121 62/62/62 120/120/120
f 28/28/28 59/59/59 58/58/58
f 60/60/60 28/28/28 58/58/58
f 27/27/27 28/28/28 60/60/60
f 122/122/122 27/27/27 60/60/60
f 72/72/72 73/73/73 18/18/18
f 137/137/137 73/73/73 72/72/72
f 138/138/138 137/137/137 72/72/72
f 141/141/141 144/144/144 145/145/145
f 142/142/142 144/144/144 141/141/141
f 143/143/143 142/142/142 141/141/141
f 146/146/146 141/141/141 145/145/145
f 47/47/47 18/18/18 22/22/22
f 21/21/21 47/47/47 22/22/22
f 133/133/133 47/47/47 21/21/21
f 134/134/134 133/133/133 21/21/21
f 181/181/181 133/133/133 134/134/134
f 182/182/182 181/181/181 134/134/134
f 184/184/184 183/183/183 185/185/185
f 186/186/186 183/183/183 184/184/184
f 9/9/9 106/106/106 187/187/187
f 107/107/107 106/106/106 9/9/9
f 113/113/113 107/107/107 9/9/9
f 55/55/55 50/50/50 48/48/48
f 49/49/49 55/55/55 48/48/48
f 56/56/56 55/55/55 49/49/49
f 57/57/57 56/56/56 49/49/49
f 54/54/54 56/56/56 57/57/57
f 52/52/52 54/54/54 57/57/57
f 53/53/53 54/54/54 52/52/52
f 51/51/51 53/53/53 52/52/52
f 23/23/23 115/115/115 29/29/29
f 5/5/5 23/23/23 29/29/29
f 1/1/1 23/23/23 5/5/5
f 10/10/10 1/1/1 5/5/5
f 2/2/2 1/1/1 10/10/10
f 6/6/6 2/2/2 10/10/10
f 33/33/33 2/2/2 6/6/6
f 7/7/7 33/33/33 6/6/6
f 10/10/10 5/5/5 13/13/13
f 32/32/32 10/10/10 13/13/13
f 6/6/6 10/10/10 32/32/32
f 7/7/7 6/6/6 32/32/32
f 16/16/16 17/17/17 31/31/31
f 35/35/35 17/17/17 16/16/16
f 2/2/2 35/35/35 16/16/16
f 34/34/34 35/35/35 2/2/2
f 33/33/33 34/34/34 2/2/2
f 36/36/36 18/18/18 47/47/47
f 72/72/72 18/18/18 36/36/36
f 20/20/20 16/16/16 31/31/31
f 24/24/24 20/20/20 31/31/31
f 23/23/23 20/20/20 24/24/24
f 115/115/115 23/23/23 24/24/24
f 14/14/14 32/32/32 13/13/13
f 102/102/102 83/83/83 90/90/90
f 159/159/159 83/83/83 102/102/102
f 160/160/160 159/159/159 102/102/102
f 161/161/161 159/159/159 160/160/160
f 162/162/162 161/161/161 160/160/160
f 163/163/163 161/161/161 162/162/162
f 164/164/164 163/163/163 162/162/162
f 165/165/165 163/163/163 164/164/164
f 166/166/166 165/165/165 164/164/164
f 167/167/167 165/165/165 166/166/166
f 168/168/168 167/167/167 166/166/166
f 169/169/169 167/167/167 168/168/168
f 170/170/170 169/169/169 168/168/168
f 94/94/94 169/169/169 170/170/170
f 95/95/95 94/94/94 170/170/170
f 136/136/136 82/82/82 92/92/92
f 81/81/81 82/82/82 136/136/136
f 84/84/84 81/81/81 136/136/136
f 80/80/80 81/81/81 84/84/84
f 85/85/85 80/80/80 84/84/84
f 79/79/79 80/80/80 85/85/85
f 86/86/86 79/79/79 85/85/85
f 78/78/78 79/79/79 86/86/86
f 87/87/87 78/78/78 86/86/86
f 77/77/77 78/78/78 87/87/87
f 88/88/88 77/77/77 87/87/87
f 76/76/76 77/77/77 88/88/88
f 89/89/89 76/76/76 88/88/88
f 177/177/177 76/76/76 89/89/89
f 178/178/178 177/177/177 89/89/89
f 179/179/179 177/177/177 178/178/178
f 180/180/180 179/179/179 178/178/178
f 125/125/125 179/179/179 180/180/180
f 90/90/90 91/91/91 102/102/102
f 113/113/113 4/4/4 110/110/110
f 9/9/9 4/4/4 113/113/113
f 171/171/171 136/136/136 92/92/92
f 172/172/172 171/171/171 92/92/92
f 173/173/173 171/171/171 172/172/172
f 131/131/131 173/173/173 172/172/172
f 132/132/132 173/173/173 131/131/131
f 65/65/65 132/132/132 131/131/131
f 130/130/130 132/132/132 65/65/65
f 68/68/68 130/130/130 65/65/65
f 129/129/129 130/130/130 68/68/68
f 66/66/66 129/129/129 68/68/68
f 128/128/128 129/129/129 66/66/66
f 67/67/67 128/128/128 66/66/66
f 125/125/125 128/128/128 67/67/67
f 63/63/63 125/125/125 67/67/67
f 123/123/123 125/125/125 63/63/63
f 124/124/124 123/123/123 63/63/63
f 126/126/126 65/65/65 131/131/131
f 64/64/64 65/65/65 126/126/126
f 127/127/127 64/64/64 126/126/126
f 63/63/63 64/64/64 127/127/127
f 124/124/124 63/63/63 127/127/127
f 3/3/3 134/134/134 21/21/21
f 135/135/135 134/134/134 3/3/3
f 11/11/11 135/135/135 3/3/3
f 101/101/101 135/135/135 11/11/11
f 174/174/174 175/175/175 114/114/114
f 158/158/158 175/175/175 174/174/174
f 157/157/157 158/158/158 174/174/174
f 156/156/156 158/158/158 157/157/157
f 155/155/155 156/156/156 157/157/157
f 154/154/154 156/156/156 155/155/155
f 153/153/153 154/154/154 155/155/155
f 152/152/152 154/154/154 153/153/153
f 151/151/151 152/152/152 153/153/153
f 150/150/150 152/152/152 151/151/151
f 149/149/149 150/150/150 151/151/151
f 148/148/148 150/150/150 149/149/149
f 147/147/147 148/148/148 149/149/149
f 139/139/139 148/148/148 147/147/147
f 179/179/179 125/125/125 123/123/123
f 20/20/20 2/2/2 16/16/16
f 1/1/1 2/2/2 20/20/20
f 23/23/23 1/1/1 20/20/20
