g barrierLight_geo
v -0.306308 0.8662423 0.04476074
v -0.4993158 0.8662421 0.04476074
v -0.5958197 1.033392 0.04476074
v -0.4993158 1.200541 0.04476074
v -0.306308 1.200541 0.04476074
v -0.2098041 1.033392 0.04476074
v -0.306308 0.8662423 -0.04476074
v -0.4993158 0.8662423 -0.04476074
v -0.5958197 1.033392 -0.04476074
v -0.4993158 1.200541 -0.04476074
v -0.306308 1.200541 -0.04476074
v -0.2098041 1.033392 -0.04476074
v -0.4028119 1.033392 0.08297363
v -0.4028119 1.033392 -0.08297363
v 0.4831009 0.8662423 0.04476074
v 0.2900931 0.8662421 0.04476074
v 0.1935892 1.033392 0.04476074
v 0.2900931 1.200541 0.04476074
v 0.4831009 1.200541 0.04476074
v 0.5796048 1.033392 0.04476074
v 0.4831009 0.8662423 -0.04476074
v 0.2900931 0.8662423 -0.04476074
v 0.1935892 1.033392 -0.04476074
v 0.2900931 1.200541 -0.04476074
v 0.4831009 1.200541 -0.04476074
v 0.5796048 1.033392 -0.04476074
v 0.386597 1.033392 0.08297363
v 0.386597 1.033392 -0.08297363
v -0.4993158 0.8662421 0.04476074
v -0.306308 0.8662423 0.04476074
v -0.5958197 1.033392 0.04476074
v -0.4993158 1.200541 0.04476074
v -0.306308 1.200541 0.04476074
v -0.2098041 1.033392 0.04476074
v -0.306308 0.8662423 -0.04476074
v -0.4993158 0.8662423 -0.04476074
v -0.5958197 1.033392 -0.04476074
v -0.4993158 1.200541 -0.04476074
v -0.306308 1.200541 -0.04476074
v -0.2098041 1.033392 -0.04476074
v 0.2900931 0.8662421 0.04476074
v 0.4831009 0.8662423 0.04476074
v 0.1935892 1.033392 0.04476074
v 0.2900931 1.200541 0.04476074
v 0.4831009 1.200541 0.04476074
v 0.5796048 1.033392 0.04476074
v 0.4831009 0.8662423 -0.04476074
v 0.2900931 0.8662423 -0.04476074
v 0.1935892 1.033392 -0.04476074
v 0.2900931 1.200541 -0.04476074
v 0.4831009 1.200541 -0.04476074
v 0.5796048 1.033392 -0.04476074
v -0.4993158 0.8662421 0.04476074
v -0.4993158 0.8662423 -0.04476074
v -0.5958197 1.033392 0.04476074
v -0.5958197 1.033392 -0.04476074
v -0.4993158 1.200541 0.04476074
v -0.4993158 1.200541 -0.04476074
v -0.306308 1.200541 0.04476074
v -0.306308 1.200541 -0.04476074
v -0.2098041 1.033392 0.04476074
v -0.306308 0.8662423 -0.04476074
v -0.306308 0.8662423 0.04476074
v -0.2098041 1.033392 -0.04476074
v 0.2900931 0.8662421 0.04476074
v 0.2900931 0.8662423 -0.04476074
v 0.1935892 1.033392 0.04476074
v 0.1935892 1.033392 -0.04476074
v 0.2900931 1.200541 0.04476074
v 0.2900931 1.200541 -0.04476074
v 0.4831009 1.200541 0.04476074
v 0.4831009 1.200541 -0.04476074
v 0.5796048 1.033392 0.04476074
v 0.4831009 0.8662423 -0.04476074
v 0.4831009 0.8662423 0.04476074
v 0.5796048 1.033392 -0.04476074
vt 0.03152055 0.1462144
vt 0.03152061 0.1462141
vt 0.03152061 0.4999998
vt 0.03152061 0.8537859
vt 0.03152055 0.8537859
vt 0.03152055 0.5000002
vt 0.03152055 0.1462143
vt 0.03152061 0.1462143
vt 0.03152061 0.5
vt 0.03152061 0.8537856
vt 0.03152055 0.8537859
vt 0.03152055 0.5
vt 0.5154938 0.5484776
vt 0.5154938 0.5484774
vt 0.03152055 0.1462144
vt 0.03152061 0.1462141
vt 0.03152061 0.4999998
vt 0.03152061 0.8537859
vt 0.03152055 0.8537859
vt 0.03152055 0.5000002
vt 0.03152055 0.1462143
vt 0.03152061 0.1462143
vt 0.03152061 0.5
vt 0.03152061 0.8537856
vt 0.03152055 0.8537859
vt 0.03152055 0.5
vt 0.5154938 0.5484776
vt 0.5154938 0.5484774
vt 0.3079144 0.1320283
vt 0.7230732 0.1320287
vt 0.100335 0.5484773
vt 0.3079144 0.9649265
vt 0.7230732 0.9649265
vt 0.9306526 0.5484776
vt 0.7230732 0.1320285
vt 0.3079144 0.1320285
vt 0.100335 0.5484774
vt 0.3079144 0.9649261
vt 0.7230732 0.9649265
vt 0.9306526 0.5484774
vt 0.3079144 0.1320283
vt 0.7230732 0.1320287
vt 0.100335 0.5484773
vt 0.3079144 0.9649265
vt 0.7230732 0.9649265
vt 0.9306526 0.5484776
vt 0.7230732 0.1320285
vt 0.3079144 0.1320285
vt 0.100335 0.5484774
vt 0.3079144 0.9649261
vt 0.7230732 0.9649265
vt 0.9306526 0.5484774
vt 0.03152061 0.1462141
vt 0.03152061 0.1462143
vt 0.03152061 0.4999998
vt 0.03152061 0.5
vt 0.03152061 0.8537859
vt 0.03152061 0.8537856
vt 0.03152055 0.8537859
vt 0.03152055 0.8537859
vt 0.03152055 0.5000002
vt 0.03152055 0.1462143
vt 0.03152055 0.1462144
vt 0.03152055 0.5
vt 0.03152061 0.1462141
vt 0.03152061 0.1462143
vt 0.03152061 0.4999998
vt 0.03152061 0.5
vt 0.03152061 0.8537859
vt 0.03152061 0.8537856
vt 0.03152055 0.8537859
vt 0.03152055 0.8537859
vt 0.03152055 0.5000002
vt 0.03152055 0.1462143
vt 0.03152055 0.1462144
vt 0.03152055 0.5
vn 3.952945E-07 -1 -7.065021E-07
vn 3.952945E-07 -1 -7.065021E-07
vn -0.866042 -0.4999712 -7.064614E-07
vn -0.8660194 0.5000104 0
vn -3.952945E-07 1 0
vn 0.8660365 0.4999807 0
vn 3.952945E-07 -1 -7.065021E-07
vn 3.952945E-07 -1 -7.065021E-07
vn -0.866042 -0.4999712 -7.064614E-07
vn -0.8660194 0.5000104 0
vn -3.952945E-07 1 0
vn 0.8660365 0.4999807 0
vn -1.144377E-05 0 1
vn -7.79562E-06 -1.579505E-07 -1
vn 3.952945E-07 -1 -7.065021E-07
vn 3.952945E-07 -1 -7.065021E-07
vn -0.866042 -0.4999712 -7.064614E-07
vn -0.8660194 0.5000104 0
vn -3.952945E-07 1 0
vn 0.8660365 0.4999807 0
vn 3.952945E-07 -1 -7.065021E-07
vn 3.952945E-07 -1 -7.065021E-07
vn -0.866042 -0.4999712 -7.064614E-07
vn -0.8660194 0.5000104 0
vn -3.952945E-07 1 0
vn 0.8660365 0.4999807 0
vn -1.144377E-05 0 1
vn -7.79562E-06 -1.579505E-07 -1
vn -0.09709877 -0.1681884 0.980961
vn 0.09708784 -0.1681885 0.9809621
vn -0.1942112 -2.81149E-07 0.9809598
vn -0.09711089 0.1681883 0.9809598
vn 0.09708784 0.1681885 0.9809621
vn 0.1941775 0 0.9809664
vn 0.09708784 -0.1681885 -0.9809621
vn -0.09708784 -0.1681885 -0.9809621
vn -0.1942004 -4.685818E-07 -0.9809619
vn -0.09711097 0.1681884 -0.9809598
vn 0.09708784 0.1681885 -0.9809621
vn 0.1941775 0 -0.9809664
vn -0.09709877 -0.1681884 0.980961
vn 0.09708784 -0.1681885 0.9809621
vn -0.1942112 -2.81149E-07 0.9809598
vn -0.09711089 0.1681883 0.9809598
vn 0.09708784 0.1681885 0.9809621
vn 0.1941775 0 0.9809664
vn 0.09708784 -0.1681885 -0.9809621
vn -0.09708784 -0.1681885 -0.9809621
vn -0.1942004 -4.685818E-07 -0.9809619
vn -0.09711097 0.1681884 -0.9809598
vn 0.09708784 0.1681885 -0.9809621
vn 0.1941775 0 -0.9809664
vn -0.866042 -0.4999712 -7.064614E-07
vn -0.866042 -0.4999712 -7.064614E-07
vn -0.8660194 0.5000104 0
vn -0.8660194 0.5000104 0
vn -3.952945E-07 1 0
vn -3.952945E-07 1 0
vn 0.8660365 0.4999807 0
vn 0.8660365 0.4999807 0
vn 0.8660365 -0.4999807 0
vn 0.8660365 -0.4999807 0
vn 0.8660365 -0.4999807 0
vn 0.8660365 -0.4999807 0
vn -0.866042 -0.4999712 -7.064614E-07
vn -0.866042 -0.4999712 -7.064614E-07
vn -0.8660194 0.5000104 0
vn -0.8660194 0.5000104 0
vn -3.952945E-07 1 0
vn -3.952945E-07 1 0
vn 0.8660365 0.4999807 0
vn 0.8660365 0.4999807 0
vn 0.8660365 -0.4999807 0
vn 0.8660365 -0.4999807 0
vn 0.8660365 -0.4999807 0
vn 0.8660365 -0.4999807 0
g barrierLight_geo_0
f 8/8/8 1/1/1 2/2/2
f 7/7/7 1/1/1 8/8/8
f 9/9/9 53/53/53 3/3/3
f 54/54/54 53/53/53 9/9/9
f 10/10/10 55/55/55 4/4/4
f 56/56/56 55/55/55 10/10/10
f 11/11/11 57/57/57 5/5/5
f 58/58/58 57/57/57 11/11/11
f 12/12/12 59/59/59 6/6/6
f 60/60/60 59/59/59 12/12/12
f 62/62/62 61/61/61 63/63/63
f 64/64/64 61/61/61 62/62/62
f 22/22/22 15/15/15 16/16/16
f 21/21/21 15/15/15 22/22/22
f 23/23/23 65/65/65 17/17/17
f 66/66/66 65/65/65 23/23/23
f 24/24/24 67/67/67 18/18/18
f 68/68/68 67/67/67 24/24/24
f 25/25/25 69/69/69 19/19/19
f 70/70/70 69/69/69 25/25/25
f 26/26/26 71/71/71 20/20/20
f 72/72/72 71/71/71 26/26/26
f 74/74/74 73/73/73 75/75/75
f 76/76/76 73/73/73 74/74/74
f 13/13/13 30/30/30 34/34/34
f 29/29/29 30/30/30 13/13/13
f 31/31/31 29/29/29 13/13/13
f 13/13/13 32/32/32 31/31/31
f 33/33/33 32/32/32 13/13/13
f 34/34/34 33/33/33 13/13/13
f 14/14/14 36/36/36 37/37/37
f 35/35/35 36/36/36 14/14/14
f 40/40/40 35/35/35 14/14/14
f 14/14/14 39/39/39 40/40/40
f 38/38/38 39/39/39 14/14/14
f 37/37/37 38/38/38 14/14/14
f 27/27/27 42/42/42 46/46/46
f 41/41/41 42/42/42 27/27/27
f 43/43/43 41/41/41 27/27/27
f 27/27/27 44/44/44 43/43/43
f 45/45/45 44/44/44 27/27/27
f 46/46/46 45/45/45 27/27/27
f 28/28/28 48/48/48 49/49/49
f 47/47/47 48/48/48 28/28/28
f 52/52/52 47/47/47 28/28/28
f 28/28/28 51/51/51 52/52/52
f 50/50/50 51/51/51 28/28/28
f 49/49/49 50/50/50 28/28/28
