g bbq_geo
v 0.226463 0.56127 -0.1307484
v 0.1307485 0.56127 -0.226463
v 0 0.56127 -0.2614968
v -0.1307485 0.56127 -0.226463
v -0.226463 0.56127 -0.1307484
v -0.2614969 0.56127 -8.583068E-08
v -0.226463 0.56127 0.1307483
v -0.1307485 0.56127 0.2264629
v 0 0.56127 0.2614969
v 0.1307485 0.56127 0.2264629
v 0.226463 0.56127 0.1307483
v 0.2614969 0.56127 -8.583068E-08
vt 0.9330127 0.7500001
vt 0.75 0.9330128
vt 0.5 1
vt 0.25 0.9330128
vt 0.06698728 0.7500001
vt 0 0.5000002
vt 0.06698728 0.2500003
vt 0.25 0.06698745
vt 0.5 1.192093E-07
vt 0.75 0.06698745
vt 0.9330127 0.2500003
vt 1 0.5000002
vn 0 1 -1.332459E-07
vn 0 1 -1.332459E-06
vn 0 1 -6.662295E-07
vn 0 1 -2.81582E-07
vn 0 1 -2.81582E-07
vn 0 1 0
vn 0 1 0
vn 0 1 0
vn 0 1 2.815821E-07
vn 0 1 2.815821E-07
vn 0 1 0
vn 0 1 0
g bbq_geo_0
f 1/1/1 4/4/4 5/5/5
f 3/3/3 4/4/4 1/1/1
f 2/2/2 3/3/3 1/1/1
f 1/1/1 11/11/11 12/12/12
f 10/10/10 11/11/11 1/1/1
f 9/9/9 10/10/10 1/1/1
f 1/1/1 7/7/7 8/8/8
f 6/6/6 7/7/7 1/1/1
f 5/5/5 6/6/6 1/1/1
f 1/1/1 8/8/8 9/9/9
