g bigRoundChin_geo
v 2.200491E-17 1.347228 -0.2320473
v -1.52033E-17 1.215963 0.1030945
v 2.38241E-17 1.469369 -0.2484331
v -2.70954E-17 1.439878 0.2102089
v 2.316439E-17 1.38542 -0.2424909
v -2.8308E-17 1.384231 0.2211311
v 2.372762E-17 1.433123 -0.247564
v -2.576931E-17 1.26492 0.1938421
v -2.491448E-17 1.487799 0.190565
v -2.820333E-17 1.320699 0.2201883
v -2.013147E-17 1.231427 0.1474724
v -0.1174026 1.35149 -0.1923165
v -0.1777808 1.345039 -0.1297826
v -0.21436 1.331517 -0.02204606
v -0.1623823 1.281944 0.04043217
v -0.1103692 1.243904 0.08491201
v -0.1464678 1.505945 -0.183064
v -0.06989267 1.474945 -0.2350587
v -0.2048386 1.507489 0.09894303
v -0.1939007 1.498032 -0.1020813
v -0.2080182 1.339031 0.07659982
v -0.07371607 1.391305 -0.2219191
v -0.1427188 1.393726 -0.1903435
v -0.1958849 1.387761 -0.1147454
v -0.2201373 1.373017 -0.01557222
v -0.1760275 1.555298 -0.106371
v -0.2207116 1.389035 0.09892668
v -0.07599963 1.438178 -0.2300629
v -0.1510213 1.445895 -0.1883444
v -0.2075874 1.43603 -0.1021238
v -0.2319745 1.420494 -0.005098511
v -0.04942007 1.516868 0.1674248
v -0.07472508 1.452554 0.1928782
v -0.09885182 1.394251 0.1940208
v -0.08830123 1.277828 0.1762133
v -0.160192 1.301085 0.1333803
v -0.05953726 1.22517 0.0874659
v -0.05870132 1.34936 -0.2121819
v -0.150944 1.474494 0.1585754
v -0.1685265 1.350132 0.1499261
v -0.03592369 1.499465 0.1811199
v -0.116258 1.534244 0.1387747
v -0.1662252 1.567351 0.08016319
v -0.1809704 1.581002 -0.04557954
v -0.1044067 1.327929 0.1900368
v -0.1692616 1.416738 0.1603191
v -0.2201411 1.451865 0.108019
v -0.2254684 1.477346 -0.006664253
v -0.07116467 1.244769 0.1402223
v -0.1328661 1.267866 0.1089031
v -0.1626235 1.608091 0.004635793
v -0.2012057 1.539906 -0.02450511
v -0.1838123 1.309572 0.05815244
v 0.1174026 1.35149 -0.1923165
v 0.1777808 1.345039 -0.1297826
v 0.21436 1.331517 -0.02204606
v 0.1623823 1.281944 0.04043217
v 0.1103692 1.243904 0.08491201
v 0.1464678 1.505945 -0.183064
v 0.06989267 1.474945 -0.2350587
v 0.2048386 1.507489 0.09894303
v 0.1939007 1.498032 -0.1020813
v 0.2080182 1.339031 0.07659982
v 0.07371607 1.391305 -0.2219191
v 0.1427188 1.393726 -0.1903435
v 0.1958849 1.387761 -0.1147454
v 0.2201373 1.373017 -0.01557222
v 0.1760275 1.555298 -0.106371
v 0.2207116 1.389035 0.09892668
v 0.07599963 1.438178 -0.2300629
v 0.1510213 1.445895 -0.1883444
v 0.2075874 1.43603 -0.1021238
v 0.2319745 1.420494 -0.005098511
v 0.04942007 1.516868 0.1674248
v 0.07472508 1.452554 0.1928782
v 0.09885182 1.394251 0.1940208
v 0.08830123 1.277828 0.1762133
v 0.160192 1.301085 0.1333803
v 0.05953726 1.22517 0.0874659
v 0.05870132 1.34936 -0.2121819
v 0.150944 1.474494 0.1585754
v 0.1685265 1.350132 0.1499261
v 0.03592369 1.499465 0.1811199
v 0.116258 1.534244 0.1387747
v 0.1662252 1.567351 0.08016319
v 0.1809704 1.581002 -0.04557954
v 0.1044067 1.327929 0.1900368
v 0.1692616 1.416738 0.1603191
v 0.2201411 1.451865 0.108019
v 0.2254684 1.477346 -0.006664253
v 0.07116467 1.244769 0.1402223
v 0.1328661 1.267866 0.1089031
v 0.1626235 1.608091 0.004635793
v 0.2012057 1.539906 -0.02450511
v 0.1838123 1.309572 0.05815244
v 2.316439E-17 1.38542 -0.2424909
v 2.200491E-17 1.347228 -0.2320473
v 2.372762E-17 1.433123 -0.247564
v 2.38241E-17 1.469369 -0.2484331
v -0.04942007 1.516868 0.1674248
v -0.150944 1.474494 0.1585754
v -0.1692616 1.416738 0.1603191
v -0.1685265 1.350132 0.1499261
v -2.576931E-17 1.26492 0.1938421
v -0.08830123 1.277828 0.1762133
v 0.04942007 1.516868 0.1674248
v 0.150944 1.474494 0.1585754
v 0.1692616 1.416738 0.1603191
v 0.1685265 1.350132 0.1499261
v 0.08830123 1.277828 0.1762133
vt 0.5220051 0.1355326
vt 0.6263095 0.1690234
vt 0.5055664 0.153939
vt 0.6262158 0.2163876
vt 0.5165015 0.1412124
vt 0.6261945 0.2056209
vt 0.5101964 0.148396
vt 0.6262443 0.1858369
vt 0.6262437 0.228999
vt 0.6262168 0.1953501
vt 0.626277 0.1765975
vt 0.5405244 0.1520705
vt 0.5549438 0.1615554
vt 0.5739345 0.1726536
vt 0.5912638 0.1700246
vt 0.6056109 0.1701734
vt 0.5267979 0.1796244
vt 0.5157771 0.1638253
vt 0.5752513 0.2115878
vt 0.5427279 0.1890037
vt 0.5866277 0.1833068
vt 0.5273871 0.151833
vt 0.5384617 0.1613846
vt 0.5532747 0.1707055
vt 0.5702443 0.1795457
vt 0.5340398 0.1974182
vt 0.5840086 0.1921651
vt 0.5213997 0.1590091
vt 0.5336359 0.1701308
vt 0.5504766 0.179792
vt 0.567008 0.1876486
vt 0.6078882 0.2343522
vt 0.6105198 0.2165549
vt 0.6093193 0.2054621
vt 0.6124877 0.186102
vt 0.5997239 0.1842626
vt 0.6153446 0.1676809
vt 0.5313274 0.1436858
vt 0.5920467 0.2147574
vt 0.5974194 0.1931759
vt 0.6146913 0.2310121
vt 0.5882918 0.2305037
vt 0.5662029 0.225318
vt 0.54058 0.2098129
vt 0.610342 0.1946467
vt 0.5945465 0.2041638
vt 0.5803499 0.2015132
vt 0.5609301 0.1960769
vt 0.6148369 0.1772998
vt 0.6028855 0.1778156
vt 0.5461654 0.2227554
vt 0.5505739 0.2047479
vt 0.5889058 0.1774644
vt 0.7107736 0.1530133
vt 0.6968017 0.1623076
vt 0.6782804 0.1731379
vt 0.6612177 0.1703854
vt 0.6469676 0.17037
vt 0.7243272 0.179757
vt 0.7349381 0.1642671
vt 0.6770798 0.2117038
vt 0.708872 0.1890415
vt 0.6657194 0.1835652
vt 0.7235426 0.1526908
vt 0.712837 0.1620624
vt 0.698458 0.1712271
vt 0.6818897 0.1799102
vt 0.7173929 0.1971459
vt 0.6683002 0.1923482
vt 0.7294237 0.1596254
vt 0.7175941 0.1705523
vt 0.7012368 0.1800933
vt 0.6850877 0.187881
vt 0.6446499 0.2342776
vt 0.6419048 0.2165275
vt 0.6430475 0.2054513
vt 0.6399828 0.1861757
vt 0.6527151 0.1844252
vt 0.6372784 0.1677831
vt 0.7196503 0.1448018
vt 0.6603431 0.2146938
vt 0.6549709 0.1932872
vt 0.6378148 0.230979
vt 0.6642259 0.2302742
vt 0.6859775 0.224665
vt 0.7111641 0.2091752
vt 0.6420773 0.1946924
vt 0.6578233 0.2041969
vt 0.6719504 0.2016391
vt 0.6911247 0.1961606
vt 0.6377014 0.1773866
vt 0.6496113 0.1779966
vt 0.7057414 0.221992
vt 0.7014485 0.2045919
vt 0.663491 0.1777683
vt 0.7340345 0.1422776
vt 0.72864 0.1368061
vt 0.7402268 0.1492051
vt 0.7447808 0.1545542
vt 0.6078882 0.2343522
vt 0.5920467 0.2147574
vt 0.5945465 0.2041638
vt 0.5974194 0.1931759
vt 0.6262443 0.1858369
vt 0.6124877 0.186102
vt 0.6446499 0.2342776
vt 0.6603431 0.2146938
vt 0.6578233 0.2041969
vt 0.6549709 0.1932872
vt 0.6399828 0.1861757
vn 0 -0.298351 -0.9544562
vn 0 -0.9486831 0.3162284
vn -1.600623E-07 -0.06212518 -0.9980684
vn 0 0.2629633 0.9648059
vn 0 -0.2216905 -0.975117
vn 0 0.06488355 0.9978929
vn 0 -0.1032406 -0.9946564
vn 0 -0.6175581 0.7865252
vn 1.50556E-07 0.3670753 0.9301913
vn 0 -0.212077 0.9772529
vn 0 -0.8859068 0.4638633
vn -0.5674971 -0.2616925 -0.7806818
vn -0.8519879 -0.2237862 -0.4733249
vn -0.8995664 -0.4353158 -0.03578356
vn -0.7207346 -0.680983 0.1296298
vn -0.5586972 -0.7963707 0.2316275
vn -0.7594952 0.1503289 -0.6329046
vn -0.3680027 -0.0008244943 -0.9298243
vn -0.7738453 0.4446095 0.4510941
vn -0.904684 0.2071426 -0.3723423
vn -0.875125 -0.4432041 0.1942326
vn -0.345952 -0.1981507 -0.9170896
vn -0.6158583 -0.1795103 -0.767134
vn -0.8769869 -0.1759739 -0.4471322
vn -0.9584945 -0.2618694 -0.1127502
vn -0.9054719 0.2860227 -0.313547
vn -0.9255614 -0.1748263 0.3358152
vn -0.3633606 -0.06206085 -0.9295793
vn -0.6838952 0.005943441 -0.7295561
vn -0.9139892 0.01438716 -0.4054831
vn -0.9934866 -0.05437142 -0.1001397
vn -0.2604622 0.4390349 0.8598883
vn -0.2553591 0.282513 0.9246503
vn -0.3475035 0.05304217 0.9361773
vn -0.4439832 -0.5500816 0.7073112
vn -0.6755792 -0.5605804 0.4788969
vn -0.3142374 -0.8978051 0.3085462
vn -0.3325184 -0.2722374 -0.9029498
vn -0.4079501 0.3708009 0.8343161
vn -0.6510651 -0.2599938 0.7131042
vn -0.2041236 0.4044186 0.8915038
vn -0.3700713 0.4825073 0.7938728
vn -0.7908995 0.5007391 0.3517646
vn -0.9078968 0.4185997 0.02230752
vn -0.4149206 -0.221622 0.8824537
vn -0.5741284 0.06130268 0.816467
vn -0.8918343 0.1465575 0.4279632
vn -0.974157 0.2115152 -0.07924382
vn -0.3428959 -0.8414505 0.4175924
vn -0.5895443 -0.7626371 0.2661243
vn -0.9237875 0.3536789 0.1467242
vn -0.9225014 0.3813823 -0.059487
vn -0.7729738 -0.6219743 0.1251377
vn 0.5674972 -0.2616926 -0.7806817
vn 0.8519876 -0.2237862 -0.4733251
vn 0.8995664 -0.4353161 -0.03578336
vn 0.7207342 -0.6809834 0.1296293
vn 0.5586972 -0.7963707 0.231627
vn 0.7594952 0.1503289 -0.6329046
vn 0.3680025 -0.0008244471 -0.9298244
vn 0.7738453 0.4446093 0.4510943
vn 0.9046839 0.2071426 -0.3723424
vn 0.875125 -0.443204 0.1942328
vn 0.3459522 -0.1981508 -0.9170896
vn 0.6158585 -0.1795103 -0.767134
vn 0.8769867 -0.1759739 -0.4471323
vn 0.9584945 -0.2618693 -0.1127502
vn 0.9054719 0.2860226 -0.3135472
vn 0.9255615 -0.1748263 0.335815
vn 0.3633606 -0.06206089 -0.9295792
vn 0.6838952 0.005943434 -0.729556
vn 0.9139892 0.01438719 -0.4054832
vn 0.9934866 -0.05437144 -0.10014
vn 0.2604624 0.4390351 0.8598881
vn 0.2553592 0.2825132 0.9246502
vn 0.3475035 0.05304216 0.9361773
vn 0.4439832 -0.5500816 0.7073112
vn 0.6755792 -0.5605805 0.4788968
vn 0.3142374 -0.897805 0.3085466
vn 0.3325185 -0.2722375 -0.9029498
vn 0.4079499 0.3708009 0.8343163
vn 0.6510652 -0.2599938 0.7131041
vn 0.204124 0.404419 0.8915036
vn 0.370071 0.4825069 0.7938731
vn 0.7908995 0.500739 0.351765
vn 0.9078968 0.4185997 0.02230738
vn 0.4149207 -0.221622 0.8824537
vn 0.5741286 0.06130268 0.816467
vn 0.8918343 0.1465575 0.427963
vn 0.9741569 0.2115152 -0.07924419
vn 0.3428959 -0.8414505 0.4175926
vn 0.5895444 -0.7626371 0.2661241
vn 0.9237874 0.3536792 0.146724
vn 0.9225014 0.3813821 -0.05948731
vn 0.7729737 -0.6219745 0.1251379
vn 0 -0.2216905 -0.975117
vn 0 -0.298351 -0.9544562
vn 0 -0.1032406 -0.9946564
vn -1.600623E-07 -0.06212518 -0.9980684
vn -0.2604622 0.4390349 0.8598883
vn -0.4079501 0.3708009 0.8343161
vn -0.5741284 0.06130268 0.816467
vn -0.6510651 -0.2599938 0.7131042
vn 0 -0.6175581 0.7865252
vn -0.4439832 -0.5500816 0.7073112
vn 0.2604624 0.4390351 0.8598881
vn 0.4079499 0.3708009 0.8343163
vn 0.5741286 0.06130268 0.816467
vn 0.6510652 -0.2599938 0.7131041
vn 0.4439832 -0.5500816 0.7073112
g bigRoundChin_geo_0
f 19/19/19 46/46/46 39/39/39
f 47/47/47 46/46/46 19/19/19
f 48/48/48 47/47/47 19/19/19
f 27/27/27 47/47/47 48/48/48
f 31/31/31 27/27/27 48/48/48
f 21/21/21 27/27/27 31/31/31
f 25/25/25 21/21/21 31/31/31
f 14/14/14 21/21/21 25/25/25
f 24/24/24 14/14/14 25/25/25
f 13/13/13 14/14/14 24/24/24
f 23/23/23 13/13/13 24/24/24
f 12/12/12 13/13/13 23/23/23
f 22/22/22 12/12/12 23/23/23
f 38/38/38 12/12/12 22/22/22
f 5/5/5 38/38/38 22/22/22
f 1/1/1 38/38/38 5/5/5
f 42/42/42 39/39/39 32/32/32
f 19/19/19 39/39/39 42/42/42
f 43/43/43 19/19/19 42/42/42
f 44/44/44 19/19/19 43/43/43
f 51/51/51 44/44/44 43/43/43
f 61/61/61 81/81/81 88/88/88
f 89/89/89 61/61/61 88/88/88
f 90/90/90 61/61/61 89/89/89
f 69/69/69 90/90/90 89/89/89
f 73/73/73 90/90/90 69/69/69
f 63/63/63 73/73/73 69/69/69
f 67/67/67 73/73/73 63/63/63
f 56/56/56 67/67/67 63/63/63
f 66/66/66 67/67/67 56/56/56
f 55/55/55 66/66/66 56/56/56
f 65/65/65 66/66/66 55/55/55
f 54/54/54 65/65/65 55/55/55
f 64/64/64 65/65/65 54/54/54
f 80/80/80 64/64/64 54/54/54
f 96/96/96 64/64/64 80/80/80
f 97/97/97 96/96/96 80/80/80
f 85/85/85 86/86/86 93/93/93
f 61/61/61 86/86/86 85/85/85
f 84/84/84 61/61/61 85/85/85
f 81/81/81 61/61/61 84/84/84
f 74/74/74 81/81/81 84/84/84
f 30/30/30 25/25/25 31/31/31
f 24/24/24 25/25/25 30/30/30
f 29/29/29 24/24/24 30/30/30
f 23/23/23 24/24/24 29/29/29
f 28/28/28 23/23/23 29/29/29
f 22/22/22 23/23/23 28/28/28
f 7/7/7 22/22/22 28/28/28
f 5/5/5 22/22/22 7/7/7
f 28/28/28 3/3/3 7/7/7
f 18/18/18 3/3/3 28/28/28
f 29/29/29 18/18/18 28/28/28
f 17/17/17 18/18/18 29/29/29
f 20/20/20 17/17/17 29/29/29
f 26/26/26 17/17/17 20/20/20
f 48/48/48 26/26/26 20/20/20
f 52/52/52 26/26/26 48/48/48
f 19/19/19 52/52/52 48/48/48
f 44/44/44 52/52/52 19/19/19
f 92/92/92 58/58/58 57/57/57
f 91/91/91 58/58/58 92/92/92
f 77/77/77 91/91/91 92/92/92
f 11/11/11 91/91/91 77/77/77
f 8/8/8 11/11/11 77/77/77
f 35/35/35 11/11/11 8/8/8
f 26/26/26 52/52/52 44/44/44
f 49/49/49 16/16/16 37/37/37
f 50/50/50 16/16/16 49/49/49
f 35/35/35 50/50/50 49/49/49
f 36/36/36 50/50/50 35/35/35
f 40/40/40 36/36/36 35/35/35
f 27/27/27 36/36/36 40/40/40
f 47/47/47 27/27/27 40/40/40
f 46/46/46 47/47/47 40/40/40
f 49/49/49 11/11/11 35/35/35
f 2/2/2 11/11/11 49/49/49
f 37/37/37 2/2/2 49/49/49
f 53/53/53 21/21/21 14/14/14
f 15/15/15 53/53/53 14/14/14
f 50/50/50 53/53/53 15/15/15
f 16/16/16 50/50/50 15/15/15
f 72/72/72 73/73/73 67/67/67
f 66/66/66 72/72/72 67/67/67
f 71/71/71 72/72/72 66/66/66
f 65/65/65 71/71/71 66/66/66
f 70/70/70 71/71/71 65/65/65
f 64/64/64 70/70/70 65/65/65
f 98/98/98 70/70/70 64/64/64
f 96/96/96 98/98/98 64/64/64
f 94/94/94 86/86/86 61/61/61
f 90/90/90 94/94/94 61/61/61
f 68/68/68 94/94/94 90/90/90
f 62/62/62 68/68/68 90/90/90
f 59/59/59 68/68/68 62/62/62
f 71/71/71 59/59/59 62/62/62
f 60/60/60 59/59/59 71/71/71
f 70/70/70 60/60/60 71/71/71
f 99/99/99 60/60/60 70/70/70
f 98/98/98 99/99/99 70/70/70
f 86/86/86 94/94/94 68/68/68
f 95/95/95 57/57/57 56/56/56
f 63/63/63 95/95/95 56/56/56
f 92/92/92 95/95/95 63/63/63
f 78/78/78 92/92/92 63/63/63
f 77/77/77 92/92/92 78/78/78
f 82/82/82 77/77/77 78/78/78
f 69/69/69 78/78/78 63/63/63
f 82/82/82 78/78/78 69/69/69
f 89/89/89 82/82/82 69/69/69
f 88/88/88 82/82/82 89/89/89
f 91/91/91 79/79/79 58/58/58
f 2/2/2 79/79/79 91/91/91
f 11/11/11 2/2/2 91/91/91
f 20/20/20 31/31/31 48/48/48
f 30/30/30 31/31/31 20/20/20
f 29/29/29 30/30/30 20/20/20
f 21/21/21 36/36/36 27/27/27
f 50/50/50 36/36/36 21/21/21
f 53/53/53 50/50/50 21/21/21
f 62/62/62 72/72/72 71/71/71
f 73/73/73 72/72/72 62/62/62
f 90/90/90 73/73/73 62/62/62
f 92/92/92 57/57/57 95/95/95
g bigRoundChin_geo_1
f 45/45/45 105/105/105 104/104/104
f 10/10/10 45/45/45 104/104/104
f 34/34/34 45/45/45 10/10/10
f 6/6/6 34/34/34 10/10/10
f 33/33/33 34/34/34 6/6/6
f 4/4/4 33/33/33 6/6/6
f 41/41/41 33/33/33 4/4/4
f 9/9/9 41/41/41 4/4/4
f 33/33/33 101/101/101 102/102/102
f 100/100/100 101/101/101 33/33/33
f 41/41/41 100/100/100 33/33/33
f 34/34/34 33/33/33 102/102/102
f 103/103/103 34/34/34 102/102/102
f 45/45/45 34/34/34 103/103/103
f 105/105/105 45/45/45 103/103/103
f 87/87/87 104/104/104 110/110/110
f 10/10/10 104/104/104 87/87/87
f 76/76/76 10/10/10 87/87/87
f 6/6/6 10/10/10 76/76/76
f 75/75/75 6/6/6 76/76/76
f 4/4/4 6/6/6 75/75/75
f 83/83/83 4/4/4 75/75/75
f 9/9/9 4/4/4 83/83/83
f 109/109/109 87/87/87 110/110/110
f 76/76/76 87/87/87 109/109/109
f 108/108/108 76/76/76 109/109/109
f 75/75/75 76/76/76 108/108/108
f 107/107/107 75/75/75 108/108/108
f 106/106/106 75/75/75 107/107/107
f 83/83/83 75/75/75 106/106/106
