g bloby2_geo
v 1.171298E-31 0.6217246 0.305779
v 1.002957E-31 0.7177379 0.2862355
v 1.286414E-31 0.6213761 0.2665164
v 6.952195E-17 0.7459944 0.2529035
v 3.559082E-17 0.602515 0.2715692
v 1.182933E-31 0.6605794 0.3407004
v -2.682209E-09 0.6316572 0.3290626
v 1.298212E-31 0.689799 0.3309511
v 1.274647E-31 0.6246828 0.273801
v 1.614189E-31 0.7314705 0.2658098
v 0.02325589 0.6296866 0.2654857
v 0.0242727 0.7025254 0.2786957
v 0.0372186 0.6145132 0.269723
v 0.03219849 0.7045752 0.2517072
v 0.01852453 0.6046662 0.270745
v 0.05135845 0.6638634 0.2558537
v 0.02905006 0.6421357 0.3091588
v 0.03136704 0.6589817 0.3091025
v 0.03870676 0.622812 0.2673054
v 0.05037758 0.6604721 0.2650163
v 0.04012191 0.6705072 0.2637887
v 0.04441597 0.6587291 0.3058457
v 0.04910849 0.6609092 0.2571297
v 0.03434549 0.6286295 0.2996756
v 0.04021191 0.6280466 0.2731649
v 0.0250795 0.6356003 0.2714736
v 0.02418325 0.6319101 0.3015948
v 0.03063005 0.6743198 0.2700669
v 0.02679614 0.6601588 0.3297008
v 0.02338262 0.6368142 0.321516
v 0.02354077 0.6837388 0.3206371
v 0.04052148 0.639714 0.3066369
v 0.04903572 0.6402223 0.2679085
v 0.04737972 0.6402588 0.2600819
v 1.220498E-31 0.620627 0.2880497
v 0.02295294 0.6295255 0.2865058
v 0.04286538 0.625851 0.2823913
v 0.05424331 0.636984 0.2795522
v 0.05611243 0.6596171 0.2787215
v 0.02984712 0.6758379 0.2814951
v 0.02199265 0.6962796 0.3019795
v 0.04328027 0.6729206 0.2790581
v 0.04364989 0.6259022 0.293947
v 0.05303755 0.6375005 0.29899
v 0.05520675 0.658631 0.2979842
v 0.04451278 0.6691267 0.2963303
v 0.02984629 0.6711949 0.2984135
v 0.03053752 0.6257319 0.2858859
v 1.404855E-31 0.7060777 0.3111803
v -0.02325589 0.6296866 0.2654857
v -0.0242727 0.7025254 0.2786957
v -0.0372186 0.6145132 0.269723
v -0.03219849 0.7045752 0.2517072
v -0.01852453 0.6046662 0.270745
v -0.05135845 0.6638634 0.2558537
v -0.02905006 0.6421357 0.3091588
v -0.03136704 0.6589817 0.3091025
v -0.03801709 0.622915 0.2674786
v -0.05121625 0.6604721 0.2650163
v -0.04012191 0.6705072 0.2637887
v -0.04441597 0.6587291 0.3058457
v -0.04994715 0.6609092 0.2571297
v -0.03434549 0.6286295 0.2996756
v -0.04090158 0.6279435 0.2729917
v -0.0250795 0.6356003 0.2714736
v -0.02418325 0.6319101 0.3015948
v -0.03063005 0.6743198 0.2700669
v -0.02679614 0.6601588 0.3297008
v -0.02338262 0.6368142 0.321516
v -0.02354077 0.6837388 0.3206371
v -0.04052148 0.639714 0.3066369
v -0.0490573 0.6402377 0.268054
v -0.04735814 0.6403234 0.2600636
v -0.02295294 0.6295255 0.2865058
v -0.04286538 0.625851 0.2823913
v -0.05424331 0.636984 0.2795522
v -0.05611243 0.6596171 0.2787215
v -0.02984712 0.6758379 0.2814951
v -0.02199265 0.6962796 0.3019795
v -0.04328027 0.6729206 0.2790581
v -0.04364989 0.6259022 0.293947
v -0.05303755 0.6375005 0.29899
v -0.05520675 0.658631 0.2979842
v -0.04451278 0.6691267 0.2963303
v -0.02984629 0.6711949 0.2984135
v -0.03053752 0.6257319 0.2858859
v 0.05334599 0.6363157 0.2649631
v -0.05334599 0.6363157 0.2649631
v 0.04012191 0.6705072 0.2637887
v 1.286414E-31 0.6213761 0.2665164
v 0.02325589 0.6296866 0.2654857
v 0.04737972 0.6402588 0.2600819
v 0.04910849 0.6609092 0.2571297
v 0.03136704 0.6589817 0.3091025
v 0.02905006 0.6421357 0.3091588
v 0.03870676 0.622812 0.2673054
v 0.02984629 0.6711949 0.2984135
v 0.03063005 0.6743198 0.2700669
v 0.04012191 0.6705072 0.2637887
v 0.04903572 0.6402223 0.2679085
v 0.05037758 0.6604721 0.2650163
v 0.0250795 0.6356003 0.2714736
v 0.04021191 0.6280466 0.2731649
v 1.274647E-31 0.6246828 0.273801
v 0.0242727 0.7025254 0.2786957
v 0.02984712 0.6758379 0.2814951
v 0.03063005 0.6743198 0.2700669
v 1.002957E-31 0.7177379 0.2862355
v -2.682209E-09 0.6316572 0.3290626
v -0.04012191 0.6705072 0.2637887
v -0.02325589 0.6296866 0.2654857
v 1.171298E-31 0.6217246 0.305779
v 1.220498E-31 0.620627 0.2880497
v -0.03801709 0.622915 0.2674786
v -0.04735814 0.6403234 0.2600636
v -0.04994715 0.6609092 0.2571297
v -0.02905006 0.6421357 0.3091588
v -0.03136704 0.6589817 0.3091025
v -0.02984629 0.6711949 0.2984135
v -0.03063005 0.6743198 0.2700669
v -0.04012191 0.6705072 0.2637887
v -0.0490573 0.6402377 0.268054
v -0.05121625 0.6604721 0.2650163
v -0.0250795 0.6356003 0.2714736
v -0.04090158 0.6279435 0.2729917
v 1.274647E-31 0.6246828 0.273801
v -0.0242727 0.7025254 0.2786957
v -0.02984712 0.6758379 0.2814951
v -0.03063005 0.6743198 0.2700669
v 0.02679614 0.6601588 0.3297008
v 0.03219849 0.7045752 0.2517072
v 0.02325589 0.6296866 0.2654857
v 0.0250795 0.6356003 0.2714736
v 0.0242727 0.7025254 0.2786957
v 0.0250795 0.6356003 0.2714736
v 0.02199265 0.6962796 0.3019795
v 0.0242727 0.7025254 0.2786957
v -0.02679614 0.6601588 0.3297008
v -0.03219849 0.7045752 0.2517072
v -0.02325589 0.6296866 0.2654857
v -0.0250795 0.6356003 0.2714736
v -0.02295294 0.6295255 0.2865058
v -0.0242727 0.7025254 0.2786957
v -0.0372186 0.6145132 0.269723
v -0.03136704 0.6589817 0.3091025
v -0.0250795 0.6356003 0.2714736
v -0.02199265 0.6962796 0.3019795
v -0.0242727 0.7025254 0.2786957
v 0.0372186 0.6145132 0.269723
v 0.02295294 0.6295255 0.2865058
v 0.03136704 0.6589817 0.3091025
vt 0.9306645 0.1537021
vt 0.9449116 0.1513776
vt 0.9940681 0.127693
vt 0.9274099 0.1506981
vt 0.9793999 0.1527325
vt 0.9245456 0.1507421
vt 0.9281245 0.1520474
vt 0.9216919 0.1508267
vt 0.9940681 0.127693
vt 0.9381654 0.1511163
vt 0.9940681 0.127693
vt 0.9473583 0.1569778
vt 0.9766436 0.1668123
vt 0.9443467 0.1597077
vt 0.9790777 0.1544064
vt 0.962405 0.1720183
vt 0.9235357 0.157435
vt 0.9207082 0.1592637
vt 0.9940681 0.127693
vt 0.9940681 0.127693
vt 0.9940681 0.127693
vt 0.9221966 0.1611079
vt 0.9940681 0.127693
vt 0.9266416 0.1588674
vt 0.9940681 0.127693
vt 0.9940681 0.127693
vt 0.9273162 0.1561809
vt 0.9541228 0.1622532
vt 0.9239953 0.154091
vt 0.9262793 0.1548636
vt 0.9213942 0.15407
vt 0.9244279 0.159802
vt 0.9940681 0.127693
vt 0.9940681 0.127693
vt 0.9328752 0.1554133
vt 0.9300351 0.1579996
vt 0.9289805 0.1612377
vt 0.9269807 0.1633239
vt 0.9242409 0.165387
vt 0.9178839 0.1665006
vt 0.9176283 0.1545836
vt 0.9208087 0.1659772
vt 0.9273151 0.1600672
vt 0.9253929 0.1615266
vt 0.9228115 0.1629023
vt 0.920678 0.1636623
vt 0.9182011 0.1627076
vt 0.9290377 0.15912
vt 0.9170583 0.1509067
vt 0.9738175 0.143775
vt 0.9477819 0.1459847
vt 0.9777319 0.1384897
vt 0.9449933 0.1430315
vt 0.9792061 0.1510393
vt 0.9639475 0.1321879
vt 0.9237654 0.1451651
vt 0.9201609 0.1435176
vt 0.9940681 0.127693
vt 0.9940681 0.127693
vt 0.9940681 0.127693
vt 0.9213021 0.1414566
vt 0.9940681 0.127693
vt 0.9262475 0.1428711
vt 0.9940681 0.127693
vt 0.9940681 0.127693
vt 0.92731 0.1453884
vt 0.9549296 0.141258
vt 0.9237826 0.1474569
vt 0.9261552 0.1465786
vt 0.9212054 0.1476305
vt 0.9237956 0.1423467
vt 0.9940681 0.127693
vt 0.9940681 0.127693
vt 0.9297801 0.1432749
vt 0.9281986 0.139947
vt 0.9256499 0.1382675
vt 0.9222492 0.1371303
vt 0.9164336 0.1370774
vt 0.9174182 0.1474005
vt 0.9190823 0.1367768
vt 0.9267045 0.1415081
vt 0.9244239 0.1404286
vt 0.9215329 0.1396213
vt 0.9193884 0.139168
vt 0.9172221 0.1405032
vt 0.9286872 0.1421365
vt 0.9690268 0.1695972
vt 0.9707118 0.1352803
vt 0.9555565 0.1647769
vt 0.9749976 0.1525635
vt 0.9731458 0.1612389
vt 0.9659756 0.1694513
vt 0.9587061 0.1681832
vt 0.9240226 0.1561615
vt 0.9260643 0.1560367
vt 0.9730235 0.1668323
vt 0.9211076 0.1567942
vt 0.920521 0.1724143
vt 0.9234185 0.17224
vt 0.9290844 0.1651577
vt 0.9260026 0.168304
vt 0.932634 0.1596669
vt 0.9310619 0.1625321
vt 0.9346251 0.1569735
vt 0.9126322 0.1563474
vt 0.9191691 0.1581624
vt 0.9165825 0.160977
vt 0.9109388 0.150921
vt 0.9280034 0.1492196
vt 0.9565552 0.1388586
vt 0.9940681 0.127693
vt 0.9304132 0.1474161
vt 0.9324933 0.1455732
vt 0.9741254 0.1381876
vt 0.9673053 0.1350258
vt 0.9599602 0.135715
vt 0.9259422 0.1453782
vt 0.9237288 0.1453577
vt 0.9207647 0.1449755
vt 0.9172599 0.1319147
vt 0.9195137 0.1314461
vt 0.9274628 0.1357321
vt 0.9232299 0.1329301
vt 0.9321665 0.1410934
vt 0.9301292 0.1381297
vt 0.9341254 0.1439104
vt 0.9125931 0.145647
vt 0.9188218 0.1438158
vt 0.9163568 0.1412886
vt 0.9239953 0.154091
vt 0.9443467 0.1597077
vt 0.9940681 0.127693
vt 0.9940681 0.127693
vt 0.9473583 0.1569778
vt 0.932634 0.1596669
vt 0.9176283 0.1545836
vt 0.9126322 0.1563474
vt 0.9237826 0.1474569
vt 0.9449933 0.1430315
vt 0.9940681 0.127693
vt 0.9940681 0.127693
vt 0.9297801 0.1432749
vt 0.9477819 0.1459847
vt 0.9777319 0.1384897
vt 0.9237288 0.1453577
vt 0.9321665 0.1410934
vt 0.9174182 0.1474005
vt 0.9125931 0.145647
vt 0.9766436 0.1668123
vt 0.9300351 0.1579996
vt 0.9240226 0.1561615
vn 0 -0.9770801 0.2128717
vn -1.481884E-07 0.9141078 0.4054714
vn 0 -0.3555887 0.9346425
vn 0 0.6642533 0.7475077
vn 0 0.2302395 0.973134
vn 0 -0.0132275 0.9999125
vn -1.049988E-07 -0.7234638 0.6903622
vn 0 0.6058665 0.7955663
vn -1.227596E-07 -0.9917815 0.1279432
vn 0 0.7976931 0.6030636
vn -0.02441454 -0.2900077 0.9567128
vn 0.8282751 0.484107 0.282136
vn -0.1498522 0.3324868 0.9311267
vn 0.6935923 0.4061148 0.5949793
vn -0.02867121 0.2310853 0.9725109
vn -0.06115165 0.2308764 0.9710595
vn 0.7152159 -0.3569995 0.6008473
vn 0.7177724 0.2456954 0.6514879
vn 0.07435536 -0.1840826 0.9800944
vn 0.9099312 0.3277736 -0.2541451
vn 0.6862623 0.7082187 0.1657418
vn 0.3929709 0.3216786 0.8614504
vn 0.6777657 0.4093343 0.6108021
vn -0.01448434 -0.8299987 0.5575772
vn 0.1858838 -0.9775014 -0.09969069
vn -0.1205 -0.9924585 0.02248763
vn 0.1796444 -0.9178256 0.3540115
vn 0.8188497 0.5026141 0.2772439
vn 0.8668833 0.01561532 0.4982665
vn 0.6900185 -0.5574893 0.4616059
vn 0.7813286 0.4263617 0.4557866
vn 0.2958685 -0.3293151 0.8966679
vn 0.8907885 -0.3679979 -0.266596
vn 0.6093789 0.01964653 0.7926357
vn -1.224498E-07 -0.9939221 -0.1100858
vn -0.03888685 -0.9923239 -0.1173932
vn 0.3617608 -0.9175332 -0.1651115
vn 0.8850418 -0.4197345 -0.201306
vn 0.930965 0.3345384 -0.1462469
vn 0.6953269 0.7140011 0.08199292
vn 0.7928644 0.5400379 0.2823564
vn 0.484791 0.8742481 -0.0258464
vn 0.2635412 -0.9218327 0.2842019
vn 0.7674783 -0.4181743 0.4859088
vn 0.8076317 0.3425297 0.4800046
vn 0.4267365 0.7819463 0.4543742
vn 0.762966 0.556641 0.3286845
vn -0.2507066 -0.9666016 -0.0531745
vn -2.435427E-07 0.8738444 0.4862057
vn 0.02343636 -0.2821595 0.9590812
vn -0.8282752 0.484107 0.2821358
vn 0.1353466 0.3244008 0.9361867
vn -0.6940181 0.4090534 0.5924646
vn 0.03175447 0.2283986 0.9730497
vn 0.04463037 0.2521423 0.9666604
vn -0.7152163 -0.3569999 0.6008466
vn -0.7177725 0.2456955 0.6514878
vn -0.08261723 -0.1917495 0.9779604
vn -0.9125075 0.3284416 -0.2438366
vn -0.6701728 0.7197303 0.1812646
vn -0.392971 0.3216787 0.8614503
vn -0.6701602 0.4179817 0.6133325
vn 0.0144841 -0.8299998 0.5575757
vn -0.1923343 -0.9752868 -0.1087341
vn 0.117596 -0.9926483 0.02864568
vn -0.1796447 -0.9178258 0.3540107
vn -0.8188497 0.5026141 0.2772441
vn -0.8668832 0.01561532 0.4982665
vn -0.6900187 -0.5574895 0.4616056
vn -0.7813284 0.4263618 0.4557867
vn -0.295869 -0.3293157 0.8966675
vn -0.8823565 -0.3816511 -0.2752988
vn -0.6240613 -0.01580405 0.7812155
vn 0.03888672 -0.9923238 -0.117394
vn -0.369742 -0.9157136 -0.1573513
vn -0.8883384 -0.4185654 -0.1888326
vn -0.9326256 0.3350239 -0.1340471
vn -0.695327 0.714001 0.08199353
vn -0.7928646 0.5400379 0.2823559
vn -0.4811778 0.876394 -0.02004175
vn -0.2635409 -0.9218327 0.2842018
vn -0.767478 -0.4181744 0.485909
vn -0.8076318 0.3425297 0.4800045
vn -0.4267364 0.7819463 0.4543743
vn -0.762966 0.556641 0.3286847
vn 0.2494079 -0.966995 -0.05211841
vn -0.3132853 0.3268192 0.891651
vn 0.3133414 0.3244713 0.8924884
vn 0.6862623 0.7082187 0.1657418
vn 0 -0.3555887 0.9346425
vn -0.02441454 -0.2900077 0.9567128
vn 0.6093789 0.01964653 0.7926357
vn 0.6777657 0.4093343 0.6108021
vn 0.7177724 0.2456954 0.6514879
vn 0.7152159 -0.3569995 0.6008473
vn 0.07435536 -0.1840826 0.9800944
vn 0.762966 0.556641 0.3286845
vn 0.8188497 0.5026141 0.2772439
vn 0.6862623 0.7082187 0.1657418
vn 0.8907885 -0.3679979 -0.266596
vn 0.9099312 0.3277736 -0.2541451
vn -0.1205 -0.9924585 0.02248763
vn 0.1858838 -0.9775014 -0.09969069
vn -1.227596E-07 -0.9917815 0.1279432
vn 0.8282751 0.484107 0.282136
vn 0.6953269 0.7140011 0.08199292
vn 0.8188497 0.5026141 0.2772439
vn -1.481884E-07 0.9141078 0.4054714
vn -1.049988E-07 -0.7234638 0.6903622
vn -0.6701728 0.7197303 0.1812646
vn 0.02343636 -0.2821595 0.9590812
vn 0 -0.9770801 0.2128717
vn -1.224498E-07 -0.9939221 -0.1100858
vn -0.08261723 -0.1917495 0.9779604
vn -0.6240613 -0.01580405 0.7812155
vn -0.6701602 0.4179817 0.6133325
vn -0.7152163 -0.3569999 0.6008466
vn -0.7177725 0.2456955 0.6514878
vn -0.762966 0.556641 0.3286847
vn -0.8188497 0.5026141 0.2772441
vn -0.6701728 0.7197303 0.1812646
vn -0.8823565 -0.3816511 -0.2752988
vn -0.9125075 0.3284416 -0.2438366
vn 0.117596 -0.9926483 0.02864568
vn -0.1923343 -0.9752868 -0.1087341
vn -1.227596E-07 -0.9917815 0.1279432
vn -0.8282752 0.484107 0.2821358
vn -0.695327 0.714001 0.08199353
vn -0.8188497 0.5026141 0.2772441
vn 0.8668833 0.01561532 0.4982665
vn 0.6935923 0.4061148 0.5949793
vn -0.02441454 -0.2900077 0.9567128
vn -0.1205 -0.9924585 0.02248763
vn 0.8282751 0.484107 0.282136
vn -0.1205 -0.9924585 0.02248763
vn 0.7928644 0.5400379 0.2823564
vn 0.8282751 0.484107 0.282136
vn -0.8668832 0.01561532 0.4982665
vn -0.6940181 0.4090534 0.5924646
vn 0.02343636 -0.2821595 0.9590812
vn 0.117596 -0.9926483 0.02864568
vn 0.03888672 -0.9923238 -0.117394
vn -0.8282752 0.484107 0.2821358
vn 0.1353466 0.3244008 0.9361867
vn -0.7177725 0.2456955 0.6514878
vn 0.117596 -0.9926483 0.02864568
vn -0.7928646 0.5400379 0.2823559
vn -0.8282752 0.484107 0.2821358
vn -0.1498522 0.3324868 0.9311267
vn -0.03888685 -0.9923239 -0.1173932
vn 0.7177724 0.2456954 0.6514879
g bloby2_geo_0
f 10/10/10 4/4/4 53/53/53
f 2/2/2 10/10/10 53/53/53
f 14/14/14 10/10/10 2/2/2
f 12/12/12 14/14/14 2/2/2
f 34/34/34 33/33/33 25/25/25
f 20/20/20 33/33/33 34/34/34
f 23/23/23 20/20/20 34/34/34
f 21/21/21 20/20/20 23/23/23
f 25/25/25 19/19/19 34/34/34
f 11/11/11 19/19/19 25/25/25
f 26/26/26 11/11/11 25/25/25
f 9/9/9 132/132/132 133/133/133
f 3/3/3 132/132/132 9/9/9
f 140/140/140 3/3/3 9/9/9
f 131/131/131 89/89/89 93/93/93
f 28/28/28 89/89/89 131/131/131
f 134/134/134 28/28/28 131/131/131
f 27/27/27 7/7/7 1/1/1
f 30/30/30 7/7/7 27/27/27
f 95/95/95 30/30/30 27/27/27
f 130/130/130 30/30/30 95/95/95
f 94/94/94 130/130/130 95/95/95
f 91/91/91 13/13/13 96/96/96
f 15/15/15 13/13/13 91/91/91
f 90/90/90 15/15/15 91/91/91
f 5/5/5 15/15/15 90/90/90
f 54/54/54 5/5/5 90/90/90
f 36/36/36 27/27/27 1/1/1
f 35/35/35 36/36/36 1/1/1
f 135/135/135 36/36/36 35/35/35
f 104/104/104 135/135/135 35/35/35
f 106/106/106 105/105/105 136/136/136
f 107/107/107 105/105/105 106/106/106
f 2/2/2 53/53/53 51/51/51
f 73/73/73 64/64/64 72/72/72
f 59/59/59 73/73/73 72/72/72
f 62/62/62 73/73/73 59/59/59
f 60/60/60 62/62/62 59/59/59
f 64/64/64 111/111/111 65/65/65
f 58/58/58 111/111/111 64/64/64
f 73/73/73 58/58/58 64/64/64
f 140/140/140 9/9/9 141/141/141
f 139/139/139 110/110/110 67/67/67
f 116/116/116 110/110/110 139/139/139
f 55/55/55 116/116/116 139/139/139
f 115/115/115 116/116/116 55/55/55
f 88/88/88 115/115/115 55/55/55
f 114/114/114 115/115/115 88/88/88
f 52/52/52 114/114/114 88/88/88
f 143/143/143 139/139/139 67/67/67
f 50/50/50 54/54/54 90/90/90
f 144/144/144 54/54/54 50/50/50
f 114/114/114 144/144/144 50/50/50
f 117/117/117 138/138/138 118/118/118
f 69/69/69 138/138/138 117/117/117
f 66/66/66 69/69/69 117/117/117
f 109/109/109 69/69/69 66/66/66
f 112/112/112 109/109/109 66/66/66
f 68/68/68 119/119/119 145/145/145
f 70/70/70 119/119/119 68/68/68
f 8/8/8 70/70/70 68/68/68
f 79/79/79 70/70/70 8/8/8
f 49/49/49 79/79/79 8/8/8
f 148/148/148 79/79/79 49/49/49
f 108/108/108 148/148/148 49/49/49
f 142/142/142 112/112/112 66/66/66
f 113/113/113 112/112/112 142/142/142
f 146/146/146 113/113/113 142/142/142
f 126/126/126 113/113/113 146/146/146
f 128/128/128 127/127/127 129/129/129
f 147/147/147 127/127/127 128/128/128
f 87/87/87 96/96/96 149/149/149
f 92/92/92 96/96/96 87/87/87
f 16/16/16 92/92/92 87/87/87
f 93/93/93 92/92/92 16/16/16
f 131/131/131 93/93/93 16/16/16
f 49/49/49 137/137/137 108/108/108
f 41/41/41 137/137/137 49/49/49
f 8/8/8 41/41/41 49/49/49
f 31/31/31 41/41/41 8/8/8
f 29/29/29 31/31/31 8/8/8
f 97/97/97 31/31/31 29/29/29
f 151/151/151 97/97/97 29/29/29
f 8/8/8 6/6/6 29/29/29
f 68/68/68 6/6/6 8/8/8
f 30/30/30 6/6/6 7/7/7
f 130/130/130 6/6/6 30/30/30
f 48/48/48 150/150/150 102/102/102
f 27/27/27 150/150/150 48/48/48
f 24/24/24 27/27/27 48/48/48
f 17/17/17 27/27/27 24/24/24
f 32/32/32 17/17/17 24/24/24
f 18/18/18 17/17/17 32/32/32
f 22/22/22 18/18/18 32/32/32
f 47/47/47 18/18/18 22/22/22
f 46/46/46 47/47/47 22/22/22
f 40/40/40 47/47/47 46/46/46
f 42/42/42 40/40/40 46/46/46
f 98/98/98 40/40/40 42/42/42
f 99/99/99 98/98/98 42/42/42
f 14/14/14 4/4/4 10/10/10
f 45/45/45 46/46/46 22/22/22
f 32/32/32 45/45/45 22/22/22
f 44/44/44 45/45/45 32/32/32
f 24/24/24 44/44/44 32/32/32
f 43/43/43 44/44/44 24/24/24
f 48/48/48 43/43/43 24/24/24
f 37/37/37 43/43/43 48/48/48
f 103/103/103 37/37/37 48/48/48
f 38/38/38 37/37/37 103/103/103
f 100/100/100 38/38/38 103/103/103
f 39/39/39 38/38/38 100/100/100
f 101/101/101 39/39/39 100/100/100
f 42/42/42 39/39/39 101/101/101
f 99/99/99 42/42/42 101/101/101
f 48/48/48 102/102/102 103/103/103
f 106/106/106 31/31/31 97/97/97
f 41/41/41 31/31/31 106/106/106
f 69/69/69 6/6/6 138/138/138
f 109/109/109 6/6/6 69/69/69
f 80/80/80 120/120/120 121/121/121
f 78/78/78 120/120/120 80/80/80
f 84/84/84 78/78/78 80/80/80
f 85/85/85 78/78/78 84/84/84
f 61/61/61 85/85/85 84/84/84
f 57/57/57 85/85/85 61/61/61
f 71/71/71 57/57/57 61/61/61
f 56/56/56 57/57/57 71/71/71
f 63/63/63 56/56/56 71/71/71
f 66/66/66 56/56/56 63/63/63
f 86/86/86 66/66/66 63/63/63
f 74/74/74 66/66/66 86/86/86
f 124/124/124 74/74/74 86/86/86
f 83/83/83 61/61/61 84/84/84
f 71/71/71 61/61/61 83/83/83
f 82/82/82 71/71/71 83/83/83
f 63/63/63 71/71/71 82/82/82
f 81/81/81 63/63/63 82/82/82
f 86/86/86 63/63/63 81/81/81
f 75/75/75 86/86/86 81/81/81
f 125/125/125 86/86/86 75/75/75
f 76/76/76 125/125/125 75/75/75
f 122/122/122 125/125/125 76/76/76
f 77/77/77 122/122/122 76/76/76
f 123/123/123 122/122/122 77/77/77
f 80/80/80 123/123/123 77/77/77
f 121/121/121 123/123/123 80/80/80
f 128/128/128 70/70/70 79/79/79
f 119/119/119 70/70/70 128/128/128
f 125/125/125 124/124/124 86/86/86
f 39/39/39 42/42/42 46/46/46
f 45/45/45 39/39/39 46/46/46
f 38/38/38 39/39/39 45/45/45
f 44/44/44 38/38/38 45/45/45
f 37/37/37 38/38/38 44/44/44
f 43/43/43 37/37/37 44/44/44
f 82/82/82 75/75/75 81/81/81
f 76/76/76 75/75/75 82/82/82
f 83/83/83 76/76/76 82/82/82
f 77/77/77 76/76/76 83/83/83
f 84/84/84 77/77/77 83/83/83
f 80/80/80 77/77/77 84/84/84
