g bloby5_geo
v -2.00049E-17 1.641676 0.1463434
v -2.319626E-17 1.523265 0.179602
v -1.893192E-17 1.656734 0.1366789
v -2.676189E-11 1.523402 0.212828
v -2.865856E-17 1.568744 0.2288019
v -2.913303E-17 1.531034 0.2285136
v -2.356818E-17 1.576872 0.1823693
v 0.02402385 1.630178 0.1341132
v 0.02682602 1.614616 0.1352269
v 0.03360536 1.590131 0.1387501
v 0.03610755 1.525768 0.1683342
v 0.01446898 1.639202 0.1443388
v 0.03080821 1.532423 0.200211
v 0.0197819 1.565447 0.2182067
v 0.01284328 1.573371 0.1820471
v 0.04865332 1.562409 0.1374834
v 0.04477304 1.542242 0.1946327
v 0.03203636 1.559661 0.1941332
v 0.02006088 1.616342 0.1460924
v 0.02398656 1.528202 0.173916
v 0.03055656 1.581632 0.1457823
v 0.02159495 1.584206 0.155771
v 0.01874094 1.655573 0.1319648
v 0.01305693 1.524962 0.2117039
v 0.01425722 1.532366 0.2258165
v 0.05017529 1.528426 0.1593264
v 0.04186667 1.560708 0.1552835
v 0.03573462 1.562819 0.1691536
v 0.05347363 1.542609 0.1883912
v 0.05427812 1.557665 0.1582171
v 0.05960625 1.542361 0.1734219
v 0.061441 1.538718 0.1627752
v 0.05653339 1.54737 0.1497825
v 0.059903 1.554921 0.1666434
v 0.06200838 1.549007 0.1577748
v 0.05682043 1.546835 0.1439031
v 0.04118314 1.578355 0.1384809
v 0.04942007 1.516868 0.1674248
v 0.03592369 1.499465 0.1811199
v -2.491449E-17 1.487799 0.1905651
v 0.05033697 1.556641 0.1804941
v 0.03397876 1.544314 0.2008684
v 0.05585824 1.528853 0.179981
v 0.04325445 1.526924 0.1865662
v 0.017153 1.524074 0.195587
v -2.676189E-11 1.521827 0.1960835
v -2.661489E-17 1.580308 0.2075977
v 0.01880769 1.575345 0.2019587
v 0.02744649 1.545063 0.2144114
v 0.02657408 1.568041 0.1811868
v -2.223215E-17 1.588952 0.1664047
v 0.04741579 1.562699 0.1683268
v -0.02402385 1.630178 0.1341132
v -0.02682602 1.614616 0.1352269
v -0.03360536 1.590131 0.1387501
v -0.03606839 1.525762 0.1690954
v -0.01446898 1.639202 0.1443388
v -0.03080821 1.532423 0.200211
v -2.104264E-17 1.617459 0.1556906
v -0.0197819 1.565447 0.2182067
v -0.01284328 1.573371 0.1820471
v -0.04865332 1.562409 0.1374834
v -0.04477304 1.542242 0.1946327
v -0.02006088 1.616342 0.1460924
v -0.02409927 1.528292 0.1738275
v -0.03055656 1.581632 0.1457823
v -0.02159495 1.584206 0.155771
v -0.01874094 1.655573 0.1319648
v -0.01305693 1.524962 0.2117039
v -0.01425722 1.532366 0.2258165
v -0.05019862 1.528493 0.1589088
v -0.04186667 1.560708 0.1552835
v -0.03573462 1.562819 0.1691536
v -0.05347363 1.542609 0.1883912
v -0.05427812 1.557665 0.1582171
v -0.05960625 1.542361 0.1734219
v -0.061441 1.538718 0.1627752
v -0.05653339 1.54737 0.1497825
v -0.059903 1.554921 0.1666434
v -0.06200838 1.549007 0.1577748
v -0.05682043 1.546835 0.1439031
v -0.04118314 1.578355 0.1384809
v -0.04942007 1.516868 0.1674248
v -0.03592369 1.499465 0.1811199
v -0.05033697 1.556641 0.1804941
v -0.05585824 1.528853 0.179981
v -0.04325445 1.526924 0.1865662
v -0.017153 1.524074 0.195587
v -0.01880769 1.575345 0.2019587
v -0.02744649 1.545063 0.2144114
v -0.03203636 1.559661 0.1941332
v -0.02657408 1.568041 0.1811868
v -0.03397876 1.544314 0.2008683
v -0.04741579 1.562699 0.1683268
v 0.05399321 1.530307 0.1645646
v 0.03805781 1.526084 0.1737448
v 0.02528549 1.527482 0.1794813
v -2.383308E-17 1.522739 0.1853379
v -0.02503482 1.527347 0.1794318
v -0.03801864 1.526078 0.174506
v -0.05360391 1.530057 0.1646404
v 0.01834872 1.550742 0.2283618
v 3.65129E-11 1.55075 0.2350251
v -0.01834872 1.550742 0.2283618
v 0.05653339 1.54737 0.1497825
v 0.04865332 1.562409 0.1374834
v 0.04865332 1.562409 0.1374834
v 0.05017529 1.528426 0.1593264
v 0.03610755 1.525768 0.1683342
v 0.02398656 1.528202 0.173916
v -2.319626E-17 1.523265 0.179602
v 0.05682043 1.546835 0.1439031
v -0.04865332 1.562409 0.1374834
v -0.05653339 1.54737 0.1497825
v -0.05360391 1.530057 0.1646404
v -0.04865332 1.562409 0.1374834
v -0.05019862 1.528493 0.1589088
v -0.03606839 1.525762 0.1690954
v -0.02409927 1.528292 0.1738275
v -0.05682043 1.546835 0.1439031
v 0.05399321 1.530307 0.1645646
v 0.03805781 1.526084 0.1737448
v 0.02528549 1.527482 0.1794813
v -2.383308E-17 1.522739 0.1853379
v -0.02503482 1.527347 0.1794318
v -0.03801864 1.526078 0.174506
vt 0.974054 0.170019
vt 0.9944948 0.1311435
vt 0.974054 0.1771168
vt 0.9740534 0.1457805
vt 0.974054 0.148291
vt 0.9740539 0.1469581
vt 0.9740546 0.1522486
vt 0.9833113 0.1669443
vt 0.9832265 0.162156
vt 0.9834542 0.1563985
vt 0.9944948 0.1311435
vt 0.9785369 0.1693268
vt 0.9768409 0.1458786
vt 0.9752021 0.1484391
vt 0.9759284 0.1517044
vt 0.9944947 0.1311435
vt 0.9782544 0.1468808
vt 0.9773152 0.1487334
vt 0.979906 0.1623135
vt 0.9944948 0.1311435
vt 0.9819303 0.1545218
vt 0.979169 0.1548161
vt 0.9814945 0.1761488
vt 0.9750063 0.1457562
vt 0.9747388 0.146788
vt 0.9944948 0.1311435
vt 0.9817778 0.1498471
vt 0.9799528 0.1501693
vt 0.9791448 0.1468905
vt 0.9816428 0.1483731
vt 0.9803833 0.1468621
vt 0.9811704 0.1465698
vt 0.9944947 0.1311435
vt 0.9809254 0.1478142
vt 0.9815968 0.1473282
vt 0.9944947 0.1311435
vt 0.9843224 0.1537407
vt 0.9716922 0.132817
vt 0.9695174 0.1295384
vt 0.964034 0.1273435
vt 0.9795901 0.1481442
vt 0.9771053 0.147125
vt 0.9798233 0.1458611
vt 0.9787567 0.1453623
vt 0.9758253 0.1444713
vt 0.974053 0.143909
vt 0.9740543 0.149618
vt 0.9755666 0.1496336
vt 0.9759545 0.1472134
vt 0.9777067 0.1505306
vt 0.9740546 0.155309
vt 0.9805156 0.1490194
vt 0.9648108 0.1669371
vt 0.96491 0.1621592
vt 0.9646906 0.1564364
vt 0.9944948 0.1311435
vt 0.9695767 0.1693245
vt 0.9712496 0.1458405
vt 0.9740541 0.161728
vt 0.9728944 0.1484378
vt 0.9721711 0.1517199
vt 0.9944948 0.1311435
vt 0.9697884 0.1468321
vt 0.9682174 0.1623182
vt 0.9944947 0.1311436
vt 0.9662025 0.1545712
vt 0.9689484 0.1548487
vt 0.9666125 0.176142
vt 0.9730975 0.1457434
vt 0.9733636 0.1467821
vt 0.9944948 0.1311435
vt 0.9662744 0.1501775
vt 0.9681216 0.1502585
vt 0.9688626 0.1468209
vt 0.9661232 0.1486159
vt 0.9675061 0.1467518
vt 0.9666374 0.1463335
vt 0.9944948 0.1311435
vt 0.9668669 0.1478347
vt 0.9659376 0.1472265
vt 0.9944948 0.1311435
vt 0.9638318 0.1538095
vt 0.9563762 0.1328167
vt 0.9585508 0.1295383
vt 0.9683806 0.1481643
vt 0.9682027 0.1457124
vt 0.9693203 0.1452573
vt 0.9722843 0.1444436
vt 0.9725278 0.1496397
vt 0.9721346 0.1471982
vt 0.9707507 0.1487379
vt 0.970377 0.1505671
vt 0.9709666 0.1470995
vt 0.9674425 0.1491415
vt 0.9944948 0.1311435
vt 0.9944947 0.1311435
vt 0.9944947 0.1311435
vt 0.9944947 0.1311435
vt 0.9944947 0.1311435
vt 0.9944947 0.1311435
vt 0.9944948 0.1311435
vt 0.9749441 0.1476035
vt 0.9740539 0.1476679
vt 0.9731552 0.1475985
vt 0.9822635 0.1472011
vt 0.9834463 0.1492456
vt 0.9853349 0.1507221
vt 0.9719663 0.1349432
vt 0.969759 0.1343865
vt 0.9677058 0.1342463
vt 0.964034 0.1332141
vt 0.9733003 0.1384798
vt 0.9644742 0.1499719
vt 0.9652119 0.1471247
vt 0.9671997 0.1452329
vt 0.9628201 0.1508361
vt 0.9561121 0.1349897
vt 0.9583546 0.1342981
vt 0.9603443 0.1342642
vt 0.9548476 0.1385013
vt 0.9808397 0.1455254
vt 0.9794681 0.1441018
vt 0.9778117 0.1433874
vt 0.9740533 0.1421007
vt 0.9703602 0.1432972
vt 0.9687341 0.1439881
vn -3.070696E-07 0.3477288 0.9375952
vn 0.001785835 -0.6444844 0.7646154
vn 0 0.4872707 0.873251
vn 0 -0.9621538 0.2725071
vn 1.864258E-07 0.6860733 0.7275324
vn -1.17378E-07 -0.6384758 0.7696419
vn 0 0.9691792 0.2463569
vn 0.5564668 0.3016003 0.7741976
vn 0.6346815 0.2356468 0.7359688
vn 0.6176654 0.3546039 0.7019584
vn 0.4139671 -0.4839616 0.7709815
vn 0.5455267 0.2957023 0.7841944
vn 0.5302156 -0.7114418 0.4612181
vn 0.6610685 0.5510706 0.5092245
vn 0.3165669 0.9294621 0.1894352
vn 0.7937631 0.58626 0.161986
vn 0.5694121 -0.03261942 0.8214048
vn 0.7026076 0.5642565 0.4335403
vn 0.5964119 0.2519216 0.7621208
vn 0.2593659 -0.5888492 0.7654971
vn 0.7465382 0.4354756 0.5030324
vn 0.6031494 0.526821 0.598891
vn 0.3264225 0.4125773 0.8504283
vn 0.3363212 -0.901973 0.2707999
vn 0.5635282 -0.5467931 0.6192359
vn 0.7974789 -0.1400301 0.5868723
vn 0.5756802 0.812712 0.0899533
vn 0.4458349 0.866605 0.2241141
vn 0.8002975 0.1298624 0.5853715
vn 0.6199483 0.74155 -0.2564524
vn 0.9571748 -0.0003369647 0.2895106
vn 0.9061822 -0.3761159 -0.193315
vn 0.9175454 0.1032274 -0.383998
vn 0.8085808 0.5665092 0.1589483
vn 0.9013678 0.2853061 -0.3257862
vn 0.3845594 0.4627666 0.7987247
vn 0.6529914 0.3293471 0.6820065
vn 0.4886937 0.2927291 0.8218809
vn 0.4197846 0.1573824 0.8938746
vn -1.205939E-06 0.1711296 0.9852485
vn 0.4687666 0.7664232 0.4391506
vn 0.7262918 0.05032926 0.6855416
vn 0.7876745 -0.5519044 0.2738073
vn 0.3350905 -0.8184295 0.4667843
vn 0.3195516 -0.9459703 0.05501828
vn 0.0004683966 -0.9999343 -0.01145005
vn 0 0.9850771 0.1721142
vn 0.4670478 0.8804838 0.08133005
vn 0.8674156 -0.01096894 0.4974634
vn 0.6008618 0.7730809 0.203251
vn 0 0.7048269 0.7093794
vn 0.2607987 0.960006 0.1018455
vn -0.5564668 0.3016003 0.7741976
vn -0.6346815 0.2356468 0.7359688
vn -0.6176654 0.3546039 0.7019584
vn -0.4274926 -0.4973826 0.7548912
vn -0.545527 0.295703 0.7841939
vn -0.53064 -0.7106509 0.4619486
vn 0 0.345291 0.9384956
vn -0.6610683 0.5510706 0.5092248
vn -0.3165669 0.9294622 0.1894343
vn -0.7937631 0.5862598 0.1619867
vn -0.5694107 -0.03261925 0.8214057
vn -0.596412 0.2519217 0.7621208
vn -0.2534144 -0.6000392 0.7587714
vn -0.7465383 0.4354756 0.5030323
vn -0.6031498 0.5268214 0.5988902
vn -0.3264225 0.4125773 0.8504283
vn -0.3363205 -0.9019719 0.2708048
vn -0.5635282 -0.5467924 0.6192367
vn -0.7859612 -0.119762 0.6065658
vn -0.5756799 0.8127119 0.08995634
vn -0.4458351 0.8666046 0.2241152
vn -0.8002977 0.129862 0.5853713
vn -0.6199481 0.7415509 -0.25645
vn -0.9571753 -0.0003369911 0.2895086
vn -0.9041625 -0.379807 -0.1955425
vn -0.9192153 0.1047677 -0.3795616
vn -0.8085805 0.5665098 0.1589472
vn -0.9013678 0.2853066 -0.3257857
vn -0.3845594 0.4627666 0.7987247
vn -0.6529914 0.3293471 0.6820065
vn -0.4886937 0.2927291 0.8218809
vn -0.4197846 0.1573824 0.8938746
vn -0.468767 0.7664235 0.43915
vn -0.7856049 -0.5548594 0.273781
vn -0.334695 -0.8168847 0.4697644
vn -0.3191164 -0.9460799 0.05565649
vn -0.4670478 0.8804839 0.08132981
vn -0.8674164 -0.01096911 0.4974621
vn -0.7026078 0.5642568 0.4335396
vn -0.6008622 0.7730812 0.2032483
vn -0.7262918 0.05033009 0.6855416
vn -0.2607993 0.9600058 0.1018463
vn 0.5682108 -0.7957165 -0.2096943
vn 0.04444014 -0.9976436 0.05226924
vn 0.1144043 -0.9933976 0.008537469
vn 0.001528 -0.992228 -0.1244238
vn -0.1127869 -0.9936144 0.003063041
vn -0.04037471 -0.9981356 0.04577364
vn -0.5649384 -0.7982935 -0.2087392
vn 0.6419403 0.03978698 0.7657217
vn 1.271795E-07 0.0821806 0.9966175
vn -0.6419402 0.03978682 0.7657217
vn 0.9175454 0.1032274 -0.383998
vn 0.7937631 0.58626 0.161986
vn 0.7937631 0.58626 0.161986
vn 0.7974789 -0.1400301 0.5868723
vn 0.4139671 -0.4839616 0.7709815
vn 0.2593659 -0.5888492 0.7654971
vn 0.001785835 -0.6444844 0.7646154
vn 0.3845594 0.4627666 0.7987247
vn -0.7937631 0.5862598 0.1619867
vn -0.9192153 0.1047677 -0.3795616
vn -0.5649384 -0.7982935 -0.2087392
vn -0.7937631 0.5862598 0.1619867
vn -0.7859612 -0.119762 0.6065658
vn -0.4274926 -0.4973826 0.7548912
vn -0.2534144 -0.6000392 0.7587714
vn -0.3845594 0.4627666 0.7987247
vn 0.5682108 -0.7957165 -0.2096943
vn 0.04444014 -0.9976436 0.05226924
vn 0.1144043 -0.9933976 0.008537469
vn 0.001528 -0.992228 -0.1244238
vn -0.1127869 -0.9936144 0.003063041
vn -0.04037471 -0.9981356 0.04577364
g bloby5_geo_0
f 26/26/26 95/95/95 96/96/96
f 33/33/33 95/95/95 26/26/26
f 36/36/36 33/33/33 26/26/26
f 16/16/16 33/33/33 36/36/36
f 74/74/74 86/86/86 63/63/63
f 91/91/91 74/74/74 63/63/63
f 85/85/85 74/74/74 91/91/91
f 73/73/73 85/85/85 91/91/91
f 94/94/94 85/85/85 73/73/73
f 72/72/72 94/94/94 73/73/73
f 79/79/79 94/94/94 72/72/72
f 75/75/75 79/79/79 72/72/72
f 80/80/80 79/79/79 75/75/75
f 114/114/114 80/80/80 75/75/75
f 77/77/77 80/80/80 114/114/114
f 115/115/115 77/77/77 114/114/114
f 86/86/86 77/77/77 115/115/115
f 87/87/87 86/86/86 115/115/115
f 63/63/63 86/86/86 87/87/87
f 58/58/58 63/63/63 87/87/87
f 93/93/93 63/63/63 58/58/58
f 90/90/90 93/93/93 58/58/58
f 91/91/91 93/93/93 90/90/90
f 60/60/60 91/91/91 90/90/90
f 89/89/89 91/91/91 60/60/60
f 5/5/5 89/89/89 60/60/60
f 47/47/47 89/89/89 5/5/5
f 48/48/48 47/47/47 5/5/5
f 15/15/15 47/47/47 48/48/48
f 50/50/50 15/15/15 48/48/48
f 22/22/22 15/15/15 50/50/50
f 28/28/28 22/22/22 50/50/50
f 21/21/21 22/22/22 28/28/28
f 27/27/27 21/21/21 28/28/28
f 37/37/37 21/21/21 27/27/27
f 107/107/107 37/37/37 27/27/27
f 40/40/40 111/111/111 119/119/119
f 110/110/110 111/111/111 40/40/40
f 39/39/39 110/110/110 40/40/40
f 109/109/109 110/110/110 39/39/39
f 38/38/38 109/109/109 39/39/39
f 108/108/108 109/109/109 38/38/38
f 112/112/112 108/108/108 38/38/38
f 71/71/71 100/100/100 101/101/101
f 78/78/78 71/71/71 101/101/101
f 81/81/81 71/71/71 78/78/78
f 62/62/62 81/81/81 78/78/78
f 57/57/57 68/68/68 53/53/53
f 54/54/54 57/57/57 53/53/53
f 64/64/64 57/57/57 54/54/54
f 55/55/55 64/64/64 54/54/54
f 66/66/66 64/64/64 55/55/55
f 82/82/82 66/66/66 55/55/55
f 72/72/72 66/66/66 82/82/82
f 116/116/116 72/72/72 82/82/82
f 83/83/83 117/117/117 120/120/120
f 118/118/118 117/117/117 83/83/83
f 84/84/84 118/118/118 83/83/83
f 119/119/119 118/118/118 84/84/84
f 40/40/40 119/119/119 84/84/84
f 92/92/92 73/73/73 91/91/91
f 89/89/89 92/92/92 91/91/91
f 61/61/61 92/92/92 89/89/89
f 47/47/47 61/61/61 89/89/89
f 7/7/7 61/61/61 47/47/47
f 15/15/15 7/7/7 47/47/47
f 51/51/51 7/7/7 15/15/15
f 22/22/22 51/51/51 15/15/15
f 59/59/59 51/51/51 22/22/22
f 19/19/19 59/59/59 22/22/22
f 1/1/1 59/59/59 19/19/19
f 12/12/12 1/1/1 19/19/19
f 3/3/3 1/1/1 12/12/12
f 23/23/23 3/3/3 12/12/12
f 97/97/97 2/2/2 20/20/20
f 11/11/11 97/97/97 20/20/20
f 96/96/96 97/97/97 11/11/11
f 26/26/26 96/96/96 11/11/11
f 12/12/12 8/8/8 23/23/23
f 9/9/9 8/8/8 12/12/12
f 19/19/19 9/9/9 12/12/12
f 10/10/10 9/9/9 19/19/19
f 21/21/21 10/10/10 19/19/19
f 37/37/37 10/10/10 21/21/21
f 99/99/99 56/56/56 65/65/65
f 2/2/2 99/99/99 65/65/65
f 98/98/98 99/99/99 2/2/2
f 97/97/97 98/98/98 2/2/2
f 18/18/18 50/50/50 48/48/48
f 14/14/14 18/18/18 48/48/48
f 49/49/49 18/18/18 14/14/14
f 102/102/102 49/49/49 14/14/14
f 25/25/25 49/49/49 102/102/102
f 6/6/6 25/25/25 102/102/102
f 4/4/4 25/25/25 6/6/6
f 70/70/70 4/4/4 6/6/6
f 69/69/69 4/4/4 70/70/70
f 58/58/58 69/69/69 70/70/70
f 88/88/88 69/69/69 58/58/58
f 125/125/125 88/88/88 58/58/58
f 46/46/46 88/88/88 125/125/125
f 124/124/124 46/46/46 125/125/125
f 45/45/45 46/46/46 124/124/124
f 123/123/123 45/45/45 124/124/124
f 13/13/13 45/45/45 123/123/123
f 122/122/122 13/13/13 123/123/123
f 44/44/44 13/13/13 122/122/122
f 121/121/121 44/44/44 122/122/122
f 43/43/43 44/44/44 121/121/121
f 32/32/32 43/43/43 121/121/121
f 31/31/31 43/43/43 32/32/32
f 35/35/35 31/31/31 32/32/32
f 34/34/34 31/31/31 35/35/35
f 30/30/30 34/34/34 35/35/35
f 27/27/27 34/34/34 30/30/30
f 106/106/106 27/27/27 30/30/30
f 105/105/105 35/35/35 32/32/32
f 30/30/30 35/35/35 105/105/105
f 106/106/106 30/30/30 105/105/105
f 51/51/51 61/61/61 7/7/7
f 67/67/67 61/61/61 51/51/51
f 59/59/59 67/67/67 51/51/51
f 64/64/64 67/67/67 59/59/59
f 1/1/1 64/64/64 59/59/59
f 57/57/57 64/64/64 1/1/1
f 3/3/3 57/57/57 1/1/1
f 68/68/68 57/57/57 3/3/3
f 56/56/56 100/100/100 71/71/71
f 99/99/99 100/100/100 56/56/56
f 75/75/75 113/113/113 114/114/114
f 72/72/72 113/113/113 75/75/75
f 126/126/126 87/87/87 115/115/115
f 58/58/58 87/87/87 126/126/126
f 125/125/125 58/58/58 126/126/126
f 105/105/105 32/32/32 121/121/121
f 29/29/29 43/43/43 31/31/31
f 17/17/17 43/43/43 29/29/29
f 18/18/18 17/17/17 29/29/29
f 42/42/42 17/17/17 18/18/18
f 49/49/49 42/42/42 18/18/18
f 13/13/13 42/42/42 49/49/49
f 25/25/25 13/13/13 49/49/49
f 24/24/24 13/13/13 25/25/25
f 4/4/4 24/24/24 25/25/25
f 46/46/46 24/24/24 4/4/4
f 69/69/69 46/46/46 4/4/4
f 88/88/88 46/46/46 69/69/69
f 21/21/21 19/19/19 22/22/22
f 103/103/103 102/102/102 14/14/14
f 6/6/6 102/102/102 103/103/103
f 104/104/104 6/6/6 103/103/103
f 70/70/70 6/6/6 104/104/104
f 90/90/90 70/70/70 104/104/104
f 58/58/58 70/70/70 90/90/90
f 18/18/18 28/28/28 50/50/50
f 41/41/41 28/28/28 18/18/18
f 29/29/29 41/41/41 18/18/18
f 34/34/34 41/41/41 29/29/29
f 31/31/31 34/34/34 29/29/29
f 52/52/52 28/28/28 41/41/41
f 27/27/27 28/28/28 52/52/52
f 34/34/34 27/27/27 52/52/52
f 17/17/17 44/44/44 43/43/43
f 13/13/13 44/44/44 17/17/17
f 42/42/42 13/13/13 17/17/17
f 24/24/24 45/45/45 13/13/13
f 46/46/46 45/45/45 24/24/24
f 5/5/5 14/14/14 48/48/48
f 103/103/103 14/14/14 5/5/5
f 60/60/60 103/103/103 5/5/5
f 104/104/104 103/103/103 60/60/60
f 90/90/90 104/104/104 60/60/60
f 41/41/41 34/34/34 52/52/52
f 93/93/93 91/91/91 63/63/63
f 66/66/66 67/67/67 64/64/64
f 92/92/92 67/67/67 66/66/66
f 73/73/73 92/92/92 66/66/66
f 79/79/79 74/74/74 85/85/85
f 76/76/76 74/74/74 79/79/79
f 80/80/80 76/76/76 79/79/79
f 77/77/77 76/76/76 80/80/80
f 86/86/86 76/76/76 77/77/77
f 74/74/74 76/76/76 86/86/86
f 72/72/72 73/73/73 66/66/66
f 61/61/61 67/67/67 92/92/92
f 94/94/94 79/79/79 85/85/85
