g blueprintHouse_geo
v -0.7538337 0.02186995 0.591206
v -0.3769168 0.004819295 0.5389267
v 0 0.003229511 0.5235183
v 0.3769168 0.01838311 0.5511011
v 0.7538337 0.003229511 0.5358732
v -0.7538337 0.003229511 0.395431
v -0.3769168 0.003229511 0.2755505
v 0 0.003229511 0.2755505
v 0.3769168 0.01366244 0.2755505
v 0.7538337 0.003229511 0.2755505
v -0.7538337 0.0113449 0
v -0.3769168 0.0113449 0
v 0 0.003229511 0
v 0.3769168 0.003229511 0
v 0.7538337 0.008140964 0
v -0.7346413 0.003229511 -0.3299828
v -0.3769168 0.003229511 -0.2755505
v 0 0.003229511 -0.2755505
v 0.3769168 0.01200423 -0.2755505
v 0.7538337 0.003229511 -0.2755505
v -0.7538337 0.01568967 -0.5511011
v -0.4641844 0.003229511 -0.5418108
v 0 0.01067389 -0.5511011
v 0.3769168 0.003229511 -0.5332507
v 0.7538337 0.003229511 -0.5511011
vt 0 0
vt 0.25 0
vt 0.5 0
vt 0.75 0
vt 1 0
vt 0 0.1713855
vt 0.25 0.2763315
vt 0.5 0.2763315
vt 0.75 0.2763315
vt 1 0.2763315
vt 0 0.5175543
vt 0.25 0.5175543
vt 0.5 0.5175543
vt 0.75 0.5175543
vt 1 0.5175543
vt 0 0.8064282
vt 0.25 0.7587771
vt 0.5 0.7587771
vt 0.75 0.7587771
vt 1 0.7587771
vt 0 1
vt 0.1921175 1
vt 0.5 1
vt 0.75 1
vt 1 1
vn 0.01254305 0.9989522 -0.04401389
vn 0.007295837 0.9996957 -0.02356671
vn -0.0157757 0.9998572 -0.006061362
vn 7.59328E-05 0.9999603 -0.008912889
vn 0.03374339 0.9993918 -0.008803937
vn 0.008199202 0.9999171 -0.00992164
vn 0.00730201 0.9999713 -0.002055035
vn -0.008656528 0.9999542 -0.004081713
vn -0.001590581 0.9999304 -0.0116937
vn 0.02053547 0.9997448 -0.009411905
vn 0.0029141 0.999995 -0.001275084
vn 0.006839958 0.9999764 -0.000637478
vn -0.000986823 0.9999993 -0.0007518514
vn -0.003256776 0.9999936 -0.001504012
vn 0.006224531 0.9999795 -0.001504258
vn 0.009539315 0.9999515 -0.002455423
vn 0.005289809 0.9999855 -0.001124389
vn -0.002815855 0.9999901 0.003459699
vn 0.0007574157 0.9999993 0.000995671
vn 0.008187039 0.9999554 -0.004721375
vn 0.01709182 0.9996158 0.02182242
vn 0.004205168 0.9998204 0.01848092
vn -0.005194187 0.9999665 0.006320979
vn 0.004771498 0.9999437 -0.009473746
vn 0.01124824 0.9998015 -0.01645188
g blueprintHouse_geo_0
f 7/7/7 6/6/6 1/1/1
f 2/2/2 7/7/7 1/1/1
f 8/8/8 7/7/7 2/2/2
f 3/3/3 8/8/8 2/2/2
f 9/9/9 8/8/8 3/3/3
f 4/4/4 9/9/9 3/3/3
f 10/10/10 9/9/9 4/4/4
f 5/5/5 10/10/10 4/4/4
f 19/19/19 20/20/20 25/25/25
f 24/24/24 19/19/19 25/25/25
f 18/18/18 19/19/19 24/24/24
f 23/23/23 18/18/18 24/24/24
f 17/17/17 18/18/18 23/23/23
f 22/22/22 17/17/17 23/23/23
f 16/16/16 17/17/17 22/22/22
f 21/21/21 16/16/16 22/22/22
f 9/9/9 10/10/10 15/15/15
f 14/14/14 9/9/9 15/15/15
f 8/8/8 9/9/9 14/14/14
f 13/13/13 8/8/8 14/14/14
f 7/7/7 8/8/8 13/13/13
f 12/12/12 7/7/7 13/13/13
f 6/6/6 7/7/7 12/12/12
f 11/11/11 6/6/6 12/12/12
f 14/14/14 15/15/15 20/20/20
f 19/19/19 14/14/14 20/20/20
f 13/13/13 14/14/14 19/19/19
f 18/18/18 13/13/13 19/19/19
f 12/12/12 13/13/13 18/18/18
f 17/17/17 12/12/12 18/18/18
f 11/11/11 12/12/12 17/17/17
f 16/16/16 11/11/11 17/17/17
