g bookstore_audioBook_geo
v -0.1764002 0.09963746 0.2349371
v 0.1764002 0.1063775 0.2349371
v -0.1764002 0.09963749 -0.2349371
v 0.1764002 0.1063776 -0.2349371
v -0.1764002 0.006740066 -0.2349371
v 0.1764002 0 -0.2349371
v -0.1764002 0.006740066 0.2349371
v 0.1764002 0 0.2349371
v 0.1764002 0.0969039 0.2349371
v 0.1764002 0.0969039 -0.2349371
v 0.1764002 0.00992609 0.2349371
v 0.1764002 0.00992609 -0.2349371
v -0.1687162 0.09317219 0.2349371
v -0.1687162 0.01357209 0.2349371
v -0.1687162 0.01357212 -0.2349371
v -0.1687162 0.09317219 -0.2349371
v -0.1744767 0.05341497 0.2349371
v -0.1877889 0.05318876 0.2349371
v -0.1877889 0.05318878 -0.2349371
v -0.1744767 0.05341499 -0.2349371
v -0.1472525 0.0969039 0.2349371
v -0.1472525 0.00992609 0.2349371
v -0.1472525 0 0.2349371
v -0.1472525 0 -0.2349371
v -0.1472525 0.00992609 -0.2349371
v -0.1472525 0.0969039 -0.2349371
v -0.1472525 0.1063776 -0.2349371
v -0.1472525 0.1063775 0.2349371
v -0.1607566 0.09690388 0.2349371
v -0.1607566 0.009926071 0.2349371
v -0.1607566 0 0.2349371
v -0.1607566 0 -0.2349371
v -0.1607566 0.009926109 -0.2349371
v -0.1607566 0.09690388 -0.2349371
v -0.1607566 0.1063776 -0.2349371
v -0.1607566 0.1063775 0.2349371
v -0.1540045 0.01699492 0.2349371
v -0.1540045 0.008690706 0.2349371
v -0.1540045 0.008690706 -0.2349371
v -0.1540045 0.01699495 -0.2349371
v -0.1540045 0.08976112 -0.2349371
v -0.1540045 0.09768686 -0.2349371
v -0.1540045 0.09768683 0.2349371
v -0.1540045 0.08976112 0.2349371
v 0.1538437 0.05341501 0.2232848
v 0.1538437 0.05341499 -0.2232848
v 0.1660754 0.00992609 0.2232848
v 0.1660754 0.00992609 -0.2232848
v 0.1660754 0.0969039 0.2232848
v 0.1660754 0.0969039 -0.2232848
v -0.1681793 0.0969039 0.2232848
v -0.1744767 0.05341501 0.2232848
v -0.1681793 0.009926071 0.2232848
v -0.1681793 0.009926071 -0.2232848
v -0.1744767 0.05341499 -0.2232848
v -0.1681793 0.09690385 -0.2232848
v 0.001163082 0.017149 0.3264218
v -0.1173757 0.017149 0.3264218
v -0.009610882 0.05341501 0.2232848
v -0.1066018 0.05341501 0.2232848
v -0.009610882 0.05341501 0.2505093
v -0.1066018 0.05341501 0.2505093
v -0.006733748 0.04212625 0.2868645
v -0.05810634 0.04212625 0.2868645
v -0.1094789 0.04212625 0.2868645
v -0.03273493 0.02710529 0.310655
v -0.08347775 0.02710529 0.310655
v 0.1764002 0.1063775 0.2349371
v -0.1472525 0.1063775 0.2349371
v 0.1764002 0.1063776 -0.2349371
v -0.1472525 0.1063776 -0.2349371
v -0.1472525 0.00992609 0.2349371
v 0.1764002 0.00992609 -0.2349371
v 0.1764002 0.00992609 0.2349371
v -0.1472525 0.00992609 -0.2349371
v -0.1472525 0.0969039 0.2349371
v 0.1764002 0.0969039 -0.2349371
v -0.1472525 0.0969039 -0.2349371
v 0.1764002 0.0969039 0.2349371
v -0.1687162 0.01357212 -0.2349371
v -0.1744767 0.05341497 0.2349371
v -0.1744767 0.05341499 -0.2349371
v -0.1687162 0.01357209 0.2349371
v -0.1744767 0.05341497 0.2349371
v -0.1877889 0.05318876 0.2349371
v -0.1877889 0.05318878 -0.2349371
v -0.1764002 0.09963746 0.2349371
v -0.1877889 0.05318876 0.2349371
v -0.1744767 0.05341499 -0.2349371
v -0.1764002 0.09963749 -0.2349371
v -0.1877889 0.05318878 -0.2349371
v -0.1744767 0.05341497 0.2349371
v -0.1687162 0.09317219 -0.2349371
v -0.1744767 0.05341499 -0.2349371
v -0.1687162 0.09317219 0.2349371
v -0.1540045 0.01699492 0.2349371
v -0.1540045 0.01699495 -0.2349371
v -0.1540045 0.08976112 -0.2349371
v -0.1472525 0.1063775 0.2349371
v -0.1540045 0.09768686 -0.2349371
v -0.1472525 0.1063776 -0.2349371
v -0.1540045 0.09768683 0.2349371
v -0.1540045 0.08976112 0.2349371
v -0.1607566 0.009926071 0.2349371
v -0.1607566 0.009926109 -0.2349371
v -0.1607566 0.09690388 -0.2349371
v -0.1764002 0.09963749 -0.2349371
v -0.1607566 0.1063776 -0.2349371
v -0.1764002 0.09963746 0.2349371
v -0.1607566 0.1063775 0.2349371
v -0.1607566 0.09690388 0.2349371
v -0.1607566 0.1063776 -0.2349371
v -0.1607566 0.1063775 0.2349371
v 0.1538437 0.05341501 0.2232848
v -0.1744767 0.05341501 0.2232848
v 0.1538437 0.05341499 -0.2232848
v -0.1744767 0.05341499 -0.2232848
vt 0.15 0.35
vt 0.9941143 0.005816072
vt 0.15 0.25
vt 0.9941143 0.9941839
vt 0.15 0.05
vt 0.15 0.05
vt 0.15 0.05
vt 0.15 0.05
vt 0.15 0.35
vt 0.15 0.35
vt 0.15 0.05
vt 0.15 0.05
vt 0.15 0.35
vt 0.15 0.05
vt 0.15 0.05
vt 0.15 0.35
vt 0.15 0.05
vt 0.15 0.05
vt 0.15 0.05
vt 0.15 0.05
vt 0.15 0.35
vt 0.15 0.05
vt 0.15 0.05
vt 0.15 0.05
vt 0.15 0.05
vt 0.15 0.35
vt 0.3133181 0.9941865
vt 0.3133172 0.005816042
vt 0.15 0.45
vt 0.15 0.15
vt 0.15 0.05
vt 0.15 0.05
vt 0.15 0.15
vt 0.15 0.45
vt 0.15 0.35
vt 0.03485355 0.05000001
vt 0.15 0.15
vt 0.15 0.05
vt 0.15 0.05
vt 0.15 0.15
vt 0.15 0.45
vt 0.15 0.35
vt 0.05 0.1495522
vt 0.15 0.45
vt 0.15 0.65
vt 0.15 0.65
vt 0.15 0.65
vt 0.15 0.65
vt 0.15 0.55
vt 0.15 0.55
vt 0.15 0.55
vt 0.15 0.65
vt 0.15 0.65
vt 0.15 0.65
vt 0.15 0.65
vt 0.15 0.55
vt 0.2948222 0.6606582
vt 0.006007597 0.6606573
vt 0.2948222 0.994391
vt 0.006007597 0.9943902
vt 0.2948222 0.9133233
vt 0.006007597 0.9133226
vt 0.2948222 0.799967
vt 0.1504154 0.7999684
vt 0.006007597 0.7999661
vt 0.2123423 0.7161869
vt 0.08848891 0.7161864
vt 0.15 0.35
vt 0.15 0.35
vt 0.15 0.35
vt 0.15 0.35
vt 0.15 0.15
vt 0.15 0.15
vt 0.15 0.15
vt 0.15 0.15
vt 0.15 0.45
vt 0.15 0.45
vt 0.15 0.45
vt 0.15 0.45
vt 0.15 0.15
vt 0.15 0.15
vt 0.15 0.15
vt 0.15 0.15
vt 0.15 0.35
vt 0.15 0.35
vt 0.15 0.25
vt 0.15 0.25
vt 0.15 0.25
vt 0.15 0.35
vt 0.15 0.35
vt 0.15 0.35
vt 0.15 0.45
vt 0.15 0.45
vt 0.15 0.45
vt 0.15 0.45
vt 0.15 0.05
vt 0.15 0.05
vt 0.15 0.35
vt 0.05 0.03194438
vt 0.05 0.1494714
vt 0.05 0.03186776
vt 0.15 0.35
vt 0.15 0.35
vt 0.15 0.05
vt 0.15 0.05
vt 0.15 0.35
vt 0.03485355 0.05000001
vt 0.03485355 0.05000001
vt 0.03485355 0.05000001
vt 0.15 0.35
vt 0.15 0.35
vt 0.05 0.2670736
vt 0.05 0.2671561
vt 0.15 0.55
vt 0.15 0.55
vt 0.15 0.55
vt 0.15 0.55
vn -0.5092083 0.4308304 0.7450449
vn 0.5773502 0.5773503 0.5773503
vn -0.509208 0.4308304 -0.7450452
vn 0.5773503 0.5773503 -0.5773503
vn -0.5092088 -0.430831 -0.7450444
vn 0.5773498 -0.5773512 -0.5773498
vn -0.5092074 -0.4308307 0.7450455
vn 0.5773501 -0.5773504 0.5773501
vn 0.5773502 -0.5773503 0.5773503
vn 0.5773502 -0.5773503 -0.5773503
vn 0.5773504 0.57735 0.5773504
vn 0.5773507 0.5773493 -0.5773507
vn 0.5307282 -0.3936208 0.7505933
vn 0.5283 0.3953333 0.7514058
vn 0.5282986 0.3953329 -0.751407
vn 0.5307285 -0.3936208 -0.750593
vn 0.7034326 -0.0001072357 0.710762
vn -0.6967129 0 0.7173501
vn -0.6967134 -3.718219E-07 -0.7173496
vn 0.7034321 -0.00010767 -0.7107624
vn 0.2676145 -0.6212315 0.7365146
vn 0.2661595 0.6223009 0.7361389
vn -0.2937458 -0.6001974 0.74396
vn -0.2937455 -0.6001984 -0.7439594
vn 0.2661598 0.6223001 -0.7361397
vn 0.2676157 -0.6212313 -0.7365144
vn -0.2937435 0.6001979 -0.7439604
vn -0.2937446 0.6001977 0.7439602
vn -0.1173954 -0.61857 0.7769103
vn -0.118889 0.620235 0.775354
vn 0.1545126 -0.6007727 0.7843456
vn 0.1545124 -0.6007737 -0.7843449
vn -0.1188892 0.6202341 -0.7753548
vn -0.1173963 -0.6185699 -0.7769102
vn 0.1545109 0.6007729 -0.7843457
vn 0.1545119 0.6007729 0.7843456
vn -4.168652E-07 0.5683249 0.8228043
vn -2.057602E-06 -0.5229453 0.8523662
vn -7.368386E-07 -0.5229466 -0.8523654
vn 8.580914E-07 0.5683237 -0.822805
vn 1.203668E-06 -0.5662215 -0.8242531
vn -7.366721E-07 0.5229455 -0.8523661
vn -7.366721E-07 0.5229455 0.8523661
vn 1.203668E-06 -0.5662215 0.8242531
vn 0.6935241 0 0.7204335
vn 0.6935241 0 -0.7204335
vn 0.6806951 0.1914526 0.7071068
vn 0.6806951 0.1914526 -0.7071067
vn 0.6806951 -0.1914527 0.7071068
vn 0.6806951 -0.1914527 -0.7071068
vn 0 0 1
vn 0 0 1
vn 0 0 1
vn 0 0 -1
vn 0 0 -1
vn 0 0 -1
vn 2.280449E-05 0.8455516 0.5338938
vn -2.280451E-05 0.8455516 0.5338938
vn 0 1 0
vn 0 1 0
vn 0 0.9798565 0.1997033
vn 0 0.9798565 0.1997033
vn 7.659862E-06 0.8888165 0.4582633
vn 0 0.9187987 0.3947266
vn -7.659866E-06 0.8888165 0.4582635
vn 1.140225E-05 0.8455572 0.5338849
vn -1.140226E-05 0.8455572 0.5338849
vn 0.5773502 0.5773503 0.5773503
vn -0.2937446 0.6001977 0.7439602
vn 0.5773503 0.5773503 -0.5773503
vn -0.2937435 0.6001979 -0.7439604
vn 0.2661595 0.6223009 0.7361389
vn 0.5773507 0.5773493 -0.5773507
vn 0.5773504 0.57735 0.5773504
vn 0.2661598 0.6223001 -0.7361397
vn 0.2676145 -0.6212315 0.7365146
vn 0.5773502 -0.5773503 -0.5773503
vn 0.2676157 -0.6212313 -0.7365144
vn 0.5773502 -0.5773503 0.5773503
vn 0.5282986 0.3953329 -0.751407
vn 0.7034326 -0.0001072357 0.710762
vn 0.7034321 -0.00010767 -0.7107624
vn 0.5283 0.3953333 0.7514058
vn 0.7034326 -0.0001072357 0.710762
vn -0.6967129 0 0.7173501
vn -0.6967134 -3.718219E-07 -0.7173496
vn -0.5092083 0.4308304 0.7450449
vn -0.6967129 0 0.7173501
vn 0.7034321 -0.00010767 -0.7107624
vn -0.509208 0.4308304 -0.7450452
vn -0.6967134 -3.718219E-07 -0.7173496
vn 0.7034326 -0.0001072357 0.710762
vn 0.5307285 -0.3936208 -0.750593
vn 0.7034321 -0.00010767 -0.7107624
vn 0.5307282 -0.3936208 0.7505933
vn -4.168652E-07 0.5683249 0.8228043
vn 8.580914E-07 0.5683237 -0.822805
vn 1.203668E-06 -0.5662215 -0.8242531
vn -0.2937446 0.6001977 0.7439602
vn -7.366721E-07 0.5229455 -0.8523661
vn -0.2937435 0.6001979 -0.7439604
vn -7.366721E-07 0.5229455 0.8523661
vn 1.203668E-06 -0.5662215 0.8242531
vn -0.118889 0.620235 0.775354
vn -0.1188892 0.6202341 -0.7753548
vn -0.1173963 -0.6185699 -0.7769102
vn -0.509208 0.4308304 -0.7450452
vn 0.1545109 0.6007729 -0.7843457
vn -0.5092083 0.4308304 0.7450449
vn 0.1545119 0.6007729 0.7843456
vn -0.1173954 -0.61857 0.7769103
vn 0.1545109 0.6007729 -0.7843457
vn 0.1545119 0.6007729 0.7843456
vn 0.6935241 0 0.7204335
vn 0 0 1
vn 0.6935241 0 -0.7204335
vn 0 0 -1
g bookstore_audioBook_geo_0
f 27/27/27 2/2/2 4/4/4
f 28/28/28 2/2/2 27/27/27
f 8/8/8 12/12/12 11/11/11
f 22/22/22 8/8/8 11/11/11
f 23/23/23 8/8/8 22/22/22
f 96/96/96 23/23/23 22/22/22
f 38/38/38 23/23/23 96/96/96
f 104/104/104 38/38/38 96/96/96
f 31/31/31 38/38/38 104/104/104
f 14/14/14 31/31/31 104/104/104
f 7/7/7 31/31/31 14/14/14
f 18/18/18 7/7/7 14/14/14
f 5/5/5 7/7/7 18/18/18
f 19/19/19 5/5/5 18/18/18
f 15/15/15 5/5/5 19/19/19
f 20/20/20 15/15/15 19/19/19
f 17/17/17 18/18/18 14/14/14
f 37/37/37 40/40/40 33/33/33
f 75/75/75 40/40/40 37/37/37
f 72/72/72 75/75/75 37/37/37
f 73/73/73 75/75/75 72/72/72
f 74/74/74 73/73/73 72/72/72
f 76/76/76 77/77/77 79/79/79
f 78/78/78 77/77/77 76/76/76
f 41/41/41 78/78/78 76/76/76
f 80/80/80 83/83/83 30/30/30
f 81/81/81 83/83/83 80/80/80
f 82/82/82 81/81/81 80/80/80
f 110/110/110 111/111/111 103/103/103
f 13/13/13 111/111/111 110/110/110
f 1/1/1 13/13/13 110/110/110
f 84/84/84 13/13/13 1/1/1
f 85/85/85 84/84/84 1/1/1
f 87/87/87 86/86/86 88/88/88
f 3/3/3 86/86/86 87/87/87
f 90/90/90 89/89/89 91/91/91
f 16/16/16 89/89/89 90/90/90
f 35/35/35 16/16/16 90/90/90
f 106/106/106 16/16/16 35/35/35
f 42/42/42 106/106/106 35/35/35
f 98/98/98 106/106/106 42/42/42
f 71/71/71 98/98/98 42/42/42
f 26/26/26 98/98/98 71/71/71
f 70/70/70 26/26/26 71/71/71
f 10/10/10 26/26/26 70/70/70
f 68/68/68 10/10/10 70/70/70
f 9/9/9 10/10/10 68/68/68
f 21/21/21 9/9/9 68/68/68
f 93/93/93 92/92/92 94/94/94
f 95/95/95 92/92/92 93/93/93
f 34/34/34 95/95/95 93/93/93
f 29/29/29 95/95/95 34/34/34
f 41/41/41 29/29/29 34/34/34
f 44/44/44 29/29/29 41/41/41
f 76/76/76 44/44/44 41/41/41
f 43/43/43 112/112/112 113/113/113
f 100/100/100 112/112/112 43/43/43
f 99/99/99 100/100/100 43/43/43
f 101/101/101 100/100/100 99/99/99
f 107/107/107 36/36/36 108/108/108
f 109/109/109 36/36/36 107/107/107
f 46/46/46 48/48/48 54/54/54
f 47/47/47 48/48/48 46/46/46
f 45/45/45 47/47/47 46/46/46
f 53/53/53 47/47/47 45/45/45
f 52/52/52 53/53/53 45/45/45
f 55/55/55 46/46/46 54/54/54
f 114/114/114 51/51/51 115/115/115
f 49/49/49 51/51/51 114/114/114
f 50/50/50 49/49/49 114/114/114
f 116/116/116 50/50/50 114/114/114
f 56/56/56 50/50/50 116/116/116
f 117/117/117 56/56/56 116/116/116
f 63/63/63 66/66/66 57/57/57
f 64/64/64 66/66/66 63/63/63
f 61/61/61 64/64/64 63/63/63
f 62/62/62 64/64/64 61/61/61
f 59/59/59 62/62/62 61/61/61
f 60/60/60 62/62/62 59/59/59
f 65/65/65 64/64/64 62/62/62
f 67/67/67 64/64/64 65/65/65
f 58/58/58 67/67/67 65/65/65
f 24/24/24 25/25/25 12/12/12
f 97/97/97 25/25/25 24/24/24
f 39/39/39 97/97/97 24/24/24
f 105/105/105 97/97/97 39/39/39
f 32/32/32 105/105/105 39/39/39
f 15/15/15 105/105/105 32/32/32
f 5/5/5 15/15/15 32/32/32
f 102/102/102 110/110/110 103/103/103
f 21/21/21 102/102/102 103/103/103
f 69/69/69 102/102/102 21/21/21
f 68/68/68 69/69/69 21/21/21
f 33/33/33 30/30/30 37/37/37
f 80/80/80 30/30/30 33/33/33
f 6/6/6 12/12/12 8/8/8
f 24/24/24 12/12/12 6/6/6
f 23/23/23 24/24/24 6/6/6
f 38/38/38 24/24/24 23/23/23
f 23/23/23 6/6/6 8/8/8
f 32/32/32 7/7/7 5/5/5
f 31/31/31 7/7/7 32/32/32
f 39/39/39 31/31/31 32/32/32
f 38/38/38 31/31/31 39/39/39
f 24/24/24 38/38/38 39/39/39
