g bookstore_bookBox_geo
v 0.4656378 0.4979675 0.3063978
v 0.4656379 0.5193146 7.599594E-10
v -0.4356874 0.4979675 0.3063978
v -0.4309374 0.4701063 7.599593E-10
v 0.4656377 0.4979675 -0.3063978
v -0.4356874 0.4979675 -0.3063978
v -0.4356874 9.50351E-16 0.3063978
v -0.4356874 1.010747E-15 -0.3063978
v 0.4656377 4.440892E-17 0.3063978
v 0.4656377 1.04805E-16 -0.3063978
v -0.1184461 0.5279179 0.3049304
v -0.1184461 0.4680171 -0.3049304
v 0.1483966 0.5107947 -0.3061292
v 0.1483966 0.4851402 0.2983282
v 0.4593329 0.48115 7.599594E-10
v -0.4356874 0.5247598 7.599593E-10
v 0.1483966 0.4979675 -7.599591E-10
v 0.1483966 0.499409 -0.03563193
v 0.4656378 0.4979675 -0.03563193
v 0.4656378 0.4979675 0.03391183
v 0.4656377 7.460698E-17 -0.0008600529
v -0.1184461 0.4979675 7.599593E-10
v -0.1184461 0.5012906 0.03391183
v -0.4356874 0.4979675 0.03391183
v -0.4356874 0.4979675 -0.03563193
v -0.4356874 9.805491E-16 -0.0008600529
v -0.4356874 0.4979675 7.599593E-10
v 0.4656378 0.4979675 7.599594E-10
v -0.4314618 0.4731822 0.03391183
v 0.4600201 0.482983 -0.03563193
v -0.4356874 0.01008501 -0.3063978
v -0.4356874 0.01008501 -0.03563193
v -0.4356874 0.01008501 0.03391183
v -0.4356874 0.01008501 0.3063978
v 0.4656377 0.01008501 0.3063978
v 0.4656377 0.01008501 0.03391183
v 0.4656377 0.01008501 -0.03563193
v 0.4656377 0.01008501 -0.3063978
v -0.4258687 0.4979675 -0.3063978
v -0.4258687 0.5214158 -0.03563193
v -0.4258687 0.01008501 0.3063978
v -0.4258687 0.01008501 -0.3063978
v 0.4555214 0.4979675 0.3063977
v 0.4555214 0.516467 0.03391183
v 0.4555214 0.01008501 0.3063978
v 0.4555214 0.01008501 -0.3063978
v -0.4356874 0.4880782 0.3063978
v -0.4356874 0.4880782 -0.3063978
v 0.4656377 0.4880781 -0.03563193
v -0.4356874 0.4880782 0.03391183
v -0.4356874 0.4880782 -0.03563193
v 0.4656377 0.4880781 0.3063978
v 0.4656377 0.4880781 0.03391183
v 0.4656377 0.4880781 -0.3063978
v -0.4258687 0.4880782 -0.3063978
v -0.4258687 0.4880782 0.3063978
v 0.4555214 0.4880781 -0.3063978
v 0.4555214 0.4880781 0.3063978
v 0.4595236 0.4816586 -0.009888099
v -0.4258687 0.5234883 -0.009888096
v -0.4311059 0.4710944 0.01089338
v 0.4555214 0.5180252 0.01089338
v 0.1556025 0.4993763 -0.03563193
v 0.1556025 0.4979675 -7.254352E-10
v -0.125878 0.5012128 0.03391183
v -0.125878 0.4979675 7.599593E-10
v -0.125878 0.5264863 0.2973559
v -0.4356874 0.4979675 0.2987487
v 0.1556025 0.5102007 -0.298777
v 0.4656377 0.4979675 -0.2990325
v -0.1260526 0.4687353 -0.3049656
v 0.1540969 0.4853707 0.2984732
v 0.4656377 0.4979675 -0.3063978
v -0.4258687 0.4979675 -0.3063978
v -0.4258687 0.5214158 -0.03563193
v 0.4656378 0.4979675 0.3063978
v 0.4656378 0.4979675 0.03391183
v -0.4356874 0.4979675 -0.3063978
v 0.4656378 0.4979675 7.599594E-10
v -0.4356874 0.4979675 7.599593E-10
v -0.4356874 0.4880782 -0.03563193
v -0.4356874 0.4979675 0.03391183
v -0.125878 0.4979675 7.599593E-10
v -0.4356874 0.4979675 7.599593E-10
v 0.4656378 0.4979675 -0.03563193
v 0.1556025 0.4979675 -7.254352E-10
v 0.4656378 0.4979675 7.599594E-10
v -0.4356874 0.4979675 0.3063978
v 0.4555214 0.4979675 0.3063977
v -0.4356874 0.01008501 -0.03563193
v -0.4356874 0.01008501 -0.3063978
v -0.4356874 0.4880782 -0.3063978
v -0.4258687 0.01008501 0.3063978
v 0.4555214 0.4880781 0.3063978
v 0.4555214 0.01008501 0.3063978
v -0.4258687 0.4880782 0.3063978
v 0.4555214 0.516467 0.03391183
v 0.4656377 0.4880781 0.03391183
v 0.4656377 0.01008501 0.3063978
v 0.4656377 0.4880781 0.3063978
v 0.4656377 0.01008501 0.03391183
v -0.4356874 0.4979675 -0.03563193
v 0.4656377 0.4880781 0.03391183
v 0.4656377 0.01008501 -0.03563193
v 0.4656377 0.01008501 0.03391183
v 0.4656377 0.4880781 -0.03563193
v -0.4356874 0.4880782 -0.03563193
v -0.4356874 0.01008501 0.03391183
v -0.4356874 0.01008501 -0.03563193
v -0.4356874 0.4880782 0.03391183
v -0.4258687 0.4880782 -0.3063978
v 0.4555214 0.01008501 -0.3063978
v 0.4555214 0.4880781 -0.3063978
v -0.4258687 0.01008501 -0.3063978
v 0.4595236 0.4816586 -0.009888099
v -0.4258687 0.5214158 -0.03563193
v 0.4600201 0.482983 -0.03563193
v -0.4258687 0.5234883 -0.009888096
v -0.4314618 0.4731822 0.03391183
v 0.4555214 0.5180252 0.01089338
v 0.4555214 0.516467 0.03391183
v -0.4311059 0.4710944 0.01089338
v 0.1556025 0.4979675 -7.254352E-10
v 0.1556025 0.4993763 -0.03563193
v -0.125878 0.4979675 7.599593E-10
v -0.125878 0.5012128 0.03391183
v -0.4356874 0.4979675 0.2987487
v -0.125878 0.5012128 0.03391183
v -0.125878 0.5264863 0.2973559
v -0.4356874 0.4979675 0.03391183
v -0.4356874 0.01008501 0.3063978
v -0.4356874 0.4880782 0.03391183
v -0.4356874 0.4880782 0.3063978
v -0.4356874 0.01008501 0.03391183
v 0.4656377 0.4979675 -0.2990325
v 0.1556025 0.4993763 -0.03563193
v 0.1556025 0.5102007 -0.298777
v 0.4656378 0.4979675 -0.03563193
v 0.4656377 0.01008501 -0.03563193
v 0.4656377 0.4880781 -0.3063978
v 0.4656377 0.01008501 -0.3063978
v 0.4656377 0.4880781 -0.03563193
v -0.1260526 0.4687353 -0.3049656
v 0.1540969 0.4853707 0.2984732
v 0.4656377 7.460698E-17 -0.0008600529
v -0.4356874 1.010747E-15 -0.3063978
v -0.4356874 9.805491E-16 -0.0008600529
v 0.4656377 1.04805E-16 -0.3063978
v -0.4356874 9.50351E-16 0.3063978
v 0.4656377 4.440892E-17 0.3063978
vt 0.4494093 0.94949
vt 0.4494093 0.94949
vt 0.4494093 0.94949
vt 0.4494093 0.94949
vt 0.4494093 0.94949
vt 0.4494093 0.94949
vt 0.4494093 0.94949
vt 0.4494093 0.94949
vt 0.4494093 0.94949
vt 0.4494093 0.94949
vt 0.4494093 0.94949
vt 0.4494093 0.94949
vt 0.4494093 0.94949
vt 0.4494093 0.94949
vt 0.4494093 0.94949
vt 0.4494093 0.94949
vt 0.4494093 0.94949
vt 0.4494093 0.94949
vt 0.4494093 0.94949
vt 0.04613501 0.9533433
vt 0.4494093 0.94949
vt 0.4494093 0.94949
vt 0.4494093 0.94949
vt 0.4494093 0.94949
vt 0.04613495 0.9533433
vt 0.4494093 0.94949
vt 0.04613495 0.9533433
vt 0.04613501 0.9533433
vt 0.04613489 0.9533433
vt 0.04613489 0.9533433
vt 0.1495544 0.9508805
vt 0.1495544 0.9508805
vt 0.4494093 0.94949
vt 0.4494093 0.94949
vt 0.4494093 0.94949
vt 0.4494093 0.94949
vt 0.4494093 0.94949
vt 0.4494093 0.94949
vt 0.04613489 0.9533433
vt 0.04613489 0.9533433
vt 0.4494093 0.94949
vt 0.4494093 0.94949
vt 0.4494093 0.94949
vt 0.04613489 0.9533434
vt 0.4494093 0.94949
vt 0.4494093 0.94949
vt 0.4494093 0.94949
vt 0.1495544 0.9508804
vt 0.4494093 0.94949
vt 0.4494093 0.94949
vt 0.1495544 0.9508804
vt 0.4494093 0.94949
vt 0.4494093 0.94949
vt 0.4494093 0.94949
vt 0.4494093 0.94949
vt 0.4494093 0.94949
vt 0.4494093 0.94949
vt 0.4494093 0.94949
vt 0.4494093 0.94949
vt 0.4494093 0.94949
vt 0.4494093 0.94949
vt 0.4494093 0.94949
vt 0.3507055 0.94872
vt 0.04613495 0.9533433
vt 0.3507055 0.94872
vt 0.04613495 0.9533433
vt 0.4494093 0.94949
vt 0.4494093 0.94949
vt 0.4494093 0.94949
vt 0.4494093 0.94949
vt 0.04613495 0.9533433
vt 0.04613495 0.9533433
vt 0.04613489 0.9533434
vt 0.4494093 0.94949
vt 0.4494093 0.94949
vt 0.04613501 0.9533433
vt 0.4494093 0.94949
vt 0.04613495 0.9533433
vt 0.4494093 0.94949
vt 0.4494093 0.94949
vt 0.4494093 0.94949
vt 0.3507055 0.94872
vt 0.3507055 0.94872
vt 0.3507055 0.94872
vt 0.3507055 0.94872
vt 0.3507055 0.94872
vt 0.3507055 0.94872
vt 0.04613489 0.9533433
vt 0.04613495 0.9533433
vt 0.4494093 0.94949
vt 0.4494093 0.94949
vt 0.4494093 0.94949
vt 0.002325264 0.001935244
vt 0.9983412 0.542092
vt 0.9983413 0.00193527
vt 0.002325296 0.5420918
vt 0.4494093 0.94949
vt 0.1495544 0.9508804
vt 0.1495544 0.9508805
vt 0.1495544 0.9508804
vt 0.1495544 0.9508805
vt 0.4494093 0.94949
vt 0.2481412 0.9411287
vt 0.2481413 0.9411286
vt 0.2481412 0.9411286
vt 0.2481413 0.9411287
vt 0.2481413 0.9411287
vt 0.2481412 0.9411286
vt 0.2481413 0.9411286
vt 0.2481412 0.9411287
vt 0.1185316 0.7505852
vt 0.1185316 0.7505851
vt 0.1185316 0.7505851
vt 0.1185316 0.7505852
vt 0.3507055 0.94872
vt 0.3507055 0.94872
vt 0.3507055 0.94872
vt 0.3507055 0.94872
vt 0.3507055 0.94872
vt 0.3507055 0.94872
vt 0.3507055 0.94872
vt 0.3507055 0.94872
vt 0.4494093 0.94949
vt 0.4494093 0.94949
vt 0.4494093 0.94949
vt 0.4494093 0.94949
vt 0.04613495 0.9533433
vt 0.04613495 0.9533433
vt 0.04613495 0.9533433
vt 0.04613495 0.9533433
vt 0.1495544 0.9508805
vt 0.1495544 0.9508804
vt 0.1495544 0.9508804
vt 0.1495544 0.9508805
vt 0.04613501 0.9533433
vt 0.04613495 0.9533433
vt 0.04613495 0.9533433
vt 0.04613501 0.9533433
vt 0.1495544 0.9508804
vt 0.1495544 0.9508804
vt 0.1495544 0.9508804
vt 0.1495544 0.9508804
vt 0.4494093 0.94949
vt 0.4494093 0.94949
vt 0.543053 0.9506733
vt 0.543053 0.9506733
vt 0.543053 0.9506733
vt 0.543053 0.9506733
vt 0.543053 0.9506733
vt 0.543053 0.9506733
vn 0.3863167 0.8094921 0.4421335
vn -0.04453225 0.9981443 0.04153099
vn -0.3726547 0.6651184 0.6471058
vn -0.05383189 0.9984828 -0.0115958
vn 0.3518992 0.6625427 -0.6612142
vn -0.3781634 0.8040851 -0.4587368
vn -0.4082497 -0.4082473 0.8164964
vn -0.408248 -0.4082497 -0.816496
vn 0.4082485 -0.4082474 0.816497
vn 0.408248 -0.4082497 -0.816496
vn -0.07238896 0.9947473 -0.07237002
vn 0.04770323 0.9941905 -0.09648717
vn 0.03108171 0.9990305 0.03117587
vn -0.01831667 0.9989281 0.04250852
vn 0.04792855 0.9987489 -0.01426931
vn 0.03617178 0.9975175 -0.06042012
vn -0.008024146 0.9991171 0.04123879
vn 0.01224998 0.9990934 0.04077117
vn 0.7114041 0.7026404 0.01416723
vn 0.7032995 0.7108507 0.007819447
vn 0.8320504 -0.5547001 0
vn 0.02125223 0.9951085 -0.0964736
vn -0.0284908 0.9949267 -0.09648465
vn -0.7171142 0.6961592 -0.03330785
vn -0.6984213 0.7154567 -0.01814564
vn -0.8320503 -0.5547002 0
vn -0.708133 0.7058772 -0.01687794
vn 0.7075284 0.7066504 0.006984008
vn -0.03756797 0.9992244 -0.01180173
vn 0.03344121 0.9993319 -0.01474081
vn -0.7071068 -1.48514E-06 -0.7071068
vn -1 -1.050152E-06 0
vn -1 1.043921E-06 0
vn -0.7071079 1.490432E-06 0.7071056
vn 0.7071068 1.660868E-06 0.7071068
vn 1 1.174411E-06 0
vn 1 -1.050152E-06 0
vn 0.7071068 -1.48514E-06 -0.7071068
vn 0.01169792 0.6884844 -0.7251568
vn 0.03187039 0.9982842 -0.04912184
vn -1.600791E-06 -4.527872E-07 1
vn 0 0 -1
vn -0.01731257 0.6964657 0.7173811
vn -0.0387316 0.9988532 0.0281472
vn 0 -4.627629E-07 1
vn 0 0 -1
vn -0.8320504 -1.26322E-06 0.5546998
vn -0.7071068 0 -0.7071068
vn 1 -3.777846E-06 0
vn -1 -1.148628E-06 0
vn -1 0 0
vn 0.7071064 -2.180343E-06 0.7071071
vn 1 -4.805582E-06 0
vn 0.8320503 -2.563626E-06 -0.5547003
vn 0 0 -1
vn -6.375579E-07 7.472206E-07 1
vn 0 0 -1
vn -4.639433E-07 1.460513E-06 1
vn 0.04659545 0.9988133 -0.01417476
vn 0.04715927 0.9982318 -0.03618581
vn -0.05231413 0.9985617 -0.01173944
vn -0.05303089 0.9984853 0.014664
vn 0.01219365 0.9994615 0.03046579
vn -0.007103736 0.9996659 0.02485084
vn -0.02837683 0.9969901 -0.07214943
vn 0.01748925 0.9981445 -0.05832393
vn -0.06534646 0.9957979 -0.06415941
vn -0.7322295 0.6802709 -0.03273768
vn 0.02805466 0.9992244 0.02763363
vn 0.7179862 0.6959086 0.01438814
vn 0.04891572 0.996088 -0.07359315
vn -0.0200277 0.9992791 0.03225341
vn 0.3518992 0.6625427 -0.6612142
vn 0.01169792 0.6884844 -0.7251568
vn 0.03187039 0.9982842 -0.04912184
vn 0.3863167 0.8094921 0.4421335
vn 0.7032995 0.7108507 0.007819447
vn -0.3781634 0.8040851 -0.4587368
vn 0.7075284 0.7066504 0.006984008
vn -0.708133 0.7058772 -0.01687794
vn -1 0 0
vn -0.7171142 0.6961592 -0.03330785
vn 0.01748925 0.9981445 -0.05832393
vn -0.708133 0.7058772 -0.01687794
vn 0.7114041 0.7026404 0.01416723
vn -0.007103736 0.9996659 0.02485084
vn 0.7075284 0.7066504 0.006984008
vn -0.3726547 0.6651184 0.6471058
vn -0.01731257 0.6964657 0.7173811
vn -1 -1.050152E-06 0
vn -0.7071068 -1.48514E-06 -0.7071068
vn -0.7071068 0 -0.7071068
vn -1.600791E-06 -4.527872E-07 1
vn -4.639433E-07 1.460513E-06 1
vn 0 -4.627629E-07 1
vn -6.375579E-07 7.472206E-07 1
vn -0.0387316 0.9988532 0.0281472
vn 1 -4.805582E-06 0
vn 0.7071068 1.660868E-06 0.7071068
vn 0.7071064 -2.180343E-06 0.7071071
vn 1 1.174411E-06 0
vn -0.6984213 0.7154567 -0.01814564
vn 1 -4.805582E-06 0
vn 1 -1.050152E-06 0
vn 1 1.174411E-06 0
vn 1 -3.777846E-06 0
vn -1 0 0
vn -1 1.043921E-06 0
vn -1 -1.050152E-06 0
vn -1 -1.148628E-06 0
vn 0 0 -1
vn 0 0 -1
vn 0 0 -1
vn 0 0 -1
vn 0.04659545 0.9988133 -0.01417476
vn 0.03187039 0.9982842 -0.04912184
vn 0.03344121 0.9993319 -0.01474081
vn 0.04715927 0.9982318 -0.03618581
vn -0.03756797 0.9992244 -0.01180173
vn -0.05303089 0.9984853 0.014664
vn -0.0387316 0.9988532 0.0281472
vn -0.05231413 0.9985617 -0.01173944
vn -0.007103736 0.9996659 0.02485084
vn 0.01219365 0.9994615 0.03046579
vn 0.01748925 0.9981445 -0.05832393
vn -0.02837683 0.9969901 -0.07214943
vn -0.7322295 0.6802709 -0.03273768
vn -0.02837683 0.9969901 -0.07214943
vn -0.06534646 0.9957979 -0.06415941
vn -0.7171142 0.6961592 -0.03330785
vn -0.7071079 1.490432E-06 0.7071056
vn -1 -1.148628E-06 0
vn -0.8320504 -1.26322E-06 0.5546998
vn -1 1.043921E-06 0
vn 0.7179862 0.6959086 0.01438814
vn 0.01219365 0.9994615 0.03046579
vn 0.02805466 0.9992244 0.02763363
vn 0.7114041 0.7026404 0.01416723
vn 1 -1.050152E-06 0
vn 0.8320503 -2.563626E-06 -0.5547003
vn 0.7071068 -1.48514E-06 -0.7071068
vn 1 -3.777846E-06 0
vn 0.04891572 0.996088 -0.07359315
vn -0.0200277 0.9992791 0.03225341
vn 0.8320504 -0.5547001 0
vn -0.408248 -0.4082497 -0.816496
vn -0.8320503 -0.5547002 0
vn 0.408248 -0.4082497 -0.816496
vn -0.4082497 -0.4082473 0.8164964
vn 0.4082485 -0.4082474 0.816497
g bookstore_bookBox_geo_0
f 2/2/2 62/62/62 97/97/97
f 61/61/61 62/62/62 2/2/2
f 4/4/4 61/61/61 2/2/2
f 39/39/39 30/30/30 73/73/73
f 40/40/40 30/30/30 39/39/39
f 20/20/20 72/72/72 76/76/76
f 64/64/64 72/72/72 20/20/20
f 28/28/28 64/64/64 20/20/20
f 25/25/25 71/71/71 78/78/78
f 66/66/66 71/71/71 25/25/25
f 27/27/27 66/66/66 25/25/25
f 51/51/51 31/31/31 32/32/32
f 48/48/48 31/31/31 51/51/51
f 83/83/83 82/82/82 65/65/65
f 84/84/84 82/82/82 83/83/83
f 86/86/86 85/85/85 63/63/63
f 87/87/87 85/85/85 86/86/86
f 44/44/44 88/88/88 89/89/89
f 29/29/29 88/88/88 44/44/44
f 16/16/16 60/60/60 75/75/75
f 59/59/59 60/60/60 16/16/16
f 15/15/15 59/59/59 16/16/16
f 94/94/94 93/93/93 95/95/95
f 96/96/96 93/93/93 94/94/94
f 99/99/99 98/98/98 100/100/100
f 101/101/101 98/98/98 99/99/99
f 104/104/104 103/103/103 105/105/105
f 106/106/106 103/103/103 104/104/104
f 108/108/108 107/107/107 109/109/109
f 110/110/110 107/107/107 108/108/108
f 112/112/112 111/111/111 113/113/113
f 114/114/114 111/111/111 112/112/112
f 116/116/116 115/115/115 117/117/117
f 118/118/118 115/115/115 116/116/116
f 120/120/120 119/119/119 121/121/121
f 122/122/122 119/119/119 120/120/120
f 128/128/128 127/127/127 129/129/129
f 130/130/130 127/127/127 128/128/128
f 132/132/132 131/131/131 133/133/133
f 134/134/134 131/131/131 132/132/132
f 136/136/136 135/135/135 137/137/137
f 138/138/138 135/135/135 136/136/136
f 140/140/140 139/139/139 141/141/141
f 142/142/142 139/139/139 140/140/140
f 125/125/125 12/12/12 143/143/143
f 22/22/22 12/12/12 125/125/125
f 23/23/23 22/22/22 125/125/125
f 123/123/123 14/14/14 144/144/144
f 17/17/17 14/14/14 123/123/123
f 18/18/18 17/17/17 123/123/123
f 145/145/145 146/146/146 148/148/148
f 147/147/147 146/146/146 145/145/145
f 149/149/149 147/147/147 145/145/145
f 149/149/149 145/145/145 150/150/150
f 67/67/67 11/11/11 23/23/23
f 3/3/3 11/11/11 67/67/67
f 68/68/68 3/3/3 67/67/67
f 47/47/47 3/3/3 68/68/68
f 24/24/24 47/47/47 68/68/68
f 50/50/50 47/47/47 24/24/24
f 80/80/80 50/50/50 24/24/24
f 81/81/81 50/50/50 80/80/80
f 102/102/102 81/81/81 80/80/80
f 92/92/92 81/81/81 102/102/102
f 6/6/6 92/92/92 102/102/102
f 74/74/74 92/92/92 6/6/6
f 16/16/16 74/74/74 6/6/6
f 75/75/75 74/74/74 16/16/16
f 69/69/69 13/13/13 18/18/18
f 5/5/5 13/13/13 69/69/69
f 70/70/70 5/5/5 69/69/69
f 54/54/54 5/5/5 70/70/70
f 19/19/19 54/54/54 70/70/70
f 49/49/49 54/54/54 19/19/19
f 79/79/79 49/49/49 19/19/19
f 53/53/53 49/49/49 79/79/79
f 77/77/77 53/53/53 79/79/79
f 1/1/1 53/53/53 77/77/77
f 56/56/56 3/3/3 47/47/47
f 43/43/43 3/3/3 56/56/56
f 58/58/58 43/43/43 56/56/56
f 1/1/1 43/43/43 58/58/58
f 52/52/52 1/1/1 58/58/58
f 53/53/53 1/1/1 52/52/52
f 57/57/57 5/5/5 54/54/54
f 74/74/74 5/5/5 57/57/57
f 55/55/55 74/74/74 57/57/57
f 92/92/92 74/74/74 55/55/55
f 42/42/42 92/92/92 55/55/55
f 91/91/91 92/92/92 42/42/42
f 8/8/8 91/91/91 42/42/42
f 90/90/90 91/91/91 8/8/8
f 26/26/26 90/90/90 8/8/8
f 33/33/33 90/90/90 26/26/26
f 7/7/7 33/33/33 26/26/26
f 34/34/34 33/33/33 7/7/7
f 41/41/41 34/34/34 7/7/7
f 47/47/47 34/34/34 41/41/41
f 56/56/56 47/47/47 41/41/41
f 45/45/45 52/52/52 58/58/58
f 35/35/35 52/52/52 45/45/45
f 9/9/9 35/35/35 45/45/45
f 36/36/36 35/35/35 9/9/9
f 21/21/21 36/36/36 9/9/9
f 37/37/37 36/36/36 21/21/21
f 10/10/10 37/37/37 21/21/21
f 38/38/38 37/37/37 10/10/10
f 46/46/46 38/38/38 10/10/10
f 57/57/57 38/38/38 46/46/46
f 10/10/10 42/42/42 46/46/46
f 8/8/8 42/42/42 10/10/10
f 1/1/1 97/97/97 43/43/43
f 2/2/2 97/97/97 1/1/1
f 41/41/41 9/9/9 45/45/45
f 7/7/7 9/9/9 41/41/41
f 38/38/38 57/57/57 54/54/54
f 18/18/18 124/124/124 69/69/69
f 123/123/123 124/124/124 18/18/18
f 23/23/23 126/126/126 67/67/67
f 125/125/125 126/126/126 23/23/23
