g boozeBottle_geo
v -0.0127451 -0.4056286 0.09545366
v 0.07465167 -0.4036639 0.04100845
v 0.07142599 -0.104907 0.04662153
v -0.0159708 -0.1068715 0.1010668
v 0.07117769 -0.4016593 -0.0619022
v 0.06795201 -0.1029021 -0.0562891
v -0.01969532 -0.4016192 -0.1103677
v -0.02292099 -0.1028623 -0.1047546
v -0.1070921 -0.4035839 -0.0559224
v -0.1103178 -0.1048269 -0.05030933
v -0.1036198 -0.4055886 0.04698949
v -0.1068455 -0.1068315 0.05260263
v -0.05591656 0.1144537 0.02178838
v -0.02147219 0.1144387 0.04015584
v 0.0116524 0.1151743 0.01952051
v 0.01033511 0.1159247 -0.01948362
v -0.02410787 0.1159399 -0.03785389
v -0.05723275 0.1152043 -0.01721787
v 0.0266388 -0.01475592 0.0242123
v -0.01931446 -0.01568588 0.05283981
v 0.02481201 -0.01380664 -0.02989772
v -0.02296701 -0.01378776 -0.05537979
v -0.06892034 -0.01471794 -0.02675232
v -0.06709497 -0.01566723 0.02735819
v 0.009361796 0.05759483 0.01682797
v -0.02099265 0.05692077 0.03573705
v 0.008154734 0.05828258 -0.01891311
v -0.02340619 0.05829628 -0.03574604
v -0.0537606 0.05762226 -0.0168347
v -0.05255364 0.05693451 0.01890637
v 0.02047983 0.06260742 0.02288625
v -0.02061584 0.06169498 0.04848728
v 0.01884552 0.06353875 -0.02550391
v -0.02388586 0.06355728 -0.04829486
v -0.06498205 0.06264465 -0.02269296
v -0.0633491 0.06171356 0.02569982
v -0.06543605 0.1069162 -0.02180457
v -0.02433992 0.1078289 -0.04740647
v 0.01839148 0.1078101 -0.02461555
v 0.02002577 0.106879 0.02377461
v -0.02106998 0.1059665 0.04937565
v -0.06380311 0.105985 0.02658821
v -0.01969532 -0.4016192 -0.1103677
v -0.02292099 -0.1028623 -0.1047546
v -0.02296701 -0.01378776 -0.05537979
v -0.02340619 0.05829628 -0.03574604
v -0.02388586 0.06355728 -0.04829486
v -0.02433992 0.1078289 -0.04740647
v 0.07117769 -0.4016593 -0.0619022
v -0.01969532 -0.4016192 -0.1103677
v -0.1070921 -0.4035839 -0.0559224
v 0.07465167 -0.4036639 0.04100845
v -0.1036198 -0.4055886 0.04698949
v -0.0127451 -0.4056286 0.09545366
v -0.02433992 0.1078289 -0.04740647
v -0.05723275 0.1152043 -0.01721787
v -0.06543605 0.1069162 -0.02180457
v -0.02410787 0.1159399 -0.03785389
v 0.01839148 0.1078101 -0.02461555
v -0.02410787 0.1159399 -0.03785389
v -0.02433992 0.1078289 -0.04740647
v 0.01033511 0.1159247 -0.01948362
v 0.02002577 0.106879 0.02377461
v 0.0116524 0.1151743 0.01952051
v -0.02106998 0.1059665 0.04937565
v -0.02147219 0.1144387 0.04015584
v -0.05591656 0.1144537 0.02178838
v -0.06380311 0.105985 0.02658821
vt 0.5 0
vt 0.6733275 0
vt 0.6733276 0.6166379
vt 0.5 0.6166379
vt 0.8466551 0
vt 0.8466551 0.6166379
vt 1 0
vt 1 0.6166379
vt 0.1533449 0
vt 0.1533448 0.6166379
vt 0.3266724 0
vt 0.3266724 0.6166379
vt 0.4887218 0.9853135
vt 0.4887215 0.9853135
vt 0.4887217 0.9853135
vt 0.4887217 0.9853135
vt 0.4887215 0.9853134
vt 0.4887217 0.9853135
vt 0.6733276 0.7491212
vt 0.5 0.7491212
vt 0.8466551 0.7491212
vt 1 0.7491212
vt 0.1533448 0.7491212
vt 0.3266724 0.7491212
vt 0.6733276 0.8135207
vt 0.5 0.8135207
vt 0.8466552 0.8135208
vt 1 0.8135208
vt 0.1533449 0.8135207
vt 0.3266724 0.8135207
vt 0.6733276 0.8636945
vt 0.5 0.8636945
vt 0.8466552 0.8636945
vt 1 0.8636945
vt 0.1533449 0.8636945
vt 0.3266724 0.8636945
vt 0.1533449 0.9732455
vt 1 0.9732455
vt 0.8466552 0.9732455
vt 0.6733276 0.9732455
vt 0.5 0.9732455
vt 0.3266724 0.9732455
vt 0 0
vt 0 0.6166379
vt 0 0.7491212
vt 0 0.8135208
vt 0 0.8636945
vt 0 0.9732455
vt 0.138502 0.01104951
vt 0.1385021 0.01104939
vt 0.1385021 0.01104963
vt 0.138502 0.01104975
vt 0.1385021 0.01104963
vt 0.1385021 0.01104963
vt 0 0.9732455
vt 0.1533449 0.9937633
vt 0.1533449 0.9732455
vt 0 0.9937633
vt 0.8466552 0.9732455
vt 1 0.9937633
vt 1 0.9732455
vt 0.8466552 0.9937633
vt 0.6733276 0.9732455
vt 0.6733276 0.9937633
vt 0.5 0.9732455
vt 0.5 0.9937633
vt 0.3266724 0.9937633
vt 0.3266724 0.9732455
vn 0.8571661 0 0.51504
vn 0.8571661 0 0.51504
vn 0.8571661 0 0.51504
vn 0.8571661 0 0.51504
vn 0.8746194 0 -0.4848102
vn 0.8746194 0 -0.4848102
vn 0.017457 0 -0.9998477
vn 0.017457 0 -0.9998477
vn -0.857168 0 -0.515037
vn -0.857168 0 -0.515037
vn -0.8746261 0 0.4847981
vn -0.8746261 0 0.4847981
vn -1E-06 1 0
vn -1E-06 1 0
vn -1E-06 1 0
vn -1E-06 1 0
vn -1E-06 1 0
vn -1E-06 1 0
vn 0.5754942 0.7411042 0.3457901
vn 0.5754942 0.7411042 0.3457901
vn 0.5872139 0.741102 -0.325496
vn 0.01172 0.741093 -0.6713001
vn -0.5754988 0.7411008 -0.3457899
vn -0.5872241 0.741097 0.325489
vn 0.8375069 0.212965 0.5032179
vn 0.8375069 0.212965 0.5032179
vn 0.8545607 0.21295 -0.4736859
vn 0.01706 0.2129469 -0.9769148
vn -0.8375187 0.2129609 -0.5031998
vn -0.8545697 0.2129379 0.4736749
vn 0.3603998 -0.9073136 0.2165499
vn 0.3603998 -0.9073136 0.2165499
vn 0.3677411 -0.9073092 -0.203854
vn 0.007347005 -0.9072965 -0.4204272
vn -0.360398 -0.9073159 -0.216544
vn -0.367742 -0.907314 0.203831
vn -0.8823539 0.0003944269 -0.4705862
vn -0.03373057 0.01970547 -0.9992367
vn 0.8486197 0.01931164 -0.5286509
vn 0.8823585 -0.0003928479 0.4705777
vn 0.0337659 -0.01970457 0.9992355
vn -0.8486061 -0.01931153 0.5286726
vn 0.017457 0 -0.9998477
vn 0.017457 0 -0.9998477
vn 0.01172 0.741093 -0.6713001
vn 0.01706 0.2129469 -0.9769148
vn 0.007347005 -0.9072965 -0.4204272
vn -0.03373057 0.01970547 -0.9992367
vn 0.01012875 -0.9997523 -0.0198169
vn 0.01012875 -0.9997523 -0.0198169
vn 0.01012875 -0.9997523 -0.0198169
vn 0.01012875 -0.9997523 -0.0198169
vn 0.01012875 -0.9997523 -0.0198169
vn 0.01012875 -0.9997523 -0.0198169
vn -0.02983987 0.7622995 -0.6465362
vn -1E-06 1 0
vn -0.5915226 0.7496958 -0.2967444
vn -1E-06 1 0
vn 0.5540676 0.762035 -0.3351296
vn -1E-06 1 0
vn -0.02983987 0.7622995 -0.6465362
vn -1E-06 1 0
vn 0.5764795 0.7491854 0.3261787
vn -1E-06 1 0
vn 0.01482598 0.7365694 0.6761994
vn -1E-06 1 0
vn -1E-06 1 0
vn -0.5692725 0.7368395 0.3646868
g boozeBottle_geo_0
f 10/10/10 44/44/44 43/43/43
f 9/9/9 10/10/10 43/43/43
f 12/12/12 10/10/10 9/9/9
f 11/11/11 12/12/12 9/9/9
f 4/4/4 12/12/12 11/11/11
f 1/1/1 4/4/4 11/11/11
f 3/3/3 4/4/4 1/1/1
f 2/2/2 3/3/3 1/1/1
f 6/6/6 3/3/3 2/2/2
f 5/5/5 6/6/6 2/2/2
f 8/8/8 6/6/6 5/5/5
f 7/7/7 8/8/8 5/5/5
f 15/15/15 13/13/13 14/14/14
f 18/18/18 13/13/13 15/15/15
f 16/16/16 18/18/18 15/15/15
f 17/17/17 18/18/18 16/16/16
f 27/27/27 28/28/28 34/34/34
f 33/33/33 27/27/27 34/34/34
f 25/25/25 27/27/27 33/33/33
f 31/31/31 25/25/25 33/33/33
f 26/26/26 25/25/25 31/31/31
f 32/32/32 26/26/26 31/31/31
f 36/36/36 26/26/26 32/32/32
f 42/42/42 36/36/36 32/32/32
f 35/35/35 36/36/36 42/42/42
f 37/37/37 35/35/35 42/42/42
f 47/47/47 35/35/35 37/37/37
f 48/48/48 47/47/47 37/37/37
f 52/52/52 54/54/54 53/53/53
f 51/51/51 52/52/52 53/53/53
f 49/49/49 52/52/52 51/51/51
f 50/50/50 49/49/49 51/51/51
f 67/67/67 68/68/68 65/65/65
f 57/57/57 68/68/68 67/67/67
f 56/56/56 57/57/57 67/67/67
f 55/55/55 57/57/57 56/56/56
f 58/58/58 55/55/55 56/56/56
f 65/65/65 66/66/66 67/67/67
f 64/64/64 66/66/66 65/65/65
f 63/63/63 64/64/64 65/65/65
f 62/62/62 64/64/64 63/63/63
f 59/59/59 62/62/62 63/63/63
f 60/60/60 62/62/62 59/59/59
f 61/61/61 60/60/60 59/59/59
f 29/29/29 46/46/46 45/45/45
f 23/23/23 29/29/29 45/45/45
f 30/30/30 29/29/29 23/23/23
f 24/24/24 30/30/30 23/23/23
f 20/20/20 30/30/30 24/24/24
f 4/4/4 20/20/20 24/24/24
f 19/19/19 20/20/20 4/4/4
f 3/3/3 19/19/19 4/4/4
f 21/21/21 19/19/19 3/3/3
f 6/6/6 21/21/21 3/3/3
f 22/22/22 21/21/21 6/6/6
f 8/8/8 22/22/22 6/6/6
f 24/24/24 12/12/12 4/4/4
f 10/10/10 12/12/12 24/24/24
f 23/23/23 10/10/10 24/24/24
f 44/44/44 10/10/10 23/23/23
f 45/45/45 44/44/44 23/23/23
f 35/35/35 47/47/47 46/46/46
f 29/29/29 35/35/35 46/46/46
f 36/36/36 35/35/35 29/29/29
f 30/30/30 36/36/36 29/29/29
f 26/26/26 36/36/36 30/30/30
f 20/20/20 26/26/26 30/30/30
f 25/25/25 26/26/26 20/20/20
f 19/19/19 25/25/25 20/20/20
f 27/27/27 25/25/25 19/19/19
f 21/21/21 27/27/27 19/19/19
f 28/28/28 27/27/27 21/21/21
f 22/22/22 28/28/28 21/21/21
f 32/32/32 41/41/41 42/42/42
f 40/40/40 41/41/41 32/32/32
f 31/31/31 40/40/40 32/32/32
f 39/39/39 40/40/40 31/31/31
f 33/33/33 39/39/39 31/31/31
f 38/38/38 39/39/39 33/33/33
f 34/34/34 38/38/38 33/33/33
