g box_geo
v -0.1013261 0.1775114 0.1965743
v 0.1013261 0.1775114 0.1965743
v 0.1013261 0.1775114 -0.1965743
v -0.1013261 0.1775114 -0.1965743
v -0.03300419 0.08883558 0.1650034
v 0.03300419 0.08883558 0.1650034
v 0.07723527 0.06647511 -0.1650034
v -0.09517776 0.08071526 -0.1650034
v -0.1013261 0.1264803 0.1965743
v -0.1013261 0.1264803 -0.1965743
v 0.1013261 0.1264803 -0.1965743
v 0.1013261 0.1264803 0.1965743
v -0.1013261 0.1349768 0.1965743
v -0.1013261 0.1349768 -0.1965743
v 0.1013261 0.1349768 -0.1965743
v 0.1013261 0.1349768 0.1965743
v -0.111062 0.00266243 0.2033649
v -0.1079144 0 0.2033649
v -0.1079144 0.00266243 0.2088897
v 0.1079144 0 0.2033649
v 0.111062 0.00266243 0.2033649
v 0.1079144 0.00266243 0.2088897
v -0.1084879 0.1775114 0.2056337
v -0.111062 0.1748489 0.2033649
v -0.1079144 0.1748489 0.2088897
v 0.1084879 0.1775114 0.2056337
v 0.1079144 0.1748489 0.2088897
v 0.111062 0.1748489 0.2033649
v -0.1084879 0.1775114 -0.2056337
v -0.1079144 0.1748489 -0.2088897
v -0.111062 0.1748489 -0.2033649
v 0.1084879 0.1775114 -0.2056337
v 0.111062 0.1748489 -0.2033649
v 0.1079144 0.1748489 -0.2088897
v -0.1079144 0 -0.2033649
v -0.111062 0.00266243 -0.2033649
v -0.1079144 0.00266243 -0.2088897
v 0.111062 0.00266243 -0.2033649
v 0.1079144 0 -0.2033649
v 0.1079144 0.00266243 -0.2088897
v -0.01134394 0.1076682 -0.1650034
v -0.02852995 0.1111133 0
v 0.009593019 0.1111133 0
v -0.1013261 0.1775114 0.1965743
v 0.1013261 0.1775114 0.1965743
v 0.1013261 0.1775114 -0.1965743
v -0.1013261 0.1775114 -0.1965743
v -0.1013261 0.1264803 0.1965743
v -0.1013261 0.1349768 0.1965743
v -0.1013261 0.1349768 -0.1965743
v -0.1013261 0.1264803 -0.1965743
v 0.1013261 0.1349768 -0.1965743
v 0.1013261 0.1264803 -0.1965743
v 0.1013261 0.1349768 0.1965743
v 0.1013261 0.1264803 0.1965743
v -0.111062 0.00266243 -0.2033649
v -0.111062 0.00266243 0.2033649
v -0.1079144 0 0.2033649
v -0.1079144 0 -0.2033649
v -0.1079144 0.00266243 0.2088897
v 0.1079144 0 0.2033649
v 0.1079144 0.00266243 0.2088897
v -0.1079144 0.1748489 0.2088897
v -0.111062 0.1748489 0.2033649
v 0.1079144 0 -0.2033649
v 0.111062 0.00266243 0.2033649
v 0.111062 0.00266243 -0.2033649
v 0.111062 0.1748489 0.2033649
v 0.1079144 0.1748489 0.2088897
v -0.1084879 0.1775114 0.2056337
v -0.1084879 0.1775114 -0.2056337
v -0.111062 0.1748489 -0.2033649
v 0.1084879 0.1775114 0.2056337
v 0.111062 0.1748489 -0.2033649
v 0.1084879 0.1775114 -0.2056337
v -0.1079144 0.1748489 -0.2088897
v 0.1079144 0.1748489 -0.2088897
v -0.1079144 0.00266243 -0.2088897
v 0.1079144 0.00266243 -0.2088897
v 0.1013261 0.1775114 0.1965743
v 0.1013261 0.1349768 0.1965743
v 0.1013261 0.1775114 -0.1965743
v 0.1013261 0.1349768 -0.1965743
v -0.1013261 0.1349768 0.1965743
v -0.1013261 0.1775114 0.1965743
v -0.1013261 0.1775114 -0.1965743
v -0.1013261 0.1349768 -0.1965743
v 0.1013261 0.1264803 -0.1965743
v -0.1013261 0.1264803 -0.1965743
v -0.1013261 0.1349768 -0.1965743
v 0.1013261 0.1264803 -0.1965743
v 0.1013261 0.1349768 -0.1965743
v 0.1013261 0.1264803 0.1965743
v -0.1013261 0.1349768 0.1965743
v -0.1013261 0.1264803 0.1965743
v 0.1013261 0.1349768 0.1965743
v -0.1079144 0 0.2033649
v -0.1079144 0.00266243 0.2088897
v -0.111062 0.00266243 0.2033649
v 0.1079144 0 0.2033649
v 0.111062 0.00266243 0.2033649
v 0.1079144 0.00266243 0.2088897
v -0.111062 0.1748489 0.2033649
v 0.1079144 0.1748489 0.2088897
v -0.1079144 0.1748489 0.2088897
v -0.1084879 0.1775114 0.2056337
v 0.111062 0.1748489 0.2033649
v 0.1084879 0.1775114 0.2056337
v 0.1084879 0.1775114 -0.2056337
v -0.1084879 0.1775114 -0.2056337
v -0.1079144 0.1748489 -0.2088897
v -0.111062 0.1748489 -0.2033649
v -0.111062 0.00266243 -0.2033649
v 0.111062 0.00266243 -0.2033649
v 0.111062 0.1748489 -0.2033649
v 0.1079144 0.1748489 -0.2088897
v -0.1079144 0.00266243 -0.2088897
v -0.1079144 0 -0.2033649
v 0.1079144 0.00266243 -0.2088897
v 0.1079144 0 -0.2033649
v -0.111062 0.00266243 0.2033649
v -0.1079144 0.00266243 0.2088897
v -0.1079144 0 0.2033649
v 0.1079144 0 0.2033649
v 0.1079144 0.00266243 0.2088897
v 0.111062 0.00266243 0.2033649
v -0.1084879 0.1775114 0.2056337
v 0.1084879 0.1775114 0.2056337
v -0.1084879 0.1775114 -0.2056337
v 0.1084879 0.1775114 -0.2056337
v -0.1079144 0 -0.2033649
v -0.1079144 0.00266243 -0.2088897
v -0.111062 0.00266243 -0.2033649
v 0.111062 0.00266243 -0.2033649
v 0.1079144 0.00266243 -0.2088897
v 0.1079144 0 -0.2033649
vt 0.6644598 0.8560911
vt 0.6644598 0.8560911
vt 0.6644598 0.8560911
vt 0.6644598 0.8560911
vt 0.2929741 0.7825118
vt 0.2929741 0.7825119
vt 0.2929741 0.7825118
vt 0.2929741 0.7825118
vt 0.2929741 0.7825119
vt 0.2929741 0.7990373
vt 0.2929741 0.7990373
vt 0.2929741 0.7825119
vt 0.690625 0.8746822
vt 0.690625 0.8746822
vt 0.690625 0.8746822
vt 0.690625 0.8746822
vt 0.6885593 0.9070445
vt 0.684428 0.8781251
vt 0.6885593 0.9070445
vt 0.6844279 0.8781251
vt 0.6885593 0.9070445
vt 0.6885592 0.9070445
vt 0.6644598 0.8560911
vt 0.6885592 0.9070446
vt 0.6885593 0.9070445
vt 0.6644598 0.8560911
vt 0.6885592 0.9070445
vt 0.6885593 0.9070446
vt 0.6644598 0.8560911
vt 0.6885593 0.9070445
vt 0.6885593 0.9070445
vt 0.6644598 0.8560911
vt 0.6885593 0.9070445
vt 0.6885592 0.9070445
vt 0.684428 0.878125
vt 0.6885593 0.9070446
vt 0.6885593 0.9070445
vt 0.6885593 0.9070446
vt 0.684428 0.8781251
vt 0.6885592 0.9070445
vt 0.2929742 0.7899082
vt 0.2929741 0.7990373
vt 0.2929741 0.7990373
vt 0.690625 0.8746822
vt 0.690625 0.8746822
vt 0.690625 0.8746822
vt 0.690625 0.8746822
vt 0 1
vt 0 1
vt 0 1
vt 0 1
vt 0 1
vt 0 1
vt 0 1
vt 0 1
vt 0 1
vt 0 1
vt 0 1
vt 0 1
vt 0 1
vt 0 1
vt 0 1
vt 0 1
vt 0 1
vt 0 1
vt 0 1
vt 0 1
vt 0 1
vt 0 1
vt 0 1
vt 0 1
vt 0 1
vt 0 1
vt 0 1
vt 0 1
vt 0 1
vt 0 1
vt 0 1
vt 0 1
vt 0.690625 0.8746822
vt 0.690625 0.8746822
vt 0.690625 0.8746822
vt 0.690625 0.8746822
vt 0.690625 0.8746822
vt 0.690625 0.8746822
vt 0.690625 0.8746822
vt 0.690625 0.8746822
vt 0.2929741 0.7990374
vt 0 1
vt 0 1
vt 0 1
vt 0 1
vt 0 1
vt 0 1
vt 0 1
vt 0 1
vt 0 1
vt 0 1
vt 0 1
vt 0 1
vt 0 1
vt 0 1
vt 0 1
vt 0 1
vt 0 1
vt 0 1
vt 0 1
vt 0 1
vt 0 1
vt 0 1
vt 0 1
vt 0 1
vt 0 1
vt 0 1
vt 0 1
vt 0 1
vt 0 1
vt 0 1
vt 0 1
vt 0 1
vt 0 1
vt 0 1
vt 0 1
vt 0 1
vt 0 1
vt 0 1
vt 0 1
vt 0 1
vt 0 1
vt 0 1
vt 0 1
vt 0 1
vt 0 1
vt 0 1
vt 0 1
vt 0 1
vn 0 1 -1.254315E-06
vn 0 1 -1.254315E-06
vn 0 1 0
vn 0 1 1.254315E-06
vn -0.02937779 0.967927 -0.2495083
vn 0.0455823 0.9760116 -0.2128934
vn -0.04822887 0.976113 0.2118426
vn 0.1052966 0.9695675 0.2210238
vn 0.6061636 0.7047942 -0.3685525
vn 0.372624 0.7006829 0.6084365
vn 0.09756728 0.6623107 0.7428495
vn -0.4097401 0.7656356 -0.4958981
vn 0 0 -1
vn 0 0 1
vn -1 0 0
vn 0 0 -1
vn -1 0 0
vn 0 -1 0
vn 0 0 1
vn 0 -1 0
vn 1 0 0
vn 0 0 1
vn 0 1 -1.254315E-06
vn -1 0 0
vn 0 0 1
vn 0 1 -1.254315E-06
vn 0 0 1
vn 1 0 0
vn 0 1 1.254315E-06
vn 0 0 -1
vn -1 0 0
vn 0 1 0
vn 1 0 0
vn 0 0 -1
vn 0 -1 0
vn -1 0 0
vn 0 0 -1
vn 1 0 0
vn 0 -1 0
vn 0 0 -1
vn 0.02459625 0.9122439 0.4089084
vn -0.2332633 0.9715996 0.03978204
vn 0.2107836 0.9766525 0.04147501
vn 0 0 -1
vn 0 0 -1
vn -1 0 0
vn 0 0 1
vn 1 0 0
vn 1 0 0
vn 1 0 0
vn 1 0 0
vn 0 0 1
vn 0 0 1
vn -1 0 0
vn -1 0 0
vn -0.6458173 -0.763492 0
vn -0.6458173 -0.763492 0
vn -0.6458173 -0.763492 0
vn -0.6458173 -0.763492 0
vn 0 -0.9008543 0.4341213
vn 0 -0.9008543 0.4341213
vn 0 -0.9008543 0.4341213
vn -0.8519007 0.1967631 0.4853344
vn -0.8519007 0.1967631 0.4853344
vn 0.6458173 -0.763492 0
vn 0.6458173 -0.763492 0
vn 0.6458173 -0.763492 0
vn 0.8519004 0.196763 0.4853349
vn 0.8519004 0.196763 0.4853349
vn -0.7189435 0.6950685 0
vn -0.7189435 0.6950685 0
vn -0.7189435 0.6950685 0
vn 0 0.7741436 0.63301
vn 0.7189435 0.6950685 0
vn 0.7189435 0.6950685 0
vn 0 0.7741436 -0.63301
vn 0 0.7741436 -0.63301
vn -0.8688873 0 -0.4950101
vn 0.8688873 0 -0.4950101
vn -1 0 0
vn -1 0 0
vn 0 0 1
vn 0 0 1
vn 1 0 0
vn 1 0 0
vn 1 0 0
vn 1 0 0
vn -0.9280029 0.3725728 0
vn 0 0 1
vn 0 0 1
vn -1 0 0
vn -1 0 0
vn 0 0 -1
vn 0 0 -1
vn 0 0 -1
vn 0 0 -1
vn 0 -0.9008543 0.4341213
vn -0.8688873 0 0.4950101
vn -0.8688873 0 0.4950101
vn 0.6458173 -0.763492 0
vn 0.8688873 0 0.4950101
vn 0.8688873 0 0.4950101
vn -0.7189435 0.6950685 0
vn 0 0.7741436 0.63301
vn 0 0.7741436 0.63301
vn 0 0.7741436 0.63301
vn 0.7189435 0.6950685 0
vn 0.7189435 0.6950685 0
vn 0 0.7741436 -0.63301
vn 0 0.7741436 -0.63301
vn -0.8519004 0.196763 -0.4853349
vn -0.8519004 0.196763 -0.4853349
vn -0.8688873 0 -0.4950101
vn 0.8688873 0 -0.4950101
vn 0.8519007 0.1967631 -0.4853344
vn 0.8519007 0.1967631 -0.4853344
vn 0 -0.9008543 -0.4341213
vn 0 -0.9008543 -0.4341213
vn 0 -0.9008543 -0.4341213
vn 0 -0.9008543 -0.4341213
vn -0.6060959 -0.7165316 0.345297
vn -0.6060959 -0.7165316 0.345297
vn -0.6060959 -0.7165316 0.345297
vn 0.6060959 -0.7165316 0.345297
vn 0.6060959 -0.7165316 0.345297
vn 0.6060959 -0.7165316 0.345297
vn -0.8016066 0.3858332 0.4566831
vn 0.8016062 0.3858331 0.4566842
vn -0.8016062 0.3858331 -0.4566842
vn 0.8016066 0.3858332 -0.4566831
vn -0.6060959 -0.7165316 -0.345297
vn -0.6060959 -0.7165316 -0.345297
vn -0.6060959 -0.7165316 -0.345297
vn 0.6060959 -0.7165316 -0.345297
vn 0.6060959 -0.7165316 -0.345297
vn 0.6060959 -0.7165316 -0.345297
g box_geo_0
f 122/122/122 121/121/121 123/123/123
f 125/125/125 124/124/124 126/126/126
f 132/132/132 131/131/131 133/133/133
f 135/135/135 134/134/134 136/136/136
f 44/44/44 16/16/16 13/13/13
f 45/45/45 16/16/16 44/44/44
f 80/80/80 15/15/15 81/81/81
f 46/46/46 15/15/15 80/80/80
f 14/14/14 82/82/82 47/47/47
f 83/83/83 82/82/82 14/14/14
f 84/84/84 86/86/86 85/85/85
f 87/87/87 86/86/86 84/84/84
f 7/7/7 12/12/12 88/88/88
f 6/6/6 12/12/12 7/7/7
f 43/43/43 6/6/6 7/7/7
f 5/5/5 6/6/6 43/43/43
f 42/42/42 5/5/5 43/43/43
f 8/8/8 5/5/5 42/42/42
f 41/41/41 8/8/8 42/42/42
f 10/10/10 8/8/8 41/41/41
f 11/11/11 10/10/10 41/41/41
f 48/48/48 50/50/50 49/49/49
f 51/51/51 50/50/50 48/48/48
f 89/89/89 52/52/52 90/90/90
f 53/53/53 52/52/52 89/89/89
f 54/54/54 91/91/91 55/55/55
f 92/92/92 91/91/91 54/54/54
f 94/94/94 93/93/93 95/95/95
f 96/96/96 93/93/93 94/94/94
f 20/20/20 35/35/35 39/39/39
f 18/18/18 35/35/35 20/20/20
f 19/19/19 27/27/27 25/25/25
f 22/22/22 27/27/27 19/19/19
f 24/24/24 36/36/36 17/17/17
f 31/31/31 36/36/36 24/24/24
f 28/28/28 38/38/38 33/33/33
f 21/21/21 38/38/38 28/28/28
f 37/37/37 34/34/34 40/40/40
f 30/30/30 34/34/34 37/37/37
f 56/56/56 58/58/58 57/57/57
f 59/59/59 58/58/58 56/56/56
f 60/60/60 61/61/61 62/62/62
f 97/97/97 61/61/61 60/60/60
f 63/63/63 99/99/99 98/98/98
f 64/64/64 99/99/99 63/63/63
f 127/127/127 64/64/64 63/63/63
f 65/65/65 66/66/66 100/100/100
f 67/67/67 66/66/66 65/65/65
f 68/68/68 102/102/102 101/101/101
f 69/69/69 102/102/102 68/68/68
f 128/128/128 69/69/69 68/68/68
f 103/103/103 71/71/71 72/72/72
f 70/70/70 71/71/71 103/103/103
f 104/104/104 106/106/106 105/105/105
f 73/73/73 106/106/106 104/104/104
f 74/74/74 108/108/108 107/107/107
f 75/75/75 108/108/108 74/74/74
f 109/109/109 76/76/76 110/110/110
f 77/77/77 76/76/76 109/109/109
f 112/112/112 78/78/78 113/113/113
f 111/111/111 78/78/78 112/112/112
f 129/129/129 111/111/111 112/112/112
f 116/116/116 114/114/114 79/79/79
f 115/115/115 114/114/114 116/116/116
f 130/130/130 115/115/115 116/116/116
f 118/118/118 119/119/119 120/120/120
f 117/117/117 119/119/119 118/118/118
f 1/1/1 23/23/23 2/2/2
f 29/29/29 23/23/23 1/1/1
f 4/4/4 29/29/29 1/1/1
f 32/32/32 29/29/29 4/4/4
f 3/3/3 32/32/32 4/4/4
f 26/26/26 32/32/32 3/3/3
f 2/2/2 26/26/26 3/3/3
f 23/23/23 26/26/26 2/2/2
f 5/5/5 12/12/12 6/6/6
f 9/9/9 12/12/12 5/5/5
f 8/8/8 9/9/9 5/5/5
f 10/10/10 9/9/9 8/8/8
f 41/41/41 7/7/7 11/11/11
f 43/43/43 7/7/7 41/41/41
f 42/42/42 43/43/43 41/41/41
