g bumpChin_geo
v -0.004102408 0.6446952 0.2540403
v 8.103106E-32 0.5435483 0.2428041
v 8.530614E-32 0.5816082 0.2519611
v 9.379654E-32 0.5159808 0.1289318
v 9.030653E-32 0.6170866 0.2545512
v 7.634809E-32 0.5188882 0.04653984
v 8.265787E-32 0.5275697 -0.03009264
v 1.223108E-31 0.5449415 -0.03953464
v -0.03662182 0.6476449 0.2550583
v -0.1254573 0.568713 -0.008836901
v -0.1103441 0.5417534 0.02814976
v -0.1404107 0.5448413 0.07195506
v -0.1734072 0.5665083 0.124894
v -0.04501774 0.5456368 0.2410271
v -0.04002623 0.5837603 0.2494429
v -0.09355773 0.5933475 0.2401092
v -0.0512235 0.5210747 0.1265408
v -0.1424455 0.5796217 0.2046719
v -0.1806976 0.6523757 0.1865393
v -0.2027936 0.6737118 0.1602323
v -0.1813951 0.6011984 0.1774002
v -0.03501882 0.6176736 0.2511427
v -0.1464014 0.6391267 0.2106741
v -0.09451759 0.6365986 0.2371132
v -0.2063659 0.6513763 0.1180058
v -0.2098939 0.7085678 0.1204641
v -0.094448 0.5605996 0.2261234
v -0.02293739 0.5200189 0.03656262
v -0.03511759 0.5247419 -0.005126322
v -0.1657087 0.5992428 0.02253929
v -0.1995285 0.6389031 0.06181182
v -0.08662651 0.532346 0.1766174
v -0.05982519 0.5283417 0.1867857
v -0.09928208 0.5230093 0.09794733
v -0.1281572 0.5454773 0.156701
v -0.06001069 0.5490353 -0.03302333
v -0.06589571 0.5249225 0.05828388
v -0.1951664 0.6052737 0.08357709
v -0.03839725 0.5086393 0.1591219
v 8.718439E-32 0.5019954 0.1596498
v 8.174542E-32 0.5029838 0.19741
v -0.03432219 0.5239834 0.2225776
v 7.969498E-32 0.5212271 0.229516
v -0.0369396 0.5085126 0.1939119
v 9.33776E-32 0.6440932 0.2544259
v 0.004102408 0.6446952 0.2540403
v 0.03662182 0.6476449 0.2550583
v 0.1254573 0.568713 -0.008836901
v 0.1103441 0.5417534 0.02814976
v 0.1404107 0.5448413 0.07195506
v 0.1734072 0.5665083 0.124894
v 0.04501774 0.5456368 0.2410271
v 0.04002623 0.5837603 0.2494429
v 0.09355773 0.5933475 0.2401092
v 0.0512235 0.5210747 0.1265408
v 0.1424455 0.5796217 0.2046719
v 0.1806976 0.6523757 0.1865393
v 0.2027936 0.6737118 0.1602323
v 0.1813951 0.6011984 0.1774002
v 0.03501882 0.6176736 0.2511427
v 0.1464014 0.6391267 0.2106741
v 0.09451759 0.6365986 0.2371132
v 0.2063659 0.6513763 0.1180058
v 0.2098939 0.7085678 0.1204641
v 0.094448 0.5605996 0.2261234
v 0.02293739 0.5200189 0.03656262
v 0.03511759 0.5247419 -0.005126322
v 0.1657087 0.5992428 0.02253929
v 0.1995285 0.6389031 0.06181182
v 0.08662651 0.532346 0.1766174
v 0.05982519 0.5283417 0.1867857
v 0.09928208 0.5230093 0.09794733
v 0.1281572 0.5454773 0.156701
v 0.06001069 0.5490353 -0.03302333
v 0.06589571 0.5249225 0.05828388
v 0.1951664 0.6052737 0.08357709
v 0.03839725 0.5086393 0.1591219
v 0.03432219 0.5239834 0.2225776
v 0.0369396 0.5085126 0.1939119
v 0.20216 0.6208961 0.1491682
v -0.20216 0.6208961 0.1491682
v -0.03511759 0.5247419 -0.005126322
v -0.1103441 0.5417534 0.02814976
v -0.06589571 0.5249225 0.05828388
v 8.265787E-32 0.5275697 -0.03009264
v 1.223108E-31 0.5449415 -0.03953464
v 0.03511759 0.5247419 -0.005126322
v 0.1103441 0.5417534 0.02814976
v 0.06589571 0.5249225 0.05828388
v 0.1254573 0.568713 -0.008836901
v -0.1254573 0.568713 -0.008836901
v -0.09451759 0.6365986 0.2371132
v -0.09355773 0.5933475 0.2401092
v -0.094448 0.5605996 0.2261234
v -0.04501774 0.5456368 0.2410271
v 8.103106E-32 0.5435483 0.2428041
v 0.09451759 0.6365986 0.2371132
v 0.09355773 0.5933475 0.2401092
v 0.094448 0.5605996 0.2261234
v 0.04501774 0.5456368 0.2410271
vt 0.6221628 0.1975469
vt 0.622647 0.185245
vt 0.622647 0.1921266
vt 0.622647 0.1615594
vt 0.622647 0.1960755
vt 0.622647 0.1443987
vt 0.5118926 0.1591405
vt 0.5162175 0.1642324
vt 0.6173399 0.2019086
vt 0.5631108 0.144923
vt 0.5823189 0.1437202
vt 0.5832043 0.1612356
vt 0.5857568 0.1747265
vt 0.6157361 0.1851233
vt 0.6161821 0.1921143
vt 0.6068395 0.1916756
vt 0.6105176 0.1623586
vt 0.5970147 0.185853
vt 0.5869973 0.1944214
vt 0.5784928 0.1979365
vt 0.5876237 0.1865158
vt 0.6173961 0.1976586
vt 0.5964479 0.1927807
vt 0.6065328 0.1975003
vt 0.5777619 0.1910924
vt 0.5618472 0.2044789
vt 0.606948 0.1854401
vt 0.6151093 0.1420752
vt 0.5149029 0.1533149
vt 0.5662026 0.1617977
vt 0.5683571 0.1851921
vt 0.6060481 0.174848
vt 0.6114582 0.1754922
vt 0.5970657 0.160081
vt 0.5968567 0.174164
vt 0.5219563 0.1558953
vt 0.6014128 0.1456109
vt 0.574423 0.1767892
vt 0.6155756 0.1690228
vt 0.622647 0.1687296
vt 0.622647 0.1751855
vt 0.6174108 0.1804199
vt 0.622647 0.1810257
vt 0.6167701 0.1751011
vt 0.622647 0.1969098
vt 0.6231313 0.1975469
vt 0.6279542 0.2019086
vt 0.6821833 0.1449229
vt 0.6629752 0.1437201
vt 0.6620898 0.1612356
vt 0.6595373 0.1747265
vt 0.629558 0.1851233
vt 0.629112 0.1921143
vt 0.6384546 0.1916756
vt 0.6347765 0.1623586
vt 0.6482794 0.185853
vt 0.6582968 0.1944214
vt 0.6668013 0.1979365
vt 0.6576704 0.1865158
vt 0.627898 0.1976586
vt 0.6488462 0.1927806
vt 0.6387613 0.1975003
vt 0.6675321 0.1910924
vt 0.683447 0.2044789
vt 0.6383461 0.1854401
vt 0.6301848 0.1420752
vt 0.5511867 0.1639973
vt 0.6790915 0.1617977
vt 0.676937 0.185192
vt 0.639246 0.174848
vt 0.6338359 0.1754922
vt 0.6482284 0.160081
vt 0.6484374 0.174164
vt 0.544034 0.1617072
vt 0.6438813 0.1456109
vt 0.6708711 0.1767892
vt 0.6297185 0.1690228
vt 0.6278833 0.1804199
vt 0.6285239 0.1751011
vt 0.6626013 0.1888041
vt 0.5826928 0.1888041
vt 0.6089724 0.137244
vt 0.5235416 0.1465392
vt 0.5168219 0.1451058
vt 0.5499893 0.1704444
vt 0.5434499 0.1718115
vt 0.6363217 0.137244
vt 0.5485227 0.1533466
vt 0.5547084 0.1563379
vt 0.5428596 0.1514778
vt 0.5291598 0.1485383
vt 0.6065328 0.1975003
vt 0.6068395 0.1916756
vt 0.606948 0.1854401
vt 0.6157361 0.1851233
vt 0.622647 0.185245
vt 0.6387613 0.1975003
vt 0.6384546 0.1916756
vt 0.6383461 0.1854401
vt 0.629558 0.1851233
vn -0.06580637 -0.02911277 0.9974076
vn 0 -0.4219892 0.9066008
vn 0 -0.1389926 0.9902934
vn 0 -0.9802442 -0.197791
vn -2.815488E-07 -0.03808195 0.9992747
vn 0 -0.9997154 -0.02385612
vn 0 -0.7407387 -0.6717932
vn 0 -0.7407387 -0.6717932
vn -0.1549323 -0.1016211 0.9826847
vn -0.5404861 -0.751073 -0.3791624
vn -0.4276294 -0.8491225 -0.3100389
vn -0.5649325 -0.804575 -0.183058
vn -0.7365278 -0.6706554 0.08802401
vn -0.3195219 -0.5672635 0.7590243
vn -0.1561933 -0.1309134 0.9790124
vn -0.3745117 -0.09827401 0.9219996
vn -0.2109916 -0.9769394 -0.03274338
vn -0.599826 -0.4888923 0.633398
vn -0.7206857 -0.1219174 0.6824575
vn -0.9607263 -0.07131887 0.2681765
vn -0.7394814 -0.342986 0.5792477
vn -0.1468922 -0.05801643 0.9874496
vn -0.5559308 -0.09956834 0.8252437
vn -0.3085215 -0.02036329 0.9509994
vn -0.9942902 -0.1065862 -0.005116154
vn -0.9980743 -0.06179827 0.005350708
vn -0.4433159 -0.5722162 0.6899561
vn -0.118279 -0.9921603 -0.04034992
vn -0.2410701 -0.908455 -0.3414596
vn -0.7646389 -0.5578864 -0.32263
vn -0.9606615 -0.2006097 -0.192055
vn -0.3146883 -0.9113929 0.2652059
vn -0.5274737 -0.8061754 0.2680535
vn -0.2623247 -0.9649473 -0.007907949
vn -0.4608944 -0.8512789 0.2508
vn -0.322312 -0.8296024 -0.4559329
vn -0.1804075 -0.9755997 -0.1251334
vn -0.9137027 -0.3757967 -0.1546748
vn -0.3326241 -0.9352167 -0.1213712
vn 0 -0.9837456 -0.1795681
vn 0 -0.9653921 0.2608025
vn -0.426477 -0.7228232 0.5437316
vn 0 -0.75326 0.6577228
vn -0.448084 -0.8606217 0.2419733
vn -8.530555E-07 0.004641424 0.9999893
vn 0.06580552 -0.02911275 0.9974076
vn 0.1549321 -0.101621 0.9826847
vn 0.5404861 -0.751073 -0.3791624
vn 0.4276294 -0.8491225 -0.3100388
vn 0.5649325 -0.804575 -0.183058
vn 0.7365276 -0.6706555 0.08802409
vn 0.3195218 -0.5672634 0.7590244
vn 0.1561933 -0.1309134 0.9790124
vn 0.3745117 -0.09827407 0.9219995
vn 0.2109917 -0.9769394 -0.0327435
vn 0.599826 -0.4888923 0.6333981
vn 0.7206859 -0.1219174 0.6824573
vn 0.9607263 -0.07131889 0.2681764
vn 0.7394813 -0.342986 0.5792477
vn 0.1468921 -0.05801641 0.9874496
vn 0.5559308 -0.09956838 0.8252436
vn 0.3085214 -0.02036329 0.9509994
vn 0.9942902 -0.1065863 -0.005116059
vn 0.9980743 -0.06179833 0.0053507
vn 0.443316 -0.5722162 0.6899563
vn 0.118279 -0.9921603 -0.04034979
vn 0.2410701 -0.9084551 -0.3414595
vn 0.7646389 -0.5578864 -0.32263
vn 0.9606615 -0.2006098 -0.1920549
vn 0.3146884 -0.9113929 0.2652058
vn 0.5274739 -0.8061754 0.2680534
vn 0.2623247 -0.9649473 -0.00790795
vn 0.4608944 -0.8512789 0.2508
vn 0.322312 -0.8296024 -0.4559329
vn 0.1804075 -0.9755997 -0.1251333
vn 0.9137027 -0.3757968 -0.1546747
vn 0.3326241 -0.9352167 -0.1213712
vn 0.426477 -0.7228232 0.5437316
vn 0.4480841 -0.8606216 0.2419733
vn 0.9425473 -0.2820118 0.1790916
vn -0.9425474 -0.2820117 0.1790916
vn -0.2410701 -0.908455 -0.3414596
vn -0.4276294 -0.8491225 -0.3100389
vn -0.1804075 -0.9755997 -0.1251334
vn 0 -0.7407387 -0.6717932
vn 0 -0.7407387 -0.6717932
vn 0.2410701 -0.9084551 -0.3414595
vn 0.4276294 -0.8491225 -0.3100388
vn 0.1804075 -0.9755997 -0.1251333
vn 0.5404861 -0.751073 -0.3791624
vn -0.5404861 -0.751073 -0.3791624
vn -0.3085215 -0.02036329 0.9509994
vn -0.3745117 -0.09827401 0.9219996
vn -0.4433159 -0.5722162 0.6899561
vn -0.3195219 -0.5672635 0.7590243
vn 0 -0.4219892 0.9066008
vn 0.3085214 -0.02036329 0.9509994
vn 0.3745117 -0.09827407 0.9219995
vn 0.443316 -0.5722162 0.6899563
vn 0.3195218 -0.5672634 0.7590244
g bumpChin_geo_0
f 60/60/60 54/54/54 62/62/62
f 53/53/53 54/54/54 60/60/60
f 3/3/3 53/53/53 60/60/60
f 2/2/2 53/53/53 3/3/3
f 15/15/15 2/2/2 3/3/3
f 14/14/14 2/2/2 15/15/15
f 27/27/27 14/14/14 15/15/15
f 15/15/15 16/16/16 27/27/27
f 22/22/22 16/16/16 15/15/15
f 3/3/3 22/22/22 15/15/15
f 5/5/5 22/22/22 3/3/3
f 60/60/60 5/5/5 3/3/3
f 47/47/47 5/5/5 60/60/60
f 62/62/62 47/47/47 60/60/60
f 22/22/22 24/24/24 16/16/16
f 9/9/9 24/24/24 22/22/22
f 5/5/5 9/9/9 22/22/22
f 1/1/1 9/9/9 5/5/5
f 45/45/45 1/1/1 5/5/5
f 53/53/53 65/65/65 54/54/54
f 52/52/52 65/65/65 53/53/53
f 2/2/2 52/52/52 53/53/53
f 46/46/46 5/5/5 47/47/47
f 45/45/45 5/5/5 46/46/46
g bumpChin_geo_1
f 37/37/37 82/82/82 28/28/28
f 17/17/17 37/37/37 28/28/28
f 34/34/34 37/37/37 17/17/17
f 32/32/32 34/34/34 17/17/17
f 35/35/35 34/34/34 32/32/32
f 94/94/94 35/35/35 32/32/32
f 18/18/18 35/35/35 94/94/94
f 93/93/93 18/18/18 94/94/94
f 23/23/23 18/18/18 93/93/93
f 92/92/92 23/23/23 93/93/93
f 29/29/29 84/84/84 83/83/83
f 36/36/36 29/29/29 83/83/83
f 7/7/7 29/29/29 36/36/36
f 8/8/8 7/7/7 36/36/36
f 75/75/75 66/66/66 87/87/87
f 55/55/55 66/66/66 75/75/75
f 72/72/72 55/55/55 75/75/75
f 70/70/70 55/55/55 72/72/72
f 73/73/73 70/70/70 72/72/72
f 99/99/99 70/70/70 73/73/73
f 56/56/56 99/99/99 73/73/73
f 98/98/98 99/99/99 56/56/56
f 61/61/61 98/98/98 56/56/56
f 97/97/97 98/98/98 61/61/61
f 67/67/67 88/88/88 89/89/89
f 74/74/74 88/88/88 67/67/67
f 85/85/85 74/74/74 67/67/67
f 86/86/86 74/74/74 85/85/85
f 88/88/88 74/74/74 90/90/90
f 91/91/91 36/36/36 83/83/83
f 12/12/12 10/10/10 11/11/11
f 30/30/30 10/10/10 12/12/12
f 13/13/13 30/30/30 12/12/12
f 38/38/38 30/30/30 13/13/13
f 81/81/81 38/38/38 13/13/13
f 25/25/25 38/38/38 81/81/81
f 20/20/20 25/25/25 81/81/81
f 26/26/26 25/25/25 20/20/20
f 34/34/34 11/11/11 37/37/37
f 12/12/12 11/11/11 34/34/34
f 35/35/35 12/12/12 34/34/34
f 13/13/13 12/12/12 35/35/35
f 21/21/21 13/13/13 35/35/35
f 81/81/81 13/13/13 21/21/21
f 19/19/19 81/81/81 21/21/21
f 20/20/20 81/81/81 19/19/19
f 71/71/71 70/70/70 99/99/99
f 55/55/55 70/70/70 71/71/71
f 77/77/77 55/55/55 71/71/71
f 4/4/4 55/55/55 77/77/77
f 40/40/40 4/4/4 77/77/77
f 39/39/39 4/4/4 40/40/40
f 41/41/41 39/39/39 40/40/40
f 44/44/44 39/39/39 41/41/41
f 42/42/42 44/44/44 41/41/41
f 33/33/33 44/44/44 42/42/42
f 95/95/95 33/33/33 42/42/42
f 94/94/94 33/33/33 95/95/95
f 79/79/79 77/77/77 71/71/71
f 41/41/41 77/77/77 79/79/79
f 78/78/78 41/41/41 79/79/79
f 43/43/43 41/41/41 78/78/78
f 96/96/96 43/43/43 78/78/78
f 42/42/42 43/43/43 96/96/96
f 95/95/95 42/42/42 96/96/96
f 17/17/17 4/4/4 39/39/39
f 6/6/6 4/4/4 17/17/17
f 28/28/28 6/6/6 17/17/17
f 21/21/21 23/23/23 19/19/19
f 18/18/18 23/23/23 21/21/21
f 35/35/35 18/18/18 21/21/21
f 63/63/63 64/64/64 58/58/58
f 80/80/80 63/63/63 58/58/58
f 76/76/76 63/63/63 80/80/80
f 51/51/51 76/76/76 80/80/80
f 68/68/68 76/76/76 51/51/51
f 50/50/50 68/68/68 51/51/51
f 48/48/48 68/68/68 50/50/50
f 49/49/49 48/48/48 50/50/50
f 100/100/100 71/71/71 99/99/99
f 78/78/78 71/71/71 100/100/100
f 96/96/96 78/78/78 100/100/100
f 80/80/80 58/58/58 57/57/57
f 59/59/59 80/80/80 57/57/57
f 51/51/51 80/80/80 59/59/59
f 73/73/73 51/51/51 59/59/59
f 50/50/50 51/51/51 73/73/73
f 72/72/72 50/50/50 73/73/73
f 49/49/49 50/50/50 72/72/72
f 75/75/75 49/49/49 72/72/72
f 55/55/55 6/6/6 66/66/66
f 4/4/4 6/6/6 55/55/55
f 59/59/59 56/56/56 73/73/73
f 61/61/61 56/56/56 59/59/59
f 57/57/57 61/61/61 59/59/59
f 69/69/69 76/76/76 68/68/68
f 63/63/63 76/76/76 69/69/69
f 64/64/64 63/63/63 69/69/69
f 31/31/31 25/25/25 26/26/26
f 38/38/38 25/25/25 31/31/31
f 30/30/30 38/38/38 31/31/31
f 33/33/33 39/39/39 44/44/44
f 17/17/17 39/39/39 33/33/33
f 32/32/32 17/17/17 33/33/33
f 42/42/42 41/41/41 43/43/43
f 33/33/33 94/94/94 32/32/32
f 79/79/79 71/71/71 78/78/78
f 77/77/77 41/41/41 40/40/40
