g C1_collisionGround_dirt_geo
v -25.21477 0.006302338 -200.7565
v -29.2801 0.006447143 -200.4318
v -30.00722 0.006573639 -198.467
v -29.20382 0.006555328 -196.436
v -24.90774 0.006410522 -196.3675
v -24.03082 0.006284027 -198.467
v -25.68596 0.2746272 -200.091
v -28.80912 0.2747296 -199.7663
v -29.52226 0.2748193 -198.4669
v -28.73284 0.2748062 -197.1015
v -25.37893 0.3171942 -197.033
v -24.97309 0.2746142 -198.467
v -26.11039 0.432567 -198.467
v -28.38497 0.4358673 -198.4669
v -27.24757 0.006374664 -200.818
v -27.24766 0.4079027 -200.1524
v -27.24767 0.2747168 -198.467
v -27.24768 0.2747549 -196.8602
v -27.24759 0.006483002 -196.1948
v -29.26592 0.01451965 -200.4118
v -27.24757 0.01845657 -200.7979
v -25.22894 0.01437622 -200.7365
v -24.05918 0.01435806 -198.467
v -24.92192 0.01576202 -196.3876
v -27.24759 0.01455521 -196.2148
v -29.18966 0.01462692 -196.456
v -29.99264 0.01464508 -198.467
vt 0 1
vt 0 1
vt 0 1
vt 0 1
vt 0 1
vt 0 1
vt 0 1
vt 0 1
vt 0 1
vt 0 1
vt 0 1
vt 0 1
vt 0 1
vt 0 1
vt 0 1
vt 0 1
vt 0 1
vt 0 1
vt 0 1
vt 0 1
vt 0 1
vt 0 1
vt 0 1
vt 0 1
vt 0 1
vt 0 1
vt 0 1
vn 0.154884 0.9401021 -0.3036758
vn -0.2477424 0.9231954 -0.2938265
vn -0.4048119 0.9143904 0.004177796
vn -0.2257477 0.9375793 0.2645431
vn 0.1784174 0.9470436 0.2669753
vn 0.3082156 0.9512835 -0.007934326
vn 0.1201068 0.9789897 -0.1647835
vn -0.1643768 0.9713511 -0.1716309
vn -0.2673968 0.9635815 0.00311045
vn -0.1320726 0.9759184 0.1736087
vn 0.1099491 0.9834406 0.1440686
vn 0.2269563 0.9736761 -0.02111462
vn 0.05089754 0.9987026 -0.001589479
vn -0.05406322 0.9984456 0.01355319
vn -0.03373558 0.899496 -0.4356247
vn -0.01894758 0.9749036 -0.2218195
vn -0.001933082 0.9997193 0.02361188
vn -0.008956386 0.9756539 0.2191327
vn -0.007926733 0.9268091 0.375449
vn -0.2538252 0.9211302 -0.2951132
vn -0.03539567 0.9020845 -0.4301056
vn 0.1645585 0.9400619 -0.2986708
vn 0.3116962 0.9501024 -0.01228784
vn 0.1801144 0.9482539 0.2614831
vn -0.01087912 0.9267976 0.3754036
vn -0.2231498 0.9368199 0.2693929
vn -0.3982351 0.9172739 0.004174696
g C1_collisionGround_dirt_geo_0
f 22/22/22 1/1/1 21/21/21
f 6/6/6 1/1/1 22/22/22
f 23/23/23 6/6/6 22/22/22
f 5/5/5 6/6/6 23/23/23
f 24/24/24 5/5/5 23/23/23
f 19/19/19 5/5/5 24/24/24
f 25/25/25 19/19/19 24/24/24
f 4/4/4 19/19/19 25/25/25
f 26/26/26 4/4/4 25/25/25
f 3/3/3 4/4/4 26/26/26
f 27/27/27 3/3/3 26/26/26
f 2/2/2 3/3/3 27/27/27
f 20/20/20 2/2/2 27/27/27
f 15/15/15 2/2/2 20/20/20
f 21/21/21 15/15/15 20/20/20
f 1/1/1 15/15/15 21/21/21
f 7/7/7 23/23/23 22/22/22
f 12/12/12 23/23/23 7/7/7
f 13/13/13 12/12/12 7/7/7
f 11/11/11 12/12/12 13/13/13
f 17/17/17 11/11/11 13/13/13
f 18/18/18 11/11/11 17/17/17
f 14/14/14 18/18/18 17/17/17
f 10/10/10 18/18/18 14/14/14
f 9/9/9 10/10/10 14/14/14
f 27/27/27 10/10/10 9/9/9
f 20/20/20 27/27/27 9/9/9
f 16/16/16 13/13/13 7/7/7
f 17/17/17 13/13/13 16/16/16
f 8/8/8 17/17/17 16/16/16
f 14/14/14 17/17/17 8/8/8
f 9/9/9 14/14/14 8/8/8
f 8/8/8 20/20/20 9/9/9
f 21/21/21 20/20/20 8/8/8
f 16/16/16 21/21/21 8/8/8
f 22/22/22 21/21/21 16/16/16
f 7/7/7 22/22/22 16/16/16
f 26/26/26 10/10/10 27/27/27
f 18/18/18 10/10/10 26/26/26
f 25/25/25 18/18/18 26/26/26
f 11/11/11 18/18/18 25/25/25
f 24/24/24 11/11/11 25/25/25
f 12/12/12 11/11/11 24/24/24
f 23/23/23 12/12/12 24/24/24
