g C1_detailBrick_geo
v -59.51365 -0.1335243 -204.1803
v -59.20337 -0.1335243 -204.5588
v -59.51365 2.134039 -204.1803
v -59.51365 2.134039 -224.5049
v -59.20337 2.134039 -224.5049
v -59.51365 -0.1335243 -224.5049
v -59.20337 -0.1335243 -224.5049
v -32.97149 -0.1335243 -204.1839
v -33.29034 -0.1335243 -204.5552
v -32.97149 2.134039 -204.1839
v -32.97149 -0.1335243 -225
v -33.29034 -0.1335243 -225.3713
v -33.29034 2.134039 -225.3713
v -32.97149 2.134039 -225
v -59.20337 2.364715 -204.5588
v -59.20337 2.364715 -224.5049
v -59.51365 2.364715 -224.5049
v -33.29034 2.364715 -204.5552
v -32.97149 2.364715 -225
v -33.29034 2.364715 -225.3713
v -59.73886 2.134039 -203.9592
v -59.78021 2.134039 -224.5049
v -59.73886 2.364715 -203.9592
v -59.78021 2.364715 -224.5049
v -32.74625 2.134039 -203.9628
v -32.74625 2.364715 -203.9628
v -32.70494 2.134038 -225
v -32.70494 2.364715 -225
v -32.97149 0.02800579 -225
v -32.97149 0.02800579 -204.1839
v -59.51365 0.02800579 -204.1803
v -59.51365 0.02800579 -224.5049
v -59.51365 -0.1335243 -204.1803
v -33.29034 -0.1335243 -204.5552
v -59.20337 -0.1335243 -204.5588
v -33.29034 2.364715 -204.5552
v -59.20337 2.364715 -204.5588
v -59.51365 0.02800579 -204.1803
v -32.97149 -0.1335243 -204.1839
v -59.51365 -0.1335243 -204.1803
v -33.29034 2.364715 -204.5552
v -33.29034 -0.1335243 -204.5552
v -33.29034 -0.1335243 -225.3713
v -33.29034 2.364715 -204.5552
v -33.29034 2.364715 -225.3713
v -32.74625 2.364715 -203.9628
v -32.97149 0.02800579 -204.1839
v -32.97149 -0.1335243 -225
v -32.97149 -0.1335243 -204.1839
v -59.20337 -0.1335243 -204.5588
v -59.20337 2.364715 -204.5588
v -59.73886 2.364715 -203.9592
v -59.73886 2.134039 -203.9592
v -32.74625 2.364715 -203.9628
v -59.73886 2.364715 -203.9592
v -32.74625 2.134039 -203.9628
v -32.70494 2.364715 -225
v -32.74625 2.364715 -203.9628
v -59.73886 2.134039 -203.9592
v -59.78021 2.134039 -224.5049
v -59.73886 2.364715 -203.9592
v -59.78021 2.364715 -224.5049
v -59.20337 2.364715 -224.5049
v -59.20337 2.364715 -204.5588
v -59.51365 2.134039 -204.1803
v -32.74625 2.134039 -203.9628
v -59.73886 2.134039 -203.9592
v -32.97149 2.134039 -204.1839
v -32.70494 2.134038 -225
v -32.74625 2.134039 -203.9628
v -32.97149 2.134039 -204.1839
v -32.97149 0.02800579 -225
v -32.97149 0.02800579 -204.1839
v -32.97149 2.134039 -225
v -59.51365 2.134039 -204.1803
v -32.97149 0.02800579 -204.1839
v -59.51365 0.02800579 -204.1803
v -32.97149 2.134039 -204.1839
v -59.51365 0.02800579 -224.5049
v -59.51365 2.134039 -204.1803
v -59.51365 0.02800579 -204.1803
v -59.51365 2.134039 -224.5049
vt 0 1
vt 0 1
vt 0.2887037 0.8148809
vt 0.2887037 0.8148809
vt 0.2905821 0.8204212
vt 0 1
vt 0.2905822 0.8204212
vt 0 1
vt 0 1
vt 0.2844407 0.815828
vt 0 1
vt 0 1
vt 0.2905821 0.8204208
vt 0.2887037 0.8148807
vt 0 1
vt 0.2905821 0.8204212
vt 0.2897087 0.8259136
vt 0 1
vt 0.289709 0.8259137
vt 0.2905821 0.8204208
vt 0.2884349 0.8182027
vt 0.2884349 0.8182027
vt 0.2854458 0.8268609
vt 0.2884349 0.8182027
vt 0.284172 0.81915
vt 0.2854458 0.8268609
vt 0.2884349 0.8182027
vt 0.289709 0.8259137
vt 0 1
vt 0 1
vt 0 1
vt 0 1
vt 0 1
vt 0 1
vt 0 1
vt 0.2854458 0.8268609
vt 0.2854458 0.8268609
vt 0 1
vt 0 1
vt 0 1
vt 0.2905821 0.8204212
vt 0.2905821 0.8204212
vt 0.2905821 0.8204208
vt 0.2897086 0.8259137
vt 0.2897088 0.8259137
vt 0.2897087 0.8259137
vt 0 1
vt 0 1
vt 0 1
vt 0.2905822 0.8204207
vt 0.2905821 0.8204207
vt 0.2884349 0.8182027
vt 0.284172 0.81915
vt 0.284172 0.81915
vt 0.284172 0.81915
vt 0.2884349 0.8182027
vt 0.2884349 0.8182027
vt 0.2884349 0.8182027
vt 0.2887037 0.8148809
vt 0.2887037 0.8148809
vt 0.2897087 0.8259136
vt 0.2897087 0.8259136
vt 0.2897087 0.8259136
vt 0.2897087 0.8259136
vt 0.2844407 0.8158282
vt 0.2844407 0.815828
vt 0.2844407 0.8158282
vt 0.2887037 0.8148807
vt 0.2887037 0.8148807
vt 0.2887037 0.8148807
vt 0.2905821 0.8204208
vt 0.2905821 0.8204212
vt 0.2905821 0.8204208
vt 0.2905821 0.8204212
vt 0.2863192 0.8213681
vt 0.2863192 0.8213685
vt 0.2863192 0.8213681
vt 0.2863192 0.8213685
vt 0.2905821 0.8204207
vt 0.2905821 0.8204212
vt 0.2905821 0.8204212
vt 0.2905821 0.8204207
vn -0.577298 -0.5773764 0.5773764
vn 0.5774035 -0.5773237 -0.5773237
vn -0.4082025 -0.8165148 0.4082575
vn -0.7071069 -0.7071066 0
vn 1 0 0
vn -1 0 0
vn 1 0 0
vn 0.4082944 -0.8164781 0.4082391
vn -0.4082013 -0.8165154 -0.4082577
vn 0.408294 -0.8164783 0.4082392
vn 0.7071068 -0.7071068 0
vn -0.7071068 -0.7071068 0
vn -1 0 0
vn 0.7071066 -0.7071069 0
vn 0.4082953 0.8164778 -0.4082389
vn 0.7071068 0.7071068 0
vn 0 1 0
vn -0.4082011 0.8165154 -0.4082578
vn 4.087941E-07 1 0
vn -0.7071066 0.7071069 0
vn -0.4080655 -0.8162408 0.4089418
vn -0.7071055 -0.7071066 0.001423035
vn -0.4080653 0.816241 0.4089418
vn -0.7071053 0.7071068 0.001423032
vn 0.408159 -0.8162114 0.4089072
vn 0.4081594 0.8162113 0.4089069
vn 0.7071053 -0.7071069 0.001388476
vn 0.7071055 0.7071066 0.001388466
vn 1 0 0
vn 0.7071546 0 0.7070589
vn -0.7070588 0 0.7071546
vn -1 0 0
vn -0.577298 -0.5773764 0.5773764
vn -0.4082013 -0.8165154 -0.4082577
vn 0.5774035 -0.5773237 -0.5773237
vn -0.4082011 0.8165154 -0.4082578
vn 0.4082953 0.8164778 -0.4082389
vn -0.7070588 0 0.7071546
vn 0.4082944 -0.8164781 0.4082391
vn -0.577298 -0.5773764 0.5773764
vn -0.4082011 0.8165154 -0.4082578
vn -0.4082013 -0.8165154 -0.4082577
vn -0.7071068 -0.7071068 0
vn -0.4082011 0.8165154 -0.4082578
vn -0.7071066 0.7071069 0
vn 0.4081594 0.8162113 0.4089069
vn 0.7071546 0 0.7070589
vn 0.7071068 -0.7071068 0
vn 0.4082944 -0.8164781 0.4082391
vn 0.5774035 -0.5773237 -0.5773237
vn 0.4082953 0.8164778 -0.4082389
vn -0.4080653 0.816241 0.4089418
vn -0.4080655 -0.8162408 0.4089418
vn 0.4081594 0.8162113 0.4089069
vn -0.4080653 0.816241 0.4089418
vn 0.408159 -0.8162114 0.4089072
vn 0.7071055 0.7071066 0.001388466
vn 0.4081594 0.8162113 0.4089069
vn -0.4080655 -0.8162408 0.4089418
vn -0.7071055 -0.7071066 0.001423035
vn -0.4080653 0.816241 0.4089418
vn -0.7071053 0.7071068 0.001423032
vn 0.7071068 0.7071068 0
vn 0.4082953 0.8164778 -0.4082389
vn -0.4082025 -0.8165148 0.4082575
vn 0.408159 -0.8162114 0.4089072
vn -0.4080655 -0.8162408 0.4089418
vn 0.408294 -0.8164783 0.4082392
vn 0.7071053 -0.7071069 0.001388476
vn 0.408159 -0.8162114 0.4089072
vn 0.408294 -0.8164783 0.4082392
vn 1 0 0
vn 0.7071546 0 0.7070589
vn 0.7071066 -0.7071069 0
vn -0.4082025 -0.8165148 0.4082575
vn 0.7071546 0 0.7070589
vn -0.7070588 0 0.7071546
vn 0.408294 -0.8164783 0.4082392
vn -1 0 0
vn -0.4082025 -0.8165148 0.4082575
vn -0.7070588 0 0.7071546
vn -0.7071069 -0.7071066 0
g C1_detailBrick_geo_0
f 31/31/31 6/6/6 1/1/1
f 32/32/32 6/6/6 31/31/31
f 8/8/8 12/12/12 11/11/11
f 9/9/9 12/12/12 8/8/8
f 33/33/33 9/9/9 8/8/8
f 2/2/2 9/9/9 33/33/33
f 15/15/15 34/34/34 35/35/35
f 18/18/18 34/34/34 15/15/15
f 23/23/23 36/36/36 37/37/37
f 26/26/26 36/36/36 23/23/23
f 39/39/39 38/38/38 40/40/40
f 30/30/30 38/38/38 39/39/39
f 41/41/41 43/43/43 42/42/42
f 13/13/13 43/43/43 41/41/41
f 20/20/20 13/13/13 41/41/41
f 44/44/44 19/19/19 45/45/45
f 28/28/28 19/19/19 44/44/44
f 46/46/46 28/28/28 44/44/44
f 48/48/48 47/47/47 49/49/49
f 29/29/29 47/47/47 48/48/48
f 5/5/5 50/50/50 7/7/7
f 51/51/51 50/50/50 5/5/5
f 16/16/16 51/51/51 5/5/5
f 52/52/52 22/22/22 21/21/21
f 24/24/24 22/22/22 52/52/52
f 54/54/54 53/53/53 25/25/25
f 55/55/55 53/53/53 54/54/54
f 57/57/57 56/56/56 27/27/27
f 58/58/58 56/56/56 57/57/57
f 59/59/59 4/4/4 3/3/3
f 60/60/60 4/4/4 59/59/59
f 61/61/61 17/17/17 62/62/62
f 63/63/63 17/17/17 61/61/61
f 64/64/64 63/63/63 61/61/61
f 66/66/66 65/65/65 10/10/10
f 67/67/67 65/65/65 66/66/66
f 69/69/69 68/68/68 14/14/14
f 70/70/70 68/68/68 69/69/69
f 72/72/72 71/71/71 73/73/73
f 74/74/74 71/71/71 72/72/72
f 76/76/76 75/75/75 77/77/77
f 78/78/78 75/75/75 76/76/76
f 80/80/80 79/79/79 81/81/81
f 82/82/82 79/79/79 80/80/80
