g C1_fences_geo
v 0.901145 3.785342 -193.7657
v 0.9011377 2.108705 -193.7657
v 0.901145 3.785342 -219.3521
v 0.9011377 2.108705 -219.3521
v 0.8731665 3.785342 -193.7657
v 0.8731665 2.108705 -193.7657
v 0.8731665 3.785342 -219.3521
v 0.8731665 2.108705 -219.3521
v 32.68052 3.785342 -193.7657
v 32.68051 2.108705 -193.7657
v 32.68052 3.785342 -219.3521
v 32.68051 2.108705 -219.3521
v 32.65254 3.785342 -193.7657
v 32.65254 2.108705 -193.7657
v 32.65254 3.785342 -219.3521
v 32.65254 2.108705 -219.3521
vt -0.002119189 0.9924523
vt -0.002119303 0.4963306
vt 9.499347 0.9924522
vt 9.499347 0.4963306
vt -0.002119189 0.4924523
vt -0.002119303 -0.003669381
vt 9.499347 0.4924522
vt 9.499347 -0.003669381
vt -0.002119189 0.9924523
vt -0.002119303 0.4963306
vt 9.499347 0.9924522
vt 9.499347 0.4963306
vt -0.002119189 0.4924523
vt -0.002119303 -0.003669381
vt 9.499347 0.4924522
vt 9.499347 -0.003669381
vn 1 -4.370734E-06 0
vn 1 -4.370734E-06 0
vn 1 -4.370734E-06 0
vn 1 -4.370734E-06 0
vn -1 0 0
vn -1 0 0
vn -1 0 0
vn -1 0 0
vn 1 -4.662116E-06 0
vn 1 -4.662116E-06 0
vn 1 -4.662116E-06 0
vn 1 -4.662116E-06 0
vn -1 0 0
vn -1 0 0
vn -1 0 0
vn -1 0 0
g C1_fences_geo_0
f 4/4/4 1/1/1 2/2/2
f 3/3/3 1/1/1 4/4/4
f 8/8/8 5/5/5 7/7/7
f 6/6/6 5/5/5 8/8/8
f 12/12/12 9/9/9 10/10/10
f 11/11/11 9/9/9 12/12/12
f 16/16/16 13/13/13 15/15/15
f 14/14/14 13/13/13 16/16/16
