g C1_rock01_geo
v 46.84409 2.110591 -208.8266
v 46.16832 2.110597 -208.1351
v 45.87854 2.110604 -207.1472
v 46.91675 2.68115 -208.9524
v 46.08604 2.681149 -208.1826
v 45.79629 2.681157 -207.1947
v 46.98325 3.041378 -208.5535
v 46.41478 3.192224 -208.0767
v 46.09438 3.21824 -207.2672
v 47.75665 3.146518 -208.2916
v 46.8492 3.218244 -206.544
v 48.22704 3.133686 -207.8842
v 48.24212 3.195913 -206.9307
v 47.50416 3.218244 -206.3559
v 48.49296 2.681152 -207.9947
v 48.54852 2.681154 -206.849
v 47.53407 2.681157 -205.8252
v 48.49296 2.110595 -207.9946
v 48.45163 2.110594 -206.8168
v 47.59575 2.110596 -205.8819
v 47.92561 2.110595 -208.3916
v 46.73449 2.110599 -206.3285
v 46.66438 2.681158 -206.2071
v 47.99828 2.681155 -208.5175
v -29.81067 0.006428833 -200.644
v -30.36921 0.006435852 -200.6428
v -29.94394 0.2882234 -200.4561
v -30.23226 0.2916354 -200.4838
v -30.31318 0.2916283 -200.2622
v -29.93612 0.2759928 -200.1481
v -30.24778 0.2916295 -200.118
v -29.78068 0.006434937 -200.0169
v -30.4376 0.006427002 -199.9219
v -30.52012 0.006425171 -200.2515
v -28.60583 0.006428833 -196.1261
v -29.16436 0.006435852 -196.1249
v -28.7391 0.2882234 -195.9383
v -29.02741 0.2916354 -195.9659
v -29.10834 0.2916283 -195.7444
v -28.73128 0.2759928 -195.6302
v -29.04294 0.2916295 -195.6001
v -28.57584 0.006434937 -195.499
v -29.23275 0.006427002 -195.404
v -29.31528 0.006425171 -195.7336
v -26.1456 0.006428833 -201.702
v -26.70413 0.006435852 -201.7008
v -26.27887 0.2882234 -201.5142
v -26.56717 0.2916354 -201.5418
v -26.64811 0.2916283 -201.3203
v -26.27104 0.2759928 -201.2061
v -26.5827 0.2916295 -201.176
v -26.1156 0.006434937 -201.0749
v -26.77252 0.006427002 -200.9799
v -26.85504 0.006425171 -201.3095
v -29.78068 0.006434937 -200.0169
v -29.81067 0.006428833 -200.644
v -30.36921 0.006435852 -200.6428
v -30.52012 0.006425171 -200.2515
v -30.4376 0.006427002 -199.9219
v -28.57584 0.006434937 -195.499
v -28.60583 0.006428833 -196.1261
v -29.16436 0.006435852 -196.1249
v -29.31528 0.006425171 -195.7336
v -29.23275 0.006427002 -195.404
v -26.1156 0.006434937 -201.0749
v -26.1456 0.006428833 -201.702
v -26.70413 0.006435852 -201.7008
v -26.85504 0.006425171 -201.3095
v -26.77252 0.006427002 -200.9799
vt 0.05590532 0.1057783
vt 0.4365335 -0.02905096
vt 0.8675842 0.06010723
vt 0.1498756 0.2055191
vt 0.4544776 0.106509
vt 0.7293037 0.1515977
vt 0.28541 0.3239301
vt 0.4716615 0.2422232
vt 0.6284655 0.2839758
vt 0.3350164 0.5032771
vt 0.6774055 0.4965523
vt 0.2702909 0.7081136
vt 0.4680784 0.7478172
vt 0.6661782 0.6989202
vt 0.1801726 0.8199484
vt 0.4939252 0.8619339
vt 0.7503185 0.7883314
vt 0.04793481 0.9436902
vt 0.4458565 1.069718
vt 0.9339983 0.9560127
vt -0.01133399 0.5680103
vt 0.9888839 0.5036293
vt 0.8029217 0.4916567
vt 0.2090266 0.5143588
vt 0.1359153 0.5175096
vt 0.4833359 0.4916672
vt 0.2156644 0.6130923
vt 0.401988 0.5935699
vt 0.4354683 0.695676
vt 0.2082011 0.8027413
vt 0.40336 0.7968715
vt 0.03391971 0.9170907
vt 0.4776807 0.9089139
vt 0.5091376 0.708305
vt 0.1359153 0.5175096
vt 0.4833359 0.4916672
vt 0.2156644 0.6130923
vt 0.401988 0.5935699
vt 0.4354683 0.695676
vt 0.2082011 0.8027413
vt 0.40336 0.7968715
vt 0.03391971 0.9170907
vt 0.4776807 0.9089139
vt 0.5091376 0.708305
vt 0.1359153 0.5175096
vt 0.4833359 0.4916672
vt 0.2156644 0.6130923
vt 0.401988 0.5935699
vt 0.4354683 0.695676
vt 0.2082011 0.8027413
vt 0.40336 0.7968715
vt 0.03391971 0.9170907
vt 0.4776807 0.9089139
vt 0.5091376 0.708305
vt 0 1
vt 0 1
vt 0 1
vt 0 1
vt -1.490116E-08 1
vt 0 1
vt 0 1
vt 0 1
vt 0 1
vt -1.490116E-08 1
vt 0 1
vt 0 1
vt 0 1
vt 0 1
vt -1.490116E-08 1
vn -0.1958025 -0.2128918 -0.9572556
vn -0.8471232 -0.1415652 -0.5121928
vn -0.9569706 -0.17236 0.2334509
vn -0.184332 0.2690406 -0.9453247
vn -0.818442 0.2262593 -0.528166
vn -0.9515539 0.2162409 0.2185981
vn -0.07472552 0.9046671 -0.419516
vn -0.3581649 0.8854868 -0.2960253
vn -0.5767844 0.8086426 0.1158309
vn 0.2869046 0.8106173 -0.5104756
vn -0.3334689 0.8050098 0.4906706
vn 0.5388371 0.8023144 -0.2568
vn 0.4184295 0.8976995 0.1380299
vn 0.1076736 0.9263983 0.3608221
vn 0.8838816 0.2415824 -0.4004888
vn 0.8956171 0.2644343 0.3576933
vn 0.1905782 0.3021622 0.9340118
vn 0.9027149 -0.1145549 -0.4147083
vn 0.9271424 -0.06575625 0.3688944
vn 0.1843569 -0.1385595 0.9730435
vn 0.5134501 -0.1871198 -0.8374695
vn -0.5795888 -0.1662894 0.7977622
vn -0.5616505 0.222657 0.7968518
vn 0.5110039 0.2198569 -0.8309861
vn 0.7189795 -0.009823455 -0.6949618
vn -0.5477633 0.05080113 -0.8350896
vn 0.3997107 0.8406105 -0.3655206
vn -0.2154722 0.9163629 -0.3374177
vn -0.5799075 0.8143682 -0.02262003
vn 0.4355108 0.8265798 0.3565055
vn -0.1801649 0.9261171 0.3314328
vn 0.7706843 -0.02683812 0.6366518
vn -0.5009993 0.08664911 0.8610991
vn -0.9939151 0.103096 -0.03878105
vn 0.7189974 -0.009820107 -0.6949435
vn -0.5477298 0.05080288 -0.8351114
vn 0.3997248 0.8406061 -0.3655155
vn -0.2154567 0.9163646 -0.3374231
vn -0.5799183 0.8143602 -0.0226285
vn 0.4355213 0.8265758 0.3565021
vn -0.1801648 0.9261168 0.3314335
vn 0.7706961 -0.02683152 0.6366377
vn -0.5009993 0.08662285 0.8611017
vn -0.9939169 0.103074 -0.03879492
vn 0.7189884 -0.009795709 -0.6949531
vn -0.5477182 0.05081427 -0.8351184
vn 0.3997153 0.8406107 -0.365515
vn -0.2154502 0.9163653 -0.3374251
vn -0.5798879 0.8143821 -0.02262528
vn 0.435502 0.8265836 0.3565075
vn -0.1801565 0.9261162 0.3314397
vn 0.7706757 -0.02682402 0.6366628
vn -0.5009762 0.08665153 0.8611123
vn -0.9939116 0.1031263 -0.03879122
vn 0.7706843 -0.02683812 0.6366518
vn 0.7189795 -0.009823455 -0.6949618
vn -0.5477633 0.05080113 -0.8350896
vn -0.9939151 0.103096 -0.03878105
vn -0.5009993 0.08664911 0.8610991
vn 0.7706961 -0.02683152 0.6366377
vn 0.7189974 -0.009820107 -0.6949435
vn -0.5477298 0.05080288 -0.8351114
vn -0.9939169 0.103074 -0.03879492
vn -0.5009993 0.08662285 0.8611017
vn 0.7706757 -0.02682402 0.6366628
vn 0.7189884 -0.009795709 -0.6949531
vn -0.5477182 0.05081427 -0.8351184
vn -0.9939116 0.1031263 -0.03879122
vn -0.5009762 0.08665153 0.8611123
g C1_rock01_geo_0
f 55/55/55 57/57/57 56/56/56
f 58/58/58 57/57/57 55/55/55
f 59/59/59 58/58/58 55/55/55
f 60/60/60 62/62/62 61/61/61
f 63/63/63 62/62/62 60/60/60
f 64/64/64 63/63/63 60/60/60
f 65/65/65 67/67/67 66/66/66
f 68/68/68 67/67/67 65/65/65
f 69/69/69 68/68/68 65/65/65
f 4/4/4 1/1/1 5/5/5
f 21/21/21 1/1/1 4/4/4
f 24/24/24 21/21/21 4/4/4
f 18/18/18 21/21/21 24/24/24
f 15/15/15 18/18/18 24/24/24
f 19/19/19 18/18/18 15/15/15
f 16/16/16 19/19/19 15/15/15
f 20/20/20 19/19/19 16/16/16
f 17/17/17 20/20/20 16/16/16
f 22/22/22 20/20/20 17/17/17
f 23/23/23 22/22/22 17/17/17
f 3/3/3 22/22/22 23/23/23
f 6/6/6 3/3/3 23/23/23
f 2/2/2 3/3/3 6/6/6
f 5/5/5 2/2/2 6/6/6
f 1/1/1 2/2/2 5/5/5
f 28/28/28 26/26/26 34/34/34
f 25/25/25 26/26/26 28/28/28
f 27/27/27 25/25/25 28/28/28
f 32/32/32 25/25/25 27/27/27
f 30/30/30 32/32/32 27/27/27
f 33/33/33 32/32/32 30/30/30
f 31/31/31 33/33/33 30/30/30
f 34/34/34 33/33/33 31/31/31
f 29/29/29 34/34/34 31/31/31
f 28/28/28 34/34/34 29/29/29
f 31/31/31 28/28/28 29/29/29
f 30/30/30 28/28/28 31/31/31
f 38/38/38 36/36/36 44/44/44
f 35/35/35 36/36/36 38/38/38
f 37/37/37 35/35/35 38/38/38
f 42/42/42 35/35/35 37/37/37
f 40/40/40 42/42/42 37/37/37
f 43/43/43 42/42/42 40/40/40
f 41/41/41 43/43/43 40/40/40
f 44/44/44 43/43/43 41/41/41
f 39/39/39 44/44/44 41/41/41
f 38/38/38 44/44/44 39/39/39
f 41/41/41 38/38/38 39/39/39
f 40/40/40 38/38/38 41/41/41
f 48/48/48 46/46/46 54/54/54
f 45/45/45 46/46/46 48/48/48
f 47/47/47 45/45/45 48/48/48
f 52/52/52 45/45/45 47/47/47
f 50/50/50 52/52/52 47/47/47
f 53/53/53 52/52/52 50/50/50
f 51/51/51 53/53/53 50/50/50
f 54/54/54 53/53/53 51/51/51
f 49/49/49 54/54/54 51/51/51
f 48/48/48 54/54/54 49/49/49
f 51/51/51 48/48/48 49/49/49
f 50/50/50 48/48/48 51/51/51
f 7/7/7 4/4/4 8/8/8
f 24/24/24 4/4/4 7/7/7
f 10/10/10 24/24/24 7/7/7
f 15/15/15 24/24/24 10/10/10
f 12/12/12 15/15/15 10/10/10
f 16/16/16 15/15/15 12/12/12
f 13/13/13 16/16/16 12/12/12
f 17/17/17 16/16/16 13/13/13
f 14/14/14 17/17/17 13/13/13
f 23/23/23 17/17/17 14/14/14
f 11/11/11 23/23/23 14/14/14
f 6/6/6 23/23/23 11/11/11
f 9/9/9 6/6/6 11/11/11
f 5/5/5 6/6/6 9/9/9
f 8/8/8 5/5/5 9/9/9
f 4/4/4 5/5/5 8/8/8
f 14/14/14 9/9/9 11/11/11
f 8/8/8 9/9/9 14/14/14
f 13/13/13 8/8/8 14/14/14
f 7/7/7 8/8/8 13/13/13
f 10/10/10 7/7/7 13/13/13
f 10/10/10 13/13/13 12/12/12
f 27/27/27 28/28/28 30/30/30
f 37/37/37 38/38/38 40/40/40
f 47/47/47 48/48/48 50/50/50
