g C1_shadowGradient_geo
v 22.98462 6.1764 -208.9283
v 22.98462 6.503793 -207.806
v 22.98462 2.133707 -207.806
v 22.98462 2.103962 -208.9283
v 5.699465 2.118834 -194.5992
v 6.3942 2.118834 -193.9744
v 6.472779 2.118834 -204.8924
v 6.847905 2.118834 -204.6577
v 21.16109 2.118834 -211.1825
v 6.248543 2.118834 -206.6425
v 22.91156 2.118834 -204.0238
v 22.97565 2.118834 -209.7975
v 18.39935 10.16879 -201.5485
v 19.14859 10.88471 -201.5485
v 19.89785 10.16879 -201.5485
v 18.39935 10.10078 -201.5485
v 19.14859 10.81671 -201.5485
v 19.89785 10.10078 -201.5485
v 19.89785 10.10078 -204.1723
v 19.89785 10.18286 -201.5485
v 19.89785 10.18286 -204.1723
v 18.39935 10.10078 -204.1723
v 18.39935 10.18286 -201.5485
v 18.39935 10.18286 -204.1723
v 14.6985 10.16879 -201.5485
v 15.42649 10.88471 -201.5485
v 16.19703 10.16879 -201.5485
v 14.6985 10.10078 -201.5485
v 15.42649 10.81671 -201.5485
v 16.19703 10.10078 -201.5485
v 14.6985 10.10078 -204.1723
v 14.6985 10.18286 -201.5485
v 14.6985 10.18286 -204.1723
v 16.19703 10.10078 -204.1723
v 16.19703 10.18286 -201.5485
v 16.19703 10.18286 -204.1723
v 13.70463 10.00254 -204.1754
v 14.40306 10.31486 -204.9284
v 14.73523 8.920681 -201.5671
v 16.17941 10.00135 -204.1725
v 13.70463 9.45651 -202.8589
v 17.38633 10.00254 -204.1754
v 18.07579 10.31486 -204.9284
v 18.41693 8.920681 -201.5671
v 19.86111 10.00135 -204.1725
v 17.38633 9.45651 -202.8589
v 11.76084 7.873544 -200.6251
v 22.98462 7.873544 -200.6251
v 22.98462 8.23059 -200.6251
v 11.76084 8.23059 -200.6251
v 11.76083 8.236968 -209.8104
v 11.76083 10.12784 -205.2171
v 11.76083 7.879922 -209.8104
v 11.76083 9.686163 -205.2171
v 22.98462 7.879924 -209.8104
v 11.76084 7.879924 -209.8104
v 11.76084 8.222898 -209.8104
v 22.98462 8.222898 -209.8104
v 22.98462 8.226235 -209.8104
v 22.98462 10.10927 -205.2177
v 22.98462 9.766293 -205.2177
v 22.98462 8.219855 -200.6251
v 22.98462 7.873541 -200.6251
v 25.97072 6.169641 -203.4976
v 23.83073 6.169642 -203.4976
v 23.83073 5.960541 -203.4976
v 25.97072 5.960538 -203.4976
v 25.97072 6.186267 -207.859
v 25.97072 7.300972 -205.6959
v 25.97072 7.09187 -205.6959
v 25.97072 5.977165 -207.859
v 23.02417 6.186269 -207.859
v 23.02417 5.977168 -207.859
v 22.98462 9.446731 -204.4424
v 22.98462 9.211531 -203.8722
v 22.98462 3.103441 -203.8722
v 22.98462 3.073696 -204.4424
v 22.43191 9.930212 -204.001
v 22.43191 10.10963 -204.4336
v 23.39053 9.389772 -202.698
v 23.39053 9.929026 -203.9981
v 22.86819 9.389819 -202.6982
v 23.39053 10.10963 -204.4336
v 19.08087 6.562257 -200.6251
v 14.9209 6.562254 -200.6251
v 18.41282 5.457675 -200.6251
v 11.10218 5.515399 -203.6472
v 11.76435 5.515399 -203.6472
v 11.76467 7.229717 -206.1527
v 11.09896 7.224327 -206.1527
v 11.10541 5.513914 -208.5487
v 11.76403 5.513914 -208.5487
v 11.77843 5.471878 -204.0062
v 11.77843 2.118705 -204.0062
v 11.10545 5.471878 -204.0062
v 11.10545 2.118705 -204.0062
v 6.830307 5.491839 -208.1772
v 6.830307 6.906112 -206.1527
v 6.830307 6.608542 -206.1527
v 6.830307 5.199483 -208.1772
v 6.830306 5.471876 -204.0062
v 6.8303 5.182859 -204.0062
v 6.830312 5.471878 -204.0062
v 11.10545 5.182859 -204.0062
v 11.76436 5.488503 -208.1772
v 6.830312 5.488503 -208.1772
v 11.76436 5.199486 -208.1772
v 6.830312 5.199486 -208.1772
v 10.96204 2.118834 -204.0281
v 12.09739 2.118834 -200.6075
v 12.09739 2.118834 -204.0281
v 14.55489 2.118834 -201.3095
v 14.8491 2.118834 -197.8889
v 14.8491 2.118834 -201.3095
v 13.72113 2.118834 -197.4855
v 13.53373 2.118834 -196.5811
v 14.73498 2.118834 -197.0787
v 14.59751 2.118834 -196.2123
v 14.24358 2.118834 -196.0657
v 13.38871 2.118834 -197.2016
v 7.104456 2.118834 -204.0238
v 14.5678 2.118834 -198.4154
v 15.7141 5.457675 -200.6251
v 12.66252 2.118834 -198.3119
v 12.57951 2.118834 -198.0607
v 12.64869 2.118834 -197.8647
v 12.7927 2.118834 -198.2979
v 21.64322 2.118834 -198.296
v 21.60089 2.118834 -198.2097
v 21.89407 2.118834 -197.9915
v 22.20405 2.118834 -198.3344
v 20.3992 2.118834 -200.2096
v 20.27719 2.118834 -200.1251
v 20.95878 2.118834 -199.5105
v 21.1315 2.118834 -199.7597
v 6.248543 2.118834 -209.4899
v 9.805917 2.118834 -211.1825
v 9.910148 2.118834 -209.5572
v 10.96204 2.118834 -202.0779
v 5.924475 2.118834 -204.7681
v 5.699465 2.118834 -204.0082
v 25.12653 2.118834 -208.924
v 22.97039 2.118834 -208.924
v 22.97179 2.118834 -207.8346
v 25.94579 2.118834 -207.8348
v 19.89785 10.10078 -201.5485
v 18.39935 10.10078 -201.5485
v 14.6985 10.10078 -201.5485
v 16.19703 10.10078 -201.5485
v 11.76084 8.23059 -200.6251
v 11.76084 7.873544 -200.6251
v 22.98462 7.879924 -209.8104
v 6.8303 5.182859 -204.0062
vt 0.3946809 0.8403249
vt 0.3946809 0.8403249
vt 0.3946809 0.8403249
vt 0.3946809 0.8403249
vt 0.4595766 0.8397274
vt 0.4595766 0.8397274
vt 0.4595766 0.8397274
vt 0.4595766 0.8397274
vt 0.4595766 0.8397274
vt 0.4595766 0.8397274
vt 0.4595766 0.8397274
vt 0.4595766 0.8397274
vt 0.4595766 0.8397275
vt 0.4595766 0.8397275
vt 0.4595766 0.8397275
vt 0.4595766 0.8397275
vt 0.4595766 0.8397275
vt 0.4595766 0.8397275
vt 0.4595766 0.8397275
vt 0.4595766 0.8397275
vt 0.4595766 0.8397275
vt 0.4595766 0.8397275
vt 0.4595766 0.8397275
vt 0.4595766 0.8397275
vt 0.4595766 0.8397275
vt 0.4595766 0.8397275
vt 0.4595766 0.8397275
vt 0.4595766 0.8397275
vt 0.4595766 0.8397275
vt 0.4595766 0.8397275
vt 0.4595766 0.8397275
vt 0.4595766 0.8397275
vt 0.4595766 0.8397275
vt 0.4595766 0.8397275
vt 0.4595766 0.8397275
vt 0.4595766 0.8397275
vt 0.4595766 0.8397275
vt 0.4595766 0.8397275
vt 0.4595766 0.8397275
vt 0.4595766 0.8397275
vt 0.4595766 0.8397275
vt 0.4595766 0.8397275
vt 0.4595766 0.8397275
vt 0.4595766 0.8397275
vt 0.4595766 0.8397275
vt 0.4595766 0.8397275
vt 0.4595766 0.8397275
vt 0.4595766 0.8397275
vt 0.4595766 0.8397275
vt 0.4595766 0.8397275
vt 0.4595766 0.8397275
vt 0.4595766 0.8397275
vt 0.4595766 0.8397275
vt 0.4595766 0.8397275
vt 0.4595766 0.8397275
vt 0.4595766 0.8397275
vt 0.4595766 0.8397275
vt 0.4595766 0.8397275
vt 0.3946809 0.8403249
vt 0.3946809 0.8403249
vt 0.3946809 0.8403249
vt 0.3946809 0.8403249
vt 0.3946809 0.8403249
vt 0.3946809 0.8403249
vt 0.3946809 0.8403249
vt 0.3946809 0.8403249
vt 0.3946809 0.8403249
vt 0.3946809 0.8403249
vt 0.3946809 0.8403249
vt 0.3946809 0.8403249
vt 0.3946809 0.8403249
vt 0.3946809 0.8403249
vt 0.3946809 0.8403249
vt 0.3946809 0.8403249
vt 0.3946809 0.8403249
vt 0.3946809 0.8403249
vt 0.3946809 0.8403249
vt 0.4595766 0.8397275
vt 0.4595766 0.8397275
vt 0.4595766 0.8397275
vt 0.4595766 0.8397275
vt 0.4595766 0.8397275
vt 0.4595766 0.8397275
vt 0.4595766 0.8397275
vt 0.4595766 0.8397275
vt 0.4595766 0.8397274
vt 0.4595766 0.8397275
vt 0.4595766 0.8397275
vt 0.4595766 0.8397275
vt 0.4595766 0.8397275
vt 0.4595766 0.8397275
vt 0.4595766 0.8397275
vt 0.4595766 0.8397275
vt 0.4595766 0.8397275
vt 0.4595766 0.8397275
vt 0.4595766 0.8397275
vt 0.4595766 0.8397275
vt 0.4595766 0.8397275
vt 0.4595766 0.8397275
vt 0.4595766 0.8397275
vt 0.4595766 0.8397275
vt 0.4595766 0.8397275
vt 0.4595766 0.8397275
vt 0.4595766 0.8397275
vt 0.4595766 0.8397275
vt 0.4595766 0.8397275
vt 0.4595766 0.8397275
vt 0.4595766 0.8397275
vt 0.4595766 0.8397274
vt 0.4595766 0.8397274
vt 0.4595766 0.8397274
vt 0.4595766 0.8397274
vt 0.4595766 0.8397274
vt 0.4595766 0.8397274
vt 0.4595766 0.8397274
vt 0.4595766 0.8397274
vt 0.4595766 0.8397274
vt 0.4595766 0.8397274
vt 0.4595766 0.8397274
vt 0.4595766 0.8397274
vt 0.4595766 0.8397274
vt 0.4595766 0.8397274
vt 0.4595766 0.8397274
vt 0.4595766 0.8397274
vt 0.4595766 0.8397274
vt 0.4595766 0.8397274
vt 0.4595766 0.8397274
vt 0.4595766 0.8397274
vt 0.4595766 0.8397274
vt 0.4595766 0.8397274
vt 0.4595766 0.8397274
vt 0.4595766 0.8397274
vt 0.4595766 0.8397274
vt 0.4595766 0.8397274
vt 0.4595766 0.8397274
vt 0.4595766 0.8397274
vt 0.4595766 0.8397274
vt 0.4595766 0.8397274
vt 0.4595766 0.8397274
vt 0.4595766 0.8397274
vt 0.4595766 0.8397274
vt 0.4595766 0.8397274
vt 0.4595766 0.8397274
vt 0.4595766 0.8397274
vt 0.4595766 0.8397274
vt 0.4595766 0.8397275
vt 0.4595766 0.8397275
vt 0.4595766 0.8397275
vt 0.4595766 0.8397275
vt 0.4595766 0.8397275
vt 0.4595766 0.8397275
vt 0.3946809 0.8403249
vt 0.4595766 0.8397275
vn 1 0 0
vn 1 0 0
vn 1 0 0
vn 1 0 0
vn 0 1 0
vn 0 1 0
vn 0 1 0
vn 0 1 0
vn 0 1 1.689807E-07
vn 6.844687E-07 1 -1.602815E-07
vn 0 1 0
vn 0 1 0
vn 3.066732E-05 0 1
vn 6.133394E-05 0 1
vn 9.200056E-05 0 1
vn 3.066732E-05 0 1
vn 6.133394E-05 0 1
vn 9.200056E-05 0 1
vn -1 0 0
vn -1 0 0
vn -1 0 0
vn -1 0 0
vn -1 0 0
vn -1 0 0
vn 3.156317E-05 0 1
vn 6.051097E-05 0 1
vn 8.945876E-05 0 1
vn 3.156317E-05 0 1
vn 6.051097E-05 0 1
vn 8.945876E-05 0 1
vn -1 0 4.652463E-07
vn -1 0 4.652463E-07
vn -1 0 4.652463E-07
vn -1 0 0
vn -1 0 0
vn -1 0 0
vn 3.094704E-06 0.923695 0.3831287
vn 6.189408E-06 0.9236948 0.383129
vn 0 0.9236951 0.3831284
vn 3.094704E-06 0.923695 0.3831287
vn 0 0.9236951 0.3831284
vn 3.094749E-06 0.9236948 0.3831291
vn 6.189498E-06 0.9236945 0.38313
vn 0 0.9236951 0.3831283
vn 3.094749E-06 0.9236948 0.3831291
vn 0 0.9236951 0.3831283
vn 0 0 1
vn 0 0 1
vn 0 0 1
vn 0 0 1
vn -1 0 2.657501E-07
vn -1 0 6.645382E-07
vn -1 0 2.657501E-07
vn -1 0 6.645382E-07
vn 0 0 -1
vn 0 0 -1
vn 0 0 -1
vn 0 0 -1
vn 1 0 5.315813E-07
vn 1 0 2.657906E-07
vn 1 0 2.657906E-07
vn 1 0 0
vn 1 0 0
vn 0.7071043 0 0.7071093
vn -6.983631E-06 0 1
vn -6.983631E-06 0 1
vn 0.7071043 0 0.7071093
vn 0.7071072 0 -0.7071064
vn 1 0 5.643438E-07
vn 1 0 5.643438E-07
vn 0.7071072 0 -0.7071064
vn 0 0 -1
vn 0 0 -1
vn 1 0 0
vn 1 0 0
vn 1 0 0
vn 1 0 0
vn -9.461543E-06 0.9236967 0.3831245
vn -6.93825E-06 0.9236979 0.3831215
vn -1.198484E-05 0.9236955 0.3831276
vn -9.461543E-06 0.9236967 0.3831245
vn -1.198484E-05 0.9236955 0.3831276
vn -6.93825E-06 0.9236979 0.3831215
vn -3.909022E-06 0 1
vn -3.909022E-06 0 1
vn -3.909022E-06 0 1
vn -0.003350524 0.8257073 0.5640889
vn -0.003350524 0.8257073 0.5640889
vn -0.0040613 0.9999347 -0.01069187
vn -0.0040613 0.9999347 -0.01069187
vn -0.003307048 0.8134569 -0.5816159
vn -0.003307048 0.8134569 -0.5816159
vn 0 0 1
vn 0 0 1
vn 0 0 1
vn 0 0 1
vn -1 0 0
vn -1 3.722824E-06 2.612777E-06
vn -1 3.722824E-06 2.612777E-06
vn -1 0 0
vn -1 7.445647E-06 5.225555E-06
vn -1 7.445647E-06 5.225555E-06
vn 0 0 1
vn 0 0 1
vn 0 0 -1
vn 0 0 -1
vn 0 0 -1
vn 0 0 -1
vn 0 1 0
vn 0 1 0
vn 0 1 0
vn 0 1 0
vn 0 1 0
vn 0 1 0
vn 0 1 0
vn 0 1 0
vn 0 1 0
vn 0 1 0
vn 0 1 0
vn 0 1 0
vn 6.844687E-07 1 -1.602815E-07
vn 0 1 0
vn -3.909022E-06 0 1
vn 0 1 0
vn 0 1 0
vn 0 1 0
vn 0 1 0
vn 0 1 9.084946E-07
vn 0 1 9.084946E-07
vn 0 1 9.084946E-07
vn 0 1 9.084946E-07
vn 0 1 0
vn 0 1 0
vn 0 1 0
vn 0 1 0
vn 6.844687E-07 1 -1.602815E-07
vn 0 1 1.689807E-07
vn 0 1 0
vn 0 1 0
vn 0 1 0
vn 0 1 0
vn 0 1 0
vn 0 1 0
vn 0 1 0
vn 0 1 0
vn -1 0 0
vn -1 0 0
vn -1 0 4.652463E-07
vn -1 0 0
vn -1 0 1.063326E-06
vn -1 0 1.063326E-06
vn 1 0 5.315813E-07
vn 0 0 1
g C1_shadowGradient_geo_0
f 3/3/3 1/1/1 2/2/2
f 4/4/4 1/1/1 3/3/3
f 8/8/8 5/5/5 6/6/6
f 141/141/141 5/5/5 8/8/8
f 7/7/7 141/141/141 8/8/8
f 140/140/140 141/141/141 7/7/7
f 138/138/138 121/121/121 11/11/11
f 12/12/12 138/138/138 11/11/11
f 137/137/137 138/138/138 12/12/12
f 9/9/9 137/137/137 12/12/12
f 17/17/17 18/18/18 15/15/15
f 14/14/14 17/17/17 15/15/15
f 16/16/16 17/17/17 14/14/14
f 13/13/13 16/16/16 14/14/14
f 20/20/20 19/19/19 146/146/146
f 21/21/21 19/19/19 20/20/20
f 23/23/23 22/22/22 147/147/147
f 24/24/24 22/22/22 23/23/23
f 29/29/29 30/30/30 27/27/27
f 26/26/26 29/29/29 27/27/27
f 28/28/28 29/29/29 26/26/26
f 25/25/25 28/28/28 26/26/26
f 32/32/32 31/31/31 148/148/148
f 33/33/33 31/31/31 32/32/32
f 35/35/35 34/34/34 149/149/149
f 36/36/36 34/34/34 35/35/35
f 40/40/40 41/41/41 39/39/39
f 37/37/37 41/41/41 40/40/40
f 38/38/38 37/37/37 40/40/40
f 45/45/45 46/46/46 44/44/44
f 42/42/42 46/46/46 45/45/45
f 43/43/43 42/42/42 45/45/45
f 49/49/49 47/47/47 48/48/48
f 50/50/50 47/47/47 49/49/49
f 54/54/54 151/151/151 150/150/150
f 52/52/52 54/54/54 150/150/150
f 53/53/53 54/54/54 52/52/52
f 51/51/51 53/53/53 52/52/52
f 57/57/57 55/55/55 56/56/56
f 58/58/58 55/55/55 57/57/57
f 61/61/61 60/60/60 62/62/62
f 59/59/59 60/60/60 61/61/61
f 152/152/152 59/59/59 61/61/61
f 61/61/61 62/62/62 63/63/63
f 71/71/71 73/73/73 72/72/72
f 68/68/68 71/71/71 72/72/72
f 70/70/70 71/71/71 68/68/68
f 69/69/69 70/70/70 68/68/68
f 67/67/67 70/70/70 69/69/69
f 64/64/64 67/67/67 69/69/69
f 66/66/66 67/67/67 64/64/64
f 65/65/65 66/66/66 64/64/64
f 76/76/76 74/74/74 75/75/75
f 77/77/77 74/74/74 76/76/76
f 81/81/81 78/78/78 82/82/82
f 79/79/79 78/78/78 81/81/81
f 83/83/83 79/79/79 81/81/81
f 80/80/80 81/81/81 82/82/82
f 86/86/86 85/85/85 123/123/123
f 84/84/84 85/85/85 86/86/86
f 89/89/89 87/87/87 88/88/88
f 90/90/90 87/87/87 89/89/89
f 91/91/91 90/90/90 89/89/89
f 92/92/92 91/91/91 89/89/89
f 93/93/93 96/96/96 94/94/94
f 95/95/95 96/96/96 93/93/93
f 99/99/99 97/97/97 100/100/100
f 98/98/98 97/97/97 99/99/99
f 101/101/101 98/98/98 99/99/99
f 102/102/102 101/101/101 99/99/99
f 95/95/95 153/153/153 104/104/104
f 103/103/103 153/153/153 95/95/95
f 106/106/106 107/107/107 108/108/108
f 105/105/105 107/107/107 106/106/106
f 110/110/110 109/109/109 139/139/139
f 111/111/111 109/109/109 110/110/110
f 113/113/113 112/112/112 122/122/122
f 114/114/114 112/112/112 113/113/113
f 117/117/117 119/119/119 118/118/118
f 116/116/116 119/119/119 117/117/117
f 115/115/115 116/116/116 117/117/117
f 120/120/120 116/116/116 115/115/115
f 126/126/126 124/124/124 125/125/125
f 127/127/127 124/124/124 126/126/126
f 130/130/130 128/128/128 129/129/129
f 131/131/131 128/128/128 130/130/130
f 134/134/134 132/132/132 133/133/133
f 135/135/135 132/132/132 134/134/134
f 136/136/136 121/121/121 138/138/138
f 10/10/10 121/121/121 136/136/136
f 144/144/144 142/142/142 143/143/143
f 145/145/145 142/142/142 144/144/144
