g C1_shadowTree_geo
v -68.04563 0.04186014 -194.2868
v -61.18393 0.04186014 -195.1138
v -68.87253 0.04186014 -201.1485
v -62.01082 0.04186014 -201.9754
v -30.04132 0.0413175 -202.4362
v -35.86872 0.0413175 -204.7849
v -31.97622 0.0413175 -195.3632
v -37.80364 0.0413175 -197.7117
v 57.84488 2.091914 -198.8879
v 53.45285 2.091914 -197.1703
v 59.35304 2.091914 -193.8863
v 54.96103 2.091914 -192.1689
v -28.27286 0.04608535 -208.7542
v -21.94504 0.04608535 -210.2235
v -29.74211 0.04608535 -215.0819
v -22.14586 0.04608535 -216.5512
v 36.74882 2.164684 -204.8934
v 31.85567 2.164684 -202.9799
v 38.42904 2.164684 -199.3213
v 33.53593 2.164684 -197.4077
v -7.01743 1.345692 -192.1663
v 1.0489 2.188944 -192.1662
v -7.01743 1.345692 -200.2162
v 1.0489 2.188944 -200.2162
vt 0 3.814697E-06
vt 1 3.814697E-06
vt 0 0.9999962
vt 1 0.9999962
vt 0 3.814697E-06
vt 1 3.814697E-06
vt 0 0.9999962
vt 1 0.9999962
vt 0 3.814697E-06
vt 1 3.814697E-06
vt 0 0.9999962
vt 1 0.9999962
vt 0 3.814697E-06
vt 1 3.814697E-06
vt 0 0.9999962
vt 1 0.9999962
vt 0 3.814697E-06
vt 1 3.814697E-06
vt 0 0.9999962
vt 1 0.9999962
vt 0 3.814697E-06
vt 1 3.814697E-06
vt 0 0.9999962
vt 1 0.9999962
vn 0 1 0
vn 0 1 0
vn 0 1 0
vn 0 1 0
vn 0 1 0
vn 0 1 0
vn 0 1 0
vn 0 1 0
vn 0 1 0
vn 0 1 0
vn 0 1 0
vn 0 1 0
vn 0 1 0
vn 0 1 0
vn 0 1 0
vn 0 1 0
vn 0 1 0
vn 0 1 0
vn 0 1 0
vn 0 1 0
vn -0.1039731 0.9945801 0
vn -0.1039731 0.9945801 0
vn -0.1039731 0.9945801 0
vn -0.1039731 0.9945801 0
g C1_shadowTree_geo_0
f 4/4/4 1/1/1 2/2/2
f 3/3/3 1/1/1 4/4/4
f 8/8/8 5/5/5 6/6/6
f 7/7/7 5/5/5 8/8/8
f 12/12/12 9/9/9 10/10/10
f 11/11/11 9/9/9 12/12/12
f 16/16/16 13/13/13 14/14/14
f 15/15/15 13/13/13 16/16/16
f 20/20/20 17/17/17 18/18/18
f 19/19/19 17/17/17 20/20/20
f 24/24/24 21/21/21 22/22/22
f 23/23/23 21/21/21 24/24/24
