g C1_screens_geo
v -47.46996 3.389494 -208.7031
v -47.46996 1.69694 -208.7031
v -51.72102 1.69694 -208.7031
v -51.72102 3.389494 -208.7031
v -52.1194 3.648285 -209.1728
v -52.1194 1.692244 -209.1728
v -52.1194 3.648284 -215.0469
v -52.1194 1.692604 -215.0469
vt 0.2794526 0.2236267
vt 0.2794526 0.5524788
vt 0.8812564 0.5524788
vt 0.8812564 0.2236267
vt 0.2009405 0.1147612
vt 0.5317771 0.1147635
vt 0.2009352 0.9016834
vt 0.5317719 0.9016856
vn 0 0 -1
vn 0 0 -1
vn 0 0 -1
vn 0 0 -1
vn 1 0 0
vn 1 0 0
vn 1 0 0
vn 1 0 0
g C1_screens_geo_0
f 3/3/3 1/1/1 2/2/2
f 4/4/4 1/1/1 3/3/3
g C1_screens_geo_1
f 6/6/6 7/7/7 5/5/5
f 8/8/8 7/7/7 6/6/6
