g C1_shadowPine_geo
v -48.79902 0.04186022 -194.8868
v -48.69251 0.04186022 -201.5327
v -55.44478 0.04186022 -194.9934
v -55.33824 0.04186022 -201.6391
v -42.63564 0.04186019 -193.8426
v -42.54597 0.04186019 -199.4389
v -48.23183 0.04186019 -193.9324
v -48.14213 0.04186019 -199.5285
v -0.5437366 1.828622 -212.3882
v -0.5100476 1.70806 -216.2093
v -4.349371 1.464781 -212.4102
v -4.315659 1.344218 -216.2314
v 44.64874 2.130494 -195.9256
v 44.7384 2.130494 -201.5219
v 39.05254 2.130494 -196.0154
v 39.14224 2.130494 -201.6116
v -27.41902 0.08687072 -208.3674
v -27.35264 0.08582824 -212.5108
v -31.56198 0.1519338 -208.4338
v -31.49555 0.1508909 -212.5773
vt 0 2.000004
vt 1 2.000004
vt 0 2.999996
vt 1 2.999996
vt 0 2.000004
vt 1 2.000004
vt 0 2.999996
vt 1 2.999996
vt 0 2.000004
vt 1 2.000004
vt 0 2.999996
vt 1 2.999996
vt 0 2.000004
vt 1 2.000004
vt 0 2.999996
vt 1 2.999996
vt 0 2.000004
vt 1 2.000004
vt 0 2.999996
vt 1 2.999996
vn 0 1 0
vn 0 1 0
vn 0 1 0
vn 0 1 0
vn 0 1 0
vn 0 1 0
vn 0 1 0
vn 0 1 0
vn -0.09493674 0.9949615 -0.03222974
vn -0.09493674 0.9949615 -0.03222974
vn -0.09493674 0.9949615 -0.03222974
vn -0.09493674 0.9949615 -0.03222974
vn 0 1 0
vn 0 1 0
vn 0 1 0
vn 0 1 0
vn 0.01570255 0.9998767 0
vn 0.01570255 0.9998767 0
vn 0.01570255 0.9998767 0
vn 0.01570255 0.9998767 0
g C1_shadowPine_geo_0
f 4/4/4 1/1/1 2/2/2
f 3/3/3 1/1/1 4/4/4
f 8/8/8 5/5/5 6/6/6
f 7/7/7 5/5/5 8/8/8
f 12/12/12 9/9/9 10/10/10
f 11/11/11 9/9/9 12/12/12
f 16/16/16 13/13/13 14/14/14
f 15/15/15 13/13/13 16/16/16
f 20/20/20 17/17/17 18/18/18
f 19/19/19 17/17/17 20/20/20
