g C2_detailGrass_geo
v 57.43158 2.125693 -162.3668
v 59.17872 2.125693 -163.0531
v 52.53199 2.125693 -162.9839
v 50.09912 2.125693 -165.486
v 51.16023 2.125693 -164.1143
v 49.20863 2.125693 -168.8094
v 49.4417 2.125693 -167.0908
v 50.09912 2.125693 -172.1328
v 49.4417 2.125693 -170.5279
v 52.532 2.125693 -174.5656
v 51.16023 2.125693 -173.5045
v 55.85536 2.125693 -175.4561
v 54.13683 2.125693 -175.223
v 59.17872 2.125693 -174.5656
v 57.57389 2.125693 -175.223
v 61.6116 2.125693 -172.1328
v 60.55049 2.125693 -173.5045
v 62.50209 2.125693 -168.8094
v 62.26902 2.125693 -170.5279
v 61.6116 2.125693 -165.486
v 62.26902 2.125693 -167.0908
v 60.55049 2.125693 -164.1143
v 69.09971 2.108701 -149.7162
v 69.09972 2.108701 -177.4554
v 48.68422 2.108705 -177.4554
v 48.68422 2.108705 -149.7162
v 48.68422 2.108705 -162.9836
v 48.68422 2.108705 -169.6136
v 48.68422 2.108705 -159.1313
v 55.04203 2.125693 -159.1312
v 56.07912 2.108701 -149.7162
v 57.28921 2.125693 -159.1314
v 54.92912 2.125693 -154.8473
v 57.30428 2.125693 -154.8474
v 48.68422 -2.007082 -177.4554
v 48.68422 -2.007082 -169.6136
v 48.68422 -2.007082 -162.9836
v 48.68422 -2.007082 -159.1313
v 48.68422 -2.007082 -149.7162
v 48.68422 2.108705 -169.6136
v 48.68422 2.108705 -177.4554
v 48.68422 2.108705 -162.9836
v 48.68422 2.108705 -149.7162
v 48.68422 2.108705 -159.1313
vt 0.1964215 0.6381899
vt 0.1964215 0.6381899
vt 0.1964215 0.6381899
vt 0.1964215 0.6381899
vt 0.1964215 0.6381899
vt 0.1964215 0.6381899
vt 0.1964215 0.6381899
vt 0.1964215 0.6381899
vt 0.1964215 0.6381899
vt 0.1964215 0.6381899
vt 0.1964215 0.6381899
vt 0.1964215 0.6381899
vt 0.1964215 0.6381899
vt 0.1964215 0.6381899
vt 0.1964215 0.6381899
vt 0.1964215 0.6381899
vt 0.1964215 0.6381899
vt 0.1964215 0.6381899
vt 0.1964215 0.6381899
vt 0.1964215 0.6381899
vt 0.1964215 0.6381899
vt 0.1964215 0.6381899
vt 0.1964215 0.6381899
vt 0.1964215 0.6381899
vt 0.1964215 0.6381899
vt 0.1964215 0.6381899
vt 0.1964215 0.6381899
vt 0.1964215 0.6381899
vt 0.1964215 0.6381899
vt 0.1964215 0.6381899
vt 0.1964215 0.6381899
vt 0.1964215 0.63819
vt 0.1964215 0.6381899
vt 0.1964215 0.63819
vt 0.1964215 0.6381899
vt 0.1964215 0.6381899
vt 0.1964215 0.6381899
vt 0.1964215 0.6381899
vt 0.1964215 0.6381899
vt 0.1964215 0.6381899
vt 0.1964215 0.6381899
vt 0.1964215 0.6381899
vt 0.1964215 0.6381899
vt 0.1964215 0.6381899
vn 0 1 1.845904E-07
vn 0.0005549836 0.9999998 0.0004366082
vn -0.004414865 0.9999759 0.005357232
vn -0.006016233 0.9999762 0.003387115
vn -0.004742553 0.9999781 0.004639649
vn -0.02192376 0.9997596 9.874226E-05
vn -0.009942658 0.9999479 0.002302434
vn -0.003898063 0.9999901 -0.002155534
vn -0.007367825 0.9999715 -0.001646707
vn -0.001899255 0.9999926 -0.003350078
vn -0.002655584 0.9999931 -0.002635735
vn -5.600667E-05 0.9999806 -0.006230434
vn -0.001166777 0.999988 -0.004760284
vn 0.001122596 0.9999974 -0.002025843
vn 0.000804025 0.9999937 -0.003460183
vn 0.001610791 0.9999983 -0.0009262164
vn 0.001354201 0.9999982 -0.001370567
vn 0.002659413 0.9999965 6.414681E-05
vn 0.001972067 0.999998 -0.0005081517
vn 0.001040643 0.9999993 0.0005833887
vn 0.002279268 0.9999974 0.0003079592
vn 0.0007443256 0.9999995 0.0007382071
vn 0.001142412 0.9999992 0.0007268031
vn 0.001542267 0.9999967 -0.002083411
vn -0.006845202 0.999971 -0.003323061
vn -0.001877007 0.9999977 0.0009979906
vn -0.0123504 0.9999199 0.002776984
vn -0.03237835 0.9994758 0
vn -0.001877007 0.9999977 0.0009979906
vn -0.001877007 0.9999977 0.0009979906
vn -0.0004187367 0.9999979 0.002064598
vn 0.0005533868 0.9999995 0.0007951702
vn -0.0009384889 0.9999973 0.002154691
vn 0.0003103996 0.9999967 0.002597899
vn -1 0 0
vn -1 0 0
vn -1 0 0
vn -1 0 0
vn -1 0 0
vn -1 0 0
vn -1 0 0
vn -1 0 0
vn -1 0 0
vn -1 0 0
g C2_detailGrass_geo_0
f 27/27/27 4/4/4 7/7/7
f 5/5/5 4/4/4 27/27/27
f 3/3/3 5/5/5 27/27/27
f 26/26/26 30/30/30 29/29/29
f 33/33/33 30/30/30 26/26/26
f 31/31/31 33/33/33 26/26/26
f 34/34/34 33/33/33 31/31/31
f 32/32/32 34/34/34 31/31/31
f 23/23/23 20/20/20 22/22/22
f 2/2/2 23/23/23 22/22/22
f 32/32/32 23/23/23 2/2/2
f 1/1/1 32/32/32 2/2/2
f 36/36/36 37/37/37 42/42/42
f 40/40/40 36/36/36 42/42/42
f 35/35/35 36/36/36 40/40/40
f 41/41/41 35/35/35 40/40/40
f 38/38/38 43/43/43 44/44/44
f 39/39/39 43/43/43 38/38/38
f 24/24/24 19/19/19 18/18/18
f 21/21/21 24/24/24 18/18/18
f 23/23/23 24/24/24 21/21/21
f 20/20/20 23/23/23 21/21/21
f 24/24/24 16/16/16 19/19/19
f 17/17/17 16/16/16 24/24/24
f 14/14/14 17/17/17 24/24/24
f 24/24/24 15/15/15 14/14/14
f 12/12/12 15/15/15 24/24/24
f 25/25/25 12/12/12 24/24/24
f 13/13/13 12/12/12 25/25/25
f 10/10/10 13/13/13 25/25/25
f 25/25/25 11/11/11 10/10/10
f 8/8/8 11/11/11 25/25/25
f 9/9/9 8/8/8 25/25/25
f 6/6/6 27/27/27 7/7/7
f 28/28/28 27/27/27 6/6/6
f 25/25/25 28/28/28 6/6/6
f 32/32/32 31/31/31 23/23/23
f 9/9/9 25/25/25 6/6/6
