g C2_detailGravel_geo
v 32.68049 2.108705 -159.3745
v 18.47139 2.140905 -158.1732
v 4.758177 2.126241 -155.087
v -16.99179 2.115248 -155.2157
v -19.8608 1.253113 -155.2151
v -22.42146 0.006542203 -155.2146
v -25.53495 0.006542969 -155.2137
v -27.7936 0.3960547 -155.2137
v -31.25498 1.248655 -155.2137
v -44.98581 1.297197 -156.1071
v -53.05241 1.33304 -156.1566
v -62.19455 1.387875 -157.2321
v -65.01009 1.365214 -159.4648
v -65.49993 1.34325 -157.0426
v -63.78447 1.324776 -155.5499
v -54.03305 1.33304 -153.6234
v -46.51065 1.290778 -153.6234
v -31.79425 1.254511 -152.4383
v -28.2521 0.3960547 -152.4417
v -25.74875 0.07554984 -152.3186
v -22.96208 0.100658 -151.6533
v -20.31829 1.272705 -152.0821
v -17.36641 2.148717 -152.8155
v 4.520442 2.140905 -152.3546
v 32.68049 2.108705 -157.4147
v 18.00879 2.125481 -155.5555
v -65.49546 1.339898 -157.0667
v -63.77209 1.332097 -155.5685
v -54.03022 1.33304 -153.6638
v -46.5184 1.290778 -153.6562
v -31.7941 1.254511 -152.4764
v -28.24746 0.3960547 -152.4732
v -25.7451 0.07554984 -152.3434
v -22.95665 0.100658 -151.6821
v -20.3179 1.272705 -152.1066
v -17.37015 2.148717 -152.8458
v 4.518687 2.140905 -152.3831
v 18.00872 2.125854 -155.5793
v 32.68049 2.108705 -157.4368
v -65.0153 1.365214 -159.4406
v -62.2034 1.387534 -157.2077
v -53.05335 1.33304 -156.1236
v -44.98778 1.297197 -156.0878
v -31.26398 1.254511 -155.1798
v -27.79657 0.3960547 -155.1768
v -25.54192 0.006542971 -155.1654
v -22.43048 0.006542209 -155.181
v -19.86843 1.253113 -155.183
v -16.99197 2.115248 -155.1848
v 4.762108 2.126241 -155.0644
v 18.46969 2.140648 -158.1559
v 32.68049 2.108705 -159.3618
v -29.58712 0.655459 -65.74808
v -29.77663 0.845458 -74.75758
v -29.4093 1.138213 -81.96516
v -29.44255 1.242812 -91.21855
v -31.60171 0.8513828 -91.21854
v -31.84414 0.6354248 -82.68593
v -33.02005 0.04180199 -71.69434
v -32.88705 0.01 -66.28865
v -31.57841 0.8587897 -91.21854
v -31.81116 0.6476403 -82.67593
v -32.98739 0.06739293 -71.70406
v -32.84641 0.02474746 -66.2763
v -29.62381 0.6404883 -65.75209
v -29.81643 0.8194798 -74.76247
v -29.43758 1.125813 -81.97182
v -29.46335 1.235293 -91.21855
v -63.77209 1.332097 -155.5685
v -65.49546 1.339898 -157.0667
v -62.2034 1.387534 -157.2077
v -65.0153 1.365214 -159.4406
v -53.05335 1.33304 -156.1236
v -54.03022 1.33304 -153.6638
v -44.98778 1.297197 -156.0878
v -46.5184 1.290778 -153.6562
v -31.26398 1.254511 -155.1798
v -31.7941 1.254511 -152.4764
v -27.79657 0.3960547 -155.1768
v -28.24746 0.3960547 -152.4732
v -25.54192 0.006542971 -155.1654
v -25.7451 0.07554984 -152.3434
v -22.43048 0.006542209 -155.181
v -22.95665 0.100658 -151.6821
v -19.86843 1.253113 -155.183
v -20.3179 1.272705 -152.1066
v -16.99197 2.115248 -155.1848
v -17.37015 2.148717 -152.8458
v 4.762108 2.126241 -155.0644
v 4.518687 2.140905 -152.3831
v 18.46969 2.140648 -158.1559
v 18.00872 2.125854 -155.5793
v 32.68049 2.108705 -159.3618
v 32.68049 2.108705 -157.4368
v -31.81116 0.6476403 -82.67593
v -31.57841 0.8587897 -91.21854
v -32.98739 0.06739293 -71.70406
v -32.84641 0.02474746 -66.2763
v -29.62381 0.6404883 -65.75209
v -29.81643 0.8194798 -74.76247
v -29.43758 1.125813 -81.97182
v -29.46335 1.235293 -91.21855
vt 3.501773E-07 1
vt 2.607703E-07 1
vt 2.980232E-08 1
vt 2.980232E-08 1
vt 3.72529E-08 1
vt 3.72529E-08 1
vt 2.980232E-08 1
vt 2.980232E-08 1
vt 2.980232E-08 1
vt 5.215406E-08 1
vt 1.043081E-07 1
vt 1.862645E-07 1
vt 3.576279E-07 1
vt 4.097819E-07 1
vt 2.942979E-07 1
vt 1.508743E-07 1
vt 1.508743E-07 1
vt 6.053597E-08 1
vt 6.053597E-08 1
vt 5.122274E-08 1
vt 7.712515E-10 1
vt 3.352761E-08 1
vt 8.940697E-08 1
vt 5.401671E-08 1
vt 4.395843E-07 1
vt 2.980232E-07 1
vt 4.135072E-07 1
vt 3.017485E-07 1
vt 1.545995E-07 1
vt 1.545995E-07 1
vt 6.61239E-08 1
vt 6.61239E-08 1
vt 5.681068E-08 1
vt 7.334165E-09 1
vt 3.911555E-08 1
vt 9.313226E-08 1
vt 5.960464E-08 1
vt 3.017485E-07 0.9999999
vt 4.433095E-07 1
vt 3.576279E-07 1
vt 1.862645E-07 1
vt 9.685755E-08 1
vt 5.215406E-08 1
vt 2.980232E-08 1
vt 3.72529E-08 1
vt 2.980232E-08 1
vt 2.980232E-08 1
vt 2.980232E-08 1
vt 2.980232E-08 1
vt 2.235174E-08 1
vt 2.533197E-07 1
vt 3.427267E-07 1
vt 0 1
vt 0 1
vt 0 1
vt 0 1
vt 0 1
vt 0 1
vt 0 1
vt 0 1
vt 0.785276 0.8811167
vt 0.785276 0.8811167
vt 0.785276 0.8811167
vt 0.785276 0.8811167
vt 0.7852761 0.8811167
vt 0.785276 0.8811167
vt 0.785276 0.8811167
vt 0.785276 0.8811167
vt 0.785276 0.8811167
vt 0.785276 0.8811167
vt 0.785276 0.8811167
vt 0.785276 0.8811166
vt 0.7852759 0.8811167
vt 0.785276 0.8811167
vt 0.785276 0.8811167
vt 0.785276 0.8811167
vt 0.785276 0.8811167
vt 0.785276 0.8811167
vt 0.785276 0.8811167
vt 0.785276 0.8811167
vt 0.785276 0.8811167
vt 0.785276 0.8811167
vt 0.785276 0.8811167
vt 0.785276 0.8811167
vt 0.785276 0.8811167
vt 0.785276 0.8811167
vt 0.785276 0.8811167
vt 0.785276 0.8811167
vt 0.785276 0.8811167
vt 0.785276 0.8811167
vt 0.7852759 0.8811166
vt 0.785276 0.8811167
vt 0.785276 0.8811167
vt 0.785276 0.8811167
vt 0 1
vt 0 1
vt 0 1
vt 0 1
vt 0 1
vt 0 1
vt 0 1
vt 0 1
vn 0.002265924 0.9999975 0
vn 0.002712429 0.999945 0.01012928
vn 7.702373E-05 0.9999926 0.003843554
vn -0.1457036 0.989328 -0.0008259012
vn -0.3377707 0.9394398 -0.05799792
vn -0.2971214 0.9518713 -0.07523179
vn 0.05683888 0.9983497 0.008200428
vn 0.1931392 0.9809841 0.01917097
vn 0.1656114 0.9825808 -0.08430714
vn 0.007307127 0.9984307 -0.05552138
vn 0.005210706 0.9999864 0.0002082797
vn -0.002883204 0.9999797 0.005685267
vn -0.00686675 0.9999753 -0.001485739
vn -0.047853 0.9968253 0.0636351
vn -0.1330153 0.9491504 0.2853428
vn -0.02026469 0.9936671 0.1105223
vn 0.004066812 0.9999917 -0.0004828645
vn 0.08067778 0.9967403 0.0001189929
vn 0.1991341 0.9798065 0.01802156
vn 0.05882239 0.9982318 0.00855149
vn -0.2165688 0.9754128 -0.04083763
vn -0.3700216 0.9285439 -0.02983615
vn -0.1892001 0.9818882 0.009946179
vn 0.0006143262 0.9999999 -4.234153E-05
vn 0.002146017 0.9999672 0.007814541
vn 0.003021866 0.9999413 0.01040038
vn 0.02641126 0.9992085 -0.02974513
vn -0.0301285 0.9959427 0.08479673
vn 0.002237713 0.9999764 0.006502071
vn 0.003797392 0.9999912 0.00178113
vn 0.1197016 0.9927046 0.01445903
vn 0.1816315 0.9829141 0.02982995
vn 0.08231828 0.996606 0.000347087
vn -0.1837785 0.9824125 -0.03303265
vn -0.3542058 0.9346687 -0.03053899
vn -0.1446009 0.9893754 -0.0150674
vn 0.001049614 0.9999982 -0.001605592
vn 0.001852694 0.9999787 0.006275865
vn 0.001785272 0.9999964 0.002029462
vn -0.01192364 0.9999166 0.004975892
vn -0.006386135 0.9998832 0.0138906
vn 0.005046392 0.9999781 0.004296462
vn 0.003432299 0.9999919 0.002115435
vn 0.123668 0.9918457 -0.03079644
vn 0.1978574 0.9802244 -0.003542273
vn 0.08483052 0.9963865 -0.00421527
vn -0.2202023 0.9741032 -0.05132164
vn -0.3637995 0.9281939 -0.07814096
vn -0.1244188 0.9919951 -0.02157962
vn -0.0003843671 0.9999995 -0.0009918495
vn 0.001550211 0.9999738 0.007072998
vn 0.002684732 0.9999834 0.00508824
vn -0.4667054 0.8839709 0.02795661
vn -0.5018452 0.8647795 0.01754449
vn -0.4043198 0.9145082 0.01414935
vn -0.3721624 0.9280908 0.01194309
vn -0.3028606 0.9529086 0.01551137
vn -0.4105814 0.9118139 0.004275746
vn -0.5319332 0.8467767 0.004045743
vn -0.3447976 0.9385725 0.01400502
vn -0.2771413 0.9606916 0.01626372
vn -0.2485526 0.9684178 0.01971499
vn -0.3722802 0.928029 0.01302141
vn -0.3896193 0.920827 0.01656488
vn -0.2606021 0.9652159 0.0210912
vn -0.3540429 0.9348989 0.02485412
vn -0.3535209 0.9353041 0.01514027
vn -0.2393925 0.9708124 0.01463892
vn -0.0301285 0.9959427 0.08479673
vn 0.02641126 0.9992085 -0.02974513
vn -0.006386135 0.9998832 0.0138906
vn -0.01192364 0.9999166 0.004975892
vn 0.005046392 0.9999781 0.004296462
vn 0.002237713 0.9999764 0.006502071
vn 0.003432299 0.9999919 0.002115435
vn 0.003797392 0.9999912 0.00178113
vn 0.123668 0.9918457 -0.03079644
vn 0.1197016 0.9927046 0.01445903
vn 0.1978574 0.9802244 -0.003542273
vn 0.1816315 0.9829141 0.02982995
vn 0.08483052 0.9963865 -0.00421527
vn 0.08231828 0.996606 0.000347087
vn -0.2202023 0.9741032 -0.05132164
vn -0.1837785 0.9824125 -0.03303265
vn -0.3637995 0.9281939 -0.07814096
vn -0.3542058 0.9346687 -0.03053899
vn -0.1244188 0.9919951 -0.02157962
vn -0.1446009 0.9893754 -0.0150674
vn -0.0003843671 0.9999995 -0.0009918495
vn 0.001049614 0.9999982 -0.001605592
vn 0.001550211 0.9999738 0.007072998
vn 0.001852694 0.9999787 0.006275865
vn 0.002684732 0.9999834 0.00508824
vn 0.001785272 0.9999964 0.002029462
vn -0.2485526 0.9684178 0.01971499
vn -0.2771413 0.9606916 0.01626372
vn -0.3722802 0.928029 0.01302141
vn -0.3896193 0.920827 0.01656488
vn -0.2606021 0.9652159 0.0210912
vn -0.3540429 0.9348989 0.02485412
vn -0.3535209 0.9353041 0.01514027
vn -0.2393925 0.9708124 0.01463892
g C2_detailGravel_geo_0
f 12/12/12 41/41/41 42/42/42
f 40/40/40 41/41/41 12/12/12
f 13/13/13 40/40/40 12/12/12
f 2/2/2 52/52/52 1/1/1
f 51/51/51 52/52/52 2/2/2
f 3/3/3 51/51/51 2/2/2
f 50/50/50 51/51/51 3/3/3
f 49/49/49 50/50/50 3/3/3
f 28/28/28 15/15/15 16/16/16
f 14/14/14 15/15/15 28/28/28
f 27/27/27 14/14/14 28/28/28
f 38/38/38 25/25/25 39/39/39
f 26/26/26 25/25/25 38/38/38
f 37/37/37 26/26/26 38/38/38
f 24/24/24 26/26/26 37/37/37
f 36/36/36 24/24/24 37/37/37
f 23/23/23 24/24/24 36/36/36
f 35/35/35 23/23/23 36/36/36
f 22/22/22 23/23/23 35/35/35
f 34/34/34 22/22/22 35/35/35
f 21/21/21 22/22/22 34/34/34
f 20/20/20 21/21/21 34/34/34
f 71/71/71 69/69/69 74/74/74
f 70/70/70 69/69/69 71/71/71
f 72/72/72 70/70/70 71/71/71
f 91/91/91 94/94/94 93/93/93
f 92/92/92 94/94/94 91/91/91
f 89/89/89 92/92/92 91/91/91
f 90/90/90 92/92/92 89/89/89
f 87/87/87 90/90/90 89/89/89
f 88/88/88 90/90/90 87/87/87
f 85/85/85 88/88/88 87/87/87
f 86/86/86 88/88/88 85/85/85
f 83/83/83 86/86/86 85/85/85
f 84/84/84 86/86/86 83/83/83
f 81/81/81 84/84/84 83/83/83
f 82/82/82 84/84/84 81/81/81
f 79/79/79 82/82/82 81/81/81
f 80/80/80 82/82/82 79/79/79
f 77/77/77 80/80/80 79/79/79
f 78/78/78 80/80/80 77/77/77
f 75/75/75 78/78/78 77/77/77
f 76/76/76 78/78/78 75/75/75
f 73/73/73 76/76/76 75/75/75
f 74/74/74 76/76/76 73/73/73
f 71/71/71 74/74/74 73/73/73
f 62/62/62 67/67/67 68/68/68
f 66/66/66 67/67/67 62/62/62
f 63/63/63 66/66/66 62/62/62
f 65/65/65 66/66/66 63/63/63
f 64/64/64 65/65/65 63/63/63
f 61/61/61 62/62/62 68/68/68
f 58/58/58 96/96/96 57/57/57
f 95/95/95 96/96/96 58/58/58
f 97/97/97 95/95/95 58/58/58
f 59/59/59 97/97/97 58/58/58
f 98/98/98 97/97/97 59/59/59
f 60/60/60 98/98/98 59/59/59
f 101/101/101 55/55/55 56/56/56
f 54/54/54 55/55/55 101/101/101
f 100/100/100 54/54/54 101/101/101
f 53/53/53 54/54/54 100/100/100
f 99/99/99 53/53/53 100/100/100
f 56/56/56 102/102/102 101/101/101
f 49/49/49 3/3/3 4/4/4
f 5/5/5 49/49/49 4/4/4
f 48/48/48 49/49/49 5/5/5
f 6/6/6 48/48/48 5/5/5
f 47/47/47 48/48/48 6/6/6
f 7/7/7 47/47/47 6/6/6
f 46/46/46 47/47/47 7/7/7
f 8/8/8 46/46/46 7/7/7
f 45/45/45 46/46/46 8/8/8
f 9/9/9 45/45/45 8/8/8
f 44/44/44 45/45/45 9/9/9
f 10/10/10 44/44/44 9/9/9
f 43/43/43 44/44/44 10/10/10
f 11/11/11 43/43/43 10/10/10
f 42/42/42 43/43/43 11/11/11
f 12/12/12 42/42/42 11/11/11
f 20/20/20 34/34/34 33/33/33
f 32/32/32 20/20/20 33/33/33
f 19/19/19 20/20/20 32/32/32
f 31/31/31 19/19/19 32/32/32
f 18/18/18 19/19/19 31/31/31
f 30/30/30 18/18/18 31/31/31
f 17/17/17 18/18/18 30/30/30
f 29/29/29 17/17/17 30/30/30
f 16/16/16 17/17/17 29/29/29
f 28/28/28 16/16/16 29/29/29
