g C2_shadowTree_geo
v -44.09525 1.435829 -172.1106
v -50.79738 1.530511 -174.336
v -46.32062 1.280572 -165.4084
v -53.02281 1.318519 -167.6339
v -62.61163 0.242807 -176.5193
v -66.84253 1.204452 -174.8649
v -61.15876 1.479492 -171.7018
v -65.38969 1.455294 -170.0473
v 28.12497 2.140905 -151.2934
v 34.67021 2.140905 -151.1885
v 28.22986 2.140905 -157.8386
v 34.77509 2.140905 -157.7337
v -34.0232 1.338269 -163.1336
v -24.35662 0.1339969 -163.1336
v -34.0232 1.405049 -171.5794
v -24.35662 -0.003118882 -171.5794
v -62.80653 1.476137 -156.7162
v -54.22854 1.285668 -158.708
v -64.79819 1.427781 -165.2941
v -54.50082 1.372741 -167.2859
v -7.768864 2.126409 -151.4782
v -15.11429 2.126409 -153.8758
v -10.20781 2.157563 -144.2571
v -17.55324 2.157564 -146.6549
v 77.14931 0.03219958 -159.6254
v 70.60408 0.03219958 -159.7466
v 77.04436 0.03219958 -152.0608
v 70.49915 0.03219958 -152.182
v 32.13229 2.140905 -122.0801
v 32.24749 2.140905 -129.2705
v 24.94182 2.140905 -122.1954
v 25.05703 2.140905 -129.3858
v 26.8011 2.1168 -173.4603
v 19.79756 2.1168 -173.4603
v 26.8011 2.1168 -166.1794
v 19.79756 2.1168 -166.1794
v -65.11046 1.479798 -141.083
v -57.00009 1.479798 -141.083
v -65.11046 1.479798 -149.1329
v -57.00009 1.479798 -149.1329
v -10.09108 1.968665 -165.1022
v -16.57632 0.850123 -167.2225
v -12.27821 2.204229 -158.5516
v -18.76337 1.117538 -160.6718
v 7.631062 2.128919 -166.7706
v 0.6275174 2.211364 -166.7706
v 7.631062 2.128919 -161.1599
v 0.6275174 2.211364 -161.1599
v 8.331494 2.117379 -167.9697
v 14.65932 2.117379 -169.4389
v 6.862256 2.117379 -174.2974
v 14.45845 2.117378 -175.7667
v -32.01315 1.039036 -161.2071
v -39.01664 1.151394 -161.2071
v -32.01315 1.354541 -153.9262
v -39.01664 1.367159 -153.9262
v 7.73217 2.122082 -145.301
v 2.328117 2.16235 -147.479
v 5.937804 2.122082 -138.7419
v 0.5337617 2.16235 -140.9198
v 51.05199 0.04457906 -136.3272
v 55.06358 0.04457906 -129.379
v 56.61838 0.04457905 -139.541
v 60.62997 0.04457905 -132.5927
v 21.14976 2.012501 -163.0338
v 21.14975 2.012501 -167.4825
v 13.75325 2.012501 -163.0338
v 13.75325 2.012501 -167.4825
v 11.24102 2.148366 -122.9032
v 11.24102 2.148366 -132.2684
v 0.4177322 2.148366 -122.9032
v 0.4177322 2.148366 -132.2684
v 13.47201 2.137712 -125.8169
v 7.713691 2.137712 -125.8169
v 13.47201 2.137712 -120.4053
v 7.713691 2.137712 -120.4053
v -35.20123 0.1322027 -115.9254
v -30.86463 0.9134 -115.9254
v -35.20123 0.2119479 -121.8776
v -30.86463 0.6184087 -121.8776
v 62.28749 0.0659314 -144.64
v 62.28749 0.0659314 -149.0887
v 54.89096 0.0659314 -144.64
v 54.89096 0.0659314 -149.0887
v 2.395691 2.211442 -59.30727
v 2.561355 2.211442 -69.64732
v -7.944241 2.211442 -59.47303
v -7.778518 2.211442 -69.81303
v 2.331325 2.161029 -118.5347
v 8.948435 2.161029 -118.5347
v 2.331325 2.161029 -124.3162
v 8.948435 2.161029 -124.3162
v -57.60207 1.27651 -127.1151
v -62.12433 1.27651 -125.3466
v -56.04918 1.27651 -121.9652
v -60.57142 1.27651 -120.1968
v -47.56651 1.297237 -137.2842
v -40.61596 1.297237 -137.2842
v -47.56651 1.297237 -143.357
v -40.61596 1.297237 -143.357
v 27.68963 2.149831 -144.0059
v 19.16373 2.149831 -146.837
v 24.85871 2.149831 -135.4801
v 16.33279 2.149831 -138.3111
v -34.97082 0.8021318 -125.2327
v -43.62115 1.556128 -127.5366
v -37.31929 0.312225 -116.5754
v -45.96964 1.066216 -118.8792
v -60.15343 0.04536948 -80.75372
v -52.14869 0.04536948 -82.6124
v -62.01205 0.04536948 -88.75845
v -52.40275 0.04536948 -90.61713
v 21.50772 2.137078 -77.01499
v 29.51249 2.137078 -78.87366
v 19.64913 2.137078 -85.01964
v 29.25843 2.137078 -86.87831
v -81.8029 0.04687059 -51.95247
v -73.07401 0.04687059 -51.95247
v -81.8029 0.04687059 -59.57911
v -73.07401 0.04687059 -59.57911
v 0.4892702 2.127653 -92.34086
v -4.862908 2.127653 -90.24792
v 2.327161 2.127653 -86.24586
v -3.025017 2.127653 -84.15293
v -24.16466 0.9436015 -131.5665
v -29.73642 0.06470978 -131.7637
v -24.47422 1.172749 -125.4281
v -30.17634 0.1960381 -124.6662
v -27.54737 0.4882141 -132.028
v -28.12183 0.649561 -124.7449
v -4.558516 2.211442 -88.54529
v -2.587754 2.211442 -88.46387
v -4.591104 2.211443 -69.24232
v -2.626729 2.211443 -68.05379
v -4.594932 2.211443 -68.05383
v -2.606533 2.211443 -69.24232
v -4.509668 2.211442 -86.89925
v -2.587754 2.211442 -86.89925
v 10.44121 2.211443 -63.52924
v 12.08727 2.211443 -65.45305
v 12.00582 2.211443 -63.48234
v 10.44121 2.211443 -65.45117
v 2.111626 2.211442 -63.44762
v 0.4201367 2.211442 -91.0998
v 2.165962 2.211442 -91.0998
v 0.3999316 2.211443 -89.91132
v 2.162129 2.211443 -89.91132
v 0.2998438 2.211443 -64.97469
v 0.6714062 2.211442 -63.66902
v 2.502725 2.211443 -65.5235
v -56.0937 0.05231614 -79.86209
v -58.15948 0.05231614 -79.79414
v -55.96471 0.05231614 -51.2248
v -57.80375 0.05231614 -49.9774
v -57.94704 0.05231614 -81.81554
v -56.29176 0.05231614 -81.54033
v -56.70981 0.05231614 -49.98072
v -58.01105 0.05231614 -51.54652
v -5.395879 2.161029 -111.1988
v -5.314453 2.161029 -113.1695
v 4.259414 2.161029 -111.1884
v 5.447929 2.161029 -113.1527
v 5.447925 2.161029 -111.1845
v 4.259385 2.161029 -113.1729
v -3.749844 2.161029 -111.2477
v -3.749844 2.161029 -113.1695
v 14.33699 2.161029 -138.7366
v 12.36624 2.161029 -138.8181
v 14.3138 2.161029 -148.2817
v 12.34941 2.161029 -149.4703
v 14.31762 2.161029 -149.4703
v 12.32921 2.161029 -148.2817
v 14.28815 2.161029 -140.3827
v 12.36624 2.161029 -140.3827
v -50.13046 1.260808 -151.6217
v -50.2119 1.260808 -149.651
v -70.04762 1.260808 -151.5985
v -71.23615 1.260809 -149.6341
v -71.23613 1.260809 -151.6024
v -70.04762 1.260808 -149.614
v -51.77652 1.260808 -151.5729
v -51.77652 1.260808 -149.651
v -23.4705 0.9391053 -139.1208
v -23.73675 0.3962967 -145.1479
v -29.38095 0.2582977 -138.6563
v -29.6472 0.4479399 -144.6728
v -27.90928 0.1854794 -138.7914
v -27.038 0.1854794 -144.8582
v -63.91781 1.335892 -125.4849
v -70.08596 1.335892 -123.0729
v -61.79974 1.130239 -118.4607
v -67.96787 1.019373 -116.0487
v -69.3379 1.335892 -120.5921
v -62.43981 1.335892 -120.5834
v -27.85231 0.1144324 -163.1336
v -27.91894 0.3287411 -171.5794
v -31.32635 1.239952 -163.1336
v -31.39947 1.449018 -171.5794
v -24.11439 0.2394912 -145.1269
v -25.16108 0.3410241 -139.0201
v -26.37438 0.2458348 -144.9192
v -26.92514 0.3741682 -138.8433
v -39.01664 1.373652 -158.4296
v -32.01315 1.174603 -159.2041
v -33.75182 1.224019 -159.0118
v -33.05298 1.129266 -161.2071
v -32.01315 1.064596 -159.3012
v -33.72592 1.125827 -159.0932
v -39.01664 1.14787 -158.763
v -61.94764 1.517718 -174.3176
v -66.69974 1.518777 -174.3914
v -12.32767 1.677627 -165.8334
v -13.20086 2.168186 -158.8532
v -15.19144 1.096222 -166.7697
v -17.76066 1.18031 -160.3439
v -27.41042 0.3009312 -171.5794
v -25.70018 0.1250475 -163.1336
v -4.591104 2.211443 -69.24232
v -2.587754 2.211442 -86.89925
v -2.606533 2.211443 -69.24232
v -4.509668 2.211442 -86.89925
v 0.3999316 2.211443 -89.91132
v 2.162129 2.211443 -89.91132
v 2.502725 2.211443 -65.5235
v 0.2998438 2.211443 -64.97469
v 10.44121 2.211443 -65.45117
v 10.44121 2.211443 -63.52924
v 4.259414 2.161029 -111.1884
v -3.749844 2.161029 -113.1695
v 4.259385 2.161029 -113.1729
v -3.749844 2.161029 -111.2477
v 14.3138 2.161029 -148.2817
v 12.36624 2.161029 -140.3827
v 12.32921 2.161029 -148.2817
v 14.28815 2.161029 -140.3827
v -70.04762 1.260808 -151.5985
v -51.77652 1.260808 -149.651
v -70.04762 1.260808 -149.614
v -51.77652 1.260808 -151.5729
v -26.92514 0.3741682 -138.8433
v -26.37438 0.2458348 -144.9192
v -33.75182 1.224019 -159.0118
v -39.01664 1.373652 -158.4296
v -33.75182 1.224019 -159.0118
v -33.72592 1.125827 -159.0932
v -32.01315 1.174603 -159.2041
v -33.72592 1.125827 -159.0932
v -32.01315 1.064596 -159.3012
v -33.05298 1.129266 -161.2071
v -39.01664 1.14787 -158.763
v -33.72592 1.125827 -159.0932
v -66.69974 1.518777 -174.3914
v -61.94764 1.517718 -174.3176
v -12.32767 1.677627 -165.8334
v -13.20086 2.168186 -158.8532
v -15.19144 1.096222 -166.7697
v -17.76066 1.18031 -160.3439
v -25.70018 0.1250475 -163.1336
v -27.41042 0.3009312 -171.5794
vt 0 3.814697E-06
vt 1 3.814697E-06
vt 0 0.9999962
vt 1 0.9999962
vt 0 3.814697E-06
vt 1 3.814697E-06
vt 0 0.9999962
vt 1 0.9999962
vt 0 3.814697E-06
vt 1 3.814697E-06
vt 0 0.9999962
vt 1 0.9999962
vt 2.384186E-07 0
vt 1 0
vt 2.384186E-07 1
vt 1 1
vt 0 3.814697E-06
vt 1 3.814697E-06
vt 0 0.9999962
vt 1 0.9999962
vt 0 3.814697E-06
vt 1 3.814697E-06
vt 0 0.9999962
vt 1 0.9999962
vt 0 3.814697E-06
vt 1 3.814697E-06
vt 0 0.9999962
vt 1 0.9999962
vt 0 3.814697E-06
vt 1 3.814697E-06
vt 0 0.9999962
vt 1 0.9999962
vt 0 3.814697E-06
vt 1 3.814697E-06
vt 0 0.9999962
vt 1 0.9999962
vt 0 3.814697E-06
vt 1 3.814697E-06
vt 0 0.9999962
vt 1 0.9999962
vt 0 3.814697E-06
vt 1 3.814697E-06
vt 0 0.9999962
vt 1 0.9999962
vt 0 3.814697E-06
vt 1 3.814697E-06
vt 0 0.9999962
vt 1 0.9999962
vt 0 3.814697E-06
vt 1 3.814697E-06
vt 0 0.9999962
vt 1 0.9999962
vt 0 3.814697E-06
vt 1 3.814697E-06
vt 0 0.9999962
vt 1 0.9999962
vt 0 3.814697E-06
vt 1 3.814697E-06
vt 0 0.9999962
vt 1 0.9999962
vt 0 3.814697E-06
vt 1 3.814697E-06
vt 0 0.9999962
vt 1 0.9999962
vt 0 3.814697E-06
vt 1 3.814697E-06
vt 0 0.9999962
vt 1 0.9999962
vt 0 3.814697E-06
vt 1 3.814697E-06
vt 0 0.9999962
vt 1 0.9999962
vt 0 3.814697E-06
vt 1 3.814697E-06
vt 0 0.9999962
vt 1 0.9999962
vt 0 3.814697E-06
vt 1 3.814697E-06
vt 0 0.9999962
vt 1 0.9999962
vt 0 3.814697E-06
vt 1 3.814697E-06
vt 0 0.9999962
vt 1 0.9999962
vt 0 3.814697E-06
vt 1 3.814697E-06
vt 0 0.9999962
vt 1 0.9999962
vt 0 3.814697E-06
vt 1 3.814697E-06
vt 0 0.9999962
vt 1 0.9999962
vt 0 3.814697E-06
vt 1 3.814697E-06
vt 0 0.9999962
vt 1 0.9999962
vt 0 3.814697E-06
vt 1 3.814697E-06
vt 0 0.9999962
vt 1 0.9999962
vt 0 3.814697E-06
vt 1 3.814697E-06
vt 0 0.9999962
vt 1 0.9999962
vt 0 3.814697E-06
vt 1 3.814697E-06
vt 0 0.9999962
vt 1 0.9999962
vt 0 3.814697E-06
vt 1 3.814697E-06
vt 0 0.9999962
vt 1 0.9999962
vt 0 3.814697E-06
vt 1 3.814697E-06
vt 0 0.9999962
vt 1 0.9999962
vt 0 3.814697E-06
vt 1 3.814697E-06
vt 0 0.9999962
vt 1 0.9999962
vt 0 3.814697E-06
vt 1 3.814697E-06
vt 0 0.9999962
vt 1 0.9999962
vt 0 3.814697E-06
vt 1 3.814697E-06
vt 0 0.9999962
vt 1 0.9999962
vt 0.6344131 3.814697E-06
vt 0.73334 0.9999962
vt 0.2474039 0.05778908
vt 0.04892898 0.291035
vt 0.3658597 0.1544134
vt 0.04892898 0.291035
vt 0.2474039 0.05778908
vt 0.1673828 0.3876628
vt 0.3658597 0.1544134
vt 0.1673828 0.3876628
vt 0.1673828 0.3876628
vt 0.2474039 0.05778908
vt 0.04892898 0.291035
vt 0.3591556 0.1635555
vt 0.5 0.5
vt 0.04892898 0.291035
vt 0.2474039 0.05778908
vt 0.1673828 0.3876628
vt 0.3658597 0.1544134
vt 0.5 0.45
vt 0.5 0.5
vt 0.5 0.45
vt 0.5 0.5
vt 0.5 0.5
vt 0.5 0.5
vt 0.5 0.5
vt 0.5 0.5
vt 0.5 0.5
vt 0.5 0.5
vt 0.5 0.5
vt 0.2474039 0.05778908
vt 0.04892898 0.291035
vt 0.3658597 0.1544134
vt 0.04892898 0.291035
vt 0.2474039 0.05778908
vt 0.1673828 0.3876628
vt 0.3658597 0.1544134
vt 0.1673828 0.3876628
vt 0.2474039 0.05778908
vt 0.04892898 0.291035
vt 0.3658597 0.1544134
vt 0.04892898 0.291035
vt 0.2474039 0.05778908
vt 0.1673828 0.3876628
vt 0.3658597 0.1544134
vt 0.1673828 0.3876628
vt 0.2474039 0.05778908
vt 0.04892898 0.291035
vt 0.3658597 0.1544134
vt 0.04892898 0.291035
vt 0.2474039 0.05778908
vt 0.1673828 0.3876628
vt 0.3658597 0.1544134
vt 0.1673828 0.3876628
vt 0 3.814697E-06
vt 1 3.814697E-06
vt 0 0.9999962
vt 1 0.9999962
vt 0 0.7393994
vt 1 0.6016472
vt 0 3.814697E-06
vt 1 3.814697E-06
vt 0 0.9999962
vt 1 0.9999962
vt 1 0.3531772
vt 0 0.6978036
vt 0.6587894 0
vt 0.6576376 1
vt 0.3209774 0
vt 0.3086202 1
vt 1 0.02238999
vt 0 0.2261006
vt 1 0.4701637
vt 0 0.6228875
vt 1 0.3814774
vt 0 0.2751135
vt 0.2482584 0.3015192
vt 0.1484732 3.814697E-06
vt 0 0.2617729
vt 0.2445598 0.2903432
vt 1 0.3356924
vt 0 0.4570258
vt 1 0.09829044
vt 0.3448742 3.814697E-06
vt 0.1422708 0.9999962
vt 0.7864577 3.814697E-06
vt 0.8453836 0.9999962
vt 0.6840871 1
vt 0.8610099 0
vt 0.5 0.5
vt 0.5 0.5
vt 0.5 0.5
vt 0.5 0.5
vt 0.5 0.45
vt 0.5 0.45
vt 0.5 0.5
vt 0.5 0.5
vt 0.5 0.5
vt 0.5 0.5
vt 0.5 0.5
vt 0.5 0.5
vt 0.5 0.5
vt 0.5 0.5
vt 0.5 0.5
vt 0.5 0.5
vt 0.5 0.5
vt 0.5 0.5
vt 0.5 0.5
vt 0.5 0.5
vt 0.5 0.5
vt 0.5 0.5
vt 0 0.6228875
vt 1 0.4701637
vt 0.2482584 0.3015192
vt 1 0.3814774
vt 0.2482584 0.3015192
vt 0.2445598 0.2903432
vt 0 0.2751135
vt 0.2445598 0.2903432
vt 0 0.2617729
vt 0.1484732 3.814697E-06
vt 1 0.3356924
vt 0.2445598 0.2903432
vt 1 0.09829044
vt 0 0.4570258
vt 0.3448742 3.814697E-06
vt 0.1422708 0.9999962
vt 0.7864577 3.814697E-06
vt 0.8453836 0.9999962
vt 0.8610099 0
vt 0.6840871 1
vn 0.0007177324 0.9996181 0.0276258
vn 0.0007177324 0.9996181 0.0276258
vn 0.0007177324 0.9996181 0.0276258
vn 0.0007177324 0.9996181 0.0276258
vn 0.002163325 0.8594528 -0.5112104
vn 0.002163325 0.8594528 -0.5112104
vn -4.271328E-06 0.9998932 0.01461324
vn -4.271328E-06 0.9998932 0.01461324
vn 0 1 0
vn 0 1 0
vn 0 1 0
vn 0 1 0
vn 0.01021266 0.9998153 0.01628311
vn 0.06695736 0.9977457 -0.004489381
vn 0.01021266 0.9998153 0.01628311
vn 0.06695736 0.9977457 -0.004489381
vn 0.01311666 0.9999138 0.0005257399
vn 0.01311666 0.9999138 0.0005257399
vn 0.01311666 0.9999138 0.0005257399
vn 0.01311666 0.9999138 0.0005257399
vn 0.001268482 0.9999917 -0.003885906
vn 0.001268482 0.9999917 -0.003885906
vn 0.001268482 0.9999917 -0.003885906
vn 0.001268482 0.9999917 -0.003885906
vn 0 1 0
vn 0 1 0
vn 0 1 0
vn 0 1 0
vn 0 1 0
vn 0 1 0
vn 0 1 0
vn 0 1 0
vn 0 1 0
vn 0 1 0
vn 0 1 0
vn 0 1 0
vn 0 1 0
vn 0 1 0
vn 0 1 0
vn 0 1 0
vn -0.07960638 0.9942688 -0.07136162
vn -0.1067623 0.9920914 -0.06600467
vn -0.07960638 0.9942688 -0.07136162
vn -0.1067623 0.9920914 -0.06600467
vn 0.011771 0.9999307 0
vn 0.011771 0.9999307 0
vn 0.011771 0.9999307 0
vn 0.011771 0.9999307 0
vn 0 1 0
vn 0 1 0
vn 0 1 0
vn 0 1 0
vn 0.05522291 0.9984669 0.003750286
vn 0.003986899 0.9999899 0.002116224
vn 0.01412742 0.999743 -0.01772789
vn 0.01412742 0.999743 -0.01772789
vn 0.006711317 0.9999758 0.001835944
vn 0.006711317 0.9999758 0.001835944
vn 0.006711317 0.9999758 0.001835944
vn 0.006711317 0.9999758 0.001835944
vn 0 1 0
vn 0 1 0
vn 0 1 0
vn 0 1 0
vn 0 1 0
vn 0 1 0
vn 0 1 0
vn 0 1 0
vn 0 1 0
vn 0 1 0
vn 0 1 0
vn 0 1 0
vn 0 1 0
vn 0 1 0
vn 0 1 0
vn 0 1 0
vn -0.1356467 0.9905953 -0.01791125
vn -0.1356467 0.9905953 -0.01791125
vn -0.1356467 0.9905953 -0.01791125
vn -0.1356467 0.9905953 -0.01791125
vn 0 1 0
vn 0 1 0
vn 0 1 0
vn 0 1 0
vn 0 1 0
vn 0 1 0
vn 0 1 0
vn 0 1 0
vn 0 1 0
vn 0 1 0
vn 0 1 0
vn 0 1 0
vn 0 1 0
vn 0 1 0
vn 0 1 0
vn 0 1 0
vn 0 1 0
vn 0 1 0
vn 0 1 0
vn 0 1 0
vn 0 1 0
vn 0 1 0
vn 0 1 0
vn 0 1 0
vn 0.06689663 0.9949782 0.07445176
vn 0.06689663 0.9949782 0.07445176
vn 0.06689663 0.9949782 0.07445176
vn 0.06689663 0.9949782 0.07445176
vn 0 1 0
vn 0 1 0
vn 0 1 0
vn 0 1 0
vn 0 1 0
vn 0 1 0
vn 0 1 0
vn 0 1 0
vn 0 1 0
vn 0 1 0
vn 0 1 0
vn 0 1 0
vn 0 1 0
vn 0 1 0
vn 0 1 0
vn 0 1 0
vn -0.1389384 0.9895739 -0.0379426
vn -0.2049387 0.9781714 -0.03436358
vn -0.1389384 0.9895739 -0.0379426
vn -0.2049387 0.9781714 -0.03436358
vn -0.1720353 0.9844263 -0.03617343
vn -0.1720353 0.9844263 -0.03617343
vn 0 1 0
vn 0 1 0
vn 0 1 -1.41012E-07
vn 0 1 -2.650345E-07
vn 0 1 -2.650345E-07
vn 0 1 -1.41012E-07
vn 0 1 0
vn 0 1 0
vn -1.043808E-07 1 0
vn -1.900451E-07 1 0
vn -1.900451E-07 1 0
vn -1.043808E-07 1 0
vn 0 1 1.750304E-07
vn 0 1 -3.996591E-07
vn 0 1 -3.996591E-07
vn 0 1 -1.998296E-07
vn 0 1 -1.998296E-07
vn 0 1 0
vn 0 1 2.220933E-07
vn 0 1 1.350729E-07
vn 0 1 0
vn 0 1 0
vn 0 1 0
vn 0 1 0
vn 0 1 0
vn 0 1 0
vn 0 1 0
vn 0 1 0
vn 0 1 0
vn 0 1 0
vn 0 1 0
vn 0 1 0
vn 0 1 0
vn 0 1 0
vn 0 1 0
vn 0 1 0
vn 0 1 0
vn 0 1 0
vn 0 1 0
vn 0 1 0
vn 0 1 0
vn 0 1 0
vn 0 1 0
vn 0 1 0
vn 0 1 0
vn 0 1 0
vn 0 1 0
vn 0 1 0
vn 0 1 0
vn 0 1 0
vn 0 1 0
vn 0 1 0
vn -0.3457162 0.935579 -0.07191759
vn -0.3457162 0.935579 -0.07191759
vn 0.08341256 0.9963181 0.01981332
vn 0.08341256 0.9963181 0.01981332
vn -0.03417572 0.9994069 -0.004202703
vn -0.03417572 0.9994069 -0.004202703
vn 0 1 0
vn 0 1 0
vn 0.005594646 0.9970604 0.07641541
vn 0.005594646 0.9970604 0.07641541
vn 0.002799381 0.9992648 0.03823581
vn 0.002799381 0.9992648 0.03823581
vn 0.1586967 0.9870797 0.0221171
vn 0.1586967 0.9870797 0.0221171
vn 0.1605493 0.9868447 0.01901016
vn 0.1605493 0.9868447 0.01901016
vn -0.1716646 0.9840986 -0.04561985
vn -0.1716646 0.9840986 -0.04561985
vn 0.008110324 0.9998087 -0.01780115
vn 0.008110324 0.9998087 -0.01780115
vn -0.0405132 0.7861835 -0.6166638
vn 0.01412742 0.999743 -0.01772789
vn -0.0405132 0.7861835 -0.6166638
vn 0.05522291 0.9984669 0.003750286
vn -0.06765906 0.6445608 -0.7615535
vn -0.0405132 0.7861835 -0.6166638
vn -0.0405132 0.7861835 -0.6166638
vn -4.271328E-06 0.9998932 0.01461324
vn -4.271328E-06 0.9998932 0.01461324
vn -0.07960638 0.9942688 -0.07136162
vn -0.07960638 0.9942688 -0.07136162
vn -0.1784531 0.9800205 -0.08783151
vn -0.1784531 0.9800205 -0.08783151
vn 0.06695736 0.9977457 -0.004489381
vn 0.06695736 0.9977457 -0.004489381
vn 0 1 -1.41012E-07
vn 0 1 0
vn 0 1 -1.41012E-07
vn 0 1 0
vn 0 1 -1.998296E-07
vn 0 1 -1.998296E-07
vn 0 1 1.350729E-07
vn 0 1 0
vn -1.043808E-07 1 0
vn -1.043808E-07 1 0
vn 0 1 0
vn 0 1 0
vn 0 1 0
vn 0 1 0
vn 0 1 0
vn 0 1 0
vn 0 1 0
vn 0 1 0
vn 0 1 0
vn 0 1 0
vn 0 1 0
vn 0 1 0
vn -0.1512714 0.9880911 -0.02815815
vn -0.1512714 0.9880911 -0.02815815
vn 0.01412742 0.999743 -0.01772789
vn 0.01412742 0.999743 -0.01772789
vn -0.06765906 0.6445608 -0.7615535
vn -0.06765906 0.6445608 -0.7615535
vn -0.06765906 0.6445608 -0.7615535
vn 0.05522291 0.9984669 0.003750286
vn 0.05522291 0.9984669 0.003750286
vn 0.003986899 0.9999899 0.002116224
vn 0.003986899 0.9999899 0.002116224
vn 0.003986899 0.9999899 0.002116224
vn 0.002163325 0.8594528 -0.5112104
vn 0.002163325 0.8594528 -0.5112104
vn -0.1784531 0.9800205 -0.08783151
vn -0.1784531 0.9800205 -0.08783151
vn -0.1067623 0.9920914 -0.06600467
vn -0.1067623 0.9920914 -0.06600467
vn 0.006460791 0.9997279 0.02241386
vn 0.006460791 0.9997279 0.02241386
g C2_shadowTree_geo_0
f 4/4/4 1/1/1 2/2/2
f 3/3/3 1/1/1 4/4/4
f 8/8/8 210/210/210 211/211/211
f 7/7/7 210/210/210 8/8/8
f 12/12/12 9/9/9 10/10/10
f 11/11/11 9/9/9 12/12/12
f 196/196/196 195/195/195 258/258/258
f 197/197/197 195/195/195 196/196/196
f 198/198/198 197/197/197 196/196/196
f 13/13/13 197/197/197 198/198/198
f 15/15/15 13/13/13 198/198/198
f 20/20/20 17/17/17 18/18/18
f 19/19/19 17/17/17 20/20/20
f 24/24/24 21/21/21 22/22/22
f 23/23/23 21/21/21 24/24/24
f 28/28/28 25/25/25 26/26/26
f 27/27/27 25/25/25 28/28/28
f 32/32/32 29/29/29 30/30/30
f 31/31/31 29/29/29 32/32/32
f 36/36/36 33/33/33 34/34/34
f 35/35/35 33/33/33 36/36/36
f 40/40/40 37/37/37 38/38/38
f 39/39/39 37/37/37 40/40/40
f 213/213/213 41/41/41 212/212/212
f 43/43/43 41/41/41 213/213/213
f 48/48/48 45/45/45 46/46/46
f 47/47/47 45/45/45 48/48/48
f 52/52/52 49/49/49 50/50/50
f 51/51/51 49/49/49 52/52/52
f 203/203/203 208/208/208 209/209/209
f 205/205/205 208/208/208 203/203/203
f 60/60/60 57/57/57 58/58/58
f 59/59/59 57/57/57 60/60/60
f 64/64/64 61/61/61 62/62/62
f 63/63/63 61/61/61 64/64/64
f 68/68/68 65/65/65 66/66/66
f 67/67/67 65/65/65 68/68/68
f 72/72/72 69/69/69 70/70/70
f 71/71/71 69/69/69 72/72/72
f 76/76/76 73/73/73 74/74/74
f 75/75/75 73/73/73 76/76/76
f 80/80/80 77/77/77 78/78/78
f 79/79/79 77/77/77 80/80/80
f 84/84/84 81/81/81 82/82/82
f 83/83/83 81/81/81 84/84/84
f 88/88/88 85/85/85 86/86/86
f 87/87/87 85/85/85 88/88/88
f 92/92/92 89/89/89 90/90/90
f 91/91/91 89/89/89 92/92/92
f 96/96/96 93/93/93 94/94/94
f 95/95/95 93/93/93 96/96/96
f 100/100/100 97/97/97 98/98/98
f 99/99/99 97/97/97 100/100/100
f 104/104/104 101/101/101 102/102/102
f 103/103/103 101/101/101 104/104/104
f 108/108/108 105/105/105 106/106/106
f 107/107/107 105/105/105 108/108/108
f 112/112/112 109/109/109 110/110/110
f 111/111/111 109/109/109 112/112/112
f 116/116/116 113/113/113 114/114/114
f 115/115/115 113/113/113 116/116/116
f 120/120/120 117/117/117 118/118/118
f 119/119/119 117/117/117 120/120/120
f 124/124/124 121/121/121 122/122/122
f 123/123/123 121/121/121 124/124/124
f 130/130/130 129/129/129 126/126/126
f 125/125/125 129/129/129 130/130/130
f 127/127/127 125/125/125 130/130/130
f 128/128/128 130/130/130 126/126/126
f 135/135/135 136/136/136 133/133/133
f 134/134/134 136/136/136 135/135/135
f 132/132/132 137/137/137 138/138/138
f 131/131/131 137/137/137 132/132/132
f 219/219/219 218/218/218 220/220/220
f 221/221/221 218/218/218 219/219/219
f 145/145/145 146/146/146 147/147/147
f 144/144/144 146/146/146 145/145/145
f 222/222/222 150/150/150 223/223/223
f 148/148/148 150/150/150 222/222/222
f 141/141/141 142/142/142 139/139/139
f 140/140/140 142/142/142 141/141/141
f 143/143/143 227/227/227 226/226/226
f 224/224/224 143/143/143 226/226/226
f 149/149/149 143/143/143 224/224/224
f 225/225/225 149/149/149 224/224/224
f 152/152/152 156/156/156 155/155/155
f 151/151/151 156/156/156 152/152/152
f 153/153/153 151/151/151 152/152/152
f 158/158/158 153/153/153 152/152/152
f 157/157/157 153/153/153 158/158/158
f 154/154/154 157/157/157 158/158/158
f 163/163/163 164/164/164 161/161/161
f 162/162/162 164/164/164 163/163/163
f 160/160/160 165/165/165 166/166/166
f 159/159/159 165/165/165 160/160/160
f 229/229/229 228/228/228 230/230/230
f 231/231/231 228/228/228 229/229/229
f 171/171/171 172/172/172 169/169/169
f 170/170/170 172/172/172 171/171/171
f 168/168/168 173/173/173 174/174/174
f 167/167/167 173/173/173 168/168/168
f 233/233/233 232/232/232 234/234/234
f 235/235/235 232/232/232 233/233/233
f 179/179/179 180/180/180 177/177/177
f 178/178/178 180/180/180 179/179/179
f 176/176/176 181/181/181 182/182/182
f 175/175/175 181/181/181 176/176/176
f 237/237/237 236/236/236 238/238/238
f 239/239/239 236/236/236 237/237/237
f 188/188/188 240/240/240 241/241/241
f 187/187/187 240/240/240 188/188/188
f 186/186/186 187/187/187 188/188/188
f 185/185/185 187/187/187 186/186/186
f 200/200/200 201/201/201 202/202/202
f 199/199/199 201/201/201 200/200/200
f 183/183/183 199/199/199 200/200/200
f 184/184/184 199/199/199 183/183/183
f 194/194/194 192/192/192 191/191/191
f 193/193/193 192/192/192 194/194/194
f 189/189/189 193/193/193 194/194/194
f 190/190/190 193/193/193 189/189/189
f 14/14/14 216/216/216 217/217/217
f 16/16/16 216/216/216 14/14/14
f 55/55/55 243/243/243 56/56/56
f 242/242/242 243/243/243 55/55/55
f 204/204/204 242/242/242 55/55/55
f 244/244/244 207/207/207 245/245/245
f 246/246/246 207/207/207 244/244/244
f 247/247/247 53/53/53 206/206/206
f 248/248/248 53/53/53 247/247/247
f 250/250/250 249/249/249 54/54/54
f 251/251/251 249/249/249 250/250/250
f 252/252/252 5/5/5 6/6/6
f 253/253/253 5/5/5 252/252/252
f 215/215/215 254/254/254 214/214/214
f 255/255/255 254/254/254 215/215/215
f 44/44/44 256/256/256 42/42/42
f 257/257/257 256/256/256 44/44/44
f 259/259/259 196/196/196 258/258/258
