g C2_screens_geo
v -42.56561 4.543478 -130.9508
v -42.56561 2.794954 -130.9508
v -42.56561 4.543478 -136.2018
v -42.56561 2.795276 -136.2018
v -44.62817 4.312143 -130.5309
v -42.99508 4.312143 -130.5309
v -44.62817 2.799153 -130.5309
v -42.99508 2.799153 -130.5309
v -46.24139 4.312143 -130.5309
v -46.24141 3.878788 -130.5309
v -45.06601 4.312143 -130.5309
v -45.06601 3.878788 -130.5309
v -45.20889 2.65706 -130.5255
v -46.08569 2.65706 -130.5245
v -45.20889 3.545292 -130.5255
v -46.08569 3.545293 -130.5245
v -46.08569 1.553656 -130.5244
v -45.20889 1.553656 -130.5254
v -45.20889 2.426952 -130.5254
v -46.08569 2.426952 -130.5244
v -46.18338 4.312143 -136.624
v -46.18338 2.799153 -136.624
v -42.92171 2.799153 -136.624
v -42.92171 4.312143 -136.624
v -9.66875 5.168784 -67.21394
v -9.66875 3.655794 -67.21394
v -6.40709 3.655794 -67.21394
v -6.40709 5.168785 -67.21394
v -6.050967 5.40012 -67.63381
v -6.050967 3.651596 -67.63381
v -6.050967 5.40012 -72.88477
v -6.050967 3.651918 -72.88477
v -9.66873 5.168784 -73.30711
v -9.66873 3.655794 -73.30711
v -6.40707 3.655794 -73.30711
v -6.40707 5.168784 -73.30711
vt 0.2009405 0.1147612
vt 0.5317771 0.1147635
vt 0.2009352 0.9016834
vt 0.5317719 0.9016856
vt 0.6158273 -0.2703041
vt 0.6158276 -0.5623249
vt 0.197517 -0.2703041
vt 0.1975175 -0.5623249
vt 0.1494893 0.4615903
vt 0.1494893 0.5895215
vt -0.1812452 0.4615903
vt -0.1812448 0.5895215
vt 0.4216833 0.7019697
vt 0.1849737 0.7019697
vt 0.4216833 0.9475484
vt 0.1849737 0.9475484
vt 0.4021896 0.4555671
vt 0.6388997 0.4555671
vt 0.6388997 0.6970152
vt 0.4021896 0.6970152
vt 0.2794526 0.2236267
vt 0.2794526 0.5524788
vt 0.8812564 0.5524788
vt 0.8812564 0.2236267
vt 0.2794526 0.2236267
vt 0.2794526 0.5524788
vt 0.8812564 0.5524788
vt 0.8812564 0.2236267
vt 0.2009405 0.1147612
vt 0.5317771 0.1147635
vt 0.2009352 0.9016834
vt 0.5317719 0.9016856
vt 0.2794526 0.2236267
vt 0.2794526 0.5524788
vt 0.8812564 0.5524788
vt 0.8812564 0.2236267
vn 1 0 0
vn 1 0 0
vn 1 0 0
vn 1 0 0
vn 0 0 1
vn 0 0 1
vn 0 0 1
vn 0 0 1
vn 0 0 1
vn 0 0 1
vn 0 0 1
vn 0 0 1
vn 0.00110746 0 0.9999994
vn 0.00110746 0 0.9999994
vn 0.00110746 0 0.9999994
vn 0.00110746 0 0.9999994
vn 0.001159052 0 0.9999994
vn 0.001159052 0 0.9999994
vn 0.001159052 0 0.9999994
vn 0.001159052 0 0.9999994
vn 0 0 -1
vn 0 0 -1
vn 0 0 -1
vn 0 0 -1
vn 5.523691E-07 0 1
vn 5.523691E-07 0 1
vn 5.523691E-07 0 1
vn 5.523691E-07 0 1
vn 1 0 0
vn 1 0 0
vn 1 0 0
vn 1 0 0
vn 0 0 -1
vn 0 0 -1
vn 0 0 -1
vn 0 0 -1
g C2_screens_geo_0
f 2/2/2 3/3/3 1/1/1
f 4/4/4 3/3/3 2/2/2
f 8/8/8 5/5/5 7/7/7
f 6/6/6 5/5/5 8/8/8
f 12/12/12 9/9/9 10/10/10
f 11/11/11 9/9/9 12/12/12
f 15/15/15 14/14/14 13/13/13
f 16/16/16 14/14/14 15/15/15
f 19/19/19 17/17/17 18/18/18
f 20/20/20 17/17/17 19/19/19
f 23/23/23 21/21/21 24/24/24
f 22/22/22 21/21/21 23/23/23
f 27/27/27 25/25/25 26/26/26
f 28/28/28 25/25/25 27/27/27
f 30/30/30 31/31/31 29/29/29
f 32/32/32 31/31/31 30/30/30
f 35/35/35 33/33/33 36/36/36
f 34/34/34 33/33/33 35/35/35
