g C2_waterEdge_geo
v -52.42089 1.149761 -164.9519
v -45.39213 1.149761 -158.8136
v -51.20139 1.149761 -164.1898
v -45.30796 1.149761 -159.9887
v -50.5337 1.149761 -162.0202
v -51.53263 1.149761 -160.9858
v -52.41513 1.149761 -162.9685
v -51.30951 1.149761 -163.1339
v -48.79308 1.149761 -161.2307
v -49.31773 1.121321 -159.8386
v -50.06306 1.149761 -166.7628
v -49.65719 1.149761 -165.6727
v -46.39334 1.149761 -166.2286
v -46.88195 1.149761 -164.8761
v -43.00179 1.149761 -165.7673
v -43.00031 1.149761 -164.3293
v -39.40536 1.149761 -165.5298
v -39.89581 1.149761 -164.178
v -32.67736 1.149761 -161.9872
v -32.88834 1.124806 -161.0213
v -40.84181 1.149761 -158.334
v -40.75763 1.149761 -159.5092
v -33.71705 1.119872 -158.6884
v -33.37946 1.11457 -159.7614
v -48.19794 1.149761 -166.976
v -48.23554 1.149761 -165.7558
v -50.5599 1.149761 -165.0448
v -51.39186 1.149761 -165.9631
v -31.17317 1.042409 -161.9872
v -31.17211 1.042389 -160.2495
v -31.17171 1.042372 -159.1424
v -31.17194 1.042382 -159.9505
v -27.8858 -0.04599861 -161.0926
v -27.88474 -0.04601875 -160.0236
v -25.78832 -0.04599861 -162.2671
v -24.97155 -0.04601875 -160.7332
v -24.28869 -0.04599861 -162.716
v -23.79877 -0.04601875 -161.1668
v -22.8285 -0.04599861 -162.3935
v -21.70473 -0.04601875 -161.2807
v -22.80284 -0.04599861 -163.4098
v -21.2578 -0.04601875 -163.6261
v -24.02331 -0.04599861 -165.6054
v -22.28985 -0.04601875 -165.7276
v -26.26979 -0.06927744 -170.8286
v -24.53633 -0.06929758 -170.9509
v -26.91395 -0.06927742 -176.5791
v -25.18049 -0.06929756 -176.7014
v -28.17114 -0.06927744 -178.461
v -26.43768 -0.06929758 -178.5833
v -27.87197 -0.02459915 -158.7496
v -27.87232 -0.02458374 -159.5326
v -25.75517 -0.02459915 -157.4437
v -25.75552 -0.02458374 -158.6469
v -23.87412 -0.03353171 -157.5907
v -23.87448 -0.0335163 -158.7939
v -22.31057 -0.03353171 -157.8114
v -22.5846 -0.0335163 -159.1181
v -20.27465 -0.02459915 -158.5948
v -20.58153 -0.04018389 -160.0048
v -19.17285 0.0314814 -159.6633
v -19.28309 0.0133171 -160.573
v -18.20181 0.4171339 -159.2051
v -17.93347 0.5916386 -160.0633
v -17.04103 0.9909015 -158.1786
v -16.7042 1.125749 -159.2328
v -15.00139 1.787104 -157.3298
v -14.77205 1.820048 -157.7528
v -4.456479 2.256569 -156.8804
v -4.570473 2.321534 -157.8845
v 5.885631 2.050993 -158.984
v 5.905353 2.153737 -159.7484
v 19.11735 2.055897 -160.4891
v 19.25937 2.080805 -161.7596
v 23.81088 1.99576 -161.9665
v 20.4157 2.087472 -162.1131
v 19.26165 2.038556 -163.6859
v 19.28222 2.091601 -162.4293
v 6.009123 2.006706 -161.2765
v 5.95977 2.141553 -160.2385
v -4.479071 2.221627 -159.4543
v -4.458501 2.356475 -158.1977
v -13.59882 1.775112 -159.5305
v -14.3208 1.90996 -158.5018
v -16.03277 1.309079 -160.8712
v -16.48076 1.258978 -159.7389
v -17.29925 0.7929369 -161.5103
v -18.12584 0.6554517 -160.5554
v -19.55795 0.01424255 -164.461
v -20.38453 -0.03585831 -163.506
v 22.64301 1.978953 -160.5759
v 22.07645 1.97943 -163.578
v -23.02111 -0.06861133 -166.5359
v -22.19452 -0.05858313 -167.4908
v -31.17317 1.042409 -161.9872
v -31.17211 1.042389 -160.2495
v -27.8858 -0.04599861 -161.0926
v -27.88474 -0.04601875 -160.0236
v -31.17194 1.042382 -159.9505
v -31.17171 1.042372 -159.1424
v -27.87232 -0.02458374 -159.5326
v -27.87197 -0.02459915 -158.7496
v -19.28309 0.0133171 -160.573
v -19.17285 0.0314814 -159.6633
v -16.7042 1.125749 -159.2328
v -17.04103 0.9909015 -158.1786
v -14.77205 1.820048 -157.7528
v -15.00139 1.787104 -157.3298
v -4.570473 2.321534 -157.8845
v -4.456479 2.256569 -156.8804
v 19.28222 2.091601 -162.4293
v 19.26165 2.038556 -163.6859
v -14.3208 1.90996 -158.5018
v -13.59882 1.775112 -159.5305
v -16.48076 1.258978 -159.7389
v -16.03277 1.309079 -160.8712
v -18.12584 0.6554517 -160.5554
v -17.29925 0.7929369 -161.5103
v 20.4157 2.087472 -162.1131
v 23.81088 1.99576 -161.9665
v -20.38453 -0.03585831 -163.506
v -19.55795 0.01424255 -164.461
vt 0.0960061 0
vt 1.326429 0
vt 0.0960061 0.7485194
vt 1.326429 0.7485194
vt 0.6433541 0.7485194
vt 0.6433541 0
vt 0.4343037 0
vt 0.4343037 0.7485194
vt 0.8723503 0.7485194
vt 0.8723503 0
vt -0.3943397 0
vt -0.3943397 0.7485194
vt -0.8031406 0
vt -0.8031406 0.7485194
vt -1.171824 0
vt -1.171824 0.7485194
vt -1.590875 0
vt -1.590875 0.7485194
vt -2.669362 0
vt -2.669362 0.7485194
vt 1.803184 0
vt 1.803184 0.7485194
vt 2.510982 0
vt 2.510982 0.7485194
vt -0.597017 0
vt -0.597017 0.7485194
vt -0.1375534 0.7485194
vt -0.1375534 0
vt -3.039223 0
vt -3.039223 0.7485194
vt 3.357395 0
vt 3.357395 0.7485194
vt -3.510581 0
vt -3.510581 0.7485194
vt -3.891475 0
vt -3.891475 0.7485194
vt -4.120438 0
vt -4.120438 0.7485194
vt -4.374315 0
vt -4.374314 0.7485194
vt -4.747212 0
vt -4.747212 0.7485194
vt -5.429815 0
vt -5.429815 0.7485194
vt -6.171045 0
vt -6.171045 0.7485194
vt -6.641862 0
vt -6.641862 0.7485194
vt -7.112679 0
vt -7.112679 0.7485199
vt 4.127939 0
vt 4.127939 0.7485194
vt 4.676663 0
vt 4.676663 0.7485194
vt 4.941735 0
vt 4.941735 0.7485194
vt 5.150943 0
vt 5.150943 0.7485194
vt 5.364453 0
vt 5.364453 0.7485194
vt 5.494136 0
vt 5.494135 0.7485194
vt 5.817221 0
vt 5.817223 0.7485194
vt 6.398178 0
vt 6.398178 0.7485194
vt 6.608482 0
vt 6.608484 0.7485199
vt 8.308066 0
vt 8.308066 0.7485199
vt 8.953492 0
vt 8.953492 0.7485199
vt 9.953492 0
vt 9.953494 0.7485199
vt 10.46153 0
vt 10.46153 0.7485199
vt 10.87622 0
vt 10.87622 0.7485199
vt 12.46153 0
vt 12.46153 0.7485199
vt 13.46153 0
vt 13.46153 0.7485199
vt 14.46153 0
vt 14.46153 0.7485199
vt 15.24219 0
vt 15.24219 0.7485199
vt 15.80351 0
vt 15.80351 0.7485199
vt 16.41358 0
vt 16.41358 0.7485199
vt 10.23403 0
vt 10.65957 0
vt 17.32597 0.7485199
vt 17.32597 0
vt -3.039223 0
vt -3.039223 0.7485194
vt -3.510581 0
vt -3.510581 0.7485194
vt 3.357395 0.7485194
vt 3.357395 0
vt 4.127939 0.7485194
vt 4.127939 0
vt 5.494135 0.7485194
vt 5.494136 0
vt 6.398178 0.7485194
vt 6.398178 0
vt 6.608484 0.7485199
vt 6.608482 0
vt 8.308066 0.7485199
vt 8.308066 0
vt 10.87622 0.7485199
vt 10.87622 0
vt 14.46153 0.7485199
vt 14.46153 0
vt 15.24219 0.7485199
vt 15.24219 0
vt 15.80351 0.7485199
vt 15.80351 0
vt 10.46153 0.7485199
vt 10.46153 0
vt 16.41358 0.7485199
vt 16.41358 0
vn 0 1 0
vn -0.003368829 0.9999831 0.004740024
vn 0 1 0
vn -0.003368829 0.9999831 0.004740024
vn 0.000554995 0.9999806 0.006208699
vn 0.000554995 0.9999806 0.006208699
vn 0 1 0
vn 0 1 0
vn -0.002813813 0.9999361 0.01094859
vn -0.002813813 0.9999361 0.01094859
vn 0 1 0
vn 0 1 0
vn 0 1 0
vn 0 1 0
vn 0 1 0
vn 0 1 0
vn -0.001496359 0.9999868 0.004930289
vn -0.001496359 0.9999868 0.004930289
vn 0.02630794 0.9995853 0.01170436
vn 0.02630794 0.9995853 0.01170436
vn 0.002211728 0.9999973 -0.0007642105
vn 0.002211728 0.9999973 -0.0007642105
vn 0.01814926 0.999835 0.0006879751
vn 0.01814926 0.999835 0.0006879751
vn 0 1 0
vn 0 1 0
vn 0 1 0
vn 0 1 0
vn 0.05558588 0.9983621 0.01353811
vn 0.05558588 0.9983621 0.01353811
vn 0.03187156 0.9994878 0.002904234
vn 0.03187156 0.9994878 0.002904234
vn 0.3143406 0.9493103 -0.0002245505
vn 0.3143406 0.9493103 -0.0002245505
vn 5.204553E-06 1 1.383863E-05
vn 5.204553E-06 1 1.383863E-05
vn 3.784652E-06 1 1.146573E-05
vn 3.784652E-06 1 1.146573E-05
vn -9.208768E-07 1 1.569186E-05
vn -9.208768E-07 1 1.569186E-05
vn 1.441344E-05 1 2.026941E-06
vn 1.441344E-05 1 2.026941E-06
vn 1.165616E-05 1 -6.108885E-06
vn 1.165616E-05 1 -6.108885E-06
vn -0.0002938538 0.9999906 -0.004330321
vn -0.0002938538 0.9999906 -0.004330321
vn 1.152566E-05 1 -1.28759E-06
vn 1.152566E-05 1 -1.28759E-06
vn 1.1093E-05 1 -7.422431E-06
vn 1.1093E-05 1 -7.422431E-06
vn 0.3076817 0.9514893 -9.875717E-05
vn 0.3076817 0.9514893 -9.875717E-05
vn -8.034959E-06 1 1.552109E-05
vn -8.034959E-06 1 1.552109E-05
vn 0.004749582 0.9999888 1.140969E-05
vn 0.004749582 0.9999888 1.140969E-05
vn 2.297134E-06 1 1.202766E-05
vn 2.297134E-06 1 1.202766E-05
vn -0.002692312 0.9999831 -0.00515496
vn -0.002692312 0.9999831 -0.00515496
vn -0.04944389 0.9987609 -0.005639901
vn -0.04944389 0.9987609 -0.005639901
vn -0.3992587 0.9157198 0.04527295
vn -0.3992587 0.9157198 0.04527295
vn -0.4275099 0.9039446 0.01093721
vn -0.4275099 0.9039446 0.01093721
vn -0.3392832 0.9403976 -0.02322409
vn -0.3392832 0.9403976 -0.02322409
vn -0.04763801 0.9967776 0.06453669
vn -0.04763801 0.9967776 0.06453669
vn 0.03547063 0.9950831 0.09247416
vn 0.03547063 0.9950831 0.09247416
vn 0.01094843 0.9979235 0.06347214
vn 0.01094843 0.9979235 0.06347214
vn 0.0255412 0.9991114 0.03352589
vn 0.0255412 0.9991114 0.03352589
vn 0.02261257 0.9988392 -0.04253322
vn 0.02261257 0.9988392 -0.04253322
vn -0.01347579 0.99656 -0.08177007
vn -0.01347579 0.99656 -0.08177007
vn -0.001152173 0.9931616 -0.1167427
vn -0.001152173 0.9931616 -0.1167427
vn -0.04398639 0.9904868 -0.1303885
vn -0.04398639 0.9904868 -0.1303885
vn -0.1658497 0.9777915 -0.1281319
vn -0.1658497 0.9777915 -0.1281319
vn -0.310831 0.9446582 -0.1049045
vn -0.310831 0.9446582 -0.1049045
vn -0.2075322 0.9746226 -0.08391182
vn -0.2075322 0.9746226 -0.08391182
vn 0.0255412 0.9991114 0.03352589
vn 0.02261257 0.9988392 -0.04253322
vn -0.02816303 0.9995782 0.007091939
vn -0.02816303 0.9995782 0.007091939
vn 0.3143406 0.9493103 -0.0002245505
vn 0.3143406 0.9493103 -0.0002245505
vn 5.204553E-06 1 1.383863E-05
vn 5.204553E-06 1 1.383863E-05
vn 0.3076817 0.9514893 -9.875717E-05
vn 0.3076817 0.9514893 -9.875717E-05
vn -8.034959E-06 1 1.552109E-05
vn -8.034959E-06 1 1.552109E-05
vn -0.3992587 0.9157198 0.04527295
vn -0.3992587 0.9157198 0.04527295
vn -0.3392832 0.9403976 -0.02322409
vn -0.3392832 0.9403976 -0.02322409
vn -0.04763801 0.9967776 0.06453669
vn -0.04763801 0.9967776 0.06453669
vn 0.03547063 0.9950831 0.09247416
vn 0.03547063 0.9950831 0.09247416
vn -0.01347579 0.99656 -0.08177007
vn -0.01347579 0.99656 -0.08177007
vn -0.1658497 0.9777915 -0.1281319
vn -0.1658497 0.9777915 -0.1281319
vn -0.310831 0.9446582 -0.1049045
vn -0.310831 0.9446582 -0.1049045
vn -0.2075322 0.9746226 -0.08391182
vn -0.2075322 0.9746226 -0.08391182
vn 0.02875144 0.9987428 -0.04106618
vn 0.02875144 0.9987428 -0.04106618
vn -0.02816303 0.9995782 0.007091939
vn -0.02816303 0.9995782 0.007091939
g C2_waterEdge_geo_0
f 77/77/77 78/78/78 92/92/92
f 19/19/19 30/30/30 29/29/29
f 20/20/20 30/30/30 19/19/19
f 17/17/17 20/20/20 19/19/19
f 18/18/18 20/20/20 17/17/17
f 15/15/15 18/18/18 17/17/17
f 16/16/16 18/18/18 15/15/15
f 13/13/13 16/16/16 15/15/15
f 14/14/14 16/16/16 13/13/13
f 25/25/25 14/14/14 13/13/13
f 26/26/26 14/14/14 25/25/25
f 11/11/11 26/26/26 25/25/25
f 12/12/12 26/26/26 11/11/11
f 28/28/28 12/12/12 11/11/11
f 27/27/27 12/12/12 28/28/28
f 1/1/1 27/27/27 28/28/28
f 3/3/3 27/27/27 1/1/1
f 8/8/8 3/3/3 1/1/1
f 24/24/24 31/31/31 32/32/32
f 23/23/23 31/31/31 24/24/24
f 22/22/22 23/23/23 24/24/24
f 21/21/21 23/23/23 22/22/22
f 4/4/4 21/21/21 22/22/22
f 2/2/2 21/21/21 4/4/4
f 10/10/10 2/2/2 4/4/4
f 34/34/34 95/95/95 96/96/96
f 33/33/33 95/95/95 34/34/34
f 47/47/47 50/50/50 49/49/49
f 48/48/48 50/50/50 47/47/47
f 45/45/45 48/48/48 47/47/47
f 46/46/46 48/48/48 45/45/45
f 43/43/43 46/46/46 45/45/45
f 44/44/44 46/46/46 43/43/43
f 41/41/41 44/44/44 43/43/43
f 42/42/42 44/44/44 41/41/41
f 39/39/39 42/42/42 41/41/41
f 40/40/40 42/42/42 39/39/39
f 37/37/37 40/40/40 39/39/39
f 38/38/38 40/40/40 37/37/37
f 35/35/35 38/38/38 37/37/37
f 36/36/36 38/38/38 35/35/35
f 97/97/97 36/36/36 35/35/35
f 98/98/98 36/36/36 97/97/97
f 51/51/51 99/99/99 100/100/100
f 52/52/52 99/99/99 51/51/51
f 60/60/60 61/61/61 62/62/62
f 59/59/59 61/61/61 60/60/60
f 58/58/58 59/59/59 60/60/60
f 57/57/57 59/59/59 58/58/58
f 56/56/56 57/57/57 58/58/58
f 55/55/55 57/57/57 56/56/56
f 54/54/54 55/55/55 56/56/56
f 53/53/53 55/55/55 54/54/54
f 101/101/101 53/53/53 54/54/54
f 102/102/102 53/53/53 101/101/101
f 64/64/64 65/65/65 66/66/66
f 63/63/63 65/65/65 64/64/64
f 103/103/103 63/63/63 64/64/64
f 104/104/104 63/63/63 103/103/103
f 67/67/67 105/105/105 106/106/106
f 68/68/68 105/105/105 67/67/67
f 69/69/69 107/107/107 108/108/108
f 70/70/70 107/107/107 69/69/69
f 71/71/71 109/109/109 110/110/110
f 72/72/72 109/109/109 71/71/71
f 73/73/73 72/72/72 71/71/71
f 74/74/74 72/72/72 73/73/73
f 91/91/91 74/74/74 73/73/73
f 76/76/76 74/74/74 91/91/91
f 75/75/75 76/76/76 91/91/91
f 82/82/82 83/83/83 84/84/84
f 81/81/81 83/83/83 82/82/82
f 80/80/80 81/81/81 82/82/82
f 79/79/79 81/81/81 80/80/80
f 111/111/111 79/79/79 80/80/80
f 112/112/112 79/79/79 111/111/111
f 85/85/85 113/113/113 114/114/114
f 86/86/86 113/113/113 85/85/85
f 87/87/87 115/115/115 116/116/116
f 88/88/88 115/115/115 87/87/87
f 89/89/89 117/117/117 118/118/118
f 90/90/90 117/117/117 89/89/89
f 92/92/92 119/119/119 120/120/120
f 111/111/111 119/119/119 92/92/92
f 94/94/94 121/121/121 122/122/122
f 93/93/93 121/121/121 94/94/94
f 7/7/7 8/8/8 1/1/1
f 5/5/5 8/8/8 7/7/7
f 6/6/6 5/5/5 7/7/7
f 9/9/9 5/5/5 6/6/6
f 10/10/10 9/9/9 6/6/6
f 4/4/4 9/9/9 10/10/10
