g C2_windowCar_geo
v 10.6862 3.665398 -85.32043
v 10.87487 3.175564 -84.8482
v 10.87907 3.175564 -85.84431
v 10.68986 3.708737 -86.19257
v 10.88059 3.174089 -86.89725
v 10.68883 3.710212 -86.89803
v 10.87673 3.174089 -85.98039
v 10.68632 3.710212 -86.29994
v 10.87832 3.173265 -86.99712
v 10.68594 3.711033 -86.99792
v 10.68875 3.683523 -87.67105
v 10.88365 3.173265 -88.2648
v 9.005903 3.161873 -88.34612
v 9.20102 3.688778 -87.7391
v 9.929472 3.713969 -87.73603
v 10.85815 3.161872 -88.3383
v 10.65795 3.688776 -87.73296
v 8.974458 3.173269 -87.0051
v 9.166826 3.711037 -87.00433
v 9.169663 3.683527 -87.67744
v 8.97978 3.173269 -88.27279
v 8.971299 3.17409 -86.90521
v 9.163056 3.710212 -86.90443
v 8.967432 3.17409 -85.98842
v 9.160537 3.710212 -86.30637
v 9.152422 3.665396 -85.32687
v 8.959769 3.175562 -84.85629
v 8.963964 3.175562 -85.85238
v 9.156084 3.708735 -86.19902
v 9.269033 3.661172 -85.25984
v 9.918921 3.697766 -85.23187
v 9.059214 3.158387 -84.76996
v 10.569 3.661182 -85.25439
v 10.77472 3.158393 -84.76275
v -43.67183 1.490527 -86.51267
v -43.86172 1.04054 -86.29269
v -42.35505 1.490527 -86.56709
v -42.14766 1.04054 -86.36356
v -43.3429 1.053481 -86.28136
v -42.66378 1.053481 -86.30941
v -44.00329 1.056235 -87.3718
v -43.81168 1.555493 -87.37972
v -43.97182 1.056235 -86.61078
v -43.78341 1.513828 -86.69574
v -44.0047 1.055409 -87.47176
v -43.81249 1.556312 -87.47971
v -43.84027 1.558291 -88.15227
v -44.05702 1.055409 -88.73836
v -42.0956 1.056231 -87.45062
v -42.28722 1.555489 -87.44273
v -42.06418 1.056231 -86.68964
v -42.25897 1.513825 -86.75873
v -42.10242 1.055414 -87.55037
v -42.29465 1.556317 -87.54242
v -42.32243 1.558296 -88.21498
v -42.15472 1.055414 -88.81697
v -44.03428 1.044016 -88.81279
v -43.81176 1.570922 -88.21527
v -42.18359 1.044016 -88.88924
v -42.35606 1.570922 -88.27541
v -55.33573 1.060847 -180.4436
v -55.35763 1.011146 -181.0558
v -55.37561 0.9703541 -180.4422
v -55.37614 0.9693274 -180.9363
v -55.36324 0.9983212 -180.9835
v -54.71059 1.257649 -180.4268
v -55.15031 1.147146 -180.4406
v -55.15031 1.14914 -180.6707
v -54.60355 1.000475 -180.2127
v -54.42923 1.237739 -180.2531
v -54.78341 1.129477 -180.2344
v -53.5334 0.9187658 -180.1866
v -53.54726 1.380162 -180.2553
v -54.52248 0.9590942 -180.198
v -54.28951 1.302852 -180.2569
v -53.89299 1.363717 -180.2591
v -52.40627 0.8520621 -180.222
v -52.51884 1.135495 -180.2493
v -53.4478 1.38705 -180.259
v -53.34271 0.9075328 -180.1869
v -53.03814 1.345569 -180.2644
v -52.26631 0.8645498 -180.2135
v -52.36182 1.033876 -180.2303
v -52.18376 0.9319254 -180.2202
v -51.9442 0.9679539 -181.0558
v -51.9593 0.9771855 -180.3581
v -52.79468 1.34806 -180.3495
v -51.98975 0.9791209 -180.3207
v -52.44432 1.197193 -180.3253
v -55.33573 1.060847 -181.6681
v -55.37561 0.9703541 -181.6694
v -55.37614 0.9693274 -181.1754
v -55.36324 0.9983212 -181.1281
v -54.71059 1.257649 -181.6848
v -55.15031 1.147146 -181.6711
v -55.15031 1.14914 -181.441
v -54.60355 1.000475 -181.899
v -54.42923 1.237739 -181.8586
v -54.78341 1.129477 -181.8773
v -53.5334 0.9187658 -181.9251
v -53.54726 1.380162 -181.8564
v -54.52248 0.9590942 -181.9137
v -54.28951 1.302852 -181.8548
v -53.89299 1.363717 -181.8526
v -52.40627 0.8520621 -181.8897
v -52.51884 1.135495 -181.8623
v -53.4478 1.38705 -181.8527
v -53.34271 0.9075328 -181.9248
v -53.03814 1.345569 -181.8473
v -52.26631 0.8645498 -181.8982
v -52.36182 1.033876 -181.8814
v -52.18376 0.9319254 -181.8915
v -51.9593 0.9771855 -181.7536
v -52.79468 1.34806 -181.7621
v -51.98975 0.9791209 -181.7909
v -52.44432 1.197193 -181.7864
v -55.33588 1.075705 -181.0558
v -55.36324 0.9983212 -180.9835
v -55.33573 1.060847 -180.4436
v -55.33573 1.060847 -181.6681
v -55.36324 0.9983212 -181.1281
vt -0.189483 0.6169314
vt -0.4285343 0.3603685
vt 0.09183937 0.3603685
vt 0.2661414 0.6396315
vt 0.8009968 0.4810472
vt 0.7937427 0.7618544
vt 0.32203 0.4810472
vt 0.4812995 0.7618544
vt 0.03014612 0.531065
vt 0.0210789 0.8819304
vt 0.4591087 0.8639814
vt 0.8550766 0.531065
vt 0.5047192 1.527095
vt 0.4387565 1.865626
vt 0.1810695 1.881811
vt -0.150486 1.527096
vt -0.07661507 1.865626
vt 0.4563809 0.05690449
vt 0.4478305 0.387776
vt 0.03475824 0.3708502
vt -0.3215451 0.05690449
vt -0.3517972 -0.1208096
vt -0.3590479 0.1599977
vt 0.1271729 -0.1208096
vt -0.04660833 0.1599977
vt 0.4489924 0.6934699
vt 0.7117578 0.4275068
vt 0.1723178 0.4275067
vt -0.02332609 0.7170016
vt -0.08452345 1.865626
vt 0.1731634 1.881811
vt -0.150486 1.527095
vt 0.4308481 1.865626
vt 0.5047192 1.527096
vt 0.0001658075 0.7474251
vt -0.04145759 0.5030115
vt 0.3261339 0.7591355
vt 0.382864 0.5182552
vt 0.08621389 0.5145837
vt 0.254332 0.5206233
vt 0 1
vt 0 1
vt 0 1
vt 0 1
vt 0.2621171 0.001731799
vt 0.2642703 0.254842
vt -0.0757798 0.2558419
vt -0.3782881 0.001731799
vt 1.56879 -0.9255343
vt 1.572003 -0.548181
vt 0.9932394 -0.9255343
vt 1.054717 -0.5796725
vt 0.5098684 0.3488838
vt 0.5121036 0.6114599
vt 0.8648724 0.6124973
vt 1.174228 0.3488838
vt 1.649338 -1.538194
vt 1.580122 -1.100144
vt 0.9533881 -1.538194
vt 1.032707 -1.100144
vt -0.1412905 0.8007609
vt 0.3206684 0.853649
vt -0.1442209 0.8755174
vt 0.2293648 0.8858852
vt 0.2657163 0.8627942
vt 0.2109849 0.3591421
vt 0.2193656 0.6317358
vt 0.3577001 0.6314007
vt 0.2332807 0.8445394
vt 0.4119075 0.8484964
vt 0.2305816 0.9782247
vt -0.3105658 0.3261646
vt -0.292846 0.04613274
vt 0.2846149 0.3211341
vt 0.1517118 0.1068346
vt -0.08537853 0.06253505
vt 0.8297622 0.353261
vt 0.7530328 0.5205998
vt 0.1871595 0.6416795
vt 0.2653611 0.3538033
vt 0.4344786 0.6303219
vt 0.1707577 0.02677874
vt 0.2065613 0.1384997
vt 0.2343657 0.01816062
vt 0.4296391 0.2531584
vt 0.04464403 0.2628528
vt 0.03992307 0.7671851
vt 0.02315587 0.2785384
vt 0.02654094 0.5567142
vt 0.7847258 0.824472
vt 0.7838266 0.8992799
vt 0.4102021 0.8905151
vt 0.3750801 0.8655941
vt 0.9673455 0.3588948
vt 0.9591428 0.6314939
vt 0.8208082 0.6312492
vt 0.2035124 0.839444
vt 0.02488554 0.8433932
vt 0.2062056 0.9731295
vt 0.8917575 0.3069752
vt 0.8751608 0.02687454
vt 0.2966017 0.2995574
vt 0.4303633 0.0857929
vt 0.6676293 0.04244459
vt 0.2335873 0.6478879
vt 0.318813 0.8110634
vt 0.8901597 0.9029093
vt 0.7972708 0.6194311
vt 0.6425837 0.9042736
vt 0.3304416 0.02203774
vt 0.3165128 0.1385257
vt 0.2663544 0.02565956
vt 0.8146344 0.2628521
vt 0.8193561 0.7671846
vt 0.8361225 0.2785378
vt 0.832738 0.5567138
vt 0.3219875 0.8021321
vt 0.2657163 0.8627942
vt -0.1412905 0.8007609
vt 0.7847258 0.824472
vt 0.3750801 0.8655941
vn 0.9347692 0.3550471 0.01217205
vn 0.9347692 0.3550471 0.01217205
vn 0.9347692 0.3550471 0.01217205
vn 0.9347692 0.3550471 0.01217205
vn 0.9415728 0.3367863 0.003956697
vn 0.9415728 0.3367863 0.003956697
vn 0.9415728 0.3367863 0.003956697
vn 0.9415728 0.3367863 0.003956697
vn 0.9378198 0.3471209 -0.0009846603
vn 0.9378198 0.3471209 -0.0009846603
vn 0.9378198 0.3471209 -0.0009846603
vn 0.9378198 0.3471209 -0.0009846603
vn -0.01033101 0.7491536 -0.6623158
vn -0.02349555 0.7586966 -0.6510203
vn 0.002775693 0.7524801 -0.6586091
vn 0.01591307 0.7491493 -0.66221
vn 0.02898234 0.7586883 -0.6508089
vn -0.9377916 0.3470856 -0.00886248
vn -0.9377916 0.3470856 -0.00886248
vn -0.9377916 0.3470856 -0.00886248
vn -0.9377916 0.3470856 -0.00886248
vn -0.941573 0.3367858 -0.00397001
vn -0.941573 0.3367858 -0.00397001
vn -0.941573 0.3367858 -0.00397001
vn -0.941573 0.3367858 -0.00397001
vn -0.9348377 0.3550491 0.004305135
vn -0.9348377 0.3550491 0.004305135
vn -0.9348377 0.3550491 0.004305135
vn -0.9348377 0.3550491 0.004305135
vn -0.07014365 0.7110025 0.6996824
vn -0.003024931 0.6933484 0.7205962
vn -0.03671304 0.6831372 0.7293666
vn 0.06426971 0.7110094 0.7002392
vn 0.03058705 0.683141 0.7296457
vn 0.03632489 0.4756635 0.8788769
vn 0.03632489 0.4756635 0.8788769
vn 0.03632489 0.4756635 0.8788769
vn 0.03632489 0.4756635 0.8788769
vn 0.03632489 0.4756635 0.8788769
vn 0.03632489 0.4756635 0.8788769
vn -0.9266238 0.3727753 0.04906115
vn -0.9266238 0.3727753 0.04906115
vn -0.9266238 0.3727753 0.04906115
vn -0.9266238 0.3727753 0.04906115
vn -0.9330181 0.3577195 0.03890846
vn -0.9330181 0.3577195 0.03890846
vn -0.9330181 0.3577195 0.03890846
vn -0.9330181 0.3577195 0.03890846
vn 0.9275055 0.3727933 -0.02754389
vn 0.9275055 0.3727933 -0.02754389
vn 0.9275055 0.3727933 -0.02754389
vn 0.9275055 0.3727933 -0.02754389
vn 0.933033 0.3577609 -0.03816479
vn 0.933033 0.3577609 -0.03816479
vn 0.933033 0.3577609 -0.03816479
vn 0.933033 0.3577609 -0.03816479
vn -0.02707518 0.7547376 -0.6554679
vn -0.02707518 0.7547376 -0.6554679
vn -0.02707518 0.7547376 -0.6554679
vn -0.02707518 0.7547376 -0.6554679
vn -0.9150559 0.4033268 0.0001476266
vn -0.9409418 0.3385121 0.006178191
vn -0.9150559 0.4033268 0.0001476266
vn -0.9150559 0.4033268 0.0001476266
vn -0.9140052 0.4057023 -0.0004567646
vn -0.2395746 0.9708779 0
vn -0.2439716 0.9697459 0.008406648
vn -0.2395746 0.9708779 0
vn 0.00104024 0.1670472 0.9859483
vn 0.00104024 0.1670472 0.9859483
vn 0.00104024 0.1670472 0.9859483
vn -0.005076162 0.1568981 0.9876018
vn -0.01764436 0.1467848 0.989011
vn -0.02253183 0.1835992 0.9827429
vn -0.02253183 0.1835992 0.9827429
vn -0.02253183 0.1835992 0.9827429
vn 0.03809343 0.133778 0.9902789
vn 0.03809343 0.133778 0.9902789
vn 0.02866274 0.1547652 0.9875354
vn 0.02866274 0.1547652 0.9875354
vn 0.02866274 0.1547652 0.9875354
vn 0 0.0987095 0.9951164
vn 0 0.0987095 0.9951164
vn 0 0.0987095 0.9951164
vn 0.4137087 0.9103327 -0.01180514
vn 0.4137052 0.9103343 0.01180525
vn 0.3955085 0.9184623 0
vn 0.4137052 0.9103343 0.01180525
vn 0.3955085 0.9184623 0
vn -0.9150637 0.4033093 -0.0001476557
vn -0.9150637 0.4033093 -0.0001476557
vn -0.9150637 0.4033093 -0.0001476557
vn -0.9139885 0.4057397 0.0004567737
vn -0.2395746 0.9708779 0
vn -0.2439787 0.9697441 -0.008406764
vn -0.2395746 0.9708779 0
vn 0.001040241 0.1670473 -0.9859483
vn 0.001040241 0.1670473 -0.9859483
vn 0.001040241 0.1670473 -0.9859483
vn -0.005076161 0.1568987 -0.9876017
vn -0.01772173 0.1467846 -0.9890097
vn -0.02255698 0.1835968 -0.9827428
vn -0.02255698 0.1835968 -0.9827428
vn -0.02255698 0.1835968 -0.9827428
vn 0.0380822 0.1337784 -0.9902793
vn 0.0380822 0.1337784 -0.9902793
vn 0.02865472 0.1547662 -0.9875354
vn 0.02865472 0.1547662 -0.9875354
vn 0.02865472 0.1547662 -0.9875354
vn 0.0002285169 0.09871215 -0.995116
vn 0.0002285169 0.09871215 -0.995116
vn 0.0002285169 0.09871215 -0.995116
vn 0.4137087 0.9103327 -0.01180514
vn 0.3955085 0.9184623 0
vn 0.4137087 0.9103327 -0.01180514
vn 0.4137087 0.9103327 -0.01180514
vn -0.9409418 0.3385121 0.006178191
vn -0.9409418 0.3385121 0.006178191
vn -0.9409418 0.3385121 0.006178191
vn -0.9409435 0.3385075 -0.006178164
vn -0.9409435 0.3385075 -0.006178164
g C2_windowCar_geo_0
f 71/71/71 69/69/69 70/70/70
f 83/83/83 82/82/82 84/84/84
f 98/98/98 97/97/97 99/99/99
f 112/112/112 110/110/110 111/111/111
f 1/1/1 3/3/3 4/4/4
f 2/2/2 3/3/3 1/1/1
f 8/8/8 5/5/5 6/6/6
f 7/7/7 5/5/5 8/8/8
f 10/10/10 12/12/12 11/11/11
f 9/9/9 12/12/12 10/10/10
f 15/15/15 13/13/13 14/14/14
f 16/16/16 13/13/13 15/15/15
f 17/17/17 16/16/16 15/15/15
f 19/19/19 21/21/21 18/18/18
f 20/20/20 21/21/21 19/19/19
f 25/25/25 22/22/22 24/24/24
f 23/23/23 22/22/22 25/25/25
f 26/26/26 28/28/28 27/27/27
f 29/29/29 28/28/28 26/26/26
f 31/31/31 34/34/34 33/33/33
f 32/32/32 34/34/34 31/31/31
f 30/30/30 32/32/32 31/31/31
f 35/35/35 36/36/36 39/39/39
f 40/40/40 35/35/35 39/39/39
f 37/37/37 35/35/35 40/40/40
f 38/38/38 37/37/37 40/40/40
f 44/44/44 41/41/41 43/43/43
f 42/42/42 41/41/41 44/44/44
f 46/46/46 48/48/48 45/45/45
f 47/47/47 48/48/48 46/46/46
f 52/52/52 49/49/49 50/50/50
f 51/51/51 49/49/49 52/52/52
f 54/54/54 56/56/56 55/55/55
f 53/53/53 56/56/56 54/54/54
f 58/58/58 59/59/59 57/57/57
f 60/60/60 59/59/59 58/58/58
f 64/64/64 61/61/61 65/65/65
f 63/63/63 61/61/61 64/64/64
f 62/62/62 120/120/120 121/121/121
f 117/117/117 120/120/120 62/62/62
f 118/118/118 117/117/117 62/62/62
f 119/119/119 117/117/117 118/118/118
f 96/96/96 94/94/94 95/95/95
f 66/66/66 94/94/94 96/96/96
f 68/68/68 66/66/66 96/96/96
f 67/67/67 66/66/66 68/68/68
f 76/76/76 72/72/72 73/73/73
f 74/74/74 72/72/72 76/76/76
f 75/75/75 74/74/74 76/76/76
f 81/81/81 77/77/77 78/78/78
f 80/80/80 77/77/77 81/81/81
f 79/79/79 80/80/80 81/81/81
f 89/89/89 114/114/114 87/87/87
f 116/116/116 114/114/114 89/89/89
f 85/85/85 116/116/116 89/89/89
f 115/115/115 116/116/116 85/85/85
f 113/113/113 115/115/115 85/85/85
f 90/90/90 92/92/92 93/93/93
f 91/91/91 92/92/92 90/90/90
f 104/104/104 102/102/102 103/103/103
f 100/100/100 102/102/102 104/104/104
f 101/101/101 100/100/100 104/104/104
f 109/109/109 108/108/108 107/107/107
f 105/105/105 108/108/108 109/109/109
f 106/106/106 105/105/105 109/109/109
f 85/85/85 88/88/88 86/86/86
f 89/89/89 88/88/88 85/85/85
