g C3_detailGarbage_geo
v -34.20263 0.6798552 2.753623
v -34.14367 0.6798552 2.694736
v -34.12222 0.6798552 2.614404
v -34.14371 0.6798552 2.534111
v -34.20267 0.6798552 2.475234
v -34.28295 0.6798552 2.453643
v -34.36325 0.6798552 2.475234
v -34.42219 0.6798552 2.534111
v -34.44367 0.6798552 2.614434
v -34.42218 0.6798552 2.694697
v -34.36325 0.6798552 2.753603
v -34.28293 0.6798552 2.775166
v -34.28295 0.1222791 2.453926
v -34.20279 0.1222791 2.47543
v -34.14389 0.1222791 2.534121
v -34.12241 0.1222792 2.614404
v -34.14387 0.1222791 2.69458
v -34.20274 0.1222791 2.753457
v -34.28293 0.1222791 2.77498
v -34.36309 0.1222791 2.753447
v -34.42198 0.1222791 2.69458
v -34.44348 0.1222791 2.614434
v -34.42197 0.1222792 2.534121
v -34.36311 0.1222793 2.47542
v -58.81453 0.6756849 -15.42597
v -58.87256 0.6756848 -15.36793
v -58.89384 0.6756848 -15.28867
v -58.87258 0.6756849 -15.20936
v -58.81453 0.6756848 -15.1513
v -58.73523 0.6756848 -15.13002
v -58.65597 0.6756848 -15.15129
v -58.59789 0.6756848 -15.20934
v -58.57668 0.6756848 -15.28867
v -58.59791 0.6756848 -15.36793
v -58.65597 0.6756848 -15.42595
v -58.73524 0.6756848 -15.44722
v -58.73523 0.1254734 -15.13026
v -58.81441 0.1254735 -15.15148
v -58.87241 0.1254735 -15.20945
v -58.89363 0.1254734 -15.28867
v -58.87241 0.1254734 -15.36784
v -58.81441 0.1254735 -15.42578
v -58.73524 0.1254735 -15.44703
v -58.65607 0.1254734 -15.42581
v -58.59809 0.1254734 -15.36784
v -58.57688 0.1254735 -15.28867
v -58.59809 0.1254734 -15.20945
v -58.65604 0.1254734 -15.15147
v 35.71712 0.6703644 -7.989424
v 35.71712 0.6703643 -8.07084
v 35.67643 0.6703646 -8.141348
v 35.6059 0.6703645 -8.182071
v 35.52449 0.6703645 -8.182059
v 35.45397 0.6703645 -8.141367
v 35.41327 0.6703645 -8.07084
v 35.41327 0.6703645 -7.989424
v 35.45398 0.6703646 -7.918896
v 35.52449 0.6703646 -7.878193
v 35.60591 0.6703645 -7.878193
v 35.67641 0.6703646 -7.918935
v 35.45412 0.1246176 -8.141201
v 35.52453 0.1246176 -8.181866
v 35.60586 0.1246176 -8.181875
v 35.67628 0.1246176 -8.141211
v 35.71693 0.1246175 -8.070801
v 35.71693 0.1246175 -7.989463
v 35.67627 0.1246176 -7.919033
v 35.60586 0.1246176 -7.878418
v 35.52454 0.1246176 -7.878388
v 35.45413 0.1246176 -7.919033
v 35.41347 0.1246176 -7.989472
v 35.41347 0.1246176 -8.070801
v -34.20263 0.6798552 2.753623
v -34.20274 0.1222791 2.753457
v -58.81453 0.6756849 -15.42597
v -58.81441 0.1254735 -15.42578
v 35.71712 0.6703644 -7.989424
v 35.71693 0.1246175 -7.989463
vt 0.3310535 0.7786525
vt 0.3310535 0.7786525
vt 0.3310535 0.7786525
vt 0.3310535 0.7786525
vt 0.3310535 0.7786525
vt 0.3310535 0.7786525
vt 0.3310535 0.7786525
vt 0.3310535 0.7786525
vt 0.3310535 0.7786525
vt 0.3310535 0.7786525
vt 0.3310535 0.7786525
vt 0.3310535 0.7786525
vt 0.3310535 0.7786525
vt 0.3310535 0.7786525
vt 0.3310535 0.7786525
vt 0.3310535 0.7786525
vt 0.3310535 0.7786525
vt 0.3310535 0.7786525
vt 0.3310535 0.7786525
vt 0.3310535 0.7786525
vt 0.3310535 0.7786525
vt 0.3310535 0.7786525
vt 0.3310535 0.7786525
vt 0.3310535 0.7786525
vt 0.3310535 0.7786525
vt 0.3310535 0.7786525
vt 0.3310535 0.7786525
vt 0.3310535 0.7786525
vt 0.3310535 0.7786525
vt 0.3310535 0.7786525
vt 0.3310535 0.7786525
vt 0.3310535 0.7786525
vt 0.3310535 0.7786525
vt 0.3310535 0.7786525
vt 0.3310535 0.7786525
vt 0.3310535 0.7786525
vt 0.3310535 0.7786525
vt 0.3310535 0.7786525
vt 0.3310535 0.7786525
vt 0.3310535 0.7786525
vt 0.3310535 0.7786525
vt 0.3310535 0.7786525
vt 0.3310535 0.7786525
vt 0.3310535 0.7786525
vt 0.3310535 0.7786525
vt 0.3310535 0.7786525
vt 0.3310535 0.7786525
vt 0.3310535 0.7786525
vt 0.3310535 0.7786525
vt 0.3310535 0.7786525
vt 0.3310535 0.7786525
vt 0.3310535 0.7786525
vt 0.3310535 0.7786525
vt 0.3310535 0.7786525
vt 0.3310535 0.7786525
vt 0.3310535 0.7786525
vt 0.3310535 0.7786525
vt 0.3310535 0.7786525
vt 0.3310535 0.7786525
vt 0.3310535 0.7786525
vt 0.3310535 0.7786525
vt 0.3310535 0.7786525
vt 0.3310535 0.7786525
vt 0.3310535 0.7786525
vt 0.3310535 0.7786525
vt 0.3310535 0.7786525
vt 0.3310535 0.7786525
vt 0.3310535 0.7786525
vt 0.3310535 0.7786525
vt 0.3310535 0.7786525
vt 0.3310535 0.7786525
vt 0.3310535 0.7786525
vt 0.3310535 0.7786525
vt 0.3310535 0.7786525
vt 0.3310535 0.7786525
vt 0.3310535 0.7786525
vt 0.3310535 0.7786525
vt 0.3310535 0.7786525
vn 0.5000376 -0.0003793231 0.8660036
vn 0.8660973 -0.000401761 0.4998753
vn 1 -0.0003622376 -0.0001169366
vn 0.8657875 -0.0003310168 -0.5004118
vn 0.49972 -0.0003911572 -0.8661869
vn 5.707271E-05 -0.0004558657 -0.9999999
vn -0.4998046 -0.0004088791 -0.866138
vn -0.8658628 -0.0003666745 -0.5002814
vn -1 -0.000372927 0.0001892338
vn -0.8659607 -0.0003929684 0.5001119
vn -0.5001527 -0.0003787093 0.8659371
vn -9.595131E-05 -0.0003455629 1
vn 5.707271E-05 -0.0004558657 -0.9999999
vn 0.49972 -0.0003911572 -0.8661869
vn 0.8657875 -0.0003310168 -0.5004118
vn 1 -0.0003622376 -0.0001169366
vn 0.8660973 -0.000401761 0.4998753
vn 0.5000376 -0.0003793231 0.8660036
vn -9.595131E-05 -0.0003455629 1
vn -0.5001527 -0.0003787093 0.8659371
vn -0.8659607 -0.0003929684 0.5001119
vn -1 -0.000372927 0.0001892338
vn -0.8658628 -0.0003666745 -0.5002814
vn -0.4998046 -0.0004088791 -0.866138
vn -0.5000034 -0.0003612468 -0.8660235
vn -0.8658869 -0.0003576254 -0.5002396
vn -1 -0.0003659676 -0.0001336946
vn -0.8660001 -0.0003731191 0.5000436
vn -0.5000629 -0.0003949745 0.865989
vn -3.542171E-05 -0.0004139444 1
vn 0.5000421 -0.0003947719 0.866001
vn 0.8661199 -0.0003851918 0.4998363
vn 1 -0.0003780456 -0.0001869147
vn 0.8659897 -0.0003515141 -0.5000618
vn 0.5000142 -0.0003263333 -0.8660171
vn -1.801972E-05 -0.0003401028 -1
vn -3.542171E-05 -0.0004139444 1
vn -0.5000629 -0.0003949745 0.865989
vn -0.8660001 -0.0003731191 0.5000436
vn -1 -0.0003659676 -0.0001336946
vn -0.8658869 -0.0003576254 -0.5002396
vn -0.5000034 -0.0003612468 -0.8660235
vn -1.801972E-05 -0.0003401028 -1
vn 0.5000142 -0.0003263333 -0.8660171
vn 0.8659897 -0.0003515141 -0.5000618
vn 1 -0.0003780456 -0.0001869147
vn 0.8661199 -0.0003851918 0.4998363
vn 0.5000421 -0.0003947719 0.866001
vn 0.9659187 -0.0003470193 0.2588454
vn 0.9659361 -0.0003597262 -0.2587806
vn 0.707144 -0.0003593639 -0.7070694
vn 0.2587794 -0.0003658002 -0.9659364
vn -0.2588573 -0.0003784446 -0.9659155
vn -0.7071003 -0.0003868888 -0.7071131
vn -0.965929 -0.0003861607 -0.2588065
vn -0.9659283 -0.0003831912 0.2588098
vn -0.7070897 -0.0003729561 0.7071237
vn -0.2586973 -0.0003816776 0.9659583
vn 0.2589052 -0.0003749968 0.9659027
vn 0.7070905 -0.0003416832 0.7071229
vn -0.7071003 -0.0003868888 -0.7071131
vn -0.2588573 -0.0003784446 -0.9659155
vn 0.2587794 -0.0003658002 -0.9659364
vn 0.707144 -0.0003593639 -0.7070694
vn 0.9659361 -0.0003597262 -0.2587806
vn 0.9659187 -0.0003470193 0.2588454
vn 0.7070905 -0.0003416832 0.7071229
vn 0.2589052 -0.0003749968 0.9659027
vn -0.2586973 -0.0003816776 0.9659583
vn -0.7070897 -0.0003729561 0.7071237
vn -0.9659283 -0.0003831912 0.2588098
vn -0.965929 -0.0003861607 -0.2588065
vn 0.5000376 -0.0003793231 0.8660036
vn 0.5000376 -0.0003793231 0.8660036
vn -0.5000034 -0.0003612468 -0.8660235
vn -0.5000034 -0.0003612468 -0.8660235
vn 0.9659187 -0.0003470193 0.2588454
vn 0.9659187 -0.0003470193 0.2588454
g C3_detailGarbage_geo_0
f 19/19/19 74/74/74 73/73/73
f 12/12/12 19/19/19 73/73/73
f 20/20/20 19/19/19 12/12/12
f 11/11/11 20/20/20 12/12/12
f 21/21/21 20/20/20 11/11/11
f 10/10/10 21/21/21 11/11/11
f 22/22/22 21/21/21 10/10/10
f 9/9/9 22/22/22 10/10/10
f 23/23/23 22/22/22 9/9/9
f 8/8/8 23/23/23 9/9/9
f 24/24/24 23/23/23 8/8/8
f 7/7/7 24/24/24 8/8/8
f 13/13/13 24/24/24 7/7/7
f 6/6/6 13/13/13 7/7/7
f 14/14/14 13/13/13 6/6/6
f 5/5/5 14/14/14 6/6/6
f 15/15/15 14/14/14 5/5/5
f 4/4/4 15/15/15 5/5/5
f 16/16/16 15/15/15 4/4/4
f 3/3/3 16/16/16 4/4/4
f 17/17/17 16/16/16 3/3/3
f 2/2/2 17/17/17 3/3/3
f 18/18/18 17/17/17 2/2/2
f 1/1/1 18/18/18 2/2/2
f 43/43/43 76/76/76 75/75/75
f 36/36/36 43/43/43 75/75/75
f 44/44/44 43/43/43 36/36/36
f 35/35/35 44/44/44 36/36/36
f 45/45/45 44/44/44 35/35/35
f 34/34/34 45/45/45 35/35/35
f 46/46/46 45/45/45 34/34/34
f 33/33/33 46/46/46 34/34/34
f 47/47/47 46/46/46 33/33/33
f 32/32/32 47/47/47 33/33/33
f 48/48/48 47/47/47 32/32/32
f 31/31/31 48/48/48 32/32/32
f 37/37/37 48/48/48 31/31/31
f 30/30/30 37/37/37 31/31/31
f 38/38/38 37/37/37 30/30/30
f 29/29/29 38/38/38 30/30/30
f 39/39/39 38/38/38 29/29/29
f 28/28/28 39/39/39 29/29/29
f 40/40/40 39/39/39 28/28/28
f 27/27/27 40/40/40 28/28/28
f 41/41/41 40/40/40 27/27/27
f 26/26/26 41/41/41 27/27/27
f 42/42/42 41/41/41 26/26/26
f 25/25/25 42/42/42 26/26/26
f 67/67/67 78/78/78 77/77/77
f 60/60/60 67/67/67 77/77/77
f 68/68/68 67/67/67 60/60/60
f 59/59/59 68/68/68 60/60/60
f 69/69/69 68/68/68 59/59/59
f 58/58/58 69/69/69 59/59/59
f 70/70/70 69/69/69 58/58/58
f 57/57/57 70/70/70 58/58/58
f 71/71/71 70/70/70 57/57/57
f 56/56/56 71/71/71 57/57/57
f 72/72/72 71/71/71 56/56/56
f 55/55/55 72/72/72 56/56/56
f 61/61/61 72/72/72 55/55/55
f 54/54/54 61/61/61 55/55/55
f 62/62/62 61/61/61 54/54/54
f 53/53/53 62/62/62 54/54/54
f 63/63/63 62/62/62 53/53/53
f 52/52/52 63/63/63 53/53/53
f 64/64/64 63/63/63 52/52/52
f 51/51/51 64/64/64 52/52/52
f 65/65/65 64/64/64 51/51/51
f 50/50/50 65/65/65 51/51/51
f 66/66/66 65/65/65 50/50/50
f 49/49/49 66/66/66 50/50/50
