g C3_detailBrick_geo
v -21.22014 2.273737E-15 42.62462
v -21.55699 2.273737E-15 42.20221
v -22.04377 2.273737E-15 41.96779
v -22.58405 2.273737E-15 41.96779
v -23.07083 2.273737E-15 42.20221
v -23.40769 2.273737E-15 42.62462
v -23.52791 2.273737E-15 43.15135
v -23.40769 2.273737E-15 43.67809
v -23.07083 2.273737E-15 44.1005
v -22.58405 2.273737E-15 44.33492
v -22.04377 2.273737E-15 44.33492
v -21.55699 2.273737E-15 44.1005
v -21.22014 2.273737E-15 43.67809
v -21.09991 2.273737E-15 43.15135
v -21.22014 1 42.62462
v -21.55699 1 42.20221
v -22.04377 1 41.96779
v -22.58405 1 41.96779
v -23.07083 1 42.20221
v -23.40769 1 42.62462
v -23.52791 1 43.15135
v -23.40769 1 43.67809
v -23.07083 1 44.1005
v -22.58405 1 44.33492
v -22.04377 1 44.33492
v -21.55699 1 44.1005
v -21.22014 1 43.67809
v -21.09991 1 43.15135
v -21.29677 1.085832 42.66153
v -21.61003 1.085832 42.26871
v -22.0627 1.085832 42.05072
v -22.56512 1.085832 42.05072
v -23.01779 1.085832 42.26871
v -23.33105 1.085832 42.66153
v -23.44285 1.085832 43.15135
v -23.33105 1.085832 43.64119
v -23.01779 1.085832 44.03399
v -22.56512 1.085832 44.25199
v -22.0627 1.085832 44.25199
v -21.61003 1.085832 44.03399
v -21.29677 1.085832 43.64118
v -21.18497 1.085832 43.15135
v -21.53094 1.085832 42.7743
v -21.77208 1.085832 42.47192
v -22.12053 1.085832 42.3041
v -22.50729 1.085832 42.3041
v -22.85575 1.085832 42.47192
v -23.09689 1.085832 42.7743
v -23.18295 1.085832 43.15135
v -23.09689 1.085832 43.52842
v -22.85575 1.085832 43.83079
v -22.50729 1.085832 43.9986
v -22.12053 1.085832 43.9986
v -21.77208 1.085832 43.83079
v -21.53094 1.085832 43.52842
v -21.44488 1.085832 43.15135
v -21.62461 1.057112 42.8194
v -21.8369 1.057112 42.5532
v -22.14367 1.057112 42.40546
v -22.48416 1.057112 42.40546
v -22.79093 1.057112 42.5532
v -23.00322 1.057112 42.8194
v -23.07898 1.057112 43.15135
v -23.00322 1.057112 43.4833
v -22.79093 1.057112 43.74952
v -22.48416 1.057112 43.89724
v -22.14367 1.057112 43.89724
v -21.8369 1.057112 43.74952
v -21.62461 1.057112 43.4833
v -21.54884 1.057112 43.15135
v -21.62461 -1.33044 42.8194
v -21.8369 -1.33044 42.5532
v -22.31391 -1.33044 43.15135
v -22.14367 -1.33044 42.40546
v -22.48416 -1.33044 42.40546
v -22.79093 -1.33044 42.5532
v -23.00322 -1.33044 42.8194
v -23.07898 -1.33044 43.15135
v -23.00322 -1.33044 43.4833
v -22.79093 -1.33044 43.74952
v -22.48416 -1.33044 43.89724
v -22.14367 -1.33044 43.89724
v -21.8369 -1.33044 43.74952
v -21.62461 -1.33044 43.4833
v -21.54884 -1.33044 43.15135
v -21.09991 0.0316331 43.15135
v -21.22014 0.0316331 43.67809
v -21.55699 0.0316331 44.1005
v -22.04377 0.0316331 44.33492
v -22.58405 0.0316331 44.33492
v -23.07083 0.0316331 44.1005
v -23.40769 0.0316331 43.67809
v -23.52791 0.0316331 43.15135
v -23.40769 0.0316331 42.62462
v -23.07083 0.0316331 42.20221
v -22.58405 0.0316331 41.96779
v -22.04377 0.0316331 41.96779
v -21.55699 0.0316331 42.20221
v -21.22014 0.0316331 42.62462
v -21.23101 1.014352 42.62986
v -21.11198 1.014352 43.15135
v -21.23101 1.014352 43.67285
v -21.56452 1.014352 44.09106
v -22.04646 1.014352 44.32315
v -22.58137 1.014352 44.32315
v -23.0633 1.014352 44.09106
v -23.39682 1.014352 43.67285
v -23.51584 1.014352 43.15135
v -23.39682 1.014352 42.62986
v -23.0633 1.014352 42.21165
v -22.58137 1.014352 41.97956
v -22.04646 1.014352 41.97956
v -21.56452 1.014352 42.21165
v -21.53094 1.085832 42.7743
v -21.77208 1.085832 42.47192
v -22.12053 1.085832 42.3041
v -22.50729 1.085832 42.3041
v -22.85575 1.085832 42.47192
v -23.09689 1.085832 42.7743
v -23.18295 1.085832 43.15135
v -23.09689 1.085832 43.52842
v -22.85575 1.085832 43.83079
v -22.50729 1.085832 43.9986
v -22.12053 1.085832 43.9986
v -21.77208 1.085832 43.83079
v -21.53094 1.085832 43.52842
v -21.44488 1.085832 43.15135
v -21.62461 1.057112 42.8194
v -21.8369 -1.33044 42.5532
v -21.8369 1.057112 42.5532
v -21.62461 -1.33044 42.8194
v -22.14367 -1.33044 42.40546
v -22.14367 1.057112 42.40546
v -22.48416 -1.33044 42.40546
v -22.48416 1.057112 42.40546
v -22.48416 1.057112 42.40546
v -22.79093 -1.33044 42.5532
v -22.79093 1.057112 42.5532
v -22.48416 -1.33044 42.40546
v -23.00322 -1.33044 42.8194
v -23.00322 1.057112 42.8194
v -23.07898 -1.33044 43.15135
v -23.07898 1.057112 43.15135
v -23.00322 -1.33044 43.4833
v -23.00322 1.057112 43.4833
v -22.79093 -1.33044 43.74952
v -22.79093 1.057112 43.74952
v -22.48416 -1.33044 43.89724
v -22.48416 1.057112 43.89724
v -22.14367 -1.33044 43.89724
v -22.14367 1.057112 43.89724
v -21.8369 -1.33044 43.74952
v -21.8369 1.057112 43.74952
v -21.62461 -1.33044 43.4833
v -21.62461 1.057112 43.4833
v -21.54884 -1.33044 43.15135
v -21.54884 1.057112 43.15135
v -21.22014 0.0316331 43.67809
v -21.09991 1 43.15135
v -21.09991 0.0316331 43.15135
v -21.22014 1 43.67809
v -21.55699 0.0316331 44.1005
v -21.55699 1 44.1005
v -22.04377 0.0316331 44.33492
v -22.04377 1 44.33492
v -22.58405 0.0316331 44.33492
v -22.58405 1 44.33492
v -23.07083 0.0316331 44.1005
v -23.07083 1 44.1005
v -23.40769 0.0316331 43.67809
v -23.40769 1 43.67809
v -23.52791 0.0316331 43.15135
v -23.52791 1 43.15135
v -23.40769 0.0316331 42.62462
v -23.40769 1 42.62462
v -23.07083 0.0316331 42.20221
v -23.07083 1 42.20221
v -22.58405 0.0316331 41.96779
v -22.58405 1 41.96779
v -22.04377 0.0316331 41.96779
v -22.58405 1 41.96779
v -22.58405 0.0316331 41.96779
v -22.04377 1 41.96779
v -21.55699 0.0316331 42.20221
v -21.55699 1 42.20221
v -21.22014 0.0316331 42.62462
v -21.22014 1 42.62462
v -21.11198 1.014352 43.15135
v -21.23101 1.014352 42.62986
v -21.23101 1.014352 43.67285
v -21.56452 1.014352 44.09106
v -22.04646 1.014352 44.32315
v -22.58137 1.014352 44.32315
v -23.0633 1.014352 44.09106
v -23.39682 1.014352 43.67285
v -23.51584 1.014352 43.15135
v -23.39682 1.014352 42.62986
v -23.0633 1.014352 42.21165
v -22.58137 1.014352 41.97956
v -22.04646 1.014352 41.97956
v -21.56452 1.014352 42.21165
vt 0 1
vt 0 1
vt 0 1
vt 0 1
vt 0 1
vt 0 1
vt 0 1
vt 0 1
vt 0 1
vt 0 1
vt 0 1
vt 0 1
vt 0 1
vt 0 1
vt 0 1
vt 0 1
vt 0 1
vt 0 1
vt 0 1
vt 0 1
vt 0 1
vt 0 1
vt 0 1
vt 0 1
vt 0 1
vt 0 1
vt 0 1
vt 0 1
vt 0.2812314 0.6055554
vt 0.2812314 0.6055554
vt 0.2812314 0.6055554
vt 0.2812314 0.6055554
vt 0.2812314 0.6055554
vt 0.2812314 0.6055554
vt 0.2812314 0.6055554
vt 0.2812314 0.6055554
vt 0.2812314 0.6055554
vt 0.2812314 0.6055554
vt 0.2812314 0.6055554
vt 0.2812314 0.6055554
vt 0.2812314 0.6055554
vt 0.2812314 0.6055554
vt 0.2812314 0.6055554
vt 0.2812314 0.6055554
vt 0.2812314 0.6055554
vt 0.2812314 0.6055554
vt 0.2812314 0.6055554
vt 0.2812314 0.6055554
vt 0.2812314 0.6055554
vt 0.2812314 0.6055554
vt 0.2812314 0.6055554
vt 0.2812314 0.6055554
vt 0.2812314 0.6055554
vt 0.2812314 0.6055554
vt 0.2812314 0.6055554
vt 0.2812314 0.6055554
vt 0.2812314 0.59985
vt 0.2812314 0.59985
vt 0.2812314 0.59985
vt 0.2812314 0.59985
vt 0.2812314 0.59985
vt 0.2812314 0.59985
vt 0.2812314 0.59985
vt 0.2812314 0.59985
vt 0.2812314 0.59985
vt 0.2812314 0.59985
vt 0.2812314 0.59985
vt 0.2812314 0.59985
vt 0.2812314 0.59985
vt 0.2812314 0.59985
vt 0 1
vt 0 1
vt 0 1
vt 0 1
vt 0 1
vt 0 1
vt 0 1
vt 0 1
vt 0 1
vt 0 1
vt 0 1
vt 0 1
vt 0 1
vt 0 1
vt 0 1
vt 0 1
vt 0 1
vt 0 1
vt 0 1
vt 0 1
vt 0 1
vt 0 1
vt 0 1
vt 0 1
vt 0 1
vt 0 1
vt 0 1
vt 0 1
vt 0 1
vt 0 1
vt 0 1
vt 0 1
vt 0 1
vt 0 1
vt 0 1
vt 0 1
vt 0 1
vt 0 1
vt 0 1
vt 0 1
vt 0 1
vt 0 1
vt 0 1
vt 0.2812314 0.59985
vt 0.2812314 0.59985
vt 0.2812314 0.59985
vt 0.2812314 0.59985
vt 0.2812314 0.59985
vt 0.2812314 0.59985
vt 0.2812314 0.59985
vt 0.2812314 0.59985
vt 0.2812314 0.59985
vt 0.2812314 0.59985
vt 0.2812314 0.59985
vt 0.2812314 0.59985
vt 0.2812314 0.59985
vt 0.2812314 0.59985
vt 0.3062369 0.5642807
vt 0.3062369 0.5258624
vt 0.3062369 0.5642807
vt 0.3062369 0.5258624
vt 0.3062369 0.5258624
vt 0.3062369 0.5642807
vt 0.3062369 0.5258624
vt 0.3062369 0.5642807
vt 0.3062369 0.5642807
vt 0.3062369 0.5258624
vt 0.3062369 0.5642807
vt 0.3062369 0.5258624
vt 0.3062369 0.5258624
vt 0.3062369 0.5642807
vt 0.3062369 0.5258624
vt 0.3062369 0.5642807
vt 0.3062369 0.5258624
vt 0.3062369 0.5642807
vt 0.3062369 0.5258624
vt 0.3062369 0.5642807
vt 0.3062369 0.5258625
vt 0.3062369 0.5642807
vt 0.3062369 0.5258625
vt 0.3062369 0.5642807
vt 0.3062369 0.5258625
vt 0.3062369 0.5642807
vt 0.3062369 0.5258625
vt 0.3062369 0.5642807
vt 0.3062369 0.5258624
vt 0.3062369 0.5642807
vt 0.2812314 0.59985
vt 0.2812314 0.59985
vt 0.2812314 0.59985
vt 0.2812314 0.59985
vt 0.2812314 0.59985
vt 0.2812314 0.59985
vt 0.2812314 0.59985
vt 0.2812314 0.59985
vt 0.2812314 0.59985
vt 0.2812314 0.59985
vt 0.2812314 0.59985
vt 0.2812314 0.59985
vt 0.2812314 0.59985
vt 0.2812314 0.59985
vt 0.2812314 0.59985
vt 0.2812314 0.59985
vt 0.2812314 0.59985
vt 0.2812314 0.59985
vt 0.2812314 0.59985
vt 0.2812314 0.59985
vt 0.2812314 0.59985
vt 0.2812314 0.59985
vt 0.2812314 0.59985
vt 0.2812314 0.59985
vt 0.2812314 0.59985
vt 0.2812314 0.59985
vt 0.2812314 0.59985
vt 0.2812314 0.59985
vt 0.2812314 0.59985
vt 0.2812314 0.59985
vt 0.2812314 0.6055554
vt 0.2812314 0.6055554
vt 0.2812314 0.6055554
vt 0.2812314 0.6055554
vt 0.2812314 0.6055554
vt 0.2812314 0.6055554
vt 0.2812314 0.6055554
vt 0.2812314 0.6055554
vt 0.2812314 0.6055554
vt 0.2812314 0.6055554
vt 0.2812314 0.6055554
vt 0.2812314 0.6055554
vt 0.2812314 0.6055554
vt 0.2812314 0.6055554
vn 0.9009692 0 -0.4338829
vn 0.6234898 0 -0.7818314
vn 0.2225212 0 -0.9749279
vn -0.2225222 0 -0.9749277
vn -0.6234906 0 -0.7818308
vn -0.9009697 0 -0.4338821
vn -1 0 -1.268601E-06
vn -0.9009703 0 0.4338809
vn -0.6234954 0 0.781827
vn -0.2225282 0 0.9749263
vn 0.2225253 0 0.9749269
vn 0.6234958 0 0.7818267
vn 0.9009708 0 0.4338797
vn 1 0 0
vn 0.8458605 0.344373 -0.4073419
vn 0.5853519 0.3443597 -0.734016
vn 0.2089139 0.3443226 -0.9153125
vn -0.2089129 0.3443273 -0.915311
vn -0.5853726 0.3443055 -0.734025
vn -0.8458878 0.3442852 -0.4073593
vn -0.93886 0.3442991 -4.086496E-07
vn -0.8458884 0.3442855 0.4073577
vn -0.5853725 0.3443284 0.7340143
vn -0.2089123 0.344399 0.9152841
vn 0.2089088 0.3444037 0.9152831
vn 0.5853524 0.3443895 0.7340017
vn 0.8458607 0.3443748 0.4073395
vn 0.938837 0.3443621 0
vn 0.3382965 0.9268299 -0.1629161
vn 0.2341096 0.9268306 -0.2935604
vn 0.0835536 0.9268319 -0.366062
vn -0.08355409 0.9268315 -0.3660631
vn -0.2341027 0.926834 -0.293555
vn -0.3382851 0.9268352 -0.1629101
vn -0.3754726 0.9268335 -1.255157E-06
vn -0.3382868 0.9268343 0.1629112
vn -0.234102 0.9268332 0.2935582
vn -0.08355128 0.9268318 0.366063
vn 0.08355089 0.9268318 0.366063
vn 0.2341068 0.9268311 0.293561
vn 0.3382982 0.9268296 0.1629149
vn 0.3754821 0.9268296 -3.603531E-07
vn -0.1209427 0.9909493 0.05824373
vn -0.08369521 0.9909495 0.1049485
vn -0.02987093 0.9909499 0.1308663
vn 0.02987091 0.9909498 0.130867
vn 0.08369587 0.9909493 0.10495
vn 0.1209439 0.9909491 0.05824402
vn 0.1342354 0.9909495 3.631143E-07
vn 0.1209411 0.9909496 -0.05824184
vn 0.0836941 0.9909495 -0.10495
vn 0.02986941 0.9909496 -0.1308694
vn -0.02986956 0.9909496 -0.1308696
vn -0.0836956 0.9909492 -0.1049513
vn -0.1209431 0.9909492 -0.05824346
vn -0.1342355 0.9909495 1.806165E-07
vn -0.7119809 0.6127944 0.3428792
vn -0.4927115 0.6127946 0.6178333
vn -0.1758526 0.6127988 0.7704243
vn 0.1758525 0.612798 0.7704248
vn 0.4927119 0.6127934 0.6178344
vn 0.7119834 0.6127939 0.3428751
vn 0.7902419 0.612795 4.603073E-07
vn 0.7119848 0.6127961 -0.3428681
vn 0.4927037 0.6127961 -0.6178381
vn 0.175838 0.6127951 -0.7704304
vn -0.1758381 0.612795 -0.7704306
vn -0.4927047 0.6127945 -0.6178389
vn -0.7119843 0.6127936 -0.3428736
vn -0.7902414 0.6127958 2.277813E-07
vn -0.6289399 0.7160259 0.3028884
vn -0.4352453 0.7160248 0.5457747
vn 0 1 0
vn -0.1553426 0.7160267 0.6805692
vn 0.1553426 0.7160268 0.6805691
vn 0.4352454 0.7160248 0.5457747
vn 0.6289415 0.7160266 0.3028838
vn 0.6980742 0.7160254 0
vn 0.6289451 0.7160258 -0.3028781
vn 0.4352377 0.7160271 -0.5457777
vn 0.1553289 0.7160251 -0.6805741
vn -0.1553289 0.7160251 -0.6805741
vn -0.4352377 0.7160272 -0.5457776
vn -0.6289435 0.7160252 -0.3028827
vn -0.698073 0.7160266 0
vn 1 0 3.400772E-07
vn 0.9009706 0 0.4338799
vn 0.6234954 0 0.781827
vn 0.2225248 0 0.9749271
vn -0.2225277 0 0.9749264
vn -0.623495 0 0.7818273
vn -0.9009701 0 0.4338812
vn -1 0 -6.343006E-07
vn -0.9009699 0 -0.4338817
vn -0.6234902 0 -0.7818312
vn -0.2225216 0 -0.9749278
vn 0.2225206 0 -0.974928
vn 0.62349 0 -0.7818313
vn 0.9009696 0 -0.4338821
vn 0.6606691 0.6799191 -0.318161
vn 0.7332956 0.6799099 -7.260451E-07
vn 0.66067 0.6799195 0.318158
vn 0.4571888 0.6799341 0.5732958
vn 0.1631652 0.6799461 0.7148779
vn -0.1631678 0.6799424 0.7148809
vn -0.4572179 0.6798916 0.5733228
vn -0.6607174 0.6798604 0.3181863
vn -0.7333332 0.6798694 -1.554199E-06
vn -0.6607155 0.679862 -0.3181869
vn -0.4572267 0.6798754 -0.5733352
vn -0.1631799 0.6798868 -0.714931
vn 0.1631813 0.6798843 -0.7149331
vn 0.4572002 0.6799101 -0.5733152
vn -0.1209427 0.9909493 0.05824373
vn -0.08369521 0.9909495 0.1049485
vn -0.02987093 0.9909499 0.1308663
vn 0.02987091 0.9909498 0.130867
vn 0.08369587 0.9909493 0.10495
vn 0.1209439 0.9909491 0.05824402
vn 0.1342354 0.9909495 3.631143E-07
vn 0.1209411 0.9909496 -0.05824184
vn 0.0836941 0.9909495 -0.10495
vn 0.02986941 0.9909496 -0.1308694
vn -0.02986956 0.9909496 -0.1308696
vn -0.0836956 0.9909492 -0.1049513
vn -0.1209431 0.9909492 -0.05824346
vn -0.1342355 0.9909495 1.806165E-07
vn -0.7119809 0.6127944 0.3428792
vn -0.4352453 0.7160248 0.5457747
vn -0.4927115 0.6127946 0.6178333
vn -0.6289399 0.7160259 0.3028884
vn -0.1553426 0.7160267 0.6805692
vn -0.1758526 0.6127988 0.7704243
vn 0.1553426 0.7160268 0.6805691
vn 0.1758525 0.612798 0.7704248
vn 0.1758525 0.612798 0.7704248
vn 0.4352454 0.7160248 0.5457747
vn 0.4927119 0.6127934 0.6178344
vn 0.1553426 0.7160268 0.6805691
vn 0.6289415 0.7160266 0.3028838
vn 0.7119834 0.6127939 0.3428751
vn 0.6980742 0.7160254 0
vn 0.7902419 0.612795 4.603073E-07
vn 0.6289451 0.7160258 -0.3028781
vn 0.7119848 0.6127961 -0.3428681
vn 0.4352377 0.7160271 -0.5457777
vn 0.4927037 0.6127961 -0.6178381
vn 0.1553289 0.7160251 -0.6805741
vn 0.175838 0.6127951 -0.7704304
vn -0.1553289 0.7160251 -0.6805741
vn -0.1758381 0.612795 -0.7704306
vn -0.4352377 0.7160272 -0.5457776
vn -0.4927047 0.6127945 -0.6178389
vn -0.6289435 0.7160252 -0.3028827
vn -0.7119843 0.6127936 -0.3428736
vn -0.698073 0.7160266 0
vn -0.7902414 0.6127958 2.277813E-07
vn 0.9009706 0 0.4338799
vn 0.938837 0.3443621 0
vn 1 0 3.400772E-07
vn 0.8458607 0.3443748 0.4073395
vn 0.6234954 0 0.781827
vn 0.5853524 0.3443895 0.7340017
vn 0.2225248 0 0.9749271
vn 0.2089088 0.3444037 0.9152831
vn -0.2225277 0 0.9749264
vn -0.2089123 0.344399 0.9152841
vn -0.623495 0 0.7818273
vn -0.5853725 0.3443284 0.7340143
vn -0.9009701 0 0.4338812
vn -0.8458884 0.3442855 0.4073577
vn -1 0 -6.343006E-07
vn -0.93886 0.3442991 -4.086496E-07
vn -0.9009699 0 -0.4338817
vn -0.8458878 0.3442852 -0.4073593
vn -0.6234902 0 -0.7818312
vn -0.5853726 0.3443055 -0.734025
vn -0.2225216 0 -0.9749278
vn -0.2089129 0.3443273 -0.915311
vn 0.2225206 0 -0.974928
vn -0.2089129 0.3443273 -0.915311
vn -0.2225216 0 -0.9749278
vn 0.2089139 0.3443226 -0.9153125
vn 0.62349 0 -0.7818313
vn 0.5853519 0.3443597 -0.734016
vn 0.9009696 0 -0.4338821
vn 0.8458605 0.344373 -0.4073419
vn 0.7332956 0.6799099 -7.260451E-07
vn 0.6606691 0.6799191 -0.318161
vn 0.66067 0.6799195 0.318158
vn 0.4571888 0.6799341 0.5732958
vn 0.1631652 0.6799461 0.7148779
vn -0.1631678 0.6799424 0.7148809
vn -0.4572179 0.6798916 0.5733228
vn -0.6607174 0.6798604 0.3181863
vn -0.7333332 0.6798694 -1.554199E-06
vn -0.6607155 0.679862 -0.3181869
vn -0.4572267 0.6798754 -0.5733352
vn -0.1631799 0.6798868 -0.714931
vn 0.1631813 0.6798843 -0.7149331
vn 0.4572002 0.6799101 -0.5733152
g C3_detailBrick_geo_0
f 137/137/137 139/139/139 136/136/136
f 138/138/138 137/137/137 136/136/136
f 140/140/140 137/137/137 138/138/138
f 141/141/141 140/140/140 138/138/138
f 142/142/142 140/140/140 141/141/141
f 143/143/143 142/142/142 141/141/141
f 144/144/144 142/142/142 143/143/143
f 145/145/145 144/144/144 143/143/143
f 146/146/146 144/144/144 145/145/145
f 147/147/147 146/146/146 145/145/145
f 148/148/148 146/146/146 147/147/147
f 149/149/149 148/148/148 147/147/147
f 150/150/150 148/148/148 149/149/149
f 151/151/151 150/150/150 149/149/149
f 152/152/152 150/150/150 151/151/151
f 153/153/153 152/152/152 151/151/151
f 154/154/154 152/152/152 153/153/153
f 155/155/155 154/154/154 153/153/153
f 156/156/156 154/154/154 155/155/155
f 157/157/157 156/156/156 155/155/155
f 131/131/131 156/156/156 157/157/157
f 128/128/128 131/131/131 157/157/157
f 129/129/129 131/131/131 128/128/128
f 130/130/130 129/129/129 128/128/128
f 132/132/132 129/129/129 130/130/130
f 133/133/133 132/132/132 130/130/130
f 134/134/134 132/132/132 133/133/133
f 135/135/135 134/134/134 133/133/133
f 180/180/180 182/182/182 181/181/181
f 183/183/183 180/180/180 181/181/181
f 184/184/184 180/180/180 183/183/183
f 185/185/185 184/184/184 183/183/183
f 186/186/186 184/184/184 185/185/185
f 187/187/187 186/186/186 185/185/185
f 160/160/160 186/186/186 187/187/187
f 159/159/159 160/160/160 187/187/187
f 158/158/158 160/160/160 159/159/159
f 161/161/161 158/158/158 159/159/159
f 162/162/162 158/158/158 161/161/161
f 163/163/163 162/162/162 161/161/161
f 164/164/164 162/162/162 163/163/163
f 165/165/165 164/164/164 163/163/163
f 166/166/166 164/164/164 165/165/165
f 167/167/167 166/166/166 165/165/165
f 168/168/168 166/166/166 167/167/167
f 169/169/169 168/168/168 167/167/167
f 170/170/170 168/168/168 169/169/169
f 171/171/171 170/170/170 169/169/169
f 172/172/172 170/170/170 171/171/171
f 173/173/173 172/172/172 171/171/171
f 174/174/174 172/172/172 173/173/173
f 175/175/175 174/174/174 173/173/173
f 176/176/176 174/174/174 175/175/175
f 177/177/177 176/176/176 175/175/175
f 178/178/178 176/176/176 177/177/177
f 179/179/179 178/178/178 177/177/177
f 99/99/99 1/1/1 98/98/98
f 14/14/14 1/1/1 99/99/99
f 86/86/86 14/14/14 99/99/99
f 13/13/13 14/14/14 86/86/86
f 87/87/87 13/13/13 86/86/86
f 12/12/12 13/13/13 87/87/87
f 88/88/88 12/12/12 87/87/87
f 11/11/11 12/12/12 88/88/88
f 89/89/89 11/11/11 88/88/88
f 10/10/10 11/11/11 89/89/89
f 90/90/90 10/10/10 89/89/89
f 9/9/9 10/10/10 90/90/90
f 91/91/91 9/9/9 90/90/90
f 8/8/8 9/9/9 91/91/91
f 92/92/92 8/8/8 91/91/91
f 7/7/7 8/8/8 92/92/92
f 93/93/93 7/7/7 92/92/92
f 6/6/6 7/7/7 93/93/93
f 94/94/94 6/6/6 93/93/93
f 5/5/5 6/6/6 94/94/94
f 95/95/95 5/5/5 94/94/94
f 4/4/4 5/5/5 95/95/95
f 96/96/96 4/4/4 95/95/95
f 3/3/3 4/4/4 96/96/96
f 97/97/97 3/3/3 96/96/96
f 2/2/2 3/3/3 97/97/97
f 98/98/98 2/2/2 97/97/97
f 1/1/1 2/2/2 98/98/98
f 73/73/73 72/72/72 74/74/74
f 71/71/71 72/72/72 73/73/73
f 85/85/85 71/71/71 73/73/73
f 73/73/73 76/76/76 77/77/77
f 75/75/75 76/76/76 73/73/73
f 74/74/74 75/75/75 73/73/73
f 73/73/73 79/79/79 80/80/80
f 78/78/78 79/79/79 73/73/73
f 77/77/77 78/78/78 73/73/73
f 73/73/73 82/82/82 83/83/83
f 81/81/81 82/82/82 73/73/73
f 80/80/80 81/81/81 73/73/73
f 73/73/73 84/84/84 85/85/85
f 83/83/83 84/84/84 73/73/73
f 100/100/100 15/15/15 113/113/113
f 28/28/28 15/15/15 100/100/100
f 101/101/101 28/28/28 100/100/100
f 27/27/27 28/28/28 101/101/101
f 102/102/102 27/27/27 101/101/101
f 26/26/26 27/27/27 102/102/102
f 103/103/103 26/26/26 102/102/102
f 25/25/25 26/26/26 103/103/103
f 104/104/104 25/25/25 103/103/103
f 24/24/24 25/25/25 104/104/104
f 105/105/105 24/24/24 104/104/104
f 23/23/23 24/24/24 105/105/105
f 106/106/106 23/23/23 105/105/105
f 22/22/22 23/23/23 106/106/106
f 107/107/107 22/22/22 106/106/106
f 21/21/21 22/22/22 107/107/107
f 108/108/108 21/21/21 107/107/107
f 20/20/20 21/21/21 108/108/108
f 109/109/109 20/20/20 108/108/108
f 19/19/19 20/20/20 109/109/109
f 110/110/110 19/19/19 109/109/109
f 18/18/18 19/19/19 110/110/110
f 111/111/111 18/18/18 110/110/110
f 17/17/17 18/18/18 111/111/111
f 112/112/112 17/17/17 111/111/111
f 16/16/16 17/17/17 112/112/112
f 113/113/113 16/16/16 112/112/112
f 15/15/15 16/16/16 113/113/113
f 30/30/30 44/44/44 29/29/29
f 45/45/45 44/44/44 30/30/30
f 31/31/31 45/45/45 30/30/30
f 46/46/46 45/45/45 31/31/31
f 32/32/32 46/46/46 31/31/31
f 47/47/47 46/46/46 32/32/32
f 33/33/33 47/47/47 32/32/32
f 48/48/48 47/47/47 33/33/33
f 34/34/34 48/48/48 33/33/33
f 49/49/49 48/48/48 34/34/34
f 35/35/35 49/49/49 34/34/34
f 50/50/50 49/49/49 35/35/35
f 36/36/36 50/50/50 35/35/35
f 51/51/51 50/50/50 36/36/36
f 37/37/37 51/51/51 36/36/36
f 52/52/52 51/51/51 37/37/37
f 38/38/38 52/52/52 37/37/37
f 53/53/53 52/52/52 38/38/38
f 39/39/39 53/53/53 38/38/38
f 54/54/54 53/53/53 39/39/39
f 40/40/40 54/54/54 39/39/39
f 55/55/55 54/54/54 40/40/40
f 41/41/41 55/55/55 40/40/40
f 56/56/56 55/55/55 41/41/41
f 42/42/42 56/56/56 41/41/41
f 43/43/43 56/56/56 42/42/42
f 29/29/29 43/43/43 42/42/42
f 44/44/44 43/43/43 29/29/29
f 57/57/57 114/114/114 58/58/58
f 127/127/127 114/114/114 57/57/57
f 70/70/70 127/127/127 57/57/57
f 126/126/126 127/127/127 70/70/70
f 69/69/69 126/126/126 70/70/70
f 125/125/125 126/126/126 69/69/69
f 68/68/68 125/125/125 69/69/69
f 124/124/124 125/125/125 68/68/68
f 67/67/67 124/124/124 68/68/68
f 123/123/123 124/124/124 67/67/67
f 66/66/66 123/123/123 67/67/67
f 122/122/122 123/123/123 66/66/66
f 65/65/65 122/122/122 66/66/66
f 121/121/121 122/122/122 65/65/65
f 64/64/64 121/121/121 65/65/65
f 120/120/120 121/121/121 64/64/64
f 63/63/63 120/120/120 64/64/64
f 119/119/119 120/120/120 63/63/63
f 62/62/62 119/119/119 63/63/63
f 118/118/118 119/119/119 62/62/62
f 61/61/61 118/118/118 62/62/62
f 117/117/117 118/118/118 61/61/61
f 60/60/60 117/117/117 61/61/61
f 116/116/116 117/117/117 60/60/60
f 59/59/59 116/116/116 60/60/60
f 115/115/115 116/116/116 59/59/59
f 58/58/58 115/115/115 59/59/59
f 114/114/114 115/115/115 58/58/58
f 42/42/42 188/188/188 29/29/29
f 190/190/190 188/188/188 42/42/42
f 41/41/41 190/190/190 42/42/42
f 191/191/191 190/190/190 41/41/41
f 40/40/40 191/191/191 41/41/41
f 192/192/192 191/191/191 40/40/40
f 39/39/39 192/192/192 40/40/40
f 193/193/193 192/192/192 39/39/39
f 38/38/38 193/193/193 39/39/39
f 194/194/194 193/193/193 38/38/38
f 37/37/37 194/194/194 38/38/38
f 195/195/195 194/194/194 37/37/37
f 36/36/36 195/195/195 37/37/37
f 196/196/196 195/195/195 36/36/36
f 35/35/35 196/196/196 36/36/36
f 197/197/197 196/196/196 35/35/35
f 34/34/34 197/197/197 35/35/35
f 198/198/198 197/197/197 34/34/34
f 33/33/33 198/198/198 34/34/34
f 199/199/199 198/198/198 33/33/33
f 32/32/32 199/199/199 33/33/33
f 200/200/200 199/199/199 32/32/32
f 31/31/31 200/200/200 32/32/32
f 201/201/201 200/200/200 31/31/31
f 30/30/30 201/201/201 31/31/31
f 189/189/189 201/201/201 30/30/30
f 29/29/29 189/189/189 30/30/30
f 188/188/188 189/189/189 29/29/29
