g C3_paths_geo
v -21.66328 -2.173497E-06 -14.23608
v -19.67141 -2.012617E-06 -14.23608
v -21.63657 0.009294836 -14.26517
v -19.6982 0.009294943 -14.26517
v -21.66328 -2.489984E-06 -23.51883
v -21.63658 0.009294625 -23.49603
v -19.6982 0.009294741 -23.49605
v -19.67141 -2.316449E-06 -23.51883
v 28.72438 0.0006087525 -4.248184
v 26.99684 0.000607351 -3.255508
v 32.15578 0.000610214 1.7275
v 30.42824 0.0006074483 2.720107
v 28.70051 0.01102374 -4.234482
v 32.13191 0.01102418 1.741211
v 30.44799 0.0110228 2.70877
v 27.01659 0.0110228 -3.266885
v -21.66328 -2.173497E-06 -14.23608
v -21.63657 0.009294836 -14.26517
v -21.63657 0.009294836 -14.26517
v -19.6982 0.009294943 -14.26517
v -21.63658 0.009294625 -23.49603
v -19.6982 0.009294943 -14.26517
v -19.67141 -2.012617E-06 -14.23608
v -19.6982 0.009294741 -23.49605
v 28.70051 0.01102374 -4.234482
v 30.44799 0.0110228 2.70877
v 27.01659 0.0110228 -3.266885
v 32.13191 0.01102418 1.741211
vt 0.2746955 0.8134831
vt 0.2746955 0.8134829
vt 0.2747072 0.8134878
vt 0.2747072 0.8134831
vt 0.5329292 0.5445634
vt 0.5329292 0.5445634
vt 1 0.9617503
vt 0.5329292 0.5445634
vt 0.6227437 0.3497335
vt 0.6227437 0.3497335
vt 0.6227437 0.3497335
vt 0.6227437 0.3497335
vt 0.6227437 0.3497335
vt 0.6227437 0.3497335
vt 0.6227437 0.3497335
vt 0.6227437 0.3497335
vt 0.5329292 0.5445634
vt 0.5329292 0.5445634
vt 0 0
vt 1 0
vt 0 0.9617503
vt 0.5329292 0.5445634
vt 0.5329292 0.5445634
vt 0.5329292 0.5445634
vt 0 0
vt 1 1.283532
vt 1 0
vt 0 1.283532
vn -0.1686844 0.9732111 0.1562238
vn 0.1681376 0.9733079 0.1562096
vn -0.1121618 0.9882456 0.1038764
vn 0.1117992 0.9882876 0.1038679
vn -0.1698133 0.9659633 -0.1951369
vn -0.1128445 0.9851148 -0.1296726
vn 0.1124785 0.985158 -0.1296621
vn 0.1692613 0.9660637 -0.1951197
vn -0.1354097 0.6606527 -0.7383781
vn -0.6077533 0.6422733 -0.4670343
vn 0.3068939 0.9352862 -0.1762268
vn -0.3606102 0.9094397 0.207074
vn -0.08675747 0.8767374 -0.47308
vn 0.1559911 0.9836886 -0.08957439
vn -0.1845316 0.9770976 0.1059639
vn -0.3915057 0.8696026 -0.3008564
vn -0.1686844 0.9732111 0.1562238
vn -0.1121618 0.9882456 0.1038764
vn -0.1121618 0.9882456 0.1038764
vn 0.1117992 0.9882876 0.1038679
vn -0.1128445 0.9851148 -0.1296726
vn 0.1117992 0.9882876 0.1038679
vn 0.1681376 0.9733079 0.1562096
vn 0.1124785 0.985158 -0.1296621
vn -0.08675747 0.8767374 -0.47308
vn -0.1845316 0.9770976 0.1059639
vn -0.3915057 0.8696026 -0.3008564
vn 0.1559911 0.9836886 -0.08957439
g C3_paths_geo_0
f 2/2/2 3/3/3 1/1/1
f 4/4/4 3/3/3 2/2/2
f 8/8/8 22/22/22 23/23/23
f 24/24/24 22/22/22 8/8/8
f 5/5/5 24/24/24 8/8/8
f 6/6/6 24/24/24 5/5/5
f 17/17/17 6/6/6 5/5/5
f 18/18/18 6/6/6 17/17/17
f 7/7/7 19/19/19 20/20/20
f 21/21/21 19/19/19 7/7/7
f 16/16/16 12/12/12 15/15/15
f 10/10/10 12/12/12 16/16/16
f 13/13/13 10/10/10 16/16/16
f 9/9/9 10/10/10 13/13/13
f 14/14/14 9/9/9 13/13/13
f 11/11/11 9/9/9 14/14/14
f 26/26/26 25/25/25 27/27/27
f 28/28/28 25/25/25 26/26/26
