g C3_rock01_geo
v -39.02536 0.02000208 -38.94922
v -39.10683 0.02000376 -38.67914
v -39.02417 0.02000351 -38.39068
v -38.83754 0.3017942 -38.81596
v -38.89293 0.3017996 -38.68701
v -38.86517 0.3052027 -38.52766
v -38.66281 0.2919337 -38.88469
v -38.64363 0.3052038 -38.4467
v -38.5295 0.2895611 -38.82378
v -38.42264 0.3010684 -38.67238
v -38.49937 0.305201 -38.51213
v -38.39829 0.02000461 -38.97922
v -38.21022 0.01999822 -38.67912
v -38.30329 0.02000098 -38.32227
v -38.63288 0.020004 -39.06641
v -38.63288 0.02000521 -38.23975
v -38.53457 0.01999942 -39.78685
v -38.63131 0.01999989 -39.40855
v -38.53316 0.02000099 -39.00449
v -38.53457 0.2504289 -39.84553
v -38.66967 0.2504326 -39.40855
v -38.57153 0.2504318 -39.00451
v -38.43076 0.3959143 -39.71943
v -38.5333 0.4568422 -39.43789
v -38.4819 0.4673456 -39.09004
v -38.10735 0.4383746 -39.784
v -38.07183 0.4673451 -38.98951
v -37.86056 0.4331948 -39.7365
v -37.66273 0.4583305 -39.40604
v -37.80479 0.4673508 -39.05602
v -37.78987 0.2504309 -39.82887
v -37.53907 0.250434 -39.43933
v -37.68715 0.2504354 -38.87639
v -37.78989 0.02000243 -39.82885
v -37.56648 0.02000048 -39.40854
v -37.67704 0.01999842 -38.90869
v -38.06847 0.02000244 -39.85308
v -38.06846 0.01999845 -38.891
v -38.06846 0.2504301 -38.83437
v -38.06846 0.2504303 -39.9118
v -61.76506 0 22.75472
v -62.32359 6.922483E-06 22.75593
v -61.89833 0.2817945 22.94255
v -62.18664 0.2852066 22.91493
v -62.26757 0.2851994 23.13644
v -61.89051 0.2695638 23.2506
v -62.20217 0.2852006 23.28073
v -61.73507 6.097555E-06 23.38179
v -62.39198 -1.95384E-06 23.4768
v -62.47451 -3.736019E-06 23.14721
v -60.56021 0 27.27261
v -61.11875 6.922483E-06 27.27382
v -60.69349 0.2817945 27.46044
v -60.9818 0.2852066 27.43282
v -61.06273 0.2851994 27.65434
v -60.68566 0.2695638 27.76849
v -60.99732 0.2852006 27.79862
v -60.53022 6.097555E-06 27.89968
v -61.18714 -1.95384E-06 27.99469
v -61.26966 -3.736019E-06 27.6651
v -58.09998 0 21.6967
v -58.65852 6.922483E-06 21.69791
v -58.23325 0.2817945 21.88453
v -58.52156 0.2852066 21.85691
v -58.60249 0.2851994 22.07842
v -58.22543 0.2695638 22.19258
v -58.53709 0.2852006 22.22271
v -58.06999 6.097555E-06 22.32377
v -58.7269 -1.95384E-06 22.41878
v -58.80943 -3.736019E-06 22.08919
v -61.73507 6.097555E-06 23.38179
v -61.76506 0 22.75472
v -62.32359 6.922483E-06 22.75593
v -62.47451 -3.736019E-06 23.14721
v -62.39198 -1.95384E-06 23.4768
v -60.53022 6.097555E-06 27.89968
v -60.56021 0 27.27261
v -61.11875 6.922483E-06 27.27382
v -61.26966 -3.736019E-06 27.6651
v -61.18714 -1.95384E-06 27.99469
v -58.06999 6.097555E-06 22.32377
v -58.09998 0 21.6967
v -58.65852 6.922483E-06 21.69791
v -58.80943 -3.736019E-06 22.08919
v -58.7269 -1.95384E-06 22.41878
vt 0.1359153 0.5175096
vt 0.3330997 0.4542564
vt 0.4833359 0.4916672
vt 0.2156644 0.6130923
vt 0.307606 0.5727584
vt 0.401988 0.5935699
vt 0.2007046 0.7016255
vt 0.4354683 0.695676
vt 0.2082011 0.8027413
vt 0.3058372 0.8223408
vt 0.40336 0.7968715
vt 0.03391971 0.9170907
vt 0.2954907 0.9729975
vt 0.4776807 0.9089139
vt 0.02639598 0.7193839
vt 0.5091376 0.708305
vt 0.05590532 0.1057783
vt 0.4365335 -0.02905096
vt 0.8675842 0.06010723
vt 0.1498756 0.2055191
vt 0.4544776 0.106509
vt 0.7293037 0.1515977
vt 0.28541 0.3239301
vt 0.4716615 0.2422232
vt 0.6284655 0.2839758
vt 0.3350164 0.5032771
vt 0.6774055 0.4965523
vt 0.2702909 0.7081136
vt 0.4680784 0.7478172
vt 0.6661782 0.6989202
vt 0.1801726 0.8199484
vt 0.4939252 0.8619339
vt 0.7503185 0.7883314
vt 0.04793481 0.9436902
vt 0.4458565 1.069718
vt 0.9339983 0.9560127
vt -0.01133399 0.5680103
vt 0.9888839 0.5036293
vt 0.8029217 0.4916567
vt 0.2090266 0.5143588
vt 0.1359153 0.5175096
vt 0.4833359 0.4916672
vt 0.2156644 0.6130923
vt 0.401988 0.5935699
vt 0.4354683 0.695676
vt 0.2082011 0.8027413
vt 0.40336 0.7968715
vt 0.03391971 0.9170907
vt 0.4776807 0.9089139
vt 0.5091376 0.708305
vt 0.1359153 0.5175096
vt 0.4833359 0.4916672
vt 0.2156644 0.6130923
vt 0.401988 0.5935699
vt 0.4354683 0.695676
vt 0.2082011 0.8027413
vt 0.40336 0.7968715
vt 0.03391971 0.9170907
vt 0.4776807 0.9089139
vt 0.5091376 0.708305
vt 0.1359153 0.5175096
vt 0.4833359 0.4916672
vt 0.2156644 0.6130923
vt 0.401988 0.5935699
vt 0.4354683 0.695676
vt 0.2082011 0.8027413
vt 0.40336 0.7968715
vt 0.03391971 0.9170907
vt 0.4776807 0.9089139
vt 0.5091376 0.708305
vt 0 1
vt 0 1
vt 0 1
vt 0 1
vt -1.490116E-08 1
vt 0 1
vt 0 1
vt 0 1
vt 0 1
vt -1.490116E-08 1
vt 0 1
vt 0 1
vt 0 1
vt 0 1
vt -1.490116E-08 1
vn -0.546113 0.6090588 -0.5751591
vn -0.7982367 0.601334 -0.03486718
vn -0.5925109 0.608174 0.5282567
vn -0.3863226 0.8198397 -0.422632
vn -0.579442 0.814176 -0.03693765
vn -0.4227102 0.828024 0.3683642
vn 0.02467034 0.794931 -0.6061981
vn -0.0190546 0.8198618 0.5722443
vn 0.3767113 0.7981188 -0.4702072
vn 0.5493715 0.8300751 -0.09574126
vn 0.3788523 0.8491408 0.3680092
vn 0.5128254 0.5824421 -0.6306911
vn 0.7663115 0.6315168 -0.118124
vn 0.5282854 0.6595483 0.534706
vn 0.0288337 0.5733562 -0.8187988
vn -0.03115624 0.6018472 0.7980034
vn -0.6481954 -0.2128726 -0.7311141
vn -0.9897314 -0.1415299 -0.02002633
vn -0.7120425 -0.1723537 0.6806538
vn -0.6322955 0.269052 -0.7265078
vn -0.9728711 0.2262697 -0.04820561
vn -0.7147735 0.2162362 0.665087
vn -0.2744733 0.9046631 -0.3259587
vn -0.4581978 0.885483 -0.077296
vn -0.4415971 0.8086358 0.3887163
vn -0.006807614 0.81062 -0.585533
vn -0.04346281 0.805001 0.5916793
vn 0.3382202 0.8023198 -0.4918232
vn 0.4313915 0.8976966 -0.08967917
vn 0.2736497 0.9263998 0.258649
vn 0.5651853 0.2415412 -0.7888113
vn 0.9544867 0.2643909 -0.1380309
vn 0.6320404 0.3021407 0.7136076
vn 0.5743621 -0.1146585 -0.8105317
vn 0.9873705 -0.065838 -0.1440998
vn 0.6461578 -0.1386188 0.7505097
vn 0.02587662 -0.1871826 -0.9819842
vn -0.1030745 -0.1662971 0.9806737
vn -0.0879891 0.2226473 0.9709202
vn 0.02699532 0.2198329 -0.9751639
vn 0.7189825 -0.009807882 -0.6949589
vn -0.547737 0.05081093 -0.8351061
vn 0.3997106 0.8406121 -0.3655171
vn -0.215461 0.9163634 -0.3374235
vn -0.5799006 0.814373 -0.02262714
vn 0.4355141 0.8265796 0.3565018
vn -0.1801574 0.9261177 0.3314354
vn 0.7706903 -0.02682684 0.6366448
vn -0.5009818 0.08664653 0.8611096
vn -0.9939137 0.1031045 -0.03879383
vn 0.7189783 -0.009806181 -0.6949633
vn -0.5477381 0.05080884 -0.8351057
vn 0.399707 0.8406132 -0.3655184
vn -0.2154623 0.9163627 -0.3374245
vn -0.5799013 0.8143725 -0.02262711
vn 0.435513 0.8265794 0.3565038
vn -0.1801585 0.9261166 0.3314377
vn 0.7706878 -0.02682778 0.636648
vn -0.5009817 0.08663739 0.8611105
vn -0.9939138 0.1031028 -0.03879373
vn 0.7189779 -0.009799667 -0.694964
vn -0.5477354 0.05081479 -0.835107
vn 0.3997053 0.8406145 -0.3655173
vn -0.2154599 0.9163638 -0.3374231
vn -0.5798981 0.8143747 -0.02262702
vn 0.4355103 0.8265811 0.3565031
vn -0.1801581 0.9261171 0.3314367
vn 0.7706865 -0.0268214 0.6366497
vn -0.5009819 0.08663976 0.8611102
vn -0.9939131 0.10311 -0.03879378
vn 0.7706903 -0.02682684 0.6366448
vn 0.7189825 -0.009807882 -0.6949589
vn -0.547737 0.05081093 -0.8351061
vn -0.9939137 0.1031045 -0.03879383
vn -0.5009818 0.08664653 0.8611096
vn 0.7706878 -0.02682778 0.636648
vn 0.7189783 -0.009806181 -0.6949633
vn -0.5477381 0.05080884 -0.8351057
vn -0.9939138 0.1031028 -0.03879373
vn -0.5009817 0.08663739 0.8611105
vn 0.7706865 -0.0268214 0.6366497
vn 0.7189779 -0.009799667 -0.694964
vn -0.5477354 0.05081479 -0.835107
vn -0.9939131 0.10311 -0.03879378
vn -0.5009819 0.08663976 0.8611102
g C3_rock01_geo_0
f 71/71/71 73/73/73 72/72/72
f 74/74/74 73/73/73 71/71/71
f 75/75/75 74/74/74 71/71/71
f 76/76/76 78/78/78 77/77/77
f 79/79/79 78/78/78 76/76/76
f 80/80/80 79/79/79 76/76/76
f 81/81/81 83/83/83 82/82/82
f 84/84/84 83/83/83 81/81/81
f 85/85/85 84/84/84 81/81/81
f 10/10/10 14/14/14 13/13/13
f 12/12/12 10/10/10 13/13/13
f 9/9/9 10/10/10 12/12/12
f 15/15/15 9/9/9 12/12/12
f 7/7/7 9/9/9 15/15/15
f 1/1/1 7/7/7 15/15/15
f 4/4/4 7/7/7 1/1/1
f 2/2/2 4/4/4 1/1/1
f 5/5/5 4/4/4 2/2/2
f 6/6/6 5/5/5 2/2/2
f 10/10/10 5/5/5 6/6/6
f 11/11/11 10/10/10 6/6/6
f 14/14/14 10/10/10 11/11/11
f 16/16/16 14/14/14 11/11/11
f 8/8/8 11/11/11 6/6/6
f 16/16/16 11/11/11 8/8/8
f 6/6/6 16/16/16 8/8/8
f 3/3/3 16/16/16 6/6/6
f 2/2/2 3/3/3 6/6/6
f 20/20/20 17/17/17 21/21/21
f 37/37/37 17/17/17 20/20/20
f 40/40/40 37/37/37 20/20/20
f 34/34/34 37/37/37 40/40/40
f 31/31/31 34/34/34 40/40/40
f 35/35/35 34/34/34 31/31/31
f 32/32/32 35/35/35 31/31/31
f 36/36/36 35/35/35 32/32/32
f 33/33/33 36/36/36 32/32/32
f 38/38/38 36/36/36 33/33/33
f 39/39/39 38/38/38 33/33/33
f 19/19/19 38/38/38 39/39/39
f 22/22/22 19/19/19 39/39/39
f 18/18/18 19/19/19 22/22/22
f 21/21/21 18/18/18 22/22/22
f 17/17/17 18/18/18 21/21/21
f 44/44/44 42/42/42 50/50/50
f 41/41/41 42/42/42 44/44/44
f 43/43/43 41/41/41 44/44/44
f 48/48/48 41/41/41 43/43/43
f 46/46/46 48/48/48 43/43/43
f 49/49/49 48/48/48 46/46/46
f 47/47/47 49/49/49 46/46/46
f 50/50/50 49/49/49 47/47/47
f 45/45/45 50/50/50 47/47/47
f 44/44/44 50/50/50 45/45/45
f 47/47/47 44/44/44 45/45/45
f 46/46/46 44/44/44 47/47/47
f 54/54/54 52/52/52 60/60/60
f 51/51/51 52/52/52 54/54/54
f 53/53/53 51/51/51 54/54/54
f 58/58/58 51/51/51 53/53/53
f 56/56/56 58/58/58 53/53/53
f 59/59/59 58/58/58 56/56/56
f 57/57/57 59/59/59 56/56/56
f 60/60/60 59/59/59 57/57/57
f 55/55/55 60/60/60 57/57/57
f 54/54/54 60/60/60 55/55/55
f 57/57/57 54/54/54 55/55/55
f 56/56/56 54/54/54 57/57/57
f 64/64/64 62/62/62 70/70/70
f 61/61/61 62/62/62 64/64/64
f 63/63/63 61/61/61 64/64/64
f 68/68/68 61/61/61 63/63/63
f 66/66/66 68/68/68 63/63/63
f 69/69/69 68/68/68 66/66/66
f 67/67/67 69/69/69 66/66/66
f 70/70/70 69/69/69 67/67/67
f 65/65/65 70/70/70 67/67/67
f 64/64/64 70/70/70 65/65/65
f 67/67/67 64/64/64 65/65/65
f 66/66/66 64/64/64 67/67/67
f 4/4/4 9/9/9 7/7/7
f 10/10/10 9/9/9 4/4/4
f 5/5/5 10/10/10 4/4/4
f 23/23/23 20/20/20 24/24/24
f 40/40/40 20/20/20 23/23/23
f 26/26/26 40/40/40 23/23/23
f 31/31/31 40/40/40 26/26/26
f 28/28/28 31/31/31 26/26/26
f 32/32/32 31/31/31 28/28/28
f 29/29/29 32/32/32 28/28/28
f 33/33/33 32/32/32 29/29/29
f 30/30/30 33/33/33 29/29/29
f 39/39/39 33/33/33 30/30/30
f 27/27/27 39/39/39 30/30/30
f 22/22/22 39/39/39 27/27/27
f 25/25/25 22/22/22 27/27/27
f 21/21/21 22/22/22 25/25/25
f 24/24/24 21/21/21 25/25/25
f 20/20/20 21/21/21 24/24/24
f 30/30/30 25/25/25 27/27/27
f 24/24/24 25/25/25 30/30/30
f 29/29/29 24/24/24 30/30/30
f 23/23/23 24/24/24 29/29/29
f 26/26/26 23/23/23 29/29/29
f 26/26/26 29/29/29 28/28/28
f 43/43/43 44/44/44 46/46/46
f 53/53/53 54/54/54 56/56/56
f 63/63/63 64/64/64 66/66/66
