g C3_shadowPine_geo
v 51.78577 0.03705316 7.546165
v 51.91546 0.03705316 -0.5466663
v 43.69297 0.03705316 7.416537
v 43.82265 0.03705316 -0.6763928
v 51.46952 0.02060794 -21.34765
v 51.55455 0.02060794 -26.65452
v 46.16269 0.02060794 -21.43269
v 46.24774 0.02060794 -26.73956
v 56.19621 2.474333 26.81848
v 56.67308 2.373622 22.74524
v 52.12556 2.259506 26.3455
v 52.60244 2.158798 22.27229
v -15.87277 0.02900396 38.35793
v -15.77126 0.02900396 32.02311
v -22.20757 0.02900396 38.25641
v -22.10607 0.02900396 31.92158
v -35.09557 0.03705317 -43.39364
v -34.96589 0.03705317 -51.48653
v -43.1884 0.03705317 -43.52329
v -43.05868 0.03705317 -51.61622
v -7.495006 0.02900395 -18.19911
v -7.43442 0.02900395 -21.98106
v -11.27694 0.02900395 -18.25974
v -11.2163 0.02900395 -22.04165
v 50.7071 2.16346 42.03235
v 51.01244 2.326609 33.94773
v 43.12394 1.077756 41.71148
v 43.42929 1.293625 33.62687
v 62.85218 1.483282 4.91577
v 62.69596 0.705713 0.2174693
v 58.15156 0.7548662 5.192626
v 57.99535 -0.02269794 0.4943248
v -39.63933 0.04734158 69.6898
v -39.47363 0.04734158 59.34978
v 48.53745 2.127502 33.84932
v 45.1124 1.67683 41.80988
v -30.85007 0.02 69.83079
v -30.85007 0.02 59.48716
vt 0 2.000004
vt 1 2.000004
vt 0 2.999996
vt 1 2.999996
vt 0 2.000004
vt 1 2.000004
vt 0 2.999996
vt 1 2.999996
vt 0 2.000004
vt 1 2.000004
vt 0 2.999996
vt 1 2.999996
vt 0 2.000004
vt 1 2.000004
vt 0 2.999996
vt 1 2.999996
vt 0 2.000004
vt 1 2.000004
vt 0 2.999996
vt 1 2.999996
vt 0 2.000004
vt 1 2.000004
vt 0 2.999996
vt 1 2.999996
vt 0 2.000004
vt 1 2.000004
vt 0 2.999996
vt 1 2.999996
vt 0 2.000004
vt 1 2.000004
vt 0 2.999996
vt 1 2.999996
vt 0 2.999996
vt 1 2.999996
vt 1 2.30672
vt 0 2.693333
vt 0 2.149071
vt 1 2.171075
vn 0 1 0
vn 0 1 0
vn 0 1 0
vn 0 1 0
vn 0 1 0
vn 0 1 0
vn 0 1 0
vn 0 1 0
vn -0.04914946 0.9983276 -0.0304375
vn -0.04914946 0.9983276 -0.0304375
vn -0.04914946 0.9983276 -0.0304375
vn -0.04914946 0.9983276 -0.0304375
vn 0 1 0
vn 0 1 0
vn 0 1 0
vn 0 1 0
vn 0 1 0
vn 0 1 0
vn 0 1 0
vn 0 1 0
vn 0 1 0
vn 0 1 0
vn 0 1 0
vn 0 1 0
vn -0.08537837 0.9961812 0.01825986
vn -0.08537837 0.9961812 0.01825986
vn -0.1976949 0.9802495 -0.005241741
vn -0.1976949 0.9802495 -0.005241741
vn -0.1602243 0.9746785 -0.1559812
vn -0.1602243 0.9746785 -0.1559812
vn -0.1602243 0.9746785 -0.1559812
vn -0.1602243 0.9746785 -0.1559812
vn 0.00313998 0.9999951 2.515553E-05
vn 0.00313998 0.9999951 2.515553E-05
vn -0.1417747 0.9898775 0.006520006
vn -0.1417747 0.9898775 0.006520006
vn 0.00313998 0.9999951 2.515553E-05
vn 0.00313998 0.9999951 2.515553E-05
g C3_shadowPine_geo_0
f 4/4/4 1/1/1 2/2/2
f 3/3/3 1/1/1 4/4/4
f 8/8/8 5/5/5 6/6/6
f 7/7/7 5/5/5 8/8/8
f 12/12/12 9/9/9 10/10/10
f 11/11/11 9/9/9 12/12/12
f 16/16/16 13/13/13 14/14/14
f 15/15/15 13/13/13 16/16/16
f 20/20/20 17/17/17 18/18/18
f 19/19/19 17/17/17 20/20/20
f 24/24/24 21/21/21 22/22/22
f 23/23/23 21/21/21 24/24/24
f 36/36/36 28/28/28 27/27/27
f 35/35/35 28/28/28 36/36/36
f 25/25/25 35/35/35 36/36/36
f 26/26/26 35/35/35 25/25/25
f 32/32/32 29/29/29 30/30/30
f 31/31/31 29/29/29 32/32/32
f 34/34/34 37/37/37 38/38/38
f 33/33/33 37/37/37 34/34/34
