g C3_shadowTree_geo
v -32.3171 0.06450782 -32.3069
v -40.42745 0.06450782 -32.3069
v -32.3171 0.06450782 -24.25705
v -40.42745 0.06450782 -24.25705
v -29.54115 0.0816526 38.96766
v -29.54115 0.0816526 34.51891
v -36.93768 0.0816526 38.96766
v -36.93768 0.0816526 34.51891
v -29.6144 0.07888566 -36.10883
v -29.6144 0.07888566 -40.44539
v -35.56658 0.07888566 -36.10883
v -35.56658 0.07888566 -40.44539
v 22.50878 0.01338042 2.336479
v 17.5191 0.01700851 4.287671
v 24.22218 0.02210002 8.018686
v 19.23252 0.02661956 9.969858
v 43.61243 0.8269879 17.85316
v 36.08578 0.07557464 15.37807
v 59.80979 2.600983 16.34215
v 60.13787 1.863675 8.822814
v 52.28523 1.801144 16.08336
v 52.61313 1.063825 8.564025
v 54.71325 1.961558 46.29493
v 64.6039 1.71781 46.40689
v 54.831 2.786605 37.69052
v 64.72165 2.54286 37.80246
v 23.29553 0.05986163 49.63994
v 14.17941 0.05986163 49.63994
v 23.29553 0.05986163 56.73752
v 14.17941 0.05986163 56.73752
v -49.57795 0.05950015 -48.19864
v -58.29203 0.05950015 -48.19864
v -49.57795 0.05950015 -41.41415
v -58.29203 0.05950015 -41.41415
v -50.92589 0.03456773 -61.56622
v -54.77628 0.03456773 -60.06055
v -49.60376 0.03456773 -57.18153
v -53.45409 0.03456773 -55.67586
v -22.94275 0.05908078 -60.79028
v -31.19031 0.05908078 -60.79028
v -22.94275 0.05908078 -54.36899
v -31.19031 0.05908078 -54.36899
v -47.94036 0.06285869 -34.65562
v -38.99827 0.06285869 -34.65562
v -47.94036 0.06285869 -42.46847
v -38.99827 0.06285869 -42.46847
v -11.71928 0.05684743 -54.83269
v -20.24516 0.05684743 -57.66355
v -14.5502 0.05684743 -46.30679
v -23.07614 0.05684743 -49.13769
v 4.898343 0.05986161 -47.05387
v -4.21776 0.05986167 -47.05391
v 4.898343 0.05986161 -39.95629
v -4.21776 0.05986167 -39.95633
v -24.07907 0.0388102 -24.51139
v -28.60161 0.0388102 -22.9724
v -22.52612 0.0388102 -20.02959
v -27.04864 0.0388102 -18.49061
v -15.65803 0.04404658 20.21298
v -21.01021 0.04404658 22.30597
v -13.82014 0.04404658 26.30794
v -19.17233 0.04404658 28.40091
v -8.732581 0.04404658 1.942729
v -14.08479 0.04404658 4.035678
v -6.894711 0.04404658 8.03767
v -12.24686 0.04404658 10.13062
v -46.96898 0.06223006 46.63287
v -38.52909 0.06223006 46.63287
v -46.96898 0.06223006 39.25885
v -38.52909 0.06223006 39.25885
v -40.18801 0.06581279 59.34257
v -32.7508 0.06581279 59.34257
v -40.18801 0.06581279 51.57579
v -32.7508 0.06581279 51.57579
v -43.37851 0.05252745 47.18448
v -51.4185 0.05252745 47.18448
v -43.37851 0.05252745 55.2244
v -51.4185 0.05252745 55.2244
v -67.73432 0.06141713 46.74607
v -61.21651 0.06141713 46.74607
v -67.73432 0.06141713 39.93947
v -61.21651 0.06141713 39.93947
v -55.78051 0.05832347 6.914561
v -63.7892 0.05832347 6.914561
v -55.78051 0.05832347 13.14983
v -63.7892 0.05832347 13.14983
v -65.15137 0.06184459 59.86226
v -57.01944 0.06184459 59.86226
v -65.15137 0.06184459 52.75726
v -57.01944 0.06184459 52.75726
v -14.94397 0.06450781 -36.04801
v -4.684287 0.06450782 -36.04802
v -14.94397 0.06450781 -45.01204
v -4.684287 0.06450782 -45.01204
v -29.99122 0.06223007 51.869
v -21.55133 0.06223007 51.869
v -29.99122 0.06223007 44.49498
v -21.55133 0.06223007 44.49498
v 7.851739 0.06803734 78.59027
v 9.775528 0.06803734 80.23633
v 7.804795 0.06803734 80.15488
v 9.773653 0.06803734 78.59029
v 7.786514 0.06803734 52.38179
v 43.34314 0.06803735 50.84032
v 43.34314 0.06803735 52.58614
v 42.15462 0.06803735 50.82013
v 42.15462 0.06803735 52.58231
v 9.313584 0.06803735 50.57
v 8.007911 0.06803735 50.94156
v 9.862384 0.06803735 52.77289
v 39.38825 0.06803734 56.95326
v 41.35898 0.06803734 57.03469
v 39.43816 0.06803734 75.86977
v 41.40253 0.06803735 77.0583
v 39.43433 0.06803734 77.05828
v 41.42273 0.06803732 75.86977
v 39.43708 0.06803734 58.5993
v 41.35898 0.06803734 58.5993
v 8.559283 0.06803734 21.6921
v 8.640708 0.06803734 19.72138
v 27.14874 0.06803734 21.72457
v 28.33727 0.06803734 19.76019
v 28.33726 0.06803732 21.72841
v 27.14874 0.06803732 19.73999
v 10.20531 0.06803734 21.64328
v 10.20531 0.06803734 19.72138
v -28.31875 0.06803735 31.87777
v -28.23731 0.06803735 29.90703
v -18.39267 0.06803734 31.91023
v -17.20411 0.06803734 29.94586
v -17.20413 0.06803732 31.91406
v -18.39267 0.06803732 29.92566
v -26.67272 0.06803734 31.82895
v -26.67272 0.06803734 29.90703
v -65.24397 0.06803734 32.66043
v -65.16252 0.06803734 30.6897
v -30.83772 0.06803734 32.6756
v -29.64918 0.06803734 30.71121
v -29.64921 0.06803732 32.67942
v -30.83772 0.06803732 30.69102
v -63.59791 0.06803734 32.6116
v -63.59791 0.06803734 30.6897
v 41.66016 -0.2045796 10.96669
v 44.19055 -0.2832874 11.00379
v 42.6236 -0.2234036 12.20023
v 43.13756 -0.2619534 9.738789
v 36.50565 0.1361607 4.693555
v 44.89888 -0.905363 -4.418115
v 46.01416 -0.927931 -3.075176
v 43.97234 -0.8696216 -3.674326
v 45.09808 -0.8924011 -2.318789
v 36.52209 0.1139952 2.324209
v 35.75578 0.1481695 3.444219
v 38.35125 0.06913552 3.668135
v -37.6091 0.06803734 41.59203
v -35.63836 0.06803734 41.67347
v -37.60625 0.06803734 51.30073
v -35.64187 0.06803734 52.48927
v -37.61007 0.06803732 52.48925
v -35.62168 0.06803732 51.30073
v -37.56027 0.06803734 43.23808
v -35.63836 0.06803734 43.23808
v -46.59111 0.06803734 51.09128
v -46.67254 0.06803734 53.06203
v -65.36739 0.06803734 51.09414
v -66.55593 0.06803734 53.05851
v -66.55592 0.06803732 51.09031
v -65.36739 0.06803732 53.07871
v -48.23713 0.06803734 51.14012
v -48.23713 0.06803734 53.06203
v -54.37394 0.06803734 3.882012
v -52.4032 0.06803734 3.963448
v -54.36777 0.06803734 22.80001
v -52.40338 0.06803734 23.98855
v -54.3716 0.06803732 23.98853
v -52.38319 0.06803732 22.80001
v -54.32509 0.06803734 5.528066
v -52.4032 0.06803734 5.528066
v 51.16512 0.06803734 -45.77918
v 53.13586 0.06803734 -45.69775
v 51.17129 0.06803734 -26.86117
v 53.13566 0.06803734 -25.67268
v 51.16746 0.06803732 -25.67268
v 53.15586 0.06803732 -26.86119
v 51.21394 0.06803734 -44.13314
v 53.13586 0.06803734 -44.13314
v -38.5798 0.06803734 -65.27453
v -36.60903 0.06803734 -65.19312
v -38.59027 0.06803734 -55.63453
v -36.6259 0.06803734 -54.44603
v -38.5941 0.06803732 -54.44603
v -36.60571 0.06803732 -55.63459
v -38.53097 0.06803734 -63.62851
v -36.60903 0.06803734 -63.62851
v 42.76928 1.057601 21.17795
v 34.55249 0.4087089 21.17795
v 42.15462 0.06803735 50.82013
v 42.15462 0.06803735 52.58231
v 9.862384 0.06803735 52.77289
v 9.313584 0.06803735 50.57
v 9.773653 0.06803734 78.59029
v 7.851739 0.06803734 78.59027
v 39.43816 0.06803734 75.86977
v 41.35898 0.06803734 58.5993
v 41.42273 0.06803732 75.86977
v 39.43708 0.06803734 58.5993
v 27.14874 0.06803734 21.72457
v 10.20531 0.06803734 19.72138
v 27.14874 0.06803732 19.73999
v 10.20531 0.06803734 21.64328
v -18.39267 0.06803734 31.91023
v -26.67272 0.06803734 29.90703
v -18.39267 0.06803732 29.92566
v -26.67272 0.06803734 31.82895
v -30.83772 0.06803734 32.6756
v -63.59791 0.06803734 30.6897
v -30.83772 0.06803732 30.69102
v -63.59791 0.06803734 32.6116
v 43.97234 -0.8696216 -3.674326
v 45.09808 -0.8924011 -2.318789
v 38.35125 0.06913552 3.668135
v 36.52209 0.1139952 2.324209
v 43.13756 -0.2619534 9.738789
v 41.66016 -0.2045796 10.96669
v -37.60625 0.06803734 51.30073
v -35.63836 0.06803734 43.23808
v -35.62168 0.06803732 51.30073
v -37.56027 0.06803734 43.23808
v -65.36739 0.06803734 51.09414
v -48.23713 0.06803734 53.06203
v -65.36739 0.06803732 53.07871
v -48.23713 0.06803734 51.14012
v -54.36777 0.06803734 22.80001
v -52.4032 0.06803734 5.528066
v -52.38319 0.06803732 22.80001
v -54.32509 0.06803734 5.528066
v 51.17129 0.06803734 -26.86117
v 53.13586 0.06803734 -44.13314
v 53.15586 0.06803732 -26.86119
v 51.21394 0.06803734 -44.13314
v -38.59027 0.06803734 -55.63453
v -36.60903 0.06803734 -63.62851
v -36.60571 0.06803732 -55.63459
v -38.53097 0.06803734 -63.62851
vt 0 3.814697E-06
vt 1 3.814697E-06
vt 0 0.9999962
vt 1 0.9999962
vt 0 3.814697E-06
vt 1 3.814697E-06
vt 0 0.9999962
vt 1 0.9999962
vt 0 3.814697E-06
vt 1 3.814697E-06
vt 0 0.9999962
vt 1 0.9999962
vt 0 3.814697E-06
vt 1 3.814697E-06
vt 0 0.9999962
vt 1 0.9999962
vt 0 3.814697E-06
vt 1 3.814697E-06
vt 0 3.814697E-06
vt 1 3.814697E-06
vt 0 0.9999962
vt 1 0.9999962
vt 0 3.814697E-06
vt 1 3.814697E-06
vt 0 0.9999962
vt 1 0.9999962
vt 0 3.814697E-06
vt 1 3.814697E-06
vt 0 0.9999962
vt 1 0.9999962
vt 0 3.814697E-06
vt 1 3.814697E-06
vt 0 0.9999962
vt 1 0.9999962
vt 0 3.814697E-06
vt 1 3.814697E-06
vt 0 0.9999962
vt 1 0.9999962
vt 0 3.814697E-06
vt 1 3.814697E-06
vt 0 0.9999962
vt 1 0.9999962
vt 0 3.814697E-06
vt 1 3.814697E-06
vt 0 0.9999962
vt 1 0.9999962
vt 0 3.814697E-06
vt 1 3.814697E-06
vt 0 0.9999962
vt 1 0.9999962
vt 0 3.814697E-06
vt 1 3.814697E-06
vt 0 0.9999962
vt 1 0.9999962
vt 0 3.814697E-06
vt 1 3.814697E-06
vt 0 0.9999962
vt 1 0.9999962
vt 0 3.814697E-06
vt 1 3.814697E-06
vt 0 0.9999962
vt 1 0.9999962
vt 0 3.814697E-06
vt 1 3.814697E-06
vt 0 0.9999962
vt 1 0.9999962
vt 0 3.814697E-06
vt 1 3.814697E-06
vt 0 0.9999962
vt 1 0.9999962
vt 0 3.814697E-06
vt 1 3.814697E-06
vt 0 0.9999962
vt 1 0.9999962
vt 0 3.814697E-06
vt 1 3.814697E-06
vt 0 0.9999962
vt 1 0.9999962
vt 0 3.814697E-06
vt 1 3.814697E-06
vt 0 0.9999962
vt 1 0.9999962
vt 0 3.814697E-06
vt 1 3.814697E-06
vt 0 0.9999962
vt 1 0.9999962
vt 0 3.814697E-06
vt 1 3.814697E-06
vt 0 0.9999962
vt 1 0.9999962
vt 0 3.814697E-06
vt 1 3.814697E-06
vt 0 0.9999962
vt 1 0.9999962
vt 0 3.814697E-06
vt 1 3.814697E-06
vt 0 0.9999962
vt 1 0.9999962
vt 0.1673828 0.3876628
vt 0.2474039 0.05778908
vt 0.04892898 0.291035
vt 0.3591556 0.1635555
vt 0.5 0.5
vt 0.04892898 0.291035
vt 0.2474039 0.05778908
vt 0.1673828 0.3876628
vt 0.3658597 0.1544134
vt 0.5 0.45
vt 0.5 0.5
vt 0.5 0.45
vt 0.2474039 0.05778908
vt 0.04892898 0.291035
vt 0.3658597 0.1544134
vt 0.04892898 0.291035
vt 0.2474039 0.05778908
vt 0.1673828 0.3876628
vt 0.3658597 0.1544134
vt 0.1673828 0.3876628
vt 0.2474039 0.05778908
vt 0.04892898 0.291035
vt 0.3658597 0.1544134
vt 0.04892898 0.291035
vt 0.2474039 0.05778908
vt 0.1673828 0.3876628
vt 0.3658597 0.1544134
vt 0.1673828 0.3876628
vt 0.2474039 0.05778908
vt 0.04892898 0.291035
vt 0.3658597 0.1544134
vt 0.04892898 0.291035
vt 0.2474039 0.05778908
vt 0.1673828 0.3876628
vt 0.3658597 0.1544134
vt 0.1673828 0.3876628
vt 0.2474039 0.05778908
vt 0.04892898 0.291035
vt 0.3658597 0.1544134
vt 0.04892898 0.291035
vt 0.2474039 0.05778908
vt 0.1673828 0.3876628
vt 0.3658597 0.1544134
vt 0.1673828 0.3876628
vt 0.1673828 0.3876628
vt 0.2474039 0.05778908
vt 0.04892898 0.291035
vt 0.3591556 0.1635555
vt 0.5 0.5
vt 0.04892898 0.291035
vt 0.2474039 0.05778908
vt 0.1673828 0.3876628
vt 0.3658597 0.1544134
vt 0.5 0.45
vt 0.5 0.5
vt 0.5 0.45
vt 0.2474039 0.05778908
vt 0.04892898 0.291035
vt 0.3658597 0.1544134
vt 0.04892898 0.291035
vt 0.2474039 0.05778908
vt 0.1673828 0.3876628
vt 0.3658597 0.1544134
vt 0.1673828 0.3876628
vt 0.2474039 0.05778908
vt 0.04892898 0.291035
vt 0.3658597 0.1544134
vt 0.04892898 0.291035
vt 0.2474039 0.05778908
vt 0.1673828 0.3876628
vt 0.3658597 0.1544134
vt 0.1673828 0.3876628
vt 0.2474039 0.05778908
vt 0.04892898 0.291035
vt 0.3658597 0.1544134
vt 0.04892898 0.291035
vt 0.2474039 0.05778908
vt 0.1673828 0.3876628
vt 0.3658597 0.1544134
vt 0.1673828 0.3876628
vt 0.2474039 0.05778908
vt 0.04892898 0.291035
vt 0.3658597 0.1544134
vt 0.04892898 0.291035
vt 0.2474039 0.05778908
vt 0.1673828 0.3876628
vt 0.3658597 0.1544134
vt 0.1673828 0.3876628
vt 0.2474039 0.05778908
vt 0.04892898 0.291035
vt 0.3658597 0.1544134
vt 0.04892898 0.291035
vt 0.2474039 0.05778908
vt 0.1673828 0.3876628
vt 0.3658597 0.1544134
vt 0.1673828 0.3876628
vt 0 0.4681232
vt 1 0.7862129
vt 0.5 0.45
vt 0.5 0.45
vt 0.5 0.5
vt 0.5 0.5
vt 0.5 0.5
vt 0.5 0.5
vt 0.5 0.5
vt 0.5 0.5
vt 0.5 0.5
vt 0.5 0.5
vt 0.5 0.5
vt 0.5 0.5
vt 0.5 0.5
vt 0.5 0.5
vt 0.5 0.5
vt 0.5 0.5
vt 0.5 0.5
vt 0.5 0.5
vt 0.5 0.5
vt 0.5 0.5
vt 0.5 0.5
vt 0.5 0.5
vt 0.5 0.45
vt 0.5 0.45
vt 0.5 0.5
vt 0.5 0.5
vt 0.5 0.5
vt 0.5 0.5
vt 0.5 0.5
vt 0.5 0.5
vt 0.5 0.5
vt 0.5 0.5
vt 0.5 0.5
vt 0.5 0.5
vt 0.5 0.5
vt 0.5 0.5
vt 0.5 0.5
vt 0.5 0.5
vt 0.5 0.5
vt 0.5 0.5
vt 0.5 0.5
vt 0.5 0.5
vt 0.5 0.5
vt 0.5 0.5
vt 0.5 0.5
vt 0.5 0.5
vt 0.5 0.5
vt 0.5 0.5
vn 0 1 0
vn 0 1 0
vn 0 1 0
vn 0 1 0
vn 0 1 0
vn 0 1 0
vn 0 1 0
vn 0 1 0
vn 0 1 0
vn 0 1 0
vn 0 1 0
vn 0 1 0
vn 0.0001661115 0.9999987 -0.001663077
vn 0.0001661115 0.9999987 -0.001663077
vn 0.0001661115 0.9999987 -0.001663077
vn 0.0001661115 0.9999987 -0.001663077
vn -0.07564608 0.9938309 -0.08110292
vn -0.07564608 0.9938309 -0.08110292
vn -0.1017039 0.9896258 -0.1014747
vn -0.1017039 0.9896258 -0.1014747
vn -0.1017039 0.9896258 -0.1014747
vn -0.1017039 0.9896258 -0.1014747
vn 0.02344047 0.9951303 0.09574037
vn 0.02344047 0.9951303 0.09574037
vn 0.02344047 0.9951303 0.09574037
vn 0.02344047 0.9951303 0.09574037
vn 0 1 0
vn 0 1 0
vn 0 1 0
vn 0 1 0
vn 0 1 0
vn 0 1 0
vn 0 1 0
vn 0 1 0
vn 0 1 0
vn 0 1 0
vn 0 1 0
vn 0 1 0
vn 0 1 0
vn 0 1 0
vn 0 1 0
vn 0 1 0
vn 0 1 0
vn 0 1 0
vn 0 1 0
vn 0 1 0
vn 0 1 0
vn 0 1 0
vn 0 1 0
vn 0 1 0
vn 0 1 0
vn 0 1 0
vn 0 1 0
vn 0 1 0
vn 0 1 0
vn 0 1 0
vn 0 1 0
vn 0 1 0
vn 0 1 0
vn 0 1 0
vn 0 1 0
vn 0 1 0
vn 0 1 0
vn 0 1 0
vn 0 1 0
vn 0 1 0
vn 0 1 0
vn 0 1 0
vn 0 1 0
vn 0 1 0
vn 0 1 0
vn 0 1 0
vn 0 1 0
vn 0 1 0
vn 0 1 0
vn 0 1 0
vn 0 1 0
vn 0 1 0
vn 0 1 0
vn 0 1 0
vn 0 1 0
vn 0 1 0
vn 0 1 0
vn 0 1 0
vn 0 1 0
vn 0 1 0
vn 0 1 0
vn 0 1 0
vn 0 1 0
vn 0 1 0
vn 0 1 0
vn 0 1 0
vn 0 1 0
vn 0 1 0
vn 0 1 0
vn 0 1 0
vn 0 1 0
vn 0 1 0
vn 0 1 0
vn 0 1 0
vn 0 1 0
vn 0 1 0
vn 0 1 0
vn 0 1 0
vn 0 1 0
vn 0 1 0
vn 0 1 0
vn 0 1 0
vn 0 1 0
vn 0 1 0
vn 0 1 0
vn 0 1 0
vn 0 1 0
vn 0 1 0
vn 0 1 0
vn 0 1 0
vn 0 1 0
vn 0 1 0
vn 0 1 0
vn 0 1 0
vn 0 1 0
vn 0 1 0
vn 0 1 0
vn 0 1 0
vn 0 1 0
vn 0 1 0
vn 0 1 0
vn 0 1 0
vn 0 1 0
vn 0 1 0
vn 0 1 0
vn 0 1 0
vn 0 1 0
vn 0 1 0
vn 0 1 0
vn 0 1 0
vn 0 1 0
vn 0 1 0
vn 0 1 0
vn 0 1 0
vn 0 1 0
vn 0 1 0
vn 0.03962699 0.9992092 0.003274957
vn 0.03122243 0.9994708 -0.009133806
vn 0.03122243 0.9994708 -0.009133806
vn 0.03962699 0.9992092 0.003274957
vn 0.03962709 0.9992092 0.003275178
vn 0.03122266 0.9994708 -0.009133928
vn 0.03122266 0.9994708 -0.009133928
vn 0.05652829 0.9977196 -0.03687784
vn 0.05652829 0.9977196 -0.03687784
vn 0.05652828 0.9977197 -0.0368777
vn 0.03122261 0.9994708 -0.009133496
vn 0.04808659 0.9987019 -0.01679928
vn 0 1 0
vn 0 1 0
vn 0 1 0
vn 0 1 0
vn 0 1 0
vn 0 1 0
vn 0 1 0
vn 0 1 0
vn 0 1 0
vn 0 1 0
vn 0 1 0
vn 0 1 0
vn 0 1 0
vn 0 1 0
vn 0 1 0
vn 0 1 0
vn 0 1 0
vn 0 1 0
vn 0 1 0
vn 0 1 0
vn 0 1 0
vn 0 1 0
vn 0 1 0
vn 0 1 0
vn 0 1 0
vn 0 1 0
vn 0 1 0
vn 0 1 0
vn 0 1 0
vn 0 1 0
vn 0 1 0
vn 0 1 0
vn 0 1 0
vn 0 1 0
vn 0 1 0
vn 0 1 0
vn 0 1 0
vn 0 1 0
vn 0 1 0
vn 0 1 0
vn -0.07564608 0.9938309 -0.08110292
vn -0.07564608 0.9938309 -0.08110292
vn 0 1 0
vn 0 1 0
vn 0 1 0
vn 0 1 0
vn 0 1 0
vn 0 1 0
vn 0 1 0
vn 0 1 0
vn 0 1 0
vn 0 1 0
vn 0 1 0
vn 0 1 0
vn 0 1 0
vn 0 1 0
vn 0 1 0
vn 0 1 0
vn 0 1 0
vn 0 1 0
vn 0 1 0
vn 0 1 0
vn 0 1 0
vn 0 1 0
vn 0.05652829 0.9977196 -0.03687784
vn 0.05652829 0.9977196 -0.03687784
vn 0.04808659 0.9987019 -0.01679928
vn 0.05652828 0.9977197 -0.0368777
vn 0.03962699 0.9992092 0.003274957
vn 0.03962699 0.9992092 0.003274957
vn 0 1 0
vn 0 1 0
vn 0 1 0
vn 0 1 0
vn 0 1 0
vn 0 1 0
vn 0 1 0
vn 0 1 0
vn 0 1 0
vn 0 1 0
vn 0 1 0
vn 0 1 0
vn 0 1 0
vn 0 1 0
vn 0 1 0
vn 0 1 0
vn 0 1 0
vn 0 1 0
vn 0 1 0
vn 0 1 0
g C3_shadowTree_geo_0
f 4/4/4 1/1/1 2/2/2
f 3/3/3 1/1/1 4/4/4
f 8/8/8 5/5/5 6/6/6
f 7/7/7 5/5/5 8/8/8
f 12/12/12 9/9/9 10/10/10
f 11/11/11 9/9/9 12/12/12
f 16/16/16 13/13/13 14/14/14
f 15/15/15 13/13/13 16/16/16
f 196/196/196 17/17/17 18/18/18
f 195/195/195 17/17/17 196/196/196
f 22/22/22 19/19/19 20/20/20
f 21/21/21 19/19/19 22/22/22
f 26/26/26 23/23/23 24/24/24
f 25/25/25 23/23/23 26/26/26
f 30/30/30 27/27/27 28/28/28
f 29/29/29 27/27/27 30/30/30
f 34/34/34 31/31/31 32/32/32
f 33/33/33 31/31/31 34/34/34
f 38/38/38 35/35/35 36/36/36
f 37/37/37 35/35/35 38/38/38
f 42/42/42 39/39/39 40/40/40
f 41/41/41 39/39/39 42/42/42
f 46/46/46 43/43/43 44/44/44
f 45/45/45 43/43/43 46/46/46
f 50/50/50 47/47/47 48/48/48
f 49/49/49 47/47/47 50/50/50
f 54/54/54 51/51/51 52/52/52
f 53/53/53 51/51/51 54/54/54
f 58/58/58 55/55/55 56/56/56
f 57/57/57 55/55/55 58/58/58
f 62/62/62 59/59/59 60/60/60
f 61/61/61 59/59/59 62/62/62
f 66/66/66 63/63/63 64/64/64
f 65/65/65 63/63/63 66/66/66
f 70/70/70 67/67/67 68/68/68
f 69/69/69 67/67/67 70/70/70
f 74/74/74 71/71/71 72/72/72
f 73/73/73 71/71/71 74/74/74
f 78/78/78 75/75/75 76/76/76
f 77/77/77 75/75/75 78/78/78
f 82/82/82 79/79/79 80/80/80
f 81/81/81 79/79/79 82/82/82
f 86/86/86 83/83/83 84/84/84
f 85/85/85 83/83/83 86/86/86
f 90/90/90 87/87/87 88/88/88
f 89/89/89 87/87/87 90/90/90
f 94/94/94 91/91/91 92/92/92
f 93/93/93 91/91/91 94/94/94
f 98/98/98 95/95/95 96/96/96
f 97/97/97 95/95/95 98/98/98
f 105/105/105 106/106/106 107/107/107
f 104/104/104 106/106/106 105/105/105
f 197/197/197 110/110/110 198/198/198
f 108/108/108 110/110/110 197/197/197
f 101/101/101 102/102/102 99/99/99
f 100/100/100 102/102/102 101/101/101
f 103/103/103 202/202/202 201/201/201
f 199/199/199 103/103/103 201/201/201
f 109/109/109 103/103/103 199/199/199
f 200/200/200 109/109/109 199/199/199
f 115/115/115 116/116/116 113/113/113
f 114/114/114 116/116/116 115/115/115
f 112/112/112 117/117/117 118/118/118
f 111/111/111 117/117/117 112/112/112
f 204/204/204 203/203/203 205/205/205
f 206/206/206 203/203/203 204/204/204
f 123/123/123 124/124/124 121/121/121
f 122/122/122 124/124/124 123/123/123
f 120/120/120 125/125/125 126/126/126
f 119/119/119 125/125/125 120/120/120
f 208/208/208 207/207/207 209/209/209
f 210/210/210 207/207/207 208/208/208
f 131/131/131 132/132/132 129/129/129
f 130/130/130 132/132/132 131/131/131
f 128/128/128 133/133/133 134/134/134
f 127/127/127 133/133/133 128/128/128
f 212/212/212 211/211/211 213/213/213
f 214/214/214 211/211/211 212/212/212
f 139/139/139 140/140/140 137/137/137
f 138/138/138 140/140/140 139/139/139
f 136/136/136 141/141/141 142/142/142
f 135/135/135 141/141/141 136/136/136
f 216/216/216 215/215/215 217/217/217
f 218/218/218 215/215/215 216/216/216
f 149/149/149 150/150/150 151/151/151
f 148/148/148 150/150/150 149/149/149
f 219/219/219 154/154/154 220/220/220
f 152/152/152 154/154/154 219/219/219
f 145/145/145 146/146/146 143/143/143
f 144/144/144 146/146/146 145/145/145
f 147/147/147 224/224/224 223/223/223
f 221/221/221 147/147/147 223/223/223
f 153/153/153 147/147/147 221/221/221
f 222/222/222 153/153/153 221/221/221
f 159/159/159 160/160/160 157/157/157
f 158/158/158 160/160/160 159/159/159
f 156/156/156 161/161/161 162/162/162
f 155/155/155 161/161/161 156/156/156
f 226/226/226 225/225/225 227/227/227
f 228/228/228 225/225/225 226/226/226
f 167/167/167 168/168/168 165/165/165
f 166/166/166 168/168/168 167/167/167
f 164/164/164 169/169/169 170/170/170
f 163/163/163 169/169/169 164/164/164
f 230/230/230 229/229/229 231/231/231
f 232/232/232 229/229/229 230/230/230
f 175/175/175 176/176/176 173/173/173
f 174/174/174 176/176/176 175/175/175
f 172/172/172 177/177/177 178/178/178
f 171/171/171 177/177/177 172/172/172
f 234/234/234 233/233/233 235/235/235
f 236/236/236 233/233/233 234/234/234
f 183/183/183 184/184/184 181/181/181
f 182/182/182 184/184/184 183/183/183
f 180/180/180 185/185/185 186/186/186
f 179/179/179 185/185/185 180/180/180
f 238/238/238 237/237/237 239/239/239
f 240/240/240 237/237/237 238/238/238
f 191/191/191 192/192/192 189/189/189
f 190/190/190 192/192/192 191/191/191
f 188/188/188 193/193/193 194/194/194
f 187/187/187 193/193/193 188/188/188
f 242/242/242 241/241/241 243/243/243
f 244/244/244 241/241/241 242/242/242
