g C3_screens_geo
v -47.48871 3.060079 21.69284
v -47.48871 1.547089 21.69284
v -51.28876 1.547089 21.69284
v -51.28876 3.06008 21.69284
v -47.4887 3.060079 15.59961
v -47.4887 1.547089 15.59961
v -51.28876 1.547089 15.59961
v -51.28876 3.06008 15.59961
v -51.64488 3.291416 21.27293
v -51.64488 1.542892 21.27293
v -51.64488 3.291415 16.02198
v -51.64488 1.543213 16.02198
vt 0.2794526 0.2236267
vt 0.2794526 0.5524788
vt 0.8812564 0.5524788
vt 0.8812564 0.2236267
vt 0.2794526 0.2236267
vt 0.2794526 0.5524788
vt 0.8812564 0.5524788
vt 0.8812564 0.2236267
vt 0.2009405 0.1147612
vt 0.5317771 0.1147635
vt 0.2009352 0.9016834
vt 0.5317719 0.9016856
vn 0 0 1
vn 0 0 1
vn 0 0 1
vn 0 0 1
vn 0 0 -1
vn 0 0 -1
vn 0 0 -1
vn 0 0 -1
vn -1 0 0
vn -1 0 0
vn -1 0 0
vn -1 0 0
g C3_screens_geo_0
f 3/3/3 1/1/1 4/4/4
f 2/2/2 1/1/1 3/3/3
g C3_screens_geo_1
f 7/7/7 5/5/5 6/6/6
f 8/8/8 5/5/5 7/7/7
f 10/10/10 11/11/11 12/12/12
f 9/9/9 11/11/11 10/10/10
