g C4_collisionInvisible_geo
v -59.39086 -0.1288873 174.2126
v -59.39086 19.87111 174.2126
v -55.63376 -0.128891 118.3463
v -55.63376 19.87111 118.3463
v -60.06605 -0.128891 118.3463
v -60.06605 19.87111 118.3463
v -62.49782 19.87111 120.0919
v -62.49782 -0.1288892 120.0919
v -55.38899 19.87111 145.7495
v -55.38899 -0.1288898 145.7495
v -55.63376 19.87111 124.8909
v -55.63376 -0.1288908 124.8909
v -29.85502 19.87111 125.7358
v -29.85502 -0.1288908 125.7358
v -30.04724 19.87111 145.7495
v -30.04724 -0.1288899 145.7495
v -30.04354 19.87111 145.2184
v -30.04354 -0.1288899 145.2184
v -31.83203 19.87111 145.1245
v -31.83203 -0.1288899 145.1245
v -29.92815 19.87111 135.6086
v -29.92815 -0.1288904 135.6086
v -31.76088 19.87111 135.7187
v -31.76088 -0.1288903 135.7187
v -46.88443 19.87111 125.5513
v -46.88443 -0.1288908 125.5513
v -47.38467 19.87111 122.9753
v -47.38467 -0.1288908 122.9753
v -53.17924 19.87111 122.9126
v -53.17924 -0.1288908 122.9126
vt 0.009305123 0.9919356
vt 0.009305123 0.9919356
vt 0.009305123 0.9919356
vt 0.009305123 0.9919356
vt 0.009305123 0.9919356
vt 0.009305123 0.9919356
vt 0.009305123 0.9919356
vt 0.009305123 0.9919356
vt 0.009305123 0.9919356
vt 0.009305123 0.9919356
vt 0.009305123 0.9919356
vt 0.009305123 0.9919356
vt 0.009305123 0.9919356
vt 0.009305123 0.9919356
vt 0.009305123 0.9919356
vt 0.009305123 0.9919356
vt 0.009305123 0.9919356
vt 0.009305123 0.9919356
vt 0.009305123 0.9919356
vt 0.009305123 0.9919356
vt 0.009305123 0.9919356
vt 0.009305123 0.9919356
vt 0.009305123 0.9919356
vt 0.009305123 0.9919356
vt 0.009305123 0.9919356
vt 0.009305123 0.9919356
vt 0.009305123 0.9919356
vt 0.009305123 0.9919356
vt 0.009305123 0.9919356
vt 0.009305123 0.9919356
vn 0.9902602 0 0.1392288
vn 0.9902602 0 0.1392288
vn 0.7071068 0 -0.7071068
vn 0.7071068 0 -0.7071068
vn -0.3063001 0 -0.951935
vn -0.3063001 0 -0.951935
vn -0.5831556 0 -0.8123604
vn -0.5831556 0 -0.8123604
vn 0.6560379 0 0.754728
vn 0.6560379 0 0.754728
vn 0.4315428 0 -0.9020925
vn 0.4315428 0 -0.9020925
vn 0.713526 0 -0.7006288
vn 0.713526 0 -0.7006288
vn 0.7046431 0 0.7095619
vn 0.7046431 0 0.7095619
vn 0.7278156 0 -0.6857728
vn 0.7278156 0 -0.6857728
vn 0.7280241 0 -0.6855515
vn 0.7280241 0 -0.6855515
vn 0.7254588 0 0.6882655
vn 0.7254588 0 0.6882655
vn 0.725405 0 0.6883223
vn 0.725405 0 0.6883223
vn 0.6403171 0 -0.7681106
vn 0.6403171 0 -0.7681106
vn 0.6403171 0 -0.7681106
vn 0.6403171 0 -0.7681106
vn -0.3276165 0 -0.9448107
vn -0.3276165 0 -0.9448107
g C4_collisionInvisible_geo_0
f 10/10/10 2/2/2 1/1/1
f 9/9/9 2/2/2 10/10/10
f 16/16/16 9/9/9 10/10/10
f 15/15/15 9/9/9 16/16/16
f 18/18/18 15/15/15 16/16/16
f 17/17/17 15/15/15 18/18/18
f 20/20/20 17/17/17 18/18/18
f 19/19/19 17/17/17 20/20/20
f 24/24/24 19/19/19 20/20/20
f 23/23/23 19/19/19 24/24/24
f 22/22/22 23/23/23 24/24/24
f 21/21/21 23/23/23 22/22/22
f 14/14/14 21/21/21 22/22/22
f 13/13/13 21/21/21 14/14/14
f 26/26/26 13/13/13 14/14/14
f 25/25/25 13/13/13 26/26/26
f 28/28/28 25/25/25 26/26/26
f 27/27/27 25/25/25 28/28/28
f 30/30/30 27/27/27 28/28/28
f 29/29/29 27/27/27 30/30/30
f 12/12/12 29/29/29 30/30/30
f 11/11/11 29/29/29 12/12/12
f 3/3/3 11/11/11 12/12/12
f 4/4/4 11/11/11 3/3/3
f 5/5/5 4/4/4 3/3/3
f 6/6/6 4/4/4 5/5/5
f 8/8/8 6/6/6 5/5/5
f 7/7/7 6/6/6 8/8/8
