g C4_detailGarbage_geo
v 11.36444 0.6630822 184.4229
v 11.42138 0.6630822 184.366
v 11.44222 0.6630822 184.2882
v 11.42139 0.6630822 184.2105
v 11.36444 0.6630822 184.1535
v 11.28668 0.6630822 184.1327
v 11.20893 0.6630824 184.1535
v 11.15199 0.6630824 184.2105
v 11.13115 0.6630822 184.2882
v 11.152 0.6630822 184.366
v 11.20893 0.6630822 184.4229
v 11.28668 0.6630824 184.4438
v 11.28668 0.1234462 184.1329
v 11.36434 0.1234462 184.1537
v 11.42122 0.1234461 184.2106
v 11.44202 0.1234462 184.2882
v 11.42121 0.1234462 184.3659
v 11.36434 0.1234462 184.4227
v 11.28668 0.1234462 184.4436
v 11.20902 0.1234462 184.4227
v 11.15217 0.1234461 184.3659
v 11.13136 0.1234462 184.2882
v 11.15217 0.1234462 184.2106
v 11.20902 0.1234462 184.1537
v -30.41433 0.6705405 109.2333
v -30.35675 0.6705405 109.2909
v -30.27809 0.6705405 109.312
v -30.19943 0.6705405 109.2909
v -30.14179 0.6705405 109.2333
v -30.12071 0.6705403 109.1547
v -30.14181 0.6705405 109.076
v -30.19941 0.6705405 109.0184
v -30.27809 0.6705405 108.9973
v -30.35675 0.6705405 109.0184
v -30.41431 0.6705405 109.076
v -30.4354 0.6705405 109.1547
v -30.12093 0.1246459 109.1547
v -30.14198 0.1246459 109.2332
v -30.19952 0.1246459 109.2907
v -30.27809 0.1246459 109.3118
v -30.35664 0.1246459 109.2908
v -30.41417 0.1246459 109.2332
v -30.43521 0.1246459 109.1547
v -30.41415 0.1246459 109.0761
v -30.35664 0.1246459 109.0186
v -30.27809 0.1246459 108.9976
v -30.19951 0.1246459 109.0186
v -30.14199 0.1246459 109.0761
v -13.2864 0.6663923 125.3402
v -13.3436 0.6663924 125.283
v -13.42178 0.6663924 125.2621
v -13.49993 0.6663923 125.283
v -13.55715 0.6663923 125.3402
v -13.5781 0.6663923 125.4184
v -13.55717 0.6663923 125.4966
v -13.49993 0.6663923 125.5538
v -13.42178 0.6663923 125.5747
v -13.3436 0.6663923 125.5538
v -13.28639 0.6663922 125.4966
v -13.26543 0.6663922 125.4184
v -13.5779 0.1239786 125.4184
v -13.55697 0.1239786 125.3403
v -13.49983 0.1239786 125.2832
v -13.42178 0.1239787 125.2623
v -13.34371 0.1239787 125.2832
v -13.28656 0.1239786 125.3403
v -13.26563 0.1239785 125.4184
v -13.28655 0.1239785 125.4965
v -13.34371 0.1239787 125.5536
v -13.42178 0.1239786 125.5745
v -13.49983 0.1239786 125.5536
v -13.55698 0.1239786 125.4965
v -32.06231 0.6841611 82.74467
v -32.12153 0.6841611 82.80389
v -32.14331 0.6841611 82.8847
v -32.12153 0.6841611 82.96558
v -32.06232 0.6841611 83.02476
v -31.98154 0.6841611 83.04644
v -31.90076 0.6841611 83.02476
v -31.84157 0.6841611 82.96558
v -31.81978 0.6841611 82.8847
v -31.84156 0.6841611 82.80388
v -31.90076 0.6841611 82.74467
v -31.98154 0.6841611 82.723
v -31.98154 0.1230536 83.04622
v -32.06221 0.1230536 83.02456
v -32.12151 0.1230536 82.96547
v -32.14312 0.1230536 82.8847
v -32.12148 0.1230536 82.80399
v -32.06222 0.1230536 82.74484
v -31.98154 0.1230536 82.72319
v -31.9009 0.1230536 82.74483
v -31.84157 0.1230536 82.80399
v -31.81994 0.1230535 82.8847
v -31.84157 0.1230535 82.96548
v -31.9009 0.1230536 83.02456
v 11.36444 0.6630822 184.4229
v 11.36434 0.1234462 184.4227
v -30.41433 0.6705405 109.2333
v -30.41417 0.1246459 109.2332
v -13.2864 0.6663923 125.3402
v -13.28656 0.1239786 125.3403
v -32.06231 0.6841611 82.74467
v -32.06222 0.1230536 82.74484
vt 0.3310535 0.7786525
vt 0.3310535 0.7786525
vt 0.3310535 0.7786525
vt 0.3310535 0.7786525
vt 0.3310535 0.7786525
vt 0.3310535 0.7786525
vt 0.3310535 0.7786525
vt 0.3310535 0.7786525
vt 0.3310535 0.7786525
vt 0.3310535 0.7786525
vt 0.3310535 0.7786525
vt 0.3310535 0.7786525
vt 0.3310535 0.7786525
vt 0.3310535 0.7786525
vt 0.3310535 0.7786525
vt 0.3310535 0.7786525
vt 0.3310535 0.7786525
vt 0.3310535 0.7786525
vt 0.3310535 0.7786525
vt 0.3310535 0.7786525
vt 0.3310535 0.7786525
vt 0.3310535 0.7786525
vt 0.3310535 0.7786525
vt 0.3310535 0.7786525
vt 0.3310535 0.7786525
vt 0.3310535 0.7786525
vt 0.3310535 0.7786525
vt 0.3310535 0.7786525
vt 0.3310535 0.7786525
vt 0.3310535 0.7786525
vt 0.3310535 0.7786525
vt 0.3310535 0.7786525
vt 0.3310535 0.7786525
vt 0.3310535 0.7786525
vt 0.3310535 0.7786525
vt 0.3310535 0.7786525
vt 0.3310535 0.7786525
vt 0.3310535 0.7786525
vt 0.3310535 0.7786525
vt 0.3310535 0.7786525
vt 0.3310535 0.7786525
vt 0.3310535 0.7786525
vt 0.3310535 0.7786525
vt 0.3310535 0.7786525
vt 0.3310535 0.7786525
vt 0.3310535 0.7786525
vt 0.3310535 0.7786525
vt 0.3310535 0.7786525
vt 0.3310535 0.7786525
vt 0.3310535 0.7786525
vt 0.3310535 0.7786525
vt 0.3310535 0.7786525
vt 0.3310535 0.7786525
vt 0.3310535 0.7786525
vt 0.3310535 0.7786525
vt 0.3310535 0.7786525
vt 0.3310535 0.7786525
vt 0.3310535 0.7786525
vt 0.3310535 0.7786525
vt 0.3310535 0.7786525
vt 0.3310535 0.7786525
vt 0.3310535 0.7786525
vt 0.3310535 0.7786525
vt 0.3310535 0.7786525
vt 0.3310535 0.7786525
vt 0.3310535 0.7786525
vt 0.3310535 0.7786525
vt 0.3310535 0.7786525
vt 0.3310535 0.7786525
vt 0.3310535 0.7786525
vt 0.3310535 0.7786525
vt 0.3310535 0.7786525
vt 0.3310535 0.7786525
vt 0.3310535 0.7786525
vt 0.3310535 0.7786525
vt 0.3310535 0.7786525
vt 0.3310535 0.7786525
vt 0.3310535 0.7786525
vt 0.3310535 0.7786525
vt 0.3310535 0.7786525
vt 0.3310535 0.7786525
vt 0.3310535 0.7786525
vt 0.3310535 0.7786525
vt 0.3310535 0.7786525
vt 0.3310535 0.7786525
vt 0.3310535 0.7786525
vt 0.3310535 0.7786525
vt 0.3310535 0.7786525
vt 0.3310535 0.7786525
vt 0.3310535 0.7786525
vt 0.3310535 0.7786525
vt 0.3310535 0.7786525
vt 0.3310535 0.7786525
vt 0.3310535 0.7786525
vt 0.3310535 0.7786525
vt 0.3310535 0.7786525
vt 0.3310535 0.7786525
vt 0.3310535 0.7786525
vt 0.3310535 0.7786525
vt 0.3310535 0.7786525
vt 0.3310535 0.7786525
vt 0.3310535 0.7786525
vt 0.3310535 0.7786525
vt 0.3310535 0.7786525
vn 0.499957 -0.0003858392 0.8660502
vn 0.8659134 -0.000381391 0.5001938
vn 1 -0.0003777527 -4.521554E-05
vn 0.8660328 -0.0003743835 -0.4999871
vn 0.4999621 -0.0003703055 -0.8660473
vn -8.523228E-05 -0.0003772374 -1
vn -0.4999942 -0.0003767866 -0.8660287
vn -0.8660035 -0.0003752042 -0.500038
vn -1 -0.0003796858 1.070632E-05
vn -0.8660088 -0.0003589883 0.5000287
vn -0.5001332 -0.0003539078 0.8659484
vn 5.376792E-05 -0.0003771999 1
vn -8.523228E-05 -0.0003772374 -1
vn 0.4999621 -0.0003703055 -0.8660473
vn 0.8660328 -0.0003743835 -0.4999871
vn 1 -0.0003777527 -4.521554E-05
vn 0.8659134 -0.000381391 0.5001938
vn 0.499957 -0.0003858392 0.8660502
vn 5.376792E-05 -0.0003771999 1
vn -0.5001332 -0.0003539078 0.8659484
vn -0.8660088 -0.0003589883 0.5000287
vn -1 -0.0003796858 1.070632E-05
vn -0.8660035 -0.0003752042 -0.500038
vn -0.4999942 -0.0003767866 -0.8660287
vn -0.8660386 -0.0003500639 0.4999771
vn -0.500079 -0.0003607179 0.8659797
vn 0 -0.0003601933 1
vn 0.499889 -0.0003688195 0.8660893
vn 0.8659052 -0.0003879186 0.500208
vn 1 -0.000395814 -3.228904E-05
vn 0.8659527 -0.0003846267 -0.5001258
vn 0.4999202 -0.0003846666 -0.8660714
vn -2.327917E-05 -0.0003916527 -1
vn -0.5000507 -0.0003783536 -0.865996
vn -0.865989 -0.0003528185 -0.5000629
vn -1 -0.000338845 -0.0001341548
vn 1 -0.000395814 -3.228904E-05
vn 0.8659052 -0.0003879186 0.500208
vn 0.499889 -0.0003688195 0.8660893
vn 0 -0.0003601933 1
vn -0.500079 -0.0003607179 0.8659797
vn -0.8660386 -0.0003500639 0.4999771
vn -1 -0.000338845 -0.0001341548
vn -0.865989 -0.0003528185 -0.5000629
vn -0.5000507 -0.0003783536 -0.865996
vn -2.327917E-05 -0.0003916527 -1
vn 0.4999202 -0.0003846666 -0.8660714
vn 0.8659527 -0.0003846267 -0.5001258
vn 0.8660087 -0.0003676311 -0.5000288
vn 0.500099 -0.0003686781 -0.8659682
vn -9.227135E-05 -0.0003717917 -1
vn -0.5001353 -0.000375599 -0.8659472
vn -0.8659981 -0.0003758908 -0.5000473
vn -1 -0.0003802119 -0.0001427923
vn -0.8660375 -0.0003799909 0.4999789
vn -0.499901 -0.0003662924 0.8660825
vn -2.341665E-05 -0.0003585294 1
vn 0.4998992 -0.0003644729 0.8660834
vn 0.8660098 -0.000367969 0.500027
vn 1 -0.0003666161 -9.523355E-05
vn -1 -0.0003802119 -0.0001427923
vn -0.8659981 -0.0003758908 -0.5000473
vn -0.5001353 -0.000375599 -0.8659472
vn -9.227135E-05 -0.0003717917 -1
vn 0.500099 -0.0003686781 -0.8659682
vn 0.8660087 -0.0003676311 -0.5000288
vn 1 -0.0003666161 -9.523355E-05
vn 0.8660098 -0.000367969 0.500027
vn 0.4998992 -0.0003644729 0.8660834
vn -2.341665E-05 -0.0003585294 1
vn -0.499901 -0.0003662924 0.8660825
vn -0.8660375 -0.0003799909 0.4999789
vn -0.4999739 -0.0003102008 -0.8660403
vn -0.8656919 -0.0002567288 -0.5005772
vn -1 -0.000224408 -0.0001865872
vn -0.8656483 -0.0002538557 0.5006525
vn -0.4997353 -0.0003493165 0.866178
vn 1.513568E-05 -0.000404907 1
vn 0.4997484 -0.0003475645 0.8661705
vn 0.8656024 -0.0002253834 0.5007318
vn 1 -0.0001698762 -4.090362E-05
vn 0.8656777 -0.0002263084 -0.5006016
vn 0.4998304 -0.0003153828 -0.8661233
vn -8.329814E-05 -0.0003498473 -1
vn 1.513568E-05 -0.000404907 1
vn -0.4997353 -0.0003493165 0.866178
vn -0.8656483 -0.0002538557 0.5006525
vn -1 -0.000224408 -0.0001865872
vn -0.8656919 -0.0002567288 -0.5005772
vn -0.4999739 -0.0003102008 -0.8660403
vn -8.329814E-05 -0.0003498473 -1
vn 0.4998304 -0.0003153828 -0.8661233
vn 0.8656777 -0.0002263084 -0.5006016
vn 1 -0.0001698762 -4.090362E-05
vn 0.8656024 -0.0002253834 0.5007318
vn 0.4997484 -0.0003475645 0.8661705
vn 0.499957 -0.0003858392 0.8660502
vn 0.499957 -0.0003858392 0.8660502
vn -0.8660386 -0.0003500639 0.4999771
vn -0.8660386 -0.0003500639 0.4999771
vn 0.8660087 -0.0003676311 -0.5000288
vn 0.8660087 -0.0003676311 -0.5000288
vn -0.4999739 -0.0003102008 -0.8660403
vn -0.4999739 -0.0003102008 -0.8660403
g C4_detailGarbage_geo_0
f 19/19/19 98/98/98 97/97/97
f 12/12/12 19/19/19 97/97/97
f 20/20/20 19/19/19 12/12/12
f 11/11/11 20/20/20 12/12/12
f 21/21/21 20/20/20 11/11/11
f 10/10/10 21/21/21 11/11/11
f 22/22/22 21/21/21 10/10/10
f 9/9/9 22/22/22 10/10/10
f 23/23/23 22/22/22 9/9/9
f 8/8/8 23/23/23 9/9/9
f 24/24/24 23/23/23 8/8/8
f 7/7/7 24/24/24 8/8/8
f 13/13/13 24/24/24 7/7/7
f 6/6/6 13/13/13 7/7/7
f 14/14/14 13/13/13 6/6/6
f 5/5/5 14/14/14 6/6/6
f 15/15/15 14/14/14 5/5/5
f 4/4/4 15/15/15 5/5/5
f 16/16/16 15/15/15 4/4/4
f 3/3/3 16/16/16 4/4/4
f 17/17/17 16/16/16 3/3/3
f 2/2/2 17/17/17 3/3/3
f 18/18/18 17/17/17 2/2/2
f 1/1/1 18/18/18 2/2/2
f 43/43/43 100/100/100 99/99/99
f 36/36/36 43/43/43 99/99/99
f 44/44/44 43/43/43 36/36/36
f 35/35/35 44/44/44 36/36/36
f 45/45/45 44/44/44 35/35/35
f 34/34/34 45/45/45 35/35/35
f 46/46/46 45/45/45 34/34/34
f 33/33/33 46/46/46 34/34/34
f 47/47/47 46/46/46 33/33/33
f 32/32/32 47/47/47 33/33/33
f 48/48/48 47/47/47 32/32/32
f 31/31/31 48/48/48 32/32/32
f 37/37/37 48/48/48 31/31/31
f 30/30/30 37/37/37 31/31/31
f 38/38/38 37/37/37 30/30/30
f 29/29/29 38/38/38 30/30/30
f 39/39/39 38/38/38 29/29/29
f 28/28/28 39/39/39 29/29/29
f 40/40/40 39/39/39 28/28/28
f 27/27/27 40/40/40 28/28/28
f 41/41/41 40/40/40 27/27/27
f 26/26/26 41/41/41 27/27/27
f 42/42/42 41/41/41 26/26/26
f 25/25/25 42/42/42 26/26/26
f 67/67/67 102/102/102 101/101/101
f 60/60/60 67/67/67 101/101/101
f 68/68/68 67/67/67 60/60/60
f 59/59/59 68/68/68 60/60/60
f 69/69/69 68/68/68 59/59/59
f 58/58/58 69/69/69 59/59/59
f 70/70/70 69/69/69 58/58/58
f 57/57/57 70/70/70 58/58/58
f 71/71/71 70/70/70 57/57/57
f 56/56/56 71/71/71 57/57/57
f 72/72/72 71/71/71 56/56/56
f 55/55/55 72/72/72 56/56/56
f 61/61/61 72/72/72 55/55/55
f 54/54/54 61/61/61 55/55/55
f 62/62/62 61/61/61 54/54/54
f 53/53/53 62/62/62 54/54/54
f 63/63/63 62/62/62 53/53/53
f 52/52/52 63/63/63 53/53/53
f 64/64/64 63/63/63 52/52/52
f 51/51/51 64/64/64 52/52/52
f 65/65/65 64/64/64 51/51/51
f 50/50/50 65/65/65 51/51/51
f 66/66/66 65/65/65 50/50/50
f 49/49/49 66/66/66 50/50/50
f 91/91/91 104/104/104 103/103/103
f 84/84/84 91/91/91 103/103/103
f 92/92/92 91/91/91 84/84/84
f 83/83/83 92/92/92 84/84/84
f 93/93/93 92/92/92 83/83/83
f 82/82/82 93/93/93 83/83/83
f 94/94/94 93/93/93 82/82/82
f 81/81/81 94/94/94 82/82/82
f 95/95/95 94/94/94 81/81/81
f 80/80/80 95/95/95 81/81/81
f 96/96/96 95/95/95 80/80/80
f 79/79/79 96/96/96 80/80/80
f 85/85/85 96/96/96 79/79/79
f 78/78/78 85/85/85 79/79/79
f 86/86/86 85/85/85 78/78/78
f 77/77/77 86/86/86 78/78/78
f 87/87/87 86/86/86 77/77/77
f 76/76/76 87/87/87 77/77/77
f 88/88/88 87/87/87 76/76/76
f 75/75/75 88/88/88 76/76/76
f 89/89/89 88/88/88 75/75/75
f 74/74/74 89/89/89 75/75/75
f 90/90/90 89/89/89 74/74/74
f 73/73/73 90/90/90 74/74/74
