g C4_paths_geo
v -38.35717 -3.062185E-07 99.65514
v -40.34904 -2.142721E-07 99.65514
v -38.3839 0.009296081 99.68429
v -40.32227 0.009296142 99.68429
v -38.35718 -4.595541E-07 115.7341
v -38.38389 0.009295979 115.7114
v -40.32227 0.009296034 115.7114
v -40.34904 -3.755391E-07 115.7341
v -13.89637 0.0006075986 129.3132
v -13.89637 0.0006075587 131.3056
v -7.03747 0.0006081605 129.3132
v -7.03747 0.0006081106 131.3056
v -13.89637 0.01102297 129.3407
v -7.03747 0.01102315 129.3407
v -7.03748 0.01102313 131.2828
v -13.89637 0.01102294 131.2828
v -38.35717 -3.062185E-07 99.65514
v -38.3839 0.009296081 99.68429
v -38.3839 0.009296081 99.68429
v -40.32227 0.009296142 99.68429
v -38.38389 0.009295979 115.7114
v -40.32227 0.009296142 99.68429
v -40.34904 -2.142721E-07 99.65514
v -40.32227 0.009296034 115.7114
v -13.89637 0.01102297 129.3407
v -7.03748 0.01102313 131.2828
v -13.89637 0.01102294 131.2828
v -7.03747 0.01102315 129.3407
vt 0.2746955 0.8134831
vt 0.2746955 0.8134829
vt 0.2747072 0.8134878
vt 0.2747072 0.8134831
vt 0.5329292 0.5445634
vt 0.5329292 0.5445634
vt 1 1.841656
vt 0.5329292 0.5445634
vt 0.6227437 0.3497335
vt 0.6227437 0.3497335
vt 0.6227437 0.3497335
vt 0.6227437 0.3497335
vt 0.6227437 0.3497335
vt 0.6227437 0.3497335
vt 0.6227437 0.3497335
vt 0.6227437 0.3497335
vt 0.5329292 0.5445634
vt 0.5329292 0.5445634
vt 0 -0.8236199
vt 1 -0.8236199
vt 0 1.841656
vt 0.5329292 0.5445634
vt 0.5329292 0.5445634
vt 0.5329292 0.5445634
vt 0 0
vt 1 1.283532
vt 1 0
vt 0 1.283532
vn 0.1685728 0.9732791 -0.1559197
vn -0.1682304 0.9733397 -0.155911
vn 0.1120882 0.9882752 -0.1036749
vn -0.1118611 0.9883015 -0.1036696
vn 0.1697201 0.9659074 0.1954946
vn 0.1127821 0.9850907 0.1299096
vn -0.1125528 0.9851178 0.129903
vn -0.1693744 0.9659702 0.1954837
vn -0.7070562 0.6614185 -0.2501942
vn -0.7070576 0.6431586 0.2939666
vn 4.745173E-07 0.935301 -0.3538532
vn 1.174423E-07 0.9094742 0.4157605
vn -0.4530877 0.8769305 -0.1603266
vn 2.272781E-07 0.9836923 -0.1798597
vn 0 0.9771065 0.2127509
vn -0.4555096 0.8698535 0.1893829
vn 0.1685728 0.9732791 -0.1559197
vn 0.1120882 0.9882752 -0.1036749
vn 0.1120882 0.9882752 -0.1036749
vn -0.1118611 0.9883015 -0.1036696
vn 0.1127821 0.9850907 0.1299096
vn -0.1118611 0.9883015 -0.1036696
vn -0.1682304 0.9733397 -0.155911
vn -0.1125528 0.9851178 0.129903
vn -0.4530877 0.8769305 -0.1603266
vn 0 0.9771065 0.2127509
vn -0.4555096 0.8698535 0.1893829
vn 2.272781E-07 0.9836923 -0.1798597
g C4_paths_geo_0
f 2/2/2 3/3/3 1/1/1
f 4/4/4 3/3/3 2/2/2
f 8/8/8 22/22/22 23/23/23
f 24/24/24 22/22/22 8/8/8
f 5/5/5 24/24/24 8/8/8
f 6/6/6 24/24/24 5/5/5
f 17/17/17 6/6/6 5/5/5
f 18/18/18 6/6/6 17/17/17
f 7/7/7 19/19/19 20/20/20
f 21/21/21 19/19/19 7/7/7
f 16/16/16 12/12/12 15/15/15
f 10/10/10 12/12/12 16/16/16
f 13/13/13 10/10/10 16/16/16
f 9/9/9 10/10/10 13/13/13
f 14/14/14 9/9/9 13/13/13
f 11/11/11 9/9/9 14/14/14
f 26/26/26 25/25/25 27/27/27
f 28/28/28 25/25/25 26/26/26
