g C4_shadowCircle_geo29
v -37.44069 0.01251344 157.3923
v -36.41502 0.01251851 156.9739
v -37.85924 0.01251617 156.3661
v -36.83257 0.01252125 155.9473
v -36.23013 0.01251344 160.5254
v -35.20445 0.01251851 160.107
v -36.64868 0.01251617 159.4992
v -35.622 0.01252125 159.0804
v 9.493605 0.001456757 124.3022
v 11.59218 0.001456757 124.3022
v 9.49357 0.001456757 122.5906
v 11.59223 0.001456757 122.5906
v 8.408936 0.001456757 130.6178
v 10.50751 0.001456757 130.6178
v 8.408901 0.001456757 128.9062
v 10.50756 0.001456757 128.9062
v 34.64994 0.02 143.0516
v 30.97918 0.02 143.0516
v 32.15414 0.02 143.9999
v 35.82119 0.02 143.9807
v 30.97918 0.02 148.0155
v 32.15045 0.02 148.9446
v 38.10852 0.01251344 126.1415
v 42.8784 0.01251851 126.1415
v 38.10853 0.01251617 125.0333
v 42.8795 0.01252125 125.0333
vt 0.5 0.5
vt 0.5 0.5
vt 0.5 0.5
vt 0.5 0.5
vt 0.5 0.5
vt 0.5 0.5
vt 0.5 0.5
vt 0.5 0.5
vt 0.5 0.5
vt 0.5 0.5
vt 0.5 0.5
vt 0.5 0.5
vt 0.5 0.5
vt 0.5 0.5
vt 0.5 0.5
vt 0.5 0.5
vt 0.5 0.5
vt 0.5 0.5
vt 0.5 0.5
vt 0.5 0.5
vt 0.5 0.5
vt 0.5 0.5
vt 0.5 0.5
vt 0.5 0.5
vt 0.5 0.5
vt 0.5 0.5
vn -3.310344E-06 1 4.012153E-06
vn -3.310344E-06 1 4.012153E-06
vn -3.310344E-06 1 4.012153E-06
vn -3.310344E-06 1 4.012153E-06
vn -3.310225E-06 1 4.012102E-06
vn -3.310225E-06 1 4.012102E-06
vn -3.310225E-06 1 4.012102E-06
vn -3.310225E-06 1 4.012102E-06
vn 0 1 0
vn 0 1 0
vn 0 1 0
vn 0 1 0
vn 0 1 0
vn 0 1 0
vn 0 1 0
vn 0 1 0
vn 0 1 0
vn 0 1 0
vn 0 1 0
vn 0 1 0
vn 0 1 0
vn 0 1 0
vn -1.064039E-06 1 2.465289E-06
vn -1.064039E-06 1 2.465289E-06
vn -1.064039E-06 1 2.465289E-06
vn -1.064039E-06 1 2.465289E-06
g C4_shadowCircle_geo29_0
f 1/1/1 4/4/4 3/3/3
f 2/2/2 4/4/4 1/1/1
f 5/5/5 8/8/8 7/7/7
f 6/6/6 8/8/8 5/5/5
f 12/12/12 9/9/9 10/10/10
f 11/11/11 9/9/9 12/12/12
f 16/16/16 13/13/13 14/14/14
f 15/15/15 13/13/13 16/16/16
f 19/19/19 18/18/18 21/21/21
f 17/17/17 18/18/18 19/19/19
f 20/20/20 17/17/17 19/19/19
f 22/22/22 19/19/19 21/21/21
f 23/23/23 26/26/26 25/25/25
f 24/24/24 26/26/26 23/23/23
