g C4_screens_geo
v -36.13742 3.581418 121.9816
v -36.13742 2.068428 121.9816
v -32.87577 2.068428 121.9816
v -32.87577 3.581418 121.9816
v -32.51964 3.812754 127.6549
v -32.51964 2.064229 127.6549
v -32.51964 3.812754 122.404
v -32.51964 2.064552 122.404
v -34.58218 3.581418 128.0749
v -32.94911 3.581418 128.0748
v -34.58218 2.068428 128.0749
v -32.94911 2.068428 128.0748
v -36.19545 3.581418 128.0749
v -36.19545 3.148063 128.0749
v -35.02006 3.581418 128.0749
v -35.02006 3.148063 128.0749
v -35.16291 1.926335 128.0803
v -36.03969 1.926335 128.0813
v -35.16291 2.814567 128.0803
v -36.03969 2.814568 128.0813
v -36.03973 0.8229308 128.0813
v -35.16295 0.8229308 128.0803
v -35.16295 1.696226 128.0803
v -36.03973 1.696226 128.0813
v -42.09772 3.060079 170.9836
v -42.09772 1.547089 170.9836
v -40.90042 1.547089 174.0175
v -40.90042 3.060079 174.0175
v -36.42996 3.060079 168.7468
v -36.42997 1.547089 168.7468
v -35.23263 1.547089 171.7808
v -35.23263 3.06008 171.7808
v -40.37911 3.291415 174.1947
v -40.37911 1.542891 174.1947
v -35.49474 3.291415 172.2671
v -35.49474 1.543212 172.2671
vt 0.2794526 0.2236267
vt 0.2794526 0.5524788
vt 0.8812564 0.5524788
vt 0.8812564 0.2236267
vt 0.2009405 0.1147612
vt 0.5317771 0.1147635
vt 0.2009352 0.9016834
vt 0.5317719 0.9016856
vt 0.6158273 -0.2703041
vt 0.6158276 -0.5623249
vt 0.197517 -0.2703041
vt 0.1975175 -0.5623249
vt 0.1494893 0.4615903
vt 0.1494893 0.5895215
vt -0.1812452 0.4615903
vt -0.1812448 0.5895215
vt 0.4216833 0.7019697
vt 0.1849737 0.7019697
vt 0.4216833 0.9475484
vt 0.1849737 0.9475484
vt 0.4021896 0.4555671
vt 0.6388997 0.4555671
vt 0.6388997 0.6970152
vt 0.4021896 0.6970152
vt 0.2794526 0.2236267
vt 0.2794526 0.5524788
vt 0.8812564 0.5524788
vt 0.8812564 0.2236267
vt 0.2794526 0.2236267
vt 0.2794526 0.5524788
vt 0.8812564 0.5524788
vt 0.8812564 0.2236267
vt 0.2009405 0.1147612
vt 0.5317771 0.1147635
vt 0.2009352 0.9016834
vt 0.5317719 0.9016856
vn -2.53301E-06 0 -1
vn -2.53301E-06 0 -1
vn -2.53301E-06 0 -1
vn -2.53301E-06 0 -1
vn 1 0 0
vn 1 0 0
vn 1 0 0
vn 1 0 0
vn 1.011814E-05 0 1
vn 1.011814E-05 0 1
vn 1.011814E-05 0 1
vn 1.011814E-05 0 1
vn 0 0 1
vn 0 0 1
vn 0 0 1
vn 0 0 1
vn 0.001091446 0 0.9999994
vn 0.001091446 0 0.9999994
vn 0.001091446 0 0.9999994
vn 0.001091446 0 0.9999994
vn 0.001110116 0 0.9999994
vn 0.001110116 0 0.9999994
vn 0.001110116 0 0.9999994
vn 0.001110116 0 0.9999994
vn -0.9301878 0 0.3670841
vn -0.9301878 0 0.3670841
vn -0.9301878 0 0.3670841
vn -0.9301878 0 0.3670841
vn 0.9301827 -4.867996E-06 -0.367097
vn 0.9301827 -4.867996E-06 -0.367097
vn 0.9301827 -4.867996E-06 -0.367097
vn 0.9301827 -4.867996E-06 -0.367097
vn 0.3670916 0 0.9301848
vn 0.3670916 0 0.9301848
vn 0.3670916 0 0.9301848
vn 0.3670916 0 0.9301848
g C4_screens_geo_0
f 3/3/3 1/1/1 4/4/4
f 2/2/2 1/1/1 3/3/3
f 6/6/6 7/7/7 5/5/5
f 8/8/8 7/7/7 6/6/6
f 12/12/12 9/9/9 11/11/11
f 10/10/10 9/9/9 12/12/12
f 16/16/16 13/13/13 14/14/14
f 15/15/15 13/13/13 16/16/16
f 19/19/19 18/18/18 17/17/17
f 20/20/20 18/18/18 19/19/19
f 23/23/23 21/21/21 22/22/22
f 24/24/24 21/21/21 23/23/23
f 31/31/31 29/29/29 32/32/32
f 30/30/30 29/29/29 31/31/31
f 34/34/34 35/35/35 33/33/33
f 36/36/36 35/35/35 34/34/34
g C4_screens_geo_1
f 27/27/27 25/25/25 26/26/26
f 28/28/28 25/25/25 27/27/27
