g C4_shadowGradient_geo
v -6.817549 0.09186041 154.377
v -0.1307811 0.09186041 151.4177
v -7.592535 0.09186041 152.8424
v -0.9321569 0.09186041 149.7443
v -2.935999 0.09186041 154.3988
v -2.074251 0.09186041 154.2066
v -3.727064 0.09186041 153.0092
v -2.019485 0.09186041 152.2536
v -2.513917 0.09186041 154.4683
v 12.271 0.01488464 161.6432
v 12.60825 0.01488464 162.2273
v 12.62379 0.01488464 161.4395
v 12.96103 0.01488464 162.0236
v 12.89115 0.0147451 162.7173
v 13.2284 0.0147451 163.3014
v 13.24394 0.0147451 162.5136
v 13.58118 0.0147451 163.0977
v 13.51035 0.0147451 163.7898
v 13.8476 0.0147451 164.3739
v 13.86314 0.0147451 163.5861
v 14.20038 0.0147451 164.1702
v 17.68274 0.01488464 159.6729
v 23.01454 0.01488464 159.6729
v 17.68274 0.01488464 158.5369
v 23.01454 0.01488464 158.5369
v 24.65043 0.009143805 162.0528
v 25.58344 0.009143805 161.8028
v 26.51644 0.009143805 162.0528
v 27.19945 0.009143805 162.7359
v 27.44944 0.009143805 163.6689
v 27.19945 0.009143805 164.6019
v 26.51644 0.009143805 165.2849
v 25.58344 0.009143805 165.5349
v 24.65043 0.009143805 165.2849
v 23.96742 0.009143805 164.6019
v 23.71743 0.009143805 163.6689
v 23.96742 0.009143805 162.7359
v 34.10547 0.009143791 155.7804
v 35.46112 0.009143791 155.4171
v 36.81677 0.009143791 155.7804
v 37.80917 0.009143791 156.7728
v 38.17242 0.009143791 158.1285
v 37.80917 0.009143791 159.4841
v 36.81677 0.009143791 160.4765
v 35.46112 0.009143791 160.8397
v 34.10547 0.009143791 160.4765
v 33.11307 0.009143791 159.4841
v 32.74982 0.009143791 158.1285
v 33.11307 0.009143791 156.7728
v 33.59464 0.009143791 160.0893
v 32.86428 0.009143791 157.3635
v 38.01892 0.009143791 158.9161
v 37.28241 0.009143791 156.1674
v 34.83441 0.009143791 160.7835
v 33.59084 0.009143791 156.1424
v 37.37217 0.009143791 160.103
v 36.12882 0.009143791 155.4628
v 36.14492 0.009143791 160.7851
v 34.72497 0.009143791 155.4858
v 32.85178 0.009143791 158.8241
v 38.0715 0.009143791 157.4648
vt 0.5 0.5
vt 0.5 0.5
vt 0.5 0.5
vt 0.5 0.5
vt 0.5 0.5
vt 0.5 0.5
vt 0.5 0.5
vt 0.5 0.5
vt 0.5 0.5
vt 0.5 0.5
vt 0.5 0.5
vt 0.5 0.5
vt 0.5 0.5
vt 0.5 0.5
vt 0.5 0.5
vt 0.5 0.5
vt 0.5 0.5
vt 0.5 0.5
vt 0.5 0.5
vt 0.5 0.5
vt 0.5 0.5
vt 0.5 0.5
vt 0.5 0.5
vt 0.5 0.5
vt 0.5 0.5
vt 0.5 0.5
vt 0.5 0.5
vt 0.5 0.5
vt 0.5 0.5
vt 0.5 0.5
vt 0.5 0.5
vt 0.5 0.5
vt 0.5 0.5
vt 0.5 0.5
vt 0.5 0.5
vt 0.5 0.5
vt 0.5 0.5
vt 0.5 0.5
vt 0.5 0.5
vt 0.5 0.5
vt 0.5 0.5
vt 0.5 0.5
vt 0.5 0.5
vt 0.5 0.5
vt 0.5 0.5
vt 0.5 0.5
vt 0.5 0.5
vt 0.5 0.5
vt 0.5 0.5
vt 0.5 0.5
vt 0.5 0.5
vt 0.5 0.5
vt 0.5 0.5
vt 0.5 0.5
vt 0.5 0.5
vt 0.5 0.5
vt 0.5 0.5
vt 0.5 0.5
vt 0.5 0.5
vt 0.5 0.5
vt 0.5 0.5
vn 0 1 0
vn 0 1 0
vn 0 1 0
vn 0 1 0
vn 0 1 0
vn 0 1 0
vn 0 1 0
vn 0 1 0
vn 0 1 0
vn 0 1 0
vn 0 1 0
vn 0 1 0
vn 0 1 0
vn 0 1 0
vn 0 1 0
vn 0 1 0
vn 0 1 0
vn 0 1 0
vn 0 1 0
vn 0 1 0
vn 0 1 0
vn 0 1 0
vn 0 1 0
vn 0 1 0
vn 0 1 0
vn 0 1 0
vn 0 1 0
vn 0 1 0
vn 0 1 0
vn 0 1 0
vn 0 1 0
vn 0 1 0
vn 0 1 0
vn 0 1 0
vn 0 1 0
vn 0 1 0
vn 0 1 0
vn 0 1 0
vn 0 1 0
vn 0 1 0
vn 0 1 0
vn 0 1 0
vn 0 1 0
vn 0 1 0
vn 0 1 0
vn 0 1 0
vn 0 1 0
vn 0 1 0
vn 0 1 0
vn 0 1 0
vn 0 1 0
vn 0 1 0
vn 0 1 0
vn 0 1 0
vn 0 1 0
vn 0 1 0
vn 0 1 0
vn 0 1 0
vn 0 1 0
vn 0 1 0
vn 0 1 0
g C4_shadowGradient_geo_0
f 4/4/4 1/1/1 2/2/2
f 3/3/3 1/1/1 4/4/4
f 6/6/6 5/5/5 9/9/9
f 7/7/7 5/5/5 6/6/6
f 8/8/8 7/7/7 6/6/6
f 13/13/13 10/10/10 11/11/11
f 12/12/12 10/10/10 13/13/13
f 17/17/17 14/14/14 15/15/15
f 16/16/16 14/14/14 17/17/17
f 21/21/21 18/18/18 19/19/19
f 20/20/20 18/18/18 21/21/21
f 25/25/25 22/22/22 23/23/23
f 24/24/24 22/22/22 25/25/25
f 34/34/34 36/36/36 35/35/35
f 37/37/37 36/36/36 34/34/34
f 33/33/33 37/37/37 34/34/34
f 26/26/26 37/37/37 33/33/33
f 32/32/32 26/26/26 33/33/33
f 27/27/27 26/26/26 32/32/32
f 31/31/31 27/27/27 32/32/32
f 28/28/28 27/27/27 31/31/31
f 30/30/30 28/28/28 31/31/31
f 29/29/29 28/28/28 30/30/30
f 50/50/50 60/60/60 47/47/47
f 48/48/48 60/60/60 50/50/50
f 51/51/51 48/48/48 50/50/50
f 52/52/52 41/41/41 53/53/53
f 61/61/61 41/41/41 52/52/52
f 42/42/42 61/61/61 52/52/52
f 46/46/46 51/51/51 50/50/50
f 49/49/49 51/51/51 46/46/46
f 54/54/54 49/49/49 46/46/46
f 55/55/55 49/49/49 54/54/54
f 45/45/45 55/55/55 54/54/54
f 38/38/38 55/55/55 45/45/45
f 58/58/58 38/38/38 45/45/45
f 59/59/59 38/38/38 58/58/58
f 44/44/44 59/59/59 58/58/58
f 39/39/39 59/59/59 44/44/44
f 56/56/56 39/39/39 44/44/44
f 57/57/57 39/39/39 56/56/56
f 43/43/43 57/57/57 56/56/56
f 40/40/40 57/57/57 43/43/43
f 52/52/52 40/40/40 43/43/43
f 53/53/53 40/40/40 52/52/52
