g C4_windowCar_geo
v 54.76697 1.490524 108.0719
v 54.97621 1.040537 108.2736
v 54.78469 1.490524 106.7541
v 54.99928 1.040537 106.5582
v 55.01591 1.053477 107.7561
v 55.02507 1.053477 107.0765
v 53.89098 1.056234 108.3559
v 53.89357 1.555492 108.1641
v 54.65259 1.056234 108.3661
v 54.57806 1.513827 108.1733
v 53.79111 1.055411 108.3518
v 53.7937 1.556314 108.1595
v 53.12064 1.558293 108.1504
v 52.52356 1.055411 108.3347
v 53.91665 1.056235 106.4467
v 53.91407 1.555493 106.6385
v 54.67825 1.056235 106.457
v 54.59858 1.513828 106.6477
v 53.81671 1.055411 106.4481
v 53.81411 1.556314 106.6405
v 53.14105 1.558293 106.6314
v 52.54914 1.055411 106.4311
v 52.45051 1.044012 108.308
v 53.05928 1.570919 108.1185
v 52.47538 1.044012 106.4559
v 53.07887 1.570919 106.6617
v -50.60567 1.490525 114.8435
v -50.79662 1.040538 115.0626
v -49.28867 1.490525 114.7953
v -49.08221 1.040538 114.9998
v -50.27785 1.053478 115.0763
v -49.59859 1.053478 115.0515
v -50.93306 1.056234 113.9828
v -50.74141 1.555492 113.9758
v -50.90523 1.056234 114.744
v -50.71637 1.513828 114.6599
v -50.93402 1.055412 113.8829
v -50.74176 1.556315 113.8758
v -50.76638 1.558294 113.2032
v -50.98038 1.055412 112.616
v -49.02504 1.056236 113.913
v -49.21667 1.555494 113.92
v -48.99718 1.056236 114.6741
v -49.19165 1.513829 114.6041
v -49.03143 1.05541 113.8132
v -49.22369 1.556313 113.8203
v -49.24831 1.558292 113.1476
v -49.07779 1.05541 112.5464
v -50.95728 1.044013 112.5417
v -50.73758 1.57092 113.1403
v -49.10625 1.044013 112.474
v -49.28162 1.57092 113.087
v -10.81881 1.547543 113.123
v -11.2752 1.057709 113.3472
v -10.2817 1.057709 113.2753
v -9.948916 1.590882 113.0601
v -9.231768 1.056234 113.1964
v -9.245615 1.592356 113.0051
v -10.14622 1.056234 113.2626
v -9.842138 1.592356 113.0483
v -9.132324 1.055412 113.1865
v -9.146221 1.593179 112.9946
v -8.474854 1.565669 112.946
v -7.867959 1.055412 113.0949
v -7.930351 1.044014 111.2165
v -8.520674 1.570921 111.4574
v -8.468076 1.59611 112.1839
v -7.796601 1.044012 113.0639
v -8.415469 1.57092 112.9105
v -9.269794 1.055413 111.2876
v -9.255898 1.59318 111.4795
v -8.584531 1.56567 111.4308
v -8.005429 1.055413 111.196
v -9.369648 1.056235 111.2921
v -9.355801 1.592357 111.4833
v -10.2841 1.056235 111.3583
v -9.952314 1.592357 111.5265
v -10.92955 1.547543 111.5932
v -11.41351 1.057709 111.4371
v -10.41999 1.057709 111.3652
v -10.05967 1.590883 111.5303
v -10.98748 1.543322 111.7146
v -10.96569 1.579911 112.3648
v -11.49195 1.040537 111.5429
v -10.8936 1.543318 113.0112
v -11.3681 1.040535 113.2539
vt -0.04274477 0.937976
vt -0.1204581 0.5392956
vt 0.5072587 0.937976
vt 0.5954908 0.5392956
vt 0.09649485 0.5507606
vt 0.3801591 0.5507606
vt 0 1
vt 0 1
vt 0 1
vt 0 1
vt 0.5685823 0.6143231
vt 0.4683439 0.9805027
vt -0.02604482 0.8587325
vt -0.361771 0.3822643
vt 1.097179 0.2442707
vt 0.6658654 0.05311948
vt 0.9060281 0.6755835
vt 0.4747143 0.4844342
vt 0.0528469 0.5504753
vt 0.1358175 0.9185936
vt 0.6271979 0.7975648
vt 0.9775831 0.3198179
vt 0.458383 0.4630412
vt 0.3825332 0.8260765
vt -0.1427574 0.4630412
vt -0.09030548 0.8260765
vt 0.0001658075 0.7474251
vt -0.04145759 0.5030115
vt 0.3261339 0.7591355
vt 0.382864 0.5182552
vt 0.08621389 0.5145837
vt 0.254332 0.5206233
vt 0 1
vt 0 1
vt 0 1
vt 0 1
vt 1.222676 0.4584182
vt 1.225778 0.8230871
vt 0.7358501 0.8245277
vt 0.3000109 0.4584182
vt 0.1585627 -0.6502044
vt 0.1617749 -0.272851
vt -0.4169869 -0.6502044
vt -0.3555096 -0.3043425
vt 0.5852069 0.5122449
vt 0.587442 0.7748209
vt 0.9402105 0.7758583
vt 1.249565 0.5122449
vt 1.649338 -1.538194
vt 1.580122 -1.100144
vt 0.9533881 -1.538194
vt 1.032707 -1.100144
vt -0.189483 0.6169314
vt -0.4285343 0.3603685
vt 0.09183937 0.3603685
vt 0.2661414 0.6396315
vt 0.8009968 0.4810472
vt 0.7937427 0.7618544
vt 0.32203 0.4810472
vt 0.4812995 0.7618544
vt 0.03014612 0.531065
vt 0.0210789 0.8819304
vt 0.4591087 0.8639814
vt 0.8550766 0.531065
vt 0.5047192 1.527095
vt 0.4387565 1.865626
vt 0.1810695 1.881811
vt -0.150486 1.527096
vt -0.07661507 1.865626
vt 0.4563809 0.05690449
vt 0.4478305 0.387776
vt 0.03475824 0.3708502
vt -0.3215451 0.05690449
vt -0.3517972 -0.1208096
vt -0.3590479 0.1599977
vt 0.1271729 -0.1208096
vt -0.04660833 0.1599977
vt 0.4489924 0.6934699
vt 0.7117578 0.4275068
vt 0.1723178 0.4275067
vt -0.02332609 0.7170016
vt -0.08452345 1.865626
vt 0.1731634 1.881811
vt -0.150486 1.527095
vt 0.4308481 1.865626
vt 0.5047192 1.527096
vn 0.8795596 0.4756417 0.01182559
vn 0.8795596 0.4756417 0.01182559
vn 0.8795596 0.4756417 0.01182559
vn 0.8795596 0.4756417 0.01182559
vn 0.8795596 0.4756417 0.01182559
vn 0.8795596 0.4756417 0.01182559
vn -0.001730574 0.3727685 0.9279228
vn -0.001730574 0.3727685 0.9279228
vn -0.001730574 0.3727685 0.9279228
vn -0.001730574 0.3727685 0.9279228
vn -0.01220405 0.357702 0.933756
vn -0.01220405 0.357702 0.933756
vn -0.01220405 0.357702 0.933756
vn -0.01220405 0.357702 0.933756
vn 0.02320262 0.3727959 -0.9276232
vn 0.02320262 0.3727959 -0.9276232
vn 0.02320262 0.3727959 -0.9276232
vn 0.02320262 0.3727959 -0.9276232
vn 0.01292252 0.3577077 -0.9337441
vn 0.01292252 0.3577077 -0.9337441
vn 0.01292252 0.3577077 -0.9337441
vn 0.01292252 0.3577077 -0.9337441
vn -0.6559691 0.7547363 -0.008812632
vn -0.6559691 0.7547363 -0.008812632
vn -0.6559691 0.7547363 -0.008812632
vn -0.6559691 0.7547363 -0.008812632
vn 0.03216329 0.4756737 0.8790336
vn 0.03216329 0.4756737 0.8790336
vn 0.03216329 0.4756737 0.8790336
vn 0.03216329 0.4756737 0.8790336
vn 0.03216329 0.4756737 0.8790336
vn 0.03216329 0.4756737 0.8790336
vn -0.9268225 0.3728362 0.04464714
vn -0.9268225 0.3728362 0.04464714
vn -0.9268225 0.3728362 0.04464714
vn -0.9268225 0.3728362 0.04464714
vn -0.9331874 0.3577284 0.03452013
vn -0.9331874 0.3577284 0.03452013
vn -0.9331874 0.3577284 0.03452013
vn -0.9331874 0.3577284 0.03452013
vn 0.9276349 0.3727677 -0.02318787
vn 0.9276349 0.3727677 -0.02318787
vn 0.9276349 0.3727677 -0.02318787
vn 0.9276349 0.3727677 -0.02318787
vn 0.9332093 0.357741 -0.03379067
vn 0.9332093 0.357741 -0.03379067
vn 0.9332093 0.357741 -0.03379067
vn 0.9332093 0.357741 -0.03379067
vn -0.02399024 0.7547308 -0.655596
vn -0.02399024 0.7547308 -0.655596
vn -0.02399024 0.7547308 -0.655596
vn -0.02399024 0.7547308 -0.655596
vn 0.05926768 0.3550474 0.9329677
vn 0.05926768 0.3550474 0.9329677
vn 0.05926768 0.3550474 0.9329677
vn 0.05926768 0.3550474 0.9329677
vn 0.0679936 0.3367931 0.9391205
vn 0.0679936 0.3367931 0.9391205
vn 0.0679936 0.3367931 0.9391205
vn 0.0679936 0.3367931 0.9391205
vn 0.07262582 0.3471027 0.9350109
vn 0.07262582 0.3471027 0.9350109
vn 0.07262582 0.3471027 0.9350109
vn 0.07262582 0.3471027 0.9350109
vn 0.6595905 0.7491534 -0.06090653
vn 0.6473218 0.758697 -0.073167
vn 0.6568959 0.7524799 -0.04755805
vn 0.6614901 0.749149 -0.03473704
vn 0.6511204 0.7586884 -0.02083828
vn -0.06281864 0.3470927 -0.9357246
vn -0.06281864 0.3470927 -0.9357246
vn -0.06281864 0.3470927 -0.9357246
vn -0.06281864 0.3470927 -0.9357246
vn -0.06799421 0.3367842 -0.9391236
vn -0.06799421 0.3367842 -0.9391236
vn -0.06799421 0.3367842 -0.9391236
vn -0.06799421 0.3367842 -0.9391236
vn -0.07571347 0.3550514 -0.9317757
vn -0.07571347 0.3550514 -0.9317757
vn -0.07571347 0.3550514 -0.9317757
vn -0.07571347 0.3550514 -0.9317757
vn -0.7030089 0.7109907 -0.01645463
vn -0.718717 0.6933531 0.05203346
vn -0.7300354 0.6831416 0.01912475
vn -0.6932799 0.7110161 0.1175547
vn -0.7251651 0.6831553 0.0862225
g C4_windowCar_geo_0
f 5/5/5 1/1/1 2/2/2
f 3/3/3 1/1/1 5/5/5
f 6/6/6 3/3/3 5/5/5
f 4/4/4 3/3/3 6/6/6
f 10/10/10 7/7/7 9/9/9
f 8/8/8 7/7/7 10/10/10
f 12/12/12 14/14/14 11/11/11
f 13/13/13 14/14/14 12/12/12
f 18/18/18 15/15/15 16/16/16
f 17/17/17 15/15/15 18/18/18
f 20/20/20 22/22/22 21/21/21
f 19/19/19 22/22/22 20/20/20
f 24/24/24 25/25/25 23/23/23
f 26/26/26 25/25/25 24/24/24
f 27/27/27 28/28/28 31/31/31
f 32/32/32 27/27/27 31/31/31
f 29/29/29 27/27/27 32/32/32
f 30/30/30 29/29/29 32/32/32
f 36/36/36 33/33/33 35/35/35
f 34/34/34 33/33/33 36/36/36
f 38/38/38 40/40/40 37/37/37
f 39/39/39 40/40/40 38/38/38
f 44/44/44 41/41/41 42/42/42
f 43/43/43 41/41/41 44/44/44
f 46/46/46 48/48/48 47/47/47
f 45/45/45 48/48/48 46/46/46
f 50/50/50 51/51/51 49/49/49
f 52/52/52 51/51/51 50/50/50
f 53/53/53 55/55/55 56/56/56
f 54/54/54 55/55/55 53/53/53
f 60/60/60 57/57/57 58/58/58
f 59/59/59 57/57/57 60/60/60
f 62/62/62 64/64/64 63/63/63
f 61/61/61 64/64/64 62/62/62
f 67/67/67 65/65/65 66/66/66
f 68/68/68 65/65/65 67/67/67
f 69/69/69 68/68/68 67/67/67
f 71/71/71 73/73/73 70/70/70
f 72/72/72 73/73/73 71/71/71
f 77/77/77 74/74/74 76/76/76
f 75/75/75 74/74/74 77/77/77
f 78/78/78 80/80/80 79/79/79
f 81/81/81 80/80/80 78/78/78
f 83/83/83 86/86/86 85/85/85
f 84/84/84 86/86/86 83/83/83
f 82/82/82 84/84/84 83/83/83
