g C5_detailGravel_geo
v 57.4719 -0.0001264936 209.9761
v 57.50924 1.828949E-05 214.0542
v 59.41793 0.0001447782 214.9181
v 61.5005 0.0001264989 214.2598
v 61.87164 -1.828478E-05 209.9793
v 59.83919 -0.0001447783 208.9565
v 58.10261 0.2681985 210.4931
v 58.20636 0.2683007 213.6314
v 59.45216 0.2683905 214.4343
v 60.86987 0.2683773 213.7431
v 61.1746 0.3107654 210.4024
v 59.77282 0.2681854 209.8965
v 59.69265 0.4261381 211.0309
v 59.53232 0.4294385 213.2999
v 57.26733 -5.410442E-05 211.9995
v 57.93124 0.4014739 212.0466
v 59.61249 0.268288 212.1654
v 61.21521 0.2683262 212.2787
v 61.87905 5.410436E-05 212.3255
v 57.53022 0.008090853 214.0415
v 57.28731 0.01202779 212.001
v 57.49088 0.007947349 209.9917
v 59.83719 0.007929222 208.9848
v 61.85067 0.009333132 209.992
v 61.85908 0.008126355 212.3241
v 61.48153 0.008198111 214.2443
v 59.41896 0.008216238 214.9035
v 30.72998 -9.746702E-05 222.754
v 25.58915 6.262426E-05 222.8584
v 25.406 0.0001407985 223.5049
v 25.66468 9.834482E-05 224.1734
v 30.9336 -6.892907E-05 224.1986
v 31.06217 -0.0001485035 223.5077
v 30.25866 0.1746422 222.9728
v 26.05999 0.1747587 223.0776
v 25.89094 0.1748183 223.5052
v 26.13577 0.174785 223.9547
v 30.46252 0.2023316 223.9793
v 30.4401 0.1746081 223.5074
v 29.30282 0.2774884 223.5068
v 27.02825 0.279676 223.5057
v 28.16608 -1.554655E-05 222.7326
v 28.16585 0.2614599 222.9516
v 28.16553 0.1747132 223.5063
v 28.16522 0.1747246 224.035
v 28.16519 1.620563E-05 224.2541
v 28.16608 0.01035104 222.7412
v 30.7113 0.006830343 222.7627
v 31.03752 0.006779978 223.5077
v 30.91493 0.007955536 224.1899
v 28.1652 0.006942773 224.2454
v 25.68336 0.007024054 224.1647
v 25.42522 0.007066146 223.5049
v 25.60781 0.006988707 222.8671
v -4.50512 -9.746702E-05 215.2092
v -4.638644 6.262426E-05 210.069
v -5.286226 0.0001407985 209.8896
v -5.953261 9.834482E-05 210.152
v -5.948467 -6.892907E-05 215.421
v -5.256856 -0.0001485035 215.5457
v -4.726602 0.1746422 214.7391
v -4.855238 0.1747587 210.5411
v -5.283718 0.1748183 210.3745
v -5.73181 0.174785 210.6219
v -5.731904 0.2023316 214.9487
v -5.260103 0.1746081 214.9236
v -5.266006 0.2774884 213.7863
v -5.277815 0.279676 211.5118
v -4.498202 -1.554655E-05 212.6452
v -4.717237 0.2614599 212.6462
v -5.271908 0.1747132 212.6491
v -5.800681 0.1747246 212.6518
v -6.019691 1.620563E-05 212.653
v -4.506888 0.01035104 212.6453
v -4.513903 0.006830343 215.1906
v -5.256989 0.006779978 215.521
v -5.939882 0.007955536 215.4023
v -6.011009 0.006942773 212.6529
v -5.944483 0.007024054 210.1707
v -5.286127 0.007066146 209.9088
v -4.647229 0.006988707 210.0878
v 57.28731 0.01202779 212.001
v 57.53022 0.008090853 214.0415
v 57.49088 0.007947349 209.9917
v 59.83719 0.007929222 208.9848
v 61.85067 0.009333132 209.992
v 61.85908 0.008126355 212.3241
v 61.48153 0.008198111 214.2443
v 59.41896 0.008216238 214.9035
v 30.7113 0.006830343 222.7627
v 28.16608 0.01035104 222.7412
v 31.03752 0.006779978 223.5077
v 30.91493 0.007955536 224.1899
v 28.1652 0.006942773 224.2454
v 25.68336 0.007024054 224.1647
v 25.42522 0.007066146 223.5049
v 25.60781 0.006988707 222.8671
v -4.513903 0.006830343 215.1906
v -4.506888 0.01035104 212.6453
v -5.256989 0.006779978 215.521
v -5.939882 0.007955536 215.4023
v -6.011009 0.006942773 212.6529
v -5.944483 0.007024054 210.1707
v -5.286127 0.007066146 209.9088
v -4.647229 0.006988707 210.0878
vt 0 1
vt 0 1
vt 2.980232E-08 1
vt 2.980232E-08 1
vt 2.980232E-08 1
vt 2.980232E-08 1
vt 0.2437157 0.8265623
vt 0.2437157 0.8265623
vt 0.2437157 0.8265625
vt 0.2437157 0.8265623
vt 0.2437157 0.8265625
vt 0.2437157 0.8265623
vt 0.2437157 0.8335409
vt 0.2437157 0.8335409
vt 0 1
vt 0.2437157 0.8265625
vt 0.2437157 0.833541
vt 0.2437157 0.8265625
vt 0 1
vt 0 1
vt 0 1
vt 0 1
vt 0 1
vt 0 1
vt 0 1
vt 0 1
vt 0 1
vt 0 1
vt 0 1
vt 2.980232E-08 1
vt 2.980232E-08 1
vt 2.980232E-08 1
vt 2.980232E-08 1
vt 0.2437157 0.8265623
vt 0.2437157 0.8265623
vt 0.2437157 0.8265625
vt 0.2437157 0.8265623
vt 0.2437157 0.8265625
vt 0.2437157 0.8265623
vt 0.2437157 0.8335409
vt 0.2437157 0.8335409
vt 0 1
vt 0.2437157 0.8265625
vt 0.2437157 0.833541
vt 0.2437157 0.8265625
vt 0 1
vt 0 1
vt 0 1
vt 0 1
vt 0 1
vt 0 1
vt 0 1
vt 0 1
vt 0 1
vt 0 1
vt 0 1
vt 2.980232E-08 1
vt 2.980232E-08 1
vt 2.980232E-08 1
vt 2.980232E-08 1
vt 0.2437157 0.8265623
vt 0.2437157 0.8265623
vt 0.2437157 0.8265625
vt 0.2437157 0.8265623
vt 0.2437157 0.8265625
vt 0.2437157 0.8265623
vt 0.2437157 0.8335409
vt 0.2437157 0.8335409
vt 0 1
vt 0.2437157 0.8265625
vt 0.2437157 0.833541
vt 0.2437157 0.8265625
vt 0 1
vt 0 1
vt 0 1
vt 0 1
vt 0 1
vt 0 1
vt 0 1
vt 0 1
vt 0 1
vt 0.2437157 0.8224611
vt 0.2437157 0.822461
vt 0.2437156 0.8224611
vt 0.2437156 0.822461
vt 0.2437156 0.822461
vt 0.2437157 0.822461
vt 0.2437156 0.822461
vt 0.2437156 0.822461
vt 0.2437156 0.8225015
vt 0.2437157 0.8225015
vt 0.2437156 0.8225014
vt 0.2437156 0.8225014
vt 0.2437157 0.8225014
vt 0.2437156 0.8225014
vt 0.2437156 0.8225014
vt 0.2437156 0.8225014
vt 0.2437156 0.8225015
vt 0.2437157 0.8225015
vt 0.2437156 0.8225014
vt 0.2437156 0.8225014
vt 0.2437157 0.8225014
vt 0.2437156 0.8225014
vt 0.2437156 0.8225014
vt 0.2437156 0.8225014
vn -0.2918585 0.9401575 -0.1758481
vn -0.3106864 0.9231198 0.2265473
vn -0.02443595 0.9143529 0.4041802
vn 0.2479438 0.9375979 0.243791
vn 0.2788369 0.9470599 -0.1591462
vn 0.01382749 0.9512986 -0.3079607
vn -0.1559092 0.9789894 -0.1314233
vn -0.1827907 0.9713509 0.1518713
vn -0.01574804 0.9635805 0.2669542
vn 0.1638651 0.9759186 0.1439828
vn 0.151461 0.9834405 -0.09952069
vn -0.005064286 0.9736762 -0.2278796
vn 0.002001203 0.9987026 -0.05088198
vn 0.009708401 0.9984455 0.05488579
vn -0.4368693 0.8995201 0.002966837
vn -0.2226033 0.9749036 0.003263072
vn 0.02341724 0.9997193 0.003592345
vn 0.217955 0.9756542 0.02438064
vn 0.3739012 0.9268315 0.03436996
vn -0.3123349 0.9210919 0.2324577
vn -0.4315056 0.9020964 0.004999465
vn -0.2862574 0.9400889 -0.1851741
vn 0.009722888 0.9501097 -0.3117641
vn 0.2735042 0.9482616 -0.1612312
vn 0.3736738 0.9268094 0.03731316
vn 0.2529773 0.9368294 0.2415636
vn -0.02394287 0.9172546 0.397581
vn 0.1523161 0.8855833 -0.4387961
vn -0.1904718 0.8896465 -0.4150296
vn -0.3213334 0.9468394 0.01549378
vn -0.1755886 0.906489 0.3839876
vn 0.1747953 0.9110909 0.3733096
vn 0.2989742 0.9536847 -0.03316232
vn 0.1024499 0.9687014 -0.2261011
vn -0.1206097 0.9675844 -0.2218866
vn -0.2058902 0.9784964 0.01240387
vn -0.1025526 0.9647719 0.2422767
vn 0.1029552 0.9771156 0.1861324
vn 0.1982772 0.9788451 -0.05048342
vn 0.03498368 0.9993874 0.0009501922
vn -0.03746052 0.9988164 0.03102701
vn -0.01384053 0.7196458 -0.6942034
vn -0.00814412 0.9254644 -0.378747
vn -0.001616091 0.9986512 0.05189619
vn -0.004726989 0.9202911 0.3912058
vn -0.003456282 0.7782761 0.6279127
vn -0.01450307 0.7235367 -0.6901336
vn 0.156606 0.8872977 -0.4337941
vn 0.3016819 0.9524166 -0.04348297
vn 0.1775658 0.9152107 0.3617454
vn -0.004682567 0.7782677 0.6279152
vn -0.1746161 0.9050907 0.3877113
vn -0.3196521 0.9473883 0.01667658
vn -0.1934703 0.8890814 -0.4148537
vn 0.439937 0.8854309 0.1498917
vn 0.4139924 0.8896261 -0.19281
vn -0.01731231 0.9468586 -0.3211838
vn -0.3848479 0.9065521 -0.1733644
vn -0.3721665 0.9111483 0.1769206
vn 0.03488576 0.9536605 0.2988552
vn 0.226675 0.9687024 0.1011639
vn 0.2211993 0.9675836 -0.1218723
vn -0.01357411 0.9784966 -0.205816
vn -0.2428557 0.9647724 -0.1011706
vn -0.1855433 0.9771162 0.104008
vn 0.05160921 0.9788456 0.1979845
vn -0.0007510165 0.9993874 0.03498832
vn -0.03123962 0.9988164 -0.03728164
vn 0.6943647 0.7194033 -0.01779213
vn 0.3786916 0.9254657 -0.01029573
vn -0.05190583 0.9986512 -0.001321209
vn -0.3912244 0.9202919 -0.002504504
vn -0.6277022 0.7784536 0.0001106367
vn 0.6901644 0.7234179 -0.01842823
vn 0.4348138 0.8872244 0.1541746
vn 0.04520762 0.9524053 0.301464
vn -0.3606578 0.9152393 0.179619
vn -0.6278194 0.7783583 -0.001114908
vn -0.388631 0.9051231 -0.1723897
vn -0.01848963 0.9473975 -0.3195249
vn 0.4137743 0.8890702 -0.1958189
vn -0.4315056 0.9020964 0.004999465
vn -0.3123349 0.9210919 0.2324577
vn -0.2862574 0.9400889 -0.1851741
vn 0.009722888 0.9501097 -0.3117641
vn 0.2735042 0.9482616 -0.1612312
vn 0.3736738 0.9268094 0.03731316
vn 0.2529773 0.9368294 0.2415636
vn -0.02394287 0.9172546 0.397581
vn 0.156606 0.8872977 -0.4337941
vn -0.01450307 0.7235367 -0.6901336
vn 0.3016819 0.9524166 -0.04348297
vn 0.1775658 0.9152107 0.3617454
vn -0.004682567 0.7782677 0.6279152
vn -0.1746161 0.9050907 0.3877113
vn -0.3196521 0.9473883 0.01667658
vn -0.1934703 0.8890814 -0.4148537
vn 0.4348138 0.8872244 0.1541746
vn 0.6901644 0.7234179 -0.01842823
vn 0.04520762 0.9524053 0.301464
vn -0.3606578 0.9152393 0.179619
vn -0.6278194 0.7783583 -0.001114908
vn -0.388631 0.9051231 -0.1723897
vn -0.01848963 0.9473975 -0.3195249
vn 0.4137743 0.8890702 -0.1958189
g C5_detailGravel_geo_0
f 22/22/22 1/1/1 21/21/21
f 6/6/6 1/1/1 22/22/22
f 23/23/23 6/6/6 22/22/22
f 5/5/5 6/6/6 23/23/23
f 24/24/24 5/5/5 23/23/23
f 19/19/19 5/5/5 24/24/24
f 25/25/25 19/19/19 24/24/24
f 4/4/4 19/19/19 25/25/25
f 26/26/26 4/4/4 25/25/25
f 3/3/3 4/4/4 26/26/26
f 27/27/27 3/3/3 26/26/26
f 2/2/2 3/3/3 27/27/27
f 20/20/20 2/2/2 27/27/27
f 15/15/15 2/2/2 20/20/20
f 21/21/21 15/15/15 20/20/20
f 1/1/1 15/15/15 21/21/21
f 16/16/16 82/82/82 8/8/8
f 84/84/84 82/82/82 16/16/16
f 7/7/7 84/84/84 16/16/16
f 85/85/85 84/84/84 7/7/7
f 12/12/12 85/85/85 7/7/7
f 86/86/86 85/85/85 12/12/12
f 11/11/11 86/86/86 12/12/12
f 87/87/87 86/86/86 11/11/11
f 18/18/18 87/87/87 11/11/11
f 88/88/88 87/87/87 18/18/18
f 10/10/10 88/88/88 18/18/18
f 89/89/89 88/88/88 10/10/10
f 9/9/9 89/89/89 10/10/10
f 83/83/83 89/89/89 9/9/9
f 8/8/8 83/83/83 9/9/9
f 82/82/82 83/83/83 8/8/8
f 48/48/48 28/28/28 47/47/47
f 33/33/33 28/28/28 48/48/48
f 49/49/49 33/33/33 48/48/48
f 32/32/32 33/33/33 49/49/49
f 50/50/50 32/32/32 49/49/49
f 46/46/46 32/32/32 50/50/50
f 51/51/51 46/46/46 50/50/50
f 31/31/31 46/46/46 51/51/51
f 52/52/52 31/31/31 51/51/51
f 30/30/30 31/31/31 52/52/52
f 53/53/53 30/30/30 52/52/52
f 29/29/29 30/30/30 53/53/53
f 54/54/54 29/29/29 53/53/53
f 42/42/42 29/29/29 54/54/54
f 47/47/47 42/42/42 54/54/54
f 28/28/28 42/42/42 47/47/47
f 34/34/34 90/90/90 43/43/43
f 92/92/92 90/90/90 34/34/34
f 39/39/39 92/92/92 34/34/34
f 93/93/93 92/92/92 39/39/39
f 38/38/38 93/93/93 39/39/39
f 94/94/94 93/93/93 38/38/38
f 45/45/45 94/94/94 38/38/38
f 95/95/95 94/94/94 45/45/45
f 37/37/37 95/95/95 45/45/45
f 96/96/96 95/95/95 37/37/37
f 36/36/36 96/96/96 37/37/37
f 97/97/97 96/96/96 36/36/36
f 35/35/35 97/97/97 36/36/36
f 91/91/91 97/97/97 35/35/35
f 43/43/43 91/91/91 35/35/35
f 90/90/90 91/91/91 43/43/43
f 75/75/75 55/55/55 74/74/74
f 60/60/60 55/55/55 75/75/75
f 76/76/76 60/60/60 75/75/75
f 59/59/59 60/60/60 76/76/76
f 77/77/77 59/59/59 76/76/76
f 73/73/73 59/59/59 77/77/77
f 78/78/78 73/73/73 77/77/77
f 58/58/58 73/73/73 78/78/78
f 79/79/79 58/58/58 78/78/78
f 57/57/57 58/58/58 79/79/79
f 80/80/80 57/57/57 79/79/79
f 56/56/56 57/57/57 80/80/80
f 81/81/81 56/56/56 80/80/80
f 69/69/69 56/56/56 81/81/81
f 74/74/74 69/69/69 81/81/81
f 55/55/55 69/69/69 74/74/74
f 61/61/61 98/98/98 70/70/70
f 100/100/100 98/98/98 61/61/61
f 66/66/66 100/100/100 61/61/61
f 101/101/101 100/100/100 66/66/66
f 65/65/65 101/101/101 66/66/66
f 102/102/102 101/101/101 65/65/65
f 72/72/72 102/102/102 65/65/65
f 103/103/103 102/102/102 72/72/72
f 64/64/64 103/103/103 72/72/72
f 104/104/104 103/103/103 64/64/64
f 63/63/63 104/104/104 64/64/64
f 105/105/105 104/104/104 63/63/63
f 62/62/62 105/105/105 63/63/63
f 99/99/99 105/105/105 62/62/62
f 70/70/70 99/99/99 62/62/62
f 98/98/98 99/99/99 70/70/70
f 13/13/13 12/12/12 7/7/7
f 11/11/11 12/12/12 13/13/13
f 17/17/17 11/11/11 13/13/13
f 18/18/18 11/11/11 17/17/17
f 14/14/14 18/18/18 17/17/17
f 10/10/10 18/18/18 14/14/14
f 9/9/9 10/10/10 14/14/14
f 16/16/16 13/13/13 7/7/7
f 17/17/17 13/13/13 16/16/16
f 8/8/8 17/17/17 16/16/16
f 14/14/14 17/17/17 8/8/8
f 9/9/9 14/14/14 8/8/8
f 40/40/40 39/39/39 34/34/34
f 38/38/38 39/39/39 40/40/40
f 44/44/44 38/38/38 40/40/40
f 45/45/45 38/38/38 44/44/44
f 41/41/41 45/45/45 44/44/44
f 37/37/37 45/45/45 41/41/41
f 36/36/36 37/37/37 41/41/41
f 43/43/43 40/40/40 34/34/34
f 44/44/44 40/40/40 43/43/43
f 35/35/35 44/44/44 43/43/43
f 41/41/41 44/44/44 35/35/35
f 36/36/36 41/41/41 35/35/35
f 67/67/67 66/66/66 61/61/61
f 65/65/65 66/66/66 67/67/67
f 71/71/71 65/65/65 67/67/67
f 72/72/72 65/65/65 71/71/71
f 68/68/68 72/72/72 71/71/71
f 64/64/64 72/72/72 68/68/68
f 63/63/63 64/64/64 68/68/68
f 70/70/70 67/67/67 61/61/61
f 71/71/71 67/67/67 70/70/70
f 62/62/62 71/71/71 70/70/70
f 68/68/68 71/71/71 62/62/62
f 63/63/63 68/68/68 62/62/62
