g C5_shadowCircle_geo
v -14.2953 0.02 189.5728
v -13.56888 0.02 188.4856
v -15.40551 0.02 188.7894
v -14.67908 0.02 187.7022
v -13.46854 0.02 188.9896
v -12.94638 0.02 188.0852
v -14.30706 0.02 188.5055
v -13.78489 0.02 187.601
v 6.662993 0.02 204.9612
v 6.662993 0.02 203.9169
v 5.694756 0.02 204.9612
v 5.694756 0.02 203.9169
v 51.44276 0.02 194.5662
v 50.0202 0.02 193.6157
v 50.41777 0.02 196.0188
v 48.99519 0.02 195.0684
v 52.4664 0.02 195.2042
v 51.58495 0.02 194.6153
v 51.83129 0.02 196.1043
v 50.94983 0.02 195.5154
v 29.60629 0.02 190.0414
v 29.04867 0.02 190.0414
v 29.60629 0.02 190.5583
v 29.04867 0.02 190.5583
v 20.0969 0.02 194.3206
v 12.09172 0.02 194.3206
v 21.26812 0.02 195.2498
v 13.26663 0.02 195.2498
v 12.09172 0.02 201.3243
v 13.26663 0.02 201.8173
v 30.2257 0.02 191.5844
v 20.0969 0.02 191.5844
v 30.91738 0.02 192.5136
v 21.27183 0.02 192.5136
v 27.6253 0.02 191.5844
v 27.6253 0.02 192.5136
v 24.40049 0.02 191.5844
v 24.40049 0.02 192.5136
v 27.6253 0.02 195.0921
v 24.40049 0.02 195.0921
v 42.63224 0.02 201.5723
v 31.97747 0.02 201.5723
v 43.32392 0.02 202.5015
v 31.97747 0.02 202.5015
v 19.0525 0.01906765 200.5611
v 20.22741 0.01906765 201.4902
v 19.0525 0.01906765 215.5802
v 20.22741 0.01906765 216.0732
v 24.78708 3.298654 192.5003
v 24.50047 3.298654 192.5003
v 25.12516 3.863448 192.5003
v 24.64378 3.863448 192.5003
v 24.55109 3.490221 192.5003
v 24.99813 3.490221 192.5003
v 26.74701 3.298654 192.5003
v 26.46039 3.298654 192.5003
v 27.08508 3.863449 192.5003
v 26.6037 3.863449 192.5003
v 26.51101 3.490221 192.5003
v 26.95806 3.490221 192.5003
v 21.295 5.274019 201.4426
v 21.16385 5.274019 201.4426
v 20.22693 3.417285 201.4426
v 21.295 3.417285 201.4426
v 17.28843 3.47902 198.1515
v 17.21631 3.47902 198.3312
v 16.90683 3.47902 198.1129
v 17.02584 3.47902 197.9603
v 16.92165 3.47902 198.0071
vt 0 0
vt 1 0
vt 0 1
vt 1 1
vt 0 0
vt 1 0
vt 0 1
vt 1 1
vt 0 0
vt 1 0
vt 0 1
vt 1 1
vt 0 0
vt 1 0
vt 0 1
vt 1 1
vt 0 0
vt 1 0
vt 0 1
vt 1 1
vt 0 0
vt 1 0
vt 0 1
vt 1 1
vt 0.5 0.5
vt 0.5 0.5
vt 0.5 0.5
vt 0.5 0.5
vt 0.5 0.5
vt 0.5 0.5
vt 0.5 0.5
vt 0.5 0.5
vt 0.5 0.5
vt 0.5 0.5
vt 0.5 0.5
vt 0.5 0.5
vt 0.5 0.5
vt 0.5 0.5
vt 0.5 0.5
vt 0.5 0.5
vt 0.5 0.5
vt 0.5 0.5
vt 0.5 0.5
vt 0.5 0.5
vt 0.5 0.5
vt 0.5 0.5
vt 0.5 0.5
vt 0.5 0.5
vt 0.5 0.5
vt 0.5 0.5
vt 0.5 0.5
vt 0.5 0.5
vt 0.5 0.5
vt 0.5 0.5
vt 0.5 0.5
vt 0.5 0.5
vt 0.5 0.5
vt 0.5 0.5
vt 0.5 0.5
vt 0.5 0.5
vt 0.5 0.5
vt 0.5 0.5
vt 0.5 0.5
vt 0.5 0.5
vt 0.5 0.5
vt 0.5 0.5
vt 0.5 0.5
vt 0.5 0.5
vt 0.5 0.5
vn 0 1 0
vn 0 1 0
vn 0 1 0
vn 0 1 0
vn 0 1 0
vn 0 1 0
vn 0 1 0
vn 0 1 0
vn 0 1 0
vn 0 1 0
vn 0 1 0
vn 0 1 0
vn 0 1 0
vn 0 1 0
vn 0 1 0
vn 0 1 0
vn 0 1 0
vn 0 1 0
vn 0 1 0
vn 0 1 0
vn 0 1 0
vn 0 1 0
vn 0 1 0
vn 0 1 0
vn 0 1 0
vn 0 1 0
vn 0 1 0
vn 0 1 0
vn 0 1 0
vn 0 1 0
vn 0 1 0
vn 0 1 0
vn 0 1 0
vn 0 1 0
vn 0 1 0
vn 0 1 0
vn 0 1 0
vn 0 1 0
vn 0 1 0
vn 0 1 0
vn 0 1 0
vn 0 1 0
vn 0 1 0
vn 0 1 0
vn 0 1 0
vn 0 1 0
vn 0 1 0
vn 0 1 0
vn -4.446955E-05 0 -1
vn -4.446955E-05 0 -1
vn 0 0 -1
vn 0 0 -1
vn -2.223478E-05 0 -1
vn -2.223478E-05 0 -1
vn 0 0 -1
vn 0 0 -1
vn 0 0 -1
vn 0 0 -1
vn 0 0 -1
vn 0 0 -1
vn 0 0 -1
vn 0 0 -1
vn 0 0 -1
vn 0 0 -1
vn 0 1 -8.696076E-07
vn 0 1 -1.739215E-06
vn 0 1 -1.739215E-06
vn 0 1 0
vn 0 1 -8.696076E-07
g C5_shadowCircle_geo_0
f 4/4/4 1/1/1 2/2/2
f 3/3/3 1/1/1 4/4/4
f 8/8/8 5/5/5 6/6/6
f 7/7/7 5/5/5 8/8/8
f 12/12/12 9/9/9 10/10/10
f 11/11/11 9/9/9 12/12/12
f 16/16/16 13/13/13 14/14/14
f 15/15/15 13/13/13 16/16/16
f 20/20/20 17/17/17 18/18/18
f 19/19/19 17/17/17 20/20/20
f 24/24/24 21/21/21 22/22/22
f 23/23/23 21/21/21 24/24/24
f 28/28/28 29/29/29 30/30/30
f 26/26/26 29/29/29 28/28/28
f 25/25/25 26/26/26 28/28/28
f 34/34/34 32/32/32 25/25/25
f 37/37/37 32/32/32 34/34/34
f 38/38/38 37/37/37 34/34/34
f 35/35/35 37/37/37 38/38/38
f 36/36/36 35/35/35 38/38/38
f 31/31/31 35/35/35 36/36/36
f 33/33/33 31/31/31 36/36/36
f 36/36/36 40/40/40 39/39/39
f 38/38/38 40/40/40 36/36/36
f 44/44/44 41/41/41 42/42/42
f 43/43/43 41/41/41 44/44/44
f 47/47/47 46/46/46 45/45/45
f 48/48/48 46/46/46 47/47/47
f 54/54/54 52/52/52 51/51/51
f 53/53/53 52/52/52 54/54/54
f 49/49/49 53/53/53 54/54/54
f 50/50/50 53/53/53 49/49/49
f 60/60/60 58/58/58 57/57/57
f 59/59/59 58/58/58 60/60/60
f 55/55/55 59/59/59 60/60/60
f 56/56/56 59/59/59 55/55/55
f 62/62/62 64/64/64 63/63/63
f 61/61/61 64/64/64 62/62/62
f 69/69/69 65/65/65 68/68/68
f 66/66/66 65/65/65 69/69/69
f 67/67/67 66/66/66 69/69/69
f 27/27/27 25/25/25 28/28/28
f 34/34/34 25/25/25 27/27/27
