g C5_shadowTree_geo
v 8.854458 0.04575364 225.6894
v 15.83768 0.04575364 223.5836
v 6.748569 0.04575364 218.7063
v 15.15297 0.04575364 216.5082
v 55.86742 0.04539527 198.0778
v 50.82052 0.04539527 202.1211
v 59.10657 0.04539527 202.121
v 54.05966 0.04539527 206.1643
v 54.42122 0.04434839 215.7453
v 46.08321 0.04434839 217.1946
v 55.9279 0.04434839 224.4135
v 47.58989 0.04434839 225.8628
v -15.90369 0.04186015 206.5445
v -22.46291 0.04186015 204.3666
v -18.08164 0.04186015 213.1037
v -24.64086 0.04186015 210.9258
v -10.84498 0.0659314 195.0869
v -6.162383 0.0659314 195.0869
v -10.84498 0.0659314 189.6752
v -6.162383 0.0659314 189.6752
v 43.36021 0.06593141 194.0583
v 43.36021 0.06593141 198.507
v 50.75673 0.06593141 194.0583
v 50.75673 0.06593141 198.507
v -14.47351 0.06316447 187.4489
v -16.6418 0.06316447 191.2045
v -9.318769 0.06316447 190.425
v -11.48706 0.06316447 194.1806
vt 0 3.814697E-06
vt 1 3.814697E-06
vt 0 0.9999962
vt 1 0.9999962
vt 0 3.814697E-06
vt 1 3.814697E-06
vt 0 0.9999962
vt 1 0.9999962
vt 0 3.814697E-06
vt 1 3.814697E-06
vt 0 0.9999962
vt 1 0.9999962
vt 0 3.814697E-06
vt 1 3.814697E-06
vt 0 0.9999962
vt 1 0.9999962
vt 0 3.814697E-06
vt 1 3.814697E-06
vt 0 0.9999962
vt 1 0.9999962
vt 0 3.814697E-06
vt 1 3.814697E-06
vt 0 0.9999962
vt 1 0.9999962
vt 0 3.814697E-06
vt 1 3.814697E-06
vt 0 0.9999962
vt 1 0.9999962
vn 0 1 0
vn 0 1 0
vn 0 1 0
vn 0 1 0
vn 0 1 0
vn 0 1 0
vn 0 1 0
vn 0 1 0
vn 0 1 0
vn 0 1 0
vn 0 1 0
vn 0 1 0
vn 0 1 0
vn 0 1 0
vn 0 1 0
vn 0 1 0
vn 0 1 0
vn 0 1 0
vn 0 1 0
vn 0 1 0
vn 0 1 0
vn 0 1 0
vn 0 1 0
vn 0 1 0
vn 0 1 0
vn 0 1 0
vn 0 1 0
vn 0 1 0
g C5_shadowTree_geo_0
f 4/4/4 1/1/1 2/2/2
f 3/3/3 1/1/1 4/4/4
f 8/8/8 5/5/5 6/6/6
f 7/7/7 5/5/5 8/8/8
f 12/12/12 9/9/9 10/10/10
f 11/11/11 9/9/9 12/12/12
f 16/16/16 13/13/13 14/14/14
f 15/15/15 13/13/13 16/16/16
f 20/20/20 17/17/17 18/18/18
f 19/19/19 17/17/17 20/20/20
f 24/24/24 21/21/21 22/22/22
f 23/23/23 21/21/21 24/24/24
f 28/28/28 25/25/25 26/26/26
f 27/27/27 25/25/25 28/28/28
