g cheese_geo
v -0.138302 -0.1265325 0.1411475
v 0.1383008 -0.1265325 0.1411475
v -0.138302 0.1265324 0.1411475
v 0.1383008 0.1265324 0.1411475
v 0 0.1265324 -0.2194214
v 0 -0.1265325 -0.2194214
v -0.08802857 -0.1265325 0.2194189
v 0.08802612 -0.1265325 0.2194189
v 0.08802612 0.1265324 0.2194189
v -0.08802857 0.1265324 0.2194189
v 0.144657 0.009554863 0.1476343
v 0.09207153 0.009554863 0.2295056
v -0.09207397 0.009554863 0.2295056
v -0.1446582 0.009554863 0.1476343
v 0 0.009554863 -0.2295056
v 0 -0.1265325 -0.2194214
v 0.1383008 -0.1265325 0.1411475
v -0.138302 -0.1265325 0.1411475
v 0.08802612 -0.1265325 0.2194189
v -0.08802857 -0.1265325 0.2194189
v 0.08802612 -0.1265325 0.2194189
v 0.09207153 0.009554863 0.2295056
v -0.08802857 -0.1265325 0.2194189
v -0.09207397 0.009554863 0.2295056
v 0.08802612 0.1265324 0.2194189
v 0.1383008 0.1265324 0.1411475
v 0.08802612 0.1265324 0.2194189
v -0.08802857 0.1265324 0.2194189
v -0.08802857 0.1265324 0.2194189
v -0.138302 0.1265324 0.1411475
v 0 0.1265324 -0.2194214
vt 0.3512332 0.1089011
vt 0.3512332 0.1089011
vt 0.3476527 0.1160621
vt 0.3476527 0.1160621
vt 0.3476527 0.1160621
vt 0.3512332 0.1089011
vt 0.3221839 0.00882186
vt 0.5069709 0.00882186
vt 0.3476527 0.1160621
vt 0.3476527 0.1160621
vt 0.3496263 0.07874545
vt 0.511217 0.07923841
vt 0.3179378 0.07923841
vt 0.3496263 0.07874545
vt 0.5093683 0.07874545
vt 0.5050972 0.008646101
vt 0.3523741 0.008646101
vt 0.3523741 0.008646101
vt 0.3512332 0.1089011
vt 0.3512332 0.1089011
vt 0.3192216 0.008646101
vt 0.3149498 0.07874545
vt 0.3192216 0.008646101
vt 0.3149498 0.07874545
vt 0.3192216 0.1390013
vt 0.3523741 0.1390013
vt 0.5069709 0.1397669
vt 0.3221839 0.1397669
vt 0.3192216 0.1390013
vt 0.3523741 0.1390013
vt 0.5050972 0.1390013
vn -0.6452291 -0.7611353 0.06597193
vn 0.6452278 -0.761136 0.06597625
vn -0.6424245 0.7635376 0.06558339
vn 0.6424232 0.7635383 0.06558766
vn 7.912942E-07 0.8291207 -0.5590697
vn 8.425262E-07 -0.8269566 -0.5622658
vn -0.4019726 -0.5452259 0.7356268
vn 0.401969 -0.5452249 0.7356295
vn 0.3995409 0.5530702 0.7310817
vn -0.3995446 0.5530713 0.7310789
vn 0.9948121 0.004175567 0.1016434
vn 0.4795272 0.006439775 0.8775033
vn -0.4795319 0.006439762 0.8775008
vn -0.9948128 0.004175536 0.1016366
vn 1.456888E-06 0.00604774 -0.9999818
vn 8.425262E-07 -0.8269566 -0.5622658
vn 0.6452278 -0.761136 0.06597625
vn -0.6452291 -0.7611353 0.06597193
vn 0.401969 -0.5452249 0.7356295
vn -0.4019726 -0.5452259 0.7356268
vn 0.401969 -0.5452249 0.7356295
vn 0.4795272 0.006439775 0.8775033
vn -0.4019726 -0.5452259 0.7356268
vn -0.4795319 0.006439762 0.8775008
vn 0.3995409 0.5530702 0.7310817
vn 0.6424232 0.7635383 0.06558766
vn 0.3995409 0.5530702 0.7310817
vn -0.3995446 0.5530713 0.7310789
vn -0.3995446 0.5530713 0.7310789
vn -0.6424245 0.7635376 0.06558339
vn 7.912942E-07 0.8291207 -0.5590697
g cheese_geo_0
f 13/13/13 27/27/27 28/28/28
f 12/12/12 27/27/27 13/13/13
f 7/7/7 12/12/12 13/13/13
f 8/8/8 12/12/12 7/7/7
f 3/3/3 4/4/4 5/5/5
f 9/9/9 4/4/4 3/3/3
f 10/10/10 9/9/9 3/3/3
f 1/1/1 19/19/19 20/20/20
f 2/2/2 19/19/19 1/1/1
f 6/6/6 2/2/2 1/1/1
f 14/14/14 29/29/29 30/30/30
f 31/31/31 14/14/14 30/30/30
f 15/15/15 14/14/14 31/31/31
f 11/11/11 15/15/15 31/31/31
f 16/16/16 15/15/15 11/11/11
f 17/17/17 16/16/16 11/11/11
f 14/14/14 23/23/23 24/24/24
f 18/18/18 23/23/23 14/14/14
f 16/16/16 18/18/18 14/14/14
f 11/11/11 22/22/22 21/21/21
f 25/25/25 22/22/22 11/11/11
f 26/26/26 25/25/25 11/11/11
f 17/17/17 11/11/11 21/21/21
f 24/24/24 29/29/29 14/14/14
f 11/11/11 31/31/31 26/26/26
f 15/15/15 16/16/16 14/14/14
