g chocoTacoLogo_geo
v 0.2645184 1.329842 0
v 0.4069857 1.056475 0
v 0.3975265 0.7831076 0
v -0.2645184 1.329842 0
v -0.4069856 1.056475 0
v -0.3975265 0.7831076 0
v 0.3870584 1.056475 0.3130501
v 0.3836504 0.7831078 0.3130501
v -0.3836504 0.7831078 0.3130501
v -0.3870584 1.056475 0.3130501
v -0.2645184 1.329842 0.3130501
v 0.2645184 1.329842 0.3130501
v 0.2645184 1.329842 -0.3828364
v 0.3862469 1.056475 -0.3828364
v 0.3822836 0.7831078 -0.3828364
v -0.2645184 1.329842 -0.3828364
v -0.3998101 1.056475 -0.3828364
v -0.3822836 0.7831078 -0.3828364
vt 0.009946585 0.2404611
vt 0.2164132 0.2403774
vt 0.4205388 0.2398672
vt 0.009946585 0.2964803
vt 0.2164132 0.2965641
vt 0.4205388 0.2970742
vt 0.2182421 0.01719716
vt 0.41315 0.01878095
vt 0.41315 0.5181605
vt 0.2182421 0.5197442
vt 0.0162046 0.5267141
vt 0.0162046 0.01022732
vt 0.02215397 0.5257777
vt 0.221284 0.5211424
vt 0.4142413 0.5267142
vt 0.02215409 0.01116347
vt 0.221284 0.01579905
vt 0.4142413 0.01022714
vn 0.9001231 0.4356304 0.002124842
vn 0.9772992 0.2118444 0.002887625
vn 0.999705 -0.02403555 0.003489071
vn -0.8956959 0.4445516 0.01013898
vn -0.9774979 0.2106266 0.01159773
vn -0.9992604 -0.03641991 0.01234448
vn 0.9763015 0.2122099 0.04245512
vn 0.99827 -0.02349407 0.05389683
vn -0.99827 -0.02349378 0.05389681
vn -0.9763014 0.21221 0.04245508
vn -0.8994942 0.435994 0.02862865
vn 0.8994942 0.435994 0.02862872
vn 0.9001194 0.4349606 -0.02438053
vn 0.9767658 0.211147 -0.03668335
vn 0.9985974 -0.02451591 -0.04692757
vn -0.8915128 0.4529183 -0.008355038
vn -0.9777583 0.2088311 -0.01944594
vn -0.9983572 -0.04927702 -0.02923124
g chocoTacoLogo_geo_0
f 2/2/2 1/1/1 12/12/12
f 7/7/7 2/2/2 12/12/12
f 3/3/3 2/2/2 7/7/7
f 8/8/8 3/3/3 7/7/7
f 5/5/5 16/16/16 17/17/17
f 6/6/6 5/5/5 17/17/17
f 10/10/10 5/5/5 6/6/6
f 9/9/9 10/10/10 6/6/6
f 2/2/2 13/13/13 1/1/1
f 14/14/14 13/13/13 2/2/2
f 3/3/3 14/14/14 2/2/2
f 15/15/15 14/14/14 3/3/3
f 18/18/18 6/6/6 17/17/17
f 5/5/5 4/4/4 16/16/16
f 11/11/11 4/4/4 5/5/5
f 10/10/10 11/11/11 5/5/5
