g chrisDressedUpChin_geo
v -0.01621982 1.007654 0.2308133
v -0.01500737 1.002199 0.2395083
v -0.01147914 1.008573 0.2310332
v -0.004627828 0.9993742 0.2389365
v 0.0002582884 1.009152 0.2320773
v 0.01379644 0.9996753 0.2389465
v 0.01339812 1.00605 0.2305911
v 0.02475155 1.00012 0.239516
v 0.02335721 1.004564 0.2285901
v 0.03476298 0.9982423 0.2384792
v 0.04332989 0.9959507 0.2278836
v 0.04024385 0.9958358 0.2274693
v 0.004090653 0.9788497 0.2308787
v 0.006842201 0.9712456 0.2291196
v 0.007076211 0.9682385 0.2365043
v 0.004016626 0.9823802 0.2373802
v 0.01451912 0.9614068 0.2262375
v 0.01457392 0.9600486 0.2355112
v 0.02452766 0.959276 0.2235947
v 0.02479012 0.9581538 0.2320615
v 0.03689087 0.9628595 0.2218437
v 0.03549385 0.9615861 0.2290612
v 0.04410616 0.9723955 0.2224302
v 0.04186657 0.970918 0.2295825
v 0.04740749 0.9845129 0.2250324
v 0.04512984 0.9816537 0.2320172
v 0.04127058 0.9922249 0.2371092
v 0.03247872 0.9922213 0.2461052
v 0.03821725 0.9860204 0.2451517
v 0.0246601 0.9944804 0.2464155
v 0.01685635 0.9921536 0.2461141
v 0.003989048 0.9911664 0.2378316
v 0.01115847 0.9858506 0.2453177
v 0.009093178 0.9772338 0.2443212
v 0.01121386 0.9685454 0.2435759
v 0.01695241 0.9623359 0.242647
v 0.02477141 0.9606903 0.2405704
v 0.03257551 0.9636499 0.2390492
v 0.03827332 0.9697285 0.2404917
v 0.04033823 0.9777784 0.2431204
v 0.02891581 0.9835132 0.2506458
v 0.03202149 0.9801949 0.250024
v 0.02468437 0.9847134 0.2508813
v 0.02046105 0.983487 0.2506191
v 0.01737739 0.9801214 0.2500606
v 0.01625975 0.9756059 0.2490941
v 0.01740759 0.9710978 0.2481345
v 0.02051334 0.9678527 0.2472991
v 0.02474485 0.9668097 0.2466103
v 0.02896826 0.9681709 0.2464824
v 0.03205185 0.9713921 0.2474599
v 0.03316939 0.9757509 0.2488766
v 0.02471416 0.9750426 0.2508173
v -0.03196144 1.000456 0.2301121
v -0.0252035 0.9991113 0.23925
v -0.03520739 0.9962789 0.2294397
v -0.03353706 0.9920349 0.2385195
v -0.03745963 0.9835069 0.2255539
v -0.03672941 0.9804637 0.2338208
v -0.03456671 0.972564 0.2226215
v -0.03346549 0.9703775 0.2300853
v -0.02635503 0.9643297 0.2210079
v -0.02562792 0.9627376 0.2285863
v -0.0153692 0.9610986 0.2218277
v -0.0149471 0.9594825 0.228996
v -0.003384551 0.9628831 0.225193
v -0.00469249 0.9613817 0.2318128
v 0.001870282 0.9702106 0.2289992
v 0.001046606 0.9688069 0.2347947
v -0.007173371 0.9920028 0.2462431
v -0.001434879 0.9857804 0.245351
v -0.01499203 0.9942364 0.246628
v -0.02279592 0.9917068 0.2469089
v -0.02849371 0.9855473 0.2457006
v -0.03055856 0.9776275 0.2426932
v -0.02843734 0.9697639 0.2395763
v -0.0227099 0.9637237 0.2383222
v -0.01489284 0.9613239 0.2384355
v -0.007076879 0.9631346 0.240043
v -0.001379146 0.9689956 0.2421113
v 0.0006859133 0.9772599 0.2441251
v -0.01073628 0.9833182 0.2507174
v -0.007630589 0.9799988 0.2500938
v -0.01496774 0.9844996 0.2510042
v -0.01919114 0.9832192 0.2509007
v -0.02227471 0.9799348 0.250106
v -0.02339219 0.975612 0.2485855
v -0.02224426 0.9713057 0.2470419
v -0.01913849 0.9681036 0.2460836
v -0.01490708 0.9668567 0.2459835
v -0.01068381 0.9679534 0.2466153
v -0.007600307 0.9711236 0.2477417
v -0.006482745 0.9755133 0.2490675
v -0.0149379 0.9748977 0.2507443
v 0.004545459 0.9833931 0.2327804
v 0.007759979 0.9736344 0.2310104
v 0.01527064 0.9652126 0.2276531
v 0.02398284 0.9620131 0.224617
v 0.03415333 0.9644988 0.2238192
v 0.04048804 0.9734591 0.2237522
v 0.04373408 0.9840564 0.2261023
v -0.03418885 0.996806 0.2285895
v -0.03474567 0.985846 0.2276197
v -0.03195725 0.9728595 0.2240511
v -0.02412074 0.9671614 0.2224398
v -0.0148302 0.9647076 0.2234955
v -0.005175755 0.9666872 0.2266418
v 0.0003082996 0.9742952 0.2306086
v 0.04474289 0.9981077 0.2245316
v 0.04884893 0.9847905 0.2215024
v 0.04591678 0.9722691 0.2187352
v 0.0378015 0.9612569 0.2185027
v 0.02378621 0.9578057 0.2197713
v 0.01213046 0.9610086 0.2230116
v 0.004869924 0.970588 0.2262327
v 0.004391456 0.9765735 0.2277719
v 0.003884739 0.9701321 0.2256016
v -0.001459878 0.9610937 0.2214489
v -0.01541643 0.958735 0.2184687
v -0.02801474 0.9623946 0.2176052
v -0.0372289 0.9719021 0.2196241
v -0.0403185 0.9841586 0.2227474
v -0.03709547 0.9976625 0.2268767
v -0.02952032 1.002938 0.229478
v 0.03493859 1.001632 0.2283316
v 0.03497054 1.002624 0.2268956
v 0.03339557 1.000053 0.2279923
v 0.04740749 0.9845129 0.2250324
v 0.04332989 0.9959507 0.2278836
v 0.04410616 0.9723955 0.2224302
v 0.03689087 0.9628595 0.2218437
v 0.02452766 0.959276 0.2235947
v 0.01451912 0.9614068 0.2262375
v 0.006842201 0.9712456 0.2291196
v 0.004090653 0.9788497 0.2308787
v 0.001870282 0.9702106 0.2289992
v -0.003384551 0.9628831 0.225193
v -0.0153692 0.9610986 0.2218277
v -0.02635503 0.9643297 0.2210079
v -0.03456671 0.972564 0.2226215
v -0.03745963 0.9835069 0.2255539
v -0.03520739 0.9962789 0.2294397
v -0.02952032 1.002938 0.229478
v -0.03196144 1.000456 0.2301121
v 0.02335721 1.004564 0.2285901
v 0.03493859 1.001632 0.2283316
v 0.03497054 1.002624 0.2268956
v 0.03493859 1.001632 0.2283316
v 0.03493859 1.001632 0.2283316
v 0.03339557 1.000053 0.2279923
v 0.03493859 1.001632 0.2283316
vt 0.08519617 0.01162493
vt 0.08519617 0.01162493
vt 0.08519617 0.01162493
vt 0.08519617 0.01162493
vt 0.08519617 0.01162493
vt 0.08519617 0.01162493
vt 0.08519617 0.01162493
vt 0.08519617 0.01162493
vt 0.08519617 0.01162493
vt 0.08519617 0.01162493
vt 0.08519617 0.01162493
vt 0.01681757 0.01428952
vt 0.08519617 0.01162493
vt 0.08519617 0.01162493
vt 0.08519617 0.01162493
vt 0.08519617 0.01162493
vt 0.08519617 0.01162493
vt 0.08519617 0.01162493
vt 0.08519617 0.01162493
vt 0.08519617 0.01162493
vt 0.08519617 0.01162493
vt 0.08519617 0.01162493
vt 0.08519617 0.01162493
vt 0.08519617 0.01162493
vt 0.08519617 0.01162493
vt 0.08519617 0.01162493
vt 0.08519617 0.01162493
vt 0.08519617 0.01162493
vt 0.08519617 0.01162493
vt 0.08519617 0.01162493
vt 0.08519617 0.01162493
vt 0.08519617 0.01162493
vt 0.08519617 0.01162493
vt 0.08519617 0.01162493
vt 0.08519617 0.01162493
vt 0.08519617 0.01162493
vt 0.08519617 0.01162493
vt 0.08519617 0.01162493
vt 0.08519617 0.01162493
vt 0.08519617 0.01162493
vt 0.08519617 0.01162493
vt 0.08519617 0.01162493
vt 0.08519617 0.01162493
vt 0.08519617 0.01162493
vt 0.08519617 0.01162493
vt 0.08519617 0.01162493
vt 0.08519617 0.01162493
vt 0.08519617 0.01162493
vt 0.08519617 0.01162493
vt 0.08519617 0.01162493
vt 0.08519617 0.01162493
vt 0.08519617 0.01162493
vt 0.08519617 0.01162493
vt 0.08519617 0.01162493
vt 0.08519617 0.01162493
vt 0.08519617 0.01162493
vt 0.08519617 0.01162493
vt 0.08519617 0.01162493
vt 0.08519617 0.01162493
vt 0.08519617 0.01162493
vt 0.08519617 0.01162493
vt 0.08519617 0.01162493
vt 0.08519617 0.01162493
vt 0.08519617 0.01162493
vt 0.08519617 0.01162493
vt 0.08519617 0.01162493
vt 0.08519617 0.01162493
vt 0.08519617 0.01162493
vt 0.08519617 0.01162493
vt 0.08519617 0.01162493
vt 0.08519617 0.01162493
vt 0.08519617 0.01162493
vt 0.08519617 0.01162493
vt 0.08519617 0.01162493
vt 0.08519617 0.01162493
vt 0.08519617 0.01162493
vt 0.08519617 0.01162493
vt 0.08519617 0.01162493
vt 0.08519617 0.01162493
vt 0.08519617 0.01162493
vt 0.08519617 0.01162493
vt 0.08519617 0.01162493
vt 0.08519617 0.01162493
vt 0.08519617 0.01162493
vt 0.08519617 0.01162493
vt 0.08519617 0.01162493
vt 0.08519617 0.01162493
vt 0.08519617 0.01162493
vt 0.08519617 0.01162493
vt 0.08519617 0.01162493
vt 0.08519617 0.01162493
vt 0.08519617 0.01162493
vt 0.08519617 0.01162493
vt 0.08519617 0.01162493
vt 0.01681757 0.01428955
vt 0.01681757 0.01428952
vt 0.01681769 0.01428952
vt 0.01681757 0.01428952
vt 0.01681757 0.01428952
vt 0.01681769 0.01428952
vt 0.01681769 0.01428952
vt 0.01681769 0.01428961
vt 0.01681769 0.01428961
vt 0.01681769 0.01428964
vt 0.01681745 0.01428958
vt 0.01681769 0.01428961
vt 0.01681769 0.01428958
vt 0.01681769 0.01428952
vt 0.01681757 0.01428952
vt 0.01681769 0.01428955
vt 0.01681769 0.01428955
vt 0.01681757 0.01428955
vt 0.01681757 0.01428955
vt 0.01681769 0.01428955
vt 0.01681758 0.01428955
vt 0.01681757 0.01428955
vt 0.01681769 0.01428955
vt 0.01681769 0.01428958
vt 0.01681761 0.01428961
vt 0.01681741 0.01428958
vt 0.01681761 0.01428964
vt 0.01681769 0.01428961
vt 0.01681769 0.01428961
vt 0.08519617 0.01162493
vt 0.08519617 0.01162493
vt 0.01681757 0.01428952
vt 0.01681757 0.01428952
vt 0.01681769 0.01428952
vt 0.01681757 0.01428952
vt 0.01681769 0.01428952
vt 0.01681757 0.01428952
vt 0.01681757 0.01428952
vt 0.01681769 0.01428952
vt 0.01681769 0.01428952
vt 0.01681757 0.01428958
vt 0.01681769 0.01428952
vt 0.01681769 0.01428952
vt 0.01681721 0.01428958
vt 0.01681721 0.01428961
vt 0.01681721 0.01428964
vt 0.01681769 0.01428961
vt 0.01681769 0.01428961
vt 0.01681757 0.01428961
vt 0.01681757 0.01428961
vt 0.01681757 0.01428952
vt 0.01681757 0.01428952
vt 0.01681757 0.01428952
vt 0.08519617 0.01162493
vt 0.01681757 0.01428952
vt 0.01681757 0.01428952
vt 0.08519617 0.01162493
vn -0.325404 0.9344852 0.1443945
vn -0.153244 0.8216944 0.5489395
vn -0.3367729 0.7773466 0.5313343
vn 0.166304 0.4222487 0.8910943
vn 0.02968599 0.3975416 0.9171038
vn -0.122795 0.5125855 0.8498104
vn 0.08468398 0.6237532 0.7770202
vn 0.09210199 0.8123833 0.5758044
vn 0.3157881 0.8863381 0.3386485
vn 0.5225628 0.732423 0.4364455
vn 0.8332301 0.5323781 0.1493352
vn 0.676168 0.6325235 -0.377771
vn 0.1193771 -0.4135357 -0.9026281
vn -0.8408889 -0.3832799 -0.3821024
vn -0.8465014 -0.4436458 0.2943021
vn -0.003816001 -0.2520171 0.9677153
vn -0.5243248 -0.7577564 -0.3884439
vn -0.456825 -0.8608484 0.2241672
vn -0.05074898 -0.8987048 -0.4356079
vn 0.118884 -0.9791057 0.1649809
vn 0.438605 -0.7600089 -0.4795956
vn 0.5805601 -0.7977945 0.1627078
vn 0.7937539 -0.4284511 -0.4317227
vn 0.8542489 -0.4787048 0.2027326
vn 0.9129189 0.1590003 -0.3758964
vn 0.9566206 -0.04865066 0.2872456
vn 0.8259805 0.3831792 0.4134368
vn 0.3779559 0.5221657 0.764521
vn 0.6769629 0.2720681 0.6838861
vn 0.006640001 0.6055735 0.7957616
vn -0.331929 0.5155336 0.7899673
vn -0.001224 0.2983066 0.9544694
vn -0.5762929 0.2616837 0.7742145
vn -0.6939619 -0.04520175 0.7185915
vn -0.625195 -0.3615109 0.6916943
vn -0.286956 -0.6863639 0.6682521
vn 0.1797561 -0.7996163 0.5729759
vn 0.5095612 -0.7043374 0.4942228
vn 0.71896 -0.4835773 0.499249
vn 0.8077378 -0.1146085 0.5782944
vn 0.2025211 0.2415398 0.9490225
vn 0.3726189 0.07937454 0.9245837
vn -0.002666999 0.2903589 0.9569141
vn -0.1991389 0.243131 0.9493319
vn -0.3423639 0.1027385 0.9339334
vn -0.390356 -0.08302946 0.9169124
vn -0.31589 -0.2651959 0.9109801
vn -0.112742 -0.4315466 0.8950177
vn 0.140972 -0.5093448 0.8489375
vn 0.3005951 -0.4965669 0.8142873
vn 0.3991102 -0.3959717 0.8269931
vn 0.4507342 -0.1726432 0.8758042
vn 0.02621301 -0.1529475 0.9878867
vn -0.425889 0.9031665 -0.05393258
vn -0.4691511 0.7445961 0.4748408
vn -0.7408475 0.5998819 -0.3021367
vn -0.8534003 0.3599843 0.376987
vn -0.8993548 0.09379937 -0.4270396
vn -0.9660466 -0.07862227 0.2461145
vn -0.7574289 -0.4251276 -0.4955482
vn -0.856682 -0.4934552 0.1503255
vn -0.4020219 -0.7570955 -0.5149609
vn -0.5470519 -0.8310232 0.1006716
vn 0.06426094 -0.8559363 -0.5130726
vn -0.07124803 -0.9920895 0.1033546
vn 0.5228259 -0.7160432 -0.4625314
vn 0.43883 -0.8813955 0.174844
vn 0.8675597 -0.3583999 -0.3448039
vn 0.8250958 -0.4947247 0.2728818
vn 0.3346061 0.5241923 0.78311
vn 0.5797972 0.2632122 0.7710736
vn 0.016646 0.6133533 0.7896333
vn -0.3702331 0.5195162 0.7700847
vn -0.6972781 0.2246155 0.6806991
vn -0.8113987 -0.1658987 0.560455
vn -0.7235914 -0.5015457 0.474202
vn -0.469868 -0.7567931 0.4544098
vn -0.087209 -0.872668 0.4804633
vn 0.317984 -0.7715964 0.5509312
vn 0.6282378 -0.4666119 0.6225677
vn 0.706584 -0.09388033 0.701374
vn 0.20096 0.2311876 0.9519283
vn 0.3458701 0.0906106 0.933897
vn 0.02446201 0.2757502 0.9609181
vn -0.1830541 0.2110351 0.9601851
vn -0.384046 0.01512907 0.9231899
vn -0.4658911 -0.2316519 0.8539806
vn -0.4188079 -0.4222583 0.8039266
vn -0.2797671 -0.5494803 0.7872749
vn -0.072567 -0.6010956 0.7958757
vn 0.156246 -0.5401893 0.8269115
vn 0.3349241 -0.3741963 0.864756
vn 0.4029641 -0.1378491 0.9047748
vn -0.02435301 -0.1984326 0.979812
vn 0.110865 -0.07873455 -0.9907117
vn -0.623867 -0.2341066 -0.7456434
vn -0.4700741 -0.5415322 -0.6969745
vn -0.151747 -0.6397888 -0.7534209
vn 0.182072 -0.4875942 -0.8538745
vn 0.4629319 -0.2559844 -0.848626
vn 0.4115791 0.1393522 -0.9006574
vn -0.3368759 0.5810481 -0.7408764
vn -0.5026002 0.1977399 -0.8416009
vn -0.4156532 -0.245915 -0.8756474
vn -0.16436 -0.4968885 -0.8521078
vn 0.16225 -0.530556 -0.8319767
vn 0.4568659 -0.4068652 -0.7910337
vn 0.70072 -0.1726771 -0.692224
vn 0.4485025 0.462412 -0.7648664
vn 0.5954994 0.1201286 -0.7943234
vn 0.5329273 -0.2252032 -0.815642
vn 0.2986975 -0.5073107 -0.8083413
vn -0.1090396 -0.5569426 -0.8233622
vn -0.4640577 -0.4158751 -0.7821116
vn -0.6315572 -0.148784 -0.7609197
vn 0.2958167 0.1796386 -0.9382017
vn 0.6849461 -0.04242577 -0.7273574
vn 0.5161524 -0.4864456 -0.704952
vn 0.08449227 -0.7124606 -0.6966068
vn -0.4064858 -0.5695029 -0.7144478
vn -0.7286924 -0.203313 -0.6539658
vn -0.7325724 -0.0128835 -0.6805672
vn -0.5041941 0.4702044 -0.7243591
vn -0.4179013 0.7961861 0.4375456
vn 0.2045017 0.9510032 0.2318877
vn 0.2882624 0.6548797 -0.6985968
vn -0.3239475 -0.4045136 -0.855235
vn 0.9129189 0.1590003 -0.3758964
vn 0.8332301 0.5323781 0.1493352
vn 0.7937539 -0.4284511 -0.4317227
vn 0.438605 -0.7600089 -0.4795956
vn -0.05074898 -0.8987048 -0.4356079
vn -0.5243248 -0.7577564 -0.3884439
vn -0.8408889 -0.3832799 -0.3821024
vn 0.1193771 -0.4135357 -0.9026281
vn 0.8675597 -0.3583999 -0.3448039
vn 0.5228259 -0.7160432 -0.4625314
vn 0.06426094 -0.8559363 -0.5130726
vn -0.4020219 -0.7570955 -0.5149609
vn -0.7574289 -0.4251276 -0.4955482
vn -0.8993548 0.09379937 -0.4270396
vn -0.7408475 0.5998819 -0.3021367
vn -0.4179013 0.7961861 0.4375456
vn -0.425889 0.9031665 -0.05393258
vn 0.3157881 0.8863381 0.3386485
vn 0.2263808 0.8984567 0.3762011
vn 0.04668622 0.7474936 -0.6626264
vn 0.5112647 0.7765752 0.3681567
vn 0.5112647 0.7765752 0.3681567
vn -0.1835337 -0.3679345 -0.9115589
vn 0.2263808 0.8984567 0.3762011
g chrisDressedUpChin_geo_0
f 22/22/22 19/19/19 21/21/21
f 24/24/24 22/22/22 21/21/21
f 39/39/39 22/22/22 24/24/24
f 40/40/40 39/39/39 24/24/24
f 52/52/52 39/39/39 40/40/40
f 42/42/42 52/52/52 40/40/40
f 53/53/53 52/52/52 42/42/42
f 41/41/41 53/53/53 42/42/42
f 43/43/43 53/53/53 41/41/41
f 28/28/28 43/43/43 41/41/41
f 30/30/30 43/43/43 28/28/28
f 10/10/10 30/30/30 28/28/28
f 8/8/8 30/30/30 10/10/10
f 125/125/125 8/8/8 10/10/10
f 69/69/69 66/66/66 68/68/68
f 16/16/16 69/69/69 68/68/68
f 81/81/81 69/69/69 16/16/16
f 71/71/71 81/81/81 16/16/16
f 83/83/83 81/81/81 71/71/71
f 82/82/82 83/83/83 71/71/71
f 94/94/94 83/83/83 82/82/82
f 84/84/84 94/94/94 82/82/82
f 85/85/85 94/94/94 84/84/84
f 72/72/72 85/85/85 84/84/84
f 73/73/73 85/85/85 72/72/72
f 2/2/2 73/73/73 72/72/72
f 55/55/55 73/73/73 2/2/2
f 1/1/1 55/55/55 2/2/2
f 54/54/54 55/55/55 1/1/1
f 124/124/124 54/54/54 1/1/1
f 109/109/109 12/12/12 127/127/127
f 110/110/110 12/12/12 109/109/109
f 128/128/128 110/110/110 109/109/109
f 111/111/111 110/110/110 128/128/128
f 130/130/130 111/111/111 128/128/128
f 112/112/112 111/111/111 130/130/130
f 131/131/131 112/112/112 130/130/130
f 113/113/113 112/112/112 131/131/131
f 132/132/132 113/113/113 131/131/131
f 114/114/114 113/113/113 132/132/132
f 133/133/133 114/114/114 132/132/132
f 115/115/115 114/114/114 133/133/133
f 134/134/134 115/115/115 133/133/133
f 116/116/116 115/115/115 134/134/134
f 135/135/135 116/116/116 134/134/134
f 117/117/117 116/116/116 135/135/135
f 136/136/136 117/117/117 135/135/135
f 118/118/118 117/117/117 136/136/136
f 137/137/137 118/118/118 136/136/136
f 119/119/119 118/118/118 137/137/137
f 138/138/138 119/119/119 137/137/137
f 120/120/120 119/119/119 138/138/138
f 139/139/139 120/120/120 138/138/138
f 121/121/121 120/120/120 139/139/139
f 140/140/140 121/121/121 139/139/139
f 122/122/122 121/121/121 140/140/140
f 141/141/141 122/122/122 140/140/140
f 123/123/123 122/122/122 141/141/141
f 142/142/142 123/123/123 141/141/141
f 143/143/143 123/123/123 142/142/142
f 144/144/144 143/143/143 142/142/142
f 147/147/147 145/145/145 146/146/146
f 150/150/150 145/145/145 147/147/147
f 23/23/23 24/24/24 21/21/21
f 26/26/26 24/24/24 23/23/23
f 25/25/25 26/26/26 23/23/23
f 27/27/27 26/26/26 25/25/25
f 11/11/11 27/27/27 25/25/25
f 10/10/10 27/27/27 11/11/11
f 148/148/148 10/10/10 11/11/11
f 126/126/126 109/109/109 127/127/127
f 129/129/129 109/109/109 126/126/126
f 149/149/149 129/129/129 126/126/126
f 18/18/18 14/14/14 17/17/17
f 15/15/15 14/14/14 18/18/18
f 36/36/36 15/15/15 18/18/18
f 35/35/35 15/15/15 36/36/36
f 48/48/48 35/35/35 36/36/36
f 47/47/47 35/35/35 48/48/48
f 53/53/53 47/47/47 48/48/48
f 46/46/46 47/47/47 53/53/53
f 45/45/45 46/46/46 53/53/53
f 33/33/33 46/46/46 45/45/45
f 31/31/31 33/33/33 45/45/45
f 6/6/6 33/33/33 31/31/31
f 8/8/8 6/6/6 31/31/31
f 9/9/9 6/6/6 8/8/8
f 151/151/151 9/9/9 8/8/8
f 7/7/7 6/6/6 9/9/9
f 4/4/4 6/6/6 7/7/7
f 5/5/5 4/4/4 7/7/7
f 2/2/2 4/4/4 5/5/5
f 3/3/3 2/2/2 5/5/5
f 1/1/1 2/2/2 3/3/3
f 34/34/34 47/47/47 46/46/46
f 35/35/35 47/47/47 34/34/34
f 16/16/16 35/35/35 34/34/34
f 15/15/15 35/35/35 16/16/16
f 13/13/13 15/15/15 16/16/16
f 14/14/14 15/15/15 13/13/13
f 20/20/20 17/17/17 19/19/19
f 18/18/18 17/17/17 20/20/20
f 37/37/37 18/18/18 20/20/20
f 36/36/36 18/18/18 37/37/37
f 49/49/49 36/36/36 37/37/37
f 48/48/48 36/36/36 49/49/49
f 53/53/53 48/48/48 49/49/49
f 67/67/67 64/64/64 66/66/66
f 65/65/65 64/64/64 67/67/67
f 79/79/79 65/65/65 67/67/67
f 78/78/78 65/65/65 79/79/79
f 91/91/91 78/78/78 79/79/79
f 90/90/90 78/78/78 91/91/91
f 94/94/94 90/90/90 91/91/91
f 89/89/89 90/90/90 94/94/94
f 88/88/88 89/89/89 94/94/94
f 76/76/76 89/89/89 88/88/88
f 75/75/75 76/76/76 88/88/88
f 59/59/59 76/76/76 75/75/75
f 57/57/57 59/59/59 75/75/75
f 56/56/56 59/59/59 57/57/57
f 54/54/54 56/56/56 57/57/57
f 58/58/58 59/59/59 56/56/56
f 61/61/61 59/59/59 58/58/58
f 60/60/60 61/61/61 58/58/58
f 63/63/63 61/61/61 60/60/60
f 62/62/62 63/63/63 60/60/60
f 65/65/65 63/63/63 62/62/62
f 64/64/64 65/65/65 62/62/62
f 16/16/16 68/68/68 13/13/13
f 102/102/102 123/123/123 143/143/143
f 122/122/122 123/123/123 102/102/102
f 103/103/103 122/122/122 102/102/102
f 121/121/121 122/122/122 103/103/103
f 104/104/104 121/121/121 103/103/103
f 120/120/120 121/121/121 104/104/104
f 105/105/105 120/120/120 104/104/104
f 119/119/119 120/120/120 105/105/105
f 106/106/106 119/119/119 105/105/105
f 118/118/118 119/119/119 106/106/106
f 107/107/107 118/118/118 106/106/106
f 117/117/117 118/118/118 107/107/107
f 108/108/108 117/117/117 107/107/107
f 116/116/116 117/117/117 108/108/108
f 95/95/95 116/116/116 108/108/108
f 115/115/115 116/116/116 95/95/95
f 96/96/96 115/115/115 95/95/95
f 114/114/114 115/115/115 96/96/96
f 97/97/97 114/114/114 96/96/96
f 113/113/113 114/114/114 97/97/97
f 98/98/98 113/113/113 97/97/97
f 112/112/112 113/113/113 98/98/98
f 99/99/99 112/112/112 98/98/98
f 111/111/111 112/112/112 99/99/99
f 100/100/100 111/111/111 99/99/99
f 110/110/110 111/111/111 100/100/100
f 101/101/101 110/110/110 100/100/100
f 12/12/12 110/110/110 101/101/101
f 128/128/128 109/109/109 129/129/129
f 51/51/51 52/52/52 53/53/53
f 39/39/39 52/52/52 51/51/51
f 38/38/38 39/39/39 51/51/51
f 22/22/22 39/39/39 38/38/38
f 20/20/20 22/22/22 38/38/38
f 19/19/19 22/22/22 20/20/20
f 26/26/26 40/40/40 24/24/24
f 29/29/29 40/40/40 26/26/26
f 27/27/27 29/29/29 26/26/26
f 28/28/28 29/29/29 27/27/27
f 10/10/10 28/28/28 27/27/27
f 44/44/44 45/45/45 53/53/53
f 31/31/31 45/45/45 44/44/44
f 30/30/30 31/31/31 44/44/44
f 8/8/8 31/31/31 30/30/30
f 70/70/70 72/72/72 84/84/84
f 4/4/4 72/72/72 70/70/70
f 32/32/32 4/4/4 70/70/70
f 6/6/6 4/4/4 32/32/32
f 33/33/33 6/6/6 32/32/32
f 32/32/32 16/16/16 34/34/34
f 71/71/71 16/16/16 32/32/32
f 70/70/70 71/71/71 32/32/32
f 82/82/82 71/71/71 70/70/70
f 84/84/84 82/82/82 70/70/70
f 33/33/33 34/34/34 46/46/46
f 32/32/32 34/34/34 33/33/33
f 50/50/50 51/51/51 53/53/53
f 38/38/38 51/51/51 50/50/50
f 37/37/37 38/38/38 50/50/50
f 20/20/20 38/38/38 37/37/37
f 29/29/29 42/42/42 40/40/40
f 41/41/41 42/42/42 29/29/29
f 28/28/28 41/41/41 29/29/29
f 43/43/43 44/44/44 53/53/53
f 30/30/30 44/44/44 43/43/43
f 49/49/49 50/50/50 53/53/53
f 37/37/37 50/50/50 49/49/49
f 87/87/87 88/88/88 94/94/94
f 75/75/75 88/88/88 87/87/87
f 74/74/74 75/75/75 87/87/87
f 57/57/57 75/75/75 74/74/74
f 55/55/55 57/57/57 74/74/74
f 54/54/54 57/57/57 55/55/55
f 93/93/93 83/83/83 94/94/94
f 81/81/81 83/83/83 93/93/93
f 80/80/80 81/81/81 93/93/93
f 69/69/69 81/81/81 80/80/80
f 67/67/67 69/69/69 80/80/80
f 66/66/66 69/69/69 67/67/67
f 72/72/72 4/4/4 2/2/2
f 86/86/86 87/87/87 94/94/94
f 74/74/74 87/87/87 86/86/86
f 73/73/73 74/74/74 86/86/86
f 55/55/55 74/74/74 73/73/73
f 61/61/61 76/76/76 59/59/59
f 77/77/77 76/76/76 61/61/61
f 63/63/63 77/77/77 61/61/61
f 78/78/78 77/77/77 63/63/63
f 65/65/65 78/78/78 63/63/63
f 92/92/92 93/93/93 94/94/94
f 80/80/80 93/93/93 92/92/92
f 79/79/79 80/80/80 92/92/92
f 67/67/67 80/80/80 79/79/79
f 85/85/85 86/86/86 94/94/94
f 73/73/73 86/86/86 85/85/85
f 77/77/77 89/89/89 76/76/76
f 90/90/90 89/89/89 77/77/77
f 78/78/78 90/90/90 77/77/77
f 91/91/91 92/92/92 94/94/94
f 79/79/79 92/92/92 91/91/91
