g collision_geo
v -2.316197 -0.001177597 2.080323
v 2.316353 -0.001177597 2.076092
v -0.01503677 2.382845 1.721889
v -0.01834152 2.390906 -1.706827
v -2.316197 -0.001177597 -2.079288
v 2.316353 -0.001177597 -2.079288
v 2.032486 -0.001177597 1.562534
v 2.032486 -0.001177597 -1.487287
v -2.03233 -0.001177597 -1.66111
v -2.03233 -0.001177597 1.600463
v -0.01834152 2.390906 -1.706827
v -0.01503677 2.382845 1.721889
v 2.032486 -0.001177597 1.562534
v 2.032486 -0.001177597 -1.487287
v -2.03233 -0.001177597 -1.66111
v -2.03233 -0.001177597 1.600463
vt -0.007514894 0.9862036
vt -0.007514894 0.9862036
vt -0.007514894 0.9862036
vt -0.007514894 0.9862036
vt -0.007514894 0.9862036
vt -0.007514894 0.9862036
vt -0.007514894 0.9862036
vt -0.007514894 0.9862036
vt -0.007514894 0.9862036
vt -0.007514894 0.9862036
vt -0.007514894 0.9862036
vt -0.007514894 0.9862036
vt -0.007514894 0.9862036
vt -0.007514894 0.9862036
vt -0.007514894 0.9862036
vt -0.007514894 0.9862036
vn -0.5857176 0.6401105 0.4971854
vn 0.5766011 0.6394333 0.5085825
vn 0.001816198 0.9892753 0.1460522
vn 0.01762843 0.9898503 -0.1410163
vn -0.5990255 0.6485518 -0.4696264
vn 0.565518 0.634069 -0.5273956
vn 0.7588969 0.6512105 0.0004231617
vn 0.7588969 0.6512105 0.0004231617
vn -0.7641863 0.6449946 0.001154651
vn -0.7641863 0.6449946 0.001154651
vn -0.004080626 0.9999909 0.001217244
vn -0.004080626 0.9999909 0.001217244
vn 0.6887576 0.6169882 -0.3807079
vn 0.6997368 0.6307058 0.3355272
vn -0.6754802 0.5774758 0.4585283
vn -0.6871513 0.6021518 -0.4064927
g collision_geo_0
f 12/12/12 9/9/9 10/10/10
f 11/11/11 9/9/9 12/12/12
f 7/7/7 11/11/11 12/12/12
f 8/8/8 11/11/11 7/7/7
f 3/3/3 2/2/2 13/13/13
f 1/1/1 2/2/2 3/3/3
f 16/16/16 1/1/1 3/3/3
f 4/4/4 5/5/5 15/15/15
f 6/6/6 5/5/5 4/4/4
f 14/14/14 6/6/6 4/4/4
