g colourPalette_geo
v -0.4530061 0.0356677 1.255703
v -0.468454 0.0101739 1.278047
v 0.4684533 0.0101739 1.278047
v 0.4530059 0.0356677 1.255703
v -0.468454 0.0101739 -1.277734
v 0.4684533 0.0101739 -1.277734
v 0.5937294 0.0356677 1.115078
v 0.6157972 0.0101739 1.130547
v 0.6157972 0.01017392 -1.130234
v 0.5937294 0.0356677 -1.114766
v -0.5937299 0.0356677 -1.114766
v -0.6157972 0.0101739 -1.130234
v -0.6157972 0.0101739 1.130547
v -0.5937299 0.0356677 1.115078
v -0.0100428 0.0356677 0.02414062
v -0.4530061 0.0356677 -1.255391
v 0.4530059 0.0356677 -1.255391
v 0.4684533 0.0101739 -1.130234
v -0.468454 0.0101739 -1.130234
v -0.468454 0.0101739 1.130547
v 0.4684533 0.0101739 1.130547
v 0.5937294 0.0356677 1.115078
v 0.4530059 0.0356677 1.255703
v -0.4530061 0.0356677 -1.255391
v -0.5937299 0.0356677 -1.114766
v -0.5937299 0.0356677 1.115078
v -0.4530061 0.0356677 1.255703
v 0.5937294 0.0356677 -1.114766
v 0.4530059 0.0356677 -1.255391
v -0.468454 0.0101739 -1.277734
v 0.4684533 0.0101739 -1.277734
v -0.6157972 0.0101739 -1.130234
v 0.6157972 0.01017392 -1.130234
v 0.6157972 0.0101739 1.130547
v 0.4684533 0.0101739 1.278047
v -0.468454 0.0101739 1.278047
v -0.6157972 0.0101739 1.130547
v -0.468454 0.0101739 -1.130234
v -0.468454 0.0101739 -1.277734
v 0.4684533 0.0101739 -1.277734
v 0.4684533 0.0101739 -1.130234
v 0.4684533 0.0101739 1.278047
v 0.4684533 0.0101739 1.130547
v -0.468454 0.0101739 1.278047
v -0.468454 0.0101739 1.130547
vt 0.1832726 0.6027695
vt 0.1832726 0.6027695
vt 0.1832726 0.6027695
vt 0.1832726 0.6027695
vt 0.1832726 0.6027695
vt 0.1832726 0.6027695
vt 0.1832726 0.6027695
vt 0.1832726 0.6027695
vt 0.1832725 0.6027695
vt 0.1832725 0.6027695
vt 0.1832725 0.6027695
vt 0.1832725 0.6027695
vt 0.1832726 0.6027695
vt 0.1832726 0.6027695
vt 0.1812199 0.6462294
vt 0.1832726 0.6027695
vt 0.1832726 0.6027695
vt 0.1854227 0.6025755
vt 0.1854227 0.6025755
vt 0.1854227 0.6025756
vt 0.1854227 0.6025756
vt 0.1812199 0.6039524
vt 0.1812199 0.6039524
vt 0.18122 0.6039524
vt 0.18122 0.6039524
vt 0.1812199 0.6039524
vt 0.1812199 0.6039524
vt 0.18122 0.6039524
vt 0.18122 0.6039524
vt 0.1854227 0.6025755
vt 0.1854227 0.6025755
vt 0.1854227 0.6025755
vt 0.1854227 0.6025755
vt 0.1854227 0.6025756
vt 0.1854227 0.6025756
vt 0.1854227 0.6025756
vt 0.1854227 0.6025756
vt 0.1854227 0.6025755
vt 0.1854227 0.6025755
vt 0.1854227 0.6025755
vt 0.1854227 0.6025755
vt 0.1854227 0.6025756
vt 0.1854227 0.6025756
vt 0.1854227 0.6025756
vt 0.1854227 0.6025756
vn -0.1345265 0.9302465 0.3413853
vn -0.3326033 -0.4206783 0.8440408
vn 0.3326032 -0.4206785 0.8440407
vn 0.1345266 0.9302465 0.3413857
vn -0.3326041 -0.4206785 -0.8440403
vn 0.3326041 -0.4206789 -0.8440402
vn 0.3428006 0.9297141 0.1346081
vn 0.8437468 -0.422281 0.3313154
vn 0.8437471 -0.4222811 -0.3313149
vn 0.3428009 0.929714 -0.1346079
vn -0.3428026 0.9297135 -0.1346078
vn -0.843747 -0.4222828 -0.3313129
vn -0.8437468 -0.4222828 0.3313134
vn -0.3428022 0.9297136 0.1346079
vn 0 1 0
vn -0.1345269 0.9302465 -0.3413852
vn 0.134527 0.9302464 -0.3413856
vn 0 -1 0
vn 0 -1 0
vn 0 -1 0
vn 0 -1 0
vn 0.3428006 0.9297141 0.1346081
vn 0.1345266 0.9302465 0.3413857
vn -0.1345269 0.9302465 -0.3413852
vn -0.3428026 0.9297135 -0.1346078
vn -0.3428022 0.9297136 0.1346079
vn -0.1345265 0.9302465 0.3413853
vn 0.3428009 0.929714 -0.1346079
vn 0.134527 0.9302464 -0.3413856
vn -0.3326041 -0.4206785 -0.8440403
vn 0.3326041 -0.4206789 -0.8440402
vn -0.843747 -0.4222828 -0.3313129
vn 0.8437471 -0.4222811 -0.3313149
vn 0.8437468 -0.422281 0.3313154
vn 0.3326032 -0.4206785 0.8440407
vn -0.3326033 -0.4206783 0.8440408
vn -0.8437468 -0.4222828 0.3313134
vn 0 -1 0
vn -0.3326041 -0.4206785 -0.8440403
vn 0.3326041 -0.4206789 -0.8440402
vn 0 -1 0
vn 0.3326032 -0.4206785 0.8440407
vn 0 -1 0
vn -0.3326033 -0.4206783 0.8440408
vn 0 -1 0
g colourPalette_geo_0
f 20/20/20 42/42/42 36/36/36
f 43/43/43 42/42/42 20/20/20
f 19/19/19 43/43/43 20/20/20
f 18/18/18 43/43/43 19/19/19
f 30/30/30 18/18/18 19/19/19
f 31/31/31 18/18/18 30/30/30
f 45/45/45 44/44/44 37/37/37
f 32/32/32 45/45/45 37/37/37
f 38/38/38 45/45/45 32/32/32
f 39/39/39 38/38/38 32/32/32
f 34/34/34 35/35/35 21/21/21
f 41/41/41 34/34/34 21/21/21
f 33/33/33 34/34/34 41/41/41
f 40/40/40 33/33/33 41/41/41
f 1/1/1 13/13/13 2/2/2
f 3/3/3 1/1/1 2/2/2
f 4/4/4 1/1/1 3/3/3
f 7/7/7 4/4/4 3/3/3
f 7/7/7 3/3/3 8/8/8
f 9/9/9 7/7/7 8/8/8
f 10/10/10 7/7/7 9/9/9
f 17/17/17 10/10/10 9/9/9
f 6/6/6 17/17/17 9/9/9
f 16/16/16 17/17/17 6/6/6
f 5/5/5 16/16/16 6/6/6
f 11/11/11 16/16/16 5/5/5
f 12/12/12 11/11/11 5/5/5
f 13/13/13 11/11/11 12/12/12
f 14/14/14 13/13/13 1/1/1
f 11/11/11 13/13/13 14/14/14
f 15/15/15 23/23/23 22/22/22
f 27/27/27 23/23/23 15/15/15
f 26/26/26 27/27/27 15/15/15
f 15/15/15 25/25/25 26/26/26
f 24/24/24 25/25/25 15/15/15
f 29/29/29 24/24/24 15/15/15
f 28/28/28 15/15/15 22/22/22
f 29/29/29 15/15/15 28/28/28
