g colourPaletteQuest_geo
v 0.007421205 0.1654464 0.0218618
v 0.02300965 0.170098 0.01920694
v 0.007421205 0.1654464 -0.01324858
v 0.02300965 0.170098 -0.01051239
v 0.01388926 0.1410092 0.004229089
v 0.03229807 0.1485019 0.004343472
v -0.007068579 0.1414466 0.004229108
v -0.0002988243 0.1610308 0.01884899
v -0.0002988243 0.1610308 -0.01023569
v -0.04030266 0.1520135 0.004306661
v -0.03534864 0.1789402 0.02133808
v -0.03534864 0.1789402 -0.01272476
v -0.05317608 0.151515 0.004306642
v -0.05954274 0.1775253 0.02097345
v -0.05954274 0.1775253 -0.01236017
v -0.07489306 0.1641829 0.004306642
v 0.03901689 0.1632031 0.004489003
v -0.02757123 0.2436664 -0.03391605
v -7.692736E-08 0.232642 -0.03689758
v 0.02757108 0.2436664 -0.03391605
v 0.03899142 0.2702814 -0.026718
v 0.02757108 0.2968965 -0.01952024
v -7.708557E-08 0.3079208 -0.01653861
v -0.02757123 0.2968965 -0.01952022
v -0.03899158 0.2702814 -0.02671808
v -0.03748616 0.271634 -0.03133522
v -0.02650674 0.2460465 -0.03825523
v -7.705019E-08 0.2354478 -0.04112171
v 0.02650658 0.2460465 -0.03825523
v 0.037486 0.271634 -0.03133518
v 0.02650658 0.2972215 -0.02441526
v -7.718008E-08 0.3078201 -0.02154876
v -0.02650674 0.2972215 -0.02441526
v -0.02324917 0.271634 -0.03133522
v -0.01643968 0.2557645 -0.03562706
v -7.766846E-08 0.249191 -0.03740487
v 0.01643952 0.2557645 -0.03562706
v 0.02324902 0.271634 -0.0313352
v 0.01643952 0.2875035 -0.02704342
v -7.774903E-08 0.2940768 -0.0252656
v -0.01643968 0.2875035 -0.02704342
v -0.02146491 0.271634 -0.03133522
v -0.01517801 0.2569824 -0.03529768
v -7.629218E-08 0.271634 -0.03133525
v -7.774595E-08 0.2509135 -0.03693905
v 0.01517786 0.2569824 -0.03529768
v 0.02146476 0.271634 -0.0313352
v 0.01517786 0.2862855 -0.02737279
v -7.782033E-08 0.2923544 -0.02573141
v -0.01517801 0.2862856 -0.02737279
v 0.06347809 0.1057517 -0.04532208
v 0.067788 0.16786 -0.04542415
v 0.0345676 0.08002451 -0.03016594
v 0.05443605 0.2522616 -0.0298709
v 0.0001903915 0.08002451 -0.03595444
v 0.05348131 0.1057517 -0.04662079
v 0.05935331 0.16786 -0.04645033
v 0.02918628 0.0866121 -0.03610087
v -0.02596707 0.08035877 0.03177021
v -7.720906E-08 0.08035877 0.04252607
v 0.02596692 0.08035877 0.03177021
v 0.0367228 0.08035877 0.005803206
v 0.02596692 0.08035877 -0.0201638
v -7.720906E-08 0.08035877 -0.03091968
v -0.02596707 0.08035877 -0.0201638
v -0.03672296 0.08035877 0.005803206
v -0.02596707 0.06430222 0.03177021
v -7.720906E-08 0.06430222 0.04252607
v 0.02596692 0.06430222 0.03177021
v 0.0367228 0.06430222 0.005803206
v 0.02596692 0.06430222 -0.0201638
v -7.720906E-08 0.06430222 -0.03091968
v -0.02596707 0.06430222 -0.0201638
v -0.03672296 0.06430222 0.005803206
v -7.720906E-08 0.05862564 0.005803206
v -0.02596707 0.07776909 -0.0201638
v -0.03672296 0.07776909 0.005803206
v -0.02596707 0.07776909 0.03177021
v -7.720906E-08 0.07776909 0.04252607
v 0.02596692 0.07776909 0.03177021
v 0.0367228 0.07776909 0.005803206
v 0.02596692 0.07776909 -0.0201638
v -7.720906E-08 0.07776909 -0.03091968
v 0.004512778 0.06430222 -0.0290504
v 0.004512778 0.07776909 -0.0290504
v 0.004512778 0.08035877 -0.0290504
v 0.01017194 0.06193901 0.01052935
v 0.01017194 0.05092479 0.011497
v 0.01604486 0.05086462 0.01068836
v 0.01604486 0.06193901 0.009718477
v 0.01685574 0.05042884 0.004831612
v 0.01685574 0.06193901 0.003845542
v 0.01212958 0.05016325 0.001262095
v 0.01212958 0.06193901 0.0002661538
v 0.007403418 0.05042884 0.004831612
v 0.007403418 0.06193901 0.003845542
v 0.01440118 0.03450511 0.01227219
v 0.01982489 0.03673698 0.01140572
v 0.02057375 0.03690235 0.005526888
v 0.01620908 0.03500135 0.001993525
v 0.01184442 0.03327782 0.005616753
v 0.03401089 0.002875319 0.006941292
v 0.03756545 0.007610683 0.007241366
v 0.03805623 0.009606047 0.001680205
v 0.03519575 0.006780796 -0.002676866
v 0.03233525 0.002288494 -7.198095E-05
v 0.02451224 0.02068809 0.0006532311
v 0.02089966 0.0171437 0.003485091
v 0.02301586 0.01717527 0.01036539
v 0.027505 0.02073273 0.01038344
v 0.02812482 0.02256545 0.004783328
v 0.03592974 0.00750574 -0.001558866
v 0.02543921 0.02116982 0.00171299
v 0.01732903 0.03548914 0.002900166
v 0.01334229 0.0502314 0.002178013
v 0.01334229 0.06193901 0.001184604
v -0.02650674 0.2460465 -0.03825523
v -0.03748616 0.271634 -0.03133522
v -7.705019E-08 0.2354478 -0.04112171
v 0.02650658 0.2460465 -0.03825523
v 0.037486 0.271634 -0.03133518
v 0.02650658 0.2972215 -0.02441526
v -7.718008E-08 0.3078201 -0.02154876
v -0.02650674 0.2972215 -0.02441526
v -0.01643968 0.2557645 -0.03562706
v -0.02146491 0.271634 -0.03133522
v -0.02324917 0.271634 -0.03133522
v -0.01517801 0.2569824 -0.03529768
v -7.766846E-08 0.249191 -0.03740487
v -7.774595E-08 0.2509135 -0.03693905
v 0.01643952 0.2557645 -0.03562706
v 0.01517786 0.2569824 -0.03529768
v 0.02324902 0.271634 -0.0313352
v 0.02146476 0.271634 -0.0313352
v 0.01643952 0.2875035 -0.02704342
v 0.01517786 0.2862855 -0.02737279
v -7.774903E-08 0.2940768 -0.0252656
v -7.782033E-08 0.2923544 -0.02573141
v -0.01643968 0.2875035 -0.02704342
v -0.01517801 0.2862856 -0.02737279
v -7.720906E-08 0.05862564 0.005803206
v -7.720906E-08 0.06430222 -0.03091968
v -0.02596707 0.07776909 -0.0201638
v -0.03672296 0.07776909 0.005803206
v -0.02596707 0.07776909 0.03177021
v -7.720906E-08 0.07776909 0.04252607
v 0.02596692 0.07776909 0.03177021
v 0.0367228 0.07776909 0.005803206
v 0.02596692 0.07776909 -0.0201638
v 0.004512778 0.06430222 -0.0290504
v 0.004512778 0.07776909 -0.0290504
v -7.720906E-08 0.07776909 -0.03091968
v -7.720906E-08 0.07776909 -0.03091968
v 0.004512778 0.07776909 -0.0290504
v 0.03805623 0.009606047 0.001680205
v 0.03519575 0.006780796 -0.002676866
v 0.03233525 0.002288494 -7.198095E-05
v 0.03592974 0.00750574 -0.001558866
v 0.03756545 0.007610683 0.007241366
v 0.03401089 0.002875319 0.006941292
v 0.02451224 0.02068809 0.0006532311
v 0.03592974 0.00750574 -0.001558866
v 0.02543921 0.02116982 0.00171299
v 0.03519575 0.006780796 -0.002676866
v 0.01620908 0.03500135 0.001993525
v 0.01732903 0.03548914 0.002900166
v 0.01212958 0.05016325 0.001262095
v 0.01334229 0.0502314 0.002178013
v 0.01334229 0.06193901 0.001184604
v 0.01212958 0.06193901 0.0002661538
v -0.02596707 0.08035877 -0.0201638
v -7.720906E-08 0.08035877 -0.03091968
v 0.004512778 0.08035877 -0.0290504
v 0.02596692 0.08035877 -0.0201638
v -0.03672296 0.08035877 0.005803206
v 0.0367228 0.08035877 0.005803206
v -0.02596707 0.08035877 0.03177021
v 0.02596692 0.08035877 0.03177021
v -7.720906E-08 0.08035877 0.04252607
vt 0.3891586 0.5562841
vt 0.3891586 0.5562841
vt 0.3891587 0.5562841
vt 0.3891587 0.5562841
vt 0.3891587 0.5562841
vt 0.3891587 0.5562841
vt 0.3891587 0.5562841
vt 0.3891586 0.5562841
vt 0.3891587 0.5562841
vt 0.3891587 0.5562841
vt 0.3891586 0.5562841
vt 0.3891587 0.5562841
vt 0.3891587 0.5562841
vt 0.3891586 0.5562841
vt 0.3891587 0.5562841
vt 0.3891587 0.5562841
vt 0.3891587 0.556284
vt 0.9923539 0.9483729
vt 0.9923539 0.9483729
vt 0.9923539 0.9483729
vt 0.9923539 0.9483728
vt 0.9923539 0.9483728
vt 0.9923539 0.9483728
vt 0.9923539 0.9483728
vt 0.9923539 0.9483728
vt 0.9923539 0.9483728
vt 0.9923539 0.9483729
vt 0.9923539 0.9483729
vt 0.9923539 0.9483729
vt 0.9923539 0.9483728
vt 0.9923539 0.9483728
vt 0.9923539 0.9483728
vt 0.9923539 0.9483728
vt 0.9684048 0.5581367
vt 0.9684048 0.5581367
vt 0.9684048 0.5581367
vt 0.9684048 0.5581367
vt 0.9684048 0.5581367
vt 0.9684048 0.5581367
vt 0.9684048 0.5581367
vt 0.9684048 0.5581367
vt 0.6434305 0.9686803
vt 0.6434305 0.9686803
vt 0.6434305 0.9686803
vt 0.6434305 0.9686803
vt 0.6434305 0.9686803
vt 0.6434305 0.9686803
vt 0.6434305 0.9686803
vt 0.6434307 0.9686801
vt 0.6434305 0.9686803
vt 0.9684048 0.5581367
vt 0.9684048 0.5581367
vt 0.9684048 0.5581367
vt 0.9684048 0.5581367
vt 0.9684048 0.5581367
vt 0.9684048 0.5581367
vt 0.9684048 0.5581367
vt 0.9684048 0.5581367
vt 0.9942851 0.9424068
vt 0.9942851 0.9424068
vt 0.9942851 0.9424068
vt 0.9942851 0.9424068
vt 0.9942851 0.9424068
vt 0.9942851 0.9424068
vt 0.9942851 0.9424068
vt 0.9942851 0.9424068
vt 0.9752119 0.5114534
vt 0.9752119 0.5114534
vt 0.9752119 0.5114534
vt 0.9752119 0.5114534
vt 0.9752119 0.5114534
vt 0.9684048 0.5581367
vt 0.9752119 0.5114534
vt 0.9752119 0.5114534
vt 0.9752119 0.5114534
vt 0.9942851 0.9424068
vt 0.9942851 0.9424068
vt 0.9942851 0.9424068
vt 0.9942851 0.9424068
vt 0.9942851 0.9424068
vt 0.9942851 0.9424068
vt 0.9942851 0.9424068
vt 0.9942851 0.9424068
vt 0.9684048 0.5581367
vt 0.9942851 0.9424068
vt 0.9942851 0.9424068
vt 0.8329709 0.3519918
vt 0.8329709 0.3519918
vt 0.8329709 0.3519918
vt 0.8329709 0.3519918
vt 0.8329709 0.3519918
vt 0.8329709 0.3519918
vt 0.8329709 0.3519918
vt 0.8329709 0.3519918
vt 0.8329709 0.3519918
vt 0.8329709 0.3519918
vt 0.8329709 0.3519918
vt 0.8329709 0.3519918
vt 0.8329709 0.3519918
vt 0.8329709 0.3519918
vt 0.8329709 0.3519918
vt 0.8329709 0.3519918
vt 0.8329709 0.3519918
vt 0.8329709 0.3519918
vt 0.8329709 0.3519918
vt 0.8329709 0.3519918
vt 0.8329709 0.3519918
vt 0.8329709 0.3519918
vt 0.8329709 0.3519918
vt 0.8329709 0.3519918
vt 0.8329709 0.3519918
vt 0.8329709 0.3519918
vt 0.8329709 0.3519918
vt 0.8329709 0.3519918
vt 0.8329709 0.3519918
vt 0.8329709 0.3519918
vt 0.9684048 0.5581367
vt 0.9684048 0.5581367
vt 0.9684048 0.5581367
vt 0.9684048 0.5581367
vt 0.9684048 0.5581367
vt 0.9684048 0.5581367
vt 0.9684048 0.5581367
vt 0.9684048 0.5581367
vt 0.9926683 0.957443
vt 0.9926683 0.9574429
vt 0.9926683 0.9574429
vt 0.9926683 0.9574429
vt 0.9926683 0.957443
vt 0.9926683 0.957443
vt 0.9926683 0.957443
vt 0.9926683 0.9574429
vt 0.9926683 0.9574429
vt 0.9926683 0.9574429
vt 0.9926683 0.957443
vt 0.9926683 0.957443
vt 0.9926683 0.9574429
vt 0.9926683 0.957443
vt 0.9926683 0.957443
vt 0.9926683 0.957443
vt 0.9684048 0.5581367
vt 0.9752119 0.5114534
vt 0.9752119 0.5114534
vt 0.9752119 0.5114534
vt 0.9752119 0.5114534
vt 0.9752119 0.5114534
vt 0.9752119 0.5114534
vt 0.9752119 0.5114534
vt 0.9752119 0.5114534
vt 0.9752119 0.5114534
vt 0.9752119 0.5114534
vt 0.9752119 0.5114534
vt 0.9684048 0.5581367
vt 0.9684048 0.5581367
vt 0.9929355 0.9664195
vt 0.9929357 0.9664195
vt 0.9929355 0.9664194
vt 0.9929355 0.9664194
vt 0.9929355 0.9664195
vt 0.9929355 0.9664194
vt 0.9780683 0.5348662
vt 0.9780683 0.5348662
vt 0.9780683 0.5348662
vt 0.9780683 0.5348662
vt 0.9780683 0.5348662
vt 0.9780683 0.5348662
vt 0.9780683 0.5348662
vt 0.9780683 0.5348662
vt 0.9780683 0.5348662
vt 0.9780683 0.5348662
vt 0.9752119 0.4486254
vt 0.9752119 0.4486254
vt 0.9752119 0.4486254
vt 0.9752119 0.4486254
vt 0.9752119 0.4486254
vt 0.9752119 0.4486254
vt 0.9752119 0.4486254
vt 0.9752119 0.4486254
vt 0.9752119 0.4486254
vn -0.2901163 0.3908744 0.8735272
vn 0.4350758 0.5112035 0.7412018
vn -0.2865727 0.3942017 -0.8732016
vn 0.4411782 0.5149783 -0.7349552
vn 0.2163786 -0.9763082 -0.001601781
vn 0.7348324 -0.6782451 0.002242764
vn -0.1683632 -0.9857236 -0.001727223
vn -0.1293101 0.3639402 0.9224025
vn -0.1298476 0.3660509 -0.9214914
vn -0.1560062 -0.9877559 -0.0005491747
vn 0.1221138 0.4410132 0.8891544
vn 0.1215002 0.4417419 -0.8888767
vn -0.2711034 -0.9625502 0
vn -0.5102193 0.3242718 0.7965701
vn -0.5102187 0.3242721 -0.7965704
vn -0.9615439 -0.2746511 0
vn 0.9722739 0.233816 0.003678524
vn -0.672383 -0.566923 -0.4759194
vn 0 -0.8329828 -0.553299
vn 0.6723834 -0.5669231 -0.4759188
vn 0.9543568 0.07878448 -0.2880904
vn 0.67721 0.7291162 -0.09887429
vn 0 0.999798 -0.02010161
vn -0.67721 0.7291167 -0.09886999
vn -0.9543563 0.07878439 -0.2880925
vn -0.9543563 0.07878439 -0.2880925
vn -0.672383 -0.566923 -0.4759194
vn 0 -0.8329828 -0.553299
vn 0.6723834 -0.5669231 -0.4759188
vn 0.9543568 0.07878448 -0.2880904
vn 0.67721 0.7291162 -0.09887429
vn 0 0.999798 -0.02010161
vn -0.67721 0.7291167 -0.09886999
vn 0 0.2610662 -0.9653209
vn 0 0.2610662 -0.9653209
vn -2.807561E-06 0.2610692 -0.9653201
vn 2.885545E-06 0.2610689 -0.9653202
vn 1.403777E-06 0.261067 -0.9653207
vn 1.247805E-06 0.2610641 -0.9653215
vn -4.133354E-06 0.2610691 -0.9653201
vn 4.523286E-06 0.2610687 -0.9653203
vn -1.317258E-06 0.2610652 -0.9653211
vn -2.195432E-06 0.2610672 -0.9653206
vn 2.927233E-07 0.2610675 -0.9653206
vn 1.463584E-07 0.2610681 -0.9653203
vn 2.780877E-06 0.2610672 -0.9653206
vn 2.049074E-06 0.2610658 -0.9653211
vn -8.781775E-07 0.2610681 -0.9653203
vn 2.9272E-07 0.2610708 -0.9653197
vn 1.463626E-06 0.2610675 -0.9653206
vn 0.1281868 -0.3181614 -0.9393303
vn 0.1224278 0.09467749 -0.9879512
vn 0.1186805 -0.5954524 -0.7945762
vn 0.1183794 0.1980323 -0.9730208
vn 0.132658 -0.6014192 -0.787843
vn 0.1281868 -0.3181614 -0.9393303
vn 0.1224278 0.09467749 -0.9879512
vn 0.1186805 -0.5954524 -0.7945762
vn -0.7071062 0 0.7071072
vn 0 0 1
vn 0.7071062 0 0.7071072
vn 1 0 0
vn 0.7071069 0 -0.7071066
vn 6.290272E-07 0 -1
vn -0.7071065 -7.977247E-07 -0.707107
vn -1 -7.090889E-07 0
vn -0.5213318 -0.6755928 0.5213323
vn 0 -0.6755927 0.7372751
vn 0.521332 -0.6755928 0.5213322
vn 0.737275 -0.6755928 0
vn 0.5213321 -0.6755928 -0.5213321
vn 1.224847E-07 -0.6755927 -0.737275
vn -0.5213321 -0.6755928 -0.5213321
vn -0.737275 -0.6755927 1.020706E-07
vn 0.007113077 -0.9998273 -0.01717251
vn -0.7071066 -3.221608E-07 -0.7071069
vn -1 -2.863652E-07 0
vn -0.7071064 0 0.7071072
vn 0 0 1
vn 0.7071065 0 0.7071071
vn 1 0 0
vn 0.7071068 0 -0.7071068
vn 3.951581E-07 0 -1
vn 0.2920731 -0.6461343 -0.7051269
vn 0.3826839 0 -0.9238793
vn 0.3826844 0 -0.9238791
vn -0.4970906 0.0755864 0.8644001
vn -0.4928446 -0.003666837 0.8701097
vn 0.6972195 0.1405746 0.7029395
vn 0.7069214 0.06170974 0.704595
vn 0.9162889 0.09657556 -0.3887004
vn 0.923759 -0.03242723 -0.3815987
vn 0.001035899 -0.06485896 -0.997894
vn 4.557926E-06 -0.08461021 -0.9964141
vn -0.9561647 -0.1398 -0.2573033
vn -0.9650778 -0.02182826 -0.2610525
vn -0.4712662 -0.2034083 0.8582151
vn 0.6539324 0.2347512 0.7192109
vn 0.8675644 0.3409478 -0.3620588
vn 0.005363976 0.03122354 -0.999498
vn -0.895793 -0.3430471 -0.2826191
vn 0.09527307 -0.7825518 0.6152526
vn 0.8348185 -0.09359855 0.5425102
vn 0.9717619 -0.03010116 -0.2340359
vn 0.4273036 -0.1195368 -0.8961711
vn 0.160275 -0.8984191 -0.4088458
vn 0.004420151 0.170049 -0.9854256
vn -0.8123381 -0.4660442 -0.3505847
vn -0.4275325 -0.4083424 0.8065189
vn 0.5969647 0.2500425 0.762307
vn 0.7900118 0.5428494 -0.284949
vn 0.7495275 0.2083321 -0.628336
vn 0.5246915 0.4564216 -0.7185947
vn 0.5755211 0.2455482 -0.7800522
vn 0.6007103 0.02708755 -0.7990077
vn 0.6030458 -0.06754969 -0.7948413
vn 0 0.2610662 -0.9653209
vn 0 0.2610662 -0.9653209
vn -2.807561E-06 0.2610692 -0.9653201
vn 2.885545E-06 0.2610689 -0.9653202
vn 1.403777E-06 0.261067 -0.9653207
vn 1.247805E-06 0.2610641 -0.9653215
vn -4.133354E-06 0.2610691 -0.9653201
vn 4.523286E-06 0.2610687 -0.9653203
vn -1.162215E-06 0.261067 -0.9653207
vn -1.162215E-06 0.261067 -0.9653207
vn -1.162215E-06 0.261067 -0.9653207
vn -1.162215E-06 0.261067 -0.9653207
vn -3.803585E-06 0.2610688 -0.9653202
vn -3.803585E-06 0.2610688 -0.9653202
vn 3.486594E-06 0.2610667 -0.9653207
vn 3.486594E-06 0.2610667 -0.9653207
vn 1.690496E-06 0.2610673 -0.9653206
vn 1.690496E-06 0.2610673 -0.9653206
vn -7.395921E-07 0.2610644 -0.9653214
vn -7.395921E-07 0.2610644 -0.9653214
vn -5.810961E-06 0.2610629 -0.9653218
vn -5.810961E-06 0.2610629 -0.9653218
vn 6.022357E-06 0.2610668 -0.9653207
vn 6.022357E-06 0.2610668 -0.9653207
vn 0.007113077 -0.9998273 -0.01717251
vn 1.224847E-07 -0.6755927 -0.737275
vn -0.7071066 -3.221608E-07 -0.7071069
vn -1 -2.863652E-07 0
vn -0.7071064 0 0.7071072
vn 0 0 1
vn 0.7071065 0 0.7071071
vn 1 0 0
vn 0.7071068 0 -0.7071068
vn 0.2920731 -0.6461343 -0.7051269
vn 0.3826839 0 -0.9238793
vn 3.951581E-07 0 -1
vn 3.951581E-07 0 -1
vn 0.3826839 0 -0.9238793
vn 0.9717619 -0.03010116 -0.2340359
vn 0.4273036 -0.1195368 -0.8961711
vn 0.160275 -0.8984191 -0.4088458
vn 0.7495275 0.2083321 -0.628336
vn 0.8348185 -0.09359855 0.5425102
vn 0.09527307 -0.7825518 0.6152526
vn 0.004420151 0.170049 -0.9854256
vn 0.7495275 0.2083321 -0.628336
vn 0.5246915 0.4564216 -0.7185947
vn 0.4273036 -0.1195368 -0.8961711
vn 0.005363976 0.03122354 -0.999498
vn 0.5755211 0.2455482 -0.7800522
vn 0.001035899 -0.06485896 -0.997894
vn 0.6007103 0.02708755 -0.7990077
vn 0.6030458 -0.06754969 -0.7948413
vn 4.557926E-06 -0.08461021 -0.9964141
vn 0 1 0
vn 0 1 0
vn 0 1 0
vn 0 1 0
vn 0 1 0
vn 0 1 0
vn 0 1 0
vn 0 1 0
vn 0 1 0
g colourPaletteQuest_geo_0
f 58/58/58 53/53/53 55/55/55
f 51/51/51 53/53/53 58/58/58
f 56/56/56 51/51/51 58/58/58
f 52/52/52 51/51/51 56/56/56
f 57/57/57 52/52/52 56/56/56
f 54/54/54 52/52/52 57/57/57
f 84/84/84 153/153/153 154/154/154
f 72/72/72 153/153/153 84/84/84
f 141/141/141 72/72/72 84/84/84
f 68/68/68 147/147/147 146/146/146
f 69/69/69 147/147/147 68/68/68
f 75/75/75 69/69/69 68/68/68
f 70/70/70 69/69/69 75/75/75
f 71/71/71 70/70/70 75/75/75
f 149/149/149 70/70/70 71/71/71
f 150/150/150 149/149/149 71/71/71
f 151/151/151 149/149/149 150/150/150
f 67/67/67 68/68/68 146/146/146
f 75/75/75 68/68/68 67/67/67
f 74/74/74 75/75/75 67/67/67
f 73/73/73 75/75/75 74/74/74
f 143/143/143 73/73/73 74/74/74
f 142/142/142 73/73/73 143/143/143
f 152/152/152 142/142/142 143/143/143
f 95/95/95 94/94/94 93/93/93
f 96/96/96 94/94/94 95/95/95
f 88/88/88 96/96/96 95/95/95
f 87/87/87 96/96/96 88/88/88
f 89/89/89 87/87/87 88/88/88
f 90/90/90 87/87/87 89/89/89
f 91/91/91 90/90/90 89/89/89
f 92/92/92 90/90/90 91/91/91
f 115/115/115 92/92/92 91/91/91
f 116/116/116 92/92/92 115/115/115
f 108/108/108 107/107/107 105/105/105
f 106/106/106 108/108/108 105/105/105
f 109/109/109 108/108/108 106/106/106
f 102/102/102 109/109/109 106/106/106
f 110/110/110 109/109/109 102/102/102
f 103/103/103 110/110/110 102/102/102
f 111/111/111 110/110/110 103/103/103
f 104/104/104 111/111/111 103/103/103
f 113/113/113 111/111/111 104/104/104
f 112/112/112 113/113/113 104/104/104
f 157/157/157 159/159/159 160/160/160
f 155/155/155 159/159/159 157/157/157
f 156/156/156 155/155/155 157/157/157
f 158/158/158 155/155/155 156/156/156
f 161/161/161 162/162/162 164/164/164
f 163/163/163 162/162/162 161/161/161
f 165/165/165 163/163/163 161/161/161
f 166/166/166 163/163/163 165/165/165
f 167/167/167 166/166/166 165/165/165
f 168/168/168 166/166/166 167/167/167
f 169/169/169 168/168/168 167/167/167
f 170/170/170 169/169/169 167/167/167
f 171/171/171 173/173/173 172/172/172
f 174/174/174 173/173/173 171/171/171
f 175/175/175 174/174/174 171/171/171
f 176/176/176 174/174/174 175/175/175
f 177/177/177 176/176/176 175/175/175
f 178/178/178 176/176/176 177/177/177
f 179/179/179 178/178/178 177/177/177
f 25/25/25 27/27/27 18/18/18
f 26/26/26 27/27/27 25/25/25
f 24/24/24 26/26/26 25/25/25
f 33/33/33 26/26/26 24/24/24
f 23/23/23 33/33/33 24/24/24
f 32/32/32 33/33/33 23/23/23
f 22/22/22 32/32/32 23/23/23
f 31/31/31 32/32/32 22/22/22
f 21/21/21 31/31/31 22/22/22
f 30/30/30 31/31/31 21/21/21
f 20/20/20 30/30/30 21/21/21
f 29/29/29 30/30/30 20/20/20
f 19/19/19 29/29/29 20/20/20
f 28/28/28 29/29/29 19/19/19
f 18/18/18 28/28/28 19/19/19
f 27/27/27 28/28/28 18/18/18
f 44/44/44 42/42/42 50/50/50
f 43/43/43 42/42/42 44/44/44
f 45/45/45 43/43/43 44/44/44
f 44/44/44 46/46/46 45/45/45
f 47/47/47 46/46/46 44/44/44
f 48/48/48 47/47/47 44/44/44
f 44/44/44 49/49/49 48/48/48
f 50/50/50 49/49/49 44/44/44
f 35/35/35 117/117/117 34/34/34
f 119/119/119 117/117/117 35/35/35
f 36/36/36 119/119/119 35/35/35
f 120/120/120 119/119/119 36/36/36
f 37/37/37 120/120/120 36/36/36
f 121/121/121 120/120/120 37/37/37
f 38/38/38 121/121/121 37/37/37
f 122/122/122 121/121/121 38/38/38
f 39/39/39 122/122/122 38/38/38
f 123/123/123 122/122/122 39/39/39
f 40/40/40 123/123/123 39/39/39
f 124/124/124 123/123/123 40/40/40
f 41/41/41 124/124/124 40/40/40
f 118/118/118 124/124/124 41/41/41
f 34/34/34 118/118/118 41/41/41
f 117/117/117 118/118/118 34/34/34
f 128/128/128 125/125/125 126/126/126
f 129/129/129 125/125/125 128/128/128
f 130/130/130 129/129/129 128/128/128
f 131/131/131 129/129/129 130/130/130
f 132/132/132 131/131/131 130/130/130
f 133/133/133 131/131/131 132/132/132
f 134/134/134 133/133/133 132/132/132
f 135/135/135 133/133/133 134/134/134
f 136/136/136 135/135/135 134/134/134
f 137/137/137 135/135/135 136/136/136
f 138/138/138 137/137/137 136/136/136
f 139/139/139 137/137/137 138/138/138
f 140/140/140 139/139/139 138/138/138
f 127/127/127 139/139/139 140/140/140
f 126/126/126 127/127/127 140/140/140
f 125/125/125 127/127/127 126/126/126
f 86/86/86 82/82/82 85/85/85
f 83/83/83 86/86/86 85/85/85
f 64/64/64 86/86/86 83/83/83
f 76/76/76 64/64/64 83/83/83
f 65/65/65 64/64/64 76/76/76
f 77/77/77 65/65/65 76/76/76
f 66/66/66 65/65/65 77/77/77
f 78/78/78 66/66/66 77/77/77
f 59/59/59 66/66/66 78/78/78
f 79/79/79 59/59/59 78/78/78
f 60/60/60 59/59/59 79/79/79
f 80/80/80 60/60/60 79/79/79
f 61/61/61 60/60/60 80/80/80
f 81/81/81 61/61/61 80/80/80
f 62/62/62 61/61/61 81/81/81
f 82/82/82 62/62/62 81/81/81
f 63/63/63 62/62/62 82/82/82
f 86/86/86 63/63/63 82/82/82
f 73/73/73 142/142/142 75/75/75
f 145/145/145 67/67/67 146/146/146
f 74/74/74 67/67/67 145/145/145
f 144/144/144 74/74/74 145/145/145
f 143/143/143 74/74/74 144/144/144
f 148/148/148 70/70/70 149/149/149
f 69/69/69 70/70/70 148/148/148
f 147/147/147 69/69/69 148/148/148
f 71/71/71 75/75/75 150/150/150
f 95/95/95 93/93/93 100/100/100
f 101/101/101 95/95/95 100/100/100
f 88/88/88 95/95/95 101/101/101
f 97/97/97 88/88/88 101/101/101
f 89/89/89 88/88/88 97/97/97
f 98/98/98 89/89/89 97/97/97
f 91/91/91 89/89/89 98/98/98
f 99/99/99 91/91/91 98/98/98
f 115/115/115 91/91/91 99/99/99
f 114/114/114 115/115/115 99/99/99
f 101/101/101 100/100/100 107/107/107
f 108/108/108 101/101/101 107/107/107
f 97/97/97 101/101/101 108/108/108
f 109/109/109 97/97/97 108/108/108
f 98/98/98 97/97/97 109/109/109
f 110/110/110 98/98/98 109/109/109
f 99/99/99 98/98/98 110/110/110
f 111/111/111 99/99/99 110/110/110
f 114/114/114 99/99/99 111/111/111
f 113/113/113 114/114/114 111/111/111
f 13/13/13 15/15/15 12/12/12
f 16/16/16 15/15/15 13/13/13
f 14/14/14 16/16/16 13/13/13
f 15/15/15 16/16/16 14/14/14
f 11/11/11 15/15/15 14/14/14
f 12/12/12 15/15/15 11/11/11
f 8/8/8 12/12/12 11/11/11
f 9/9/9 12/12/12 8/8/8
f 1/1/1 9/9/9 8/8/8
f 3/3/3 9/9/9 1/1/1
f 4/4/4 3/3/3 1/1/1
f 6/6/6 3/3/3 4/4/4
f 17/17/17 6/6/6 4/4/4
f 2/2/2 6/6/6 17/17/17
f 4/4/4 2/2/2 17/17/17
f 1/1/1 2/2/2 4/4/4
f 5/5/5 6/6/6 2/2/2
f 3/3/3 6/6/6 5/5/5
f 7/7/7 3/3/3 5/5/5
f 9/9/9 3/3/3 7/7/7
f 10/10/10 9/9/9 7/7/7
f 12/12/12 9/9/9 10/10/10
f 13/13/13 12/12/12 10/10/10
f 10/10/10 14/14/14 13/13/13
f 11/11/11 14/14/14 10/10/10
f 7/7/7 11/11/11 10/10/10
f 8/8/8 11/11/11 7/7/7
f 5/5/5 8/8/8 7/7/7
f 1/1/1 8/8/8 5/5/5
f 2/2/2 1/1/1 5/5/5
