g colourPaletteQuest_geo
v -0.3030136 0.2687384 0.380083
v 0.3008929 0.2707638 0.382019
v 0.2992712 0.7507693 0.3857471
v -0.3046355 0.7487434 0.3838135
v 0.3303436 0.7954615 0.3861938
v 0.3447983 0.7909032 0.371206
v 0.3297488 0.8058507 0.3712744
v 0.3346322 0.8014346 -0.2892602
v 0.3317987 0.8108717 -0.2741968
v 0.3468478 0.7959241 -0.2742627
v -0.3403313 0.7932121 0.3840478
v -0.3366182 0.8036156 0.3691406
v -0.3515657 0.788567 0.368977
v -0.3372415 0.7991807 -0.2914087
v -0.3495166 0.7935881 -0.2764917
v -0.3345688 0.8086363 -0.2763306
v 0.3319543 0.2287907 0.3817895
v 0.346705 0.2268474 0.3668237
v 0.321347 0.236508 -0.2936963
v 0.3347241 0.2318208 -0.278689
v -0.3347085 0.224445 0.3796411
v -0.3496591 0.2245112 0.3645947
v -0.3117157 0.2343849 -0.2957202
v -0.3251576 0.2296077 -0.2807983
v -0.2270505 0.3225116 -0.3087915
v -0.2109051 0.307112 -0.3092138
v -0.2445697 0.2930585 -0.2950513
v 0.2229587 0.3085673 -0.3078271
v 0.2389972 0.3240745 -0.3073022
v 0.2538049 0.2947298 -0.293457
v -0.2123425 0.7323812 -0.3059106
v -0.2283835 0.7168685 -0.30573
v -0.2460997 0.7459849 -0.2915308
v 0.2376657 0.7184311 -0.3042383
v 0.2215228 0.7338359 -0.3045239
v 0.2522739 0.7476563 -0.2899414
v -0.2505066 0.4168639 -0.6192065
v -0.230163 0.4206265 -0.6331396
v -0.2346329 0.4012476 -0.6189184
v 0.1015714 0.4217392 -0.6320776
v 0.1218503 0.4181125 -0.6180127
v 0.1060791 0.4023901 -0.6178296
v -0.2354489 0.6429104 -0.617041
v -0.230849 0.6237851 -0.63156
v -0.2512166 0.6271939 -0.6175732
v 0.1211395 0.6284422 -0.6163794
v 0.1008847 0.6248978 -0.6305005
v 0.1052631 0.6440529 -0.6159521
v -0.2823977 0.2861646 0.3802881
v 0.2801602 0.2880512 0.3820898
v 0.278656 0.7333426 0.3855469
v -0.2839021 0.7314557 0.3837451
v 0.321347 0.236508 -0.2936963
v -0.3117157 0.2343849 -0.2957202
v -0.3347085 0.224445 0.3796411
v 0.3319543 0.2287907 0.3817895
v 0.3347241 0.2318208 -0.278689
v 0.346705 0.2268474 0.3668237
v -0.3496591 0.2245112 0.3645947
v -0.3251576 0.2296077 -0.2807983
v 0.3447983 0.7909032 0.371206
v 0.3303436 0.7954615 0.3861938
v 0.3297488 0.8058507 0.3712744
v 0.3468478 0.7959241 -0.2742627
v 0.3317987 0.8108717 -0.2741968
v -0.3366182 0.8036156 0.3691406
v -0.3403313 0.7932121 0.3840478
v -0.3372415 0.7991807 -0.2914087
v 0.3346322 0.8014346 -0.2892602
v -0.3345688 0.8086363 -0.2763306
v -0.3515657 0.788567 0.368977
v -0.3495166 0.7935881 -0.2764917
v -0.2109051 0.307112 -0.3092138
v -0.2505066 0.4168639 -0.6192065
v -0.2270505 0.3225116 -0.3087915
v -0.2346329 0.4012476 -0.6189184
v -0.2445697 0.2930585 -0.2950513
v 0.2229587 0.3085673 -0.3078271
v 0.2538049 0.2947298 -0.293457
v -0.2460997 0.7459849 -0.2915308
v -0.2283835 0.7168685 -0.30573
v 0.2389972 0.3240745 -0.3073022
v 0.1060791 0.4023901 -0.6178296
v 0.1218503 0.4181125 -0.6180127
v 0.2376657 0.7184311 -0.3042383
v 0.2522739 0.7476563 -0.2899414
v -0.2354489 0.6429104 -0.617041
v -0.2123425 0.7323812 -0.3059106
v -0.2512166 0.6271939 -0.6175732
v 0.2215228 0.7338359 -0.3045239
v 0.1211395 0.6284422 -0.6163794
v 0.1052631 0.6440529 -0.6159521
v -0.230163 0.4206265 -0.6331396
v -0.230849 0.6237851 -0.63156
v 0.1015714 0.4217392 -0.6320776
v 0.1008847 0.6248978 -0.6305005
v -0.3030136 0.2687384 0.380083
v 0.2801602 0.2880512 0.3820898
v 0.3008929 0.2707638 0.382019
v -0.2823977 0.2861646 0.3802881
v 0.278656 0.7333426 0.3855469
v 0.2992712 0.7507693 0.3857471
v -0.2839021 0.7314557 0.3837451
v -0.3046355 0.7487434 0.3838135
vt 0.5022146 0.9063276
vt 0.5022146 0.9063276
vt 0.5022146 0.9063276
vt 0.5022146 0.9063276
vt 0.5022146 0.8846592
vt 0.5081202 0.8694484
vt 0.5022146 0.8749855
vt 0.5081202 0.8518643
vt 0.5022146 0.8674627
vt 0.5081202 0.8619257
vt 0.5022146 0.8846592
vt 0.5022146 0.8749855
vt 0.5081202 0.8694484
vt 0.5081202 0.8518643
vt 0.5081202 0.8619257
vt 0.5022146 0.8674627
vt 0.5022146 0.8846592
vt 0.02256029 0.02296603
vt 0.5081202 0.8518643
vt 0.02256029 0.02296603
vt 0.5022146 0.8846592
vt 0.02256029 0.02296603
vt 0.5081202 0.8518643
vt 0.02256029 0.02296603
vt 0.5081202 0.8619257
vt 0.5022146 0.8518643
vt 0.5081202 0.8518643
vt 0.5022146 0.8518643
vt 0.5081202 0.8619257
vt 0.5081202 0.8518643
vt 0.5022146 0.8846592
vt 0.5081202 0.8619257
vt 0.5081202 0.8518643
vt 0.5081202 0.8619257
vt 0.5022146 0.8846592
vt 0.5081202 0.8518643
vt 0.5081202 0.8619257
vt 0.5022146 0.8846592
vt 0.5022146 0.8518643
vt 0.5022146 0.8846592
vt 0.5081202 0.8619257
vt 0.5022146 0.8518643
vt 0.5022146 0.8846592
vt 0.5022146 0.8846592
vt 0.5081202 0.8619257
vt 0.5081202 0.8619257
vt 0.5022146 0.8846592
vt 0.5022146 0.8846592
vt 0.8355747 0.2987372
vt 0.8355747 0.2987372
vt 0.8355747 0.3377476
vt 0.8355747 0.3377476
vt 0.02256029 0.02296603
vt 0.02256029 0.02296603
vt 0.02256029 0.02296603
vt 0.02256029 0.02296603
vt 0.5081202 0.8619257
vt 0.5081202 0.8694484
vt 0.5081202 0.8694484
vt 0.5081202 0.8619257
vt 0.02256029 0.02296603
vt 0.02256029 0.02296603
vt 0.02256029 0.02296603
vt 0.02256029 0.02296603
vt 0.02256029 0.02296603
vt 0.02256029 0.02296603
vt 0.02256029 0.02296603
vt 0.02256029 0.02296603
vt 0.02256029 0.02296603
vt 0.02256029 0.02296603
vt 0.02256029 0.02296603
vt 0.02256029 0.02296603
vt 0.02256029 0.02296603
vt 0.02256029 0.02296603
vt 0.02256029 0.02296603
vt 0.02256029 0.02296603
vt 0.02256029 0.02296603
vt 0.02256029 0.02296603
vt 0.02256029 0.02296603
vt 0.02256029 0.02296603
vt 0.02256029 0.02296603
vt 0.02256029 0.02296603
vt 0.02256029 0.02296603
vt 0.02256029 0.02296603
vt 0.02256029 0.02296603
vt 0.02256029 0.02296603
vt 0.02256029 0.02296603
vt 0.02256029 0.02296603
vt 0.02256029 0.02296603
vt 0.02256029 0.02296603
vt 0.02256029 0.02296603
vt 0.02256029 0.02296603
vt 0.02256029 0.02296603
vt 0.02256029 0.02296603
vt 0.02256029 0.02296603
vt 0.02256029 0.02296603
vt 0.02256029 0.02296603
vt 0.02256029 0.02296603
vt 0.02256029 0.02296603
vt 0.02256029 0.02296603
vt 0.02256029 0.02296603
vt 0.02256029 0.02296603
vt 0.02256029 0.02296603
vt 0.02256029 0.02296603
vn -0.003183375 -0.007818829 0.9999644
vn -0.003153089 -0.007817822 0.9999645
vn -0.003152453 -0.007776258 0.9999648
vn -0.003182739 -0.007777266 0.9999647
vn 0.3212261 0.3449917 0.8819266
vn 0.8685359 0.3802061 0.3179443
vn 0.3726155 0.8843441 0.2812349
vn 0.3533643 0.3762007 -0.8565084
vn 0.380455 0.8968478 -0.22565
vn 0.8833234 0.3849413 -0.267507
vn -0.3534543 0.3589279 0.8638523
vn -0.3880825 0.8884402 0.2450835
vn -0.8867171 0.378879 0.2649219
vn -0.3501156 0.3713622 -0.8599472
vn -0.8851562 0.3744775 -0.2761617
vn -0.385011 0.8942733 -0.2281266
vn 0.2408334 -0.3442006 0.9074829
vn 0.8158947 -0.4803808 0.321792
vn 0.2608656 -0.3381799 -0.9042032
vn 0.8217296 -0.4760625 -0.3132488
vn -0.2577925 -0.3493873 0.9008171
vn -0.823247 -0.4860301 0.2933245
vn -0.2515948 -0.3430966 -0.9049777
vn -0.8116384 -0.4880077 -0.3210788
vn -0.7843421 -0.2957457 -0.5452907
vn -0.2732981 -0.7567694 -0.5938083
vn -0.1931911 -0.2091951 -0.9586003
vn 0.2607779 -0.7172663 -0.646161
vn 0.7040808 -0.2491237 -0.664987
vn 0.2201002 -0.2132789 -0.9518761
vn -0.2784322 0.7640595 -0.5819697
vn -0.7863472 0.2989108 -0.5406576
vn -0.1946561 0.2227778 -0.9552377
vn 0.7023466 0.2641542 -0.6610081
vn 0.2558924 0.7289526 -0.6349387
vn 0.2186003 0.2295057 -0.9484413
vn -0.7955077 -0.3460076 -0.4974397
vn -0.2704873 -0.2822928 -0.9204061
vn -0.3132442 -0.761217 -0.5678263
vn 0.2783014 -0.2804355 -0.9186426
vn 0.7046509 -0.2955008 -0.6450942
vn 0.2973368 -0.7215377 -0.6252792
vn -0.3183923 0.76781 -0.5559623
vn -0.272421 0.2947189 -0.9159299
vn -0.797841 0.3483137 -0.4920646
vn 0.7026075 0.3102434 -0.6403841
vn 0.2763532 0.2965526 -0.9141583
vn 0.2924244 0.73316 -0.6139743
vn -0.003211298 -0.007836761 0.9999641
vn -0.003152466 -0.007835679 0.9999644
vn -0.003152012 -0.007765322 0.999965
vn -0.003210843 -0.007766402 0.9999647
vn 0.2608656 -0.3381799 -0.9042032
vn -0.2515948 -0.3430966 -0.9049777
vn -0.2577925 -0.3493873 0.9008171
vn 0.2408334 -0.3442006 0.9074829
vn 0.8217296 -0.4760625 -0.3132488
vn 0.8158947 -0.4803808 0.321792
vn -0.823247 -0.4860301 0.2933245
vn -0.8116384 -0.4880077 -0.3210788
vn 0.8685359 0.3802061 0.3179443
vn 0.3212261 0.3449917 0.8819266
vn 0.3726155 0.8843441 0.2812349
vn 0.8833234 0.3849413 -0.267507
vn 0.380455 0.8968478 -0.22565
vn -0.3880825 0.8884402 0.2450835
vn -0.3534543 0.3589279 0.8638523
vn -0.3501156 0.3713622 -0.8599472
vn 0.3533643 0.3762007 -0.8565084
vn -0.385011 0.8942733 -0.2281266
vn -0.8867171 0.378879 0.2649219
vn -0.8851562 0.3744775 -0.2761617
vn -0.2732981 -0.7567694 -0.5938083
vn -0.7955077 -0.3460076 -0.4974397
vn -0.7843421 -0.2957457 -0.5452907
vn -0.3132442 -0.761217 -0.5678263
vn -0.1931911 -0.2091951 -0.9586003
vn 0.2607779 -0.7172663 -0.646161
vn 0.2201002 -0.2132789 -0.9518761
vn -0.1946561 0.2227778 -0.9552377
vn -0.7863472 0.2989108 -0.5406576
vn 0.7040808 -0.2491237 -0.664987
vn 0.2973368 -0.7215377 -0.6252792
vn 0.7046509 -0.2955008 -0.6450942
vn 0.7023466 0.2641542 -0.6610081
vn 0.2186003 0.2295057 -0.9484413
vn -0.3183923 0.76781 -0.5559623
vn -0.2784322 0.7640595 -0.5819697
vn -0.797841 0.3483137 -0.4920646
vn 0.2558924 0.7289526 -0.6349387
vn 0.7026075 0.3102434 -0.6403841
vn 0.2924244 0.73316 -0.6139743
vn -0.2704873 -0.2822928 -0.9204061
vn -0.272421 0.2947189 -0.9159299
vn 0.2783014 -0.2804355 -0.9186426
vn 0.2763532 0.2965526 -0.9141583
vn -0.003183375 -0.007818829 0.9999644
vn -0.003152466 -0.007835679 0.9999644
vn -0.003153089 -0.007817822 0.9999645
vn -0.003211298 -0.007836761 0.9999641
vn -0.003152012 -0.007765322 0.999965
vn -0.003152453 -0.007776258 0.9999648
vn -0.003210843 -0.007766402 0.9999647
vn -0.003182739 -0.007777266 0.9999647
g colourPaletteQuest_geo_0
f 51/51/51 49/49/49 50/50/50
f 52/52/52 49/49/49 51/51/51
f 6/6/6 57/57/57 10/10/10
f 58/58/58 57/57/57 6/6/6
f 12/12/12 9/9/9 16/16/16
f 7/7/7 9/9/9 12/12/12
f 15/15/15 59/59/59 13/13/13
f 60/60/60 59/59/59 15/15/15
f 28/28/28 39/39/39 42/42/42
f 26/26/26 39/39/39 28/28/28
f 37/37/37 32/32/32 45/45/45
f 25/25/25 32/32/32 37/37/37
f 34/34/34 41/41/41 46/46/46
f 29/29/29 41/41/41 34/34/34
f 43/43/43 35/35/35 48/48/48
f 31/31/31 35/35/35 43/43/43
f 40/40/40 44/44/44 47/47/47
f 38/38/38 44/44/44 40/40/40
f 27/27/27 23/23/23 33/33/33
f 19/19/19 23/23/23 27/27/27
f 30/30/30 19/19/19 27/27/27
f 8/8/8 19/19/19 30/30/30
f 36/36/36 8/8/8 30/30/30
f 14/14/14 8/8/8 36/36/36
f 33/33/33 14/14/14 36/36/36
f 23/23/23 14/14/14 33/33/33
f 2/2/2 17/17/17 5/5/5
f 21/21/21 17/17/17 2/2/2
f 1/1/1 21/21/21 2/2/2
f 11/11/11 21/21/21 1/1/1
f 4/4/4 11/11/11 1/1/1
f 5/5/5 11/11/11 4/4/4
f 3/3/3 5/5/5 4/4/4
f 2/2/2 5/5/5 3/3/3
f 64/64/64 65/65/65 63/63/63
f 69/69/69 65/65/65 64/64/64
f 20/20/20 69/69/69 64/64/64
f 53/53/53 69/69/69 20/20/20
f 24/24/24 53/53/53 20/20/20
f 54/54/54 53/53/53 24/24/24
f 72/72/72 54/54/54 24/24/24
f 68/68/68 54/54/54 72/72/72
f 70/70/70 68/68/68 72/72/72
f 65/65/65 68/68/68 70/70/70
f 18/18/18 56/56/56 55/55/55
f 22/22/22 18/18/18 55/55/55
f 20/20/20 18/18/18 22/22/22
f 24/24/24 20/20/20 22/22/22
f 61/61/61 56/56/56 18/18/18
f 62/62/62 56/56/56 61/61/61
f 63/63/63 62/62/62 61/61/61
f 66/66/66 62/62/62 63/63/63
f 64/64/64 63/63/63 61/61/61
f 71/71/71 70/70/70 72/72/72
f 66/66/66 70/70/70 71/71/71
f 67/67/67 66/66/66 71/71/71
f 62/62/62 66/66/66 67/67/67
f 68/68/68 65/65/65 69/69/69
f 22/22/22 67/67/67 71/71/71
f 55/55/55 67/67/67 22/22/22
f 76/76/76 93/93/93 95/95/95
f 74/74/74 93/93/93 76/76/76
f 73/73/73 74/74/74 76/76/76
f 75/75/75 74/74/74 73/73/73
f 77/77/77 75/75/75 73/73/73
f 80/80/80 75/75/75 77/77/77
f 79/79/79 82/82/82 85/85/85
f 78/78/78 82/82/82 79/79/79
f 77/77/77 78/78/78 79/79/79
f 73/73/73 78/78/78 77/77/77
f 90/90/90 85/85/85 91/91/91
f 86/86/86 85/85/85 90/90/90
f 88/88/88 86/86/86 90/90/90
f 80/80/80 86/86/86 88/88/88
f 81/81/81 80/80/80 88/88/88
f 75/75/75 80/80/80 81/81/81
f 84/84/84 95/95/95 96/96/96
f 83/83/83 95/95/95 84/84/84
f 82/82/82 83/83/83 84/84/84
f 78/78/78 83/83/83 82/82/82
f 86/86/86 79/79/79 85/85/85
f 89/89/89 94/94/94 93/93/93
f 87/87/87 94/94/94 89/89/89
f 81/81/81 87/87/87 89/89/89
f 88/88/88 87/87/87 81/81/81
f 91/91/91 92/92/92 90/90/90
f 96/96/96 92/92/92 91/91/91
f 84/84/84 96/96/96 91/91/91
f 89/89/89 93/93/93 74/74/74
f 83/83/83 76/76/76 95/95/95
f 92/92/92 94/94/94 87/87/87
f 96/96/96 94/94/94 92/92/92
f 100/100/100 97/97/97 98/98/98
f 104/104/104 97/97/97 100/100/100
f 103/103/103 104/104/104 100/100/100
f 102/102/102 104/104/104 103/103/103
f 101/101/101 102/102/102 103/103/103
f 99/99/99 102/102/102 101/101/101
f 98/98/98 99/99/99 101/101/101
f 97/97/97 99/99/99 98/98/98
