g colourPalette_geo
v -0.1407744 0.0907589 0.1683846
v 0.05210531 0.0907589 0.1683846
v -0.1164871 -0.02161589 -0.5370545
v 0.05210531 -0.02161589 -0.4366218
v -0.0443345 0.1477932 0.2537086
v -0.0443345 0.03541837 -0.521946
v -0.198232 -0.0721963 0.1948458
v 0.08585935 -0.0721963 0.2537086
v -0.1745285 0.1477932 -0.07539902
v 0.08585935 0.1477932 -0.07539902
v -0.2073361 -0.0721963 -0.6420044
v 0.1200406 -0.09576079 -0.6109362
v -0.0443345 -0.0721963 0.3634115
v -0.0443345 0.2211231 -0.07539902
v -0.03467875 -0.0721963 -0.7668262
v 0.1292575 -0.0721963 -0.07539902
v -0.2034189 -0.0721963 -0.1692587
v -0.1932953 0.006901257 -0.3812965
v -0.3192793 -0.0721963 -0.5136684
v 0.153591 -0.08397855 -0.3519446
v 0.06898253 0.006901257 -0.31473
v -0.0443345 0.07208329 -0.3573921
v 0.2097703 -0.3132682 0.06403746
v 0.3453069 -0.315256 -0.3162023
v 0.2880614 -0.3172438 -0.7820274
v 0.00427763 -0.3132682 -1.05827
v -0.3564126 -0.3130489 -0.877915
v -0.4737202 -0.3131585 -0.4430586
v -0.289665 -0.3132682 -0.1900619
v -0.2461773 -0.3130489 0.4861166
v -0.01352938 -0.3132682 0.7422267
v 0.2159549 -0.3130489 0.4768133
vt 0.5682298 0.749727
vt 0.5682298 0.749727
vt 0.5682298 0.749727
vt 0.5682298 0.749727
vt 0.5682298 0.749727
vt 0.5682298 0.749727
vt 0.5682298 0.749727
vt 0.5682298 0.749727
vt 0.5682298 0.749727
vt 0.5682298 0.749727
vt 0.5682298 0.749727
vt 0.5682298 0.749727
vt 0.5682298 0.749727
vt 0.5682298 0.749727
vt 0.5682298 0.749727
vt 0.5682298 0.749727
vt 0.5682298 0.749727
vt 0.5682298 0.749727
vt 0.5682298 0.749727
vt 0.5682298 0.749727
vt 0.5682298 0.749727
vt 0.5682298 0.749727
vt 0.5682298 0.749727
vt 0.5682298 0.749727
vt 0.5682298 0.749727
vt 0.5682298 0.749727
vt 0.5682298 0.749727
vt 0.5682298 0.749727
vt 0.5682298 0.749727
vt 0.5682298 0.749727
vt 0.5682298 0.749727
vt 0.5682298 0.749727
vn -0.8074879 0.4861635 0.3340785
vn 0.7775412 0.5118443 0.3653013
vn -0.3466305 0.8925593 -0.2884186
vn 0.5709002 0.793121 -0.2122078
vn -0.01835288 0.8072954 0.589862
vn 0.0916668 0.9485629 -0.3030275
vn -0.8509073 0.4073876 0.3316504
vn 0.8048778 0.4784877 0.351029
vn -0.7820296 0.623241 0.0006146511
vn 0.8017494 0.5959218 -0.04555251
vn -0.4424507 0.8094692 -0.3860011
vn 0.6115416 0.7483495 -0.256885
vn -0.03287141 0.6951603 0.7181028
vn 0.03779107 0.9915906 -0.1237743
vn 0.09566173 0.8808989 -0.4635364
vn 0.912617 0.4024486 0.07187065
vn -0.9269581 0.338944 0.1608277
vn -0.5347225 0.8140243 -0.2267958
vn -0.7586877 0.6511803 -0.01889788
vn 0.7976717 0.6012323 -0.04732324
vn 0.6767529 0.6975 -0.2355828
vn 0.08024672 0.9223347 -0.3779673
vn 0.8651891 0.4875619 0.1171805
vn 0.8008875 0.5974292 0.04071271
vn 0.6563857 0.6917819 -0.3009912
vn 0.09784453 0.7975518 -0.5952626
vn -0.5670683 0.6783133 -0.4672522
vn -0.8346424 0.5483978 0.0513025
vn -0.8984748 0.3747869 0.2286438
vn -0.7994932 0.5289678 0.2846116
vn -0.02827131 0.8336394 0.5515851
vn 0.7357496 0.6209165 0.2704353
g colourPalette_geo_0
f 11/11/11 26/26/26 27/27/27
f 15/15/15 26/26/26 11/11/11
f 6/6/6 15/15/15 11/11/11
f 12/12/12 15/15/15 6/6/6
f 4/4/4 12/12/12 6/6/6
f 21/21/21 12/12/12 4/4/4
f 22/22/22 21/21/21 4/4/4
f 10/10/10 21/21/21 22/22/22
f 14/14/14 10/10/10 22/22/22
f 5/5/5 10/10/10 14/14/14
f 9/9/9 5/5/5 14/14/14
f 1/1/1 5/5/5 9/9/9
f 7/7/7 1/1/1 9/9/9
f 5/5/5 1/1/1 7/7/7
f 13/13/13 5/5/5 7/7/7
f 8/8/8 5/5/5 13/13/13
f 31/31/31 8/8/8 13/13/13
f 32/32/32 8/8/8 31/31/31
f 7/7/7 30/30/30 31/31/31
f 29/29/29 30/30/30 7/7/7
f 17/17/17 29/29/29 7/7/7
f 19/19/19 29/29/29 17/17/17
f 9/9/9 19/19/19 17/17/17
f 18/18/18 19/19/19 9/9/9
f 22/22/22 18/18/18 9/9/9
f 6/6/6 18/18/18 22/22/22
f 4/4/4 6/6/6 22/22/22
f 12/12/12 26/26/26 15/15/15
f 25/25/25 26/26/26 12/12/12
f 20/20/20 25/25/25 12/12/12
f 24/24/24 25/25/25 20/20/20
f 23/23/23 24/24/24 20/20/20
f 20/20/20 12/12/12 21/21/21
f 10/10/10 20/20/20 21/21/21
f 16/16/16 20/20/20 10/10/10
f 8/8/8 16/16/16 10/10/10
f 23/23/23 16/16/16 8/8/8
f 32/32/32 23/23/23 8/8/8
f 3/3/3 6/6/6 11/11/11
f 18/18/18 6/6/6 3/3/3
f 11/11/11 18/18/18 3/3/3
f 19/19/19 18/18/18 11/11/11
f 28/28/28 19/19/19 11/11/11
f 29/29/29 19/19/19 28/28/28
f 28/28/28 11/11/11 27/27/27
f 2/2/2 5/5/5 8/8/8
f 10/10/10 5/5/5 2/2/2
f 8/8/8 10/10/10 2/2/2
f 13/13/13 7/7/7 31/31/31
f 14/14/14 22/22/22 9/9/9
f 16/16/16 23/23/23 20/20/20
f 17/17/17 7/7/7 9/9/9
