g colourPalette_geo
v -0.3209597 0.008291761 0.3777373
v -0.312668 2.145767E-08 0.3777373
v -0.312668 0.008291761 0.386029
v 0.3168555 1.779391E-08 0.3777373
v 0.3251472 0.00829176 0.3777373
v 0.3168555 0.00829176 0.386029
v -0.312668 0.5400045 0.3777373
v -0.3209597 0.5317127 0.3777373
v -0.312668 0.5317127 0.386029
v 0.3251472 0.5317127 0.3777373
v 0.3168555 0.5400045 0.3777373
v 0.3168555 0.5317127 0.386029
v -0.312668 0.5317127 -0.3860289
v -0.3209597 0.5317127 -0.3777372
v -0.312668 0.5400045 -0.3777372
v 0.3251472 0.5317127 -0.3777372
v 0.3168555 0.5317127 -0.3860289
v 0.3168555 0.5400045 -0.3777372
v -0.312668 2.145767E-08 -0.3777372
v -0.3209597 0.008291761 -0.3777372
v -0.312668 0.008291761 -0.3860289
v 0.3251472 0.00829176 -0.3777372
v 0.3168555 1.779391E-08 -0.3777372
v 0.3168555 0.00829176 -0.3860289
v -0.006523136 0.5400045 0.3777373
v 0.006523136 0.5400045 0.3777373
v 0.006523136 0.5400045 -0.3777372
v -0.006523136 0.5400045 -0.3777372
v -0.312668 2.145767E-08 0.3777373
v -0.3209597 0.008291761 -0.3777372
v -0.3209597 0.008291761 0.3777373
v -0.312668 2.145767E-08 -0.3777372
v -0.312668 0.008291761 0.386029
v 0.3168555 1.779391E-08 0.3777373
v 0.3168555 0.00829176 0.386029
v -0.312668 0.5317127 0.386029
v -0.3209597 0.5317127 0.3777373
v 0.3251472 0.00829176 0.3777373
v 0.3168555 1.779391E-08 -0.3777372
v 0.3251472 0.00829176 -0.3777372
v 0.3251472 0.5317127 0.3777373
v 0.3168555 0.5317127 0.386029
v -0.3209597 0.5317127 -0.3777372
v 0.006523136 0.5400045 0.3777373
v 0.3168555 0.5400045 0.3777373
v 0.3251472 0.5317127 -0.3777372
v 0.3168555 0.5400045 -0.3777372
v -0.312668 0.008291761 -0.3860289
v -0.312668 0.5317127 -0.3860289
v 0.3168555 0.5317127 -0.3860289
v 0.006523136 0.5400045 -0.3777372
v 0.3168555 0.00829176 -0.3860289
v -0.006523136 0.5400045 0.3777373
v -0.312668 0.5400045 -0.3777372
v -0.006523136 0.5400045 -0.3777372
v -0.312668 0.5400045 0.3777373
vt 0.05707896 0.788625
vt 0.05707897 0.7631302
vt 0.05707896 0.7886249
vt 0.05707896 0.7631302
vt 0.05707896 0.788625
vt 0.05707896 0.788625
vt 0 1
vt 0.05707896 0.810824
vt 0.05707896 0.810824
vt 0.05707896 0.810824
vt 0.05707896 0.83032
vt 0.05707896 0.810824
vt 0.05707896 0.810824
vt 0.05707896 0.810824
vt 0 1
vt 0.05707896 0.810824
vt 0.05707896 0.810824
vt 0.05707896 0.83032
vt 0.05707897 0.7631303
vt 0.05707896 0.788625
vt 0.05707896 0.788625
vt 0.05707896 0.788625
vt 0.05707896 0.7631303
vt 0.05707896 0.788625
vt 0 1
vt 0.05707897 0.83032
vt 0.05707897 0.83032
vt 0 1
vt 0 1
vt 0 1
vt 0 1
vt 0 1
vt 0 1
vt 0 1
vt 0 1
vt 0 1
vt 0 1
vt 0 1
vt 0 1
vt 0 1
vt 0 1
vt 0 1
vt 0 1
vt 0 1
vt 0 1
vt 0 1
vt 0 1
vt 0 1
vt 0 1
vt 0 1
vt 0 1
vt 0 1
vt 0.05707897 0.83032
vt 0.05707897 0.83032
vt 0.05707897 0.83032
vt 0.05707897 0.83032
vn -0.8547632 -0.3670006 0.367002
vn -0.3670011 -0.8547629 0.3670021
vn -0.3670001 -0.3670001 0.8547643
vn 0.3670011 -0.8547628 0.3670025
vn 0.8547632 -0.3670004 0.3670023
vn 0.3670003 -0.3669994 0.8547645
vn -0.3670018 0.854762 0.3670036
vn -0.8547634 0.3669991 0.367003
vn -0.2924024 0.4533716 0.8419946
vn 0.8547633 0.3669989 0.3670033
vn 0.3670019 0.8547614 0.3670048
vn 0.2412632 0.5068933 0.8275574
vn -0.3670006 0.3669993 -0.8547644
vn -0.8547637 0.3669993 -0.367002
vn -0.2924041 0.8419917 -0.453376
vn 0.8547637 0.3669991 -0.3670023
vn 0.204655 0.5426458 -0.8146482
vn 0.3670021 0.8547618 -0.3670036
vn -0.367002 -0.8547632 -0.3670007
vn -0.8547639 -0.3670004 -0.3670006
vn -0.3670016 -0.3670008 -0.8547633
vn 0.8547637 -0.3670002 -0.3670009
vn 0.3670019 -0.8547631 -0.367001
vn 0.3670018 -0.3670002 -0.8547635
vn 0 0.8891279 0.4576588
vn 0 0.9238763 0.3826913
vn 0 0.923878 -0.3826871
vn 0 0.9238784 -0.3826862
vn -0.3670011 -0.8547629 0.3670021
vn -0.8547639 -0.3670004 -0.3670006
vn -0.8547632 -0.3670006 0.367002
vn -0.367002 -0.8547632 -0.3670007
vn -0.3670001 -0.3670001 0.8547643
vn 0.3670011 -0.8547628 0.3670025
vn 0.3670003 -0.3669994 0.8547645
vn -0.2924024 0.4533716 0.8419946
vn -0.8547634 0.3669991 0.367003
vn 0.8547632 -0.3670004 0.3670023
vn 0.3670019 -0.8547631 -0.367001
vn 0.8547637 -0.3670002 -0.3670009
vn 0.8547633 0.3669989 0.3670033
vn 0.2412632 0.5068933 0.8275574
vn -0.8547637 0.3669993 -0.367002
vn 0 0.9238763 0.3826913
vn 0.3670019 0.8547614 0.3670048
vn 0.8547637 0.3669991 -0.3670023
vn 0.3670021 0.8547618 -0.3670036
vn -0.3670016 -0.3670008 -0.8547633
vn -0.3670006 0.3669993 -0.8547644
vn 0.204655 0.5426458 -0.8146482
vn 0 0.923878 -0.3826871
vn 0.3670018 -0.3670002 -0.8547635
vn 0 0.8891279 0.4576588
vn -0.2924041 0.8419917 -0.453376
vn 0 0.9238784 -0.3826862
vn -0.3670018 0.854762 0.3670036
g colourPalette_geo_0
f 4/4/4 19/19/19 23/23/23
f 2/2/2 19/19/19 4/4/4
f 9/9/9 6/6/6 12/12/12
f 3/3/3 6/6/6 9/9/9
f 20/20/20 8/8/8 14/14/14
f 1/1/1 8/8/8 20/20/20
f 10/10/10 22/22/22 16/16/16
f 5/5/5 22/22/22 10/10/10
f 27/27/27 11/11/11 18/18/18
f 26/26/26 11/11/11 27/27/27
f 21/21/21 17/17/17 24/24/24
f 13/13/13 17/17/17 21/21/21
f 54/54/54 53/53/53 55/55/55
f 56/56/56 53/53/53 54/54/54
f 32/32/32 48/48/48 52/52/52
f 30/30/30 48/48/48 32/32/32
f 29/29/29 30/30/30 32/32/32
f 31/31/31 30/30/30 29/29/29
f 33/33/33 31/31/31 29/29/29
f 36/36/36 31/31/31 33/33/33
f 35/35/35 38/38/38 41/41/41
f 34/34/34 38/38/38 35/35/35
f 33/33/33 34/34/34 35/35/35
f 29/29/29 34/34/34 33/33/33
f 36/36/36 37/37/37 31/31/31
f 7/7/7 37/37/37 36/36/36
f 25/25/25 7/7/7 36/36/36
f 40/40/40 52/52/52 50/50/50
f 39/39/39 52/52/52 40/40/40
f 38/38/38 39/39/39 40/40/40
f 34/34/34 39/39/39 38/38/38
f 51/51/51 28/28/28 25/25/25
f 50/50/50 28/28/28 51/51/51
f 47/47/47 50/50/50 51/51/51
f 46/46/46 50/50/50 47/47/47
f 45/45/45 46/46/46 47/47/47
f 41/41/41 46/46/46 45/45/45
f 42/42/42 41/41/41 45/45/45
f 35/35/35 41/41/41 42/42/42
f 43/43/43 49/49/49 48/48/48
f 15/15/15 49/49/49 43/43/43
f 37/37/37 15/15/15 43/43/43
f 7/7/7 15/15/15 37/37/37
f 42/42/42 25/25/25 36/36/36
f 44/44/44 25/25/25 42/42/42
f 45/45/45 44/44/44 42/42/42
f 30/30/30 43/43/43 48/48/48
f 50/50/50 15/15/15 28/28/28
f 49/49/49 15/15/15 50/50/50
f 40/40/40 50/50/50 46/46/46
f 39/39/39 32/32/32 52/52/52
f 51/51/51 25/25/25 44/44/44
