g colourPalette_mdl
v 0.1153355 0.02163169 -0.1153355
v 2.850463E-09 0.02163169 -0.1631091
v -0.1153355 0.02163169 -0.1153355
v -0.1631091 0.02163169 0
v -0.1153355 0.02163169 0.1153355
v 2.850463E-09 0.02163169 0.1631091
v 0.1153356 0.02163169 0.1153355
v 0.1631091 0.02163169 0
v 0.1033558 0.1014559 -0.1033558
v 3.658318E-09 0.1014559 -0.1461672
v -0.1033558 0.1014559 -0.1033558
v -0.1461671 0.1014559 0
v -0.1033558 0.1014559 0.1033558
v 3.658318E-09 0.1014559 0.1461672
v 0.1033558 0.1014559 0.1033558
v 0.1461672 0.1014559 0
v 0 0 0
v 3.658318E-09 0.07094432 0
v 0.2443466 0.07735348 0
v 0.1727792 0.07735348 0.1727792
v -1.023243E-09 0.07735348 0.2443466
v -0.1727791 0.07735348 0.1727791
v -0.2443466 0.07735348 0
v -0.1727791 0.07735348 -0.1727791
v -1.023243E-09 0.07735348 -0.2443466
v 0.1727791 0.07735348 -0.1727791
v 0.2336171 0.1209969 0
v 0.1651923 0.1209969 0.1651923
v -5.116214E-10 0.1209969 0.2336171
v -0.1651922 0.1209969 0.1651922
v -0.2336171 0.1209969 0
v -0.1651922 0.1209969 -0.1651922
v -5.116214E-10 0.1209969 -0.2336171
v 0.1651922 0.1209969 -0.1651922
v -0.1775835 0.1284196 0
v -0.1255705 0.1284196 -0.1255705
v 2.160268E-09 0.1284196 -0.1775835
v 0.1255705 0.1284196 -0.1255705
v 0.1775835 0.1284196 0
v 0.1255705 0.1284196 0.1255705
v 2.160268E-09 0.1284196 0.1775835
v -0.1255705 0.1284196 0.1255705
v -0.01280985 0.1327687 0.04902624
v -0.05518942 0.1169849 0.06300283
v -0.05272793 0.107521 0.1093157
v -0.008827054 0.1174559 0.123962
v 0.01584367 0.1330598 0.0867011
v -0.023036 0.1852462 0.04408168
v -0.08296978 0.1629245 0.06384756
v -0.07948869 0.1495406 0.1293438
v -0.01740348 0.1635906 0.1500569
v 0.01748619 0.1856579 0.09736196
v -0.04382091 0.2305051 0.07885987
v -0.07730688 0.2180336 0.08990337
v -0.07536194 0.2105558 0.1264972
v -0.04067394 0.2184058 0.1380699
v -0.02118052 0.2307351 0.1086284
v -0.01796398 0.1056199 0.08289073
v -0.05536974 0.233992 0.1111111
v 0.07860727 0.1361127 0.03279059
v 0.03388873 0.1392073 0.04799517
v 0.03140744 0.1184432 0.09045928
v 0.07459246 0.1025158 0.1014989
v 0.1037636 0.1134362 0.06585775
v 0.09517965 0.1865605 0.04074591
v 0.03193809 0.1909368 0.06224845
v 0.02842904 0.161572 0.1223018
v 0.08950187 0.1390472 0.1379142
v 0.130756 0.154491 0.08750994
v 0.09898779 0.2259229 0.08685457
v 0.0636537 0.2283679 0.09886838
v 0.06169313 0.2119614 0.1324212
v 0.0958155 0.1993764 0.1411441
v 0.1188649 0.2080051 0.1129824
v 0.06088367 0.1070896 0.06024883
v 0.09056677 0.2262315 0.1202412
v 0.08735169 0.1043678 -0.1001382
v 0.04693349 0.1265565 -0.08943611
v 0.05034686 0.1425534 -0.0450182
v 0.09287465 0.1302514 -0.02826855
v 0.1157449 0.1066514 -0.0623346
v 0.1104613 0.1409076 -0.131977
v 0.05330132 0.172287 -0.1168419
v 0.05812857 0.1949101 -0.05402548
v 0.1182719 0.1775125 -0.03033788
v 0.1506153 0.144137 -0.07851457
v 0.1271713 0.1992219 -0.1287957
v 0.09523504 0.2167541 -0.1203395
v 0.0979321 0.229394 -0.08524296
v 0.1315352 0.2196736 -0.07200833
v 0.149606 0.2010262 -0.0989254
v 0.07215118 0.1074572 -0.05927474
v 0.1253298 0.2245371 -0.1055272
vt 0.5772587 0.7518913
vt 0.5772587 0.7518913
vt 0.5772587 0.7518913
vt 0.5772587 0.7518913
vt 0.5772587 0.7518913
vt 0.5772587 0.7518913
vt 0.5772587 0.7518913
vt 0.5772587 0.7518913
vt 0.5672392 0.7065091
vt 0.5672392 0.7065091
vt 0.5672392 0.7065091
vt 0.5672392 0.7065091
vt 0.5672392 0.7065091
vt 0.5672392 0.7065091
vt 0.5672392 0.7065091
vt 0.5672392 0.7065091
vt 0.5772587 0.7518913
vt 0.5672392 0.689417
vt 0.5672392 0.7518913
vt 0.5672392 0.7518913
vt 0.5672392 0.7518913
vt 0.5672392 0.7518913
vt 0.5672392 0.7518913
vt 0.5672392 0.7518913
vt 0.5672392 0.7518913
vt 0.5672392 0.7518913
vt 0.5672392 0.7518913
vt 0.5672392 0.7518913
vt 0.5672392 0.7518913
vt 0.5672392 0.7518913
vt 0.5672392 0.7518913
vt 0.5672392 0.7518913
vt 0.5672392 0.7518913
vt 0.5672392 0.7518913
vt 0.5672392 0.7518913
vt 0.5672392 0.7518913
vt 0.5672392 0.7518913
vt 0.5672392 0.7518913
vt 0.5672392 0.7518913
vt 0.5672392 0.7518913
vt 0.5672392 0.7518913
vt 0.5672392 0.7518913
vt 0.9794863 0.9060655
vt 0.9794864 0.9060655
vt 0.9794864 0.9060655
vt 0.9794863 0.9060655
vt 0.9794863 0.9060655
vt 0.9744418 0.9060655
vt 0.9744418 0.9060655
vt 0.9744418 0.9060655
vt 0.9744418 0.9060655
vt 0.9744418 0.9060655
vt 0.9749392 0.9060655
vt 0.9749392 0.9060655
vt 0.9749392 0.9060655
vt 0.9749392 0.9060655
vt 0.9749392 0.9060655
vt 0.9794864 0.9060655
vt 0.9659624 0.9060655
vt 0.9794863 0.9060655
vt 0.9794864 0.9060655
vt 0.9794864 0.9060655
vt 0.9794863 0.9060655
vt 0.9794863 0.9060655
vt 0.9744418 0.9060655
vt 0.9744418 0.9060655
vt 0.9744418 0.9060655
vt 0.9744418 0.9060655
vt 0.9744418 0.9060655
vt 0.9749392 0.9060655
vt 0.9749392 0.9060655
vt 0.9749392 0.9060655
vt 0.9749392 0.9060655
vt 0.9749392 0.9060655
vt 0.9794864 0.9060655
vt 0.9659624 0.9060655
vt 0.9794863 0.9060655
vt 0.9794864 0.9060655
vt 0.9794864 0.9060655
vt 0.9794863 0.9060655
vt 0.9794863 0.9060655
vt 0.9744418 0.9060655
vt 0.9744418 0.9060655
vt 0.9744418 0.9060655
vt 0.9744418 0.9060655
vt 0.9744418 0.9060655
vt 0.9749392 0.9060655
vt 0.9749392 0.9060655
vt 0.9749392 0.9060655
vt 0.9749392 0.9060655
vt 0.9749392 0.9060655
vt 0.9794864 0.9060655
vt 0.9659624 0.9060655
vn 0.2514187 -0.9346535 -0.2514187
vn 0 -0.9346535 -0.3555597
vn -0.2514187 -0.9346535 -0.2514187
vn -0.3555597 -0.9346535 0
vn -0.2514187 -0.9346535 0.2514187
vn 0 -0.9346535 0.3555597
vn 0.2514187 -0.9346535 0.2514187
vn 0.3555597 -0.9346535 0
vn -0.309778 0.8989301 0.309778
vn 0 0.8989301 0.4380922
vn 0.3097779 0.8989301 0.3097778
vn 0.4380921 0.8989301 0
vn 0.3097779 0.8989301 -0.3097778
vn 0 0.8989301 -0.4380921
vn -0.3097779 0.8989301 -0.3097779
vn -0.4380922 0.8989301 0
vn 0 -1 0
vn 0 1 0
vn 0.9283097 -0.3718079 0
vn 0.6564141 -0.3718078 0.6564141
vn 0 -0.3718078 0.9283097
vn -0.6564141 -0.3718077 0.6564142
vn -0.9283097 -0.3718077 0
vn -0.656414 -0.3718077 -0.6564142
vn 0 -0.3718079 -0.9283097
vn 0.6564141 -0.3718077 -0.6564142
vn 0.6485238 0.7611943 0
vn 0.4585756 0.7611943 0.4585757
vn 0 0.7611943 0.6485238
vn -0.4585756 0.7611945 0.4585756
vn -0.6485236 0.7611945 0
vn -0.4585756 0.7611945 -0.4585756
vn 0 0.7611944 -0.6485238
vn 0.4585756 0.7611944 -0.4585756
vn 0.2775708 0.9607051 0
vn 0.1962722 0.9607051 0.1962723
vn 0 0.9607051 0.2775709
vn -0.1962723 0.9607051 0.1962723
vn -0.2775709 0.9607051 0
vn -0.1962723 0.9607051 -0.1962722
vn 0 0.9607051 -0.2775708
vn 0.1962722 0.9607051 -0.1962722
vn 0.3729473 -0.4604378 -0.8055478
vn -0.3759696 -0.7393639 -0.5585586
vn -0.3324708 -0.9066051 0.2598657
vn 0.4433298 -0.7310394 0.5186906
vn 0.8793023 -0.4552928 -0.1397712
vn 0.2319947 0.3296731 -0.915147
vn -0.8217884 -0.05309536 -0.5673137
vn -0.7607168 -0.2878997 0.581742
vn 0.3307226 -0.0499096 0.9424073
vn 0.9433236 0.3314083 0.01758464
vn -0.03921958 0.8790352 -0.4751408
vn -0.7484828 0.6193156 -0.2371109
vn -0.7074273 0.4614675 0.5353451
vn 0.02762285 0.6220432 0.7824956
vn 0.4450534 0.8817191 0.1565209
vn 0.280979 -0.9372444 -0.2064551
vn -0.2809787 0.9372444 0.2064555
vn 0.1027133 -0.3633273 -0.9259823
vn -0.6875367 -0.3086419 -0.6572924
vn -0.7313852 -0.6755773 0.09311824
vn 0.03176527 -0.9570409 0.2882077
vn 0.5472664 -0.76406 -0.3416311
vn 0.3636287 0.3989018 -0.8418144
vn -0.7435979 0.483981 -0.461329
vn -0.8051604 -0.03119069 0.5922363
vn 0.2641074 -0.4339205 0.8613712
vn 0.9854708 -0.1680554 -0.02459226
vn 0.3933021 0.8811238 -0.2625533
vn -0.3529513 0.9356365 -0.00313057
vn -0.3943367 0.5893114 0.7051317
vn 0.3259226 0.3172707 0.8905693
vn 0.8173854 0.4972476 0.2909055
vn -0.2098298 -0.8734589 -0.4393642
vn 0.2098294 0.8734591 0.439364
vn -0.1147703 -0.9169748 -0.3820798
vn -0.8290266 -0.5248648 -0.1929559
vn -0.7687066 -0.2421728 0.5919818
vn -0.01717065 -0.4595696 0.8879757
vn 0.386984 -0.8766202 0.2859726
vn 0.2378181 -0.3922817 -0.8885705
vn -0.761259 0.1656989 -0.6269199
vn -0.6765708 0.5625943 0.4751208
vn 0.3747245 0.2493362 0.8929799
vn 0.9389518 -0.3403347 0.0504145
vn 0.4286941 0.3357607 -0.8387408
vn -0.2444064 0.7119799 -0.6582934
vn -0.1874745 0.978794 0.0825565
vn 0.5213848 0.7701607 0.3674375
vn 0.9064157 0.370382 -0.2030465
vn -0.3821828 -0.8596694 0.3389759
vn 0.3821829 0.8596694 -0.3389759
g colourPalette_mdl_0
f 17/17/17 2/2/2 1/1/1
f 3/3/3 2/2/2 17/17/17
f 4/4/4 3/3/3 17/17/17
f 23/23/23 3/3/3 4/4/4
f 22/22/22 23/23/23 4/4/4
f 30/30/30 23/23/23 22/22/22
f 29/29/29 30/30/30 22/22/22
f 41/41/41 30/30/30 29/29/29
f 40/40/40 41/41/41 29/29/29
f 15/15/15 41/41/41 40/40/40
f 16/16/16 15/15/15 40/40/40
f 18/18/18 15/15/15 16/16/16
f 9/9/9 18/18/18 16/16/16
f 10/10/10 18/18/18 9/9/9
f 38/38/38 10/10/10 9/9/9
f 37/37/37 10/10/10 38/38/38
f 34/34/34 37/37/37 38/38/38
f 33/33/33 37/37/37 34/34/34
f 26/26/26 33/33/33 34/34/34
f 25/25/25 33/33/33 26/26/26
f 1/1/1 25/25/25 26/26/26
f 2/2/2 25/25/25 1/1/1
f 24/24/24 2/2/2 3/3/3
f 25/25/25 2/2/2 24/24/24
f 32/32/32 25/25/25 24/24/24
f 33/33/33 25/25/25 32/32/32
f 36/36/36 33/33/33 32/32/32
f 37/37/37 33/33/33 36/36/36
f 11/11/11 37/37/37 36/36/36
f 10/10/10 37/37/37 11/11/11
f 18/18/18 10/10/10 11/11/11
f 14/14/14 15/15/15 18/18/18
f 41/41/41 15/15/15 14/14/14
f 42/42/42 41/41/41 14/14/14
f 30/30/30 41/41/41 42/42/42
f 31/31/31 30/30/30 42/42/42
f 23/23/23 30/30/30 31/31/31
f 24/24/24 23/23/23 31/31/31
f 3/3/3 23/23/23 24/24/24
f 5/5/5 22/22/22 4/4/4
f 21/21/21 22/22/22 5/5/5
f 6/6/6 21/21/21 5/5/5
f 20/20/20 21/21/21 6/6/6
f 7/7/7 20/20/20 6/6/6
f 19/19/19 20/20/20 7/7/7
f 8/8/8 19/19/19 7/7/7
f 26/26/26 19/19/19 8/8/8
f 1/1/1 26/26/26 8/8/8
f 17/17/17 5/5/5 4/4/4
f 6/6/6 5/5/5 17/17/17
f 7/7/7 6/6/6 17/17/17
f 17/17/17 8/8/8 7/7/7
f 1/1/1 8/8/8 17/17/17
f 32/32/32 24/24/24 31/31/31
f 35/35/35 32/32/32 31/31/31
f 36/36/36 32/32/32 35/35/35
f 12/12/12 36/36/36 35/35/35
f 11/11/11 36/36/36 12/12/12
f 18/18/18 11/11/11 12/12/12
f 35/35/35 31/31/31 42/42/42
f 13/13/13 35/35/35 42/42/42
f 12/12/12 35/35/35 13/13/13
f 18/18/18 12/12/12 13/13/13
f 13/13/13 14/14/14 18/18/18
f 42/42/42 14/14/14 13/13/13
f 21/21/21 29/29/29 22/22/22
f 28/28/28 29/29/29 21/21/21
f 20/20/20 28/28/28 21/21/21
f 27/27/27 28/28/28 20/20/20
f 19/19/19 27/27/27 20/20/20
f 34/34/34 27/27/27 19/19/19
f 26/26/26 34/34/34 19/19/19
f 28/28/28 40/40/40 29/29/29
f 39/39/39 40/40/40 28/28/28
f 27/27/27 39/39/39 28/28/28
f 38/38/38 39/39/39 27/27/27
f 34/34/34 38/38/38 27/27/27
f 39/39/39 16/16/16 40/40/40
f 9/9/9 16/16/16 39/39/39
f 38/38/38 9/9/9 39/39/39
f 52/52/52 53/53/53 57/57/57
f 48/48/48 53/53/53 52/52/52
f 47/47/47 48/48/48 52/52/52
f 43/43/43 48/48/48 47/47/47
f 58/58/58 43/43/43 47/47/47
f 44/44/44 43/43/43 58/58/58
f 45/45/45 44/44/44 58/58/58
f 50/50/50 44/44/44 45/45/45
f 51/51/51 50/50/50 45/45/45
f 56/56/56 50/50/50 51/51/51
f 57/57/57 56/56/56 51/51/51
f 59/59/59 56/56/56 57/57/57
f 53/53/53 59/59/59 57/57/57
f 54/54/54 59/59/59 53/53/53
f 48/48/48 54/54/54 53/53/53
f 49/49/49 54/54/54 48/48/48
f 43/43/43 49/49/49 48/48/48
f 44/44/44 49/49/49 43/43/43
f 55/55/55 56/56/56 59/59/59
f 50/50/50 56/56/56 55/55/55
f 49/49/49 50/50/50 55/55/55
f 44/44/44 50/50/50 49/49/49
f 46/46/46 45/45/45 58/58/58
f 51/51/51 45/45/45 46/46/46
f 52/52/52 51/51/51 46/46/46
f 57/57/57 51/51/51 52/52/52
f 46/46/46 47/47/47 52/52/52
f 58/58/58 47/47/47 46/46/46
f 54/54/54 55/55/55 59/59/59
f 49/49/49 55/55/55 54/54/54
f 69/69/69 70/70/70 74/74/74
f 65/65/65 70/70/70 69/69/69
f 64/64/64 65/65/65 69/69/69
f 60/60/60 65/65/65 64/64/64
f 75/75/75 60/60/60 64/64/64
f 61/61/61 60/60/60 75/75/75
f 62/62/62 61/61/61 75/75/75
f 67/67/67 61/61/61 62/62/62
f 68/68/68 67/67/67 62/62/62
f 73/73/73 67/67/67 68/68/68
f 74/74/74 73/73/73 68/68/68
f 76/76/76 73/73/73 74/74/74
f 70/70/70 76/76/76 74/74/74
f 71/71/71 76/76/76 70/70/70
f 65/65/65 71/71/71 70/70/70
f 66/66/66 71/71/71 65/65/65
f 60/60/60 66/66/66 65/65/65
f 61/61/61 66/66/66 60/60/60
f 72/72/72 73/73/73 76/76/76
f 67/67/67 73/73/73 72/72/72
f 66/66/66 67/67/67 72/72/72
f 61/61/61 67/67/67 66/66/66
f 63/63/63 62/62/62 75/75/75
f 68/68/68 62/62/62 63/63/63
f 69/69/69 68/68/68 63/63/63
f 74/74/74 68/68/68 69/69/69
f 63/63/63 64/64/64 69/69/69
f 75/75/75 64/64/64 63/63/63
f 71/71/71 72/72/72 76/76/76
f 66/66/66 72/72/72 71/71/71
f 86/86/86 87/87/87 91/91/91
f 82/82/82 87/87/87 86/86/86
f 81/81/81 82/82/82 86/86/86
f 77/77/77 82/82/82 81/81/81
f 92/92/92 77/77/77 81/81/81
f 78/78/78 77/77/77 92/92/92
f 79/79/79 78/78/78 92/92/92
f 84/84/84 78/78/78 79/79/79
f 85/85/85 84/84/84 79/79/79
f 90/90/90 84/84/84 85/85/85
f 91/91/91 90/90/90 85/85/85
f 93/93/93 90/90/90 91/91/91
f 87/87/87 93/93/93 91/91/91
f 88/88/88 93/93/93 87/87/87
f 82/82/82 88/88/88 87/87/87
f 83/83/83 88/88/88 82/82/82
f 77/77/77 83/83/83 82/82/82
f 78/78/78 83/83/83 77/77/77
f 89/89/89 90/90/90 93/93/93
f 84/84/84 90/90/90 89/89/89
f 83/83/83 84/84/84 89/89/89
f 78/78/78 84/84/84 83/83/83
f 80/80/80 79/79/79 92/92/92
f 85/85/85 79/79/79 80/80/80
f 86/86/86 85/85/85 80/80/80
f 91/91/91 85/85/85 86/86/86
f 80/80/80 81/81/81 86/86/86
f 92/92/92 81/81/81 80/80/80
f 88/88/88 89/89/89 93/93/93
f 83/83/83 89/89/89 88/88/88
