g copsHat_geo
v -2.108977E-20 1.293707 0.3052151
v -1.904496E-20 1.263769 0.372115
v -3.136286E-20 1.237932 0.4473099
v -3.377187E-20 1.24793 0.4506161
v -2.050044E-20 1.272422 0.370979
v -2.246818E-19 1.407809 0.09104791
v -1.592158E-19 1.530096 0.2843741
v -5.425786E-19 1.175902 -0.0841805
v -3.645228E-19 1.361211 0.0006039095
v -5.88077E-19 1.321587 -0.1303544
v -8.873862E-20 1.431665 0.2912855
v -5.509629E-19 1.184106 -0.0865551
v -2.314313E-20 1.300878 0.3016675
v -5.779276E-19 1.277813 -0.1194001
v -5.3873E-19 1.231397 -0.09516273
v -5.312323E-19 1.22433 -0.09141324
v -4.004194E-20 1.343206 0.2843885
v -4.388664E-20 1.351009 0.2826271
v -1.268076E-19 1.488787 0.29544
v 0.06084375 1.26076 0.346667
v 0.1134842 1.274305 0.2667203
v 0.0577024 1.236346 0.4301506
v 0.1294467 1.235188 0.2965142
v 0.1095843 1.231932 0.3766218
v 0.1582016 1.243739 0.2080327
v 0.1116484 1.241839 0.3785069
v 0.06256651 1.267352 0.347629
v 0.132065 1.244528 0.2974449
v 0.05876356 1.246309 0.4334736
v 0.1516496 1.467334 0.263634
v 0.2455414 1.378429 0.1622131
v 0.1802581 1.236841 0.1268105
v 0.1603265 1.376005 0.09530943
v 0.09844017 1.184654 -0.06694914
v 0.1575556 1.202512 -0.00482663
v 0.1533773 1.332429 0.01277922
v 0.1870493 1.308208 0.03095156
v 0.1278015 1.306493 -0.1136933
v 0.203071 1.341009 0.1013049
v 0.1463963 1.410287 0.2597841
v 0.1776273 1.224492 0.0754144
v 0.180054 1.244214 0.1245171
v 0.1570242 1.250416 0.2037864
v 0.1580135 1.210241 -0.006310885
v 0.1771823 1.231816 0.07320063
v 0.09779863 1.192832 -0.06933513
v 0.1132195 1.281844 0.2640571
v 0.1068377 1.275825 -0.1035075
v 0.1726675 1.273722 -0.05901796
v 0.08999925 1.230979 -0.08153766
v 0.09078751 1.237923 -0.08543085
v 0.1586245 1.255989 -0.02909691
v 0.1578577 1.24919 -0.0249519
v 0.1793484 1.270468 0.05856756
v 0.1797772 1.277752 0.05565675
v 0.1818377 1.283889 0.11325
v 0.1827108 1.29121 0.1100302
v 0.09868312 1.33152 0.264173
v 0.1006636 1.33909 0.2625086
v 0.1693769 1.309377 0.186814
v 0.1671693 1.302399 0.1900429
v -1.790173E-20 1.280611 0.3006518
v 0.1035994 1.264114 0.2665308
v 0.06186119 1.286537 0.2892668
v 0.06143079 1.293964 0.2863152
v 0.05551496 1.277186 0.2906434
v -0.06084375 1.26076 0.346667
v -0.1134842 1.274305 0.2667203
v -0.0577024 1.236346 0.4301506
v -0.1294467 1.235188 0.2965142
v -0.1095843 1.231932 0.3766218
v -0.1582016 1.243739 0.2080327
v -0.1116484 1.241839 0.3785069
v -0.06256651 1.267352 0.347629
v -0.132065 1.244528 0.2974449
v -0.05876356 1.246309 0.4334736
v -0.1516496 1.467334 0.263634
v -0.2455414 1.378429 0.1622131
v -0.1802581 1.236841 0.1268105
v -0.1603265 1.376005 0.09530943
v -0.09844017 1.184654 -0.06694914
v -0.1575556 1.202512 -0.00482663
v -0.1533773 1.332429 0.01277922
v -0.1870493 1.308208 0.03095156
v -0.1278015 1.306493 -0.1136933
v -0.203071 1.341009 0.1013049
v -0.1463963 1.410287 0.2597841
v -0.1776273 1.224492 0.0754144
v -0.180054 1.244214 0.1245171
v -0.1570242 1.250416 0.2037864
v -0.1580135 1.210241 -0.006310885
v -0.1771823 1.231816 0.07320063
v -0.09779863 1.192832 -0.06933513
v -0.1132195 1.281844 0.2640571
v -0.1068377 1.275825 -0.1035075
v -0.1726675 1.273722 -0.05901796
v -0.08999925 1.230979 -0.08153766
v -0.09078751 1.237923 -0.08543085
v -0.1586245 1.255989 -0.02909691
v -0.1578577 1.24919 -0.0249519
v -0.1793484 1.270468 0.05856756
v -0.1797772 1.277752 0.05565675
v -0.1818377 1.283889 0.11325
v -0.1827108 1.29121 0.1100302
v -0.09868312 1.33152 0.264173
v -0.1006636 1.33909 0.2625086
v -0.1693769 1.309377 0.186814
v -0.1671693 1.302399 0.1900429
v -0.1035994 1.264114 0.2665308
v -0.06186119 1.286537 0.2892668
v -0.06143079 1.293964 0.2863152
v -0.05551496 1.277186 0.2906434
v 0.180054 1.244214 0.1245171
v 0.180054 1.244214 0.1245171
v 0.1771823 1.231816 0.07320063
v 0.1818377 1.283889 0.11325
v 0.1580135 1.210241 -0.006310885
v 0.09779863 1.192832 -0.06933513
v -5.509629E-19 1.184106 -0.0865551
v -5.312323E-19 1.22433 -0.09141324
v 0.09078751 1.237923 -0.08543085
v -5.3873E-19 1.231397 -0.09516273
v 0.08999925 1.230979 -0.08153766
v 0.1586245 1.255989 -0.02909691
v 0.1578577 1.24919 -0.0249519
v 0.1797772 1.277752 0.05565675
v 0.1793484 1.270468 0.05856756
v 0.1827108 1.29121 0.1100302
v 0.1818377 1.283889 0.11325
v 0.1671693 1.302399 0.1900429
v 0.1516496 1.467334 0.263634
v 0.1463963 1.410287 0.2597841
v 0.1693769 1.309377 0.186814
v -1.268076E-19 1.488787 0.29544
v -1.592158E-19 1.530096 0.2843741
v 0.1516496 1.467334 0.263634
v 0.09868312 1.33152 0.264173
v 0.1006636 1.33909 0.2625086
v 0.1006636 1.33909 0.2625086
v -4.388664E-20 1.351009 0.2826271
v 0.1570242 1.250416 0.2037864
v 0.06256651 1.267352 0.347629
v 0.05876356 1.246309 0.4334736
v -3.377187E-20 1.24793 0.4506161
v 0.1582016 1.243739 0.2080327
v 0.1132195 1.281844 0.2640571
v 0.06186119 1.286537 0.2892668
v 0.1134842 1.274305 0.2667203
v 0.1134842 1.274305 0.2667203
v 0.1570242 1.250416 0.2037864
v 0.1582016 1.243739 0.2080327
v 0.1132195 1.281844 0.2640571
v 0.06143079 1.293964 0.2863152
v -4.004194E-20 1.343206 0.2843885
v -2.108977E-20 1.293707 0.3052151
v -2.314313E-20 1.300878 0.3016675
v 0.06186119 1.286537 0.2892668
v 0.1134842 1.274305 0.2667203
v 0.06256651 1.267352 0.347629
v -0.180054 1.244214 0.1245171
v -0.180054 1.244214 0.1245171
v -0.1818377 1.283889 0.11325
v -0.1771823 1.231816 0.07320063
v -0.1580135 1.210241 -0.006310885
v -0.09779863 1.192832 -0.06933513
v -0.09078751 1.237923 -0.08543085
v -0.08999925 1.230979 -0.08153766
v -0.1586245 1.255989 -0.02909691
v -0.1578577 1.24919 -0.0249519
v -0.1797772 1.277752 0.05565675
v -0.1793484 1.270468 0.05856756
v -0.1827108 1.29121 0.1100302
v -0.1818377 1.283889 0.11325
v -0.1671693 1.302399 0.1900429
v -0.1516496 1.467334 0.263634
v -0.1463963 1.410287 0.2597841
v -0.1693769 1.309377 0.186814
v -0.1516496 1.467334 0.263634
v -0.09868312 1.33152 0.264173
v -0.1006636 1.33909 0.2625086
v -0.1006636 1.33909 0.2625086
v -0.1570242 1.250416 0.2037864
v -0.06256651 1.267352 0.347629
v -0.05876356 1.246309 0.4334736
v -0.1582016 1.243739 0.2080327
v -0.1132195 1.281844 0.2640571
v -0.06186119 1.286537 0.2892668
v -0.1134842 1.274305 0.2667203
v -0.1134842 1.274305 0.2667203
v -0.1570242 1.250416 0.2037864
v -0.1132195 1.281844 0.2640571
v -0.1582016 1.243739 0.2080327
v -0.06143079 1.293964 0.2863152
v -0.06186119 1.286537 0.2892668
v -0.06256651 1.267352 0.347629
v -0.1134842 1.274305 0.2667203
vt 0.8294916 0.8220224
vt 0.7923599 0.8190659
vt 0.7923599 0.8190659
vt 0.7923599 0.8190659
vt 0.8294991 0.7900568
vt 0.9691531 0.9811143
vt 0.9691531 0.9811143
vt 0.9960684 0.755924
vt 0.9691531 0.9811143
vt 0.9691531 0.9811143
vt 0.852299 0.9537327
vt 0.9154159 0.7959459
vt 0.7718743 0.8442252
vt 0.9691531 0.9811143
vt 0.9691531 0.9811143
vt 0.9154172 0.792821
vt 0.9954926 0.7585221
vt 0.9954926 0.7585221
vt 0.852299 0.9960288
vt 0.7923599 0.8190659
vt 0.7923598 0.8190659
vt 0.7923599 0.8190659
vt 0.7923598 0.8190659
vt 0.7923599 0.8190659
vt 0.9960684 0.755924
vt 0.7923599 0.8190659
vt 0.8580308 0.799204
vt 0.7923598 0.8190659
vt 0.7923599 0.8190659
vt 0.9691531 0.9811143
vt 0.9691531 0.9811142
vt 0.9960684 0.755924
vt 0.9691531 0.9811142
vt 0.9960684 0.755924
vt 0.9960684 0.755924
vt 0.9691531 0.9811143
vt 0.9691531 0.9811143
vt 0.9691531 0.9811143
vt 0.9691531 0.9811143
vt 0.9691531 0.9811143
vt 0.9960684 0.755924
vt 0.9960684 0.755924
vt 0.9090362 0.8334563
vt 0.9960684 0.755924
vt 0.9960684 0.755924
vt 0.9229634 0.7951182
vt 0.8570261 0.8428948
vt 0.9691531 0.9811143
vt 0.9691531 0.9811143
vt 0.9232624 0.7920839
vt 0.9691531 0.9811143
vt 0.9691531 0.9811143
vt 0.9316663 0.7902794
vt 0.9388615 0.7861919
vt 0.9691531 0.9811143
vt 0.9672155 0.8659847
vt 0.9691531 0.9811143
vt 0.843564 0.8749998
vt 0.9954925 0.7585221
vt 0.9954926 0.7585221
vt 0.9137344 0.869662
vt 0.7923599 0.8190659
vt 0.7923598 0.8190659
vt 0.8587422 0.8267252
vt 0.99353 0.7562723
vt 0.7923598 0.8190659
vt 0.7923599 0.8190659
vt 0.7923598 0.8190659
vt 0.7923599 0.8190659
vt 0.7923598 0.8190659
vt 0.7923599 0.8190659
vt 0.9960684 0.755924
vt 0.7923599 0.8190659
vt 0.8580308 0.799204
vt 0.7923598 0.8190659
vt 0.7923599 0.8190659
vt 0.9691531 0.9811143
vt 0.9691531 0.9811142
vt 0.9960684 0.755924
vt 0.9691531 0.9811142
vt 0.9960684 0.755924
vt 0.9960684 0.755924
vt 0.9691531 0.9811143
vt 0.9691531 0.9811143
vt 0.9691531 0.9811143
vt 0.9691531 0.9811143
vt 0.9691531 0.9811143
vt 0.9960684 0.755924
vt 0.9960684 0.755924
vt 0.9090362 0.8334563
vt 0.9960684 0.755924
vt 0.9960684 0.755924
vt 0.9229634 0.7951182
vt 0.8570261 0.8428948
vt 0.9691531 0.9811143
vt 0.9691531 0.9811143
vt 0.9232624 0.7920839
vt 0.9691531 0.9811143
vt 0.9691531 0.9811143
vt 0.9316663 0.7902794
vt 0.9388615 0.7861919
vt 0.9691531 0.9811143
vt 0.9672155 0.8659847
vt 0.9691531 0.9811143
vt 0.843564 0.8749998
vt 0.9954925 0.7585221
vt 0.9954926 0.7585221
vt 0.9137344 0.869662
vt 0.7923598 0.8190659
vt 0.8587422 0.8267252
vt 0.99353 0.7562723
vt 0.7923598 0.8190659
vt 0.9640273 0.8386251
vt 0.9466016 0.7825624
vt 0.9406911 0.7883477
vt 0.9445765 0.7805901
vt 0.9326079 0.7926192
vt 0.9960684 0.755924
vt 0.9960684 0.755924
vt 0.9954926 0.7585221
vt 0.9954926 0.7585221
vt 0.9954926 0.7585221
vt 0.9954926 0.7585221
vt 0.9954926 0.7585221
vt 0.9954926 0.7585221
vt 0.9954926 0.7585221
vt 0.9954926 0.7585221
vt 0.9954926 0.7585221
vt 0.9954926 0.7585221
vt 0.9954926 0.7585221
vt 0.9661326 0.9806402
vt 0.9617504 0.9391185
vt 0.9691531 0.9811142
vt 0.7730819 0.9083404
vt 0.7730819 0.9235443
vt 0.8294168 0.9027218
vt 0.9954926 0.7585221
vt 0.9691531 0.9811142
vt 0.9290627 0.8872305
vt 0.852299 0.8963884
vt 0.9960684 0.755924
vt 0.7923599 0.8190659
vt 0.8550228 0.7621352
vt 0.8295075 0.75572
vt 0.7923598 0.8190659
vt 0.99353 0.7562722
vt 0.99353 0.7562722
vt 0.99353 0.7562722
vt 0.9955011 0.7578809
vt 0.995501 0.7578809
vt 0.9955011 0.7578809
vt 0.995501 0.7578809
vt 0.8176565 0.8444399
vt 0.7713928 0.8761628
vt 0.99353 0.7562722
vt 0.99353 0.7562722
vt 0.8590653 0.8200984
vt 0.8687429 0.8228145
vt 0.8587885 0.809389
vt 0.9640273 0.8386251
vt 0.9466016 0.7825624
vt 0.9445765 0.7805901
vt 0.9406911 0.7883477
vt 0.9326079 0.7926192
vt 0.9960684 0.755924
vt 0.9954926 0.7585221
vt 0.9954926 0.7585221
vt 0.9954926 0.7585221
vt 0.9954926 0.7585221
vt 0.9954926 0.7585221
vt 0.9954926 0.7585221
vt 0.9954926 0.7585221
vt 0.9954926 0.7585221
vt 0.9954926 0.7585221
vt 0.9661326 0.9806402
vt 0.9617504 0.9391185
vt 0.9691531 0.9811142
vt 0.8294168 0.9027218
vt 0.9954926 0.7585221
vt 0.9691531 0.9811142
vt 0.9290627 0.8872305
vt 0.9960684 0.755924
vt 0.7923599 0.8190659
vt 0.8550228 0.7621352
vt 0.7923598 0.8190659
vt 0.99353 0.7562722
vt 0.99353 0.7562722
vt 0.99353 0.7562722
vt 0.9955011 0.7578809
vt 0.995501 0.7578809
vt 0.995501 0.7578809
vt 0.9955011 0.7578809
vt 0.8176565 0.8444399
vt 0.8590653 0.8200984
vt 0.8587885 0.809389
vt 0.8687429 0.8228145
vn 0 0.7484936 0.6631421
vn 0 -0.9611337 -0.2760831
vn 2.23586E-07 -0.8997214 0.4364646
vn 2.448244E-07 0.4756396 0.8796403
vn 0 0.9574313 0.2886611
vn 0 0.8737168 -0.4864349
vn 0 0.9250654 0.3798077
vn 0 -0.2720884 -0.9622722
vn 0 0.9298445 -0.3679526
vn 0 0.4741077 -0.8804669
vn 0 -0.08834094 0.9960902
vn 0 -0.2349572 -0.9720058
vn 0 0.3803556 0.9248403
vn 0 -0.3861315 -0.9224437
vn 0 -0.4760168 -0.8794361
vn 0 -0.3454379 -0.9384416
vn 0 0.2692346 0.9630746
vn 0 0.04646652 0.9989198
vn 0 0.09044808 0.9959012
vn -0.3341411 -0.9085384 -0.2508139
vn 0.6061405 0.6083629 0.5123363
vn 0.1623251 -0.9108956 0.3793674
vn 0.3664193 -0.9300576 0.02701323
vn 0.3266788 -0.9252994 0.1926186
vn 0.9393933 0.05341985 0.3386537
vn 0.7913094 0.4339528 0.4307138
vn 0.3417934 0.9028515 0.260838
vn 0.8960046 0.3352835 0.2911372
vn 0.4976348 0.4490889 0.7420774
vn 0.5613157 0.590188 0.5801749
vn 0.9869651 0.08620938 0.1358965
vn 0.9882053 0.1192362 0.09608874
vn 0.3903785 0.764733 -0.5126287
vn 0.4876238 -0.220676 -0.8447042
vn 0.8833079 -0.1073462 -0.4563377
vn 0.453442 0.8069261 -0.3784977
vn 0.9608313 0.146108 -0.2354903
vn 0.5339181 0.2605157 -0.8044023
vn 0.9385079 0.07130232 -0.3378148
vn 0.433221 -0.1729523 0.8845378
vn 0.9897028 -0.01508435 -0.1423404
vn 0.9944738 0.02872859 0.1009784
vn 0.9052224 0.146559 0.3988646
vn 0.8762215 -0.1365497 -0.4621582
vn 0.9897025 -0.0522356 -0.1332688
vn 0.4680276 -0.2149073 -0.8571843
vn 0.6447881 0.2281198 0.7295271
vn 0.3045423 -0.5256912 -0.7942938
vn 0.8020486 -0.3390999 -0.4916596
vn 0.429254 -0.3486653 -0.8331708
vn 0.3585843 -0.546884 -0.7565284
vn 0.7979278 -0.4744298 -0.3717895
vn 0.8573909 -0.2462223 -0.4519463
vn 0.9863234 -0.1150446 -0.1180294
vn 0.9610477 -0.2669565 -0.07156435
vn 0.9915529 -0.08513968 0.09784666
vn 0.9519659 -0.2997751 0.06241743
vn 0.5032192 0.1615107 0.8489316
vn 0.4634662 -0.0731651 0.8830889
vn 0.8398991 -0.2978817 0.4536916
vn 0.8950657 -0.01241555 0.4457612
vn 0 -0.9689004 -0.2474509
vn -0.4569258 -0.8504589 -0.2606501
vn 0.3373258 0.6997457 0.6297359
vn 0.3446085 0.2999292 0.8895434
vn -0.2463709 -0.9390591 -0.2397275
vn 0.3341411 -0.9085383 -0.2508143
vn -0.6061403 0.6083629 0.5123364
vn -0.1623252 -0.9108959 0.379367
vn -0.3664188 -0.9300578 0.02701436
vn -0.3266791 -0.9252994 0.1926181
vn -0.9393924 0.05341935 0.3386564
vn -0.7913097 0.4339525 0.4307137
vn -0.3417933 0.9028515 0.2608381
vn -0.8960042 0.3352831 0.2911385
vn -0.4976351 0.449089 0.7420771
vn -0.5613158 0.590188 0.5801747
vn -0.9869651 0.08620945 0.1358967
vn -0.9882052 0.1192364 0.09608956
vn -0.3903785 0.7647329 -0.5126288
vn -0.4876238 -0.2206763 -0.8447042
vn -0.8833077 -0.1073469 -0.4563377
vn -0.4534421 0.8069261 -0.3784977
vn -0.9608313 0.146108 -0.2354901
vn -0.5339183 0.2605156 -0.8044022
vn -0.938508 0.07130235 -0.3378145
vn -0.4332211 -0.1729523 0.8845377
vn -0.9897028 -0.01508442 -0.1423409
vn -0.9944738 0.02872869 0.1009787
vn -0.9052219 0.1465588 0.3988658
vn -0.8762215 -0.13655 -0.4621581
vn -0.9897025 -0.05223569 -0.1332689
vn -0.4680277 -0.2149074 -0.8571843
vn -0.644788 0.22812 0.729527
vn -0.3045423 -0.5256912 -0.7942938
vn -0.8020487 -0.3391 -0.4916596
vn -0.4292536 -0.3486647 -0.8331712
vn -0.3585838 -0.5468834 -0.7565291
vn -0.7979276 -0.4744297 -0.3717903
vn -0.8573906 -0.246222 -0.4519468
vn -0.9863234 -0.1150449 -0.1180289
vn -0.9610477 -0.2669567 -0.07156393
vn -0.9915529 -0.0851396 0.09784687
vn -0.9519659 -0.299775 0.06241801
vn -0.5032195 0.1615108 0.8489313
vn -0.4634663 -0.07316504 0.8830888
vn -0.8398992 -0.2978814 0.4536917
vn -0.895066 -0.0124153 0.4457608
vn 0.4569258 -0.8504587 -0.2606505
vn -0.3373262 0.6997459 0.6297354
vn -0.3446091 0.2999297 0.8895429
vn 0.2463709 -0.9390591 -0.2397282
vn 0.9944738 0.02872859 0.1009784
vn 0.9944738 0.02872859 0.1009784
vn 0.9897025 -0.0522356 -0.1332688
vn 0.9915529 -0.08513968 0.09784666
vn 0.8762215 -0.1365497 -0.4621582
vn 0.4680276 -0.2149073 -0.8571843
vn 0 -0.2349572 -0.9720058
vn 0 -0.3454379 -0.9384416
vn 0.3585843 -0.546884 -0.7565284
vn 0 -0.4760168 -0.8794361
vn 0.429254 -0.3486653 -0.8331708
vn 0.7979278 -0.4744298 -0.3717895
vn 0.8573909 -0.2462223 -0.4519463
vn 0.9610477 -0.2669565 -0.07156435
vn 0.9863234 -0.1150446 -0.1180294
vn 0.9519659 -0.2997751 0.06241743
vn 0.9915529 -0.08513968 0.09784666
vn 0.8950657 -0.01241555 0.4457612
vn 0.5613157 0.590188 0.5801749
vn 0.433221 -0.1729523 0.8845378
vn 0.8398991 -0.2978817 0.4536916
vn 0 0.09044808 0.9959012
vn 0 0.9250654 0.3798077
vn 0.5613157 0.590188 0.5801749
vn 0.5032192 0.1615107 0.8489316
vn 0.4634662 -0.0731651 0.8830889
vn 0.4634662 -0.0731651 0.8830889
vn 0 0.04646652 0.9989198
vn 0.9052224 0.146559 0.3988646
vn 0.3417934 0.9028515 0.260838
vn 0.4976348 0.4490889 0.7420774
vn 2.448244E-07 0.4756396 0.8796403
vn 0.9393933 0.05341985 0.3386537
vn 0.6447881 0.2281198 0.7295271
vn 0.3373258 0.6997457 0.6297359
vn 0.6061405 0.6083629 0.5123363
vn 0.6061405 0.6083629 0.5123363
vn 0.9052224 0.146559 0.3988646
vn 0.9393933 0.05341985 0.3386537
vn 0.6447881 0.2281198 0.7295271
vn 0.3446085 0.2999292 0.8895434
vn 0 0.2692346 0.9630746
vn 0 0.7484936 0.6631421
vn 0 0.3803556 0.9248403
vn 0.3373258 0.6997457 0.6297359
vn 0.6061405 0.6083629 0.5123363
vn 0.3417934 0.9028515 0.260838
vn -0.9944738 0.02872869 0.1009787
vn -0.9944738 0.02872869 0.1009787
vn -0.9915529 -0.0851396 0.09784687
vn -0.9897025 -0.05223569 -0.1332689
vn -0.8762215 -0.13655 -0.4621581
vn -0.4680277 -0.2149074 -0.8571843
vn -0.3585838 -0.5468834 -0.7565291
vn -0.4292536 -0.3486647 -0.8331712
vn -0.7979276 -0.4744297 -0.3717903
vn -0.8573906 -0.246222 -0.4519468
vn -0.9610477 -0.2669567 -0.07156393
vn -0.9863234 -0.1150449 -0.1180289
vn -0.9519659 -0.299775 0.06241801
vn -0.9915529 -0.0851396 0.09784687
vn -0.895066 -0.0124153 0.4457608
vn -0.5613158 0.590188 0.5801747
vn -0.4332211 -0.1729523 0.8845377
vn -0.8398992 -0.2978814 0.4536917
vn -0.5613158 0.590188 0.5801747
vn -0.5032195 0.1615108 0.8489313
vn -0.4634663 -0.07316504 0.8830888
vn -0.4634663 -0.07316504 0.8830888
vn -0.9052219 0.1465588 0.3988658
vn -0.3417933 0.9028515 0.2608381
vn -0.4976351 0.449089 0.7420771
vn -0.9393924 0.05341935 0.3386564
vn -0.644788 0.22812 0.729527
vn -0.3373262 0.6997459 0.6297354
vn -0.6061403 0.6083629 0.5123364
vn -0.6061403 0.6083629 0.5123364
vn -0.9052219 0.1465588 0.3988658
vn -0.644788 0.22812 0.729527
vn -0.9393924 0.05341935 0.3386564
vn -0.3446091 0.2999297 0.8895429
vn -0.3373262 0.6997459 0.6297354
vn -0.3417933 0.9028515 0.2608381
vn -0.6061403 0.6083629 0.5123364
g copsHat_geo_0
f 158/158/158 157/157/157 159/159/159
f 195/195/195 194/194/194 196/196/196
f 154/154/154 193/193/193 13/13/13
f 153/153/153 154/154/154 13/13/13
f 58/58/58 154/154/154 153/153/153
f 47/47/47 58/58/58 153/153/153
f 61/61/61 58/58/58 47/47/47
f 43/43/43 61/61/61 47/47/47
f 56/56/56 61/61/61 43/43/43
f 113/113/113 56/56/56 43/43/43
f 16/16/16 12/12/12 93/93/93
f 46/46/46 12/12/12 16/16/16
f 50/50/50 46/46/46 16/16/16
f 117/117/117 46/46/46 50/50/50
f 53/53/53 117/117/117 50/50/50
f 115/115/115 117/117/117 53/53/53
f 54/54/54 115/115/115 53/53/53
f 114/114/114 115/115/115 54/54/54
f 116/116/116 114/114/114 54/54/54
f 135/135/135 134/134/134 136/136/136
f 178/178/178 134/134/134 135/135/135
f 133/133/133 40/40/40 138/138/138
f 31/31/31 40/40/40 133/133/133
f 57/57/57 31/31/31 133/133/133
f 39/39/39 31/31/31 57/57/57
f 37/37/37 39/39/39 57/57/57
f 33/33/33 39/39/39 37/37/37
f 36/36/36 33/33/33 37/37/37
f 9/9/9 33/33/33 36/36/36
f 10/10/10 9/9/9 36/36/36
f 83/83/83 9/9/9 10/10/10
f 85/85/85 83/83/83 10/10/10
f 84/84/84 83/83/83 85/85/85
f 96/96/96 84/84/84 85/85/85
f 102/102/102 84/84/84 96/96/96
f 99/99/99 102/102/102 96/96/96
f 32/32/32 141/141/141 25/25/25
f 42/42/42 141/141/141 32/32/32
f 45/45/45 42/42/42 32/32/32
f 5/5/5 144/144/144 143/143/143
f 27/27/27 5/5/5 143/143/143
f 1/1/1 5/5/5 27/27/27
f 64/64/64 1/1/1 27/27/27
f 155/155/155 156/156/156 111/111/111
f 65/65/65 156/156/156 155/155/155
f 147/147/147 65/65/65 155/155/155
f 146/146/146 65/65/65 147/147/147
f 148/148/148 146/146/146 147/147/147
f 150/150/150 149/149/149 151/151/151
f 152/152/152 149/149/149 150/150/150
f 105/105/105 193/193/193 154/154/154
f 94/94/94 193/193/193 105/105/105
f 108/108/108 94/94/94 105/105/105
f 90/90/90 94/94/94 108/108/108
f 103/103/103 90/90/90 108/108/108
f 160/160/160 90/90/90 103/103/103
f 101/101/101 161/161/161 162/162/162
f 163/163/163 161/161/161 101/101/101
f 100/100/100 163/163/163 101/101/101
f 164/164/164 163/163/163 100/100/100
f 97/97/97 164/164/164 100/100/100
f 93/93/93 164/164/164 97/97/97
f 16/16/16 93/93/93 97/97/97
f 80/80/80 9/9/9 83/83/83
f 84/84/84 80/80/80 83/83/83
f 86/86/86 80/80/80 84/84/84
f 104/104/104 86/86/86 84/84/84
f 78/78/78 86/86/86 104/104/104
f 177/177/177 78/78/78 104/104/104
f 87/87/87 78/78/78 177/177/177
f 180/180/180 87/87/87 177/177/177
f 79/79/79 89/89/89 92/92/92
f 182/182/182 89/89/89 79/79/79
f 72/72/72 182/182/182 79/79/79
f 5/5/5 184/184/184 144/144/144
f 74/74/74 184/184/184 5/5/5
f 1/1/1 74/74/74 5/5/5
f 110/110/110 74/74/74 1/1/1
f 187/187/187 186/186/186 188/188/188
f 111/111/111 186/186/186 187/187/187
f 155/155/155 111/111/111 187/187/187
f 190/190/190 189/189/189 191/191/191
f 192/192/192 189/189/189 190/190/190
f 28/28/28 145/145/145 21/21/21
f 142/142/142 28/28/28 21/21/21
f 26/26/26 28/28/28 142/142/142
f 29/29/29 26/26/26 142/142/142
f 22/22/22 26/26/26 29/29/29
f 4/4/4 22/22/22 29/29/29
f 3/3/3 22/22/22 4/4/4
f 69/69/69 3/3/3 4/4/4
f 2/2/2 3/3/3 69/69/69
f 67/67/67 2/2/2 69/69/69
f 62/62/62 2/2/2 67/67/67
f 112/112/112 62/62/62 67/67/67
f 8/8/8 165/165/165 119/119/119
f 118/118/118 8/8/8 119/119/119
f 34/34/34 8/8/8 118/118/118
f 44/44/44 34/34/34 118/118/118
f 35/35/35 34/34/34 44/44/44
f 45/45/45 35/35/35 44/44/44
f 41/41/41 35/35/35 45/45/45
f 32/32/32 41/41/41 45/45/45
f 48/48/48 52/52/52 51/51/51
f 15/15/15 48/48/48 51/51/51
f 14/14/14 48/48/48 15/15/15
f 95/95/95 14/14/14 15/15/15
f 85/85/85 14/14/14 95/95/95
f 96/96/96 85/85/85 95/95/95
f 38/38/38 48/48/48 14/14/14
f 49/49/49 48/48/48 38/38/38
f 37/37/37 49/49/49 38/38/38
f 55/55/55 49/49/49 37/37/37
f 57/57/57 55/55/55 37/37/37
f 49/49/49 52/52/52 48/48/48
f 55/55/55 52/52/52 49/49/49
f 120/120/120 166/166/166 122/122/122
f 121/121/121 120/120/120 122/122/122
f 123/123/123 120/120/120 121/121/121
f 124/124/124 123/123/123 121/121/121
f 125/125/125 123/123/123 124/124/124
f 126/126/126 125/125/125 124/124/124
f 127/127/127 125/125/125 126/126/126
f 128/128/128 127/127/127 126/126/126
f 129/129/129 127/127/127 128/128/128
f 60/60/60 129/129/129 128/128/128
f 130/130/130 129/129/129 60/60/60
f 59/59/59 130/130/130 60/60/60
f 137/137/137 130/130/130 59/59/59
f 18/18/18 137/137/137 59/59/59
f 17/17/17 137/137/137 18/18/18
f 179/179/179 17/17/17 18/18/18
f 6/6/6 7/7/7 30/30/30
f 77/77/77 7/7/7 6/6/6
f 80/80/80 77/77/77 6/6/6
f 78/78/78 77/77/77 80/80/80
f 86/86/86 78/78/78 80/80/80
f 6/6/6 9/9/9 80/80/80
f 33/33/33 9/9/9 6/6/6
f 30/30/30 33/33/33 6/6/6
f 31/31/31 33/33/33 30/30/30
f 40/40/40 31/31/31 30/30/30
f 11/11/11 19/19/19 175/175/175
f 131/131/131 19/19/19 11/11/11
f 132/132/132 131/131/131 11/11/11
f 11/11/11 139/139/139 132/132/132
f 140/140/140 139/139/139 11/11/11
f 181/181/181 140/140/140 11/11/11
f 23/23/23 145/145/145 28/28/28
f 63/63/63 145/145/145 23/23/23
f 20/20/20 63/63/63 23/23/23
f 66/66/66 63/63/63 20/20/20
f 62/62/62 66/66/66 20/20/20
f 70/70/70 185/185/185 109/109/109
f 75/75/75 185/185/185 70/70/70
f 71/71/71 75/75/75 70/70/70
f 73/73/73 75/75/75 71/71/71
f 69/69/69 73/73/73 71/71/71
f 76/76/76 73/73/73 69/69/69
f 4/4/4 76/76/76 69/69/69
f 81/81/81 165/165/165 8/8/8
f 91/91/91 165/165/165 81/81/81
f 82/82/82 91/91/91 81/81/81
f 92/92/92 91/91/91 82/82/82
f 88/88/88 92/92/92 82/82/82
f 79/79/79 92/92/92 88/88/88
f 95/95/95 99/99/99 96/96/96
f 98/98/98 99/99/99 95/95/95
f 15/15/15 98/98/98 95/95/95
f 104/104/104 84/84/84 102/102/102
f 106/106/106 179/179/179 18/18/18
f 174/174/174 179/179/179 106/106/106
f 107/107/107 174/174/174 106/106/106
f 173/173/173 174/174/174 107/107/107
f 172/172/172 173/173/173 107/107/107
f 171/171/171 173/173/173 172/172/172
f 170/170/170 171/171/171 172/172/172
f 169/169/169 171/171/171 170/170/170
f 168/168/168 169/169/169 170/170/170
f 167/167/167 169/169/169 168/168/168
f 166/166/166 167/167/167 168/168/168
f 120/120/120 167/167/167 166/166/166
f 87/87/87 77/77/77 78/78/78
f 176/176/176 11/11/11 175/175/175
f 181/181/181 11/11/11 176/176/176
f 67/67/67 109/109/109 112/112/112
f 70/70/70 109/109/109 67/67/67
f 71/71/71 70/70/70 67/67/67
f 75/75/75 68/68/68 185/185/185
f 183/183/183 68/68/68 75/75/75
f 73/73/73 183/183/183 75/75/75
f 76/76/76 183/183/183 73/73/73
f 38/38/38 36/36/36 37/37/37
f 10/10/10 36/36/36 38/38/38
f 14/14/14 10/10/10 38/38/38
f 85/85/85 10/10/10 14/14/14
f 31/31/31 39/39/39 33/33/33
f 20/20/20 2/2/2 62/62/62
f 22/22/22 2/2/2 20/20/20
f 24/24/24 22/22/22 20/20/20
f 26/26/26 22/22/22 24/24/24
f 28/28/28 26/26/26 24/24/24
f 23/23/23 24/24/24 20/20/20
f 28/28/28 24/24/24 23/23/23
f 2/2/2 22/22/22 3/3/3
f 71/71/71 67/67/67 69/69/69
