g crucifix_geo
v -0.03405119 -0.09016967 0.006026749
v 0.05842465 -0.08918542 0.006026749
v -0.0383549 0.3141631 0.006026749
v 0.05412083 0.3151474 0.006026749
v -0.0383549 0.3141631 -0.03680803
v 0.05412083 0.3151474 -0.03680803
v -0.03405119 -0.09016967 -0.03680803
v 0.05842465 -0.08918542 -0.03680803
v -0.07821703 0.3711082 0.006026749
v 0.09276194 0.3729281 0.006026749
v 0.09276194 0.3729281 -0.03680803
v -0.07821703 0.3711082 -0.03680803
v -0.03044741 0.4078748 0.006026749
v 0.04422045 0.4086696 0.006026749
v 0.04422045 0.4086696 -0.03680803
v -0.03044741 0.4078748 -0.03680803
v 0.005833033 0.5072441 -0.01539064
v -0.1107943 0.1516044 0.006026749
v 0.1300039 0.1541674 0.006026749
v -0.1115766 0.2251054 0.006026749
v 0.1292216 0.2276685 0.006026749
v -0.1115766 0.2251054 -0.03680803
v 0.1292216 0.2276685 -0.03680803
v -0.1107943 0.1516044 -0.03680803
v 0.1300039 0.1541674 -0.03680803
v 0.05842464 -0.08918541 0.006026749
v -0.03405118 -0.0901697 0.006026749
v 0.05842464 -0.08918541 -0.03680803
v -0.03405118 -0.0901697 -0.03680803
v 0.09828683 -0.1461306 0.006026749
v -0.07269225 -0.1479504 0.006026749
v -0.07269225 -0.1479504 -0.03680803
v 0.09828683 -0.1461306 -0.03680803
v 0.05051707 -0.182897 0.006026749
v -0.02415081 -0.1836919 0.006026749
v -0.02415081 -0.1836919 -0.03680803
v 0.05051707 -0.182897 -0.03680803
v 0.01423664 -0.2822661 -0.01539064
v 0.1292217 0.2276686 0.006026749
v 0.130004 0.1541674 0.006026749
v 0.1292217 0.2276686 -0.03680803
v 0.130004 0.1541674 -0.03680803
v 0.1862526 0.2594767 0.006026749
v 0.1876991 0.1235803 0.006026749
v 0.1876991 0.1235803 -0.03680803
v 0.1862526 0.2594767 -0.03680803
v 0.2229139 0.2215879 0.006026749
v 0.2235456 0.1622409 0.006026749
v 0.2235456 0.1622409 -0.03680803
v 0.2229139 0.2215879 -0.03680803
v 0.3222015 0.1929678 -0.01539064
v -0.1107943 0.1516044 0.006026749
v -0.1115766 0.2251055 0.006026749
v -0.1107943 0.1516044 -0.03680803
v -0.1115766 0.2251055 -0.03680803
v -0.1678252 0.119796 0.006026749
v -0.1692716 0.2556926 0.006026749
v -0.1692716 0.2556926 -0.03680803
v -0.1678252 0.119796 -0.03680803
v -0.2044865 0.157685 0.006026749
v -0.2051183 0.217032 0.006026749
v -0.2051183 0.217032 -0.03680803
v -0.2044865 0.157685 -0.03680803
v -0.3037742 0.1863049 -0.01539064
v 0.05842465 -0.08918542 -0.03680803
v 0.05842465 -0.08918542 0.006026749
v 0.05412083 0.3151474 -0.03680803
v 0.05412083 0.3151474 0.006026749
v -0.0383549 0.3141631 0.006026749
v -0.03405119 -0.09016967 0.006026749
v -0.03405119 -0.09016967 -0.03680803
v -0.0383549 0.3141631 -0.03680803
v 0.09276194 0.3729281 0.006026749
v 0.05412083 0.3151474 0.006026749
v 0.05412083 0.3151474 -0.03680803
v 0.09276194 0.3729281 -0.03680803
v -0.07821703 0.3711082 0.006026749
v -0.0383549 0.3141631 0.006026749
v -0.0383549 0.3141631 -0.03680803
v -0.07821703 0.3711082 -0.03680803
v 0.04422045 0.4086696 0.006026749
v 0.04422045 0.4086696 -0.03680803
v -0.03044741 0.4078748 0.006026749
v -0.03044741 0.4078748 -0.03680803
v -0.03044741 0.4078748 0.006026749
v 0.04422045 0.4086696 0.006026749
v 0.04422045 0.4086696 0.006026749
v 0.005833033 0.5072441 -0.01539064
v 0.04422045 0.4086696 -0.03680803
v 0.04422045 0.4086696 -0.03680803
v -0.03044741 0.4078748 -0.03680803
v -0.03044741 0.4078748 -0.03680803
v -0.03044741 0.4078748 0.006026749
v -0.1115766 0.2251054 0.006026749
v 0.1292216 0.2276685 0.006026749
v -0.1115766 0.2251054 -0.03680803
v 0.1292216 0.2276685 -0.03680803
v 0.1300039 0.1541674 0.006026749
v -0.1107943 0.1516044 -0.03680803
v -0.1107943 0.1516044 0.006026749
v 0.1300039 0.1541674 -0.03680803
v -0.07269225 -0.1479504 0.006026749
v -0.03405118 -0.0901697 0.006026749
v -0.03405118 -0.0901697 -0.03680803
v -0.07269225 -0.1479504 -0.03680803
v 0.09828683 -0.1461306 0.006026749
v 0.05842464 -0.08918541 0.006026749
v 0.05842464 -0.08918541 -0.03680803
v 0.09828683 -0.1461306 -0.03680803
v -0.02415081 -0.1836919 0.006026749
v -0.02415081 -0.1836919 -0.03680803
v 0.05051707 -0.182897 0.006026749
v 0.05051707 -0.182897 -0.03680803
v 0.05051707 -0.182897 0.006026749
v -0.02415081 -0.1836919 0.006026749
v -0.02415081 -0.1836919 0.006026749
v 0.01423664 -0.2822661 -0.01539064
v -0.02415081 -0.1836919 -0.03680803
v -0.02415081 -0.1836919 -0.03680803
v 0.05051707 -0.182897 -0.03680803
v 0.05051707 -0.182897 -0.03680803
v 0.05051707 -0.182897 0.006026749
v 0.1876991 0.1235803 0.006026749
v 0.130004 0.1541674 0.006026749
v 0.130004 0.1541674 -0.03680803
v 0.1876991 0.1235803 -0.03680803
v 0.1862526 0.2594767 0.006026749
v 0.1292217 0.2276686 0.006026749
v 0.1292217 0.2276686 -0.03680803
v 0.1862526 0.2594767 -0.03680803
v 0.2235456 0.1622409 0.006026749
v 0.2235456 0.1622409 -0.03680803
v 0.2229139 0.2215879 0.006026749
v 0.2229139 0.2215879 -0.03680803
v 0.2229139 0.2215879 0.006026749
v 0.2235456 0.1622409 0.006026749
v 0.2235456 0.1622409 0.006026749
v 0.3222015 0.1929678 -0.01539064
v 0.2235456 0.1622409 -0.03680803
v 0.2235456 0.1622409 -0.03680803
v 0.2229139 0.2215879 -0.03680803
v 0.2229139 0.2215879 -0.03680803
v 0.2229139 0.2215879 0.006026749
v -0.1692716 0.2556926 0.006026749
v -0.1115766 0.2251055 0.006026749
v -0.1115766 0.2251055 -0.03680803
v -0.1692716 0.2556926 -0.03680803
v -0.1678252 0.119796 0.006026749
v -0.1107943 0.1516044 0.006026749
v -0.1107943 0.1516044 -0.03680803
v -0.1678252 0.119796 -0.03680803
v -0.2051183 0.217032 0.006026749
v -0.2051183 0.217032 -0.03680803
v -0.2044865 0.157685 0.006026749
v -0.2044865 0.157685 -0.03680803
v -0.2044865 0.157685 0.006026749
v -0.2051183 0.217032 0.006026749
v -0.2051183 0.217032 0.006026749
v -0.3037742 0.1863049 -0.01539064
v -0.2051183 0.217032 -0.03680803
v -0.2051183 0.217032 -0.03680803
v -0.2044865 0.157685 -0.03680803
v -0.2044865 0.157685 -0.03680803
v -0.2044865 0.157685 0.006026749
vt 0.1485975 0.4990876
vt 0.1485975 0.4990876
vt 0.1485975 0.4990878
vt 0.1485975 0.4990878
vt 0.1485975 0.4990876
vt 0.1485975 0.4990876
vt 0.1485975 0.4990878
vt 0.1485975 0.4990878
vt 0.1485975 0.4990879
vt 0.1485975 0.4990879
vt 0.158415 0.4510519
vt 0.1485975 0.4990876
vt 0.1485975 0.4990879
vt 0.1485975 0.4990879
vt 0.158415 0.4510519
vt 0.1485975 0.4990876
vt 0.07925066 0.5078508
vt 0.1485975 0.4990877
vt 0.1485975 0.4990876
vt 0.1485975 0.4990877
vt 0.1485975 0.4990876
vt 0.161589 0.457103
vt 0.161589 0.457103
vt 0.1485973 0.4990877
vt 0.1485973 0.4990876
vt 0.1485975 0.4990876
vt 0.1485975 0.4990876
vt 0.1485975 0.4990876
vt 0.1584151 0.4510519
vt 0.1485975 0.4990876
vt 0.1485975 0.4990876
vt 0.1584151 0.4510519
vt 0.1485975 0.4990876
vt 0.1485975 0.4990876
vt 0.1485975 0.4990876
vt 0.1584151 0.4510519
vt 0.1485975 0.4990876
vt 0.07925119 0.5078508
vt 0.1485975 0.4990878
vt 0.1485975 0.4990878
vt 0.1485972 0.4990879
vt 0.158415 0.4510519
vt 0.1485975 0.4990878
vt 0.1485975 0.4990878
vt 0.158415 0.4510519
vt 0.1485972 0.4990878
vt 0.1485975 0.4990879
vt 0.1485975 0.4990879
vt 0.158415 0.4510519
vt 0.1485972 0.4990877
vt 0.07925119 0.5078511
vt 0.1485975 0.4990877
vt 0.1485972 0.4990877
vt 0.1485975 0.4990878
vt 0.158415 0.4510519
vt 0.1485975 0.4990877
vt 0.1485972 0.4990877
vt 0.158415 0.4510518
vt 0.1485975 0.4990877
vt 0.1485975 0.4990877
vt 0.1485972 0.4990877
vt 0.158415 0.4510519
vt 0.1485975 0.4990877
vt 0.07925004 0.5078507
vt 0.1615889 0.457103
vt 0.161589 0.457103
vt 0.1615889 0.457103
vt 0.161589 0.457103
vt 0.1615889 0.457103
vt 0.1615889 0.457103
vt 0.1615889 0.457103
vt 0.1615889 0.457103
vt 0.158415 0.4510519
vt 0.158415 0.4510518
vt 0.158415 0.4510518
vt 0.1485975 0.4990876
vt 0.1584151 0.4510519
vt 0.1584151 0.4510518
vt 0.158415 0.4510518
vt 0.158415 0.4510519
vt 0.158415 0.4510519
vt 0.1485975 0.4990876
vt 0.1584151 0.4510519
vt 0.158415 0.4510519
vt 0.07925072 0.5078508
vt 0.07924932 0.5078508
vt 0.08616805 0.479533
vt 0.08616805 0.4795333
vt 0.08616805 0.479533
vt 0.07925078 0.5078508
vt 0.07925081 0.5078508
vt 0.08616808 0.479533
vt 0.08616805 0.479533
vt 0.1615888 0.457103
vt 0.1615888 0.457103
vt 0.1485975 0.4990877
vt 0.1485975 0.4990876
vt 0.1615891 0.457103
vt 0.161589 0.457103
vt 0.1615891 0.457103
vt 0.161589 0.457103
vt 0.1584151 0.4510519
vt 0.1584151 0.4510519
vt 0.1485975 0.4990876
vt 0.1485975 0.4990876
vt 0.1584151 0.4510519
vt 0.1584151 0.451052
vt 0.1584151 0.451052
vt 0.1584151 0.4510519
vt 0.1584151 0.4510519
vt 0.1485975 0.4990876
vt 0.1584151 0.4510519
vt 0.1584151 0.4510519
vt 0.07925096 0.5078506
vt 0.07925145 0.5078506
vt 0.08616808 0.4795333
vt 0.08616808 0.479533
vt 0.08616818 0.4795333
vt 0.07925093 0.5078508
vt 0.07925037 0.5078508
vt 0.08616818 0.4795333
vt 0.0861681 0.4795333
vt 0.1584151 0.4510519
vt 0.1584151 0.4510519
vt 0.1485972 0.4990879
vt 0.1485972 0.4990878
vt 0.1584151 0.4510519
vt 0.1584151 0.4510519
vt 0.158415 0.4510519
vt 0.158415 0.4510519
vt 0.1584151 0.4510519
vt 0.1485972 0.4990877
vt 0.1584151 0.4510519
vt 0.158415 0.4510519
vt 0.07925096 0.5078507
vt 0.07925145 0.5078507
vt 0.08616818 0.479533
vt 0.0861681 0.4795331
vt 0.08616803 0.479533
vt 0.07925037 0.5078507
vt 0.07925093 0.5078507
vt 0.08616808 0.479533
vt 0.08616818 0.479533
vt 0.158415 0.4510518
vt 0.158415 0.4510519
vt 0.1485975 0.4990878
vt 0.1485975 0.4990877
vt 0.158415 0.4510518
vt 0.158415 0.4510519
vt 0.158415 0.4510519
vt 0.158415 0.4510518
vt 0.158415 0.4510519
vt 0.1485975 0.4990877
vt 0.158415 0.4510519
vt 0.158415 0.4510519
vt 0.07925037 0.5078511
vt 0.07924896 0.5078511
vt 0.08616808 0.4795331
vt 0.08616808 0.479533
vt 0.08616805 0.4795331
vt 0.0792492 0.5078507
vt 0.07924902 0.5078507
vt 0.08616805 0.4795331
vt 0.08616805 0.4795331
vn -0.7070667 -0.007525994 0.7071068
vn 0.7070667 0.007526198 0.7071068
vn -0.6576982 -0.211178 0.7230746
vn 0.6620441 -0.1971309 0.7230746
vn -0.6576982 -0.211178 -0.7230746
vn 0.6620441 -0.1971309 -0.7230746
vn -0.7070667 -0.007525994 -0.7071068
vn 0.7070667 0.007526198 -0.7071068
vn -0.579102 0.08873571 0.8104116
vn 0.5770814 0.1010423 0.8104119
vn 0.5770814 0.1010423 -0.8104119
vn -0.579102 0.08873571 -0.8104116
vn -0.5440973 0.4723376 0.6934374
vn 0.5339194 0.4838126 0.6934374
vn 0.5339194 0.4838127 -0.6934374
vn -0.5440973 0.4723376 -0.6934374
vn -0.01064351 0.9999434 0
vn -0.5711727 -0.5834624 0.5773503
vn 0.5834624 -0.5711728 0.5773502
vn -0.5834627 0.5711727 0.5773502
vn 0.5711726 0.5834624 0.5773504
vn -0.5834627 0.5711727 -0.5773502
vn 0.5711726 0.5834624 -0.5773504
vn -0.5711727 -0.5834624 -0.5773503
vn 0.5834624 -0.5711728 -0.5773502
vn 0.5792818 0.4055028 0.7071068
vn -0.5877815 0.3930813 0.7071068
vn 0.5792818 0.4055028 -0.7071068
vn -0.5877815 0.3930813 -0.7071068
vn 0.579101 -0.08873724 0.8104121
vn -0.5770818 -0.1010421 0.8104117
vn -0.5770818 -0.1010421 -0.8104117
vn 0.579101 -0.08873724 -0.8104121
vn 0.5440961 -0.472339 0.6934374
vn -0.5339195 -0.4838127 0.6934372
vn -0.5339194 -0.4838127 -0.6934372
vn 0.5440961 -0.472339 -0.6934374
vn 0.01064423 -0.9999434 0
vn -0.3444287 0.6175507 0.7071067
vn -0.3312076 -0.6247411 0.7071067
vn -0.3444287 0.6175507 -0.7071067
vn -0.3312076 -0.6247411 -0.7071067
vn 0.09072258 0.6146171 0.7835912
vn 0.103784 -0.6125461 0.7835918
vn 0.103784 -0.6125461 -0.7835918
vn 0.09072256 0.6146171 -0.7835912
vn 0.4236707 0.5820989 0.6940201
vn 0.435965 -0.5729489 0.6940202
vn 0.435965 -0.5729489 -0.6940202
vn 0.4236707 0.5820989 -0.6940201
vn 0.9999434 0.01064267 0
vn 0.3444317 -0.6175491 0.7071068
vn 0.3312074 0.6247412 0.7071068
vn 0.3444316 -0.6175491 -0.7071068
vn 0.3312074 0.6247412 -0.7071068
vn -0.09072194 -0.614616 0.7835922
vn -0.1037834 0.6125467 0.7835915
vn -0.1037834 0.6125467 -0.7835915
vn -0.09072194 -0.614616 -0.7835922
vn -0.4236706 -0.5820987 0.6940203
vn -0.4359651 0.5729489 0.6940201
vn -0.4359651 0.5729489 -0.6940201
vn -0.4236707 -0.5820987 -0.6940203
vn -0.9999434 -0.01064519 0
vn 0.7070667 0.007526198 -0.7071068
vn 0.7070667 0.007526198 0.7071068
vn 0.6620441 -0.1971309 -0.7230746
vn 0.6620441 -0.1971309 0.7230746
vn -0.6576982 -0.211178 0.7230746
vn -0.7070667 -0.007525994 0.7071068
vn -0.7070667 -0.007525994 -0.7071068
vn -0.6576982 -0.211178 -0.7230746
vn 0.5770814 0.1010423 0.8104119
vn 0.6620441 -0.1971309 0.7230746
vn 0.6620441 -0.1971309 -0.7230746
vn 0.5770814 0.1010423 -0.8104119
vn -0.579102 0.08873571 0.8104116
vn -0.6576982 -0.211178 0.7230746
vn -0.6576982 -0.211178 -0.7230746
vn -0.579102 0.08873571 -0.8104116
vn 0.5339194 0.4838126 0.6934374
vn 0.5339194 0.4838127 -0.6934374
vn -0.5440973 0.4723376 0.6934374
vn -0.5440973 0.4723376 -0.6934374
vn -0.5440973 0.4723376 0.6934374
vn 0.5339194 0.4838126 0.6934374
vn 0.5339194 0.4838126 0.6934374
vn -0.01064351 0.9999434 0
vn 0.5339194 0.4838127 -0.6934374
vn 0.5339194 0.4838127 -0.6934374
vn -0.5440973 0.4723376 -0.6934374
vn -0.5440973 0.4723376 -0.6934374
vn -0.5440973 0.4723376 0.6934374
vn -0.5834627 0.5711727 0.5773502
vn 0.5711726 0.5834624 0.5773504
vn -0.5834627 0.5711727 -0.5773502
vn 0.5711726 0.5834624 -0.5773504
vn 0.5834624 -0.5711728 0.5773502
vn -0.5711727 -0.5834624 -0.5773503
vn -0.5711727 -0.5834624 0.5773503
vn 0.5834624 -0.5711728 -0.5773502
vn -0.5770818 -0.1010421 0.8104117
vn -0.5877815 0.3930813 0.7071068
vn -0.5877815 0.3930813 -0.7071068
vn -0.5770818 -0.1010421 -0.8104117
vn 0.579101 -0.08873724 0.8104121
vn 0.5792818 0.4055028 0.7071068
vn 0.5792818 0.4055028 -0.7071068
vn 0.579101 -0.08873724 -0.8104121
vn -0.5339195 -0.4838127 0.6934372
vn -0.5339194 -0.4838127 -0.6934372
vn 0.5440961 -0.472339 0.6934374
vn 0.5440961 -0.472339 -0.6934374
vn 0.5440961 -0.472339 0.6934374
vn -0.5339195 -0.4838127 0.6934372
vn -0.5339195 -0.4838127 0.6934372
vn 0.01064423 -0.9999434 0
vn -0.5339194 -0.4838127 -0.6934372
vn -0.5339194 -0.4838127 -0.6934372
vn 0.5440961 -0.472339 -0.6934374
vn 0.5440961 -0.472339 -0.6934374
vn 0.5440961 -0.472339 0.6934374
vn 0.103784 -0.6125461 0.7835918
vn -0.3312076 -0.6247411 0.7071067
vn -0.3312076 -0.6247411 -0.7071067
vn 0.103784 -0.6125461 -0.7835918
vn 0.09072258 0.6146171 0.7835912
vn -0.3444287 0.6175507 0.7071067
vn -0.3444287 0.6175507 -0.7071067
vn 0.09072256 0.6146171 -0.7835912
vn 0.435965 -0.5729489 0.6940202
vn 0.435965 -0.5729489 -0.6940202
vn 0.4236707 0.5820989 0.6940201
vn 0.4236707 0.5820989 -0.6940201
vn 0.4236707 0.5820989 0.6940201
vn 0.435965 -0.5729489 0.6940202
vn 0.435965 -0.5729489 0.6940202
vn 0.9999434 0.01064267 0
vn 0.435965 -0.5729489 -0.6940202
vn 0.435965 -0.5729489 -0.6940202
vn 0.4236707 0.5820989 -0.6940201
vn 0.4236707 0.5820989 -0.6940201
vn 0.4236707 0.5820989 0.6940201
vn -0.1037834 0.6125467 0.7835915
vn 0.3312074 0.6247412 0.7071068
vn 0.3312074 0.6247412 -0.7071068
vn -0.1037834 0.6125467 -0.7835915
vn -0.09072194 -0.614616 0.7835922
vn 0.3444317 -0.6175491 0.7071068
vn 0.3444316 -0.6175491 -0.7071068
vn -0.09072194 -0.614616 -0.7835922
vn -0.4359651 0.5729489 0.6940201
vn -0.4359651 0.5729489 -0.6940201
vn -0.4236706 -0.5820987 0.6940203
vn -0.4236707 -0.5820987 -0.6940203
vn -0.4236706 -0.5820987 0.6940203
vn -0.4359651 0.5729489 0.6940201
vn -0.4359651 0.5729489 0.6940201
vn -0.9999434 -0.01064519 0
vn -0.4359651 0.5729489 -0.6940201
vn -0.4359651 0.5729489 -0.6940201
vn -0.4236707 -0.5820987 -0.6940203
vn -0.4236707 -0.5820987 -0.6940203
vn -0.4236706 -0.5820987 0.6940203
g crucifix_geo_0
f 17/17/17 85/85/85 86/86/86
f 88/88/88 87/87/87 89/89/89
f 17/17/17 90/90/90 91/91/91
f 88/88/88 92/92/92 93/93/93
f 38/38/38 114/114/114 115/115/115
f 117/117/117 116/116/116 118/118/118
f 38/38/38 119/119/119 120/120/120
f 117/117/117 121/121/121 122/122/122
f 51/51/51 135/135/135 136/136/136
f 138/138/138 137/137/137 139/139/139
f 51/51/51 140/140/140 141/141/141
f 138/138/138 142/142/142 143/143/143
f 64/64/64 156/156/156 157/157/157
f 159/159/159 158/158/158 160/160/160
f 64/64/64 161/161/161 162/162/162
f 159/159/159 163/163/163 164/164/164
f 4/4/4 1/1/1 2/2/2
f 3/3/3 1/1/1 4/4/4
f 9/9/9 3/3/3 4/4/4
f 6/6/6 5/5/5 12/12/12
f 7/7/7 5/5/5 6/6/6
f 8/8/8 7/7/7 6/6/6
f 66/66/66 67/67/67 68/68/68
f 65/65/65 67/67/67 66/66/66
f 69/69/69 71/71/71 70/70/70
f 72/72/72 71/71/71 69/69/69
f 73/73/73 15/15/15 81/81/81
f 11/11/11 15/15/15 73/73/73
f 74/74/74 11/11/11 73/73/73
f 75/75/75 11/11/11 74/74/74
f 80/80/80 83/83/83 84/84/84
f 77/77/77 83/83/83 80/80/80
f 79/79/79 77/77/77 80/80/80
f 78/78/78 77/77/77 79/79/79
f 9/9/9 14/14/14 13/13/13
f 10/10/10 14/14/14 9/9/9
f 4/4/4 10/10/10 9/9/9
f 12/12/12 76/76/76 6/6/6
f 82/82/82 76/76/76 12/12/12
f 16/16/16 82/82/82 12/12/12
f 23/23/23 94/94/94 95/95/95
f 22/22/22 94/94/94 23/23/23
f 99/99/99 98/98/98 100/100/100
f 101/101/101 98/98/98 99/99/99
f 31/31/31 35/35/35 34/34/34
f 30/30/30 31/31/31 34/34/34
f 27/27/27 31/31/31 30/30/30
f 26/26/26 27/27/27 30/30/30
f 102/102/102 36/36/36 110/110/110
f 32/32/32 36/36/36 102/102/102
f 103/103/103 32/32/32 102/102/102
f 29/29/29 32/32/32 103/103/103
f 105/105/105 37/37/37 111/111/111
f 33/33/33 37/37/37 105/105/105
f 104/104/104 33/33/33 105/105/105
f 28/28/28 33/33/33 104/104/104
f 109/109/109 112/112/112 113/113/113
f 106/106/106 112/112/112 109/109/109
f 108/108/108 106/106/106 109/109/109
f 107/107/107 106/106/106 108/108/108
f 43/43/43 44/44/44 48/48/48
f 40/40/40 44/44/44 43/43/43
f 39/39/39 40/40/40 43/43/43
f 123/123/123 49/49/49 131/131/131
f 45/45/45 49/49/49 123/123/123
f 124/124/124 45/45/45 123/123/123
f 42/42/42 45/45/45 124/124/124
f 46/46/46 125/125/125 41/41/41
f 126/126/126 125/125/125 46/46/46
f 132/132/132 126/126/126 46/46/46
f 130/130/130 133/133/133 134/134/134
f 127/127/127 133/133/133 130/130/130
f 129/129/129 127/127/127 130/130/130
f 128/128/128 127/127/127 129/129/129
f 47/47/47 43/43/43 48/48/48
f 50/50/50 132/132/132 46/46/46
f 57/57/57 52/52/52 53/53/53
f 56/56/56 52/52/52 57/57/57
f 60/60/60 56/56/56 57/57/57
f 144/144/144 62/62/62 152/152/152
f 58/58/58 62/62/62 144/144/144
f 145/145/145 58/58/58 144/144/144
f 55/55/55 58/58/58 145/145/145
f 147/147/147 59/59/59 63/63/63
f 54/54/54 59/59/59 147/147/147
f 146/146/146 54/54/54 147/147/147
f 151/151/151 154/154/154 155/155/155
f 148/148/148 154/154/154 151/151/151
f 150/150/150 148/148/148 151/151/151
f 149/149/149 148/148/148 150/150/150
f 61/61/61 60/60/60 57/57/57
f 153/153/153 147/147/147 63/63/63
f 20/20/20 18/18/18 19/19/19
f 24/24/24 18/18/18 20/20/20
f 96/96/96 24/24/24 20/20/20
f 25/25/25 24/24/24 96/96/96
f 97/97/97 25/25/25 96/96/96
f 19/19/19 25/25/25 97/97/97
f 21/21/21 19/19/19 97/97/97
f 20/20/20 19/19/19 21/21/21
