g curiousGeorgeBook_geo
v -0.1442706 0.007692943 0.2163566
v -0.1442706 0.04062743 0.2163566
v -0.1536444 0.02416018 0.2163566
v -0.1497681 0.04832036 0.2163566
v 0.1627124 0.04832036 0.2163566
v 0.1627124 0.04832036 -0.2163569
v -0.1497681 0.04832031 -0.2163569
v -0.1497681 0 -0.2163569
v 0.1627124 0 -0.2163569
v 0.1627124 0 0.2163566
v -0.1497681 0 0.2163566
v -0.1627124 0.02416018 0.2163566
v -0.1627124 0.02416018 -0.2163569
v 0.1627124 0.007692943 0.2163566
v 0.1627124 0.04062743 0.2163566
v -0.1442706 0.04062743 -0.2163569
v -0.153645 0.02416018 -0.2163569
v 0.1627124 0.04062743 -0.2163569
v -0.1442706 0.007692943 -0.2163569
v 0.1627124 0.007692943 -0.2163569
v -0.1497681 0.04832033 -1.310531E-07
v -0.1627124 0.02416018 -1.310531E-07
v -0.1497681 0 -1.310531E-07
v 0.1627124 0 -1.310531E-07
v 0.1627124 0.007692943 -1.310531E-07
v 0.1627124 0.04062743 -1.310531E-07
v 0.1627124 0.04832036 -1.310531E-07
v -0.1497681 0 -1.310531E-07
v -0.1497681 0 0.2163566
v -0.1497681 0.04832036 0.2163566
v -0.1497681 0.04832033 -1.310531E-07
v -0.1627124 0.02416018 0.2163566
v -0.1442706 0.007692943 0.2163566
v -0.1497681 0 0.2163566
v -0.1536444 0.02416018 0.2163566
v 0.1627124 0 0.2163566
v 0.1627124 0.04832036 0.2163566
v -0.1442706 0.04062743 0.2163566
v -0.1497681 0.04832036 0.2163566
v 0.1627124 0.04062743 0.2163566
v 0.1627124 0.04832036 -1.310531E-07
v 0.1627124 0.04832036 0.2163566
v 0.1627124 0 0.2163566
v 0.1627124 0.007692943 0.2163566
v 0.1627124 0 -1.310531E-07
v 0.1627124 0.04062743 -1.310531E-07
v 0.1627124 0.007692943 0.2163566
v 0.1627124 0.04062743 0.2163566
v 0.1627124 0.007692943 -1.310531E-07
v -0.1442706 0.04062743 -0.2163569
v -0.153645 0.02416018 -0.2163569
v -0.1442706 0.007692943 -0.2163569
v 0.1627124 0.007692943 -0.2163569
v 0.1627124 0.04062743 -0.2163569
v 0.1627124 0.007692943 0.2163566
v 0.1627124 0.04062743 0.2163566
v -0.1627124 0.02416018 -0.2163569
v -0.1497681 0.04832031 -0.2163569
v -0.1497681 0 -0.2163569
v -0.1497681 0 -0.2163569
v 0.1627124 0 -0.2163569
v 0.1627124 0.007692943 -0.2163569
v 0.1627124 0 -0.2163569
v 0.1627124 0.04062743 -0.2163569
v 0.1627124 0.007692943 -0.2163569
v 0.1627124 0.04062743 -0.2163569
v 0.1627124 0.04832036 -0.2163569
v -0.1497681 0.04832033 -1.310531E-07
v 0.1627124 0.04832036 -0.2163569
v 0.1627124 0.04832036 -1.310531E-07
v -0.1497681 0.04832031 -0.2163569
vt 0.5185931 0.0154558
vt 0.5185931 0.0154558
vt 0.5185931 0.01545568
vt 0.005750879 0.9763438
vt 1 0.9763437
vt 0.2556515 0.01791704
vt 0.2556515 0.01791704
vt 0.2556515 0.01791704
vt 0.2556515 0.01791704
vt 0.4268467 0.01887538
vt 0.4268467 0.01887538
vt 0.2492505 0.01667806
vt 0.2556515 0.01791704
vt 0.2556513 0.017917
vt 0.2556511 0.01791705
vt 0.2556515 0.01791704
vt 0.2556515 0.01791704
vt 0.2556515 0.01791704
vt 0.2556515 0.01791704
vt 0.2556515 0.01791704
vt 0.005750879 0.9763438
vt 0.2492505 0.01667806
vt 0.4268467 0.01887538
vt 0.4268467 0.01887531
vt 0.390461 0.01910452
vt 0.390461 0.0191045
vt 1 0.9763437
vt 0.4242936 0.01667804
vt 0.4242936 0.01667804
vt 0.147849 0.01667805
vt 0.147849 0.01667805
vt 0.2556515 0.01791699
vt 0.2556515 0.01791699
vt 0.2556515 0.01791699
vt 0.2556515 0.01791699
vt 0.2556513 0.017917
vt 0.2556513 0.017917
vt 0.2556515 0.01791704
vt 0.2556515 0.01791699
vt 0.390461 0.01910431
vt 0.390461 0.0191045
vt 0.390461 0.01910431
vt 0.3904611 0.01910438
vt 0.390461 0.01910448
vt 0.3904611 0.01910447
vt 0.6793221 0.01444329
vt 0.6793221 0.01444323
vt 0.6793221 0.01444323
vt 0.6793221 0.01444329
vt 0.5185931 0.01545574
vt 0.5185932 0.01545574
vt 0.5185932 0.01545574
vt 0.5185932 0.01545568
vt 0.5185931 0.01545568
vt 0.5185931 0.01545568
vt 0.5185931 0.01545568
vt 0.2492505 0.01667806
vt 0.147849 0.01667805
vt 0.4242936 0.01667804
vt 0.4268467 0.01887538
vt 0.4268467 0.01887525
vt 0.3904611 0.01910456
vt 0.3904611 0.01910456
vt 0.6793221 0.01444335
vt 0.6793221 0.01444335
vt 0.3904611 0.01910468
vt 0.3904611 0.01910468
vt 0.005750879 0.1701854
vt 1 0.9763438
vt 1 0.1701854
vt 0.005750879 0.9763438
vn 1.181565E-07 0 1
vn 6.178236E-07 0 1
vn 1.57542E-07 0 1
vn -0.3344883 0.5586807 0.7589424
vn 0.5773503 0.5773503 0.5773503
vn 0.5773502 0.5773503 -0.5773503
vn -0.3344882 0.5586807 -0.7589424
vn -0.3344887 -0.5586805 -0.7589423
vn 0.5773503 -0.5773503 -0.5773503
vn 0.5773503 -0.5773503 0.5773503
vn -0.334489 -0.5586804 0.7589423
vn -0.6612449 0 0.7501701
vn -0.6612446 2.123898E-07 -0.7501704
vn 0.7071068 0 0.7071068
vn 0.7071068 0 0.7071068
vn 5.977711E-07 0 -1
vn 4.905908E-07 0 -1
vn 0.7071068 0 -0.7071068
vn 3.679431E-07 0 -1
vn 0.7071068 0 -0.7071068
vn -0.5136823 0.8579805 0
vn -1 2.028614E-07 0
vn -0.5136824 -0.8579804 0
vn 0.7071068 -0.7071068 0
vn 1 0 0
vn 1 0 0
vn 0.7071068 0.7071068 0
vn -0.5136824 -0.8579804 0
vn -0.334489 -0.5586804 0.7589423
vn -0.3344883 0.5586807 0.7589424
vn -0.5136823 0.8579805 0
vn -0.6612449 0 0.7501701
vn 1.181565E-07 0 1
vn -0.334489 -0.5586804 0.7589423
vn 1.57542E-07 0 1
vn 0.5773503 -0.5773503 0.5773503
vn 0.5773503 0.5773503 0.5773503
vn 6.178236E-07 0 1
vn -0.3344883 0.5586807 0.7589424
vn 0.7071068 0 0.7071068
vn 0.7071068 0.7071068 0
vn 0.5773503 0.5773503 0.5773503
vn 0.5773503 -0.5773503 0.5773503
vn 0.7071068 0 0.7071068
vn 0.7071068 -0.7071068 0
vn 1 0 0
vn 0.7071068 0 0.7071068
vn 0.7071068 0 0.7071068
vn 1 0 0
vn 5.977711E-07 0 -1
vn 4.905908E-07 0 -1
vn 3.679431E-07 0 -1
vn 0.7071068 0 -0.7071068
vn 0.7071068 0 -0.7071068
vn 0.7071068 0 0.7071068
vn 0.7071068 0 0.7071068
vn -0.6612446 2.123898E-07 -0.7501704
vn -0.3344882 0.5586807 -0.7589424
vn -0.3344887 -0.5586805 -0.7589423
vn -0.3344887 -0.5586805 -0.7589423
vn 0.5773503 -0.5773503 -0.5773503
vn 0.7071068 0 -0.7071068
vn 0.5773503 -0.5773503 -0.5773503
vn 0.7071068 0 -0.7071068
vn 0.7071068 0 -0.7071068
vn 0.7071068 0 -0.7071068
vn 0.5773502 0.5773503 -0.5773503
vn -0.5136823 0.8579805 0
vn 0.5773502 0.5773503 -0.5773503
vn 0.7071068 0.7071068 0
vn -0.3344882 0.5586807 -0.7589424
g curiousGeorgeBook_geo_0
f 2/2/2 55/55/55 56/56/56
f 1/1/1 55/55/55 2/2/2
f 3/3/3 1/1/1 2/2/2
f 27/27/27 4/4/4 5/5/5
f 21/21/21 4/4/4 27/27/27
f 24/24/24 60/60/60 61/61/61
f 23/23/23 60/60/60 24/24/24
f 10/10/10 23/23/23 24/24/24
f 11/11/11 23/23/23 10/10/10
f 22/22/22 57/57/57 59/59/59
f 28/28/28 22/22/22 59/59/59
f 12/12/12 22/22/22 28/28/28
f 29/29/29 12/12/12 28/28/28
f 38/38/38 15/15/15 37/37/37
f 39/39/39 38/38/38 37/37/37
f 35/35/35 38/38/38 39/39/39
f 32/32/32 35/35/35 39/39/39
f 33/33/33 35/35/35 32/32/32
f 34/34/34 33/33/33 32/32/32
f 14/14/14 33/33/33 34/34/34
f 36/36/36 14/14/14 34/34/34
f 19/19/19 20/20/20 9/9/9
f 8/8/8 19/19/19 9/9/9
f 17/17/17 19/19/19 8/8/8
f 13/13/13 17/17/17 8/8/8
f 16/16/16 17/17/17 13/13/13
f 7/7/7 16/16/16 13/13/13
f 18/18/18 16/16/16 7/7/7
f 6/6/6 18/18/18 7/7/7
f 41/41/41 26/26/26 66/66/66
f 40/40/40 26/26/26 41/41/41
f 42/42/42 40/40/40 41/41/41
f 45/45/45 63/63/63 62/62/62
f 25/25/25 45/45/45 62/62/62
f 43/43/43 45/45/45 25/25/25
f 44/44/44 43/43/43 25/25/25
f 49/49/49 65/65/65 64/64/64
f 46/46/46 49/49/49 64/64/64
f 47/47/47 49/49/49 46/46/46
f 48/48/48 47/47/47 46/46/46
f 50/50/50 52/52/52 51/51/51
f 53/53/53 52/52/52 50/50/50
f 54/54/54 53/53/53 50/50/50
f 22/22/22 12/12/12 30/30/30
f 31/31/31 22/22/22 30/30/30
f 57/57/57 22/22/22 31/31/31
f 58/58/58 57/57/57 31/31/31
f 67/67/67 41/41/41 66/66/66
f 69/69/69 68/68/68 70/70/70
f 71/71/71 68/68/68 69/69/69
