g D1_collision_geo
v -97.04869 4.511832 -188.8436
v -93.24502 4.516302 -189.5752
v -91.63153 8.612638 -187.7298
v -97.48017 8.612005 -186.6047
v -92.29086 5.850077 -193.1891
v -90.25335 8.532237 -193.5923
v -95.18904 5.752005 -196.2626
v -94.70524 8.489545 -198.3071
v -98.97901 5.755772 -195.5341
v -100.5317 8.489544 -197.1866
v -99.88464 5.849371 -191.7289
v -101.9286 8.531604 -191.3465
v -93.19584 11.2233 -189.3791
v -96.98592 11.22709 -188.6511
v -92.29726 11.22768 -193.1852
v -95.18904 11.22711 -196.2626
v -98.97906 11.22335 -195.5341
v -99.87762 11.2277 -191.7282
v -96.08128 4.60304 -192.4351
v -96.08738 12.5255 -192.4566
v -64.61768 3.847454 -201.7855
v -67.81111 3.847455 -200.28
v -69.46647 7.525367 -201.5658
v -64.55611 7.52537 -203.8806
v -68.13426 5.046844 -196.8407
v -69.84343 7.453331 -196.0242
v -65.19579 4.960111 -194.747
v -65.3292 7.415441 -192.814
v -62.01381 4.960108 -196.2469
v -60.43769 7.415434 -195.1198
v -61.75892 5.046841 -199.8461
v -60.04147 7.453326 -200.6451
v -67.88123 9.870462 -200.4436
v -64.69931 9.870461 -201.9438
v -68.12944 9.871496 -196.8454
v -65.19566 9.870581 -194.7469
v -62.01371 9.870573 -196.2468
v -61.76558 9.871491 -199.8453
v -64.95582 3.927476 -198.363
v -64.94748 11.03682 -198.3452
v -64.64323 0.02971811 -198.5248
v -64.94453 0.02971811 -198.737
v -65.37668 0.02971811 -198.9379
v -65.60784 0.02971811 -198.5106
v -65.92104 0.02971811 -197.9975
v -65.59747 0.02971811 -197.8098
v -65.32954 0.02971811 -197.0867
v -64.7803 0.02971811 -197.7136
v -64.12929 0.02971811 -197.9901
v -65.12392 0.3822314 -198.6451
v -65.60748 0.3822314 -198.3047
v -65.30737 0.4647774 -197.785
v -64.82761 0.3822314 -197.7771
v -64.66045 0.3822314 -198.3188
v -65.46025 2.923742 -198.3175
v -65.38589 2.753486 -197.7728
v -64.7929 2.713522 -197.9658
v -64.85503 3.014844 -198.2877
v -65.35899 1.635868 -197.8191
v -65.51872 1.635868 -198.287
v -65.12302 1.635868 -198.5836
v -64.71875 1.635868 -198.2988
v -64.86458 1.635868 -197.8263
v -65.44052 0.02971817 -197.4734
v -65.25758 0.2885209 -197.4114
v -65.02064 0.02971811 -197.3988
v -64.36699 0.02971811 -197.9541
v -64.34503 0.1809411 -198.1072
v -64.34351 0.02971814 -198.2352
v -65.51216 2.75391 -198.2429
v -65.00812 2.69965 -198.537
v -64.67798 2.562582 -198.3119
v -65.01379 3.16495 -198.4162
v -65.46222 3.030131 -198.1261
v -65.07317 3.032013 -197.8182
v -65.0078 2.847005 -198.5441
v -64.85626 4.126498 -198.2542
v -65.06628 4.126498 -198.4021
v -65.02166 4.462365 -198.1898
v -65.27184 4.126498 -198.248
v -65.18886 4.126498 -198.005
v -64.93201 4.126498 -198.0087
v -65.36786 2.892603 -197.7976
v -65.27309 3.238778 -197.9734
v -65.50735 2.865619 -198.1247
v -63.86734 4.592669 -198.6248
v -63.9791 4.591453 -198.7136
v -63.95177 4.726675 -198.6658
v -63.97333 4.617363 -198.5067
v -64.08887 4.598582 -198.6119
v -64.49554 4.140284 -199.1907
v -64.67125 4.214244 -199.1424
v -64.50523 4.374414 -199.2571
v -64.39204 4.173574 -199.0357
v -64.52669 4.245193 -199.0859
v -65.76094 4.329849 -197.7362
v -65.7475 4.345749 -197.5352
v -65.69449 4.571511 -197.6447
v -65.59605 4.38362 -197.5465
v -65.59743 4.419033 -197.7205
v -65.01152 3.681004 -197.9181
v -65.25713 3.681004 -197.9785
v -65.38686 3.681004 -198.1962
v -65.07359 3.681004 -198.4124
v -64.87465 3.681004 -198.2655
v -64.34509 3.342475 -198.2155
v -64.4334 3.486864 -198.4312
v -64.4576 3.322701 -198.6082
v -64.23454 3.253429 -198.4499
vt 0 1
vt 0 1
vt 0 1
vt 0 1
vt 0 1
vt 0 1
vt 0 1
vt 0 1
vt 0 1
vt 0 1
vt 0 1
vt 0 1
vt 0 1
vt 0 1
vt 0 1
vt 0 1
vt 0 1
vt 0 1
vt 0 1
vt 0 1
vt 0 1
vt 0 1
vt 0 1
vt 0 1
vt 0 1
vt 0 1
vt 0 1
vt 0 1
vt 0 1
vt 0 1
vt 0 1
vt 0 1
vt 0 1
vt 0 1
vt 0 1
vt 0 1
vt 0 1
vt 0 1
vt 0 1
vt 0 1
vt 0 1
vt 0 1
vt 0 1
vt 0 1
vt 0 1
vt 0 1
vt 0 1
vt 0 1
vt 0 1
vt 0 1
vt 0 1
vt 0 1
vt 0 1
vt 0 1
vt 0 1
vt 0 1
vt 0 1
vt 0 1
vt 0 1
vt 0 1
vt 0 1
vt 0 1
vt 0 1
vt 0 1
vt 0 1
vt 0 1
vt 0 1
vt 0 1
vt 0 1
vt 0 1
vt 0 1
vt 0 1
vt 0 1
vt 0 1
vt 0 1
vt 0 1
vt 0 1
vt 0 1
vt 0 1
vt 0 1
vt 0 1
vt 0 1
vt 0 1
vt 0 1
vt 0 1
vt 0 1
vt 0 1
vt 0 1
vt 0 1
vt 0 1
vt 0 1
vt 0 1
vt 0 1
vt 0 1
vt 0 1
vt 0 1
vt 0 1
vt 0 1
vt 0 1
vt 0 1
vt 0 1
vt 0 1
vt 0 1
vt 0 1
vt 0 1
vt 0 1
vt 0 1
vt 0 1
vt 0 1
vn 0.168061 -0.458952 0.872421
vn 0.168061 -0.458952 0.872421
vn 0.168061 -0.458952 0.872421
vn 0.168061 -0.458952 0.872421
vn 0.8577045 -0.4930097 0.1458919
vn 0.8577045 -0.4930097 0.1458919
vn 0.6151621 -0.5439321 -0.5707131
vn 0.6151621 -0.5439321 -0.5707131
vn -0.1548739 -0.5737159 -0.8042787
vn -0.1548739 -0.5737159 -0.8042787
vn -0.7987618 -0.5732639 -0.182615
vn -0.7987618 -0.5732639 -0.182615
vn 0.15245 0.5912629 0.7919389
vn 0.15245 0.5912629 0.7919389
vn 0.7927517 0.5817068 0.1821039
vn 0.6091923 0.5438622 -0.5771472
vn -0.154863 0.5737111 -0.8042842
vn -0.7963335 0.5734886 -0.1922599
vn -0.003910999 -0.9996427 -0.02643999
vn 0.06548701 0.9395712 0.3360321
vn -0.3801508 -0.4530047 -0.8063946
vn -0.3801508 -0.4530047 -0.8063946
vn -0.3801508 -0.4530047 -0.8063946
vn -0.3801508 -0.4530047 -0.8063946
vn -0.8748476 -0.4843418 -0.007400997
vn -0.8748476 -0.4843418 -0.007400997
vn -0.4856341 -0.5624791 0.6691612
vn -0.4856341 -0.5624791 0.6691612
vn 0.3511299 -0.5673288 0.7448798
vn 0.3511299 -0.5673288 0.7448798
vn 0.8252171 -0.56249 0.05120401
vn 0.8252171 -0.56249 0.05120401
vn -0.3458749 0.5848699 -0.7336878
vn -0.3458749 0.5848699 -0.7336878
vn -0.8194375 0.5708396 -0.05161597
vn -0.477955 0.562475 0.674671
vn 0.35113 0.567323 0.7448841
vn 0.8245924 0.5624692 0.06062903
vn 0.011557 -0.9996327 0.02451499
vn -0.148108 0.937746 -0.31416
vn 0.5839673 0.4458561 -0.6783764
vn 0.4505319 0.4328428 -0.7808126
vn -0.1406825 0.6903048 -0.7097097
vn -0.675426 0.4986671 -0.5432594
vn -0.7310915 0.6813489 0.03562284
vn -0.6562284 0.6108307 0.4430014
vn -0.1689021 0.7886572 0.5911785
vn 0.5315065 0.5474593 0.6463661
vn 0.5368028 0.8384766 0.09380671
vn -0.05182372 0.441631 -0.8956989
vn -0.8754625 0.4575956 -0.1554724
vn -0.4223961 0.4410539 0.7918668
vn 0.5917748 0.1336406 0.7949483
vn 0.8710806 0.434788 -0.2284251
vn -0.8488613 0.3400207 -0.4047472
vn -0.6388699 -0.02897102 0.768769
vn 0.5491433 0.1394654 0.8240091
vn 0.8287802 0.5521762 0.0906911
vn -0.5286887 0.02163451 0.8485401
vn -0.954213 0.03436453 -0.2971474
vn 0.003216767 0.03675997 -0.999319
vn 0.9466066 0.005942406 -0.3223362
vn 0.628551 0.02475343 0.7773744
vn -0.8076172 0.5105176 0.2951717
vn -0.1499162 0.8243942 0.5458015
vn 0.6029226 0.6446826 0.4699666
vn 0.1745431 0.7476797 0.6407104
vn 0.5644548 0.825022 0.02701005
vn 0.6531554 0.464521 -0.5980036
vn -0.9465739 -0.02524932 -0.3214971
vn 0.01566637 0.004530159 -0.999867
vn 0.9102429 -0.2981976 -0.2872908
vn -0.3450253 0.9145077 -0.2112661
vn -0.9258686 0.2764999 -0.2575177
vn 0.6035548 0.1711568 0.7787342
vn 0.2768945 -0.3328219 -0.9014205
vn 0.9267085 0.2259447 -0.3002673
vn 0.00426916 0.2970245 -0.9548603
vn 0.04803266 0.99882 -0.00717209
vn -0.8736402 0.4118684 -0.2590697
vn -0.5232334 0.4082476 0.748038
vn 0.5465219 0.296105 0.7833489
vn -0.5163929 -0.1080413 0.8495089
vn -0.08711813 0.9387615 0.3333725
vn -0.9891505 0.1244125 0.07812202
vn 0.9725 0.1183713 -0.2005791
vn -0.1221478 0.1844701 -0.9752182
vn 0.07686467 0.9543264 -0.288709
vn 0.09578514 0.5872878 0.8036904
vn -0.8499874 0.5261586 -0.02604888
vn 0.2953667 -0.3881781 -0.8729697
vn -0.8265563 0.4933437 -0.2709552
vn 0.2399302 0.9410202 -0.2385675
vn 0.8797345 0.3614307 0.3089256
vn -0.1266703 0.6973121 0.7054861
vn -0.7156249 0.2544529 -0.6504881
vn -0.663528 0.1014026 0.7412477
vn -0.1691974 0.982844 0.07341558
vn 0.6676114 0.4205261 0.6143719
vn 0.5833834 0.4873046 -0.6497678
vn 0.4571927 0.06211973 0.8871956
vn -0.5885619 0.1599057 0.7924803
vn -0.9695173 0.1134819 -0.2171593
vn 0.02486444 0.01956799 -0.9994993
vn 0.9632314 -0.005370885 -0.2686196
vn 0.1743254 0.1772567 0.9686025
vn -0.8377745 0.5285801 0.136883
vn -0.2691053 0.05702849 -0.9614209
vn 0.8829529 -0.4227512 -0.2041461
g D1_collision_geo_0
f 107/107/107 108/108/108 71/71/71
f 90/90/90 108/108/108 107/107/107
f 89/89/89 90/90/90 107/107/107
f 88/88/88 90/90/90 89/89/89
f 86/86/86 88/88/88 89/89/89
f 87/87/87 88/88/88 86/86/86
f 109/109/109 87/87/87 86/86/86
f 108/108/108 87/87/87 109/109/109
f 72/72/72 108/108/108 109/109/109
f 71/71/71 108/108/108 72/72/72
f 62/62/62 71/71/71 72/72/72
f 61/61/61 71/71/71 62/62/62
f 54/54/54 61/61/61 62/62/62
f 50/50/50 61/61/61 54/54/54
f 41/41/41 50/50/50 54/54/54
f 42/42/42 50/50/50 41/41/41
f 53/53/53 54/54/54 62/62/62
f 48/48/48 54/54/54 53/53/53
f 52/52/52 48/48/48 53/53/53
f 66/66/66 48/48/48 52/52/52
f 65/65/65 66/66/66 52/52/52
f 47/47/47 66/66/66 65/65/65
f 64/64/64 47/47/47 65/65/65
f 75/75/75 101/101/101 84/84/84
f 100/100/100 75/75/75 84/84/84
f 99/99/99 75/75/75 100/100/100
f 98/98/98 99/99/99 100/100/100
f 97/97/97 99/99/99 98/98/98
f 96/96/96 97/97/97 98/98/98
f 74/74/74 97/97/97 96/96/96
f 84/84/84 74/74/74 96/96/96
f 102/102/102 74/74/74 84/84/84
f 101/101/101 102/102/102 84/84/84
f 82/82/82 102/102/102 101/101/101
f 77/77/77 82/82/82 101/101/101
f 79/79/79 82/82/82 77/77/77
f 78/78/78 79/79/79 77/77/77
f 80/80/80 79/79/79 78/78/78
f 104/104/104 80/80/80 78/78/78
f 103/103/103 80/80/80 104/104/104
f 73/73/73 103/103/103 104/104/104
f 74/74/74 103/103/103 73/73/73
f 55/55/55 74/74/74 73/73/73
f 85/85/85 74/74/74 55/55/55
f 70/70/70 85/85/85 55/55/55
f 56/56/56 85/85/85 70/70/70
f 60/60/60 56/56/56 70/70/70
f 59/59/59 56/56/56 60/60/60
f 51/51/51 59/59/59 60/60/60
f 52/52/52 59/59/59 51/51/51
f 46/46/46 52/52/52 51/51/51
f 65/65/65 52/52/52 46/46/46
f 64/64/64 65/65/65 46/46/46
f 54/54/54 69/69/69 41/41/41
f 68/68/68 69/69/69 54/54/54
f 48/48/48 68/68/68 54/54/54
f 67/67/67 68/68/68 48/48/48
f 51/51/51 45/45/45 46/46/46
f 44/44/44 45/45/45 51/51/51
f 50/50/50 44/44/44 51/51/51
f 43/43/43 44/44/44 50/50/50
f 42/42/42 43/43/43 50/50/50
f 68/68/68 49/49/49 69/69/69
f 67/67/67 49/49/49 68/68/68
f 19/19/19 2/2/2 1/1/1
f 5/5/5 2/2/2 19/19/19
f 7/7/7 5/5/5 19/19/19
f 8/8/8 5/5/5 7/7/7
f 10/10/10 8/8/8 7/7/7
f 17/17/17 8/8/8 10/10/10
f 18/18/18 17/17/17 10/10/10
f 20/20/20 17/17/17 18/18/18
f 14/14/14 20/20/20 18/18/18
f 13/13/13 20/20/20 14/14/14
f 4/4/4 13/13/13 14/14/14
f 3/3/3 13/13/13 4/4/4
f 1/1/1 3/3/3 4/4/4
f 2/2/2 3/3/3 1/1/1
f 6/6/6 2/2/2 5/5/5
f 3/3/3 2/2/2 6/6/6
f 15/15/15 3/3/3 6/6/6
f 13/13/13 3/3/3 15/15/15
f 20/20/20 13/13/13 15/15/15
f 16/16/16 17/17/17 20/20/20
f 8/8/8 17/17/17 16/16/16
f 6/6/6 8/8/8 16/16/16
f 5/5/5 8/8/8 6/6/6
f 9/9/9 10/10/10 7/7/7
f 12/12/12 10/10/10 9/9/9
f 11/11/11 12/12/12 9/9/9
f 4/4/4 12/12/12 11/11/11
f 1/1/1 4/4/4 11/11/11
f 15/15/15 16/16/16 20/20/20
f 6/6/6 16/16/16 15/15/15
f 12/12/12 18/18/18 10/10/10
f 14/14/14 18/18/18 12/12/12
f 4/4/4 14/14/14 12/12/12
f 19/19/19 9/9/9 7/7/7
f 11/11/11 9/9/9 19/19/19
f 1/1/1 11/11/11 19/19/19
f 39/39/39 22/22/22 21/21/21
f 25/25/25 22/22/22 39/39/39
f 27/27/27 25/25/25 39/39/39
f 28/28/28 25/25/25 27/27/27
f 30/30/30 28/28/28 27/27/27
f 37/37/37 28/28/28 30/30/30
f 38/38/38 37/37/37 30/30/30
f 40/40/40 37/37/37 38/38/38
f 34/34/34 40/40/40 38/38/38
f 33/33/33 40/40/40 34/34/34
f 24/24/24 33/33/33 34/34/34
f 23/23/23 33/33/33 24/24/24
f 21/21/21 23/23/23 24/24/24
f 22/22/22 23/23/23 21/21/21
f 26/26/26 22/22/22 25/25/25
f 23/23/23 22/22/22 26/26/26
f 35/35/35 23/23/23 26/26/26
f 33/33/33 23/23/23 35/35/35
f 40/40/40 33/33/33 35/35/35
f 36/36/36 37/37/37 40/40/40
f 28/28/28 37/37/37 36/36/36
f 26/26/26 28/28/28 36/36/36
f 25/25/25 28/28/28 26/26/26
f 29/29/29 30/30/30 27/27/27
f 32/32/32 30/30/30 29/29/29
f 31/31/31 32/32/32 29/29/29
f 24/24/24 32/32/32 31/31/31
f 21/21/21 24/24/24 31/31/31
f 35/35/35 36/36/36 40/40/40
f 26/26/26 36/36/36 35/35/35
f 32/32/32 38/38/38 30/30/30
f 34/34/34 38/38/38 32/32/32
f 24/24/24 34/34/34 32/32/32
f 39/39/39 29/29/29 27/27/27
f 31/31/31 29/29/29 39/39/39
f 21/21/21 31/31/31 39/39/39
f 103/103/103 74/74/74 102/102/102
f 81/81/81 103/103/103 102/102/102
f 80/80/80 103/103/103 81/81/81
f 79/79/79 80/80/80 81/81/81
f 81/81/81 82/82/82 79/79/79
f 102/102/102 82/82/82 81/81/81
f 60/60/60 50/50/50 51/51/51
f 61/61/61 50/50/50 60/60/60
f 70/70/70 61/61/61 60/60/60
f 71/71/71 61/61/61 70/70/70
f 55/55/55 71/71/71 70/70/70
f 76/76/76 71/71/71 55/55/55
f 92/92/92 76/76/76 55/55/55
f 91/91/91 76/76/76 92/92/92
f 93/93/93 91/91/91 92/92/92
f 94/94/94 91/91/91 93/93/93
f 95/95/95 94/94/94 93/93/93
f 73/73/73 94/94/94 95/95/95
f 55/55/55 73/73/73 95/95/95
f 83/83/83 99/99/99 97/97/97
f 75/75/75 99/99/99 83/83/83
f 56/56/56 75/75/75 83/83/83
f 57/57/57 75/75/75 56/56/56
f 59/59/59 57/57/57 56/56/56
f 63/63/63 57/57/57 59/59/59
f 52/52/52 63/63/63 59/59/59
f 53/53/53 63/63/63 52/52/52
f 106/106/106 86/86/86 89/89/89
f 109/109/109 86/86/86 106/106/106
f 57/57/57 109/109/109 106/106/106
f 72/72/72 109/109/109 57/57/57
f 63/63/63 72/72/72 57/57/57
f 62/62/62 72/72/72 63/63/63
f 53/53/53 62/62/62 63/63/63
f 90/90/90 87/87/87 108/108/108
f 88/88/88 87/87/87 90/90/90
f 58/58/58 57/57/57 106/106/106
f 75/75/75 57/57/57 58/58/58
f 105/105/105 75/75/75 58/58/58
f 101/101/101 75/75/75 105/105/105
f 77/77/77 101/101/101 105/105/105
f 95/95/95 92/92/92 55/55/55
f 93/93/93 92/92/92 95/95/95
f 107/107/107 106/106/106 89/89/89
f 58/58/58 106/106/106 107/107/107
f 71/71/71 58/58/58 107/107/107
f 76/76/76 58/58/58 71/71/71
f 105/105/105 78/78/78 77/77/77
f 104/104/104 78/78/78 105/105/105
f 58/58/58 104/104/104 105/105/105
f 73/73/73 104/104/104 58/58/58
f 94/94/94 73/73/73 58/58/58
f 83/83/83 85/85/85 56/56/56
f 74/74/74 85/85/85 83/83/83
f 97/97/97 74/74/74 83/83/83
f 100/100/100 96/96/96 98/98/98
f 84/84/84 96/96/96 100/100/100
f 91/91/91 58/58/58 76/76/76
f 94/94/94 58/58/58 91/91/91
