g D1_collisionInvisible_geo
v -127.7675 -0.1288867 -191.8326
v -127.7675 19.87111 -191.8326
v -121.6106 -0.128891 -198.508
v -121.6106 19.87111 -198.508
v -109.656 -0.1288873 -198.448
v -109.656 19.87111 -198.448
v -105.6223 -0.1288892 -202.2849
v -105.6223 19.87111 -202.2849
v -98.78226 -0.1288898 -200.8681
v -98.78226 19.87111 -200.8681
v -96.63344 -0.1288879 -202.7116
v -96.63344 19.87111 -202.7116
v -84.40575 -0.1288873 -202.8398
v -84.40575 19.87111 -202.8398
v -84.15508 -0.1288873 -207.9467
v -84.15508 19.87111 -207.9467
v -78.51295 -0.1288867 -207.6808
v -78.51295 19.87111 -207.6808
v -74.07289 -0.1288867 -209.1272
v -74.07289 19.87111 -209.1272
v -71.56863 -0.1288873 -207.858
v -71.56863 19.87111 -207.858
v -68.96097 -0.1288873 -209.2488
v -68.96097 19.87111 -209.2488
v -64.45057 -0.1288879 -206.3485
v -64.45057 19.87111 -206.3485
v -124.729 19.87111 -191.5409
v -124.729 -0.1288877 -191.5409
v -118.7577 -0.1288901 -198.4937
v -118.7577 19.87111 -198.4937
v -120.6477 -0.1288907 -198.5032
v -120.6477 19.87111 -198.5032
v -119.805 -0.1288904 -196.8802
v -119.805 19.87111 -196.8802
vt 0.009305123 0.9919356
vt 0.009305123 0.9919356
vt 0.009305123 0.9919356
vt 0.009305123 0.9919356
vt 0.009305123 0.9919356
vt 0.009305123 0.9919356
vt 0.009305123 0.9919356
vt 0.009305123 0.9919356
vt 0.009305123 0.9919356
vt 0.009305123 0.9919356
vt 0.009305123 0.9919356
vt 0.009305123 0.9919356
vt 0.009305123 0.9919356
vt 0.009305123 0.9919356
vt 0.009305123 0.9919356
vt 0.009305123 0.9919356
vt 0.009305123 0.9919356
vt 0.009305123 0.9919356
vt 0.009305123 0.9919356
vt 0.009305123 0.9919356
vt 0.009305123 0.9919356
vt 0.009305123 0.9919356
vt 0.009305123 0.9919356
vt 0.009305123 0.9919356
vt 0.009305123 0.9919356
vt 0.009305123 0.9919356
vt 0.009305123 0.9919356
vt 0.009305123 0.9919356
vt 0.009305123 0.9919355
vt 0.009305123 0.9919355
vt 0.009305123 0.9919355
vt 0.009305123 0.9919355
vt 0.009305123 0.9919355
vt 0.009305123 0.9919355
vn -0.09554531 0 0.9954252
vn -0.09554531 0 0.9954252
vn 0.5417016 0 0.8405709
vn 0.5417016 0 0.8405709
vn 0.3687761 0 0.9295183
vn 0.3687761 0 0.9295183
vn 0.2745115 0 0.9615838
vn 0.2745115 0 0.9615838
vn 0.2497387 0 0.9683132
vn 0.2497387 0 0.9683132
vn 0.3520625 0 0.9359765
vn 0.3520625 0 0.9359765
vn 0.6933415 0 0.7206092
vn 0.6933415 0 0.7206092
vn 0.672313 0 0.7402669
vn 0.672313 0 0.7402669
vn 0.1335119 0 0.9910472
vn 0.1335119 0 0.9910472
vn -0.07702093 0 0.9970294
vn -0.07702093 0 0.9970294
vn 0.01043015 0 0.9999456
vn 0.01043015 0 0.9999456
vn -0.04072665 0 0.9991703
vn -0.04072665 0 0.9991703
vn -0.54085 0 0.8411191
vn -0.54085 0 0.8411191
vn 0.503053 0 0.8642555
vn 0.503053 0 0.8642555
vn 0.475059 0 0.8799539
vn 0.475059 0 0.8799539
vn -0.5213622 0 0.8533355
vn -0.5213622 0 0.8533355
vn -0.04837085 0 0.9988294
vn -0.04837085 0 0.9988294
g D1_collisionInvisible_geo_0
f 24/24/24 25/25/25 26/26/26
f 23/23/23 25/25/25 24/24/24
f 22/22/22 23/23/23 24/24/24
f 21/21/21 23/23/23 22/22/22
f 20/20/20 21/21/21 22/22/22
f 19/19/19 21/21/21 20/20/20
f 18/18/18 19/19/19 20/20/20
f 17/17/17 19/19/19 18/18/18
f 16/16/16 17/17/17 18/18/18
f 15/15/15 17/17/17 16/16/16
f 14/14/14 15/15/15 16/16/16
f 13/13/13 15/15/15 14/14/14
f 11/11/11 13/13/13 14/14/14
f 28/28/28 2/2/2 1/1/1
f 27/27/27 2/2/2 28/28/28
f 3/3/3 27/27/27 28/28/28
f 4/4/4 27/27/27 3/3/3
f 32/32/32 4/4/4 3/3/3
f 8/8/8 7/7/7 9/9/9
f 5/5/5 7/7/7 8/8/8
f 6/6/6 5/5/5 8/8/8
f 29/29/29 5/5/5 6/6/6
f 30/30/30 29/29/29 6/6/6
f 33/33/33 29/29/29 30/30/30
f 34/34/34 33/33/33 30/30/30
f 31/31/31 33/33/33 34/34/34
f 32/32/32 31/31/31 34/34/34
f 3/3/3 31/31/31 32/32/32
f 11/11/11 14/14/14 12/12/12
f 10/10/10 11/11/11 12/12/12
f 9/9/9 11/11/11 10/10/10
f 8/8/8 9/9/9 10/10/10
