g D1_collisionGround_grass_geo
v -213.3759 -9.536743E-08 -180.8994
v -84.20396 -9.536743E-08 -193.7657
v -127.8642 -9.536743E-08 -193.7657
v -84.18851 -9.536743E-08 -217.3893
v -132.4404 -9.536743E-08 -211.9239
v -134.658 3.779769 -217.5663
v -219.4422 3.404389 -186.3575
v -136.6658 -9.536743E-08 -221.6236
v -225.4693 -9.536743E-08 -189.7574
v -84.11455 2.936261 -223.4064
v -84.11455 -9.536743E-08 -227.4741
v -65.01007 4.077564E-08 -193.7657
v -65.01007 4.06997E-08 -218.3231
v -65.01007 2.24836 -224.4229
v -65.01007 4.033552E-08 -228.4907
v -84.20309 -9.536744E-08 -195.1232
v -128.2063 -9.536743E-08 -195.1232
v -176.2694 -9.536743E-08 -195.1232
v -195.6286 4.002468 -195.1232
v -210.5162 -9.536743E-08 -195.1232
v -65.01007 4.077145E-08 -195.1232
v -143.1555 -9.536747E-08 -238.3621
v -217.2849 -9.536747E-08 -212.8754
v -231.8582 -9.536747E-08 -205.8529
v -139.9106 5.201593 -229.9928
v -213.5841 6.117209 -203.137
v -228.1705 5.2026 -197.059
v -84.29821 -9.536743E-08 -244.9547
v -65.19373 4.033552E-08 -246.5171
v -65.10191 5.508038 -236.1582
v -84.20638 5.197853 -235.5266
v -176.8358 6.639104 -216.7426
v -130.2457 -9.536743E-08 -203.2153
v -84.1958 -9.536743E-08 -206.2562
v -65.01007 4.073557E-08 -206.7231
vt 0 1
vt 0 1
vt 0 1
vt 0 1
vt 0 1
vt 0 1
vt 0 1
vt 0 1
vt 0 1
vt 0 1
vt 0 1
vt 0 1
vt 0 1
vt 0 1
vt 0 1
vt 0 1
vt 0 1
vt 0 1
vt 0 1
vt 0 1
vt 0 1
vt 0 1
vt 0 1
vt 0 1
vt 0 1
vt 0 1
vt 0 1
vt 0 1
vt 0 1
vt 0 1
vt 0 1
vt 0 1
vt 0 1
vt 0 1
vt 0 1
vn 0.07588973 0.9821034 0.1723761
vn 0 1 0
vn 0 1 0
vn 0.02569101 0.9735948 0.2268329
vn 0.06376419 0.9656395 0.2519412
vn -0.01004042 0.9970964 -0.07548444
vn -0.02398802 0.9987827 -0.04310219
vn -0.1399445 0.778385 -0.6119905
vn -0.2253112 0.8410184 -0.4918566
vn 0.006402864 0.9965997 -0.08214673
vn -0.03910778 0.8116044 -0.5828968
vn 0 1 0
vn 0.01338102 0.9816288 0.1903308
vn 0.003069482 0.9967113 -0.08097696
vn -0.02095978 0.8548546 -0.518444
vn 0 1 0
vn 0 1 0
vn 0.0886978 0.9665442 0.2406764
vn -0.0230765 0.9980659 -0.05772248
vn -0.2101608 0.7999395 -0.562076
vn 0 1 0
vn -0.06336746 0.9553152 -0.2887166
vn -0.1948161 0.8558963 -0.4790492
vn -0.2430156 0.872102 -0.4247135
vn 0.05598833 0.998369 -0.01116196
vn -0.01103324 0.998587 0.05198281
vn -0.04445357 0.9968179 0.06616487
vn -0.04419498 0.87695 -0.4785452
vn -0.01781879 0.8857706 -0.4637812
vn 0.004818964 0.9982783 0.05845819
vn -0.04980426 0.9978473 0.04266652
vn 0.01000915 0.9996449 0.02469721
vn 0 1 0
vn 0 1 0
vn 0 1 0
g D1_collisionGround_grass_geo_0
f 16/16/16 2/2/2 12/12/12
f 21/21/21 16/16/16 12/12/12
f 34/34/34 16/16/16 21/21/21
f 35/35/35 34/34/34 21/21/21
f 4/4/4 34/34/34 35/35/35
f 13/13/13 4/4/4 35/35/35
f 10/10/10 4/4/4 13/13/13
f 14/14/14 10/10/10 13/13/13
f 11/11/11 10/10/10 14/14/14
f 15/15/15 11/11/11 14/14/14
f 31/31/31 11/11/11 15/15/15
f 30/30/30 31/31/31 15/15/15
f 28/28/28 31/31/31 30/30/30
f 29/29/29 28/28/28 30/30/30
f 26/26/26 24/24/24 27/27/27
f 23/23/23 24/24/24 26/26/26
f 32/32/32 23/23/23 26/26/26
f 22/22/22 23/23/23 32/32/32
f 25/25/25 22/22/22 32/32/32
f 11/11/11 22/22/22 25/25/25
f 8/8/8 11/11/11 25/25/25
f 6/6/6 11/11/11 8/8/8
f 19/19/19 6/6/6 8/8/8
f 18/18/18 6/6/6 19/19/19
f 1/1/1 18/18/18 19/19/19
f 17/17/17 18/18/18 1/1/1
f 3/3/3 17/17/17 1/1/1
f 16/16/16 17/17/17 3/3/3
f 2/2/2 16/16/16 3/3/3
f 19/19/19 7/7/7 1/1/1
f 20/20/20 7/7/7 19/19/19
f 8/8/8 20/20/20 19/19/19
f 32/32/32 20/20/20 8/8/8
f 25/25/25 32/32/32 8/8/8
f 20/20/20 9/9/9 7/7/7
f 27/27/27 9/9/9 20/20/20
f 26/26/26 27/27/27 20/20/20
f 22/22/22 31/31/31 28/28/28
f 11/11/11 31/31/31 22/22/22
f 34/34/34 17/17/17 16/16/16
f 33/33/33 17/17/17 34/34/34
f 4/4/4 33/33/33 34/34/34
f 5/5/5 33/33/33 4/4/4
f 10/10/10 5/5/5 4/4/4
f 6/6/6 5/5/5 10/10/10
f 11/11/11 6/6/6 10/10/10
f 18/18/18 5/5/5 6/6/6
f 33/33/33 5/5/5 18/18/18
f 17/17/17 33/33/33 18/18/18
f 26/26/26 20/20/20 32/32/32
