g D1_shadowPine_geo
v -76.52843 0.08687072 -206.9092
v -76.46206 0.08582824 -211.0527
v -80.67139 0.1519338 -206.9756
v -80.60497 0.1508909 -211.1191
v -63.44392 0.0484166 -206.2051
v -63.3383 0.04675796 -212.7974
v -70.03548 0.1519338 -206.3107
v -69.9298 0.1502745 -212.9031
vt 0 2.000004
vt 1 2.000004
vt 0 2.999996
vt 1 2.999996
vt 0 2.000004
vt 1 2.000004
vt 0 2.999996
vt 1 2.999996
vn 0.01570262 0.9998767 0
vn 0.01570262 0.9998767 0
vn 0.01570262 0.9998767 0
vn 0.01570262 0.9998767 0
vn 0.01570264 0.9998767 0
vn 0.01570264 0.9998767 0
vn 0.01570264 0.9998767 0
vn 0.01570264 0.9998767 0
g D1_shadowPine_geo_0
f 4/4/4 1/1/1 2/2/2
f 3/3/3 1/1/1 4/4/4
f 8/8/8 5/5/5 6/6/6
f 7/7/7 5/5/5 8/8/8
