g D1_tree03_geo
v -67.74309 6.79361 -200.5948
v -65.7682 6.790186 -201.6772
v -67.55647 4.962737 -200.2423
v -65.5815 4.959315 -201.3248
v -65.74625 10.14006 -197.2348
v -63.65211 9.922756 -199.1573
v -66.00826 12.2189 -197.8427
v -63.91412 12.0016 -199.7651
v -64.59953 12.22697 -198.4063
v -64.33749 10.14813 -197.7984
v -62.82082 5.351038 -197.6732
v -63.92381 5.409926 -195.9005
v -65.89288 5.594155 -195.4027
v -63.28944 3.738767 -198.1069
v -64.39243 3.644408 -196.3343
v -66.36153 3.981884 -195.8365
v -62.47017 6.060576 -199.7269
v -63.14766 5.030288 -199.041
v -64.55431 4.428753 -198.7582
v -61.74258 5.003523 -200.7303
v -62.42004 3.973233 -200.0444
v -63.82672 3.371699 -199.7617
v -66.21709 4.615609 -198.6561
v -67.49275 5.300542 -197.7653
v -68.54703 6.737562 -198.0455
v -67.54341 3.498383 -198.6961
v -68.81905 4.183315 -197.8053
v -69.87334 5.620335 -198.0855
v -61.33037 7.090079 -200.2801
v -61.00307 7.357452 -198.3302
v -61.68965 5.7655 -198.2264
v -62.01694 5.498126 -200.1762
v -61.17798 6.313967 -199.2789
v -63.16367 9.961164 -198.8656
v -61.96773 8.843975 -198.9908
v -61.59404 7.567748 -199.9145
v -62.49492 10.86243 -200.4866
v -61.29901 9.745242 -200.6118
v -60.92529 8.469016 -201.5355
v -67.30141 9.770422 -198.4088
v -68.0117 8.299899 -199.0382
v -68.31674 6.370569 -198.8884
v -68.6272 10.0717 -196.4609
v -69.33748 8.601177 -197.0904
v -69.64253 6.671844 -196.9405
v -63.39946 5.738669 -200.7177
v -62.97309 7.317235 -201.2879
v -62.79402 8.780946 -200.5626
v -61.64839 5.477486 -200.9741
v -61.22203 7.056052 -201.5443
v -61.04295 8.519764 -200.8189
v -68.80913 7.991111 -199.4252
v -68.1825 6.935237 -200.395
v -67.42567 5.547554 -199.9796
v -70.13986 7.004007 -198.3177
v -69.51321 5.948136 -199.2874
v -68.75639 4.560451 -198.872
v -67.24197 5.516956 -196.8419
v -67.15208 6.909085 -195.7708
v -67.22343 8.594057 -196.0218
v -69.25134 5.442109 -197.4211
v -69.16148 6.834238 -196.35
v -69.23282 8.519211 -196.601
v -62.09116 9.217155 -197.8528
v -61.72337 7.831084 -197.1788
v -61.86986 6.255651 -197.3544
v -60.8342 9.165831 -199.0442
v -60.46637 7.779762 -198.3701
v -60.61288 6.204329 -198.5459
v -62.44633 8.7271 -196.2439
v -62.5535 7.365374 -195.4064
v -62.75459 5.90157 -196.1236
v -60.76814 8.623463 -196.4714
v -60.87537 7.261735 -195.6339
v -61.02774 5.803439 -196.1183
v -64.83678 9.506427 -200.8618
v -66.69296 9.715023 -199.8083
v -67.34653 9.450009 -197.7296
v -64.33824 11.17869 -200.3922
v -66.19444 11.38729 -199.3386
v -66.84798 11.12228 -197.2599
v -62.88887 9.47362 -197.5927
v -63.13881 9.522978 -199.8771
v -65.03679 9.424043 -200.7595
v -63.02252 11.08973 -197.5344
v -63.27248 11.13909 -199.8188
v -65.17046 11.04016 -200.7012
v -66.65379 9.657145 -196.9623
v -63.79939 9.687633 -196.579
v -66.61038 11.70357 -197.742
v -63.75592 11.73406 -197.3587
v -65.23293 11.86612 -197.0301
v -65.27634 9.819695 -196.2504
v -63.52847 8.579459 -201.0068
v -65.77425 8.573449 -201.4048
v -63.60352 10.24213 -200.7758
v -65.84932 10.23612 -201.1738
v -64.67095 10.31936 -201.3951
v -64.5959 8.656685 -201.6261
v -64.55232 8.670005 -195.132
v -62.08348 8.837984 -196.3813
v -62.0442 8.650011 -199.093
v -65.10339 10.82722 -195.8922
v -62.63457 10.9952 -197.1414
v -62.59528 10.80722 -199.8532
v -67.44943 8.941478 -199.6687
v -67.66016 9.095953 -196.808
v -65.5159 8.88543 -195.2521
v -67.11621 10.95794 -199.7782
v -67.32695 11.11241 -196.9175
v -65.18267 10.90189 -195.3615
v -67.94536 5.225727 -197.9007
v -67.03513 5.006621 -199.9945
v -64.95117 5.075944 -200.8446
v -67.71642 3.400601 -197.5326
v -66.8062 3.181497 -199.6264
v -64.72218 3.250819 -200.4764
v -66.67302 4.90589 -200.6369
v -64.67281 4.845288 -201.1498
v -62.83791 5.03133 -200.0937
v -66.63824 3.232165 -200.275
v -64.638 3.171563 -200.788
v -62.80309 3.357605 -199.7318
v -64.28995 5.871831 -196.0836
v -66.39995 5.561822 -195.8895
v -67.91928 5.579126 -197.5201
v -64.01366 4.207869 -196.3809
v -66.12361 3.897861 -196.1869
v -67.64297 3.915165 -197.8175
v -61.58746 6.121206 -198.6588
v -62.0788 5.948248 -196.6046
v -63.75676 6.282238 -195.4609
v -62.22128 4.539921 -199.0214
v -62.7126 4.366962 -196.9672
v -64.3906 4.700954 -195.8235
v -63.07973 8.281671 -202.0417
v -62.7625 5.703516 -201.7906
v -65.70782 5.6526 -202.2199
v -66.02508 8.230755 -202.4711
v -64.40871 6.948605 -202.6709
v -67.06644 8.516766 -194.9322
v -66.88422 5.505799 -195.5688
v -63.236 5.951379 -194.9347
v -63.69136 9.194037 -195.1782
v -65.16621 7.184181 -193.9084
v -66.75217 9.69333 -200.3546
v -65.59547 7.947585 -202.3136
v -67.89906 6.481618 -201.3877
v -69.05579 8.227365 -199.4289
v -67.7303 8.438396 -201.1588
v -64.69957 4.546774 -201.175
v -67.28806 4.546774 -199.9547
v -67.536 5.302955 -197.1251
v -65.14922 5.302979 -195.4175
v -62.5607 5.302981 -196.6377
v -62.35904 5.302956 -199.5656
v -64.65227 7.415188 -202.6319
v -68.44208 7.415184 -200.8454
v -68.73735 7.415232 -196.5587
v -65.24275 7.415271 -194.0587
v -61.45294 7.415269 -195.8453
v -61.15767 7.415232 -200.1319
v -64.74585 9.52751 -201.2732
v -67.33434 9.527507 -200.0529
v -67.536 9.527513 -197.1251
v -65.14917 9.527534 -195.4175
v -62.56067 9.52753 -196.6377
v -62.35901 9.527512 -199.5656
v -64.94749 4.322646 -198.3453
v -64.94749 10.50782 -198.3453
v -64.65227 7.415188 -202.6319
v -64.69957 4.546774 -201.175
v -64.74585 9.52751 -201.2732
v -64.94749 4.322646 -198.3453
v -64.94749 4.322646 -198.3453
v -64.94749 4.322646 -198.3453
v -64.94749 4.322646 -198.3453
v -64.94749 4.322646 -198.3453
v -64.94749 10.50782 -198.3453
v -64.94749 10.50782 -198.3453
v -64.94749 10.50782 -198.3453
v -64.94749 10.50782 -198.3453
v -64.94749 10.50782 -198.3453
vt -1.277744 0.5175002
vt -1.129462 0.5175002
vt -1.277744 0.6664862
vt -1.129462 0.6664862
vt -1.481326 0.03697948
vt -1.676161 0.03697948
vt -1.481326 0.1889176
vt -1.676161 0.1889176
vt -1.578743 0.1889176
vt -1.578743 0.03697948
vt -1.323214 0.51732
vt -1.162973 0.51732
vt -1.002731 0.51732
vt -1.323214 0.6775613
vt -1.162973 0.6775613
vt -1.002731 0.6775613
vt -1.00064 0.5163888
vt -1.161353 0.5163888
vt -1.322067 0.5163888
vt -1.00064 0.6756661
vt -1.161353 0.6756661
vt -1.322067 0.6756661
vt -1.008595 0.3589694
vt -1.159004 0.3589694
vt -1.309413 0.3589694
vt -1.008595 0.4947548
vt -1.159004 0.4947548
vt -1.309413 0.4947548
vt -1.006046 0.9196587
vt -1.201672 0.9196588
vt -1.201672 0.7208177
vt -1.006046 0.7208176
vt -1.101068 0.8208752
vt -1.390534 0.2044009
vt -1.196745 0.2044009
vt -1.002955 0.2044009
vt -1.390534 0.3351956
vt -1.196745 0.3351956
vt -1.002955 0.3351956
vt -1.986878 0.03800292
vt -1.830928 0.03800292
vt -1.674978 0.03800292
vt -1.986878 0.1732106
vt -1.830928 0.1732106
vt -1.674978 0.1732106
vt -1.635377 0.5018924
vt -1.491916 0.5018924
vt -1.348456 0.5018924
vt -1.635377 0.6453528
vt -1.491916 0.6453528
vt -1.348456 0.6453528
vt -1.686224 0.2064656
vt -1.561915 0.2064656
vt -1.437605 0.2064656
vt -1.686224 0.3322405
vt -1.561915 0.3322405
vt -1.437605 0.3322405
vt -1.959465 0.2021883
vt -1.825262 0.2021883
vt -1.691058 0.2021883
vt -1.959465 0.3379737
vt -1.825262 0.3379737
vt -1.691058 0.3379737
vt -1.666137 0.3538189
vt -1.497257 0.3538189
vt -1.328378 0.3538189
vt -1.666137 0.4846136
vt -1.497257 0.4846136
vt -1.328378 0.4846136
vt -1.635377 0.5018924
vt -1.491916 0.5018924
vt -1.348456 0.5018924
vt -1.635377 0.6453528
vt -1.491916 0.6453528
vt -1.348456 0.6453528
vt -1.983459 0.03697948
vt -1.831521 0.03697948
vt -1.679583 0.03697948
vt -1.983459 0.1889176
vt -1.831521 0.1889176
vt -1.679583 0.1889176
vt -1.392313 0.2041541
vt -1.197366 0.2041541
vt -1.002417 0.2041541
vt -1.392313 0.3476145
vt -1.197366 0.3476145
vt -1.002417 0.3476145
vt -1.676161 0.03697948
vt -1.481326 0.03697948
vt -1.676161 0.1889176
vt -1.481326 0.1889176
vt -1.578743 0.1889176
vt -1.578743 0.03697948
vt -1.676161 0.03697948
vt -1.481326 0.03697948
vt -1.676161 0.1889176
vt -1.481326 0.1889176
vt -1.578743 0.1889176
vt -1.578743 0.03697948
vt -1.983459 0.03697948
vt -1.831521 0.03697948
vt -1.679583 0.03697948
vt -1.983459 0.1889176
vt -1.831521 0.1889176
vt -1.679583 0.1889176
vt -1.392313 0.2041541
vt -1.197366 0.2041541
vt -1.002417 0.2041541
vt -1.392313 0.3476145
vt -1.197366 0.3476145
vt -1.002417 0.3476145
vt -1.311959 0.3580632
vt -1.162973 0.3580632
vt -1.013987 0.3580632
vt -1.311959 0.5070491
vt -1.162973 0.5070491
vt -1.013987 0.5070491
vt -1.323214 0.51732
vt -1.162973 0.51732
vt -1.002731 0.51732
vt -1.323214 0.6775613
vt -1.162973 0.6775613
vt -1.002731 0.6775613
vt -1.311959 0.3580632
vt -1.162973 0.3580632
vt -1.013987 0.3580632
vt -1.311959 0.5070491
vt -1.162973 0.5070491
vt -1.013987 0.5070491
vt -1.323214 0.51732
vt -1.162973 0.51732
vt -1.002731 0.51732
vt -1.323214 0.6775613
vt -1.162973 0.6775613
vt -1.002731 0.6775613
vt -1.979463 0.6278687
vt -1.979463 0.36494
vt -1.684822 0.36494
vt -1.684822 0.6278687
vt -1.827553 0.4951525
vt -1.980353 0.6302548
vt -1.980353 0.3625724
vt -1.683542 0.3625724
vt -1.683542 0.6302549
vt -1.825049 0.4918143
vt -1.47861 0.9203007
vt -1.47861 0.6944606
vt -1.239956 0.6944605
vt -1.239956 0.9213501
vt -1.357672 0.8064815
vt -1.474331 0.04331862
vt -1.39537 0.04331862
vt -1.316409 0.04331862
vt -1.237447 0.04331862
vt -1.158486 0.04331862
vt -1.079523 0.04331862
vt -1.474331 0.08012509
vt -1.39537 0.08012509
vt -1.316409 0.08012509
vt -1.237447 0.08012509
vt -1.158486 0.08012509
vt -1.079523 0.08012509
vt -1.474331 0.1169312
vt -1.39537 0.1169312
vt -1.316409 0.1169312
vt -1.237447 0.1169312
vt -1.158486 0.1169312
vt -1.079523 0.1169312
vt -1.434852 0.006512524
vt -1.434852 0.1537374
vt -1.003229 0.08012509
vt -1.003229 0.04331862
vt -1.003229 0.1169312
vt -1.35589 0.006512524
vt -1.276927 0.006512524
vt -1.197967 0.006512524
vt -1.119004 0.006512524
vt -1.040042 0.006512524
vt -1.35589 0.1537374
vt -1.276927 0.1537374
vt -1.197967 0.1537374
vt -1.119004 0.1537374
vt -1.040042 0.1537374
vn -0.4699104 -0.2128 -0.8566799
vn -0.4699104 -0.2128 -0.8566799
vn -0.4699104 -0.2128 -0.8566799
vn -0.4699104 -0.2128 -0.8566799
vn 0.3524865 0.303295 0.8853052
vn 0.8836364 0.2305236 0.4074869
vn 0.3524865 0.303295 0.8853052
vn 0.8836364 0.2305236 0.4074869
vn 0.6622249 0.2859812 0.6925842
vn 0.6622249 0.2859812 0.6925842
vn 0.7975865 -0.3478554 0.4928005
vn 0.5363028 -0.3464639 0.7696378
vn 0.1973033 -0.294866 0.9349468
vn 0.7975865 -0.3478554 0.4928005
vn 0.5363028 -0.3464639 0.7696378
vn 0.1973033 -0.294866 0.9349468
vn 0.7658346 -0.07866064 0.6382082
vn 0.594269 -0.2994972 0.746422
vn 0.3692704 -0.4934048 0.7875221
vn 0.7658346 -0.07866064 0.6382082
vn 0.594269 -0.2994972 0.746422
vn 0.3692704 -0.4934048 0.7875221
vn 0.3443259 -0.4384651 0.8301734
vn 0.1212464 -0.1788754 0.9763723
vn -0.1186288 0.1054932 0.9873188
vn 0.3443259 -0.4384651 0.8301734
vn 0.1212464 -0.1788754 0.9763723
vn -0.1186288 0.1054932 0.9873188
vn 0.9312217 -0.2054687 -0.3010129
vn 0.9786167 -0.2015183 0.04123025
vn 0.8255101 -0.5529199 0.1131925
vn 0.7936661 -0.5631974 -0.2300061
vn 0.9136719 -0.3945746 -0.0975429
vn 0.5944837 0.5731915 0.563951
vn 0.8095443 0.3033206 0.5026277
vn 0.925159 -0.0038107 0.3795606
vn 0.5944837 0.5731915 0.563951
vn 0.8095443 0.3033206 0.5026277
vn 0.925159 -0.0038107 0.3795606
vn -0.6534325 0.541882 -0.5285734
vn -0.7583168 0.3231856 -0.5661331
vn -0.8175205 0.08502059 -0.5695892
vn -0.6534325 0.541882 -0.5285734
vn -0.7583168 0.3231856 -0.5661331
vn -0.8175205 0.08502059 -0.5695892
vn -0.1809156 -0.2905713 -0.9395946
vn -0.1318195 0.08565386 -0.9875662
vn -0.06344374 0.4493515 -0.8910993
vn -0.1809156 -0.2905713 -0.9395946
vn -0.1318195 0.08565386 -0.9875662
vn -0.06344374 0.4493515 -0.8910993
vn -0.7099301 0.1990876 -0.6755468
vn -0.5752453 -0.1305548 -0.8074951
vn -0.3576019 -0.4413692 -0.822991
vn -0.7099301 0.1990876 -0.6755468
vn -0.5752453 -0.1305548 -0.8074951
vn -0.3576019 -0.4413692 -0.822991
vn -0.2035627 -0.5887492 0.7822637
vn -0.2598852 -0.2470599 0.9334993
vn -0.2790972 0.1299087 0.951435
vn -0.2035627 -0.5887492 0.7822637
vn -0.2598852 -0.2470599 0.9334993
vn -0.2790972 0.1299087 0.951435
vn 0.6170699 0.4704794 0.6307724
vn 0.6813526 0.1720878 0.7114384
vn 0.6777201 -0.143457 0.7211905
vn 0.6170699 0.4704794 0.6307724
vn 0.6813526 0.1720878 0.7114384
vn 0.6777201 -0.143457 0.7211905
vn 0.1464301 0.5098321 0.8477201
vn 0.103076 0.07056633 0.9921672
vn 0.03748854 -0.3839207 0.9226047
vn 0.1464301 0.5098321 0.8477201
vn 0.103076 0.07056633 0.9921672
vn 0.03748854 -0.3839207 0.9226047
vn -0.4294214 0.3605511 -0.8280097
vn -0.7229856 0.3779487 -0.5783135
vn -0.9089473 0.339096 -0.2425464
vn -0.4294214 0.3605511 -0.8280097
vn -0.7229856 0.3779487 -0.5783135
vn -0.9089473 0.339096 -0.2425464
vn 0.9906024 0.08577117 -0.1065373
vn 0.8087765 0.08787184 -0.5815145
vn 0.4177458 0.06724284 -0.9060723
vn 0.9906024 0.08577117 -0.1065373
vn 0.8087765 0.08787184 -0.5815145
vn 0.4177458 0.06724284 -0.9060723
vn -0.4642787 0.3239245 0.8243289
vn 0.2330936 0.3419135 0.910364
vn -0.4642787 0.3239245 0.8243289
vn 0.2330936 0.3419135 0.910364
vn -0.1234689 0.3556034 0.9264457
vn -0.1234689 0.3556034 0.9264457
vn 0.5044342 0.1411355 -0.8518375
vn -0.1917202 0.1265835 -0.9732522
vn 0.5044342 0.1411355 -0.8518375
vn -0.1917202 0.1265835 -0.9732522
vn 0.1671427 0.1430933 -0.9754935
vn 0.1671427 0.1430933 -0.9754935
vn 0.3936671 0.3933451 0.8308464
vn 0.7932012 0.3724146 0.4818082
vn 0.9691373 0.2465031 -0.003048491
vn 0.3936671 0.3933451 0.8308464
vn 0.7932012 0.3724146 0.4818082
vn 0.9691373 0.2465031 -0.003048491
vn -0.9840735 0.1582167 -0.0810371
vn -0.8928706 0.1701758 0.4169199
vn -0.5727159 0.1384981 0.8079695
vn -0.9840735 0.1582167 -0.0810371
vn -0.8928706 0.1701758 0.4169199
vn -0.5727159 0.1384981 0.8079695
vn -0.9075809 -0.1894197 -0.3747228
vn -0.6861398 -0.2255645 -0.6916159
vn -0.3612538 -0.2277024 -0.9042385
vn -0.9075809 -0.1894197 -0.3747228
vn -0.6861398 -0.2255645 -0.6916159
vn -0.3612538 -0.2277024 -0.9042385
vn -0.2488456 -0.2096122 -0.9455891
vn 0.1381841 -0.2065404 -0.9686311
vn 0.5044402 -0.172419 -0.8460566
vn -0.2488456 -0.2096122 -0.9455891
vn 0.1381841 -0.2065404 -0.9686311
vn 0.5044402 -0.172419 -0.8460566
vn 0.1132137 -0.1565461 0.9811605
vn -0.3342888 -0.2193291 0.9165946
vn -0.7121359 -0.2364108 0.6610389
vn 0.1132137 -0.1565461 0.9811605
vn -0.3342888 -0.2193291 0.9165946
vn -0.7121359 -0.2364108 0.6610389
vn 0.8978601 -0.4013718 0.1809639
vn 0.7386964 -0.4174322 0.5292241
vn 0.4710357 -0.3721816 0.7997538
vn 0.8978601 -0.4013718 0.1809639
vn 0.7386964 -0.4174322 0.5292241
vn 0.4710357 -0.3721816 0.7997538
vn 0.3008969 0.1449371 -0.9425786
vn 0.3053789 -0.2465452 -0.9197603
vn -0.04075722 -0.2917401 -0.9556289
vn -0.04373874 0.09980291 -0.9940454
vn 0.1355257 -0.07620999 -0.9878385
vn -0.3512316 0.2016535 0.9143152
vn -0.3292412 -0.4720341 0.8177922
vn 0.2820363 -0.3133585 0.9067866
vn 0.2572137 0.3741637 0.8909785
vn -0.04234441 -0.05756243 0.9974436
vn -0.4344367 0.7010031 -0.565561
vn -0.3580552 0.4129658 -0.8374102
vn -0.636593 0.143557 -0.7577207
vn -0.7359171 0.4459246 -0.5094873
vn -0.5639124 0.4435139 -0.6966335
vn 0.1420218 -0.8492745 -0.5084905
vn -0.4826242 -0.8492749 -0.2140234
vn -0.5251988 -0.7797033 0.3409238
vn -0.05598586 -0.7995678 0.5979606
vn 0.4968867 -0.7995689 0.3373325
vn 0.5971984 -0.7797045 -0.1881883
vn 0.1003752 0.04286036 -0.9940259
vn -0.8306652 0.04286523 -0.5551197
vn -0.9014815 0.01694755 0.4324858
vn -0.09185725 1.907727E-06 0.9957722
vn 0.8265858 -2.540348E-06 0.5628108
vn 0.9072798 0.01693838 -0.4201863
vn 0.05598186 0.7995707 -0.5979571
vn -0.4968916 0.7995687 -0.3373258
vn -0.5508605 0.7931713 0.2596768
vn -0.05599048 0.7995733 0.5979528
vn 0.4968861 0.7995731 0.3373234
vn 0.5508611 0.7931687 -0.2596837
vn 0.06147446 -0.9895533 0.1304036
vn -2.688902E-06 1 -2.345128E-07
vn 0.1003752 0.04286036 -0.9940259
vn 0.1420218 -0.8492745 -0.5084905
vn 0.05598186 0.7995707 -0.5979571
vn 0.06147446 -0.9895533 0.1304036
vn 0.06147446 -0.9895533 0.1304036
vn 0.06147446 -0.9895533 0.1304036
vn 0.06147446 -0.9895533 0.1304036
vn 0.06147446 -0.9895533 0.1304036
vn -2.688902E-06 1 -2.345128E-07
vn -2.688902E-06 1 -2.345128E-07
vn -2.688902E-06 1 -2.345128E-07
vn -2.688902E-06 1 -2.345128E-07
vn -2.688902E-06 1 -2.345128E-07
g D1_tree03_geo_0
f 1/1/1 4/4/4 3/3/3
f 2/2/2 4/4/4 1/1/1
f 9/9/9 7/7/7 5/5/5
f 10/10/10 9/9/9 5/5/5
f 8/8/8 9/9/9 10/10/10
f 6/6/6 8/8/8 10/10/10
f 12/12/12 13/13/13 16/16/16
f 15/15/15 12/12/12 16/16/16
f 11/11/11 12/12/12 15/15/15
f 14/14/14 11/11/11 15/15/15
f 18/18/18 20/20/20 17/17/17
f 21/21/21 20/20/20 18/18/18
f 22/22/22 21/21/21 18/18/18
f 22/22/22 18/18/18 19/19/19
f 24/24/24 26/26/26 23/23/23
f 27/27/27 26/26/26 24/24/24
f 28/28/28 27/27/27 24/24/24
f 28/28/28 24/24/24 25/25/25
f 35/35/35 37/37/37 34/34/34
f 38/38/38 37/37/37 35/35/35
f 39/39/39 38/38/38 35/35/35
f 39/39/39 35/35/35 36/36/36
f 41/41/41 43/43/43 40/40/40
f 44/44/44 43/43/43 41/41/41
f 45/45/45 44/44/44 41/41/41
f 45/45/45 41/41/41 42/42/42
f 47/47/47 49/49/49 46/46/46
f 50/50/50 49/49/49 47/47/47
f 51/51/51 50/50/50 47/47/47
f 51/51/51 47/47/47 48/48/48
f 53/53/53 55/55/55 52/52/52
f 56/56/56 55/55/55 53/53/53
f 57/57/57 56/56/56 53/53/53
f 57/57/57 53/53/53 54/54/54
f 59/59/59 61/61/61 58/58/58
f 62/62/62 61/61/61 59/59/59
f 63/63/63 62/62/62 59/59/59
f 63/63/63 59/59/59 60/60/60
f 65/65/65 67/67/67 64/64/64
f 68/68/68 67/67/67 65/65/65
f 69/69/69 68/68/68 65/65/65
f 69/69/69 65/65/65 66/66/66
f 71/71/71 73/73/73 70/70/70
f 74/74/74 73/73/73 71/71/71
f 75/75/75 74/74/74 71/71/71
f 75/75/75 71/71/71 72/72/72
f 77/77/77 78/78/78 81/81/81
f 80/80/80 77/77/77 81/81/81
f 76/76/76 77/77/77 80/80/80
f 79/79/79 76/76/76 80/80/80
f 83/83/83 84/84/84 87/87/87
f 86/86/86 83/83/83 87/87/87
f 82/82/82 83/83/83 86/86/86
f 85/85/85 82/82/82 86/86/86
f 92/92/92 90/90/90 88/88/88
f 93/93/93 92/92/92 88/88/88
f 91/91/91 92/92/92 93/93/93
f 89/89/89 91/91/91 93/93/93
f 98/98/98 96/96/96 94/94/94
f 99/99/99 98/98/98 94/94/94
f 97/97/97 98/98/98 99/99/99
f 95/95/95 97/97/97 99/99/99
f 101/101/101 102/102/102 105/105/105
f 104/104/104 101/101/101 105/105/105
f 100/100/100 101/101/101 104/104/104
f 103/103/103 100/100/100 104/104/104
f 107/107/107 108/108/108 111/111/111
f 110/110/110 107/107/107 111/111/111
f 106/106/106 107/107/107 110/110/110
f 109/109/109 106/106/106 110/110/110
f 113/113/113 114/114/114 117/117/117
f 116/116/116 113/113/113 117/117/117
f 112/112/112 113/113/113 116/116/116
f 115/115/115 112/112/112 116/116/116
f 119/119/119 120/120/120 123/123/123
f 122/122/122 119/119/119 123/123/123
f 118/118/118 119/119/119 122/122/122
f 121/121/121 118/118/118 122/122/122
f 125/125/125 126/126/126 129/129/129
f 128/128/128 125/125/125 129/129/129
f 124/124/124 125/125/125 128/128/128
f 127/127/127 124/124/124 128/128/128
f 131/131/131 132/132/132 135/135/135
f 134/134/134 131/131/131 135/135/135
f 130/130/130 131/131/131 134/134/134
f 133/133/133 130/130/130 134/134/134
f 164/164/164 170/170/170 163/163/163
f 157/157/157 164/164/164 163/163/163
f 158/158/158 164/164/164 157/157/157
f 151/151/151 158/158/158 157/157/157
f 152/152/152 158/158/158 151/151/151
f 169/169/169 152/152/152 151/151/151
f 165/165/165 179/179/179 164/164/164
f 158/158/158 165/165/165 164/164/164
f 159/159/159 165/165/165 158/158/158
f 152/152/152 159/159/159 158/158/158
f 153/153/153 159/159/159 152/152/152
f 174/174/174 153/153/153 152/152/152
f 166/166/166 180/180/180 165/165/165
f 159/159/159 166/166/166 165/165/165
f 160/160/160 166/166/166 159/159/159
f 153/153/153 160/160/160 159/159/159
f 154/154/154 160/160/160 153/153/153
f 175/175/175 154/154/154 153/153/153
f 167/167/167 181/181/181 166/166/166
f 160/160/160 167/167/167 166/166/166
f 161/161/161 167/167/167 160/160/160
f 154/154/154 161/161/161 160/160/160
f 155/155/155 161/161/161 154/154/154
f 176/176/176 155/155/155 154/154/154
f 168/168/168 182/182/182 167/167/167
f 161/161/161 168/168/168 167/167/167
f 162/162/162 168/168/168 161/161/161
f 155/155/155 162/162/162 161/161/161
f 156/156/156 162/162/162 155/155/155
f 177/177/177 156/156/156 155/155/155
f 173/173/173 183/183/183 168/168/168
f 162/162/162 173/173/173 168/168/168
f 171/171/171 173/173/173 162/162/162
f 156/156/156 171/171/171 162/162/162
f 172/172/172 171/171/171 156/156/156
f 178/178/178 172/172/172 156/156/156
f 33/33/33 30/30/30 31/31/31
f 29/29/29 30/30/30 33/33/33
f 32/32/32 29/29/29 33/33/33
f 33/33/33 31/31/31 32/32/32
f 140/140/140 137/137/137 138/138/138
f 136/136/136 137/137/137 140/140/140
f 139/139/139 136/136/136 140/140/140
f 140/140/140 138/138/138 139/139/139
f 145/145/145 142/142/142 143/143/143
f 141/141/141 142/142/142 145/145/145
f 144/144/144 141/141/141 145/145/145
f 145/145/145 143/143/143 144/144/144
f 150/150/150 147/147/147 148/148/148
f 146/146/146 147/147/147 150/150/150
f 149/149/149 146/146/146 150/150/150
f 150/150/150 148/148/148 149/149/149
