g D2_checker_geo
v -103.2854 0.9019454 -95.61625
v -106.9353 0.8801411 -95.54018
v -106.0357 0.8886941 -95.52988
v -104.6232 0.9110468 -95.55271
v -103.3128 0.8378624 -95.59039
v -103.2657 0.8378623 -95.5938
v -108.0675 0.7681124 -95.56904
v -108.1674 0.7645589 -95.58408
v -107.6584 0.8571723 -95.56002
v -103.3532 0.7445669 -95.57967
v -104.6238 0.750358 -95.53436
v -106.0352 0.7501471 -95.51865
v -106.9478 0.7469044 -95.52047
v -107.6527 0.7311399 -95.53107
v -108.0532 0.7067057 -95.55767
v -108.1441 0.8374294 -95.60355
v -108.0912 0.8374074 -95.59496
v -104.6235 0.8324637 -95.53984
v -106.0354 0.8209392 -95.52439
v -106.9415 0.8149831 -95.52767
v -107.6556 0.7955375 -95.54586
v -103.2854 0.9019455 -97.53629
v -106.9353 0.8801411 -97.61236
v -106.0357 0.8886941 -97.62266
v -104.6232 0.9110468 -97.59982
v -103.3128 0.8378624 -97.56215
v -103.2657 0.8378624 -97.55873
v -108.0675 0.7681125 -97.5835
v -108.1674 0.764559 -97.56844
v -107.6584 0.8571723 -97.59251
v -103.3532 0.7445668 -97.57287
v -104.6238 0.7503579 -97.61818
v -106.0352 0.7501471 -97.63389
v -106.9478 0.7469044 -97.63205
v -107.6527 0.7311398 -97.62146
v -108.0532 0.7067057 -97.59486
v -108.1441 0.8374295 -97.54898
v -108.0912 0.8374074 -97.55758
v -104.6235 0.8324637 -97.61269
v -106.0354 0.8209392 -97.62814
v -106.9415 0.8149831 -97.62486
v -107.6556 0.7955374 -97.60667
v -106.9415 0.8149831 -95.52767
v -106.9353 0.8801411 -95.54018
v -106.0354 0.8209392 -95.52439
v -106.0357 0.8886941 -95.52988
v -106.0352 0.7501471 -95.51865
v -106.9478 0.7469044 -95.52047
v -104.6235 0.8324637 -95.53984
v -104.6232 0.9110468 -95.55271
v -104.6238 0.750358 -95.53436
v -106.9415 0.8149831 -97.62486
v -106.9353 0.8801411 -97.61236
v -104.6232 0.9110468 -97.59982
v -106.0354 0.8209392 -97.62814
v -104.6235 0.8324637 -97.61269
v -106.0357 0.8886941 -97.62266
v -106.0352 0.7501471 -97.63389
v -106.9478 0.7469044 -97.63205
v -104.6238 0.7503579 -97.61818
vt 10.77643 1
vt -7.371237 1
vt -2.904196 1
vt 4.09174 1
vt 10.6402 0.6413584
vt 10.87404 0.6413584
vt -12.96006 0.4881607
vt -13.45548 0.4881607
vt -10.91583 1
vt 10.43988 0
vt 4.085999 0
vt -2.852354 0
vt -7.279065 0
vt -10.90244 0
vt -12.88885 0
vt -13.30743 1
vt -13.11153 1
vt 4.088933 0.5109605
vt -2.904196 0.5109605
vt -7.395394 0.5109605
vt -10.90928 0.5109605
vt 10.77643 1
vt -7.371237 1
vt -2.904196 1
vt 4.160379 1
vt 10.6402 0.6413584
vt 10.87404 0.6413584
vt -12.96006 0.4881607
vt -13.45548 0.4881607
vt -10.91583 1
vt 10.43988 0
vt 4.085999 0
vt -2.852354 0
vt -7.279065 0
vt -10.90244 0
vt -12.88885 0
vt -13.30743 1
vt -13.11153 1
vt 4.160379 0.5109605
vt -2.904196 0.5109605
vt -7.395394 0.5109605
vt -10.90928 0.5109605
vt -7.297791 0.5109605
vt -7.315713 1
vt -2.855046 0.5109605
vt -2.857622 1
vt -2.904196 0
vt -7.420634 0
vt 4.160379 0.5109605
vt 4.160379 1
vt 4.160379 0
vt -7.297791 0.5109605
vt -7.315713 1
vt 4.09174 1
vt -2.855046 0.5109605
vt 4.088933 0.5109605
vt -2.857622 1
vt -2.904196 0
vt -7.420634 0
vt 4.160379 0
vn 0.05494433 0.3015937 0.9518521
vn -0.02025945 0.1705998 0.9851322
vn 0.001716149 0.1294848 0.9915799
vn 0.02702793 0.1897495 0.9814605
vn 0.04922812 0.2300953 0.9719222
vn 0.06777012 0.3482431 0.9349514
vn -0.1022774 0.2572853 0.9609077
vn -0.1526323 0.3002874 0.9415577
vn -0.05670377 0.2418115 0.968665
vn 0.03699096 0.08345475 0.9958248
vn 0.02384733 0.07835763 0.9966401
vn 0.003721622 0.08312122 0.9965324
vn -0.01368345 0.1287503 0.9915827
vn -0.04822086 0.1789833 0.9826697
vn -0.07231129 0.1934876 0.9784343
vn -0.1526323 0.3002874 0.9415577
vn -0.1170691 0.2886984 0.9502358
vn 0.02547619 0.1342045 0.9906261
vn 0.002719622 0.1063321 0.994327
vn -0.01697529 0.149709 0.9885844
vn -0.05248878 0.2104994 0.9761839
vn 0.05490837 0.3015949 -0.9518538
vn -0.02026363 0.1706007 -0.9851318
vn 0.001711461 0.1294853 -0.9915799
vn 0.02702719 0.1897513 -0.9814602
vn 0.04920403 0.2300962 -0.9719232
vn 0.06769049 0.3482434 -0.934957
vn -0.1022528 0.2572472 -0.9609205
vn -0.1525332 0.3001838 -0.9416068
vn -0.05672127 0.2418105 -0.9686642
vn 0.03699095 0.08345472 -0.9958248
vn 0.02384958 0.0783576 -0.99664
vn 0.00371307 0.08305186 -0.9965383
vn -0.01368018 0.128611 -0.9916008
vn -0.04820686 0.1789119 -0.9826834
vn -0.0723113 0.1934839 -0.9784349
vn -0.1525332 0.3001838 -0.9416068
vn -0.1170325 0.2886437 -0.9502569
vn 0.02547695 0.1342054 -0.990626
vn 0.002713002 0.1062977 -0.9943306
vn -0.01697577 0.1496401 -0.9885948
vn -0.05249058 0.2104635 -0.9761915
vn -0.01697529 0.149709 0.9885844
vn -0.02025945 0.1705998 0.9851322
vn 0.002719622 0.1063321 0.994327
vn 0.001716149 0.1294848 0.9915799
vn 0.003721622 0.08312122 0.9965324
vn -0.01368345 0.1287503 0.9915827
vn 0.02547619 0.1342045 0.9906261
vn 0.02702793 0.1897495 0.9814605
vn 0.02384733 0.07835763 0.9966401
vn -0.01697577 0.1496401 -0.9885948
vn -0.02026363 0.1706007 -0.9851318
vn 0.02702719 0.1897513 -0.9814602
vn 0.002713002 0.1062977 -0.9943306
vn 0.02547695 0.1342054 -0.990626
vn 0.001711461 0.1294853 -0.9915799
vn 0.00371307 0.08305186 -0.9965383
vn -0.01368018 0.128611 -0.9916008
vn 0.02384958 0.0783576 -0.99664
g D2_checker_geo_0
f 9/9/9 20/20/20 2/2/2
f 21/21/21 20/20/20 9/9/9
f 7/7/7 21/21/21 9/9/9
f 14/14/14 21/21/21 7/7/7
f 15/15/15 14/14/14 7/7/7
f 43/43/43 3/3/3 44/44/44
f 19/19/19 3/3/3 43/43/43
f 47/47/47 19/19/19 43/43/43
f 1/1/1 5/5/5 6/6/6
f 49/49/49 5/5/5 1/1/1
f 50/50/50 49/49/49 1/1/1
f 18/18/18 12/12/12 11/11/11
f 45/45/45 12/12/12 18/18/18
f 4/4/4 45/45/45 18/18/18
f 46/46/46 45/45/45 4/4/4
f 17/17/17 7/7/7 9/9/9
f 8/8/8 7/7/7 17/17/17
f 16/16/16 8/8/8 17/17/17
f 47/47/47 43/43/43 13/13/13
f 5/5/5 51/51/51 10/10/10
f 49/49/49 51/51/51 5/5/5
f 28/28/28 35/35/35 36/36/36
f 42/42/42 35/35/35 28/28/28
f 30/30/30 42/42/42 28/28/28
f 41/41/41 42/42/42 30/30/30
f 23/23/23 41/41/41 30/30/30
f 52/52/52 40/40/40 58/58/58
f 24/24/24 40/40/40 52/52/52
f 53/53/53 24/24/24 52/52/52
f 26/26/26 22/22/22 27/27/27
f 25/25/25 22/22/22 26/26/26
f 39/39/39 25/25/25 26/26/26
f 56/56/56 32/32/32 33/33/33
f 55/55/55 56/56/56 33/33/33
f 54/54/54 56/56/56 55/55/55
f 57/57/57 54/54/54 55/55/55
f 38/38/38 29/29/29 37/37/37
f 28/28/28 29/29/29 38/38/38
f 30/30/30 28/28/28 38/38/38
f 34/34/34 52/52/52 58/58/58
f 39/39/39 31/31/31 60/60/60
f 26/26/26 31/31/31 39/39/39
f 48/48/48 21/21/21 14/14/14
f 20/20/20 21/21/21 48/48/48
f 59/59/59 42/42/42 41/41/41
f 35/35/35 42/42/42 59/59/59
