g D2_collisionInvisible_geo
v -197.3617 -0.1288885 -151.9747
v -197.3617 19.87111 -151.9747
v -167.9171 -0.1288873 -151.7985
v -167.9171 19.87111 -151.7985
v -154.5918 -0.1288873 -148.4086
v -154.5918 19.87111 -148.4086
v -144.7918 -0.1288879 -150.1292
v -144.7918 19.87111 -150.1292
v -128.3722 -0.1288873 -173.7495
v -128.3722 19.87111 -173.7495
v -144.0652 0.1342468 -184.3207
v -144.0652 20.13425 -184.3207
v -127.7675 0.1265316 -191.8326
v -127.7675 20.12653 -191.8326
v -167.9555 19.87111 -146.2526
v -167.9555 -0.1288873 -146.2526
v -140.8522 19.51074 -192.5516
v -140.8522 -0.4892621 -192.5516
v -156.338 19.87111 -146.4191
v -156.338 -0.1288873 -146.4191
v -143.8312 19.87111 -150.9712
v -143.8312 -0.1288879 -150.9712
v -146.1763 19.87111 -149.6064
v -146.1763 -0.1288878 -149.6064
v -127.7675 0.8006293 -191.8326
v -140.8522 0.1848355 -192.5516
v -144.0652 0.8083445 -184.3207
v -128.3722 0.5452103 -173.7495
v -143.8312 0.5452096 -150.9712
v -144.7917 0.5452097 -150.1292
v -146.1763 0.5452097 -149.6064
v -154.5918 0.5452103 -148.4086
v -156.338 0.5452102 -146.4191
v -167.9555 0.5452102 -146.2526
v -167.9171 0.5452103 -151.7985
v -197.3617 0.5452091 -151.9747
vt 0.009305123 0.9919356
vt 0.009305123 0.9919356
vt 0.009305123 0.9919356
vt 0.009305123 0.9919356
vt 0.009305123 0.9919356
vt 0.009305123 0.9919356
vt 0.009305123 0.9919356
vt 0.009305123 0.9919356
vt 0.009305123 0.9919356
vt 0.009305123 0.9919356
vt 0.009305123 0.9919356
vt 0.009305123 0.9919356
vt 0.009305123 0.9919356
vt 0.009305123 0.9919356
vt 0.009305123 0.9919356
vt 0.009305123 0.9919356
vt 0.009305123 0.9919356
vt 0.009305123 0.9919356
vt 0.009305123 0.9919356
vt 0.009305123 0.9919356
vt 0.009305123 0.9919356
vt 0.009305123 0.9919356
vt 0.009305123 0.9919356
vt 0.009305123 0.9919356
vt 0.009305123 0.9919356
vt 0.009305123 0.9919356
vt 0.009305123 0.9919356
vt 0.009305123 0.9919356
vt 0.009305123 0.9919356
vt 0.009305123 0.9919356
vt 0.009305123 0.9919356
vt 0.009305123 0.9919356
vt 0.009305123 0.9919356
vt 0.009305123 0.9919356
vt 0.009305123 0.9919356
vt 0.009305123 0.9919356
vn -0.005983641 0 0.9999821
vn -0.005983613 0 0.9999821
vn -0.7116604 0 0.7025236
vn -0.7116604 0 0.7025235
vn 0.4758248 0 0.87954
vn 0.475827 0 0.8795388
vn 0.5144875 -1.056004E-05 0.8574978
vn 0.5144831 3.683416E-07 0.8575004
vn 0.9818409 0 -0.1897063
vn 0.9818408 0 -0.1897068
vn 0.9544718 0 -0.2983012
vn 0.9544719 0 -0.298301
vn -0.05486694 0 0.9984937
vn -0.0548652 0 0.9984938
vn -0.7044893 0 0.7097145
vn -0.7044892 0 0.7097147
vn 0.5412024 0 0.8408923
vn 0.5412019 0 0.8408927
vn 0.4190295 0 0.9079727
vn 0.4190274 0 0.9079736
vn 0.7493971 2.552411E-07 0.6621209
vn 0.7493999 -7.317517E-06 0.6621176
vn 0.2485756 1.099211E-07 0.9686124
vn 0.248576 -3.15136E-06 0.9686124
vn -0.05486608 0 0.9984938
vn 0.5412022 0 0.8408925
vn 0.9544718 0 -0.2983011
vn 0.9818409 0 -0.1897065
vn 0.7493985 -3.53114E-06 0.6621193
vn 0.5144854 -5.095848E-06 0.8574991
vn 0.2485758 -1.520719E-06 0.9686124
vn 0.4758259 0 0.8795395
vn 0.4190284 0 0.9079731
vn -0.7044893 0 0.7097146
vn -0.7116604 0 0.7025235
vn -0.005983626 0 0.9999821
g D2_collisionInvisible_geo_0
f 35/35/35 36/36/36 1/1/1
f 4/4/4 36/36/36 35/35/35
f 34/34/34 4/4/4 35/35/35
f 15/15/15 4/4/4 34/34/34
f 33/33/33 15/15/15 34/34/34
f 19/19/19 15/15/15 33/33/33
f 32/32/32 19/19/19 33/33/33
f 6/6/6 19/19/19 32/32/32
f 31/31/31 6/6/6 32/32/32
f 23/23/23 6/6/6 31/31/31
f 30/30/30 23/23/23 31/31/31
f 8/8/8 23/23/23 30/30/30
f 29/29/29 8/8/8 30/30/30
f 21/21/21 8/8/8 29/29/29
f 28/28/28 21/21/21 29/29/29
f 10/10/10 21/21/21 28/28/28
f 27/27/27 10/10/10 28/28/28
f 12/12/12 10/10/10 27/27/27
f 26/26/26 12/12/12 27/27/27
f 17/17/17 12/12/12 26/26/26
f 25/25/25 17/17/17 26/26/26
f 14/14/14 17/17/17 25/25/25
f 36/36/36 4/4/4 2/2/2
f 26/26/26 13/13/13 25/25/25
f 18/18/18 13/13/13 26/26/26
f 27/27/27 18/18/18 26/26/26
f 11/11/11 18/18/18 27/27/27
f 28/28/28 11/11/11 27/27/27
f 9/9/9 11/11/11 28/28/28
f 29/29/29 9/9/9 28/28/28
f 22/22/22 9/9/9 29/29/29
f 30/30/30 22/22/22 29/29/29
f 7/7/7 22/22/22 30/30/30
f 31/31/31 7/7/7 30/30/30
f 24/24/24 7/7/7 31/31/31
f 32/32/32 24/24/24 31/31/31
f 5/5/5 24/24/24 32/32/32
f 33/33/33 5/5/5 32/32/32
f 20/20/20 5/5/5 33/33/33
f 34/34/34 20/20/20 33/33/33
f 16/16/16 20/20/20 34/34/34
f 35/35/35 16/16/16 34/34/34
f 3/3/3 16/16/16 35/35/35
f 1/1/1 3/3/3 35/35/35
