g D2_detailGarbage_geo
v -156.2145 0.6732768 -126.0027
v -156.2723 0.6732767 -125.9449
v -156.2935 0.6732772 -125.8659
v -156.2723 0.6732772 -125.7869
v -156.2145 0.6732772 -125.7291
v -156.1355 0.6732772 -125.7079
v -156.0565 0.6732773 -125.7291
v -155.9987 0.6732773 -125.7869
v -155.9775 0.6732772 -125.866
v -155.9987 0.6732771 -125.9449
v -156.0565 0.6732772 -126.0027
v -156.1355 0.6732772 -126.0239
v -156.1355 0.1250861 -125.7081
v -156.2144 0.1250861 -125.7293
v -156.2721 0.1250862 -125.787
v -156.2933 0.1250861 -125.8659
v -156.2722 0.1250858 -125.9448
v -156.2144 0.1250858 -126.0026
v -156.1355 0.1250861 -126.0237
v -156.0566 0.1250861 -126.0026
v -155.9988 0.1250861 -125.9448
v -155.9778 0.1250862 -125.866
v -155.9989 0.1250862 -125.7871
v -156.0567 0.1250862 -125.7293
v -99.94644 0.6888448 -109.9959
v -100.0044 0.6888447 -109.938
v -100.0256 0.688845 -109.8588
v -100.0044 0.688845 -109.7797
v -99.94644 0.6888451 -109.7218
v -99.8673 0.6888451 -109.7005
v -99.78814 0.688845 -109.7218
v -99.73021 0.6888451 -109.7797
v -99.70898 0.688845 -109.8588
v -99.73021 0.688845 -109.938
v -99.78816 0.6888452 -109.996
v -99.8673 0.6888453 -110.0172
v -99.8673 0.1479831 -109.6953
v -99.94637 0.1501976 -109.7164
v -100.0042 0.1562497 -109.7739
v -100.0254 0.1645168 -109.8525
v -100.0042 0.1727824 -109.9311
v -99.94637 0.1788338 -109.9887
v -99.8673 0.1810494 -110.0097
v -99.78826 0.1788342 -109.9887
v -99.73037 0.1727827 -109.9311
v -99.7092 0.1645167 -109.8525
v -99.73037 0.1562497 -109.7739
v -99.78826 0.1501975 -109.7163
v -156.2145 0.6732768 -126.0027
v -156.2144 0.1250858 -126.0026
v -99.94644 0.6888448 -109.9959
v -99.94637 0.1788338 -109.9887
vt 0.3310535 0.7786525
vt 0.3310535 0.7786525
vt 0.3310535 0.7786525
vt 0.3310535 0.7786525
vt 0.3310535 0.7786525
vt 0.3310535 0.7786525
vt 0.3310535 0.7786525
vt 0.3310535 0.7786525
vt 0.3310535 0.7786525
vt 0.3310535 0.7786525
vt 0.3310535 0.7786525
vt 0.3310535 0.7786525
vt 0.3310535 0.7786525
vt 0.3310535 0.7786525
vt 0.3310535 0.7786525
vt 0.3310535 0.7786525
vt 0.3310535 0.7786525
vt 0.3310535 0.7786525
vt 0.3310535 0.7786525
vt 0.3310535 0.7786525
vt 0.3310535 0.7786525
vt 0.3310535 0.7786525
vt 0.3310535 0.7786525
vt 0.3310535 0.7786525
vt 0.3310535 0.7786525
vt 0.3310535 0.7786525
vt 0.3310535 0.7786525
vt 0.3310535 0.7786525
vt 0.3310535 0.7786525
vt 0.3310535 0.7786525
vt 0.3310535 0.7786525
vt 0.3310535 0.7786525
vt 0.3310535 0.7786525
vt 0.3310535 0.7786525
vt 0.3310535 0.7786525
vt 0.3310535 0.7786525
vt 0.3310535 0.7786525
vt 0.3310535 0.7786525
vt 0.3310535 0.7786525
vt 0.3310535 0.7786525
vt 0.3310535 0.7786525
vt 0.3310535 0.7786525
vt 0.3310535 0.7786525
vt 0.3310535 0.7786525
vt 0.3310535 0.7786525
vt 0.3310535 0.7786525
vt 0.3310535 0.7786525
vt 0.3310535 0.7786525
vt 0.3310535 0.7786525
vt 0.3310535 0.7786525
vt 0.3310535 0.7786525
vt 0.3310535 0.7786525
vn -0.4997074 -0.0003385693 -0.8661942
vn -0.8659164 -0.0003404329 -0.5001887
vn -0.9999999 -0.0003517113 0.0002488681
vn -0.8659011 -0.0003883703 0.5002152
vn -0.5003046 -0.0004319165 0.8658494
vn 0.0002665969 -0.000433165 0.9999999
vn 0.5005294 -0.0004231123 0.8657195
vn 0.8660184 -0.0004289479 0.500012
vn 0.9999999 -0.0004043761 0.0002128955
vn 0.8660614 -0.000362595 -0.4999375
vn 0.4998924 -0.000342439 -0.8660875
vn 0.0001291487 -0.0003388469 -1
vn 0.0002665969 -0.000433165 0.9999999
vn -0.5003046 -0.0004319165 0.8658494
vn -0.8659011 -0.0003883703 0.5002152
vn -0.9999999 -0.0003517113 0.0002488681
vn -0.8659164 -0.0003404329 -0.5001887
vn -0.4997074 -0.0003385693 -0.8661942
vn 0.0001291487 -0.0003388469 -1
vn 0.4998924 -0.000342439 -0.8660875
vn 0.8660614 -0.000362595 -0.4999375
vn 0.9999999 -0.0004043761 0.0002128955
vn 0.8660184 -0.0004289479 0.500012
vn 0.5005294 -0.0004231123 0.8657195
vn -0.4988315 -0.01234821 -0.8666111
vn -0.865373 -0.00702018 -0.5010793
vn -0.9999999 -0.0005230397 0.0001608894
vn -0.8653798 0.005107723 0.5010905
vn -0.4992007 0.00865354 0.8664432
vn -6.822777E-05 0.009824531 0.9999517
vn 0.499149 0.008656049 0.8664728
vn 0.865384 0.005106459 0.5010831
vn 0.9999999 -0.0005112691 -3.107778E-05
vn 0.8653509 -0.006999839 -0.5011175
vn 0.4988475 -0.01234325 -0.8666018
vn -0.0001295711 -0.01443309 -0.9998958
vn -6.822777E-05 0.009824531 0.9999517
vn -0.4992007 0.00865354 0.8664432
vn -0.8653798 0.005107723 0.5010905
vn -0.9999999 -0.0005230397 0.0001608894
vn -0.865373 -0.00702018 -0.5010793
vn -0.4988315 -0.01234821 -0.8666111
vn -0.0001295711 -0.01443309 -0.9998958
vn 0.4988475 -0.01234325 -0.8666018
vn 0.8653509 -0.006999839 -0.5011175
vn 0.9999999 -0.0005112691 -3.107778E-05
vn 0.865384 0.005106459 0.5010831
vn 0.499149 0.008656049 0.8664728
vn -0.4997074 -0.0003385693 -0.8661942
vn -0.4997074 -0.0003385693 -0.8661942
vn -0.4988315 -0.01234821 -0.8666111
vn -0.4988315 -0.01234821 -0.8666111
g D2_detailGarbage_geo_0
f 19/19/19 50/50/50 49/49/49
f 12/12/12 19/19/19 49/49/49
f 20/20/20 19/19/19 12/12/12
f 11/11/11 20/20/20 12/12/12
f 21/21/21 20/20/20 11/11/11
f 10/10/10 21/21/21 11/11/11
f 22/22/22 21/21/21 10/10/10
f 9/9/9 22/22/22 10/10/10
f 23/23/23 22/22/22 9/9/9
f 8/8/8 23/23/23 9/9/9
f 24/24/24 23/23/23 8/8/8
f 7/7/7 24/24/24 8/8/8
f 13/13/13 24/24/24 7/7/7
f 6/6/6 13/13/13 7/7/7
f 14/14/14 13/13/13 6/6/6
f 5/5/5 14/14/14 6/6/6
f 15/15/15 14/14/14 5/5/5
f 4/4/4 15/15/15 5/5/5
f 16/16/16 15/15/15 4/4/4
f 3/3/3 16/16/16 4/4/4
f 17/17/17 16/16/16 3/3/3
f 2/2/2 17/17/17 3/3/3
f 18/18/18 17/17/17 2/2/2
f 1/1/1 18/18/18 2/2/2
f 43/43/43 52/52/52 51/51/51
f 36/36/36 43/43/43 51/51/51
f 44/44/44 43/43/43 36/36/36
f 35/35/35 44/44/44 36/36/36
f 45/45/45 44/44/44 35/35/35
f 34/34/34 45/45/45 35/35/35
f 46/46/46 45/45/45 34/34/34
f 33/33/33 46/46/46 34/34/34
f 47/47/47 46/46/46 33/33/33
f 32/32/32 47/47/47 33/33/33
f 48/48/48 47/47/47 32/32/32
f 31/31/31 48/48/48 32/32/32
f 37/37/37 48/48/48 31/31/31
f 30/30/30 37/37/37 31/31/31
f 38/38/38 37/37/37 30/30/30
f 29/29/29 38/38/38 30/30/30
f 39/39/39 38/38/38 29/29/29
f 28/28/28 39/39/39 29/29/29
f 40/40/40 39/39/39 28/28/28
f 27/27/27 40/40/40 28/28/28
f 41/41/41 40/40/40 27/27/27
f 26/26/26 41/41/41 27/27/27
f 42/42/42 41/41/41 26/26/26
f 25/25/25 42/42/42 26/26/26
