g D2_detailGravel_geo
v -65.01009 1.363047 -159.4648
v -86.07366 1.349985 -160.6105
v -94.09975 1.253677 -159.4091
v -99.30926 1.252256 -157.9408
v -104.9882 1.26008 -157.5829
v -107.0472 0.4085805 -157.8701
v -109.1795 -3.23534E-06 -158.7661
v -110.6527 -2.188682E-06 -156.8168
v -107.8026 0.4346614 -155.6421
v -105.4557 1.26008 -155.4151
v -98.64905 1.251373 -156.2098
v -93.69982 1.253677 -157.3807
v -85.74244 1.331912 -158.3854
v -65.49993 1.339898 -157.0426
v -108.4637 0.09222916 -158.3439
v -109.2657 0.1685888 -156.0377
v -65.01477 1.365214 -159.4433
v -86.0685 1.354447 -160.5832
v -94.09351 1.253677 -159.3921
v -99.30305 1.252309 -157.9236
v -65.49546 1.339898 -157.0667
v -85.74602 1.332375 -158.4105
v -93.70409 1.253677 -157.4065
v -98.6564 1.251286 -156.2326
v -109.1768 0.005496221 -158.7491
v -108.4708 0.09448277 -158.3275
v -107.0547 0.4084378 -157.8492
v -104.9887 1.26008 -157.5597
v -110.636 0.007637143 -156.8253
v -109.2634 0.1668446 -156.0599
v -107.7922 0.4347718 -155.6612
v -105.4482 1.26008 -155.4404
v -111.1815 -0.0001264936 -83.01866
v -115.2468 1.828949E-05 -82.69395
v -115.9739 0.0001447782 -80.72911
v -115.1705 0.0001264989 -78.69813
v -110.8745 -1.828478E-05 -78.62965
v -109.9975 -0.0001447783 -80.72914
v -111.6527 0.06889448 -82.35308
v -114.7758 0.06893791 -82.02837
v -115.489 0.06897606 -80.72907
v -114.6995 0.06897043 -79.36361
v -111.3456 0.08697086 -79.29514
v -110.9398 0.06888895 -80.7291
v -112.0771 0.1359646 -80.72909
v -114.3517 0.1373662 -80.72908
v -113.2143 -5.410442E-05 -83.08009
v -113.2144 0.1254908 -82.41452
v -113.2144 0.0689325 -80.72908
v -113.2144 0.06894872 -79.12235
v -113.2143 5.410436E-05 -78.45687
v -115.2326 0.008090853 -82.67391
v -113.2143 0.01202779 -83.06007
v -111.1956 0.007947349 -82.99864
v -110.0259 0.007929222 -80.72914
v -110.8886 0.009333132 -78.64968
v -113.2143 0.008126355 -78.4769
v -115.1564 0.008198111 -78.71815
v -115.9593 0.008216238 -80.72911
v -67.34257 1.47953 -169.765
v -71.4079 1.479675 -169.4403
v -72.13503 1.479801 -167.4755
v -71.33163 1.479783 -165.4445
v -67.03555 1.479638 -165.376
v -66.15862 1.479511 -167.4755
v -67.81376 1.747855 -169.0995
v -70.93692 1.747957 -168.7748
v -71.65007 1.748047 -167.4754
v -70.86064 1.748034 -166.11
v -67.50673 1.790422 -166.0415
v -67.1009 1.747842 -167.4755
v -68.23819 1.905795 -167.4755
v -70.51277 1.909095 -167.4754
v -69.37537 1.479602 -169.8265
v -69.37547 1.88113 -169.1609
v -69.37548 1.747944 -167.4755
v -69.37549 1.747983 -165.8687
v -69.37539 1.47971 -165.2033
v -71.39372 1.487747 -169.4203
v -69.37537 1.491684 -169.8064
v -67.35674 1.487604 -169.745
v -66.18699 1.487586 -167.4755
v -67.04972 1.488989 -165.3961
v -69.3754 1.487783 -165.2233
v -71.31746 1.487854 -165.4645
v -72.12044 1.487873 -167.4755
v -73.76457 1.320154 -157.1022
v -78.90535 1.320314 -156.9953
v -79.08817 1.320392 -156.3486
v -78.82914 1.32035 -155.6803
v -73.56021 1.320183 -155.6578
v -73.43199 1.320103 -156.3488
v -74.23578 1.494894 -156.8832
v -78.43439 1.49501 -156.7763
v -78.60323 1.49507 -156.3486
v -78.35816 1.495037 -155.8993
v -74.0314 1.522583 -155.8768
v -74.05406 1.49486 -156.3487
v -75.19134 1.59774 -156.3487
v -77.46592 1.599928 -156.3487
v -76.32848 1.320236 -157.1224
v -76.32859 1.581712 -156.9034
v -76.32864 1.494965 -156.3487
v -76.32867 1.494976 -155.8199
v -76.32859 1.320268 -155.6009
v -76.32848 1.330603 -157.1137
v -73.78324 1.327082 -157.0936
v -73.45664 1.327031 -156.3488
v -73.57889 1.328207 -155.6665
v -76.32859 1.327194 -155.6096
v -78.81047 1.327276 -155.6889
v -79.06895 1.327318 -156.3486
v -78.88668 1.32724 -156.9866
v -79.52127 -9.746702E-05 -194.105
v -73.10558 6.262426E-05 -194.2119
v -72.92278 0.0001407985 -194.8586
v -73.18179 9.834482E-05 -195.527
v -79.72562 -6.892907E-05 -195.5494
v -79.85385 -0.0001485035 -194.8585
v -78.67809 0.1746422 -194.2541
v -73.57655 0.1747587 -194.431
v -73.65277 0.174785 -195.3079
v -79.25443 0.2023316 -195.3304
v -79.23178 0.1746081 -194.8585
v -78.09449 0.2774884 -194.8585
v -74.54502 0.4122111 -194.8586
v -76.95737 -1.554655E-05 -194.0848
v -76.95724 0.2614599 -194.3039
v -76.95721 0.1747132 -194.8585
v -76.95717 0.1747246 -195.3873
v -76.95724 1.620563E-05 -195.6063
v -76.95737 0.01035104 -194.0935
v -79.50259 0.006830343 -194.1137
v -79.8292 0.006779978 -194.8585
v -79.70695 0.007955536 -195.5407
v -76.95724 0.006942773 -195.5977
v -73.20047 0.007024054 -195.5183
v -73.12426 0.006988707 -194.2206
v -70.60299 6.262426E-05 -194.2119
v -70.42017 0.0001407985 -194.8586
v -70.43939 0.007066146 -194.8586
v -70.62166 0.006988707 -194.2206
v -70.6792 9.834482E-05 -195.527
v -70.69787 0.007024054 -195.5183
v -71.19772 0.1747587 -194.431
v -72.16619 0.279676 -194.8586
v -71.02888 0.2798313 -194.8586
v -71.27395 0.174785 -195.3079
v -98.6564 1.251286 -156.2326
v -99.30305 1.252309 -157.9236
v -65.49546 1.339898 -157.0667
v -86.0685 1.354447 -160.5832
v -65.01477 1.365214 -159.4433
v -85.74602 1.332375 -158.4105
v -93.70409 1.253677 -157.4065
v -94.09351 1.253677 -159.3921
v -104.9887 1.26008 -157.5597
v -109.1768 0.005496221 -158.7491
v -108.4708 0.09448277 -158.3275
v -107.0547 0.4084378 -157.8492
v -110.636 0.007637143 -156.8253
v -109.2634 0.1668446 -156.0599
v -107.7922 0.4347718 -155.6612
v -105.4482 1.26008 -155.4404
v -109.1768 0.005496221 -158.7491
v -110.6527 -2.188682E-06 -156.8168
v -109.1795 -3.23534E-06 -158.7661
v -110.636 0.007637143 -156.8253
v -113.2143 0.01202779 -83.06007
v -115.2326 0.008090853 -82.67391
v -111.1956 0.007947349 -82.99864
v -110.0259 0.007929222 -80.72914
v -110.8886 0.009333132 -78.64968
v -113.2143 0.008126355 -78.4769
v -115.1564 0.008198111 -78.71815
v -115.9593 0.008216238 -80.72911
v -69.37537 1.491684 -169.8064
v -71.39372 1.487747 -169.4203
v -67.35674 1.487604 -169.745
v -66.18699 1.487586 -167.4755
v -67.04972 1.488989 -165.3961
v -69.3754 1.487783 -165.2233
v -71.31746 1.487854 -165.4645
v -72.12044 1.487873 -167.4755
v -73.78324 1.327082 -157.0936
v -76.32848 1.330603 -157.1137
v -73.45664 1.327031 -156.3488
v -73.57889 1.328207 -155.6665
v -76.32859 1.327194 -155.6096
v -78.81047 1.327276 -155.6889
v -79.06895 1.327318 -156.3486
v -78.88668 1.32724 -156.9866
v -79.50259 0.006830343 -194.1137
v -76.95737 0.01035104 -194.0935
v -79.8292 0.006779978 -194.8585
v -79.70695 0.007955536 -195.5407
v -76.95724 0.006942773 -195.5977
v -73.20047 0.007024054 -195.5183
v -70.43939 0.007066146 -194.8586
v -70.69787 0.007024054 -195.5183
v -70.62166 0.006988707 -194.2206
v -73.12426 0.006988707 -194.2206
vt 3.837049E-07 1
vt 6.332994E-07 1
vt 3.688037E-07 1
vt 6.402843E-09 1
vt 7.450581E-09 1
vt 0 1
vt 0 1
vt 0 1
vt 0 1
vt 0 1
vt -3.72529E-08 1
vt 3.278255E-07 0.9999998
vt 5.364418E-07 1
vt 1.341105E-07 1
vt 0 1
vt 0 1
vt 3.762543E-07 1
vt 6.332994E-07 1
vt 3.650784E-07 1
vt 0.7852759 0.8811167
vt 1.490116E-07 1
vt 5.51343E-07 1
vt 3.278255E-07 1
vt 0.785276 0.8811167
vt 0 1
vt 0 1
vt 0 1
vt 0.7852759 0.8811167
vt 0.785276 0.8811167
vt 0.785276 0.8811167
vt 0.785276 0.8811167
vt 0.785276 0.8811167
vt 0 1
vt 0 1
vt 2.980232E-08 1
vt 2.980232E-08 1
vt 2.980232E-08 1
vt 2.980232E-08 1
vt 0.2437157 0.8265623
vt 0.2437157 0.8265623
vt 0.2437157 0.8265625
vt 0.2437157 0.8265623
vt 0.2437157 0.8265625
vt 0.2437157 0.8265623
vt 0.2437157 0.8335409
vt 0.2437157 0.8335409
vt 0 1
vt 0.2437157 0.8265625
vt 0.2437157 0.833541
vt 0.2437157 0.8265625
vt 0 1
vt 0 1
vt 0 1
vt 0 1
vt 0 1
vt 0 1
vt 0 1
vt 0 1
vt 0 1
vt 0 1
vt 0 1
vt 2.980232E-08 1
vt 2.980232E-08 1
vt 2.980232E-08 1
vt 2.980232E-08 1
vt 0.2437157 0.8265623
vt 0.2437157 0.8265623
vt 0.2437157 0.8265625
vt 0.2437157 0.8265623
vt 0.2437157 0.8265625
vt 0.2437157 0.8265623
vt 0.2437157 0.8335409
vt 0.2437157 0.8335409
vt 0 1
vt 0.2437157 0.8265625
vt 0.2437157 0.833541
vt 0.2437157 0.8265625
vt 0 1
vt 0 1
vt 0 1
vt 0 1
vt 0 1
vt 0 1
vt 0 1
vt 0 1
vt 0 1
vt 0 1
vt 0 1
vt 2.980232E-08 1
vt 2.980232E-08 1
vt 2.980232E-08 1
vt 2.980232E-08 1
vt 0.2437157 0.8265623
vt 0.2437157 0.8265623
vt 0.2437157 0.8265625
vt 0.2437157 0.8265623
vt 0.2437157 0.8265625
vt 0.2437157 0.8265623
vt 0.2437157 0.8335409
vt 0.2437157 0.8335409
vt 0 1
vt 0.2437157 0.8265625
vt 0.2437157 0.833541
vt 0.2437157 0.8265625
vt 0 1
vt 0 1
vt 0 1
vt 0 1
vt 0 1
vt 0 1
vt 0 1
vt 0 1
vt 0 1
vt 0 1
vt 2.980232E-08 1
vt 2.980232E-08 1
vt 0 1
vt 2.980232E-08 1
vt 2.980232E-08 1
vt 0.2437157 0.8265623
vt 0.2437157 0.8265625
vt 0.2437157 0.8265625
vt 0.2437157 0.8265625
vt 0.2437157 0.8265623
vt 0.2437157 0.8335409
vt 0.2437157 0.833541
vt 0 1
vt 0.2437157 0.8265625
vt 0.2437157 0.833541
vt 0.2437157 0.8265625
vt 0 1
vt 0 1
vt 0 1
vt 0 1
vt 0 1
vt 0 1
vt 0 1
vt 0 1
vt 0 1
vt 2.980232E-08 1
vt 0 1
vt 0 1
vt 2.980232E-08 1
vt 0 1
vt 0.2437157 0.8265623
vt 0.2437157 0.8335409
vt 0.2437157 0.8265625
vt 0.2437157 0.8265623
vt -3.72529E-08 1
vt 1.135049E-09 1
vt 0.785276 0.8811167
vt 0.785276 0.8811167
vt 0.7852759 0.8811167
vt 0.785276 0.8811167
vt 0.785276 0.8811167
vt 0.785276 0.8811167
vt 0 1
vt 0.7852759 0.8811167
vt 0.785276 0.8811167
vt 0.785276 0.8811167
vt 0 1
vt 0 1
vt 0 1
vt 0 1
vt 0 1
vt 0 1
vt 0 1
vt 0 1
vt 0.2437157 0.8224611
vt 0.2437157 0.822461
vt 0.2437156 0.8224611
vt 0.2437156 0.822461
vt 0.2437156 0.822461
vt 0.2437157 0.822461
vt 0.2437156 0.822461
vt 0.2437156 0.822461
vt 0.2437157 0.8224611
vt 0.2437157 0.822461
vt 0.2437156 0.8224611
vt 0.2437156 0.822461
vt 0.2437156 0.822461
vt 0.2437157 0.822461
vt 0.2437156 0.822461
vt 0.2437156 0.822461
vt 0.2437156 0.8225015
vt 0.2437157 0.8225015
vt 0.2437156 0.8225014
vt 0.2437156 0.8225014
vt 0.2437157 0.8225014
vt 0.2437156 0.8225014
vt 0.2437156 0.8225014
vt 0.2437156 0.8225014
vt 0.2437156 0.8225015
vt 0.2437157 0.8225015
vt 0.2437156 0.8225014
vt 0.2437156 0.8225014
vt 0.2437157 0.8225014
vt 0.2437156 0.8225014
vt 0.2437156 0.8225014
vt 0.2437157 0.8225014
vt 0.2437156 0.8225014
vt 0.2437157 0.8225014
vn 0.006747038 0.9908707 -0.1346468
vn -0.009713805 0.9934122 -0.1141828
vn -0.0134196 0.9987795 -0.0475349
vn 0.000318863 0.999999 -0.001405098
vn -0.1895403 0.981293 -0.03374186
vn -0.2759741 0.9564766 -0.09481964
vn -0.2166476 0.9342093 -0.2834024
vn -0.1650731 0.9824806 0.08650248
vn -0.2380946 0.9654183 -0.1061993
vn -0.1613125 0.9847965 -0.06445188
vn 0.0001121249 0.9999986 -0.001701434
vn -0.00469916 0.9999793 0.004419758
vn -0.00477664 0.9999394 0.009911715
vn -0.001006364 0.9999554 0.009392726
vn -0.08371001 0.9809623 -0.1752301
vn -0.1609505 0.9869624 1.466197E-05
vn 0.002847615 0.9980534 -0.06229899
vn -0.007702363 0.9985744 -0.05282056
vn -0.009344407 0.9997163 -0.02190525
vn 0.0004267154 0.9999998 -0.0005628066
vn -0.001036633 0.9999506 0.00988593
vn -0.005219506 0.999943 0.009316596
vn -0.004983353 0.9999794 0.004064945
vn 0.0003233465 0.9999998 -0.0007109746
vn -0.1726686 0.9623381 -0.2099787
vn -0.1062176 0.9866281 -0.1236235
vn -0.2676334 0.9590047 -0.09317867
vn -0.1817438 0.9824249 -0.04254872
vn -0.1245641 0.9921375 0.01211963
vn -0.1447095 0.9888192 -0.03599645
vn -0.2487104 0.963518 -0.09887536
vn -0.1676275 0.9841487 -0.05789911
vn 0.1549512 0.9400795 -0.3037117
vn -0.2477425 0.923184 -0.2938621
vn -0.4047752 0.9144067 0.004170065
vn -0.2257138 0.9376033 0.2644872
vn 0.1783755 0.9470783 0.2668796
vn 0.3082493 0.9512721 -0.007982169
vn 0.03716258 0.9981657 -0.04779472
vn -0.04963584 0.997503 -0.05023917
vn -0.07949062 0.9968352 0.0009394992
vn -0.0367801 0.998117 0.04908999
vn 0.0311232 0.9987298 0.0396244
vn 0.06957474 0.9975479 -0.007581322
vn 0.02176128 0.999763 -0.0007084453
vn -0.0231516 0.9997154 0.005752824
vn -0.03374567 0.8994778 -0.4356615
vn -0.005335249 0.9979661 -0.06352498
vn -0.0008220352 0.9999492 0.0100485
vn -0.002929413 0.9981465 0.06078495
vn -0.007926211 0.9268577 0.375329
vn -0.1600842 0.9689298 -0.188542
vn -0.02249238 0.9588644 -0.2829719
vn 0.1011276 0.9760297 -0.1927158
vn 0.1950294 0.980778 -0.006164217
vn 0.1125882 0.9795489 0.1667568
vn -0.006137365 0.9710692 0.2387195
vn -0.140954 0.9758817 0.1666935
vn -0.2542168 0.9671437 0.002616086
vn 0.1548647 0.9401081 -0.3036671
vn -0.2477188 0.9232048 -0.2938167
vn -0.4048162 0.9143885 0.004195034
vn -0.2257754 0.93757 0.2645521
vn 0.1784297 0.9470405 0.2669776
vn 0.3082151 0.9512837 -0.007919784
vn 0.120106 0.9789898 -0.1647836
vn -0.1643773 0.9713513 -0.1716303
vn -0.2673991 0.9635808 0.003110742
vn -0.1320728 0.9759184 0.1736088
vn 0.1099487 0.9834406 0.1440687
vn 0.226955 0.9736763 -0.02111443
vn 0.0508962 0.9987026 -0.001589394
vn -0.05406416 0.9984455 0.01355354
vn -0.03374196 0.8994966 -0.435623
vn -0.01894547 0.9749038 -0.2218189
vn -0.001932168 0.9997193 0.02361194
vn -0.008956649 0.975654 0.2191323
vn -0.007926646 0.9268114 0.3754435
vn -0.2538132 0.9211353 -0.2951079
vn -0.0353975 0.9020851 -0.4301041
vn 0.1645484 0.940065 -0.2986665
vn 0.3116966 0.9501024 -0.01228044
vn 0.1801211 0.9482522 0.2614843
vn -0.01087955 0.9267989 0.3754005
vn -0.2231637 0.9368154 0.2693972
vn -0.3982384 0.9172724 0.004183309
vn 0.1521354 0.8855061 -0.4390146
vn -0.1906855 0.8896976 -0.4148221
vn -0.3213324 0.9468371 0.01565289
vn -0.1753781 0.9065408 0.3839613
vn 0.1749977 0.9111374 0.373101
vn 0.2990163 0.9536659 -0.03332691
vn 0.102333 0.9687029 -0.2261471
vn -0.120725 0.9675828 -0.2218311
vn -0.2058779 0.9784977 0.01250876
vn -0.1024231 0.9647729 0.2423278
vn 0.1030492 0.9771161 0.186078
vn 0.1982473 0.9788458 -0.05058546
vn 0.03498431 0.9993874 0.0009318254
vn -0.0374427 0.9988164 0.03104633
vn -0.01419494 0.7196351 -0.6942074
vn -0.008335647 0.9254644 -0.3787431
vn -0.001588955 0.9986512 0.05189692
vn -0.004528456 0.9202919 0.3912061
vn -0.003135745 0.7784356 0.6277166
vn -0.01485494 0.7235312 -0.6901318
vn 0.1564044 0.8872631 -0.4339375
vn 0.3016852 0.9524081 -0.04364314
vn 0.1777556 0.9152341 0.3615931
vn -0.004362559 0.7783487 0.627817
vn -0.1744071 0.905118 0.3877415
vn -0.3196427 0.9473885 0.01683668
vn -0.193685 0.8891033 -0.4147064
vn -0.1521361 0.8855065 0.4390134
vn 0.01647921 0.3571975 0.9338835
vn 0 -1 -2.868598E-05
vn 0.009493434 0.418431 -0.908199
vn -0.1749698 0.9111435 -0.3730991
vn -0.298991 0.9536737 0.03333088
vn -0.0816342 0.9606978 0.2653214
vn 0.009736942 0.8856975 0.4641607
vn 0.001009406 0.886956 -0.4618529
vn -0.103049 0.9771154 -0.186082
vn -0.1810044 0.9809501 0.07052878
vn -0.03467655 0.9993325 0.01149351
vn -0.001376522 0.999759 -0.02190722
vn 0.008587369 0.7167159 0.6973124
vn 0.002344737 0.899322 0.4372807
vn -0.004189256 0.998789 -0.04902134
vn 0.000774976 0.9055487 -0.4242418
vn -0.0001089421 0.7767311 -0.6298323
vn 0.0104881 0.7034419 0.7106754
vn -0.1359696 0.8771901 0.4604887
vn -0.285063 0.9571682 0.05067531
vn -0.177743 0.9152356 -0.3615955
vn 0.0008351498 0.7764933 -0.630125
vn 0.006686363 0.7853062 -0.6190714
vn 0.01413683 0.7535346 0.6572562
vn 0.3027541 0.6780452 0.669772
vn 0.9824256 -0.1803965 -0.047927
vn 0.3202263 0.9472067 -0.01595456
vn 0.1674465 0.9001266 0.4021615
vn 0.2907659 0.6657364 -0.6872047
vn 0.1627399 0.8943726 -0.4166694
vn 0.08774739 0.9313236 0.353464
vn 0.01368877 0.9998914 0.005462658
vn 0.1620213 0.9867725 -0.005402072
vn 0.08574464 0.9306024 -0.355847
vn 0.0003233465 0.9999998 -0.0007109746
vn 0.0004267154 0.9999998 -0.0005628066
vn -0.001036633 0.9999506 0.00988593
vn -0.007702363 0.9985744 -0.05282056
vn 0.002847615 0.9980534 -0.06229899
vn -0.005219506 0.999943 0.009316596
vn -0.004983353 0.9999794 0.004064945
vn -0.009344407 0.9997163 -0.02190525
vn -0.1817438 0.9824249 -0.04254872
vn -0.1726686 0.9623381 -0.2099787
vn -0.1062176 0.9866281 -0.1236235
vn -0.2676334 0.9590047 -0.09317867
vn -0.1245641 0.9921375 0.01211963
vn -0.1447095 0.9888192 -0.03599645
vn -0.2487104 0.963518 -0.09887536
vn -0.1676275 0.9841487 -0.05789911
vn -0.1726686 0.9623381 -0.2099787
vn -0.4302941 0.841668 -0.3262546
vn -0.2166476 0.9342093 -0.2834024
vn -0.4302941 0.841668 -0.3262546
vn -0.02249238 0.9588644 -0.2829719
vn -0.1600842 0.9689298 -0.188542
vn 0.1011276 0.9760297 -0.1927158
vn 0.1950294 0.980778 -0.006164217
vn 0.1125882 0.9795489 0.1667568
vn -0.006137365 0.9710692 0.2387195
vn -0.140954 0.9758817 0.1666935
vn -0.2542168 0.9671437 0.002616086
vn -0.0353975 0.9020851 -0.4301041
vn -0.2538132 0.9211353 -0.2951079
vn 0.1645484 0.940065 -0.2986665
vn 0.3116966 0.9501024 -0.01228044
vn 0.1801211 0.9482522 0.2614843
vn -0.01087955 0.9267989 0.3754005
vn -0.2231637 0.9368154 0.2693972
vn -0.3982384 0.9172724 0.004183309
vn 0.1564044 0.8872631 -0.4339375
vn -0.01485494 0.7235312 -0.6901318
vn 0.3016852 0.9524081 -0.04364314
vn 0.1777556 0.9152341 0.3615931
vn -0.004362559 0.7783487 0.627817
vn -0.1744071 0.905118 0.3877415
vn -0.3196427 0.9473885 0.01683668
vn -0.193685 0.8891033 -0.4147064
vn -0.1359696 0.8771901 0.4604887
vn 0.0104881 0.7034419 0.7106754
vn -0.285063 0.9571682 0.05067531
vn -0.177743 0.9152356 -0.3615955
vn 0.0008351498 0.7764933 -0.630125
vn 0.006686363 0.7853062 -0.6190714
vn 0.3202263 0.9472067 -0.01595456
vn 0.1627399 0.8943726 -0.4166694
vn 0.1674465 0.9001266 0.4021615
vn 0.01413683 0.7535346 0.6572562
g D2_detailGravel_geo_0
f 26/26/26 7/7/7 25/25/25
f 15/15/15 7/7/7 26/26/26
f 27/27/27 15/15/15 26/26/26
f 6/6/6 15/15/15 27/27/27
f 157/157/157 6/6/6 27/27/27
f 5/5/5 6/6/6 157/157/157
f 4/4/4 5/5/5 157/157/157
f 16/16/16 161/161/161 8/8/8
f 162/162/162 161/161/161 16/16/16
f 9/9/9 162/162/162 16/16/16
f 163/163/163 162/162/162 9/9/9
f 10/10/10 163/163/163 9/9/9
f 164/164/164 163/163/163 10/10/10
f 11/11/11 164/164/164 10/10/10
f 149/149/149 164/164/164 11/11/11
f 12/12/12 149/149/149 11/11/11
f 23/23/23 149/149/149 12/12/12
f 13/13/13 23/23/23 12/12/12
f 22/22/22 23/23/23 13/13/13
f 14/14/14 22/22/22 13/13/13
f 21/21/21 22/22/22 14/14/14
f 2/2/2 17/17/17 1/1/1
f 18/18/18 17/17/17 2/2/2
f 19/19/19 18/18/18 2/2/2
f 152/152/152 151/151/151 153/153/153
f 154/154/154 151/151/151 152/152/152
f 155/155/155 154/154/154 152/152/152
f 30/30/30 158/158/158 29/29/29
f 159/159/159 158/158/158 30/30/30
f 31/31/31 159/159/159 30/30/30
f 160/160/160 159/159/159 31/31/31
f 32/32/32 160/160/160 31/31/31
f 28/28/28 160/160/160 32/32/32
f 20/20/20 28/28/28 32/32/32
f 166/166/166 165/165/165 167/167/167
f 168/168/168 165/165/165 166/166/166
f 156/156/156 155/155/155 152/152/152
f 24/24/24 155/155/155 156/156/156
f 20/20/20 24/24/24 156/156/156
f 32/32/32 24/24/24 20/20/20
f 150/150/150 4/4/4 157/157/157
f 3/3/3 4/4/4 150/150/150
f 19/19/19 3/3/3 150/150/150
f 2/2/2 3/3/3 19/19/19
f 54/54/54 33/33/33 53/53/53
f 38/38/38 33/33/33 54/54/54
f 55/55/55 38/38/38 54/54/54
f 37/37/37 38/38/38 55/55/55
f 56/56/56 37/37/37 55/55/55
f 51/51/51 37/37/37 56/56/56
f 57/57/57 51/51/51 56/56/56
f 36/36/36 51/51/51 57/57/57
f 58/58/58 36/36/36 57/57/57
f 35/35/35 36/36/36 58/58/58
f 59/59/59 35/35/35 58/58/58
f 34/34/34 35/35/35 59/59/59
f 52/52/52 34/34/34 59/59/59
f 47/47/47 34/34/34 52/52/52
f 53/53/53 47/47/47 52/52/52
f 33/33/33 47/47/47 53/53/53
f 48/48/48 169/169/169 40/40/40
f 171/171/171 169/169/169 48/48/48
f 39/39/39 171/171/171 48/48/48
f 172/172/172 171/171/171 39/39/39
f 44/44/44 172/172/172 39/39/39
f 173/173/173 172/172/172 44/44/44
f 43/43/43 173/173/173 44/44/44
f 174/174/174 173/173/173 43/43/43
f 50/50/50 174/174/174 43/43/43
f 175/175/175 174/174/174 50/50/50
f 42/42/42 175/175/175 50/50/50
f 176/176/176 175/175/175 42/42/42
f 41/41/41 176/176/176 42/42/42
f 170/170/170 176/176/176 41/41/41
f 40/40/40 170/170/170 41/41/41
f 169/169/169 170/170/170 40/40/40
f 81/81/81 60/60/60 80/80/80
f 65/65/65 60/60/60 81/81/81
f 82/82/82 65/65/65 81/81/81
f 64/64/64 65/65/65 82/82/82
f 83/83/83 64/64/64 82/82/82
f 78/78/78 64/64/64 83/83/83
f 84/84/84 78/78/78 83/83/83
f 63/63/63 78/78/78 84/84/84
f 85/85/85 63/63/63 84/84/84
f 62/62/62 63/63/63 85/85/85
f 86/86/86 62/62/62 85/85/85
f 61/61/61 62/62/62 86/86/86
f 79/79/79 61/61/61 86/86/86
f 74/74/74 61/61/61 79/79/79
f 80/80/80 74/74/74 79/79/79
f 60/60/60 74/74/74 80/80/80
f 75/75/75 177/177/177 67/67/67
f 179/179/179 177/177/177 75/75/75
f 66/66/66 179/179/179 75/75/75
f 180/180/180 179/179/179 66/66/66
f 71/71/71 180/180/180 66/66/66
f 181/181/181 180/180/180 71/71/71
f 70/70/70 181/181/181 71/71/71
f 182/182/182 181/181/181 70/70/70
f 77/77/77 182/182/182 70/70/70
f 183/183/183 182/182/182 77/77/77
f 69/69/69 183/183/183 77/77/77
f 184/184/184 183/183/183 69/69/69
f 68/68/68 184/184/184 69/69/69
f 178/178/178 184/184/184 68/68/68
f 67/67/67 178/178/178 68/68/68
f 177/177/177 178/178/178 67/67/67
f 107/107/107 87/87/87 106/106/106
f 92/92/92 87/87/87 107/107/107
f 108/108/108 92/92/92 107/107/107
f 91/91/91 92/92/92 108/108/108
f 109/109/109 91/91/91 108/108/108
f 105/105/105 91/91/91 109/109/109
f 110/110/110 105/105/105 109/109/109
f 90/90/90 105/105/105 110/110/110
f 111/111/111 90/90/90 110/110/110
f 89/89/89 90/90/90 111/111/111
f 112/112/112 89/89/89 111/111/111
f 88/88/88 89/89/89 112/112/112
f 113/113/113 88/88/88 112/112/112
f 101/101/101 88/88/88 113/113/113
f 106/106/106 101/101/101 113/113/113
f 87/87/87 101/101/101 106/106/106
f 93/93/93 185/185/185 102/102/102
f 187/187/187 185/185/185 93/93/93
f 98/98/98 187/187/187 93/93/93
f 188/188/188 187/187/187 98/98/98
f 97/97/97 188/188/188 98/98/98
f 189/189/189 188/188/188 97/97/97
f 104/104/104 189/189/189 97/97/97
f 190/190/190 189/189/189 104/104/104
f 96/96/96 190/190/190 104/104/104
f 191/191/191 190/190/190 96/96/96
f 95/95/95 191/191/191 96/96/96
f 192/192/192 191/191/191 95/95/95
f 94/94/94 192/192/192 95/95/95
f 186/186/186 192/192/192 94/94/94
f 102/102/102 186/186/186 94/94/94
f 185/185/185 186/186/186 102/102/102
f 117/117/117 137/137/137 144/144/144
f 136/136/136 137/137/137 117/117/117
f 131/131/131 136/136/136 117/117/117
f 135/135/135 136/136/136 131/131/131
f 118/118/118 135/135/135 131/131/131
f 134/134/134 135/135/135 118/118/118
f 119/119/119 134/134/134 118/118/118
f 133/133/133 134/134/134 119/119/119
f 114/114/114 133/133/133 119/119/119
f 132/132/132 133/133/133 114/114/114
f 127/127/127 132/132/132 114/114/114
f 138/138/138 132/132/132 127/127/127
f 115/115/115 138/138/138 127/127/127
f 139/139/139 138/138/138 115/115/115
f 140/140/140 139/139/139 115/115/115
f 141/141/141 139/139/139 140/140/140
f 144/144/144 141/141/141 140/140/140
f 142/142/142 139/139/139 141/141/141
f 138/138/138 139/139/139 142/142/142
f 121/121/121 202/202/202 201/201/201
f 194/194/194 202/202/202 121/121/121
f 128/128/128 194/194/194 121/121/121
f 193/193/193 194/194/194 128/128/128
f 120/120/120 193/193/193 128/128/128
f 195/195/195 193/193/193 120/120/120
f 124/124/124 195/195/195 120/120/120
f 196/196/196 195/195/195 124/124/124
f 123/123/123 196/196/196 124/124/124
f 197/197/197 196/196/196 123/123/123
f 130/130/130 197/197/197 123/123/123
f 198/198/198 197/197/197 130/130/130
f 122/122/122 198/198/198 130/130/130
f 148/148/148 198/198/198 122/122/122
f 146/146/146 148/148/148 122/122/122
f 147/147/147 148/148/148 146/146/146
f 145/145/145 147/147/147 146/146/146
f 201/201/201 147/147/147 145/145/145
f 121/121/121 201/201/201 145/145/145
f 148/148/148 200/200/200 198/198/198
f 199/199/199 200/200/200 148/148/148
f 147/147/147 199/199/199 148/148/148
f 201/201/201 199/199/199 147/147/147
f 143/143/143 117/117/117 144/144/144
f 116/116/116 117/117/117 143/143/143
f 140/140/140 116/116/116 143/143/143
f 115/115/115 116/116/116 140/140/140
f 45/45/45 44/44/44 39/39/39
f 43/43/43 44/44/44 45/45/45
f 49/49/49 43/43/43 45/45/45
f 50/50/50 43/43/43 49/49/49
f 46/46/46 50/50/50 49/49/49
f 42/42/42 50/50/50 46/46/46
f 41/41/41 42/42/42 46/46/46
f 48/48/48 45/45/45 39/39/39
f 49/49/49 45/45/45 48/48/48
f 40/40/40 49/49/49 48/48/48
f 46/46/46 49/49/49 40/40/40
f 41/41/41 46/46/46 40/40/40
f 72/72/72 71/71/71 66/66/66
f 70/70/70 71/71/71 72/72/72
f 76/76/76 70/70/70 72/72/72
f 77/77/77 70/70/70 76/76/76
f 73/73/73 77/77/77 76/76/76
f 69/69/69 77/77/77 73/73/73
f 68/68/68 69/69/69 73/73/73
f 75/75/75 72/72/72 66/66/66
f 76/76/76 72/72/72 75/75/75
f 67/67/67 76/76/76 75/75/75
f 73/73/73 76/76/76 67/67/67
f 68/68/68 73/73/73 67/67/67
f 99/99/99 98/98/98 93/93/93
f 97/97/97 98/98/98 99/99/99
f 103/103/103 97/97/97 99/99/99
f 104/104/104 97/97/97 103/103/103
f 100/100/100 104/104/104 103/103/103
f 96/96/96 104/104/104 100/100/100
f 95/95/95 96/96/96 100/100/100
f 102/102/102 99/99/99 93/93/93
f 103/103/103 99/99/99 102/102/102
f 94/94/94 103/103/103 102/102/102
f 100/100/100 103/103/103 94/94/94
f 95/95/95 100/100/100 94/94/94
f 144/144/144 140/140/140 143/143/143
f 125/125/125 124/124/124 120/120/120
f 123/123/123 124/124/124 125/125/125
f 129/129/129 123/123/123 125/125/125
f 130/130/130 123/123/123 129/129/129
f 126/126/126 130/130/130 129/129/129
f 122/122/122 130/130/130 126/126/126
f 146/146/146 122/122/122 126/126/126
f 126/126/126 145/145/145 146/146/146
f 121/121/121 145/145/145 126/126/126
f 129/129/129 121/121/121 126/126/126
f 128/128/128 121/121/121 129/129/129
f 125/125/125 128/128/128 129/129/129
f 120/120/120 128/128/128 125/125/125
