g D2_shadowCircle_geo
v -73.98032 1.277495 -120.1628
v -71.9151 1.277495 -120.2009
v -74.0715 1.277495 -125.1092
v -72.00626 1.277495 -125.1472
v -108.288 0.02 -97.70841
v -108.288 0.02 -95.64285
v -103.4414 0.02 -97.70841
v -103.4414 0.02 -95.64285
v -90.01047 0.02 -74.93674
v -95.17814 0.02 -74.93674
v -89.31882 0.02 -74.00754
v -95.17814 0.02 -74.00754
v -102.1905 0.02 -77.95425
v -108.2658 0.02 -77.95425
v -101.0193 0.02 -77.0251
v -107.0909 0.02 -77.0251
v -108.2658 0.02 -68.38572
v -107.0909 0.02 -67.45654
v -98.70722 0.02 -79.19746
v -102.1905 0.02 -79.19746
v -98.01554 0.02 -78.26828
v -101.0156 0.02 -78.26828
v -95.86982 0.02 -77.93625
v -98.03082 0.02 -77.93625
v -95.17814 0.02 -77.00705
v -98.03082 0.02 -77.00705
v -125.3725 8.584535 -77.09012
v -126.5781 8.584535 -77.09012
v -125.0516 9.084972 -76.36469
v -126.5781 9.08497 -76.36467
v -126.5781 8.837593 -76.72867
v -125.0657 8.837593 -76.72867
v -126.2312 8.828193 -75.9532
v -126.5705 9.08513 -76.33028
v -126.2454 9.08513 -76.33028
v -121.3471 4.794321 -81.85345
v -123.0397 4.794321 -81.85345
v -121.8813 7.954576 -77.81816
v -123.0397 6.951559 -79.09892
v -123.0397 5.034945 -81.54619
v -121.0728 5.034945 -81.54619
v -128.1497 4.794321 -81.85345
v -129.8423 4.794321 -81.85345
v -128.6839 7.954576 -77.81816
v -129.8423 6.951559 -79.09892
v -129.8423 5.034945 -81.54619
v -127.8754 5.034945 -81.54619
v -131.7425 0.02 -78.1956
v -135.8595 0.02 -78.1956
v -130.5713 0.02 -77.26646
v -134.6846 0.02 -77.26646
v -135.8595 0.02 -71.65862
v -134.6846 0.02 -70.72947
v -120.2799 0.02 -83.06269
v -131.7425 0.02 -83.06269
v -119.5882 0.02 -82.13351
v -130.5676 0.02 -82.13351
v -151.7006 0.02 -79.84812
v -155.773 0.02 -79.84812
v -150.5294 0.02 -78.91895
v -154.5981 0.02 -78.91895
v -155.773 0.02 -73.80746
v -154.5981 0.02 -72.87828
v -140.4826 0.02 -83.61488
v -151.7006 0.02 -83.61488
v -139.7909 0.02 -82.6857
v -150.5257 0.02 -82.6857
v -146.7969 5.163023 -81.96496
v -149.178 5.163023 -81.96496
v -147.6555 8.298835 -77.9124
v -149.178 7.30331 -79.19901
v -149.178 5.401851 -81.65633
v -146.5227 5.401851 -81.65633
v -69.43497 1.267967 -139.0278
v -81.09939 1.267967 -139.0278
v -68.74329 1.267967 -138.0986
v -79.92445 1.267967 -138.0986
v -81.09939 1.267967 -129.251
v -79.92815 1.267967 -128.3218
v -90.61378 1.267967 -132.3544
v -96.51563 1.267967 -132.3544
v -89.92209 1.267967 -131.4252
v -96.51563 1.267967 -131.4252
v -96.50105 1.267967 -134.8496
v -108.1655 1.267967 -134.8496
v -95.80937 1.267967 -133.9205
v -106.9905 1.267967 -133.9205
v -108.1655 1.267967 -123.2753
v -106.9942 1.267967 -122.3462
v -157.0297 0.02 -147.3278
v -166.4851 0.02 -147.3278
v -156.338 0.02 -146.3986
v -165.3102 0.02 -146.3986
v -166.4851 0.02 -136.5641
v -165.3139 0.02 -135.6349
v -151.1568 0.02 -145.9173
v -157.0587 0.02 -145.9173
v -150.4652 0.02 -144.9881
v -157.0587 0.02 -144.9881
v -157.2124 4.967062 -145.7872
v -158.812 4.967062 -145.7872
v -157.6535 6.900789 -142.3945
v -158.812 6.095261 -143.8078
v -158.812 5.160309 -145.4482
v -156.9381 5.160309 -145.4482
v -160.5451 4.967062 -145.7872
v -162.1447 4.967062 -145.7872
v -160.9862 6.900789 -142.3945
v -162.1447 6.095261 -143.8078
v -162.1447 5.160309 -145.4482
v -160.2709 5.160309 -145.4482
v -163.7408 4.967062 -145.7872
v -165.3403 4.967062 -145.7872
v -164.1819 6.900789 -142.3945
v -165.3403 6.095261 -143.8078
v -165.3403 5.160309 -145.4482
v -163.4665 5.160309 -145.4482
v -176.1443 0.02 -144.3891
v -189.4692 0.02 -144.3891
v -175.4526 0.02 -143.4599
v -188.2943 0.02 -143.4599
v -189.4692 0.02 -134.5016
v -188.2979 0.02 -133.5724
v -189.6243 7.918904 -83.42244
v -191.0419 7.062305 -82.03949
v -191.0419 5.742465 -79.90862
v -188.978 5.51297 -79.53814
v -190.622 5.51297 -79.53814
v -183.9374 7.918904 -83.42244
v -185.355 7.062305 -82.03949
v -185.355 5.742465 -79.90862
v -183.291 5.51297 -79.53814
v -184.9351 5.51297 -79.53814
v -181.7353 0.02 -91.49126
v -194.4949 0.02 -91.49126
v -181.0436 0.02 -90.44991
v -193.3199 0.02 -90.44991
v -194.4949 0.02 -78.93402
v -193.3236 0.02 -78.00486
v -98.91425 1.455645 -134.8496
v -104.9389 1.455645 -134.8496
v -98.91425 1.455645 -133.9205
v -104.9389 1.455645 -133.9205
v -89.45213 0.02 -93.68884
v -89.75624 0.02 -93.68884
v -89.45213 0.02 -93.40693
v -89.75624 0.02 -93.40693
v -156.9625 0.02 -91.05116
v -157.2666 0.02 -91.05116
v -156.9625 0.02 -90.76926
v -157.2666 0.02 -90.76926
v -147.8595 0.02 -107.7279
v -148.1636 0.02 -107.7279
v -147.8595 0.02 -107.446
v -148.1636 0.02 -107.446
v -144.1646 0.02 -110.0227
v -144.4687 0.02 -110.0227
v -144.1646 0.02 -109.7408
v -144.4687 0.02 -109.7408
v -116.3312 0.02 -110.0374
v -116.6353 0.02 -110.0374
v -116.3312 0.02 -109.7555
v -116.6353 0.02 -109.7555
v -102.6902 0.09934265 -110.4438
v -102.9943 0.09934265 -110.4438
v -102.6902 0.07250928 -110.1632
v -102.9943 0.07250928 -110.1632
v -80.17451 0.07323792 -110.0447
v -80.47865 0.07323792 -110.0447
v -80.17451 0.04640454 -109.7641
v -80.47865 0.04640454 -109.7641
v -150.1207 0.02 -125.5546
v -150.4248 0.02 -125.5546
v -150.1207 0.02 -125.2726
v -150.4248 0.02 -125.2726
v -158.601 0.02 -110.8789
v -158.9051 0.02 -110.8789
v -158.601 0.02 -110.597
v -158.9051 0.02 -110.597
v -163.5884 0.02 -108.5885
v -163.8925 0.02 -108.5885
v -163.5884 0.02 -108.3066
v -163.8925 0.02 -108.3066
v -186.6261 0.02 -108.3401
v -186.9301 0.02 -108.3401
v -186.6261 0.02 -108.0582
v -186.9301 0.02 -108.0582
v -73.37379 0.05231614 -95.10789
v -73.94743 0.05231614 -95.10789
v -73.37379 0.05231614 -94.57615
v -73.94743 0.05231614 -94.57615
v -86.33311 0.05231614 -107.8785
v -86.90675 0.05231614 -107.8785
v -86.33311 0.05231614 -107.3467
v -86.90675 0.05231614 -107.3467
v -111.571 0.05231614 -95.23424
v -112.1446 0.05231614 -95.23424
v -111.571 0.05231614 -94.7025
v -112.1446 0.05231614 -94.7025
v -130.856 0.05231614 -107.8889
v -131.4296 0.05231614 -107.8889
v -130.856 0.05231614 -107.3572
v -131.4296 0.05231614 -107.3572
v -151.9885 0.01229187 -95.14066
v -152.5621 0.01229187 -95.14066
v -151.9885 0.01229187 -94.60892
v -152.5621 0.01229187 -94.60892
v -179.7891 0.05231614 -110.9331
v -180.3627 0.05231614 -110.9331
v -179.7891 0.05231614 -110.4014
v -180.3627 0.05231614 -110.4014
v -157.7066 -0.1244629 -95.19861
v -157.7066 -0.1244629 -95.8974
v -159.4297 -0.1244629 -92.80469
v -159.9847 -0.1244629 -92.82105
v -149.4637 -0.1244629 -107.9355
v -148.9088 -0.1244629 -107.2367
v -105.7665 -0.1244629 -167.1027
v -105.2116 -0.1244629 -166.4039
v -110.4722 -0.1244629 -161.0812
v -109.9173 -0.1244629 -160.3824
v -158.7481 -0.1244629 -111.6524
v -158.1932 -0.1244629 -110.9536
v -124.7664 0.02 -65.05789
v -124.0266 0.02 -65.25613
v -125.1886 0.02 -66.63364
v -124.4488 0.02 -66.83188
v -125.7571 0.02 -66.97307
v -126.337 0.02 -66.97307
v -125.7571 0.02 -66.43539
v -126.337 0.02 -66.43539
v -155.8974 0.02 -125.6187
v -155.8974 0.02 -126.1132
v -156.3737 0.02 -125.6187
v -156.3737 0.02 -126.1132
v -99.62867 0.04041509 -109.6153
v -99.62867 0.07899464 -110.1094
v -100.106 0.04041509 -109.6153
v -100.106 0.07899464 -110.1094
v -89.88734 1.259212 -133.1263
v -90.47626 1.259212 -132.2448
v -88.98724 1.259212 -132.4911
v -89.57619 1.259212 -131.6097
v -159.4297 -0.1244629 -65.03625
v -159.9847 -0.1244629 -65.03627
v -195.1865 -0.1244629 -111.6945
v -195.1865 -0.1244629 -110.9727
v -100.66 1.260808 -143.4374
v -99.56028 1.260808 -143.0697
v -100.448 1.260808 -144.0713
v -99.34833 1.260808 -143.7037
v -98.65119 1.260808 -142.7347
v -97.55149 1.260808 -142.3671
v -98.43924 1.260808 -143.3687
v -97.33953 1.260808 -143.001
v -101.8776 1.260808 -142.6567
v -101.6027 1.260808 -142.5648
v -101.7857 1.260808 -142.9316
v -101.5108 1.260808 -142.8397
v -101.0154 1.260808 -145.1495
v -100.7405 1.260808 -145.0576
v -100.9235 1.260808 -145.4243
v -100.6487 1.260808 -145.3324
v -97.31326 1.260808 -141.0648
v -97.0384 1.260808 -140.9729
v -97.22137 1.260808 -141.3397
v -96.9465 1.260808 -141.2478
v -96.44787 1.260808 -143.568
v -96.173 1.260808 -143.4761
v -96.35597 1.260808 -143.8429
v -96.0811 1.260808 -143.751
v -179.6602 0.02 -133.2094
v -180.3201 0.02 -133.2094
v -179.6602 0.02 -132.6396
v -180.3201 0.02 -132.6396
v -191.2215 0.02 -107.1373
v -191.0642 0.02 -107.7244
v -191.7284 0.02 -107.2731
v -191.5711 0.02 -107.8602
v -191.4582 0.02 -107.9568
v -190.9916 0.02 -107.4902
v -191.0554 0.02 -108.3597
v -190.5887 0.02 -107.8931
v -146.021 0.02 -89.9959
v -145.8122 0.02 -90.77513
v -146.6938 0.02 -90.17617
v -146.485 0.02 -90.95541
v -101.9263 0.01999985 -90.11548
v -101.769 0.01999985 -90.70258
v -102.4332 0.01999985 -90.2513
v -102.2759 0.01999985 -90.83839
v -102.1727 0.01999985 -90.92519
v -101.7061 0.01999985 -90.45855
v -101.7699 0.01999985 -91.32806
v -101.3032 0.01999985 -90.86143
v -84.77934 -0.1244629 -180.4645
v -84.22441 -0.1244629 -179.7657
v -90.84689 -0.1244629 -179.1234
v -90.29199 -0.1244629 -178.4245
v -96.35046 -0.1244629 -176.4659
v -95.7956 -0.1244629 -175.7672
v -101.1999 -0.05407516 -172.5559
v -100.645 -0.05407516 -171.8571
v -65.01853 -0.1244629 -180.4645
v -65.01853 -0.1244629 -179.7657
v -193.3265 0.02 -179.0906
v -198.8407 0.02 -179.0906
v -192.1552 0.02 -178.1615
v -197.6657 0.02 -178.1615
v -198.8407 0.02 -167.3386
v -197.6657 0.02 -166.4094
v -72.86017 -0.1244629 -95.1986
v -73.50951 -0.1244629 -95.8974
v -101.9733 0.2223889 -66.46565
v -101.3728 0.2223889 -66.46565
v -101.9733 0.2223889 -67.06612
v -101.3728 0.2223889 -67.06612
v -99.6153 1.454151 -135.2193
v -99.0148 1.454151 -135.2193
v -99.6153 1.454151 -135.8198
v -99.0148 1.454151 -135.8198
vt 0.5 0.5
vt 0.5 0.5
vt 0.5 0.5
vt 0.5 0.5
vt 0.5 0.5
vt 0.5 0.5
vt 0.5 0.5
vt 0.5 0.5
vt 0.5 0.5
vt 0.5 0.5
vt 0.5 0.5
vt 0.5 0.5
vt 0.5 0.5
vt 0.5 0.5
vt 0.5 0.5
vt 0.5 0.5
vt 0.5 0.5
vt 0.5 0.5
vt 0.5 0.5
vt 0.5 0.5
vt 0.5 0.5
vt 0.5 0.5
vt 0.5 0.5
vt 0.5 0.5
vt 0.5 0.5
vt 0.5 0.5
vt 0.5 0.5
vt 0.5 0.5
vt 0.5 0.5
vt 0.5 0.5
vt 0.5 0.5
vt 0.5 0.5
vt 0.5 0.5
vt 0.5 0.5
vt 0.5 0.5
vt 0.5 0.5
vt 0.5 0.5
vt 0.5 0.5
vt 0.5 0.5
vt 0.5 0.5
vt 0.5 0.5
vt 0.5 0.5
vt 0.5 0.5
vt 0.5 0.5
vt 0.5 0.5
vt 0.5 0.5
vt 0.5 0.5
vt 0.5 0.5
vt 0.5 0.5
vt 0.5 0.5
vt 0.5 0.5
vt 0.5 0.5
vt 0.5 0.5
vt 0.5 0.5
vt 0.5 0.5
vt 0.5 0.5
vt 0.5 0.5
vt 0.5 0.5
vt 0.5 0.5
vt 0.5 0.5
vt 0.5 0.5
vt 0.5 0.5
vt 0.5 0.5
vt 0.5 0.5
vt 0.5 0.5
vt 0.5 0.5
vt 0.5 0.5
vt 0.5 0.5
vt 0.5 0.5
vt 0.5 0.5
vt 0.5 0.5
vt 0.5 0.5
vt 0.5 0.5
vt 0.5 0.5
vt 0.5 0.5
vt 0.5 0.5
vt 0.5 0.5
vt 0.5 0.5
vt 0.5 0.5
vt 0.5 0.5
vt 0.5 0.5
vt 0.5 0.5
vt 0.5 0.5
vt 0.5 0.5
vt 0.5 0.5
vt 0.5 0.5
vt 0.5 0.5
vt 0.5 0.5
vt 0.5 0.5
vt 0.5 0.5
vt 0.5 0.5
vt 0.5 0.5
vt 0.5 0.5
vt 0.5 0.5
vt 0.5 0.5
vt 0.5 0.5
vt 0.5 0.5
vt 0.5 0.5
vt 0.5 0.5
vt 0.5 0.5
vt 0.5 0.5
vt 0.5 0.5
vt 0.5 0.5
vt 0.5 0.5
vt 0.5 0.5
vt 0.5 0.5
vt 0.5 0.5
vt 0.5 0.5
vt 0.5 0.5
vt 0.5 0.5
vt 0.5 0.5
vt 0.5 0.5
vt 0.5 0.5
vt 0.5 0.5
vt 0.5 0.5
vt 0.5 0.5
vt 0.5 0.5
vt 0.5 0.5
vt 0.5 0.5
vt 0.5 0.5
vt 0.5 0.5
vt 0.5 0.5
vt 0.5 0.5
vt 0.5 0.5
vt 0.5 0.5
vt 0.5 0.5
vt 0.5 0.5
vt 0.5 0.5
vt 0.5 0.5
vt 0.5 0.5
vt 0.5 0.5
vt 0.5 0.5
vt 0.5 0.5
vt 0.5 0.5
vt 0.5 0.5
vt 0.5 0.5
vt 0.5 0.5
vt 0.5 0.5
vt 0.5 0.5
vt 0.5 0.5
vt 0.5 0.5
vt 0.5 0.5
vt 0.5 0.5
vt 0 0
vt 1 0
vt 0 1
vt 1 1
vt 0 0
vt 1 0
vt 0 1
vt 1 1
vt 0 0
vt 1 0
vt 0 1
vt 1 1
vt 0 0
vt 1 0
vt 0 1
vt 1 1
vt 0 0
vt 1 0
vt 0 1
vt 1 1
vt 0 0
vt 1 0
vt 0 1
vt 1 1
vt 0 0
vt 1 0
vt 0 1
vt 1 1
vt 0 0
vt 1 0
vt 0 1
vt 1 1
vt 0 0
vt 1 0
vt 0 1
vt 1 1
vt 0 0
vt 1 0
vt 0 1
vt 1 1
vt 0 0
vt 1 0
vt 0 1
vt 1 1
vt 0 0
vt 1 0
vt 0 1
vt 1 1
vt 0 0
vt 1 0
vt 0 1
vt 1 1
vt 0 0
vt 1 0
vt 0 1
vt 1 1
vt 0 0
vt 1 0
vt 0 1
vt 1 1
vt 0 0
vt 1 0
vt 0 1
vt 1 1
vt 0 0
vt 1 0
vt 0 1
vt 1 1
vt 0.5 0.5
vt 0.5 0.5
vt 0.5 0.5
vt 0.5 0.5
vt 0.5 0.5
vt 0.5 0.5
vt 0.5 0.5
vt 0.5 0.5
vt 0.5 0.5
vt 0.5 0.5
vt 0.5 0.5
vt 0.5 0.5
vt 0.5 0.5
vt 0.5 0.5
vt 0.5 0.5
vt 0.5 0.5
vt 0 0
vt 1 0
vt 0 1
vt 1 1
vt 0 0
vt 1 0
vt 0 1
vt 1 1
vt 0 0
vt 1 0
vt 0 1
vt 1 1
vt 0 0
vt 1 0
vt 0 1
vt 1 1
vt 0.5 0.5
vt 0.5 0.5
vt 0.5 0.5
vt 0.5 0.5
vt 0.5 0.5
vt 0.5 0.5
vt 0.5 0.5
vt 0.5 0.5
vt 0.5 0.5
vt 0.5 0.5
vt 0.5 0.5
vt 0.5 0.5
vt 0 0
vt 1 0
vt 0 1
vt 1 1
vt 0 0
vt 1 0
vt 0 1
vt 1 1
vt 0 0
vt 1 0
vt 0 1
vt 1 1
vt 0 0
vt 1 0
vt 0 1
vt 1 1
vt 0 0
vt 1 0
vt 0 1
vt 1 1
vt 0 0
vt 1 0
vt 0 1
vt 1 1
vt 0 0
vt 1 0
vt 0 1
vt 1 1
vt 0 0
vt 1 0
vt 0 1
vt 1 1
vt 0 0
vt 1 0
vt 0 1
vt 1 1
vt 0 0
vt 1 0
vt 0 1
vt 1 1
vt 0.5 0.5
vt 0.5 0.5
vt 0.5 0.5
vt 0.5 0.5
vt 0.5 0.5
vt 0.5 0.5
vt 0.5 0.5
vt 0.5 0.5
vt 0.5 0.5
vt 0.5 0.5
vt 0.5 0.5
vt 0.5 0.5
vt 0.5 0.5
vt 0.5 0.5
vt 0.5 0.5
vt 0.5 0.5
vt 0.5 0.5
vt 0.5 0.5
vt 0 0
vt 1 0
vt 0 1
vt 1 1
vt 0 0
vt 1 0
vt 0 1
vt 1 1
vn 0 1 0
vn 0 1 0
vn 0 1 0
vn 0 1 0
vn 0 1 0
vn 0 1 0
vn 0 1 0
vn 0 1 0
vn 0 1 0
vn 0 1 0
vn 0 1 0
vn 0 1 0
vn 0 1 0
vn 0 1 0
vn 0 1 0
vn 0 1 0
vn 0 1 0
vn 0 1 0
vn 0 1 0
vn 0 1 0
vn 0 1 0
vn 0 1 0
vn 0 1 0
vn 0 1 0
vn 0 1 0
vn 0 1 0
vn 0 0.8191856 -0.5735285
vn 0 0.8191856 -0.5735285
vn -5.865386E-06 0.8270676 -0.5621025
vn -5.865386E-06 0.8270676 -0.5621025
vn -2.932764E-06 0.8231465 -0.5678291
vn -2.932764E-06 0.8231465 -0.5678291
vn 0 0.8263875 0.5631018
vn 0 0.8263875 0.5631018
vn 0 0.8263875 0.5631018
vn 0 0.7873152 -0.6165507
vn 0 0.7873152 -0.6165507
vn 7.743222E-06 0.7872921 -0.6165802
vn 7.743222E-06 0.7872921 -0.6165802
vn 3.871611E-06 0.7873037 -0.6165655
vn 3.871611E-06 0.7873037 -0.6165655
vn 0 0.787314 -0.6165522
vn 0 0.787314 -0.6165522
vn 7.74322E-06 0.7872918 -0.6165806
vn 7.74322E-06 0.7872918 -0.6165806
vn 3.87161E-06 0.7873029 -0.6165664
vn 3.87161E-06 0.7873029 -0.6165664
vn 0 1 0
vn 0 1 0
vn 0 1 0
vn 0 1 0
vn 0 1 0
vn 0 1 0
vn 0 1 0
vn 0 1 0
vn 0 1 0
vn 0 1 0
vn 0 1 0
vn 0 1 0
vn 0 1 0
vn 0 1 0
vn 0 1 0
vn 0 1 0
vn 0 1 0
vn 0 1 0
vn 0 1 0
vn 0 1 0
vn 0 0.7908643 -0.6119915
vn 0 0.7908643 -0.6119915
vn 5.780185E-06 0.7908795 -0.6119719
vn 5.780185E-06 0.7908795 -0.6119719
vn 2.890093E-06 0.790872 -0.6119816
vn 2.890093E-06 0.790872 -0.6119816
vn 0 1 0
vn 0 1 0
vn 0 1 0
vn 0 1 0
vn 0 1 0
vn 0 1 0
vn 0 1 0
vn 0 1 0
vn 0 1 0
vn 0 1 0
vn 0 1 -1.012127E-07
vn 0 1 0
vn 0 1 -1.012127E-07
vn 0 1 0
vn 0 1 0
vn 0 1 0
vn 0 1 0
vn 0 1 0
vn 0 1 0
vn 0 1 0
vn 0 1 0
vn 0 1 0
vn 0 1 0
vn 0 1 0
vn 0 1 0
vn 0 1 0
vn 0 0.8687844 -0.4951906
vn 0 0.8687844 -0.4951906
vn 0 0.8687936 -0.4951743
vn 0 0.8687936 -0.4951743
vn 0 0.868789 -0.4951825
vn 0 0.868789 -0.4951825
vn 0 0.8687857 -0.4951884
vn 0 0.8687857 -0.4951884
vn 0 0.8687956 -0.495171
vn 0 0.8687956 -0.495171
vn 0 0.8687906 -0.4951797
vn 0 0.8687906 -0.4951797
vn 0 0.868784 -0.4951912
vn 0 0.868784 -0.4951912
vn 0 0.8687924 -0.4951766
vn 0 0.8687924 -0.4951766
vn 0 0.8687882 -0.4951839
vn 0 0.8687882 -0.4951839
vn 0 1 0
vn 0 1 0
vn 0 1 0
vn 0 1 0
vn 0 1 0
vn 0 1 0
vn 0 0.8501346 0.5265654
vn 2.078239E-05 0.8501325 0.5265687
vn 4.156479E-05 0.8501306 0.526572
vn 0 0.8501346 0.5265654
vn 2.078239E-05 0.8501325 0.5265687
vn 0 0.850132 0.5265696
vn 2.078307E-05 0.8501334 0.5265674
vn 4.156616E-05 0.8501348 0.5265653
vn 0 0.850132 0.5265696
vn 2.078307E-05 0.8501334 0.5265674
vn 0 1 0
vn 0 1 0
vn 0 1 0
vn 0 1 0
vn 0 1 0
vn 0 1 0
vn 0 1 0
vn 0 1 0
vn 0 1 0
vn 0 1 0
vn 0 1 0
vn 0 1 0
vn 0 1 0
vn 0 1 0
vn 0 1 0
vn 0 1 0
vn 0 1 0
vn 0 1 0
vn 0 1 0
vn 0 1 0
vn 0 1 0
vn 0 1 0
vn 0 1 0
vn 0 1 0
vn 0 1 0
vn 0 1 0
vn 0 1 0
vn 0 1 0
vn 0 1 0
vn 0 1 0
vn 0 0.9954592 0.09518959
vn 0 0.9954592 0.09518959
vn 0 0.9954592 0.09518959
vn 0 0.9954592 0.09518959
vn 0 0.9954595 0.09518572
vn 0 0.9954595 0.09518572
vn 0 0.9954595 0.09518572
vn 0 0.9954595 0.09518572
vn 0 1 0
vn 0 1 0
vn 0 1 0
vn 0 1 0
vn 0 1 0
vn 0 1 0
vn 0 1 0
vn 0 1 0
vn 0 1 0
vn 0 1 0
vn 0 1 0
vn 0 1 0
vn 0 1 0
vn 0 1 0
vn 0 1 0
vn 0 1 0
vn 0 1 0
vn 0 1 0
vn 0 1 0
vn 0 1 0
vn 0 1 0
vn 0 1 0
vn 0 1 0
vn 0 1 0
vn 0 1 0
vn 0 1 0
vn 0 1 0
vn 0 1 0
vn 0 1 0
vn 0 1 0
vn 0 1 0
vn 0 1 0
vn 0 1 0
vn 0 1 0
vn 0 1 0
vn 0 1 0
vn 0 1 0
vn 0 1 0
vn 0 1 0
vn 0 1 0
vn 0 1 0
vn 0 1 0
vn 0 1 0
vn 0 1 0
vn 0 1 0
vn 0 1 0
vn 0 1 0
vn 0 1 0
vn 0 1 0
vn 0 1 0
vn 0 1 0
vn 0 1 0
vn 0 1 0
vn 0 1 0
vn 0 1 0
vn 0 1 0
vn 0 1 0
vn 0 1 0
vn 0 1 0
vn 0 1 0
vn 0 1 0
vn 0 1 0
vn 0 1 0
vn 0 1 0
vn 0 0.996965 0.07785124
vn 0 0.996965 0.07785124
vn 0 0.996965 0.07785124
vn 0 0.996965 0.07785124
vn 0 1 0
vn 0 1 0
vn 0 1 0
vn 0 1 0
vn 0 1 0
vn 0 1 0
vn 0 1 0
vn 0 1 0
vn 0 1 0
vn 0 1 0
vn 0 1 0
vn 0 1 0
vn 0 1 0
vn 0 1 0
vn 0 1 0
vn 0 1 0
vn 0 1 0
vn 0 1 0
vn 0 1 0
vn 0 1 0
vn 0 1 -1.453218E-07
vn 0 1 -1.453218E-07
vn 0 1 -1.453218E-07
vn 0 1 -1.453218E-07
vn 0 1 0
vn 0 1 0
vn 0 1 0
vn 0 1 0
vn 0 1 0
vn 0 1 0
vn 0 1 0
vn 0 1 0
vn 0 1 0
vn 0 1 0
vn 0 1 0
vn 0 1 0
vn 0 1 0
vn 0 1 0
vn 0 1 0
vn 0 1 0
vn 0 1 0
vn 0 1 0
vn 0 1 0
vn 0 1 0
vn 0 1 0
vn 0 1 0
vn 0 1 0
vn 0 1 0
vn 0 1 0
vn 0 1 0
vn 0 1 0
vn 0 1 0
vn 0 1 0
vn 0 1 0
vn 0 1 0
vn 0 1 0
vn 0 1 0
vn 0 1 0
vn 0 1 0
vn 0 1 0
vn 0.004424277 0.999984 -0.003513234
vn 0.004424277 0.999984 -0.003513234
vn 0.0004687051 0.9999999 -0.0003721587
vn 0.0004687051 0.9999999 -0.0003721587
vn 0 1 0
vn 0 1 0
vn 0 1 0
vn 0 1 0
vn 0 1 0
vn 0 1 0
vn 0 1 0
vn 0 1 0
vn 0 1 0
vn 0 1 0
vn 0 1 0
vn 0 1 0
vn 0 1 0
vn 0 1 0
vn 0 1 0
vn 0 1 0
vn 0 1 0
vn 0 1 0
g D2_shadowCircle_geo_0
f 34/34/34 33/33/33 35/35/35
f 4/4/4 1/1/1 2/2/2
f 3/3/3 1/1/1 4/4/4
f 8/8/8 5/5/5 6/6/6
f 7/7/7 5/5/5 8/8/8
f 12/12/12 9/9/9 10/10/10
f 11/11/11 9/9/9 12/12/12
f 16/16/16 17/17/17 18/18/18
f 14/14/14 17/17/17 16/16/16
f 13/13/13 14/14/14 16/16/16
f 22/22/22 20/20/20 13/13/13
f 19/19/19 20/20/20 22/22/22
f 21/21/21 19/19/19 22/22/22
f 26/26/26 23/23/23 24/24/24
f 25/25/25 23/23/23 26/26/26
f 31/31/31 30/30/30 29/29/29
f 32/32/32 31/31/31 29/29/29
f 28/28/28 31/31/31 32/32/32
f 27/27/27 28/28/28 32/32/32
f 41/41/41 39/39/39 38/38/38
f 40/40/40 39/39/39 41/41/41
f 36/36/36 40/40/40 41/41/41
f 37/37/37 40/40/40 36/36/36
f 47/47/47 45/45/45 44/44/44
f 46/46/46 45/45/45 47/47/47
f 42/42/42 46/46/46 47/47/47
f 43/43/43 46/46/46 42/42/42
f 51/51/51 52/52/52 53/53/53
f 49/49/49 52/52/52 51/51/51
f 48/48/48 49/49/49 51/51/51
f 57/57/57 55/55/55 48/48/48
f 54/54/54 55/55/55 57/57/57
f 56/56/56 54/54/54 57/57/57
f 61/61/61 62/62/62 63/63/63
f 59/59/59 62/62/62 61/61/61
f 58/58/58 59/59/59 61/61/61
f 67/67/67 65/65/65 58/58/58
f 64/64/64 65/65/65 67/67/67
f 66/66/66 64/64/64 67/67/67
f 73/73/73 71/71/71 70/70/70
f 72/72/72 71/71/71 73/73/73
f 68/68/68 72/72/72 73/73/73
f 69/69/69 72/72/72 68/68/68
f 77/77/77 75/75/75 78/78/78
f 74/74/74 75/75/75 77/77/77
f 76/76/76 74/74/74 77/77/77
f 79/79/79 77/77/77 78/78/78
f 83/83/83 80/80/80 81/81/81
f 82/82/82 80/80/80 83/83/83
f 87/87/87 85/85/85 88/88/88
f 84/84/84 85/85/85 87/87/87
f 86/86/86 84/84/84 87/87/87
f 89/89/89 87/87/87 88/88/88
f 93/93/93 91/91/91 94/94/94
f 90/90/90 91/91/91 93/93/93
f 92/92/92 90/90/90 93/93/93
f 95/95/95 93/93/93 94/94/94
f 99/99/99 96/96/96 97/97/97
f 98/98/98 96/96/96 99/99/99
f 105/105/105 103/103/103 102/102/102
f 104/104/104 103/103/103 105/105/105
f 100/100/100 104/104/104 105/105/105
f 101/101/101 104/104/104 100/100/100
f 111/111/111 109/109/109 108/108/108
f 110/110/110 109/109/109 111/111/111
f 106/106/106 110/110/110 111/111/111
f 107/107/107 110/110/110 106/106/106
f 117/117/117 115/115/115 114/114/114
f 116/116/116 115/115/115 117/117/117
f 112/112/112 116/116/116 117/117/117
f 113/113/113 116/116/116 112/112/112
f 121/121/121 119/119/119 122/122/122
f 118/118/118 119/119/119 121/121/121
f 120/120/120 118/118/118 121/121/121
f 123/123/123 121/121/121 122/122/122
f 125/125/125 127/127/127 124/124/124
f 128/128/128 127/127/127 125/125/125
f 126/126/126 128/128/128 125/125/125
f 130/130/130 132/132/132 129/129/129
f 133/133/133 132/132/132 130/130/130
f 131/131/131 133/133/133 130/130/130
f 137/137/137 135/135/135 138/138/138
f 134/134/134 135/135/135 137/137/137
f 136/136/136 134/134/134 137/137/137
f 139/139/139 137/137/137 138/138/138
f 143/143/143 140/140/140 141/141/141
f 142/142/142 140/140/140 143/143/143
f 147/147/147 144/144/144 145/145/145
f 146/146/146 144/144/144 147/147/147
f 151/151/151 148/148/148 149/149/149
f 150/150/150 148/148/148 151/151/151
f 155/155/155 152/152/152 153/153/153
f 154/154/154 152/152/152 155/155/155
f 159/159/159 156/156/156 157/157/157
f 158/158/158 156/156/156 159/159/159
f 163/163/163 160/160/160 161/161/161
f 162/162/162 160/160/160 163/163/163
f 167/167/167 164/164/164 165/165/165
f 166/166/166 164/164/164 167/167/167
f 171/171/171 168/168/168 169/169/169
f 170/170/170 168/168/168 171/171/171
f 175/175/175 172/172/172 173/173/173
f 174/174/174 172/172/172 175/175/175
f 179/179/179 176/176/176 177/177/177
f 178/178/178 176/176/176 179/179/179
f 183/183/183 180/180/180 181/181/181
f 182/182/182 180/180/180 183/183/183
f 187/187/187 184/184/184 185/185/185
f 186/186/186 184/184/184 187/187/187
f 191/191/191 188/188/188 189/189/189
f 190/190/190 188/188/188 191/191/191
f 195/195/195 192/192/192 193/193/193
f 194/194/194 192/192/192 195/195/195
f 199/199/199 196/196/196 197/197/197
f 198/198/198 196/196/196 199/199/199
f 203/203/203 200/200/200 201/201/201
f 202/202/202 200/200/200 203/203/203
f 207/207/207 204/204/204 205/205/205
f 206/206/206 204/204/204 207/207/207
f 211/211/211 208/208/208 209/209/209
f 210/210/210 208/208/208 211/211/211
f 214/214/214 245/245/245 244/244/244
f 215/215/215 245/245/245 214/214/214
f 213/213/213 215/215/215 214/214/214
f 296/296/296 305/305/305 304/304/304
f 297/297/297 305/305/305 296/296/296
f 298/298/298 297/297/297 296/296/296
f 299/299/299 297/297/297 298/298/298
f 300/300/300 299/299/299 298/298/298
f 301/301/301 299/299/299 300/300/300
f 302/302/302 301/301/301 300/300/300
f 303/303/303 301/301/301 302/302/302
f 218/218/218 303/303/303 302/302/302
f 219/219/219 303/303/303 218/218/218
f 220/220/220 219/219/219 218/218/218
f 221/221/221 219/219/219 220/220/220
f 216/216/216 221/221/221 220/220/220
f 217/217/217 221/221/221 216/216/216
f 247/247/247 222/222/222 246/246/246
f 223/223/223 222/222/222 247/247/247
f 227/227/227 224/224/224 225/225/225
f 226/226/226 224/224/224 227/227/227
f 231/231/231 228/228/228 229/229/229
f 230/230/230 228/228/228 231/231/231
f 235/235/235 232/232/232 233/233/233
f 234/234/234 232/232/232 235/235/235
f 239/239/239 236/236/236 237/237/237
f 238/238/238 236/236/236 239/239/239
f 243/243/243 240/240/240 241/241/241
f 242/242/242 240/240/240 243/243/243
f 213/213/213 312/312/312 313/313/313
f 212/212/212 312/312/312 213/213/213
f 214/214/214 212/212/212 213/213/213
f 251/251/251 248/248/248 249/249/249
f 250/250/250 248/248/248 251/251/251
f 255/255/255 252/252/252 253/253/253
f 254/254/254 252/252/252 255/255/255
f 259/259/259 256/256/256 257/257/257
f 258/258/258 256/256/256 259/259/259
f 263/263/263 260/260/260 261/261/261
f 262/262/262 260/260/260 263/263/263
f 267/267/267 264/264/264 265/265/265
f 266/266/266 264/264/264 267/267/267
f 271/271/271 268/268/268 269/269/269
f 270/270/270 268/268/268 271/271/271
f 275/275/275 272/272/272 273/273/273
f 274/274/274 272/272/272 275/275/275
f 279/279/279 276/276/276 277/277/277
f 278/278/278 276/276/276 279/279/279
f 283/283/283 280/280/280 281/281/281
f 282/282/282 280/280/280 283/283/283
f 287/287/287 284/284/284 285/285/285
f 286/286/286 284/284/284 287/287/287
f 291/291/291 288/288/288 289/289/289
f 290/290/290 288/288/288 291/291/291
f 295/295/295 292/292/292 293/293/293
f 294/294/294 292/292/292 295/295/295
f 309/309/309 307/307/307 310/310/310
f 306/306/306 307/307/307 309/309/309
f 308/308/308 306/306/306 309/309/309
f 311/311/311 309/309/309 310/310/310
f 317/317/317 314/314/314 315/315/315
f 316/316/316 314/314/314 317/317/317
f 321/321/321 318/318/318 319/319/319
f 320/320/320 318/318/318 321/321/321
f 15/15/15 13/13/13 16/16/16
f 22/22/22 13/13/13 15/15/15
f 50/50/50 48/48/48 51/51/51
f 57/57/57 48/48/48 50/50/50
f 60/60/60 58/58/58 61/61/61
f 67/67/67 58/58/58 60/60/60
