g D2_windowCar_geo
v -72.2784 2.805033 -120.5462
v -72.09216 2.3152 -120.073
v -72.08282 2.3152 -121.0691
v -72.27023 2.848373 -121.4183
v -72.0759 2.313724 -122.122
v -72.26763 2.849846 -122.1238
v -72.0845 2.313724 -121.2052
v -72.27325 2.849846 -121.5258
v -72.07764 2.312903 -122.2219
v -72.27003 2.85067 -122.2237
v -72.26373 2.82316 -122.8968
v -72.0658 2.312903 -123.4895
v -73.94307 2.301499 -123.5805
v -73.75111 2.828408 -122.9724
v -73.02266 2.853597 -122.9657
v -72.09091 2.301499 -123.5632
v -72.29424 2.828408 -122.9589
v -73.98142 2.312906 -122.2397
v -73.78909 2.850673 -122.2379
v -73.78278 2.823164 -122.911
v -73.96957 2.312906 -123.5073
v -73.98508 2.313728 -122.1398
v -73.79335 2.84985 -122.1381
v -73.9937 2.313728 -121.223
v -73.79894 2.84985 -121.54
v -73.81215 2.805041 -120.5606
v -74.00722 2.315207 -120.0909
v -73.99788 2.315206 -121.087
v -73.804 2.84838 -121.4327
v -73.69586 2.800817 -120.4929
v -73.04614 2.837409 -120.4616
v -73.90823 2.298034 -120.0041
v -72.39594 2.80082 -120.4808
v -72.19276 2.298035 -119.9881
v -106.95 1.491203 -97.23345
v -107.1622 1.041301 -97.43217
v -106.9501 1.491629 -95.91557
v -107.1624 1.041856 -95.7166
v -107.195 1.054432 -96.91428
v -107.1951 1.054652 -96.23457
v -106.0782 1.056203 -97.52891
v -106.0778 1.555523 -97.33728
v -106.8398 1.05674 -97.52898
v -106.7624 1.514341 -97.33736
v -105.9782 1.0553 -97.52615
v -105.9779 1.556266 -97.33395
v -105.3048 1.55777 -97.33386
v -104.7106 1.054407 -97.52602
v -106.0784 1.056823 -95.61961
v -106.078 1.556018 -95.81152
v -106.8401 1.05736 -95.61968
v -106.7626 1.514836 -95.8116
v -105.9784 1.05593 -95.62228
v -105.9781 1.556771 -95.81482
v -105.305 1.558275 -95.81474
v -104.7108 1.055037 -95.62212
v -104.6372 1.042977 -97.50023
v -105.243 1.570375 -97.30281
v -104.6374 1.043576 -95.64796
v -105.2432 1.570846 -95.84589
vt -0.189483 0.6169314
vt -0.4285343 0.3603685
vt 0.09183937 0.3603685
vt 0.2661414 0.6396315
vt 0.8009968 0.4810472
vt 0.7937427 0.7618544
vt 0.32203 0.4810472
vt 0.4812995 0.7618544
vt 0.03014612 0.531065
vt 0.0210789 0.8819304
vt 0.4591087 0.8639814
vt 0.8550766 0.531065
vt 0.5047192 1.527095
vt 0.4387565 1.865626
vt 0.1810695 1.881811
vt -0.150486 1.527096
vt -0.07661507 1.865626
vt 0.4563809 0.05690449
vt 0.4478305 0.387776
vt 0.03475824 0.3708502
vt -0.3215451 0.05690449
vt -0.3517972 -0.1208096
vt -0.3590479 0.1599977
vt 0.1271729 -0.1208096
vt -0.04660833 0.1599977
vt 0.4489924 0.6934699
vt 0.7117578 0.4275068
vt 0.1723178 0.4275067
vt -0.02332609 0.7170016
vt -0.08452345 1.865626
vt 0.1731634 1.881811
vt -0.150486 1.527095
vt 0.4308481 1.865626
vt 0.5047192 1.527096
vt 0.5933991 0.7913646
vt 0.4860564 0.5484263
vt 1.304901 0.7913646
vt 1.412241 0.5484263
vt 0.7656689 0.5554124
vt 1.13263 0.5554124
vt 0.5278065 0.1407556
vt 0.5278065 0.3752317
vt 0.8855261 0.1407556
vt 0.849317 0.3556638
vt 0.7127261 0.1169799
vt 0.7127261 0.4320567
vt 0.2893312 0.4333014
vt -0.08465838 0.1169799
vt 0.3577194 0.3822972
vt 0.3577194 0.6167732
vt 0 0.3822972
vt 0.03620911 0.5972054
vt 0.0162468 0.488208
vt 0.0162468 0.7234569
vt 0.3323708 0.7243862
vt 0.6116066 0.488208
vt 0.7371691 0.4276898
vt 0.594677 0.8075217
vt -0.5980754 0.4276897
vt -0.4555834 0.8075217
vn 0.9346941 0.3550469 0.01699016
vn 0.9346941 0.3550469 0.01699016
vn 0.9346941 0.3550469 0.01699016
vn 0.9346941 0.3550469 0.01699016
vn 0.9415424 0.3367785 0.008834676
vn 0.9415424 0.3367785 0.008834676
vn 0.9415424 0.3367785 0.008834676
vn 0.9415424 0.3367785 0.008834676
vn 0.9378245 0.3470885 0.003845495
vn 0.9378245 0.3470885 0.003845495
vn 0.9378245 0.3470885 0.003845495
vn 0.9378245 0.3470885 0.003845495
vn -0.006957147 0.7491559 -0.6623572
vn -0.02020824 0.758711 -0.6511139
vn 0.006132216 0.7524761 -0.658591
vn 0.01930321 0.7491355 -0.6621355
vn 0.03230218 0.7586717 -0.6506718
vn -0.9377509 0.3470388 -0.0136893
vn -0.9377509 0.3470388 -0.0136893
vn -0.9377509 0.3470388 -0.0136893
vn -0.9377509 0.3470388 -0.0136893
vn -0.9415439 0.3367748 -0.008828423
vn -0.9415439 0.3367748 -0.008828423
vn -0.9415439 0.3367748 -0.008828423
vn -0.9415439 0.3367748 -0.008828423
vn -0.9348555 0.3550282 -0.0005139512
vn -0.9348555 0.3550282 -0.0005139512
vn -0.9348555 0.3550282 -0.0005139512
vn -0.9348555 0.3550282 -0.0005139512
vn -0.07377986 0.7110239 0.6992863
vn -0.00674883 0.6933432 0.7205759
vn -0.04048979 0.6831399 0.7291642
vn 0.06066594 0.7109877 0.7005826
vn 0.0268266 0.6831211 0.7298123
vn -0.8792946 0.4762781 -0.0002502133
vn -0.8792946 0.4762781 -0.0002502133
vn -0.8792946 0.4762781 -0.0002502133
vn -0.8792946 0.4762781 -0.0002502133
vn -0.8792946 0.4762781 -0.0002502133
vn -0.8792946 0.4762781 -0.0002502133
vn -0.01036687 0.3724934 -0.9279769
vn -0.01036687 0.3724934 -0.9279769
vn -0.01036687 0.3724934 -0.9279769
vn -0.01036687 0.3724934 -0.9279769
vn -5.988174E-06 0.3574131 -0.9339464
vn -5.988174E-06 0.3574131 -0.9339464
vn -5.988174E-06 0.3574131 -0.9339464
vn -5.988174E-06 0.3574131 -0.9339464
vn -0.01058739 0.3730807 0.9277385
vn -0.01058739 0.3730807 0.9277385
vn -0.01058739 0.3730807 0.9277385
vn -0.01058739 0.3730807 0.9277385
vn -0.0002254253 0.3580306 0.9337099
vn -0.0002254253 0.3580306 0.9337099
vn -0.0002254253 0.3580306 0.9337099
vn -0.0002254253 0.3580306 0.9337099
vn 0.6565483 0.7542841 -0.0001568145
vn 0.6565483 0.7542841 -0.0001568145
vn 0.6565483 0.7542841 -0.0001568145
vn 0.6565483 0.7542841 -0.0001568145
g D2_windowCar_geo_0
f 1/1/1 3/3/3 4/4/4
f 2/2/2 3/3/3 1/1/1
f 8/8/8 5/5/5 6/6/6
f 7/7/7 5/5/5 8/8/8
f 10/10/10 12/12/12 11/11/11
f 9/9/9 12/12/12 10/10/10
f 15/15/15 13/13/13 14/14/14
f 16/16/16 13/13/13 15/15/15
f 17/17/17 16/16/16 15/15/15
f 19/19/19 21/21/21 18/18/18
f 20/20/20 21/21/21 19/19/19
f 25/25/25 22/22/22 24/24/24
f 23/23/23 22/22/22 25/25/25
f 26/26/26 28/28/28 27/27/27
f 29/29/29 28/28/28 26/26/26
f 31/31/31 34/34/34 33/33/33
f 32/32/32 34/34/34 31/31/31
f 30/30/30 32/32/32 31/31/31
f 35/35/35 36/36/36 39/39/39
f 40/40/40 35/35/35 39/39/39
f 37/37/37 35/35/35 40/40/40
f 38/38/38 37/37/37 40/40/40
f 44/44/44 41/41/41 43/43/43
f 42/42/42 41/41/41 44/44/44
f 46/46/46 48/48/48 45/45/45
f 47/47/47 48/48/48 46/46/46
f 52/52/52 49/49/49 50/50/50
f 51/51/51 49/49/49 52/52/52
f 54/54/54 56/56/56 55/55/55
f 53/53/53 56/56/56 54/54/54
f 58/58/58 59/59/59 57/57/57
f 60/60/60 59/59/59 58/58/58
