g D3_collisionWater_geo
v -70.64249 -0.261785 25.91003
v -70.64923 -0.261785 25.9033
v -79.18184 -0.261785 25.9033
v -79.18858 -0.261785 25.91003
v -79.18184 -0.261785 30.39459
v -79.18858 -0.261785 30.38786
v -70.64249 -0.261785 30.38786
v -70.64923 -0.261785 30.39459
vt 0 1
vt 0 1
vt 0 1
vt 0 1
vt 0 1
vt 0 1
vt 0 1
vt 0 1
vn 0 1 0
vn 0 1 0
vn 0 1 0
vn 0 1 0
vn 0 1 0
vn 0 1 0
vn 0 1 0
vn 0 1 0
g D3_collisionWater_geo_0
f 7/7/7 5/5/5 8/8/8
f 6/6/6 5/5/5 7/7/7
f 1/1/1 6/6/6 7/7/7
f 4/4/4 6/6/6 1/1/1
f 2/2/2 4/4/4 1/1/1
f 3/3/3 4/4/4 2/2/2
