g D3_collisionInvisible
v -79.23045 -3.057976 30.42708
v -70.61948 -3.057976 30.42708
v -79.23045 19.87111 30.42708
v -70.61948 19.87111 30.42708
v -79.23045 19.87111 25.87081
v -70.61948 19.87111 25.87081
v -79.23045 -3.057976 25.87081
v -70.61948 -3.057976 25.87081
v -70.61948 -3.057976 27.71281
v -70.61948 19.87111 27.71281
v -79.23045 19.87111 27.71281
v -79.23045 -3.057976 27.71281
v -70.61948 -3.057976 28.5585
v -70.61948 19.87111 28.5585
v -79.23045 19.87111 28.5585
v -79.23045 -3.057976 28.5585
v -77.28072 19.87111 28.5585
v -77.28072 19.87111 27.71281
v -77.28072 19.87111 25.87081
v -77.28072 -3.057976 25.87081
v -77.28072 -3.057975 28.5585
v -77.28072 -3.057975 27.71281
vt 0.009305123 0.9919356
vt 0.009305123 0.9919356
vt 0.009305123 0.9919356
vt 0.009305123 0.9919356
vt 0.009305123 0.9919356
vt 0.009305123 0.9919356
vt 0.009305123 0.9919356
vt 0.009305123 0.9919356
vt 0.009305123 0.9919356
vt 0.009305123 0.9919356
vt 0.009305123 0.9919356
vt 0.009305123 0.9919356
vt 0.009305123 0.9919356
vt 0.009305123 0.9919356
vt 0.009305123 0.9919356
vt 0.009305123 0.9919356
vt 0.009305123 0.9919356
vt 0.009305123 0.9919356
vt 0.009305123 0.9919356
vt 0.009305123 0.9919356
vt 0.009305123 0.9919356
vt 0.009305123 0.9919356
vn -0.7071068 0 0.7071068
vn 0.7071068 0 0.7071068
vn -0.5773502 0.5773502 0.5773503
vn 0.4082483 0.8164966 0.4082484
vn -0.5773503 0.5773503 -0.5773503
vn 0.5773503 0.5773503 -0.5773502
vn -0.7071068 0 -0.7071068
vn 0.7071068 0 -0.7071068
vn 1 0 0
vn 0.7071068 0.7071068 0
vn -0.5773503 0.5773503 0.5773502
vn -0.7071068 0 0.7071068
vn 1 0 0
vn 0.7071068 0.7071068 0
vn -0.5773503 0.5773503 -0.5773502
vn -0.7071068 0 -0.7071068
vn -0.3015113 0.904534 -0.3015112
vn -0.3015113 0.904534 0.3015113
vn 0 0.7071068 -0.7071068
vn 0 0 -1
vn -0.7071068 0 -0.7071068
vn -0.7071068 0 0.7071068
g D3_collisionInvisible_0
f 6/6/6 8/8/8 20/20/20
f 9/9/9 8/8/8 6/6/6
f 10/10/10 9/9/9 6/6/6
f 13/13/13 9/9/9 10/10/10
f 14/14/14 13/13/13 10/10/10
f 2/2/2 13/13/13 14/14/14
f 4/4/4 2/2/2 14/14/14
f 1/1/1 2/2/2 4/4/4
f 3/3/3 1/1/1 4/4/4
f 16/16/16 1/1/1 3/3/3
f 15/15/15 16/16/16 3/3/3
f 21/21/21 16/16/16 15/15/15
f 17/17/17 21/21/21 15/15/15
f 22/22/22 21/21/21 17/17/17
f 18/18/18 22/22/22 17/17/17
f 12/12/12 22/22/22 18/18/18
f 11/11/11 12/12/12 18/18/18
f 7/7/7 12/12/12 11/11/11
f 5/5/5 7/7/7 11/11/11
f 20/20/20 7/7/7 5/5/5
f 19/19/19 20/20/20 5/5/5
f 6/6/6 20/20/20 19/19/19
f 10/10/10 6/6/6 19/19/19
f 18/18/18 10/10/10 19/19/19
f 14/14/14 10/10/10 18/18/18
f 17/17/17 14/14/14 18/18/18
f 4/4/4 14/14/14 17/17/17
f 3/3/3 4/4/4 17/17/17
f 15/15/15 3/3/3 17/17/17
f 19/19/19 11/11/11 18/18/18
f 5/5/5 11/11/11 19/19/19
