g D3_colourPaletteOutline_geo1
v -118.1785 0.01392539 -14.30906
v -118.1736 0.01392539 -14.47946
v -118.1736 0.01392538 -14.87251
v -118.1785 0.01392541 -15.04289
v -118.1785 0.3876746 -14.30906
v -118.1736 0.230222 -14.47946
v -118.1736 0.230222 -14.87251
v -118.1785 0.3876745 -15.04289
v -118.2531 0.3876746 -14.30907
v -118.2531 0.3876745 -15.04289
v -118.253 0.234171 -14.47723
v -118.2529 0.234171 -14.87476
v -118.2531 0.01392539 -14.30906
v -118.2531 0.01392539 -14.47946
v -118.2531 0.01392538 -14.87251
v -118.2531 0.01392541 -15.04289
v -118.2543 0.3876765 -14.91916
v -118.1773 0.3876746 -14.91918
v -118.1785 0.7080289 -15.07768
v -118.2531 0.7080289 -15.07766
v -118.2543 0.7080289 -14.95393
v -118.1773 0.7080289 -14.95391
v -116.4578 0.01392541 -14.30907
v -116.458 0.01392541 -14.47721
v -116.458 0.01392541 -14.87476
v -116.4578 0.01392543 -15.04291
v -116.4578 0.3876746 -14.30907
v -116.458 0.234171 -14.47721
v -116.458 0.234171 -14.87475
v -116.4578 0.3876749 -15.0429
v -116.5325 0.3876746 -14.30905
v -116.5325 0.3876745 -15.04289
v -116.5374 0.230222 -14.47946
v -116.5374 0.230222 -14.87255
v -116.5325 0.01392541 -14.30906
v -116.5325 0.01392541 -14.47721
v -116.5325 0.01392541 -14.87476
v -116.5325 0.01392543 -15.0429
v -116.4576 0.3876747 -14.91916
v -116.5328 0.3876741 -14.91915
v -116.4578 0.7080289 -15.07767
v -116.4576 0.7080289 -14.95392
v -116.5327 0.7080289 -14.95393
v -116.5325 0.7080289 -15.07766
v -116.3596 0.390096 -14.90852
v -116.3596 0.5094309 -14.90853
v -118.394 0.5094318 -14.9085
v -118.394 0.3900965 -14.9085
v -116.3596 0.5193518 -14.37629
v -118.394 0.5193517 -14.37631
v -116.3596 0.4624593 -14.2695
v -118.394 0.4624592 -14.2695
v -118.3941 0.3900963 -14.23397
v -116.3596 0.3900964 -14.23397
v -118.3941 0.7080288 -15.09791
v -118.394 0.7080289 -14.94038
v -116.3596 0.7080289 -14.94036
v -116.3596 0.7080288 -15.09792
v -118.394 1.102957 -14.9819
v -116.3596 1.102957 -14.9819
v -118.394 1.195528 -15.03939
v -116.3596 1.195527 -15.03939
v -116.3596 1.230667 -15.13491
v -118.3941 1.230667 -15.13494
v -118.1785 0.01392541 -15.04289
v -118.2531 0.3876745 -15.04289
v -118.2531 0.01392541 -15.04289
v -118.1785 0.3876745 -15.04289
v -118.2531 0.01392539 -14.30906
v -118.1785 0.3876746 -14.30906
v -118.1785 0.01392539 -14.30906
v -118.2531 0.3876746 -14.30907
v -118.1736 0.01392538 -14.87251
v -118.2529 0.234171 -14.87476
v -118.1736 0.230222 -14.87251
v -118.2531 0.01392538 -14.87251
v -118.253 0.234171 -14.47723
v -118.1736 0.230222 -14.47946
v -118.2531 0.01392539 -14.47946
v -118.1736 0.01392539 -14.47946
v -118.2543 0.3876765 -14.91916
v -118.1785 0.7080289 -15.07768
v -118.1773 0.3876746 -14.91918
v -118.1773 0.7080289 -14.95391
v -116.4578 0.01392543 -15.04291
v -116.5325 0.3876745 -15.04289
v -116.5325 0.01392543 -15.0429
v -116.4578 0.3876749 -15.0429
v -116.5325 0.01392541 -14.30906
v -116.4578 0.3876746 -14.30907
v -116.4578 0.01392541 -14.30907
v -116.5325 0.3876746 -14.30905
v -116.458 0.01392541 -14.87476
v -116.5374 0.230222 -14.87255
v -116.458 0.234171 -14.87475
v -116.5325 0.01392541 -14.87476
v -116.5374 0.230222 -14.47946
v -116.458 0.234171 -14.47721
v -116.5325 0.01392541 -14.47721
v -116.458 0.01392541 -14.47721
v -116.4578 0.7080289 -15.07767
v -116.5325 0.7080289 -15.07766
v -116.4576 0.3876747 -14.91916
v -116.5327 0.7080289 -14.95393
v -116.4576 0.7080289 -14.95392
v -116.5328 0.3876741 -14.91915
v -118.394 0.5094318 -14.9085
v -116.3596 0.5193518 -14.37629
v -118.394 0.5193517 -14.37631
v -116.3596 0.5094309 -14.90853
v -116.3596 0.4624593 -14.2695
v -118.394 0.4624592 -14.2695
v -116.3596 0.3900964 -14.23397
v -118.3941 0.3900963 -14.23397
v -118.394 0.3900965 -14.9085
v -116.3596 0.3900964 -14.23397
v -116.3596 0.390096 -14.90852
v -118.3941 0.3900963 -14.23397
v -118.394 0.3900965 -14.9085
v -116.3596 0.390096 -14.90852
v -116.3596 0.7080289 -14.94036
v -118.394 1.102957 -14.9819
v -116.3596 1.102957 -14.9819
v -118.394 0.7080289 -14.94038
v -118.394 1.195528 -15.03939
v -116.3596 1.195527 -15.03939
v -118.3941 1.230667 -15.13494
v -116.3596 1.230667 -15.13491
v -116.3596 0.7080288 -15.09792
v -118.3941 0.7080288 -15.09791
v -118.394 0.7080289 -14.94038
v -116.3596 0.7080288 -15.09792
v -118.3941 0.7080288 -15.09791
v -116.3596 0.7080289 -14.94036
v -116.458 0.01392541 -14.47721
v -116.5325 0.01392541 -14.30906
v -116.4578 0.01392541 -14.30907
v -116.5325 0.01392541 -14.47721
v -116.4578 0.01392543 -15.04291
v -116.5325 0.01392541 -14.87476
v -116.458 0.01392541 -14.87476
v -116.5325 0.01392543 -15.0429
v -118.1736 0.01392539 -14.47946
v -118.2531 0.01392539 -14.30906
v -118.1785 0.01392539 -14.30906
v -118.2531 0.01392539 -14.47946
v -118.1785 0.01392541 -15.04289
v -118.2531 0.01392538 -14.87251
v -118.1736 0.01392538 -14.87251
v -118.2531 0.01392541 -15.04289
vt 0.1268075 0.9693391
vt 0.1268075 0.9693391
vt 0.1268075 0.9693391
vt 0.1268075 0.9693391
vt 0.1268075 0.9693393
vt 0.1268075 0.9693393
vt 0.1268075 0.9693393
vt 0.1268075 0.9693393
vt 0.1268075 0.9693388
vt 0.1268075 0.9693388
vt 0.1268075 0.9693384
vt 0.1268075 0.9693384
vt 0.1268075 0.9693372
vt 0.1268075 0.9693372
vt 0.1268075 0.9693372
vt 0.1268075 0.9693372
vt 0.1268075 0.9693388
vt 0.1268075 0.9693393
vt 0.1268075 0.9912428
vt 0.1268075 0.9912428
vt 0.1268075 0.9912428
vt 0.1268075 0.9693372
vt 0.1268075 0.9693391
vt 0.1268075 0.9693391
vt 0.1268075 0.9693391
vt 0.1268075 0.9693391
vt 0.1268075 0.9693393
vt 0.1268075 0.9693393
vt 0.1268075 0.9693393
vt 0.1268075 0.9693393
vt 0.1268075 0.9693388
vt 0.1268075 0.9693388
vt 0.1268075 0.9693384
vt 0.1268075 0.9693384
vt 0.1268075 0.9693372
vt 0.1268075 0.9693372
vt 0.1268075 0.9693372
vt 0.1268075 0.9693372
vt 0.1268075 0.9693393
vt 0.1268075 0.9693388
vt 0.1268075 0.9912428
vt 0.1268075 0.9693372
vt 0.1268075 0.9693372
vt 0.1268075 0.9912428
vt 0.1733053 0.6363236
vt 0.1733054 0.6363236
vt 0.1733054 0.6363236
vt 0.1733055 0.6363236
vt 0.1733053 0.6363236
vt 0.1733055 0.6363236
vt 0.1733053 0.6363236
vt 0.1733055 0.6363236
vt 0.1733055 0.6363236
vt 0.1733053 0.6363236
vt 0.1733053 0.6363236
vt 0.1733054 0.6363236
vt 0.1733054 0.6363236
vt 0.1733055 0.6363236
vt 0.1733053 0.6363236
vt 0.1733055 0.6363236
vt 0.1733053 0.6363236
vt 0.1733055 0.6363236
vt 0.1733055 0.6363236
vt 0.1733053 0.6363236
vt 0.1268075 0.9912448
vt 0.1268075 0.9912449
vt 0.1268075 0.9912448
vt 0.1268075 0.9912449
vt 0.1268075 0.9912448
vt 0.1268075 0.9912449
vt 0.1268075 0.9912448
vt 0.1268075 0.9912449
vt 0.1268075 0.9326518
vt 0.1268075 0.932652
vt 0.1268075 0.932652
vt 0.1268075 0.9326518
vt 0.1268075 0.9326522
vt 0.1268075 0.9326522
vt 0.1268075 0.9326518
vt 0.1268075 0.9326518
vt 0.1268075 0.9912448
vt 0.1268075 0.9693372
vt 0.1268075 0.9912448
vt 0.1268075 0.9912448
vt 0.1268075 0.9912448
vt 0.1268075 0.9912449
vt 0.1268075 0.9912448
vt 0.1268075 0.9912449
vt 0.1268075 0.9912448
vt 0.1268075 0.9912449
vt 0.1268075 0.9912448
vt 0.1268075 0.9912449
vt 0.1268075 0.9326518
vt 0.1268075 0.932652
vt 0.1268075 0.932652
vt 0.1268075 0.9326518
vt 0.1268075 0.9326522
vt 0.1268075 0.9326522
vt 0.1268075 0.9326518
vt 0.1268075 0.9326518
vt 0.1268075 0.9693372
vt 0.1268075 0.9693372
vt 0.1268075 0.9912448
vt 0.1268075 0.9912428
vt 0.1268075 0.9912448
vt 0.1268075 0.9912428
vt 0.1733054 0.6733524
vt 0.1733053 0.6733524
vt 0.1733055 0.6733524
vt 0.1733054 0.6733524
vt 0.1733053 0.6733524
vt 0.1733055 0.6733524
vt 0.1733053 0.6733524
vt 0.1733055 0.6733524
vt 0.1727426 0.6079788
vt 0.1727427 0.607978
vt 0.1727426 0.607978
vt 0.1727427 0.6079788
vt 0.1733054 0.6733524
vt 0.1733053 0.6733524
vt 0.1733054 0.6733524
vt 0.1733054 0.6733524
vt 0.1733055 0.6733524
vt 0.1733055 0.6733524
vt 0.1733054 0.6733524
vt 0.1733055 0.6733524
vt 0.1733053 0.6733524
vt 0.1733055 0.6733524
vt 0.1733055 0.6733524
vt 0.1733053 0.6733524
vt 0.1727426 0.6079788
vt 0.1727425 0.607978
vt 0.1727425 0.6079788
vt 0.1727426 0.607978
vt 0.3259832 0.2728066
vt 0.3259832 0.2728066
vt 0.3259832 0.2728066
vt 0.3259832 0.2728066
vt 0.3259832 0.2728066
vt 0.3259832 0.2728066
vt 0.3259832 0.2728066
vt 0.3259832 0.2728066
vt 0.3259832 0.2728066
vt 0.3259832 0.2728066
vt 0.3259832 0.2728066
vt 0.3259832 0.2728066
vt 0.3259832 0.2728066
vt 0.3259832 0.2728066
vt 0.3259832 0.2728066
vt 0.3259832 0.2728066
vn 0.5716419 -0.5719006 0.5883496
vn 0.5783679 -0.583767 -0.5698305
vn 0.5783069 -0.5837534 0.5699064
vn 0.5716846 -0.5719141 -0.5882951
vn 0.8889021 0.01189928 0.4579426
vn 0.8163247 -0.4077732 -0.409066
vn 0.9085161 -0.2929284 0.2979788
vn 0.8263292 -0.0243955 -0.5626587
vn -0.8943244 -0.002368316 0.447413
vn -0.8299096 -0.03334028 -0.5569007
vn -0.8251106 -0.3994213 -0.3995688
vn -0.9077174 -0.2994467 0.293906
vn -0.5775353 -0.5773613 0.5771542
vn -0.5836007 -0.5725043 -0.5758898
vn -0.5836539 -0.5724503 0.5758895
vn -0.5775221 -0.5773764 -0.5771524
vn -0.9505699 0.02833798 0.3092149
vn 0.9497954 0.04876264 0.3090482
vn 0.7036228 -0.07669642 -0.7064224
vn -0.7036538 -0.0767107 -0.70639
vn -0.7105706 0.07585473 0.6995252
vn 0.7105461 0.07587515 0.6995479
vn 0.5776511 -0.5775054 0.5768941
vn 0.5818518 -0.5762487 -0.5739214
vn 0.5817338 -0.5762833 0.5740064
vn 0.5774961 -0.577573 -0.5769815
vn 0.8945923 -0.0009274991 0.4468824
vn 0.8241363 -0.4015231 -0.3994728
vn 0.907292 -0.2988234 0.2958474
vn 0.8319622 -0.03094528 -0.5539687
vn -0.8909627 0.009738824 0.4539719
vn -0.8296043 -0.02426764 -0.5578242
vn -0.8125195 -0.4123215 -0.4120718
vn -0.9065083 -0.2944421 0.3025669
vn -0.572089 -0.5770764 0.5828353
vn -0.572506 -0.5888805 -0.570488
vn -0.5726594 -0.5887803 0.5704377
vn -0.5722561 -0.5769832 -0.5827636
vn 0.9491176 0.03231895 0.3132592
vn -0.9482923 0.05260575 0.3130085
vn 0.7062747 -0.07638806 -0.7038047
vn 0.7078881 0.076219 0.7022002
vn -0.7078934 0.07626669 0.7021897
vn -0.7063692 -0.07632971 -0.703716
vn 0.9045414 -0.301499 -0.3015013
vn 0.5738336 0.573625 -0.5845248
vn -0.5738133 0.5736711 -0.5844997
vn -0.9045563 -0.3014298 -0.3015261
vn 0.7185664 0.676273 0.1622259
vn -0.7185439 0.6763009 0.1622093
vn 0.724397 0.4793756 0.4954271
vn -0.724393 0.4794066 0.4954029
vn -0.6870896 -0.3840733 0.6167621
vn 0.6870596 -0.3841225 0.616765
vn -0.8988148 -0.3207583 -0.2987408
vn -0.5985611 -0.535988 0.5953497
vn 0.5985831 -0.536014 0.5953043
vn 0.8987659 -0.3207633 -0.2988824
vn -0.7160837 0.2263394 0.6602989
vn 0.7161388 0.2263413 0.6602385
vn -0.7265436 0.5326207 0.4341077
vn 0.7266005 0.532635 0.433995
vn 0.6774891 0.5879837 -0.4419091
vn -0.6775212 0.5880362 -0.44179
vn 0.5716846 -0.5719141 -0.5882951
vn -0.8299096 -0.03334028 -0.5569007
vn -0.5775221 -0.5773764 -0.5771524
vn 0.8263292 -0.0243955 -0.5626587
vn -0.5775353 -0.5773613 0.5771542
vn 0.8889021 0.01189928 0.4579426
vn 0.5716419 -0.5719006 0.5883496
vn -0.8943244 -0.002368316 0.447413
vn 0.5783069 -0.5837534 0.5699064
vn -0.9077174 -0.2994467 0.293906
vn 0.9085161 -0.2929284 0.2979788
vn -0.5836539 -0.5724503 0.5758895
vn -0.8251106 -0.3994213 -0.3995688
vn 0.8163247 -0.4077732 -0.409066
vn -0.5836007 -0.5725043 -0.5758898
vn 0.5783679 -0.583767 -0.5698305
vn -0.9505699 0.02833798 0.3092149
vn 0.7036228 -0.07669642 -0.7064224
vn 0.9497954 0.04876264 0.3090482
vn 0.7105461 0.07587515 0.6995479
vn 0.5774961 -0.577573 -0.5769815
vn -0.8296043 -0.02426764 -0.5578242
vn -0.5722561 -0.5769832 -0.5827636
vn 0.8319622 -0.03094528 -0.5539687
vn -0.572089 -0.5770764 0.5828353
vn 0.8945923 -0.0009274991 0.4468824
vn 0.5776511 -0.5775054 0.5768941
vn -0.8909627 0.009738824 0.4539719
vn 0.5817338 -0.5762833 0.5740064
vn -0.9065083 -0.2944421 0.3025669
vn 0.907292 -0.2988234 0.2958474
vn -0.5726594 -0.5887803 0.5704377
vn -0.8125195 -0.4123215 -0.4120718
vn 0.8241363 -0.4015231 -0.3994728
vn -0.572506 -0.5888805 -0.570488
vn 0.5818518 -0.5762487 -0.5739214
vn 0.7062747 -0.07638806 -0.7038047
vn -0.7063692 -0.07632971 -0.703716
vn 0.9491176 0.03231895 0.3132592
vn -0.7078934 0.07626669 0.7021897
vn 0.7078881 0.076219 0.7022002
vn -0.9482923 0.05260575 0.3130085
vn -0.5738133 0.5736711 -0.5844997
vn 0.7185664 0.676273 0.1622259
vn -0.7185439 0.6763009 0.1622093
vn 0.5738336 0.573625 -0.5845248
vn 0.724397 0.4793756 0.4954271
vn -0.724393 0.4794066 0.4954029
vn 0.6870596 -0.3841225 0.616765
vn -0.6870896 -0.3840733 0.6167621
vn -0.9045563 -0.3014298 -0.3015261
vn 0.6870596 -0.3841225 0.616765
vn 0.9045414 -0.301499 -0.3015013
vn -0.6870896 -0.3840733 0.6167621
vn -0.9045563 -0.3014298 -0.3015261
vn 0.9045414 -0.301499 -0.3015013
vn 0.5985831 -0.536014 0.5953043
vn -0.7160837 0.2263394 0.6602989
vn 0.7161388 0.2263413 0.6602385
vn -0.5985611 -0.535988 0.5953497
vn -0.7265436 0.5326207 0.4341077
vn 0.7266005 0.532635 0.433995
vn -0.6775212 0.5880362 -0.44179
vn 0.6774891 0.5879837 -0.4419091
vn 0.8987659 -0.3207633 -0.2988824
vn -0.8988148 -0.3207583 -0.2987408
vn -0.5985611 -0.535988 0.5953497
vn 0.8987659 -0.3207633 -0.2988824
vn -0.8988148 -0.3207583 -0.2987408
vn 0.5985831 -0.536014 0.5953043
vn 0.5818518 -0.5762487 -0.5739214
vn -0.572089 -0.5770764 0.5828353
vn 0.5776511 -0.5775054 0.5768941
vn -0.572506 -0.5888805 -0.570488
vn 0.5774961 -0.577573 -0.5769815
vn -0.5726594 -0.5887803 0.5704377
vn 0.5817338 -0.5762833 0.5740064
vn -0.5722561 -0.5769832 -0.5827636
vn 0.5783679 -0.583767 -0.5698305
vn -0.5775353 -0.5773613 0.5771542
vn 0.5716419 -0.5719006 0.5883496
vn -0.5836007 -0.5725043 -0.5758898
vn 0.5716846 -0.5719141 -0.5882951
vn -0.5836539 -0.5724503 0.5758895
vn 0.5783069 -0.5837534 0.5699064
vn -0.5775221 -0.5773764 -0.5771524
g D3_colourPaletteOutline_geo1_0
f 6/6/6 1/1/1 2/2/2
f 5/5/5 1/1/1 6/6/6
f 18/18/18 5/5/5 6/6/6
f 7/7/7 18/18/18 6/6/6
f 8/8/8 18/18/18 7/7/7
f 3/3/3 8/8/8 7/7/7
f 4/4/4 8/8/8 3/3/3
f 9/9/9 14/14/14 13/13/13
f 11/11/11 14/14/14 9/9/9
f 12/12/12 11/11/11 9/9/9
f 12/12/12 16/16/16 15/15/15
f 10/10/10 16/16/16 12/12/12
f 17/17/17 10/10/10 12/12/12
f 68/68/68 20/20/20 19/19/19
f 66/66/66 20/20/20 68/68/68
f 65/65/65 66/66/66 68/68/68
f 67/67/67 66/66/66 65/65/65
f 70/70/70 69/69/69 71/71/71
f 72/72/72 69/69/69 70/70/70
f 78/78/78 80/80/80 79/79/79
f 77/77/77 78/78/78 79/79/79
f 75/75/75 78/78/78 77/77/77
f 74/74/74 75/75/75 77/77/77
f 73/73/73 75/75/75 74/74/74
f 76/76/76 73/73/73 74/74/74
f 18/18/18 82/82/82 22/22/22
f 8/8/8 82/82/82 18/18/18
f 21/21/21 83/83/83 84/84/84
f 81/81/81 83/83/83 21/21/21
f 66/66/66 81/81/81 21/21/21
f 28/28/28 23/23/23 24/24/24
f 27/27/27 23/23/23 28/28/28
f 39/39/39 27/27/27 28/28/28
f 29/29/29 39/39/39 28/28/28
f 30/30/30 39/39/39 29/29/29
f 25/25/25 30/30/30 29/29/29
f 26/26/26 30/30/30 25/25/25
f 31/31/31 36/36/36 35/35/35
f 33/33/33 36/36/36 31/31/31
f 34/34/34 33/33/33 31/31/31
f 32/32/32 40/40/40 43/43/43
f 34/34/34 40/40/40 32/32/32
f 38/38/38 34/34/34 32/32/32
f 37/37/37 34/34/34 38/38/38
f 88/88/88 44/44/44 41/41/41
f 86/86/86 44/44/44 88/88/88
f 85/85/85 86/86/86 88/88/88
f 87/87/87 86/86/86 85/85/85
f 90/90/90 89/89/89 91/91/91
f 92/92/92 89/89/89 90/90/90
f 98/98/98 100/100/100 99/99/99
f 97/97/97 98/98/98 99/99/99
f 95/95/95 98/98/98 97/97/97
f 94/94/94 95/95/95 97/97/97
f 93/93/93 95/95/95 94/94/94
f 96/96/96 93/93/93 94/94/94
f 39/39/39 101/101/101 42/42/42
f 30/30/30 101/101/101 39/39/39
f 102/102/102 32/32/32 43/43/43
f 104/104/104 103/103/103 105/105/105
f 106/106/106 103/103/103 104/104/104
f 45/45/45 51/51/51 54/54/54
f 49/49/49 51/51/51 45/45/45
f 46/46/46 49/49/49 45/45/45
f 48/48/48 50/50/50 47/47/47
f 52/52/52 50/50/50 48/48/48
f 53/53/53 52/52/52 48/48/48
f 110/110/110 120/120/120 119/119/119
f 107/107/107 110/110/110 119/119/119
f 108/108/108 110/110/110 107/107/107
f 109/109/109 108/108/108 107/107/107
f 111/111/111 108/108/108 109/109/109
f 112/112/112 111/111/111 109/109/109
f 113/113/113 111/111/111 112/112/112
f 114/114/114 113/113/113 112/112/112
f 116/116/116 115/115/115 117/117/117
f 118/118/118 115/115/115 116/116/116
f 55/55/55 61/61/61 64/64/64
f 59/59/59 61/61/61 55/55/55
f 56/56/56 59/59/59 55/55/55
f 58/58/58 60/60/60 57/57/57
f 62/62/62 60/60/60 58/58/58
f 63/63/63 62/62/62 58/58/58
f 127/127/127 128/128/128 129/129/129
f 126/126/126 128/128/128 127/127/127
f 125/125/125 126/126/126 127/127/127
f 123/123/123 126/126/126 125/125/125
f 122/122/122 123/123/123 125/125/125
f 121/121/121 123/123/123 122/122/122
f 124/124/124 121/121/121 122/122/122
f 127/127/127 129/129/129 130/130/130
f 132/132/132 131/131/131 133/133/133
f 134/134/134 131/131/131 132/132/132
f 136/136/136 135/135/135 137/137/137
f 138/138/138 135/135/135 136/136/136
f 140/140/140 139/139/139 141/141/141
f 142/142/142 139/139/139 140/140/140
f 144/144/144 143/143/143 145/145/145
f 146/146/146 143/143/143 144/144/144
f 148/148/148 147/147/147 149/149/149
f 150/150/150 147/147/147 148/148/148
f 12/12/12 9/9/9 17/17/17
f 20/20/20 66/66/66 21/21/21
f 34/34/34 31/31/31 40/40/40
