g D3_detailRoofing_geo
v -133.9076 3.955157 54.33781
v -133.9076 3.955166 59.60238
v -131.8621 2.20085 54.33781
v -131.8613 2.202384 59.60238
v -133.9517 3.955158 54.33781
v -133.9517 3.95516 59.60238
v -135.9126 2.201613 54.33777
v -135.913 2.202373 59.60238
v -135.7785 2.101048 54.40189
v -135.797 2.101685 54.35134
v -135.7533 2.098205 54.37197
v -132.0324 2.09852 54.37667
v -132.0795 2.096436 54.37666
v -133.9299 3.744673 54.35433
v -133.93 3.719442 54.37666
v -135.8999 2.178791 54.27761
v -133.9299 3.941665 54.27761
v -131.8744 2.178792 54.27761
v -135.8572 2.087186 54.27761
v -135.8519 2.061287 54.29818
v -133.9299 3.744662 54.30285
v -133.9299 3.769891 54.27761
v -131.9763 2.08717 54.27761
v -131.9861 2.07418 54.30285
v -135.7785 2.098554 59.40218
v -135.7935 2.10214 59.44995
v -135.7536 2.095865 59.43044
v -132.0394 2.102142 59.44997
v -132.0543 2.086149 59.40664
v -132.0792 2.095867 59.43044
v -133.9296 3.767044 59.45435
v -133.9296 3.74321 59.43044
v -135.9009 2.181546 59.62628
v -135.9229 2.17045 59.60238
v -133.9296 3.942424 59.62628
v -131.8513 2.170447 59.60244
v -131.8733 2.181549 59.62628
v -135.8588 2.095022 59.6263
v -135.8537 2.07056 59.60687
v -135.8806 2.08356 59.60238
v -133.9296 3.767048 59.60244
v -133.9296 3.790875 59.62628
v -131.974 2.095 59.62628
v -131.9522 2.083544 59.60238
v -131.9792 2.070545 59.60687
v -135.7785 2.101032 54.43679
v -135.8003 2.098544 54.38626
v -132.0543 2.08615 54.43679
v -132.0325 2.098545 54.41159
v -135.9222 2.167047 54.33781
v -135.8793 2.075056 54.33781
v -131.9522 2.083556 54.33781
v -131.8522 2.168919 54.33781
v -135.8521 2.061265 54.33312
v -131.9861 2.074158 54.33781
v -133.9517 3.955158 54.33781
v -135.9126 2.201613 54.33777
v -131.8621 2.20085 54.33781
v -133.9076 3.955157 54.33781
v -135.913 2.202373 59.60238
v -133.9517 3.95516 59.60238
v -131.8613 2.202384 59.60238
v -133.9076 3.955166 59.60238
v -135.8588 2.095022 59.6263
v -133.9296 3.942424 59.62628
v -133.9296 3.790875 59.62628
v -135.9009 2.181546 59.62628
v -131.8733 2.181549 59.62628
v -131.974 2.095 59.62628
v -131.9522 2.083544 59.60238
v -131.8522 2.168919 54.33781
v -131.9522 2.083556 54.33781
v -131.8513 2.170447 59.60244
v -133.9296 3.767048 59.60244
v -135.7935 2.10214 59.44995
v -135.8537 2.07056 59.60687
v -133.9296 3.767044 59.45435
v -135.8003 2.098544 54.38626
v -135.8521 2.061265 54.33312
v -131.9792 2.070545 59.60687
v -132.0394 2.102142 59.44997
v -131.9861 2.074158 54.33781
v -132.0325 2.098545 54.41159
v -135.8793 2.075056 54.33781
v -135.9229 2.17045 59.60238
v -135.8806 2.08356 59.60238
v -135.9222 2.167047 54.33781
v -132.0324 2.09852 54.37667
v -133.9299 3.744662 54.30285
v -133.9299 3.744673 54.35433
v -131.9861 2.07418 54.30285
v -135.8519 2.061287 54.29818
v -135.797 2.101685 54.35134
v -131.9763 2.08717 54.27761
v -133.9299 3.941665 54.27761
v -133.9299 3.769891 54.27761
v -131.8744 2.178792 54.27761
v -135.8999 2.178791 54.27761
v -135.8572 2.087186 54.27761
vt 0.5466955 0.896867
vt 0.5466955 0.896867
vt 0.5466955 0.8460525
vt 0.5466955 0.8460525
vt 0.5466955 0.9108544
vt 0.5466955 0.9108544
vt 0.5466955 0.8576074
vt 0.5466955 0.8576074
vt 0 1
vt 0 1
vt 0 1
vt 0 1
vt 0 1
vt 0 1
vt 0 1
vt 0 1
vt 0 1
vt 0 1
vt 0 1
vt 0 1
vt 0 1
vt 0 1
vt 0 1
vt 0 1
vt 0 1
vt 0 1
vt 0 1
vt 0 1
vt 0 1
vt 0 1
vt 0 1
vt 0 1
vt 0 1
vt 0 1
vt 0 1
vt 0 1
vt 0 1
vt 0 1
vt 0 1
vt 0 1
vt 0 1
vt 0 1
vt 0 1
vt 0 1
vt 0 1
vt 0 1
vt 0 1
vt 0 1
vt 0 1
vt 0 1
vt 0 1
vt 0 1
vt 0 1
vt 0 1
vt 0 1
vt 0 1
vt 0 1
vt 0 1
vt 0 1
vt 0 1
vt 0 1
vt 0 1
vt 0 1
vt 0.5469408 0.8510595
vt 0.5469408 0.8510595
vt 0.5469408 0.8510595
vt 0.5469408 0.8510595
vt 0.5469407 0.8510595
vt 0.5469407 0.8510595
vt 0.5553436 0.8510595
vt 0.5553436 0.8510595
vt 0.5553436 0.8510595
vt 0.5553436 0.8510595
vt 0.5599054 0.8510596
vt 0.5599054 0.8510596
vt 0.5599054 0.8510596
vt 0.5599054 0.8510596
vt 0.5599054 0.8510596
vt 0.5599054 0.8510596
vt 0.5599054 0.8510596
vt 0.5599054 0.8510596
vt 0.5599054 0.8510596
vt 0.5599054 0.8510596
vt 0.5553436 0.8510595
vt 0.5553436 0.8510595
vt 0.5553436 0.8510595
vt 0.5553436 0.8510595
vt 0.5599054 0.8510596
vt 0.5599054 0.8510596
vt 0.5599054 0.8510596
vt 0.5599054 0.8510596
vt 0.5599054 0.8510596
vt 0.5599054 0.8510596
vt 0.5469407 0.8510595
vt 0.5469407 0.8510595
vt 0.5469407 0.8510595
vt 0.5469407 0.8510595
vt 0.5469407 0.8510595
vt 0.5469407 0.8510595
vn 0.3379657 0.9271846 -0.1615794
vn 0.3114709 0.8912371 0.32967
vn 0.8236468 0.5388315 -0.1768238
vn 0.7832398 0.5070201 0.359814
vn -0.3472797 0.9234418 -0.1632546
vn -0.32011 0.8876312 0.3311202
vn -0.8348644 0.5207254 -0.1784561
vn -0.7909105 0.495257 0.3594176
vn 0.02643416 -0.9996087 -0.009154
vn 0.3886561 -0.9017787 -0.1890545
vn 0.2020237 -0.8756249 -0.4387112
vn -0.3626697 -0.8662813 -0.3435511
vn -0.06384217 -0.7677861 -0.6375176
vn 0.06123378 -0.7800575 -0.6227044
vn 0.09205985 -0.4228509 -0.901511
vn -0.7433867 0.1739663 -0.6458421
vn -0.003538754 0.6214661 -0.7834331
vn 0.7292634 0.09312807 -0.6778658
vn -0.3484809 -0.5373166 -0.7680182
vn 0.3323281 -0.8887801 -0.315639
vn -0.009765676 -0.8874514 -0.4607978
vn -0.0110011 -0.3432172 -0.9391916
vn 0.04318184 -0.5787683 -0.8143479
vn -0.5696044 -0.7886871 -0.2313514
vn -0.08567148 -0.9962076 0.01518938
vn 0.3304923 -0.9247401 0.1887604
vn 0.1771346 -0.871419 0.4574411
vn -0.2354712 -0.9311296 0.2784797
vn 0.3156349 -0.929449 0.1910478
vn -0.2497375 -0.767544 0.5903451
vn 0.002699546 -0.8409935 0.5410386
vn 0.001611368 -0.552334 0.8336213
vn -0.5212271 0.1288381 0.8436369
vn -0.9257694 -0.06089403 0.3731527
vn -0.002486807 0.4483888 0.8938351
vn 0.8845546 -0.2396202 0.4001816
vn 0.4925432 0.06655774 0.8677391
vn -0.1594215 -0.4288102 0.8892169
vn 0.2048679 -0.9143354 0.3493136
vn -0.6694234 -0.63216 0.3901872
vn 0.003424399 -0.872691 0.4882608
vn 0.001434753 -0.3137904 0.9494911
vn 0.1135027 -0.4898193 0.864404
vn 0.5096202 -0.7771938 0.36913
vn -0.207648 -0.916485 0.3419615
vn 0.05578318 -0.9982616 -0.0190275
vn 0.3193823 -0.9475543 -0.0116575
vn 0.3957956 -0.9152586 -0.07514935
vn -0.0466695 -0.9980654 -0.04107925
vn -0.9800771 -0.07594738 -0.1835237
vn -0.7590719 -0.6292667 -0.1668331
vn 0.3269956 -0.9068517 -0.2658829
vn 0.9458058 -0.2679533 -0.1834456
vn -0.007265158 -0.9968801 -0.07859613
vn -0.310902 -0.936788 -0.1605249
vn -0.3472797 0.9234418 -0.1632546
vn -0.8348644 0.5207254 -0.1784561
vn 0.8236468 0.5388315 -0.1768238
vn 0.3379657 0.9271846 -0.1615794
vn -0.7909105 0.495257 0.3594176
vn -0.32011 0.8876312 0.3311202
vn 0.7832398 0.5070201 0.359814
vn 0.3114709 0.8912371 0.32967
vn -0.1594215 -0.4288102 0.8892169
vn -0.002486807 0.4483888 0.8938351
vn 0.001434753 -0.3137904 0.9494911
vn -0.5212271 0.1288381 0.8436369
vn 0.4925432 0.06655774 0.8677391
vn 0.1135027 -0.4898193 0.864404
vn 0.5096202 -0.7771938 0.36913
vn 0.9458058 -0.2679533 -0.1834456
vn 0.3269956 -0.9068517 -0.2658829
vn 0.8845546 -0.2396202 0.4001816
vn 0.003424399 -0.872691 0.4882608
vn 0.3304923 -0.9247401 0.1887604
vn 0.2048679 -0.9143354 0.3493136
vn 0.002699546 -0.8409935 0.5410386
vn 0.3193823 -0.9475543 -0.0116575
vn -0.007265158 -0.9968801 -0.07859613
vn -0.207648 -0.916485 0.3419615
vn -0.2354712 -0.9311296 0.2784797
vn -0.310902 -0.936788 -0.1605249
vn -0.0466695 -0.9980654 -0.04107925
vn -0.7590719 -0.6292667 -0.1668331
vn -0.9257694 -0.06089403 0.3731527
vn -0.6694234 -0.63216 0.3901872
vn -0.9800771 -0.07594738 -0.1835237
vn -0.3626697 -0.8662813 -0.3435511
vn -0.009765676 -0.8874514 -0.4607978
vn 0.06123378 -0.7800575 -0.6227044
vn -0.5696044 -0.7886871 -0.2313514
vn 0.3323281 -0.8887801 -0.315639
vn 0.3886561 -0.9017787 -0.1890545
vn 0.04318184 -0.5787683 -0.8143479
vn -0.003538754 0.6214661 -0.7834331
vn -0.0110011 -0.3432172 -0.9391916
vn 0.7292634 0.09312807 -0.6778658
vn -0.7433867 0.1739663 -0.6458421
vn -0.3484809 -0.5373166 -0.7680182
g D3_detailRoofing_geo_0
f 4/4/4 1/1/1 2/2/2
f 3/3/3 1/1/1 4/4/4
f 8/8/8 5/5/5 7/7/7
f 6/6/6 5/5/5 8/8/8
f 66/66/66 69/69/69 68/68/68
f 65/65/65 66/66/66 68/68/68
f 64/64/64 66/66/66 65/65/65
f 67/67/67 64/64/64 65/65/65
f 71/71/71 70/70/70 72/72/72
f 73/73/73 70/70/70 71/71/71
f 81/81/81 83/83/83 82/82/82
f 80/80/80 81/81/81 82/82/82
f 77/77/77 81/81/81 80/80/80
f 74/74/74 77/77/77 80/80/80
f 75/75/75 77/77/77 74/74/74
f 76/76/76 75/75/75 74/74/74
f 78/78/78 75/75/75 76/76/76
f 79/79/79 78/78/78 76/76/76
f 85/85/85 84/84/84 86/86/86
f 87/87/87 84/84/84 85/85/85
f 90/90/90 93/93/93 92/92/92
f 89/89/89 90/90/90 92/92/92
f 88/88/88 90/90/90 89/89/89
f 91/91/91 88/88/88 89/89/89
f 96/96/96 99/99/99 98/98/98
f 95/95/95 96/96/96 98/98/98
f 94/94/94 96/96/96 95/95/95
f 97/97/97 94/94/94 95/95/95
f 26/26/26 25/25/25 27/27/27
f 46/46/46 25/25/25 26/26/26
f 47/47/47 46/46/46 26/26/26
f 9/9/9 46/46/46 47/47/47
f 10/10/10 9/9/9 47/47/47
f 11/11/11 9/9/9 10/10/10
f 14/14/14 11/11/11 10/10/10
f 15/15/15 11/11/11 14/14/14
f 12/12/12 15/15/15 14/14/14
f 13/13/13 15/15/15 12/12/12
f 48/48/48 13/13/13 12/12/12
f 20/20/20 19/19/19 22/22/22
f 51/51/51 19/19/19 20/20/20
f 54/54/54 51/51/51 20/20/20
f 40/40/40 51/51/51 54/54/54
f 39/39/39 40/40/40 54/54/54
f 38/38/38 40/40/40 39/39/39
f 42/42/42 38/38/38 39/39/39
f 22/22/22 21/21/21 20/20/20
f 24/24/24 21/21/21 22/22/22
f 23/23/23 24/24/24 22/22/22
f 52/52/52 24/24/24 23/23/23
f 18/18/18 52/52/52 23/23/23
f 53/53/53 52/52/52 18/18/18
f 58/58/58 53/53/53 18/18/18
f 36/36/36 53/53/53 58/58/58
f 62/62/62 36/36/36 58/58/58
f 37/37/37 36/36/36 62/62/62
f 35/35/35 37/37/37 62/62/62
f 44/44/44 37/37/37 43/43/43
f 45/45/45 44/44/44 43/43/43
f 52/52/52 44/44/44 45/45/45
f 55/55/55 52/52/52 45/45/45
f 24/24/24 52/52/52 55/55/55
f 12/12/12 24/24/24 55/55/55
f 49/49/49 12/12/12 55/55/55
f 48/48/48 12/12/12 49/49/49
f 29/29/29 48/48/48 49/49/49
f 16/16/16 57/57/57 56/56/56
f 50/50/50 57/57/57 16/16/16
f 19/19/19 50/50/50 16/16/16
f 51/51/51 50/50/50 19/19/19
f 56/56/56 17/17/17 16/16/16
f 59/59/59 17/17/17 56/56/56
f 63/63/63 59/59/59 56/56/56
f 58/58/58 17/17/17 59/59/59
f 18/18/18 17/17/17 58/58/58
f 28/28/28 30/30/30 29/29/29
f 32/32/32 30/30/30 28/28/28
f 31/31/31 32/32/32 28/28/28
f 27/27/27 32/32/32 31/31/31
f 26/26/26 27/27/27 31/31/31
f 28/28/28 29/29/29 49/49/49
f 33/33/33 61/61/61 60/60/60
f 34/34/34 33/33/33 60/60/60
f 38/38/38 33/33/33 34/34/34
f 40/40/40 38/38/38 34/34/34
f 50/50/50 60/60/60 57/57/57
f 34/34/34 60/60/60 50/50/50
f 35/35/35 61/61/61 33/33/33
f 63/63/63 61/61/61 35/35/35
f 62/62/62 63/63/63 35/35/35
f 36/36/36 37/37/37 44/44/44
f 41/41/41 42/42/42 39/39/39
f 43/43/43 42/42/42 41/41/41
f 45/45/45 43/43/43 41/41/41
f 10/10/10 54/54/54 20/20/20
f 47/47/47 54/54/54 10/10/10
f 63/63/63 56/56/56 61/61/61
