g D3_detailSiding_geo
v -135.7785 2.098554 59.40218
v -135.7785 0.02855444 59.36827
v -135.7785 2.101032 54.43679
v -135.7785 0.02855444 54.43679
v -135.7536 2.095868 59.43044
v -132.0792 2.095868 59.43044
v -133.9296 3.743213 59.43044
v -135.7536 0.02855444 59.3922
v -132.0792 0.02855444 59.3922
v -132.0543 2.08615 59.40664
v -132.0543 0.02855444 59.36837
v -132.0543 2.08615 54.43679
v -132.0543 0.02855444 54.43679
v -135.7533 2.098203 54.37197
v -132.0795 2.096439 54.37667
v -133.9299 3.719443 54.37667
v -135.7533 0.02855444 54.37667
v -132.0795 0.02855444 54.37667
v -135.7785 2.101048 54.40189
v -135.7533 2.098205 54.37197
v -132.0795 2.096436 54.37666
v -135.7785 -7.174441E-08 54.43679
v -135.7533 -9.757643E-08 54.37667
v -132.0795 -2.690403E-10 54.37667
v -132.0543 1.034581E-09 54.43679
v -135.7533 0.02855434 54.37667
v -132.0795 0.02855456 54.37666
v -132.0543 0.02855456 54.43679
v -135.7785 2.098554 59.40218
v -135.7536 2.095865 59.43044
v -132.0543 2.086149 59.40664
v -132.0792 2.095867 59.43044
v -135.7785 2.033043E-08 59.36837
v -135.7536 -4.551816E-09 59.3922
v -132.0792 9.473585E-09 59.3922
v -132.0543 -2.726394E-10 59.36837
v -135.7785 0.02855449 59.36827
v -135.7536 0.02855447 59.3922
v -132.0792 0.02855448 59.39214
v -132.0543 0.02855442 59.36837
v -135.7785 0.02855437 54.43679
v -134.4179 1.055735 59.49462
v -134.4179 1.055735 59.43623
v -134.4179 1.328231 59.49462
v -134.4179 1.328231 59.43623
v -134.5105 1.328231 59.49462
v -134.5105 1.328231 59.43623
v -134.5105 1.055735 59.49462
v -134.5105 1.055735 59.43623
v -132.9014 0 59.39224
v -132.9014 2.547313 59.39224
v -134.8597 2.547313 59.39224
v -134.8597 0 59.39224
v -134.6557 0 59.43623
v -133.1053 0 59.43623
v -133.1053 2.349859 59.43623
v -134.6557 2.349859 59.43623
v -132.9014 0 59.50087
v -132.9164 0 59.51583
v -132.9122 2.536812 59.51583
v -132.9014 2.547313 59.50087
v -134.8488 2.536812 59.51583
v -134.8597 2.547313 59.50087
v -134.8447 0 59.51583
v -134.8597 0 59.50087
v -133.0903 0 59.51583
v -133.1053 0 59.50087
v -133.1053 2.349859 59.50087
v -133.0944 2.360472 59.51583
v -134.6557 2.349859 59.50087
v -134.6666 2.360473 59.51583
v -134.6557 0 59.50087
v -134.6707 0 59.51583
v -134.8597 0.01903503 59.39224
v -134.8597 0.01903503 59.50087
v -134.8447 0.01895538 59.51583
v -134.6707 0.01763641 59.51583
v -134.6557 0.01755798 59.50087
v -134.6557 0.01755798 59.43623
v -133.1053 0.01755798 59.43623
v -133.1053 0.01755798 59.50087
v -133.0904 0.01763641 59.51583
v -132.9164 0.01895538 59.51583
v -132.9014 0.01903503 59.50087
v -132.9014 0.01903503 59.39224
v -134.8597 0 59.4095
v -134.8597 0.01903503 59.4095
v -134.8597 2.547313 59.4095
v -132.9014 2.547313 59.4095
v -132.9014 0.01903503 59.4095
v -132.9014 0 59.4095
v -133.1054 1.190467 59.46255
v -133.1053 1.190467 59.43623
v -133.1054 1.441463 59.46255
v -133.1053 1.441463 59.43623
v -134.6557 1.441463 59.46255
v -134.6557 1.441463 59.43623
v -134.6557 1.190467 59.46255
v -134.6557 1.190467 59.43623
v -133.1902 1.055735 59.49462
v -133.1902 1.055735 59.43623
v -133.1902 1.328231 59.49462
v -133.1902 1.328231 59.43623
v -133.2828 1.328231 59.49462
v -133.2828 1.328231 59.43623
v -133.2828 1.055735 59.49462
v -133.2828 1.055735 59.43623
v -135.7785 2.101032 54.43679
v -132.0543 2.08615 54.43679
v -134.5105 1.055735 59.49462
v -134.4179 1.328231 59.49462
v -134.4179 1.055735 59.49462
v -134.5105 1.328231 59.49462
v -133.1053 2.349859 59.43623
v -133.1053 0.01755798 59.43623
v -134.6557 2.349859 59.43623
v -134.6557 0.01755798 59.43623
v -132.9164 0.01895538 59.51583
v -132.9122 2.536812 59.51583
v -134.8488 2.536812 59.51583
v -134.8447 0.01895538 59.51583
v -133.1053 0.01755798 59.50087
v -133.0944 2.360472 59.51583
v -133.0904 0.01763641 59.51583
v -133.1053 2.349859 59.50087
v -134.6666 2.360473 59.51583
v -134.6557 2.349859 59.50087
v -134.6707 0.01763641 59.51583
v -134.6557 0.01755798 59.50087
v -134.6557 0.01755798 59.43623
v -133.1053 0.01755798 59.43623
v -134.8597 0.01903503 59.50087
v -134.8597 2.547313 59.4095
v -134.8597 2.547313 59.50087
v -134.8597 0.01903503 59.4095
v -132.9014 2.547313 59.4095
v -132.9014 2.547313 59.50087
v -132.9014 0.01903503 59.4095
v -132.9014 0.01903503 59.50087
v -134.6557 1.190467 59.46255
v -133.1054 1.441463 59.46255
v -133.1054 1.190467 59.46255
v -134.6557 1.441463 59.46255
v -133.2828 1.055735 59.49462
v -133.1902 1.328231 59.49462
v -133.1902 1.055735 59.49462
v -133.2828 1.328231 59.49462
vt 0.01753998 0.9881321
vt 0.01753998 0.9881321
vt 0.01753998 0.9881321
vt 0.01753998 0.9881321
vt 0.01935878 0.9799476
vt 0.01935878 0.9799476
vt 0.01935878 0.9799476
vt 0.01935878 0.9799476
vt 0.01935878 0.9799476
vt 0.01935878 0.965094
vt 0.01935878 0.965094
vt 0.01935878 0.965094
vt 0.01935878 0.965094
vt 0.01935878 0.9881321
vt 0.01935878 0.9881321
vt 0.01935878 0.9881321
vt 0.01935878 0.9881321
vt 0.01935878 0.9881321
vt 0 1
vt 0 1
vt 0 1
vt 0 1
vt 0 1
vt 0 1
vt 0 1
vt 0 1
vt 0 1
vt 0 1
vt 0 1
vt 0 1
vt 0 1
vt 0 1
vt 0 1
vt 0 1
vt 0 1
vt 0 1
vt 0 1
vt 0 1
vt 0 1
vt 0 1
vt 0 1
vt 0.2919256 0.9334947
vt 0.2919256 0.9334947
vt 0.2919256 0.9334947
vt 0.2919256 0.9334947
vt 0.2919256 0.9334947
vt 0.2919256 0.9334947
vt 0.2919256 0.9334947
vt 0.2919256 0.9334947
vt 0 1
vt 0 1
vt 0 1
vt 0 1
vt 0 1
vt 0 1
vt 0.09806877 0.8054318
vt 0.09806877 0.8054318
vt 0 1
vt 0 1
vt 0.09806877 0.8054318
vt 0 1
vt 0.09806877 0.8054318
vt 0 1
vt 0 1
vt 0 1
vt 0 1
vt 0 1
vt 0.09806877 0.7761644
vt 0.09806877 0.8054318
vt 0.09806877 0.7761644
vt 0.09806877 0.8054318
vt 0 1
vt 0 1
vt 0 1
vt 0 1
vt 0.09806877 0.8054318
vt 0.09806877 0.8054318
vt 0.09806877 0.7761644
vt 0.09806877 0.8054318
vt 0.09806877 0.8054318
vt 0.09806877 0.7761644
vt 0.09806877 0.8054318
vt 0.09806877 0.8054318
vt 0 1
vt 0 1
vt 0 1
vt 0 1
vt 0 1
vt 0 1
vt 0 1
vt 0 1
vt 0.1592769 0.7710179
vt 0.1592769 0.7710179
vt 0.1592769 0.7710179
vt 0.1592769 0.7710179
vt 0.1592769 0.7710179
vt 0.1592769 0.7710179
vt 0.1592769 0.7710179
vt 0.1592769 0.7710179
vt 0.2919256 0.9334947
vt 0.2919256 0.9334947
vt 0.2919256 0.9334947
vt 0.2919256 0.9334947
vt 0.2919256 0.9334947
vt 0.2919256 0.9334947
vt 0.2919256 0.9334947
vt 0.2919256 0.9334947
vt 0 1
vt 0 1
vt 0.2919256 0.952498
vt 0.2919256 0.952498
vt 0.2919256 0.952498
vt 0.2919256 0.952498
vt 0.09806877 0.7761644
vt 0.09806877 0.7761644
vt 0.09806877 0.7761644
vt 0.09806877 0.7761644
vt 0 1
vt 0 1
vt 0 1
vt 0 1
vt 0 1
vt 0 1
vt 0 1
vt 0 1
vt 0 1
vt 0 1
vt 0 1
vt 0 1
vt 0 1
vt 0 1
vt 0.09806877 0.7761644
vt 0.09806877 0.7761644
vt 0.09806877 0.7761644
vt 0.09806877 0.7761644
vt 0.09806877 0.7761644
vt 0.09806877 0.7761644
vt 0.09806877 0.7761644
vt 0.09806877 0.7761644
vt 0.1592769 0.7900211
vt 0.1592769 0.7900211
vt 0.1592769 0.7900211
vt 0.1592769 0.7900211
vt 0.2919256 0.952498
vt 0.2919256 0.952498
vt 0.2919256 0.952498
vt 0.2919256 0.952498
vn -1 4.878323E-06 1.578777E-05
vn -1 4.878323E-06 1.578777E-05
vn -1 4.878323E-06 1.578777E-05
vn -1 4.878323E-06 1.578777E-05
vn 0 -0.009248058 0.9999572
vn 0 -0.009248058 0.9999572
vn 0 0 1
vn 0 -0.01849533 0.9998289
vn 0 -0.01849533 0.9998289
vn 1 -4.908427E-06 1.97257E-06
vn 1 -4.908427E-06 1.97257E-06
vn 1 -4.908427E-06 1.97257E-06
vn 1 -4.908427E-06 1.97257E-06
vn 0.0009603587 0.0001619687 -0.9999995
vn 0.0009603587 0.0001619687 -0.9999995
vn 0.001281612 0.001461577 -0.9999981
vn 0.0006391033 -0.00113764 -0.9999992
vn 0.0006391033 -0.00113764 -0.9999992
vn -0.9272309 -0.003517731 -0.3744737
vn -0.9272309 -0.003517731 -0.3744737
vn 0.9220004 0 -0.3871888
vn -0.9816394 -0.001791764 -0.190738
vn -0.5592493 -0.002327947 -0.8289963
vn 0.5534653 -0.0004542569 -0.832872
vn 0.9802894 -0.0002115071 -0.1975671
vn -0.5592493 -0.002327947 -0.8289963
vn 0.7205346 -0.0002956783 -0.6934189
vn 0.964857 -0.0001406865 -0.2627751
vn -0.7233943 -0.01204337 0.6903301
vn -0.7233943 -0.01204337 0.6903301
vn 0.6896117 -0.01344462 0.7240546
vn 0.6896117 -0.01344462 0.7240546
vn -0.9196993 0.0005385792 0.392623
vn -0.3726966 0.001086622 0.9279526
vn 0.3724861 0.0008739197 0.9280374
vn 0.9196071 0.0003240865 0.3928392
vn -0.8631932 -0.003950419 0.5048584
vn -0.5059417 -0.003584899 0.8625602
vn 0.4915494 -0.004208161 0.8708395
vn 0.8546219 -0.004611843 0.5192304
vn -0.9816394 -0.001791764 -0.190738
vn 0.5773503 -0.5773502 0.5773503
vn 0.7071068 -0.7071068 0
vn 0.5773503 0.5773502 0.5773503
vn 0.7071068 0.7071068 0
vn -0.5773503 0.5773502 0.5773503
vn -0.7071068 0.7071068 0
vn -0.5773503 -0.5773502 0.5773503
vn -0.7071068 -0.7071068 0
vn 1 0 0
vn 0.7071068 0.7071068 0
vn -0.7071068 0.7071068 0
vn -1 0 0
vn 0.7071068 0 0.7071068
vn -0.7071068 0 0.7071068
vn -0.5773503 -0.5773503 0.5773503
vn 0.5773503 -0.5773503 0.5773503
vn 0.9236277 0 0.3832909
vn 0.3820759 0 0.924131
vn 0.2215762 0.2394926 0.9452763
vn 0.6250424 0.6468034 0.4369979
vn -0.2217475 0.2395234 0.9452284
vn -0.6252025 0.6467908 0.4367875
vn -0.3820768 -0.0007877873 0.9241302
vn -0.923628 -0.0007882156 0.3832893
vn -0.3823906 -0.0005673451 0.9240006
vn -0.9237581 -0.000567494 0.3829758
vn -0.6244457 -0.6460826 0.4389134
vn -0.2209056 -0.2386845 0.9456376
vn 0.6246055 -0.6460702 0.438704
vn 0.2210746 -0.2387154 0.9455903
vn 0.9237583 -0.0002837471 0.3829761
vn 0.3823907 -0.0002836726 0.9240007
vn -1 0 0
vn -0.9306988 -0.0005565602 0.365786
vn -0.399182 -0.000564963 0.9168715
vn 0.398897 -0.0003203349 0.9169957
vn 0.930574 -0.0003156587 0.3661039
vn 0.7071068 0 0.7071068
vn -0.7071068 0 0.7071068
vn -0.9305048 -0.0004553295 0.3662792
vn -0.3987309 -0.0004620033 0.9170678
vn 0.3990114 -0.0001687285 0.916946
vn 0.9306294 -0.0001662446 0.365963
vn 1 0 0
vn -1 0 0
vn -1 0 0
vn -0.7071068 0.7071068 0
vn 0.7071068 0.7071068 0
vn 1 0 0
vn 1 0 0
vn 0.5770643 -0.5770651 0.577921
vn 0.707106 -0.7071068 0.001048942
vn 0.5770643 0.5770651 0.577921
vn 0.707106 0.7071068 0.001048942
vn -0.5773503 0.5773503 0.5773502
vn -0.7071068 0.7071068 0
vn -0.5773503 -0.5773503 0.5773502
vn -0.7071068 -0.7071068 0
vn 0.5773503 -0.5773503 0.5773502
vn 0.7071068 -0.7071068 0
vn 0.5773503 0.5773503 0.5773502
vn 0.7071068 0.7071068 0
vn -0.5773503 0.5773503 0.5773502
vn -0.7071068 0.7071068 0
vn -0.5773503 -0.5773503 0.5773502
vn -0.7071068 -0.7071068 0
vn -0.9272309 -0.003517731 -0.3744737
vn 0.9220004 0 -0.3871888
vn -0.5773503 -0.5773502 0.5773503
vn 0.5773503 0.5773502 0.5773503
vn 0.5773503 -0.5773502 0.5773503
vn -0.5773503 0.5773502 0.5773503
vn -0.5773503 -0.5773503 0.5773503
vn -0.7071068 0 0.7071068
vn 0.5773503 -0.5773503 0.5773503
vn 0.7071068 0 0.7071068
vn 0.3990114 -0.0001687285 0.916946
vn 0.2215762 0.2394926 0.9452763
vn -0.2217475 0.2395234 0.9452284
vn -0.399182 -0.000564963 0.9168715
vn -0.9305048 -0.0004553295 0.3662792
vn -0.2209056 -0.2386845 0.9456376
vn -0.3987309 -0.0004620033 0.9170678
vn -0.6244457 -0.6460826 0.4389134
vn 0.2210746 -0.2387154 0.9455903
vn 0.6246055 -0.6460702 0.438704
vn 0.398897 -0.0003203349 0.9169957
vn 0.930574 -0.0003156587 0.3661039
vn 0.7071068 0 0.7071068
vn -0.7071068 0 0.7071068
vn -0.9306988 -0.0005565602 0.365786
vn -0.7071068 0.7071068 0
vn -0.6252025 0.6467908 0.4367875
vn -1 0 0
vn 0.7071068 0.7071068 0
vn 0.6250424 0.6468034 0.4369979
vn 1 0 0
vn 0.9306294 -0.0001662446 0.365963
vn -0.5773503 -0.5773503 0.5773502
vn 0.5770643 0.5770651 0.577921
vn 0.5770643 -0.5770651 0.577921
vn -0.5773503 0.5773503 0.5773502
vn -0.5773503 -0.5773503 0.5773502
vn 0.5773503 0.5773503 0.5773502
vn 0.5773503 -0.5773503 0.5773502
vn -0.5773503 0.5773503 0.5773502
g D3_detailSiding_geo_0
f 2/2/2 3/3/3 4/4/4
f 1/1/1 3/3/3 2/2/2
f 5/5/5 6/6/6 7/7/7
f 9/9/9 6/6/6 5/5/5
f 8/8/8 9/9/9 5/5/5
f 13/13/13 10/10/10 11/11/11
f 12/12/12 10/10/10 13/13/13
f 15/15/15 14/14/14 16/16/16
f 17/17/17 14/14/14 15/15/15
f 18/18/18 17/17/17 15/15/15
f 20/20/20 108/108/108 19/19/19
f 41/41/41 108/108/108 20/20/20
f 26/26/26 41/41/41 20/20/20
f 22/22/22 41/41/41 26/26/26
f 23/23/23 22/22/22 26/26/26
f 28/28/28 36/36/36 25/25/25
f 27/27/27 28/28/28 25/25/25
f 109/109/109 28/28/28 27/27/27
f 21/21/21 109/109/109 27/27/27
f 39/39/39 35/35/35 36/36/36
f 40/40/40 39/39/39 36/36/36
f 32/32/32 39/39/39 40/40/40
f 31/31/31 32/32/32 40/40/40
f 37/37/37 33/33/33 34/34/34
f 38/38/38 37/37/37 34/34/34
f 29/29/29 37/37/37 38/38/38
f 30/30/30 29/29/29 38/38/38
f 111/111/111 110/110/110 112/112/112
f 113/113/113 110/110/110 111/111/111
f 56/56/56 79/79/79 80/80/80
f 57/57/57 79/79/79 56/56/56
f 62/62/62 76/76/76 77/77/77
f 71/71/71 62/62/62 77/77/77
f 60/60/60 62/62/62 71/71/71
f 69/69/69 60/60/60 71/71/71
f 83/83/83 60/60/60 69/69/69
f 82/82/82 83/83/83 69/69/69
f 70/70/70 78/78/78 117/117/117
f 116/116/116 70/70/70 117/117/117
f 68/68/68 70/70/70 116/116/116
f 114/114/114 68/68/68 116/116/116
f 81/81/81 68/68/68 114/114/114
f 115/115/115 81/81/81 114/114/114
f 84/84/84 59/59/59 58/58/58
f 91/91/91 84/84/84 58/58/58
f 90/90/90 84/84/84 91/91/91
f 85/85/85 90/90/90 91/91/91
f 89/89/89 90/90/90 85/85/85
f 51/51/51 89/89/89 85/85/85
f 88/88/88 89/89/89 51/51/51
f 52/52/52 88/88/88 51/51/51
f 87/87/87 88/88/88 52/52/52
f 74/74/74 87/87/87 52/52/52
f 86/86/86 87/87/87 74/74/74
f 53/53/53 86/86/86 74/74/74
f 50/50/50 85/85/85 91/91/91
f 137/137/137 139/139/139 138/138/138
f 136/136/136 137/137/137 138/138/138
f 134/134/134 137/137/137 136/136/136
f 133/133/133 134/134/134 136/136/136
f 132/132/132 134/134/134 133/133/133
f 135/135/135 132/132/132 133/133/133
f 141/141/141 140/140/140 142/142/142
f 143/143/143 140/140/140 141/141/141
f 145/145/145 144/144/144 146/146/146
f 147/147/147 144/144/144 145/145/145
f 24/24/24 27/27/27 25/25/25
f 26/26/26 27/27/27 24/24/24
f 23/23/23 26/26/26 24/24/24
f 40/40/40 36/36/36 28/28/28
f 41/41/41 33/33/33 37/37/37
f 22/22/22 33/33/33 41/41/41
f 38/38/38 35/35/35 39/39/39
f 34/34/34 35/35/35 38/38/38
f 48/48/48 43/43/43 42/42/42
f 49/49/49 43/43/43 48/48/48
f 46/46/46 49/49/49 48/48/48
f 47/47/47 49/49/49 46/46/46
f 44/44/44 47/47/47 46/46/46
f 45/45/45 47/47/47 44/44/44
f 42/42/42 45/45/45 44/44/44
f 43/43/43 45/45/45 42/42/42
f 121/121/121 65/65/65 64/64/64
f 75/75/75 65/65/65 121/121/121
f 120/120/120 75/75/75 121/121/121
f 63/63/63 75/75/75 120/120/120
f 119/119/119 63/63/63 120/120/120
f 61/61/61 63/63/63 119/119/119
f 118/118/118 61/61/61 119/119/119
f 84/84/84 61/61/61 118/118/118
f 59/59/59 84/84/84 118/118/118
f 129/129/129 73/73/73 72/72/72
f 128/128/128 73/73/73 129/129/129
f 127/127/127 128/128/128 129/129/129
f 126/126/126 128/128/128 127/127/127
f 125/125/125 126/126/126 127/127/127
f 123/123/123 126/126/126 125/125/125
f 122/122/122 123/123/123 125/125/125
f 124/124/124 123/123/123 122/122/122
f 67/67/67 124/124/124 122/122/122
f 66/66/66 124/124/124 67/67/67
f 64/64/64 128/128/128 121/121/121
f 73/73/73 128/128/128 64/64/64
f 131/131/131 55/55/55 67/67/67
f 54/54/54 55/55/55 131/131/131
f 130/130/130 54/54/54 131/131/131
f 72/72/72 54/54/54 130/130/130
f 129/129/129 72/72/72 130/130/130
f 131/131/131 67/67/67 122/122/122
f 124/124/124 59/59/59 118/118/118
f 66/66/66 59/59/59 124/124/124
f 87/87/87 65/65/65 75/75/75
f 86/86/86 65/65/65 87/87/87
f 98/98/98 93/93/93 92/92/92
f 99/99/99 93/93/93 98/98/98
f 96/96/96 99/99/99 98/98/98
f 97/97/97 99/99/99 96/96/96
f 94/94/94 97/97/97 96/96/96
f 95/95/95 97/97/97 94/94/94
f 92/92/92 95/95/95 94/94/94
f 93/93/93 95/95/95 92/92/92
f 106/106/106 101/101/101 100/100/100
f 107/107/107 101/101/101 106/106/106
f 104/104/104 107/107/107 106/106/106
f 105/105/105 107/107/107 104/104/104
f 102/102/102 105/105/105 104/104/104
f 103/103/103 105/105/105 102/102/102
f 100/100/100 103/103/103 102/102/102
f 101/101/101 103/103/103 100/100/100
