g D3_fence03_geo
v -205.521 -8.583068E-08 60.45613
v -205.521 1.5 60.45613
v -173.6051 1.5 60.45613
v -173.6051 -8.583068E-08 60.45613
v -194.119 1.5 60.45613
v -194.119 -8.583068E-08 60.45613
v -196.8988 1.5 60.45613
v -196.8988 -8.583068E-08 60.45613
v -173.4987 -8.583068E-08 60.26757
v -173.4987 1.5 60.26757
v -173.4987 1.5 31.25151
v -173.4987 -8.583068E-08 31.25151
v -173.4987 -8.583068E-08 26.31043
v -173.4987 1.5 26.31043
v -207.0434 1.5 20.30002
v -207.0434 -8.583068E-08 20.30002
v -173.4987 1.5 20.30002
v -173.4987 -8.583068E-08 20.30002
vt -11.13223 0.5
vt -11.13223 1
vt 2.992629 1
vt 2.992629 0.5
vt -6.098329 1
vt -6.098329 0.4999999
vt -8.006392 1
vt -8.006392 0.4999999
vt -11.15128 0.5
vt -11.15128 1
vt 1 1
vt 1 0.5
vt -11.15128 0.5
vt -11.15128 1
vt 4.929802 1
vt 4.929802 0.5
vt -8.060673 1
vt -8.060673 0.4999999
vn 4.832483E-07 0 1
vn 4.832483E-07 0 1
vn 0 0 1
vn 0 0 1
vn 0 0 1
vn 0 0 1
vn 4.832483E-07 0 1
vn 4.832483E-07 0 1
vn 1 0 0
vn 1 0 0
vn 1 0 0
vn 1 0 0
vn 1 0 0
vn 1 0 0
vn 0 0 -1
vn 0 0 -1
vn 0.7071068 0 -0.7071068
vn 0.7071068 0 -0.7071068
g D3_fence03_geo_0
f 3/3/3 6/6/6 4/4/4
f 5/5/5 6/6/6 3/3/3
f 7/7/7 1/1/1 8/8/8
f 2/2/2 1/1/1 7/7/7
f 11/11/11 9/9/9 12/12/12
f 10/10/10 9/9/9 11/11/11
f 17/17/17 14/14/14 13/13/13
f 18/18/18 17/17/17 13/13/13
f 15/15/15 17/17/17 18/18/18
f 16/16/16 15/15/15 18/18/18
