g D3_GarageDoor_geo
v -92.84769 0.02851675 17.01567
v -92.8327 0.04351525 17.00067
v -88.60344 0.02851675 17.01567
v -88.61844 0.04351525 17.00067
v -92.84771 2.794571 17.01566
v -92.83271 2.779573 17.00066
v -88.60344 2.794571 17.01567
v -88.61844 2.779573 17.00067
v -92.84771 2.085178 17.01566
v -92.83271 2.100177 17.00066
v -88.60344 0.7140706 17.01567
v -88.61844 0.6990721 17.00067
v -88.61844 0.7290691 17.00067
v -88.60344 1.399624 17.01567
v -88.61844 1.384626 17.00067
v -92.8327 0.6990721 17.00066
v -88.61844 1.414623 17.00067
v -88.60344 2.085178 17.01567
v -88.61844 2.07018 17.00067
v -92.84769 0.7140706 17.01566
v -92.8327 0.7290691 17.00066
v -92.8327 1.384626 17.00066
v -88.61844 2.100177 17.00067
v -92.8477 1.399624 17.01566
v -92.8327 1.414623 17.00066
v -92.83271 2.07018 17.00066
v -92.8327 0.04351525 17.08979
v -92.8477 0.02851675 17.07479
v -88.61844 0.04351525 17.08979
v -88.60344 0.02851675 17.07479
v -88.61844 2.779573 17.08979
v -88.60344 2.794571 17.07479
v -92.83271 2.779573 17.08979
v -92.84771 2.794571 17.07479
v -92.83271 2.100177 17.08979
v -88.61844 0.6990721 17.08979
v -88.61844 0.7290691 17.08979
v -88.60344 0.7140706 17.07479
v -88.61844 1.384626 17.08979
v -92.8327 0.6990721 17.08979
v -92.8477 0.7140706 17.07479
v -88.61844 1.414623 17.08979
v -88.60344 1.399624 17.07479
v -88.61844 2.07018 17.08979
v -92.83271 1.384626 17.08979
v -92.84771 1.399624 17.07479
v -92.8327 0.7290691 17.08979
v -88.61844 2.100177 17.08979
v -88.60344 2.085178 17.07479
v -92.83271 2.07018 17.08979
v -92.84771 2.085178 17.07479
v -92.83271 1.414623 17.08979
v -88.61844 0.7290691 17.00067
v -92.8327 0.7290691 17.00066
v -88.61844 1.414623 17.00067
v -92.8327 1.384626 17.00066
v -88.61844 1.384626 17.00067
v -92.8327 1.414623 17.00066
v -92.83271 2.07018 17.00066
v -88.61844 2.07018 17.00067
v -92.84771 2.794571 17.01566
v -92.84771 2.794571 17.07479
v -88.60344 0.02851675 17.01567
v -88.60344 0.02851675 17.07479
v -92.8477 0.02851675 17.07479
v -92.84769 0.02851675 17.01567
v -88.60344 2.794571 17.07479
v -88.60344 2.794571 17.01567
v -92.8327 0.7290691 17.08979
v -88.61844 0.7290691 17.08979
v -88.61844 1.384626 17.08979
v -92.83271 1.414623 17.08979
v -88.61844 1.414623 17.08979
v -92.83271 1.384626 17.08979
v -88.61844 2.07018 17.08979
v -92.83271 2.07018 17.08979
v -88.61844 0.6990721 17.00067
v -92.8327 0.6990721 17.00066
v -92.83271 2.100177 17.00066
v -88.61844 2.100177 17.00067
v -92.8327 0.6990721 17.08979
v -88.61844 0.6990721 17.08979
v -88.61844 2.100177 17.08979
v -92.83271 2.100177 17.08979
v -92.8327 0.04351525 17.00067
v -92.84769 0.7140706 17.01566
v -92.84769 0.02851675 17.01567
v -92.8327 0.6990721 17.00066
v -92.84769 0.02851675 17.01567
v -88.61844 0.04351525 17.00067
v -92.8327 0.04351525 17.00067
v -88.60344 0.02851675 17.01567
v -88.60344 0.02851675 17.01567
v -88.61844 0.6990721 17.00067
v -88.61844 0.04351525 17.00067
v -88.60344 0.7140706 17.01567
v -92.83271 2.779573 17.00066
v -88.60344 2.794571 17.01567
v -92.84771 2.794571 17.01566
v -88.61844 2.779573 17.00067
v -92.84771 2.794571 17.01566
v -92.83271 2.100177 17.00066
v -92.83271 2.779573 17.00066
v -92.84771 2.085178 17.01566
v -88.61844 2.779573 17.00067
v -88.60344 2.085178 17.01567
v -88.60344 2.794571 17.01567
v -88.61844 2.100177 17.00067
v -92.83271 2.07018 17.00066
v -88.61844 0.7290691 17.00067
v -88.61844 1.384626 17.00067
v -88.60344 1.399624 17.01567
v -88.61844 1.414623 17.00067
v -92.8327 0.7290691 17.00066
v -88.61844 2.07018 17.00067
v -92.8477 1.399624 17.01566
v -92.8327 1.384626 17.00066
v -92.8327 1.414623 17.00066
v -92.8477 0.02851675 17.07479
v -92.8327 0.6990721 17.08979
v -92.8327 0.04351525 17.08979
v -92.8477 0.7140706 17.07479
v -92.8327 0.04351525 17.08979
v -88.60344 0.02851675 17.07479
v -92.8477 0.02851675 17.07479
v -88.61844 0.04351525 17.08979
v -88.61844 0.04351525 17.08979
v -88.60344 0.7140706 17.07479
v -88.60344 0.02851675 17.07479
v -88.61844 0.6990721 17.08979
v -88.60344 2.794571 17.07479
v -88.61844 2.100177 17.08979
v -88.61844 2.779573 17.08979
v -88.60344 2.085178 17.07479
v -88.61844 2.779573 17.08979
v -92.84771 2.794571 17.07479
v -88.60344 2.794571 17.07479
v -92.83271 2.779573 17.08979
v -92.83271 2.779573 17.08979
v -92.84771 2.085178 17.07479
v -92.84771 2.794571 17.07479
v -92.83271 2.100177 17.08979
v -92.83271 2.07018 17.08979
v -88.61844 0.7290691 17.08979
v -88.60344 1.399624 17.07479
v -88.61844 1.384626 17.08979
v -88.61844 1.414623 17.08979
v -92.8327 0.7290691 17.08979
v -88.61844 2.07018 17.08979
v -92.84771 1.399624 17.07479
v -92.83271 1.414623 17.08979
v -92.83271 1.384626 17.08979
vt 0.4224228 0.7340301
vt 0.3728542 0.7791965
vt 0.4224228 0.7340301
vt 0.3728542 0.7791965
vt 0.4224228 0.7402882
vt 0.3728542 0.7791965
vt 0.4224228 0.7402882
vt 0.3728542 0.7791965
vt 0.3733432 0.7366535
vt 0 1
vt 0.3733432 0.7366535
vt 0 1
vt 0.3728542 0.7791965
vt 0.3733432 0.7366535
vt 0.3728542 0.7791965
vt 0 1
vt 0.3728542 0.7791965
vt 0.3733432 0.7366535
vt 0.3728542 0.7791965
vt 0.3733432 0.7366535
vt 0.3728542 0.7791965
vt 0.3728542 0.7791965
vt 0 1
vt 0.3733432 0.7366535
vt 0.3728542 0.7791966
vt 0.3728542 0.7791965
vt 0.3728542 0.7791965
vt 0.4224228 0.7340301
vt 0.3728542 0.7791965
vt 0.4224228 0.7340301
vt 0.3728542 0.7791965
vt 0.4224228 0.7402883
vt 0.3728542 0.7791965
vt 0.4224228 0.7402882
vt 0 1
vt 0 1
vt 0.3728542 0.7791965
vt 0.3733432 0.7366535
vt 0.3728542 0.7791965
vt 0 1
vt 0.3733432 0.7366535
vt 0.3728542 0.7791965
vt 0.3733432 0.7366535
vt 0.3728542 0.7791965
vt 0.3728542 0.7791965
vt 0.3733432 0.7366535
vt 0.3728542 0.7791965
vt 0 1
vt 0.3733432 0.7366535
vt 0.3728542 0.7791965
vt 0.3733431 0.7366534
vt 0.3728542 0.7791965
vt 0 1
vt 0 1
vt 0 1
vt 0 1
vt 0 1
vt 0 1
vt 0 1
vt 0 1
vt 0.3733432 0.7366536
vt 0.3733432 0.7366536
vt 0.3733432 0.7366535
vt 0.3733432 0.7366535
vt 0.3733432 0.7366535
vt 0.3733432 0.7366536
vt 0.3733432 0.7366536
vt 0.3733432 0.7366536
vt 0 1
vt 0 1
vt 0 1
vt 0 1
vt 0 1
vt 0 1
vt 0 1
vt 0 1
vt 0.3728541 0.7791965
vt 0.3728542 0.7791965
vt 0.3728542 0.7791965
vt 0.3728542 0.7791965
vt 0.3728542 0.7791965
vt 0.3728542 0.7791965
vt 0.3728542 0.7791965
vt 0.3728542 0.7791965
vt 0 1
vt 0 1
vt 0 1
vt 0 1
vt 0 1
vt 0 1
vt 0 1
vt 0 1
vt 0 1
vt 0 1
vt 0 1
vt 0 1
vt 0 1
vt 0 1
vt 0 1
vt 0 1
vt 0 1
vt 0 1
vt 0 1
vt 0 1
vt 0 1
vt 0 1
vt 0 1
vt 0 1
vt 0 1
vt 0 1
vt 0 1
vt 0 1
vt 0 1
vt 0 1
vt 0 1
vt 0 1
vt 0 1
vt 0 1
vt 0 1
vt 0 1
vt 0 1
vt 0 1
vt 0 1
vt 0 1
vt 0 1
vt 0 1
vt 0 1
vt 0 1
vt 0 1
vt 0 1
vt 0 1
vt 0 1
vt 0 1
vt 0 1
vt 0 1
vt 0 1
vt 0 1
vt 0 1
vt 0 1
vt 0 1
vt 0 1
vt 0 1
vt 0 1
vt 0 1
vt 0 1
vt 0 1
vt 0 1
vt 0 1
vt 0 1
vt 0 1
vt 0 1
vt 0 1
vn 0 -1 0
vn 2.827864E-07 -9.310429E-07 -1
vn 0 -1 0
vn 2.827864E-07 -9.310429E-07 -1
vn 0 1 0
vn 1.364313E-06 -2.695133E-06 -1
vn 0 1 0
vn 1.364313E-06 -2.695133E-06 -1
vn -1 0 0
vn 1.261532E-06 -1.347566E-06 -1
vn 1 0 0
vn 3.345198E-07 -4.655215E-07 -1
vn 4.759126E-07 -9.310417E-07 -1
vn 1 0 0
vn 6.69038E-07 -9.310417E-07 -1
vn 3.345198E-07 -4.655215E-07 -1
vn 8.104302E-07 -4.655155E-07 -1
vn 1 0 0
vn 1.003554E-06 -4.655155E-07 -1
vn -1 -9.636511E-06 -0.0001651587
vn 4.759126E-07 -9.310417E-07 -1
vn 6.69038E-07 -9.310417E-07 -1
vn 1.261532E-06 -1.347566E-06 -1
vn -1 -2.890842E-05 -0.0001651523
vn 8.104302E-07 -4.655155E-07 -1
vn 1.003554E-06 -4.655155E-07 -1
vn -2.827858E-07 1.86209E-06 1
vn 0 -1 0
vn -2.827858E-07 1.86209E-06 1
vn 0 -1 0
vn -8.185874E-07 8.983778E-07 1
vn 0 1 0
vn -8.185874E-07 8.983778E-07 1
vn 0 1 0
vn -7.955444E-07 4.491889E-07 1
vn -3.345189E-07 9.310451E-07 1
vn -5.655708E-07 0 1
vn 1 0 0
vn -5.655708E-07 0 1
vn -3.345189E-07 9.310451E-07 1
vn -1 -9.636511E-06 -0.0001651587
vn -5.655702E-07 0 1
vn 1 0 0
vn -5.655702E-07 0 1
vn -5.655708E-07 0 1
vn -1 -2.890842E-05 -0.0001651523
vn -5.655708E-07 0 1
vn -7.955444E-07 4.491889E-07 1
vn 1 0 0
vn -5.655702E-07 0 1
vn -1 0 0
vn -5.655702E-07 0 1
vn 4.759126E-07 -9.310417E-07 -1
vn 4.759126E-07 -9.310417E-07 -1
vn 8.104302E-07 -4.655155E-07 -1
vn 6.69038E-07 -9.310417E-07 -1
vn 6.69038E-07 -9.310417E-07 -1
vn 8.104302E-07 -4.655155E-07 -1
vn 1.003554E-06 -4.655155E-07 -1
vn 1.003554E-06 -4.655155E-07 -1
vn -1 0 0
vn -1 0 0
vn 1 0 0
vn 1 0 0
vn -1 -9.636511E-06 -0.0001651587
vn -1 -9.636511E-06 -0.0001651587
vn 1 0 0
vn 1 0 0
vn -3.862519E-07 0 1
vn -3.862519E-07 0 1
vn -3.862519E-07 0 1
vn -3.862519E-07 0 1
vn -3.862519E-07 0 1
vn -3.862519E-07 0 1
vn -7.725014E-07 0 1
vn -7.725014E-07 0 1
vn 3.345198E-07 -4.655215E-07 -1
vn 3.345198E-07 -4.655215E-07 -1
vn 1.261532E-06 -1.347566E-06 -1
vn 1.261532E-06 -1.347566E-06 -1
vn -3.345189E-07 9.310451E-07 1
vn -3.345189E-07 9.310451E-07 1
vn -7.955444E-07 4.491889E-07 1
vn -7.955444E-07 4.491889E-07 1
vn -0.7070611 2.805968E-06 -0.7071524
vn -0.7070974 -6.348065E-06 -0.7071161
vn -0.7070611 2.805968E-06 -0.7071524
vn -0.7071019 1.402984E-06 -0.7071116
vn 0 -0.7071422 -0.7070713
vn 0 -0.7071422 -0.7070713
vn 0 -0.7071422 -0.7070713
vn 0 -0.7071422 -0.7070713
vn 0.7070611 0 -0.7071524
vn 0.7071019 0 -0.7071116
vn 0.7070611 0 -0.7071524
vn 0.7070974 0 -0.7071161
vn 1.632862E-06 0.7071277 -0.7070858
vn 1.632862E-06 0.7071277 -0.7070858
vn 1.632862E-06 0.7071277 -0.7070858
vn 1.632862E-06 0.7071277 -0.7070858
vn -0.7070437 -1.278772E-06 -0.7071699
vn -0.7070729 -6.393862E-07 -0.7071407
vn -0.7070437 -1.278772E-06 -0.7071699
vn -0.7070689 -4.067535E-06 -0.7071446
vn 0.7070967 0 -0.7071168
vn 0.707105 0 -0.7071086
vn 0.7070967 0 -0.7071168
vn 0.7070993 0 -0.7071142
vn -0.7070816 -5.461916E-06 -0.707132
vn 0.7071156 0 -0.7070979
vn 0.7071156 0 -0.7070979
vn 0.7071158 0 -0.7070977
vn 0.7071295 0 -0.7070841
vn -0.7071156 -1.092508E-05 -0.7070979
vn 0.7071091 0 -0.7071044
vn -0.7070718 -1.092466E-05 -0.7071416
vn -0.7070773 -1.092508E-05 -0.7071362
vn -0.7070636 -5.461916E-06 -0.7071499
vn -0.7070886 6.86547E-06 0.7071249
vn -0.7070773 3.432735E-06 0.7071362
vn -0.7070886 6.86547E-06 0.7071249
vn -0.7070718 -2.288667E-06 0.7071416
vn 0 -0.7071425 0.707071
vn 0 -0.7071425 0.707071
vn 0 -0.7071425 0.707071
vn 0 -0.7071425 0.707071
vn 0.707116 0 0.7070975
vn 0.7070993 0 0.7071142
vn 0.707116 0 0.7070975
vn 0.707091 0 0.7071225
vn 0.7071232 0 0.7070903
vn 0.7071317 0 0.7070817
vn 0.7071232 0 0.7070903
vn 0.7071266 0 0.7070869
vn -5.442983E-07 0.7071134 0.7071001
vn -5.442983E-07 0.7071134 0.7071001
vn -5.442983E-07 0.7071134 0.7071001
vn -5.442983E-07 0.7071134 0.7071001
vn -0.7070702 -2.711219E-06 0.7071434
vn -0.707065 1.38484E-06 0.7071486
vn -0.7070702 -2.711219E-06 0.7071434
vn -0.7070669 -1.35561E-06 0.7071466
vn -0.7070624 3.432869E-06 0.7071511
vn 0.707091 0 0.7071226
vn 0.7070993 0 0.7071142
vn 0.707091 0 0.7071226
vn 0.707091 0 0.7071225
vn -0.7070635 -6.865737E-06 0.70715
vn 0.7071282 0 0.7070853
vn -0.7070628 -2.288579E-06 0.7071508
vn -0.7070636 3.432869E-06 0.7071499
vn -0.7070635 -6.865737E-06 0.70715
g D3_GarageDoor_geo_0
f 15/15/15 21/21/21 22/22/22
f 13/13/13 21/21/21 15/15/15
f 19/19/19 25/25/25 26/26/26
f 17/17/17 25/25/25 19/19/19
f 16/16/16 53/53/53 12/12/12
f 54/54/54 53/53/53 16/16/16
f 56/56/56 55/55/55 57/57/57
f 58/58/58 55/55/55 56/56/56
f 59/59/59 23/23/23 60/60/60
f 10/10/10 23/23/23 59/59/59
f 30/30/30 1/1/1 3/3/3
f 28/28/28 1/1/1 30/30/30
f 34/34/34 7/7/7 5/5/5
f 32/32/32 7/7/7 34/34/34
f 20/20/20 66/66/66 65/65/65
f 41/41/41 20/20/20 65/65/65
f 24/24/24 20/20/20 41/41/41
f 46/46/46 24/24/24 41/41/41
f 9/9/9 24/24/24 46/46/46
f 51/51/51 9/9/9 46/46/46
f 61/61/61 9/9/9 51/51/51
f 62/62/62 61/61/61 51/51/51
f 18/18/18 68/68/68 67/67/67
f 49/49/49 18/18/18 67/67/67
f 14/14/14 18/18/18 49/49/49
f 43/43/43 14/14/14 49/49/49
f 11/11/11 14/14/14 43/43/43
f 38/38/38 11/11/11 43/43/43
f 63/63/63 11/11/11 38/38/38
f 64/64/64 63/63/63 38/38/38
f 45/45/45 37/37/37 39/39/39
f 47/47/47 37/37/37 45/45/45
f 50/50/50 42/42/42 44/44/44
f 52/52/52 42/42/42 50/50/50
f 69/69/69 36/36/36 70/70/70
f 40/40/40 36/36/36 69/69/69
f 72/72/72 71/71/71 73/73/73
f 74/74/74 71/71/71 72/72/72
f 35/35/35 75/75/75 48/48/48
f 76/76/76 75/75/75 35/35/35
f 2/2/2 77/77/77 4/4/4
f 78/78/78 77/77/77 2/2/2
f 8/8/8 79/79/79 6/6/6
f 80/80/80 79/79/79 8/8/8
f 29/29/29 81/81/81 27/27/27
f 82/82/82 81/81/81 29/29/29
f 33/33/33 83/83/83 31/31/31
f 84/84/84 83/83/83 33/33/33
f 86/86/86 85/85/85 87/87/87
f 88/88/88 85/85/85 86/86/86
f 114/114/114 88/88/88 86/86/86
f 90/90/90 89/89/89 91/91/91
f 92/92/92 89/89/89 90/90/90
f 96/96/96 110/110/110 111/111/111
f 94/94/94 110/110/110 96/96/96
f 93/93/93 94/94/94 96/96/96
f 95/95/95 94/94/94 93/93/93
f 98/98/98 97/97/97 99/99/99
f 100/100/100 97/97/97 98/98/98
f 104/104/104 109/109/109 118/118/118
f 102/102/102 109/109/109 104/104/104
f 101/101/101 102/102/102 104/104/104
f 103/103/103 102/102/102 101/101/101
f 106/106/106 105/105/105 107/107/107
f 108/108/108 105/105/105 106/106/106
f 115/115/115 108/108/108 106/106/106
f 122/122/122 148/148/148 152/152/152
f 120/120/120 148/148/148 122/122/122
f 119/119/119 120/120/120 122/122/122
f 121/121/121 120/120/120 119/119/119
f 124/124/124 123/123/123 125/125/125
f 126/126/126 123/123/123 124/124/124
f 128/128/128 127/127/127 129/129/129
f 130/130/130 127/127/127 128/128/128
f 144/144/144 130/130/130 128/128/128
f 134/134/134 149/149/149 147/147/147
f 132/132/132 149/149/149 134/134/134
f 131/131/131 132/132/132 134/134/134
f 133/133/133 132/132/132 131/131/131
f 136/136/136 135/135/135 137/137/137
f 138/138/138 135/135/135 136/136/136
f 140/140/140 139/139/139 141/141/141
f 142/142/142 139/139/139 140/140/140
f 143/143/143 142/142/142 140/140/140
f 112/112/112 113/113/113 115/115/115
f 111/111/111 113/113/113 112/112/112
f 96/96/96 111/111/111 112/112/112
f 106/106/106 112/112/112 115/115/115
f 116/116/116 114/114/114 86/86/86
f 117/117/117 114/114/114 116/116/116
f 118/118/118 117/117/117 116/116/116
f 104/104/104 118/118/118 116/116/116
f 145/145/145 144/144/144 128/128/128
f 146/146/146 144/144/144 145/145/145
f 147/147/147 146/146/146 145/145/145
f 134/134/134 147/147/147 145/145/145
f 150/150/150 143/143/143 140/140/140
f 151/151/151 143/143/143 150/150/150
f 152/152/152 151/151/151 150/150/150
f 122/122/122 152/152/152 150/150/150
