g D3_lawnChair_geo
v -101.7931 0.2061261 8.042962
v -102.502 0.2061261 7.583581
v -102.1194 0.353774 8.545517
v -102.8283 0.353774 8.086136
v -103.1914 0.2394851 8.645243
v -102.4825 0.2394851 9.104624
v -103.5621 0.7505265 9.216015
v -102.8532 0.7505265 9.675401
v -103.2076 0.7505265 9.445707
v -102.8417 0.04791502 8.881647
v -102.4654 0.08234453 8.28306
v -102.1475 0.2061261 7.813272
v -102.3247 0.2061261 7.698426
v -102.6511 0.1364669 8.20098
v -103.0418 0.05826402 8.766882
v -103.0304 0.7505265 9.560554
v -103.3849 0.7505265 9.33086
v -102.6556 0.05826402 9.017168
v -102.2966 0.1364669 8.430671
v -101.9703 0.2061261 7.928116
v -102.3707 0.03323475 8.612936
v -102.5133 0.006257801 8.832593
v -102.7729 0.2553379 9.204399
v -102.9135 0.5557946 9.391028
v -102.0791 0.2100145 8.095634
v -102.1879 0.1777144 8.263153
v -102.4335 0.2100145 7.865945
v -102.5423 0.1777144 8.033463
v -103.1691 0.2553379 8.960786
v -103.2679 0.5557946 9.161337
v -102.7884 0.03323475 8.342218
v -102.9311 0.006257801 8.561876
v -102.5909 0.02314058 8.495338
v -102.7163 -0.0005812453 8.688494
v -102.9698 0.2509972 9.078831
v -103.0907 0.5064408 9.276183
v -102.2563 0.2012551 7.980789
v -102.3651 0.1235011 8.129182
v -101.9019 0.2553421 8.210481
v -102.0106 0.3045581 8.377999
v -102.6107 0.2553421 7.751099
v -102.7195 0.3045581 7.918617
v -102.6061 0.4098323 9.294883
v -102.7296 0.5801794 9.485142
v -103.315 0.4098323 8.8355
v -103.4385 0.5801794 9.025758
v -102.2405 0.3156777 8.731886
v -102.3615 0.2775814 8.918256
v -102.9493 0.3156777 8.272505
v -103.0704 0.2775814 8.458874
v -102.422 0.1277203 8.885905
v -102.2822 0.1744563 8.687375
v -102.9104 0.1927955 8.302835
v -103.0424 0.1624718 8.502573
v -102.4825 0.2394851 9.104624
v -102.422 0.1277203 8.885905
v -102.2822 0.1744563 8.687375
v -102.1194 0.353774 8.545517
v -102.8283 0.353774 8.086136
v -102.9104 0.1927955 8.302835
v -103.0424 0.1624718 8.502573
v -103.1914 0.2394851 8.645243
vt 1 2.989703
vt -1.073961 2.989703
vt 1 1.492295
vt -1.073961 1.492295
vt -1.073961 -0.2764898
vt 1 -0.2764898
vt -1.073961 -2.082153
vt 1 -2.082153
vt -0.03698033 -2.082153
vt -0.03698033 -0.2764898
vt -0.03698027 1.492295
vt -0.03698027 2.989703
vt -0.5554704 2.989703
vt -0.5554704 1.492295
vt -0.5554705 -0.2764898
vt 0.4815098 -2.082153
vt -0.5554705 -2.082153
vt 0.4815098 -0.2764898
vt 0.4815099 1.492295
vt 0.4815099 2.989703
vt 0.4815099 0.9027
vt 0.4815099 0.3131051
vt 0.4815098 -0.8783777
vt 0.4815098 -1.480265
vt 0.4815099 2.490567
vt 0.4815099 1.991431
vt -0.5554704 2.490567
vt -0.5554704 1.991431
vt -0.5554705 -0.8783777
vt -0.5554705 -1.480265
vt -0.5554704 0.9027
vt -0.5554705 0.3131051
vt -0.03698029 0.9027
vt -0.03698031 0.3131051
vt -0.03698033 -0.8783777
vt -0.03698033 -1.480265
vt -0.03698027 2.490567
vt -0.03698027 1.991431
vt 1 2.490567
vt 1 1.991431
vt -1.073961 2.490567
vt -1.073961 1.991431
vt 1 -0.8783777
vt 1 -1.480265
vt -1.073961 -0.8783777
vt -1.073961 -1.480265
vt 1 0.9027
vt 1 0.3131051
vt -1.073961 0.9027
vt -1.073961 0.3131051
vt 0.7136205 0.3131051
vt 0.740755 0.9027
vt -0.8483815 0.9027
vt -0.85399 0.3131051
vt 1 -0.2764898
vt 0.7136205 0.3131051
vt 0.740755 0.9027
vt 1 1.492295
vt -1.073961 1.492295
vt -0.8483815 0.9027
vt -0.85399 0.3131051
vt -1.073961 -0.2764898
vn -0.01746 0.9857056 -0.16757
vn 0.1599836 0.9857305 -0.05235038
vn -0.6728476 0.7103682 -0.2065267
vn 0.4807579 0.7042091 0.5224569
vn 0.7463881 0.6593155 0.09059761
vn -0.368316 0.6645689 -0.6501472
vn 0.4122982 0.7626714 -0.4983397
vn 0.2853596 0.7614916 -0.5819798
vn 0.396721 0.6841921 -0.6119589
vn 0.240417 0.8939738 -0.3781676
vn -0.1485409 0.9583715 0.2438436
vn -0.00133943 0.999997 0.002063528
vn 0.08829618 0.9959022 -0.01955923
vn 0.2607382 0.853492 0.4511839
vn 0.5354802 0.8316151 -0.147232
vn 0.3077879 0.7224176 -0.6191765
vn 0.4377542 0.724118 -0.5329393
vn -0.07590313 0.8289261 -0.5541843
vn -0.5117811 0.858271 -0.03809166
vn -0.01815204 0.9958948 -0.08868025
vn -0.5070326 0.8614857 -0.02757756
vn -0.3225041 0.9054753 -0.2758727
vn 0.1414544 0.6879348 -0.7118542
vn 0.2608348 0.6884024 -0.6768068
vn -0.1536564 0.9857162 -0.06894414
vn -0.3627493 0.9256681 -0.1074777
vn 0.1261202 0.9853286 0.1149837
vn 0.2516913 0.9222764 0.2933559
vn 0.58994 0.6867586 -0.4246569
vn 0.5099463 0.6843261 -0.521203
vn 0.2514686 0.8558334 0.4520097
vn 0.3916232 0.9000261 0.1912704
vn -0.1243724 0.9729148 0.1948546
vn 0.0305056 0.9984235 -0.04711562
vn 0.382069 0.6978686 -0.6058073
vn 0.404378 0.6600082 -0.633141
vn -0.07446151 0.9901819 0.1183013
vn -0.1256074 0.969841 0.2088805
vn -0.1579518 0.9658997 -0.205156
vn -0.412739 0.8596897 -0.3009652
vn 0.2515211 0.9659431 0.06075359
vn 0.4427583 0.8597365 0.2545945
vn -0.07773129 0.6421717 -0.7626097
vn 0.1795848 0.7123913 -0.6784157
vn 0.7346685 0.6358066 -0.2366691
vn 0.5492642 0.7071589 -0.445236
vn -0.8033494 0.3899471 -0.4500787
vn -0.7982789 0.407923 -0.4431137
vn 0.7414958 0.3763849 0.5554442
vn 0.7376292 0.3849669 0.5547105
vn -0.5981907 0.6672904 -0.4437245
vn -0.7477543 0.6329662 -0.2005424
vn 0.5170246 0.6135596 0.5968503
vn 0.6598688 0.6481448 0.3801074
vn -0.7990379 0.4163116 -0.4338467
vn -0.7982789 0.407923 -0.4431137
vn -0.8033494 0.3899471 -0.4500787
vn -0.809199 0.3803728 -0.4477873
vn 0.7417225 0.372426 0.5578052
vn 0.7414958 0.3763849 0.5554442
vn 0.7376292 0.3849669 0.5547105
vn 0.7339773 0.3895836 0.5563289
g D3_lawnChair_geo_0
f 41/41/41 13/13/13 2/2/2
f 27/27/27 13/13/13 41/41/41
f 42/42/42 27/27/27 41/41/41
f 28/28/28 27/27/27 42/42/42
f 14/14/14 28/28/28 42/42/42
f 11/11/11 28/28/28 14/14/14
f 31/31/31 11/11/11 14/14/14
f 33/33/33 11/11/11 31/31/31
f 32/32/32 33/33/33 31/31/31
f 34/34/34 33/33/33 32/32/32
f 10/10/10 34/34/34 32/32/32
f 18/18/18 34/34/34 10/10/10
f 35/35/35 18/18/18 10/10/10
f 23/23/23 18/18/18 35/35/35
f 36/36/36 23/23/23 35/35/35
f 24/24/24 23/23/23 36/36/36
f 16/16/16 24/24/24 36/36/36
f 44/44/44 24/24/24 16/16/16
f 8/8/8 44/44/44 16/16/16
f 29/29/29 35/35/35 10/10/10
f 30/30/30 35/35/35 29/29/29
f 46/46/46 30/30/30 29/29/29
f 17/17/17 30/30/30 46/46/46
f 7/7/7 17/17/17 46/46/46
f 47/47/47 58/58/58 57/57/57
f 56/56/56 47/47/47 57/57/57
f 48/48/48 47/47/47 56/56/56
f 55/55/55 48/48/48 56/56/56
f 50/50/50 62/62/62 61/61/61
f 60/60/60 50/50/50 61/61/61
f 49/49/49 50/50/50 60/60/60
f 59/59/59 49/49/49 60/60/60
f 25/25/25 1/1/1 20/20/20
f 39/39/39 1/1/1 25/25/25
f 26/26/26 39/39/39 25/25/25
f 40/40/40 39/39/39 26/26/26
f 19/19/19 40/40/40 26/26/26
f 3/3/3 40/40/40 19/19/19
f 21/21/21 3/3/3 19/19/19
f 52/52/52 3/3/3 21/21/21
f 22/22/22 52/52/52 21/21/21
f 51/51/51 52/52/52 22/22/22
f 18/18/18 51/51/51 22/22/22
f 6/6/6 51/51/51 18/18/18
f 23/23/23 6/6/6 18/18/18
f 43/43/43 6/6/6 23/23/23
f 24/24/24 43/43/43 23/23/23
f 44/44/44 43/43/43 24/24/24
f 27/27/27 12/12/12 13/13/13
f 37/37/37 12/12/12 27/27/27
f 28/28/28 37/37/37 27/27/27
f 38/38/38 37/37/37 28/28/28
f 11/11/11 38/38/38 28/28/28
f 19/19/19 38/38/38 11/11/11
f 33/33/33 19/19/19 11/11/11
f 21/21/21 19/19/19 33/33/33
f 34/34/34 21/21/21 33/33/33
f 22/22/22 21/21/21 34/34/34
f 18/18/18 22/22/22 34/34/34
f 14/14/14 42/42/42 4/4/4
f 53/53/53 14/14/14 4/4/4
f 31/31/31 14/14/14 53/53/53
f 54/54/54 31/31/31 53/53/53
f 32/32/32 31/31/31 54/54/54
f 15/15/15 32/32/32 54/54/54
f 10/10/10 32/32/32 15/15/15
f 29/29/29 10/10/10 15/15/15
f 15/15/15 54/54/54 5/5/5
f 45/45/45 15/15/15 5/5/5
f 29/29/29 15/15/15 45/45/45
f 46/46/46 29/29/29 45/45/45
f 37/37/37 20/20/20 12/12/12
f 25/25/25 20/20/20 37/37/37
f 38/38/38 25/25/25 37/37/37
f 26/26/26 25/25/25 38/38/38
f 19/19/19 26/26/26 38/38/38
f 36/36/36 9/9/9 16/16/16
f 30/30/30 9/9/9 36/36/36
f 35/35/35 30/30/30 36/36/36
f 17/17/17 9/9/9 30/30/30
