g D3_mayorStand_collisionInvisible_geo
v -104.3951 0.00500061 -13.66604
v -101.6931 0.00500061 -14.70323
v -104.3951 17.88438 -13.66604
v -101.6931 17.88438 -14.70323
v -105.1491 17.88438 -15.63032
v -102.4471 17.88438 -16.66751
v -105.1491 0.00500061 -15.63032
v -102.4471 0.00500061 -16.66751
v -105.1491 0.00500061 -15.63032
v -101.6931 0.00500061 -14.70323
v -102.4471 0.00500061 -16.66751
v -104.3951 0.00500061 -13.66604
v -101.6931 0.00500061 -14.70323
v -102.4471 17.88438 -16.66751
v -102.4471 0.00500061 -16.66751
v -101.6931 17.88438 -14.70323
v -105.1491 0.00500061 -15.63032
v -104.3951 17.88438 -13.66604
v -104.3951 0.00500061 -13.66604
v -105.1491 17.88438 -15.63032
vt 0 1
vt 0 1
vt 0 1
vt 0 1
vt 0 1
vt 0 1
vt 0 1
vt 0 1
vt 0 1
vt 0 1
vt 0 1
vt 0 1
vt 0 1
vt 0 1
vt 0 1
vt 0 1
vt 0 1
vt 0 1
vt 0 1
vt 0 1
vn 0.3583681 0 0.9335804
vn 0.3583681 0 0.9335804
vn 0.3583681 0 0.9335804
vn 0.3583681 0 0.9335804
vn -0.3583692 0 -0.93358
vn -0.3583692 0 -0.93358
vn -0.3583692 0 -0.93358
vn -0.3583692 0 -0.93358
vn 0 -1 0
vn 0 -1 0
vn 0 -1 0
vn 0 -1 0
vn 0.9335796 0 -0.3583699
vn 0.9335796 0 -0.3583699
vn 0.9335796 0 -0.3583699
vn 0.9335796 0 -0.3583699
vn -0.9335812 0 0.3583658
vn -0.9335812 0 0.3583658
vn -0.9335812 0 0.3583658
vn -0.9335812 0 0.3583658
g D3_mayorStand_collisionInvisible_geo_0
f 4/4/4 1/1/1 2/2/2
f 3/3/3 1/1/1 4/4/4
f 8/8/8 5/5/5 6/6/6
f 7/7/7 5/5/5 8/8/8
f 10/10/10 9/9/9 11/11/11
f 12/12/12 9/9/9 10/10/10
f 14/14/14 13/13/13 15/15/15
f 16/16/16 13/13/13 14/14/14
f 18/18/18 17/17/17 19/19/19
f 20/20/20 17/17/17 18/18/18
