g D3_mayorStand_podium_geo
v -101.7357 0.4208816 -14.71211
v -101.7357 0.8061328 -14.71211
v -104.3882 0.4208816 -13.69389
v -104.3882 0.8061328 -13.69389
v -102.4782 0.4208816 -16.6464
v -102.4782 0.8061328 -16.6464
v -105.1307 0.4208816 -15.62818
v -105.1307 0.8061328 -15.62818
v -101.7357 0.4208816 -14.71211
v -104.3882 0.8061328 -13.69389
v -101.7357 0.8061328 -14.71211
v -104.3882 0.4208816 -13.69389
v -102.4782 0.4208816 -16.6464
v -105.1307 0.8061328 -15.62818
v -105.1307 0.4208816 -15.62818
v -102.4782 0.8061328 -16.6464
v -102.4782 0.4208816 -16.6464
v -101.7357 0.8061328 -14.71211
v -101.7357 0.4208816 -14.71211
v -102.4782 0.8061328 -16.6464
v -105.1307 0.4208816 -15.62818
v -104.3882 0.8061328 -13.69389
v -105.1307 0.8061328 -15.62818
v -104.3882 0.4208816 -13.69389
v -102.4782 0.4208816 -16.6464
v -101.7357 0.8061328 -14.71211
v -102.4782 0.8061328 -16.6464
v -101.7357 0.4208816 -14.71211
v -105.1307 0.4208816 -15.62818
v -104.3882 0.8061328 -13.69389
v -104.3882 0.4208816 -13.69389
v -105.1307 0.8061328 -15.62818
vt 2.384186E-07 0.004347289
vt 1.192093E-07 0.9881545
vt 3 0.004347468
vt 3 0.9881548
vt 2.384186E-07 0.004347289
vt 1.192093E-07 0.9881545
vt 3 0.004347468
vt 3 0.9881548
vt 2.384186E-07 0.004347289
vt 3 0.9881548
vt 1.192093E-07 0.9881545
vt 3 0.004347468
vt 2.384186E-07 0.004347289
vt 3 0.9881548
vt 3 0.004347468
vt 1.192093E-07 0.9881545
vt 2.384186E-07 0.004347289
vt 2 0.9881548
vt 2 0.004347468
vt 1.192093E-07 0.9881545
vt 2.384186E-07 0.004347289
vt 2 0.9881548
vt 1.192093E-07 0.9881545
vt 2 0.004347468
vt 2.384186E-07 0.004347289
vt 2 0.9881548
vt 1.192093E-07 0.9881545
vt 2 0.004347468
vt 2.384186E-07 0.004347289
vt 2 0.9881548
vt 2 0.004347468
vt 1.192093E-07 0.9881545
vn -0.3583685 0 -0.9335803
vn -0.3583685 0 -0.9335803
vn -0.3583685 0 -0.9335803
vn -0.3583685 0 -0.9335803
vn 0.3583676 0 0.9335806
vn 0.3583676 0 0.9335806
vn 0.3583676 0 0.9335806
vn 0.3583676 0 0.9335806
vn 0.3583685 0 0.9335803
vn 0.3583685 0 0.9335803
vn 0.3583685 0 0.9335803
vn 0.3583685 0 0.9335803
vn -0.3583676 0 -0.9335806
vn -0.3583676 0 -0.9335806
vn -0.3583676 0 -0.9335806
vn -0.3583676 0 -0.9335806
vn -0.9335817 0 0.3583646
vn -0.9335817 0 0.3583646
vn -0.9335817 0 0.3583646
vn -0.9335817 0 0.3583646
vn 0.93358 0 -0.3583689
vn 0.93358 0 -0.3583689
vn 0.93358 0 -0.3583689
vn 0.93358 0 -0.3583689
vn 0.9335817 0 -0.3583646
vn 0.9335817 0 -0.3583646
vn 0.9335817 0 -0.3583646
vn 0.9335817 0 -0.3583646
vn -0.93358 0 0.3583689
vn -0.93358 0 0.3583689
vn -0.93358 0 0.3583689
vn -0.93358 0 0.3583689
g D3_mayorStand_podium_geo_0
f 4/4/4 1/1/1 3/3/3
f 2/2/2 1/1/1 4/4/4
f 8/8/8 5/5/5 6/6/6
f 7/7/7 5/5/5 8/8/8
f 10/10/10 9/9/9 11/11/11
f 12/12/12 9/9/9 10/10/10
f 14/14/14 13/13/13 15/15/15
f 16/16/16 13/13/13 14/14/14
f 18/18/18 17/17/17 19/19/19
f 20/20/20 17/17/17 18/18/18
f 22/22/22 21/21/21 23/23/23
f 24/24/24 21/21/21 22/22/22
f 26/26/26 25/25/25 27/27/27
f 28/28/28 25/25/25 26/26/26
f 30/30/30 29/29/29 31/31/31
f 32/32/32 29/29/29 30/30/30
