g D3_mayorStand_flower_geo
v -102.4796 0.5778946 -14.41595
v -102.7284 0.5778946 -14.32042
v -102.4796 0.8444925 -14.41595
v -102.7284 0.8444925 -14.32042
v -103.3773 0.5778946 -14.07133
v -103.6262 0.5778946 -13.97579
v -103.3773 0.8444925 -14.07133
v -103.6262 0.8444925 -13.97579
v -102.1537 0.5289242 -15.81157
v -102.0581 0.5289242 -15.56268
v -102.1537 0.7955222 -15.81157
v -102.0581 0.7955222 -15.56268
v -103.2372 0.5471442 -16.36942
v -103.4861 0.5471442 -16.27388
v -103.2372 0.813742 -16.36942
v -103.4861 0.813742 -16.27388
v -104.1296 0.5471442 -16.02685
v -104.3785 0.5471442 -15.93132
v -104.1296 0.813742 -16.02685
v -104.3785 0.813742 -15.93132
v -104.8093 0.5471442 -14.76879
v -104.7137 0.5471442 -14.51989
v -104.8093 0.813742 -14.76879
v -104.7137 0.813742 -14.51989
v -102.4796 0.5778946 -14.41595
v -102.7284 0.8444925 -14.32042
v -102.7284 0.5778946 -14.32042
v -102.4796 0.8444925 -14.41595
v -103.3773 0.5778946 -14.07133
v -103.6262 0.8444925 -13.97579
v -103.6262 0.5778946 -13.97579
v -103.3773 0.8444925 -14.07133
v -102.1537 0.5289242 -15.81157
v -102.0581 0.7955222 -15.56268
v -102.0581 0.5289242 -15.56268
v -102.1537 0.7955222 -15.81157
v -103.2372 0.5471442 -16.36942
v -103.4861 0.813742 -16.27388
v -103.2372 0.813742 -16.36942
v -103.4861 0.5471442 -16.27388
v -104.1296 0.5471442 -16.02685
v -104.3785 0.813742 -15.93132
v -104.1296 0.813742 -16.02685
v -104.3785 0.5471442 -15.93132
v -104.8093 0.5471442 -14.76879
v -104.7137 0.813742 -14.51989
v -104.8093 0.813742 -14.76879
v -104.7137 0.5471442 -14.51989
vt 0 0
vt 1 0
vt 0 1
vt 1 1
vt 0 0
vt 1 0
vt 0 1
vt 1 1
vt 0 0
vt 1 0
vt 0 1
vt 1 1
vt 0 0
vt 1 0
vt 0 1
vt 1 1
vt 0 0
vt 1 0
vt 0 1
vt 1 1
vt 0 0
vt 1 0
vt 0 1
vt 1 1
vt 0 0
vt 1 1
vt 1 0
vt 0 1
vt 0 0
vt 1 1
vt 1 0
vt 0 1
vt 0 0
vt 1 1
vt 1 0
vt 0 1
vt 0 0
vt 1 1
vt 0 1
vt 1 0
vt 0 0
vt 1 1
vt 0 1
vt 1 0
vt 0 0
vt 1 1
vt 0 1
vt 1 0
vn 0.3583769 0 0.9335769
vn 0.3583769 0 0.9335769
vn 0.3583769 0 0.9335769
vn 0.3583769 0 0.9335769
vn 0.3583648 0 0.9335817
vn 0.3583648 0 0.9335817
vn 0.3583648 0 0.9335817
vn 0.3583648 0 0.9335817
vn 0.9335737 0 -0.3583853
vn 0.9335737 0 -0.3583853
vn 0.9335737 0 -0.3583853
vn 0.9335737 0 -0.3583853
vn -0.3583695 0 -0.9335799
vn -0.3583695 0 -0.9335799
vn -0.3583695 0 -0.9335799
vn -0.3583695 0 -0.9335799
vn -0.358377 0 -0.9335769
vn -0.358377 0 -0.9335769
vn -0.358377 0 -0.9335769
vn -0.358377 0 -0.9335769
vn -0.933586 0 0.3583534
vn -0.933586 0 0.3583534
vn -0.933586 0 0.3583534
vn -0.933586 0 0.3583534
vn -0.3583769 0 -0.9335769
vn -0.3583769 0 -0.9335769
vn -0.3583769 0 -0.9335769
vn -0.3583769 0 -0.9335769
vn -0.3583648 0 -0.9335817
vn -0.3583648 0 -0.9335817
vn -0.3583648 0 -0.9335817
vn -0.3583648 0 -0.9335817
vn -0.9335737 0 0.3583853
vn -0.9335737 0 0.3583853
vn -0.9335737 0 0.3583853
vn -0.9335737 0 0.3583853
vn 0.3583695 0 0.9335799
vn 0.3583695 0 0.9335799
vn 0.3583695 0 0.9335799
vn 0.3583695 0 0.9335799
vn 0.358377 0 0.9335769
vn 0.358377 0 0.9335769
vn 0.358377 0 0.9335769
vn 0.358377 0 0.9335769
vn 0.933586 0 -0.3583534
vn 0.933586 0 -0.3583534
vn 0.933586 0 -0.3583534
vn 0.933586 0 -0.3583534
g D3_mayorStand_flower_geo_0
f 4/4/4 1/1/1 3/3/3
f 2/2/2 1/1/1 4/4/4
f 26/26/26 25/25/25 27/27/27
f 28/28/28 25/25/25 26/26/26
f 8/8/8 5/5/5 7/7/7
f 6/6/6 5/5/5 8/8/8
f 30/30/30 29/29/29 31/31/31
f 32/32/32 29/29/29 30/30/30
f 12/12/12 9/9/9 11/11/11
f 10/10/10 9/9/9 12/12/12
f 34/34/34 33/33/33 35/35/35
f 36/36/36 33/33/33 34/34/34
f 16/16/16 13/13/13 14/14/14
f 15/15/15 13/13/13 16/16/16
f 38/38/38 37/37/37 39/39/39
f 40/40/40 37/37/37 38/38/38
f 20/20/20 17/17/17 18/18/18
f 19/19/19 17/17/17 20/20/20
f 42/42/42 41/41/41 43/43/43
f 44/44/44 41/41/41 42/42/42
f 24/24/24 21/21/21 22/22/22
f 23/23/23 21/21/21 24/24/24
f 46/46/46 45/45/45 47/47/47
f 48/48/48 45/45/45 46/46/46
