g D3_mayorStand_mayorWestHere_geo
v -101.4049 2.850385 -14.82396
v -101.6039 3.066667 -14.7476
v -101.8334 3.259857 -14.65947
v -102.0821 3.418157 -14.56403
v -102.3459 3.53909 -14.46277
v -102.6207 3.620773 -14.3573
v -102.9021 3.661934 -14.24927
v -103.1857 3.661933 -14.14039
v -103.4671 3.620773 -14.03236
v -103.7419 3.53909 -13.92688
v -104.0057 3.418156 -13.82562
v -104.2543 3.259856 -13.73018
v -104.4839 3.066667 -13.64205
v -104.6828 2.850384 -13.56569
v -101.7357 2.427896 -14.697
v -101.8932 2.617989 -14.63653
v -102.0766 2.789056 -14.56615
v -102.2752 2.929297 -14.4899
v -102.486 3.036485 -14.40899
v -102.7056 3.108909 -14.3247
v -102.9305 3.145414 -14.23835
v -103.1573 3.145414 -14.15131
v -103.3822 3.108909 -14.06496
v -103.6018 3.036484 -13.98066
v -103.8126 2.929297 -13.89975
v -104.0112 2.789055 -13.82351
v -104.1946 2.617988 -13.75312
v -104.3521 2.427895 -13.69265
vt 0.9876978 1
vt 0.9272543 1
vt 0.8574957 1
vt 0.7819415 1
vt 0.7017866 1
vt 0.6182961 1
vt 0.532784 1
vt 0.4471465 1
vt 0.3610832 1
vt 0.2823121 1
vt 0.2012379 1
vt 0.126703 1
vt 0.05789715 1
vt 0 1
vt 1.010904 0
vt 0.9476199 0
vt 0.8745833 0
vt 0.7954789 0
vt 0.7115576 0
vt 0.6241438 0
vt 0.5340363 0
vt 0.444952 0
vt 0.3565729 0
vt 0.2723721 0
vt 0.1874882 0
vt 0.1094509 0
vt 0.03741193 0
vt -0.02320579 0
vn 0.3583657 5.18649E-06 0.9335812
vn 0.3583704 2.593246E-06 0.9335796
vn 0.3583683 5.214504E-06 0.9335804
vn 0.3583717 2.545311E-06 0.933579
vn 0.3583687 1.411439E-06 0.9335802
vn 0.3583627 6.835245E-06 0.9335824
vn 0.3583718 5.867131E-06 0.9335789
vn 0.3583699 5.867186E-06 0.9335796
vn 0.3583631 4.114897E-06 0.9335822
vn 0.3583701 1.360229E-06 0.9335796
vn 0.3583712 2.607336E-06 0.9335792
vn 0.358365 2.607335E-06 0.9335815
vn 0.35837 0 0.9335796
vn 0.3583725 0 0.9335787
vn 0.3583657 5.18649E-06 0.9335812
vn 0.3583704 2.593246E-06 0.9335796
vn 0.3583683 5.214504E-06 0.9335804
vn 0.3583717 2.545311E-06 0.933579
vn 0.3583687 1.411439E-06 0.9335802
vn 0.3583627 6.835245E-06 0.9335824
vn 0.3583718 5.867131E-06 0.9335789
vn 0.3583699 5.867186E-06 0.9335796
vn 0.3583631 4.114897E-06 0.9335822
vn 0.3583701 1.360229E-06 0.9335796
vn 0.3583712 2.607336E-06 0.9335792
vn 0.358365 2.607335E-06 0.9335815
vn 0.35837 0 0.9335796
vn 0.3583725 0 0.9335787
g D3_mayorStand_mayorWestHere_geo_0
f 13/13/13 14/14/14 28/28/28
f 27/27/27 13/13/13 28/28/28
f 12/12/12 13/13/13 27/27/27
f 26/26/26 12/12/12 27/27/27
f 11/11/11 12/12/12 26/26/26
f 25/25/25 11/11/11 26/26/26
f 10/10/10 11/11/11 25/25/25
f 24/24/24 10/10/10 25/25/25
f 9/9/9 10/10/10 24/24/24
f 23/23/23 9/9/9 24/24/24
f 8/8/8 9/9/9 23/23/23
f 22/22/22 8/8/8 23/23/23
f 7/7/7 8/8/8 22/22/22
f 21/21/21 7/7/7 22/22/22
f 6/6/6 7/7/7 21/21/21
f 20/20/20 6/6/6 21/21/21
f 5/5/5 6/6/6 20/20/20
f 19/19/19 5/5/5 20/20/20
f 4/4/4 5/5/5 19/19/19
f 18/18/18 4/4/4 19/19/19
f 3/3/3 4/4/4 18/18/18
f 17/17/17 3/3/3 18/18/18
f 2/2/2 3/3/3 17/17/17
f 16/16/16 2/2/2 17/17/17
f 1/1/1 2/2/2 16/16/16
f 15/15/15 1/1/1 16/16/16
