g D3_shadowPine_geo
v -173.683 0.02900395 17.76845
v -173.5882 0.02900395 11.84967
v -179.6019 0.02900395 17.67364
v -179.507 0.02900395 11.75485
v -138.1254 0.02900395 -40.75076
v -138.0332 0.02900395 -46.51052
v -143.8852 0.02900395 -40.84307
v -143.7928 0.02900395 -46.60284
v -89.89757 0.04458086 -59.94287
v -89.77743 0.04458086 -67.4393
v -97.39391 0.04458086 -60.06301
v -97.27382 0.04458086 -67.55941
vt 0 2.000004
vt 1 2.000004
vt 0 2.999996
vt 1 2.999996
vt 0 2.000004
vt 1 2.000004
vt 0 2.999996
vt 1 2.999996
vt 0 2.000004
vt 1 2.000004
vt 0 2.999996
vt 1 2.999996
vn 0 1 0
vn 0 1 0
vn 0 1 0
vn 0 1 0
vn 0 1 0
vn 0 1 0
vn 0 1 0
vn 0 1 0
vn 0 1 0
vn 0 1 0
vn 0 1 0
vn 0 1 0
g D3_shadowPine_geo_0
f 4/4/4 1/1/1 2/2/2
f 3/3/3 1/1/1 4/4/4
f 8/8/8 5/5/5 6/6/6
f 7/7/7 5/5/5 8/8/8
f 12/12/12 9/9/9 10/10/10
f 11/11/11 9/9/9 12/12/12
