g D3_shadowGradient_geo
v -102.0455 0.02 27.33844
v -97.20349 0.02 27.33844
v -102.0455 0.02 24.78869
v -97.20349 0.02 24.78869
v -101.3241 0.1260128 25.30628
v -101.4363 0.1273697 25.3527
v -101.3241 0.1306473 25.4648
v -101.4827 0.1306472 25.4648
v -101.4363 0.1339237 25.57688
v -101.3241 0.1352813 25.62333
v -101.212 0.1339236 25.57688
v -101.1655 0.1306473 25.4648
v -101.212 0.1273701 25.35271
v -98.43102 0.1168953 26.44502
v -98.4268 0.1162585 26.41758
v -98.52229 0.1177147 26.32708
v -98.49854 0.117925 26.38103
v -98.47454 0.1169866 26.37233
v -98.44438 0.1169829 26.42596
v -98.44395 0.1167093 26.41172
v -98.47131 0.1171267 26.38579
v -98.49867 0.117544 26.35987
v -98.48913 0.1176652 26.38356
v -98.46967 0.1177221 26.4214
v -98.47127 0.11755 26.40911
v -98.45177 0.117449 26.43838
v -98.45689 0.1173308 26.42273
v -98.44983 0.1185828 26.50408
v -98.43192 0.1183096 26.52105
v -98.38911 0.1186463 26.6109
v -98.39005 0.117671 26.56074
v -98.49171 0.1192214 26.4644
v -98.46099 0.1197426 26.54278
v -98.44088 0.1184463 26.51256
v -101.0656 0.1334692 26.29418
v -101.1456 0.1334692 26.36077
v -101.0656 0.1289007 26.52161
v -101.1787 0.1289007 26.52161
v -100.9351 0.1289007 26.57805
v -100.9856 0.1334692 26.3608
vt 0.5 0.5
vt 0.5 0.5
vt 0.5 0.5
vt 0.5 0.5
vt 0.5474832 0.6734686
vt 0.5474832 0.6734686
vt 0.5474832 0.6734686
vt 0.5474832 0.6734686
vt 0.5474832 0.6734686
vt 0.5474832 0.6734686
vt 0.5474832 0.6734686
vt 0.5474832 0.6734686
vt 0.5474832 0.6734686
vt 0.5 0.5
vt 0.5 0.5
vt 0.5 0.5
vt 0.5 0.5
vt 0.5 0.5
vt 0.5 0.5
vt 0.5 0.5
vt 0.5 0.5
vt 0.5 0.5
vt 0.5 0.5
vt 0.5 0.5
vt 0.5 0.5
vt 0.5 0.5
vt 0.5 0.5
vt 0.5 0.5
vt 0.5 0.5
vt 0.5 0.5
vt 0.5 0.5
vt 0.5 0.5
vt 0.5 0.5
vt 0.5 0.5
vt 0.5474832 0.6734686
vt 0.5474832 0.6734686
vt 0.5474832 0.6734686
vt 0.5474832 0.6734686
vt 0.5474832 0.6734686
vt 0.5474832 0.6734686
vn 0 1 0
vn 0 1 0
vn 0 1 0
vn 0 1 0
vn 3.431996E-07 0.9995729 -0.02922199
vn -3.431996E-07 0.9995729 -0.02922207
vn 1.933478E-07 0.9995729 -0.02922207
vn -5.993471E-07 0.9995728 -0.02922541
vn 0 0.9995729 -0.02922103
vn 1.029538E-06 0.9995731 -0.02921976
vn 6.863389E-07 0.9995729 -0.02922096
vn 0 0.9995729 -0.02922113
vn 3.431996E-07 0.9995729 -0.02922422
vn 0.0324842 0.9993067 -0.01819569
vn 0.03247812 0.9993069 -0.01819243
vn 0.03251661 0.9993052 -0.01821224
vn 0.03249368 0.9993062 -0.01820238
vn 0.03249381 0.9993062 -0.01820038
vn 0.0324842 0.9993067 -0.01819569
vn 0.03247812 0.9993069 -0.01819243
vn 0.03249381 0.9993062 -0.01820038
vn 0.03251661 0.9993052 -0.01821224
vn 0.03249368 0.9993062 -0.01820238
vn 0.03249066 0.9993063 -0.01820268
vn 0.0324899 0.9993063 -0.01820267
vn 0.0324858 0.9993066 -0.01819868
vn 0.03248261 0.9993067 -0.01819667
vn 0.03249217 0.9993062 -0.01820269
vn 0.03249217 0.9993062 -0.01820269
vn 0.03424907 0.9992119 -0.0200612
vn 0.03425653 0.9992115 -0.02006614
vn 0.03426143 0.9992113 -0.0200724
vn 0.03425152 0.9992118 -0.02006432
vn 0.03425319 0.9992118 -0.02006493
vn -1.247215E-06 0.9997982 0.02008736
vn 0.008359608 0.9996712 0.02423851
vn -0.002526672 0.9997327 0.02298339
vn 0 0.9995969 0.02838985
vn -0.01010333 0.9996759 0.02336676
vn -0.01341225 0.999674 0.02172555
g D3_shadowGradient_geo_0
f 4/4/4 1/1/1 2/2/2
f 3/3/3 1/1/1 4/4/4
f 26/26/26 19/19/19 27/27/27
f 24/24/24 26/26/26 27/27/27
f 29/29/29 26/26/26 24/24/24
f 28/28/28 29/29/29 24/24/24
f 34/34/34 30/30/30 31/31/31
f 33/33/33 30/30/30 34/34/34
f 32/32/32 33/33/33 34/34/34
f 37/37/37 36/36/36 38/38/38
f 35/35/35 36/36/36 37/37/37
f 40/40/40 35/35/35 37/37/37
f 37/37/37 39/39/39 40/40/40
f 7/7/7 6/6/6 8/8/8
f 5/5/5 6/6/6 7/7/7
f 13/13/13 5/5/5 7/7/7
f 7/7/7 10/10/10 11/11/11
f 9/9/9 10/10/10 7/7/7
f 8/8/8 9/9/9 7/7/7
f 7/7/7 12/12/12 13/13/13
f 11/11/11 12/12/12 7/7/7
f 25/25/25 24/24/24 27/27/27
f 17/17/17 24/24/24 25/25/25
f 23/23/23 17/17/17 25/25/25
f 16/16/16 17/17/17 23/23/23
f 22/22/22 16/16/16 23/23/23
f 18/18/18 16/16/16 22/22/22
f 21/21/21 18/18/18 22/22/22
f 15/15/15 18/18/18 21/21/21
f 20/20/20 15/15/15 21/21/21
f 14/14/14 15/15/15 20/20/20
f 19/19/19 14/14/14 20/20/20
f 26/26/26 14/14/14 19/19/19
