g D3_windowCar_geo
v -147.3739 1.547552 -22.33568
v -147.1807 1.057718 -21.86531
v -147.1861 1.057718 -22.86141
v -147.3786 1.590891 -23.20781
v -147.1947 1.056238 -23.91426
v -147.3865 1.59236 -23.91322
v -147.1897 1.056238 -22.99742
v -147.3832 1.59236 -23.31516
v -147.198 1.055422 -24.01416
v -147.3903 1.593189 -24.01312
v -147.394 1.565679 -24.68623
v -147.2048 1.055422 -25.28182
v -149.0833 1.04401 -25.34506
v -148.8823 1.570912 -24.73996
v -148.1539 1.59611 -24.74389
v -147.231 1.044016 -25.35506
v -147.4254 1.570923 -24.74783
v -149.1018 1.055405 -24.00391
v -148.9095 1.593172 -24.00494
v -148.9131 1.565663 -24.67805
v -149.1087 1.055405 -25.27154
v -149.104 1.056231 -23.90389
v -148.9122 1.592354 -23.90492
v -149.099 1.056231 -22.98705
v -148.909 1.592354 -23.30685
v -148.9077 1.547538 -22.32738
v -149.0958 1.057704 -21.85496
v -149.1012 1.057703 -22.85103
v -148.9124 1.590877 -23.19951
v -148.7905 1.543334 -22.2615
v -148.1404 1.579914 -22.23978
v -148.9956 1.040543 -21.76963
v -147.4905 1.543315 -22.2685
v -147.2801 1.040533 -21.77887
v -91.66568 1.547542 5.730674
v -91.85636 1.057708 5.259248
v -91.85636 1.057708 6.2554
v -91.66568 1.590882 6.602822
v -91.85343 1.056236 7.308252
v -91.66167 1.592358 7.308252
v -91.85343 1.056236 6.391397
v -91.66167 1.592358 6.710166
v -91.85074 1.055418 7.408174
v -91.65836 1.593185 7.408174
v -91.65836 1.565675 8.081299
v -91.85074 1.055418 8.675839
v -89.97266 1.044017 8.749249
v -90.17033 1.570919 8.143066
v -90.89879 1.596115 8.143076
v -91.8249 1.04402 8.749249
v -91.62724 1.570925 8.143076
v -89.94683 1.055413 7.408164
v -90.13921 1.59318 7.408164
v -90.13921 1.56567 8.081269
v -89.94683 1.055413 8.67583
v -89.94414 1.056232 7.308252
v -90.13593 1.592354 7.308252
v -89.94414 1.056232 6.391387
v -90.13593 1.592354 6.710136
v -90.13189 1.547544 5.730683
v -89.94121 1.05771 5.259277
v -89.94121 1.05771 6.2554
v -90.13189 1.590884 6.602822
v -90.24881 1.543324 5.66416
v -90.89879 1.579911 5.638926
v -90.04102 1.040535 5.173379
v -91.54877 1.543323 5.664121
v -91.75654 1.040535 5.173369
v -182.8407 1.490546 -54.46574
v -183.0409 1.040559 -54.67633
v -182.9156 1.490546 -53.14998
v -183.1385 1.040559 -52.96354
v -183.1031 1.053499 -54.16109
v -183.1418 1.053499 -53.48248
v -181.9531 1.056226 -54.71135
v -181.964 1.555484 -54.51988
v -182.7135 1.056226 -54.75467
v -182.6475 1.513819 -54.55883
v -181.8535 1.055413 -54.70293
v -181.8644 1.556316 -54.51086
v -181.1924 1.558295 -54.47258
v -180.5878 1.055413 -54.63084
v -182.0617 1.056232 -52.80513
v -182.0507 1.55549 -52.99658
v -182.8221 1.056232 -52.84846
v -182.7343 1.513826 -53.03553
v -181.9618 1.055415 -52.80217
v -181.9508 1.556319 -52.99424
v -181.2788 1.558297 -52.95594
v -180.6962 1.055415 -52.73004
v -180.516 1.044016 -54.60086
v -181.1324 1.570923 -54.43801
v -180.6214 1.044016 -52.7516
v -181.2153 1.570923 -52.98342
v -63.1437 0.9187649 -58.95798
v -63.27812 1.413776 -59.09245
v -63.74852 1.415732 -58.62206
v -64.02947 0.9187649 -58.07215
v -65.39319 0.9075 -59.33318
v -64.09885 0.9075 -58.03885
v -63.8134 1.428208 -58.60058
v -64.83145 1.428208 -59.61868
v -62.53972 0.9195776 -59.55817
v -62.71647 1.386951 -59.63416
v -63.20599 1.412963 -59.15992
v -63.07198 0.9195776 -59.02591
v -63.58094 0.9040642 -61.04995
v -63.59013 1.348758 -60.76288
v -62.66922 1.348758 -59.84196
v -62.38221 0.9040642 -59.85111
v -62.7212 0.916853 -60.23591
v -63.19617 0.916853 -60.71087
v -64.47411 0.9187649 -60.28838
v -65.35993 0.9187649 -59.40256
v -64.81005 1.415732 -59.68358
v -64.33966 1.413776 -60.15396
v -63.87394 0.9195776 -60.89234
v -64.40618 0.9195776 -60.36011
v -64.27215 1.412963 -60.22613
v -63.79953 1.385078 -60.7149
v -69.79256 0.9187649 -61.0993
v -69.84181 1.413776 -60.91565
v -69.19924 1.415732 -60.74348
v -68.58253 0.9187649 -60.7751
v -68.99276 0.9075 -58.96359
v -68.519 0.9075 -60.73168
v -69.1482 1.428208 -60.69802
v -69.52087 1.428208 -59.30732
v -70.61434 0.9195776 -61.32227
v -70.59177 1.386951 -61.13121
v -69.9363 1.412963 -60.94439
v -69.88725 0.9195776 -61.12745
v -71.38565 0.9040642 -59.67466
v -71.13244 1.348758 -59.81023
v -70.79536 1.348758 -61.06822
v -70.94678 0.9040642 -61.31221
v -71.11053 0.916853 -60.82623
v -71.28438 0.916853 -60.17742
v -70.27953 0.9187649 -59.28194
v -69.06947 0.9187649 -58.9577
v -69.58778 1.415732 -59.2934
v -70.23034 1.413776 -59.46558
v -71.10265 0.9195776 -59.49971
v -70.3756 0.9195776 -59.30489
v -70.32659 1.412963 -59.48797
v -70.98619 1.385078 -59.65287
v -169.2742 1.029756 13.87086
v -169.1792 1.524767 14.03554
v -168.6031 1.526723 13.70292
v -168.1893 1.029756 13.24448
v -167.1985 1.018491 14.81549
v -168.1137 1.018491 13.23027
v -168.5348 1.539199 13.69897
v -167.815 1.539199 14.94587
v -170.013 1.030568 14.29428
v -169.8619 1.497942 14.41343
v -169.2663 1.523954 14.08204
v -169.3611 1.030568 13.91792
v -169.3933 1.015055 16.00471
v -169.3101 1.459749 15.72981
v -169.9613 1.459749 14.60193
v -170.2409 1.015055 14.53647
v -170.0131 1.027844 14.99589
v -169.6772 1.027844 15.5776
v -168.3335 1.029756 15.50026
v -167.2486 1.029756 14.8739
v -167.8525 1.526723 15.00302
v -168.4286 1.524767 15.33563
v -169.0695 1.030568 15.92831
v -168.4176 1.030568 15.55197
v -168.5124 1.523954 15.38786
v -169.0955 1.496069 15.73766
v -162.8491 1.029756 16.23426
v -162.7998 1.524767 16.05061
v -163.4424 1.526723 15.87844
v -164.0591 1.029756 15.91007
v -163.6489 1.018491 14.09855
v -164.1226 1.018491 15.86664
v -163.4934 1.539199 15.83299
v -163.1207 1.539199 14.44228
v -162.0273 1.030568 16.45723
v -162.0499 1.497942 16.26616
v -162.7053 1.523954 16.07935
v -162.7544 1.030568 16.26241
v -161.256 1.015055 14.80962
v -161.5092 1.459749 14.94519
v -161.8463 1.459749 16.20318
v -161.6948 1.015055 16.44717
v -161.5311 1.027844 15.96119
v -161.3572 1.027844 15.31238
v -162.3621 1.029756 14.4169
v -163.5722 1.029756 14.09265
v -163.0538 1.526723 14.42836
v -162.4113 1.524767 14.60054
v -161.539 1.030568 14.63467
v -162.266 1.030568 14.43985
v -162.315 1.523954 14.62293
v -161.6554 1.496069 14.78784
vt -0.189483 0.6169314
vt -0.4285343 0.3603685
vt 0.09183937 0.3603685
vt 0.2661414 0.6396315
vt 0.8009968 0.4810472
vt 0.7937427 0.7618544
vt 0.32203 0.4810472
vt 0.4812995 0.7618544
vt 0.03014612 0.531065
vt 0.0210789 0.8819304
vt 0.4591087 0.8639814
vt 0.8550766 0.531065
vt 0.5047192 1.527095
vt 0.4387565 1.865626
vt 0.1810695 1.881811
vt -0.150486 1.527096
vt -0.07661507 1.865626
vt 0.4178901 0.5352899
vt 0.4093397 0.8661614
vt -0.003732536 0.8492356
vt -0.3600359 0.5352899
vt -0.3517972 -0.1208096
vt -0.3590479 0.1599977
vt 0.1271729 -0.1208096
vt -0.04660833 0.1599977
vt 0.4489924 0.6934699
vt 0.7117578 0.4275068
vt 0.1723178 0.4275067
vt -0.02332609 0.7170016
vt -0.08452345 1.865626
vt 0.1731634 1.881811
vt -0.150486 1.527095
vt 0.4308481 1.865626
vt 0.5047192 1.527096
vt 0.508145 0.7630612
vt 0.3101133 0.3879174
vt 0.9073793 0.5600063
vt 1.023592 0.9397189
vt 1.208394 -0.02413896
vt 1.208394 -0.02413896
vt 1.208394 -0.02413896
vt 1.208394 -0.02413896
vt 0.02038797 0.4870432
vt 0.02038797 1.023248
vt 0.4554175 0.9958184
vt 0.8396675 0.4870432
vt 0.5047192 1.527095
vt 0.4387587 1.865626
vt 0.1810685 1.881811
vt -0.150486 1.527096
vt -0.07661507 1.865626
vt 0.8500831 0.0003388689
vt 0.8500831 0.394206
vt 0.5305359 0.3740572
vt 0.2482876 0.0003388689
vt 1.208394 -0.02413896
vt 1.208394 -0.02413896
vt 1.208394 -0.02413896
vt 1.208394 -0.02413896
vt 0.4425192 0.9187333
vt 0.6515287 0.5284724
vt 0.08822894 0.5208761
vt -0.045582 0.9469309
vt 0.639851 1.764328
vt 0.9208586 1.776147
vt 0.5679216 1.517132
vt 1.201859 1.764328
vt 1.282415 1.517131
vt 0.0001658075 0.7474251
vt -0.04145759 0.5030115
vt 0.3261339 0.7591355
vt 0.382864 0.5182552
vt 0.08621389 0.5145837
vt 0.254332 0.5206233
vt 0 1
vt 0 1
vt 0 1
vt 0 1
vt 0.2621171 0.001731799
vt 0.2642703 0.254842
vt -0.0757798 0.2558419
vt -0.3782881 0.001731799
vt 1.56879 -0.9255343
vt 1.572003 -0.548181
vt 0.9932394 -0.9255343
vt 1.054717 -0.5796725
vt 0.5098684 0.3488838
vt 0.5121036 0.6114599
vt 0.8648724 0.6124973
vt 1.174228 0.3488838
vt 1.649338 -1.538194
vt 1.580122 -1.100144
vt 0.9533881 -1.538194
vt 1.032707 -1.100144
vt 1.460079 0.536481
vt 1.361565 0.968702
vt 0.914252 0.968702
vt 0.580854 0.536481
vt 0.540969 -0.013055
vt 1.420194 -0.013055
vt 1.321679 0.419166
vt 0.639484 0.419166
vt 0.523536 0.549776
vt 0.467057 0.981998
vt 0.075947 0.981998
vt 0.019468 0.549776
vt 1.420194 -0.013055
vt 1.321679 0.419166
vt 0.639484 0.419166
vt 0.540969 -0.013055
vt 0.802482 -0.013055
vt 1.162016 -0.013055
vt 0.580854 0.536481
vt 1.460079 0.536481
vt 1.126682 0.968702
vt 0.679369 0.968702
vt 0.019468 0.549776
vt 0.523536 0.549776
vt 0.467057 0.981998
vt 0.075947 0.981998
vt 1.460079 0.536481
vt 1.361565 0.968702
vt 0.914252 0.968702
vt 0.580854 0.536481
vt 0.540969 -0.013055
vt 1.420194 -0.013055
vt 1.321679 0.419166
vt 0.639484 0.419166
vt 0.523536 0.549776
vt 0.467057 0.981998
vt 0.075947 0.981998
vt 0.019468 0.549776
vt 1.420194 -0.013055
vt 1.321679 0.419166
vt 0.639484 0.419166
vt 0.540969 -0.013055
vt 0.802482 -0.013055
vt 1.162016 -0.013055
vt 0.580854 0.536481
vt 1.460079 0.536481
vt 1.126682 0.968702
vt 0.679369 0.968702
vt 0.019468 0.549776
vt 0.523536 0.549776
vt 0.467057 0.981998
vt 0.075947 0.981998
vt 1.460079 0.536481
vt 1.361565 0.968702
vt 0.914252 0.968702
vt 0.580854 0.536481
vt 0.540969 -0.013055
vt 1.420194 -0.013055
vt 1.321679 0.419166
vt 0.639484 0.419166
vt 0.523536 0.549776
vt 0.467057 0.981998
vt 0.075947 0.981998
vt 0.019468 0.549776
vt 1.420194 -0.013055
vt 1.321679 0.419166
vt 0.639484 0.419166
vt 0.540969 -0.013055
vt 0.802482 -0.013055
vt 1.162016 -0.013055
vt 0.580854 0.536481
vt 1.460079 0.536481
vt 1.126682 0.968702
vt 0.679369 0.968702
vt 0.019468 0.549776
vt 0.523536 0.549776
vt 0.467057 0.981998
vt 0.075947 0.981998
vt 1.460079 0.536481
vt 1.361565 0.968702
vt 0.914252 0.968702
vt 0.580854 0.536481
vt 0.540969 -0.013055
vt 1.420194 -0.013055
vt 1.321679 0.419166
vt 0.639484 0.419166
vt 0.523536 0.549776
vt 0.467057 0.981998
vt 0.075947 0.981998
vt 0.019468 0.549776
vt 1.420194 -0.013055
vt 1.321679 0.419166
vt 0.639484 0.419166
vt 0.540969 -0.013055
vt 0.802482 -0.013055
vt 1.162016 -0.013055
vt 0.580854 0.536481
vt 1.460079 0.536481
vt 1.126682 0.968702
vt 0.679369 0.968702
vt 0.019468 0.549776
vt 0.523536 0.549776
vt 0.467057 0.981998
vt 0.075947 0.981998
vn 0.9348544 0.3550169 0.003183467
vn 0.9348544 0.3550169 0.003183467
vn 0.9348544 0.3550169 0.003183467
vn 0.9348544 0.3550169 0.003183467
vn 0.9415685 0.336783 -0.005092489
vn 0.9415685 0.336783 -0.005092489
vn 0.9415685 0.336783 -0.005092489
vn 0.9415685 0.336783 -0.005092489
vn 0.9377765 0.3470953 -0.01000224
vn 0.9377765 0.3470953 -0.01000224
vn 0.9377765 0.3470953 -0.01000224
vn 0.9377765 0.3470953 -0.01000224
vn -0.01669446 0.7491502 -0.6621897
vn -0.02974463 0.7586921 -0.6507699
vn -0.003559664 0.752477 -0.6586089
vn 0.009536435 0.7491471 -0.662335
vn 0.02270689 0.7586861 -0.6510605
vn -0.9378247 0.3471093 0.0001480224
vn -0.9378247 0.3471093 0.0001480224
vn -0.9378247 0.3471093 0.0001480224
vn -0.9378247 0.3471093 0.0001480224
vn -0.9415619 0.3368012 0.005092479
vn -0.9415619 0.3368012 0.005092479
vn -0.9415619 0.3368012 0.005092479
vn -0.9415619 0.3368012 0.005092479
vn -0.9347641 0.3550202 0.01328803
vn -0.9347641 0.3550202 0.01328803
vn -0.9347641 0.3550202 0.01328803
vn -0.9347641 0.3550202 0.01328803
vn -0.06340009 0.7109921 0.7003362
vn 0.00388527 0.6933452 0.7205951
vn -0.02970106 0.6831437 0.7296798
vn 0.07094952 0.7109901 0.6996136
vn 0.03756699 0.6831427 0.729318
vn -0.9347979 0.3550846 -0.008236837
vn -0.9347979 0.3550846 -0.008236837
vn -0.9347979 0.3550846 -0.008236837
vn -0.9347979 0.3550846 -0.008236837
vn -0.9415836 0.3367793 0
vn -0.9415836 0.3367793 0
vn -0.9415836 0.3367793 0
vn -0.9415836 0.3367793 0
vn -0.9378169 0.3470956 0.004919931
vn -0.9378169 0.3470956 0.004919931
vn -0.9378169 0.3470956 0.004919931
vn -0.9378169 0.3470956 0.004919931
vn 0.01312858 0.7491482 0.6622722
vn 0.02625066 0.7586865 0.6509268
vn 6.001545E-06 0.7524781 0.6586173
vn -0.0131189 0.7491513 0.6622689
vn -0.02623402 0.7586927 0.6509202
vn 0.9378195 0.3470885 0.004919996
vn 0.9378195 0.3470885 0.004919996
vn 0.9378195 0.3470885 0.004919996
vn 0.9378195 0.3470885 0.004919996
vn 0.9415634 0.3368357 0
vn 0.9415634 0.3368357 0
vn 0.9415634 0.3368357 0
vn 0.9415634 0.3368357 0
vn 0.9347996 0.35508 -0.008236873
vn 0.9347996 0.35508 -0.008236873
vn 0.9347996 0.35508 -0.008236873
vn 0.9347996 0.35508 -0.008236873
vn 0.06719717 0.7110196 -0.699954
vn 1.536669E-05 0.6933524 -0.7205986
vn 0.03364735 0.6831568 -0.7294961
vn -0.06715534 0.7109863 -0.6999919
vn -0.03362218 0.683139 -0.7295139
vn -0.8781904 0.4756857 -0.05004818
vn -0.8781904 0.4756857 -0.05004818
vn -0.8781904 0.4756857 -0.05004818
vn -0.8781904 0.4756857 -0.05004818
vn -0.8781904 0.4756857 -0.05004818
vn -0.8781904 0.4756857 -0.05004818
vn 0.04206258 0.3727836 -0.9269645
vn 0.04206258 0.3727836 -0.9269645
vn 0.04206258 0.3727836 -0.9269645
vn 0.04206258 0.3727836 -0.9269645
vn 0.05273758 0.3577317 -0.9323341
vn 0.05273758 0.3577317 -0.9323341
vn 0.05273758 0.3577317 -0.9323341
vn 0.05273758 0.3577317 -0.9323341
vn -0.06349503 0.3727734 0.9257475
vn -0.06349503 0.3727734 0.9257475
vn -0.06349503 0.3727734 0.9257475
vn -0.06349503 0.3727734 0.9257475
vn -0.05349851 0.3577316 0.9322907
vn -0.05349851 0.3577316 0.9322907
vn -0.05349851 0.3577316 0.9322907
vn -0.05349851 0.3577316 0.9322907
vn 0.6549859 0.7547184 0.03733056
vn 0.6549859 0.7547184 0.03733056
vn 0.6549859 0.7547184 0.03733056
vn 0.6549859 0.7547184 0.03733056
vn 0.6605732 0.3577742 0.6600309
vn 0.6605732 0.3577742 0.6600309
vn 0.6605732 0.3577742 0.6600309
vn 0.6605732 0.3577742 0.6600309
vn -0.4638773 0.7547461 0.4638708
vn -0.4638773 0.7547461 0.4638708
vn -0.4638773 0.7547461 0.4638708
vn -0.4638773 0.7547461 0.4638708
vn 0.6598994 0.3578477 0.6606647
vn 0.6598994 0.3578477 0.6606647
vn 0.6598994 0.3578477 0.6606647
vn 0.6598994 0.3578477 0.6606647
vn 0.6220192 0.4756284 -0.6219886
vn 0.6220192 0.4756284 -0.6219886
vn 0.6220192 0.4756284 -0.6219886
vn 0.6220192 0.4756284 -0.6219886
vn 0.6220192 0.4756284 -0.6219886
vn 0.6220192 0.4756284 -0.6219886
vn -0.6600525 0.357718 -0.660582
vn -0.6600525 0.357718 -0.660582
vn -0.6600525 0.357718 -0.660582
vn -0.6600525 0.357718 -0.660582
vn -0.6605904 0.3579414 -0.6599231
vn -0.6605904 0.3579414 -0.6599231
vn -0.6605904 0.3579414 -0.6599231
vn -0.6605904 0.3579414 -0.6599231
vn 0.2413182 0.3577742 -0.9020882
vn 0.2413182 0.3577742 -0.9020882
vn 0.2413182 0.3577742 -0.9020882
vn 0.2413182 0.3577742 -0.9020882
vn 0.6336681 0.7547408 0.1697975
vn 0.6336681 0.7547408 0.1697975
vn 0.6336681 0.7547408 0.1697975
vn 0.6336681 0.7547408 0.1697975
vn 0.2422101 0.3578398 -0.9018231
vn 0.2422101 0.3578398 -0.9018231
vn 0.2422101 0.3578398 -0.9018231
vn 0.2422101 0.3578398 -0.9018231
vn -0.8496644 0.4756335 -0.227691
vn -0.8496644 0.4756335 -0.227691
vn -0.8496644 0.4756335 -0.227691
vn -0.8496644 0.4756335 -0.227691
vn -0.8496644 0.4756335 -0.227691
vn -0.8496644 0.4756335 -0.227691
vn -0.2420491 0.357727 0.9019111
vn -0.2420491 0.357727 0.9019111
vn -0.2420491 0.357727 0.9019111
vn -0.2420491 0.357727 0.9019111
vn -0.2412185 0.3579324 0.902052
vn -0.2412185 0.3579324 0.902052
vn -0.2412185 0.3579324 0.902052
vn -0.2412185 0.3579324 0.902052
vn -0.4672318 0.357787 -0.8085066
vn -0.4672318 0.357787 -0.8085066
vn -0.4672318 0.357787 -0.8085066
vn -0.4672318 0.357787 -0.8085066
vn 0.5681323 0.7547436 -0.3280058
vn 0.5681323 0.7547436 -0.3280058
vn 0.5681323 0.7547436 -0.3280058
vn 0.5681323 0.7547436 -0.3280058
vn -0.4664192 0.3578454 -0.8089498
vn -0.4664192 0.3578454 -0.8089498
vn -0.4664192 0.3578454 -0.8089498
vn -0.4664192 0.3578454 -0.8089498
vn -0.7617905 0.4756623 0.4397963
vn -0.7617905 0.4756623 0.4397963
vn -0.7617905 0.4756623 0.4397963
vn -0.7617905 0.4756623 0.4397963
vn -0.7617905 0.4756623 0.4397963
vn -0.7617905 0.4756623 0.4397963
vn 0.4665947 0.3577247 0.808902
vn 0.4665947 0.3577247 0.808902
vn 0.4665947 0.3577247 0.808902
vn 0.4665947 0.3577247 0.808902
vn 0.4672822 0.3579226 0.8084175
vn 0.4672822 0.3579226 0.8084175
vn 0.4672822 0.3579226 0.8084175
vn 0.4672822 0.3579226 0.8084175
vn -0.2413208 0.3577756 0.9020869
vn -0.2413208 0.3577756 0.9020869
vn -0.2413208 0.3577756 0.9020869
vn -0.2413208 0.3577756 0.9020869
vn -0.6336695 0.7547401 -0.1697949
vn -0.6336695 0.7547401 -0.1697949
vn -0.6336695 0.7547401 -0.1697949
vn -0.6336695 0.7547401 -0.1697949
vn -0.2422041 0.3578488 0.9018212
vn -0.2422041 0.3578488 0.9018212
vn -0.2422041 0.3578488 0.9018212
vn -0.2422041 0.3578488 0.9018212
vn 0.8496565 0.4756502 0.227686
vn 0.8496565 0.4756502 0.227686
vn 0.8496565 0.4756502 0.227686
vn 0.8496565 0.4756502 0.227686
vn 0.8496565 0.4756502 0.227686
vn 0.8496565 0.4756502 0.227686
vn 0.2420524 0.3577312 -0.9019085
vn 0.2420524 0.3577312 -0.9019085
vn 0.2420524 0.3577312 -0.9019085
vn 0.2420524 0.3577312 -0.9019085
vn 0.2412134 0.3579322 -0.9020537
vn 0.2412134 0.3579322 -0.9020537
vn 0.2412134 0.3579322 -0.9020537
vn 0.2412134 0.3579322 -0.9020537
g D3_windowCar_geo_0
f 1/1/1 3/3/3 4/4/4
f 2/2/2 3/3/3 1/1/1
f 8/8/8 5/5/5 6/6/6
f 7/7/7 5/5/5 8/8/8
f 10/10/10 12/12/12 11/11/11
f 9/9/9 12/12/12 10/10/10
f 15/15/15 13/13/13 14/14/14
f 16/16/16 13/13/13 15/15/15
f 17/17/17 16/16/16 15/15/15
f 19/19/19 21/21/21 18/18/18
f 20/20/20 21/21/21 19/19/19
f 25/25/25 22/22/22 24/24/24
f 23/23/23 22/22/22 25/25/25
f 26/26/26 28/28/28 27/27/27
f 29/29/29 28/28/28 26/26/26
f 31/31/31 34/34/34 33/33/33
f 32/32/32 34/34/34 31/31/31
f 30/30/30 32/32/32 31/31/31
f 35/35/35 37/37/37 38/38/38
f 36/36/36 37/37/37 35/35/35
f 42/42/42 39/39/39 40/40/40
f 41/41/41 39/39/39 42/42/42
f 44/44/44 46/46/46 45/45/45
f 43/43/43 46/46/46 44/44/44
f 49/49/49 47/47/47 48/48/48
f 50/50/50 47/47/47 49/49/49
f 51/51/51 50/50/50 49/49/49
f 53/53/53 55/55/55 52/52/52
f 54/54/54 55/55/55 53/53/53
f 59/59/59 56/56/56 58/58/58
f 57/57/57 56/56/56 59/59/59
f 60/60/60 62/62/62 61/61/61
f 63/63/63 62/62/62 60/60/60
f 65/65/65 68/68/68 67/67/67
f 66/66/66 68/68/68 65/65/65
f 64/64/64 66/66/66 65/65/65
f 73/73/73 69/69/69 70/70/70
f 71/71/71 69/69/69 73/73/73
f 74/74/74 71/71/71 73/73/73
f 72/72/72 71/71/71 74/74/74
f 78/78/78 75/75/75 77/77/77
f 76/76/76 75/75/75 78/78/78
f 80/80/80 82/82/82 79/79/79
f 81/81/81 82/82/82 80/80/80
f 86/86/86 83/83/83 84/84/84
f 85/85/85 83/83/83 86/86/86
f 88/88/88 90/90/90 89/89/89
f 87/87/87 90/90/90 88/88/88
f 92/92/92 93/93/93 91/91/91
f 94/94/94 93/93/93 92/92/92
f 97/97/97 95/95/95 96/96/96
f 98/98/98 95/95/95 97/97/97
f 101/101/101 99/99/99 100/100/100
f 102/102/102 99/99/99 101/101/101
f 105/105/105 103/103/103 104/104/104
f 106/106/106 103/103/103 105/105/105
f 111/111/111 109/109/109 110/110/110
f 108/108/108 109/109/109 111/111/111
f 112/112/112 108/108/108 111/111/111
f 107/107/107 108/108/108 112/112/112
f 115/115/115 113/113/113 114/114/114
f 116/116/116 113/113/113 115/115/115
f 119/119/119 117/117/117 118/118/118
f 120/120/120 117/117/117 119/119/119
f 123/123/123 121/121/121 122/122/122
f 124/124/124 121/121/121 123/123/123
f 127/127/127 125/125/125 126/126/126
f 128/128/128 125/125/125 127/127/127
f 131/131/131 129/129/129 130/130/130
f 132/132/132 129/129/129 131/131/131
f 137/137/137 135/135/135 136/136/136
f 134/134/134 135/135/135 137/137/137
f 138/138/138 134/134/134 137/137/137
f 133/133/133 134/134/134 138/138/138
f 141/141/141 139/139/139 140/140/140
f 142/142/142 139/139/139 141/141/141
f 145/145/145 143/143/143 144/144/144
f 146/146/146 143/143/143 145/145/145
f 149/149/149 147/147/147 148/148/148
f 150/150/150 147/147/147 149/149/149
f 153/153/153 151/151/151 152/152/152
f 154/154/154 151/151/151 153/153/153
f 157/157/157 155/155/155 156/156/156
f 158/158/158 155/155/155 157/157/157
f 163/163/163 161/161/161 162/162/162
f 160/160/160 161/161/161 163/163/163
f 164/164/164 160/160/160 163/163/163
f 159/159/159 160/160/160 164/164/164
f 167/167/167 165/165/165 166/166/166
f 168/168/168 165/165/165 167/167/167
f 171/171/171 169/169/169 170/170/170
f 172/172/172 169/169/169 171/171/171
f 175/175/175 173/173/173 174/174/174
f 176/176/176 173/173/173 175/175/175
f 179/179/179 177/177/177 178/178/178
f 180/180/180 177/177/177 179/179/179
f 183/183/183 181/181/181 182/182/182
f 184/184/184 181/181/181 183/183/183
f 189/189/189 187/187/187 188/188/188
f 186/186/186 187/187/187 189/189/189
f 190/190/190 186/186/186 189/189/189
f 185/185/185 186/186/186 190/190/190
f 193/193/193 191/191/191 192/192/192
f 194/194/194 191/191/191 193/193/193
f 197/197/197 195/195/195 196/196/196
f 198/198/198 195/195/195 197/197/197
