g D4_collisionInvisible_geo
v -62.49782 -3.575321 120.0919
v -62.49782 19.87111 120.0919
v -79.92406 -3.575321 120.0919
v -79.92406 19.87111 120.0919
v -79.92406 -3.575321 115.8577
v -79.92406 19.87111 115.8577
v -81.1983 -3.575321 115.8577
v -81.1983 19.87111 115.8577
v -81.1983 -3.575321 122.2007
v -81.1983 19.87111 122.2007
v -89.99628 -3.57532 122.2007
v -89.99628 19.87111 122.2007
v -109.2931 -3.575321 121.8601
v -109.2931 19.87111 121.8601
v -109.2931 -3.575321 136.6854
v -109.2931 19.87111 136.6854
v -139.3491 -3.57532 136.6854
v -139.3491 19.87111 136.6854
v -144.8521 -3.57532 177.7822
v -144.8521 19.87111 177.7822
v -182.4234 -3.57532 183.5034
v -182.4234 19.87111 183.5034
v -198.6977 -3.57532 142.7175
v -198.6977 19.87111 142.7175
v -220.5001 -3.57532 142.7175
v -220.5001 19.87111 142.7175
v -213.9221 -3.57532 87.18014
v -213.9221 19.87111 87.18014
v -256.2848 -3.57532 74.24919
v -256.2848 19.87111 74.24919
v -243.8473 19.87112 87.29314
v -243.8473 -3.57532 87.29314
v -250.6075 19.87112 81.62806
v -250.6075 -3.57532 81.62806
v -254.725 19.87112 77.12149
v -254.725 -3.57532 77.12149
v -139.3491 19.87111 142.0461
v -139.3491 -3.57532 142.0461
v -139.3491 19.87111 148.4879
v -139.3491 -3.57532 148.4879
v -191.3437 19.87112 172.9772
v -191.3437 -3.57532 172.9772
v -172.428 19.87112 188.3037
v -172.428 -3.57532 188.3037
v -163.1076 19.87112 190.5621
v -163.1076 -3.57532 190.5621
v -156.9244 19.87112 187.0827
v -156.9244 -3.57532 187.0827
v -143.2958 19.87111 173.6417
v -143.2958 -3.57532 173.6417
v -136.8018 19.87111 164.3456
v -136.8018 -3.57532 164.3456
v -220.5001 19.87111 104.7743
v -220.5001 -3.57532 104.7743
v -213.893 19.87111 104.7743
v -213.893 -3.57532 104.7743
v -191.3437 19.87112 156.3113
v -191.3437 -3.57532 156.3113
v -198.6977 19.87112 156.1732
v -198.6977 -3.57532 156.1732
v -86.34128 19.87111 122.2007
v -86.34128 -3.57532 122.2007
v -89.99628 19.87111 124.9834
v -89.99628 -3.57532 124.9834
v -86.34128 19.87111 124.9834
v -86.34128 -3.57532 124.9834
v -137.5415 19.87112 177.5676
v -137.5415 -3.57532 177.5676
vt 0.009305123 0.9919356
vt 0.009305123 0.9919356
vt 0.009305123 0.9919356
vt 0.009305123 0.9919356
vt 0.009305123 0.9919356
vt 0.009305123 0.9919356
vt 0.009305123 0.9919356
vt 0.009305123 0.9919356
vt 0.009305123 0.9919356
vt 0.009305123 0.9919356
vt 0.009305123 0.9919356
vt 0.009305123 0.9919356
vt 0.009305123 0.9919356
vt 0.009305123 0.9919356
vt 0.009305123 0.9919356
vt 0.009305123 0.9919356
vt 0.009305123 0.9919356
vt 0.009305123 0.9919356
vt 0.009305123 0.9919356
vt 0.009305123 0.9919356
vt 0.009305123 0.9919356
vt 0.009305123 0.9919356
vt 0.009305123 0.9919356
vt 0.009305123 0.9919356
vt 0.009305123 0.9919356
vt 0.009305123 0.9919356
vt 0.009305123 0.9919356
vt 0.009305123 0.9919356
vt 0.009305123 0.9919356
vt 0.009305123 0.9919356
vt 0.009305123 0.9919356
vt 0.009305123 0.9919356
vt 0.009305123 0.9919356
vt 0.009305123 0.9919356
vt 0.009305123 0.9919356
vt 0.009305123 0.9919356
vt 0.009305123 0.9919356
vt 0.009305123 0.9919356
vt 0.009305123 0.9919356
vt 0.009305123 0.9919356
vt 0.009305123 0.9919356
vt 0.009305123 0.9919356
vt 0.009305123 0.9919356
vt 0.009305123 0.9919356
vt 0.009305123 0.9919356
vt 0.009305123 0.9919356
vt 0.009305123 0.9919356
vt 0.009305123 0.9919356
vt 0.009305123 0.9919356
vt 0.009305123 0.9919356
vt 0.009305123 0.9919356
vt 0.009305123 0.9919356
vt 0.009305123 0.9919356
vt 0.009305123 0.9919356
vt 0.009305123 0.9919356
vt 0.009305123 0.9919356
vt 0.009305123 0.9919356
vt 0.009305123 0.9919356
vt 0.009305123 0.9919356
vt 0.009305123 0.9919356
vt 0.009305123 0.9919356
vt 0.009305123 0.9919356
vt 0.009305123 0.9919356
vt 0.009305123 0.9919356
vt 0.009305123 0.9919356
vt 0.009305123 0.9919356
vt 0.009305123 0.9919356
vt 0.009305123 0.9919356
vn -9.789928E-07 0 -1
vn -9.789928E-07 0 -1
vn 0.7071064 0 -0.7071071
vn 0.7071064 0 -0.7071071
vn 0.7071044 0 -0.7071091
vn 0.7071044 0 -0.7071091
vn -0.7071091 0 -0.7071044
vn -0.7071091 0 -0.7071044
vn -0.7071068 0 -0.7071068
vn -0.7071068 0 -0.7071068
vn 0.7133192 0 -0.7008392
vn 0.7133192 0 -0.7008392
vn -0.7008392 0 -0.7133193
vn -0.7008392 0 -0.7133193
vn -0.7071069 0 -0.7071066
vn -0.7071069 0 -0.7071066
vn -0.7071069 0 -0.7071066
vn -0.7071069 0 -0.7071066
vn -0.8039132 0 -0.5947468
vn -0.8039132 0 -0.5947468
vn 0.6113443 0 -0.7913647
vn 0.6113443 0 -0.7913647
vn 0.7071068 0 -0.7071068
vn 0.7071068 0 -0.7071068
vn 0.7071068 0 -0.7071068
vn 0.7071068 0 -0.7071068
vn 0.7051857 0 -0.7090226
vn 0.7051857 0 -0.7090226
vn 0.8787821 0 -0.4772232
vn 0.8787821 0 -0.4772232
vn 0.3399428 0 -0.9404461
vn 0.3399428 0 -0.9404461
vn 0.6918072 0 -0.7220823
vn 0.6918072 0 -0.7220823
vn 0.8145173 0 -0.5801393
vn 0.8145173 0 -0.5801393
vn -1 0 0
vn -1 0 0
vn -0.9968308 0 0.0795507
vn -0.9968308 0 0.0795507
vn 0.9388577 0 -0.3443055
vn 0.9388577 0 -0.3443055
vn 0.3360526 0 -0.9418433
vn 0.3360526 0 -0.9418433
vn -0.1369842 0 -0.9905732
vn -0.1369842 0 -0.9905732
vn -0.5517794 0 -0.8339902
vn -0.5517794 0 -0.8339902
vn -0.3015025 0 -0.9534655
vn -0.3015025 0 -0.9534655
vn -0.9986644 0 0.05166845
vn -0.9986644 0 0.05166845
vn 0.7071068 0 0.7071068
vn 0.7071068 0 0.7071068
vn 0.7076898 0 0.7065232
vn 0.7076898 0 0.7065232
vn 0.7137175 0 -0.7004338
vn 0.7137175 0 -0.7004338
vn 0.7137175 0 -0.7004338
vn 0.7137175 0 -0.7004338
vn -0.7071068 0 -0.7071068
vn -0.7071068 0 -0.7071068
vn 0.7071058 0 -0.7071077
vn 0.7071058 0 -0.7071077
vn -0.7071077 0 -0.7071058
vn -0.7071077 0 -0.7071058
vn -0.442239 0 -0.8968972
vn -0.442239 0 -0.8968972
g D4_collisionInvisible_geo_0
f 3/3/3 2/2/2 1/1/1
f 4/4/4 2/2/2 3/3/3
f 5/5/5 4/4/4 3/3/3
f 6/6/6 4/4/4 5/5/5
f 7/7/7 6/6/6 5/5/5
f 8/8/8 6/6/6 7/7/7
f 9/9/9 8/8/8 7/7/7
f 10/10/10 8/8/8 9/9/9
f 62/62/62 10/10/10 9/9/9
f 61/61/61 10/10/10 62/62/62
f 66/66/66 61/61/61 62/62/62
f 65/65/65 61/61/61 66/66/66
f 64/64/64 65/65/65 66/66/66
f 63/63/63 65/65/65 64/64/64
f 11/11/11 63/63/63 64/64/64
f 12/12/12 63/63/63 11/11/11
f 13/13/13 12/12/12 11/11/11
f 14/14/14 12/12/12 13/13/13
f 15/15/15 14/14/14 13/13/13
f 16/16/16 14/14/14 15/15/15
f 18/18/18 16/16/16 15/15/15
f 35/35/35 29/29/29 30/30/30
f 36/36/36 29/29/29 35/35/35
f 33/33/33 36/36/36 35/35/35
f 34/34/34 36/36/36 33/33/33
f 31/31/31 34/34/34 33/33/33
f 32/32/32 34/34/34 31/31/31
f 27/27/27 32/32/32 31/31/31
f 40/40/40 51/51/51 39/39/39
f 37/37/37 40/40/40 39/39/39
f 38/38/38 40/40/40 37/37/37
f 18/18/18 38/38/38 37/37/37
f 17/17/17 38/38/38 18/18/18
f 15/15/15 17/17/17 18/18/18
f 51/51/51 40/40/40 52/52/52
f 68/68/68 51/51/51 52/52/52
f 67/67/67 51/51/51 68/68/68
f 50/50/50 67/67/67 68/68/68
f 49/49/49 67/67/67 50/50/50
f 19/19/19 49/49/49 50/50/50
f 20/20/20 49/49/49 19/19/19
f 48/48/48 20/20/20 19/19/19
f 47/47/47 20/20/20 48/48/48
f 46/46/46 47/47/47 48/48/48
f 45/45/45 47/47/47 46/46/46
f 44/44/44 45/45/45 46/46/46
f 43/43/43 45/45/45 44/44/44
f 21/21/21 43/43/43 44/44/44
f 22/22/22 43/43/43 21/21/21
f 42/42/42 22/22/22 21/21/21
f 41/41/41 22/22/22 42/42/42
f 58/58/58 41/41/41 42/42/42
f 57/57/57 41/41/41 58/58/58
f 60/60/60 57/57/57 58/58/58
f 59/59/59 57/57/57 60/60/60
f 23/23/23 59/59/59 60/60/60
f 24/24/24 59/59/59 23/23/23
f 25/25/25 24/24/24 23/23/23
f 26/26/26 24/24/24 25/25/25
f 53/53/53 26/26/26 25/25/25
f 27/27/27 31/31/31 28/28/28
f 55/55/55 27/27/27 28/28/28
f 56/56/56 27/27/27 55/55/55
f 53/53/53 56/56/56 55/55/55
f 54/54/54 56/56/56 53/53/53
f 25/25/25 54/54/54 53/53/53
