g D4_collisionInvisible_geo
v -62.49782 -3.575321 120.0919
v -62.49782 19.87111 120.0919
v -79.92406 -3.575321 120.0919
v -79.92406 19.87111 120.0919
v -79.92406 -3.575321 115.8577
v -79.92406 19.87111 115.8577
v -81.1983 -3.575321 115.8577
v -81.1983 19.87111 115.8577
v -81.1983 -3.575321 122.2007
v -81.1983 19.87111 122.2007
v -89.99628 -3.57532 122.2007
v -89.99628 19.87111 122.2007
v -109.2931 -3.575321 121.8601
v -109.2931 19.87111 121.8601
v -109.2931 -3.575321 136.6854
v -109.2931 19.87111 136.6854
v -139.3491 -3.57532 136.6854
v -139.3491 19.87111 136.6854
v -144.8521 -3.57532 177.7822
v -144.8521 19.87111 177.7822
v -182.4234 -3.57532 183.5034
v -182.4234 19.87111 183.5034
v -198.6977 -3.57532 142.7175
v -198.6977 19.87111 142.7175
v -220.5001 -3.57532 142.7175
v -220.5001 19.87111 142.7175
v -213.9221 -3.57532 87.18014
v -213.9221 19.87111 87.18014
v -256.2848 -3.57532 74.24919
v -256.2848 19.87111 74.24919
v -243.8473 19.87112 87.29314
v -243.8473 -3.57532 87.29314
v -250.6075 19.87112 81.62806
v -250.6075 -3.57532 81.62806
v -254.725 19.87112 77.12149
v -254.725 -3.57532 77.12149
v -139.3491 19.87111 142.0461
v -139.3491 -3.57532 142.0461
v -139.3491 19.87111 148.4879
v -139.3491 -3.57532 148.4879
v -191.3437 19.87112 172.9772
v -191.3437 -3.57532 172.9772
v -172.428 19.87112 188.3037
v -172.428 -3.57532 188.3037
v -163.1076 19.87112 190.5621
v -163.1076 -3.57532 190.5621
v -156.9244 19.87112 187.0827
v -156.9244 -3.57532 187.0827
v -143.2958 19.87111 173.6417
v -143.2958 -3.57532 173.6417
v -136.8018 19.87111 164.3456
v -136.8018 -3.57532 164.3456
v -220.5001 19.87111 104.7743
v -220.5001 -3.57532 104.7743
v -213.893 19.87111 104.7743
v -213.893 -3.57532 104.7743
v -191.3437 19.87112 156.3113
v -191.3437 -3.57532 156.3113
v -198.6977 19.87112 156.1732
v -198.6977 -3.57532 156.1732
v -86.34128 19.87111 122.2007
v -86.34128 -3.57532 122.2007
v -89.99628 19.87111 124.9834
v -89.99628 -3.57532 124.9834
v -86.34128 19.87111 124.9834
v -86.34128 -3.57532 124.9834
v -137.5415 19.87112 177.5676
v -137.5415 -3.57532 177.5676
v -255.2449 -3.57532 76.16405
v -255.7648 -3.57532 75.20662
v -255.2449 19.87112 76.16405
v -255.7648 19.87112 75.20662
v -251.98 -3.57532 80.12587
v -253.3525 -3.57532 78.62368
v -251.98 19.87112 80.12587
v -253.3525 19.87112 78.62368
v -246.1007 -3.57532 85.40479
v -248.3541 -3.57532 83.51643
v -246.1007 19.87112 85.40479
v -248.3541 19.87112 83.51643
v -243.8473 -0.1625262 87.29314
v -246.1007 0.4590277 85.40479
v -248.3542 1.080577 83.51643
v -250.6075 1.702136 81.62806
v -251.98 1.189935 80.12587
v -253.3525 0.6777139 78.62368
v -254.725 0.1655045 77.12149
vt 0.009305123 0.9919356
vt 0.009305123 0.9919356
vt 0.009305123 0.9919356
vt 0.009305123 0.9919356
vt 0.009305123 0.9919356
vt 0.009305123 0.9919356
vt 0.009305123 0.9919356
vt 0.009305123 0.9919356
vt 0.009305123 0.9919356
vt 0.009305123 0.9919356
vt 0.009305123 0.9919356
vt 0.009305123 0.9919356
vt 0.009305123 0.9919356
vt 0.009305123 0.9919356
vt 0.009305123 0.9919356
vt 0.009305123 0.9919356
vt 0.009305123 0.9919356
vt 0.009305123 0.9919356
vt 0.009305123 0.9919356
vt 0.009305123 0.9919356
vt 0.009305123 0.9919356
vt 0.009305123 0.9919356
vt 0.009305123 0.9919356
vt 0.009305123 0.9919356
vt 0.009305123 0.9919356
vt 0.009305123 0.9919356
vt 0.009305123 0.9919356
vt 0.009305123 0.9919356
vt 0.009305123 0.9919356
vt 0.009305123 0.9919356
vt 0.009305123 0.9919356
vt 0.009305123 0.9919356
vt 0.009305123 0.9919356
vt 0.009305123 0.9919356
vt 0.009305123 0.9919356
vt 0.009305123 0.9919356
vt 0.009305123 0.9919356
vt 0.009305123 0.9919356
vt 0.009305123 0.9919356
vt 0.009305123 0.9919356
vt 0.009305123 0.9919356
vt 0.009305123 0.9919356
vt 0.009305123 0.9919356
vt 0.009305123 0.9919356
vt 0.009305123 0.9919356
vt 0.009305123 0.9919356
vt 0.009305123 0.9919356
vt 0.009305123 0.9919356
vt 0.009305123 0.9919356
vt 0.009305123 0.9919356
vt 0.009305123 0.9919356
vt 0.009305123 0.9919356
vt 0.009305123 0.9919356
vt 0.009305123 0.9919356
vt 0.009305123 0.9919356
vt 0.009305123 0.9919356
vt 0.009305123 0.9919356
vt 0.009305123 0.9919356
vt 0.009305123 0.9919356
vt 0.009305123 0.9919356
vt 0.009305123 0.9919356
vt 0.009305123 0.9919356
vt 0.009305123 0.9919356
vt 0.009305123 0.9919356
vt 0.009305123 0.9919356
vt 0.009305123 0.9919356
vt 0.009305123 0.9919356
vt 0.009305123 0.9919356
vt 0.009305123 0.9919356
vt 0.009305123 0.9919356
vt 0.009305123 0.9919356
vt 0.009305123 0.9919356
vt 0.009305123 0.9919356
vt 0.009305123 0.9919356
vt 0.009305123 0.9919356
vt 0.009305123 0.9919356
vt 0.009305123 0.9919356
vt 0.009305123 0.9919356
vt 0.009305123 0.9919356
vt 0.009305123 0.9919356
vt 0.009305123 0.9919356
vt 0.009305123 0.9919355
vt 0.009305123 0.9919356
vt 0.009305123 0.9919356
vt 0.009305123 0.9919356
vt 0.009305123 0.9919356
vt 0.009305123 0.9919356
vn -9.789928E-07 0 -1
vn -9.789928E-07 0 -1
vn 0.8944271 0 -0.4472137
vn 0.4472129 0 -0.8944275
vn 0.4472089 0 -0.8944296
vn 0.8944272 0 -0.4472136
vn -0.8944284 0 -0.4472112
vn -0.4472184 0 -0.8944248
vn -0.4472136 0 -0.8944272
vn -0.8944272 0 -0.4472136
vn 0.4597648 0 -0.8880408
vn 0.8960167 0 -0.4440203
vn -0.89286 0 -0.4503343
vn -0.4345064 0 -0.9006687
vn -0.7071069 0 -0.7071066
vn -0.7071069 0 -0.7071066
vn -0.7071069 0 -0.7071066
vn -0.7071069 0 -0.7071066
vn -0.7441161 0 -0.6680502
vn -0.856516 0 -0.5161205
vn 0.6659004 0 -0.7460406
vn 0.5537126 0 -0.8327079
vn 0.4472136 0 -0.8944272
vn 0.8944272 0 -0.4472136
vn 0.7071068 0 -0.7071068
vn 0.7071068 0 -0.7071068
vn 0.4442137 0 -0.8959208
vn 0.7051859 0 -0.7090224
vn 0.8787795 0 -0.4772278
vn 0.8787797 0 -0.4772275
vn 0.4512553 0 -0.892395
vn 0.3399421 0 -0.9404464
vn 0.69181 0 -0.7220796
vn 0.691812 1.830408E-06 -0.7220777
vn 0.7902727 0 -0.6127555
vn 0.8145212 0 -0.5801338
vn -1 0 0
vn -1 0 0
vn -0.9968308 0 0.07955069
vn -0.9968308 0 0.07955078
vn 0.8901427 0 -0.4556819
vn 0.9736984 0 -0.227841
vn 0.3027814 0 -0.95306
vn 0.3689087 0 -0.9294656
vn -0.2647387 0 -0.9643202
vn -0.006898993 0 -0.9999763
vn -0.5716466 0 -0.8205
vn -0.531593 0 -0.8469999
vn 0.09493857 0 -0.9954832
vn -0.650025 0 -0.7599128
vn -0.9986644 0 0.05166835
vn -0.9986644 0 0.05166844
vn 0.7071068 0 0.7071068
vn 0.7071068 0 0.7071068
vn 0.4475084 0 0.8942798
vn 0.8950167 0 0.4460326
vn 0.89612 0 -0.4438119
vn 0.4605676 0 -0.8876246
vn 0.4605676 0 -0.8876246
vn 0.8961196 0 -0.4438127
vn -0.4472136 0 -0.8944272
vn -0.8944272 0 -0.4472136
vn 0.4472115 0 -0.8944283
vn 0.8944272 0 -0.4472136
vn -0.8944278 0 -0.4472126
vn -0.4472156 0 -0.8944261
vn -0.8368036 0 -0.5475032
vn 0.0751608 0 -0.9971715
vn 0.8787835 0 -0.4772207
vn 0.8787785 0 -0.4772298
vn 0.8787858 0 -0.4772165
vn 0.8787785 0 -0.4772298
vn 0.7382589 0 -0.6745175
vn 0.7382595 0 -0.6745167
vn 0.7382636 0 -0.6745123
vn 0.7382575 0 -0.6745189
vn 0.642294 0 -0.7664583
vn 0.642292 4.870275E-06 -0.7664601
vn 0.642293 -6.033756E-07 -0.7664592
vn 0.6422946 -1.206756E-06 -0.7664579
vn 0.3399425 0 -0.9404462
vn 0.6422929 1.217563E-06 -0.7664593
vn 0.6422946 1.831759E-06 -0.7664578
vn 0.6918125 -3.023585E-07 -0.7220773
vn 0.7382618 0 -0.6745142
vn 0.7382588 0 -0.6745176
vn 0.8145215 0 -0.5801333
g D4_collisionInvisible_geo_0
f 16/16/16 15/15/15 17/17/17
f 13/13/13 15/15/15 16/16/16
f 14/14/14 13/13/13 16/16/16
f 11/11/11 13/13/13 14/14/14
f 12/12/12 11/11/11 14/14/14
f 64/64/64 11/11/11 12/12/12
f 63/63/63 64/64/64 12/12/12
f 66/66/66 64/64/64 63/63/63
f 65/65/65 66/66/66 63/63/63
f 62/62/62 66/66/66 65/65/65
f 61/61/61 62/62/62 65/65/65
f 9/9/9 62/62/62 61/61/61
f 10/10/10 9/9/9 61/61/61
f 7/7/7 9/9/9 10/10/10
f 8/8/8 7/7/7 10/10/10
f 5/5/5 7/7/7 8/8/8
f 6/6/6 5/5/5 8/8/8
f 3/3/3 5/5/5 6/6/6
f 4/4/4 3/3/3 6/6/6
f 1/1/1 3/3/3 4/4/4
f 2/2/2 1/1/1 4/4/4
f 84/84/84 33/33/33 80/80/80
f 75/75/75 33/33/33 84/84/84
f 85/85/85 75/75/75 84/84/84
f 76/76/76 75/75/75 85/85/85
f 86/86/86 76/76/76 85/85/85
f 35/35/35 76/76/76 86/86/86
f 87/87/87 35/35/35 86/86/86
f 71/71/71 35/35/35 87/87/87
f 69/69/69 71/71/71 87/87/87
f 72/72/72 71/71/71 69/69/69
f 70/70/70 72/72/72 69/69/69
f 30/30/30 72/72/72 70/70/70
f 29/29/29 30/30/30 70/70/70
f 39/39/39 40/40/40 52/52/52
f 38/38/38 40/40/40 39/39/39
f 37/37/37 38/38/38 39/39/39
f 17/17/17 38/38/38 37/37/37
f 18/18/18 17/17/17 37/37/37
f 16/16/16 17/17/17 18/18/18
f 52/52/52 51/51/51 39/39/39
f 67/67/67 51/51/51 52/52/52
f 68/68/68 67/67/67 52/52/52
f 49/49/49 67/67/67 68/68/68
f 50/50/50 49/49/49 68/68/68
f 20/20/20 49/49/49 50/50/50
f 19/19/19 20/20/20 50/50/50
f 47/47/47 20/20/20 19/19/19
f 48/48/48 47/47/47 19/19/19
f 45/45/45 47/47/47 48/48/48
f 46/46/46 45/45/45 48/48/48
f 43/43/43 45/45/45 46/46/46
f 44/44/44 43/43/43 46/46/46
f 22/22/22 43/43/43 44/44/44
f 21/21/21 22/22/22 44/44/44
f 41/41/41 22/22/22 21/21/21
f 42/42/42 41/41/41 21/21/21
f 57/57/57 41/41/41 42/42/42
f 58/58/58 57/57/57 42/42/42
f 59/59/59 57/57/57 58/58/58
f 60/60/60 59/59/59 58/58/58
f 24/24/24 59/59/59 60/60/60
f 23/23/23 24/24/24 60/60/60
f 26/26/26 24/24/24 23/23/23
f 25/25/25 26/26/26 23/23/23
f 54/54/54 26/26/26 25/25/25
f 81/81/81 32/32/32 77/77/77
f 27/27/27 32/32/32 81/81/81
f 28/28/28 27/27/27 81/81/81
f 56/56/56 27/27/27 28/28/28
f 55/55/55 56/56/56 28/28/28
f 54/54/54 56/56/56 55/55/55
f 53/53/53 54/54/54 55/55/55
f 26/26/26 54/54/54 53/53/53
f 83/83/83 84/84/84 80/80/80
f 79/79/79 83/83/83 80/80/80
f 82/82/82 83/83/83 79/79/79
f 31/31/31 82/82/82 79/79/79
f 81/81/81 82/82/82 31/31/31
f 28/28/28 81/81/81 31/31/31
f 34/34/34 84/84/84 83/83/83
f 85/85/85 84/84/84 34/34/34
f 73/73/73 85/85/85 34/34/34
f 86/86/86 85/85/85 73/73/73
f 74/74/74 86/86/86 73/73/73
f 87/87/87 86/86/86 74/74/74
f 36/36/36 87/87/87 74/74/74
f 69/69/69 87/87/87 36/36/36
f 82/82/82 81/81/81 77/77/77
f 78/78/78 82/82/82 77/77/77
f 83/83/83 82/82/82 78/78/78
f 34/34/34 83/83/83 78/78/78
