g D4_detailGarbage_geo
v -100.8833 2.603895 119.7435
v -100.7593 2.603895 119.8675
v -100.5899 2.603895 119.9129
v -100.4204 2.603896 119.8674
v -100.2965 2.603895 119.7434
v -100.251 2.603894 119.574
v -100.2964 2.603894 119.4046
v -100.4204 2.603894 119.2806
v -100.5899 2.603895 119.2352
v -100.7592 2.603894 119.2806
v -100.8832 2.603894 119.4047
v -100.9286 2.603896 119.574
v -100.2888 1.883235 119.574
v -100.3292 1.883236 119.7245
v -100.4394 1.883237 119.8348
v -100.5899 1.883236 119.8751
v -100.7404 1.883236 119.8348
v -100.8506 1.883236 119.7246
v -100.8909 1.883237 119.574
v -100.8505 1.883236 119.4236
v -100.7404 1.883235 119.3134
v -100.5899 1.883236 119.273
v -100.4393 1.883235 119.3133
v -100.3291 1.883235 119.4235
v -116.6802 0.8194251 83.16978
v -116.5564 0.8194251 83.29356
v -116.3874 0.8194249 83.33887
v -116.2183 0.8194257 83.29353
v -116.0946 0.8194268 83.16975
v -116.0492 0.8194259 83.00067
v -116.0945 0.8194244 82.83161
v -116.2183 0.8194243 82.70783
v -116.3873 0.8194245 82.66253
v -116.5564 0.8194235 82.70786
v -116.6802 0.8194258 82.83163
v -116.7255 0.8194275 83.00068
v -116.0869 0.100176 83.00067
v -116.1272 0.1001772 83.15089
v -116.2371 0.1001759 83.26089
v -116.3874 0.1001752 83.30117
v -116.5376 0.1001753 83.26092
v -116.6475 0.1001753 83.15092
v -116.6878 0.1001776 83.00068
v -116.6475 0.100176 82.85049
v -116.5375 0.1001736 82.74051
v -116.3873 0.1001747 82.70023
v -116.2371 0.1001744 82.74049
v -116.1271 0.1001746 82.85046
v -77.81929 0.6645249 82.74963
v -77.87694 0.6645249 82.80713
v -77.89781 0.6645249 82.88564
v -77.87709 0.6645249 82.96418
v -77.81929 0.6645249 83.02171
v -77.74086 0.6645249 83.04276
v -77.66245 0.6645249 83.02171
v -77.6048 0.664525 82.96418
v -77.58392 0.664525 82.88564
v -77.6048 0.6645249 82.80713
v -77.66245 0.6645249 82.74963
v -77.74086 0.6645249 82.72859
v -77.74086 0.1195221 83.04253
v -77.81927 0.1195221 83.02151
v -77.87684 0.1195221 82.96409
v -77.89764 0.119522 82.88564
v -77.87688 0.119522 82.80721
v -77.81927 0.1195221 82.7498
v -77.74086 0.1195221 82.72879
v -77.66246 0.1195221 82.7498
v -77.60491 0.1195221 82.80721
v -77.58396 0.1195221 82.88564
v -77.60491 0.1195221 82.96409
v -77.66246 0.1195221 83.02151
v -134.8062 0.6706146 82.74091
v -134.8638 0.6706145 82.79849
v -134.8849 0.6706145 82.87717
v -134.8638 0.6706146 82.95584
v -134.8062 0.6706145 83.01344
v -134.7276 0.6706145 83.03453
v -134.6489 0.6706145 83.01344
v -134.5913 0.6706145 82.95585
v -134.5702 0.6706145 82.87716
v -134.5913 0.6706145 82.79848
v -134.6489 0.6706146 82.74091
v -134.7276 0.6706146 82.7198
v -134.7276 0.1246578 83.03432
v -134.8062 0.1246578 83.01327
v -134.8637 0.1246578 82.95574
v -134.8847 0.1246578 82.87717
v -134.8636 0.1246578 82.7986
v -134.8061 0.1246578 82.74107
v -134.7276 0.1246579 82.72001
v -134.649 0.1246579 82.74107
v -134.5915 0.1246579 82.79858
v -134.5704 0.1246579 82.87716
v -134.5915 0.1246578 82.95574
v -134.649 0.1246578 83.01326
v -66.51079 0.8193935 82.70124
v -66.38701 0.8193936 82.82503
v -66.21793 0.8193932 82.87035
v -66.0489 0.8193939 82.825
v -65.92508 0.8193933 82.70126
v -65.87978 0.8193914 82.53217
v -65.92508 0.8193921 82.36311
v -66.04886 0.8193924 82.23933
v -66.21793 0.8193929 82.19402
v -66.38699 0.8193921 82.23936
v -66.51074 0.8193924 82.36311
v -66.55609 0.819394 82.53217
v -65.91745 0.1001703 82.53217
v -65.95773 0.1001719 82.6824
v -66.06773 0.1001725 82.79237
v -66.21793 0.1001718 82.83266
v -66.36816 0.1001721 82.79239
v -66.47816 0.1001719 82.6824
v -66.51838 0.1001725 82.53217
v -66.47813 0.1001712 82.38197
v -66.36812 0.1001707 82.272
v -66.21793 0.1001716 82.23172
v -66.06773 0.1001713 82.27197
v -65.95773 0.1001708 82.38195
v -65.85906 0.8193933 83.03487
v -65.73528 0.8193937 83.15865
v -65.56619 0.8193932 83.20396
v -65.39714 0.8193939 83.15863
v -65.27337 0.8193933 83.03487
v -65.22803 0.819392 82.8658
v -65.27337 0.8193929 82.69674
v -65.39713 0.819393 82.57294
v -65.56619 0.819393 82.52764
v -65.73524 0.8193918 82.57298
v -65.85903 0.8193914 82.69675
v -65.90437 0.819393 82.8658
v -65.26575 0.1001706 82.8658
v -65.30601 0.1001719 83.01601
v -65.41599 0.1001725 83.12599
v -65.56619 0.1001718 83.16628
v -65.71642 0.1001721 83.12601
v -65.82641 0.1001719 83.01604
v -65.86666 0.1001716 82.8658
v -65.82635 0.1001702 82.71561
v -65.71638 0.1001705 82.60564
v -65.56619 0.1001717 82.56535
v -65.41599 0.1001717 82.60561
v -65.30598 0.1001715 82.71558
v -100.8833 2.603895 119.7435
v -100.8506 1.883236 119.7246
v -116.6802 0.8194251 83.16978
v -116.6475 0.1001753 83.15092
v -77.81929 0.6645249 82.74963
v -77.81927 0.1195221 82.7498
v -134.8062 0.6706146 82.74091
v -134.8061 0.1246578 82.74107
v -66.51079 0.8193935 82.70124
v -66.47816 0.1001719 82.6824
v -65.85906 0.8193933 83.03487
v -65.82641 0.1001719 83.01604
vt 0.9762881 0.6838939
vt 0.9762881 0.6838939
vt 0.9762881 0.6838939
vt 0.9762881 0.6838939
vt 0.9762881 0.6838939
vt 0.9762881 0.6838939
vt 0.9762881 0.6838939
vt 0.9762881 0.6838939
vt 0.9762881 0.6838939
vt 0.9762881 0.6838939
vt 0.9762881 0.6838939
vt 0.9762881 0.6838939
vt 0.9762881 0.6838939
vt 0.9762881 0.6838939
vt 0.9762881 0.6838939
vt 0.9762881 0.6838939
vt 0.9762881 0.6838939
vt 0.9762881 0.6838939
vt 0.9762881 0.6838939
vt 0.9762881 0.6838939
vt 0.9762881 0.6838939
vt 0.9762881 0.6838939
vt 0.9762881 0.6838939
vt 0.9762881 0.6838939
vt 0.9762881 0.6838939
vt 0.9762881 0.6838939
vt 0.9762881 0.6838939
vt 0.9762881 0.6838939
vt 0.9762881 0.6838939
vt 0.9762881 0.6838939
vt 0.9762881 0.6838939
vt 0.9762881 0.6838939
vt 0.9762881 0.6838939
vt 0.9762881 0.6838939
vt 0.9762881 0.6838939
vt 0.9762881 0.6838939
vt 0.9762881 0.6838939
vt 0.9762881 0.6838939
vt 0.9762881 0.6838939
vt 0.9762881 0.6838939
vt 0.9762881 0.6838939
vt 0.9762881 0.6838939
vt 0.9762881 0.6838939
vt 0.9762881 0.6838939
vt 0.9762881 0.6838939
vt 0.9762881 0.6838939
vt 0.9762881 0.6838939
vt 0.9762881 0.6838939
vt 0.3310535 0.7786525
vt 0.3310535 0.7786525
vt 0.3310535 0.7786525
vt 0.3310535 0.7786525
vt 0.3310535 0.7786525
vt 0.3310535 0.7786525
vt 0.3310535 0.7786525
vt 0.3310535 0.7786525
vt 0.3310535 0.7786525
vt 0.3310535 0.7786525
vt 0.3310535 0.7786525
vt 0.3310535 0.7786525
vt 0.3310535 0.7786525
vt 0.3310535 0.7786525
vt 0.3310535 0.7786525
vt 0.3310535 0.7786525
vt 0.3310535 0.7786525
vt 0.3310535 0.7786525
vt 0.3310535 0.7786525
vt 0.3310535 0.7786525
vt 0.3310535 0.7786525
vt 0.3310535 0.7786525
vt 0.3310535 0.7786525
vt 0.3310535 0.7786525
vt 0.3310535 0.7786525
vt 0.3310535 0.7786525
vt 0.3310535 0.7786525
vt 0.3310535 0.7786525
vt 0.3310535 0.7786525
vt 0.3310535 0.7786525
vt 0.3310535 0.7786525
vt 0.3310535 0.7786525
vt 0.3310535 0.7786525
vt 0.3310535 0.7786525
vt 0.3310535 0.7786525
vt 0.3310535 0.7786525
vt 0.3310535 0.7786525
vt 0.3310535 0.7786525
vt 0.3310535 0.7786525
vt 0.3310535 0.7786525
vt 0.3310535 0.7786525
vt 0.3310535 0.7786525
vt 0.3310535 0.7786525
vt 0.3310535 0.7786525
vt 0.3310535 0.7786525
vt 0.3310535 0.7786525
vt 0.3310535 0.7786525
vt 0.3310535 0.7786525
vt 0.9762881 0.6838939
vt 0.9762881 0.6838939
vt 0.9762881 0.6838939
vt 0.9762881 0.6838939
vt 0.9762881 0.6838939
vt 0.9762881 0.6838939
vt 0.9762881 0.6838939
vt 0.9762881 0.6838939
vt 0.9762881 0.6838939
vt 0.9762881 0.6838939
vt 0.9762881 0.6838939
vt 0.9762881 0.6838939
vt 0.9762881 0.6838939
vt 0.9762881 0.6838939
vt 0.9762881 0.6838939
vt 0.9762881 0.6838939
vt 0.9762881 0.6838939
vt 0.9762881 0.6838939
vt 0.9762881 0.6838939
vt 0.9762881 0.6838939
vt 0.9762881 0.6838939
vt 0.9762881 0.6838939
vt 0.9762881 0.6838939
vt 0.9762881 0.6838939
vt 0.9762881 0.6838939
vt 0.9762881 0.6838939
vt 0.9762881 0.6838939
vt 0.9762881 0.6838939
vt 0.9762881 0.6838939
vt 0.9762881 0.6838939
vt 0.9762881 0.6838939
vt 0.9762881 0.6838939
vt 0.9762881 0.6838939
vt 0.9762881 0.6838939
vt 0.9762881 0.6838939
vt 0.9762881 0.6838939
vt 0.9762881 0.6838939
vt 0.9762881 0.6838939
vt 0.9762881 0.6838939
vt 0.9762881 0.6838939
vt 0.9762881 0.6838939
vt 0.9762881 0.6838939
vt 0.9762881 0.6838939
vt 0.9762881 0.6838939
vt 0.9762881 0.6838939
vt 0.9762881 0.6838939
vt 0.9762881 0.6838939
vt 0.9762881 0.6838939
vt 0.9762881 0.6838939
vt 0.9762881 0.6838939
vt 0.9762881 0.6838939
vt 0.9762881 0.6838939
vt 0.3310535 0.7786525
vt 0.3310535 0.7786525
vt 0.3310535 0.7786525
vt 0.3310535 0.7786525
vt 0.9762881 0.6838939
vt 0.9762881 0.6838939
vt 0.9762881 0.6838939
vt 0.9762881 0.6838939
vn -0.8649226 -0.05232882 0.4991701
vn -0.4993503 -0.05234165 0.8648177
vn 6.582156E-05 -0.05233932 0.9986293
vn 0.4993913 -0.05233864 0.8647943
vn 0.8647636 -0.05233716 0.4994445
vn 0.998629 -0.05234691 0.000120726
vn 0.864812 -0.05234646 -0.4993598
vn 0.4992924 -0.05234552 -0.8648509
vn -0.0001391254 -0.0523458 -0.998629
vn -0.4994314 -0.05233325 -0.8647714
vn -0.8648389 -0.05231747 -0.4993162
vn -0.9986309 -0.0523084 -0.0001476165
vn 0.998629 -0.05234691 0.000120726
vn 0.8647636 -0.05233716 0.4994445
vn 0.4993913 -0.05233864 0.8647943
vn 6.582156E-05 -0.05233932 0.9986293
vn -0.4993503 -0.05234165 0.8648177
vn -0.8649226 -0.05232882 0.4991701
vn -0.9986309 -0.0523084 -0.0001476165
vn -0.8648389 -0.05231747 -0.4993162
vn -0.4994314 -0.05233325 -0.8647714
vn -0.0001391254 -0.0523458 -0.998629
vn 0.4992924 -0.05234552 -0.8648509
vn 0.864812 -0.05234646 -0.4993598
vn -0.8649056 -0.05232671 0.4991995
vn -0.4994002 -0.05233949 0.864789
vn 9.381946E-05 -0.05234251 0.9986292
vn 0.4995196 -0.05233845 0.8647201
vn 0.8648383 -0.05233355 0.4993155
vn 0.9986293 -0.05233978 0.0002581312
vn 0.8648714 -0.05235164 -0.499256
vn 0.4993017 -0.05235504 -0.8648449
vn -7.373601E-05 -0.05235038 -0.9986287
vn -0.4994197 -0.0523577 -0.8647767
vn -0.8648141 -0.05234879 -0.4993556
vn -0.99863 -0.05232537 -9.785969E-05
vn 0.9986293 -0.05233978 0.0002581312
vn 0.8648383 -0.05233355 0.4993155
vn 0.4995196 -0.05233845 0.8647201
vn 9.381946E-05 -0.05234251 0.9986292
vn -0.4994002 -0.05233949 0.864789
vn -0.8649056 -0.05232671 0.4991995
vn -0.99863 -0.05232537 -9.785969E-05
vn -0.8648141 -0.05234879 -0.4993556
vn -0.4994197 -0.0523577 -0.8647767
vn -7.373601E-05 -0.05235038 -0.9986287
vn 0.4993017 -0.05235504 -0.8648449
vn 0.8648714 -0.05235164 -0.499256
vn -0.4993614 -0.0002848027 -0.8663939
vn -0.8662657 -0.0002326667 -0.4995834
vn -0.9999999 -0.0003315622 -0.000359492
vn -0.8663716 -0.0003986982 0.4993997
vn -0.4993518 -0.0003841203 0.8663992
vn 3.11655E-05 -0.0003890925 1
vn 0.4996998 -0.0003308395 0.8661985
vn 0.8660995 -0.0002114103 0.4998715
vn 1 -0.0001419744 -5.454478E-05
vn 0.8660349 -0.0001964174 -0.4999835
vn 0.4995168 -0.0002975253 -0.8663042
vn 3.116321E-05 -0.0003437452 -1
vn 3.11655E-05 -0.0003890925 1
vn -0.4993518 -0.0003841203 0.8663992
vn -0.8663716 -0.0003986982 0.4993997
vn -0.9999999 -0.0003315622 -0.000359492
vn -0.8662657 -0.0002326667 -0.4995834
vn -0.4993614 -0.0002848027 -0.8663939
vn 3.116321E-05 -0.0003437452 -1
vn 0.4995168 -0.0002975253 -0.8663042
vn 0.8660349 -0.0001964174 -0.4999835
vn 1 -0.0001419744 -5.454478E-05
vn 0.8660995 -0.0002114103 0.4998715
vn 0.4996998 -0.0003308395 0.8661985
vn -0.5003693 -0.0003795443 -0.8658121
vn -0.8660335 -0.0003633969 -0.4999859
vn -0.9999999 -0.0003207206 -0.0005016501
vn -0.8662136 -0.0003182828 0.4996738
vn -0.5000327 -0.0003468979 0.8660065
vn 5.72642E-05 -0.0003729736 1
vn 0.499889 -0.0003717379 0.8660893
vn 0.8659465 -0.0003578793 0.5001364
vn 1 -0.0003395352 -0.0001812282
vn 0.865831 -0.0003519833 -0.5003365
vn 0.4999838 -0.0003687136 -0.8660347
vn -3.110378E-05 -0.0003627044 -1
vn 5.72642E-05 -0.0003729736 1
vn -0.5000327 -0.0003468979 0.8660065
vn -0.8662136 -0.0003182828 0.4996738
vn -0.9999999 -0.0003207206 -0.0005016501
vn -0.8660335 -0.0003633969 -0.4999859
vn -0.5003693 -0.0003795443 -0.8658121
vn -3.110378E-05 -0.0003627044 -1
vn 0.4999838 -0.0003687136 -0.8660347
vn 0.865831 -0.0003519833 -0.5003365
vn 1 -0.0003395352 -0.0001812282
vn 0.8659465 -0.0003578793 0.5001364
vn 0.499889 -0.0003717379 0.8660893
vn -0.8648739 -0.05232584 0.4992546
vn -0.499371 -0.05232284 0.8648069
vn 9.466933E-05 -0.05233251 0.9986297
vn 0.4993226 -0.05232827 0.8648345
vn 0.8647801 -0.05232841 0.4994169
vn 0.99863 -0.05232709 -4.050772E-05
vn 0.8648277 -0.05233962 -0.4993332
vn 0.499311 -0.05234889 -0.8648399
vn -0.000156001 -0.05234648 -0.998629
vn -0.499375 -0.05234151 -0.8648034
vn -0.864772 -0.05233999 -0.4994296
vn -0.9986295 -0.05233769 -0.0001070536
vn 0.99863 -0.05232709 -4.050772E-05
vn 0.8647801 -0.05232841 0.4994169
vn 0.4993226 -0.05232827 0.8648345
vn 9.466933E-05 -0.05233251 0.9986297
vn -0.499371 -0.05232284 0.8648069
vn -0.8648739 -0.05232584 0.4992546
vn -0.9986295 -0.05233769 -0.0001070536
vn -0.864772 -0.05233999 -0.4994296
vn -0.499375 -0.05234151 -0.8648034
vn -0.000156001 -0.05234648 -0.998629
vn 0.499311 -0.05234889 -0.8648399
vn 0.8648277 -0.05233962 -0.4993332
vn -0.8648337 -0.05235612 0.4993211
vn -0.4993237 -0.05234436 0.8648329
vn 7.56025E-05 -0.05233525 0.9986296
vn 0.4993755 -0.05233034 0.8648038
vn 0.8648049 -0.0523387 0.4993728
vn 0.9986293 -0.0523405 1.496286E-05
vn 0.8648283 -0.05234057 -0.499332
vn 0.4993098 -0.0523524 -0.8648403
vn -0.0001382626 -0.05236078 -0.9986283
vn -0.4993808 -0.05236746 -0.8647985
vn -0.8647349 -0.05237769 -0.4994897
vn -0.9986278 -0.05236945 -0.0001553396
vn 0.9986293 -0.0523405 1.496286E-05
vn 0.8648049 -0.0523387 0.4993728
vn 0.4993755 -0.05233034 0.8648038
vn 7.56025E-05 -0.05233525 0.9986296
vn -0.4993237 -0.05234436 0.8648329
vn -0.8648337 -0.05235612 0.4993211
vn -0.9986278 -0.05236945 -0.0001553396
vn -0.8647349 -0.05237769 -0.4994897
vn -0.4993808 -0.05236746 -0.8647985
vn -0.0001382626 -0.05236078 -0.9986283
vn 0.4993098 -0.0523524 -0.8648403
vn 0.8648283 -0.05234057 -0.499332
vn -0.8649226 -0.05232882 0.4991701
vn -0.8649226 -0.05232882 0.4991701
vn -0.8649056 -0.05232671 0.4991995
vn -0.8649056 -0.05232671 0.4991995
vn -0.4993614 -0.0002848027 -0.8663939
vn -0.4993614 -0.0002848027 -0.8663939
vn -0.5003693 -0.0003795443 -0.8658121
vn -0.5003693 -0.0003795443 -0.8658121
vn -0.8648739 -0.05232584 0.4992546
vn -0.8648739 -0.05232584 0.4992546
vn -0.8648337 -0.05235612 0.4993211
vn -0.8648337 -0.05235612 0.4993211
g D4_detailGarbage_geo_0
f 19/19/19 146/146/146 145/145/145
f 12/12/12 19/19/19 145/145/145
f 20/20/20 19/19/19 12/12/12
f 11/11/11 20/20/20 12/12/12
f 21/21/21 20/20/20 11/11/11
f 10/10/10 21/21/21 11/11/11
f 22/22/22 21/21/21 10/10/10
f 9/9/9 22/22/22 10/10/10
f 23/23/23 22/22/22 9/9/9
f 8/8/8 23/23/23 9/9/9
f 24/24/24 23/23/23 8/8/8
f 7/7/7 24/24/24 8/8/8
f 13/13/13 24/24/24 7/7/7
f 6/6/6 13/13/13 7/7/7
f 14/14/14 13/13/13 6/6/6
f 5/5/5 14/14/14 6/6/6
f 15/15/15 14/14/14 5/5/5
f 4/4/4 15/15/15 5/5/5
f 16/16/16 15/15/15 4/4/4
f 3/3/3 16/16/16 4/4/4
f 17/17/17 16/16/16 3/3/3
f 2/2/2 17/17/17 3/3/3
f 18/18/18 17/17/17 2/2/2
f 1/1/1 18/18/18 2/2/2
f 43/43/43 148/148/148 147/147/147
f 36/36/36 43/43/43 147/147/147
f 44/44/44 43/43/43 36/36/36
f 35/35/35 44/44/44 36/36/36
f 45/45/45 44/44/44 35/35/35
f 34/34/34 45/45/45 35/35/35
f 46/46/46 45/45/45 34/34/34
f 33/33/33 46/46/46 34/34/34
f 47/47/47 46/46/46 33/33/33
f 32/32/32 47/47/47 33/33/33
f 48/48/48 47/47/47 32/32/32
f 31/31/31 48/48/48 32/32/32
f 37/37/37 48/48/48 31/31/31
f 30/30/30 37/37/37 31/31/31
f 38/38/38 37/37/37 30/30/30
f 29/29/29 38/38/38 30/30/30
f 39/39/39 38/38/38 29/29/29
f 28/28/28 39/39/39 29/29/29
f 40/40/40 39/39/39 28/28/28
f 27/27/27 40/40/40 28/28/28
f 41/41/41 40/40/40 27/27/27
f 26/26/26 41/41/41 27/27/27
f 42/42/42 41/41/41 26/26/26
f 25/25/25 42/42/42 26/26/26
f 67/67/67 150/150/150 149/149/149
f 60/60/60 67/67/67 149/149/149
f 68/68/68 67/67/67 60/60/60
f 59/59/59 68/68/68 60/60/60
f 69/69/69 68/68/68 59/59/59
f 58/58/58 69/69/69 59/59/59
f 70/70/70 69/69/69 58/58/58
f 57/57/57 70/70/70 58/58/58
f 71/71/71 70/70/70 57/57/57
f 56/56/56 71/71/71 57/57/57
f 72/72/72 71/71/71 56/56/56
f 55/55/55 72/72/72 56/56/56
f 61/61/61 72/72/72 55/55/55
f 54/54/54 61/61/61 55/55/55
f 62/62/62 61/61/61 54/54/54
f 53/53/53 62/62/62 54/54/54
f 63/63/63 62/62/62 53/53/53
f 52/52/52 63/63/63 53/53/53
f 64/64/64 63/63/63 52/52/52
f 51/51/51 64/64/64 52/52/52
f 65/65/65 64/64/64 51/51/51
f 50/50/50 65/65/65 51/51/51
f 66/66/66 65/65/65 50/50/50
f 49/49/49 66/66/66 50/50/50
f 91/91/91 152/152/152 151/151/151
f 84/84/84 91/91/91 151/151/151
f 92/92/92 91/91/91 84/84/84
f 83/83/83 92/92/92 84/84/84
f 93/93/93 92/92/92 83/83/83
f 82/82/82 93/93/93 83/83/83
f 94/94/94 93/93/93 82/82/82
f 81/81/81 94/94/94 82/82/82
f 95/95/95 94/94/94 81/81/81
f 80/80/80 95/95/95 81/81/81
f 96/96/96 95/95/95 80/80/80
f 79/79/79 96/96/96 80/80/80
f 85/85/85 96/96/96 79/79/79
f 78/78/78 85/85/85 79/79/79
f 86/86/86 85/85/85 78/78/78
f 77/77/77 86/86/86 78/78/78
f 87/87/87 86/86/86 77/77/77
f 76/76/76 87/87/87 77/77/77
f 88/88/88 87/87/87 76/76/76
f 75/75/75 88/88/88 76/76/76
f 89/89/89 88/88/88 75/75/75
f 74/74/74 89/89/89 75/75/75
f 90/90/90 89/89/89 74/74/74
f 73/73/73 90/90/90 74/74/74
f 115/115/115 154/154/154 153/153/153
f 108/108/108 115/115/115 153/153/153
f 116/116/116 115/115/115 108/108/108
f 107/107/107 116/116/116 108/108/108
f 117/117/117 116/116/116 107/107/107
f 106/106/106 117/117/117 107/107/107
f 118/118/118 117/117/117 106/106/106
f 105/105/105 118/118/118 106/106/106
f 119/119/119 118/118/118 105/105/105
f 104/104/104 119/119/119 105/105/105
f 120/120/120 119/119/119 104/104/104
f 103/103/103 120/120/120 104/104/104
f 109/109/109 120/120/120 103/103/103
f 102/102/102 109/109/109 103/103/103
f 110/110/110 109/109/109 102/102/102
f 101/101/101 110/110/110 102/102/102
f 111/111/111 110/110/110 101/101/101
f 100/100/100 111/111/111 101/101/101
f 112/112/112 111/111/111 100/100/100
f 99/99/99 112/112/112 100/100/100
f 113/113/113 112/112/112 99/99/99
f 98/98/98 113/113/113 99/99/99
f 114/114/114 113/113/113 98/98/98
f 97/97/97 114/114/114 98/98/98
f 139/139/139 156/156/156 155/155/155
f 132/132/132 139/139/139 155/155/155
f 140/140/140 139/139/139 132/132/132
f 131/131/131 140/140/140 132/132/132
f 141/141/141 140/140/140 131/131/131
f 130/130/130 141/141/141 131/131/131
f 142/142/142 141/141/141 130/130/130
f 129/129/129 142/142/142 130/130/130
f 143/143/143 142/142/142 129/129/129
f 128/128/128 143/143/143 129/129/129
f 144/144/144 143/143/143 128/128/128
f 127/127/127 144/144/144 128/128/128
f 133/133/133 144/144/144 127/127/127
f 126/126/126 133/133/133 127/127/127
f 134/134/134 133/133/133 126/126/126
f 125/125/125 134/134/134 126/126/126
f 135/135/135 134/134/134 125/125/125
f 124/124/124 135/135/135 125/125/125
f 136/136/136 135/135/135 124/124/124
f 123/123/123 136/136/136 124/124/124
f 137/137/137 136/136/136 123/123/123
f 122/122/122 137/137/137 123/123/123
f 138/138/138 137/137/137 122/122/122
f 121/121/121 138/138/138 122/122/122
