g D4_detailGravel_geo
v -78.68649 1.61611 184.7822
v -78.81444 1.616255 180.7059
v -80.74186 1.616382 179.8847
v -82.80929 1.616364 180.5891
v -83.08521 1.616219 184.8768
v -81.03053 1.616092 185.8541
v -79.32852 1.884435 184.2794
v -79.50199 1.884538 181.1442
v -80.76533 1.884627 180.3691
v -82.16734 1.884614 181.0917
v -82.39774 1.927002 184.4384
v -80.98506 1.884422 184.913
v -80.93013 2.042375 183.777
v -80.82027 2.045676 181.5051
v -78.52693 1.616183 182.7547
v -79.19173 2.017711 182.7225
v -80.8752 1.884525 182.6411
v -82.48005 1.884563 182.5634
v -83.14475 1.616291 182.5314
v -78.83514 1.624328 180.7191
v -78.54694 1.628265 182.7538
v -78.7058 1.624184 184.7671
v -81.02916 1.624166 185.8258
v -83.06452 1.62557 184.8636
v -83.12476 1.624363 182.5323
v -82.78997 1.624435 180.6042
v -80.74257 1.624453 179.8993
v -68.0061 1.61611 157.5929
v -68.13406 1.616255 153.5166
v -70.06148 1.616382 152.6954
v -72.1289 1.616364 153.3997
v -72.40482 1.616219 157.6875
v -70.35014 1.616092 158.6648
v -68.64814 1.884435 157.0901
v -68.82161 1.884538 153.9549
v -70.08494 1.884627 153.1798
v -71.48695 1.884614 153.9023
v -71.71736 1.927002 157.249
v -70.30468 1.884422 157.7236
v -70.24975 2.042375 156.5877
v -70.13988 2.045676 154.3158
v -67.84655 1.616183 155.5654
v -68.51134 2.017711 155.5331
v -70.19481 1.884525 155.4517
v -71.79966 1.884563 155.3741
v -72.46437 1.616291 155.342
v -68.15475 1.624328 153.5298
v -67.86655 1.628265 155.5644
v -68.02542 1.624184 157.5777
v -70.34878 1.624166 158.6365
v -72.38413 1.62557 157.6743
v -72.44437 1.624363 155.343
v -72.10959 1.624435 153.4149
v -70.06218 1.624453 152.71
v -188.8175 1.796252 150.1837
v -192.8828 1.796397 150.5085
v -193.61 1.796524 152.4733
v -192.8066 1.796505 154.5043
v -188.5105 1.79636 154.5728
v -187.6336 1.796234 152.4733
v -189.2887 2.064577 150.8493
v -192.4119 2.06468 151.174
v -193.125 2.064769 152.4733
v -192.3356 2.064756 153.8388
v -188.9817 2.107144 153.9073
v -188.5759 2.064564 152.4733
v -189.7131 2.222517 152.4733
v -191.9877 2.225817 152.4733
v -190.8503 1.796325 150.1223
v -190.8504 2.197853 150.7879
v -190.8504 2.064667 152.4733
v -190.8504 2.064705 154.08
v -190.8503 1.796433 154.7455
v -192.8687 1.80447 150.5285
v -190.8503 1.808406 150.1423
v -188.8317 1.804326 150.2038
v -187.6619 1.804308 152.4733
v -188.5247 1.805712 154.5527
v -190.8503 1.804505 154.7255
v -192.7924 1.804577 154.4843
v -193.5954 1.804595 152.4733
v -78.54694 1.628265 182.7538
v -78.83514 1.624328 180.7191
v -78.7058 1.624184 184.7671
v -81.02916 1.624166 185.8258
v -83.06452 1.62557 184.8636
v -83.12476 1.624363 182.5323
v -82.78997 1.624435 180.6042
v -80.74257 1.624453 179.8993
v -67.86655 1.628265 155.5644
v -68.15475 1.624328 153.5298
v -68.02542 1.624184 157.5777
v -70.34878 1.624166 158.6365
v -72.38413 1.62557 157.6743
v -72.44437 1.624363 155.343
v -72.10959 1.624435 153.4149
v -70.06218 1.624453 152.71
v -190.8503 1.808406 150.1423
v -192.8687 1.80447 150.5285
v -188.8317 1.804326 150.2038
v -187.6619 1.804308 152.4733
v -188.5247 1.805712 154.5527
v -190.8503 1.804505 154.7255
v -192.7924 1.804577 154.4843
v -193.5954 1.804595 152.4733
vt 0 1
vt 0 1
vt 2.980232E-08 1
vt 2.980232E-08 1
vt 2.980232E-08 1
vt 2.980232E-08 1
vt 0.2437157 0.8265623
vt 0.2437157 0.8265623
vt 0.2437157 0.8265625
vt 0.2437157 0.8265623
vt 0.2437157 0.8265625
vt 0.2437157 0.8265623
vt 0.2437157 0.8335409
vt 0.2437157 0.8335409
vt 0 1
vt 0.2437157 0.8265625
vt 0.2437157 0.833541
vt 0.2437157 0.8265625
vt 0 1
vt 0 1
vt 0 1
vt 0 1
vt 0 1
vt 0 1
vt 0 1
vt 0 1
vt 0 1
vt 0 1
vt 0 1
vt 2.980232E-08 1
vt 2.980232E-08 1
vt 2.980232E-08 1
vt 2.980232E-08 1
vt 0.2437157 0.8265623
vt 0.2437157 0.8265623
vt 0.2437157 0.8265625
vt 0.2437157 0.8265623
vt 0.2437157 0.8265625
vt 0.2437157 0.8265623
vt 0.2437157 0.8335409
vt 0.2437157 0.8335409
vt 0 1
vt 0.2437157 0.8265625
vt 0.2437157 0.833541
vt 0.2437157 0.8265625
vt 0 1
vt 0 1
vt 0 1
vt 0 1
vt 0 1
vt 0 1
vt 0 1
vt 0 1
vt 0 1
vt 0 1
vt 0 1
vt 2.980232E-08 1
vt 2.980232E-08 1
vt 2.980232E-08 1
vt 2.980232E-08 1
vt 0.2437157 0.8265623
vt 0.2437157 0.8265623
vt 0.2437157 0.8265625
vt 0.2437157 0.8265623
vt 0.2437157 0.8265625
vt 0.2437157 0.8265623
vt 0.2437157 0.8335409
vt 0.2437157 0.8335409
vt 0 1
vt 0.2437157 0.8265625
vt 0.2437157 0.833541
vt 0.2437157 0.8265625
vt 0 1
vt 0 1
vt 0 1
vt 0 1
vt 0 1
vt 0 1
vt 0 1
vt 0 1
vt 0 1
vt 0.2437157 0.8224611
vt 0.2437157 0.822461
vt 0.2437156 0.8224611
vt 0.2437156 0.822461
vt 0.2437156 0.822461
vt 0.2437157 0.822461
vt 0.2437156 0.822461
vt 0.2437156 0.822461
vt 0.2437157 0.8224611
vt 0.2437157 0.822461
vt 0.2437156 0.8224611
vt 0.2437156 0.822461
vt 0.2437156 0.822461
vt 0.2437157 0.822461
vt 0.2437156 0.822461
vt 0.2437156 0.822461
vt 0.2437157 0.8224611
vt 0.2437157 0.822461
vt 0.2437156 0.8224611
vt 0.2437156 0.822461
vt 0.2437156 0.822461
vt 0.2437157 0.822461
vt 0.2437156 0.822461
vt 0.2437156 0.822461
vn 0.2958605 0.9400861 0.1694243
vn 0.3054901 0.9231761 -0.2332845
vn 0.01539858 0.9143884 -0.4045451
vn -0.2532782 0.9375994 -0.2382385
vn -0.2752962 0.9470344 0.1653418
vn -0.006956563 0.9512571 0.3083208
vn 0.1587892 0.9789897 0.1279263
vn 0.1793689 0.9713514 -0.1558947
vn 0.009811169 0.9635811 -0.267236
vn -0.1670242 0.9759188 -0.1403047
vn -0.1492116 0.9834405 0.1028618
vn 0.01012816 0.9736761 0.2277108
vn -0.0008704901 0.9987026 0.05091516
vn -0.01092508 0.9984455 -0.05465675
vn 0.43677 0.8994842 -0.01265909
vn 0.2224737 0.9749041 -0.008209368
vn -0.02349165 0.9997193 -0.003070885
vn -0.2184448 0.9756538 -0.0195311
vn -0.3745834 0.9268274 -0.02604545
vn 0.3070469 0.9211215 -0.2392848
vn 0.4313233 0.9020796 -0.01458003
vn 0.2903826 0.9400541 0.1788193
vn -0.00277948 0.950089 0.3119664
vn -0.269885 0.9482493 0.1672879
vn -0.3744173 0.9268068 -0.0289966
vn -0.2582715 0.9368307 -0.2358896
vn 0.01507605 0.9172732 -0.3979732
vn 0.2957284 0.9401437 0.1693357
vn 0.3054165 0.9232049 -0.2332669
vn 0.01539594 0.9143956 -0.4045289
vn -0.2533769 0.9375699 -0.2382493
vn -0.2752402 0.9470605 0.1652856
vn -0.00696501 0.9513002 0.3081874
vn 0.1587905 0.9789893 0.1279274
vn 0.1793707 0.9713509 -0.1558957
vn 0.009810563 0.9635806 -0.2672382
vn -0.1670244 0.9759186 -0.1403055
vn -0.1492149 0.9834402 0.1028605
vn 0.01012495 0.9736762 0.2277106
vn -0.0008713873 0.9987026 0.05091366
vn -0.01092564 0.9984456 -0.05465489
vn 0.4366162 0.8995588 -0.0126582
vn 0.2224758 0.9749036 -0.00820931
vn -0.02349121 0.9997193 -0.003070873
vn -0.2184433 0.9756541 -0.01953088
vn -0.3746546 0.9267981 -0.02606287
vn 0.3070122 0.9211349 -0.2392782
vn 0.4312488 0.9021153 -0.01457956
vn 0.2903188 0.9400818 0.1787766
vn -0.002785304 0.9501106 0.3119009
vn -0.2698603 0.9482614 0.1672594
vn -0.3744526 0.9267923 -0.02900505
vn -0.2583206 0.9368154 -0.2358967
vn 0.01507439 0.9172752 -0.3979686
vn 0.1549256 0.9401054 -0.3036447
vn -0.2478094 0.9231412 -0.2939403
vn -0.4048319 0.9143817 0.004146788
vn -0.2257053 0.9376242 0.2644199
vn 0.1783473 0.9470827 0.2668831
vn 0.3081984 0.9512886 -0.007982585
vn 0.1201055 0.9789899 -0.1647828
vn -0.164378 0.971351 -0.1716309
vn -0.2673958 0.9635818 0.003108955
vn -0.1320701 0.9759191 0.1736069
vn 0.109948 0.9834409 0.144068
vn 0.2269534 0.9736767 -0.02111403
vn 0.05089625 0.9987026 -0.001589046
vn -0.05406347 0.9984456 0.01355213
vn -0.03375676 0.8994775 -0.4356613
vn -0.01894699 0.9749036 -0.2218196
vn -0.001932598 0.9997193 0.02361223
vn -0.008956291 0.9756541 0.2191318
vn -0.007917943 0.9268768 0.375282
vn -0.2538585 0.9211032 -0.2951693
vn -0.03540565 0.9020752 -0.430124
vn 0.1645785 0.9400633 -0.2986549
vn 0.3116863 0.9501053 -0.01231158
vn 0.1800788 0.9482735 0.2614363
vn -0.01087516 0.926832 0.3753189
vn -0.2231274 0.9368434 0.2693299
vn -0.3982438 0.9172701 0.004158897
vn 0.4313233 0.9020796 -0.01458003
vn 0.3070469 0.9211215 -0.2392848
vn 0.2903826 0.9400541 0.1788193
vn -0.00277948 0.950089 0.3119664
vn -0.269885 0.9482493 0.1672879
vn -0.3744173 0.9268068 -0.0289966
vn -0.2582715 0.9368307 -0.2358896
vn 0.01507605 0.9172732 -0.3979732
vn 0.4312488 0.9021153 -0.01457956
vn 0.3070122 0.9211349 -0.2392782
vn 0.2903188 0.9400818 0.1787766
vn -0.002785304 0.9501106 0.3119009
vn -0.2698603 0.9482614 0.1672594
vn -0.3744526 0.9267923 -0.02900505
vn -0.2583206 0.9368154 -0.2358967
vn 0.01507439 0.9172752 -0.3979686
vn -0.03540565 0.9020752 -0.430124
vn -0.2538585 0.9211032 -0.2951693
vn 0.1645785 0.9400633 -0.2986549
vn 0.3116863 0.9501053 -0.01231158
vn 0.1800788 0.9482735 0.2614363
vn -0.01087516 0.926832 0.3753189
vn -0.2231274 0.9368434 0.2693299
vn -0.3982438 0.9172701 0.004158897
g D4_detailGravel_geo_0
f 22/22/22 1/1/1 21/21/21
f 6/6/6 1/1/1 22/22/22
f 23/23/23 6/6/6 22/22/22
f 5/5/5 6/6/6 23/23/23
f 24/24/24 5/5/5 23/23/23
f 19/19/19 5/5/5 24/24/24
f 25/25/25 19/19/19 24/24/24
f 4/4/4 19/19/19 25/25/25
f 26/26/26 4/4/4 25/25/25
f 3/3/3 4/4/4 26/26/26
f 27/27/27 3/3/3 26/26/26
f 2/2/2 3/3/3 27/27/27
f 20/20/20 2/2/2 27/27/27
f 15/15/15 2/2/2 20/20/20
f 21/21/21 15/15/15 20/20/20
f 1/1/1 15/15/15 21/21/21
f 16/16/16 82/82/82 8/8/8
f 84/84/84 82/82/82 16/16/16
f 7/7/7 84/84/84 16/16/16
f 85/85/85 84/84/84 7/7/7
f 12/12/12 85/85/85 7/7/7
f 86/86/86 85/85/85 12/12/12
f 11/11/11 86/86/86 12/12/12
f 87/87/87 86/86/86 11/11/11
f 18/18/18 87/87/87 11/11/11
f 88/88/88 87/87/87 18/18/18
f 10/10/10 88/88/88 18/18/18
f 89/89/89 88/88/88 10/10/10
f 9/9/9 89/89/89 10/10/10
f 83/83/83 89/89/89 9/9/9
f 8/8/8 83/83/83 9/9/9
f 82/82/82 83/83/83 8/8/8
f 49/49/49 28/28/28 48/48/48
f 33/33/33 28/28/28 49/49/49
f 50/50/50 33/33/33 49/49/49
f 32/32/32 33/33/33 50/50/50
f 51/51/51 32/32/32 50/50/50
f 46/46/46 32/32/32 51/51/51
f 52/52/52 46/46/46 51/51/51
f 31/31/31 46/46/46 52/52/52
f 53/53/53 31/31/31 52/52/52
f 30/30/30 31/31/31 53/53/53
f 54/54/54 30/30/30 53/53/53
f 29/29/29 30/30/30 54/54/54
f 47/47/47 29/29/29 54/54/54
f 42/42/42 29/29/29 47/47/47
f 48/48/48 42/42/42 47/47/47
f 28/28/28 42/42/42 48/48/48
f 43/43/43 90/90/90 35/35/35
f 92/92/92 90/90/90 43/43/43
f 34/34/34 92/92/92 43/43/43
f 93/93/93 92/92/92 34/34/34
f 39/39/39 93/93/93 34/34/34
f 94/94/94 93/93/93 39/39/39
f 38/38/38 94/94/94 39/39/39
f 95/95/95 94/94/94 38/38/38
f 45/45/45 95/95/95 38/38/38
f 96/96/96 95/95/95 45/45/45
f 37/37/37 96/96/96 45/45/45
f 97/97/97 96/96/96 37/37/37
f 36/36/36 97/97/97 37/37/37
f 91/91/91 97/97/97 36/36/36
f 35/35/35 91/91/91 36/36/36
f 90/90/90 91/91/91 35/35/35
f 76/76/76 55/55/55 75/75/75
f 60/60/60 55/55/55 76/76/76
f 77/77/77 60/60/60 76/76/76
f 59/59/59 60/60/60 77/77/77
f 78/78/78 59/59/59 77/77/77
f 73/73/73 59/59/59 78/78/78
f 79/79/79 73/73/73 78/78/78
f 58/58/58 73/73/73 79/79/79
f 80/80/80 58/58/58 79/79/79
f 57/57/57 58/58/58 80/80/80
f 81/81/81 57/57/57 80/80/80
f 56/56/56 57/57/57 81/81/81
f 74/74/74 56/56/56 81/81/81
f 69/69/69 56/56/56 74/74/74
f 75/75/75 69/69/69 74/74/74
f 55/55/55 69/69/69 75/75/75
f 70/70/70 98/98/98 62/62/62
f 100/100/100 98/98/98 70/70/70
f 61/61/61 100/100/100 70/70/70
f 101/101/101 100/100/100 61/61/61
f 66/66/66 101/101/101 61/61/61
f 102/102/102 101/101/101 66/66/66
f 65/65/65 102/102/102 66/66/66
f 103/103/103 102/102/102 65/65/65
f 72/72/72 103/103/103 65/65/65
f 104/104/104 103/103/103 72/72/72
f 64/64/64 104/104/104 72/72/72
f 105/105/105 104/104/104 64/64/64
f 63/63/63 105/105/105 64/64/64
f 99/99/99 105/105/105 63/63/63
f 62/62/62 99/99/99 63/63/63
f 98/98/98 99/99/99 62/62/62
f 13/13/13 12/12/12 7/7/7
f 11/11/11 12/12/12 13/13/13
f 17/17/17 11/11/11 13/13/13
f 18/18/18 11/11/11 17/17/17
f 14/14/14 18/18/18 17/17/17
f 10/10/10 18/18/18 14/14/14
f 9/9/9 10/10/10 14/14/14
f 16/16/16 13/13/13 7/7/7
f 17/17/17 13/13/13 16/16/16
f 8/8/8 17/17/17 16/16/16
f 14/14/14 17/17/17 8/8/8
f 9/9/9 14/14/14 8/8/8
f 40/40/40 39/39/39 34/34/34
f 38/38/38 39/39/39 40/40/40
f 44/44/44 38/38/38 40/40/40
f 45/45/45 38/38/38 44/44/44
f 41/41/41 45/45/45 44/44/44
f 37/37/37 45/45/45 41/41/41
f 36/36/36 37/37/37 41/41/41
f 43/43/43 40/40/40 34/34/34
f 44/44/44 40/40/40 43/43/43
f 35/35/35 44/44/44 43/43/43
f 41/41/41 44/44/44 35/35/35
f 36/36/36 41/41/41 35/35/35
f 67/67/67 66/66/66 61/61/61
f 65/65/65 66/66/66 67/67/67
f 71/71/71 65/65/65 67/67/67
f 72/72/72 65/65/65 71/71/71
f 68/68/68 72/72/72 71/71/71
f 64/64/64 72/72/72 68/68/68
f 63/63/63 64/64/64 68/68/68
f 70/70/70 67/67/67 61/61/61
f 71/71/71 67/67/67 70/70/70
f 62/62/62 71/71/71 70/70/70
f 68/68/68 71/71/71 62/62/62
f 63/63/63 68/68/68 62/62/62
