g D4_screens_geo
v -126.9358 4.842983 122.0021
v -126.9358 3.329993 122.0021
v -130.7359 3.329993 122.0021
v -130.7359 4.842983 122.0021
v -126.9359 4.842983 115.9089
v -126.9359 3.329993 115.9089
v -130.7359 3.329993 115.9089
v -130.7359 4.842983 115.9089
v -131.092 5.074319 121.5822
v -131.092 3.325795 121.5822
v -131.092 5.074319 116.3312
v -131.092 3.326116 116.3312
vt 0.2794526 0.2236267
vt 0.2794526 0.5524788
vt 0.8812564 0.5524788
vt 0.8812564 0.2236267
vt 0.2794526 0.2236267
vt 0.2794526 0.5524788
vt 0.8812564 0.5524788
vt 0.8812564 0.2236267
vt 0.2009405 0.1147612
vt 0.5317771 0.1147635
vt 0.2009352 0.9016834
vt 0.5317719 0.9016856
vn 0 0 1
vn 0 0 1
vn 0 0 1
vn 0 0 1
vn 2.174132E-06 0 -1
vn 2.174132E-06 0 -1
vn 2.174132E-06 0 -1
vn 2.174132E-06 0 -1
vn -1 0 0
vn -1 0 0
vn -1 0 0
vn -1 0 0
g D4_screens_geo_0
f 3/3/3 1/1/1 4/4/4
f 2/2/2 1/1/1 3/3/3
f 7/7/7 5/5/5 6/6/6
f 8/8/8 5/5/5 7/7/7
g D4_screens_geo_1
f 10/10/10 11/11/11 12/12/12
f 9/9/9 11/11/11 10/10/10
