g D4_shadowGradient_geo
v -105.8675 1.832511 115.9113
v -103.809 1.832511 116.0834
v -105.4554 1.832511 110.9813
v -103.397 1.832511 111.1533
v -183.608 0.02 72.47391
v -183.608 0.02 74.53947
v -178.7613 0.02 72.47391
v -178.7613 0.02 74.53947
v -72.47926 0.02 87.90127
v -72.47926 0.02 85.8357
v -77.3259 0.02 87.90127
v -77.3259 0.02 85.8357
v -109.8526 1.802904 119.9258
v -108.1832 1.802904 120.855
v -108.6777 1.802904 120.855
v -109.9055 1.798186 128.1431
v -109.2931 1.793468 128.8808
v -101.8927 1.802904 117.7863
v -109.358 1.802904 117.7863
v -101.201 1.802904 118.7155
v -108.1831 1.802904 118.7155
v -108.1868 1.802904 120.855
v -109.358 1.802904 119.9258
v -96.57677 1.802904 119.9585
v -101.2011 1.802904 119.9585
v -95.88509 1.802904 120.8877
v -101.2011 1.802904 120.8877
v -90.61193 1.802904 120.4557
v -89.92025 1.802904 121.3848
v -95.88506 1.802904 121.3848
v -95.88509 1.802904 120.4557
v -97.81297 5.87972 121.28
v -99.85197 5.87972 121.28
v -98.49552 8.58824 124.7417
v -99.85197 7.585807 123.4605
v -99.85197 6.120205 121.5873
v -97.53871 6.120205 121.5873
v -107.7355 5.87972 121.28
v -109.4095 5.87972 121.28
v -108.418 8.58824 124.7417
v -109.4095 7.585807 123.4605
v -109.4095 6.120205 121.5873
v -107.4612 6.120205 121.5873
v -71.29259 1.994758 113.6197
v -70.12138 1.994758 114.5489
v -75.75475 1.994758 113.6197
v -75.75475 1.994758 114.5489
v -76.92969 1.802904 113.6198
v -75.75478 1.802904 114.549
v -76.92969 1.802904 124.0532
v -75.75478 1.802904 124.9824
v -75.77174 1.802904 113.6198
v -75.77174 1.802904 114.549
v -64.80064 1.802904 111.4626
v -71.29263 1.802904 111.4626
v -64.10894 1.802904 112.3917
v -70.11772 1.802904 112.3917
v -71.29263 1.802904 113.6198
v -70.1214 1.802904 114.549
v -127.6819 1.802904 115.0488
v -132.267 1.802904 115.0488
v -126.5107 1.802904 115.978
v -131.0921 1.802904 115.978
v -132.267 1.802904 121.5858
v -131.0921 1.802904 122.515
v -116.965 1.802904 112.2179
v -127.6819 1.802904 112.2179
v -116.2734 1.802904 113.147
v -126.507 1.802904 113.147
v -151.3802 1.802904 114.8052
v -156.9774 1.689619 114.8052
v -150.209 1.802904 115.7343
v -156.0907 1.802904 115.7343
v -156.9774 1.714929 120.0358
v -156.0907 1.820359 120.965
v -140.0407 1.802904 112.5181
v -151.3802 1.802904 112.5181
v -139.349 1.802904 113.4473
v -150.2053 1.802904 113.4473
v -156.1177 1.802904 114.8052
v -124.7777 0.02 66.7329
v -130.0103 0.02 66.7329
v -123.6064 0.02 67.66207
v -128.8354 0.02 67.66206
v -130.0103 0.02 71.86143
v -128.8354 0.02 72.79063
v -116.4996 0.02 66.24033
v -124.7777 0.02 66.24033
v -115.8079 0.02 67.1695
v -123.6028 0.02 67.1695
v -71.18826 0.02 83.03908
v -71.49237 0.02 83.03908
v -71.18826 0.02 83.32098
v -71.49237 0.02 83.32098
v -102.3137 0.02 83.03313
v -102.6178 0.02 83.03313
v -102.3137 0.02 83.31504
v -102.6178 0.02 83.31504
v -119.1856 0.02 83.0332
v -119.4897 0.02 83.0332
v -119.1856 0.02 83.31511
v -119.4897 0.02 83.31511
v -149.567 0.02 83.03545
v -149.8712 0.02 83.03545
v -149.567 0.02 83.31736
v -149.8712 0.02 83.31736
v -155.7001 0.02 82.99229
v -156.0043 0.02 82.99229
v -155.7001 0.02 83.2742
v -156.0043 0.02 83.2742
v -158.8465 0.02 85.06209
v -159.1506 0.02 85.06209
v -158.8465 0.02 85.34399
v -159.1506 0.02 85.34399
v -174.3762 0.02 77.16807
v -174.6803 0.02 77.16807
v -174.3762 0.02 77.44997
v -174.6803 0.02 77.44997
v -171.7841 0.02 74.94894
v -172.0883 0.02 74.94894
v -171.7841 0.02 75.23084
v -172.0883 0.02 75.23084
v -145.4106 0.1993717 100.3693
v -145.7146 0.1993717 100.3693
v -145.4106 0.2723339 100.6416
v -145.7146 0.2723339 100.6416
v -120.0513 0.2022959 100.3665
v -120.3555 0.2022959 100.3665
v -120.0513 0.2752581 100.6388
v -120.3555 0.2752581 100.6388
v -101.3664 0.2022958 100.3665
v -101.6705 0.2022958 100.3665
v -101.3664 0.275258 100.6388
v -101.6705 0.275258 100.6388
v -69.56535 0.2022953 100.3673
v -69.86946 0.2022953 100.3673
v -69.56535 0.2752575 100.6396
v -69.86946 0.2752575 100.6396
v -92.7952 1.807569 112.1592
v -93.16902 1.807569 112.1592
v -92.7952 1.807569 112.5058
v -93.16902 1.807569 112.5058
v -173.9029 1.782904 121.2724
v -174.207 1.782904 121.2724
v -173.9029 1.782904 121.5543
v -174.207 1.782904 121.5543
v -186.5886 0.05231614 74.60455
v -187.1622 0.05231614 74.60455
v -186.5886 0.05231614 75.1363
v -187.1622 0.05231614 75.1363
v -131.9486 0.05231614 97.83683
v -132.5222 0.05231614 97.83683
v -131.9486 0.05231614 98.36858
v -132.5222 0.05231614 98.36858
v -110.5308 0.05231614 84.98994
v -111.1045 0.05231614 84.98994
v -110.5308 0.05231614 85.52169
v -111.1045 0.05231614 85.52169
v -76.53989 0.05231614 97.77335
v -77.11353 0.05231614 97.77335
v -76.53989 0.05231614 98.30511
v -77.11353 0.05231614 98.30511
v -159.9847 -0.1244629 96.95634
v -159.4297 -0.1244629 97.65514
v -159.9847 -0.1235989 99.6507
v -159.4297 -0.1235989 99.6507
v -159.9847 0.5455229 103.3646
v -159.4297 0.5455229 103.3646
v -159.9847 1.109496 107.1207
v -159.4297 1.109496 107.1207
v -159.9847 1.470937 111.0726
v -159.4297 1.470937 111.0726
v -159.9847 1.656847 172.1693
v -159.4297 1.656847 172.1693
v -65.01853 -0.1244629 97.65514
v -65.01853 -0.1244629 96.95634
v -77.42616 0.02 83.20185
v -77.42616 0.02 82.54834
v -78.05556 0.02 83.20185
v -78.05556 0.02 82.54834
v -134.4904 0.02 83.12341
v -134.4904 0.02 82.63089
v -134.9648 0.02 83.12341
v -134.9648 0.02 82.63089
v -100.209 1.802904 119.2177
v -100.9708 1.802904 119.2177
v -100.209 1.802904 119.9304
v -100.9708 1.802904 119.9304
v -65.83791 0.02 82.17655
v -66.59812 0.02 82.17655
v -65.83791 0.02 82.88783
v -66.59812 0.02 82.88783
v -65.18618 0.02 82.5102
v -65.94641 0.02 82.5102
v -65.18618 0.02 83.22147
v -65.94641 0.02 83.22147
v -116.0072 0.02 82.64509
v -116.7675 0.02 82.64509
v -116.0072 0.02 83.35638
v -116.7675 0.02 83.35638
v -141.7684 0.02 71.87463
v -143.8329 0.02 71.80905
v -141.9255 0.02 76.81936
v -143.9899 0.02 76.75378
v -159.9847 -0.1244629 84.95637
v -159.4297 -0.1244629 85.65515
v -159.4297 -0.1244629 64.87381
v -159.9847 -0.1244629 64.87381
v -81.61784 1.793468 128.5958
v -82.28323 1.793468 127.9296
v -81.61784 1.793468 144.5127
v -82.28323 1.793468 143.8397
v -109.2931 1.793468 143.8397
v -109.2884 1.793468 144.5127
v -109.2931 1.793468 144.4799
v -109.9585 1.793468 143.8068
v -109.8526 1.793468 121.9398
v -110.518 1.793468 121.2668
v -116.7093 1.793468 121.2668
v -116.2548 1.793468 121.9398
v -132.267 1.802904 115.9023
v -139.7846 1.793468 115.2359
v -139.3301 1.793468 115.9089
v -142.85 1.823975 132.4343
v -141.6909 1.823975 132.4661
v -142.8316 1.823975 131.7661
v -141.6725 1.823975 131.7979
v -140.7237 1.823975 132.5222
v -139.5646 1.823975 132.554
v -140.7053 1.823975 131.854
v -139.5462 1.823975 131.8858
v -143.7879 1.823975 133.5354
v -143.4981 1.823975 133.5433
v -143.7799 1.823975 133.2457
v -143.4902 1.823975 133.2536
v -143.6881 1.823975 130.8996
v -143.3984 1.823975 130.9076
v -143.6802 1.823975 130.6099
v -143.3905 1.823975 130.6179
v -138.9578 1.823975 133.7306
v -138.6681 1.823975 133.7386
v -138.9499 1.823975 133.4409
v -138.6602 1.823975 133.4489
v -138.8581 1.823975 131.084
v -138.5683 1.823975 131.0919
v -138.8501 1.823975 130.7943
v -138.5604 1.823975 130.8022
v -66.5396 0.02 83.57095
v -65.87967 0.02 83.57095
v -66.5396 0.02 83.00119
v -65.87967 0.02 83.00119
v -101.1662 1.802904 119.3071
v -100.5063 1.802904 119.3071
v -101.1662 1.802904 118.7374
v -100.5063 1.802904 118.7374
v -159.9847 1.658041 145
v -159.4297 1.658041 145
v -158.9046 1.662085 146.7331
v -158.3497 1.662085 146.7331
v -156.5311 1.655142 148.4543
v -155.9762 1.655142 148.4543
v -154.4682 1.655308 150.6306
v -153.9132 1.655308 150.6306
v -153.147 1.655457 153.1666
v -152.5921 1.655457 153.1666
v -152.2407 1.655645 155.9517
v -151.6857 1.655645 155.9517
v -151.9165 1.655894 158.864
v -151.3615 1.655894 158.864
v -152.2393 1.656059 161.7763
v -151.6843 1.656059 161.7763
v -153.1515 1.656229 164.5614
v -152.5965 1.656229 164.5614
v -154.5761 1.656407 167.0975
v -154.0211 1.656407 167.0975
v -156.6804 1.6566 169.2737
v -156.1254 1.6566 169.2737
v -159.6555 1.662033 145.9223
v -159.1005 1.662033 145.9223
v -191.5328 1.794385 116.3586
v -185.0692 1.794385 116.3586
v -192.6777 1.794385 115.3586
v -186.2141 1.794385 115.3586
v -191.5328 1.794385 119.5534
v -192.6777 1.794385 119.5534
v -193.7354 1.822989 120.5534
v -182.2642 1.822989 120.5534
v -194.8803 1.822989 119.5534
v -183.4091 1.822989 119.5534
v -193.7354 1.822989 129.7002
v -194.8803 1.822989 128.7002
v -193.3802 1.824628 135.0939
v -194.5251 1.824628 134.0939
v -194.5152 1.822989 129.0191
v -193.3802 1.824628 130.0107
vt 0.5 0.5
vt 0.5 0.5
vt 0.5 0.5
vt 0.5 0.5
vt 0.5 0.5
vt 0.5 0.5
vt 0.5 0.5
vt 0.5 0.5
vt 0.5 0.5
vt 0.5 0.5
vt 0.5 0.5
vt 0.5 0.5
vt 0.5 0.5
vt 0.5 0.5
vt 0.5 0.5
vt 0.5 0.5
vt 0.5 0.5
vt 0.5 0.5
vt 0.5 0.5
vt 0.5 0.5
vt 0.5 0.5
vt 0.5 0.5
vt 0.5 0.5
vt 0.5 0.5
vt 0.5 0.5
vt 0.5 0.5
vt 0.5 0.5
vt 0.5 0.5
vt 0.5 0.5
vt 0.5 0.5
vt 0.5 0.5
vt 0.5 0.5
vt 0.5 0.5
vt 0.5 0.5
vt 0.5 0.5
vt 0.5 0.5
vt 0.5 0.5
vt 0.5 0.5
vt 0.5 0.5
vt 0.5 0.5
vt 0.5 0.5
vt 0.5 0.5
vt 0.5 0.5
vt 0.5 0.5
vt 0.5 0.5
vt 0.5 0.5
vt 0.5 0.5
vt 0.5 0.5
vt 0.5 0.5
vt 0.5 0.5
vt 0.5 0.5
vt 0.5 0.5
vt 0.5 0.5
vt 0.5 0.5
vt 0.5 0.5
vt 0.5 0.5
vt 0.5 0.5
vt 0.5 0.5
vt 0.5 0.5
vt 0.5 0.5
vt 0.5 0.5
vt 0.5 0.5
vt 0.5 0.5
vt 0.5 0.5
vt 0.5 0.5
vt 0.5 0.5
vt 0.5 0.5
vt 0.5 0.5
vt 0.5 0.5
vt 0.5 0.5
vt 0.5 0.5
vt 0.5 0.5
vt 0.5 0.5
vt 0.5 0.5
vt 0.5 0.5
vt 0.5 0.5
vt 0.5 0.5
vt 0.5 0.5
vt 0.5 0.5
vt 0.5 0.5
vt 0.5 0.5
vt 0.5 0.5
vt 0.5 0.5
vt 0.5 0.5
vt 0.5 0.5
vt 0.5 0.5
vt 0.5 0.5
vt 0.5 0.5
vt 0.5 0.5
vt 0.5 0.5
vt 0 0
vt 1 0
vt 0 1
vt 1 1
vt 0 0
vt 1 0
vt 0 1
vt 1 1
vt 0 0
vt 1 0
vt 0 1
vt 1 1
vt 0 0
vt 1 0
vt 0 1
vt 1 1
vt 0 0
vt 1 0
vt 0 1
vt 1 1
vt 0 0
vt 1 0
vt 0 1
vt 1 1
vt 0 0
vt 1 0
vt 0 1
vt 1 1
vt 0 0
vt 1 0
vt 0 1
vt 1 1
vt 0 0
vt 1 0
vt 0 1
vt 1 1
vt 0 0
vt 1 0
vt 0 1
vt 1 1
vt 0 0
vt 1 0
vt 0 1
vt 1 1
vt 0 0
vt 1 0
vt 0 1
vt 1 1
vt 0 0
vt 1 0
vt 0 1
vt 1 1
vt 0 0
vt 1 0
vt 0 1
vt 1 1
vt 0 0
vt 1 0
vt 0 1
vt 1 1
vt 0 0
vt 1 0
vt 0 1
vt 1 1
vt 0 0
vt 1 0
vt 0 1
vt 1 1
vt 0 0
vt 1 0
vt 0 1
vt 1 1
vt 0.5 0.5
vt 0.5 0.5
vt 0.5 0.5
vt 0.5 0.5
vt 0.5 0.5
vt 0.5 0.5
vt 0.5 0.5
vt 0.5 0.5
vt 0.5 0.5
vt 0.5 0.5
vt 0.5 0.5
vt 0.5 0.5
vt 0.5 0.5
vt 0.5 0.5
vt 0 0
vt 1 0
vt 0 1
vt 1 1
vt 0 0
vt 1 0
vt 0 1
vt 1 1
vt 0 0
vt 1 0
vt 0 1
vt 1 1
vt 0 0
vt 1 0
vt 0 1
vt 1 1
vt 0 0
vt 1 0
vt 0 1
vt 1 1
vt 0 0
vt 1 0
vt 0 1
vt 1 1
vt 0.5 0.5
vt 0.5 0.5
vt 0.5 0.5
vt 0.5 0.5
vt 0.5 0.5
vt 0.5 0.5
vt 0.5 0.5
vt 0.5 0.5
vt 0.5 0.5
vt 0.5 0.5
vt 0.5 0.5
vt 0.5 0.5
vt 0.5 0.5
vt 0.5 0.5
vt 0.5 0.5
vt 0.5 0.5
vt 0.5 0.5
vt 0.5 0.5
vt 0.5 0.5
vt 0.5 0.5
vt 0.5 0.5
vt 0.5 0.5
vt 0.5 0.5
vt 0.5 0.5
vt 0.5 0.5
vt 0.5 0.5
vt 0.5 0.5
vt 0.5 0.5
vt 0.5 0.5
vt 0.5 0.5
vt 0.5 0.5
vt 0 0
vt 1 0
vt 0 1
vt 1 1
vt 0 0
vt 1 0
vt 0 1
vt 1 1
vt 0 0
vt 1 0
vt 0 1
vt 1 1
vt 0 0
vt 1 0
vt 0 1
vt 1 1
vt 0 0
vt 1 0
vt 0 1
vt 1 1
vt 0 0
vt 1 0
vt 0 1
vt 1 1
vt 0.5 0.5
vt 0.5 0.5
vt 0.5 0.5
vt 0.5 0.5
vt 0.5 0.5
vt 0.5 0.5
vt 0.5 0.5
vt 0.5 0.5
vt 0.5 0.5
vt 0.5 0.5
vt 0.5 0.5
vt 0.5 0.5
vt 0.5 0.5
vt 0.5 0.5
vt 0.5 0.5
vt 0.5 0.5
vt 0.5 0.5
vt 0.5 0.5
vt 0.5 0.5
vt 0.5 0.5
vt 0.5 0.5
vt 0.5 0.5
vt 0.5 0.5
vt 0.5 0.5
vt 0.5 0.5
vt 0.5 0.5
vt 0.5 0.5
vt 0.5 0.5
vt 0.5 0.5
vt 0.5 0.5
vt 0.5 0.5
vt 0.5 0.5
vt 0.5 0.5
vt 0.5 0.5
vt 0.5 0.5
vt 0.5 0.5
vt 0.5 0.5
vt 0.5 0.5
vt 0.5 0.5
vt 0.5 0.5
vn 0 1 0
vn 0 1 0
vn 0 1 0
vn 0 1 0
vn 0 1 0
vn 0 1 0
vn 0 1 0
vn 0 1 0
vn 0 1 0
vn 0 1 0
vn 0 1 0
vn 0 1 0
vn 0.0008797628 0.9999995 0.0004718959
vn 0 1 0
vn 0.0008797628 0.9999995 0.0004718959
vn 0.002639323 0.9999964 0.0005503363
vn 0.002639323 0.9999964 0.0005503363
vn 0 1 0
vn 0 1 0
vn 0 1 0
vn 0 1 0
vn 0 1 0
vn 0 1 0
vn 0 1 0
vn 0 1 0
vn 0 1 0
vn 0 1 0
vn 0 1 0
vn 0 1 0
vn 0 1 0
vn 0 1 0
vn 0 0.7875422 -0.6162607
vn 0 0.7875422 -0.6162607
vn 0 0.7875783 -0.6162145
vn 0 0.7875783 -0.6162145
vn 0 0.7875602 -0.6162376
vn 0 0.7875602 -0.6162376
vn 0 0.7875432 -0.6162595
vn 0 0.7875432 -0.6162595
vn 0 0.7875804 -0.616212
vn 0 0.7875804 -0.616212
vn 0 0.7875618 -0.6162357
vn 0 0.7875618 -0.6162357
vn 0 1 0
vn 0 1 0
vn 0 1 0
vn 0 1 0
vn 0 1 -1.842201E-07
vn 0 1 -1.842201E-07
vn 0 1 0
vn 0 1 0
vn 0 1 -3.684403E-07
vn 0 1 -3.684403E-07
vn 0 1 0
vn 0 1 0
vn 0 1 0
vn 0 1 0
vn 0 1 0
vn 0 1 0
vn 0 1 0
vn 0 1 0
vn 0 1 0
vn 0 1 0
vn 0 1 0
vn 0 1 0
vn 0 1 0
vn 0 1 0
vn 0 1 0
vn 0 1 0
vn 0 1 0
vn -0.1244349 0.9922277 -0.0001283687
vn 0 1 0
vn -0.08309945 0.9965412 -8.576623E-05
vn -0.1182123 0.9929801 -0.004059182
vn -0.1182123 0.9929801 -0.004059182
vn 0 1 0
vn 0 1 0
vn 0 1 0
vn 0 1 0
vn -0.06546585 0.997853 0.001905257
vn 0 1 0
vn 0 1 0
vn 0 1 0
vn 0 1 0
vn 0 1 0
vn 0 1 0
vn 0 1 0
vn 0 1 0
vn 0 1 0
vn 0 1 0
vn 0 1 0
vn 0 1 0
vn 0 1 0
vn 0 1 0
vn 0 1 0
vn 0 1 0
vn 0 1 0
vn 0 1 0
vn 0 1 0
vn 0 1 0
vn 0 1 0
vn 0 1 0
vn 0 1 0
vn 0 1 0
vn 0 1 0
vn 0 1 0
vn 0 1 0
vn 0 1 0
vn 0 1 0
vn 0 1 0
vn 0 1 0
vn 0 1 0
vn 0 1 0
vn 0 1 0
vn 0 1 0
vn 0 1 0
vn 0 1 0
vn 0 1 0
vn 0 1 0
vn 0 1 0
vn 0 1 0
vn 0 1 0
vn 0 0.9659278 -0.2588117
vn 0 0.9659278 -0.2588117
vn 0 0.9659278 -0.2588117
vn 0 0.9659278 -0.2588117
vn 0 0.9659264 -0.2588168
vn 0 0.9659264 -0.2588168
vn 0 0.9659264 -0.2588168
vn 0 0.9659264 -0.2588168
vn 0 0.9659249 -0.2588223
vn 0 0.9659249 -0.2588223
vn 0 0.9659249 -0.2588223
vn 0 0.9659249 -0.2588223
vn 0 0.9659249 -0.2588227
vn 0 0.9659249 -0.2588227
vn 0 0.9659249 -0.2588227
vn 0 0.9659249 -0.2588227
vn 0 1 0
vn 0 1 0
vn 0 1 0
vn 0 1 0
vn 0 1 0
vn 0 1 0
vn 0 1 0
vn 0 1 0
vn 0 1 0
vn 0 1 0
vn 0 1 0
vn 0 1 0
vn 0 1 0
vn 0 1 0
vn 0 1 0
vn 0 1 0
vn 0 1 0
vn 0 1 0
vn 0 1 0
vn 0 1 0
vn 0 1 0
vn 0 1 0
vn 0 1 0
vn 0 1 0
vn 0.0001159778 1 -0.0001842123
vn 0.0001159778 1 -0.0001842123
vn 0.000116438 0.9960145 -0.08919153
vn 0.000116438 0.9960145 -0.08919153
vn 0 0.9866403 -0.1629138
vn 0 0.9866403 -0.1629138
vn 0 0.9927941 -0.1198326
vn 0 0.9927941 -0.1198326
vn 0 0.9988309 -0.04834258
vn 0 0.9988309 -0.04834258
vn 0 1 -8.507966E-05
vn 0 1 -8.507966E-05
vn 0 1 0
vn 0 1 0
vn 0 1 0
vn 0 1 0
vn 0 1 0
vn 0 1 0
vn 0 1 0
vn 0 1 0
vn 0 1 0
vn 0 1 0
vn 0 1 0
vn 0 1 0
vn 0 1 0
vn 0 1 0
vn 0 1 0
vn 0 1 0
vn 0 1 0
vn 0 1 0
vn 0 1 0
vn 0 1 0
vn 0 1 0
vn 0 1 0
vn 0 1 0
vn 0 1 0
vn 0 1 0
vn 0 1 0
vn 0 1 0
vn 0 1 0
vn 0 1 0
vn 0 1 0
vn 0 1 0
vn 0 1 0
vn 0 1 0
vn 0 1 0
vn 0 1 0
vn 0 1 0
vn 0 1 0
vn 0 1 0
vn 0 1 0
vn 0 1 0
vn 0.003519119 0.9999938 0.0001568807
vn 0.003519119 0.9999938 0.0001568807
vn 0 1 0
vn 0 1 0
vn 0 1 0
vn 0 1 0
vn 0 1 0
vn -0.001289216 0.9999992 0.000383896
vn -0.001289216 0.9999992 0.000383896
vn 0 1 0
vn 0 1 0
vn 0 1 0
vn 0 1 0
vn 0 1 0
vn 0 1 0
vn 0 1 0
vn 0 1 0
vn 0 1 0
vn 0 1 0
vn 0 1 0
vn 0 1 0
vn 0 1 1.816523E-07
vn 0 1 1.816523E-07
vn 0 1 1.816523E-07
vn 0 1 1.816523E-07
vn 0 1 0
vn 0 1 0
vn 0 1 0
vn 0 1 0
vn 0 1 0
vn 0 1 0
vn 0 1 0
vn 0 1 0
vn 0 1 0
vn 0 1 0
vn 0 1 0
vn 0 1 0
vn 0 1 0
vn 0 1 0
vn 0 1 0
vn 0 1 0
vn 0 0.999988 -0.004921807
vn 0 0.999988 -0.004921807
vn 0 0.9999981 0.001984897
vn 0 0.9999981 0.001984897
vn 0 0.9999981 0.001978799
vn 0 0.9999981 0.001978799
vn 0 1 -6.749382E-05
vn 0 1 -6.749382E-05
vn 0 1 -6.32613E-05
vn 0 1 -6.32613E-05
vn 0 1 -7.638379E-05
vn 0 1 -7.638379E-05
vn 0 1 -7.096418E-05
vn 0 1 -7.096418E-05
vn 0 1 -5.902546E-05
vn 0 1 -5.902546E-05
vn 0 1 -6.571185E-05
vn 0 1 -6.571185E-05
vn 0 1 -7.950928E-05
vn 0 1 -7.950928E-05
vn 0 1 -8.701081E-05
vn 0 1 -8.701081E-05
vn 0 0.9999976 -0.002196316
vn 0 0.9999976 -0.002196316
vn 0 1 0
vn 0 1 0
vn 0 1 0
vn 0 1 0
vn 0 1 0
vn 0 1 0
vn 0 1 0
vn 0 1 0
vn 0 1 0
vn 0 1 0
vn 0 1 0
vn 0 1 0
vn -0.0005773614 0.9999999 -0.000161915
vn -0.0005773614 0.9999999 -0.000161915
vn -0.0005773614 0.9999999 -0.000161915
vn -0.0005773614 0.9999999 -0.000161915
g D4_shadowGradient_geo_0
f 4/4/4 1/1/1 2/2/2
f 3/3/3 1/1/1 4/4/4
f 8/8/8 5/5/5 6/6/6
f 7/7/7 5/5/5 8/8/8
f 12/12/12 9/9/9 10/10/10
f 11/11/11 9/9/9 12/12/12
f 15/15/15 13/13/13 16/16/16
f 23/23/23 13/13/13 15/15/15
f 14/14/14 23/23/23 15/15/15
f 21/21/21 19/19/19 23/23/23
f 18/18/18 19/19/19 21/21/21
f 20/20/20 18/18/18 21/21/21
f 22/22/22 21/21/21 23/23/23
f 27/27/27 24/24/24 25/25/25
f 31/31/31 24/24/24 27/27/27
f 26/26/26 31/31/31 27/27/27
f 30/30/30 28/28/28 31/31/31
f 29/29/29 28/28/28 30/30/30
f 37/37/37 35/35/35 34/34/34
f 36/36/36 35/35/35 37/37/37
f 32/32/32 36/36/36 37/37/37
f 33/33/33 36/36/36 32/32/32
f 43/43/43 41/41/41 40/40/40
f 42/42/42 41/41/41 43/43/43
f 38/38/38 42/42/42 43/43/43
f 39/39/39 42/42/42 38/38/38
f 47/47/47 44/44/44 46/46/46
f 45/45/45 44/44/44 47/47/47
f 48/48/48 53/53/53 52/52/52
f 49/49/49 53/53/53 48/48/48
f 50/50/50 49/49/49 48/48/48
f 51/51/51 49/49/49 50/50/50
f 57/57/57 55/55/55 58/58/58
f 54/54/54 55/55/55 57/57/57
f 56/56/56 54/54/54 57/57/57
f 59/59/59 57/57/57 58/58/58
f 221/221/221 61/61/61 222/222/222
f 63/63/63 61/61/61 221/221/221
f 64/64/64 63/63/63 221/221/221
f 65/65/65 63/63/63 64/64/64
f 69/69/69 67/67/67 60/60/60
f 66/66/66 67/67/67 69/69/69
f 68/68/68 66/66/66 69/69/69
f 73/73/73 74/74/74 75/75/75
f 71/71/71 74/74/74 73/73/73
f 80/80/80 71/71/71 73/73/73
f 79/79/79 77/77/77 70/70/70
f 76/76/76 77/77/77 79/79/79
f 78/78/78 76/76/76 79/79/79
f 84/84/84 85/85/85 86/86/86
f 82/82/82 85/85/85 84/84/84
f 81/81/81 82/82/82 84/84/84
f 90/90/90 88/88/88 81/81/81
f 87/87/87 88/88/88 90/90/90
f 89/89/89 87/87/87 90/90/90
f 94/94/94 91/91/91 92/92/92
f 93/93/93 91/91/91 94/94/94
f 98/98/98 95/95/95 96/96/96
f 97/97/97 95/95/95 98/98/98
f 102/102/102 99/99/99 100/100/100
f 101/101/101 99/99/99 102/102/102
f 106/106/106 103/103/103 104/104/104
f 105/105/105 103/103/103 106/106/106
f 110/110/110 107/107/107 108/108/108
f 109/109/109 107/107/107 110/110/110
f 114/114/114 111/111/111 112/112/112
f 113/113/113 111/111/111 114/114/114
f 118/118/118 115/115/115 116/116/116
f 117/117/117 115/115/115 118/118/118
f 122/122/122 119/119/119 120/120/120
f 121/121/121 119/119/119 122/122/122
f 126/126/126 123/123/123 124/124/124
f 125/125/125 123/123/123 126/126/126
f 130/130/130 127/127/127 128/128/128
f 129/129/129 127/127/127 130/130/130
f 134/134/134 131/131/131 132/132/132
f 133/133/133 131/131/131 134/134/134
f 138/138/138 135/135/135 136/136/136
f 137/137/137 135/135/135 138/138/138
f 142/142/142 139/139/139 140/140/140
f 141/141/141 139/139/139 142/142/142
f 146/146/146 143/143/143 144/144/144
f 145/145/145 143/143/143 146/146/146
f 150/150/150 147/147/147 148/148/148
f 149/149/149 147/147/147 150/150/150
f 154/154/154 151/151/151 152/152/152
f 153/153/153 151/151/151 154/154/154
f 158/158/158 155/155/155 156/156/156
f 157/157/157 155/155/155 158/158/158
f 162/162/162 159/159/159 160/160/160
f 161/161/161 159/159/159 162/162/162
f 277/277/277 173/173/173 174/174/174
f 276/276/276 173/173/173 277/277/277
f 275/275/275 276/276/276 277/277/277
f 274/274/274 276/276/276 275/275/275
f 273/273/273 274/274/274 275/275/275
f 272/272/272 274/274/274 273/273/273
f 271/271/271 272/272/272 273/273/273
f 270/270/270 272/272/272 271/271/271
f 269/269/269 270/270/270 271/271/271
f 268/268/268 270/270/270 269/269/269
f 267/267/267 268/268/268 269/269/269
f 266/266/266 268/268/268 267/267/267
f 265/265/265 266/266/266 267/267/267
f 264/264/264 266/266/266 265/265/265
f 263/263/263 264/264/264 265/265/265
f 262/262/262 264/264/264 263/263/263
f 261/261/261 262/262/262 263/263/263
f 260/260/260 262/262/262 261/261/261
f 259/259/259 260/260/260 261/261/261
f 258/258/258 260/260/260 259/259/259
f 279/279/279 258/258/258 259/259/259
f 278/278/278 258/258/258 279/279/279
f 257/257/257 278/278/278 279/279/279
f 256/256/256 278/278/278 257/257/257
f 172/172/172 256/256/256 257/257/257
f 171/171/171 256/256/256 172/172/172
f 170/170/170 171/171/171 172/172/172
f 169/169/169 171/171/171 170/170/170
f 168/168/168 169/169/169 170/170/170
f 167/167/167 169/169/169 168/168/168
f 166/166/166 167/167/167 168/168/168
f 165/165/165 167/167/167 166/166/166
f 164/164/164 165/165/165 166/166/166
f 163/163/163 165/165/165 164/164/164
f 175/175/175 163/163/163 164/164/164
f 176/176/176 163/163/163 175/175/175
f 180/180/180 177/177/177 178/178/178
f 179/179/179 177/177/177 180/180/180
f 184/184/184 181/181/181 182/182/182
f 183/183/183 181/181/181 184/184/184
f 188/188/188 185/185/185 186/186/186
f 187/187/187 185/185/185 188/188/188
f 192/192/192 189/189/189 190/190/190
f 191/191/191 189/189/189 192/192/192
f 196/196/196 193/193/193 194/194/194
f 195/195/195 193/193/193 196/196/196
f 200/200/200 197/197/197 198/198/198
f 199/199/199 197/197/197 200/200/200
f 204/204/204 201/201/201 202/202/202
f 203/203/203 201/201/201 204/204/204
f 205/205/205 207/207/207 208/208/208
f 206/206/206 207/207/207 205/205/205
f 211/211/211 213/213/213 214/214/214
f 212/212/212 213/213/213 211/211/211
f 209/209/209 212/212/212 211/211/211
f 210/210/210 212/212/212 209/209/209
f 17/17/17 216/216/216 215/215/215
f 16/16/16 216/216/216 17/17/17
f 15/15/15 16/16/16 17/17/17
f 219/219/219 217/217/217 218/218/218
f 220/220/220 217/217/217 219/219/219
f 223/223/223 221/221/221 222/222/222
f 227/227/227 224/224/224 225/225/225
f 226/226/226 224/224/224 227/227/227
f 231/231/231 228/228/228 229/229/229
f 230/230/230 228/228/228 231/231/231
f 235/235/235 232/232/232 233/233/233
f 234/234/234 232/232/232 235/235/235
f 239/239/239 236/236/236 237/237/237
f 238/238/238 236/236/236 239/239/239
f 243/243/243 240/240/240 241/241/241
f 242/242/242 240/240/240 243/243/243
f 247/247/247 244/244/244 245/245/245
f 246/246/246 244/244/244 247/247/247
f 251/251/251 248/248/248 249/249/249
f 250/250/250 248/248/248 251/251/251
f 255/255/255 252/252/252 253/253/253
f 254/254/254 252/252/252 255/255/255
f 60/60/60 62/62/62 69/69/69
f 63/63/63 62/62/62 60/60/60
f 61/61/61 63/63/63 60/60/60
f 70/70/70 72/72/72 79/79/79
f 73/73/73 72/72/72 70/70/70
f 80/80/80 73/73/73 70/70/70
f 83/83/83 81/81/81 84/84/84
f 90/90/90 81/81/81 83/83/83
g D4_shadowGradient_geo_1
f 280/280/280 282/282/282 285/285/285
f 283/283/283 282/282/282 280/280/280
f 281/281/281 283/283/283 280/280/280
f 284/284/284 280/280/280 285/285/285
f 286/286/286 288/288/288 291/291/291
f 289/289/289 288/288/288 286/286/286
f 287/287/287 289/289/289 286/286/286
f 290/290/290 286/286/286 291/291/291
f 293/293/293 295/295/295 294/294/294
f 292/292/292 295/295/295 293/293/293
