g D4_trashbag_geo
v -66.0984 0.007002525 83.15623
v -66.33438 0.007002525 83.15623
v -66.45238 0.007002525 83.2814
v -66.33438 0.007002525 83.40658
v -66.0984 0.007002525 83.40658
v -65.9804 0.007002525 83.2814
v -66.06165 0.09766277 83.04008
v -66.37113 0.09766277 83.04008
v -66.52587 0.09766277 83.2814
v -66.37113 0.09766277 83.52274
v -66.06165 0.09766277 83.52274
v -65.90692 0.09766277 83.2814
v -66.02644 0.2894082 83.03879
v -66.32738 0.3353958 83.03879
v -66.46717 0.3583897 83.2814
v -66.32738 0.3353958 83.52402
v -66.02644 0.2894083 83.52402
v -65.87597 0.2664145 83.2814
v -66.03156 0.4529126 83.15556
v -66.21672 0.4874628 83.12287
v -66.26152 0.5106792 83.2814
v -66.18486 0.4914237 83.40726
v -66.03156 0.4529126 83.40726
v -65.95489 0.4336571 83.2814
v -66.08841 0.5452613 83.2869
v -66.104 0.5491747 83.2869
v -66.11179 0.5511314 83.2997
v -66.104 0.5491747 83.31248
v -66.08841 0.5452613 83.31248
v -66.08062 0.5433048 83.2997
v -66.06438 0.569666 83.2997
v -66.07398 0.572078 83.28394
v -66.09319 0.5769023 83.28394
v -66.10279 0.5793145 83.2997
v -66.09319 0.5769023 83.31546
v -66.07398 0.572078 83.31546
v -65.99712 0.6266677 83.30141
v -66.03139 0.6367573 83.27979
v -66.08654 0.6491319 83.26984
v -66.11634 0.6846508 83.30141
v -66.08654 0.6491319 83.33295
v -66.01906 0.6488036 83.34962
v -100.725 1.802904 118.8924
v -100.961 1.802904 118.8924
v -101.079 1.802904 119.0176
v -100.961 1.802904 119.1428
v -100.725 1.802904 119.1428
v -100.607 1.802904 119.0176
v -100.6883 1.893564 118.7762
v -100.9978 1.893564 118.7762
v -101.1525 1.893564 119.0176
v -100.9978 1.893564 119.2589
v -100.6883 1.893564 119.2589
v -100.5336 1.893564 119.0176
v -100.6531 2.08531 118.7749
v -100.954 2.131297 118.7749
v -101.0938 2.154291 119.0176
v -100.954 2.131297 119.2602
v -100.6531 2.08531 119.2602
v -100.5026 2.062316 119.0176
v -100.6582 2.248814 118.8917
v -100.8434 2.283364 118.859
v -100.8882 2.306581 119.0176
v -100.8115 2.287325 119.1434
v -100.6582 2.248814 119.1434
v -100.5815 2.229558 119.0176
v -100.7151 2.341163 119.0231
v -100.7306 2.345076 119.0231
v -100.7384 2.347033 119.0359
v -100.7306 2.345076 119.0487
v -100.7151 2.341163 119.0487
v -100.7073 2.339206 119.0359
v -100.691 2.365567 119.0359
v -100.7006 2.36798 119.0201
v -100.7198 2.372804 119.0201
v -100.7294 2.375216 119.0359
v -100.7198 2.372804 119.0516
v -100.7006 2.36798 119.0516
v -100.6238 2.422569 119.0376
v -100.658 2.432659 119.016
v -100.7132 2.445033 119.006
v -100.743 2.480552 119.0376
v -100.7132 2.445033 119.0691
v -100.6457 2.444705 119.0858
v -66.33438 0.007002525 83.15623
v -66.37113 0.09766277 83.04008
v -66.32738 0.3353958 83.03879
v -66.02644 0.2894082 83.03879
v -66.32738 0.3353958 83.03879
v -66.46717 0.3583897 83.2814
v -66.32738 0.3353958 83.52402
v -66.02644 0.2894083 83.52402
v -65.87597 0.2664145 83.2814
v -66.08062 0.5433048 83.2997
v -66.07398 0.572078 83.28394
v -66.08841 0.5452613 83.2869
v -66.06438 0.569666 83.2997
v -66.09319 0.5769023 83.28394
v -66.104 0.5491747 83.2869
v -66.10279 0.5793145 83.2997
v -66.11179 0.5511314 83.2997
v -66.11179 0.5511314 83.2997
v -66.09319 0.5769023 83.31546
v -66.104 0.5491747 83.31248
v -66.10279 0.5793145 83.2997
v -66.07398 0.572078 83.31546
v -66.08841 0.5452613 83.31248
v -66.06438 0.569666 83.2997
v -66.07398 0.572078 83.28394
v -66.09319 0.5769023 83.28394
v -66.10279 0.5793145 83.2997
v -66.10279 0.5793145 83.2997
v -66.09319 0.5769023 83.31546
v -66.11634 0.6846508 83.30141
v -66.07398 0.572078 83.31546
v -100.961 1.802904 118.8924
v -100.9978 1.893564 118.7762
v -100.954 2.131297 118.7749
v -100.6531 2.08531 118.7749
v -100.954 2.131297 118.7749
v -101.0938 2.154291 119.0176
v -100.954 2.131297 119.2602
v -100.6531 2.08531 119.2602
v -100.5026 2.062316 119.0176
v -100.7073 2.339206 119.0359
v -100.7006 2.36798 119.0201
v -100.7151 2.341163 119.0231
v -100.691 2.365567 119.0359
v -100.7198 2.372804 119.0201
v -100.7306 2.345076 119.0231
v -100.7294 2.375216 119.0359
v -100.7384 2.347033 119.0359
v -100.7384 2.347033 119.0359
v -100.7198 2.372804 119.0516
v -100.7306 2.345076 119.0487
v -100.7294 2.375216 119.0359
v -100.7006 2.36798 119.0516
v -100.7151 2.341163 119.0487
v -100.691 2.365567 119.0359
v -100.7006 2.36798 119.0201
v -100.7198 2.372804 119.0201
v -100.7294 2.375216 119.0359
v -100.7294 2.375216 119.0359
v -100.7198 2.372804 119.0516
v -100.743 2.480552 119.0376
v -100.7006 2.36798 119.0516
vt 0.8144729 0.009439625
vt 1 0.009439632
vt 0.2048868 0.009439677
vt 0.3610763 0.009439707
vt 0.5826623 0.009439707
vt 0.7030784 0.009439707
vt 0.847901 0.07835568
vt 1 0.0783557
vt 0.2119969 0.07835573
vt 0.3907563 0.07835573
vt 0.5483969 0.07835579
vt 0.7037702 0.07835573
vt 0.8516515 0.2940356
vt 1 0.2940356
vt 0.225302 0.2940357
vt 0.3887928 0.2940357
vt 0.5534508 0.2940357
vt 0.7006505 0.2940357
vt 0.5292199 0.8461162
vt 0.3762572 0.6720608
vt 0.5179244 0.5176187
vt 0.7042271 0.5172081
vt 0.8030235 0.6812466
vt 0.7155196 0.8457006
vt 0.6281947 0.6891595
vt 0.6181537 0.6724864
vt 0.627044 0.6557739
vt 0.6459755 0.6557341
vt 0.6560175 0.672406
vt 0.6471217 0.6891094
vt 0.2331319 0.8628368
vt 0.2008405 0.9183646
vt 0.136179 0.9183646
vt 0.1039034 0.8628368
vt 0.136179 0.8073007
vt 0.2008405 0.8073007
vt 0.04046844 0.5238366
vt 0.04303768 0.5811288
vt 0.07972343 0.6510901
vt 0.09533343 0.7309853
vt 0.08464019 0.3963856
vt 0.007440165 0.4503645
vt 0.8144729 0.009439625
vt 1 0.009439632
vt 0.2048868 0.009439677
vt 0.3610763 0.009439707
vt 0.5826623 0.009439707
vt 0.7030784 0.009439707
vt 0.847901 0.07835568
vt 1 0.0783557
vt 0.2119969 0.07835573
vt 0.3907563 0.07835573
vt 0.5483969 0.07835579
vt 0.7037702 0.07835573
vt 0.8516515 0.2940356
vt 1 0.2940356
vt 0.225302 0.2940357
vt 0.3887928 0.2940357
vt 0.5534508 0.2940357
vt 0.7006505 0.2940357
vt 0.5292199 0.8461162
vt 0.3762572 0.6720608
vt 0.5179244 0.5176187
vt 0.7042271 0.5172081
vt 0.8030235 0.6812466
vt 0.7155196 0.8457006
vt 0.6281947 0.6891595
vt 0.6181537 0.6724864
vt 0.627044 0.6557739
vt 0.6459755 0.6557341
vt 0.6560175 0.672406
vt 0.6471217 0.6891094
vt 0.2331319 0.8628368
vt 0.2008405 0.9183646
vt 0.136179 0.9183646
vt 0.1039034 0.8628368
vt 0.136179 0.8073007
vt 0.2008405 0.8073007
vt 0.04046844 0.5238366
vt 0.04303768 0.5811288
vt 0.07972343 0.6510901
vt 0.09533343 0.7309853
vt 0.08464019 0.3963856
vt 0.007440165 0.4503645
vt 0 0.009439632
vt 0 0.0783557
vt 0 0.2940356
vt 0.4227498 0.9955504
vt 0.2172121 0.6528613
vt 0.4011911 0.3088561
vt 0.7907097 0.3075457
vt 0.9962438 0.6502291
vt 0.8122665 0.9942337
vt 0.2135396 0.5270636
vt 0.1502172 0.5553858
vt 0.2108832 0.5490575
vt 0.1403351 0.5270636
vt 0.1591217 0.5832022
vt 0.2211786 0.5692167
vt 0.1716179 0.6086937
vt 0.2295309 0.5905236
vt 0.2295374 0.4642017
vt 0.1586159 0.4707776
vt 0.2208012 0.4853286
vt 0.1721317 0.4459018
vt 0.1492777 0.4984054
vt 0.2101584 0.5052146
vt 0.1403351 0.5270636
vt 0.1502172 0.5553858
vt 0.1591217 0.5832022
vt 0.1716179 0.6086937
vt 0.1721317 0.4459018
vt 0.1586159 0.4707776
vt 0.1066659 0.318401
vt 0.1492777 0.4984054
vt 0 0.009439632
vt 0 0.0783557
vt 0 0.2940356
vt 0.4227498 0.9955504
vt 0.2172121 0.6528613
vt 0.4011911 0.3088561
vt 0.7907097 0.3075457
vt 0.9962438 0.6502291
vt 0.8122665 0.9942337
vt 0.2135396 0.5270636
vt 0.1502172 0.5553858
vt 0.2108832 0.5490575
vt 0.1403351 0.5270636
vt 0.1591217 0.5832022
vt 0.2211786 0.5692167
vt 0.1716179 0.6086937
vt 0.2295309 0.5905236
vt 0.2295374 0.4642017
vt 0.1586159 0.4707776
vt 0.2208012 0.4853286
vt 0.1721317 0.4459018
vt 0.1492777 0.4984054
vt 0.2101584 0.5052146
vt 0.1403351 0.5270636
vt 0.1502172 0.5553858
vt 0.1591217 0.5832022
vt 0.1716179 0.6086937
vt 0.1721317 0.4459018
vt 0.1586159 0.4707776
vt 0.1066659 0.318401
vt 0.1492777 0.4984054
vn 0.3194562 -0.7625962 -0.5624899
vn -0.3194468 -0.7625998 -0.5624904
vn -0.6778212 -0.7352268 9.02902E-06
vn -0.3194427 -0.7625959 0.5624979
vn 0.3194454 -0.7625993 0.5624918
vn 0.6778292 -0.7352194 4.30587E-06
vn 0.4257898 -0.4756288 -0.7697274
vn -0.4477121 -0.3968781 -0.8012751
vn -0.9478004 -0.3188641 2.270325E-06
vn -0.4477113 -0.3968776 0.8012757
vn 0.4257869 -0.4756342 0.7697257
vn 0.8709347 -0.4913988 -1.913931E-06
vn 0.5194383 0.2053771 -0.8294601
vn -0.3896551 0.415689 -0.8218099
vn -0.8400514 0.5423743 0.01198724
vn -0.3768166 0.4383636 0.8159944
vn 0.5137464 0.2248721 0.8279476
vn 0.9917285 0.1283535 -4.256113E-06
vn 0.4907966 0.6676316 -0.5598095
vn -0.1230566 0.8383598 -0.5310459
vn -0.4407755 0.8967973 0.03836071
vn -0.1400059 0.8013639 0.5815619
vn 0.4766734 0.6464163 0.5957587
vn 0.7978033 0.6028563 0.008609022
vn 0.5320843 0.3551461 -0.7686074
vn -0.266272 0.6368952 -0.7235079
vn -0.6660917 0.7451759 0.03216675
vn -0.2887379 0.5702113 0.7690836
vn 0.5134293 0.3017291 0.8033367
vn 0.9804679 0.1963566 0.01125595
vn 0.2436522 0.9698627 4.07456E-07
vn 0.2436522 0.9698627 4.07456E-07
vn 0.2436522 0.9698627 4.07456E-07
vn 0.2436522 0.9698627 4.07456E-07
vn 0.2436522 0.9698627 4.07456E-07
vn 0.2436522 0.9698627 4.07456E-07
vn 0.6809826 -0.7190687 -0.1385745
vn 0.306272 -0.3260521 -0.8943644
vn -0.4008002 -0.1356965 -0.9060605
vn -0.9944706 -0.1047429 -0.007568404
vn -0.5347047 -0.1835426 0.8248655
vn 0.2037575 -0.508895 0.8363664
vn 0.3194546 -0.7626033 -0.562481
vn -0.3194426 -0.7626034 -0.5624877
vn -0.6778213 -0.7352268 8.945669E-06
vn -0.319439 -0.7625695 0.5625357
vn 0.3194442 -0.7625763 0.5625236
vn 0.6778291 -0.7352194 4.439402E-06
vn 0.4257875 -0.4756561 -0.7697118
vn -0.4477087 -0.3968855 -0.8012732
vn -0.9477978 -0.3188717 -8.611571E-07
vn -0.4477112 -0.3968622 0.8012834
vn 0.4257715 -0.4756409 0.7697301
vn 0.8709123 -0.4914386 2.148612E-06
vn 0.5194549 0.2053855 -0.8294476
vn -0.3896402 0.4156971 -0.8218129
vn -0.840049 0.542378 0.01198987
vn -0.3768307 0.4383656 0.8159868
vn 0.5137374 0.2248839 0.8279499
vn 0.9917271 0.1283641 -4.697077E-06
vn 0.4908348 0.6676277 -0.5597807
vn -0.1230187 0.8383707 -0.5310376
vn -0.4407644 0.8968025 0.03836549
vn -0.14001 0.8013645 0.5815601
vn 0.476674 0.646414 0.5957608
vn 0.7978024 0.6028573 0.008615986
vn 0.5322484 0.3549685 -0.768576
vn -0.2664751 0.636896 -0.7234324
vn -0.6661955 0.7450766 0.03231763
vn -0.2888688 0.5702559 0.7690014
vn 0.5133876 0.301663 0.8033882
vn 0.9805177 0.1961024 0.01134703
vn 0.2435655 0.9698845 0
vn 0.2435655 0.9698845 0
vn 0.2435655 0.9698845 0
vn 0.2435655 0.9698845 0
vn 0.2435655 0.9698845 0
vn 0.2435655 0.9698845 0
vn 0.6810902 -0.7189911 -0.1384483
vn 0.3064521 -0.3260669 -0.8942972
vn -0.4009622 -0.135758 -0.9059797
vn -0.9944635 -0.1048275 -0.0073206
vn -0.5346625 -0.1836231 0.8248749
vn 0.2037801 -0.5088866 0.836366
vn -0.3194468 -0.7625998 -0.5624904
vn -0.4477121 -0.3968781 -0.8012751
vn -0.3896551 0.415689 -0.8218099
vn 0.5194383 0.2053771 -0.8294601
vn -0.3896551 0.415689 -0.8218099
vn -0.8400514 0.5423743 0.01198724
vn -0.3768166 0.4383636 0.8159944
vn 0.5137464 0.2248721 0.8279476
vn 0.9917285 0.1283535 -4.256113E-06
vn 0.9804679 0.1963566 0.01125595
vn 0.4026943 -0.3120444 -0.8605031
vn 0.5320843 0.3551461 -0.7686074
vn 0.8513945 -0.5245259 9.506976E-05
vn -0.4764205 0.09209995 -0.8743804
vn -0.266272 0.6368952 -0.7235079
vn -0.952593 0.3042475 0.0001170448
vn -0.6660917 0.7451759 0.03216675
vn -0.6660917 0.7451759 0.03216675
vn -0.4763512 0.09184328 0.8744452
vn -0.2887379 0.5702113 0.7690836
vn -0.952593 0.3042475 0.0001170448
vn 0.4025728 -0.3122236 0.8604949
vn 0.5134293 0.3017291 0.8033367
vn 0.6809826 -0.7190687 -0.1385745
vn 0.306272 -0.3260521 -0.8943644
vn -0.4008002 -0.1356965 -0.9060605
vn -0.9944706 -0.1047429 -0.007568404
vn -0.9944706 -0.1047429 -0.007568404
vn -0.5347047 -0.1835426 0.8248655
vn -0.9944706 -0.1047429 -0.007568404
vn 0.2037575 -0.508895 0.8363664
vn -0.3194426 -0.7626034 -0.5624877
vn -0.4477087 -0.3968855 -0.8012732
vn -0.3896402 0.4156971 -0.8218129
vn 0.5194549 0.2053855 -0.8294476
vn -0.3896402 0.4156971 -0.8218129
vn -0.840049 0.542378 0.01198987
vn -0.3768307 0.4383656 0.8159868
vn 0.5137374 0.2248839 0.8279499
vn 0.9917271 0.1283641 -4.697077E-06
vn 0.9805177 0.1961024 0.01134703
vn 0.4027804 -0.3124202 -0.8603263
vn 0.5322484 0.3549685 -0.768576
vn 0.8512563 -0.5247501 0.0002191678
vn -0.47683 0.09187341 -0.874181
vn -0.2664751 0.636896 -0.7234324
vn -0.9526268 0.3041413 0.0004082661
vn -0.6661955 0.7450766 0.03231763
vn -0.6661955 0.7450766 0.03231763
vn -0.4765961 0.09195369 0.8743
vn -0.2888688 0.5702559 0.7690014
vn -0.9526268 0.3041413 0.0004082661
vn 0.4024263 -0.3123784 0.8605073
vn 0.5133876 0.301663 0.8033882
vn 0.6810902 -0.7189911 -0.1384483
vn 0.3064521 -0.3260669 -0.8942972
vn -0.4009622 -0.135758 -0.9059797
vn -0.9944635 -0.1048275 -0.0073206
vn -0.9944635 -0.1048275 -0.0073206
vn -0.5346625 -0.1836231 0.8248749
vn -0.9944635 -0.1048275 -0.0073206
vn 0.2037801 -0.5088866 0.836366
g D4_trashbag_geo_0
f 9/9/9 86/86/86 85/85/85
f 3/3/3 9/9/9 85/85/85
f 10/10/10 9/9/9 3/3/3
f 4/4/4 10/10/10 3/3/3
f 11/11/11 10/10/10 4/4/4
f 5/5/5 11/11/11 4/4/4
f 12/12/12 11/11/11 5/5/5
f 6/6/6 12/12/12 5/5/5
f 7/7/7 12/12/12 6/6/6
f 1/1/1 7/7/7 6/6/6
f 8/8/8 7/7/7 1/1/1
f 2/2/2 8/8/8 1/1/1
f 7/7/7 8/8/8 14/14/14
f 13/13/13 7/7/7 14/14/14
f 12/12/12 7/7/7 13/13/13
f 18/18/18 12/12/12 13/13/13
f 11/11/11 12/12/12 18/18/18
f 17/17/17 11/11/11 18/18/18
f 10/10/10 11/11/11 17/17/17
f 16/16/16 10/10/10 17/17/17
f 9/9/9 10/10/10 16/16/16
f 15/15/15 9/9/9 16/16/16
f 86/86/86 9/9/9 15/15/15
f 87/87/87 86/86/86 15/15/15
f 31/31/31 35/35/35 36/36/36
f 34/34/34 35/35/35 31/31/31
f 32/32/32 34/34/34 31/31/31
f 33/33/33 34/34/34 32/32/32
f 103/103/103 105/105/105 102/102/102
f 104/104/104 103/103/103 102/102/102
f 106/106/106 103/103/103 104/104/104
f 107/107/107 106/106/106 104/104/104
f 97/97/97 106/106/106 107/107/107
f 94/94/94 97/97/97 107/107/107
f 95/95/95 97/97/97 94/94/94
f 96/96/96 95/95/95 94/94/94
f 98/98/98 95/95/95 96/96/96
f 99/99/99 98/98/98 96/96/96
f 100/100/100 98/98/98 99/99/99
f 101/101/101 100/100/100 99/99/99
f 41/41/41 114/114/114 112/112/112
f 113/113/113 41/41/41 112/112/112
f 42/42/42 41/41/41 113/113/113
f 115/115/115 42/42/42 113/113/113
f 37/37/37 42/42/42 115/115/115
f 108/108/108 37/37/37 115/115/115
f 38/38/38 37/37/37 108/108/108
f 109/109/109 38/38/38 108/108/108
f 39/39/39 38/38/38 109/109/109
f 110/110/110 39/39/39 109/109/109
f 40/40/40 39/39/39 110/110/110
f 111/111/111 40/40/40 110/110/110
f 51/51/51 117/117/117 116/116/116
f 45/45/45 51/51/51 116/116/116
f 52/52/52 51/51/51 45/45/45
f 46/46/46 52/52/52 45/45/45
f 53/53/53 52/52/52 46/46/46
f 47/47/47 53/53/53 46/46/46
f 54/54/54 53/53/53 47/47/47
f 48/48/48 54/54/54 47/47/47
f 49/49/49 54/54/54 48/48/48
f 43/43/43 49/49/49 48/48/48
f 50/50/50 49/49/49 43/43/43
f 44/44/44 50/50/50 43/43/43
f 49/49/49 50/50/50 56/56/56
f 55/55/55 49/49/49 56/56/56
f 54/54/54 49/49/49 55/55/55
f 60/60/60 54/54/54 55/55/55
f 53/53/53 54/54/54 60/60/60
f 59/59/59 53/53/53 60/60/60
f 52/52/52 53/53/53 59/59/59
f 58/58/58 52/52/52 59/59/59
f 51/51/51 52/52/52 58/58/58
f 57/57/57 51/51/51 58/58/58
f 117/117/117 51/51/51 57/57/57
f 118/118/118 117/117/117 57/57/57
f 73/73/73 77/77/77 78/78/78
f 76/76/76 77/77/77 73/73/73
f 74/74/74 76/76/76 73/73/73
f 75/75/75 76/76/76 74/74/74
f 134/134/134 136/136/136 133/133/133
f 135/135/135 134/134/134 133/133/133
f 137/137/137 134/134/134 135/135/135
f 138/138/138 137/137/137 135/135/135
f 128/128/128 137/137/137 138/138/138
f 125/125/125 128/128/128 138/138/138
f 126/126/126 128/128/128 125/125/125
f 127/127/127 126/126/126 125/125/125
f 129/129/129 126/126/126 127/127/127
f 130/130/130 129/129/129 127/127/127
f 131/131/131 129/129/129 130/130/130
f 132/132/132 131/131/131 130/130/130
f 83/83/83 145/145/145 143/143/143
f 144/144/144 83/83/83 143/143/143
f 84/84/84 83/83/83 144/144/144
f 146/146/146 84/84/84 144/144/144
f 79/79/79 84/84/84 146/146/146
f 139/139/139 79/79/79 146/146/146
f 80/80/80 79/79/79 139/139/139
f 140/140/140 80/80/80 139/139/139
f 81/81/81 80/80/80 140/140/140
f 141/141/141 81/81/81 140/140/140
f 82/82/82 81/81/81 141/141/141
f 142/142/142 82/82/82 141/141/141
f 19/19/19 88/88/88 20/20/20
f 93/93/93 88/88/88 19/19/19
f 24/24/24 93/93/93 19/19/19
f 92/92/92 93/93/93 24/24/24
f 23/23/23 92/92/92 24/24/24
f 91/91/91 92/92/92 23/23/23
f 22/22/22 91/91/91 23/23/23
f 90/90/90 91/91/91 22/22/22
f 21/21/21 90/90/90 22/22/22
f 89/89/89 90/90/90 21/21/21
f 20/20/20 89/89/89 21/21/21
f 88/88/88 89/89/89 20/20/20
f 19/19/19 25/25/25 24/24/24
f 26/26/26 25/25/25 19/19/19
f 20/20/20 26/26/26 19/19/19
f 27/27/27 26/26/26 20/20/20
f 21/21/21 27/27/27 20/20/20
f 28/28/28 27/27/27 21/21/21
f 22/22/22 28/28/28 21/21/21
f 29/29/29 28/28/28 22/22/22
f 23/23/23 29/29/29 22/22/22
f 30/30/30 29/29/29 23/23/23
f 24/24/24 30/30/30 23/23/23
f 25/25/25 30/30/30 24/24/24
f 61/61/61 119/119/119 62/62/62
f 124/124/124 119/119/119 61/61/61
f 66/66/66 124/124/124 61/61/61
f 123/123/123 124/124/124 66/66/66
f 65/65/65 123/123/123 66/66/66
f 122/122/122 123/123/123 65/65/65
f 64/64/64 122/122/122 65/65/65
f 121/121/121 122/122/122 64/64/64
f 63/63/63 121/121/121 64/64/64
f 120/120/120 121/121/121 63/63/63
f 62/62/62 120/120/120 63/63/63
f 119/119/119 120/120/120 62/62/62
f 61/61/61 67/67/67 66/66/66
f 68/68/68 67/67/67 61/61/61
f 62/62/62 68/68/68 61/61/61
f 69/69/69 68/68/68 62/62/62
f 63/63/63 69/69/69 62/62/62
f 70/70/70 69/69/69 63/63/63
f 64/64/64 70/70/70 63/63/63
f 71/71/71 70/70/70 64/64/64
f 65/65/65 71/71/71 64/64/64
f 72/72/72 71/71/71 65/65/65
f 66/66/66 72/72/72 65/65/65
f 67/67/67 72/72/72 66/66/66
