g D4_windowCar_geo
v -73.5441 1.490522 87.59267
v -73.33215 1.040535 87.7915
v -73.5441 1.490522 86.27478
v -73.33215 1.040535 86.07596
v -73.29942 1.053475 87.27358
v -73.29942 1.053475 86.59387
v -74.41619 1.056234 87.88837
v -74.41619 1.555492 87.69661
v -73.65453 1.056234 87.88837
v -73.73163 1.513827 87.69661
v -74.51611 1.055414 87.88567
v -74.51611 1.556317 87.69328
v -75.18922 1.558296 87.69328
v -75.78378 1.055414 87.88567
v -74.41619 1.056234 85.97907
v -74.41619 1.555492 86.17084
v -73.65453 1.056234 85.97907
v -73.73163 1.513827 86.17084
v -74.51608 1.055413 85.98177
v -74.51608 1.556316 86.17416
v -75.18919 1.558295 86.17416
v -75.78374 1.055413 85.98177
v -75.85718 1.044012 87.85986
v -75.25098 1.570919 87.66219
v -75.85718 1.044012 86.0076
v -75.25098 1.570919 86.20525
v -182.2831 1.491202 72.77821
v -182.4953 1.0413 72.57951
v -182.2832 1.491628 74.0961
v -182.4955 1.041855 74.29505
v -182.5281 1.054431 73.09742
v -182.5282 1.054651 73.77713
v -181.4112 1.056203 72.48276
v -181.4109 1.555522 72.67435
v -182.1729 1.05674 72.48267
v -182.0956 1.51434 72.67429
v -181.3114 1.055313 72.48548
v -181.3111 1.556278 72.6777
v -180.6379 1.557782 72.67778
v -180.0437 1.054419 72.48563
v -181.4115 1.056826 74.39206
v -181.4111 1.556022 74.20013
v -182.1732 1.057363 74.39197
v -182.0957 1.514839 74.20007
v -181.3116 1.055928 74.38935
v -181.3113 1.556769 74.19681
v -180.6381 1.558273 74.19688
v -180.044 1.055034 74.3895
v -179.9703 1.042973 72.51144
v -180.5761 1.570372 72.70885
v -179.9705 1.043573 74.3637
v -180.5763 1.570843 74.16579
v -143.5595 1.490523 75.50965
v -143.7634 1.040537 75.71675
v -142.242 1.490523 75.54118
v -142.0483 1.040537 75.75784
v -143.2464 1.053477 75.76192
v -142.5669 1.053477 75.77818
v -143.8343 1.056232 74.63073
v -143.6426 1.555489 74.63534
v -143.8525 1.056232 75.39217
v -143.659 1.513825 75.31969
v -143.8292 1.055416 74.5309
v -143.6368 1.556319 74.53553
v -143.6207 1.558298 73.86259
v -143.7988 1.055416 73.2636
v -141.9255 1.056232 74.67645
v -142.1172 1.555489 74.67186
v -141.9437 1.056232 75.43792
v -142.1336 1.513825 75.35622
v -141.9258 1.055413 74.57647
v -142.1181 1.556316 74.57188
v -142.1021 1.558295 73.89894
v -141.8955 1.055413 73.30917
v -143.7713 1.044013 73.19084
v -143.5882 1.57092 73.80159
v -141.9195 1.044013 73.23518
v -142.1316 1.57092 73.83647
v -103.902 3.360051 115.6365
v -103.7459 2.870217 116.1204
v -103.674 2.870217 115.127
v -103.8391 3.403391 114.7666
v -103.6008 2.868749 114.0766
v -103.7921 3.404871 114.0628
v -103.667 2.868749 114.9911
v -103.8353 3.404871 114.6593
v -103.5963 2.867926 113.9767
v -103.7882 3.405693 113.9629
v -103.7395 3.378183 113.2915
v -103.5048 2.867926 112.7124
v -105.3726 2.856523 112.5036
v -105.2192 3.38343 113.1224
v -104.4927 3.408621 113.175
v -103.5252 2.856524 112.6373
v -103.7661 3.383431 113.2276
v -105.4952 2.867922 113.8393
v -105.3033 3.405689 113.8531
v -105.2547 3.37818 113.1818
v -105.4037 2.867922 112.5749
v -105.5052 2.868741 113.9387
v -105.3139 3.404864 113.9526
v -105.5714 2.868741 114.8532
v -105.3571 3.404864 114.5491
v -105.4318 3.360054 115.5257
v -105.656 2.87022 115.9821
v -105.5841 2.870219 114.9886
v -105.3688 3.403393 114.6559
v -105.32 3.355834 115.6005
v -104.6735 3.392422 115.6726
v -105.5627 2.853048 116.075
v -104.0234 3.35583 115.6944
v -103.8516 2.853046 116.1989
vt 0.6873947 0.7987276
vt 0.5800519 0.5557889
vt 1.398896 0.7987276
vt 1.506236 0.5557889
vt 0.8596645 0.562775
vt 1.226624 0.562775
vt 0.5278067 0.635775
vt 0.5278067 0.8702511
vt 0.8855263 0.635775
vt 0.8493171 0.8506832
vt 0.7127261 0.1169799
vt 0.7127261 0.4320567
vt 0.2893312 0.4333014
vt -0.08465838 0.1169799
vt 0.3577194 0.3822972
vt 0.3577194 0.6167732
vt 0 0.3822972
vt 0.03620911 0.5972054
vt 0.0162468 0.488208
vt 0.0162468 0.7234569
vt 0.3323708 0.7243862
vt 0.6116066 0.488208
vt 0.7371691 0.4276898
vt 0.594677 0.8075217
vt -0.5980754 0.4276897
vt -0.4555834 0.8075217
vt -0.1669444 0.7875233
vt -0.2742873 0.5445845
vt 0.5445575 0.7875233
vt 0.6518977 0.5445845
vt 0.005325363 0.5515707
vt 0.3722858 0.5515707
vt 0.5278067 0.635775
vt 0.5278067 0.8702511
vt 0.8855263 0.635775
vt 0.8493171 0.8506832
vt 0.7127261 0.1169799
vt 0.7127261 0.4320567
vt 0.2893312 0.4333014
vt -0.08465838 0.1169799
vt 0.3577194 0.3822972
vt 0.3577194 0.6167732
vt 0 0.3822972
vt 0.03620911 0.5972054
vt 0.0162468 0.488208
vt 0.0162468 0.7234569
vt 0.3323708 0.7243862
vt 0.6116066 0.488208
vt 0.7371691 0.4276898
vt 0.594677 0.8075217
vt -0.5980754 0.4276897
vt -0.4555834 0.8075217
vt 0.0001658075 0.7474251
vt -0.04145759 0.5030115
vt 0.3261339 0.7591355
vt 0.382864 0.5182552
vt 0.08621389 0.5145837
vt 0.254332 0.5206233
vt 0 1
vt 0 1
vt 0 1
vt 0 1
vt 0.2621171 0.001731799
vt 0.2642703 0.254842
vt -0.0757798 0.2558419
vt -0.3782881 0.001731799
vt 1.56879 -0.9255343
vt 1.572003 -0.548181
vt 0.9932394 -0.9255343
vt 1.054717 -0.5796725
vt 0.5098684 0.3488838
vt 0.5121036 0.6114599
vt 0.8648724 0.6124973
vt 1.174228 0.3488838
vt 1.649338 -1.538194
vt 1.580122 -1.100144
vt 0.9533881 -1.538194
vt 1.032707 -1.100144
vt -0.189483 0.6169314
vt -0.4285343 0.3603685
vt 0.09183937 0.3603685
vt 0.2661414 0.6396315
vt 0.8009968 0.4810472
vt 0.7937427 0.7618544
vt 0.32203 0.4810472
vt 0.4812995 0.7618544
vt 0.03014612 0.531065
vt 0.0210789 0.8819304
vt 0.4591087 0.8639814
vt 0.8550766 0.531065
vt 0.5047192 1.527095
vt 0.4387565 1.865626
vt 0.1810695 1.881811
vt -0.150486 1.527096
vt -0.07661507 1.865626
vt 0.4563809 0.05690449
vt 0.4478305 0.387776
vt 0.03475824 0.3708502
vt -0.3215451 0.05690449
vt -0.3517972 -0.1208096
vt -0.3590479 0.1599977
vt 0.1271729 -0.1208096
vt -0.04660833 0.1599977
vt 0.4489924 0.6934699
vt 0.7117578 0.4275068
vt 0.1723178 0.4275067
vt -0.02332609 0.7170016
vt -0.08452345 1.865626
vt 0.1731634 1.881811
vt -0.150486 1.527095
vt 0.4308481 1.865626
vt 0.5047192 1.527096
vn 0.8796374 0.4756448 0
vn 0.8796374 0.4756448 0
vn 0.8796374 0.4756448 0
vn 0.8796374 0.4756448 0
vn 0.8796374 0.4756448 0
vn 0.8796374 0.4756448 0
vn 0.01074459 0.37278 0.9278576
vn 0.01074459 0.37278 0.9278576
vn 0.01074459 0.37278 0.9278576
vn 0.01074459 0.37278 0.9278576
vn 0.0003652801 0.3577349 0.9338232
vn 0.0003652801 0.3577349 0.9338232
vn 0.0003652801 0.3577349 0.9338232
vn 0.0003652801 0.3577349 0.9338232
vn 0.01073618 0.3727797 -0.9278578
vn 0.01073618 0.3727797 -0.9278578
vn 0.01073618 0.3727797 -0.9278578
vn 0.01073618 0.3727797 -0.9278578
vn 0.0003652826 0.3577314 -0.9338245
vn 0.0003652826 0.3577314 -0.9338245
vn 0.0003652826 0.3577314 -0.9338245
vn 0.0003652826 0.3577314 -0.9338245
vn -0.6560259 0.7547383 0
vn -0.6560259 0.7547383 0
vn -0.6560259 0.7547383 0
vn -0.6560259 0.7547383 0
vn -0.8792989 0.4762704 -0.0002447364
vn -0.8792989 0.4762704 -0.0002447364
vn -0.8792989 0.4762704 -0.0002447364
vn -0.8792989 0.4762704 -0.0002447364
vn -0.8792989 0.4762704 -0.0002447364
vn -0.8792989 0.4762704 -0.0002447364
vn -0.01036609 0.3724736 -0.927985
vn -0.01036609 0.3724736 -0.927985
vn -0.01036609 0.3724736 -0.927985
vn -0.01036609 0.3724736 -0.927985
vn -1.197599E-05 0.3574354 -0.9339378
vn -1.197599E-05 0.3574354 -0.9339378
vn -1.197599E-05 0.3574354 -0.9339378
vn -1.197599E-05 0.3574354 -0.9339378
vn -0.0105924 0.3730813 0.9277382
vn -0.0105924 0.3730813 0.9277382
vn -0.0105924 0.3730813 0.9277382
vn -0.0105924 0.3730813 0.9277382
vn -0.0002232024 0.3580386 0.9337067
vn -0.0002232024 0.3580386 0.9337067
vn -0.0002232024 0.3580386 0.9337067
vn -0.0002232024 0.3580386 0.9337067
vn 0.6565889 0.7542487 -0.0001664862
vn 0.6565889 0.7542487 -0.0001664862
vn 0.6565889 0.7542487 -0.0001664862
vn 0.6565889 0.7542487 -0.0001664862
vn -0.0210561 0.4756613 0.8793765
vn -0.0210561 0.4756613 0.8793765
vn -0.0210561 0.4756613 0.8793765
vn -0.0210561 0.4756613 0.8793765
vn -0.0210561 0.4756613 0.8793765
vn -0.0210561 0.4756613 0.8793765
vn -0.9278787 0.3727058 -0.01147062
vn -0.9278787 0.3727058 -0.01147062
vn -0.9278787 0.3727058 -0.01147062
vn -0.9278787 0.3727058 -0.01147062
vn -0.9335653 0.3577324 -0.02198752
vn -0.9335653 0.3577324 -0.02198752
vn -0.9335653 0.3577324 -0.02198752
vn -0.9335653 0.3577324 -0.02198752
vn 0.9273322 0.3727877 0.03292828
vn 0.9273322 0.3727877 0.03292828
vn 0.9273322 0.3727877 0.03292828
vn 0.9273322 0.3727877 0.03292828
vn 0.9335476 0.3577325 0.02272152
vn 0.9335476 0.3577325 0.02272152
vn 0.9335476 0.3577325 0.02272152
vn 0.9335476 0.3577325 0.02272152
vn 0.01570547 0.7547374 -0.655839
vn 0.01570547 0.7547374 -0.655839
vn 0.01570547 0.7547374 -0.655839
vn 0.01570547 0.7547374 -0.655839
vn 0.9317592 0.3550941 0.07571538
vn 0.9317592 0.3550941 0.07571538
vn 0.9317592 0.3550941 0.07571538
vn 0.9317592 0.3550941 0.07571538
vn 0.9391288 0.3367653 0.06801642
vn 0.9391288 0.3367653 0.06801642
vn 0.9391288 0.3367653 0.06801642
vn 0.9391288 0.3367653 0.06801642
vn 0.9357306 0.347073 0.06283766
vn 0.9357306 0.347073 0.06283766
vn 0.9357306 0.347073 0.06283766
vn 0.9357306 0.347073 0.06283766
vn 0.03474545 0.7491461 -0.6614928
vn 0.02085455 0.7586889 -0.6511194
vn 0.04757242 0.7524768 -0.6568984
vn 0.06091996 0.7491485 -0.6595948
vn 0.07319328 0.758693 -0.6473235
vn -0.9350262 0.347063 -0.07261824
vn -0.9350262 0.347063 -0.07261824
vn -0.9350262 0.347063 -0.07261824
vn -0.9350262 0.347063 -0.07261824
vn -0.9391165 0.3368048 -0.06799122
vn -0.9391165 0.3368048 -0.06799122
vn -0.9391165 0.3368048 -0.06799122
vn -0.9391165 0.3368048 -0.06799122
vn -0.9329593 0.3550659 -0.05928954
vn -0.9329593 0.3550659 -0.05928954
vn -0.9329593 0.3550659 -0.05928954
vn -0.9329593 0.3550659 -0.05928954
vn -0.1175256 0.7110054 0.6932957
vn -0.05203252 0.6933537 0.7187165
vn -0.08622244 0.6831509 0.7251692
vn 0.01645744 0.7110005 0.7029988
vn -0.01913799 0.6831492 0.730028
g D4_windowCar_geo_0
f 5/5/5 1/1/1 2/2/2
f 3/3/3 1/1/1 5/5/5
f 6/6/6 3/3/3 5/5/5
f 4/4/4 3/3/3 6/6/6
f 10/10/10 7/7/7 9/9/9
f 8/8/8 7/7/7 10/10/10
f 12/12/12 14/14/14 11/11/11
f 13/13/13 14/14/14 12/12/12
f 18/18/18 15/15/15 16/16/16
f 17/17/17 15/15/15 18/18/18
f 20/20/20 22/22/22 21/21/21
f 19/19/19 22/22/22 20/20/20
f 24/24/24 25/25/25 23/23/23
f 26/26/26 25/25/25 24/24/24
f 27/27/27 28/28/28 31/31/31
f 32/32/32 27/27/27 31/31/31
f 29/29/29 27/27/27 32/32/32
f 30/30/30 29/29/29 32/32/32
f 36/36/36 33/33/33 35/35/35
f 34/34/34 33/33/33 36/36/36
f 38/38/38 40/40/40 37/37/37
f 39/39/39 40/40/40 38/38/38
f 44/44/44 41/41/41 42/42/42
f 43/43/43 41/41/41 44/44/44
f 46/46/46 48/48/48 47/47/47
f 45/45/45 48/48/48 46/46/46
f 50/50/50 51/51/51 49/49/49
f 52/52/52 51/51/51 50/50/50
f 53/53/53 54/54/54 57/57/57
f 58/58/58 53/53/53 57/57/57
f 55/55/55 53/53/53 58/58/58
f 56/56/56 55/55/55 58/58/58
f 62/62/62 59/59/59 61/61/61
f 60/60/60 59/59/59 62/62/62
f 64/64/64 66/66/66 63/63/63
f 65/65/65 66/66/66 64/64/64
f 70/70/70 67/67/67 68/68/68
f 69/69/69 67/67/67 70/70/70
f 72/72/72 74/74/74 73/73/73
f 71/71/71 74/74/74 72/72/72
f 76/76/76 77/77/77 75/75/75
f 78/78/78 77/77/77 76/76/76
f 79/79/79 81/81/81 82/82/82
f 80/80/80 81/81/81 79/79/79
f 86/86/86 83/83/83 84/84/84
f 85/85/85 83/83/83 86/86/86
f 88/88/88 90/90/90 89/89/89
f 87/87/87 90/90/90 88/88/88
f 93/93/93 91/91/91 92/92/92
f 94/94/94 91/91/91 93/93/93
f 95/95/95 94/94/94 93/93/93
f 97/97/97 99/99/99 96/96/96
f 98/98/98 99/99/99 97/97/97
f 103/103/103 100/100/100 102/102/102
f 101/101/101 100/100/100 103/103/103
f 104/104/104 106/106/106 105/105/105
f 107/107/107 106/106/106 104/104/104
f 109/109/109 112/112/112 111/111/111
f 110/110/110 112/112/112 109/109/109
f 108/108/108 110/110/110 109/109/109
