g D5_billboardBush_geo
v -139.1062 1.749552 193.9532
v -141.6172 1.749552 198.1458
v -139.1062 6.95458 193.9532
v -141.6172 6.954579 198.1458
v -140.949 1.748744 197.752
v -140.949 4.0684 197.752
v -143.7755 4.0684 199.3635
v -143.7755 1.748744 199.3635
v -136.3258 1.755699 193.2763
v -139.7263 1.755699 196.3222
v -136.3258 4.903649 193.2763
v -139.7263 4.903649 196.3222
v -157.6398 1.735846 225.0127
v -162.3591 1.735846 230.3492
v -157.6398 4.895024 225.0127
v -162.3591 4.895024 230.3491
v -167.0248 1.730608 232.415
v -172.6078 1.730608 238.8418
v -167.0248 4.12715 232.415
v -172.6077 4.12715 238.8418
v -162.192 1.777007 229.6869
v -167.2527 1.777007 232.988
v -162.192 4.725627 229.6869
v -167.2527 4.725626 232.988
v -172.2309 1.746802 237.4449
v -176.6528 1.746802 241.1225
v -172.2309 7.872345 237.4449
v -176.6528 7.872345 241.1225
v -189.1413 2.246411 243.5468
v -197.839 3.345464 245.7559
v -189.1413 4.777766 243.5468
v -197.839 5.876819 245.7559
v -184.4637 1.756527 241.3809
v -189.999 2.148906 243.2847
v -184.4637 4.62045 241.3809
v -189.999 5.012831 243.2847
v -175.133 1.748468 241.8385
v -182.7011 1.748468 242.0702
v -175.133 5.106209 241.8385
v -182.701 5.10621 242.0702
v -181.9476 1.768563 241.6235
v -186.4695 1.736283 242.7234
v -181.9706 4.977543 241.6235
v -186.4924 4.945264 242.7234
v -193.9509 3.31701 247.3176
v -203.6447 3.313988 247.8361
v -193.9508 7.629928 247.3176
v -203.6447 7.626906 247.8361
v -158.787 1.790459 229.9165
v -158.787 5.305448 229.9165
v -156.7099 5.305448 223.8725
v -156.7099 1.79046 223.8725
v -159.6507 1.79046 230.0506
v -163.2181 1.79046 233.0452
v -159.6507 6.57501 230.0506
v -163.2181 6.57501 233.0452
v -139.5821 1.745224 198.6452
v -142.6204 1.681898 203.2817
v -139.3275 7.429031 198.8897
v -142.3659 7.365705 203.5262
v -133.5393 1.760306 195.0311
v -139.2725 1.697501 199.8307
v -133.5302 4.644931 195.0798
v -139.2634 4.582125 199.8793
vt 0.002221741 1.037909
vt 0.4119354 1.037909
vt 0.002221741 1.49278
vt 0.39608 1.49278
vt 0.3968211 1.326789
vt 0.3968211 1.497952
vt 0.5954343 1.497952
vt 0.5954343 1.326789
vt -0.002610027 1.500536
vt 0.3268212 1.500536
vt -0.002610027 1.733353
vt 0.3268212 1.733353
vt 0.4736867 1.738412
vt 0.9966328 1.738412
vt 0.4736867 1.993683
vt 0.9966328 1.993683
vt 0.3968211 1.326789
vt 0.9926597 1.326789
vt 0.3968211 1.497952
vt 0.9926597 1.497952
vt 0.3242259 1.501435
vt 0.7844331 1.501435
vt 0.3242259 1.735291
vt 0.7844331 1.735291
vt 0.002221741 1.037909
vt 0.4119354 1.037909
vt 0.002221741 1.49278
vt 0.39608 1.49278
vt 0.3968211 1.326789
vt 0.9926597 1.326789
vt 0.3968211 1.497952
vt 0.9926597 1.497952
vt 0.3242259 1.501435
vt 0.7844331 1.501435
vt 0.3242259 1.735291
vt 0.7844331 1.735291
vt 0.4736867 1.738412
vt 0.9966328 1.738412
vt 0.4736867 1.993683
vt 0.9966328 1.993683
vt -0.002610027 1.500536
vt 0.3268212 1.500536
vt -0.002610027 1.733353
vt 0.3268212 1.733353
vt 0.4736867 1.738412
vt 0.9966328 1.738412
vt 0.4736867 1.993683
vt 0.9966328 1.993683
vt 0.4656537 1.738412
vt 0.4656537 1.987088
vt 0.1534779 1.987088
vt 0.1534779 1.738412
vt 0.002221741 1.037909
vt 0.4119354 1.037909
vt 0.002221741 1.49278
vt 0.39608 1.49278
vt 0.002221741 1.037909
vt 0.4119354 1.037909
vt 0.002221741 1.49278
vt 0.39608 1.49278
vt -0.002610027 1.738412
vt 0.4656537 1.738412
vt -0.002610027 1.987088
vt 0.4656537 1.987088
vn -0.8579047 1.300565E-06 -0.513809
vn -0.8579047 1.300565E-06 -0.513809
vn -0.8579047 1.300565E-06 -0.513809
vn -0.8579047 1.300565E-06 -0.513809
vn -0.495303 0 -0.8687203
vn -0.495303 0 -0.8687203
vn -0.495303 0 -0.8687203
vn -0.495303 0 -0.8687203
vn -0.667204 3.479279E-06 -0.7448751
vn -0.667204 3.479279E-06 -0.7448751
vn -0.667204 3.479279E-06 -0.7448751
vn -0.667204 3.479279E-06 -0.7448751
vn -0.7490965 1.874829E-06 -0.6624609
vn -0.7490965 1.874829E-06 -0.6624609
vn -0.7490965 1.874829E-06 -0.6624609
vn -0.7490965 1.874829E-06 -0.6624609
vn -0.7549368 0 -0.6557975
vn -0.7549368 0 -0.6557975
vn -0.7549368 0 -0.6557975
vn -0.7549368 0 -0.6557975
vn -0.5463362 -3.806202E-06 -0.8375659
vn -0.5463362 -3.806202E-06 -0.8375659
vn -0.5463362 -3.806202E-06 -0.8375659
vn -0.5463362 -3.806202E-06 -0.8375659
vn -0.6394288 0 -0.7688503
vn -0.6394288 0 -0.7688503
vn -0.6394288 0 -0.7688503
vn -0.6394288 0 -0.7688503
vn -0.2461711 0 -0.9692264
vn -0.2461711 0 -0.9692264
vn -0.2461711 0 -0.9692264
vn -0.2461711 0 -0.9692264
vn -0.3252399 0 -0.9456316
vn -0.3252399 0 -0.9456316
vn -0.3252399 0 -0.9456316
vn -0.3252399 0 -0.9456316
vn -0.0306036 0 -0.9995316
vn -0.0306036 0 -0.9995316
vn -0.0306036 0 -0.9995316
vn -0.0306036 0 -0.9995316
vn -0.2363337 -0.001688241 -0.9716704
vn -0.2363337 -0.001688241 -0.9716704
vn -0.2363337 -0.001688241 -0.9716704
vn -0.2363337 -0.001688241 -0.9716704
vn -0.05341006 1.492768E-07 -0.9985727
vn -0.05341006 1.492768E-07 -0.9985727
vn -0.05341006 1.492768E-07 -0.9985727
vn -0.05341006 1.492768E-07 -0.9985727
vn -0.9457133 -4.451557E-06 -0.3250021
vn -0.9457133 -4.451557E-06 -0.3250021
vn -0.9457133 -4.451557E-06 -0.3250021
vn -0.9457133 -4.451557E-06 -0.3250021
vn -0.6429423 0 -0.7659146
vn -0.6429423 0 -0.7659146
vn -0.6429423 0 -0.7659146
vn -0.6429423 0 -0.7659146
vn -0.835233 0.06090395 -0.546513
vn -0.835233 0.06090395 -0.546513
vn -0.835233 0.06090395 -0.546513
vn -0.835233 0.06090395 -0.546513
vn -0.6419333 0.01497085 -0.7666144
vn -0.6419333 0.01497085 -0.7666144
vn -0.6419333 0.01497085 -0.7666144
vn -0.6419333 0.01497085 -0.7666144
g D5_billboardBush_geo_0
f 4/4/4 1/1/1 2/2/2
f 3/3/3 1/1/1 4/4/4
f 7/7/7 5/5/5 8/8/8
f 6/6/6 5/5/5 7/7/7
f 12/12/12 9/9/9 10/10/10
f 11/11/11 9/9/9 12/12/12
f 16/16/16 13/13/13 14/14/14
f 15/15/15 13/13/13 16/16/16
f 20/20/20 17/17/17 18/18/18
f 19/19/19 17/17/17 20/20/20
f 24/24/24 21/21/21 22/22/22
f 23/23/23 21/21/21 24/24/24
f 28/28/28 25/25/25 26/26/26
f 27/27/27 25/25/25 28/28/28
f 32/32/32 29/29/29 30/30/30
f 31/31/31 29/29/29 32/32/32
f 36/36/36 33/33/33 34/34/34
f 35/35/35 33/33/33 36/36/36
f 40/40/40 37/37/37 38/38/38
f 39/39/39 37/37/37 40/40/40
f 44/44/44 41/41/41 42/42/42
f 43/43/43 41/41/41 44/44/44
f 48/48/48 45/45/45 46/46/46
f 47/47/47 45/45/45 48/48/48
f 50/50/50 52/52/52 49/49/49
f 51/51/51 52/52/52 50/50/50
f 56/56/56 53/53/53 54/54/54
f 55/55/55 53/53/53 56/56/56
f 60/60/60 57/57/57 58/58/58
f 59/59/59 57/57/57 60/60/60
f 64/64/64 61/61/61 62/62/62
f 63/63/63 61/61/61 64/64/64
