g D5_collisionGround_grass_geo
v -163.7521 1.782903 202.4749
v -165.7589 1.782903 208.9436
v -169.7379 1.782903 216.6324
v -175.3009 1.75117 223.5315
v -181.7808 1.782903 227.5531
v -199.5175 1.782902 193.6877
v -196.2586 1.782904 225.3038
v -163.7521 1.782903 193.6877
v -123.0305 1.782904 208.3217
v -153.3934 1.782903 237.6579
v -120.0535 3.516736 216.97
v -153.8539 4.937456 244.4909
v -65.01008 -0.8037533 235.2957
v -119.6001 1.782901 226.5094
v -152.8046 1.782902 252.4518
v -191.6006 1.782904 254.9598
v -87.46767 2.15476 210.4314
v -89.18 6.033134 215.6608
v -90.12505 -0.3869091 223.6507
v -65.01007 -9.155273E-07 221.1128
v -65.01007 1.712144 205.3514
v -196.2586 1.782903 241.3038
v -194.4545 5.483902 247.6674
v -200.1935 5.72551 248.5504
v -197.5055 1.782903 259.5523
v -65.01007 2.953079 226.8135
v -65.01007 1.483478 193.6877
v -65.01007 1.445936 198.9034
v -65.01007 4.999408 245.7621
v -90.12505 4.697574 233.8958
v -65.01008 -0.8037533 256.2754
v -90.12505 -0.3869091 243.7477
v -119.6001 4.908105 233.6844
v -152.8046 7.771556 259.3587
v -185.056 5.877204 259.1291
v -119.6001 1.782901 240.1878
v -152.8046 1.782903 265.8622
v -191.6006 1.782904 262.9539
v -153.4563 6.159492 269.2974
v -191.1414 6.725362 265.7516
v -197.366 5.931462 264.3278
v -151.173 1.782903 274.708
v -185.9893 1.782904 276.6211
v -197.2502 1.782903 271.4945
v -165.9152 6.862397 267.5245
v -193.8915 5.473086 276.9015
v -191.7145 1.782903 280.455
v -92.59035 1.547207 201.9869
v -95.81663 1.583286 193.6877
v -124.8118 1.664001 201.0133
v -126.6232 1.683095 193.6877
v -187.51 1.782904 193.6877
v -186.4737 1.782903 198.0813
v -186.9043 1.782903 200.5297
v -188.1016 1.782903 203.3074
v -190.0296 1.75117 205.8566
v -192.2196 1.782903 208.3044
v -194.832 1.782903 209.8297
v -197.8881 1.782903 210.8766
v -173.0418 1.782903 239.3291
v -171.7268 1.782903 238.2722
v -168.1189 1.782903 235.8996
v -163.9183 1.782903 232.2142
v -159.3811 1.782903 226.6213
v -156.6081 1.782903 221.3282
v -155.5579 1.782903 218.7907
v -141.557 1.782903 205.1727
v -141.9238 1.726379 201.7801
v -142.4716 1.734442 193.6877
vt 0 1
vt 0 1
vt 0 1
vt 0 1
vt 0 1
vt 0 1
vt 0 1
vt 0 1
vt 0 1
vt 0 1
vt 0 1
vt 0 1
vt 0 1
vt 0 1
vt 0 1
vt 0 1
vt 0 1
vt 0 1
vt 0 1
vt 0 1
vt 0 1
vt 0 1
vt 0 1
vt 0 1
vt 0 1
vt 0 1
vt 0 1
vt 0 1
vt 0 1
vt 0 1
vt 0 1
vt 0 1
vt 0 1
vt 0 1
vt 0 1
vt 0 1
vt 0 1
vt 0 1
vt 0 1
vt 0 1
vt 0 1
vt 0 1
vt 0 1
vt 0 1
vt 0 1
vt 0 1
vt 0 1
vt 0 1
vt 0 1
vt 0 1
vt 0 1
vt 0 1
vt 0 1
vt 0 1
vt 0 1
vt 0 1
vt 0 1
vt 0 1
vt 0 1
vt 0 1
vt 0 1
vt 0 1
vt 0 1
vt 0 1
vt 0 1
vt 0 1
vt 0 1
vt 0 1
vt 0 1
vn 0 1 0
vn 0 1 0
vn -0.002927762 0.9999877 0.00400963
vn 0.002319939 0.9999942 0.002520974
vn 0.005247586 0.9999851 -0.00148875
vn 0.0005154675 0.9999998 0.0005602076
vn 0.1251398 0.9907396 0.05267768
vn 0 1 0
vn -0.09371904 0.9653167 -0.2436812
vn -0.04365696 0.9935926 -0.1042486
vn -0.01239253 0.9998747 -0.009846084
vn -0.00208484 0.9995942 -0.02841057
vn -0.2752678 0.7919791 0.544974
vn 0.1631884 0.8824931 0.441107
vn 0.1908869 0.8896802 0.4147665
vn 0.01512785 0.8691948 0.4942383
vn 0.06445303 0.9588373 -0.2765443
vn 0.04428857 0.997781 0.04971492
vn -0.02547855 0.7923492 0.6095355
vn 0.1601214 0.9608744 -0.2260117
vn 0.06717643 0.9977251 -0.005662701
vn -0.04922915 0.928555 -0.3679159
vn -0.02959175 0.9995535 -0.004137152
vn -0.09512411 0.9953277 -0.01655802
vn 0.1101239 0.9122555 0.3945409
vn -0.01871273 0.9976994 0.06515779
vn 0.004390801 0.9999784 0.004891884
vn 0.01038872 0.9997793 -0.01826407
vn 0.01909639 0.9998114 0.003543771
vn -0.0522231 0.9986311 0.002961193
vn -0.177004 0.877279 0.4461515
vn -0.0323484 0.9640731 0.2636601
vn 0.1092317 0.9938314 0.01917062
vn -0.005100034 0.9999173 0.01181526
vn -0.1951817 0.9803477 0.02867629
vn 0.1105177 0.9707673 0.2130649
vn -0.02498937 0.9893438 -0.1434382
vn 0.02858325 0.9207314 -0.3891487
vn 0.007999367 0.976353 -0.2160345
vn 0.02069982 0.9704259 -0.2405101
vn -0.2191683 0.9744371 -0.04937411
vn 0.2344125 0.8433966 0.4834594
vn 0.1017852 0.9426998 0.3177371
vn 0.03572821 0.9966357 -0.07376091
vn 0.04787866 0.9632043 -0.2644712
vn 0.2907188 0.9539722 -0.07361696
vn 0.3722681 0.7880168 0.490353
vn 0.0008185584 0.9997223 -0.02354762
vn 0.00333816 0.9999911 0.002622074
vn 0.003401895 0.9999664 -0.007459036
vn 0.003400167 0.9999932 0.001422932
vn 0 1 1.598335E-07
vn 0 1 0
vn 0 1 0
vn -0.002447677 0.9999921 0.003127923
vn 0.0003516506 0.9999989 0.001416521
vn 0.004093099 0.9999883 -0.00257635
vn 0 1 0
vn 0 1 0
vn -0.01740271 0.9718333 -0.2350258
vn 0 1 0
vn 0.0001876015 0.9999994 -0.001135244
vn -0.0008033509 0.9999994 -0.0007741615
vn -0.0008435109 0.9999996 0.0002380725
vn 0 1 0
vn 0 1 0
vn 0.001564166 0.9999472 -0.01016431
vn 0.002902599 0.9999771 -0.006113699
vn 0.002710888 0.9999962 0.000532041
g D5_collisionGround_grass_geo_0
f 17/17/17 21/21/21 28/28/28
f 20/20/20 21/21/21 17/17/17
f 18/18/18 20/20/20 17/17/17
f 26/26/26 20/20/20 18/18/18
f 19/19/19 26/26/26 18/18/18
f 13/13/13 26/26/26 19/19/19
f 30/30/30 13/13/13 19/19/19
f 29/29/29 13/13/13 30/30/30
f 32/32/32 29/29/29 30/30/30
f 31/31/31 29/29/29 32/32/32
f 11/11/11 19/19/19 18/18/18
f 14/14/14 19/19/19 11/11/11
f 12/12/12 14/14/14 11/11/11
f 15/15/15 14/14/14 12/12/12
f 16/16/16 15/15/15 12/12/12
f 35/35/35 15/15/15 16/16/16
f 25/25/25 35/35/35 16/16/16
f 38/38/38 35/35/35 25/25/25
f 41/41/41 38/38/38 25/25/25
f 40/40/40 38/38/38 41/41/41
f 44/44/44 40/40/40 41/41/41
f 43/43/43 40/40/40 44/44/44
f 46/46/46 43/43/43 44/44/44
f 47/47/47 43/43/43 46/46/46
f 58/58/58 6/6/6 59/59/59
f 7/7/7 58/58/58 59/59/59
f 5/5/5 58/58/58 7/7/7
f 61/61/61 5/5/5 7/7/7
f 62/62/62 5/5/5 61/61/61
f 10/10/10 62/62/62 61/61/61
f 63/63/63 62/62/62 10/10/10
f 64/64/64 63/63/63 10/10/10
f 4/4/4 63/63/63 64/64/64
f 3/3/3 4/4/4 64/64/64
f 56/56/56 4/4/4 3/3/3
f 55/55/55 56/56/56 3/3/3
f 6/6/6 56/56/56 55/55/55
f 54/54/54 6/6/6 55/55/55
f 53/53/53 6/6/6 54/54/54
f 1/1/1 53/53/53 54/54/54
f 8/8/8 53/53/53 1/1/1
f 69/69/69 8/8/8 1/1/1
f 52/52/52 53/53/53 8/8/8
f 6/6/6 53/53/53 52/52/52
f 23/23/23 16/16/16 12/12/12
f 60/60/60 23/23/23 12/12/12
f 22/22/22 23/23/23 60/60/60
f 7/7/7 22/22/22 60/60/60
f 16/16/16 24/24/24 25/25/25
f 23/23/23 24/24/24 16/16/16
f 14/14/14 30/30/30 19/19/19
f 32/32/32 30/30/30 14/14/14
f 33/33/33 32/32/32 14/14/14
f 36/36/36 32/32/32 33/33/33
f 34/34/34 36/36/36 33/33/33
f 37/37/37 36/36/36 34/34/34
f 35/35/35 37/37/37 34/34/34
f 38/38/38 37/37/37 35/35/35
f 45/45/45 38/38/38 40/40/40
f 37/37/37 38/38/38 45/45/45
f 39/39/39 37/37/37 45/45/45
f 36/36/36 37/37/37 39/39/39
f 42/42/42 36/36/36 39/39/39
f 45/45/45 42/42/42 39/39/39
f 43/43/43 42/42/42 45/45/45
f 40/40/40 43/43/43 45/45/45
f 2/2/2 54/54/54 55/55/55
f 1/1/1 54/54/54 2/2/2
f 66/66/66 1/1/1 2/2/2
f 67/67/67 1/1/1 66/66/66
f 9/9/9 67/67/67 66/66/66
f 50/50/50 67/67/67 9/9/9
f 48/48/48 50/50/50 9/9/9
f 49/49/49 50/50/50 48/48/48
f 27/27/27 49/49/49 48/48/48
f 48/48/48 28/28/28 27/27/27
f 17/17/17 28/28/28 48/48/48
f 9/9/9 17/17/17 48/48/48
f 11/11/11 17/17/17 9/9/9
f 10/10/10 11/11/11 9/9/9
f 12/12/12 11/11/11 10/10/10
f 60/60/60 12/12/12 10/10/10
f 68/68/68 1/1/1 67/67/67
f 50/50/50 68/68/68 67/67/67
f 51/51/51 68/68/68 50/50/50
f 49/49/49 51/51/51 50/50/50
f 69/69/69 68/68/68 51/51/51
f 1/1/1 68/68/68 69/69/69
f 66/66/66 10/10/10 9/9/9
f 65/65/65 10/10/10 66/66/66
f 2/2/2 65/65/65 66/66/66
f 3/3/3 65/65/65 2/2/2
f 55/55/55 3/3/3 2/2/2
f 4/4/4 62/62/62 63/63/63
f 5/5/5 62/62/62 4/4/4
f 57/57/57 5/5/5 4/4/4
f 58/58/58 5/5/5 57/57/57
f 6/6/6 58/58/58 57/57/57
f 56/56/56 57/57/57 4/4/4
f 6/6/6 57/57/57 56/56/56
f 64/64/64 65/65/65 3/3/3
f 10/10/10 65/65/65 64/64/64
f 60/60/60 61/61/61 7/7/7
f 10/10/10 61/61/61 60/60/60
f 11/11/11 18/18/18 17/17/17
f 15/15/15 33/33/33 14/14/14
f 34/34/34 33/33/33 15/15/15
f 35/35/35 34/34/34 15/15/15
