g deadBoltC_geo
v 0.1195835 -0.04166552 -0.08688251
v 0.0456768 -0.04166552 -0.1405788
v -0.04567688 -0.04166552 -0.1405788
v -0.1195835 -0.04166552 -0.08688251
v -0.1478133 -0.04166552 7.127733E-09
v -0.1195835 -0.04166552 0.08688251
v -0.04567688 -0.04166552 0.1405788
v 0.04567688 -0.04166552 0.1405788
v 0.1195835 -0.04166552 0.08688251
v 0.1478133 -0.04166552 0
v 0.1195835 0.04166552 -0.08688251
v 0.0456768 0.04166552 -0.1405788
v -0.04567688 0.04166552 -0.1405788
v -0.1195835 0.04166552 -0.08688251
v -0.1478133 0.04166552 7.127733E-09
v -0.1195835 0.04166552 0.08688251
v -0.04567688 0.04166552 0.1405788
v 0.04567688 0.04166552 0.1405788
v 0.1195835 0.04166552 0.08688251
v 0.1478133 0.04166552 0
v 0.07996918 -0.06131897 -0.05810101
v 0.0305455 -0.06131897 -0.0940094
v -0.0305455 -0.06131897 -0.0940094
v -0.07996918 -0.06131897 -0.05810101
v -0.09884735 -0.06131897 4.766534E-09
v -0.07996918 -0.06131897 0.05810101
v -0.0305455 -0.06131897 0.0940094
v 0.0305455 -0.06131897 0.0940094
v 0.07996918 -0.06131897 0.05810101
v 0.09884735 -0.06131897 0
v 0.07996918 0.06131897 -0.05810101
v 0.0305455 0.06131897 -0.0940094
v -0.0305455 0.06131897 -0.0940094
v -0.07996918 0.06131897 -0.05810101
v -0.09884735 0.06131897 4.766534E-09
v -0.07996918 0.06131897 0.05810101
v -0.0305455 0.06131897 0.0940094
v 0.0305455 0.06131897 0.0940094
v 0.07996918 0.06131897 0.05810101
v 0.09884735 0.06131897 0
v 0.0627977 -0.06131897 -0.04562523
v 0.02398659 -0.06131897 -0.07382316
v -0.02398659 -0.06131897 -0.07382316
v -0.06279778 -0.06131897 -0.04562523
v -0.07762222 -0.06131897 3.743039E-09
v -0.06279778 -0.06131897 0.04562523
v -0.02398659 -0.06131897 0.07382316
v 0.02398659 -0.06131897 0.07382316
v 0.06279778 -0.06131897 0.04562523
v 0.07762222 -0.06131897 0
v 0.0627977 0.06131897 -0.04562523
v 0.02398659 0.06131897 -0.07382316
v -0.02398659 0.06131897 -0.07382316
v -0.06279778 0.06131897 -0.04562523
v -0.07762222 0.06131897 3.743039E-09
v -0.06279778 0.06131897 0.04562523
v -0.02398659 0.06131897 0.07382316
v 0.02398659 0.06131897 0.07382316
v 0.06279778 0.06131897 0.04562523
v 0.07762222 0.06131897 0
v 0.0456768 -0.04166552 -0.1405788
v 0.1195835 -0.04166552 -0.08688251
v -0.04567688 -0.04166552 -0.1405788
v -0.1195835 -0.04166552 -0.08688251
v -0.1478133 -0.04166552 7.127733E-09
v -0.1195835 -0.04166552 0.08688251
v -0.04567688 -0.04166552 0.1405788
v 0.04567688 -0.04166552 0.1405788
v 0.1195835 -0.04166552 0.08688251
v 0.1478133 -0.04166552 0
v 0.1195835 0.04166552 -0.08688251
v 0.0456768 0.04166552 -0.1405788
v -0.04567688 0.04166552 -0.1405788
v -0.1195835 0.04166552 -0.08688251
v -0.1478133 0.04166552 7.127733E-09
v -0.1195835 0.04166552 0.08688251
v -0.04567688 0.04166552 0.1405788
v 0.04567688 0.04166552 0.1405788
v 0.1195835 0.04166552 0.08688251
v 0.1478133 0.04166552 0
v -0.0305455 -0.06131897 -0.0940094
v 0.0305455 -0.06131897 -0.0940094
v -0.09884735 -0.06131897 4.766534E-09
v -0.07996918 -0.06131897 -0.05810101
v -0.0305455 -0.06131897 0.0940094
v -0.07996918 -0.06131897 0.05810101
v 0.07996918 -0.06131897 0.05810101
v 0.0305455 -0.06131897 0.0940094
v 0.07996918 -0.06131897 -0.05810101
v 0.09884735 -0.06131897 0
v 0.0305455 0.06131897 -0.0940094
v -0.0305455 0.06131897 -0.0940094
v -0.07996918 0.06131897 -0.05810101
v -0.09884735 0.06131897 4.766534E-09
v -0.07996918 0.06131897 0.05810101
v -0.0305455 0.06131897 0.0940094
v 0.0305455 0.06131897 0.0940094
v 0.07996918 0.06131897 0.05810101
v 0.09884735 0.06131897 0
v 0.07996918 0.06131897 -0.05810101
v 0.0627977 0.06131897 -0.04562523
v 0.07996918 -0.06131897 -0.05810101
v 0.07996918 0.06131897 -0.05810101
v 0.0627977 -0.06131897 -0.04562523
v 0.0305455 0.06131897 -0.0940094
v 0.02398659 -0.06131897 -0.07382316
v 0.02398659 0.06131897 -0.07382316
v 0.0305455 -0.06131897 -0.0940094
v -0.02398659 0.06131897 -0.07382316
v -0.0305455 -0.06131897 -0.0940094
v -0.0305455 0.06131897 -0.0940094
v -0.02398659 -0.06131897 -0.07382316
v 0.02398659 0.06131897 -0.07382316
v -0.02398659 -0.06131897 -0.07382316
v -0.02398659 0.06131897 -0.07382316
v 0.02398659 -0.06131897 -0.07382316
v -0.07996918 0.06131897 -0.05810101
v -0.06279778 -0.06131897 -0.04562523
v -0.06279778 0.06131897 -0.04562523
v -0.07996918 -0.06131897 -0.05810101
v -0.07762222 0.06131897 3.743039E-09
v -0.09884735 -0.06131897 4.766534E-09
v -0.09884735 0.06131897 4.766534E-09
v -0.07762222 -0.06131897 3.743039E-09
v -0.06279778 0.06131897 -0.04562523
v -0.07762222 -0.06131897 3.743039E-09
v -0.07762222 0.06131897 3.743039E-09
v -0.06279778 -0.06131897 -0.04562523
v -0.07996918 0.06131897 0.05810101
v -0.06279778 -0.06131897 0.04562523
v -0.06279778 0.06131897 0.04562523
v -0.07996918 -0.06131897 0.05810101
v -0.02398659 0.06131897 0.07382316
v -0.0305455 -0.06131897 0.0940094
v -0.0305455 0.06131897 0.0940094
v -0.02398659 -0.06131897 0.07382316
v -0.06279778 0.06131897 0.04562523
v -0.02398659 -0.06131897 0.07382316
v -0.02398659 0.06131897 0.07382316
v -0.06279778 -0.06131897 0.04562523
v 0.0305455 0.06131897 0.0940094
v 0.02398659 -0.06131897 0.07382316
v 0.02398659 0.06131897 0.07382316
v 0.0305455 -0.06131897 0.0940094
v 0.06279778 0.06131897 0.04562523
v 0.07996918 -0.06131897 0.05810101
v 0.07996918 0.06131897 0.05810101
v 0.06279778 -0.06131897 0.04562523
v 0.02398659 0.06131897 0.07382316
v 0.06279778 -0.06131897 0.04562523
v 0.06279778 0.06131897 0.04562523
v 0.02398659 -0.06131897 0.07382316
v 0.09884735 0.06131897 0
v 0.07762222 -0.06131897 0
v 0.07762222 0.06131897 0
v 0.09884735 -0.06131897 0
v 0.07762222 0.06131897 0
v 0.0627977 -0.06131897 -0.04562523
v 0.0627977 0.06131897 -0.04562523
v 0.07762222 -0.06131897 0
v 0.07996918 0.06131897 -0.05810101
v 0.0305455 -0.06131897 -0.0940094
v 0.0305455 0.06131897 -0.0940094
v 0.07996918 -0.06131897 -0.05810101
v -0.0305455 0.06131897 -0.0940094
v -0.07996918 -0.06131897 -0.05810101
v -0.07996918 0.06131897 -0.05810101
v -0.0305455 -0.06131897 -0.0940094
v -0.09884735 0.06131897 4.766534E-09
v -0.07996918 -0.06131897 0.05810101
v -0.07996918 0.06131897 0.05810101
v -0.09884735 -0.06131897 4.766534E-09
v -0.0305455 0.06131897 0.0940094
v 0.0305455 -0.06131897 0.0940094
v 0.0305455 0.06131897 0.0940094
v -0.0305455 -0.06131897 0.0940094
v 0.07996918 0.06131897 0.05810101
v 0.09884735 -0.06131897 0
v 0.09884735 0.06131897 0
v 0.07996918 -0.06131897 0.05810101
vt 0.3162464 0.720906
vt 0.3162464 0.720906
vt 0.3162464 0.720906
vt 0.3162464 0.7209046
vt 0.3162464 0.720906
vt 0.3162464 0.720906
vt 0.3162464 0.720906
vt 0.3162459 0.7209044
vt 0.3162459 0.720906
vt 0.3162461 0.720906
vt 0.3162463 0.720906
vt 0.3162463 0.720906
vt 0.3162463 0.720906
vt 0.3162463 0.7209046
vt 0.3162462 0.720906
vt 0.3162462 0.720906
vt 0.3162462 0.720906
vt 0.3162459 0.7209044
vt 0.3162459 0.720906
vt 0.3162459 0.720906
vt 0.312463 0.7513275
vt 0.312463 0.7513275
vt 0.312463 0.7513275
vt 0.312463 0.7513275
vt 0.312463 0.7513275
vt 0.312463 0.7513275
vt 0.312463 0.7513275
vt 0.312463 0.7513275
vt 0.312463 0.7513275
vt 0.312463 0.7513275
vt 0.3124636 0.7513273
vt 0.3124636 0.7513273
vt 0.3124636 0.7513273
vt 0.3124636 0.7513273
vt 0.3124636 0.7513273
vt 0.3124636 0.7513273
vt 0.312463 0.7513273
vt 0.312463 0.7513273
vt 0.3124636 0.7513273
vt 0.3124636 0.7513273
vt 0.2893292 0.740621
vt 0.2893292 0.740621
vt 0.2893292 0.740621
vt 0.2893292 0.740621
vt 0.2893292 0.740621
vt 0.2893292 0.740621
vt 0.2893292 0.740621
vt 0.2893292 0.740621
vt 0.2893292 0.740621
vt 0.2893292 0.740621
vt 0.2893297 0.7406207
vt 0.2893297 0.7406207
vt 0.2893297 0.7406207
vt 0.2893297 0.7406207
vt 0.2893297 0.7406207
vt 0.2893297 0.7406207
vt 0.2893297 0.7406207
vt 0.2893297 0.7406207
vt 0.2893297 0.7406207
vt 0.2893297 0.7406207
vt 0.312463 0.7513275
vt 0.312463 0.7513275
vt 0.312463 0.7513275
vt 0.312463 0.7513275
vt 0.312463 0.7513274
vt 0.312463 0.7513275
vt 0.312463 0.7513275
vt 0.312463 0.7513275
vt 0.312463 0.7513275
vt 0.312463 0.7513275
vt 0.3124636 0.7513273
vt 0.3124636 0.7513273
vt 0.3124636 0.7513273
vt 0.3124636 0.7513273
vt 0.3124636 0.7513273
vt 0.312463 0.7513273
vt 0.312463 0.7513273
vt 0.312463 0.7513273
vt 0.312463 0.7513273
vt 0.3124636 0.7513273
vt 0.2893292 0.740621
vt 0.2893292 0.740621
vt 0.2893292 0.740621
vt 0.2893292 0.740621
vt 0.2893292 0.740621
vt 0.2893292 0.740621
vt 0.2893292 0.740621
vt 0.2893292 0.740621
vt 0.2893292 0.740621
vt 0.2893292 0.740621
vt 0.2893297 0.7406207
vt 0.2893297 0.7406207
vt 0.2893297 0.7406207
vt 0.2893297 0.7406207
vt 0.2893297 0.7406207
vt 0.2893292 0.7406207
vt 0.2893292 0.7406207
vt 0.2893297 0.7406207
vt 0.2893297 0.7406207
vt 0.2893297 0.7406207
vt 0.301281 0.688448
vt 0.301281 0.6884477
vt 0.301281 0.688448
vt 0.301281 0.6884477
vt 0.301281 0.6884477
vt 0.301281 0.688448
vt 0.301281 0.6884477
vt 0.301281 0.688448
vt 0.301281 0.6884477
vt 0.301281 0.6884477
vt 0.301281 0.6884477
vt 0.301281 0.6884477
vt 0.2882231 0.6977028
vt 0.2882231 0.6977043
vt 0.2882231 0.6977028
vt 0.2882231 0.6977043
vt 0.301281 0.688448
vt 0.301281 0.6884477
vt 0.301281 0.688448
vt 0.301281 0.6884477
vt 0.301281 0.6884477
vt 0.301281 0.6884477
vt 0.301281 0.6884477
vt 0.301281 0.6884477
vt 0.2882231 0.6977028
vt 0.2882231 0.6977043
vt 0.2882231 0.6977028
vt 0.2882231 0.6977043
vt 0.301281 0.688448
vt 0.301281 0.6884477
vt 0.301281 0.688448
vt 0.301281 0.6884477
vt 0.301281 0.6884477
vt 0.301281 0.6884477
vt 0.301281 0.6884477
vt 0.301281 0.6884477
vt 0.2882231 0.6977043
vt 0.2882224 0.6977028
vt 0.2882224 0.6977043
vt 0.2882231 0.6977028
vt 0.301281 0.6884477
vt 0.301281 0.6884477
vt 0.301281 0.6884477
vt 0.301281 0.6884477
vt 0.301281 0.688448
vt 0.301281 0.6884477
vt 0.301281 0.688448
vt 0.301281 0.6884477
vt 0.2882224 0.6977043
vt 0.2882224 0.6977028
vt 0.2882224 0.6977043
vt 0.2882224 0.6977028
vt 0.301281 0.6884477
vt 0.301281 0.6884477
vt 0.301281 0.6884477
vt 0.301281 0.6884477
vt 0.2882224 0.6977028
vt 0.2882224 0.6977026
vt 0.2882224 0.6977028
vt 0.2882224 0.6977026
vt 0.3249581 0.6850293
vt 0.3249581 0.6850299
vt 0.3249581 0.6850293
vt 0.3249581 0.6850299
vt 0.3249584 0.6850293
vt 0.3249581 0.6850299
vt 0.3249581 0.6850293
vt 0.3249584 0.6850299
vt 0.3249584 0.6850293
vt 0.3249584 0.6850299
vt 0.3249584 0.6850293
vt 0.3249584 0.6850299
vt 0.3249581 0.6850299
vt 0.3249581 0.6850293
vt 0.3249581 0.6850299
vt 0.3249581 0.6850293
vt 0.3249584 0.6850293
vt 0.3249584 0.6850293
vt 0.3249584 0.6850293
vt 0.3249584 0.6850293
vn 0.6635447 -0.5720963 -0.4820936
vn 0.2534514 -0.5720963 -0.7800437
vn -0.2534516 -0.5720963 -0.7800437
vn -0.6635449 -0.5720962 -0.4820935
vn -0.8201865 -0.5720963 0
vn -0.6635447 -0.5720963 0.4820935
vn -0.2534517 -0.5720962 0.7800437
vn 0.2534516 -0.5720963 0.7800437
vn 0.6635449 -0.5720963 0.4820935
vn 0.8201865 -0.5720963 0
vn 0.6635447 0.5720963 -0.4820936
vn 0.2534514 0.5720963 -0.7800437
vn -0.2534517 0.5720962 -0.7800437
vn -0.663545 0.572096 -0.4820935
vn -0.8201866 0.5720962 0
vn -0.6635448 0.5720963 0.4820934
vn -0.2534516 0.5720963 0.7800437
vn 0.2534516 0.5720963 0.7800437
vn 0.6635449 0.5720963 0.4820934
vn 0.8201865 0.5720963 0
vn -0.1968064 -0.9691751 -0.1482121
vn 0.2017744 -0.9691751 0.1413744
vn -0.2017744 -0.9691751 0.1413743
vn 0.1968068 -0.9691751 -0.1482117
vn 0.07210334 -0.9691751 0.2355857
vn -0.08014132 -0.9691751 -0.2329741
vn 0.2463365 -0.9691751 0.004226019
vn -0.2463366 -0.9691751 0.004225938
vn 0.08014144 -0.9691751 -0.2329742
vn -0.07210331 -0.9691751 0.2355859
vn -0.1968063 0.9691751 -0.148212
vn 0.2017744 0.9691751 0.1413744
vn -0.2017745 0.9691751 0.1413742
vn 0.1968067 0.9691751 -0.1482118
vn 0.07210322 0.9691751 0.2355858
vn -0.08014132 0.9691751 -0.2329742
vn 0.2463366 0.9691751 0.004225938
vn -0.2463366 0.9691751 0.004225938
vn 0.08014144 0.9691751 -0.2329742
vn -0.07210329 0.9691751 0.2355858
vn -0.8090166 -0.5257312 -0.2628661
vn 0.4999999 -0.525731 0.6881911
vn -0.4999999 -0.525731 0.6881911
vn 0.8090171 -0.5257308 -0.262866
vn 0.5000005 -0.5257314 0.6881904
vn -6.893923E-07 -0.5257311 -0.8506508
vn 0.8090168 -0.5257313 -0.2628658
vn -0.8090168 -0.5257313 -0.2628658
vn 6.893923E-07 -0.5257311 -0.8506508
vn -0.5000001 -0.5257311 0.6881908
vn -0.8090166 0.5257313 -0.2628662
vn 0.4999999 0.525731 0.6881911
vn -0.4999999 0.525731 0.6881911
vn 0.8090171 0.5257307 -0.262866
vn 0.5000006 0.5257314 0.6881905
vn -6.893923E-07 0.5257311 -0.8506508
vn 0.8090168 0.5257313 -0.2628658
vn -0.8090168 0.5257313 -0.2628658
vn 6.893923E-07 0.5257311 -0.8506508
vn -0.5000001 0.5257312 0.6881908
vn 0.2534514 -0.5720963 -0.7800437
vn 0.6635447 -0.5720963 -0.4820936
vn -0.2534516 -0.5720963 -0.7800437
vn -0.6635449 -0.5720962 -0.4820935
vn -0.8201865 -0.5720963 0
vn -0.6635447 -0.5720963 0.4820935
vn -0.2534517 -0.5720962 0.7800437
vn 0.2534516 -0.5720963 0.7800437
vn 0.6635449 -0.5720963 0.4820935
vn 0.8201865 -0.5720963 0
vn 0.6635447 0.5720963 -0.4820936
vn 0.2534514 0.5720963 -0.7800437
vn -0.2534517 0.5720962 -0.7800437
vn -0.663545 0.572096 -0.4820935
vn -0.8201866 0.5720962 0
vn -0.6635448 0.5720963 0.4820934
vn -0.2534516 0.5720963 0.7800437
vn 0.2534516 0.5720963 0.7800437
vn 0.6635449 0.5720963 0.4820934
vn 0.8201865 0.5720963 0
vn -0.2017744 -0.9691751 0.1413743
vn 0.2017744 -0.9691751 0.1413744
vn 0.07210334 -0.9691751 0.2355857
vn 0.1968068 -0.9691751 -0.1482117
vn 0.2463365 -0.9691751 0.004226019
vn -0.08014132 -0.9691751 -0.2329741
vn 0.08014144 -0.9691751 -0.2329742
vn -0.2463366 -0.9691751 0.004225938
vn -0.1968064 -0.9691751 -0.1482121
vn -0.07210331 -0.9691751 0.2355859
vn 0.2017744 0.9691751 0.1413744
vn -0.2017745 0.9691751 0.1413742
vn 0.1968067 0.9691751 -0.1482118
vn 0.07210322 0.9691751 0.2355858
vn -0.08014132 0.9691751 -0.2329742
vn 0.2463366 0.9691751 0.004225938
vn -0.2463366 0.9691751 0.004225938
vn 0.08014144 0.9691751 -0.2329742
vn -0.07210329 0.9691751 0.2355858
vn -0.1968063 0.9691751 -0.148212
vn -0.8090166 0.5257313 -0.2628662
vn -0.1968064 -0.9691751 -0.1482121
vn -0.1968063 0.9691751 -0.148212
vn -0.8090166 -0.5257312 -0.2628661
vn 0.2017744 0.9691751 0.1413744
vn 0.4999999 -0.525731 0.6881911
vn 0.4999999 0.525731 0.6881911
vn 0.2017744 -0.9691751 0.1413744
vn -0.4999999 0.525731 0.6881911
vn -0.2017744 -0.9691751 0.1413743
vn -0.2017745 0.9691751 0.1413742
vn -0.4999999 -0.525731 0.6881911
vn 0.4999999 0.525731 0.6881911
vn -0.4999999 -0.525731 0.6881911
vn -0.4999999 0.525731 0.6881911
vn 0.4999999 -0.525731 0.6881911
vn 0.1968067 0.9691751 -0.1482118
vn 0.8090171 -0.5257308 -0.262866
vn 0.8090171 0.5257307 -0.262866
vn 0.1968068 -0.9691751 -0.1482117
vn 0.5000006 0.5257314 0.6881905
vn 0.07210334 -0.9691751 0.2355857
vn 0.07210322 0.9691751 0.2355858
vn 0.5000005 -0.5257314 0.6881904
vn 0.8090171 0.5257307 -0.262866
vn 0.5000005 -0.5257314 0.6881904
vn 0.5000006 0.5257314 0.6881905
vn 0.8090171 -0.5257308 -0.262866
vn -0.08014132 0.9691751 -0.2329742
vn -6.893923E-07 -0.5257311 -0.8506508
vn -6.893923E-07 0.5257311 -0.8506508
vn -0.08014132 -0.9691751 -0.2329741
vn 0.8090168 0.5257313 -0.2628658
vn 0.2463365 -0.9691751 0.004226019
vn 0.2463366 0.9691751 0.004225938
vn 0.8090168 -0.5257313 -0.2628658
vn -6.893923E-07 0.5257311 -0.8506508
vn 0.8090168 -0.5257313 -0.2628658
vn 0.8090168 0.5257313 -0.2628658
vn -6.893923E-07 -0.5257311 -0.8506508
vn -0.2463366 0.9691751 0.004225938
vn -0.8090168 -0.5257313 -0.2628658
vn -0.8090168 0.5257313 -0.2628658
vn -0.2463366 -0.9691751 0.004225938
vn 6.893923E-07 0.5257311 -0.8506508
vn 0.08014144 -0.9691751 -0.2329742
vn 0.08014144 0.9691751 -0.2329742
vn 6.893923E-07 -0.5257311 -0.8506508
vn -0.8090168 0.5257313 -0.2628658
vn 6.893923E-07 -0.5257311 -0.8506508
vn 6.893923E-07 0.5257311 -0.8506508
vn -0.8090168 -0.5257313 -0.2628658
vn -0.07210329 0.9691751 0.2355858
vn -0.5000001 -0.5257311 0.6881908
vn -0.5000001 0.5257312 0.6881908
vn -0.07210331 -0.9691751 0.2355859
vn -0.5000001 0.5257312 0.6881908
vn -0.8090166 -0.5257312 -0.2628661
vn -0.8090166 0.5257313 -0.2628662
vn -0.5000001 -0.5257311 0.6881908
vn -0.1968063 0.9691751 -0.148212
vn 0.2017744 -0.9691751 0.1413744
vn 0.2017744 0.9691751 0.1413744
vn -0.1968064 -0.9691751 -0.1482121
vn -0.2017745 0.9691751 0.1413742
vn 0.1968068 -0.9691751 -0.1482117
vn 0.1968067 0.9691751 -0.1482118
vn -0.2017744 -0.9691751 0.1413743
vn 0.07210322 0.9691751 0.2355858
vn -0.08014132 -0.9691751 -0.2329741
vn -0.08014132 0.9691751 -0.2329742
vn 0.07210334 -0.9691751 0.2355857
vn 0.2463366 0.9691751 0.004225938
vn -0.2463366 -0.9691751 0.004225938
vn -0.2463366 0.9691751 0.004225938
vn 0.2463365 -0.9691751 0.004226019
vn 0.08014144 0.9691751 -0.2329742
vn -0.07210331 -0.9691751 0.2355859
vn -0.07210329 0.9691751 0.2355858
vn 0.08014144 -0.9691751 -0.2329742
g deadBoltC_geo_0
f 42/42/42 81/81/81 82/82/82
f 43/43/43 81/81/81 42/42/42
f 44/44/44 83/83/83 84/84/84
f 45/45/45 83/83/83 44/44/44
f 46/46/46 85/85/85 86/86/86
f 47/47/47 85/85/85 46/46/46
f 48/48/48 87/87/87 88/88/88
f 49/49/49 87/87/87 48/48/48
f 50/50/50 89/89/89 90/90/90
f 41/41/41 89/89/89 50/50/50
f 53/53/53 91/91/91 92/92/92
f 52/52/52 91/91/91 53/53/53
f 55/55/55 93/93/93 94/94/94
f 54/54/54 93/93/93 55/55/55
f 57/57/57 95/95/95 96/96/96
f 56/56/56 95/95/95 57/57/57
f 59/59/59 97/97/97 98/98/98
f 58/58/58 97/97/97 59/59/59
f 51/51/51 99/99/99 100/100/100
f 60/60/60 99/99/99 51/51/51
f 102/102/102 101/101/101 103/103/103
f 104/104/104 101/101/101 102/102/102
f 106/106/106 105/105/105 107/107/107
f 108/108/108 105/105/105 106/106/106
f 110/110/110 109/109/109 111/111/111
f 112/112/112 109/109/109 110/110/110
f 114/114/114 113/113/113 115/115/115
f 116/116/116 113/113/113 114/114/114
f 118/118/118 117/117/117 119/119/119
f 120/120/120 117/117/117 118/118/118
f 122/122/122 121/121/121 123/123/123
f 124/124/124 121/121/121 122/122/122
f 126/126/126 125/125/125 127/127/127
f 128/128/128 125/125/125 126/126/126
f 130/130/130 129/129/129 131/131/131
f 132/132/132 129/129/129 130/130/130
f 134/134/134 133/133/133 135/135/135
f 136/136/136 133/133/133 134/134/134
f 138/138/138 137/137/137 139/139/139
f 140/140/140 137/137/137 138/138/138
f 142/142/142 141/141/141 143/143/143
f 144/144/144 141/141/141 142/142/142
f 146/146/146 145/145/145 147/147/147
f 148/148/148 145/145/145 146/146/146
f 150/150/150 149/149/149 151/151/151
f 152/152/152 149/149/149 150/150/150
f 154/154/154 153/153/153 155/155/155
f 156/156/156 153/153/153 154/154/154
f 158/158/158 157/157/157 159/159/159
f 160/160/160 157/157/157 158/158/158
f 162/162/162 161/161/161 163/163/163
f 164/164/164 161/161/161 162/162/162
f 166/166/166 165/165/165 167/167/167
f 168/168/168 165/165/165 166/166/166
f 170/170/170 169/169/169 171/171/171
f 172/172/172 169/169/169 170/170/170
f 174/174/174 173/173/173 175/175/175
f 176/176/176 173/173/173 174/174/174
f 178/178/178 177/177/177 179/179/179
f 180/180/180 177/177/177 178/178/178
f 11/11/11 1/1/1 12/12/12
f 10/10/10 1/1/1 11/11/11
f 20/20/20 10/10/10 11/11/11
f 9/9/9 10/10/10 20/20/20
f 19/19/19 9/9/9 20/20/20
f 8/8/8 9/9/9 19/19/19
f 18/18/18 8/8/8 19/19/19
f 7/7/7 8/8/8 18/18/18
f 17/17/17 7/7/7 18/18/18
f 6/6/6 7/7/7 17/17/17
f 16/16/16 6/6/6 17/17/17
f 5/5/5 6/6/6 16/16/16
f 15/15/15 5/5/5 16/16/16
f 4/4/4 5/5/5 15/15/15
f 14/14/14 4/4/4 15/15/15
f 3/3/3 4/4/4 14/14/14
f 13/13/13 3/3/3 14/14/14
f 2/2/2 3/3/3 13/13/13
f 12/12/12 2/2/2 13/13/13
f 1/1/1 2/2/2 12/12/12
f 22/22/22 61/61/61 21/21/21
f 63/63/63 61/61/61 22/22/22
f 23/23/23 63/63/63 22/22/22
f 64/64/64 63/63/63 23/23/23
f 24/24/24 64/64/64 23/23/23
f 65/65/65 64/64/64 24/24/24
f 25/25/25 65/65/65 24/24/24
f 66/66/66 65/65/65 25/25/25
f 26/26/26 66/66/66 25/25/25
f 67/67/67 66/66/66 26/26/26
f 27/27/27 67/67/67 26/26/26
f 68/68/68 67/67/67 27/27/27
f 28/28/28 68/68/68 27/27/27
f 69/69/69 68/68/68 28/28/28
f 29/29/29 69/69/69 28/28/28
f 70/70/70 69/69/69 29/29/29
f 30/30/30 70/70/70 29/29/29
f 62/62/62 70/70/70 30/30/30
f 21/21/21 62/62/62 30/30/30
f 61/61/61 62/62/62 21/21/21
f 31/31/31 71/71/71 32/32/32
f 80/80/80 71/71/71 31/31/31
f 40/40/40 80/80/80 31/31/31
f 79/79/79 80/80/80 40/40/40
f 39/39/39 79/79/79 40/40/40
f 78/78/78 79/79/79 39/39/39
f 38/38/38 78/78/78 39/39/39
f 77/77/77 78/78/78 38/38/38
f 37/37/37 77/77/77 38/38/38
f 76/76/76 77/77/77 37/37/37
f 36/36/36 76/76/76 37/37/37
f 75/75/75 76/76/76 36/36/36
f 35/35/35 75/75/75 36/36/36
f 74/74/74 75/75/75 35/35/35
f 34/34/34 74/74/74 35/35/35
f 73/73/73 74/74/74 34/34/34
f 33/33/33 73/73/73 34/34/34
f 72/72/72 73/73/73 33/33/33
f 32/32/32 72/72/72 33/33/33
f 71/71/71 72/72/72 32/32/32
