g deadBoltA_geo
v 0.0611335 -0.1717766 -0.06113349
v 0 -0.1717766 -0.0864558
v -0.0611335 -0.1717766 -0.06113349
v -0.08645584 -0.1717766 0
v -0.0611335 -0.1717766 0.06113349
v 0 -0.1717766 0.08645582
v 0.0611335 -0.1717766 0.06113349
v 0.08645584 -0.1717766 0
v 0.0611335 0.1717766 -0.06113349
v 0 0.1717766 -0.0864558
v -0.0611335 0.1717766 -0.06113349
v -0.08645584 0.1717766 0
v -0.0611335 0.1717766 0.06113349
v 0 0.1717766 0.08645582
v 0.0611335 0.1717766 0.06113349
v 0.08645584 0.1717766 0
v 0.04408127 -0.1933726 -0.04408128
v 0 -0.1933726 -0.06234033
v -0.04408127 -0.1933726 -0.04408128
v -0.06234032 -0.1933726 3.336016E-10
v -0.04408127 -0.1933726 0.04408128
v 0 -0.1933726 0.06234034
v 0.04408127 -0.1933726 0.04408128
v 0.06234032 -0.1933726 3.336016E-10
v 0.04408127 0.1933726 -0.04408128
v 0 0.1933726 -0.06234033
v -0.04408127 0.1933726 -0.04408128
v -0.06234032 0.1933726 3.336016E-10
v -0.04408127 0.1933726 0.04408128
v 0 0.1933726 0.06234034
v 0.04408127 0.1933726 0.04408128
v 0.06234032 0.1933726 3.336016E-10
v -0.1913844 -0.1360375 0.02345437
v 0.1913844 -0.1360375 0.02345437
v -0.1913844 0.1360375 0.02345437
v 0.1913844 0.1360375 0.02345437
v -0.1913844 0.1360375 -0.02345437
v 0.1913844 0.1360375 -0.02345437
v -0.1913844 -0.1360375 -0.02345437
v 0.1913844 -0.1360375 -0.02345437
v 0 -0.1717766 -0.0864558
v 0.08645584 -0.1717766 0
v 0.0611335 -0.1717766 -0.06113349
v -0.0611335 -0.1717766 -0.06113349
v -0.08645584 -0.1717766 0
v -0.0611335 -0.1717766 0.06113349
v 0 -0.1717766 0.08645582
v 0.0611335 -0.1717766 0.06113349
v 0.0611335 0.1717766 -0.06113349
v 0.08645584 0.1717766 0
v 0 0.1717766 -0.0864558
v -0.0611335 0.1717766 -0.06113349
v -0.08645584 0.1717766 0
v -0.0611335 0.1717766 0.06113349
v 0 0.1717766 0.08645582
v 0.0611335 0.1717766 0.06113349
v 0 -0.1933726 -0.06234033
v 0.06234032 -0.1933726 3.336016E-10
v 0.04408127 -0.1933726 -0.04408128
v -0.04408127 -0.1933726 -0.04408128
v -0.06234032 -0.1933726 3.336016E-10
v -0.04408127 -0.1933726 0.04408128
v 0 -0.1933726 0.06234034
v 0.04408127 -0.1933726 0.04408128
v 0.04408127 0.1933726 -0.04408128
v 0.06234032 0.1933726 3.336016E-10
v 0 0.1933726 -0.06234033
v -0.04408127 0.1933726 -0.04408128
v -0.06234032 0.1933726 3.336016E-10
v -0.04408127 0.1933726 0.04408128
v 0 0.1933726 0.06234034
v 0.04408127 0.1933726 0.04408128
v -0.1913844 0.1360375 0.02345437
v 0.1913844 0.1360375 0.02345437
v -0.1913844 0.1360375 -0.02345437
v 0.1913844 0.1360375 -0.02345437
v -0.1913844 -0.1360375 -0.02345437
v 0.1913844 -0.1360375 0.02345437
v 0.1913844 -0.1360375 -0.02345437
v -0.1913844 -0.1360375 0.02345437
v 0.1913844 -0.1360375 0.02345437
v 0.1913844 0.1360375 -0.02345437
v 0.1913844 -0.1360375 -0.02345437
v 0.1913844 0.1360375 0.02345437
v -0.1913844 -0.1360375 -0.02345437
v -0.1913844 0.1360375 0.02345437
v -0.1913844 -0.1360375 0.02345437
v -0.1913844 0.1360375 -0.02345437
vt 0.7146451 0.5865468
vt 0.7146444 0.5865468
vt 0.7146447 0.5865468
vt 0.7146451 0.5865464
vt 0.7146447 0.5865464
vt 0.7146447 0.5865464
vt 0.7146447 0.5865464
vt 0.7146447 0.5865464
vt 0.7146451 0.5865464
vt 0.7146444 0.5865464
vt 0.7146447 0.5865464
vt 0.7146451 0.5865468
vt 0.7146447 0.5865468
vt 0.7146447 0.5865468
vt 0.7146447 0.5865468
vt 0.7146447 0.5865468
vt 0.108755 0.9577822
vt 0.108755 0.9577822
vt 0.108755 0.9577822
vt 0.108755 0.9577823
vt 0.108755 0.9577823
vt 0.1087553 0.9577823
vt 0.1087553 0.9577823
vt 0.1087553 0.9577823
vt 0.108755 0.9577823
vt 0.108755 0.9577823
vt 0.108755 0.9577823
vt 0.108755 0.9577822
vt 0.108755 0.9577822
vt 0.1087553 0.9577822
vt 0.1087553 0.9577822
vt 0.1087553 0.9577822
vt 0.7158941 0.5695023
vt 0.7158941 0.5695027
vt 0.7158943 0.5695023
vt 0.7158943 0.5695027
vt 0.6884646 0.5710595
vt 0.6884646 0.5710605
vt 0.7158944 0.5695023
vt 0.7158944 0.5695027
vt 0.6418169 0.5648077
vt 0.6418169 0.5648074
vt 0.6418169 0.5648077
vt 0.6418169 0.5648075
vt 0.6418169 0.5648075
vt 0.6418169 0.5648075
vt 0.6418169 0.5648077
vt 0.6418169 0.5648077
vt 0.6418169 0.5648075
vt 0.6418169 0.5648075
vt 0.6418169 0.5648075
vt 0.6418169 0.5648077
vt 0.6418169 0.5648077
vt 0.6418169 0.5648077
vt 0.6418169 0.5648075
vt 0.6418169 0.5648075
vt 0.1021288 0.9807412
vt 0.1021288 0.9807412
vt 0.1021289 0.9807412
vt 0.1021289 0.9807411
vt 0.1021288 0.9807406
vt 0.1021288 0.9807411
vt 0.1021289 0.9807412
vt 0.1021288 0.9807412
vt 0.1021287 0.9807405
vt 0.1021287 0.9807405
vt 0.1021287 0.9807406
vt 0.1021287 0.9807407
vt 0.1021287 0.9807407
vt 0.1021289 0.9807407
vt 0.1021288 0.9807406
vt 0.1021289 0.9807405
vt 0.6884649 0.5710595
vt 0.6884649 0.5710605
vt 0.7158943 0.5695023
vt 0.7158943 0.5695027
vt 0.6884645 0.5710595
vt 0.6884645 0.5710605
vt 0.6884645 0.5710605
vt 0.6884645 0.5710595
vt 0.6937168 0.5500469
vt 0.6937168 0.5500467
vt 0.6937168 0.5500469
vt 0.6937168 0.5500467
vt 0.6937168 0.5500469
vt 0.6937166 0.5500467
vt 0.6937166 0.5500469
vt 0.6937168 0.5500467
vn 0.6218756 -0.475963 -0.6218763
vn 0 -0.7345093 -0.6785986
vn -0.4798414 -0.7345095 -0.4798416
vn -0.6785983 -0.7345096 1.060264E-07
vn -0.4798414 -0.7345095 0.4798416
vn 0 -0.7345094 0.6785985
vn 0.6218756 -0.475963 0.6218761
vn 0.2943194 -0.9557072 0
vn 0.6218756 0.475963 -0.6218761
vn 0 0.7345094 -0.6785985
vn -0.4798414 0.7345095 -0.4798417
vn -0.6785983 0.7345096 -1.060264E-07
vn -0.4798414 0.7345095 0.4798415
vn 0 0.7345093 0.6785985
vn 0.6218755 0.4759629 0.6218762
vn 0.2943194 0.9557072 0
vn 0.6218759 -0.4759632 -0.6218758
vn 0 -0.7345095 -0.6785983
vn -0.4798416 -0.7345095 -0.4798414
vn -0.6785984 -0.7345095 0
vn -0.4798416 -0.7345095 0.4798414
vn 0 -0.7345095 0.6785984
vn 0.6218758 -0.4759631 0.6218758
vn 0.2943195 -0.9557071 0
vn 0.6218758 0.4759631 -0.6218759
vn 0 0.7345095 -0.6785984
vn -0.4798416 0.7345095 -0.4798414
vn -0.6785984 0.7345095 0
vn -0.4798416 0.7345095 0.4798414
vn 0 0.7345095 0.6785983
vn 0.6218759 0.4759631 0.6218757
vn 0.2943195 0.9557071 0
vn -0.5773503 -0.5773503 0.5773503
vn 0.5773503 -0.5773503 0.5773503
vn -0.5773503 0.5773503 0.5773503
vn 0.5773503 0.5773503 0.5773503
vn -0.5773503 0.5773503 -0.5773503
vn 0.5773503 0.5773503 -0.5773503
vn -0.5773503 -0.5773503 -0.5773503
vn 0.5773503 -0.5773503 -0.5773503
vn 0 -0.7345093 -0.6785986
vn 0.2943194 -0.9557072 0
vn 0.6218756 -0.475963 -0.6218763
vn -0.4798414 -0.7345095 -0.4798416
vn -0.6785983 -0.7345096 1.060264E-07
vn -0.4798414 -0.7345095 0.4798416
vn 0 -0.7345094 0.6785985
vn 0.6218756 -0.475963 0.6218761
vn 0.6218756 0.475963 -0.6218761
vn 0.2943194 0.9557072 0
vn 0 0.7345094 -0.6785985
vn -0.4798414 0.7345095 -0.4798417
vn -0.6785983 0.7345096 -1.060264E-07
vn -0.4798414 0.7345095 0.4798415
vn 0 0.7345093 0.6785985
vn 0.6218755 0.4759629 0.6218762
vn 0 -0.7345095 -0.6785983
vn 0.2943195 -0.9557071 0
vn 0.6218759 -0.4759632 -0.6218758
vn -0.4798416 -0.7345095 -0.4798414
vn -0.6785984 -0.7345095 0
vn -0.4798416 -0.7345095 0.4798414
vn 0 -0.7345095 0.6785984
vn 0.6218758 -0.4759631 0.6218758
vn 0.6218758 0.4759631 -0.6218759
vn 0.2943195 0.9557071 0
vn 0 0.7345095 -0.6785984
vn -0.4798416 0.7345095 -0.4798414
vn -0.6785984 0.7345095 0
vn -0.4798416 0.7345095 0.4798414
vn 0 0.7345095 0.6785983
vn 0.6218759 0.4759631 0.6218757
vn -0.5773503 0.5773503 0.5773503
vn 0.5773503 0.5773503 0.5773503
vn -0.5773503 0.5773503 -0.5773503
vn 0.5773503 0.5773503 -0.5773503
vn -0.5773503 -0.5773503 -0.5773503
vn 0.5773503 -0.5773503 0.5773503
vn 0.5773503 -0.5773503 -0.5773503
vn -0.5773503 -0.5773503 0.5773503
vn 0.5773503 -0.5773503 0.5773503
vn 0.5773503 0.5773503 -0.5773503
vn 0.5773503 -0.5773503 -0.5773503
vn 0.5773503 0.5773503 0.5773503
vn -0.5773503 -0.5773503 -0.5773503
vn -0.5773503 0.5773503 0.5773503
vn -0.5773503 -0.5773503 0.5773503
vn -0.5773503 0.5773503 -0.5773503
g deadBoltA_geo_0
f 42/42/42 41/41/41 43/43/43
f 44/44/44 41/41/41 42/42/42
f 45/45/45 44/44/44 42/42/42
f 42/42/42 46/46/46 45/45/45
f 47/47/47 46/46/46 42/42/42
f 48/48/48 47/47/47 42/42/42
f 50/50/50 52/52/52 53/53/53
f 51/51/51 52/52/52 50/50/50
f 49/49/49 51/51/51 50/50/50
f 50/50/50 55/55/55 56/56/56
f 54/54/54 55/55/55 50/50/50
f 53/53/53 54/54/54 50/50/50
f 58/58/58 57/57/57 59/59/59
f 60/60/60 57/57/57 58/58/58
f 61/61/61 60/60/60 58/58/58
f 58/58/58 62/62/62 61/61/61
f 63/63/63 62/62/62 58/58/58
f 64/64/64 63/63/63 58/58/58
f 66/66/66 68/68/68 69/69/69
f 67/67/67 68/68/68 66/66/66
f 65/65/65 67/67/67 66/66/66
f 66/66/66 71/71/71 72/72/72
f 70/70/70 71/71/71 66/66/66
f 69/69/69 70/70/70 66/66/66
f 36/36/36 33/33/33 34/34/34
f 35/35/35 33/33/33 36/36/36
f 38/38/38 73/73/73 74/74/74
f 37/37/37 73/73/73 38/38/38
f 40/40/40 75/75/75 76/76/76
f 39/39/39 75/75/75 40/40/40
f 78/78/78 77/77/77 79/79/79
f 80/80/80 77/77/77 78/78/78
f 82/82/82 81/81/81 83/83/83
f 84/84/84 81/81/81 82/82/82
f 86/86/86 85/85/85 87/87/87
f 88/88/88 85/85/85 86/86/86
f 9/9/9 1/1/1 10/10/10
f 8/8/8 1/1/1 9/9/9
f 16/16/16 8/8/8 9/9/9
f 7/7/7 8/8/8 16/16/16
f 15/15/15 7/7/7 16/16/16
f 6/6/6 7/7/7 15/15/15
f 14/14/14 6/6/6 15/15/15
f 5/5/5 6/6/6 14/14/14
f 13/13/13 5/5/5 14/14/14
f 4/4/4 5/5/5 13/13/13
f 12/12/12 4/4/4 13/13/13
f 3/3/3 4/4/4 12/12/12
f 11/11/11 3/3/3 12/12/12
f 2/2/2 3/3/3 11/11/11
f 10/10/10 2/2/2 11/11/11
f 1/1/1 2/2/2 10/10/10
f 25/25/25 17/17/17 26/26/26
f 24/24/24 17/17/17 25/25/25
f 32/32/32 24/24/24 25/25/25
f 23/23/23 24/24/24 32/32/32
f 31/31/31 23/23/23 32/32/32
f 22/22/22 23/23/23 31/31/31
f 30/30/30 22/22/22 31/31/31
f 21/21/21 22/22/22 30/30/30
f 29/29/29 21/21/21 30/30/30
f 20/20/20 21/21/21 29/29/29
f 28/28/28 20/20/20 29/29/29
f 19/19/19 20/20/20 28/28/28
f 27/27/27 19/19/19 28/28/28
f 18/18/18 19/19/19 27/27/27
f 26/26/26 18/18/18 27/27/27
f 17/17/17 18/18/18 26/26/26
