g detailGarbage_geo
v -0.2944922 0.8239521 0.1700342
v -0.1700195 0.8239523 0.2945264
v -1.953125E-05 0.8239521 0.3400928
v 0.1700391 0.8239528 0.294458
v 0.2945117 0.8239528 0.1700342
v 0.3400976 0.8239515 -2.441406E-05
v 0.2945508 0.8239517 -0.1700635
v 0.1700781 0.8239518 -0.2945361
v -1.953125E-05 0.8239517 -0.3400928
v -0.17 0.8239513 -0.2945264
v -0.2944922 0.8239515 -0.1700439
v -0.3400781 0.8239518 -3.417969E-05
v 0.3021484 0.1006285 -2.441406E-05
v 0.2616992 0.1006296 0.1510498
v 0.1510938 0.1006298 0.2616846
v -1.953125E-05 0.1006291 0.3021631
v -0.1510547 0.1006292 0.2616748
v -0.2617188 0.1006288 0.1510791
v -0.3021875 0.1006286 -3.417969E-05
v -0.2616406 0.1006283 -0.1510693
v -0.1510352 0.1006282 -0.2616846
v -1.953125E-05 0.1006286 -0.3022119
v 0.1510938 0.1006289 -0.2617139
v 0.2616992 0.1006287 -0.1511279
v -0.2574414 0.006838794 0.1486279
v -0.1486523 0.00683831 0.2573974
v 0 0.006838116 0.2972791
v 0.1486133 0.006835083 0.2574268
v 0.2574219 0.00683478 0.1486377
v 0.2972656 0.00683855 4.882812E-06
v 0.2574023 0.006839505 -0.1485693
v 0.1486133 0.006838223 -0.2574377
v -1.953125E-05 0.006838161 -0.297251
v -0.1486523 0.006841526 -0.2573987
v -0.2574316 0.006842113 -0.1485693
v -0.2972265 0.006839773 4.882812E-06
v 0.302168 0.100628 3.417969E-05
v 0.2617773 0.1006219 0.1511475
v 0.1511719 0.1006226 0.2617627
v 0 0.1006283 0.3021631
v -0.1510547 0.1006285 0.2616748
v -0.2617188 0.1006297 0.1510791
v -0.302168 0.1006296 4.882812E-06
v -0.2616797 0.1006324 -0.1510498
v -0.1510547 0.1006323 -0.2616846
v 0 0.1006287 -0.3021728
v 0.1511133 0.1006289 -0.2616748
v 0.2616895 0.1006288 -0.1511084
v 0.2979492 0.01971138 3.417969E-05
v 0.2580176 0.01970644 0.1490186
v 0.1490039 0.01970694 0.2580615
v 0 0.01971133 0.297915
v -0.1489648 0.01971149 0.2580029
v -0.2580273 0.01971236 0.1489502
v -0.2978906 0.01971279 4.882812E-06
v -0.2579882 0.01971537 -0.1489502
v -0.1489453 0.01971502 -0.2579932
v -1.953125E-05 0.01971152 -0.2979138
v 0.1489258 0.01971165 -0.2580322
v 0.2580176 0.01971226 -0.1489795
v -0.2945117 0.8239524 0.1700635
v -0.1700195 0.8239517 0.2945361
v -1.953125E-05 0.8239526 0.3400635
v 0.17 0.8239528 0.2945361
v 0.2945117 0.8239515 0.1700342
v 0.3400586 0.8239515 4.882812E-06
v 0.2945117 0.823952 -0.1700342
v 0.1700293 0.8239511 -0.2945264
v -1.953125E-05 0.823952 -0.340083
v -0.1700195 0.8239515 -0.2945264
v -0.2945313 0.8239495 -0.1700342
v -0.3400781 0.8239507 4.882812E-06
v -0.324082 0.8373446 0.1870947
v -0.1870898 0.8373443 0.3240576
v -1.953125E-05 0.8373449 0.3741845
v 0.1870508 0.8373449 0.3240576
v 0.324043 0.8373443 0.1870947
v 0.3741992 0.8373442 4.882812E-06
v 0.324043 0.8373445 -0.1870959
v 0.1871094 0.8373439 -0.3240369
v -1.953125E-05 0.8373445 -0.3741845
v -0.1870703 0.8373441 -0.3240369
v -0.324082 0.8373433 -0.1871045
v -0.3741797 0.8373439 4.882812E-06
v -0.324082 0.8468798 0.187085
v -0.1870703 0.8468794 0.3240576
v -1.953125E-05 0.8468781 0.3741845
v 0.1871191 0.8468791 0.3240576
v 0.324043 0.846879 0.187085
v 0.3741992 0.8468773 4.882812E-06
v 0.3241016 0.8468785 -0.1871045
v 0.1871094 0.8468791 -0.3240478
v 0 0.8468767 -0.3741845
v -0.1870703 0.846877 -0.3240369
v -0.324082 0.8468798 -0.1871045
v -0.3741992 0.8468803 4.882812E-06
v -0.3123242 0.8753754 0.1802881
v -0.180293 0.875375 0.31229
v 0 0.8753721 0.3605908
v 0.180293 0.8753732 0.3122705
v 0.3122852 0.8753746 0.1802979
v 0.3606054 0.8753726 4.882812E-06
v 0.3122852 0.8753728 -0.1803259
v 0.180293 0.8753749 -0.3123095
v -1.953125E-05 0.8753737 -0.3606189
v -0.180293 0.8753738 -0.31229
v -0.3123242 0.8753756 -0.1803174
v -0.3606054 0.8753744 4.882812E-06
v -0.2993848 0.8848041 0.1728162
v -0.1728516 0.8848041 0.2993506
v 0 0.8848022 0.3456689
v 0.172832 0.8848025 0.2993506
v 0.2993848 0.8848041 0.1728076
v 0.3456836 0.8848041 4.882812E-06
v 0.2993848 0.8848025 -0.1728564
v 0.1728516 0.8848044 -0.2993909
v -1.953125E-05 0.8848062 -0.3457275
v -0.1728516 0.8848062 -0.2993909
v -0.299375 0.8848042 -0.1728479
v -0.3457031 0.8848022 4.882812E-06
v 0.3822851 0.02 -0.3576416
v -0.3822949 0.02 -0.3576416
v 0.3822851 0.02 0.3576904
v -0.3822949 0.02 0.3576904
v 0.2580176 0.01970644 0.1490186
v 0.2979492 0.01971138 3.417969E-05
v 0.1490039 0.01970694 0.2580615
v 0 0.01971133 0.297915
v -0.1489648 0.01971149 0.2580029
v -0.2580273 0.01971236 0.1489502
v -0.2978906 0.01971279 4.882812E-06
v -0.2579882 0.01971537 -0.1489502
v -0.1489453 0.01971502 -0.2579932
v -1.953125E-05 0.01971152 -0.2979138
v 0.1489258 0.01971165 -0.2580322
v 0.2580176 0.01971226 -0.1489795
v -0.324082 0.8373446 0.1870947
v -0.1870898 0.8373443 0.3240576
v -1.953125E-05 0.8373449 0.3741845
v 0.1870508 0.8373449 0.3240576
v 0.324043 0.8373443 0.1870947
v 0.3741992 0.8373442 4.882812E-06
v 0.324043 0.8373445 -0.1870959
v 0.1871094 0.8373439 -0.3240369
v -1.953125E-05 0.8373445 -0.3741845
v -0.1870703 0.8373441 -0.3240369
v -0.324082 0.8373433 -0.1871045
v -0.3741797 0.8373439 4.882812E-06
v -0.324082 0.8468798 0.187085
v -0.1870703 0.8468794 0.3240576
v -1.953125E-05 0.8468781 0.3741845
v 0.1871191 0.8468791 0.3240576
v 0.324043 0.846879 0.187085
v 0.3741992 0.8468773 4.882812E-06
v 0.3241016 0.8468785 -0.1871045
v 0.1871094 0.8468791 -0.3240478
v 0 0.8468767 -0.3741845
v -0.1870703 0.846877 -0.3240369
v -0.324082 0.8468798 -0.1871045
v -0.3741992 0.8468803 4.882812E-06
v -0.3123242 0.8753754 0.1802881
v -0.1728516 0.8848041 0.2993506
v -0.180293 0.875375 0.31229
v -0.2993848 0.8848041 0.1728162
v 0 0.8848022 0.3456689
v 0 0.8753721 0.3605908
v 0.172832 0.8848025 0.2993506
v 0.180293 0.8753732 0.3122705
v 0.2993848 0.8848041 0.1728076
v 0.3122852 0.8753746 0.1802979
v 0.3456836 0.8848041 4.882812E-06
v 0.3606054 0.8753726 4.882812E-06
v 0.2993848 0.8848025 -0.1728564
v 0.3122852 0.8753728 -0.1803259
v 0.1728516 0.8848044 -0.2993909
v 0.180293 0.8753749 -0.3123095
v -1.953125E-05 0.8848062 -0.3457275
v -1.953125E-05 0.8753737 -0.3606189
v -0.1728516 0.8848062 -0.2993909
v -0.180293 0.8753738 -0.31229
v -0.299375 0.8848042 -0.1728479
v -0.3123242 0.8753756 -0.1803174
v -0.3457031 0.8848022 4.882812E-06
v -0.3606054 0.8753744 4.882812E-06
v -0.2944922 0.8239521 0.1700342
v -0.2617188 0.1006288 0.1510791
vt 0.009421799 0.9668866
vt 0.009421799 0.9668866
vt 0.009421799 0.9668866
vt 0.009421799 0.9668866
vt 0.009421799 0.9668866
vt 0.009421799 0.9668866
vt 0.009421799 0.9668866
vt 0.009421799 0.9668866
vt 0.009421799 0.9668866
vt 0.009421799 0.9668866
vt 0.009421799 0.9668866
vt 0.009421799 0.9668866
vt 0.009421799 0.9668866
vt 0.009421799 0.9668866
vt 0.009421799 0.9668866
vt 0.009421799 0.9668866
vt 0.009421799 0.9668866
vt 0.009421799 0.9668866
vt 0.009421799 0.9668866
vt 0.009421799 0.9668866
vt 0.009421799 0.9668866
vt 0.009421799 0.9668866
vt 0.009421799 0.9668866
vt 0.009421799 0.9668866
vt 0.9809239 0.01646104
vt 0.9809238 0.01646113
vt 0.9809234 0.01646143
vt 0.9809236 0.01646113
vt 0.9809235 0.01646104
vt 0.9809235 0.01646131
vt 0.9809235 0.01646113
vt 0.9809236 0.01646137
vt 0.9809234 0.01646128
vt 0.9809238 0.01646137
vt 0.9809239 0.01646113
vt 0.9809239 0.01646131
vt 0.00942168 0.9668866
vt 0.00942168 0.9668866
vt 0.00942168 0.9668866
vt 0.00942168 0.9668866
vt 0.00942168 0.9668866
vt 0.00942168 0.9668866
vt 0.00942168 0.9668866
vt 0.00942168 0.9668866
vt 0.00942168 0.9668866
vt 0.00942168 0.9668866
vt 0.00942168 0.9668866
vt 0.00942168 0.9668866
vt 0.9809235 0.01646131
vt 0.9809235 0.01646104
vt 0.9809236 0.01646119
vt 0.9809234 0.01646149
vt 0.9809238 0.01646119
vt 0.9809239 0.01646104
vt 0.9809239 0.01646131
vt 0.9809239 0.01646113
vt 0.9809238 0.01646137
vt 0.9809234 0.01646128
vt 0.9809236 0.01646137
vt 0.9809235 0.01646113
vt 0.00942168 0.9668866
vt 0.00942168 0.9668866
vt 0.00942168 0.9668866
vt 0.00942168 0.9668866
vt 0.00942168 0.9668866
vt 0.00942168 0.9668866
vt 0.00942168 0.9668866
vt 0.00942168 0.9668866
vt 0.00942168 0.9668866
vt 0.00942168 0.9668866
vt 0.00942168 0.9668866
vt 0.00942168 0.9668866
vt 0.00942168 0.9668866
vt 0.00942168 0.9668866
vt 0.00942168 0.9668866
vt 0.00942168 0.9668866
vt 0.00942168 0.9668866
vt 0.00942168 0.9668866
vt 0.00942168 0.9668866
vt 0.00942168 0.9668866
vt 0.00942168 0.9668866
vt 0.00942168 0.9668866
vt 0.00942168 0.9668866
vt 0.00942168 0.9668866
vt 0.9809239 0.01646107
vt 0.9809238 0.01646167
vt 0.9809234 0.01646161
vt 0.9809235 0.01646167
vt 0.9809235 0.01646107
vt 0.9809237 0.01646131
vt 0.9809235 0.01646125
vt 0.9809235 0.01646119
vt 0.9809234 0.01646122
vt 0.9809238 0.01646119
vt 0.9809239 0.01646125
vt 0.9809239 0.01646131
vt 0.00942168 0.9668866
vt 0.00942168 0.9668866
vt 0.00942168 0.9668866
vt 0.00942168 0.9668866
vt 0.00942168 0.9668866
vt 0.00942168 0.9668866
vt 0.00942168 0.9668866
vt 0.00942168 0.9668866
vt 0.00942168 0.9668866
vt 0.00942168 0.9668866
vt 0.00942168 0.9668866
vt 0.00942168 0.9668866
vt 0.00942168 0.9668866
vt 0.00942168 0.9668866
vt 0.00942168 0.9668866
vt 0.00942168 0.9668866
vt 0.00942168 0.9668866
vt 0.00942168 0.9668866
vt 0.00942168 0.9668866
vt 0.00942168 0.9668866
vt 0.00942168 0.9668866
vt 0.00942168 0.9668866
vt 0.00942168 0.9668866
vt 0.00942168 0.9668866
vt 0 0
vt 0 0
vt 0 0
vt 0 0
vt 0.00942168 0.9668866
vt 0.00942168 0.9668866
vt 0.00942168 0.9668866
vt 0.00942168 0.9668866
vt 0.00942168 0.9668866
vt 0.00942168 0.9668866
vt 0.00942168 0.9668866
vt 0.00942168 0.9668866
vt 0.00942168 0.9668866
vt 0.00942168 0.9668866
vt 0.00942168 0.9668866
vt 0.00942168 0.9668866
vt 0.9809239 0.01646107
vt 0.9809238 0.01646167
vt 0.9809234 0.01646161
vt 0.9809235 0.01646167
vt 0.9809235 0.01646107
vt 0.9809237 0.01646131
vt 0.9809235 0.01646125
vt 0.9809235 0.01646119
vt 0.9809234 0.01646122
vt 0.9809238 0.01646119
vt 0.9809239 0.01646125
vt 0.9809239 0.01646131
vt 0.00942168 0.9668866
vt 0.00942168 0.9668866
vt 0.00942168 0.9668866
vt 0.00942168 0.9668866
vt 0.00942168 0.9668866
vt 0.00942168 0.9668866
vt 0.00942168 0.9668866
vt 0.00942168 0.9668866
vt 0.00942168 0.9668866
vt 0.00942168 0.9668866
vt 0.00942168 0.9668866
vt 0.00942168 0.9668866
vt 0.9809239 0.01646104
vt 0.9809238 0.01646149
vt 0.9809238 0.01646161
vt 0.9809239 0.01646104
vt 0.9809234 0.01646173
vt 0.9809234 0.01646167
vt 0.9809235 0.01646149
vt 0.9809235 0.01646161
vt 0.9809235 0.01646104
vt 0.9809235 0.01646104
vt 0.9809237 0.01646131
vt 0.9809237 0.01646131
vt 0.9809235 0.01646125
vt 0.9809235 0.01646125
vt 0.9809235 0.01646125
vt 0.9809235 0.01646119
vt 0.9809234 0.01646119
vt 0.9809234 0.01646119
vt 0.9809238 0.01646125
vt 0.9809238 0.01646119
vt 0.9809239 0.01646125
vt 0.9809239 0.01646125
vt 0.9809239 0.01646131
vt 0.9809239 0.01646131
vt 0.009421799 0.9668866
vt 0.009421799 0.9668866
vn -0.8648182 -0.05230659 0.4993532
vn -0.4993121 -0.05234557 0.8648396
vn 3.231734E-05 -0.05234168 0.9986292
vn 0.4993674 -0.05230948 0.8648099
vn 0.8648367 -0.0523352 0.499318
vn 0.9986279 -0.05236631 6.069739E-05
vn 0.8648658 -0.05236467 -0.4992645
vn 0.4992796 -0.05233416 -0.8648589
vn -0.0001400047 -0.05232471 -0.9986302
vn -0.4994186 -0.05234725 -0.8647779
vn -0.8647587 -0.05235434 -0.4994511
vn -0.9986305 -0.05231689 -0.0001660148
vn 0.9986279 -0.05236631 6.069739E-05
vn 0.8648367 -0.0523352 0.499318
vn 0.4993674 -0.05230948 0.8648099
vn 3.231734E-05 -0.05234168 0.9986292
vn -0.4993121 -0.05234557 0.8648396
vn -0.8648182 -0.05230659 0.4993532
vn -0.9986305 -0.05231689 -0.0001660148
vn -0.8647587 -0.05235434 -0.4994511
vn -0.4994186 -0.05234725 -0.8647779
vn -0.0001400047 -0.05232471 -0.9986302
vn 0.4992796 -0.05233416 -0.8648589
vn 0.8648658 -0.05236467 -0.4992645
vn -0.8649104 -0.05184611 0.4992414
vn -0.4993661 -0.05162665 0.8648515
vn -0.0001510306 -0.05237565 0.9986274
vn 0.499174 -0.05509309 0.8647485
vn 0.8646908 -0.05535896 0.4992447
vn 0.998535 -0.05410967 -4.073969E-05
vn 0.8647144 -0.05459537 -0.4992877
vn 0.4992535 -0.05344057 -0.8648064
vn -0.0001325045 -0.05191395 -0.9986516
vn -0.499436 -0.05181525 -0.8647999
vn -0.8649234 -0.05156431 -0.499248
vn -0.9986694 -0.0515704 -9.680563E-05
vn 0.9986219 -0.05247957 -0.000116688
vn 0.8649038 -0.05293354 0.4991386
vn 0.4990962 -0.0528787 0.8649316
vn -0.0002951443 -0.05247792 0.9986221
vn -0.4992525 -0.0523214 0.8648754
vn -0.8648453 -0.0525083 0.4992849
vn -0.9986122 -0.052666 -0.0001262066
vn -0.8648329 -0.0525031 -0.4993071
vn -0.4993627 -0.05243828 -0.8648047
vn -7.789853E-05 -0.05246095 -0.998623
vn 0.4992344 -0.05247277 -0.8648766
vn 0.8648228 -0.05237628 -0.4993379
vn 0.9985788 -0.05329461 -7.871527E-05
vn 0.8647979 -0.05414632 0.4991921
vn 0.4991354 -0.05398597 0.8648406
vn -0.0002230901 -0.05242678 0.9986247
vn -0.4993093 -0.05197403 0.8648635
vn -0.864878 -0.05217721 0.4992632
vn -0.998641 -0.05211821 -0.000111506
vn -0.8648782 -0.05203372 -0.4992777
vn -0.4993993 -0.05212677 -0.8648024
vn -0.0001052015 -0.05218745 -0.9986373
vn 0.499244 -0.05295667 -0.8648416
vn 0.8647691 -0.05348589 -0.4993131
vn -0.3164569 -0.9308433 0.1827176
vn -0.1827057 -0.9308245 0.316519
vn 2.182229E-06 -0.9308127 0.3654966
vn 0.1827455 -0.9307997 0.3165692
vn 0.3164715 -0.930828 0.1827705
vn 0.3653594 -0.9308665 2.174743E-06
vn 0.3164644 -0.9308391 -0.1827264
vn 0.1827675 -0.930791 -0.3165818
vn -2.129841E-05 -0.93076 -0.3656309
vn -0.1827595 -0.9307744 -0.3166352
vn -0.3164974 -0.930823 -0.1827504
vn -0.3654389 -0.9308353 6.670189E-06
vn -0.7105747 -0.5716364 0.4102624
vn -0.4103037 -0.5713676 0.7107671
vn -1.568485E-05 -0.571778 0.8204084
vn 0.4100195 -0.5722716 0.7102036
vn 0.7102854 -0.5720748 0.4101526
vn 0.8200311 -0.5723191 5.33616E-05
vn 0.7097953 -0.5729172 -0.409825
vn 0.409972 -0.5723832 -0.7101412
vn -4.464504E-05 -0.5716992 -0.8204633
vn -0.4102262 -0.5715263 -0.7106843
vn -0.7104102 -0.5718717 -0.4102196
vn -0.8202244 -0.5720419 1.370535E-05
vn -0.8445383 0.2213289 0.4876152
vn -0.4875227 0.221636 0.8445112
vn -2.555639E-05 0.221299 0.975206
vn 0.4876729 0.2207556 0.844655
vn 0.8446222 0.2208902 0.4876687
vn 0.9753296 0.2207539 0.0001117742
vn 0.8447787 0.2200843 -0.4877621
vn 0.487655 0.2203219 -0.8447787
vn -6.346984E-05 0.2208632 -0.9753048
vn -0.4875601 0.2210583 -0.8446409
vn -0.8445837 0.2209381 -0.4877138
vn -0.9753109 0.220836 1.803509E-05
vn -0.64605 0.6659514 0.372999
vn -0.3729452 0.6659847 0.6460466
vn 1.301228E-05 0.6660439 0.7459124
vn 0.3729434 0.6660726 0.645957
vn 0.646069 0.6659345 0.372996
vn 0.7460185 0.6659253 6.946475E-05
vn 0.6460292 0.6659714 -0.3729993
vn 0.3730738 0.6656582 -0.6463087
vn -7.241647E-05 0.6653558 -0.7465263
vn -0.3731543 0.665439 -0.6464881
vn -0.6461107 0.6658339 -0.3731037
vn -0.7460008 0.6659451 2.233774E-05
vn -0.3184631 0.9299363 0.1838466
vn -0.1838218 0.9299475 0.3184451
vn 3.170675E-05 0.9299034 0.3678038
vn 0.1839108 0.9298869 0.3185706
vn 0.3186189 0.9298635 0.1839453
vn 0.3680346 0.9298121 4.047781E-06
vn 0.3187668 0.9297948 -0.1840361
vn 0.1840791 0.9297539 -0.3188612
vn -4.685152E-05 0.9296806 -0.3683664
vn -0.1840571 0.9297413 -0.3189109
vn -0.3185213 0.9299007 -0.1839265
vn -0.3677619 0.92992 1.76204E-05
vn 0 1 0
vn 0 1 0
vn 0 1 0
vn 0 1 0
vn 0.8647979 -0.05414632 0.4991921
vn 0.9985788 -0.05329461 -7.871527E-05
vn 0.4991354 -0.05398597 0.8648406
vn -0.0002230901 -0.05242678 0.9986247
vn -0.4993093 -0.05197403 0.8648635
vn -0.864878 -0.05217721 0.4992632
vn -0.998641 -0.05211821 -0.000111506
vn -0.8648782 -0.05203372 -0.4992777
vn -0.4993993 -0.05212677 -0.8648024
vn -0.0001052015 -0.05218745 -0.9986373
vn 0.499244 -0.05295667 -0.8648416
vn 0.8647691 -0.05348589 -0.4993131
vn -0.7105747 -0.5716364 0.4102624
vn -0.4103037 -0.5713676 0.7107671
vn -1.568485E-05 -0.571778 0.8204084
vn 0.4100195 -0.5722716 0.7102036
vn 0.7102854 -0.5720748 0.4101526
vn 0.8200311 -0.5723191 5.33616E-05
vn 0.7097953 -0.5729172 -0.409825
vn 0.409972 -0.5723832 -0.7101412
vn -4.464504E-05 -0.5716992 -0.8204633
vn -0.4102262 -0.5715263 -0.7106843
vn -0.7104102 -0.5718717 -0.4102196
vn -0.8202244 -0.5720419 1.370535E-05
vn -0.8445383 0.2213289 0.4876152
vn -0.4875227 0.221636 0.8445112
vn -2.555639E-05 0.221299 0.975206
vn 0.4876729 0.2207556 0.844655
vn 0.8446222 0.2208902 0.4876687
vn 0.9753296 0.2207539 0.0001117742
vn 0.8447787 0.2200843 -0.4877621
vn 0.487655 0.2203219 -0.8447787
vn -6.346984E-05 0.2208632 -0.9753048
vn -0.4875601 0.2210583 -0.8446409
vn -0.8445837 0.2209381 -0.4877138
vn -0.9753109 0.220836 1.803509E-05
vn -0.64605 0.6659514 0.372999
vn -0.1838218 0.9299475 0.3184451
vn -0.3729452 0.6659847 0.6460466
vn -0.3184631 0.9299363 0.1838466
vn 3.170675E-05 0.9299034 0.3678038
vn 1.301228E-05 0.6660439 0.7459124
vn 0.1839108 0.9298869 0.3185706
vn 0.3729434 0.6660726 0.645957
vn 0.3186189 0.9298635 0.1839453
vn 0.646069 0.6659345 0.372996
vn 0.3680346 0.9298121 4.047781E-06
vn 0.7460185 0.6659253 6.946475E-05
vn 0.3187668 0.9297948 -0.1840361
vn 0.6460292 0.6659714 -0.3729993
vn 0.1840791 0.9297539 -0.3188612
vn 0.3730738 0.6656582 -0.6463087
vn -4.685152E-05 0.9296806 -0.3683664
vn -7.241647E-05 0.6653558 -0.7465263
vn -0.1840571 0.9297413 -0.3189109
vn -0.3731543 0.665439 -0.6464881
vn -0.3185213 0.9299007 -0.1839265
vn -0.6461107 0.6658339 -0.3731037
vn -0.3677619 0.92992 1.76204E-05
vn -0.7460008 0.6659451 2.233774E-05
vn -0.8648182 -0.05230659 0.4993532
vn -0.8648182 -0.05230659 0.4993532
g detailGarbage_geo_0
f 19/19/19 186/186/186 185/185/185
f 12/12/12 19/19/19 185/185/185
f 20/20/20 19/19/19 12/12/12
f 11/11/11 20/20/20 12/12/12
f 21/21/21 20/20/20 11/11/11
f 10/10/10 21/21/21 11/11/11
f 22/22/22 21/21/21 10/10/10
f 9/9/9 22/22/22 10/10/10
f 23/23/23 22/22/22 9/9/9
f 8/8/8 23/23/23 9/9/9
f 24/24/24 23/23/23 8/8/8
f 7/7/7 24/24/24 8/8/8
f 13/13/13 24/24/24 7/7/7
f 6/6/6 13/13/13 7/7/7
f 14/14/14 13/13/13 6/6/6
f 5/5/5 14/14/14 6/6/6
f 15/15/15 14/14/14 5/5/5
f 4/4/4 15/15/15 5/5/5
f 16/16/16 15/15/15 4/4/4
f 3/3/3 16/16/16 4/4/4
f 17/17/17 16/16/16 3/3/3
f 2/2/2 17/17/17 3/3/3
f 18/18/18 17/17/17 2/2/2
f 1/1/1 18/18/18 2/2/2
f 119/119/119 114/114/114 115/115/115
f 116/116/116 119/119/119 115/115/115
f 118/118/118 119/119/119 116/116/116
f 117/117/117 118/118/118 116/116/116
f 109/109/109 113/113/113 114/114/114
f 112/112/112 113/113/113 109/109/109
f 110/110/110 112/112/112 109/109/109
f 111/111/111 112/112/112 110/110/110
f 54/54/54 25/25/25 53/53/53
f 36/36/36 25/25/25 54/54/54
f 55/55/55 36/36/36 54/54/54
f 35/35/35 36/36/36 55/55/55
f 56/56/56 35/35/35 55/55/55
f 34/34/34 35/35/35 56/56/56
f 57/57/57 34/34/34 56/56/56
f 33/33/33 34/34/34 57/57/57
f 58/58/58 33/33/33 57/57/57
f 32/32/32 33/33/33 58/58/58
f 59/59/59 32/32/32 58/58/58
f 31/31/31 32/32/32 59/59/59
f 60/60/60 31/31/31 59/59/59
f 30/30/30 31/31/31 60/60/60
f 49/49/49 30/30/30 60/60/60
f 29/29/29 30/30/30 49/49/49
f 50/50/50 29/29/29 49/49/49
f 28/28/28 29/29/29 50/50/50
f 51/51/51 28/28/28 50/50/50
f 27/27/27 28/28/28 51/51/51
f 52/52/52 27/27/27 51/51/51
f 26/26/26 27/27/27 52/52/52
f 53/53/53 26/26/26 52/52/52
f 25/25/25 26/26/26 53/53/53
f 38/38/38 125/125/125 37/37/37
f 127/127/127 125/125/125 38/38/38
f 39/39/39 127/127/127 38/38/38
f 128/128/128 127/127/127 39/39/39
f 40/40/40 128/128/128 39/39/39
f 129/129/129 128/128/128 40/40/40
f 41/41/41 129/129/129 40/40/40
f 130/130/130 129/129/129 41/41/41
f 42/42/42 130/130/130 41/41/41
f 131/131/131 130/130/130 42/42/42
f 43/43/43 131/131/131 42/42/42
f 132/132/132 131/131/131 43/43/43
f 44/44/44 132/132/132 43/43/43
f 133/133/133 132/132/132 44/44/44
f 45/45/45 133/133/133 44/44/44
f 134/134/134 133/133/133 45/45/45
f 46/46/46 134/134/134 45/45/45
f 135/135/135 134/134/134 46/46/46
f 47/47/47 135/135/135 46/46/46
f 136/136/136 135/135/135 47/47/47
f 48/48/48 136/136/136 47/47/47
f 126/126/126 136/136/136 48/48/48
f 37/37/37 126/126/126 48/48/48
f 125/125/125 126/126/126 37/37/37
f 120/120/120 114/114/114 119/119/119
f 109/109/109 114/114/114 120/120/120
f 73/73/73 61/61/61 74/74/74
f 72/72/72 61/61/61 73/73/73
f 84/84/84 72/72/72 73/73/73
f 71/71/71 72/72/72 84/84/84
f 83/83/83 71/71/71 84/84/84
f 70/70/70 71/71/71 83/83/83
f 82/82/82 70/70/70 83/83/83
f 69/69/69 70/70/70 82/82/82
f 81/81/81 69/69/69 82/82/82
f 68/68/68 69/69/69 81/81/81
f 80/80/80 68/68/68 81/81/81
f 67/67/67 68/68/68 80/80/80
f 79/79/79 67/67/67 80/80/80
f 66/66/66 67/67/67 79/79/79
f 78/78/78 66/66/66 79/79/79
f 65/65/65 66/66/66 78/78/78
f 77/77/77 65/65/65 78/78/78
f 64/64/64 65/65/65 77/77/77
f 76/76/76 64/64/64 77/77/77
f 63/63/63 64/64/64 76/76/76
f 75/75/75 63/63/63 76/76/76
f 62/62/62 63/63/63 75/75/75
f 74/74/74 62/62/62 75/75/75
f 61/61/61 62/62/62 74/74/74
f 85/85/85 137/137/137 86/86/86
f 148/148/148 137/137/137 85/85/85
f 96/96/96 148/148/148 85/85/85
f 147/147/147 148/148/148 96/96/96
f 95/95/95 147/147/147 96/96/96
f 146/146/146 147/147/147 95/95/95
f 94/94/94 146/146/146 95/95/95
f 145/145/145 146/146/146 94/94/94
f 93/93/93 145/145/145 94/94/94
f 144/144/144 145/145/145 93/93/93
f 92/92/92 144/144/144 93/93/93
f 143/143/143 144/144/144 92/92/92
f 91/91/91 143/143/143 92/92/92
f 142/142/142 143/143/143 91/91/91
f 90/90/90 142/142/142 91/91/91
f 141/141/141 142/142/142 90/90/90
f 89/89/89 141/141/141 90/90/90
f 140/140/140 141/141/141 89/89/89
f 88/88/88 140/140/140 89/89/89
f 139/139/139 140/140/140 88/88/88
f 87/87/87 139/139/139 88/88/88
f 138/138/138 139/139/139 87/87/87
f 86/86/86 138/138/138 87/87/87
f 137/137/137 138/138/138 86/86/86
f 97/97/97 149/149/149 98/98/98
f 160/160/160 149/149/149 97/97/97
f 108/108/108 160/160/160 97/97/97
f 159/159/159 160/160/160 108/108/108
f 107/107/107 159/159/159 108/108/108
f 158/158/158 159/159/159 107/107/107
f 106/106/106 158/158/158 107/107/107
f 157/157/157 158/158/158 106/106/106
f 105/105/105 157/157/157 106/106/106
f 156/156/156 157/157/157 105/105/105
f 104/104/104 156/156/156 105/105/105
f 155/155/155 156/156/156 104/104/104
f 103/103/103 155/155/155 104/104/104
f 154/154/154 155/155/155 103/103/103
f 102/102/102 154/154/154 103/103/103
f 153/153/153 154/154/154 102/102/102
f 101/101/101 153/153/153 102/102/102
f 152/152/152 153/153/153 101/101/101
f 100/100/100 152/152/152 101/101/101
f 151/151/151 152/152/152 100/100/100
f 99/99/99 151/151/151 100/100/100
f 150/150/150 151/151/151 99/99/99
f 98/98/98 150/150/150 99/99/99
f 149/149/149 150/150/150 98/98/98
f 164/164/164 161/161/161 162/162/162
f 184/184/184 161/161/161 164/164/164
f 183/183/183 184/184/184 164/164/164
f 182/182/182 184/184/184 183/183/183
f 181/181/181 182/182/182 183/183/183
f 180/180/180 182/182/182 181/181/181
f 179/179/179 180/180/180 181/181/181
f 178/178/178 180/180/180 179/179/179
f 177/177/177 178/178/178 179/179/179
f 176/176/176 178/178/178 177/177/177
f 175/175/175 176/176/176 177/177/177
f 174/174/174 176/176/176 175/175/175
f 173/173/173 174/174/174 175/175/175
f 172/172/172 174/174/174 173/173/173
f 171/171/171 172/172/172 173/173/173
f 170/170/170 172/172/172 171/171/171
f 169/169/169 170/170/170 171/171/171
f 168/168/168 170/170/170 169/169/169
f 167/167/167 168/168/168 169/169/169
f 166/166/166 168/168/168 167/167/167
f 165/165/165 166/166/166 167/167/167
f 163/163/163 166/166/166 165/165/165
f 162/162/162 163/163/163 165/165/165
f 161/161/161 163/163/163 162/162/162
g detailGarbage_geo_1
f 124/124/124 121/121/121 122/122/122
f 123/123/123 121/121/121 124/124/124
