g dirtMoundDynamic_geo
v 0.616254 0.79862 0.3563452
v 0.5131021 1.079017 0.3803026
v 0.3678846 0.9479746 0.2912484
v 0.3293954 0.7367424 0.2990869
v 0.4112894 0.5707321 0.4127043
v 0.6061372 0.5383286 0.506572
v 0.7568089 0.6695701 0.5848743
v 0.7887836 0.8820291 0.5869111
v 0.6621971 1.056456 0.5410414
v 0.4923544 1.331472 0.3281817
v 0.2368321 1.024904 0.1973099
v 0.1650299 0.6839573 0.1926968
v 0.3168424 0.3959785 0.3721101
v 0.6466647 0.3357854 0.5536827
v 0.8323529 0.580472 0.6457793
v 0.9585414 0.9337987 0.685127
v 0.7821053 1.226415 0.5430399
v 0.5595669 1.405511 0.1823957
v 0.2523432 1.054114 0.02338135
v 0.1679575 0.6434776 0.01873055
v 0.3699296 0.2941746 0.2040165
v 0.7446072 0.227435 0.4508292
v 0.9818172 0.5169845 0.5713403
v 1.120171 0.9432873 0.6096467
v 0.9142653 1.293331 0.4303235
v 0.4354626 0.4994545 0.4945937
v 0.5110378 0.4858452 0.5313068
v 0.3992579 0.4324653 0.4790327
v 0.5260643 0.4088879 0.548945
v 1.006702 0.6493289 0.7295706
v 1.036101 0.8256877 0.7270541
v 1.078943 0.6186432 0.6935918
v 1.114222 0.8302737 0.6905719
v 0.603624 1.115072 0.5200408
v 0.5415012 1.124473 0.4530663
v 0.6597142 1.218938 0.5208102
v 0.5352809 1.238412 0.4318615
v 0.3122599 0.8919008 0.3153933
v 0.2998182 0.7997475 0.3115983
v 0.2418623 0.9361021 0.2888992
v 0.2218072 0.7775495 0.278376
v 0.3578535 1.317011 0.2219405
v 0.2677531 1.238489 0.1721198
v 0.3811685 1.344087 0.1706329
v 0.2729727 1.249874 0.1109624
v 1.084306 0.7245228 0.7316743
v 0.5655803 1.167607 0.4946245
v 0.4609786 0.4674355 0.5268857
v 0.2683842 0.8520479 0.318133
v 0.3075171 1.307621 0.1610865
v 0.7003508 0.956818 0.551335
v 0.840867 1.065177 0.5966497
v 0.9939454 1.092966 0.507781
v 0.3542292 0.6319913 0.3485952
v 0.1945148 0.4971479 0.2575573
v 0.2210495 0.4288206 0.08475401
vt 0.9731811 0.3925201
vt 0.9352025 0.3925201
vt 0.938058 0.3925201
vt 0.9359663 0.3925201
vt 0.9242985 0.3925201
vt 0.9358852 0.3925201
vt 0.937319 0.3925201
vt 0.9351215 0.3925201
vt 0.9173633 0.3925201
vt 0.937319 0.3925201
vt 0.9374372 0.3925201
vt 0.937319 0.3925201
vt 0.9242985 0.3925201
vt 0.937319 0.3925201
vt 0.937319 0.3925201
vt 0.937319 0.3925201
vt 0.9341271 0.3925201
vt 0.9914916 0.3925201
vt 0.9914917 0.39252
vt 0.9914916 0.3925201
vt 0.9889017 0.3925201
vt 0.9914916 0.3925201
vt 0.9914916 0.3925201
vt 0.9914916 0.3925201
vt 0.9914916 0.3925201
vt 0.9072058 0.3925201
vt 0.9116473 0.3925201
vt 0.9072058 0.3925201
vt 0.9121969 0.3925201
vt 0.9441068 0.3925201
vt 0.9441068 0.3925201
vt 0.9702902 0.3925201
vt 0.9702902 0.3925201
vt 0.9099014 0.3925201
vt 0.9173343 0.3925201
vt 0.9168862 0.3925201
vt 0.9182162 0.3925201
vt 0.9219273 0.3925201
vt 0.9240342 0.3925201
vt 0.9143107 0.3925201
vt 0.9193984 0.3925201
vt 0.9431005 0.3925201
vt 0.9431419 0.3925201
vt 0.9620609 0.3925201
vt 0.9620609 0.3925201
vt 0.9560084 0.3925201
vt 0.9080426 0.3925201
vt 0.9037681 0.3925201
vt 0.9139231 0.3925201
vt 0.951728 0.3925201
vt 0.9255239 0.3925201
vt 0.9356802 0.3925201
vt 0.9914916 0.3925201
vt 0.9299445 0.3925201
vt 0.9306718 0.3925201
vt 0.990195 0.3925201
vn -0.5681415 0.07886709 0.8191431
vn -0.6904318 -0.1897951 0.6980557
vn -0.1828737 0.1226444 0.9754566
vn -0.2217402 0.026987 0.9747323
vn -0.4783745 0.4580874 0.7492087
vn -0.3457636 0.4122498 0.8429101
vn -0.6525263 0.1773487 0.7367202
vn -0.6380543 -0.04183309 0.7688541
vn -0.584753 -0.1745075 0.792219
vn -0.5269895 0.5430766 0.65372
vn -0.8171796 0.2818058 0.5027953
vn -0.8992981 -0.02438251 0.4366558
vn -0.7088985 -0.4022236 0.5793781
vn -0.2499664 -0.4078562 0.8781629
vn -0.2923923 -0.2357616 0.9267811
vn -0.1867182 0.3318398 0.9246722
vn -0.08325653 0.5134082 0.8540962
vn -0.1726358 0.9835766 -0.05266907
vn -0.8404134 0.337309 -0.4241791
vn -0.9992337 -0.00168349 -0.03910219
vn -0.5752898 -0.7624924 0.2960521
vn -0.08992743 -0.7296826 0.6778469
vn 0.5191296 -0.6983578 0.4927482
vn 0.7162411 0.4863003 0.5005105
vn 0.2042874 0.7131174 0.6706192
vn -0.518425 0.4717132 0.7132476
vn -0.1377503 0.4453023 0.8847207
vn -0.671062 -0.1190031 0.7317883
vn -0.2813511 -0.1419626 0.9490459
vn -0.05313989 -0.2831973 0.9575884
vn 0.06679782 0.2338494 0.9699755
vn 0.7205323 -0.4998593 0.4805975
vn 0.8486919 0.131803 0.512201
vn -0.532281 -0.1052174 0.8400036
vn -0.8308377 -0.1666307 0.5309831
vn -0.3329479 0.3903946 0.8583344
vn -0.7025079 0.3437652 0.6231437
vn 0.06547053 0.2148366 0.9744532
vn -0.03496222 -0.2305203 0.9724392
vn -0.5335539 0.3149464 0.7849389
vn -0.6218293 -0.1529717 0.7680677
vn -0.5699181 0.6561676 0.4946084
vn -0.8697135 0.3596238 0.3380373
vn -0.3330785 0.8946712 -0.2976949
vn -0.6684083 0.5628201 -0.4862754
vn 0.4604077 -0.06793112 0.8851046
vn -0.6524044 0.1278378 0.7470114
vn -0.4295105 0.1884406 0.8831822
vn -0.2840957 -0.01156162 0.9587262
vn -0.667504 0.7435845 0.03899635
vn -0.5815645 -0.1313524 0.8028257
vn -0.01980971 0.3753799 0.9266593
vn 0.3454187 0.5744695 0.7420719
vn -0.461364 0.3168327 0.82871
vn -0.8533024 -0.1486184 0.4997876
vn -0.8864687 -0.4564307 0.07644736
g dirtMoundDynamic_geo_0
f 12/12/12 19/19/19 20/20/20
f 11/11/11 19/19/19 12/12/12
f 41/41/41 11/11/11 12/12/12
f 40/40/40 11/11/11 41/41/41
f 49/49/49 40/40/40 41/41/41
f 38/38/38 40/40/40 49/49/49
f 39/39/39 38/38/38 49/49/49
f 4/4/4 38/38/38 39/39/39
f 12/12/12 4/4/4 39/39/39
f 55/55/55 4/4/4 12/12/12
f 56/56/56 55/55/55 12/12/12
f 13/13/13 55/55/55 56/56/56
f 21/21/21 13/13/13 56/56/56
f 14/14/14 13/13/13 21/21/21
f 22/22/22 14/14/14 21/21/21
f 15/15/15 14/14/14 22/22/22
f 23/23/23 15/15/15 22/22/22
f 32/32/32 15/15/15 23/23/23
f 33/33/33 32/32/32 23/23/23
f 46/46/46 32/32/32 33/33/33
f 31/31/31 46/46/46 33/33/33
f 30/30/30 46/46/46 31/31/31
f 16/16/16 30/30/30 31/31/31
f 15/15/15 30/30/30 16/16/16
f 8/8/8 15/15/15 16/16/16
f 7/7/7 15/15/15 8/8/8
f 1/1/1 7/7/7 8/8/8
f 6/6/6 7/7/7 1/1/1
f 5/5/5 6/6/6 1/1/1
f 26/26/26 6/6/6 5/5/5
f 28/28/28 26/26/26 5/5/5
f 48/48/48 26/26/26 28/28/28
f 29/29/29 48/48/48 28/28/28
f 27/27/27 48/48/48 29/29/29
f 14/14/14 27/27/27 29/29/29
f 6/6/6 27/27/27 14/14/14
f 7/7/7 6/6/6 14/14/14
f 52/52/52 8/8/8 16/16/16
f 51/51/51 8/8/8 52/52/52
f 9/9/9 51/51/51 52/52/52
f 1/1/1 51/51/51 9/9/9
f 2/2/2 1/1/1 9/9/9
f 3/3/3 1/1/1 2/2/2
f 10/10/10 3/3/3 2/2/2
f 11/11/11 3/3/3 10/10/10
f 42/42/42 11/11/11 10/10/10
f 43/43/43 11/11/11 42/42/42
f 50/50/50 43/43/43 42/42/42
f 45/45/45 43/43/43 50/50/50
f 44/44/44 45/45/45 50/50/50
f 18/18/18 45/45/45 44/44/44
f 10/10/10 18/18/18 44/44/44
f 25/25/25 18/18/18 10/10/10
f 17/17/17 25/25/25 10/10/10
f 53/53/53 25/25/25 17/17/17
f 52/52/52 53/53/53 17/17/17
f 16/16/16 53/53/53 52/52/52
f 24/24/24 33/33/33 23/23/23
f 31/31/31 33/33/33 24/24/24
f 16/16/16 31/31/31 24/24/24
f 19/19/19 45/45/45 18/18/18
f 43/43/43 45/45/45 19/19/19
f 11/11/11 43/43/43 19/19/19
f 24/24/24 53/53/53 16/16/16
f 20/20/20 56/56/56 12/12/12
f 5/5/5 55/55/55 13/13/13
f 54/54/54 55/55/55 5/5/5
f 1/1/1 54/54/54 5/5/5
f 4/4/4 54/54/54 1/1/1
f 3/3/3 4/4/4 1/1/1
f 38/38/38 4/4/4 3/3/3
f 40/40/40 38/38/38 3/3/3
f 15/15/15 7/7/7 14/14/14
f 37/37/37 17/17/17 10/10/10
f 35/35/35 37/37/37 10/10/10
f 47/47/47 37/37/37 35/35/35
f 34/34/34 47/47/47 35/35/35
f 36/36/36 47/47/47 34/34/34
f 9/9/9 36/36/36 34/34/34
f 17/17/17 36/36/36 9/9/9
f 52/52/52 17/17/17 9/9/9
f 44/44/44 42/42/42 10/10/10
f 50/50/50 42/42/42 44/44/44
f 27/27/27 26/26/26 48/48/48
f 6/6/6 26/26/26 27/27/27
f 13/13/13 28/28/28 5/5/5
f 29/29/29 28/28/28 13/13/13
f 14/14/14 29/29/29 13/13/13
f 30/30/30 32/32/32 46/46/46
f 15/15/15 32/32/32 30/30/30
f 2/2/2 35/35/35 10/10/10
f 34/34/34 35/35/35 2/2/2
f 9/9/9 34/34/34 2/2/2
f 36/36/36 37/37/37 47/47/47
f 17/17/17 37/37/37 36/36/36
f 40/40/40 3/3/3 11/11/11
f 41/41/41 39/39/39 49/49/49
f 12/12/12 39/39/39 41/41/41
f 51/51/51 1/1/1 8/8/8
f 4/4/4 55/55/55 54/54/54
