g dirtMoundStatic_geo
v -0.2615723 0.6276361 0.10102
v -0.2598252 0.7487003 0.07862491
v -0.3024646 0.8916471 0.08733238
v -0.4231753 1.034561 0.1506101
v -0.483569 1.161921 0.1625947
v -0.6028451 1.257353 0.2294236
v -0.3701184 0.6007098 0.1574765
v -0.2909822 0.7359052 0.2644735
v -0.3305664 0.8563805 0.3023786
v -0.3604887 0.9536422 0.4139067
v -0.4926037 1.182209 0.4269029
v -0.6964226 1.217714 0.2960804
v -0.4237332 0.5076252 0.2044104
v -0.3988967 0.6434169 0.3597853
v -0.497023 0.9061722 0.5074675
v -0.6044539 1.040609 0.4845457
v -0.756111 1.106315 0.3492964
v -0.5353442 0.4226652 0.2885944
v -0.5653701 0.5410954 0.4709244
v -0.6907618 0.6239178 0.5502503
v -0.6869084 0.7711555 0.5527357
v -0.7704065 0.9376771 0.5617143
v -0.8627788 1.050671 0.4265771
v -0.6191592 0.3756936 0.349722
v -0.7072757 0.4054601 0.4041534
v -0.8756815 0.5016266 0.5033013
v -0.9567153 0.6791728 0.5347005
v -0.954421 0.8801925 0.5082126
v -0.9310142 0.9643912 0.4823106
v -0.918309 0.9785264 0.4721729
v -0.6770514 1.063394 0.5029742
v -0.7462555 1.110768 0.4464596
v -0.7929631 1.086404 0.4802991
v -0.7525153 1.036926 0.5394728
v -0.4030415 1.053149 0.4804647
v -0.4698186 0.9713316 0.5339195
v -0.4628284 1.132143 0.4956
v -0.5256416 1.044654 0.5349281
v -0.7421338 1.084444 0.5049028
v -0.4504923 1.048807 0.5323923
v -0.3380851 0.740618 0.4372209
v -0.3920152 0.6947003 0.48465
v -0.3572306 0.7951318 0.4543524
v -0.4214261 0.7624152 0.5541406
v -0.3716724 0.8383443 0.5073266
v -0.4406921 0.8178938 0.5557258
v -0.4744541 0.6439955 0.5397846
v -0.5365307 0.6837286 0.5789039
v -0.5356852 0.7548218 0.5806142
v -0.6303132 0.6775186 0.6070833
v -0.6291571 0.7216899 0.607829
v -0.5840437 0.6954619 0.6156794
v -0.5837902 0.7167898 0.6161925
v -0.3054665 0.6862576 0.3848512
v -0.3358694 0.6682614 0.3960769
v -0.3155988 0.7006617 0.4218887
v -0.3335755 0.6853558 0.4376984
v -0.3119715 0.6815714 0.4181487
v -0.600546 0.7015092 0.6238723
v -0.4135364 0.5001693 0.3127423
v -0.4016727 0.5650329 0.3869598
v -0.4811919 0.516157 0.4400477
v -0.4668494 0.4595866 0.3529543
v -0.4157556 0.4966445 0.3914413
v -0.7768318 1.17412 0.3545416
v -0.9232004 1.313774 0.4337491
v -0.8588574 1.188481 0.4915676
v -0.9839239 1.111215 0.4989735
v -0.8722541 1.084932 0.4285714
v -0.9921748 1.222755 0.4905589
v -0.809666 1.293463 0.361375
v -0.2306308 0.4171415 0.08826429
v -0.2806141 0.4648316 0.1153129
v -0.2498814 0.4236955 0.1483368
v -0.3013506 0.3956599 0.1375863
v -0.2632165 0.3866844 0.1135448
v -0.3041682 0.4337496 0.1347128
v -0.2418433 0.4578958 0.09059788
v -0.3147092 0.4006874 0.1457743
v -0.4522957 0.4323744 0.2326019
v -0.3639751 0.3515812 0.2480443
v -0.4246632 0.2508104 0.2369303
v -0.3457951 0.2866287 0.1804518
v -0.4661314 0.3300838 0.2544376
v -0.3741954 0.4735826 0.1759602
vt 0.9537997 0.3893854
vt 0.9537997 0.3893854
vt 0.9537997 0.3893854
vt 0.9537997 0.3893854
vt 0.9537997 0.3893854
vt 0.9537997 0.3893854
vt 0.9537997 0.3893854
vt 0.923654 0.3893854
vt 0.9596907 0.3893854
vt 0.9537221 0.3893854
vt 0.9121971 0.3893854
vt 0.9537997 0.3893854
vt 0.9537997 0.3893854
vt 0.9696512 0.3893854
vt 0.954047 0.3893854
vt 0.9177299 0.3893853
vt 0.9537997 0.3893854
vt 0.9537997 0.3893854
vt 0.9600402 0.3893854
vt 0.9114067 0.3893854
vt 0.919408 0.3893854
vt 0.922839 0.3893854
vt 0.9537997 0.3893854
vt 0.9537997 0.3893854
vt 0.9537997 0.3893854
vt 0.9537997 0.3893854
vt 0.9537997 0.3893854
vt 0.9537997 0.3893854
vt 0.9537997 0.3893854
vt 0.9537997 0.3893854
vt 0.9177299 0.3893853
vt 0.9474127 0.3893854
vt 0.9474127 0.3893854
vt 0.922839 0.3893854
vt 0.9060196 0.3893854
vt 0.9063445 0.3893854
vt 0.9121971 0.3893854
vt 0.9177299 0.3893853
vt 0.9362543 0.3893854
vt 0.9131197 0.3893853
vt 0.923654 0.3893854
vt 0.9219487 0.3893854
vt 0.9596907 0.3893854
vt 0.9149175 0.3893854
vt 0.9060196 0.3893854
vt 0.9063445 0.3893854
vt 0.9123377 0.3893854
vt 0.9114067 0.3893854
vt 0.919408 0.3893854
vt 0.9114067 0.3893854
vt 0.919408 0.3893854
vt 0.9114067 0.3893854
vt 0.919408 0.3893854
vt 0.923654 0.3893854
vt 0.9219487 0.3893854
vt 0.923654 0.3893854
vt 0.9219487 0.3893854
vt 0.9229523 0.3893854
vt 0.9168085 0.3893854
vt 0.9474127 0.3893854
vt 0.9219487 0.3893854
vt 0.9123377 0.3893854
vt 0.9474127 0.3893854
vt 0.9366038 0.3893854
vt 0.930624 0.3893854
vt 0.9368016 0.3893854
vt 0.9131197 0.3893853
vt 0.936926 0.3893853
vt 0.9308698 0.3893854
vt 0.9411955 0.3893853
vt 0.9336871 0.3893854
vt 0.930624 0.3893854
vt 0.9368016 0.3893854
vt 0.9131197 0.3893853
vt 0.936926 0.3893853
vt 0.9308698 0.3893854
vt 0.9411955 0.3893853
vt 0.9336871 0.3893854
vt 0.930624 0.3893854
vt 0.9368016 0.3893854
vt 0.9131197 0.3893853
vt 0.936926 0.3893853
vt 0.9308698 0.3893854
vt 0.9411955 0.3893853
vt 0.9336871 0.3893854
vn 0.8252408 -0.3910449 0.4075064
vn 0.9750199 0.142234 0.170604
vn 0.9150645 0.3861095 0.1165177
vn 0.8722498 0.4889085 0.01219112
vn 0.7606306 0.6480743 -0.03795644
vn 0.2819628 0.9384168 0.1996771
vn 0.6576227 -0.6379996 0.4006107
vn 0.9511604 -0.2105794 0.2257214
vn 0.9463459 0.2720397 0.174424
vn 0.8847602 0.3608325 0.2949564
vn 0.3152532 0.8793294 0.3569249
vn -0.2485956 0.7715853 0.5855393
vn 0.8545597 -0.5192941 0.007822056
vn 0.7416025 -0.6040304 0.2918442
vn 0.1576727 0.1532095 0.9755338
vn -0.06163407 0.4663495 0.8824508
vn -0.1594344 0.9401221 0.3012493
vn 0.4344072 -0.8345929 0.3387403
vn 0.3475762 -0.5910996 0.7278682
vn -0.06919231 -0.477704 0.8757919
vn -0.1588056 0.2274873 0.9607446
vn -0.1603717 0.3158136 0.9351699
vn -0.5162138 0.6757788 0.5261618
vn 0.4727921 -0.6156893 0.6303922
vn 0.2021012 -0.5918409 0.7803073
vn 0.03762011 -0.3524762 0.9350643
vn -0.1217936 -0.05576443 0.9909877
vn -0.2579179 0.2283098 0.938804
vn -0.3411568 0.4313817 0.8351778
vn -0.3005266 0.5449408 0.7827664
vn 0.3604209 0.7096663 0.605368
vn 0.02945173 0.9739862 0.2246853
vn -0.4492232 0.7351061 0.5077574
vn -0.1291556 0.4497391 0.8837723
vn 0.8384567 0.1243088 0.5306013
vn 0.2928854 -0.2150549 0.9316489
vn 0.3501236 0.6371059 0.6866656
vn -0.2373331 0.2137333 0.947624
vn 0.0002631083 0.781851 0.6234653
vn 0.4033458 0.1755081 0.8980586
vn 0.864328 0.1399042 0.4830776
vn 0.6238189 -0.460427 0.6315512
vn 0.8987005 0.02814678 0.4376588
vn 0.6069848 -0.1371135 0.7827958
vn 0.7725854 0.2112833 0.5987245
vn 0.3352898 0.2644351 0.9042426
vn 0.4513427 -0.6033587 0.6574558
vn 0.3662989 -0.3887666 0.8453908
vn 0.1899231 0.3187488 0.9286164
vn -0.251867 -0.442415 0.8607159
vn -0.3657564 0.3446938 0.8645279
vn 0.3822101 -0.4242029 0.8209552
vn 0.2516038 0.335299 0.9078932
vn 0.9176073 -0.3953308 0.04135715
vn 0.3388213 -0.9338211 0.1147975
vn 0.8451163 0.1383263 0.5163761
vn 0.490679 -0.5427025 0.681695
vn 0.7398821 -0.529745 0.4146621
vn -0.008931565 -0.04891553 0.998763
vn 0.8524265 -0.5197628 -0.0567068
vn 0.8795263 -0.01473474 0.4756221
vn 0.3334891 -0.4331029 0.8373809
vn 0.3462535 -0.9000174 0.2647211
vn 0.7074677 -0.5720232 0.4150648
vn 0.8485209 -0.1040199 0.5188375
vn 0.3221964 0.5280464 0.7857204
vn 0.5199459 0.07672505 0.8507465
vn 0.2027119 -0.2370497 0.9501134
vn 0.5840753 -0.4756916 0.6577032
vn 0.06365024 0.2758125 0.9591016
vn 0.7051439 0.397643 0.5870708
vn 0.9313373 -0.1777266 0.317843
vn 0.1876838 0.6963432 0.6927345
vn 0.5048288 0.0829615 0.8592236
vn 0.008800851 -0.3720689 0.9281634
vn 0.535775 -0.6727256 0.5102798
vn -0.1716676 0.3306139 0.9280219
vn 0.7424524 0.5259531 0.414895
vn 0.8675377 0.1296626 0.4801728
vn 0.1726699 0.3637159 0.9153665
vn 0.5367053 0.06541893 0.8412299
vn 0.397925 -0.333889 0.8545021
vn 0.8047625 -0.3048116 0.5093597
vn 0.05816306 0.02044104 0.9980978
vn 0.550922 0.4582578 0.6974846
g dirtMoundStatic_geo_0
f 8/8/8 1/1/1 2/2/2
f 7/7/7 1/1/1 8/8/8
f 14/14/14 7/7/7 8/8/8
f 13/13/13 7/7/7 14/14/14
f 61/61/61 13/13/13 14/14/14
f 60/60/60 13/13/13 61/61/61
f 64/64/64 60/60/60 61/61/61
f 63/63/63 60/60/60 64/64/64
f 62/62/62 63/63/63 64/64/64
f 19/19/19 63/63/63 62/62/62
f 14/14/14 19/19/19 62/62/62
f 42/42/42 19/19/19 14/14/14
f 55/55/55 42/42/42 14/14/14
f 57/57/57 42/42/42 55/55/55
f 58/58/58 57/57/57 55/55/55
f 56/56/56 57/57/57 58/58/58
f 54/54/54 56/56/56 58/58/58
f 8/8/8 56/56/56 54/54/54
f 14/14/14 8/8/8 54/54/54
f 41/41/41 56/56/56 8/8/8
f 43/43/43 41/41/41 8/8/8
f 42/42/42 41/41/41 43/43/43
f 44/44/44 42/42/42 43/43/43
f 47/47/47 42/42/42 44/44/44
f 48/48/48 47/47/47 44/44/44
f 20/20/20 47/47/47 48/48/48
f 52/52/52 20/20/20 48/48/48
f 50/50/50 20/20/20 52/52/52
f 59/59/59 50/50/50 52/52/52
f 51/51/51 50/50/50 59/59/59
f 53/53/53 51/51/51 59/59/59
f 49/49/49 51/51/51 53/53/53
f 48/48/48 49/49/49 53/53/53
f 46/46/46 49/49/49 48/48/48
f 44/44/44 46/46/46 48/48/48
f 45/45/45 46/46/46 44/44/44
f 43/43/43 45/45/45 44/44/44
f 9/9/9 45/45/45 43/43/43
f 8/8/8 9/9/9 43/43/43
f 3/3/3 9/9/9 8/8/8
f 2/2/2 3/3/3 8/8/8
f 11/11/11 6/6/6 12/12/12
f 5/5/5 6/6/6 11/11/11
f 10/10/10 5/5/5 11/11/11
f 4/4/4 5/5/5 10/10/10
f 9/9/9 4/4/4 10/10/10
f 3/3/3 4/4/4 9/9/9
f 37/37/37 10/10/10 11/11/11
f 35/35/35 10/10/10 37/37/37
f 40/40/40 35/35/35 37/37/37
f 36/36/36 35/35/35 40/40/40
f 38/38/38 36/36/36 40/40/40
f 16/16/16 36/36/36 38/38/38
f 11/11/11 16/16/16 38/38/38
f 17/17/17 16/16/16 11/11/11
f 12/12/12 17/17/17 11/11/11
f 19/19/19 25/25/25 24/24/24
f 26/26/26 25/25/25 19/19/19
f 20/20/20 26/26/26 19/19/19
f 27/27/27 26/26/26 20/20/20
f 21/21/21 27/27/27 20/20/20
f 28/28/28 27/27/27 21/21/21
f 22/22/22 28/28/28 21/21/21
f 29/29/29 28/28/28 22/22/22
f 30/30/30 29/29/29 22/22/22
f 16/16/16 22/22/22 21/21/21
f 31/31/31 22/22/22 16/16/16
f 32/32/32 31/31/31 16/16/16
f 39/39/39 31/31/31 32/32/32
f 33/33/33 39/39/39 32/32/32
f 34/34/34 39/39/39 33/33/33
f 23/23/23 34/34/34 33/33/33
f 22/22/22 34/34/34 23/23/23
f 30/30/30 22/22/22 23/23/23
f 18/18/18 19/19/19 24/24/24
f 63/63/63 19/19/19 18/18/18
f 60/60/60 63/63/63 18/18/18
f 17/17/17 32/32/32 16/16/16
f 33/33/33 32/32/32 17/17/17
f 23/23/23 33/33/33 17/17/17
f 60/60/60 18/18/18 13/13/13
f 67/67/67 71/71/71 66/66/66
f 65/65/65 71/71/71 67/67/67
f 69/69/69 65/65/65 67/67/67
f 67/67/67 68/68/68 69/69/69
f 70/70/70 68/68/68 67/67/67
f 66/66/66 70/70/70 67/67/67
f 74/74/74 78/78/78 73/73/73
f 72/72/72 78/78/78 74/74/74
f 76/76/76 72/72/72 74/74/74
f 74/74/74 75/75/75 76/76/76
f 77/77/77 75/75/75 74/74/74
f 73/73/73 77/77/77 74/74/74
f 81/81/81 85/85/85 80/80/80
f 79/79/79 85/85/85 81/81/81
f 83/83/83 79/79/79 81/81/81
f 81/81/81 82/82/82 83/83/83
f 84/84/84 82/82/82 81/81/81
f 80/80/80 84/84/84 81/81/81
f 62/62/62 61/61/61 14/14/14
f 64/64/64 61/61/61 62/62/62
f 15/15/15 36/36/36 16/16/16
f 21/21/21 15/15/15 16/16/16
f 49/49/49 15/15/15 21/21/21
f 51/51/51 49/49/49 21/21/21
f 34/34/34 31/31/31 39/39/39
f 22/22/22 31/31/31 34/34/34
f 15/15/15 35/35/35 36/36/36
f 10/10/10 35/35/35 15/15/15
f 46/46/46 10/10/10 15/15/15
f 45/45/45 10/10/10 46/46/46
f 37/37/37 38/38/38 40/40/40
f 11/11/11 38/38/38 37/37/37
f 45/45/45 9/9/9 10/10/10
f 47/47/47 19/19/19 42/42/42
f 20/20/20 19/19/19 47/47/47
f 46/46/46 15/15/15 49/49/49
f 50/50/50 21/21/21 20/20/20
f 51/51/51 21/21/21 50/50/50
f 52/52/52 53/53/53 59/59/59
f 48/48/48 53/53/53 52/52/52
f 55/55/55 54/54/54 58/58/58
f 14/14/14 54/54/54 55/55/55
f 57/57/57 41/41/41 42/42/42
f 56/56/56 41/41/41 57/57/57
