g E2_detailSiding_geo
v -191.4444 0.1903545 -95.32168
v -192.3733 0.1903283 -95.32168
v -191.4444 0.6875995 -95.32169
v -192.3733 0.6875733 -95.32169
v -191.4444 0.6875853 -94.3927
v -192.3733 0.6875591 -94.3927
v -191.4444 0.1903404 -94.39269
v -192.3733 0.1903142 -94.39269
v -191.4699 0.03043951 -95.29612
v -192.3478 0.03041682 -95.29612
v -191.4699 0.1903597 -95.29613
v -192.3478 0.190337 -95.29613
v -191.4699 0.1903474 -94.41826
v -192.3478 0.1903246 -94.41826
v -191.4699 0.0304273 -94.41825
v -192.3478 0.03040452 -94.41825
v -191.526 0.687596 -95.24001
v -192.2917 0.6875744 -95.24001
v -192.2917 0.6875627 -94.47438
v -191.526 0.6875842 -94.47438
v -191.526 0.6084881 -95.24001
v -192.2917 0.6084664 -95.24001
v -192.2917 0.6084547 -94.47438
v -191.526 0.6084764 -94.47438
v -191.4444 0.1903545 -100.3677
v -192.3733 0.1903283 -100.3677
v -191.4444 0.6875995 -100.3677
v -192.3733 0.6875733 -100.3677
v -191.4444 0.6875853 -99.43873
v -192.3733 0.6875591 -99.43873
v -191.4444 0.1903404 -99.43872
v -192.3733 0.1903142 -99.43872
v -191.4699 0.03043951 -100.3421
v -192.3478 0.03041682 -100.3421
v -191.4699 0.1903597 -100.3421
v -192.3478 0.190337 -100.3421
v -191.4699 0.1903474 -99.46429
v -192.3478 0.1903246 -99.46429
v -191.4699 0.0304273 -99.46427
v -192.3478 0.03040452 -99.46427
v -191.526 0.687596 -100.286
v -192.2917 0.6875744 -100.286
v -192.2917 0.6875627 -99.52041
v -191.526 0.6875842 -99.52041
v -191.526 0.6084881 -100.286
v -192.2917 0.6084664 -100.286
v -192.2917 0.6084547 -99.52041
v -191.526 0.6084764 -99.52041
v -191.4444 0.1903404 -94.39269
v -192.3733 0.1903283 -95.32168
v -192.3733 0.1903142 -94.39269
v -191.4444 0.1903545 -95.32168
v -192.3733 0.1903283 -95.32168
v -192.3733 0.6875591 -94.3927
v -192.3733 0.1903142 -94.39269
v -192.3733 0.6875733 -95.32169
v -191.4444 0.1903404 -94.39269
v -191.4444 0.6875995 -95.32169
v -191.4444 0.1903545 -95.32168
v -191.4444 0.6875853 -94.3927
v -191.4699 0.1903597 -95.29613
v -192.3478 0.190337 -95.29613
v -191.4699 0.1903474 -94.41826
v -192.3478 0.1903246 -94.41826
v -191.4699 0.0304273 -94.41825
v -192.3478 0.03041682 -95.29612
v -192.3478 0.03040452 -94.41825
v -191.4699 0.03043951 -95.29612
v -192.3478 0.03041682 -95.29612
v -192.3478 0.1903246 -94.41826
v -192.3478 0.03040452 -94.41825
v -192.3478 0.190337 -95.29613
v -191.4699 0.0304273 -94.41825
v -191.4699 0.1903597 -95.29613
v -191.4699 0.03043951 -95.29612
v -191.4699 0.1903474 -94.41826
v -191.4444 0.6875995 -95.32169
v -192.3733 0.6875733 -95.32169
v -192.3733 0.6875591 -94.3927
v -191.4444 0.6875853 -94.3927
v -191.526 0.687596 -95.24001
v -192.2917 0.6084664 -95.24001
v -192.2917 0.6875744 -95.24001
v -191.526 0.6084881 -95.24001
v -192.2917 0.6875744 -95.24001
v -192.2917 0.6084547 -94.47438
v -192.2917 0.6875627 -94.47438
v -192.2917 0.6084664 -95.24001
v -192.2917 0.6875627 -94.47438
v -191.526 0.6084764 -94.47438
v -191.526 0.6875842 -94.47438
v -192.2917 0.6084547 -94.47438
v -191.526 0.6875842 -94.47438
v -191.526 0.6084881 -95.24001
v -191.526 0.687596 -95.24001
v -191.526 0.6084764 -94.47438
v -191.4444 0.1903404 -99.43872
v -192.3733 0.1903283 -100.3677
v -192.3733 0.1903142 -99.43872
v -191.4444 0.1903545 -100.3677
v -192.3733 0.1903283 -100.3677
v -192.3733 0.6875591 -99.43873
v -192.3733 0.1903142 -99.43872
v -192.3733 0.6875733 -100.3677
v -191.4444 0.1903404 -99.43872
v -191.4444 0.6875995 -100.3677
v -191.4444 0.1903545 -100.3677
v -191.4444 0.6875853 -99.43873
v -191.4699 0.1903597 -100.3421
v -192.3478 0.190337 -100.3421
v -191.4699 0.1903474 -99.46429
v -192.3478 0.1903246 -99.46429
v -191.4699 0.0304273 -99.46427
v -192.3478 0.03041682 -100.3421
v -192.3478 0.03040452 -99.46427
v -191.4699 0.03043951 -100.3421
v -192.3478 0.03041682 -100.3421
v -192.3478 0.1903246 -99.46429
v -192.3478 0.03040452 -99.46427
v -192.3478 0.190337 -100.3421
v -191.4699 0.0304273 -99.46427
v -191.4699 0.1903597 -100.3421
v -191.4699 0.03043951 -100.3421
v -191.4699 0.1903474 -99.46429
v -191.4444 0.6875995 -100.3677
v -192.3733 0.6875733 -100.3677
v -192.3733 0.6875591 -99.43873
v -191.4444 0.6875853 -99.43873
v -191.526 0.687596 -100.286
v -192.2917 0.6084664 -100.286
v -192.2917 0.6875744 -100.286
v -191.526 0.6084881 -100.286
v -192.2917 0.6875744 -100.286
v -192.2917 0.6084547 -99.52041
v -192.2917 0.6875627 -99.52041
v -192.2917 0.6084664 -100.286
v -192.2917 0.6875627 -99.52041
v -191.526 0.6084764 -99.52041
v -191.526 0.6875842 -99.52041
v -192.2917 0.6084547 -99.52041
v -191.526 0.6875842 -99.52041
v -191.526 0.6084881 -100.286
v -191.526 0.687596 -100.286
v -191.526 0.6084764 -99.52041
vt 0.4650058 0.8758703
vt 0.4650058 0.8758703
vt 0.4650058 0.8758703
vt 0.4650058 0.8758703
vt 0.4578787 0.8762364
vt 0.4578787 0.8762364
vt 0.4578787 0.8762364
vt 0.4578787 0.8762364
vt 0.4650058 0.8674379
vt 0.4650058 0.8674379
vt 0.4650058 0.8674379
vt 0.4650058 0.8674379
vt 0.4626139 0.878604
vt 0.4626139 0.878604
vt 0.4578787 0.8678041
vt 0.4578787 0.8678041
vt 0.461584 0.8856902
vt 0.461584 0.8856902
vt 0.461584 0.8856902
vt 0.461584 0.8856902
vt 0.2411121 0.8214098
vt 0.2411121 0.8177046
vt 0.2411121 0.8177046
vt 0.2411121 0.8214098
vt 0.4650058 0.8758703
vt 0.4650058 0.8758703
vt 0.4650058 0.8758703
vt 0.4650058 0.8758703
vt 0.4578787 0.8762364
vt 0.4578787 0.8762364
vt 0.4578787 0.8762364
vt 0.4578787 0.8762364
vt 0.4650058 0.8674379
vt 0.4650058 0.8674379
vt 0.4650058 0.8674379
vt 0.4650058 0.8674379
vt 0.4626139 0.878604
vt 0.4626139 0.878604
vt 0.4578787 0.8678041
vt 0.4578787 0.8678041
vt 0.461584 0.8856902
vt 0.461584 0.8856902
vt 0.461584 0.8856902
vt 0.461584 0.8856902
vt 0.2411121 0.8214098
vt 0.2411121 0.8177046
vt 0.2411121 0.8177046
vt 0.2411121 0.8214098
vt 0.4514537 0.8655838
vt 0.4514537 0.8655838
vt 0.4514537 0.8655838
vt 0.4514537 0.8655838
vt 0.4683871 0.8714723
vt 0.4683871 0.8714723
vt 0.4683871 0.8714723
vt 0.4683871 0.8714723
vt 0.4626139 0.878604
vt 0.4626139 0.878604
vt 0.4626139 0.878604
vt 0.4626139 0.878604
vt 0.4626139 0.878604
vt 0.4626139 0.878604
vt 0.4578787 0.8678041
vt 0.4578787 0.8678041
vt 0.4514537 0.8571514
vt 0.4514537 0.8571514
vt 0.4514537 0.8571514
vt 0.4514537 0.8571514
vt 0.4683871 0.8630399
vt 0.4683871 0.8630399
vt 0.4683871 0.8630399
vt 0.4683871 0.8630399
vt 0.4626139 0.8701716
vt 0.4626139 0.8701716
vt 0.4626139 0.8701716
vt 0.4626139 0.8701716
vt 0.461584 0.8856902
vt 0.461584 0.8856902
vt 0.461584 0.8856902
vt 0.461584 0.8856902
vt 0.4524499 0.8758575
vt 0.4524499 0.8758574
vt 0.4524499 0.8758575
vt 0.4524499 0.8758574
vt 0.4524499 0.8812198
vt 0.4524499 0.8812197
vt 0.4524499 0.8812198
vt 0.4524499 0.8812197
vt 0.4524499 0.8758575
vt 0.4524499 0.8758574
vt 0.4524499 0.8758575
vt 0.4524499 0.8758574
vt 0.4524499 0.87407
vt 0.4524499 0.87407
vt 0.4524499 0.87407
vt 0.4524499 0.87407
vt 0.4514537 0.8655838
vt 0.4514537 0.8655838
vt 0.4514537 0.8655838
vt 0.4514537 0.8655838
vt 0.4683871 0.8714723
vt 0.4683871 0.8714723
vt 0.4683871 0.8714723
vt 0.4683871 0.8714723
vt 0.4626139 0.878604
vt 0.4626139 0.878604
vt 0.4626139 0.878604
vt 0.4626139 0.878604
vt 0.4626139 0.878604
vt 0.4626139 0.878604
vt 0.4578787 0.8678041
vt 0.4578787 0.8678041
vt 0.4514537 0.8571514
vt 0.4514537 0.8571514
vt 0.4514537 0.8571514
vt 0.4514537 0.8571514
vt 0.4683871 0.8630399
vt 0.4683871 0.8630399
vt 0.4683871 0.8630399
vt 0.4683871 0.8630399
vt 0.4626139 0.8701716
vt 0.4626139 0.8701716
vt 0.4626139 0.8701716
vt 0.4626139 0.8701716
vt 0.461584 0.8856902
vt 0.461584 0.8856902
vt 0.461584 0.8856902
vt 0.461584 0.8856902
vt 0.4524499 0.8758575
vt 0.4524499 0.8758574
vt 0.4524499 0.8758575
vt 0.4524499 0.8758574
vt 0.4524499 0.8812198
vt 0.4524499 0.8812197
vt 0.4524499 0.8812198
vt 0.4524499 0.8812197
vt 0.4524499 0.8758575
vt 0.4524499 0.8758574
vt 0.4524499 0.8758575
vt 0.4524499 0.8758574
vt 0.4524499 0.87407
vt 0.4524499 0.87407
vt 0.4524499 0.87407
vt 0.4524499 0.87407
vn 0.5773521 -0.577354 -0.5773446
vn -0.5773342 -0.5773573 -0.5773593
vn 0.4082355 0.8165041 -0.408246
vn -0.4082714 0.8164914 -0.4082355
vn 0.4082283 0.8165001 0.4082613
vn -0.4082595 0.8164892 0.4082518
vn 0.5773681 -0.5773434 0.5773392
vn -0.577345 -0.5773494 0.5773565
vn 0.5773387 -0.5773802 -0.5773318
vn -0.5773819 -0.577264 -0.5774049
vn 0.5773618 0.5773203 -0.5773687
vn -0.5773187 0.5774366 -0.5772956
vn 0.5773329 0.5773619 0.577356
vn -0.5772898 0.5774782 0.5772829
vn 0.5773675 -0.5773387 0.5773445
vn -0.5774108 -0.5772223 0.5774177
vn -0.4082697 0.816483 0.408254
vn 0.4082224 0.816502 0.4082635
vn 0.408231 0.8165087 -0.4082415
vn -0.4082695 0.8164932 -0.4082338
vn -0.5773632 0.5773394 0.5773482
vn 0.5773314 0.5773552 0.5773641
vn 0.5773423 0.5773586 -0.5773498
vn -0.5773641 0.5773478 -0.577339
vn 0.5773534 -0.5773478 -0.5773498
vn -0.5773443 -0.577341 -0.5773655
vn 0.4082305 0.8165078 -0.4082438
vn -0.4082684 0.8164958 -0.4082298
vn 0.408226 0.816501 0.4082617
vn -0.4082592 0.8164909 0.4082487
vn 0.5773656 -0.5773447 0.5773405
vn -0.5773512 -0.5773407 0.5773588
vn 0.5773504 -0.5773568 -0.5773435
vn -0.577389 -0.5772498 -0.577412
vn 0.57735 0.5773438 -0.577357
vn -0.5773116 0.5774508 -0.5772885
vn 0.5773286 0.577364 0.5773582
vn -0.5772986 0.5774667 0.5772854
vn 0.5773633 -0.5773408 0.5773467
vn -0.5774104 -0.5772294 0.5774109
vn -0.4082697 0.816483 0.408254
vn 0.4082224 0.816502 0.4082635
vn 0.4082353 0.8165069 -0.4082406
vn -0.4082652 0.8164949 -0.4082347
vn -0.5773632 0.5773394 0.5773482
vn 0.5773314 0.5773552 0.5773641
vn 0.5773473 0.5773562 -0.5773474
vn -0.5773591 0.5773503 -0.5773414
vn 0.5773681 -0.5773434 0.5773392
vn -0.5773342 -0.5773573 -0.5773593
vn -0.577345 -0.5773494 0.5773565
vn 0.5773521 -0.577354 -0.5773446
vn -0.5773342 -0.5773573 -0.5773593
vn -0.4082595 0.8164892 0.4082518
vn -0.577345 -0.5773494 0.5773565
vn -0.4082714 0.8164914 -0.4082355
vn 0.5773681 -0.5773434 0.5773392
vn 0.4082355 0.8165041 -0.408246
vn 0.5773521 -0.577354 -0.5773446
vn 0.4082283 0.8165001 0.4082613
vn 0.5773618 0.5773203 -0.5773687
vn -0.5773187 0.5774366 -0.5772956
vn 0.5773329 0.5773619 0.577356
vn -0.5772898 0.5774782 0.5772829
vn 0.5773675 -0.5773387 0.5773445
vn -0.5773819 -0.577264 -0.5774049
vn -0.5774108 -0.5772223 0.5774177
vn 0.5773387 -0.5773802 -0.5773318
vn -0.5773819 -0.577264 -0.5774049
vn -0.5772898 0.5774782 0.5772829
vn -0.5774108 -0.5772223 0.5774177
vn -0.5773187 0.5774366 -0.5772956
vn 0.5773675 -0.5773387 0.5773445
vn 0.5773618 0.5773203 -0.5773687
vn 0.5773387 -0.5773802 -0.5773318
vn 0.5773329 0.5773619 0.577356
vn 0.4082355 0.8165041 -0.408246
vn -0.4082714 0.8164914 -0.4082355
vn -0.4082595 0.8164892 0.4082518
vn 0.4082283 0.8165001 0.4082613
vn -0.4082697 0.816483 0.408254
vn 0.5773314 0.5773552 0.5773641
vn 0.4082224 0.816502 0.4082635
vn -0.5773632 0.5773394 0.5773482
vn 0.4082224 0.816502 0.4082635
vn 0.5773423 0.5773586 -0.5773498
vn 0.408231 0.8165087 -0.4082415
vn 0.5773314 0.5773552 0.5773641
vn 0.408231 0.8165087 -0.4082415
vn -0.5773641 0.5773478 -0.577339
vn -0.4082695 0.8164932 -0.4082338
vn 0.5773423 0.5773586 -0.5773498
vn -0.4082695 0.8164932 -0.4082338
vn -0.5773632 0.5773394 0.5773482
vn -0.4082697 0.816483 0.408254
vn -0.5773641 0.5773478 -0.577339
vn 0.5773656 -0.5773447 0.5773405
vn -0.5773443 -0.577341 -0.5773655
vn -0.5773512 -0.5773407 0.5773588
vn 0.5773534 -0.5773478 -0.5773498
vn -0.5773443 -0.577341 -0.5773655
vn -0.4082592 0.8164909 0.4082487
vn -0.5773512 -0.5773407 0.5773588
vn -0.4082684 0.8164958 -0.4082298
vn 0.5773656 -0.5773447 0.5773405
vn 0.4082305 0.8165078 -0.4082438
vn 0.5773534 -0.5773478 -0.5773498
vn 0.408226 0.816501 0.4082617
vn 0.57735 0.5773438 -0.577357
vn -0.5773116 0.5774508 -0.5772885
vn 0.5773286 0.577364 0.5773582
vn -0.5772986 0.5774667 0.5772854
vn 0.5773633 -0.5773408 0.5773467
vn -0.577389 -0.5772498 -0.577412
vn -0.5774104 -0.5772294 0.5774109
vn 0.5773504 -0.5773568 -0.5773435
vn -0.577389 -0.5772498 -0.577412
vn -0.5772986 0.5774667 0.5772854
vn -0.5774104 -0.5772294 0.5774109
vn -0.5773116 0.5774508 -0.5772885
vn 0.5773633 -0.5773408 0.5773467
vn 0.57735 0.5773438 -0.577357
vn 0.5773504 -0.5773568 -0.5773435
vn 0.5773286 0.577364 0.5773582
vn 0.4082305 0.8165078 -0.4082438
vn -0.4082684 0.8164958 -0.4082298
vn -0.4082592 0.8164909 0.4082487
vn 0.408226 0.816501 0.4082617
vn -0.4082697 0.816483 0.408254
vn 0.5773314 0.5773552 0.5773641
vn 0.4082224 0.816502 0.4082635
vn -0.5773632 0.5773394 0.5773482
vn 0.4082224 0.816502 0.4082635
vn 0.5773473 0.5773562 -0.5773474
vn 0.4082353 0.8165069 -0.4082406
vn 0.5773314 0.5773552 0.5773641
vn 0.4082353 0.8165069 -0.4082406
vn -0.5773591 0.5773503 -0.5773414
vn -0.4082652 0.8164949 -0.4082347
vn 0.5773473 0.5773562 -0.5773474
vn -0.4082652 0.8164949 -0.4082347
vn -0.5773632 0.5773394 0.5773482
vn -0.4082697 0.816483 0.408254
vn -0.5773591 0.5773503 -0.5773414
g E2_detailSiding_geo_0
f 4/4/4 1/1/1 2/2/2
f 3/3/3 1/1/1 4/4/4
f 23/23/23 21/21/21 22/22/22
f 24/24/24 21/21/21 23/23/23
f 8/8/8 5/5/5 6/6/6
f 7/7/7 5/5/5 8/8/8
f 50/50/50 49/49/49 51/51/51
f 52/52/52 49/49/49 50/50/50
f 54/54/54 53/53/53 55/55/55
f 56/56/56 53/53/53 54/54/54
f 58/58/58 57/57/57 59/59/59
f 60/60/60 57/57/57 58/58/58
f 12/12/12 9/9/9 10/10/10
f 11/11/11 9/9/9 12/12/12
f 14/14/14 61/61/61 62/62/62
f 13/13/13 61/61/61 14/14/14
f 16/16/16 63/63/63 64/64/64
f 15/15/15 63/63/63 16/16/16
f 66/66/66 65/65/65 67/67/67
f 68/68/68 65/65/65 66/66/66
f 70/70/70 69/69/69 71/71/71
f 72/72/72 69/69/69 70/70/70
f 74/74/74 73/73/73 75/75/75
f 76/76/76 73/73/73 74/74/74
f 82/82/82 81/81/81 83/83/83
f 84/84/84 81/81/81 82/82/82
f 86/86/86 85/85/85 87/87/87
f 88/88/88 85/85/85 86/86/86
f 90/90/90 89/89/89 91/91/91
f 92/92/92 89/89/89 90/90/90
f 94/94/94 93/93/93 95/95/95
f 96/96/96 93/93/93 94/94/94
f 28/28/28 25/25/25 26/26/26
f 27/27/27 25/25/25 28/28/28
f 47/47/47 45/45/45 46/46/46
f 48/48/48 45/45/45 47/47/47
f 32/32/32 29/29/29 30/30/30
f 31/31/31 29/29/29 32/32/32
f 98/98/98 97/97/97 99/99/99
f 100/100/100 97/97/97 98/98/98
f 102/102/102 101/101/101 103/103/103
f 104/104/104 101/101/101 102/102/102
f 106/106/106 105/105/105 107/107/107
f 108/108/108 105/105/105 106/106/106
f 36/36/36 33/33/33 34/34/34
f 35/35/35 33/33/33 36/36/36
f 38/38/38 109/109/109 110/110/110
f 37/37/37 109/109/109 38/38/38
f 40/40/40 111/111/111 112/112/112
f 39/39/39 111/111/111 40/40/40
f 114/114/114 113/113/113 115/115/115
f 116/116/116 113/113/113 114/114/114
f 118/118/118 117/117/117 119/119/119
f 120/120/120 117/117/117 118/118/118
f 122/122/122 121/121/121 123/123/123
f 124/124/124 121/121/121 122/122/122
f 130/130/130 129/129/129 131/131/131
f 132/132/132 129/129/129 130/130/130
f 134/134/134 133/133/133 135/135/135
f 136/136/136 133/133/133 134/134/134
f 138/138/138 137/137/137 139/139/139
f 140/140/140 137/137/137 138/138/138
f 142/142/142 141/141/141 143/143/143
f 144/144/144 141/141/141 142/142/142
f 17/17/17 77/77/77 18/18/18
f 80/80/80 77/77/77 17/17/17
f 20/20/20 80/80/80 17/17/17
f 79/79/79 80/80/80 20/20/20
f 19/19/19 79/79/79 20/20/20
f 78/78/78 79/79/79 19/19/19
f 18/18/18 78/78/78 19/19/19
f 77/77/77 78/78/78 18/18/18
f 41/41/41 125/125/125 42/42/42
f 128/128/128 125/125/125 41/41/41
f 44/44/44 128/128/128 41/41/41
f 127/127/127 128/128/128 44/44/44
f 43/43/43 127/127/127 44/44/44
f 126/126/126 127/127/127 43/43/43
f 42/42/42 126/126/126 43/43/43
f 125/125/125 126/126/126 42/42/42
