g E2_dimicoHouse_geo
v -205.9765 4.815613 -89.28706
v -205.9765 5.493258 -89.28706
v -206.5856 5.493258 -89.28706
v -206.5856 4.815613 -89.28706
v -203.664 0.009999695 -109.0035
v -208.3754 0.009999695 -109.0035
v -203.664 0.009999695 -89.27706
v -208.3754 0.009999695 -89.27706
v -215.1084 2.664531 -100.1429
v -215.1084 2.664531 -99.58829
v -214.9347 3.252316 -100.1429
v -214.9347 3.252316 -99.58829
v -214.4801 3.615587 -100.1429
v -214.4801 3.615587 -99.58829
v -213.9181 3.615587 -100.1429
v -213.9181 3.615587 -99.58829
v -213.4634 3.252316 -100.1429
v -213.4634 3.252316 -99.58829
v -213.2898 2.664531 -100.1429
v -213.2898 2.664531 -99.58829
v -215.4879 2.664531 -100.1204
v -215.4879 2.664531 -100.0872
v -215.234 3.491456 -100.1204
v -215.234 3.491456 -100.0872
v -214.5944 4.002523 -100.1204
v -214.5944 4.002523 -100.0872
v -213.8038 4.002523 -100.1204
v -213.8038 4.002523 -100.0872
v -213.1641 3.491456 -100.1204
v -213.1641 3.491456 -100.0872
v -212.9103 2.664531 -100.1204
v -212.9103 2.664531 -100.0872
v -215.1084 0.02499995 -99.58829
v -215.1084 0.02499995 -100.1429
v -215.4974 0.0249999 -100.1204
v -215.4974 0.0249999 -100.1102
v -212.9008 0.0249999 -100.1102
v -212.9008 0.0249999 -100.1204
v -213.2898 0.02499997 -100.1429
v -213.2898 0.02499997 -99.58829
v -203.6912 0.009999695 -109.0035
v -203.6912 0.009999695 -89.27706
v -208.3458 0.009999695 -109.0035
v -208.3458 0.009999695 -89.27706
v -208.3754 0.009999695 -101.3959
v -215.7644 0.009999695 -101.3959
v -208.3754 0.009999695 -99.33006
v -215.7644 0.009999695 -99.33006
v -208.3753 0.009999694 -101.3747
v -215.7644 0.009999694 -101.3747
v -208.3754 0.009999695 -99.35854
v -215.7644 0.009999695 -99.35854
v -215.1084 2.664531 -100.1429
v -214.9347 3.252316 -100.1429
v -214.4801 3.615587 -100.1429
v -213.9181 3.615587 -100.1429
v -213.4634 3.252316 -100.1429
v -213.2898 2.664531 -100.1429
v -215.1084 0.02499995 -100.1429
v -213.2898 0.02499997 -100.1429
v -203.6912 0.009999695 -89.27706
v -203.6912 0.009999695 -109.0035
v -208.3458 0.009999695 -89.27706
v -208.3458 0.009999695 -109.0035
v -215.7644 0.009999694 -101.3747
v -208.3754 0.009999695 -99.35854
v -215.7644 0.009999695 -99.35854
v -208.3753 0.009999694 -101.3747
vt 0.8118355 0.8546246
vt 0.8118355 0.8546246
vt 0.8118355 0.8546246
vt 0.8118355 0.8546246
vt 0 1
vt 0 1
vt 0 1
vt 0 1
vt 0.1549812 0.3095782
vt 0.1549812 0.3095782
vt 0.1549812 0.3095782
vt 0.1549812 0.3095782
vt 0.1549812 0.3095782
vt 0.1549812 0.3095782
vt 0.1549812 0.3095782
vt 0.1549812 0.3095782
vt 0.1549812 0.3095782
vt 0.1549812 0.3095782
vt 0.1549812 0.3095782
vt 0.1549812 0.3095782
vt 0.1549812 0.3379012
vt 0.1549812 0.3379012
vt 0.1549812 0.3379012
vt 0.1549812 0.3379012
vt 0.1549812 0.3379012
vt 0.1549812 0.3379012
vt 0.1549812 0.3379012
vt 0.1549812 0.3379012
vt 0.1549812 0.3379012
vt 0.1549812 0.3379012
vt 0.1549812 0.3379012
vt 0.1549812 0.3379012
vt 0.1549812 0.3095782
vt 0.1549812 0.3095782
vt 0.1549812 0.3379012
vt 0.1549812 0.3379012
vt 0.1549812 0.3379012
vt 0.1549812 0.3379012
vt 0.1549812 0.3379012
vt 0.1549812 0.3095782
vt 0 1
vt 0 1
vt 0.5939539 0.9140936
vt 0.5939539 0.8771807
vt 0 1
vt 0 1
vt 0 1
vt 0 1
vt 0 1
vt 0 1
vt 0 1
vt 0 1
vt 0.1549812 0.3379012
vt 0.1549812 0.3379012
vt 0.1549812 0.3379012
vt 0.1549812 0.3379012
vt 0.1549812 0.3379012
vt 0.1549812 0.3379012
vt 0.1549812 0.3379012
vt 0.1549812 0.3095782
vt 0.5939539 0.8771807
vt 0.5939539 0.9140936
vt 0 1
vt 0 1
vt 0.5939539 0.8922665
vt 0.5939539 0.8922665
vt 0.5939539 0.8922665
vt 0.5939539 0.8922665
vn 0 0 -1
vn 0 0 -1
vn 0 0 -1
vn 0 0 -1
vn 0 1 0
vn 0 1 0
vn 0 1 0
vn 0 1 0
vn 0.6746572 -0.09718218 -0.7317057
vn 0.9897022 -0.143142 0
vn 0.5540628 -0.372708 -0.7443811
vn 0.8298422 -0.5579981 0
vn 0.2195589 -0.627299 -0.7471879
vn 0.3307159 -0.9437304 0
vn -0.2195664 -0.627295 -0.7471892
vn -0.3307272 -0.9437264 0
vn -0.5540642 -0.3727134 -0.7443774
vn -0.8298391 -0.5580027 0
vn -0.674655 -0.09719471 -0.731706
vn -0.9896997 -0.1431594 0
vn -0.7162383 0.1088448 -0.6893153
vn -0.9886647 0.1501396 0
vn -0.5894971 0.4005261 -0.7014784
vn -0.82688 0.5623783 0
vn -0.2342242 0.6676689 -0.7066521
vn -0.3307104 0.9437323 0
vn 0.2342242 0.6676686 -0.7066524
vn 0.3307104 0.9437323 0
vn 0.5894967 0.400526 -0.7014788
vn 0.82688 0.5623783 0
vn 0.716238 0.1088401 -0.6893163
vn 0.9886658 0.1501329 0
vn 1 0 0
vn 0.6861123 7.705802E-05 -0.7274956
vn -0.7274912 0.002535902 -0.6861123
vn -0.9999936 0.003583974 0
vn 0.9999937 0.003570334 0
vn 0.7274907 0.00252574 -0.6861129
vn -0.686113 7.62212E-05 -0.7274951
vn -1 0 0
vn 0 1 0
vn 0 1 0
vn 0 1 0
vn 0 1 0
vn 0 1 0
vn 0 1 0
vn 0 1 0
vn 0 1 0
vn 0 1 0
vn 0 1 0
vn 0 1 0
vn 0 1 0
vn 0.6746572 -0.09718218 -0.7317057
vn 0.5540628 -0.372708 -0.7443811
vn 0.2195589 -0.627299 -0.7471879
vn -0.2195664 -0.627295 -0.7471892
vn -0.5540642 -0.3727134 -0.7443774
vn -0.674655 -0.09719471 -0.731706
vn 0.6861123 7.705802E-05 -0.7274956
vn -0.686113 7.62212E-05 -0.7274951
vn 0 1 0
vn 0 1 0
vn 0 1 0
vn 0 1 0
vn 0 1 0
vn 0 1 0
vn 0 1 0
vn 0 1 0
g E2_dimicoHouse_geo_0
f 4/4/4 2/2/2 1/1/1
f 3/3/3 2/2/2 4/4/4
f 7/7/7 41/41/41 42/42/42
f 5/5/5 41/41/41 7/7/7
f 19/19/19 60/60/60 40/40/40
f 20/20/20 19/19/19 40/40/40
f 17/17/17 19/19/19 20/20/20
f 18/18/18 17/17/17 20/20/20
f 15/15/15 17/17/17 18/18/18
f 16/16/16 15/15/15 18/18/18
f 13/13/13 15/15/15 16/16/16
f 14/14/14 13/13/13 16/16/16
f 11/11/11 13/13/13 14/14/14
f 12/12/12 11/11/11 14/14/14
f 9/9/9 11/11/11 12/12/12
f 10/10/10 9/9/9 12/12/12
f 34/34/34 9/9/9 10/10/10
f 33/33/33 34/34/34 10/10/10
f 23/23/23 24/24/24 26/26/26
f 21/21/21 24/24/24 23/23/23
f 53/53/53 21/21/21 23/23/23
f 35/35/35 21/21/21 53/53/53
f 59/59/59 35/35/35 53/53/53
f 58/58/58 38/38/38 39/39/39
f 31/31/31 38/38/38 58/58/58
f 57/57/57 31/31/31 58/58/58
f 29/29/29 31/31/31 57/57/57
f 56/56/56 29/29/29 57/57/57
f 27/27/27 29/29/29 56/56/56
f 55/55/55 27/27/27 56/56/56
f 25/25/25 27/27/27 55/55/55
f 54/54/54 25/25/25 55/55/55
f 23/23/23 25/25/25 54/54/54
f 53/53/53 23/23/23 54/54/54
f 61/61/61 43/43/43 44/44/44
f 62/62/62 43/43/43 61/61/61
f 63/63/63 6/6/6 8/8/8
f 64/64/64 6/6/6 63/63/63
f 47/47/47 52/52/52 48/48/48
f 51/51/51 52/52/52 47/47/47
f 49/49/49 46/46/46 50/50/50
f 45/45/45 46/46/46 49/49/49
f 66/66/66 65/65/65 67/67/67
f 68/68/68 65/65/65 66/66/66
f 21/21/21 22/22/22 24/24/24
f 36/36/36 22/22/22 21/21/21
f 35/35/35 36/36/36 21/21/21
f 31/31/31 37/37/37 38/38/38
f 32/32/32 37/37/37 31/31/31
f 29/29/29 32/32/32 31/31/31
f 30/30/30 32/32/32 29/29/29
f 27/27/27 30/30/30 29/29/29
f 28/28/28 30/30/30 27/27/27
f 25/25/25 28/28/28 27/27/27
f 26/26/26 28/28/28 25/25/25
f 23/23/23 26/26/26 25/25/25
