g E2_detailGravel_geo
v -230.1675 -0.0001264936 -99.84891
v -235.1897 1.828949E-05 -99.44776
v -236.088 0.0001447782 -97.02047
v -235.0955 0.0001264989 -94.51144
v -228.7049 -0.0001447783 -97.02049
v -230.7496 0.2681985 -99.02666
v -234.6079 0.2683007 -98.62553
v -235.4889 0.2683905 -97.02042
v -234.5136 0.2683773 -95.33357
v -230.3703 0.3107654 -95.24897
v -229.869 0.2681854 -97.02044
v -231.274 0.4261381 -97.02042
v -234.0839 0.4294385 -97.02042
v -232.6788 -5.410442E-05 -99.9248
v -232.6789 0.4014739 -99.10257
v -232.6789 0.268288 -97.02042
v -232.6789 0.2683262 -95.03552
v -232.6788 5.410436E-05 -94.21342
v -235.1722 0.008090853 -99.42301
v -232.6788 0.01202779 -99.90005
v -230.185 0.007947349 -99.82416
v -228.74 0.007929222 -97.02049
v -232.6788 0.008126355 -94.23814
v -235.078 0.008198111 -94.53618
v -236.0699 0.008216238 -97.02047
v -232.0732 5.410436E-05 -93.54398
v -229.1826 -1.828478E-05 -93.75742
v -229.2001 0.009333132 -93.78216
v -232.0732 0.008126355 -93.56872
v -228.0993 -0.0001447783 -96.35106
v -228.1343 0.007929222 -96.35106
v -229.2633 0.2681854 -96.35101
v -229.7647 0.4400047 -94.57954
v -232.0733 0.3628102 -94.36609
v -231.2989 5.410436E-05 -92.46868
v -229.957 -1.828478E-05 -92.68214
v -229.9651 0.009333132 -92.70686
v -231.2989 0.008126355 -92.49342
v -230.2272 0.3107654 -93.50425
v -231.2989 0.2683262 -93.29081
v -232.6788 0.01202779 -99.90005
v -235.1722 0.008090853 -99.42301
v -230.185 0.007947349 -99.82416
v -228.74 0.007929222 -97.02049
v -229.2001 0.009333132 -93.78216
v -228.1343 0.007929222 -96.35106
v -231.2989 0.008126355 -92.49342
v -229.9651 0.009333132 -92.70686
v -235.078 0.008198111 -94.53618
v -232.6788 0.008126355 -94.23814
v -236.0699 0.008216238 -97.02047
v -232.0732 0.008126355 -93.56872
vt 0 1
vt 0 1
vt 2.980232E-08 1
vt 2.980232E-08 1
vt 0 1
vt 0.2437157 0.8265623
vt 0.2437157 0.8265623
vt 0.2437157 0.8265625
vt 0.2437157 0.8265623
vt 0.2437157 0.8265625
vt 0.2437157 0.8265623
vt 0.2437157 0.8335409
vt 0.2437157 0.8335409
vt 0 1
vt 0.2437157 0.8265625
vt 0.2437157 0.833541
vt 0.2437157 0.8265625
vt 0 1
vt 0 1
vt 0 1
vt 0 1
vt 0 1
vt 0 1
vt 0 1
vt 0 1
vt 0 1
vt 0 1
vt 0 1
vt 0 1
vt 2.980232E-08 1
vt 0 1
vt 0.2437157 0.8265625
vt 0.2437157 0.8265625
vt 0.2437157 0.8265625
vt 0 1
vt 2.980232E-08 1
vt 0 1
vt 0 1
vt 0.2437157 0.8265625
vt 0.2437157 0.8265625
vt 0.2437157 0.8224611
vt 0.2437157 0.822461
vt 0.2437156 0.8224611
vt 0.2437156 0.822461
vt 0.2437156 0.822461
vt 0.2437157 0.822461
vt 0.2437157 0.822461
vt 0.2437157 0.822461
vt 0.2437156 0.822461
vt 0.2437157 0.822461
vt 0.2437156 0.822461
vt 0.2437157 0.822461
vn 0.127059 0.9593818 -0.2518779
vn -0.2057794 0.947663 -0.2441096
vn -0.337353 0.9413717 0.003485978
vn -0.1873976 0.9577087 0.2183488
vn 0.2294003 0.9598889 -0.1612107
vn 0.09815617 0.9858085 -0.1361875
vn -0.1356654 0.9805319 -0.1419584
vn -0.2206411 0.9753517 0.002556137
vn -0.1090972 0.9837508 0.142591
vn -0.001927011 0.9992931 -0.03754458
vn 0.1318348 0.987551 -0.08580556
vn 0.04131716 0.9991453 -0.001313207
vn -0.04391779 0.9989749 0.01096896
vn -0.02820754 0.9307078 -0.3646742
vn -0.01570646 0.9827887 -0.1840641
vn -0.001566 0.9998158 0.0191306
vn -0.1055257 0.9871192 0.1202498
vn -0.1825327 0.9366313 0.2990042
vn -0.210996 0.9461864 -0.245381
vn -0.02956818 0.9325498 -0.3598287
vn 0.1351081 0.9593577 -0.2477467
vn 0.2301331 0.9599796 -0.1596184
vn -0.2105127 0.927686 0.3083557
vn -0.1852458 0.9571831 0.2224514
vn -0.3315587 0.9434282 0.003469875
vn -0.5980588 0.6415513 0.4803515
vn 0.5034617 0.814741 0.2876167
vn 0.3076359 0.9376025 0.1620548
vn -0.3880701 0.86844 0.3085667
vn 0.2458465 0.968264 -0.04499001
vn 0.2650867 0.9628663 -0.0511618
vn 0.1805784 0.9816107 -0.06190338
vn 0.1201652 0.991557 0.04873369
vn -0.231778 0.9588442 0.1640023
vn -0.3200213 0.7596895 0.5660902
vn 0.3125079 0.8140243 0.4895949
vn 0.1799124 0.9435826 0.2779989
vn -0.1818979 0.9282079 0.3245665
vn 0.1194974 0.9658943 0.2297136
vn -0.1321587 0.9562936 0.260838
vn -0.02956818 0.9325498 -0.3598287
vn -0.210996 0.9461864 -0.245381
vn 0.1351081 0.9593577 -0.2477467
vn 0.2301331 0.9599796 -0.1596184
vn 0.3076359 0.9376025 0.1620548
vn 0.2650867 0.9628663 -0.0511618
vn -0.1818979 0.9282079 0.3245665
vn 0.1799124 0.9435826 0.2779989
vn -0.1852458 0.9571831 0.2224514
vn -0.2105127 0.927686 0.3083557
vn -0.3315587 0.9434282 0.003469875
vn -0.3880701 0.86844 0.3085667
g E2_detailGravel_geo_0
f 23/23/23 18/18/18 26/26/26
f 4/4/4 18/18/18 23/23/23
f 24/24/24 4/4/4 23/23/23
f 3/3/3 4/4/4 24/24/24
f 25/25/25 3/3/3 24/24/24
f 2/2/2 3/3/3 25/25/25
f 19/19/19 2/2/2 25/25/25
f 14/14/14 2/2/2 19/19/19
f 20/20/20 14/14/14 19/19/19
f 1/1/1 14/14/14 20/20/20
f 21/21/21 1/1/1 20/20/20
f 5/5/5 1/1/1 21/21/21
f 22/22/22 5/5/5 21/21/21
f 31/31/31 5/5/5 22/22/22
f 35/35/35 38/38/38 29/29/29
f 37/37/37 38/38/38 35/35/35
f 36/36/36 37/37/37 35/35/35
f 27/27/27 37/37/37 36/36/36
f 26/26/26 27/27/27 36/36/36
f 31/31/31 30/30/30 5/5/5
f 27/27/27 30/30/30 31/31/31
f 28/28/28 27/27/27 31/31/31
f 37/37/37 27/27/27 28/28/28
f 17/17/17 50/50/50 52/52/52
f 49/49/49 50/50/50 17/17/17
f 9/9/9 49/49/49 17/17/17
f 51/51/51 49/49/49 9/9/9
f 8/8/8 51/51/51 9/9/9
f 42/42/42 51/51/51 8/8/8
f 7/7/7 42/42/42 8/8/8
f 41/41/41 42/42/42 7/7/7
f 15/15/15 41/41/41 7/7/7
f 43/43/43 41/41/41 15/15/15
f 6/6/6 43/43/43 15/15/15
f 44/44/44 43/43/43 6/6/6
f 11/11/11 44/44/44 6/6/6
f 32/32/32 44/44/44 11/11/11
f 33/33/33 32/32/32 11/11/11
f 45/45/45 32/32/32 33/33/33
f 39/39/39 45/45/45 33/33/33
f 48/48/48 45/45/45 39/39/39
f 47/47/47 48/48/48 39/39/39
f 32/32/32 46/46/46 44/44/44
f 45/45/45 46/46/46 32/32/32
f 26/26/26 29/29/29 23/23/23
f 35/35/35 29/29/29 26/26/26
f 36/36/36 35/35/35 26/26/26
f 34/34/34 52/52/52 47/47/47
f 17/17/17 52/52/52 34/34/34
f 10/10/10 17/17/17 34/34/34
f 16/16/16 17/17/17 10/10/10
f 12/12/12 16/16/16 10/10/10
f 15/15/15 16/16/16 12/12/12
f 6/6/6 15/15/15 12/12/12
f 40/40/40 47/47/47 39/39/39
f 34/34/34 47/47/47 40/40/40
f 33/33/33 34/34/34 40/40/40
f 10/10/10 34/34/34 33/33/33
f 11/11/11 10/10/10 33/33/33
f 12/12/12 10/10/10 11/11/11
f 6/6/6 12/12/12 11/11/11
f 13/13/13 8/8/8 9/9/9
f 7/7/7 8/8/8 13/13/13
f 16/16/16 7/7/7 13/13/13
f 15/15/15 7/7/7 16/16/16
f 13/13/13 17/17/17 16/16/16
f 9/9/9 17/17/17 13/13/13
f 39/39/39 33/33/33 40/40/40
