g E2_fence02_geo
v -218.5847 0 -131.7907
v -218.5915 0 -131.5943
v -218.5847 1.926195 -131.7907
v -218.5915 1.926195 -131.5943
v -218.3883 1.926195 -131.7838
v -218.3952 1.926195 -131.5875
v -218.3883 0 -131.7838
v -218.3952 0 -131.5875
v -218.4798 1.812146 -131.6603
v -218.4798 0 -131.6603
v -241.4393 1.812146 -132.4621
v -241.4393 0 -132.4621
v -221.7965 0 -131.9029
v -221.8034 0 -131.7065
v -221.7965 1.926195 -131.9029
v -221.8034 1.926195 -131.7065
v -221.6002 1.926195 -131.896
v -221.607 1.926195 -131.6997
v -221.6002 0 -131.896
v -221.607 0 -131.6997
v -225.0748 0 -132.0173
v -225.0816 0 -131.821
v -225.0748 1.926195 -132.0173
v -225.0816 1.926195 -131.821
v -224.8784 1.926195 -132.0105
v -224.8853 1.926195 -131.8141
v -224.8784 0 -132.0105
v -224.8853 0 -131.8141
v -228.353 0 -132.1318
v -228.3598 0 -131.9355
v -228.353 1.926195 -132.1318
v -228.3598 1.926195 -131.9355
v -228.1566 1.926195 -132.125
v -228.1635 1.926195 -131.9286
v -228.1566 0 -132.125
v -228.1635 0 -131.9286
v -231.6312 0 -132.2463
v -231.6381 0 -132.05
v -231.6312 1.926195 -132.2463
v -231.6381 1.926195 -132.05
v -231.4349 1.926195 -132.2394
v -231.4417 1.926195 -132.0431
v -231.4349 0 -132.2394
v -231.4417 0 -132.0431
v -234.9094 0 -132.3608
v -234.9163 0 -132.1644
v -234.9094 1.926195 -132.3608
v -234.9163 1.926195 -132.1644
v -234.7131 1.926195 -132.3539
v -234.7199 1.926195 -132.1576
v -234.7131 0 -132.3539
v -234.7199 0 -132.1576
v -238.1877 0 -132.4753
v -238.1945 0 -132.2789
v -238.1877 1.926195 -132.4753
v -238.1945 1.926195 -132.2789
v -237.9913 1.926195 -132.4684
v -237.9982 1.926195 -132.272
v -237.9913 0 -132.4684
v -237.9982 0 -132.272
v -241.4659 0 -132.5897
v -241.4727 0 -132.3934
v -241.4659 1.926195 -132.5897
v -241.4727 1.926195 -132.3934
v -241.2695 1.926195 -132.5829
v -241.2764 1.926195 -132.3865
v -241.2695 0 -132.5829
v -241.2764 0 -132.3865
v -218.5847 1.926195 -131.7907
v -218.5915 1.926195 -131.5943
v -218.3883 1.926195 -131.7838
v -218.3952 1.926195 -131.5875
v -218.3952 1.926195 -131.5875
v -218.3952 0 -131.5875
v -218.5847 1.926195 -131.7907
v -218.5847 0 -131.7907
v -221.7965 1.926195 -131.9029
v -221.8034 1.926195 -131.7065
v -221.6002 1.926195 -131.896
v -221.607 1.926195 -131.6997
v -221.607 1.926195 -131.6997
v -221.607 0 -131.6997
v -221.7965 1.926195 -131.9029
v -221.7965 0 -131.9029
v -225.0748 1.926195 -132.0173
v -225.0816 1.926195 -131.821
v -224.8784 1.926195 -132.0105
v -224.8853 1.926195 -131.8141
v -224.8853 1.926195 -131.8141
v -224.8853 0 -131.8141
v -225.0748 1.926195 -132.0173
v -225.0748 0 -132.0173
v -228.353 1.926195 -132.1318
v -228.3598 1.926195 -131.9355
v -228.1566 1.926195 -132.125
v -228.1635 1.926195 -131.9286
v -228.1635 1.926195 -131.9286
v -228.1635 0 -131.9286
v -228.353 1.926195 -132.1318
v -228.353 0 -132.1318
v -231.6312 1.926195 -132.2463
v -231.6381 1.926195 -132.05
v -231.4349 1.926195 -132.2394
v -231.4417 1.926195 -132.0431
v -231.4417 1.926195 -132.0431
v -231.4417 0 -132.0431
v -231.6312 1.926195 -132.2463
v -231.6312 0 -132.2463
v -234.9094 1.926195 -132.3608
v -234.9163 1.926195 -132.1644
v -234.7131 1.926195 -132.3539
v -234.7199 1.926195 -132.1576
v -234.7199 1.926195 -132.1576
v -234.7199 0 -132.1576
v -234.9094 1.926195 -132.3608
v -234.9094 0 -132.3608
v -238.1877 1.926195 -132.4753
v -238.1945 1.926195 -132.2789
v -237.9913 1.926195 -132.4684
v -237.9982 1.926195 -132.272
v -237.9982 1.926195 -132.272
v -237.9982 0 -132.272
v -238.1877 1.926195 -132.4753
v -238.1877 0 -132.4753
v -241.4659 1.926195 -132.5897
v -241.4727 1.926195 -132.3934
v -241.2695 1.926195 -132.5829
v -241.2764 1.926195 -132.3865
v -241.2764 1.926195 -132.3865
v -241.2764 0 -132.3865
v -241.4659 1.926195 -132.5897
v -241.4659 0 -132.5897
vt 0.247839 0.5
vt 0.3732842 0.5
vt 0.247839 0.8179868
vt 0.3732842 0.8179868
vt 0.4422221 0.7579731
vt 0.4422222 0.7579731
vt 0.3732842 0
vt 0.4974277 0
vt 8.985687 1
vt 8.985687 0.5
vt 1.951801 1
vt 1.951801 0.5
vt 0.247839 0.5
vt 0.3732842 0.5
vt 0.247839 0.8179868
vt 0.3732842 0.8179868
vt 0.4422221 0.7579731
vt 0.4422222 0.7579731
vt 0.3732842 0
vt 0.4974277 0
vt 0.247839 0.5
vt 0.3732842 0.5
vt 0.247839 0.8179868
vt 0.3732842 0.8179868
vt 0.4422221 0.7579731
vt 0.4422222 0.7579731
vt 0.3732842 0
vt 0.4974277 0
vt 0.247839 0.5
vt 0.3732842 0.5
vt 0.247839 0.8179868
vt 0.3732842 0.8179868
vt 0.4422221 0.7579731
vt 0.4422222 0.7579731
vt 0.3732842 0
vt 0.4974277 0
vt 0.247839 0.5
vt 0.3732842 0.5
vt 0.247839 0.8179868
vt 0.3732842 0.8179868
vt 0.4422221 0.7579731
vt 0.4422222 0.7579731
vt 0.3732842 0
vt 0.4974277 0
vt 0.247839 0.5
vt 0.3732842 0.5
vt 0.247839 0.8179868
vt 0.3732842 0.8179868
vt 0.4422221 0.7579731
vt 0.4422222 0.7579731
vt 0.3732842 0
vt 0.4974277 0
vt 0.247839 0.5
vt 0.3732842 0.5
vt 0.247839 0.8179868
vt 0.3732842 0.8179868
vt 0.4422221 0.7579731
vt 0.4422222 0.7579731
vt 0.3732842 0
vt 0.4974277 0
vt 0.247839 0.5
vt 0.3732842 0.5
vt 0.247839 0.8179868
vt 0.3732842 0.8179868
vt 0.4422221 0.7579731
vt 0.4422222 0.7579731
vt 0.3732842 0
vt 0.4974277 0
vt 0.4422221 0.7579731
vt 0.4422222 0.7579731
vt 0.3732842 0.3225499
vt 0.4974277 0.3225499
vt 0.4974277 0.8179868
vt 0.4974277 0.5
vt 0.247839 0.3225499
vt 0.247839 0
vt 0.4422221 0.7579731
vt 0.4422222 0.7579731
vt 0.3732842 0.3225499
vt 0.4974277 0.3225499
vt 0.4974277 0.8179868
vt 0.4974277 0.5
vt 0.247839 0.3225499
vt 0.247839 0
vt 0.4422221 0.7579731
vt 0.4422222 0.7579731
vt 0.3732842 0.3225499
vt 0.4974277 0.3225499
vt 0.4974277 0.8179868
vt 0.4974277 0.5
vt 0.247839 0.3225499
vt 0.247839 0
vt 0.4422221 0.7579731
vt 0.4422222 0.7579731
vt 0.3732842 0.3225499
vt 0.4974277 0.3225499
vt 0.4974277 0.8179868
vt 0.4974277 0.5
vt 0.247839 0.3225499
vt 0.247839 0
vt 0.4422221 0.7579731
vt 0.4422222 0.7579731
vt 0.3732842 0.3225499
vt 0.4974277 0.3225499
vt 0.4974277 0.8179868
vt 0.4974277 0.5
vt 0.247839 0.3225499
vt 0.247839 0
vt 0.4422221 0.7579731
vt 0.4422222 0.7579731
vt 0.3732842 0.3225499
vt 0.4974277 0.3225499
vt 0.4974277 0.8179868
vt 0.4974277 0.5
vt 0.247839 0.3225499
vt 0.247839 0
vt 0.4422221 0.7579731
vt 0.4422222 0.7579731
vt 0.3732842 0.3225499
vt 0.4974277 0.3225499
vt 0.4974277 0.8179868
vt 0.4974277 0.5
vt 0.247839 0.3225499
vt 0.247839 0
vt 0.4422221 0.7579731
vt 0.4422222 0.7579731
vt 0.3732842 0.3225499
vt 0.4974277 0.3225499
vt 0.4974277 0.8179868
vt 0.4974277 0.5
vt 0.247839 0.3225499
vt 0.247839 0
vn -0.6820214 0 -0.7313321
vn -0.7313332 0 0.6820204
vn -0.5568543 0.5773793 -0.5971152
vn -0.5971464 0.5773206 0.5568816
vn 0.5971629 0.5773404 -0.5568434
vn 0.5568325 0.5773608 0.5971533
vn 0.731366 0 -0.6819853
vn 0.681984 0 0.7313672
vn -0.0348987 0 0.9993908
vn -0.0348987 0 0.9993908
vn -0.0348987 0 0.9993908
vn -0.0348987 0 0.9993908
vn -0.6819827 0 -0.7313683
vn -0.7313683 0 0.6819827
vn -0.5568311 0.5773614 -0.597154
vn -0.5971655 0.577339 0.556842
vn 0.5971655 0.577339 -0.556842
vn 0.5568311 0.5773614 0.597154
vn 0.7313683 0 -0.6819827
vn 0.6819827 0 0.7313683
vn -0.6820081 0 -0.7313446
vn -0.7313221 0 0.6820323
vn -0.5568584 0.5773481 -0.5971414
vn -0.5971143 0.5773651 0.5568698
vn 0.5971397 0.5773529 -0.5568553
vn 0.5568838 0.5773349 0.5971305
vn 0.7313454 0 -0.6820073
vn 0.6820315 0 0.7313228
vn -0.681981 0 -0.7313699
vn -0.7313474 0 0.6820051
vn -0.5568302 0.5773606 -0.5971556
vn -0.5971414 0.5773526 0.5568538
vn 0.5971667 0.5773404 -0.5568393
vn 0.5568556 0.5773475 0.5971447
vn 0.7313706 0 -0.6819803
vn 0.6820043 0 0.7313482
vn -0.681971 0 -0.7313792
vn -0.7314005 0 0.6819481
vn -0.5568373 0.5773284 -0.5971801
vn -0.5971811 0.5773601 0.5568034
vn 0.5971392 0.5773523 -0.5568565
vn 0.556834 0.5773603 0.5971524
vn 0.7313446 0 -0.6820081
vn 0.6819853 0 0.731366
vn -0.6820081 0 -0.7313446
vn -0.7313221 0 0.6820323
vn -0.5568584 0.5773481 -0.5971414
vn -0.5971143 0.5773652 0.5568699
vn 0.5971397 0.5773529 -0.5568553
vn 0.5568837 0.5773349 0.5971305
vn 0.7313454 0 -0.6820073
vn 0.6820315 0 0.7313228
vn -0.6819586 0 -0.7313908
vn -0.7313683 0 0.6819827
vn -0.5568053 0.5773742 -0.5971657
vn -0.5971655 0.577339 0.556842
vn 0.5971909 0.5773268 -0.5568275
vn 0.5568307 0.577361 0.5971548
vn 0.7313917 0 -0.6819577
vn 0.6819819 0 0.7313691
vn -0.682006 0 -0.7313466
vn -0.7313691 0 0.6819819
vn -0.5568565 0.5773483 -0.597143
vn -0.5971659 0.5773394 0.5568411
vn 0.5971406 0.5773516 -0.5568556
vn 0.5568312 0.5773615 0.597154
vn 0.7313457 0 -0.6820068
vn 0.6819827 0 0.7313683
vn -0.5568543 0.5773793 -0.5971152
vn -0.5971464 0.5773206 0.5568816
vn 0.5971629 0.5773404 -0.5568434
vn 0.5568325 0.5773608 0.5971533
vn 0.5568325 0.5773608 0.5971533
vn 0.681984 0 0.7313672
vn -0.5568543 0.5773793 -0.5971152
vn -0.6820214 0 -0.7313321
vn -0.5568311 0.5773614 -0.597154
vn -0.5971655 0.577339 0.556842
vn 0.5971655 0.577339 -0.556842
vn 0.5568311 0.5773614 0.597154
vn 0.5568311 0.5773614 0.597154
vn 0.6819827 0 0.7313683
vn -0.5568311 0.5773614 -0.597154
vn -0.6819827 0 -0.7313683
vn -0.5568584 0.5773481 -0.5971414
vn -0.5971143 0.5773651 0.5568698
vn 0.5971397 0.5773529 -0.5568553
vn 0.5568838 0.5773349 0.5971305
vn 0.5568838 0.5773349 0.5971305
vn 0.6820315 0 0.7313228
vn -0.5568584 0.5773481 -0.5971414
vn -0.6820081 0 -0.7313446
vn -0.5568302 0.5773606 -0.5971556
vn -0.5971414 0.5773526 0.5568538
vn 0.5971667 0.5773404 -0.5568393
vn 0.5568556 0.5773475 0.5971447
vn 0.5568556 0.5773475 0.5971447
vn 0.6820043 0 0.7313482
vn -0.5568302 0.5773606 -0.5971556
vn -0.681981 0 -0.7313699
vn -0.5568373 0.5773284 -0.5971801
vn -0.5971811 0.5773601 0.5568034
vn 0.5971392 0.5773523 -0.5568565
vn 0.556834 0.5773603 0.5971524
vn 0.556834 0.5773603 0.5971524
vn 0.6819853 0 0.731366
vn -0.5568373 0.5773284 -0.5971801
vn -0.681971 0 -0.7313792
vn -0.5568584 0.5773481 -0.5971414
vn -0.5971143 0.5773652 0.5568699
vn 0.5971397 0.5773529 -0.5568553
vn 0.5568837 0.5773349 0.5971305
vn 0.5568837 0.5773349 0.5971305
vn 0.6820315 0 0.7313228
vn -0.5568584 0.5773481 -0.5971414
vn -0.6820081 0 -0.7313446
vn -0.5568053 0.5773742 -0.5971657
vn -0.5971655 0.577339 0.556842
vn 0.5971909 0.5773268 -0.5568275
vn 0.5568307 0.577361 0.5971548
vn 0.5568307 0.577361 0.5971548
vn 0.6819819 0 0.7313691
vn -0.5568053 0.5773742 -0.5971657
vn -0.6819586 0 -0.7313908
vn -0.5568565 0.5773483 -0.597143
vn -0.5971659 0.5773394 0.5568411
vn 0.5971406 0.5773516 -0.5568556
vn 0.5568312 0.5773615 0.597154
vn 0.5568312 0.5773615 0.597154
vn 0.6819827 0 0.7313683
vn -0.5568565 0.5773483 -0.597143
vn -0.682006 0 -0.7313466
g E2_fence02_geo_0
f 2/2/2 74/74/74 73/73/73
f 4/4/4 2/2/2 73/73/73
f 1/1/1 2/2/2 4/4/4
f 3/3/3 1/1/1 4/4/4
f 6/6/6 69/69/69 70/70/70
f 5/5/5 69/69/69 6/6/6
f 7/7/7 76/76/76 75/75/75
f 71/71/71 7/7/7 75/75/75
f 8/8/8 7/7/7 71/71/71
f 72/72/72 8/8/8 71/71/71
f 10/10/10 11/11/11 12/12/12
f 9/9/9 11/11/11 10/10/10
f 14/14/14 82/82/82 81/81/81
f 16/16/16 14/14/14 81/81/81
f 13/13/13 14/14/14 16/16/16
f 15/15/15 13/13/13 16/16/16
f 18/18/18 77/77/77 78/78/78
f 17/17/17 77/77/77 18/18/18
f 19/19/19 84/84/84 83/83/83
f 79/79/79 19/19/19 83/83/83
f 20/20/20 19/19/19 79/79/79
f 80/80/80 20/20/20 79/79/79
f 22/22/22 90/90/90 89/89/89
f 24/24/24 22/22/22 89/89/89
f 21/21/21 22/22/22 24/24/24
f 23/23/23 21/21/21 24/24/24
f 26/26/26 85/85/85 86/86/86
f 25/25/25 85/85/85 26/26/26
f 27/27/27 92/92/92 91/91/91
f 87/87/87 27/27/27 91/91/91
f 28/28/28 27/27/27 87/87/87
f 88/88/88 28/28/28 87/87/87
f 30/30/30 98/98/98 97/97/97
f 32/32/32 30/30/30 97/97/97
f 29/29/29 30/30/30 32/32/32
f 31/31/31 29/29/29 32/32/32
f 34/34/34 93/93/93 94/94/94
f 33/33/33 93/93/93 34/34/34
f 35/35/35 100/100/100 99/99/99
f 95/95/95 35/35/35 99/99/99
f 36/36/36 35/35/35 95/95/95
f 96/96/96 36/36/36 95/95/95
f 38/38/38 106/106/106 105/105/105
f 40/40/40 38/38/38 105/105/105
f 37/37/37 38/38/38 40/40/40
f 39/39/39 37/37/37 40/40/40
f 42/42/42 101/101/101 102/102/102
f 41/41/41 101/101/101 42/42/42
f 43/43/43 108/108/108 107/107/107
f 103/103/103 43/43/43 107/107/107
f 44/44/44 43/43/43 103/103/103
f 104/104/104 44/44/44 103/103/103
f 46/46/46 114/114/114 113/113/113
f 48/48/48 46/46/46 113/113/113
f 45/45/45 46/46/46 48/48/48
f 47/47/47 45/45/45 48/48/48
f 50/50/50 109/109/109 110/110/110
f 49/49/49 109/109/109 50/50/50
f 51/51/51 116/116/116 115/115/115
f 111/111/111 51/51/51 115/115/115
f 52/52/52 51/51/51 111/111/111
f 112/112/112 52/52/52 111/111/111
f 54/54/54 122/122/122 121/121/121
f 56/56/56 54/54/54 121/121/121
f 53/53/53 54/54/54 56/56/56
f 55/55/55 53/53/53 56/56/56
f 58/58/58 117/117/117 118/118/118
f 57/57/57 117/117/117 58/58/58
f 59/59/59 124/124/124 123/123/123
f 119/119/119 59/59/59 123/123/123
f 60/60/60 59/59/59 119/119/119
f 120/120/120 60/60/60 119/119/119
f 62/62/62 130/130/130 129/129/129
f 64/64/64 62/62/62 129/129/129
f 61/61/61 62/62/62 64/64/64
f 63/63/63 61/61/61 64/64/64
f 66/66/66 125/125/125 126/126/126
f 65/65/65 125/125/125 66/66/66
f 67/67/67 132/132/132 131/131/131
f 127/127/127 67/67/67 131/131/131
f 68/68/68 67/67/67 127/127/127
f 128/128/128 68/68/68 127/127/127
