g E2_shadowPine_geo
v -195.9771 0.04734158 -145.2054
v -195.8113 0.04734158 -155.5454
v -206.317 0.04734158 -145.3711
v -206.1512 0.04734158 -155.7111
v -191.3755 0.03705316 -62.6011
v -191.2457 0.03705316 -70.69399
v -199.4682 0.03705316 -62.73079
v -199.3385 0.03705316 -70.82368
v -265.4113 0.04430068 -66.8547
v -265.3238 0.04430068 -72.31474
v -270.8714 0.04430068 -66.94224
v -270.7837 0.04430068 -72.40224
v -258.9698 0.04430071 -100.7658
v -258.853 0.04430071 -108.063
v -266.267 0.04430071 -100.8828
v -266.15 0.04430071 -108.1799
v -234.4577 0.0443007 -124.4084
v -234.3407 0.0443007 -131.7056
v -241.7548 0.0443007 -124.5254
v -241.6378 0.0443007 -131.8224
v -201.9616 0.04430071 -74.13268
v -201.8764 0.04430071 -79.45116
v -207.2801 0.04430071 -74.21792
v -207.1948 0.04430071 -79.53635
v -225.402 0.04430071 -80.38387
v -225.2851 0.04430071 -87.68102
v -232.6991 0.04430071 -80.50078
v -232.5822 0.04430071 -87.79793
v -231.8777 0.04430071 -64.95056
v -231.7956 0.04430071 -70.07302
v -237.0002 0.04430071 -65.03259
v -236.918 0.04430071 -70.15508
vt 0 2.000004
vt 1 2.000004
vt 0 2.999996
vt 1 2.999996
vt 0 2.000004
vt 1 2.000004
vt 0 2.999996
vt 1 2.999996
vt 0 2.000004
vt 1 2.000004
vt 0 2.999996
vt 1 2.999996
vt 0 2.000004
vt 1 2.000004
vt 0 2.999996
vt 1 2.999996
vt 0 2.000004
vt 1 2.000004
vt 0 2.999996
vt 1 2.999996
vt 0 2.000004
vt 1 2.000004
vt 0 2.999996
vt 1 2.999996
vt 0 2.000004
vt 1 2.000004
vt 0 2.999996
vt 1 2.999996
vt 0 2.000004
vt 1 2.000004
vt 0 2.999996
vt 1 2.999996
vn 0 1 0
vn 0 1 0
vn 0 1 0
vn 0 1 0
vn 0 1 0
vn 0 1 0
vn 0 1 0
vn 0 1 0
vn 0 1 0
vn 0 1 0
vn 0 1 0
vn 0 1 0
vn 0 1 0
vn 0 1 0
vn 0 1 0
vn 0 1 0
vn 0 1 0
vn 0 1 0
vn 0 1 0
vn 0 1 0
vn 0 1 0
vn 0 1 0
vn 0 1 0
vn 0 1 0
vn 0 1 0
vn 0 1 0
vn 0 1 0
vn 0 1 0
vn 0 1 0
vn 0 1 0
vn 0 1 0
vn 0 1 0
g E2_shadowPine_geo_0
f 4/4/4 1/1/1 2/2/2
f 3/3/3 1/1/1 4/4/4
f 8/8/8 5/5/5 6/6/6
f 7/7/7 5/5/5 8/8/8
f 12/12/12 9/9/9 10/10/10
f 11/11/11 9/9/9 12/12/12
f 16/16/16 13/13/13 14/14/14
f 15/15/15 13/13/13 16/16/16
f 20/20/20 17/17/17 18/18/18
f 19/19/19 17/17/17 20/20/20
f 24/24/24 21/21/21 22/22/22
f 23/23/23 21/21/21 24/24/24
f 28/28/28 25/25/25 26/26/26
f 27/27/27 25/25/25 28/28/28
f 32/32/32 29/29/29 30/30/30
f 31/31/31 29/29/29 32/32/32
