g E2_shadowGradient_geo
v -206.2676 5.740267 -80.98325
v -206.2816 6.087621 -80.98325
v -203.6639 3.11676 -80.98325
v -203.9467 3.11676 -80.98325
v -208.8842 3.11676 -80.98325
v -208.6159 3.11676 -80.98325
v -208.3653 6.450271 -94.3339
v -208.3653 6.885614 -94.3339
v -208.3653 3.498846 -90.45396
v -208.3653 3.19061 -90.45396
v -208.3653 3.498846 -98.22443
v -208.3653 3.243329 -98.01827
v -217.4551 0.753806 -98.88998
v -220.3947 0.753806 -98.88998
v -217.4551 0.900667 -98.88998
v -220.3947 0.900667 -98.88998
v -208.6699 0.5197486 -98.22443
v -211.0093 0.5197486 -98.22443
v -208.6699 0.6666095 -98.22443
v -211.0093 0.6666096 -98.22443
v -210.0961 0.025 -82.85331
v -210.0961 0.025 -90.66557
v -205.4078 0.025 -90.66557
v -203.6413 0.025 -89.26334
v -208.8766 0.025 -80.97953
v -208.8766 0.025 -89.26334
v -222.5215 0.025 -92.35407
v -222.5215 0.025 -100.1594
v -217.8177 0.025 -100.1594
v -216.7325 0.025 -98.21442
v -221.2169 0.025 -90.48029
v -221.2169 0.025 -98.83884
v -208.3653 3.243329 -98.22443
v -216.7007 3.243329 -98.22443
v -216.7007 3.498846 -98.21442
v -215.4811 3.317385 -100.1202
v -214.1994 5.999648 -100.1202
v -215.7494 3.317384 -100.1202
v -220.8794 3.498846 -98.88998
v -218.9571 6.870614 -98.88998
v -221.2324 3.498846 -98.88998
v -208.6159 3.11676 -89.28706
v -206.2816 6.087621 -89.28706
v -208.8842 3.11676 -89.28706
v -214.17 5.564305 -100.1202
v -212.6337 3.317384 -100.1202
v -212.8855 3.317384 -100.1202
v -218.9443 6.462682 -98.88998
v -216.7157 3.498845 -98.88998
v -217.0173 3.498845 -98.88998
v -206.2676 5.740267 -89.28706
v -203.6639 3.11676 -89.28706
v -203.9467 3.11676 -89.28706
v -217.0684 0.025 -99.2422
v -215.7644 0.025 -98.21442
v -215.7644 0.025 -99.2422
v -217.0684 0.01 -101.4307
v -215.7644 0.01 -101.4307
v -211.2377 0.025 -99.2422
v -212.3503 0.01 -101.4307
v -214.1434 0.01 -99.34505
v -209.4396 0.01 -99.34505
v -208.3543 0.01 -98.19941
v -212.8387 0.01 -98.19941
v -208.3653 3.498846 -98.22443
v -208.3653 3.243329 -98.22443
v -216.7325 0.025 -98.21442
v -217.0684 0.025 -99.2422
vt 0.4077499 0.2806264
vt 0.4077499 0.2806264
vt 0.4077499 0.2806264
vt 0.4077499 0.2806264
vt 0.4077499 0.2806264
vt 0.4077499 0.2806264
vt 0.4077499 0.2806264
vt 0.4077499 0.2806264
vt 0.4077499 0.2806264
vt 0.4077499 0.2806264
vt 0.4077499 0.2806264
vt 0.4077499 0.2806264
vt 0.4077499 0.2806264
vt 0.4077499 0.2806264
vt 0.4077499 0.2806264
vt 0.4077499 0.2806264
vt 0.4077499 0.2806264
vt 0.4077499 0.2806264
vt 0.4077499 0.2806264
vt 0.4077499 0.2806264
vt 0.4077499 0.2806264
vt 0.4077499 0.2806264
vt 0.4077499 0.2806264
vt 0.4077499 0.2806264
vt 0.4077499 0.2806264
vt 0.4077499 0.2806264
vt 0.4077499 0.2806264
vt 0.4077499 0.2806264
vt 0.4077499 0.2806264
vt 0.4077499 0.2806264
vt 0.4077499 0.2806264
vt 0.4077499 0.2806264
vt 0.4077499 0.2806264
vt 0.4077499 0.2806264
vt 0.4077499 0.2806264
vt 0.4077499 0.2806264
vt 0.4077499 0.2806264
vt 0.4077499 0.2806264
vt 0.4077499 0.2806264
vt 0.4077499 0.2806264
vt 0.4077499 0.2806264
vt 0.4077499 0.2806264
vt 0.4077499 0.2806264
vt 0.4077499 0.2806264
vt 0.4077499 0.2806264
vt 0.4077499 0.2806264
vt 0.4077499 0.2806264
vt 0.4077499 0.2806264
vt 0.4077499 0.2806264
vt 0.4077499 0.2806264
vt 0.4077499 0.2806264
vt 0.4077499 0.2806264
vt 0.4077499 0.2806264
vt 0.4077499 0.2806264
vt 0.4077499 0.2806264
vt 0.4077499 0.2806264
vt 0.4077499 0.2806264
vt 0.4077499 0.2806264
vt 0.4077499 0.2806264
vt 0.4077499 0.2806264
vt 0.4077499 0.2806264
vt 0.4077499 0.2806264
vt 0.4077499 0.2806264
vt 0.4077499 0.2806264
vt 0.4077499 0.2806264
vt 0.4077499 0.2806264
vt 0.4077499 0.2806264
vt 0.4077499 0.2806264
vn 5.824579E-06 0 1
vn 5.824579E-06 0 1
vn 1.164916E-05 0 1
vn 1.164916E-05 0 1
vn 0 0 1
vn 0 0 1
vn 1 2.844133E-06 0
vn 1 2.844133E-06 0
vn 1 0 0
vn 1 0 0
vn 1 2.844133E-06 0
vn 1 2.844133E-06 0
vn 0 0 -1
vn 0 0 -1
vn 0 0 -1
vn 0 0 -1
vn 0 0 -1
vn 0 0 -1
vn 0 0 -1
vn 0 0 -1
vn 0 1 0
vn 0 1 0
vn 0 1 0
vn 0 1 0
vn 0 1 0
vn 0 1 0
vn 0 1 0
vn 0 1 0
vn 0 1 0
vn 0 1 0
vn 0 1 0
vn 0 1 0
vn -0.0005992558 0.01958345 -0.9998081
vn -0.0005992558 0.01958345 -0.9998081
vn -0.0005992558 0.01958345 -0.9998081
vn -8.188724E-06 0 -1
vn -4.094362E-06 0 -1
vn -8.188724E-06 0 -1
vn -5.133482E-06 0 -1
vn -2.566741E-06 0 -1
vn -5.133482E-06 0 -1
vn -2.725938E-06 0 -1
vn -1.362969E-06 0 -1
vn -2.725938E-06 0 -1
vn -4.094362E-06 0 -1
vn 0 0 -1
vn 0 0 -1
vn -2.566741E-06 0 -1
vn 0 0 -1
vn 0 0 -1
vn -1.362969E-06 0 -1
vn 0 0 -1
vn 0 0 -1
vn 0 1 0
vn 0 -1 0
vn 0 -1 0
vn 0 -0.9999765 0.006853675
vn 0 -0.9999765 0.006853675
vn 0 -0.9999765 0.006853715
vn 0 -0.9999765 0.006853715
vn 0 1 0
vn 0 1 0
vn 0 1 0
vn 0 1 0
vn -0.0005992558 0.01958345 -0.9998081
vn 1 0 0
vn 0 -1 0
vn 0 -1 0
g E2_shadowGradient_geo_0
f 1/1/1 2/2/2 5/5/5
f 3/3/3 2/2/2 1/1/1
f 4/4/4 3/3/3 1/1/1
f 1/1/1 5/5/5 6/6/6
f 7/7/7 9/9/9 10/10/10
f 8/8/8 9/9/9 7/7/7
f 11/11/11 8/8/8 7/7/7
f 16/16/16 13/13/13 14/14/14
f 15/15/15 13/13/13 16/16/16
f 20/20/20 17/17/17 18/18/18
f 19/19/19 17/17/17 20/20/20
f 22/22/22 24/24/24 23/23/23
f 26/26/26 24/24/24 22/22/22
f 21/21/21 26/26/26 22/22/22
f 25/25/25 26/26/26 21/21/21
f 28/28/28 30/30/30 54/54/54
f 32/32/32 30/30/30 28/28/28
f 27/27/27 32/32/32 28/28/28
f 31/31/31 32/32/32 27/27/27
f 35/35/35 33/33/33 34/34/34
f 65/65/65 33/33/33 35/35/35
f 45/45/45 46/46/46 47/47/47
f 37/37/37 46/46/46 45/45/45
f 38/38/38 37/37/37 45/45/45
f 48/48/48 49/49/49 50/50/50
f 40/40/40 49/49/49 48/48/48
f 41/41/41 40/40/40 48/48/48
f 51/51/51 52/52/52 53/53/53
f 43/43/43 52/52/52 51/51/51
f 44/44/44 43/43/43 51/51/51
f 36/36/36 38/38/38 45/45/45
f 39/39/39 41/41/41 48/48/48
f 42/42/42 44/44/44 51/51/51
f 11/11/11 12/12/12 66/66/66
f 7/7/7 12/12/12 11/11/11
f 29/29/29 28/28/28 54/54/54
f 56/56/56 68/68/68 57/57/57
f 67/67/67 68/68/68 56/56/56
f 55/55/55 67/67/67 56/56/56
f 56/56/56 60/60/60 59/59/59
f 58/58/58 60/60/60 56/56/56
f 57/57/57 58/58/58 56/56/56
f 63/63/63 61/61/61 64/64/64
f 62/62/62 61/61/61 63/63/63
