g E2_shadowTree_geo
v -243.1445 0.08098629 -73.48189
v -236.5993 0.08098629 -73.377
v -243.0396 0.08098629 -80.02708
v -236.4944 0.08098629 -79.9222
v -269.6068 0.04608535 -86.56102
v -268.1377 0.04608535 -80.23325
v -263.2791 0.04608535 -88.03028
v -261.8098 0.04608535 -80.43407
v -230.8644 0.04053491 -122.8646
v -223.4868 0.04053491 -126.611
v -234.4854 0.04053491 -130.1793
v -227.1078 0.04053491 -133.9258
v -256.816 0.0326119 -93.68475
v -258.4704 0.0326119 -97.91568
v -261.6341 0.0326119 -92.23193
v -263.2885 0.0326119 -96.46283
v -251.9361 0.08098628 -134.9982
v -245.3908 0.08098628 -134.8933
v -251.8312 0.08098628 -141.5434
v -245.2859 0.08098628 -141.4385
v -269.4066 0.04878661 -123.4852
v -269.4066 0.04878661 -114.1556
v -261.2553 0.04878661 -123.4852
v -261.2553 0.04878661 -114.1556
v -253.9056 0.04186015 -103.7991
v -248.7379 0.04186015 -108.4396
v -258.4307 0.04186015 -108.9432
v -253.263 0.04186015 -113.5836
v -232.1333 0.04403561 -132.6494
v -224.3398 0.04403561 -137.2682
v -236.9351 0.04403561 -140.7515
v -229.1416 0.04403561 -145.3704
v -257.8977 0.04511378 -116.1889
v -251.8325 0.04511378 -119.6907
v -260.703 0.04511378 -121.0479
v -254.6378 0.04511378 -124.5497
v -219.497 0.08098629 -132.4159
v -212.9518 0.08098629 -132.3111
v -219.3921 0.08098629 -138.9611
v -212.8468 0.08098629 -138.8562
v -277.1094 -0.003843098 -84.41458
v -275.1075 0.05095359 -91.12563
v -283.8091 -0.4865477 -86.41839
v -281.8071 -0.431744 -93.12943
v -269.8878 -0.3222788 -73.83279
v -267.7091 -0.1853707 -79.23476
v -276.4466 -0.2367248 -75.62647
v -274.2679 -0.09981681 -81.02844
v -262.7029 0.04511378 -124.5744
v -258.6528 0.04511378 -130.2881
v -267.2803 0.04511378 -127.819
v -263.2303 0.04511378 -133.5327
v -218.5968 0.04672501 -145.5414
v -209.9842 0.04672501 -145.5414
v -218.5968 0.04672501 -153.0664
v -209.9842 0.04672501 -153.0664
v -196.6813 0.0214587 -107.5473
v -200.9456 0.0214587 -105.8798
v -195.2171 0.0214587 -102.6913
v -199.4813 0.0214587 -101.0238
v -210.8967 0.04218133 -81.70351
v -217.8338 0.04218148 -81.70351
v -210.8967 0.04218148 -76.30249
v -217.8338 0.04218148 -76.30248
v -219.1427 0.04602833 -102.1287
v -211.0867 0.04602833 -102.1287
v -219.1427 0.04602833 -109.1674
v -211.0867 0.04602833 -109.1674
v -220.0624 0.08333821 -74.56511
v -219.9242 0.08333821 -83.1864
v -228.6837 0.08333821 -74.70321
v -228.5456 0.08333821 -83.32461
v -197.0642 0.04485336 -101.8624
v -195.0934 0.04485336 -101.7809
v -197.0163 0.04485336 -92.20955
v -195.0519 0.04485336 -91.02101
v -197.0201 0.04485335 -91.02105
v -195.0317 0.04485334 -92.20955
v -197.0154 0.04485336 -100.2163
v -195.0934 0.04485336 -100.2163
v -218.7253 0.04485335 -138.716
v -216.996 0.04485335 -138.6029
v -218.7047 0.04485335 -129.2801
v -216.9826 0.04485335 -127.821
v -218.7096 0.04485334 -127.821
v -216.9633 0.04485333 -129.2802
v -218.6904 0.04485335 -136.9786
v -217.0041 0.04485335 -136.9786
v -224.4145 0.05231614 -96.47828
v -222.4437 0.05231614 -96.39685
v -224.2652 0.05231614 -86.82304
v -222.4826 0.05231614 -85.63445
v -224.4508 0.05231613 -85.63451
v -222.6407 0.05231611 -86.823
v -224.1987 0.05231614 -94.83221
v -222.6254 0.05231614 -94.83221
v -279.6319 -0.2570243 -94.98663
v -277.8194 -0.2570243 -101.7515
v -285.3217 -0.1096687 -96.24161
v -283.5091 -0.1096687 -103.0065
v -237.5569 0.04403561 -147.1317
v -231.1955 0.04403561 -150.9019
v -241.4765 0.04403561 -153.7452
v -235.115 0.04403561 -157.5154
v -219.7333 0.04403561 -159.2867
v -213.3718 0.04403561 -163.0569
v -223.6528 0.04403561 -165.9001
v -217.2913 0.04403561 -169.6703
v -207.5041 0.04403561 -159.6249
v -201.1427 0.04403561 -163.3951
v -211.4237 0.04403561 -166.2383
v -205.0622 0.04403561 -170.0085
v -245.3744 0.04403561 -150.5808
v -239.0129 0.04403561 -154.351
v -249.2939 0.04403561 -157.1942
v -242.9324 0.04403561 -160.9644
v -197.0163 0.04485336 -92.20955
v -195.0934 0.04485336 -100.2163
v -195.0317 0.04485334 -92.20955
v -197.0154 0.04485336 -100.2163
v -218.7047 0.04485335 -129.2801
v -217.0041 0.04485335 -136.9786
v -216.9633 0.04485333 -129.2802
v -218.6904 0.04485335 -136.9786
v -224.2652 0.05231614 -86.82304
v -222.6254 0.05231614 -94.83221
v -222.6407 0.05231611 -86.823
v -224.1987 0.05231614 -94.83221
vt 0 3.814697E-06
vt 1 3.814697E-06
vt 0 0.9999962
vt 1 0.9999962
vt 0 3.814697E-06
vt 1 3.814697E-06
vt 0 0.9999962
vt 1 0.9999962
vt 0 3.814697E-06
vt 1 3.814697E-06
vt 0 0.9999962
vt 1 0.9999962
vt 0 3.814697E-06
vt 1 3.814697E-06
vt 0 0.9999962
vt 1 0.9999962
vt 0 3.814697E-06
vt 1 3.814697E-06
vt 0 0.9999962
vt 1 0.9999962
vt 0 3.814697E-06
vt 1 3.814697E-06
vt 0 0.9999962
vt 1 0.9999962
vt 0 3.814697E-06
vt 1 3.814697E-06
vt 0 0.9999962
vt 1 0.9999962
vt 0 3.814697E-06
vt 1 3.814697E-06
vt 0 0.9999962
vt 1 0.9999962
vt 0 3.814697E-06
vt 1 3.814697E-06
vt 0 0.9999962
vt 1 0.9999962
vt 0 3.814697E-06
vt 1 3.814697E-06
vt 0 0.9999962
vt 1 0.9999962
vt 0 3.814697E-06
vt 1 3.814697E-06
vt 0 0.9999962
vt 1 0.9999962
vt 0 3.814697E-06
vt 1 3.814697E-06
vt 0 0.9999962
vt 1 0.9999962
vt 0 3.814697E-06
vt 1 3.814697E-06
vt 0 0.9999962
vt 1 0.9999962
vt 0 3.814697E-06
vt 1 3.814697E-06
vt 0 0.9999962
vt 1 0.9999962
vt 0 3.814697E-06
vt 1 3.814697E-06
vt 0 0.9999962
vt 1 0.9999962
vt 0 3.814697E-06
vt 1 3.814697E-06
vt 0 0.9999962
vt 1 0.9999962
vt 0 3.814697E-06
vt 1 3.814697E-06
vt 0 0.9999962
vt 1 0.9999962
vt 0 3.814697E-06
vt 1 3.814697E-06
vt 0 0.9999962
vt 1 0.9999962
vt 0.2474039 0.05778908
vt 0.04892898 0.291035
vt 0.3658597 0.1544134
vt 0.04892898 0.291035
vt 0.2474039 0.05778908
vt 0.1673828 0.3876628
vt 0.3658597 0.1544134
vt 0.1673828 0.3876628
vt 0.2474039 0.05778908
vt 0.04892898 0.291035
vt 0.3658597 0.1544134
vt 0.04892898 0.291035
vt 0.2474039 0.05778908
vt 0.1673828 0.3876628
vt 0.3658597 0.1544134
vt 0.1673828 0.3876628
vt 0.2474039 0.05778908
vt 0.04892898 0.291035
vt 0.3658597 0.1544134
vt 0.04892898 0.291035
vt 0.2474039 0.05778908
vt 0.1673828 0.3876628
vt 0.3658597 0.1544134
vt 0.1673828 0.3876628
vt 0 3.814697E-06
vt 1 3.814697E-06
vt 0 0.9999962
vt 1 0.9999962
vt 0 3.814697E-06
vt 1 3.814697E-06
vt 0 0.9999962
vt 1 0.9999962
vt 0 3.814697E-06
vt 1 3.814697E-06
vt 0 0.9999962
vt 1 0.9999962
vt 0 3.814697E-06
vt 1 3.814697E-06
vt 0 0.9999962
vt 1 0.9999962
vt 0 3.814697E-06
vt 1 3.814697E-06
vt 0 0.9999962
vt 1 0.9999962
vt 0.5 0.5
vt 0.5 0.5
vt 0.5 0.5
vt 0.5 0.5
vt 0.5 0.5
vt 0.5 0.5
vt 0.5 0.5
vt 0.5 0.5
vt 0.5 0.5
vt 0.5 0.5
vt 0.5 0.5
vt 0.5 0.5
vn 0 1 0
vn 0 1 0
vn 0 1 0
vn 0 1 0
vn 0 1 0
vn 0 1 0
vn 0 1 0
vn 0 1 0
vn 0 1 0
vn 0 1 0
vn 0 1 0
vn 0 1 0
vn 0 1 0
vn 0 1 0
vn 0 1 0
vn 0 1 0
vn 0 1 0
vn 0 1 0
vn 0 1 0
vn 0 1 0
vn 0 1 0
vn 0 1 0
vn 0 1 0
vn 0 1 0
vn 0 1 0
vn 0 1 0
vn 0 1 0
vn 0 1 0
vn 0 1 0
vn 0 1 0
vn 0 1 0
vn 0 1 0
vn 0 1 0
vn 0 1 0
vn 0 1 0
vn 0 1 0
vn 0 1 0
vn 0 1 0
vn 0 1 0
vn 0 1 0
vn -0.06822557 0.9975953 -0.01220582
vn -0.06822557 0.9975953 -0.01220582
vn -0.06822557 0.9975953 -0.01220582
vn -0.06822557 0.9975953 -0.01220582
vn 0.005503622 0.9996052 0.02755377
vn 0.005503622 0.9996052 0.02755377
vn 0.005503622 0.9996052 0.02755377
vn 0.005503622 0.9996052 0.02755377
vn 0 1 0
vn 0 1 0
vn 0 1 0
vn 0 1 0
vn 0 1 0
vn 0 1 0
vn 0 1 0
vn 0 1 0
vn 0 1 0
vn 0 1 0
vn 0 1 0
vn 0 1 0
vn 0 1 0
vn 0 1 0
vn 0 1 0
vn 0 1 0
vn 0 1 0
vn 0 1 0
vn 0 1 0
vn 0 1 0
vn 0 1 0
vn 0 1 0
vn 0 1 0
vn 0 1 0
vn 0 1 0
vn 0 1 0
vn 0 1 0
vn 0 1 0
vn 0 1 0
vn 0 1 0
vn 0 1 0
vn 0 1 0
vn 0 1 0
vn 0 1 0
vn 0 1 0
vn 0 1 0
vn 0 1 0
vn 0 1 0
vn 0 1 0
vn 0 1 0
vn 0 1 0
vn 0 1 0
vn 0 1 0
vn 0 1 0
vn 0 1 0
vn 0 1 0
vn 0 1 0
vn 0 1 0
vn 0.02444566 0.9996797 0.006549814
vn 0.02444566 0.9996797 0.006549814
vn 0.02444566 0.9996797 0.006549814
vn 0.02444566 0.9996797 0.006549814
vn 0 1 0
vn 0 1 0
vn 0 1 0
vn 0 1 0
vn 0 1 0
vn 0 1 0
vn 0 1 0
vn 0 1 0
vn 0 1 0
vn 0 1 0
vn 0 1 0
vn 0 1 0
vn 0 1 0
vn 0 1 0
vn 0 1 0
vn 0 1 0
vn 0 1 0
vn 0 1 0
vn 0 1 0
vn 0 1 0
vn 0 1 0
vn 0 1 0
vn 0 1 0
vn 0 1 0
vn 0 1 0
vn 0 1 0
vn 0 1 0
vn 0 1 0
g E2_shadowTree_geo_0
f 4/4/4 1/1/1 2/2/2
f 3/3/3 1/1/1 4/4/4
f 8/8/8 5/5/5 6/6/6
f 7/7/7 5/5/5 8/8/8
f 12/12/12 9/9/9 10/10/10
f 11/11/11 9/9/9 12/12/12
f 16/16/16 13/13/13 14/14/14
f 15/15/15 13/13/13 16/16/16
f 20/20/20 17/17/17 18/18/18
f 19/19/19 17/17/17 20/20/20
f 24/24/24 21/21/21 22/22/22
f 23/23/23 21/21/21 24/24/24
f 28/28/28 25/25/25 26/26/26
f 27/27/27 25/25/25 28/28/28
f 32/32/32 29/29/29 30/30/30
f 31/31/31 29/29/29 32/32/32
f 36/36/36 33/33/33 34/34/34
f 35/35/35 33/33/33 36/36/36
f 40/40/40 37/37/37 38/38/38
f 39/39/39 37/37/37 40/40/40
f 44/44/44 41/41/41 42/42/42
f 43/43/43 41/41/41 44/44/44
f 48/48/48 45/45/45 46/46/46
f 47/47/47 45/45/45 48/48/48
f 52/52/52 49/49/49 50/50/50
f 51/51/51 49/49/49 52/52/52
f 56/56/56 53/53/53 54/54/54
f 55/55/55 53/53/53 56/56/56
f 60/60/60 57/57/57 58/58/58
f 59/59/59 57/57/57 60/60/60
f 64/64/64 61/61/61 62/62/62
f 63/63/63 61/61/61 64/64/64
f 68/68/68 65/65/65 66/66/66
f 67/67/67 65/65/65 68/68/68
f 72/72/72 69/69/69 70/70/70
f 71/71/71 69/69/69 72/72/72
f 77/77/77 78/78/78 75/75/75
f 76/76/76 78/78/78 77/77/77
f 74/74/74 79/79/79 80/80/80
f 73/73/73 79/79/79 74/74/74
f 118/118/118 117/117/117 119/119/119
f 120/120/120 117/117/117 118/118/118
f 85/85/85 86/86/86 83/83/83
f 84/84/84 86/86/86 85/85/85
f 82/82/82 87/87/87 88/88/88
f 81/81/81 87/87/87 82/82/82
f 122/122/122 121/121/121 123/123/123
f 124/124/124 121/121/121 122/122/122
f 93/93/93 94/94/94 91/91/91
f 92/92/92 94/94/94 93/93/93
f 90/90/90 95/95/95 96/96/96
f 89/89/89 95/95/95 90/90/90
f 126/126/126 125/125/125 127/127/127
f 128/128/128 125/125/125 126/126/126
f 100/100/100 97/97/97 98/98/98
f 99/99/99 97/97/97 100/100/100
f 104/104/104 101/101/101 102/102/102
f 103/103/103 101/101/101 104/104/104
f 108/108/108 105/105/105 106/106/106
f 107/107/107 105/105/105 108/108/108
f 112/112/112 109/109/109 110/110/110
f 111/111/111 109/109/109 112/112/112
f 116/116/116 113/113/113 114/114/114
f 115/115/115 113/113/113 116/116/116
