g E3_detailBush01_geo
v -275.98 -9.872029E-05 -36.93985
v -276.1287 1.081602 -37.0776
v -276.0569 0.7268645 -37.02494
v -275.7969 -9.872029E-05 -32.07017
v -275.9816 -9.872029E-05 -36.08923
v -276.0553 0.2827867 -36.08698
v -276.1414 0.9361709 -36.08862
v -275.842 -9.872029E-05 -35.06261
v -275.9212 0.3747318 -35.05955
v -276.1423 1.028116 -35.06086
v -276.0314 0.2664291 -32.09053
v -276.1069 0.9482278 -32.0831
v -279.0464 -9.872029E-05 -40.11732
v -278.9735 0.8472002 -40.06022
v -278.0721 -9.872029E-05 -40.0471
v -278.1198 0.9205938 -39.93373
v -278.6494 0.9128843 -40.02963
v -278.5902 -9.872029E-05 -40.2405
v -277.015 -0.04131937 -40.18239
v -277.0346 1.035933 -39.59731
v -283.3784 -0.1619698 -39.58878
v -283.3779 1.017992 -39.44231
v -283.3784 0.4588637 -39.51561
v -277.0267 0.7671218 -39.75647
v -278.0014 1.053275 -39.56271
v -278.0877 0.4371416 -39.78402
v -278.1813 -9.9941E-05 -40.03654
v -275.2155 -0.0160976 -30.34498
v -275.4412 0.6288949 -30.32497
v -275.7923 -9.872029E-05 -31.67868
v -275.8223 -9.87197E-05 -32.9951
v -276.1181 0.7494448 -32.77333
v -275.39 0.3690486 -30.341
v -276.1131 0.4926258 -32.85226
v -276.1833 0.4495187 -31.64013
v -276.1545 0.761397 -30.52895
v -275.9731 0.4532072 -30.62527
v -275.6413 -9.871791E-05 -30.73728
v -276.174 0.9793773 -31.56861
v -275.1744 0.01137375 -30.34154
v -275.2815 0.4435409 -30.27961
v -275.1299 0.03481247 -29.36464
v -275.2758 0.4563662 -29.38794
v -275.2719 0.4337167 -29.83415
v -275.1433 0.02774216 -29.86328
v -275.9812 -9.872029E-05 -13.73279
v -276.1129 0.7153987 -13.73031
v -276.118 -9.872029E-05 -12.87188
v -276.1417 0.7281086 -12.90418
v -276.0986 0.7178946 -13.14068
v -275.9505 -9.872029E-05 -13.17961
v -275.8777 -9.872029E-05 -17.00698
v -275.9429 0.5713514 -16.96145
v -275.9256 -9.872029E-05 -16.03939
v -275.9633 0.5803205 -16.05828
v -275.9587 0.5432987 -16.43805
v -275.8141 -9.872029E-05 -16.45844
v -276.1038 0.9189063 -39.61388
v -277.3076 0.8141161 -39.67726
v -277.3142 0.4103136 -39.89243
v -277.3244 -9.9941E-05 -40.09762
v -276.5459 0.9169849 -39.80054
v -276.537 0.5153074 -39.83594
v -276.3079 -9.9941E-05 -40.27525
v -276.1098 0.5011388 -39.5514
v -275.9049 -9.872029E-05 -39.66314
v -275.8249 -9.872029E-05 -39.27076
v -275.9895 0.9304402 -39.34396
v -275.8555 -9.902547E-05 -38.4291
v -276.0079 0.6191756 -38.432
v -276.0035 0.7938884 -38.78249
v -275.7208 -9.872029E-05 -38.78291
v -275.812 -9.872029E-05 -36.06815
v -275.9987 0.9523696 -36.14302
v -275.8878 0.4851313 -36.07502
v -275.8618 -9.872029E-05 -38.20565
v -275.9437 0.5309744 -38.17566
v -276.0679 1.138865 -38.24008
v -275.8976 -9.872029E-05 -19.09143
v -276.1648 0.9523696 -19.16629
v -276.0903 0.4851313 -19.09829
v -275.9619 -9.872029E-05 -21.32581
v -275.9771 0.5309744 -21.46476
v -276.065 1.138865 -21.52918
v -276.0972 -0.01217147 -22.02531
v -275.9055 0.07084674 -22.09372
v -275.9054 0.3677939 -22.11106
v -277.4304 0.004250645 -12.87272
v -277.4939 1.037015 -13.1094
v -281.7565 0.004250654 -12.61724
v -281.7745 1.044602 -12.95601
v -281.7429 0.3843465 -12.77347
v -277.4118 0.5072954 -12.95991
v -278.694 1.036981 -12.91388
v -278.6881 0.5072767 -12.79226
v -278.6749 0.004250645 -12.71617
v -280.4239 1.037008 -13.0701
v -280.4234 0.5072911 -12.74312
v -280.4234 0.004250654 -12.7569
v -280.2664 0.002857823 -12.63704
v -280.2209 0.5929688 -12.77532
v -279.2988 0.02879166 -12.59674
v -279.3177 0.6115741 -12.76307
v -279.6975 0.5779142 -12.74691
v -279.7178 -0.0313536 -12.69053
v -275.917 0.03238663 -21.75998
v -276.077 0.8354751 -21.94589
v -276.0571 0.4564716 -21.95657
v -275.1485 -9.872029E-05 -23.39848
v -275.2385 0.2422196 -23.36849
v -275.3546 0.5934314 -23.43291
v -275.1914 -9.872029E-05 -24.01963
v -275.3453 0.139403 -24.16262
v -275.3923 0.432616 -24.17995
v -275.4337 0.5794451 -22.22065
v -275.3632 0.257347 -22.17751
v -275.3628 0.007221836 -22.1375
v -275.0793 -0.003134609 -24.28394
v -275.1649 0.6232027 -24.28393
v -275.1093 0.002656101 -23.36024
v -275.2266 0.5065231 -23.40316
v -275.1698 0.6720574 -23.86095
v -274.9771 -0.02274887 -23.71405
v -275.686 -9.872029E-05 -21.91039
v -275.888 0.7696449 -21.86485
v -275.9274 -9.872029E-05 -21.21232
v -276.1018 0.7786139 -21.23118
v -275.9413 0.7415922 -21.68884
v -275.66 -9.872029E-05 -21.70926
v -275.2841 -9.872029E-05 -28.31854
v -275.4656 0.6073318 -28.36798
v -275.4264 0.3530414 -28.32307
v -275.1781 -9.872029E-05 -29.73035
v -275.2764 0.3988847 -29.71054
v -275.3841 0.7938269 -29.75308
v -277.1501 -9.872029E-05 -12.77814
v -277.1334 0.32393 -12.84394
v -277.78 -9.872029E-05 -12.65454
v -277.8968 0.2877964 -12.70064
v -277.4879 0.326392 -12.74278
v -277.4679 -9.872029E-05 -12.63955
v -276.1552 -9.872029E-05 -14.83288
v -276.1528 1.119979 -14.89642
v -276.109 -9.872029E-05 -19.15908
v -276.111 1.12517 -19.177
v -276.0028 0.2599617 -19.14547
v -276.0677 0.3440826 -14.81429
v -276.153 1.119956 -16.09647
v -275.961 0.3440699 -16.09068
v -275.9247 -9.872029E-05 -16.07746
v -276.1534 1.119974 -17.82639
v -276.0101 0.3440793 -17.82599
v -275.8839 -9.872029E-05 -17.82601
v -277.77 -9.872029E-05 -12.87746
v -277.7976 0.8218232 -12.87561
v -276.0007 -9.872029E-05 -15.54458
v -276.0261 1.119978 -15.55896
v -275.9741 0.3440819 -15.54459
v -277.7889 0.3440826 -12.91166
v -276.1512 1.119981 -13.84346
v -276.0165 0.3581074 -13.85584
v -275.9471 -9.872029E-05 -13.84348
v -276.157 1.105478 -12.91315
v -276.1386 0.3383352 -12.89226
v -276.1096 -9.872029E-05 -12.92696
v -276.8257 1.013688 -12.88278
v -276.441 0.3319683 -12.83277
v -276.3777 -9.872029E-05 -12.81629
v -276.1515 1.119982 -14.97058
v -276.0233 0.344083 -14.9744
v -275.9398 -9.872029E-05 -14.97441
v -275.8833 0.04343643 -19.95885
v -275.9217 1.086588 -19.85966
v -275.9934 0.3047972 -19.88555
v -276.0088 1.013821 -19.53551
v -275.843 0.3424315 -19.57013
v -275.7685 -0.002865839 -19.57717
v -276.0312 1.016462 -18.59922
v -275.9626 0.3034968 -18.59852
v -276.0107 -0.02551345 -18.66048
v -276.02 1.015141 -19.06736
v -275.8311 0.322964 -19.10639
v -275.6992 -0.007405472 -19.11329
v -283.0094 -0.1619698 -39.76693
v -283.0028 0.4458301 -39.68102
v -282.9962 1.009006 -39.5972
v -275.9731 0.4532072 -30.62527
v -276.1545 0.761397 -30.52895
v -275.6413 -9.871791E-05 -30.73728
v -276.1098 0.5011388 -39.5514
v -275.9049 -9.872029E-05 -39.66314
v -276.1038 0.9189063 -39.61388
v -275.39 0.3690486 -30.341
v -275.2155 -0.0160976 -30.34498
v -275.4412 0.6288949 -30.32497
vt 0.876232 0.375086
vt 0.876232 0.496392
vt 0.876232 0.438291
vt 0.0428905 0.375281
vt 0.681034 0.375164
vt 0.681034 0.438291
vt 0.681034 0.496314
vt 0.485835 0.375242
vt 0.485835 0.438291
vt 0.485835 0.496236
vt 0.0428905 0.4310372
vt 0.0428905 0.4961975
vt 0.8218312 0.2122729
vt 0.8218312 0.2789258
vt 0.6960096 0.2122729
vt 0.6960096 0.2814339
vt 0.7667841 0.2814339
vt 0.7667841 0.2122729
vt 0.02211973 0.7469798
vt 0.02211973 0.8670307
vt 1.013802 0.7471058
vt 1.013802 0.8669047
vt 1.013802 0.8088097
vt 0.02211973 0.8088167
vt 0.1938747 0.8670307
vt 0.1938747 0.8088167
vt 0.1938747 0.7469798
vt 0.471395 0.7521929
vt 0.482295 0.8495157
vt 0.8256896 0.748981
vt 0.919651 0.748769
vt 0.9447964 0.8540389
vt 0.485165 0.797225
vt 0.919651 0.80687
vt 0.8256896 0.80687
vt 0.6964096 0.8544509
vt 0.705965 0.80687
vt 0.705965 0.749003
vt 0.8159097 0.8613487
vt 0.9992161 0.3011422
vt 0.992381 0.3401858
vt 0.8991411 0.301293
vt 0.9011688 0.3405176
vt 0.9468265 0.3385528
vt 0.9501663 0.3014453
vt 0.850643 0.12569
vt 0.850643 0.204679
vt 0.690856 0.12569
vt 0.690856 0.204679
vt 0.770749 0.204679
vt 0.770749 0.12569
vt 0.850643 0.12569
vt 0.850643 0.204679
vt 0.690856 0.12569
vt 0.690856 0.204679
vt 0.770749 0.204679
vt 0.770749 0.12569
vt 0.3868748 0.6226482
vt 0.7118381 0.625964
vt 0.7118381 0.5878317
vt 0.7256054 0.5027233
vt 0.5373845 0.6225222
vt 0.5373845 0.5644272
vt 0.5373845 0.5027233
vt 0.3868394 0.5644342
vt 0.3868394 0.5025973
vt 0.850643 0.12569
vt 0.850643 0.204679
vt 0.690856 0.12569
vt 0.690856 0.204679
vt 0.770749 0.204679
vt 0.770749 0.12569
vt 0.004027 0.499956
vt 0.004027 0.616159
vt 0.004027 0.558057
vt 0.361439 0.500026
vt 0.361439 0.558057
vt 0.361439 0.616089
vt 0.004027 0.499956
vt 0.004027 0.616159
vt 0.004027 0.558057
vt 0.361439 0.500026
vt 0.361439 0.558057
vt 0.361439 0.616089
vt 0.508069 0.500055
vt 0.4899703 0.544831
vt 0.4899703 0.602834
vt 0.02163084 0.7499496
vt 0.02163084 0.8661526
vt 0.9906738 0.7504176
vt 0.9906738 0.8656846
vt 0.9906738 0.8080516
vt 0.02163084 0.8080516
vt 0.3010089 0.8658966
vt 0.3010089 0.8080516
vt 0.3010089 0.7502056
vt 0.737834 0.8657806
vt 0.737834 0.8080516
vt 0.737834 0.7503216
vt 0.850643 0.12569
vt 0.850643 0.204679
vt 0.690856 0.12569
vt 0.690856 0.204679
vt 0.770749 0.204679
vt 0.770749 0.12569
vt 0.04815087 0.499956
vt 0.05340383 0.616159
vt 0.03554376 0.558057
vt 0.4845307 0.500026
vt 0.4719236 0.558057
vt 0.4897837 0.616089
vt 0.6635577 0.500055
vt 0.6509506 0.558057
vt 0.6688107 0.61606
vt 0.2531156 0.616127
vt 0.2352555 0.558057
vt 0.2478626 0.499988
vt 0.9570385 0.6261185
vt 0.9900027 0.7044149
vt 0.801429 0.6307362
vt 0.8104274 0.7219303
vt 0.8907145 0.7123535
vt 0.8727582 0.6220334
vt 0.1967392 0.2985679
vt 0.1967392 0.3690476
vt 0.07412434 0.2985679
vt 0.07412434 0.3690476
vt 0.1217716 0.3690476
vt 0.1217716 0.2985679
vt 0.004027 0.499956
vt 0.004027 0.616159
vt 0.004027 0.558057
vt 0.361439 0.500026
vt 0.361439 0.558057
vt 0.361439 0.616089
vt 0.8489514 0.1272749
vt 0.8639032 0.1935141
vt 0.6916117 0.1313526
vt 0.6902525 0.2048411
vt 0.776624 0.2012164
vt 0.7779831 0.127728
vt 0.2173743 0.7484046
vt 0.2173743 0.8676199
vt 0.7938936 0.7488847
vt 0.7938936 0.8671398
vt 0.7938936 0.8080127
vt 0.2173743 0.8080127
vt 0.3925107 0.8673573
vt 0.3835865 0.8080127
vt 0.3835865 0.7486672
vt 0.5398117 0.8672383
vt 0.5398117 0.8080127
vt 0.5398117 0.7487862
vt 0.005419 0.624578
vt 0.005419 0.740781
vt 0.974462 0.625046
vt 0.974462 0.740313
vt 0.974462 0.68268
vt 0.005419 0.68268
vt 0.594642 0.74043
vt 0.594642 0.68268
vt 0.594642 0.624929
vt 0.404732 0.740488
vt 0.404732 0.68268
vt 0.404732 0.624871
vt 0.342901 0.740525
vt 0.342901 0.68268
vt 0.284797 0.624834
vt 0.837362 0.740355
vt 0.837362 0.68268
vt 0.837362 0.625004
vt 0.974462 0.625046
vt 0.974462 0.740313
vt 0.974462 0.68268
vt 0.915202 0.740331
vt 0.915202 0.68268
vt 0.915202 0.625028
vt 0.7216222 0.740409
vt 0.7216222 0.68268
vt 0.7216222 0.62495
vt 0.788426 0.74037
vt 0.788426 0.68268
vt 0.788426 0.624989
vt 0.9555931 0.7470968
vt 0.9555931 0.8088102
vt 0.9555931 0.8669136
vt 0.644553 0.80687
vt 0.644553 0.864737
vt 0.644553 0.749003
vt 0.508069 0.558057
vt 0.508069 0.500055
vt 0.508069 0.61606
vt 0.508069 0.558057
vt 0.508069 0.500055
vt 0.508069 0.61606
vn 0.987926 0.1503598 0.03733696
vn 0.9860784 0.1573364 0.05380299
vn 0.9870421 0.1538543 0.04557181
vn 0.8979767 0.4396832 0.01779106
vn 0.9807191 0.1886875 -0.05086528
vn 0.9810501 0.1909562 -0.03280868
vn 0.9810564 0.1931582 -0.01477104
vn 0.9400196 0.3356265 -0.06097482
vn 0.959047 0.2793928 -0.04656733
vn 0.9743849 0.2225835 -0.03210455
vn 0.9436115 0.3305326 0.01859197
vn 0.9760384 0.2167555 0.01913265
vn -0.1289529 0.150207 -0.9802086
vn -0.1289529 0.150207 -0.9802086
vn 0.2604333 0.1828299 -0.948023
vn 0.2604333 0.1828299 -0.948023
vn 0.06704105 0.1698135 -0.9831933
vn 0.06704105 0.1698135 -0.9831933
vn -0.1085574 0.4809703 -0.8699901
vn -0.06470028 0.3990023 -0.9146644
vn -0.4143012 0.119042 -0.9023212
vn -0.3830217 0.1304196 -0.9144862
vn -0.3987241 0.1247504 -0.9085463
vn -0.08674425 0.4405725 -0.8935162
vn -0.03627346 0.3261651 -0.9446167
vn -0.05580268 0.3624828 -0.9303185
vn -0.07525393 0.3981616 -0.9142233
vn 0.7896362 0.4046035 -0.4612708
vn 0.7514623 0.3100924 -0.5823633
vn 0.7897297 0.6105463 -0.05966774
vn 0.8120014 0.5832075 0.02286299
vn 0.9984541 -0.01567097 0.05332802
vn 0.7733839 0.3594899 -0.5221536
vn 0.9534457 0.2988836 0.04012471
vn 0.9277647 0.3710482 -0.03969853
vn 0.7771037 0.3123244 -0.5464094
vn 0.7370368 0.4454981 -0.5082403
vn 0.6864387 0.5602326 -0.4636177
vn 0.9946939 0.1015385 -0.01654858
vn 0.9604571 0.2748725 -0.04435045
vn 0.9604571 0.2748725 -0.04435045
vn 0.9488792 0.3150387 -0.01946035
vn 0.9488792 0.3150387 -0.01946035
vn 0.9549508 0.2950429 -0.03191485
vn 0.9549508 0.2950429 -0.03191485
vn 0.9805148 0.1925291 -0.03902989
vn 0.9805148 0.1925291 -0.03902989
vn 0.9277494 0.1085223 0.3570769
vn 0.9277494 0.1085223 0.3570769
vn 0.9746629 0.1537647 0.1624453
vn 0.9746629 0.1537647 0.1624453
vn 0.9815942 0.1869884 -0.0388356
vn 0.9815942 0.1869884 -0.0388356
vn 0.9781382 0.1584233 0.1347134
vn 0.9781382 0.1584233 0.1347134
vn 0.9836789 0.1733779 0.04812542
vn 0.9836789 0.1733779 0.04812542
vn 0.8356588 0.04367939 -0.5475093
vn -0.08127888 0.2958317 -0.9517758
vn -0.08570752 0.429864 -0.8988165
vn -0.08835439 0.5549599 -0.8271717
vn 0.2086454 0.1418936 -0.9676432
vn 0.2534928 0.3829893 -0.8882908
vn 0.2818898 0.6027719 -0.7464611
vn 0.8556829 0.2580336 -0.4485816
vn 0.8312365 0.4443994 -0.3339986
vn 0.9672315 0.2487915 -0.05065648
vn 0.9672315 0.2487915 -0.05065648
vn 0.9244726 0.2850511 0.2531724
vn 0.9244726 0.2850511 0.2531724
vn 0.9573439 0.2701643 0.1024882
vn 0.9573439 0.2701643 0.1024882
vn 0.9878486 0.153711 -0.02297938
vn 0.9772003 0.2116037 -0.01742074
vn 0.9829541 0.1827372 -0.02020889
vn 0.9752995 0.2155085 -0.04844372
vn 0.9811446 0.1869031 -0.04921845
vn 0.9861513 0.1581474 -0.04995097
vn 0.979277 0.2021447 0.01241971
vn 0.9864758 0.1554113 0.05208463
vn 0.9833447 0.1788632 0.03226754
vn 0.9990735 -0.03045581 0.03040466
vn 0.9974735 0.05085192 0.04960343
vn 0.9892318 0.1296269 0.06795217
vn 0.9641026 -0.2613868 0.04672289
vn 0.9945664 -0.08020119 0.06637297
vn 0.9910733 0.1037226 0.08375689
vn 0.1259463 0.1582682 0.9793307
vn 0.140243 0.256377 0.9563486
vn 0.0333131 0.1586626 0.9867707
vn 0.01181628 0.3938513 0.9190981
vn 0.02273688 0.278365 0.9602062
vn 0.1332673 0.2075916 0.9690953
vn 0.03085585 0.3396253 0.9400546
vn 0.07439597 0.175942 0.9815853
vn 0.06437948 0.1104068 0.9917992
vn -0.03252091 0.4604681 0.8870804
vn -0.0003019325 0.2768898 0.9609017
vn 0.0178855 0.1104041 0.9937258
vn 0.03036793 0.1585105 0.9868902
vn 0.03036793 0.1585105 0.9868902
vn -0.1163151 0.1825365 0.9762947
vn -0.1163151 0.1825365 0.9762947
vn -0.04309334 0.1709988 0.9843284
vn -0.04309334 0.1709988 0.9843284
vn 0.4546285 0.3778032 0.806584
vn 0.3731931 0.0908733 0.9232925
vn 0.4193225 0.2374021 0.876247
vn 0.9356958 0.3527944 0.00307935
vn 0.9527526 0.3035563 -0.01077337
vn 0.9668061 0.2543489 -0.02434538
vn 0.8524472 0.5071492 -0.1270181
vn 0.9192783 0.3716196 -0.1297154
vn 0.9651115 0.2276017 -0.1294499
vn 0.7792328 0.2161278 0.5882899
vn 0.7882207 0.2652081 0.5553132
vn 0.7941417 0.3108977 0.5221893
vn 0.975694 0.1942849 -0.1013641
vn 0.975694 0.1942849 -0.1013641
vn 0.9230143 0.2804196 0.2634564
vn 0.9230143 0.2804196 0.2634564
vn 0.9668291 0.2417212 0.08253795
vn 0.9668291 0.2417212 0.08253795
vn 0.9497024 0.2997148 0.09075452
vn 0.9497024 0.2997148 0.09075452
vn 0.8837933 0.2645161 0.3859282
vn 0.8837933 0.2645161 0.3859282
vn 0.9275602 0.2854428 0.2411524
vn 0.9275602 0.2854428 0.2411524
vn 0.9489564 0.3017673 0.0917515
vn 0.9674149 0.2324882 0.100289
vn 0.9588106 0.267302 0.09608289
vn 0.9481129 0.3174751 -0.01707021
vn 0.9611431 0.2747439 -0.02682713
vn 0.9721973 0.2312917 -0.03656048
vn 0.3269018 0.2391745 0.9142925
vn 0.3269018 0.2391745 0.9142925
vn 0.02362843 0.2410601 0.9702225
vn 0.02362843 0.2410601 0.9702225
vn 0.1773866 0.2430238 0.9536632
vn 0.1773866 0.2430238 0.9536632
vn 0.98842 -0.07438865 0.1322578
vn 0.9831293 0.1779548 0.0422943
vn 0.9959509 0.03482284 -0.08288015
vn 0.9883309 0.151686 0.01390097
vn 0.9950159 0.09352466 -0.03458954
vn 0.9947428 0.05225417 0.08807007
vn 0.9807703 0.1946497 0.01418156
vn 0.989711 0.1373953 0.03993525
vn 0.9947118 0.07879786 0.06587553
vn 0.9833889 0.1815113 -2.273826E-05
vn 0.9872987 0.157428 -0.02139535
vn 0.9901817 0.1330546 -0.04285464
vn -0.05062519 0.06852195 0.9963643
vn -0.03101789 0.001507162 0.9995177
vn 0.9965587 0.0822657 -0.01015573
vn 0.9822652 0.1150871 0.1480201
vn 0.992681 0.09900244 0.06915992
vn -0.04084649 0.03503596 0.998551
vn 0.9904078 0.1343314 0.03236586
vn 0.9866155 0.1540486 0.05346718
vn 0.9819743 0.1736814 0.07457305
vn 0.7074129 0.1128885 0.6977271
vn 0.7299248 0.09930009 0.6762761
vn 0.7495105 0.0869445 0.6562581
vn 0.02688378 0.03692607 0.9989563
vn 0.07287319 0.03923793 0.996569
vn 0.1192885 0.04149411 0.9919922
vn 0.9871875 0.1422991 0.07219294
vn 0.9888527 0.1451285 0.03328808
vn 0.989011 0.147734 -0.005625507
vn 0.8884732 0.3146742 -0.3340591
vn 0.9931777 0.06820754 -0.09458175
vn 0.9563805 0.194606 -0.2178639
vn 0.9859542 0.160713 -0.04544816
vn 0.963695 0.2349815 -0.1267895
vn 0.9291255 0.3065253 -0.206804
vn 0.9738469 0.1744195 0.1456027
vn 0.9501275 0.1241876 0.2860687
vn 0.9047294 0.07112207 0.4200077
vn 0.9740213 0.2136277 0.07513884
vn 0.9712324 0.2019047 0.1262622
vn 0.9655172 0.189172 0.1788589
vn -0.2330084 0.2201887 -0.9472192
vn -0.2161811 0.2074394 -0.9540622
vn -0.1992917 0.1946217 -0.9604192
vn 0.7370368 0.4454981 -0.5082403
vn 0.7771037 0.3123244 -0.5464094
vn 0.6864387 0.5602326 -0.4636177
vn 0.8556829 0.2580336 -0.4485816
vn 0.8312365 0.4443994 -0.3339986
vn 0.8356588 0.04367939 -0.5475093
vn 0.7733839 0.3594899 -0.5221536
vn 0.7896362 0.4046035 -0.4612708
vn 0.7514623 0.3100924 -0.5823633
g E3_detailBush01_geo_0
f 6/6/6 8/8/8 5/5/5
f 9/9/9 8/8/8 6/6/6
f 10/10/10 9/9/9 6/6/6
f 11/11/11 9/9/9 10/10/10
f 12/12/12 11/11/11 10/10/10
f 17/17/17 13/13/13 14/14/14
f 18/18/18 13/13/13 17/17/17
f 15/15/15 18/18/18 17/17/17
f 15/15/15 17/17/17 16/16/16
f 185/185/185 23/23/23 22/22/22
f 186/186/186 185/185/185 22/22/22
f 26/26/26 185/185/185 186/186/186
f 25/25/25 26/26/26 186/186/186
f 24/24/24 26/26/26 25/25/25
f 20/20/20 24/24/24 25/25/25
f 185/185/185 21/21/21 23/23/23
f 184/184/184 21/21/21 185/185/185
f 26/26/26 184/184/184 185/185/185
f 27/27/27 184/184/184 26/26/26
f 24/24/24 27/27/27 26/26/26
f 19/19/19 27/27/27 24/24/24
f 35/35/35 37/37/37 38/38/38
f 30/30/30 35/35/35 38/38/38
f 34/34/34 35/35/35 30/30/30
f 31/31/31 34/34/34 30/30/30
f 35/35/35 36/36/36 37/37/37
f 39/39/39 36/36/36 35/35/35
f 34/34/34 39/39/39 35/35/35
f 32/32/32 39/39/39 34/34/34
f 187/187/187 33/33/33 28/28/28
f 29/29/29 33/33/33 187/187/187
f 188/188/188 29/29/29 187/187/187
f 187/187/187 28/28/28 189/189/189
f 44/44/44 40/40/40 41/41/41
f 45/45/45 40/40/40 44/44/44
f 42/42/42 45/45/45 44/44/44
f 42/42/42 44/44/44 43/43/43
f 50/50/50 46/46/46 47/47/47
f 51/51/51 46/46/46 50/50/50
f 48/48/48 51/51/51 50/50/50
f 48/48/48 50/50/50 49/49/49
f 56/56/56 52/52/52 53/53/53
f 57/57/57 52/52/52 56/56/56
f 54/54/54 57/57/57 56/56/56
f 54/54/54 56/56/56 55/55/55
f 63/63/63 60/60/60 59/59/59
f 62/62/62 63/63/63 59/59/59
f 65/65/65 63/63/63 62/62/62
f 58/58/58 65/65/65 62/62/62
f 71/71/71 67/67/67 68/68/68
f 72/72/72 67/67/67 71/71/71
f 69/69/69 72/72/72 71/71/71
f 69/69/69 71/71/71 70/70/70
f 77/77/77 75/75/75 73/73/73
f 76/76/76 77/77/77 73/73/73
f 190/190/190 77/77/77 76/76/76
f 191/191/191 190/190/190 76/76/76
f 77/77/77 74/74/74 75/75/75
f 78/78/78 74/74/74 77/77/77
f 190/190/190 78/78/78 77/77/77
f 192/192/192 78/78/78 190/190/190
f 83/83/83 81/81/81 79/79/79
f 82/82/82 83/83/83 79/79/79
f 86/86/86 83/83/83 82/82/82
f 85/85/85 86/86/86 82/82/82
f 83/83/83 80/80/80 81/81/81
f 84/84/84 80/80/80 83/83/83
f 86/86/86 84/84/84 83/83/83
f 87/87/87 84/84/84 86/86/86
f 104/104/104 105/105/105 102/102/102
f 100/100/100 105/105/105 104/104/104
f 101/101/101 100/100/100 104/104/104
f 103/103/103 104/104/104 102/102/102
f 116/116/116 108/108/108 106/106/106
f 117/117/117 116/116/116 106/106/106
f 110/110/110 116/116/116 117/117/117
f 109/109/109 110/110/110 117/117/117
f 113/113/113 110/110/110 109/109/109
f 112/112/112 113/113/113 109/109/109
f 116/116/116 107/107/107 108/108/108
f 115/115/115 107/107/107 116/116/116
f 110/110/110 115/115/115 116/116/116
f 111/111/111 115/115/115 110/110/110
f 113/113/113 111/111/111 110/110/110
f 114/114/114 111/111/111 113/113/113
f 122/122/122 118/118/118 119/119/119
f 123/123/123 118/118/118 122/122/122
f 120/120/120 123/123/123 122/122/122
f 120/120/120 122/122/122 121/121/121
f 128/128/128 124/124/124 125/125/125
f 129/129/129 124/124/124 128/128/128
f 126/126/126 129/129/129 128/128/128
f 126/126/126 128/128/128 127/127/127
f 134/134/134 132/132/132 130/130/130
f 133/133/133 134/134/134 130/130/130
f 193/193/193 134/134/134 133/133/133
f 194/194/194 193/193/193 133/133/133
f 134/134/134 131/131/131 132/132/132
f 135/135/135 131/131/131 134/134/134
f 193/193/193 135/135/135 134/134/134
f 195/195/195 135/135/135 193/193/193
f 140/140/140 136/136/136 137/137/137
f 141/141/141 136/136/136 140/140/140
f 138/138/138 141/141/141 140/140/140
f 138/138/138 140/140/140 139/139/139
f 152/152/152 146/146/146 145/145/145
f 151/151/151 152/152/152 145/145/145
f 149/149/149 152/152/152 151/151/151
f 148/148/148 149/149/149 151/151/151
f 147/147/147 149/149/149 148/148/148
f 143/143/143 147/147/147 148/148/148
f 152/152/152 144/144/144 146/146/146
f 153/153/153 144/144/144 152/152/152
f 149/149/149 153/153/153 152/152/152
f 150/150/150 153/153/153 149/149/149
f 147/147/147 150/150/150 149/149/149
f 142/142/142 150/150/150 147/147/147
f 164/164/164 165/165/165 162/162/162
f 168/168/168 165/165/165 164/164/164
f 167/167/167 168/168/168 164/164/164
f 159/159/159 168/168/168 167/167/167
f 166/166/166 159/159/159 167/167/167
f 155/155/155 159/159/159 166/166/166
f 168/168/168 159/159/159 154/154/154
f 174/174/174 177/177/177 172/172/172
f 176/176/176 177/177/177 174/174/174
f 175/175/175 176/176/176 174/174/174
f 182/182/182 176/176/176 175/175/175
f 181/181/181 182/182/182 175/175/175
f 179/179/179 182/182/182 181/181/181
f 178/178/178 179/179/179 181/181/181
f 175/175/175 174/174/174 173/173/173
f 182/182/182 177/177/177 176/176/176
f 183/183/183 177/177/177 182/182/182
f 179/179/179 183/183/183 182/182/182
f 180/180/180 183/183/183 179/179/179
f 99/99/99 92/92/92 90/90/90
f 98/98/98 92/92/92 99/99/99
f 95/95/95 98/98/98 99/99/99
f 94/94/94 98/98/98 95/95/95
f 89/89/89 94/94/94 95/95/95
f 6/6/6 3/3/3 2/2/2
f 1/1/1 3/3/3 6/6/6
f 5/5/5 1/1/1 6/6/6
f 6/6/6 7/7/7 10/10/10
f 2/2/2 7/7/7 6/6/6
f 4/4/4 9/9/9 11/11/11
f 8/8/8 9/9/9 4/4/4
f 63/63/63 64/64/64 61/61/61
f 66/66/66 64/64/64 63/63/63
f 65/65/65 66/66/66 63/63/63
f 60/60/60 63/63/63 61/61/61
f 161/161/161 164/164/164 162/162/162
f 160/160/160 164/164/164 161/161/161
f 170/170/170 160/160/160 161/161/161
f 169/169/169 160/160/160 170/170/170
f 157/157/157 169/169/169 170/170/170
f 170/170/170 171/171/171 156/156/156
f 162/162/162 171/171/171 170/170/170
f 161/161/161 162/162/162 170/170/170
f 164/164/164 166/166/166 167/167/167
f 163/163/163 166/166/166 164/164/164
f 160/160/160 163/163/163 164/164/164
f 158/158/158 170/170/170 156/156/156
f 157/157/157 170/170/170 158/158/158
f 98/98/98 91/91/91 92/92/92
f 97/97/97 91/91/91 98/98/98
f 94/94/94 97/97/97 98/98/98
f 95/95/95 88/88/88 93/93/93
f 96/96/96 88/88/88 95/95/95
f 99/99/99 96/96/96 95/95/95
f 93/93/93 89/89/89 95/95/95
