g E3_detailGarbage_geo
v -197.9816 0.8185937 59.57757
v -197.8579 0.8185943 59.70121
v -197.689 0.8185943 59.74649
v -197.5201 0.8185951 59.70119
v -197.3965 0.8185951 59.57755
v -197.3512 0.8185927 59.40864
v -197.3965 0.8185927 59.23976
v -197.5201 0.8185936 59.11609
v -197.6891 0.8185941 59.07084
v -197.8579 0.818593 59.11613
v -197.9815 0.8185895 59.23977
v -198.0268 0.8185906 59.40866
v -197.3889 0.1000902 59.40864
v -197.4292 0.1000924 59.5587
v -197.539 0.1000926 59.66859
v -197.689 0.1000918 59.70884
v -197.8391 0.1000917 59.66861
v -197.949 0.1000912 59.55873
v -197.9892 0.100088 59.40866
v -197.9489 0.1000871 59.25861
v -197.8391 0.1000905 59.14875
v -197.6891 0.1000915 59.10849
v -197.5389 0.1000911 59.14871
v -197.4291 0.10009 59.25857
v -242.6832 0.6662435 -10.44269
v -242.7403 0.6662435 -10.49991
v -242.8185 0.6662435 -10.52082
v -242.8967 0.6662435 -10.49991
v -242.9539 0.6662435 -10.44269
v -242.9749 0.6662435 -10.36453
v -242.9538 0.6662436 -10.28641
v -242.8967 0.6662436 -10.22921
v -242.8185 0.6662435 -10.20827
v -242.7403 0.6662435 -10.22921
v -242.6831 0.6662435 -10.28638
v -242.6622 0.6662435 -10.36453
v -242.9746 0.1239547 -10.36453
v -242.9537 0.1239547 -10.44259
v -242.8966 0.1239547 -10.49974
v -242.8185 0.1239547 -10.52061
v -242.7405 0.1239547 -10.49974
v -242.6833 0.1239547 -10.4426
v -242.6624 0.1239547 -10.36453
v -242.6833 0.1239547 -10.28649
v -242.7405 0.1239547 -10.22941
v -242.8185 0.1239547 -10.20849
v -242.8966 0.1239547 -10.22941
v -242.9537 0.1239547 -10.28652
v -197.9816 0.8185937 59.57757
v -197.949 0.1000912 59.55873
v -242.6832 0.6662435 -10.44269
v -242.6833 0.1239547 -10.4426
vt 0.9762881 0.6838939
vt 0.9762881 0.6838939
vt 0.9762881 0.6838939
vt 0.9762881 0.6838939
vt 0.9762881 0.6838939
vt 0.9762881 0.6838939
vt 0.9762881 0.6838939
vt 0.9762881 0.6838939
vt 0.9762881 0.6838939
vt 0.9762881 0.6838939
vt 0.9762881 0.6838939
vt 0.9762881 0.6838939
vt 0.9762881 0.6838939
vt 0.9762881 0.6838939
vt 0.9762881 0.6838939
vt 0.9762881 0.6838939
vt 0.9762881 0.6838939
vt 0.9762881 0.6838939
vt 0.9762881 0.6838939
vt 0.9762881 0.6838939
vt 0.9762881 0.6838939
vt 0.9762881 0.6838939
vt 0.9762881 0.6838939
vt 0.9762881 0.6838939
vt 0.3310535 0.7786525
vt 0.3310535 0.7786525
vt 0.3310535 0.7786525
vt 0.3310535 0.7786525
vt 0.3310535 0.7786525
vt 0.3310535 0.7786525
vt 0.3310535 0.7786525
vt 0.3310535 0.7786525
vt 0.3310535 0.7786525
vt 0.3310535 0.7786525
vt 0.3310535 0.7786525
vt 0.3310535 0.7786525
vt 0.3310535 0.7786525
vt 0.3310535 0.7786525
vt 0.3310535 0.7786525
vt 0.3310535 0.7786525
vt 0.3310535 0.7786525
vt 0.3310535 0.7786525
vt 0.3310535 0.7786525
vt 0.3310535 0.7786525
vt 0.3310535 0.7786525
vt 0.3310535 0.7786525
vt 0.3310535 0.7786525
vt 0.3310535 0.7786525
vt 0.9762881 0.6838939
vt 0.9762881 0.6838939
vt 0.3310535 0.7786525
vt 0.3310535 0.7786525
vn -0.8648623 -0.05232413 0.4992748
vn -0.4993198 -0.05231308 0.8648371
vn 0.0001374158 -0.05232698 0.99863
vn 0.4995618 -0.05235505 0.8646947
vn 0.8648717 -0.05237665 0.4992532
vn 0.9986283 -0.0523604 0.0001965003
vn 0.8649353 -0.05234545 -0.4991461
vn 0.4993351 -0.05233384 -0.864827
vn -0.000193302 -0.05233376 -0.9986297
vn -0.4995227 -0.0523307 -0.8647189
vn -0.8647743 -0.05230258 -0.4994293
vn -0.9986304 -0.05231797 -0.0002735192
vn 0.9986283 -0.0523604 0.0001965003
vn 0.8648717 -0.05237665 0.4992532
vn 0.4995618 -0.05235505 0.8646947
vn 0.0001374158 -0.05232698 0.99863
vn -0.4993198 -0.05231308 0.8648371
vn -0.8648623 -0.05232413 0.4992748
vn -0.9986304 -0.05231797 -0.0002735192
vn -0.8647743 -0.05230258 -0.4994293
vn -0.4995227 -0.0523307 -0.8647189
vn -0.000193302 -0.05233376 -0.9986297
vn 0.4993351 -0.05233384 -0.864827
vn 0.8649353 -0.05234545 -0.4991461
vn 0.8659382 -0.0003516346 -0.5001507
vn 0.4997093 -0.0003830347 -0.8661931
vn -9.366058E-05 -0.000385552 -1
vn -0.4998862 -0.000356659 -0.8660911
vn -0.8659604 -0.0003968686 -0.5001126
vn -0.9999999 -0.0004499615 0.0001790071
vn -0.8658379 -0.0004157671 0.5003245
vn -0.5000603 -0.0003961064 0.8659905
vn -0.0001094247 -0.0004119719 0.9999999
vn 0.4996687 -0.0004626058 0.8662164
vn 0.8658361 -0.0004413555 0.5003276
vn 1 -0.0003549001 -9.362833E-05
vn -0.9999999 -0.0004499615 0.0001790071
vn -0.8659604 -0.0003968686 -0.5001126
vn -0.4998862 -0.000356659 -0.8660911
vn -9.366058E-05 -0.000385552 -1
vn 0.4997093 -0.0003830347 -0.8661931
vn 0.8659382 -0.0003516346 -0.5001507
vn 1 -0.0003549001 -9.362833E-05
vn 0.8658361 -0.0004413555 0.5003276
vn 0.4996687 -0.0004626058 0.8662164
vn -0.0001094247 -0.0004119719 0.9999999
vn -0.5000603 -0.0003961064 0.8659905
vn -0.8658379 -0.0004157671 0.5003245
vn -0.8648623 -0.05232413 0.4992748
vn -0.8648623 -0.05232413 0.4992748
vn 0.8659382 -0.0003516346 -0.5001507
vn 0.8659382 -0.0003516346 -0.5001507
g E3_detailGarbage_geo_0
f 19/19/19 50/50/50 49/49/49
f 12/12/12 19/19/19 49/49/49
f 20/20/20 19/19/19 12/12/12
f 11/11/11 20/20/20 12/12/12
f 21/21/21 20/20/20 11/11/11
f 10/10/10 21/21/21 11/11/11
f 22/22/22 21/21/21 10/10/10
f 9/9/9 22/22/22 10/10/10
f 23/23/23 22/22/22 9/9/9
f 8/8/8 23/23/23 9/9/9
f 24/24/24 23/23/23 8/8/8
f 7/7/7 24/24/24 8/8/8
f 13/13/13 24/24/24 7/7/7
f 6/6/6 13/13/13 7/7/7
f 14/14/14 13/13/13 6/6/6
f 5/5/5 14/14/14 6/6/6
f 15/15/15 14/14/14 5/5/5
f 4/4/4 15/15/15 5/5/5
f 16/16/16 15/15/15 4/4/4
f 3/3/3 16/16/16 4/4/4
f 17/17/17 16/16/16 3/3/3
f 2/2/2 17/17/17 3/3/3
f 18/18/18 17/17/17 2/2/2
f 1/1/1 18/18/18 2/2/2
f 43/43/43 52/52/52 51/51/51
f 36/36/36 43/43/43 51/51/51
f 44/44/44 43/43/43 36/36/36
f 35/35/35 44/44/44 36/36/36
f 45/45/45 44/44/44 35/35/35
f 34/34/34 45/45/45 35/35/35
f 46/46/46 45/45/45 34/34/34
f 33/33/33 46/46/46 34/34/34
f 47/47/47 46/46/46 33/33/33
f 32/32/32 47/47/47 33/33/33
f 48/48/48 47/47/47 32/32/32
f 31/31/31 48/48/48 32/32/32
f 37/37/37 48/48/48 31/31/31
f 30/30/30 37/37/37 31/31/31
f 38/38/38 37/37/37 30/30/30
f 29/29/29 38/38/38 30/30/30
f 39/39/39 38/38/38 29/29/29
f 28/28/28 39/39/39 29/29/29
f 40/40/40 39/39/39 28/28/28
f 27/27/27 40/40/40 28/28/28
f 41/41/41 40/40/40 27/27/27
f 26/26/26 41/41/41 27/27/27
f 42/42/42 41/41/41 26/26/26
f 25/25/25 42/42/42 26/26/26
