g E3_paths_geo
v -238.2567 0.0006067083 50.60656
v -237.0543 0.0006106871 52.19516
v -231.7327 0.0006064737 45.65712
v -230.5303 0.0006144698 47.24571
v -238.2401 0.01102237 50.62849
v -231.7161 0.01102231 45.67905
v -230.544 0.01102631 47.22757
v -237.068 0.01102503 52.177
v -238.2401 0.01102237 50.62849
v -230.544 0.01102631 47.22757
v -237.068 0.01102503 52.177
v -231.7161 0.01102231 45.67905
vt 0.6227437 0.3497335
vt 0.6227437 0.3497335
vt 0.6227437 0.3497335
vt 0.6227437 0.3497335
vt 0.6227437 0.3497335
vt 0.6227437 0.3497335
vt 0.6227437 0.3497335
vt 0.6227437 0.3497335
vt 0 0
vt 1 1.283532
vt 1 0
vt 0 1.283532
vn -0.714573 0.6616607 0.2271353
vn -0.3857257 0.6435473 0.661107
vn -0.2139937 0.9352232 -0.2820713
vn 0.2516584 0.9091921 0.3317193
vn -0.4579985 0.8769515 0.1455794
vn -0.1087734 0.9836724 -0.1433773
vn 0.1287864 0.9770345 0.1697577
vn -0.2484948 0.8699761 0.4259013
vn -0.4579985 0.8769515 0.1455794
vn 0.1287864 0.9770345 0.1697577
vn -0.2484948 0.8699761 0.4259013
vn -0.1087734 0.9836724 -0.1433773
g E3_paths_geo_0
f 8/8/8 4/4/4 7/7/7
f 2/2/2 4/4/4 8/8/8
f 5/5/5 2/2/2 8/8/8
f 1/1/1 2/2/2 5/5/5
f 6/6/6 1/1/1 5/5/5
f 3/3/3 1/1/1 6/6/6
f 10/10/10 9/9/9 11/11/11
f 12/12/12 9/9/9 10/10/10
