g E3_shadowPine_geo
v -206.1678 0.04734157 -13.55795
v -206.002 0.04734157 -23.89789
v -216.5078 0.04734157 -13.72364
v -216.3421 0.04734157 -24.06363
v -263.8119 0.04430063 42.53183
v -263.6651 0.04430063 33.3713
v -272.9723 0.04430063 42.38503
v -272.8255 0.04430063 33.22451
v -260.5297 0.04430063 2.114412
v -260.3828 0.04430063 -7.046038
v -269.6901 0.04430063 1.967634
v -269.5432 0.04430063 -7.192834
v -258.7827 0.04430063 -57.60893
v -258.636 0.04430063 -66.76948
v -267.9431 0.04430063 -57.75581
v -267.7964 0.04430063 -66.91624
v -220.4354 0.04430071 -34.66138
v -220.3286 0.04430071 -41.33052
v -227.1046 0.04430071 -34.76821
v -226.9977 0.04430071 -41.43739
v -224.5585 0.04430071 -5.931174
v -224.4517 0.04430071 -12.60033
v -231.2277 0.04430071 -6.038029
v -231.1208 0.04430071 -12.70719
v -275.4275 0.9524863 47.79873
v -275.3201 1.100202 41.20802
v -281.9893 0.3214826 47.67772
v -281.8819 0.4692051 41.087
v -271.4414 1.184311 58.2638
v -271.3571 1.30159 53.05001
v -276.6298 0.6590788 58.16806
v -276.5454 0.7763643 52.95428
vt 0 2.000004
vt 1 2.000004
vt 0 2.999996
vt 1 2.999996
vt 0 2.000004
vt 1 2.000004
vt 0 2.999996
vt 1 2.999996
vt 0 2.000004
vt 1 2.000004
vt 0 2.999996
vt 1 2.999996
vt 0 2.000004
vt 1 2.000004
vt 0 2.999996
vt 1 2.999996
vt 0 2.000004
vt 1 2.000004
vt 0 2.999996
vt 1 2.999996
vt 0 2.000004
vt 1 2.000004
vt 0 2.999996
vt 1 2.999996
vt 0 2.000004
vt 1 2.000004
vt 0 2.999996
vt 1 2.999996
vt 0 2.000004
vt 1 2.000004
vt 0 2.999996
vt 1 2.999996
vn 0 1 0
vn 0 1 0
vn 0 1 0
vn 0 1 0
vn 0 1 0
vn 0 1 0
vn 0 1 0
vn 0 1 0
vn 0 1 0
vn 0 1 0
vn 0 1 0
vn 0 1 0
vn 0 1 0
vn 0 1 0
vn 0 1 0
vn 0 1 0
vn 0 1 0
vn 0 1 0
vn 0 1 0
vn 0 1 0
vn 0 1 0
vn 0 1 0
vn 0 1 0
vn 0 1 0
vn -0.09607879 0.9951577 0.02073969
vn -0.09607879 0.9951577 0.02073969
vn -0.09607879 0.9951577 0.02073969
vn -0.09607879 0.9951577 0.02073969
vn -0.1010752 0.9946626 0.0207397
vn -0.1010752 0.9946626 0.0207397
vn -0.1010752 0.9946626 0.0207397
vn -0.1010752 0.9946626 0.0207397
g E3_shadowPine_geo_0
f 4/4/4 1/1/1 2/2/2
f 3/3/3 1/1/1 4/4/4
f 8/8/8 5/5/5 6/6/6
f 7/7/7 5/5/5 8/8/8
f 12/12/12 9/9/9 10/10/10
f 11/11/11 9/9/9 12/12/12
f 16/16/16 13/13/13 14/14/14
f 15/15/15 13/13/13 16/16/16
f 20/20/20 17/17/17 18/18/18
f 19/19/19 17/17/17 20/20/20
f 24/24/24 21/21/21 22/22/22
f 23/23/23 21/21/21 24/24/24
f 28/28/28 25/25/25 26/26/26
f 27/27/27 25/25/25 28/28/28
f 32/32/32 29/29/29 30/30/30
f 31/31/31 29/29/29 32/32/32
