g E3_windowCar_geo
v -241.201 1.547543 -13.84348
v -241.6554 1.057709 -13.61525
v -240.6626 1.057709 -13.69596
v -240.3317 1.590883 -13.91412
v -239.6134 1.056234 -13.78412
v -239.629 1.592356 -13.97525
v -240.5273 1.056234 -13.70984
v -240.2251 1.592356 -13.92684
v -239.5141 1.055417 -13.79492
v -239.5296 1.593185 -13.98666
v -238.8587 1.565675 -14.04119
v -238.2506 1.055417 -13.8976
v -238.3295 1.044011 -15.77545
v -238.9176 1.570917 -15.52932
v -238.8587 1.596109 -14.80326
v -238.1795 1.044013 -13.92926
v -238.7997 1.57092 -14.07717
v -239.6683 1.055419 -15.69256
v -239.6527 1.593186 -15.5008
v -238.9818 1.565677 -15.55533
v -238.4048 1.055419 -15.79523
v -239.7681 1.056239 -15.68717
v -239.7526 1.592362 -15.49603
v -240.682 1.056239 -15.61291
v -240.3487 1.592362 -15.44758
v -241.3253 1.547551 -15.37223
v -241.8106 1.057717 -15.52406
v -240.8177 1.057716 -15.60475
v -240.456 1.59089 -15.44285
v -241.3821 1.54332 -15.25033
v -241.3546 1.579911 -14.60045
v -241.8881 1.040537 -15.41768
v -241.2768 1.543319 -13.95463
v -241.7491 1.040537 -13.70779
vt -0.189483 0.6169314
vt -0.4285343 0.3603685
vt 0.09183937 0.3603685
vt 0.2661414 0.6396315
vt 0.8009968 0.4810472
vt 0.7937427 0.7618544
vt 0.32203 0.4810472
vt 0.4812995 0.7618544
vt 0.03014612 0.531065
vt 0.0210789 0.8819304
vt 0.4591087 0.8639814
vt 0.8550766 0.531065
vt 0.5047192 1.527095
vt 0.4387565 1.865626
vt 0.1810695 1.881811
vt -0.150486 1.527096
vt -0.07661507 1.865626
vt 0.4563809 0.05690449
vt 0.4478305 0.387776
vt 0.03475824 0.3708502
vt -0.3215451 0.05690449
vt -0.3517972 -0.1208096
vt -0.3590479 0.1599977
vt 0.1271729 -0.1208096
vt -0.04660833 0.1599977
vt 0.4489924 0.6934699
vt 0.7117578 0.4275068
vt 0.1723178 0.4275067
vt -0.02332609 0.7170016
vt -0.08452345 1.865626
vt 0.1731634 1.881811
vt -0.150486 1.527095
vt 0.4308481 1.865626
vt 0.5047192 1.527096
vn 0.06752087 0.3550239 0.9324157
vn 0.06752087 0.3550239 0.9324157
vn 0.06752087 0.3550239 0.9324157
vn 0.06752087 0.3550239 0.9324157
vn 0.07625978 0.3368262 0.9384735
vn 0.07625978 0.3368262 0.9384735
vn 0.07625978 0.3368262 0.9384735
vn 0.07625978 0.3368262 0.9384735
vn 0.08086801 0.347093 0.9343376
vn 0.08086801 0.347093 0.9343376
vn 0.08086801 0.347093 0.9343376
vn 0.08086801 0.347093 0.9343376
vn 0.6590561 0.7491295 -0.06670917
vn 0.6466717 0.7586811 -0.07885936
vn 0.656469 0.752466 -0.05332169
vn 0.6611749 0.749136 -0.04053463
vn 0.6509079 0.7586933 -0.02652051
vn -0.07105894 0.3470997 -0.9351323
vn -0.07105894 0.3470997 -0.9351323
vn -0.07105894 0.3470997 -0.9351323
vn -0.07105894 0.3470997 -0.9351323
vn -0.07626799 0.3368146 -0.938477
vn -0.07626799 0.3368146 -0.938477
vn -0.07626799 0.3368146 -0.938477
vn -0.07626799 0.3368146 -0.938477
vn -0.08391619 0.355032 -0.9310802
vn -0.08391619 0.355032 -0.9310802
vn -0.08391619 0.355032 -0.9310802
vn -0.08391619 0.355032 -0.9310802
vn -0.7030844 0.7110318 -0.01030075
vn -0.718242 0.6933416 0.05836036
vn -0.7298304 0.6831508 0.02554261
vn -0.692268 0.7109638 0.1236748
vn -0.724413 0.6831154 0.09262334
g E3_windowCar_geo_0
f 1/1/1 3/3/3 4/4/4
f 2/2/2 3/3/3 1/1/1
f 8/8/8 5/5/5 6/6/6
f 7/7/7 5/5/5 8/8/8
f 10/10/10 12/12/12 11/11/11
f 9/9/9 12/12/12 10/10/10
f 15/15/15 13/13/13 14/14/14
f 16/16/16 13/13/13 15/15/15
f 17/17/17 16/16/16 15/15/15
f 19/19/19 21/21/21 18/18/18
f 20/20/20 21/21/21 19/19/19
f 25/25/25 22/22/22 24/24/24
f 23/23/23 22/22/22 25/25/25
f 26/26/26 28/28/28 27/27/27
f 29/29/29 28/28/28 26/26/26
f 31/31/31 34/34/34 33/33/33
f 32/32/32 34/34/34 31/31/31
f 30/30/30 32/32/32 31/31/31
