g E4_colourPaletteOutline_geo
v -202.9307 -0.1113575 70.23222
v -202.8085 -0.1113567 70.3854
v -202.632 -0.111358 70.47041
v -202.4361 -0.1113578 70.47041
v -202.2596 -0.1113598 70.3854
v -202.1374 -0.1113595 70.23223
v -202.0938 -0.1113588 70.04121
v -202.1374 -0.111361 69.85018
v -202.2596 -0.1113598 69.697
v -202.4361 -0.1113557 69.61198
v -202.632 -0.1113538 69.61198
v -202.8085 -0.1113556 69.697
v -202.9307 -0.1113545 69.85017
v -202.9743 -0.111356 70.04119
v -202.9404 -0.1288844 69.8455
v -202.8153 -0.128886 69.68855
v -202.6344 -0.1288835 69.60146
v -202.4337 -0.1288862 69.60146
v -202.2528 -0.1288923 69.68856
v -202.1277 -0.1288942 69.8455
v -202.083 -0.1288909 70.04121
v -202.1276 -0.128892 70.23691
v -202.2528 -0.1288924 70.39384
v -202.4337 -0.1288893 70.48093
v -202.6344 -0.1288897 70.48093
v -202.8153 -0.1288877 70.39384
v -202.9404 -0.1288889 70.23689
v -202.9851 -0.1288867 70.04119
v -194.9292 1.298124 77.08359
v -195.0085 1.240541 77.08359
v -195.0388 1.147366 77.08359
v -194.7217 1.147367 77.08357
v -194.752 1.240542 77.08358
v -194.8312 1.298125 77.08359
v -194.9292 1.298123 77.69893
v -195.0085 1.24054 77.69894
v -195.0388 1.147367 77.69894
v -194.7217 1.147368 77.69894
v -194.752 1.240542 77.69894
v -194.8312 1.298124 77.69893
v -195.0388 0.9201283 77.08359
v -195.0388 0.9201276 77.69894
v -194.7217 0.9201283 77.08357
v -194.7217 0.9201276 77.69894
v -194.9974 1.229553 77.72374
v -194.7631 1.229554 77.72377
v -194.7354 0.9367416 77.72374
v -194.7354 1.144407 77.72374
v -195.0251 1.144407 77.72374
v -195.0251 0.9367416 77.72373
v -194.925 1.282175 77.72374
v -194.8355 1.282177 77.72374
v -194.7353 1.14442 77.06399
v -195.0252 1.144419 77.06399
v -194.7353 0.9366693 77.064
v -195.0252 0.9366693 77.064
v -194.763 1.229602 77.064
v -194.9975 1.229602 77.06399
v -194.8355 1.282248 77.06399
v -194.925 1.282248 77.06399
v -195.0397 1.147581 77.13834
v -195.0093 1.241332 77.13832
v -194.9296 1.299276 77.13833
v -194.8309 1.299282 77.13833
v -194.7511 1.241338 77.13834
v -194.7208 1.147581 77.13831
v -194.7208 0.9189212 77.13831
v -195.0397 0.9189212 77.13834
v -195.0398 1.147581 77.15672
v -195.0093 1.241332 77.1567
v -194.9296 1.299276 77.15671
v -194.8309 1.299282 77.15672
v -194.7511 1.241338 77.15672
v -194.7207 1.147581 77.15672
v -194.7207 0.9189212 77.15672
v -195.0398 0.9189212 77.15672
v -194.8501 1.271674E-08 77.44309
v -194.8501 1.271566E-08 77.36009
v -194.8501 0.9189212 77.44309
v -194.8501 0.9189212 77.36009
v -194.9104 0.9189212 77.44308
v -194.9104 0.9189212 77.36008
v -194.9104 -5.708921E-13 77.44308
v -194.9104 7.173571E-09 77.36008
v -194.8321 1.271796E-08 77.43143
v -194.8321 1.271305E-08 77.37173
v -194.8321 0.9189212 77.37173
v -194.8321 0.9189212 77.43143
v -194.9283 0.9189212 77.43143
v -194.9282 0.9189212 77.37176
v -194.9283 7.180749E-09 77.37176
v -194.9283 -6.514166E-12 77.43144
v -202.9307 -0.1113545 69.85017
v -202.8085 -0.1113556 69.697
v -202.632 -0.1113538 69.61198
v -202.4361 -0.1113557 69.61198
v -202.2596 -0.1113598 69.697
v -202.1374 -0.111361 69.85018
v -202.0938 -0.1113588 70.04121
v -202.1374 -0.1113595 70.23223
v -202.2596 -0.1113598 70.3854
v -202.4361 -0.1113578 70.47041
v -202.632 -0.111358 70.47041
v -202.8085 -0.1113567 70.3854
v -202.9307 -0.1113575 70.23222
v -202.9743 -0.111356 70.04119
v -194.925 1.282175 77.72374
v -194.8312 1.298124 77.69893
v -194.8355 1.282177 77.72374
v -194.9292 1.298123 77.69893
v -195.0388 0.9201276 77.69894
v -194.7217 0.9201283 77.08357
v -195.0388 0.9201283 77.08359
v -194.7217 0.9201276 77.69894
v -194.7631 1.229554 77.72377
v -194.752 1.240542 77.69894
v -194.7217 0.9201276 77.69894
v -194.7354 1.144407 77.72374
v -194.7217 1.147368 77.69894
v -194.7354 0.9367416 77.72374
v -195.0388 1.147367 77.69894
v -195.0251 0.9367416 77.72373
v -195.0388 0.9201276 77.69894
v -195.0251 1.144407 77.72374
v -195.0085 1.24054 77.69894
v -194.9974 1.229553 77.72374
v -195.0252 1.144419 77.06399
v -195.0085 1.240541 77.08359
v -195.0388 1.147366 77.08359
v -194.9975 1.229602 77.06399
v -194.7217 1.147367 77.08357
v -194.7353 0.9366693 77.064
v -194.7217 0.9201283 77.08357
v -194.7353 1.14442 77.06399
v -195.0388 0.9201283 77.08359
v -195.0252 0.9366693 77.064
v -194.9292 1.298124 77.08359
v -194.925 1.282248 77.06399
v -194.752 1.240542 77.08358
v -194.763 1.229602 77.064
v -194.8312 1.298125 77.08359
v -194.8355 1.282248 77.06399
v -194.8501 1.271674E-08 77.44309
v -194.8321 1.271305E-08 77.37173
v -194.8501 1.271566E-08 77.36009
v -194.8321 1.271796E-08 77.43143
v -194.8321 0.9189212 77.37173
v -194.8501 0.9189212 77.36009
v -194.8321 0.9189212 77.43143
v -194.8501 0.9189212 77.44309
v -194.9104 0.9189212 77.44308
v -194.9282 0.9189212 77.37176
v -194.9104 0.9189212 77.36008
v -194.9283 0.9189212 77.43143
v -194.9283 7.180749E-09 77.37176
v -194.9104 7.173571E-09 77.36008
v -194.9283 -6.514166E-12 77.43144
v -194.9104 -5.708921E-13 77.44308
vt 0.5436667 0.2666586
vt 0.5436668 0.2666585
vt 0.5436668 0.2666585
vt 0.5436668 0.2666585
vt 0.5436667 0.2666585
vt 0.5436668 0.2666585
vt 0.5436667 0.2666584
vt 0.543667 0.2666584
vt 0.5436668 0.2666586
vt 0.5436667 0.2666587
vt 0.5436667 0.2666587
vt 0.5436668 0.2666587
vt 0.5436667 0.2666586
vt 0.5436668 0.2666586
vt 0.01478004 0.9503896
vt 0.01477998 0.9503896
vt 0.01477998 0.9503896
vt 0.01477998 0.9503896
vt 0.01477998 0.9503896
vt 0.01477993 0.9503896
vt 0.01477993 0.9503896
vt 0.01477993 0.9503896
vt 0.01477998 0.9503896
vt 0.01477998 0.9503896
vt 0.01477998 0.9503896
vt 0.01477998 0.9503896
vt 0.01477996 0.9503896
vt 0.01478004 0.9503896
vt 0.843817 0.7811337
vt 0.843817 0.7811337
vt 0.843817 0.7811337
vt 0.8438169 0.7811337
vt 0.8438168 0.7811337
vt 0.8438167 0.7811337
vt 0.843817 0.7811337
vt 0.843817 0.7811337
vt 0.843817 0.7811337
vt 0.8438169 0.7811337
vt 0.8438168 0.7811337
vt 0.8438167 0.7811337
vt 0.843817 0.7811337
vt 0.843817 0.7811337
vt 0.843817 0.7811337
vt 0.843817 0.7811337
vt 0.843817 0.7811334
vt 0.843817 0.7811334
vt 0.843817 0.7811337
vt 0.843817 0.7811335
vt 0.843817 0.7811335
vt 0.843817 0.7811337
vt 0.843817 0.7811334
vt 0.843817 0.7811334
vt 0.843817 0.7811335
vt 0.8438168 0.7811335
vt 0.843817 0.7811337
vt 0.8438168 0.7811337
vt 0.843817 0.7811334
vt 0.8438168 0.7811334
vt 0.843817 0.7811334
vt 0.8438169 0.7811334
vt 0 0.9
vt 0 0.9
vt 0 0.9
vt 0 0.9
vt 0 0.9
vt 0 0.9
vt 0 0.9
vt 0 0.9
vt 0 0.9
vt 0 0.9
vt 0 0.9
vt 0 0.9
vt 0 0.9
vt 0 0.9
vt 0 0.9
vt 0 0.9
vt 0.28402 0.7747796
vt 0.2840202 0.7747796
vt 0.28402 0.7747797
vt 0.2840202 0.7747797
vt 0.2840201 0.7747797
vt 0.2840201 0.7747797
vt 0.2840201 0.7747796
vt 0.2840201 0.7747796
vt 0.2840201 0.7747796
vt 0.2840201 0.7747796
vt 0.2840201 0.7747797
vt 0.2840201 0.7747797
vt 0.2840201 0.7747796
vt 0.2840202 0.7747796
vt 0.2840202 0.7747797
vt 0.2840201 0.7747797
vt 0.01478004 0.9503896
vt 0.01477998 0.9503896
vt 0.01477998 0.9503896
vt 0.01477998 0.9503896
vt 0.01477998 0.9503896
vt 0.01477993 0.9503896
vt 0.01477993 0.9503896
vt 0.01477993 0.9503896
vt 0.01477998 0.9503896
vt 0.01477998 0.9503896
vt 0.01477998 0.9503896
vt 0.01477998 0.9503896
vt 0.01477996 0.9503896
vt 0.01478004 0.9503896
vt 0 0.9
vt 0 0.9
vt 0 0.9
vt 0 0.9
vt 0.8438167 0.7329639
vt 0.8438168 0.7329642
vt 0.8438167 0.7329642
vt 0.8438168 0.7329639
vt 0 0.9
vt 0 0.9
vt 0 0.9
vt 0 0.9
vt 0 0.9
vt 0 0.9
vt 0 0.9
vt 0 0.9
vt 0 0.9
vt 0 0.9
vt 0 0.9
vt 0 0.9
vt 0 0.9
vt 0 0.9
vt 0 0.9
vt 0 0.9
vt 0 0.9
vt 0 0.9
vt 0 0.9
vt 0 0.9
vt 0 0.9
vt 0 0.9
vt 0 0.9
vt 0 0.9
vt 0 0.9
vt 0 0.9
vt 0 0.9
vt 0 0.9
vt 0 0.9
vt 0 0.9
vt 0 0.9
vt 0 0.9
vt 0 0.9
vt 0 0.9
vt 0 0.9
vt 0 0.9
vt 0 0.9
vt 0 0.9
vt 0 0.9
vt 0 0.9
vt 0 0.9
vt 0 0.9
vt 0 0.9
vt 0 0.9
vn -0.5731779 0.771562 0.2759695
vn -0.3964508 0.7718104 0.4971272
vn -0.1414941 0.7716758 0.6200774
vn 0.1414977 0.7717404 0.6199962
vn 0.3961584 0.7720704 0.4969567
vn 0.5725537 0.7721324 0.2756699
vn 0.6360797 0.7716233 -0.0001216683
vn 0.5731481 0.7715944 -0.2759407
vn 0.39647 0.7717983 -0.4971308
vn 0.1415184 0.7717358 -0.619997
vn -0.1414684 0.7717236 -0.6200238
vn -0.3964573 0.7718327 -0.4970875
vn -0.573209 0.7715374 -0.2759739
vn -0.6365316 0.7712507 2.45488E-06
vn -0.7675412 0.5237592 -0.3695359
vn -0.5309564 0.5243062 -0.6657239
vn -0.1894517 0.5241053 -0.8303142
vn 0.1895149 0.5241311 -0.8302836
vn 0.5309579 0.5242478 -0.6657686
vn 0.7674854 0.5238618 -0.3695063
vn 0.8517654 0.5239235 -0.0001641923
vn 0.7669149 0.5248773 0.3692498
vn 0.5306144 0.5247772 0.6656255
vn 0.1894883 0.5241383 0.830285
vn -0.1894812 0.5240191 0.8303619
vn -0.5309428 0.5242638 0.6657681
vn -0.76751 0.5238073 0.3695326
vn -0.8522159 0.5231903 2.019075E-06
vn -0.2909755 0.8924345 -0.3448097
vn -0.7654888 0.5531986 -0.3286309
vn -0.9409456 0.1489418 -0.3040357
vn 0.940958 0.1488646 -0.3040351
vn 0.7655061 0.5530685 -0.3288093
vn 0.2909707 0.8923869 -0.3449371
vn -0.2963156 0.90971 0.2909034
vn -0.7786522 0.5635929 0.2757964
vn -0.9553221 0.1512696 0.2539237
vn 0.9554775 0.1512025 0.2533785
vn 0.7787913 0.5634085 0.2757807
vn 0.2963629 0.9096468 0.2910529
vn -0.6478528 -0.6273363 -0.4321295
vn -0.6652181 -0.6493047 0.3686303
vn 0.6478859 -0.6273393 -0.4320756
vn 0.6654969 -0.6493055 0.3681252
vn -0.3872951 0.2789947 0.8787289
vn 0.3872976 0.2789306 0.8787481
vn 0.3699661 -0.3507257 0.8603002
vn 0.4966019 0.07847308 0.8644238
vn -0.4962023 0.07838684 0.8646611
vn -0.3695268 -0.3505814 0.8605478
vn -0.1906797 0.5837919 0.7891947
vn 0.1906151 0.5836012 0.7893513
vn 0.4517198 0.07137944 -0.8892999
vn -0.4517145 0.07135796 -0.8893043
vn 0.3309729 -0.3077138 -0.8920589
vn -0.3309239 -0.3076999 -0.892082
vn 0.3502422 0.2513462 -0.9023057
vn -0.3503443 0.2514247 -0.9022442
vn 0.1718509 0.5248884 -0.8336423
vn -0.1719054 0.5250178 -0.8335495
vn -0.9877176 0.1562317 -0.002368215
vn -0.8091239 0.5876366 -0.001227214
vn -0.309069 0.9510396 -0.0001642122
vn 0.3089634 0.9510739 0.0001658893
vn 0.8091335 0.5876248 -0.0003651991
vn 0.9877223 0.1562122 -0.001585894
vn 0.7071052 -0.7071067 -0.001500988
vn -0.7070714 -0.7071396 -0.001878236
vn -0.9877176 0.1562317 -0.002368215
vn -0.8091239 0.5876366 -0.001227214
vn -0.309069 0.9510396 -0.0001642122
vn 0.3089634 0.9510739 0.0001658893
vn 0.8091335 0.5876248 -0.0003651991
vn 0.9877223 0.1562122 -0.001585894
vn 0.7071052 -0.7071067 -0.001500988
vn -0.7070714 -0.7071396 -0.001878236
vn 0.2521226 -0.4624316 0.8500537
vn 0.2517128 -0.4623415 -0.850224
vn 0.2521226 0.4624316 0.8500537
vn 0.2517128 0.4623415 -0.850224
vn -0.2522056 0.4624173 0.8500368
vn -0.25292 0.4625513 -0.8497515
vn -0.2522057 -0.4624175 0.8500367
vn -0.252921 -0.4625438 -0.8497553
vn 0.7640529 -0.4944291 0.4144432
vn 0.7637087 -0.4945643 -0.4149159
vn 0.7637087 0.4945643 -0.4149159
vn 0.7640529 0.4944291 0.4144432
vn -0.7641468 0.4944972 0.4141885
vn -0.7644727 0.4941598 -0.4139898
vn -0.7644747 -0.4941554 -0.4139915
vn -0.7641454 -0.4945006 0.4141871
vn -0.573209 0.7715374 -0.2759739
vn -0.3964573 0.7718327 -0.4970875
vn -0.1414684 0.7717236 -0.6200238
vn 0.1415184 0.7717358 -0.619997
vn 0.39647 0.7717983 -0.4971308
vn 0.5731481 0.7715944 -0.2759407
vn 0.6360797 0.7716233 -0.0001216683
vn 0.5725537 0.7721324 0.2756699
vn 0.3961584 0.7720704 0.4969567
vn 0.1414977 0.7717404 0.6199962
vn -0.1414941 0.7716758 0.6200774
vn -0.3964508 0.7718104 0.4971272
vn -0.5731779 0.771562 0.2759695
vn -0.6365316 0.7712507 2.45488E-06
vn -0.1906797 0.5837919 0.7891947
vn 0.2963629 0.9096468 0.2910529
vn 0.1906151 0.5836012 0.7893513
vn -0.2963156 0.90971 0.2909034
vn -0.6652181 -0.6493047 0.3686303
vn 0.6478859 -0.6273393 -0.4320756
vn -0.6478528 -0.6273363 -0.4321295
vn 0.6654969 -0.6493055 0.3681252
vn 0.3872976 0.2789306 0.8787481
vn 0.7787913 0.5634085 0.2757807
vn 0.6654969 -0.6493055 0.3681252
vn 0.4966019 0.07847308 0.8644238
vn 0.9554775 0.1512025 0.2533785
vn 0.3699661 -0.3507257 0.8603002
vn -0.9553221 0.1512696 0.2539237
vn -0.3695268 -0.3505814 0.8605478
vn -0.6652181 -0.6493047 0.3686303
vn -0.4962023 0.07838684 0.8646611
vn -0.7786522 0.5635929 0.2757964
vn -0.3872951 0.2789947 0.8787289
vn -0.4517145 0.07135796 -0.8893043
vn -0.7654888 0.5531986 -0.3286309
vn -0.9409456 0.1489418 -0.3040357
vn -0.3503443 0.2514247 -0.9022442
vn 0.940958 0.1488646 -0.3040351
vn 0.3309729 -0.3077138 -0.8920589
vn 0.6478859 -0.6273393 -0.4320756
vn 0.4517198 0.07137944 -0.8892999
vn -0.6478528 -0.6273363 -0.4321295
vn -0.3309239 -0.3076999 -0.892082
vn -0.2909755 0.8924345 -0.3448097
vn -0.1719054 0.5250178 -0.8335495
vn 0.7655061 0.5530685 -0.3288093
vn 0.3502422 0.2513462 -0.9023057
vn 0.2909707 0.8923869 -0.3449371
vn 0.1718509 0.5248884 -0.8336423
vn 0.2521226 -0.4624316 0.8500537
vn 0.7637087 -0.4945643 -0.4149159
vn 0.2517128 -0.4623415 -0.850224
vn 0.7640529 -0.4944291 0.4144432
vn 0.7637087 0.4945643 -0.4149159
vn 0.2517128 0.4623415 -0.850224
vn 0.7640529 0.4944291 0.4144432
vn 0.2521226 0.4624316 0.8500537
vn -0.2522056 0.4624173 0.8500368
vn -0.7644727 0.4941598 -0.4139898
vn -0.25292 0.4625513 -0.8497515
vn -0.7641468 0.4944972 0.4141885
vn -0.7644747 -0.4941554 -0.4139915
vn -0.252921 -0.4625438 -0.8497553
vn -0.7641454 -0.4945006 0.4141871
vn -0.2522057 -0.4624175 0.8500367
g E4_colourPaletteOutline_geo_0
f 5/5/5 3/3/3 4/4/4
f 2/2/2 3/3/3 5/5/5
f 6/6/6 2/2/2 5/5/5
f 1/1/1 2/2/2 6/6/6
f 7/7/7 1/1/1 6/6/6
f 14/14/14 1/1/1 7/7/7
f 8/8/8 14/14/14 7/7/7
f 13/13/13 14/14/14 8/8/8
f 9/9/9 13/13/13 8/8/8
f 12/12/12 13/13/13 9/9/9
f 10/10/10 12/12/12 9/9/9
f 11/11/11 12/12/12 10/10/10
f 32/32/32 44/44/44 43/43/43
f 38/38/38 44/44/44 32/32/32
f 33/33/33 38/38/38 32/32/32
f 39/39/39 38/38/38 33/33/33
f 34/34/34 39/39/39 33/33/33
f 40/40/40 39/39/39 34/34/34
f 29/29/29 40/40/40 34/34/34
f 35/35/35 40/40/40 29/29/29
f 30/30/30 35/35/35 29/29/29
f 36/36/36 35/35/35 30/30/30
f 31/31/31 36/36/36 30/30/30
f 37/37/37 36/36/36 31/31/31
f 41/41/41 37/37/37 31/31/31
f 42/42/42 37/37/37 41/41/41
f 45/45/45 52/52/52 51/51/51
f 46/46/46 52/52/52 45/45/45
f 48/48/48 46/46/46 45/45/45
f 49/49/49 48/48/48 45/45/45
f 47/47/47 48/48/48 49/49/49
f 50/50/50 47/47/47 49/49/49
f 57/57/57 60/60/60 59/59/59
f 58/58/58 60/60/60 57/57/57
f 53/53/53 58/58/58 57/57/57
f 54/54/54 58/58/58 53/53/53
f 55/55/55 54/54/54 53/53/53
f 56/56/56 54/54/54 55/55/55
f 112/112/112 111/111/111 113/113/113
f 114/114/114 111/111/111 112/112/112
f 87/87/87 85/85/85 86/86/86
f 88/88/88 85/85/85 87/87/87
f 91/91/91 89/89/89 90/90/90
f 92/92/92 89/89/89 91/91/91
f 82/82/82 78/78/78 84/84/84
f 80/80/80 78/78/78 82/82/82
f 79/79/79 83/83/83 77/77/77
f 81/81/81 83/83/83 79/79/79
f 94/94/94 16/16/16 93/93/93
f 17/17/17 16/16/16 94/94/94
f 95/95/95 17/17/17 94/94/94
f 18/18/18 17/17/17 95/95/95
f 96/96/96 18/18/18 95/95/95
f 19/19/19 18/18/18 96/96/96
f 97/97/97 19/19/19 96/96/96
f 20/20/20 19/19/19 97/97/97
f 98/98/98 20/20/20 97/97/97
f 21/21/21 20/20/20 98/98/98
f 99/99/99 21/21/21 98/98/98
f 22/22/22 21/21/21 99/99/99
f 100/100/100 22/22/22 99/99/99
f 23/23/23 22/22/22 100/100/100
f 101/101/101 23/23/23 100/100/100
f 24/24/24 23/23/23 101/101/101
f 102/102/102 24/24/24 101/101/101
f 25/25/25 24/24/24 102/102/102
f 103/103/103 25/25/25 102/102/102
f 26/26/26 25/25/25 103/103/103
f 104/104/104 26/26/26 103/103/103
f 27/27/27 26/26/26 104/104/104
f 105/105/105 27/27/27 104/104/104
f 28/28/28 27/27/27 105/105/105
f 106/106/106 28/28/28 105/105/105
f 15/15/15 28/28/28 106/106/106
f 93/93/93 15/15/15 106/106/106
f 16/16/16 15/15/15 93/93/93
f 108/108/108 109/109/109 115/115/115
f 107/107/107 109/109/109 108/108/108
f 110/110/110 107/107/107 108/108/108
f 126/126/126 107/107/107 110/110/110
f 125/125/125 126/126/126 110/110/110
f 124/124/124 126/126/126 125/125/125
f 121/121/121 124/124/124 125/125/125
f 122/122/122 124/124/124 121/121/121
f 123/123/123 122/122/122 121/121/121
f 120/120/120 122/122/122 123/123/123
f 117/117/117 120/120/120 123/123/123
f 118/118/118 120/120/120 117/117/117
f 119/119/119 118/118/118 117/117/117
f 116/116/116 118/118/118 119/119/119
f 115/115/115 116/116/116 108/108/108
f 118/118/118 116/116/116 115/115/115
f 127/127/127 135/135/135 129/129/129
f 128/128/128 127/127/127 129/129/129
f 130/130/130 127/127/127 128/128/128
f 137/137/137 130/130/130 128/128/128
f 138/138/138 130/130/130 137/137/137
f 141/141/141 138/138/138 137/137/137
f 142/142/142 138/138/138 141/141/141
f 140/140/140 142/142/142 141/141/141
f 132/132/132 133/133/133 135/135/135
f 131/131/131 133/133/133 132/132/132
f 134/134/134 131/131/131 132/132/132
f 139/139/139 131/131/131 134/134/134
f 140/140/140 139/139/139 134/134/134
f 141/141/141 139/139/139 140/140/140
f 136/136/136 135/135/135 127/127/127
f 132/132/132 135/135/135 136/136/136
f 67/67/67 75/75/75 76/76/76
f 74/74/74 75/75/75 67/67/67
f 66/66/66 74/74/74 67/67/67
f 73/73/73 74/74/74 66/66/66
f 65/65/65 73/73/73 66/66/66
f 72/72/72 73/73/73 65/65/65
f 64/64/64 72/72/72 65/65/65
f 71/71/71 72/72/72 64/64/64
f 63/63/63 71/71/71 64/64/64
f 70/70/70 71/71/71 63/63/63
f 62/62/62 70/70/70 63/63/63
f 69/69/69 70/70/70 62/62/62
f 61/61/61 69/69/69 62/62/62
f 76/76/76 69/69/69 61/61/61
f 68/68/68 76/76/76 61/61/61
f 67/67/67 76/76/76 68/68/68
f 146/146/146 143/143/143 144/144/144
f 150/150/150 143/143/143 146/146/146
f 149/149/149 150/150/150 146/146/146
f 148/148/148 150/150/150 149/149/149
f 147/147/147 148/148/148 149/149/149
f 145/145/145 148/148/148 147/147/147
f 144/144/144 145/145/145 147/147/147
f 143/143/143 145/145/145 144/144/144
f 154/154/154 151/151/151 152/152/152
f 158/158/158 151/151/151 154/154/154
f 157/157/157 158/158/158 154/154/154
f 156/156/156 158/158/158 157/157/157
f 155/155/155 156/156/156 157/157/157
f 153/153/153 156/156/156 155/155/155
f 152/152/152 153/153/153 155/155/155
f 151/151/151 153/153/153 152/152/152
