g E4_collisionGround_grass_geo
v -259.1438 -2.206976E-07 76.73824
v -246.6985 2.003757E-14 64.292
v -238.5646 -2.6884E-15 69.95095
v -229.7584 -8.184335E-14 74.03844
v -220.5001 -8.583081E-08 76.55818
v -220.5001 1.782904 145.0001
v -220.5001 1.782904 111.0726
v -220.5001 1.618634 107.1207
v -220.5001 8.050793E-07 99.65515
v -220.5001 1.781651 103.2087
v -211.9834 1.782902 171.3788
v -244.8413 -1.715091E-07 100.2898
v -244.6429 1.898065 117.8118
v -241.426 1.782904 144.6429
v -244.2476 1.840945 108.8727
v -244.0874 1.781651 103.2641
v -270.1082 -0.07010236 73.40838
v -251.1563 4.320219 119.227
v -247.4055 7.660648 145.1044
v -218.2722 6.250755 172.9101
v -258.0418 1.782904 121.1343
v -254.1517 1.782903 148.2556
v -223.6686 1.782903 176.0612
v -248.376 4.748577 111.4731
v -251.0072 2.893368 102.2607
v -249.1639 4.103868 106.296
v -255.3677 1.618633 112.9525
v -258.1501 1.281308E-06 105.0834
v -256.0681 0.9739254 109.2571
v -279.9893 5.611678 73.71612
v -290.0589 -3.373191E-07 75.0582
v -199.5175 1.782902 193.6877
v -206.1901 4.320216 193.6877
v -212.9156 1.782902 193.6877
v -259.329 -1.338731E-07 63.87452
v -277.6125 -6.283988E-07 63.87452
v -285.9872 3.838052 63.87452
v -294.2207 -5.035945E-07 63.87451
v -247.0473 3.735243E-14 63.87452
v -262.1795 -5.199662E-07 79.64403
v -265.8843 5.831768 83.69062
v -270.3877 5.045242E-07 88.13825
v -264.7055 1.782903 152.5504
v -240.0834 1.782903 178.0822
v -233.0004 1.782902 194.0827
v -259.3808 5.628647 149.9901
v -229.783 6.207635 176.0612
v -216.5201 6.586895 193.9933
v -265.3588 1.618633 115.917
v -268.0328 1.782904 124.0988
v -268.1411 1.281308E-06 108.0478
v -266.0591 0.9739254 112.2215
v -280.3788 5.045242E-07 91.1027
v -275.3833 3.755729 89.62048
v -263.1456 4.331613 106.5656
v -261.0636 5.707856 110.7393
v -260.3632 6.352564 114.4347
v -263.0373 5.538633 122.6166
v -304.0539 -5.035945E-07 63.87451
v -299.8921 -3.373191E-07 75.0582
v -290.212 5.045242E-07 91.1027
v -285.2954 3.200493 91.1027
v -294.9755 5.555273 75.0582
v -299.1373 5.56518 63.87451
v -269.7349 0.2658527 63.87452
v -269.7641 1.232488 63.50327
v -272.3665 -0.0490067 70.5393
v -277.6125 1.685912 63.87452
v -269.2203 0.2426222 63.87452
v -191.2699 2.346341 112.7149
v -191.2699 2.709612 112.4368
v -217.9395 2.709612 112.68
v -217.8004 2.346341 112.8191
v -217.7174 1.758556 112.9233
v -191.2699 1.758556 112.9232
v -218.7833 2.346339 111.815
v -218.4828 1.758556 111.649
v -218.8309 1.758555 111.7576
v -191.2699 2.709612 112.0931
v -191.2699 2.346341 111.815
v -218.5052 2.70961 112.0931
v -190.9088 2.291403 112.5758
v -191.2699 1.758557 111.649
v -190.9162 2.299935 111.954
v -190.6472 1.758557 112.5758
v -190.6472 1.758558 111.954
v -218.7833 2.346339 143.2016
v -218.5052 2.709611 142.9235
v -218.9913 1.758553 142.88
v -218.8556 1.758555 143.2945
v -217.8004 2.346341 142.3018
v -217.7174 1.758556 142.1358
v -217.9395 2.709612 142.5798
v -191.3634 2.346341 143.2016
v -191.3634 2.709612 142.9235
v -218.4108 1.758556 143.41
v -191.3634 1.758556 143.4099
v -191.3634 2.346342 142.3017
v -191.3634 1.758556 142.1357
v -191.3634 2.709612 142.5798
v -191.0024 2.2914 143.0625
v -191.0098 2.299932 142.4407
v -190.7408 1.758552 143.0625
v -190.7408 1.758551 142.4408
v -218.9662 1.758553 112.1087
v -210.3541 0.9510588 86.29824
v -210.6322 0.5877897 86.29824
v -210.5115 0.5292402 86.65928
v -210.7982 2.28E-06 86.29824
v -209.524 4E-07 86.29824
v -209.6281 0.5877871 86.29822
v -209.7487 0.52924 86.65193
v -209.7672 0.9510587 86.29824
v -210.4507 2.8E-07 86.92094
v -209.829 2.65E-06 86.92091
v -209.7323 0.5877898 78.15076
v -210.0104 0.9510624 78.15076
v -209.524 -5.999999E-07 78.15076
v -210.3541 0.9510562 78.15076
v -210.6322 0.5877855 78.15076
v -209.8713 0.5328495 77.78973
v -210.7982 3.75E-06 78.15076
v -210.4931 0.5413778 77.79707
v -209.8713 7E-08 77.52808
v -210.4931 3.44E-06 77.52808
v -277.6125 1.685912 63.87452
v -277.6125 -6.283988E-07 63.87452
v -272.3665 -0.0490067 70.5393
v -269.7641 1.232488 63.50327
v -269.7349 0.2658527 63.87452
v -270.1082 -0.07010236 73.40838
vt 0 1
vt 0 1
vt 0 1
vt 0 1
vt 0 1
vt 0 1
vt 0 1
vt 0 1
vt 0 1
vt 0 1
vt 0 1
vt 0 1
vt 0 1
vt 0 1
vt 0 1
vt 0 1
vt 0 1
vt 0 1
vt 0 1
vt 0 1
vt 0 1
vt 0 1
vt 0 1
vt 0 1
vt 0 1
vt 0 1
vt 0 1
vt 0 1
vt 0 1
vt 0 1
vt 0 1
vt 0 1
vt 0 1
vt 0 1
vt 0 1
vt 0 1
vt 0 1
vt 0 1
vt 0 1
vt 0 1
vt 0 1
vt 0 1
vt 0 1
vt 0 1
vt 0 1
vt 0 1
vt 0 1
vt 0 1
vt 0 1
vt 0 1
vt 0 1
vt 0 1
vt 0 1
vt 0 1
vt 0 1
vt 0 1
vt 0 1
vt 0 1
vt 0 1
vt 0 1
vt 0 1
vt 0 1
vt 0 1
vt 0 1
vt 0 1
vt 0 1
vt 0 1
vt 0 1
vt 0 1
vt 0 1
vt 0 1
vt 0 1
vt 0 1
vt 0 1
vt 0 1
vt 0 1
vt 0 1
vt 0 1
vt 0 1
vt 0 1
vt 0 1
vt 0 1
vt 0 1
vt 0 1
vt 0 1
vt 0 1
vt 0 1
vt 0 1
vt 0 1
vt 0 1
vt 0 1
vt 0 1
vt 0 1
vt 0 1
vt 0 1
vt 0 1
vt 0 1
vt 0 1
vt 0 1
vt 0 1
vt 0 1
vt 0 1
vt 0 1
vt 0 1
vt 0 1
vt 0 1
vt 0 1
vt 0 1
vt 0 1
vt 0 1
vt 0 1
vt 0 1
vt 0 1
vt 0 1
vt 0 1
vt 0 1
vt 0 1
vt 0 1
vt 0 1
vt 0 1
vt 0 1
vt 0 1
vt 0 1
vt 0 1
vt 0 1
vt 0 1
vt 0 1
vt 0 1
vt 0 1
vt 0 1
vt 0 1
vn 0 1 0
vn 0 1 0
vn 0 1 0
vn 0 1 0
vn 0 1 0
vn 0 1 0
vn -0.0009881596 0.9999069 -0.01361161
vn -0.003597908 0.9952154 -0.09763906
vn -0.002083406 0.9921632 -0.124931
vn -0.004428066 0.9788391 -0.2045833
vn 0.2028144 0.9664724 -0.1574725
vn 0.1645186 0.965699 -0.2008957
vn 0.2528251 0.9675099 0.002020365
vn 0.2791476 0.9446352 -0.1724559
vn 0.2060232 0.9769979 -0.05504143
vn 0.169467 0.9542873 -0.2462047
vn 0.2194927 0.9439552 -0.2465187
vn 0.01615659 0.9996856 -0.01917228
vn 0.03257511 0.9982899 -0.04853913
vn 0.03298967 0.9994165 0.008859346
vn -0.4622439 0.8852993 -0.05074999
vn -0.4825183 0.8388785 0.2519108
vn -0.4215848 0.8220427 0.3827688
vn -0.00412769 0.9982033 -0.05977679
vn -0.002067533 0.9932955 -0.1155845
vn -0.04204987 0.9818745 -0.1848088
vn -0.4134632 0.9059639 -0.09098077
vn -0.4125316 0.8955747 0.1666242
vn -0.4178209 0.9069745 -0.05313024
vn 0.00161852 0.9970668 -0.07651938
vn -0.4202544 0.8373125 0.3497055
vn 0.1956401 0.9787457 -0.06149688
vn 0.001319197 0.9998294 0.01842004
vn -0.3840526 0.9107259 0.1519271
vn 0 1 0
vn 0.213668 0.9677109 -0.1337216
vn -0.01326617 0.9979659 -0.06235433
vn -0.4350522 0.8879243 0.1493984
vn 0 1 0
vn 0.242009 0.9400063 -0.2404574
vn 0.0433114 0.9990517 0.004429976
vn -0.3875304 0.7992866 0.4593051
vn -0.2779923 0.9521783 0.1267943
vn -0.3318707 0.9042668 0.2686326
vn -0.3035328 0.9494925 0.07957172
vn 0.01643536 0.9932764 -0.1145954
vn 0.1262716 0.9842121 -0.1240246
vn 0.1733516 0.9831896 -0.05733597
vn -0.6807902 0.7264827 -0.09352776
vn -0.6335876 0.771248 -0.06118203
vn -0.339136 0.9168608 0.2106017
vn -0.669452 0.740594 0.05791781
vn 0.03434773 0.9993806 -0.007658657
vn -0.04569531 0.9948047 -0.09097054
vn -0.04625324 0.9915528 -0.1211762
vn -0.06409303 0.9782164 -0.197446
vn -0.02055793 0.9976888 -0.06476615
vn 0.01163438 0.9962877 0.0852965
vn -0.6878007 0.6856769 0.23828
vn -0.6663719 0.6618157 0.3434362
vn -0.5283809 0.6858791 0.5003834
vn 0.03007657 0.9940392 0.1047923
vn 0.008793844 0.9994137 0.03308841
vn -0.003277889 0.9997888 -0.02028869
vn 0.04507109 0.9983004 0.03694576
vn -0.1482188 0.9811648 0.1238822
vn 0.180439 0.9786563 -0.09835515
vn 0.2485043 0.9670038 0.05611688
vn 0.04507109 0.9983004 0.03694576
vn 0.003813 0.381151 0.924505
vn 0.003269001 0.8656434 0.5006503
vn 0.003269001 0.8656434 0.5006503
vn 0.003813 0.381151 0.924505
vn 0.001901001 0.2570911 0.9663853
vn 0.001901001 0.2570911 0.9663853
vn -0.2956539 0.116591 -0.9481536
vn -0.2956539 0.116591 -0.9481536
vn -0.2956539 0.116591 -0.9481536
vn 0 0.896607 -0.442827
vn 0 0.4477711 -0.8941482
vn 0 0.896607 -0.442827
vn 0.3700022 0.5646532 0.7377433
vn 0.3823912 0.2512031 -0.8891985
vn 0.3823912 0.2512031 -0.8891985
vn 0.4738291 0.232643 0.8493311
vn 0.8965721 0.442892 -0.002256
vn -0.8836601 0.4681291 -0.000194
vn -0.4428158 0.8966126 0
vn -0.9375706 0.1638069 0.3068039
vn -0.9375706 0.1638069 0.3068039
vn 0.9681749 0.250275 9.999999E-07
vn 0.9901724 0.1398519 0
vn 0.5667766 0.8238716 9.999995E-07
vn 2E-06 0.476809 0.8790069
vn 9.999999E-07 0.8966179 0.442805
vn 2.000001E-06 0.3341401 0.9425234
vn 2.000001E-06 0.3341401 0.9425234
vn -2E-06 0.4477771 -0.8941452
vn -2.000001E-06 0.2718011 -0.9623535
vn -1E-06 0.8966061 -0.442829
vn 0.3701001 0.5647121 0.7376491
vn 0.3824658 0.2511459 -0.8891826
vn 0.473886 0.232655 0.849296
vn 0.8965604 0.4429157 -0.002255998
vn -0.9274512 0.11002 -0.3573931
vn -0.7461771 0.571225 0.341938
vn -0.7461771 0.571225 0.341938
vn -0.7461771 0.571225 0.341938
vn -0.9038529 0.25523 0.343377
vn 0.9251038 0.164019 0.3424629
vn 0.9251038 0.164019 0.3424629
vn 0.9251038 0.164019 0.3424629
vn 0.8737812 0.3343101 0.3531901
vn -0.8647729 0.139236 0.482474
vn 0.004758001 0.4480731 0.8939842
vn 0.9246496 0.3806159 -0.01243699
vn 0.5009819 0.8653919 -0.010679
vn 0.9664102 0.2569301 -0.006179001
vn -0.4428338 0.8966037 0
vn -0.8941442 0.4477791 0
vn 0.7377352 0.5646651 -0.3700001
vn -0.8891656 0.2510689 -0.3825558
vn -0.8891656 0.2510689 -0.3825558
vn 0.849333 0.232652 -0.473821
vn -0.002274 0.4428949 -0.8965707
vn 0.785778 0 -0.6185086
vn 0.785778 0 -0.6185086
vn 0.785778 0 -0.6185086
vn 0.9981225 0.04578048 0.04068873
vn 0.9981225 0.04578048 0.04068873
vn 0.9981225 0.04578048 0.04068873
g E4_collisionGround_grass_geo_0
f 127/127/127 126/126/126 128/128/128
f 130/130/130 129/129/129 131/131/131
f 17/17/17 69/69/69 65/65/65
f 35/35/35 69/69/69 17/17/17
f 1/1/1 35/35/35 17/17/17
f 39/39/39 35/35/35 1/1/1
f 2/2/2 39/39/39 1/1/1
f 16/16/16 10/10/10 9/9/9
f 12/12/12 16/16/16 9/9/9
f 25/25/25 16/16/16 12/12/12
f 40/40/40 25/25/25 12/12/12
f 41/41/41 25/25/25 40/40/40
f 17/17/17 41/41/41 40/40/40
f 30/30/30 41/41/41 17/17/17
f 67/67/67 30/30/30 17/17/17
f 37/37/37 30/30/30 67/67/67
f 68/68/68 37/37/37 67/67/67
f 11/11/11 33/33/33 32/32/32
f 20/20/20 33/33/33 11/11/11
f 14/14/14 20/20/20 11/11/11
f 19/19/19 20/20/20 14/14/14
f 18/18/18 19/19/19 14/14/14
f 21/21/21 19/19/19 18/18/18
f 27/27/27 21/21/21 18/18/18
f 57/57/57 21/21/21 27/27/27
f 56/56/56 57/57/57 27/27/27
f 49/49/49 57/57/57 56/56/56
f 52/52/52 49/49/49 56/56/56
f 60/60/60 64/64/64 59/59/59
f 63/63/63 64/64/64 60/60/60
f 61/61/61 63/63/63 60/60/60
f 62/62/62 63/63/63 61/61/61
f 51/51/51 62/62/62 61/61/61
f 53/53/53 62/62/62 51/51/51
f 54/54/54 53/53/53 51/51/51
f 31/31/31 53/53/53 54/54/54
f 42/42/42 31/31/31 54/54/54
f 30/30/30 31/31/31 42/42/42
f 41/41/41 30/30/30 42/42/42
f 67/67/67 66/66/66 36/36/36
f 17/17/17 66/66/66 67/67/67
f 1/1/1 3/3/3 2/2/2
f 4/4/4 3/3/3 1/1/1
f 5/5/5 4/4/4 1/1/1
f 28/28/28 41/41/41 42/42/42
f 25/25/25 41/41/41 28/28/28
f 29/29/29 25/25/25 28/28/28
f 26/26/26 25/25/25 29/29/29
f 24/24/24 26/26/26 29/29/29
f 15/15/15 26/26/26 24/24/24
f 13/13/13 15/15/15 24/24/24
f 7/7/7 15/15/15 13/13/13
f 6/6/6 7/7/7 13/13/13
f 15/15/15 10/10/10 16/16/16
f 8/8/8 10/10/10 15/15/15
f 7/7/7 8/8/8 15/15/15
f 55/55/55 51/51/51 52/52/52
f 56/56/56 55/55/55 52/52/52
f 29/29/29 55/55/55 56/56/56
f 27/27/27 29/29/29 56/56/56
f 24/24/24 29/29/29 27/27/27
f 18/18/18 24/24/24 27/27/27
f 13/13/13 24/24/24 18/18/18
f 14/14/14 13/13/13 18/18/18
f 6/6/6 13/13/13 14/14/14
f 11/11/11 6/6/6 14/14/14
f 31/31/31 30/30/30 37/37/37
f 38/38/38 31/31/31 37/37/37
f 63/63/63 31/31/31 38/38/38
f 64/64/64 63/63/63 38/38/38
f 46/46/46 43/43/43 44/44/44
f 21/21/21 43/43/43 46/46/46
f 22/22/22 21/21/21 46/46/46
f 19/19/19 21/21/21 22/22/22
f 23/23/23 19/19/19 22/22/22
f 20/20/20 19/19/19 23/23/23
f 34/34/34 20/20/20 23/23/23
f 33/33/33 20/20/20 34/34/34
f 47/47/47 22/22/22 46/46/46
f 23/23/23 22/22/22 47/47/47
f 48/48/48 23/23/23 47/47/47
f 34/34/34 23/23/23 48/48/48
f 47/47/47 45/45/45 48/48/48
f 44/44/44 45/45/45 47/47/47
f 46/46/46 44/44/44 47/47/47
f 58/58/58 43/43/43 21/21/21
f 50/50/50 43/43/43 58/58/58
f 49/49/49 50/50/50 58/58/58
f 1/1/1 9/9/9 5/5/5
f 12/12/12 9/9/9 1/1/1
f 40/40/40 12/12/12 1/1/1
f 87/87/87 89/89/89 90/90/90
f 76/76/76 89/89/89 87/87/87
f 81/81/81 76/76/76 87/87/87
f 79/79/79 76/76/76 81/81/81
f 71/71/71 79/79/79 81/81/81
f 82/82/82 79/79/79 71/71/71
f 70/70/70 82/82/82 71/71/71
f 75/75/75 82/82/82 70/70/70
f 73/73/73 75/75/75 70/70/70
f 74/74/74 75/75/75 73/73/73
f 91/91/91 74/74/74 73/73/73
f 92/92/92 74/74/74 91/91/91
f 98/98/98 92/92/92 91/91/91
f 99/99/99 92/92/92 98/98/98
f 102/102/102 99/99/99 98/98/98
f 104/104/104 99/99/99 102/102/102
f 103/103/103 104/104/104 102/102/102
f 76/76/76 78/78/78 105/105/105
f 77/77/77 78/78/78 76/76/76
f 80/80/80 77/77/77 76/76/76
f 83/83/83 77/77/77 80/80/80
f 84/84/84 83/83/83 80/80/80
f 86/86/86 83/83/83 84/84/84
f 85/85/85 86/86/86 84/84/84
f 79/79/79 80/80/80 76/76/76
f 84/84/84 80/80/80 79/79/79
f 82/82/82 84/84/84 79/79/79
f 85/85/85 84/84/84 82/82/82
f 75/75/75 85/85/85 82/82/82
f 93/93/93 91/91/91 73/73/73
f 100/100/100 91/91/91 93/93/93
f 95/95/95 100/100/100 93/93/93
f 101/101/101 100/100/100 95/95/95
f 94/94/94 101/101/101 95/95/95
f 97/97/97 101/101/101 94/94/94
f 87/87/87 97/97/97 94/94/94
f 96/96/96 97/97/97 87/87/87
f 90/90/90 96/96/96 87/87/87
f 100/100/100 98/98/98 91/91/91
f 102/102/102 98/98/98 100/100/100
f 101/101/101 102/102/102 100/100/100
f 103/103/103 102/102/102 101/101/101
f 97/97/97 103/103/103 101/101/101
f 89/89/89 76/76/76 105/105/105
f 108/108/108 109/109/109 114/114/114
f 107/107/107 109/109/109 108/108/108
f 106/106/106 107/107/107 108/108/108
f 119/119/119 107/107/107 106/106/106
f 117/117/117 119/119/119 106/106/106
f 121/121/121 119/119/119 117/117/117
f 116/116/116 121/121/121 117/117/117
f 118/118/118 121/121/121 116/116/116
f 111/111/111 118/118/118 116/116/116
f 110/110/110 118/118/118 111/111/111
f 112/112/112 110/110/110 111/111/111
f 115/115/115 110/110/110 112/112/112
f 114/114/114 115/115/115 112/112/112
f 120/120/120 109/109/109 107/107/107
f 119/119/119 120/120/120 107/107/107
f 123/123/123 120/120/120 119/119/119
f 121/121/121 123/123/123 119/119/119
f 124/124/124 123/123/123 121/121/121
f 118/118/118 124/124/124 121/121/121
f 122/122/122 109/109/109 120/120/120
f 123/123/123 122/122/122 120/120/120
f 125/125/125 122/122/122 123/123/123
f 124/124/124 125/125/125 123/123/123
f 26/26/26 16/16/16 25/25/25
f 15/15/15 16/16/16 26/26/26
f 17/17/17 40/40/40 1/1/1
f 58/58/58 57/57/57 49/49/49
f 21/21/21 57/57/57 58/58/58
f 55/55/55 42/42/42 54/54/54
f 28/28/28 42/42/42 55/55/55
f 29/29/29 28/28/28 55/55/55
f 51/51/51 55/55/55 54/54/54
f 62/62/62 31/31/31 63/63/63
f 53/53/53 31/31/31 62/62/62
f 88/88/88 87/87/87 94/94/94
f 81/81/81 87/87/87 88/88/88
f 72/72/72 81/81/81 88/88/88
f 71/71/71 81/81/81 72/72/72
f 70/70/70 71/71/71 72/72/72
f 72/72/72 73/73/73 70/70/70
f 93/93/93 73/73/73 72/72/72
f 88/88/88 93/93/93 72/72/72
f 95/95/95 93/93/93 88/88/88
f 94/94/94 95/95/95 88/88/88
f 113/113/113 111/111/111 116/116/116
f 112/112/112 111/111/111 113/113/113
f 108/108/108 112/112/112 113/113/113
f 114/114/114 112/112/112 108/108/108
f 113/113/113 106/106/106 108/108/108
f 117/117/117 106/106/106 113/113/113
f 116/116/116 117/117/117 113/113/113
