g E4_collision_geo
v -205.1782 6.561333 118.467
v -204.4412 6.561333 114.9117
v -202.3882 10.4893 114.3029
v -203.5364 10.48931 119.8416
v -206.8861 7.908919 112.5598
v -206.4878 10.39179 110.5795
v -210.2411 7.789697 113.7181
v -211.7034 10.33962 112.3869
v -210.9745 7.789691 117.2566
v -212.8458 10.33961 117.8971
v -208.3567 7.908909 119.6532
v -208.7783 10.3918 121.6288
v -204.2609 12.88954 114.958
v -204.9944 12.88954 118.4964
v -206.8842 12.88848 112.569
v -210.2411 12.88954 113.7181
v -210.9746 12.88954 117.2566
v -208.3513 12.88848 119.6456
v -207.5943 6.749321 116.1121
v -207.6177 14.10954 116.1073
v -257.4256 3.836632 72.1761
v -255.3811 7.98074 70.63884
v -253.7235 7.981529 77.04725
v -256.3615 3.842196 76.28883
v -258.8176 7.879326 81.22061
v -259.3954 5.258389 78.92778
v -265.5322 7.825591 78.9948
v -263.7144 5.132915 77.50018
v -267.1832 7.825602 72.61514
v -264.7742 5.13762 73.40582
v -262.1261 7.878548 68.43255
v -261.5197 5.257529 70.7207
v -257.1964 10.51828 72.14715
v -256.1363 10.51357 76.24149
v -259.3957 10.51809 78.91795
v -263.7144 10.51827 77.50015
v -264.7742 10.51357 73.40584
v -261.5158 10.5181 70.7293
v -260.4248 4.041506 74.81844
v -260.4553 11.8011 74.82363
v -226.8024 1.887682 92.2195
v -223.6144 2.026414 92.41989
v -222.7229 5.431438 93.98528
v -227.9227 5.34091 93.65379
v -223.3031 3.015599 88.02984
v -226.4757 2.886992 87.77103
v -227.386 5.173825 86.353
v -222.2193 5.262295 86.76241
v -223.6204 7.503651 92.55716
v -226.8195 7.469245 92.35677
v -226.4794 7.47109 87.77213
v -223.3038 7.503656 88.02934
v -225.0388 1.913593 90.19297
v -226.4965 8.642684 90.0811
v -221.1667 2.570318 92.23991
v -221.0046 5.24417 93.40047
v -220.9139 3.451694 88.56673
v -220.6096 5.12175 87.55772
v -218.4032 5.187037 90.63672
v -219.4408 3.490694 90.57014
v -221.1787 6.765566 92.35885
v -220.9135 6.765569 88.56639
v -219.4473 6.844378 90.57433
v -229.553 3.730063 91.46523
v -229.7495 5.701347 92.48875
v -231.7471 5.535737 89.8083
v -230.9187 4.34677 89.83785
v -229.5293 5.58868 87.32597
v -229.4221 4.42864 88.23165
v -229.5551 6.820778 91.57085
v -230.9063 6.853481 89.84139
v -229.423 6.822533 88.23296
v -222.8465 8.650662 90.31977
v -218.3184 4.665363 100.7179
v -214.1104 4.664975 100.6409
v -212.9067 8.989936 103.0167
v -219.4635 8.98998 103.1366
v -212.0603 6.145927 96.95369
v -209.7173 8.882886 96.89555
v -214.2116 6.018403 93.11465
v -213.0693 8.826779 90.92979
v -218.4006 6.018072 93.19137
v -219.5958 8.826773 91.04917
v -220.4574 6.145984 97.1073
v -222.8008 8.882926 97.13487
v -214.117 11.63549 100.8746
v -218.3059 11.63514 100.9513
v -212.0698 11.6386 96.95633
v -214.2116 11.63514 93.11468
v -218.4006 11.63548 93.19138
v -220.4477 11.63859 97.10965
v -216.2582 4.874822 97.06415
v -216.2587 12.97855 97.03296
v -206.0381 0 84.87999
v -203.8398 0 84.8101
v -206.038 1.036324 84.8578
v -203.8397 1.036324 84.78791
v -206.1867 1.036324 79.76379
v -203.9884 1.036324 79.6939
v -206.1863 0 79.68939
v -203.988 0 79.61949
v -206.0692 1.036324 83.81432
v -203.8709 1.036324 83.74442
v -205.7409 1.600686 83.51106
v -204.2134 1.600686 83.4625
v -205.7924 1.600686 81.79482
v -204.2649 1.600686 81.74626
v -206.1426 1.036324 81.18451
v -203.9443 1.036324 81.11461
v -194.7354 -3.814697E-08 77.0836
v -195.0524 -3.814697E-08 77.0836
v -194.7354 1.298122 77.0836
v -195.0524 1.298122 77.0836
v -194.7354 1.298122 77.72374
v -195.0524 1.298122 77.72372
v -194.7354 -3.814697E-08 77.72374
v -195.0524 -3.814697E-08 77.72374
v -208.8649 -0.1288873 131.3708
v -211.4554 -0.1288873 132.2126
v -211.4554 -0.1288873 134.9364
v -208.8649 -0.1288873 135.7781
v -207.2639 -0.1288873 133.5745
v -208.8649 19.87111 131.3708
v -211.4554 19.87111 132.2126
v -211.4554 19.87111 134.9364
v -208.8649 19.87111 135.7781
v -207.2639 19.87111 133.5745
v -210.5343 1.805002 127.963
v -210.5343 1.805002 124.2389
v -210.5343 3.917337 127.963
v -210.5343 3.917337 124.2389
v -215.6927 3.917337 127.963
v -215.6927 3.917337 124.2389
v -215.6927 1.805002 127.963
v -215.6927 1.805002 124.2389
v -210.5343 5.774298 126.1009
v -215.6927 5.774298 126.1009
v -215.6927 1.805002 126.1009
v -210.5343 1.805002 126.1009
v -233.3309 0 76.81651
v -233.8894 6.922483E-06 76.81773
v -233.4641 0.2817945 77.00435
v -233.7524 0.2852066 76.97673
v -233.8334 0.2851994 77.19825
v -233.4563 0.2695638 77.3124
v -233.768 0.2852006 77.34254
v -233.3009 6.097555E-06 77.44359
v -233.9578 -1.95384E-06 77.5386
v -234.0403 -3.736019E-06 77.20901
v -232.126 0 81.3344
v -232.6845 6.922483E-06 81.33562
v -232.2593 0.2817945 81.52224
v -232.5476 0.2852066 81.49461
v -232.6285 0.2851994 81.71614
v -232.2515 0.2695638 81.83029
v -232.5631 0.2852006 81.86043
v -232.096 6.097555E-06 81.96148
v -232.7529 -1.95384E-06 82.05648
v -232.8355 -3.736019E-06 81.7269
v -229.6658 0 75.7585
v -230.2243 6.922483E-06 75.7597
v -229.7991 0.2817945 75.94633
v -230.0874 0.2852066 75.91871
v -230.1683 0.2851994 76.14023
v -229.7913 0.2695638 76.25437
v -230.1029 0.2852006 76.28452
v -229.6358 6.097555E-06 76.38557
v -230.2927 -1.95384E-06 76.48058
v -230.3753 -3.736019E-06 76.15099
vt 0 1
vt 0 1
vt 0 1
vt 0 1
vt 0 1
vt 0 1
vt 0 1
vt 0 1
vt 0 1
vt 0 1
vt 0 1
vt 0 1
vt 0 1
vt 0 1
vt 0 1
vt 0 1
vt 0 1
vt 0 1
vt 0 1
vt 0 1
vt 0 1
vt 0 1
vt 0 1
vt 0 1
vt 0 1
vt 0 1
vt 0 1
vt 0 1
vt 0 1
vt 0 1
vt 0 1
vt 0 1
vt 0 1
vt 0 1
vt 0 1
vt 0 1
vt 0 1
vt 0 1
vt 0 1
vt 0 1
vt 0 1
vt 0 1
vt 0 1
vt 0 1
vt 0 1
vt 0 1
vt 0 1
vt 0 1
vt 0 1
vt 0 1
vt 0 1
vt 0 1
vt 0 1
vt 0 1
vt 0 1
vt 0 1
vt 0 1
vt 0 1
vt 0 1
vt 0 1
vt 0 1
vt 0 1
vt 0 1
vt 0 1
vt 0 1
vt 0 1
vt 0 1
vt 0 1
vt 0 1
vt 0 1
vt 0 1
vt 0 1
vt 0 1
vt 0 1
vt 0 1
vt 0 1
vt 0 1
vt 0 1
vt 0 1
vt 0 1
vt 0 1
vt 0 1
vt 0 1
vt 0 1
vt 0 1
vt 0 1
vt 0 1
vt 0 1
vt 0 1
vt 0 1
vt 0 1
vt 0 1
vt 0 1
vt 0 1
vt 0 1
vt 0 1
vt 0 1
vt 0 1
vt 0 1
vt 0 1
vt 0 1
vt 0 1
vt 0 1
vt 0 1
vt 0 1
vt 0 1
vt 0 1
vt 0 1
vt 0 1
vt 0 1
vt 0 1
vt 0 1
vt 0 1
vt 0 1
vt 0 1
vt 0 1
vt 0 1
vt 0 1
vt 0 1
vt 0 1
vt 0 1
vt 0 1
vt 0 1
vt 0 1
vt 0 1
vt 0 1
vt 0 1
vt 0 1
vt 0 1
vt 0 1
vt 0 1
vt 0 1
vt 0 1
vt 0 1
vt 0 1
vt 0 1
vt 0 1
vt 0 1
vt 0 1
vt 0 1
vt 0 1
vt 0 1
vt 0 1
vt 0 1
vt 0 1
vt 0 1
vt 0 1
vt 0 1
vt 0 1
vt 0 1
vt 0 1
vt 0 1
vt 0 1
vt 0 1
vt 0 1
vt 0 1
vt 0 1
vt 0 1
vt 0 1
vt 0 1
vt 0 1
vt 0 1
vt 0 1
vt 0 1
vt 0 1
vt 0 1
vt 0 1
vt 0 1
vt 0 1
vn 0.8826478 -0.4329619 0.182967
vn 0.8826478 -0.4329619 0.182967
vn 0.8826478 -0.4329619 0.182967
vn 0.8826478 -0.4329619 0.182967
vn 0.5435999 -0.4846269 -0.6852998
vn 0.5435999 -0.4846269 -0.6852998
vn -0.2588379 -0.5685358 -0.7808776
vn -0.2588379 -0.5685358 -0.7808776
vn -0.8143991 -0.555205 -0.168824
vn -0.8143991 -0.555205 -0.168824
vn -0.547912 -0.568573 0.61361
vn -0.547912 -0.568573 0.61361
vn 0.7989527 0.5781398 0.1656169
vn 0.7989527 0.5781398 0.1656169
vn 0.5434791 0.5796961 -0.6071101
vn -0.2712701 0.5684021 -0.7767442
vn -0.8144053 0.5551962 -0.1688231
vn -0.557685 0.568433 0.604873
vn -0.06458901 -0.9978222 -0.013388
vn 0.3632799 0.9286319 0.07530199
vn 0.840861 -0.495751 -0.217218
vn 0.840861 -0.495751 -0.217218
vn 0.840861 -0.495751 -0.217218
vn 0.840861 -0.495751 -0.217218
vn 0.4870819 -0.5411099 0.6855299
vn 0.4870819 -0.5411099 0.6855299
vn -0.242668 -0.5999979 0.7623088
vn -0.242668 -0.5999979 0.7623088
vn -0.7585018 -0.6214879 0.19603
vn -0.7585018 -0.6214879 0.19603
vn -0.487672 -0.628429 -0.606014
vn -0.487672 -0.628429 -0.606014
vn 0.740553 0.6441669 -0.19139
vn 0.740553 0.6441669 -0.19139
vn 0.4831608 0.6391698 0.5983458
vn -0.2535831 0.5996051 0.7590581
vn -0.7585016 0.6214867 0.1960349
vn -0.4975361 0.6284652 -0.5979041
vn -0.05457101 -0.9983901 0.015469
vn 0.3084619 0.9479688 -0.07878099
vn -0.7845376 -0.4015988 0.4724608
vn -0.7845376 -0.4015988 0.4724608
vn -0.7845376 -0.4015988 0.4724608
vn -0.7845376 -0.4015988 0.4724608
vn 0.7555376 -0.5102618 -0.4108478
vn 0.7555376 -0.5102618 -0.4108478
vn 0.7555376 -0.5102618 -0.4108478
vn 0.7555376 -0.5102618 -0.4108478
vn -0.7272043 0.5453432 0.4168631
vn -0.7272043 0.5453432 0.4168631
vn 0.7454444 0.5101303 -0.4290453
vn 0.7454444 0.5101303 -0.4290453
vn 0.003775001 -0.9988363 0.04808202
vn -0.397384 0.8903421 0.222209
vn -0.619382 -0.429469 0.657208
vn -0.619382 -0.429469 0.657208
vn 0.841751 -0.437914 0.315732
vn 0.841751 -0.437914 0.315732
vn 0.841751 -0.437914 0.315732
vn 0.841751 -0.437914 0.315732
vn -0.4699221 0.5988992 0.6484542
vn 0.8434532 0.4463412 0.2989421
vn 0.8434532 0.4463412 0.2989421
vn -0.857115 -0.408177 -0.314238
vn -0.857115 -0.408177 -0.314238
vn -0.857115 -0.408177 -0.314238
vn -0.857115 -0.408177 -0.314238
vn 0.136952 -0.4904831 -0.8606222
vn 0.136952 -0.4904831 -0.8606222
vn -0.8231032 0.4868551 -0.2923581
vn -0.8231032 0.4868551 -0.2923581
vn 0.12363 0.4630281 -0.8776792
vn -0.285854 0.9550998 -0.07792298
vn 0.015975 -0.4848219 0.8744669
vn 0.015975 -0.4848219 0.8744669
vn 0.015975 -0.4848219 0.8744669
vn 0.015975 -0.4848219 0.8744669
vn 0.7865883 -0.5095191 0.3488111
vn 0.7865883 -0.5095191 0.3488111
vn 0.7038687 -0.5976688 -0.3838759
vn 0.7038687 -0.5976688 -0.3838759
vn -0.01447499 -0.6102867 -0.7920485
vn -0.01447499 -0.6102867 -0.7920485
vn -0.7152892 -0.5957223 -0.3653441
vn -0.7152892 -0.5957223 -0.3653441
vn 0.01414101 0.6331373 0.7739103
vn 0.01414101 0.6331373 0.7739103
vn 0.707516 0.6064839 0.362765
vn 0.6979451 0.597636 -0.3945931
vn -0.014476 0.6102883 -0.7920473
vn -0.7097247 0.5956647 -0.3761308
vn -0.001151 -0.9983229 -0.05787999
vn 0.005908997 0.9449797 0.3270759
vn -0.5631859 -0.5699875 0.5982774
vn 0.5993254 -0.5681636 0.5639141
vn -0.5555264 0.5857681 0.5901407
vn 0.5905092 0.5853089 0.5556189
vn -0.581332 0.6035364 -0.5457077
vn 0.5462827 0.6052945 -0.5789593
vn -0.6093425 -0.5491045 -0.5720018
vn 0.5733874 -0.5494956 -0.6076853
vn -0.673562 -0.02388743 0.7387446
vn 0.7166461 -0.02231834 0.6970798
vn -0.3576274 0.8474984 0.392236
vn 0.3808964 0.8471422 0.370497
vn -0.3521801 0.8994449 -0.2587818
vn 0.3346672 0.9002339 -0.2785259
vn -0.7855257 0.2231255 -0.577204
vn 0.7488312 0.2255166 -0.6232128
vn 0.5773503 -0.5773503 -0.5773503
vn -0.5773474 -0.577356 -0.5773474
vn 0.5773503 0.5773503 -0.5773503
vn -0.5773531 0.5773445 -0.5773531
vn 0.5773371 0.577359 0.5773546
vn -0.5773634 0.5773415 0.5773458
vn 0.57734 -0.5773532 0.5773575
vn -0.5773605 -0.5773473 0.577343
vn 0.2628616 -0.525732 -0.8090177
vn -0.3840442 -0.8801459 -0.2790221
vn -0.6881936 -0.52573 0.4999977
vn 0.1943569 -0.7774386 0.5981762
vn 0.6289601 -0.7774376 -6.725488E-07
vn 0.2628616 0.525732 -0.8090177
vn -0.3840442 0.8801459 -0.2790221
vn -0.6881936 0.52573 0.4999977
vn 0.1943569 0.7774386 0.5981762
vn 0.6289601 0.7774376 -6.719139E-07
vn 0.5773503 -0.5773502 0.5773503
vn 0.5773503 -0.5773503 -0.5773503
vn 0.4760684 0.3370953 0.8122349
vn 0.4760683 0.3370943 -0.8122355
vn -0.4760684 0.3370953 0.8122349
vn -0.4760683 0.3370943 -0.8122355
vn -0.5773503 -0.5773502 0.5773503
vn -0.5773503 -0.5773503 -0.5773503
vn 0.8161217 0.57788 -7.053474E-07
vn -0.8161217 0.57788 -7.053474E-07
vn -0.7071068 -0.7071068 0
vn 0.7071068 -0.7071068 0
vn 0.7189729 -0.009772228 -0.6949694
vn -0.5477515 0.05080733 -0.8350968
vn 0.3996999 0.8406178 -0.3655158
vn -0.2154642 0.9163651 -0.3374169
vn -0.5799068 0.8143688 -0.02261776
vn 0.4355064 0.8265832 0.3565028
vn -0.1801574 0.9261145 0.3314444
vn 0.7706832 -0.02682133 0.6366538
vn -0.5009755 0.08662295 0.8611156
vn -0.9939154 0.1030951 -0.03877746
vn 0.718968 -0.009781386 -0.6949742
vn -0.5477446 0.05079962 -0.835102
vn 0.3996997 0.8406153 -0.3655215
vn -0.2154632 0.9163637 -0.3374216
vn -0.579899 0.8143743 -0.02262019
vn 0.4355024 0.8265878 0.3564971
vn -0.1801536 0.9261174 0.3314382
vn 0.7706857 -0.02680659 0.6366515
vn -0.5009726 0.08664755 0.8611147
vn -0.9939136 0.1031096 -0.0387821
vn 0.7189569 -0.009764311 -0.694986
vn -0.5477378 0.05079171 -0.8351069
vn 0.3996892 0.8406196 -0.3655232
vn -0.215462 0.9163623 -0.337426
vn -0.5798956 0.8143767 -0.02262355
vn 0.4354935 0.8265942 0.3564931
vn -0.1801502 0.9261187 0.3314364
vn 0.7706835 -0.02677811 0.6366553
vn -0.5009681 0.08665115 0.8611171
vn -0.9939126 0.1031163 -0.03878807
g E4_collision_geo_0
f 70/70/70 50/50/50 73/73/73
f 71/71/71 70/70/70 73/73/73
f 65/65/65 70/70/70 71/71/71
f 66/66/66 65/65/65 71/71/71
f 64/64/64 65/65/65 66/66/66
f 67/67/67 64/64/64 66/66/66
f 53/53/53 64/64/64 67/67/67
f 69/69/69 53/53/53 67/67/67
f 46/46/46 53/53/53 69/69/69
f 47/47/47 46/46/46 69/69/69
f 45/45/45 46/46/46 47/47/47
f 48/48/48 45/45/45 47/47/47
f 58/58/58 45/45/45 48/48/48
f 52/52/52 58/58/58 48/48/48
f 62/62/62 58/58/58 52/52/52
f 54/54/54 62/62/62 52/52/52
f 63/63/63 62/62/62 54/54/54
f 61/61/61 63/63/63 54/54/54
f 59/59/59 63/63/63 61/61/61
f 56/56/56 59/59/59 61/61/61
f 60/60/60 59/59/59 56/56/56
f 55/55/55 60/60/60 56/56/56
f 53/53/53 60/60/60 55/55/55
f 42/42/42 53/53/53 55/55/55
f 41/41/41 53/53/53 42/42/42
f 43/43/43 41/41/41 42/42/42
f 44/44/44 41/41/41 43/43/43
f 49/49/49 44/44/44 43/43/43
f 50/50/50 44/44/44 49/49/49
f 54/54/54 50/50/50 49/49/49
f 51/51/51 48/48/48 47/47/47
f 52/52/52 48/48/48 51/51/51
f 54/54/54 52/52/52 51/51/51
f 68/68/68 47/47/47 69/69/69
f 51/51/51 47/47/47 68/68/68
f 72/72/72 51/51/51 68/68/68
f 73/73/73 51/51/51 72/72/72
f 71/71/71 73/73/73 72/72/72
f 19/19/19 2/2/2 1/1/1
f 5/5/5 2/2/2 19/19/19
f 7/7/7 5/5/5 19/19/19
f 8/8/8 5/5/5 7/7/7
f 10/10/10 8/8/8 7/7/7
f 17/17/17 8/8/8 10/10/10
f 18/18/18 17/17/17 10/10/10
f 20/20/20 17/17/17 18/18/18
f 14/14/14 20/20/20 18/18/18
f 13/13/13 20/20/20 14/14/14
f 4/4/4 13/13/13 14/14/14
f 3/3/3 13/13/13 4/4/4
f 1/1/1 3/3/3 4/4/4
f 2/2/2 3/3/3 1/1/1
f 6/6/6 2/2/2 5/5/5
f 3/3/3 2/2/2 6/6/6
f 15/15/15 3/3/3 6/6/6
f 13/13/13 3/3/3 15/15/15
f 20/20/20 13/13/13 15/15/15
f 16/16/16 17/17/17 20/20/20
f 8/8/8 17/17/17 16/16/16
f 6/6/6 8/8/8 16/16/16
f 5/5/5 8/8/8 6/6/6
f 9/9/9 10/10/10 7/7/7
f 12/12/12 10/10/10 9/9/9
f 11/11/11 12/12/12 9/9/9
f 4/4/4 12/12/12 11/11/11
f 1/1/1 4/4/4 11/11/11
f 15/15/15 16/16/16 20/20/20
f 6/6/6 16/16/16 15/15/15
f 12/12/12 18/18/18 10/10/10
f 14/14/14 18/18/18 12/12/12
f 4/4/4 14/14/14 12/12/12
f 19/19/19 9/9/9 7/7/7
f 11/11/11 9/9/9 19/19/19
f 1/1/1 11/11/11 19/19/19
f 24/24/24 21/21/21 23/23/23
f 39/39/39 21/21/21 24/24/24
f 26/26/26 39/39/39 24/24/24
f 28/28/28 39/39/39 26/26/26
f 27/27/27 28/28/28 26/26/26
f 29/29/29 28/28/28 27/27/27
f 37/37/37 29/29/29 27/27/27
f 38/38/38 29/29/29 37/37/37
f 40/40/40 38/38/38 37/37/37
f 33/33/33 38/38/38 40/40/40
f 34/34/34 33/33/33 40/40/40
f 22/22/22 33/33/33 34/34/34
f 23/23/23 22/22/22 34/34/34
f 21/21/21 22/22/22 23/23/23
f 35/35/35 34/34/34 40/40/40
f 23/23/23 34/34/34 35/35/35
f 25/25/25 23/23/23 35/35/35
f 24/24/24 23/23/23 25/25/25
f 26/26/26 24/24/24 25/25/25
f 36/36/36 35/35/35 40/40/40
f 25/25/25 35/35/35 36/36/36
f 27/27/27 25/25/25 36/36/36
f 26/26/26 25/25/25 27/27/27
f 31/31/31 38/38/38 33/33/33
f 29/29/29 38/38/38 31/31/31
f 30/30/30 29/29/29 31/31/31
f 28/28/28 29/29/29 30/30/30
f 39/39/39 28/28/28 30/30/30
f 32/32/32 39/39/39 30/30/30
f 31/31/31 32/32/32 30/30/30
f 22/22/22 32/32/32 31/31/31
f 33/33/33 22/22/22 31/31/31
f 21/21/21 32/32/32 22/22/22
f 39/39/39 32/32/32 21/21/21
f 37/37/37 36/36/36 40/40/40
f 27/27/27 36/36/36 37/37/37
f 45/45/45 53/53/53 46/46/46
f 57/57/57 53/53/53 45/45/45
f 58/58/58 57/57/57 45/45/45
f 59/59/59 57/57/57 58/58/58
f 63/63/63 59/59/59 58/58/58
f 49/49/49 61/61/61 54/54/54
f 56/56/56 61/61/61 49/49/49
f 43/43/43 56/56/56 49/49/49
f 55/55/55 56/56/56 43/43/43
f 42/42/42 55/55/55 43/43/43
f 60/60/60 57/57/57 59/59/59
f 53/53/53 57/57/57 60/60/60
f 63/63/63 58/58/58 62/62/62
f 68/68/68 69/69/69 67/67/67
f 66/66/66 68/68/68 67/67/67
f 72/72/72 68/68/68 66/66/66
f 71/71/71 72/72/72 66/66/66
f 65/65/65 44/44/44 50/50/50
f 41/41/41 44/44/44 65/65/65
f 64/64/64 41/41/41 65/65/65
f 53/53/53 41/41/41 64/64/64
f 65/65/65 50/50/50 70/70/70
f 92/92/92 75/75/75 74/74/74
f 78/78/78 75/75/75 92/92/92
f 80/80/80 78/78/78 92/92/92
f 81/81/81 78/78/78 80/80/80
f 83/83/83 81/81/81 80/80/80
f 90/90/90 81/81/81 83/83/83
f 91/91/91 90/90/90 83/83/83
f 93/93/93 90/90/90 91/91/91
f 87/87/87 93/93/93 91/91/91
f 86/86/86 93/93/93 87/87/87
f 77/77/77 86/86/86 87/87/87
f 76/76/76 86/86/86 77/77/77
f 74/74/74 76/76/76 77/77/77
f 75/75/75 76/76/76 74/74/74
f 79/79/79 75/75/75 78/78/78
f 76/76/76 75/75/75 79/79/79
f 88/88/88 76/76/76 79/79/79
f 86/86/86 76/76/76 88/88/88
f 93/93/93 86/86/86 88/88/88
f 89/89/89 90/90/90 93/93/93
f 81/81/81 90/90/90 89/89/89
f 79/79/79 81/81/81 89/89/89
f 78/78/78 81/81/81 79/79/79
f 82/82/82 83/83/83 80/80/80
f 85/85/85 83/83/83 82/82/82
f 84/84/84 85/85/85 82/82/82
f 77/77/77 85/85/85 84/84/84
f 74/74/74 77/77/77 84/84/84
f 88/88/88 89/89/89 93/93/93
f 79/79/79 89/89/89 88/88/88
f 85/85/85 91/91/91 83/83/83
f 87/87/87 91/91/91 85/85/85
f 77/77/77 87/87/87 85/85/85
f 92/92/92 82/82/82 80/80/80
f 84/84/84 82/82/82 92/92/92
f 74/74/74 84/84/84 92/92/92
f 101/101/101 95/95/95 100/100/100
f 99/99/99 95/95/95 101/101/101
f 98/98/98 99/99/99 101/101/101
f 96/96/96 99/99/99 98/98/98
f 100/100/100 96/96/96 98/98/98
f 94/94/94 96/96/96 100/100/100
f 95/95/95 94/94/94 100/100/100
f 97/97/97 94/94/94 95/95/95
f 99/99/99 97/97/97 95/95/95
f 96/96/96 97/97/97 99/99/99
f 96/96/96 94/94/94 97/97/97
f 100/100/100 98/98/98 101/101/101
f 109/109/109 103/103/103 108/108/108
f 107/107/107 103/103/103 109/109/109
f 106/106/106 107/107/107 109/109/109
f 104/104/104 107/107/107 106/106/106
f 108/108/108 104/104/104 106/106/106
f 102/102/102 104/104/104 108/108/108
f 103/103/103 102/102/102 108/108/108
f 105/105/105 102/102/102 103/103/103
f 107/107/107 105/105/105 103/103/103
f 104/104/104 105/105/105 107/107/107
f 104/104/104 102/102/102 105/105/105
f 108/108/108 106/106/106 109/109/109
f 117/117/117 111/111/111 116/116/116
f 115/115/115 111/111/111 117/117/117
f 114/114/114 115/115/115 117/117/117
f 112/112/112 115/115/115 114/114/114
f 116/116/116 112/112/112 114/114/114
f 110/110/110 112/112/112 116/116/116
f 111/111/111 110/110/110 116/116/116
f 113/113/113 110/110/110 111/111/111
f 115/115/115 113/113/113 111/111/111
f 112/112/112 113/113/113 115/115/115
f 112/112/112 110/110/110 113/113/113
f 116/116/116 114/114/114 117/117/117
f 121/121/121 122/122/122 127/127/127
f 119/119/119 122/122/122 121/121/121
f 120/120/120 119/119/119 121/121/121
f 125/125/125 119/119/119 120/120/120
f 126/126/126 125/125/125 120/120/120
f 124/124/124 125/125/125 126/126/126
f 127/127/127 124/124/124 126/126/126
f 123/123/123 124/124/124 127/127/127
f 122/122/122 123/123/123 127/127/127
f 118/118/118 123/123/123 122/122/122
f 119/119/119 118/118/118 122/122/122
f 124/124/124 118/118/118 119/119/119
f 125/125/125 124/124/124 119/119/119
f 123/123/123 118/118/118 124/124/124
f 126/126/126 121/121/121 127/127/127
f 120/120/120 121/121/121 126/126/126
f 136/136/136 130/130/130 128/128/128
f 139/139/139 136/136/136 128/128/128
f 129/129/129 136/136/136 139/139/139
f 135/135/135 129/129/129 139/139/139
f 133/133/133 129/129/129 135/135/135
f 138/138/138 133/133/133 135/135/135
f 137/137/137 133/133/133 138/138/138
f 132/132/132 137/137/137 138/138/138
f 130/130/130 137/137/137 132/132/132
f 134/134/134 130/130/130 132/132/132
f 128/128/128 130/130/130 134/134/134
f 139/139/139 128/128/128 134/134/134
f 136/136/136 137/137/137 130/130/130
f 133/133/133 137/137/137 136/136/136
f 131/131/131 133/133/133 136/136/136
f 129/129/129 133/133/133 131/131/131
f 136/136/136 129/129/129 131/131/131
f 138/138/138 134/134/134 132/132/132
f 139/139/139 134/134/134 138/138/138
f 135/135/135 139/139/139 138/138/138
f 143/143/143 146/146/146 145/145/145
f 144/144/144 146/146/146 143/143/143
f 149/149/149 144/144/144 143/143/143
f 146/146/146 144/144/144 149/149/149
f 148/148/148 146/146/146 149/149/149
f 145/145/145 146/146/146 148/148/148
f 147/147/147 145/145/145 148/148/148
f 142/142/142 145/145/145 147/147/147
f 140/140/140 142/142/142 147/147/147
f 143/143/143 142/142/142 140/140/140
f 141/141/141 143/143/143 140/140/140
f 149/149/149 143/143/143 141/141/141
f 147/147/147 149/149/149 141/141/141
f 148/148/148 149/149/149 147/147/147
f 140/140/140 147/147/147 141/141/141
f 142/142/142 143/143/143 145/145/145
f 153/153/153 156/156/156 155/155/155
f 154/154/154 156/156/156 153/153/153
f 159/159/159 154/154/154 153/153/153
f 156/156/156 154/154/154 159/159/159
f 158/158/158 156/156/156 159/159/159
f 155/155/155 156/156/156 158/158/158
f 157/157/157 155/155/155 158/158/158
f 152/152/152 155/155/155 157/157/157
f 150/150/150 152/152/152 157/157/157
f 153/153/153 152/152/152 150/150/150
f 151/151/151 153/153/153 150/150/150
f 159/159/159 153/153/153 151/151/151
f 157/157/157 159/159/159 151/151/151
f 158/158/158 159/159/159 157/157/157
f 150/150/150 157/157/157 151/151/151
f 152/152/152 153/153/153 155/155/155
f 163/163/163 166/166/166 165/165/165
f 164/164/164 166/166/166 163/163/163
f 169/169/169 164/164/164 163/163/163
f 166/166/166 164/164/164 169/169/169
f 168/168/168 166/166/166 169/169/169
f 165/165/165 166/166/166 168/168/168
f 167/167/167 165/165/165 168/168/168
f 162/162/162 165/165/165 167/167/167
f 160/160/160 162/162/162 167/167/167
f 163/163/163 162/162/162 160/160/160
f 161/161/161 163/163/163 160/160/160
f 169/169/169 163/163/163 161/161/161
f 167/167/167 169/169/169 161/161/161
f 168/168/168 169/169/169 167/167/167
f 160/160/160 167/167/167 161/161/161
f 162/162/162 163/163/163 165/165/165
