g E4_detailRoofing_geo
v -215.6885 5.760159 126.0922
v -210.424 5.760168 126.0922
v -215.6885 4.005852 124.0467
v -210.424 4.007385 124.0458
v -215.6885 5.76016 126.1363
v -210.424 5.760161 126.1363
v -215.6886 4.006616 128.0971
v -210.424 4.007375 128.0976
v -215.6245 3.90605 127.9631
v -215.675 3.906686 127.9816
v -215.6544 3.903207 127.9378
v -215.6497 3.903522 124.217
v -215.6497 3.901438 124.2641
v -215.672 5.549675 126.1145
v -215.6497 5.524444 126.1145
v -215.7487 3.983793 128.0844
v -215.7487 5.746667 126.1145
v -215.7487 3.983794 124.0589
v -215.7487 3.892188 128.0417
v -215.7282 3.866289 128.0365
v -215.7235 5.549664 126.1145
v -215.7487 5.574893 126.1145
v -215.7487 3.892172 124.1609
v -215.7235 3.879181 124.1706
v -210.6242 3.903556 127.9631
v -210.5764 3.907142 127.978
v -210.5959 3.900867 127.9382
v -210.5764 3.907143 124.2239
v -210.6197 3.89115 124.2389
v -210.5959 3.900869 124.2637
v -210.572 5.572046 126.1142
v -210.5959 5.548212 126.1142
v -210.4001 3.986548 128.0855
v -210.424 3.975452 128.1075
v -210.4001 5.747426 126.1142
v -210.4239 3.975449 124.0359
v -210.4001 3.986551 124.0579
v -210.4 3.900024 128.0434
v -210.4195 3.875562 128.0382
v -210.424 3.888562 128.0652
v -210.4239 5.57205 126.1142
v -210.4001 5.595877 126.1142
v -210.4001 3.900002 124.1585
v -210.424 3.888546 124.1368
v -210.4195 3.875547 124.1637
v -215.5895 3.906033 127.9631
v -215.6401 3.903546 127.9848
v -215.5895 3.891152 124.2389
v -215.6147 3.903547 124.2171
v -215.6885 3.972049 128.1068
v -215.6885 3.880057 128.0639
v -215.6885 3.888558 124.1368
v -215.6885 3.973921 124.0368
v -215.6932 3.866266 128.0366
v -215.6885 3.87916 124.1706
v -215.6885 5.76016 126.1363
v -215.6886 4.006616 128.0971
v -215.6885 4.005852 124.0467
v -215.6885 5.760159 126.0922
v -210.424 4.007375 128.0976
v -210.424 5.760161 126.1363
v -210.424 4.007385 124.0458
v -210.424 5.760168 126.0922
v -210.4 3.900024 128.0434
v -210.4001 5.747426 126.1142
v -210.4001 5.595877 126.1142
v -210.4001 3.986548 128.0855
v -210.4001 3.986551 124.0579
v -210.4001 3.900002 124.1585
v -210.424 3.888546 124.1368
v -215.6885 3.973921 124.0368
v -215.6885 3.888558 124.1368
v -210.4239 3.975449 124.0359
v -210.4239 5.57205 126.1142
v -210.5764 3.907142 127.978
v -210.4195 3.875562 128.0382
v -210.572 5.572046 126.1142
v -215.6401 3.903546 127.9848
v -215.6932 3.866266 128.0366
v -210.4195 3.875547 124.1637
v -210.5764 3.907143 124.2239
v -215.6885 3.87916 124.1706
v -215.6147 3.903547 124.2171
v -215.6885 3.880057 128.0639
v -210.424 3.975452 128.1075
v -210.424 3.888562 128.0652
v -215.6885 3.972049 128.1068
v -215.6497 3.903522 124.217
v -215.7235 5.549664 126.1145
v -215.672 5.549675 126.1145
v -215.7235 3.879181 124.1706
v -215.7282 3.866289 128.0365
v -215.675 3.906686 127.9816
v -215.7487 3.892172 124.1609
v -215.7487 5.746667 126.1145
v -215.7487 5.574893 126.1145
v -215.7487 3.983794 124.0589
v -215.7487 3.983793 128.0844
v -215.7487 3.892188 128.0417
vt 0.5466955 0.8950979
vt 0.5466955 0.8950979
vt 0.5466955 0.8418509
vt 0.5466955 0.8418509
vt 0.5466955 0.9108544
vt 0.5466955 0.9108544
vt 0.5466955 0.8576074
vt 0.5466955 0.8576074
vt 0 1
vt 0 1
vt 0 1
vt 0 1
vt 0 1
vt 0 1
vt 0 1
vt 0 1
vt 0 1
vt 0 1
vt 0 1
vt 0 1
vt 0 1
vt 0 1
vt 0 1
vt 0 1
vt 0 1
vt 0 1
vt 0 1
vt 0 1
vt 0 1
vt 0 1
vt 0 1
vt 0 1
vt 0 1
vt 0 1
vt 0 1
vt 0 1
vt 0 1
vt 0 1
vt 0 1
vt 0 1
vt 0 1
vt 0 1
vt 0 1
vt 0 1
vt 0 1
vt 0 1
vt 0 1
vt 0 1
vt 0 1
vt 0 1
vt 0 1
vt 0 1
vt 0 1
vt 0 1
vt 0 1
vt 0 1
vt 0 1
vt 0 1
vt 0 1
vt 0 1
vt 0 1
vt 0 1
vt 0 1
vt 0.5469408 0.8510595
vt 0.5469408 0.8510595
vt 0.5469408 0.8510595
vt 0.5469408 0.8510595
vt 0.5469407 0.8510595
vt 0.5469407 0.8510595
vt 0.5553436 0.8510595
vt 0.5553436 0.8510595
vt 0.5553436 0.8510595
vt 0.5553436 0.8510595
vt 0.5599054 0.8510596
vt 0.5599054 0.8510596
vt 0.5599054 0.8510596
vt 0.5599054 0.8510596
vt 0.5599054 0.8510596
vt 0.5599054 0.8510596
vt 0.5599054 0.8510596
vt 0.5599054 0.8510596
vt 0.5599054 0.8510596
vt 0.5599054 0.8510596
vt 0.5553436 0.8510595
vt 0.5553436 0.8510595
vt 0.5553436 0.8510595
vt 0.5553436 0.8510595
vt 0.5599054 0.8510596
vt 0.5599054 0.8510596
vt 0.5599054 0.8510596
vt 0.5599054 0.8510596
vt 0.5599054 0.8510596
vt 0.5599054 0.8510596
vt 0.5469407 0.8510595
vt 0.5469407 0.8510595
vt 0.5469407 0.8510595
vt 0.5469407 0.8510595
vt 0.5469407 0.8510595
vt 0.5469407 0.8510595
vn -0.1615641 0.9271813 -0.3379822
vn 0.3295601 0.8912635 -0.3115118
vn -0.1769098 0.5386268 -0.8237621
vn 0.3599277 0.507146 -0.783106
vn -0.1631915 0.9234642 0.3472496
vn 0.3310572 0.8876765 0.3200493
vn -0.1784159 0.5206149 0.8349418
vn 0.3594857 0.4950992 0.7909784
vn -0.009176749 -0.999606 -0.02653004
vn -0.1891027 -0.9017298 -0.3887463
vn -0.438802 -0.8755898 -0.2019787
vn -0.3433516 -0.8663859 0.3626089
vn -0.6373039 -0.7679564 0.06392524
vn -0.6226931 -0.7800698 -0.06119151
vn -0.9014719 -0.4229532 -0.09197297
vn -0.6458314 0.1738841 0.7434152
vn -0.7834237 0.6214781 0.003506154
vn -0.6778906 0.09282275 -0.7292793
vn -0.7680506 -0.5373203 0.3484041
vn -0.3157151 -0.8887101 -0.3324431
vn -0.4608565 -0.8874208 0.009782152
vn -0.9392011 -0.3431903 0.01103082
vn -0.8143834 -0.5787203 -0.04315746
vn -0.2312939 -0.7887323 0.5695651
vn 0.01515992 -0.9962124 0.08562277
vn 0.1886771 -0.9247495 -0.3305137
vn 0.4571907 -0.8715514 -0.1771294
vn 0.2784125 -0.931109 0.2356318
vn 0.1909241 -0.9296577 -0.3150946
vn 0.5903718 -0.7675467 0.2496663
vn 0.5409433 -0.8410545 -0.002746257
vn 0.8335238 -0.5524812 -0.00166466
vn 0.8437092 0.1287827 0.5211236
vn 0.3732035 -0.06102152 0.9257405
vn 0.8938112 0.4484369 0.002410338
vn 0.4004022 -0.2394683 -0.8844959
vn 0.8678308 0.06673012 -0.4923584
vn 0.8891877 -0.4289123 0.1593095
vn 0.3491912 -0.9143569 -0.2049805
vn 0.3901985 -0.632319 0.6692666
vn 0.4882331 -0.8727067 -0.003367351
vn 0.9494982 -0.3137693 -0.001375223
vn 0.8643912 -0.4898613 -0.1134187
vn 0.3691005 -0.7772551 -0.5095481
vn 0.3418909 -0.9164932 0.2077278
vn -0.01903256 -0.9982569 -0.05586582
vn -0.01165649 -0.9475062 -0.3195248
vn -0.07503947 -0.915513 -0.3952276
vn -0.04093479 -0.9980612 0.04688329
vn -0.1834895 -0.07611566 0.9800704
vn -0.16692 -0.6293351 0.7589961
vn -0.265915 -0.9068493 -0.3269764
vn -0.1834625 -0.2681651 -0.9457425
vn -0.07866844 -0.996876 0.007040991
vn -0.160479 -0.9368017 0.3108843
vn -0.1631915 0.9234642 0.3472496
vn -0.1784159 0.5206149 0.8349418
vn -0.1769098 0.5386268 -0.8237621
vn -0.1615641 0.9271813 -0.3379822
vn 0.3594857 0.4950992 0.7909784
vn 0.3310572 0.8876765 0.3200493
vn 0.3599277 0.507146 -0.783106
vn 0.3295601 0.8912635 -0.3115118
vn 0.8891877 -0.4289123 0.1593095
vn 0.8938112 0.4484369 0.002410338
vn 0.9494982 -0.3137693 -0.001375223
vn 0.8437092 0.1287827 0.5211236
vn 0.8678308 0.06673012 -0.4923584
vn 0.8643912 -0.4898613 -0.1134187
vn 0.3691005 -0.7772551 -0.5095481
vn -0.1834625 -0.2681651 -0.9457425
vn -0.265915 -0.9068493 -0.3269764
vn 0.4004022 -0.2394683 -0.8844959
vn 0.4882331 -0.8727067 -0.003367351
vn 0.1886771 -0.9247495 -0.3305137
vn 0.3491912 -0.9143569 -0.2049805
vn 0.5409433 -0.8410545 -0.002746257
vn -0.01165649 -0.9475062 -0.3195248
vn -0.07866844 -0.996876 0.007040991
vn 0.3418909 -0.9164932 0.2077278
vn 0.2784125 -0.931109 0.2356318
vn -0.160479 -0.9368017 0.3108843
vn -0.04093479 -0.9980612 0.04688329
vn -0.16692 -0.6293351 0.7589961
vn 0.3732035 -0.06102152 0.9257405
vn 0.3901985 -0.632319 0.6692666
vn -0.1834895 -0.07611566 0.9800704
vn -0.3433516 -0.8663859 0.3626089
vn -0.4608565 -0.8874208 0.009782152
vn -0.6226931 -0.7800698 -0.06119151
vn -0.2312939 -0.7887323 0.5695651
vn -0.3157151 -0.8887101 -0.3324431
vn -0.1891027 -0.9017298 -0.3887463
vn -0.8143834 -0.5787203 -0.04315746
vn -0.7834237 0.6214781 0.003506154
vn -0.9392011 -0.3431903 0.01103082
vn -0.6778906 0.09282275 -0.7292793
vn -0.6458314 0.1738841 0.7434152
vn -0.7680506 -0.5373203 0.3484041
g E4_detailRoofing_geo_0
f 4/4/4 1/1/1 2/2/2
f 3/3/3 1/1/1 4/4/4
f 8/8/8 5/5/5 7/7/7
f 6/6/6 5/5/5 8/8/8
f 66/66/66 69/69/69 68/68/68
f 65/65/65 66/66/66 68/68/68
f 64/64/64 66/66/66 65/65/65
f 67/67/67 64/64/64 65/65/65
f 71/71/71 70/70/70 72/72/72
f 73/73/73 70/70/70 71/71/71
f 81/81/81 83/83/83 82/82/82
f 80/80/80 81/81/81 82/82/82
f 77/77/77 81/81/81 80/80/80
f 74/74/74 77/77/77 80/80/80
f 75/75/75 77/77/77 74/74/74
f 76/76/76 75/75/75 74/74/74
f 78/78/78 75/75/75 76/76/76
f 79/79/79 78/78/78 76/76/76
f 85/85/85 84/84/84 86/86/86
f 87/87/87 84/84/84 85/85/85
f 90/90/90 93/93/93 92/92/92
f 89/89/89 90/90/90 92/92/92
f 88/88/88 90/90/90 89/89/89
f 91/91/91 88/88/88 89/89/89
f 96/96/96 99/99/99 98/98/98
f 95/95/95 96/96/96 98/98/98
f 94/94/94 96/96/96 95/95/95
f 97/97/97 94/94/94 95/95/95
f 26/26/26 25/25/25 27/27/27
f 46/46/46 25/25/25 26/26/26
f 47/47/47 46/46/46 26/26/26
f 9/9/9 46/46/46 47/47/47
f 10/10/10 9/9/9 47/47/47
f 11/11/11 9/9/9 10/10/10
f 14/14/14 11/11/11 10/10/10
f 15/15/15 11/11/11 14/14/14
f 12/12/12 15/15/15 14/14/14
f 13/13/13 15/15/15 12/12/12
f 48/48/48 13/13/13 12/12/12
f 20/20/20 19/19/19 22/22/22
f 51/51/51 19/19/19 20/20/20
f 54/54/54 51/51/51 20/20/20
f 40/40/40 51/51/51 54/54/54
f 39/39/39 40/40/40 54/54/54
f 38/38/38 40/40/40 39/39/39
f 42/42/42 38/38/38 39/39/39
f 22/22/22 21/21/21 20/20/20
f 24/24/24 21/21/21 22/22/22
f 23/23/23 24/24/24 22/22/22
f 55/55/55 24/24/24 23/23/23
f 52/52/52 55/55/55 23/23/23
f 45/45/45 55/55/55 52/52/52
f 44/44/44 45/45/45 52/52/52
f 43/43/43 45/45/45 44/44/44
f 37/37/37 43/43/43 44/44/44
f 49/49/49 29/29/29 48/48/48
f 12/12/12 49/49/49 48/48/48
f 55/55/55 49/49/49 12/12/12
f 24/24/24 55/55/55 12/12/12
f 16/16/16 57/57/57 56/56/56
f 50/50/50 57/57/57 16/16/16
f 19/19/19 50/50/50 16/16/16
f 51/51/51 50/50/50 19/19/19
f 56/56/56 17/17/17 16/16/16
f 59/59/59 17/17/17 56/56/56
f 63/63/63 59/59/59 56/56/56
f 18/18/18 53/53/53 52/52/52
f 58/58/58 53/53/53 18/18/18
f 17/17/17 58/58/58 18/18/18
f 59/59/59 58/58/58 17/17/17
f 23/23/23 18/18/18 52/52/52
f 28/28/28 30/30/30 29/29/29
f 32/32/32 30/30/30 28/28/28
f 31/31/31 32/32/32 28/28/28
f 27/27/27 32/32/32 31/31/31
f 26/26/26 27/27/27 31/31/31
f 28/28/28 29/29/29 49/49/49
f 33/33/33 61/61/61 60/60/60
f 34/34/34 33/33/33 60/60/60
f 38/38/38 33/33/33 34/34/34
f 40/40/40 38/38/38 34/34/34
f 50/50/50 60/60/60 57/57/57
f 34/34/34 60/60/60 50/50/50
f 35/35/35 61/61/61 33/33/33
f 63/63/63 61/61/61 35/35/35
f 62/62/62 63/63/63 35/35/35
f 36/36/36 53/53/53 58/58/58
f 62/62/62 36/36/36 58/58/58
f 37/37/37 36/36/36 62/62/62
f 35/35/35 37/37/37 62/62/62
f 36/36/36 37/37/37 44/44/44
f 41/41/41 42/42/42 39/39/39
f 43/43/43 42/42/42 41/41/41
f 45/45/45 43/43/43 41/41/41
f 10/10/10 54/54/54 20/20/20
f 47/47/47 54/54/54 10/10/10
f 63/63/63 56/56/56 61/61/61
