g E4_shadowCircle_geo
v -206.0507 0.02 84.59325
v -203.9866 0.02 84.51351
v -206.2377 0.02 79.75022
v -204.1737 0.02 79.67049
v -203.2593 0.02 87.86315
v -209.1465 0.02 87.86315
v -202.088 0.02 88.79232
v -207.9716 0.02 88.79232
v -209.1465 0.02 93.90173
v -207.9716 0.02 94.83092
v -191.3197 0.02 84.84463
v -203.2593 0.02 84.84463
v -190.628 0.02 85.7738
v -202.0844 0.02 85.7738
v -193.9763 4.830515 86.1022
v -201.6796 4.830515 86.1022
v -193.5859 7.694953 89.7414
v -200.8656 7.677658 89.71951
v -201.6796 5.072397 86.40845
v -193.702 5.072397 86.40845
v -194.7317 0.02 77.26247
v -195.0358 0.02 77.26247
v -194.7317 0.02 77.54436
v -195.0358 0.02 77.54436
v -209.6858 1.825002 126.7351
v -209.6858 1.825002 123.0639
v -210.6543 1.825002 124.2389
v -210.6351 1.825002 127.9063
v -214.7488 1.825002 123.0639
v -215.6779 1.825002 124.2352
vt 0.5 0.5
vt 0.5 0.5
vt 0.5 0.5
vt 0.5 0.5
vt 0.5 0.5
vt 0.5 0.5
vt 0.5 0.5
vt 0.5 0.5
vt 0.5 0.5
vt 0.5 0.5
vt 0.5 0.5
vt 0.5 0.5
vt 0.5 0.5
vt 0.5 0.5
vt 0.5 0.5
vt 0.5 0.5
vt 0.5 0.5
vt 0.5 0.5
vt 0.5 0.5
vt 0.5 0.5
vt 0 0
vt 1 0
vt 0 1
vt 1 1
vt 0.5 0.5
vt 0.5 0.5
vt 0.5 0.5
vt 0.5 0.5
vt 0.5 0.5
vt 0.5 0.5
vn 0 1 0
vn 0 1 0
vn 0 1 0
vn 0 1 0
vn 0 1 0
vn 0 1 0
vn 0 1 0
vn 0 1 0
vn 0 1 0
vn 0 1 0
vn 0 1 0
vn 0 1 0
vn 0 1 0
vn 0 1 0
vn 0 0.7847504 -0.619812
vn 0 0.7847504 -0.619812
vn -3.101708E-06 0.7858861 -0.6183713
vn -3.101708E-06 0.7858861 -0.6183713
vn -1.550855E-06 0.7853186 -0.6190919
vn -1.550855E-06 0.7853186 -0.6190919
vn 0 1 0
vn 0 1 0
vn 0 1 0
vn 0 1 0
vn 0 1 0
vn 0 1 0
vn 0 1 0
vn 0 1 0
vn 0 1 0
vn 0 1 0
g E4_shadowCircle_geo_0
f 4/4/4 1/1/1 2/2/2
f 3/3/3 1/1/1 4/4/4
f 8/8/8 9/9/9 10/10/10
f 6/6/6 9/9/9 8/8/8
f 5/5/5 6/6/6 8/8/8
f 14/14/14 12/12/12 5/5/5
f 11/11/11 12/12/12 14/14/14
f 13/13/13 11/11/11 14/14/14
f 20/20/20 18/18/18 17/17/17
f 19/19/19 18/18/18 20/20/20
f 15/15/15 19/19/19 20/20/20
f 16/16/16 19/19/19 15/15/15
f 24/24/24 21/21/21 22/22/22
f 23/23/23 21/21/21 24/24/24
f 27/27/27 26/26/26 29/29/29
f 25/25/25 26/26/26 27/27/27
f 28/28/28 25/25/25 27/27/27
f 30/30/30 27/27/27 29/29/29
f 7/7/7 5/5/5 8/8/8
f 14/14/14 5/5/5 7/7/7
