g E5_collisionGround_grass_geo
v -196.2586 1.782902 225.3038
v -204.1846 4.320217 216.1927
v -212.7818 1.782903 215.0232
v -205.5169 1.782906 227.8235
v -208.6401 5.632071 221.2928
v -214.3232 1.782905 231.9111
v -217.0136 4.320216 225.0734
v -221.4732 1.782899 218.8757
v -222.457 1.782902 237.57
v -226.609 7.049237 231.8178
v -233.3521 1.782901 228.6385
v -199.5175 1.7829 193.6877
v -206.1901 4.320213 193.6877
v -212.9156 1.782902 193.6877
v -233.0882 1.782903 213.373
v -235.6885 1.782899 218.8757
v -233.0004 1.782902 194.0827
v -228.8289 4.940154 218.8757
v -221.4641 5.708532 215.0232
v -216.5201 6.586895 193.9933
v -197.8881 1.782903 210.8766
vt 0 1
vt 0 1
vt 0 1
vt 0 1
vt 0 1
vt 0 1
vt 0 1
vt 0 1
vt 0 1
vt 0 1
vt 0 1
vt 0 1
vt 0 1
vt 0 1
vt 0 1
vt 0 1
vt 0 1
vt 0 1
vt 0 1
vt 0 1
vt 0 1
vn 0.1251398 0.9907396 0.05267768
vn 0.01265724 0.9947924 -0.1011328
vn -0.2455845 0.9034653 -0.3513387
vn 0.1269973 0.9517098 0.2794999
vn -0.03229314 0.991155 -0.1287205
vn 0.2004141 0.9355971 0.2906758
vn -0.03467972 0.9936051 -0.107454
vn -0.2607216 0.8377525 -0.4797865
vn 0.3698986 0.8840727 0.2856403
vn -0.01687926 0.990638 -0.1354674
vn -0.4015691 0.7579337 -0.5140806
vn 0.1956401 0.9787457 -0.06149688
vn 0.001319197 0.9998294 0.01842004
vn -0.3840526 0.9107259 0.1519271
vn -0.312248 0.9389802 -0.1442823
vn -0.3766227 0.9222898 -0.08681387
vn -0.3035328 0.9494925 0.07957172
vn -0.02570963 0.961262 0.2744344
vn 0.07523664 0.9870967 0.1413496
vn 0.1733516 0.9831896 -0.05733597
vn 0.3503382 0.9359826 -0.03463383
g E5_collisionGround_grass_geo_0
f 13/13/13 21/21/21 12/12/12
f 2/2/2 21/21/21 13/13/13
f 3/3/3 2/2/2 13/13/13
f 5/5/5 2/2/2 3/3/3
f 7/7/7 5/5/5 3/3/3
f 4/4/4 5/5/5 7/7/7
f 6/6/6 4/4/4 7/7/7
f 19/19/19 20/20/20 17/17/17
f 3/3/3 20/20/20 19/19/19
f 8/8/8 3/3/3 19/19/19
f 7/7/7 3/3/3 8/8/8
f 10/10/10 7/7/7 8/8/8
f 6/6/6 7/7/7 10/10/10
f 9/9/9 6/6/6 10/10/10
f 14/14/14 3/3/3 13/13/13
f 20/20/20 3/3/3 14/14/14
f 2/2/2 1/1/1 21/21/21
f 4/4/4 1/1/1 2/2/2
f 5/5/5 4/4/4 2/2/2
f 8/8/8 11/11/11 10/10/10
f 18/18/18 11/11/11 8/8/8
f 19/19/19 18/18/18 8/8/8
f 15/15/15 18/18/18 19/19/19
f 17/17/17 15/15/15 19/19/19
f 16/16/16 18/18/18 15/15/15
f 11/11/11 18/18/18 16/16/16
