g electionPosterLoisBroken_geo
v -0.6420948 0.864166 0.07189453
v -0.6420948 -0.8145021 0.1294995
v 0.6420981 0.864166 0.05126465
v 0.6420981 -0.8145021 0.1294995
v 0.6420981 -0.3390701 0.008637696
v -0.6420948 -0.3390701 0.008637696
v -0.6420948 -0.6960243 0.06376221
v 0.6420981 -0.6960243 0.06376221
v -0.6420948 -0.5140576 0.02516846
v 0.6420981 -0.5140576 0.02516846
v 0.4371799 0.864166 0.008637696
v 0.6420981 0.694129 0.009006348
v 0.54196 0.864166 0.02184326
v 0.6420981 0.7856005 0.02483154
v -0.6420948 0.6936374 0.008635253
v -0.4657128 0.864166 0.008637696
v -0.6420981 0.7835217 0.02836914
v -0.5492557 0.864166 0.02836914
v -0.4305494 -0.3390701 0.008637696
v -0.4596442 0.4915062 0.008624572
v -0.418107 0.5206805 0.008631427
v -0.4659389 0.1768654 0.008615832
v -0.3974505 0.2105718 0.008626777
v -0.4492486 -0.1339969 0.008610577
v -0.3687966 -0.1146628 0.00862293
v -0.4032429 -0.5140576 0.02516846
v -0.4691394 -0.4847255 0.0223975
v -0.3881539 -0.4575363 0.01982899
v -0.4499608 -0.6960243 0.06376221
v -0.4768485 -0.8145021 0.1294995
v 0.4594073 -0.3390701 0.008637696
v 0.4347544 0.5669641 0.008781401
v 0.4983253 0.5820622 0.008808589
v 0.4275249 0.2239091 0.008735328
v 0.5339058 0.2716888 0.008783659
v 0.4482727 -0.1637147 0.008694772
v 0.5267444 -0.1457443 0.008728247
v 0.4938959 -0.5140576 0.02516846
v 0.4301122 -0.4202374 0.01630542
v 0.51348 -0.3853677 0.01301135
v 0.4643162 -0.6960243 0.06376221
v 0.4414751 -0.8145021 0.1294995
v -0.5426022 0.74025 0.0463638
v -0.5766182 0.74025 0.02630984
v -0.5426022 0.7742661 0.02630984
v -0.5426022 0.7062339 0.02630984
v -0.5085861 0.74025 0.02630984
v 0.5412612 0.74025 0.0463638
v 0.5072451 0.74025 0.02630984
v 0.5412612 0.7742661 0.02630984
v 0.5412612 0.7062339 0.02630984
v 0.5752773 0.74025 0.02630984
vt 0.4969302 0.9903939
vt 0.5013841 0.5130587
vt 0.9582656 0.9883182
vt 0.9561012 0.5130067
vt 0.9569589 0.6520665
vt 0.5006486 0.6521388
vt 0.5012159 0.5505042
vt 0.9562845 0.550448
vt 0.501052 0.6028717
vt 0.956486 0.6028073
vt 0.8885264 0.9864433
vt 0.9593567 0.9392944
vt 0.9252979 0.9866408
vt 0.9576463 0.9651666
vt 0.4985891 0.9392428
vt 0.5600224 0.9865276
vt 0.499621 0.9647987
vt 0.5297676 0.9872471
vt 0.5758168 0.6521269
vt 0.5637171 0.8829569
vt 0.5787134 0.8910611
vt 0.5626821 0.795512
vt 0.5874661 0.8048733
vt 0.5698851 0.7091182
vt 0.5983015 0.7145066
vt 0.5857599 0.6028597
vt 0.5624405 0.6111203
vt 0.5911542 0.6187707
vt 0.5693008 0.5504958
vt 0.5598959 0.513052
vt 0.8920437 0.6520768
vt 0.885447 0.9039425
vt 0.9079692 0.9081463
vt 0.8820013 0.8085849
vt 0.9199018 0.8218614
vt 0.8884983 0.7008257
vt 0.9164216 0.7058171
vt 0.9039266 0.6028148
vt 0.8814664 0.6292294
vt 0.9111321 0.6390409
vt 0.8932855 0.5504558
vt 0.8850631 0.5130149
vt 0.9871295 0.4013895
vt 0.9871295 0.07992002
vt 0.9871295 0.07992002
vt 0.9871295 0.07992002
vt 0.9871295 0.07992002
vt 0.9871295 0.4013895
vt 0.9871295 0.07992002
vt 0.9871295 0.07992002
vt 0.9871295 0.07992002
vt 0.9871295 0.07992002
vn 0.3813841 -0.4390721 0.8134875
vn 0 0.4851708 0.8744194
vn -0.2682623 -0.3071944 0.9130536
vn 0 0.4851709 0.8744193
vn -0.0002877903 0.04699667 0.998895
vn 2.747711E-05 0.04707986 0.9988912
vn 0 0.3501928 0.9366777
vn 0 0.3501928 0.9366776
vn 0 0.1510121 0.9885318
vn 0 0.1510121 0.9885318
vn -0.06889062 -0.07761851 0.9946002
vn -0.06889062 -0.07761851 0.9946002
vn -0.2035153 -0.2320307 0.9511799
vn -0.2035153 -0.2320307 0.9511799
vn 0.1057271 -0.1132976 0.9879198
vn 0.1057271 -0.1132976 0.9879198
vn 0.2986933 -0.3354874 0.8934374
vn 0.2986933 -0.3354874 0.8934374
vn 2.747711E-05 0.04707986 0.9988912
vn 5.48933E-05 5.80395E-06 1
vn 5.48933E-05 5.80395E-06 1
vn 5.48933E-05 5.80395E-06 1
vn 5.48933E-05 5.80395E-06 1
vn 5.48933E-05 5.80395E-06 1
vn 5.48933E-05 5.80395E-06 1
vn 0 0.1510121 0.9885318
vn 0 0.09404953 0.9955675
vn 0 0.09404953 0.9955675
vn 0 0.3501928 0.9366777
vn 0 0.4851708 0.8744194
vn -0.0002877903 0.04699667 0.998895
vn -0.0005749403 -0.0001607181 0.9999999
vn -0.0005749403 -0.0001607181 0.9999999
vn -0.0005749403 -0.0001607181 0.9999999
vn -0.0005749403 -0.0001607181 0.9999999
vn -0.0005749403 -0.0001607181 0.9999999
vn -0.0005749403 -0.0001607181 0.9999999
vn 0 0.1510121 0.9885318
vn 0 0.09404948 0.9955675
vn 0 0.09404948 0.9955675
vn 0 0.3501928 0.9366776
vn 0 0.4851709 0.8744193
vn -5.917258E-07 4.559199E-07 1
vn -0.860512 1.33094E-06 0.5094302
vn -1.52917E-06 0.8605112 0.5094313
vn -1.982258E-07 -0.8605103 0.5094331
vn 0.8605112 0 0.5094317
vn 6.014264E-07 9.312409E-07 1
vn -0.8605112 1.359261E-06 0.5094313
vn 8.778557E-07 0.8605125 0.5094293
vn 8.778565E-07 -0.8605105 0.5094328
vn 0.8605121 1.359259E-06 0.5094299
g electionPosterLoisBroken_geo_0
f 37/37/37 35/35/35 36/36/36
f 5/5/5 35/35/35 37/37/37
f 31/31/31 5/5/5 37/37/37
f 40/40/40 5/5/5 31/31/31
f 39/39/39 40/40/40 31/31/31
f 33/33/33 35/35/35 5/5/5
f 12/12/12 33/33/33 5/5/5
f 11/11/11 33/33/33 12/12/12
f 14/14/14 11/11/11 12/12/12
f 13/13/13 11/11/11 14/14/14
f 3/3/3 13/13/13 14/14/14
f 8/8/8 42/42/42 4/4/4
f 41/41/41 42/42/42 8/8/8
f 10/10/10 41/41/41 8/8/8
f 38/38/38 41/41/41 10/10/10
f 40/40/40 38/38/38 10/10/10
f 24/24/24 19/19/19 25/25/25
f 6/6/6 19/19/19 24/24/24
f 22/22/22 6/6/6 24/24/24
f 15/15/15 6/6/6 22/22/22
f 16/16/16 15/15/15 22/22/22
f 17/17/17 15/15/15 16/16/16
f 18/18/18 17/17/17 16/16/16
f 1/1/1 17/17/17 18/18/18
f 32/32/32 33/33/33 11/11/11
f 33/33/33 34/34/34 35/35/35
f 23/23/23 22/22/22 24/24/24
f 20/20/20 22/22/22 21/21/21
f 16/16/16 22/22/22 20/20/20
f 26/26/26 9/9/9 7/7/7
f 27/27/27 9/9/9 26/26/26
f 28/28/28 27/27/27 26/26/26
f 29/29/29 2/2/2 30/30/30
f 7/7/7 2/2/2 29/29/29
f 26/26/26 7/7/7 29/29/29
f 10/10/10 5/5/5 40/40/40
f 6/6/6 27/27/27 19/19/19
f 9/9/9 27/27/27 6/6/6
f 46/46/46 44/44/44 47/47/47
f 43/43/43 44/44/44 46/46/46
f 47/47/47 43/43/43 46/46/46
f 45/45/45 43/43/43 47/47/47
f 44/44/44 45/45/45 47/47/47
f 43/43/43 45/45/45 44/44/44
f 51/51/51 49/49/49 52/52/52
f 48/48/48 49/49/49 51/51/51
f 52/52/52 48/48/48 51/51/51
f 50/50/50 48/48/48 52/52/52
f 49/49/49 50/50/50 52/52/52
f 48/48/48 50/50/50 49/49/49
