g electionSignLois_broken_geo
v 0.3830298 0.5715351 0.03234886
v 0.3830298 0.5715351 0
v -0.05480838 0 0
v 0.0512546 0 0
v -0.05480838 0 -0.03234871
v 0.0512546 0 -0.03234871
v -0.3159926 0.2866202 0.03234882
v -0.3159926 0.2866202 -7.629394E-08
v 0.1104517 1.188146 0.03234892
v 0.1104517 1.188146 1.61438E-08
v -0.01945382 1.135197 0.03234887
v -0.2558408 0.6924211 0.03234884
v -0.2841548 0.8603538 0.03234884
v -0.0838841 0.9267794 0.03234884
v 0.08888456 1.05432 0.03234892
v -0.01945382 1.135197 1.61438E-08
v 0.08888456 1.05432 1.61438E-08
v -0.2558408 0.6924211 -1.364441E-07
v -0.2841548 0.8603538 -1.364441E-07
v -0.0838841 0.9267794 -1.364441E-07
v -0.0548084 0.7948724 7.271767E-08
v 0.05125458 0.6776177 -3.576279E-09
v -0.01564067 0.7515717 -3.576278E-09
v 0.05125457 0.9027176 -3.576279E-09
v -0.0548084 0.7957032 -0.03234871
v 0.05125458 0.6540977 -0.03234901
v -0.009846459 0.7356742 -0.03234871
v 0.05125456 0.9288754 -0.03234871
v -0.05480838 0 -0.03234871
v 0.0512546 0 -0.03234871
v 0.05125458 0.6540977 -0.03234901
v 0.0512546 0 -0.03234871
v 0.0512546 0 0
v -0.05480838 0 -0.03234871
v -0.05480838 0 0
v -0.0548084 0.7957032 -0.03234871
v 0.3830298 0.5715351 0
v 0.3830298 0.5715351 0.03234886
v 0.3830298 0.5715351 0.03234886
v 0.1104517 1.188146 0.03234892
v 0.08888456 1.05432 0.03234892
v 0.1104517 1.188146 1.61438E-08
v 0.1104517 1.188146 0.03234892
v -0.2558408 0.6924211 -1.364441E-07
v -0.3159926 0.2866202 0.03234882
v -0.3159926 0.2866202 -7.629394E-08
v -0.2841548 0.8603538 0.03234884
v -0.2841548 0.8603538 -1.364441E-07
v -0.01945382 1.135197 1.61438E-08
v -0.0838841 0.9267794 0.03234884
v -0.0838841 0.9267794 -1.364441E-07
v -0.01945382 1.135197 0.03234887
v 0.05125458 0.6776177 -3.576279E-09
v 0.0512546 0 0
v -0.05480838 0 0
v -0.0548084 0.7948724 7.271767E-08
v 0.05125457 0.9027176 -3.576279E-09
v 0.05125456 0.9288754 -0.03234871
v 0.05125456 0.9288754 -0.03234871
v -0.01564067 0.7515717 -3.576278E-09
v -0.009846459 0.7356742 -0.03234871
v 0.05125457 0.9027176 -3.576279E-09
v -0.0548084 0.7948724 7.271767E-08
v -0.0548084 0.7957032 -0.03234871
v 0.1104517 1.188146 1.61438E-08
v 0.08888456 1.05432 1.61438E-08
v -0.3159926 0.2866202 0.03234882
v -0.2558408 0.6924211 0.03234884
v -0.0838841 0.9267794 0.03234884
v -0.01945382 1.135197 0.03234887
v -0.2841548 0.8603538 0.03234884
v -0.01945382 1.135197 1.61438E-08
v -0.0838841 0.9267794 -1.364441E-07
v -0.2841548 0.8603538 -1.364441E-07
vt 0.9886929 0.2425385
vt 0.9886929 0.2425385
vt 0.9875634 0.5134847
vt 0.9875634 0.5134847
vt 0.9895705 0.6572183
vt 0.9895705 0.6572183
vt 0.9886929 0.04790299
vt 0.9886929 0.04790299
vt 0.9886929 0.2425385
vt 0.9886929 0.2425385
vt 0.9869976 0.4718516
vt 0.9886929 0.2425385
vt 0.9886929 0.2425385
vt 0.9869976 0.4718516
vt 0.9111088 0.7969632
vt 0.9869976 0.4718516
vt 0.9869976 0.4718516
vt 0.9886929 0.04790299
vt 0.9886929 0.2425385
vt 0.9869976 0.4718516
vt 0.988362 0.733837
vt 0.988362 0.733837
vt 0.9895705 0.8279518
vt 0.988362 0.733837
vt 0.9895705 0.6572183
vt 0.9895705 0.6572183
vt 0.9895705 0.6572183
vt 0.988362 0.733837
vt 0.9875634 0.5134847
vt 0.9875634 0.5134847
vt 0.988362 0.733837
vt 0.988362 0.733837
vt 0.988362 0.733837
vt 0.988362 0.733837
vt 0.988362 0.733837
vt 0.988362 0.733837
vt 0.9886929 0.04790299
vt 0.9886929 0.04790299
vt 0.9615215 0.5030925
vt 0.9529501 0.8578686
vt 0.9869976 0.4718516
vt 0.9869976 0.4718516
vt 0.9869976 0.4718516
vt 0.9886929 0.2425385
vt 0.9886929 0.2425385
vt 0.9886929 0.2425385
vt 0.9869976 0.4718516
vt 0.9869976 0.4718516
vt 0.9886929 0.2425385
vt 0.9886929 0.2425385
vt 0.9886929 0.2425385
vt 0.9886929 0.2425385
vt 0.9895705 0.8279518
vt 0.9895705 0.8279518
vt 0.9895705 0.8279518
vt 0.9895705 0.8279518
vt 0.9895705 0.8279518
vt 0.9895705 0.8279518
vt 0.9882347 0.9931388
vt 0.9882347 0.9931388
vt 0.9882347 0.9931388
vt 0.9882347 0.9931388
vt 0.9882347 0.9931388
vt 0.9882347 0.9931388
vt 0.9886929 0.04790299
vt 0.9886929 0.04790299
vt 0.5239997 0.5062647
vt 0.645454 0.6909536
vt 0.789761 0.7718668
vt 0.8736297 0.8594413
vt 0.6670223 0.7793588
vt 0.9886929 0.04790299
vt 0.9886929 0.04790299
vt 0.9886929 0.04790299
vn 0.305037 -0.12317 0.9443419
vn 0.3050372 -0.1231699 -0.9443418
vn -0.5773502 -0.5773503 0.5773503
vn 0.5773504 -0.5773501 0.5773503
vn -0.5773508 -0.57735 -0.57735
vn 0.5773497 -0.5773506 -0.5773505
vn 0.266892 -0.6548043 0.7071068
vn -0.4345636 -0.5536605 -0.7103623
vn 0.6467337 0.2858942 0.7071067
vn -0.0631617 0.4898911 -0.8694926
vn -0.309676 0.9508421 0
vn -0.9999506 -0.009936888 0
vn -0.8568069 0.5156375 0
vn -0.7142966 0.6998432 0
vn 0 -1.253309E-07 1
vn -0.233978 0.7184174 -0.6550807
vn -0.1727168 0.4263875 -0.8878979
vn -0.7026779 -0.00698288 -0.7114739
vn -0.7155501 0.4306273 -0.5500437
vn -0.4746242 0.4650208 -0.7473201
vn -0.1990369 0.5523111 0.8095288
vn 0.4472137 0 0.8944271
vn -0.07662448 0.4573792 0.8859645
vn 0.06098462 0.3368878 0.9395677
vn -0.1788724 0.4963523 -0.8494935
vn 0.4472118 4.612546E-07 -0.894428
vn -0.07037356 0.4200536 -0.9047666
vn 0.05795026 0.3201441 -0.9455948
vn -0.5773508 -0.57735 -0.57735
vn 0.5773497 -0.5773506 -0.5773505
vn 0.4472118 4.612546E-07 -0.894428
vn 0.5773497 -0.5773506 -0.5773505
vn 0.5773504 -0.5773501 0.5773503
vn -0.5773508 -0.57735 -0.57735
vn -0.5773502 -0.5773503 0.5773503
vn -0.1788724 0.4963523 -0.8494935
vn 0.3050372 -0.1231699 -0.9443418
vn 0.305037 -0.12317 0.9443419
vn 0.305037 -0.12317 0.9443419
vn 0.6467337 0.2858942 0.7071067
vn -0.3754386 0.9268472 0
vn -0.0631617 0.4898911 -0.8694926
vn -0.9872615 0.1591062 0
vn -0.7026779 -0.00698288 -0.7114739
vn -0.9891917 0.1466276 0
vn -0.4345636 -0.5536605 -0.7103623
vn -0.8568069 0.5156375 0
vn -0.7155501 0.4306273 -0.5500437
vn -0.233978 0.7184174 -0.6550807
vn -0.7142966 0.6998432 0
vn -0.4746242 0.4650208 -0.7473201
vn -0.309676 0.9508421 0
vn 0.4472137 0 0.8944271
vn 0.5773504 -0.5773501 0.5773503
vn -0.5773502 -0.5773503 0.5773503
vn -0.1990369 0.5523111 0.8095288
vn 0.06098462 0.3368878 0.9395677
vn 0.05795026 0.3201441 -0.9455948
vn 0.05795026 0.3201441 -0.9455948
vn -0.07662448 0.4573792 0.8859645
vn -0.07037356 0.4200536 -0.9047666
vn 0.06098462 0.3368878 0.9395677
vn -0.1990369 0.5523111 0.8095288
vn -0.1788724 0.4963523 -0.8494935
vn -0.0631617 0.4898911 -0.8694926
vn -0.1727168 0.4263875 -0.8878979
vn 0.266892 -0.6548043 0.7071068
vn 0 0 1
vn -1.444937E-07 -1.049749E-07 1
vn -2.667686E-07 -2.258692E-07 1
vn 0 0 1
vn -0.233978 0.7184174 -0.6550807
vn -0.4746242 0.4650208 -0.7473201
vn -0.7155501 0.4306273 -0.5500437
g electionSignLois_broken_geo_0
f 10/10/10 1/1/1 2/2/2
f 9/9/9 1/1/1 10/10/10
f 26/26/26 27/27/27 58/58/58
f 5/5/5 27/27/27 26/26/26
f 6/6/6 5/5/5 26/26/26
f 25/25/25 27/27/27 5/5/5
f 4/4/4 29/29/29 30/30/30
f 3/3/3 29/29/29 4/4/4
f 22/22/22 28/28/28 24/24/24
f 31/31/31 28/28/28 22/22/22
f 33/33/33 31/31/31 22/22/22
f 32/32/32 31/31/31 33/33/33
f 21/21/21 34/34/34 35/35/35
f 36/36/36 34/34/34 21/21/21
f 37/37/37 8/8/8 18/18/18
f 7/7/7 8/8/8 37/37/37
f 38/38/38 7/7/7 37/37/37
f 69/69/69 71/71/71 68/68/68
f 39/39/39 69/69/69 68/68/68
f 15/15/15 69/69/69 39/39/39
f 40/40/40 15/15/15 39/39/39
f 41/41/41 43/43/43 42/42/42
f 17/17/17 41/41/41 42/42/42
f 11/11/11 41/41/41 17/17/17
f 16/16/16 11/11/11 17/17/17
f 12/12/12 13/13/13 19/19/19
f 44/44/44 12/12/12 19/19/19
f 45/45/45 12/12/12 44/44/44
f 46/46/46 45/45/45 44/44/44
f 47/47/47 20/20/20 48/48/48
f 14/14/14 20/20/20 47/47/47
f 50/50/50 49/49/49 51/51/51
f 52/52/52 49/49/49 50/50/50
f 55/55/55 23/23/23 56/56/56
f 53/53/53 23/23/23 55/55/55
f 54/54/54 53/53/53 55/55/55
f 57/57/57 23/23/23 53/53/53
f 61/61/61 64/64/64 63/63/63
f 60/60/60 61/61/61 63/63/63
f 59/59/59 61/61/61 60/60/60
f 62/62/62 59/59/59 60/60/60
f 37/37/37 66/66/66 65/65/65
f 72/72/72 66/66/66 37/37/37
f 73/73/73 72/72/72 37/37/37
f 68/68/68 67/67/67 39/39/39
f 70/70/70 69/69/69 15/15/15
f 74/74/74 37/37/37 18/18/18
f 73/73/73 37/37/37 74/74/74
