g electionStewie_geo
v -0.3135475 0.3792409 0.02727242
v 0.3105514 0.3792409 0.02727242
v -0.3135475 1.188083 0.02727242
v 0.3105514 1.188083 0.02727242
v -0.3135475 1.188083 1.105522E-08
v 0.3105514 1.188083 1.105522E-08
v -0.3135475 0.3792409 1.105522E-08
v 0.3105514 0.3792409 1.105522E-08
v -0.02259332 -0.4267982 2.010039E-09
v 0.01959724 -0.4267982 2.010039E-09
v -0.02259332 1.278975 2.010039E-09
v 0.01959724 1.278975 2.010039E-09
v -0.02259332 1.278975 -0.04139649
v 0.01959724 1.278975 -0.04139649
v -0.02259332 -0.4267982 -0.04139649
v 0.01959724 -0.4267982 -0.04139649
v -0.3135475 1.188083 0.02727242
v 0.3105514 1.188083 0.02727242
v -0.3135475 1.188083 1.105522E-08
v 0.3105514 1.188083 1.105522E-08
v 0.3105514 0.3792409 0.02727242
v -0.3135475 0.3792409 0.02727242
v 0.3105514 0.3792409 0.02727242
v 0.3105514 1.188083 1.105522E-08
v 0.3105514 0.3792409 1.105522E-08
v 0.3105514 1.188083 0.02727242
v -0.3135475 0.3792409 1.105522E-08
v -0.3135475 1.188083 0.02727242
v -0.3135475 0.3792409 0.02727242
v -0.3135475 1.188083 1.105522E-08
v -0.02259332 1.278975 2.010039E-09
v 0.01959724 1.278975 2.010039E-09
v -0.02259332 1.278975 -0.04139649
v 0.01959724 1.278975 -0.04139649
v -0.02259332 -0.4267982 -0.04139649
v 0.01959724 -0.4267982 2.010039E-09
v 0.01959724 -0.4267982 -0.04139649
v -0.02259332 -0.4267982 2.010039E-09
v 0.01959724 -0.4267982 2.010039E-09
v 0.01959724 1.278975 -0.04139649
v 0.01959724 -0.4267982 -0.04139649
v 0.01959724 1.278975 2.010039E-09
v -0.02259332 -0.4267982 -0.04139649
v -0.02259332 1.278975 2.010039E-09
v -0.02259332 -0.4267982 2.010039E-09
v -0.02259332 1.278975 -0.04139649
vt 0.006233223 0.003740113
vt 0.4867373 0.003740113
vt 0.006233223 0.4922723
vt 0.4867373 0.4922723
vt 0.9903881 0.4756235
vt 0.9903881 0.4756235
vt 0.9885232 0.0338915
vt 0.9885232 0.0338915
vt 0.9878377 0.8382316
vt 0.9878377 0.8382316
vt 0.9878377 0.8382316
vt 0.9878377 0.8382316
vt 0.9890012 0.9866989
vt 0.9890012 0.9866989
vt 0.9878377 0.8382316
vt 0.9878377 0.8382316
vt 0.9903881 0.4756235
vt 0.9903881 0.4756235
vt 0.9885232 0.0338915
vt 0.9885232 0.0338915
vt 0.9885232 0.0338915
vt 0.9885232 0.0338915
vt 0.9903881 0.232037
vt 0.9903881 0.232037
vt 0.9903881 0.232037
vt 0.9903881 0.232037
vt 0.9903881 0.232037
vt 0.9903881 0.232037
vt 0.9903881 0.232037
vt 0.9903881 0.232037
vt 0.9890012 0.9866989
vt 0.9890012 0.9866989
vt 0.9878377 0.8382316
vt 0.9878377 0.8382316
vt 0.9890902 0.5353873
vt 0.9890902 0.5353873
vt 0.9890902 0.5353873
vt 0.9890902 0.5353873
vt 0.9909552 0.7280215
vt 0.9909552 0.7280215
vt 0.9909552 0.7280215
vt 0.9909552 0.7280215
vt 0.9909552 0.7280215
vt 0.9909552 0.7280215
vt 0.9909552 0.7280215
vt 0.9909552 0.7280215
vn -0.5773503 -0.5773503 0.5773503
vn 0.5773503 -0.5773503 0.5773503
vn -0.5773503 0.5773503 0.5773503
vn 0.5773503 0.5773503 0.5773503
vn -0.5773503 0.5773503 -0.5773503
vn 0.5773503 0.5773503 -0.5773503
vn -0.5773503 -0.5773503 -0.5773503
vn 0.5773503 -0.5773503 -0.5773503
vn -0.5773503 -0.5773503 0.5773503
vn 0.5773503 -0.5773503 0.5773503
vn -0.5773503 0.5773503 0.5773503
vn 0.5773503 0.5773503 0.5773503
vn -0.5773503 0.5773503 -0.5773503
vn 0.5773503 0.5773503 -0.5773503
vn -0.5773503 -0.5773503 -0.5773503
vn 0.5773503 -0.5773503 -0.5773503
vn -0.5773503 0.5773503 0.5773503
vn 0.5773503 0.5773503 0.5773503
vn -0.5773503 0.5773503 -0.5773503
vn 0.5773503 0.5773503 -0.5773503
vn 0.5773503 -0.5773503 0.5773503
vn -0.5773503 -0.5773503 0.5773503
vn 0.5773503 -0.5773503 0.5773503
vn 0.5773503 0.5773503 -0.5773503
vn 0.5773503 -0.5773503 -0.5773503
vn 0.5773503 0.5773503 0.5773503
vn -0.5773503 -0.5773503 -0.5773503
vn -0.5773503 0.5773503 0.5773503
vn -0.5773503 -0.5773503 0.5773503
vn -0.5773503 0.5773503 -0.5773503
vn -0.5773503 0.5773503 0.5773503
vn 0.5773503 0.5773503 0.5773503
vn -0.5773503 0.5773503 -0.5773503
vn 0.5773503 0.5773503 -0.5773503
vn -0.5773503 -0.5773503 -0.5773503
vn 0.5773503 -0.5773503 0.5773503
vn 0.5773503 -0.5773503 -0.5773503
vn -0.5773503 -0.5773503 0.5773503
vn 0.5773503 -0.5773503 0.5773503
vn 0.5773503 0.5773503 -0.5773503
vn 0.5773503 -0.5773503 -0.5773503
vn 0.5773503 0.5773503 0.5773503
vn -0.5773503 -0.5773503 -0.5773503
vn -0.5773503 0.5773503 0.5773503
vn -0.5773503 -0.5773503 0.5773503
vn -0.5773503 0.5773503 -0.5773503
g electionStewie_geo_0
f 4/4/4 1/1/1 2/2/2
f 3/3/3 1/1/1 4/4/4
f 6/6/6 17/17/17 18/18/18
f 5/5/5 17/17/17 6/6/6
f 7/7/7 21/21/21 22/22/22
f 8/8/8 21/21/21 7/7/7
f 19/19/19 8/8/8 7/7/7
f 20/20/20 8/8/8 19/19/19
f 24/24/24 23/23/23 25/25/25
f 26/26/26 23/23/23 24/24/24
f 28/28/28 27/27/27 29/29/29
f 30/30/30 27/27/27 28/28/28
f 12/12/12 9/9/9 10/10/10
f 11/11/11 9/9/9 12/12/12
f 14/14/14 31/31/31 32/32/32
f 13/13/13 31/31/31 14/14/14
f 16/16/16 33/33/33 34/34/34
f 15/15/15 33/33/33 16/16/16
f 36/36/36 35/35/35 37/37/37
f 38/38/38 35/35/35 36/36/36
f 40/40/40 39/39/39 41/41/41
f 42/42/42 39/39/39 40/40/40
f 44/44/44 43/43/43 45/45/45
f 46/46/46 43/43/43 44/44/44
