g fedora_geo
v -0.1111738 1.582024 -0.4242216
v -0.2664551 1.606083 -0.3610497
v -0.001699722 1.574888 -0.4353828
v -0.3272256 1.643617 -0.261355
v 0.2668058 1.606083 -0.3610497
v 0.1082283 1.580999 -0.4237147
v 0.3440327 1.697283 -0.1421618
v 0.3238026 1.643106 -0.2611893
v -0.2071845 1.776105 0.1837944
v 0.0001753368 1.780449 0.2562211
v -0.2772658 1.761957 0.09400567
v -0.3375946 1.742124 0.009221763
v -0.3474394 1.696999 -0.1420939
v 0.1152161 1.780682 0.2396117
v 0.2075352 1.776105 0.1837944
v 0.290332 1.767413 0.1045524
v 0.3217845 1.74531 -0.002527199
v 0.0001753368 1.950642 -0.1267606
v 0.0001753368 1.962167 -0.05664772
v 0.0001753368 1.899593 -0.2803228
v -0.05462505 1.978224 -0.07121601
v -0.09770286 1.891369 -0.2730696
v -0.146433 1.864806 -0.2417137
v -0.09573301 1.620544 -0.2645531
v 3.104931E-06 1.615333 -0.2915596
v 0.0001753368 1.845028 -0.3327163
v -0.1084534 1.836838 -0.3060024
v -0.1494309 1.891584 -0.1876116
v 0.0001753368 1.925149 -0.2219115
v 3.222376E-09 1.755804 0.1259968
v -0.2013433 1.703672 -0.05876241
v -0.2008072 1.679921 -0.1511191
v -0.1669733 1.647777 -0.2215367
v -0.18512 1.773133 -0.07910683
v -0.1788348 1.729147 -0.1879914
v -0.1040505 1.710696 -0.2751733
v 0.0001109897 1.703837 -0.3050643
v 0.0001753368 1.831622 0.07130153
v -0.1001818 1.827266 0.0552182
v -0.1224976 1.889657 -0.07257946
v -0.07364972 1.914636 -0.01110775
v -0.07324324 1.919416 -0.2118872
v 0.0001753368 1.915504 0.006285896
v -0.06640974 1.917743 -0.06355961
v -0.04458923 1.942333 -0.03093979
v -0.107501 1.902044 -0.1094545
v -0.04819785 1.962062 -0.1467033
v -0.1007434 1.945536 -0.1350968
v 0.05497572 1.978224 -0.07121601
v 0.1078516 1.902044 -0.1094545
v 0.09805355 1.891369 -0.2730696
v 0.1467837 1.864806 -0.2417137
v 0.09392799 1.620762 -0.2694557
v 0.1088041 1.838762 -0.2893056
v 0.1497815 1.891584 -0.1876116
v 0.1972297 1.703947 -0.05415216
v 0.1974269 1.678744 -0.1494003
v 0.1518818 1.647174 -0.2239425
v 0.1848313 1.778398 -0.07815997
v 0.1790568 1.729147 -0.1879914
v 0.1020529 1.706378 -0.2830974
v 0.1053618 1.824628 0.05823036
v 0.1254542 1.891146 -0.06846514
v 0.0740004 1.91573 -0.001617241
v 0.07359391 1.919416 -0.2118872
v 0.06676041 1.917743 -0.06355961
v 0.04493989 1.942333 -0.03093979
v 0.04854852 1.962062 -0.1467033
v 0.101094 1.945536 -0.1350968
v 0.0001753368 1.947982 -0.02276466
v 0.08038753 1.753009 0.1024226
v 0.1474479 1.735065 0.03789282
v -0.08148191 1.753087 0.1024066
v -0.09108971 1.779429 0.2432079
v -0.1477347 1.735063 0.03742952
v 0.09730949 1.619341 -0.2765653
v -8.807012E-05 1.613167 -0.2992604
v -0.09807711 1.619377 -0.2721125
v -0.1525907 1.736789 0.04256049
v -0.08196229 1.754404 0.1094467
v 8.769904E-06 1.757036 0.132508
v 0.08426324 1.754543 0.109251
v 0.1537864 1.736989 0.04237852
v -0.1717458 1.647577 -0.227954
v -0.2087387 1.680844 -0.1506309
v -0.2091617 1.704157 -0.0571384
v 0.2048189 1.706473 -0.05429266
v 0.2052823 1.679717 -0.1505603
v 0.1584624 1.64699 -0.2284879
v -0.1040505 1.710696 -0.2751733
v -0.1669733 1.647777 -0.2215367
v -0.09573301 1.620544 -0.2645531
v 0.0001109897 1.703837 -0.3050643
v 3.104931E-06 1.615333 -0.2915596
v -0.1788348 1.729147 -0.1879914
v -0.1494309 1.891584 -0.1876116
v -0.1007434 1.945536 -0.1350968
v 0.0001753368 1.845028 -0.3327163
v 0.0001109897 1.703837 -0.3050643
v 0.1518818 1.647174 -0.2239425
v 0.1974269 1.678744 -0.1494003
v 0.1020529 1.706378 -0.2830974
v 0.09392799 1.620762 -0.2694557
v 0.0001109897 1.703837 -0.3050643
v 3.104931E-06 1.615333 -0.2915596
v 0.1790568 1.729147 -0.1879914
v 0.0001753368 1.899593 -0.2803228
v 0.1497815 1.891584 -0.1876116
v 0.0001753368 1.950642 -0.1267606
v 0.0001753368 1.925149 -0.2219115
v 0.101094 1.945536 -0.1350968
v -0.05462505 1.978224 -0.07121601
v 0.0001753368 1.962167 -0.05664772
v 0.05497572 1.978224 -0.07121601
v 0.0001753368 1.962167 -0.05664772
v 0.0001753368 1.947982 -0.02276466
v -0.2013433 1.703672 -0.05876241
v -0.2008072 1.679921 -0.1511191
v -0.18512 1.773133 -0.07910683
v -0.1224976 1.889657 -0.07257946
v -0.1001818 1.827266 0.0552182
v -0.07364972 1.914636 -0.01110775
v -0.08148191 1.753087 0.1024066
v 0.1972297 1.703947 -0.05415216
v 0.1474479 1.735065 0.03789282
v 0.1254542 1.891146 -0.06846514
v 0.1848313 1.778398 -0.07815997
v 0.1053618 1.824628 0.05823036
v 0.0740004 1.91573 -0.001617241
v 0.0001753368 1.915504 0.006285896
v 3.222376E-09 1.755804 0.1259968
v 0.0001753368 1.831622 0.07130153
v 0.0001753368 1.915504 0.006285896
v 0.08038753 1.753009 0.1024226
v -0.1477347 1.735063 0.03742952
v -8.807012E-05 1.613167 -0.2992604
v 0.09730949 1.619341 -0.2765653
v -0.09807711 1.619377 -0.2721125
v -0.08196229 1.754404 0.1094467
v -0.1525907 1.736789 0.04256049
v 8.769904E-06 1.757036 0.132508
v 8.769904E-06 1.757036 0.132508
v 0.08426324 1.754543 0.109251
v 0.0001753368 1.780449 0.2562211
v 0.1537864 1.736989 0.04237852
v -0.1717458 1.647577 -0.227954
v -0.2087387 1.680844 -0.1506309
v -0.2091617 1.704157 -0.0571384
v 0.2048189 1.706473 -0.05429266
v 0.2052823 1.679717 -0.1505603
v 0.1584624 1.64699 -0.2284879
vt 0.9355924 0.9869751
vt 0.9293473 0.9875157
vt 0.9411547 0.9869073
vt 0.9226511 0.9880227
vt 0.9526045 0.9874817
vt 0.9464954 0.9869059
vt 0.965629 0.9880579
vt 0.95943 0.987965
vt 0.8958049 0.9913687
vt 0.875904 0.990249
vt 0.9043436 0.990237
vt 0.9104363 0.9888905
vt 0.9163942 0.9882339
vt 0.9881949 0.9886786
vt 0.9844068 0.9892518
vt 0.9774772 0.9889421
vt 0.9717891 0.988335
vt 0.8605442 0.9455339
vt 0.8738454 0.9371428
vt 0.8332548 0.9502686
vt 0.8626491 0.931129
vt 0.8337168 0.9370462
vt 0.8340188 0.9297784
vt 0.9945067 0.7556013
vt 0.9945068 0.7556013
vt 0.8222677 0.9483553
vt 0.8269987 0.9349056
vt 0.8347337 0.8536216
vt 0.8435233 0.9497997
vt 0.9945067 0.7556013
vt 0.9945068 0.7556013
vt 0.9945068 0.7556013
vt 0.9945067 0.7556013
vt 0.8411325 0.8859038
vt 0.8191874 0.8901498
vt 0.8138209 0.9257755
vt 0.8058491 0.9382254
vt 0.874495 0.9006799
vt 0.8608325 0.883374
vt 0.8519915 0.918274
vt 0.8630407 0.9162176
vt 0.8423662 0.9383583
vt 0.874261 0.9138138
vt 0.9269252 0.8304886
vt 0.9568681 0.8314678
vt 0.8876207 0.8345947
vt 0.8541232 0.9384955
vt 0.8896292 0.8663552
vt 0.8060406 0.8198898
vt 0.8640878 0.7922783
vt 0.9146619 0.9389005
vt 0.9145852 0.9315161
vt 0.9945067 0.7556013
vt 0.9208362 0.9362181
vt 0.9080474 0.9288761
vt 0.9945067 0.7556013
vt 0.9945067 0.7556013
vt 0.9945067 0.7556013
vt 0.9083921 0.8867475
vt 0.9287943 0.8921307
vt 0.9361235 0.928368
vt 0.8883656 0.8836377
vt 0.855709 0.7647117
vt 0.8849837 0.9157919
vt 0.9056357 0.9399259
vt 0.824569 0.79049
vt 0.794404 0.7930581
vt 0.8936152 0.9395263
vt 0.8592572 0.8179908
vt 0.9876906 0.8376479
vt 0.8869751 0.8755521
vt 0.9945067 0.7556013
vt 0.9945068 0.7556013
vt 0.8847321 0.9911988
vt 0.8447967 0.8771249
vt 0.9945067 0.7556013
vt 0.9945068 0.7556013
vt 0.9945067 0.7556013
vt 0.9945068 0.7556013
vt 0.9945068 0.7556013
vt 0.9945067 0.7556013
vt 0.9945068 0.7556013
vt 0.9945067 0.7556013
vt 0.9945067 0.7556013
vt 0.9945068 0.7556013
vt 0.9945068 0.7556013
vt 0.9945067 0.7556013
vt 0.9945067 0.7556013
vt 0.9945067 0.7556013
vt 0.8004991 0.8983732
vt 0.8080904 0.8873716
vt 0.7954126 0.8948629
vt 0.7904593 0.9066809
vt 0.7842184 0.9060087
vt 0.8282449 0.9123616
vt 0.8404412 0.9275121
vt 0.8510538 0.9307094
vt 0.9259375 0.9515513
vt 0.9438334 0.9415957
vt 0.9417163 0.8897319
vt 0.9296937 0.8849251
vt 0.947461 0.9009386
vt 0.9539117 0.8963518
vt 0.9568175 0.9094105
vt 0.9664912 0.9083181
vt 0.9210683 0.9135742
vt 0.9143734 0.952751
vt 0.9041411 0.8004967
vt 0.8867492 0.9463183
vt 0.903834 0.9516246
vt 0.8970675 0.9317885
vt 0.9430075 0.8650976
vt 0.9813973 0.8602657
vt 0.8853408 0.9316829
vt 0.7747125 0.8189809
vt 0.7693624 0.802175
vt 0.8371303 0.8781582
vt 0.8197686 0.8828105
vt 0.8457904 0.9046489
vt 0.893713 0.8091208
vt 0.8627075 0.9010229
vt 0.9448252 0.8037041
vt 0.8618796 0.8753595
vt 0.9124466 0.8785408
vt 0.9051155 0.8775032
vt 0.896376 0.9187073
vt 0.9035484 0.9058582
vt 0.886351 0.9014007
vt 0.8010617 0.7624174
vt 0.7609164 0.7756182
vt 0.8747783 0.8757735
vt 0.8745592 0.8831348
vt 0.9952779 0.8103793
vt 0.9945068 0.7556013
vt 0.9945068 0.7556013
vt 0.9415038 0.98155
vt 0.9515042 0.9815521
vt 0.9307809 0.9816442
vt 0.8866979 0.9817646
vt 0.8989247 0.9817538
vt 0.8763837 0.9817171
vt 0.9924374 0.9815742
vt 0.9887394 0.9816384
vt 0.9926065 0.987394
vt 0.9816011 0.9816839
vt 0.9214492 0.9817045
vt 0.9137187 0.9817532
vt 0.9042963 0.9817959
vt 0.9774516 0.981733
vt 0.9679471 0.9815937
vt 0.9611592 0.9816119
vn 0.03336654 0.9680633 -0.2484759
vn 0.06702993 0.9526917 -0.296455
vn 0.000682492 0.9661352 -0.2580357
vn 0.07651706 0.9269271 -0.3673572
vn -0.06313658 0.9510247 -0.3025985
vn -0.03282046 0.9654537 -0.2584993
vn -0.1032629 0.9321612 -0.3470047
vn -0.07316703 0.9279 -0.3655794
vn 0.06956331 0.9718698 -0.2250111
vn -0.004437097 0.982485 -0.1862887
vn 0.09071184 0.9521742 -0.2917801
vn 0.1190344 0.9498456 -0.2891786
vn 0.09423168 0.939629 -0.3289647
vn -0.03110236 0.9781532 -0.2055451
vn -0.07457751 0.9717605 -0.2238746
vn -0.1253128 0.9546304 -0.2701431
vn -0.1680478 0.9442612 -0.2830737
vn 0 0.976374 -0.2160873
vn 0 0.9754449 0.2202436
vn 0.01599799 0.7861528 -0.617825
vn -0.4608266 0.8396018 0.2875895
vn -0.377054 0.7513701 -0.541547
vn -0.8094977 0.3828916 -0.4450928
vn -0.2457738 0.6278855 -0.7384816
vn -0.02139563 0.5721109 -0.8198971
vn 0.02887017 0.2306878 -0.9725994
vn -0.5333865 0.2244314 -0.8155546
vn -0.7697935 0.635603 -0.0585392
vn 0 0.9206537 -0.3903802
vn -0.003798997 0.9216698 0.3879567
vn -0.5893707 0.8041915 -0.07693084
vn -0.6799859 0.6539206 -0.3316729
vn -0.3929304 0.6887023 -0.6093397
vn -0.9280381 0.3359338 0.1609154
vn -0.9218149 0.1342558 -0.3636381
vn -0.5249255 -0.112219 -0.8437181
vn -0.003599498 -0.1651163 -0.9862676
vn -0.01500219 0.5751326 0.8179227
vn -0.5908472 0.4780735 0.6498809
vn -0.7125531 0.6855845 0.1491375
vn -0.5207867 0.7482857 0.4109132
vn -0.2891312 0.8652118 -0.4096481
vn -0.02963097 0.6610173 0.7497853
vn -0.7764228 0.5792227 0.2483316
vn -0.5281743 0.7033697 0.4757132
vn -0.6888148 0.6647 0.2893235
vn -0.05275418 0.9420417 -0.3313224
vn -0.701793 0.7081624 0.07741282
vn 0.4608268 0.8396016 0.2875894
vn 0.6709417 0.6883819 0.2756223
vn 0.3963635 0.704756 -0.5884004
vn 0.8000775 0.3540266 -0.4842943
vn 0.2655344 0.5907573 -0.7619039
vn 0.5272989 0.1886705 -0.8284681
vn 0.7623813 0.6434363 -0.06902663
vn 0.5324746 0.8398433 -0.1055182
vn 0.690813 0.6292786 -0.35607
vn 0.4446746 0.6293136 -0.6373609
vn 0.9472039 0.2976197 0.1192782
vn 0.9265036 0.09158693 -0.3649697
vn 0.5329469 -0.1076527 -0.8392726
vn 0.5903976 0.4466815 0.6722397
vn 0.6971416 0.7052308 0.1290079
vn 0.4933583 0.7686182 0.4072144
vn 0.2891313 0.8652121 -0.4096475
vn 0.7707428 0.5895292 0.2416834
vn 0.5105007 0.7232045 0.4651498
vn 0.05275411 0.9420413 -0.3313235
vn 0.7017929 0.7081624 0.07741269
vn -0.01677554 0.771524 0.635979
vn 0.2887615 0.890675 0.351162
vn 0.5048199 0.8501176 0.1498567
vn -0.2961017 0.8913592 0.3432237
vn 0.02826492 0.979035 -0.2017215
vn -0.6354251 0.7380277 0.2270464
vn -0.06764023 0.9575608 -0.2801821
vn -0.00105666 0.9704354 -0.2413583
vn 0.07680345 0.9637131 -0.2556528
vn 0.03543679 0.9623305 -0.2695629
vn 0.01591045 0.9777862 -0.2089998
vn -0.00319913 0.9821143 -0.1882588
vn -0.02602747 0.9748431 -0.2213673
vn -0.07945945 0.9539493 -0.2892526
vn 0.147663 0.9368627 -0.3169918
vn 0.1107739 0.945859 -0.3050898
vn 0.06868326 0.9531577 -0.2945728
vn -0.160303 0.9376934 -0.3082761
vn -0.1524816 0.937852 -0.3117419
vn -0.1272155 0.9350817 -0.3308145
vn -0.5249255 -0.112219 -0.8437181
vn -0.3929304 0.6887023 -0.6093397
vn -0.2457738 0.6278855 -0.7384816
vn -0.003599498 -0.1651163 -0.9862676
vn -0.02139563 0.5721109 -0.8198971
vn -0.9218149 0.1342558 -0.3636381
vn -0.7697935 0.635603 -0.0585392
vn -0.701793 0.7081624 0.07741282
vn 0.02887017 0.2306878 -0.9725994
vn -0.003599498 -0.1651163 -0.9862676
vn 0.4446746 0.6293136 -0.6373609
vn 0.690813 0.6292786 -0.35607
vn 0.5329469 -0.1076527 -0.8392726
vn 0.2655344 0.5907573 -0.7619039
vn -0.003599498 -0.1651163 -0.9862676
vn -0.02139563 0.5721109 -0.8198971
vn 0.9265036 0.09158693 -0.3649697
vn 0.01599799 0.7861528 -0.617825
vn 0.7623813 0.6434363 -0.06902663
vn 0 0.976374 -0.2160873
vn 0 0.9206537 -0.3903802
vn 0.7017929 0.7081624 0.07741269
vn -0.4608266 0.8396018 0.2875895
vn 0 0.9754449 0.2202436
vn 0.4608268 0.8396016 0.2875894
vn 0 0.9754449 0.2202436
vn -0.01677554 0.771524 0.635979
vn -0.5893707 0.8041915 -0.07693084
vn -0.6799859 0.6539206 -0.3316729
vn -0.9280381 0.3359338 0.1609154
vn -0.7125531 0.6855845 0.1491375
vn -0.5908472 0.4780735 0.6498809
vn -0.5207867 0.7482857 0.4109132
vn -0.2961017 0.8913592 0.3432237
vn 0.5324746 0.8398433 -0.1055182
vn 0.5048199 0.8501176 0.1498567
vn 0.6971416 0.7052308 0.1290079
vn 0.9472039 0.2976197 0.1192782
vn 0.5903976 0.4466815 0.6722397
vn 0.4933583 0.7686182 0.4072144
vn -0.02963097 0.6610173 0.7497853
vn -0.003798997 0.9216698 0.3879567
vn -0.01500219 0.5751326 0.8179227
vn -0.02963097 0.6610173 0.7497853
vn 0.2887615 0.890675 0.351162
vn -0.6354251 0.7380277 0.2270464
vn -0.00105666 0.9704354 -0.2413583
vn -0.06764023 0.9575608 -0.2801821
vn 0.07680345 0.9637131 -0.2556528
vn 0.01591045 0.9777862 -0.2089998
vn 0.03543679 0.9623305 -0.2695629
vn -0.00319913 0.9821143 -0.1882588
vn -0.00319913 0.9821143 -0.1882588
vn -0.02602747 0.9748431 -0.2213673
vn -0.004437097 0.982485 -0.1862887
vn -0.07945945 0.9539493 -0.2892526
vn 0.147663 0.9368627 -0.3169918
vn 0.1107739 0.945859 -0.3050898
vn 0.06868326 0.9531577 -0.2945728
vn -0.160303 0.9376934 -0.3082761
vn -0.1524816 0.937852 -0.3117419
vn -0.1272155 0.9350817 -0.3308145
g fedora_geo_0
f 47/47/47 97/97/97 21/21/21
f 96/96/96 97/97/97 47/47/47
f 42/42/42 96/96/96 47/47/47
f 22/22/22 96/96/96 42/42/42
f 20/20/20 22/22/22 42/42/42
f 27/27/27 22/22/22 20/20/20
f 26/26/26 27/27/27 20/20/20
f 36/36/36 27/27/27 26/26/26
f 37/37/37 36/36/36 26/26/26
f 34/34/34 117/117/117 75/75/75
f 118/118/118 117/117/117 34/34/34
f 35/35/35 118/118/118 34/34/34
f 91/91/91 118/118/118 35/35/35
f 90/90/90 91/91/91 35/35/35
f 92/92/92 91/91/91 90/90/90
f 93/93/93 92/92/92 90/90/90
f 94/94/94 92/92/92 93/93/93
f 65/65/65 107/107/107 110/110/110
f 51/51/51 107/107/107 65/65/65
f 55/55/55 51/51/51 65/65/65
f 52/52/52 51/51/51 55/55/55
f 106/106/106 52/52/52 55/55/55
f 54/54/54 52/52/52 106/106/106
f 61/61/61 54/54/54 106/106/106
f 98/98/98 54/54/54 61/61/61
f 99/99/99 98/98/98 61/61/61
f 62/62/62 71/71/71 125/125/125
f 124/124/124 62/62/62 125/125/125
f 59/59/59 62/62/62 124/124/124
f 101/101/101 59/59/59 124/124/124
f 60/60/60 59/59/59 101/101/101
f 100/100/100 60/60/60 101/101/101
f 102/102/102 60/60/60 100/100/100
f 103/103/103 102/102/102 100/100/100
f 104/104/104 102/102/102 103/103/103
f 105/105/105 104/104/104 103/103/103
f 18/18/18 21/21/21 19/19/19
f 47/47/47 21/21/21 18/18/18
f 29/29/29 47/47/47 18/18/18
f 42/42/42 47/47/47 29/29/29
f 20/20/20 42/42/42 29/29/29
f 68/68/68 65/65/65 110/110/110
f 109/109/109 68/68/68 110/110/110
f 114/114/114 68/68/68 109/109/109
f 19/19/19 114/114/114 109/109/109
f 147/147/147 4/4/4 13/13/13
f 12/12/12 147/147/147 13/13/13
f 148/148/148 147/147/147 12/12/12
f 11/11/11 148/148/148 12/12/12
f 140/140/140 148/148/148 11/11/11
f 9/9/9 140/140/140 11/11/11
f 139/139/139 140/140/140 9/9/9
f 74/74/74 139/139/139 9/9/9
f 141/141/141 139/139/139 74/74/74
f 10/10/10 141/141/141 74/74/74
f 14/14/14 142/142/142 144/144/144
f 143/143/143 142/142/142 14/14/14
f 145/145/145 143/143/143 14/14/14
f 25/25/25 76/76/76 77/77/77
f 78/78/78 25/25/25 77/77/77
f 24/24/24 25/25/25 78/78/78
f 84/84/84 24/24/24 78/78/78
f 33/33/33 24/24/24 84/84/84
f 85/85/85 33/33/33 84/84/84
f 32/32/32 33/33/33 85/85/85
f 86/86/86 32/32/32 85/85/85
f 31/31/31 32/32/32 86/86/86
f 79/79/79 31/31/31 86/86/86
f 135/135/135 31/31/31 79/79/79
f 73/73/73 135/135/135 79/79/79
f 23/23/23 96/96/96 22/22/22
f 27/27/27 23/23/23 22/22/22
f 95/95/95 23/23/23 27/27/27
f 36/36/36 95/95/95 27/27/27
f 45/45/45 133/133/133 70/70/70
f 122/122/122 133/133/133 45/45/45
f 44/44/44 122/122/122 45/45/45
f 120/120/120 122/122/122 44/44/44
f 46/46/46 120/120/120 44/44/44
f 28/28/28 120/120/120 46/46/46
f 48/48/48 28/28/28 46/46/46
f 88/88/88 57/57/57 56/56/56
f 58/58/58 57/57/57 88/88/88
f 89/89/89 58/58/58 88/88/88
f 53/53/53 58/58/58 89/89/89
f 76/76/76 53/53/53 89/89/89
f 25/25/25 53/53/53 76/76/76
f 54/54/54 51/51/51 52/52/52
f 107/107/107 51/51/51 54/54/54
f 98/98/98 107/107/107 54/54/54
f 50/50/50 108/108/108 69/69/69
f 63/63/63 108/108/108 50/50/50
f 66/66/66 63/63/63 50/50/50
f 129/129/129 63/63/63 66/66/66
f 67/67/67 129/129/129 66/66/66
f 130/130/130 129/129/129 67/67/67
f 116/116/116 130/130/130 67/67/67
f 68/68/68 55/55/55 65/65/65
f 111/111/111 55/55/55 68/68/68
f 114/114/114 111/111/111 68/68/68
f 49/49/49 50/50/50 69/69/69
f 66/66/66 50/50/50 49/49/49
f 67/67/67 66/66/66 49/49/49
f 44/44/44 48/48/48 46/46/46
f 112/112/112 48/48/48 44/44/44
f 45/45/45 112/112/112 44/44/44
f 113/113/113 112/112/112 45/45/45
f 70/70/70 113/113/113 45/45/45
f 115/115/115 67/67/67 49/49/49
f 116/116/116 67/67/67 115/115/115
f 80/80/80 73/73/73 79/79/79
f 30/30/30 73/73/73 80/80/80
f 81/81/81 30/30/30 80/80/80
f 82/82/82 30/30/30 81/81/81
f 39/39/39 123/123/123 131/131/131
f 75/75/75 123/123/123 39/39/39
f 34/34/34 75/75/75 39/39/39
f 95/95/95 96/96/96 23/23/23
f 40/40/40 96/96/96 95/95/95
f 119/119/119 40/40/40 95/95/95
f 121/121/121 40/40/40 119/119/119
f 38/38/38 64/64/64 43/43/43
f 41/41/41 38/38/38 43/43/43
f 121/121/121 38/38/38 41/41/41
f 40/40/40 121/121/121 41/41/41
f 82/82/82 134/134/134 30/30/30
f 72/72/72 134/134/134 82/82/82
f 83/83/83 72/72/72 82/82/82
f 56/56/56 72/72/72 83/83/83
f 87/87/87 56/56/56 83/83/83
f 88/88/88 56/56/56 87/87/87
f 128/128/128 64/64/64 38/38/38
f 126/126/126 64/64/64 128/128/128
f 127/127/127 126/126/126 128/128/128
f 106/106/106 126/126/126 127/127/127
f 55/55/55 126/126/126 106/106/106
f 131/131/131 132/132/132 39/39/39
f 62/62/62 132/132/132 131/131/131
f 71/71/71 62/62/62 131/131/131
f 138/138/138 1/1/1 2/2/2
f 3/3/3 1/1/1 138/138/138
f 136/136/136 3/3/3 138/138/138
f 6/6/6 3/3/3 136/136/136
f 137/137/137 6/6/6 136/136/136
f 5/5/5 6/6/6 137/137/137
f 8/8/8 5/5/5 137/137/137
f 151/151/151 8/8/8 137/137/137
f 7/7/7 8/8/8 151/151/151
f 150/150/150 7/7/7 151/151/151
f 17/17/17 7/7/7 150/150/150
f 149/149/149 17/17/17 150/150/150
f 16/16/16 17/17/17 149/149/149
f 145/145/145 16/16/16 149/149/149
f 15/15/15 16/16/16 145/145/145
f 14/14/14 15/15/15 145/145/145
f 146/146/146 4/4/4 147/147/147
f 2/2/2 4/4/4 146/146/146
f 138/138/138 2/2/2 146/146/146
