g fishingBob:fishingBob_geo
v 0.03603494 -0.1029306 -0.03603489
v 0 -0.1029307 -0.05096107
v -0.03603495 -0.1029307 -0.036035
v -0.05096109 -0.1029308 -3.814697E-08
v -0.03603495 -0.1029307 0.03603489
v 0 -0.1029307 0.05096115
v 0.03603496 -0.1029306 0.036035
v 0.0509611 -0.1029306 7.629394E-08
v 0.06241436 -0.05942696 -0.06241432
v 0 -0.05942711 -0.08826721
v -0.06241436 -0.05942722 -0.0624144
v -0.08826723 -0.05942722 -3.814697E-08
v -0.06241436 -0.05942722 0.06241428
v 0 -0.05942711 0.08826729
v 0.06241436 -0.05942696 0.06241443
v 0.08826723 -0.05942696 1.144409E-07
v 0.07206988 0 -0.07206978
v 0 -7.629394E-08 -0.1019222
v -0.07206989 -2.670288E-07 -0.07206993
v -0.1019222 -2.670288E-07 -3.814697E-08
v -0.07206989 -2.670288E-07 0.07206989
v 0 -7.629394E-08 0.1019222
v 0.07206988 0 0.07207
v 0.1019222 3.814697E-08 1.144409E-07
v 0.06241435 0.05942691 -0.06241421
v 0 0.05942691 -0.08826721
v -0.06241436 0.05942677 -0.06241432
v -0.08826723 0.05942677 7.629394E-08
v -0.06241436 0.05942677 0.06241443
v 0 0.05942691 0.08826729
v 0.06241436 0.05942691 0.06241447
v 0.08826723 0.05942707 1.144409E-07
v 0.03603494 0.1029305 -0.03603481
v 0 0.1029305 -0.05096107
v -0.03603495 0.1029305 -0.03603489
v -0.05096109 0.1029303 7.629394E-08
v -0.03603495 0.1029305 0.03603496
v 0 0.1029305 0.05096115
v 0.03603494 0.1029305 0.03603508
v 0.0509611 0.1029306 1.144409E-07
v 0 -0.1188541 7.629394E-08
v 0 0.1188539 7.629394E-08
v 0.01072066 0.07812389 -0.01856865
v -0.01072064 0.07812389 -0.01856865
v -0.02144132 0.07812389 7.629394E-08
v -0.01072066 0.07812389 0.0185688
v 0.01072066 0.07812389 0.0185688
v 0.02144132 0.07812389 7.629394E-08
v 0.01072066 0.2615505 -0.01856865
v -0.01072064 0.2615505 -0.01856865
v -0.02144132 0.2615505 7.629394E-08
v -0.01072066 0.2615505 0.0185688
v 0.01072066 0.2615505 0.0185688
v 0.02144132 0.2615505 7.629394E-08
v 0 0.2774526 7.629394E-08
v 0.07206988 0 -0.07206978
v 0 -7.629394E-08 -0.1019222
v -0.07206989 -2.670288E-07 -0.07206993
v -0.1019222 -2.670288E-07 -3.814697E-08
v -0.07206989 -2.670288E-07 0.07206989
v 0 -7.629394E-08 0.1019222
v 0.07206988 0 0.07207
v 0.1019222 3.814697E-08 1.144409E-07
v 0.01072066 0.2615505 -0.01856865
v -0.01072064 0.2615505 -0.01856865
v -0.02144132 0.2615505 7.629394E-08
v -0.01072066 0.2615505 0.0185688
v 0.01072066 0.2615505 0.0185688
v 0.02144132 0.2615505 7.629394E-08
vt 0.1061181 0.617524
vt 0.1061183 0.617524
vt 0.1061181 0.617524
vt 0.106118 0.617524
vt 0.106118 0.617524
vt 0.106118 0.617524
vt 0.106118 0.617524
vt 0.106118 0.617524
vt 0.1061183 0.6363953
vt 0.1061183 0.6363953
vt 0.1061183 0.6363953
vt 0.106118 0.6363953
vt 0.106118 0.6363953
vt 0.106118 0.6363953
vt 0.106118 0.6363953
vt 0.106118 0.6363953
vt 0.1061183 0.6621735
vt 0.1061183 0.6621735
vt 0.1061183 0.6621735
vt 0.106118 0.6621735
vt 0.106118 0.6621735
vt 0.106118 0.6621735
vt 0.106118 0.6621735
vt 0.106118 0.6621735
vt 0.03265044 0.8768109
vt 0.03265044 0.8768109
vt 0.03265044 0.8768108
vt 0.03265041 0.8768108
vt 0.03265054 0.8768108
vt 0.03265055 0.8768109
vt 0.03265054 0.8768109
vt 0.03265041 0.876811
vt 0.03265032 0.8994206
vt 0.03265044 0.8994206
vt 0.03265032 0.8994206
vt 0.03265041 0.8994205
vt 0.03265059 0.8994206
vt 0.03265059 0.8994206
vt 0.03265059 0.8994206
vt 0.03265041 0.8994206
vt 0.106118 0.6106165
vt 0.03265041 0.9076964
vt 0.03796089 0.9260158
vt 0.03796089 0.9260158
vt 0.03532928 0.9260158
vt 0.03269717 0.9260158
vt 0.03269717 0.9260158
vt 0.03532928 0.9260158
vt 0.03796089 0.9887149
vt 0.03796089 0.9887149
vt 0.03532928 0.9887149
vt 0.03269717 0.9887149
vt 0.03269717 0.9887149
vt 0.03532928 0.9887149
vt 0.02017198 0.9754415
vt 0.03265044 0.8459255
vt 0.03265044 0.8459255
vt 0.03265044 0.8459255
vt 0.03265041 0.8459255
vt 0.03265053 0.8459255
vt 0.03265056 0.8459255
vt 0.03265053 0.8459255
vt 0.03265041 0.8459255
vt 0.02017212 0.9754416
vt 0.02017212 0.9754415
vt 0.02017212 0.9754415
vt 0.02017212 0.9754415
vt 0.02017212 0.9754416
vt 0.02017212 0.9754416
vn 0.3855692 -0.8382567 -0.3855672
vn 1.959336E-06 -0.8382575 -0.5452744
vn -0.3855663 -0.8382577 -0.3855678
vn -0.5452738 -0.838258 0
vn -0.3855673 -0.8382573 0.3855676
vn 6.570945E-07 -0.8382575 0.5452746
vn 0.385569 -0.8382567 0.3855674
vn 0.5452759 -0.8382567 0
vn 0.6301632 -0.453641 -0.630162
vn 1.484681E-06 -0.4536414 -0.8911843
vn -0.6301617 -0.4536419 -0.6301628
vn -0.891184 -0.453642 0
vn -0.6301625 -0.4536419 0.6301622
vn -1.223638E-07 -0.4536417 0.8911842
vn 0.6301626 -0.4536414 0.6301624
vn 0.8911844 -0.4536412 0
vn 0.7071071 3.874755E-07 -0.7071064
vn 8.738814E-07 4.163303E-07 -1
vn -0.7071066 2.638133E-07 -0.7071069
vn -1 -1.731274E-07 0
vn -0.707107 -6.018238E-07 0.7071065
vn -6.59533E-07 -3.462548E-07 1
vn 0.7071064 0 0.7071071
vn 1 0 0
vn 0.6301625 0.4536416 -0.6301622
vn 3.997219E-07 0.4536418 -0.8911841
vn -0.6301628 0.4536416 -0.6301619
vn -0.8911844 0.4536412 0
vn -0.630163 0.453641 0.6301622
vn -8.973346E-07 0.4536413 0.8911844
vn 0.6301616 0.4536417 0.630163
vn 0.891184 0.4536421 -1.38679E-07
vn 0.3855677 0.8382569 -0.3855682
vn 2.588553E-07 0.8382571 -0.5452751
vn -0.3855692 0.8382569 -0.3855668
vn -0.5452768 0.8382561 1.314188E-07
vn -0.3855691 0.8382568 0.385567
vn -7.188211E-07 0.8382569 0.5452754
vn 0.3855668 0.8382573 0.3855686
vn 0.5452742 0.8382577 -1.214629E-07
vn 1.639885E-06 -1 0
vn -1.116853E-06 1 1.130617E-07
vn 0.5000001 0 -0.8660253
vn -0.4999997 0 -0.8660255
vn -1 0 -3.957468E-07
vn -0.5000001 0 0.8660253
vn 0.5000001 0 0.8660253
vn 1 0 0
vn 0.4415322 0.4692517 -0.7647562
vn -0.441532 0.4692516 -0.7647565
vn -0.8830644 0.4692518 -4.142751E-07
vn -0.4415323 0.469252 0.764756
vn 0.4415322 0.4692518 0.7647561
vn 0.8830644 0.4692517 2.117406E-07
vn 0 1 -1.504101E-07
vn 0.7071071 3.874755E-07 -0.7071064
vn 8.738814E-07 4.163303E-07 -1
vn -0.7071066 2.638133E-07 -0.7071069
vn -1 -1.731274E-07 0
vn -0.707107 -6.018238E-07 0.7071065
vn -6.59533E-07 -3.462548E-07 1
vn 0.7071064 0 0.7071071
vn 1 0 0
vn 0.4415322 0.4692517 -0.7647562
vn -0.441532 0.4692516 -0.7647565
vn -0.8830644 0.4692518 -4.142751E-07
vn -0.4415323 0.469252 0.764756
vn 0.4415322 0.4692518 0.7647561
vn 0.8830644 0.4692517 2.117406E-07
g fishingBob:fishingBob_geo_0
f 10/10/10 18/18/18 9/9/9
f 19/19/19 18/18/18 10/10/10
f 11/11/11 19/19/19 10/10/10
f 20/20/20 19/19/19 11/11/11
f 12/12/12 20/20/20 11/11/11
f 21/21/21 20/20/20 12/12/12
f 13/13/13 21/21/21 12/12/12
f 22/22/22 21/21/21 13/13/13
f 14/14/14 22/22/22 13/13/13
f 23/23/23 22/22/22 14/14/14
f 15/15/15 23/23/23 14/14/14
f 24/24/24 23/23/23 15/15/15
f 16/16/16 24/24/24 15/15/15
f 17/17/17 24/24/24 16/16/16
f 9/9/9 17/17/17 16/16/16
f 18/18/18 17/17/17 9/9/9
f 25/25/25 56/56/56 26/26/26
f 63/63/63 56/56/56 25/25/25
f 32/32/32 63/63/63 25/25/25
f 62/62/62 63/63/63 32/32/32
f 31/31/31 62/62/62 32/32/32
f 61/61/61 62/62/62 31/31/31
f 30/30/30 61/61/61 31/31/31
f 60/60/60 61/61/61 30/30/30
f 29/29/29 60/60/60 30/30/30
f 59/59/59 60/60/60 29/29/29
f 28/28/28 59/59/59 29/29/29
f 58/58/58 59/59/59 28/28/28
f 27/27/27 58/58/58 28/28/28
f 57/57/57 58/58/58 27/27/27
f 26/26/26 57/57/57 27/27/27
f 56/56/56 57/57/57 26/26/26
f 49/49/49 43/43/43 50/50/50
f 48/48/48 43/43/43 49/49/49
f 54/54/54 48/48/48 49/49/49
f 47/47/47 48/48/48 54/54/54
f 53/53/53 47/47/47 54/54/54
f 46/46/46 47/47/47 53/53/53
f 52/52/52 46/46/46 53/53/53
f 45/45/45 46/46/46 52/52/52
f 51/51/51 45/45/45 52/52/52
f 44/44/44 45/45/45 51/51/51
f 50/50/50 44/44/44 51/51/51
f 43/43/43 44/44/44 50/50/50
f 55/55/55 65/65/65 66/66/66
f 64/64/64 65/65/65 55/55/55
f 69/69/69 64/64/64 55/55/55
f 55/55/55 68/68/68 69/69/69
f 67/67/67 68/68/68 55/55/55
f 66/66/66 67/67/67 55/55/55
f 9/9/9 1/1/1 10/10/10
f 8/8/8 1/1/1 9/9/9
f 16/16/16 8/8/8 9/9/9
f 7/7/7 8/8/8 16/16/16
f 15/15/15 7/7/7 16/16/16
f 6/6/6 7/7/7 15/15/15
f 14/14/14 6/6/6 15/15/15
f 5/5/5 6/6/6 14/14/14
f 13/13/13 5/5/5 14/14/14
f 4/4/4 5/5/5 13/13/13
f 12/12/12 4/4/4 13/13/13
f 3/3/3 4/4/4 12/12/12
f 11/11/11 3/3/3 12/12/12
f 2/2/2 3/3/3 11/11/11
f 10/10/10 2/2/2 11/11/11
f 1/1/1 2/2/2 10/10/10
f 33/33/33 25/25/25 34/34/34
f 32/32/32 25/25/25 33/33/33
f 40/40/40 32/32/32 33/33/33
f 31/31/31 32/32/32 40/40/40
f 39/39/39 31/31/31 40/40/40
f 30/30/30 31/31/31 39/39/39
f 38/38/38 30/30/30 39/39/39
f 29/29/29 30/30/30 38/38/38
f 37/37/37 29/29/29 38/38/38
f 28/28/28 29/29/29 37/37/37
f 36/36/36 28/28/28 37/37/37
f 27/27/27 28/28/28 36/36/36
f 35/35/35 27/27/27 36/36/36
f 26/26/26 27/27/27 35/35/35
f 34/34/34 26/26/26 35/35/35
f 25/25/25 26/26/26 34/34/34
f 41/41/41 1/1/1 8/8/8
f 2/2/2 1/1/1 41/41/41
f 3/3/3 2/2/2 41/41/41
f 41/41/41 4/4/4 3/3/3
f 5/5/5 4/4/4 41/41/41
f 6/6/6 5/5/5 41/41/41
f 41/41/41 7/7/7 6/6/6
f 8/8/8 7/7/7 41/41/41
f 42/42/42 34/34/34 35/35/35
f 33/33/33 34/34/34 42/42/42
f 40/40/40 33/33/33 42/42/42
f 42/42/42 37/37/37 38/38/38
f 36/36/36 37/37/37 42/42/42
f 35/35/35 36/36/36 42/42/42
f 42/42/42 39/39/39 40/40/40
f 38/38/38 39/39/39 42/42/42
