g fuzzyOrangePyjamas_geo
v 2.127096E-20 0.1781732 0.1126865
v 2.433855E-19 0.1974074 0.1232289
v -1.788467E-21 0.1829156 -0.09038559
v -1.05642E-19 0.204558 -0.1032995
v 6.776486E-23 0.1673324 0.04535922
v -3.232237E-20 0.2235028 -0.1028473
v -1.089139E-19 0.2478377 -0.1084451
v 1.280402E-22 0.2340437 0.1374848
v -3.543713E-20 0.2717057 -0.1076652
v -1.052413E-18 0.1710885 -0.02689612
v -0.03163145 0.1533472 0.08579416
v -0.07589719 0.1454989 -0.05313818
v -0.1181647 0.1475763 -0.0393609
v -0.1258206 0.1821227 0.07818847
v -0.06841805 0.1787109 0.1107034
v -0.06634221 0.1982903 0.1191659
v -0.1258795 0.203347 0.0856361
v -0.08752713 0.181874 -0.0824581
v -0.1370398 0.1845153 -0.05308338
v -0.1404951 0.2148969 -0.06046586
v -0.08963203 0.2069714 -0.09291159
v -0.08754145 0.2195037 -0.09409139
v -0.08576906 0.2453138 -0.09683965
v -0.01873801 0.1679845 0.09946054
v -0.1225504 0.1528604 0.06994903
v -0.07245271 0.1533615 0.0922586
v -0.1405716 0.2427234 -0.06435869
v -0.06685121 0.2377346 0.1306143
v -0.1275469 0.245508 0.09259838
v -0.07483027 0.2702428 -0.1011927
v -0.1421595 0.2661014 -0.06782496
v -0.0316085 0.07 -0.005656333
v -0.07230164 0.07000207 -0.04539923
v -0.1020912 0.07000207 -0.03354356
v -0.1098182 0.07000207 0.05423059
v -0.0742667 0.07000207 0.07257827
v -0.04186734 0.07 0.05561354
v -0.01964986 0.1467537 0.03685217
v -0.0281297 0.07 0.02342235
v -0.07426946 0.1015165 0.08073106
v -0.04008552 0.1013516 0.06661937
v -0.02525481 0.1008958 0.02638766
v -0.0757025 0.1007201 -0.04746071
v -0.1091679 0.1009908 -0.03386471
v -0.1144301 0.1011664 0.06223129
v -0.1541428 0.2310223 0.02595534
v -0.1524927 0.2119282 0.02618054
v -0.1492163 0.185914 0.02757185
v -0.1377737 0.1467036 0.02644912
v -0.1319129 0.1007201 0.02470493
v -0.1266402 0.07 0.02344507
v -0.1503208 0.2375693 -0.02152477
v -0.1517154 0.2143451 -0.02040411
v -0.1469827 0.1854734 -0.015795
v -0.13399 0.1470853 -0.006878669
v -0.12847 0.1007261 -0.004638062
v -0.1212387 0.07 -0.005639758
v -0.1557812 0.2562086 0.02507095
v -0.03575909 0.1414219 0.07988265
v -0.07326666 0.1401538 0.09078568
v -0.1201833 0.1401669 0.06798816
v -0.04375664 0.07 -0.03353464
v -0.01999598 0.1524129 -0.01663251
v -0.04066462 0.1504296 -0.03918581
v -0.02724059 0.1004233 -0.007968994
v -0.04417845 0.1003693 -0.03533617
v -0.01359474 0.1608639 0.04140638
v -0.0137678 0.1655715 -0.02146363
v -0.03813218 0.1817364 -0.09061524
v -0.0390364 0.2041465 -0.1040896
v -0.03776165 0.2210015 -0.1055742
v -0.03667253 0.2466296 -0.1074779
v 0.03163145 0.1533472 0.08579416
v 0.07589719 0.1454989 -0.05313818
v 0.1181647 0.1475763 -0.0393609
v 0.1258206 0.1821227 0.07818847
v 0.06841805 0.1787109 0.1107034
v 0.06634221 0.1982903 0.1191659
v 0.1258795 0.203347 0.0856361
v 0.08752713 0.181874 -0.0824581
v 0.1370398 0.1845153 -0.05308338
v 0.1404951 0.2148969 -0.06046586
v 0.08963203 0.2069714 -0.09291159
v 0.08754145 0.2195037 -0.09409139
v 0.08576906 0.2453138 -0.09683965
v 0.01873801 0.1679845 0.09946054
v 0.1225504 0.1528604 0.06994903
v 0.07245271 0.1533615 0.0922586
v 0.1405716 0.2427234 -0.06435869
v 0.06685121 0.2377346 0.1306143
v 0.1275469 0.245508 0.09259838
v 0.07483027 0.2702428 -0.1011927
v 0.1421595 0.2661014 -0.06782496
v 0.0316085 0.07 -0.005656333
v 0.07230164 0.07000207 -0.04539923
v 0.1020912 0.07000207 -0.03354356
v 0.1098182 0.07000207 0.05423059
v 0.0742667 0.07000207 0.07257827
v 0.04186734 0.07 0.05561354
v 0.01964986 0.1467537 0.03685217
v 0.0281297 0.07 0.02342235
v 0.07426946 0.1015165 0.08073106
v 0.04008552 0.1013516 0.06661937
v 0.02525481 0.1008958 0.02638766
v 0.0757025 0.1007201 -0.04746071
v 0.1091679 0.1009908 -0.03386471
v 0.1144301 0.1011664 0.06223129
v 0.1541428 0.2310223 0.02595534
v 0.1524927 0.2119282 0.02618054
v 0.1492163 0.185914 0.02757185
v 0.1377737 0.1467036 0.02644912
v 0.1319129 0.1007201 0.02470493
v 0.1266402 0.07 0.02344507
v 0.1503208 0.2375693 -0.02152477
v 0.1517154 0.2143451 -0.02040411
v 0.1469827 0.1854734 -0.015795
v 0.13399 0.1470853 -0.006878669
v 0.12847 0.1007261 -0.004638062
v 0.1212387 0.07 -0.005639758
v 0.1557812 0.2562086 0.02507095
v 0.03575909 0.1414219 0.07988265
v 0.07326666 0.1401538 0.09078568
v 0.1201833 0.1401669 0.06798816
v 0.04375664 0.07 -0.03353464
v 0.01999598 0.1524129 -0.01663251
v 0.04066462 0.1504296 -0.03918581
v 0.02724059 0.1004233 -0.007968994
v 0.04417845 0.1003693 -0.03533617
v 0.01359474 0.1608639 0.04140638
v 0.0137678 0.1655715 -0.02146363
v 0.03813218 0.1817364 -0.09061524
v 0.0390364 0.2041465 -0.1040896
v 0.03776165 0.2210015 -0.1055742
v 0.03667253 0.2466296 -0.1074779
v -0.06634221 0.1982903 0.1191659
v -0.06841805 0.1787109 0.1107034
v -0.08963203 0.2069714 -0.09291159
v -0.08752713 0.181874 -0.0824581
v 2.127096E-20 0.1781732 0.1126865
v -0.08754145 0.2195037 -0.09409139
v -0.08576906 0.2453138 -0.09683965
v -0.07483027 0.2702428 -0.1011927
v -0.03813218 0.1817364 -0.09061524
v -0.06685121 0.2377346 0.1306143
v -1.788467E-21 0.1829156 -0.09038559
v 0.06634221 0.1982903 0.1191659
v 0.06841805 0.1787109 0.1107034
v 0.08963203 0.2069714 -0.09291159
v 0.08752713 0.181874 -0.0824581
v 0.08754145 0.2195037 -0.09409139
v 0.08576906 0.2453138 -0.09683965
v 0.07483027 0.2702428 -0.1011927
v 0.03813218 0.1817364 -0.09061524
v 0.06685121 0.2377346 0.1306143
vt 0.2583455 0.1105312
vt 0.2643846 0.1604126
vt 0.3705497 0.1351911
vt 0.1881293 0.3397121
vt 0.3705497 0.1351911
vt 0.1881293 0.3780039
vt 0.1881293 0.4290964
vt 0.2643846 0.2498158
vt 0.1881293 0.4781622
vt 0.3705497 0.1351911
vt 0.3705497 0.1351911
vt 0.3705497 0.1351911
vt 0.3705497 0.1351911
vt 0.3705497 0.1351911
vt 0.3705497 0.1351911
vt 0.3705497 0.1351911
vt 0.3705497 0.1351911
vt 0.3705497 0.1351911
vt 0.3705497 0.1351911
vt 0.3705497 0.1351911
vt 0.3705497 0.1351911
vt 0.3705497 0.1351911
vt 0.3705497 0.1351911
vt 0.3705497 0.1351911
vt 0.3705497 0.1351911
vt 0.3705497 0.1351911
vt 0.3705497 0.1351911
vt 0.1111491 0.2520072
vt 0.3705497 0.1351911
vt 0.3705497 0.1351911
vt 0.3705497 0.1351911
vt 0.3705497 0.1351911
vt 0.3705497 0.1351911
vt 0.3705497 0.1351911
vt 0.3705497 0.1351911
vt 0.3705497 0.1351911
vt 0.3705497 0.1351911
vt 0.3705497 0.1351911
vt 0.3705497 0.1351911
vt 0.3705497 0.1351911
vt 0.3705497 0.1351911
vt 0.3705497 0.1351911
vt 0.3705497 0.1351911
vt 0.3705497 0.1351911
vt 0.3705497 0.1351911
vt 0.3705497 0.1351911
vt 0.3705497 0.1351911
vt 0.3705497 0.1351911
vt 0.3705497 0.1351911
vt 0.3705497 0.1351911
vt 0.3705497 0.1351911
vt 0.3705497 0.1351911
vt 0.3705497 0.1351911
vt 0.3705497 0.1351911
vt 0.3705497 0.1351911
vt 0.3705497 0.1351911
vt 0.3705497 0.1351911
vt 0.3705497 0.1351911
vt 0.3705497 0.1351911
vt 0.3705497 0.1351911
vt 0.3705497 0.1351911
vt 0.3705497 0.1351911
vt 0.3705497 0.1351911
vt 0.3705497 0.1351911
vt 0.3705497 0.1351911
vt 0.3705497 0.1351911
vt 0.3705497 0.1351911
vt 0.3705497 0.1351911
vt 0.2680107 0.2877355
vt 0.2674121 0.340753
vt 0.2648438 0.3743974
vt 0.2626249 0.4261607
vt 0.3705497 0.1351911
vt 0.3705497 0.1351911
vt 0.3705497 0.1351911
vt 0.3705497 0.1351911
vt 0.3705497 0.1351911
vt 0.3705497 0.1351911
vt 0.3705497 0.1351911
vt 0.3705497 0.1351911
vt 0.3705497 0.1351911
vt 0.3705497 0.1351911
vt 0.3705497 0.1351911
vt 0.3705497 0.1351911
vt 0.3705497 0.1351911
vt 0.3705497 0.1351911
vt 0.3705497 0.1351911
vt 0.3705497 0.1351911
vt 0.3705497 0.1351911
vt 0.4176201 0.2520072
vt 0.3705497 0.1351911
vt 0.3705497 0.1351911
vt 0.3705497 0.1351911
vt 0.3705497 0.1351911
vt 0.3705497 0.1351911
vt 0.3705497 0.1351911
vt 0.3705497 0.1351911
vt 0.3705497 0.1351911
vt 0.3705497 0.1351911
vt 0.3705497 0.1351911
vt 0.3705497 0.1351911
vt 0.3705497 0.1351911
vt 0.3705497 0.1351911
vt 0.3705497 0.1351911
vt 0.3705497 0.1351911
vt 0.3705497 0.1351911
vt 0.3705497 0.1351911
vt 0.3705497 0.1351911
vt 0.3705497 0.1351911
vt 0.3705497 0.1351911
vt 0.3705497 0.1351911
vt 0.3705497 0.1351911
vt 0.3705497 0.1351911
vt 0.3705497 0.1351911
vt 0.3705497 0.1351911
vt 0.3705497 0.1351911
vt 0.3705497 0.1351911
vt 0.3705497 0.1351911
vt 0.3705497 0.1351911
vt 0.3705497 0.1351911
vt 0.3705497 0.1351911
vt 0.3705497 0.1351911
vt 0.3705497 0.1351911
vt 0.3705497 0.1351911
vt 0.3705497 0.1351911
vt 0.3705497 0.1351911
vt 0.3705497 0.1351911
vt 0.3705497 0.1351911
vt 0.3705497 0.1351911
vt 0.3705497 0.1351911
vt 0.1082479 0.2877355
vt 0.1088466 0.340753
vt 0.1114149 0.3743973
vt 0.1136338 0.4261608
vt 0.1132277 0.1585028
vt 0.1024443 0.1099224
vt 0.3721628 0.3422868
vt 0.3705009 0.2864332
vt 0.3705497 0.1351911
vt 0.3684173 0.3682452
vt 0.3650157 0.4215796
vt 0.3420859 0.4735038
vt 0.3705497 0.1351911
vt 0.3705497 0.1351911
vt 0.1881293 0.2877542
vt 0.4155416 0.1585029
vt 0.4142467 0.1099224
vt 0.004096091 0.3422869
vt 0.005757868 0.2864332
vt 0.007841513 0.3682452
vt 0.01124296 0.4215796
vt 0.03417274 0.4735036
vt 0.3705497 0.1351911
vt 0.3705497 0.1351911
vn 0 -0.7846519 0.6199367
vn 0 -0.3800649 0.9249598
vn 0 -0.8854463 -0.4647419
vn 0 -0.2811759 -0.9596562
vn 0 -0.9988292 0.04837633
vn 0 -0.08999335 -0.9959424
vn 0 -0.05847527 -0.9982888
vn 0 -0.320615 0.9472095
vn 0 0.07713737 -0.9970204
vn 0 -0.9922274 -0.1244381
vn 0.5169334 -0.6083397 0.602248
vn -0.07096585 -0.4417554 -0.8943244
vn -0.6520832 -0.3658418 -0.6640386
vn -0.717155 -0.2684132 0.6431507
vn -0.1905428 -0.5335538 0.8240229
vn -0.2851075 -0.3342867 0.8983129
vn -0.7456617 -0.1740331 0.6431959
vn -0.2584429 -0.5487781 -0.7950157
vn -0.7204945 -0.408197 -0.5605916
vn -0.7534978 -0.122831 -0.6458743
vn -0.3780783 -0.2101247 -0.9016121
vn -0.3779162 -0.05533003 -0.924185
vn -0.3574475 -0.07456823 -0.9309515
vn 0.3025718 -0.834168 0.4611008
vn -0.7038572 -0.2692247 0.6573454
vn -0.1490199 -0.3974139 0.9054586
vn -0.7962858 -0.06518701 -0.601398
vn -0.3820295 -0.2480074 0.8902504
vn -0.8260879 -0.1059047 0.5535006
vn -0.2609689 -0.002873991 -0.9653429
vn -0.8883605 -0.03433465 -0.4578611
vn 0.9540507 -0.1053421 -0.2805178
vn -0.00250674 -0.07799008 -0.996951
vn -0.6204655 -0.1493642 -0.7698785
vn -0.6823185 -0.2425388 0.6896495
vn -0.008971401 -0.2923357 0.9562737
vn 0.7121193 -0.229626 0.663444
vn 0.9434754 -0.3028044 0.1347723
vn 0.9801744 -0.1367724 0.1433578
vn -0.03146744 -0.2793536 0.9596725
vn 0.6981884 -0.2486954 0.6713297
vn 0.9773495 -0.151869 0.1473901
vn 0.006227145 -0.1069184 -0.9942483
vn -0.6277978 -0.1601725 -0.7617182
vn -0.6949028 -0.2186276 0.6850635
vn -0.9756092 -0.06098164 0.2108742
vn -0.9790727 -0.0887962 0.183117
vn -0.9532469 -0.2140608 0.213303
vn -0.9653385 -0.2185391 0.142696
vn -0.9730759 -0.1765451 0.1481725
vn -0.9659422 -0.2082032 0.1536462
vn -0.9881418 -0.02352912 -0.1517304
vn -0.985186 -0.08533044 -0.1487518
vn -0.945824 -0.2755739 -0.1716854
vn -0.9295551 -0.2689684 -0.2521574
vn -0.9273582 -0.1717584 -0.3324245
vn -0.9142302 -0.1921692 -0.3567269
vn -0.9984641 -0.01962204 0.05181235
vn 0.6457604 -0.3479025 0.6796745
vn -0.08157509 -0.2541443 0.96372
vn -0.7075719 -0.2057869 0.6760132
vn 0.6649781 -0.07085774 -0.743494
vn 0.888115 -0.3585948 -0.2875088
vn 0.5236354 -0.4636483 -0.7147281
vn 0.9443102 -0.1271484 -0.3034987
vn 0.6341608 -0.1039077 -0.7661875
vn 0.6840547 -0.7227168 0.09873968
vn 0.4968214 -0.8442375 -0.2010758
vn 0.1310644 -0.734738 -0.6655691
vn -0.08641166 -0.2737719 -0.9579049
vn -0.09047628 -0.08038818 -0.9926489
vn -0.1028201 -0.03023776 -0.9942403
vn -0.5169334 -0.6083397 0.602248
vn 0.07096583 -0.4417554 -0.8943244
vn 0.6520832 -0.3658418 -0.6640386
vn 0.7171551 -0.2684132 0.6431507
vn 0.1905428 -0.5335538 0.8240229
vn 0.2851075 -0.3342867 0.8983129
vn 0.7456618 -0.1740332 0.6431959
vn 0.2584429 -0.5487781 -0.7950157
vn 0.7204945 -0.408197 -0.5605916
vn 0.7534978 -0.1228309 -0.6458743
vn 0.3780783 -0.2101246 -0.9016121
vn 0.3779162 -0.05532997 -0.924185
vn 0.3574477 -0.07456823 -0.9309515
vn -0.3025718 -0.8341681 0.4611008
vn 0.7038573 -0.2692246 0.6573455
vn 0.1490199 -0.3974138 0.9054586
vn 0.7962858 -0.06518698 -0.601398
vn 0.3820296 -0.2480074 0.8902503
vn 0.826088 -0.1059046 0.5535007
vn 0.2609689 -0.002874003 -0.9653429
vn 0.8883605 -0.03433461 -0.4578611
vn -0.9540507 -0.1053422 -0.2805179
vn 0.002506788 -0.0779901 -0.996951
vn 0.6204655 -0.1493642 -0.7698784
vn 0.6823184 -0.2425388 0.6896495
vn 0.008971369 -0.2923356 0.9562737
vn -0.7121193 -0.229626 0.663444
vn -0.9434754 -0.3028044 0.1347722
vn -0.9801744 -0.1367724 0.1433577
vn 0.03146739 -0.2793536 0.9596725
vn -0.6981884 -0.2486954 0.6713297
vn -0.9773495 -0.151869 0.1473901
vn -0.006227113 -0.1069184 -0.9942483
vn 0.6277978 -0.1601725 -0.7617182
vn 0.6949028 -0.2186276 0.6850635
vn 0.9756092 -0.06098174 0.2108742
vn 0.9790727 -0.0887964 0.183117
vn 0.9532469 -0.2140609 0.213303
vn 0.9653385 -0.2185391 0.142696
vn 0.9730759 -0.1765452 0.1481725
vn 0.9659422 -0.2082032 0.1536461
vn 0.9881418 -0.02352927 -0.1517305
vn 0.985186 -0.08533053 -0.1487518
vn 0.945824 -0.275574 -0.1716853
vn 0.9295551 -0.2689685 -0.2521574
vn 0.927358 -0.1717585 -0.3324244
vn 0.9142302 -0.1921693 -0.3567268
vn 0.998464 -0.01962211 0.05181235
vn -0.6457604 -0.3479024 0.6796745
vn 0.08157504 -0.2541442 0.96372
vn 0.7075718 -0.2057869 0.6760132
vn -0.6649781 -0.07085782 -0.7434939
vn -0.888115 -0.3585949 -0.2875089
vn -0.5236354 -0.4636483 -0.7147281
vn -0.9443102 -0.1271484 -0.3034987
vn -0.6341608 -0.1039077 -0.7661875
vn -0.6840547 -0.7227168 0.09873969
vn -0.4968215 -0.8442375 -0.2010758
vn -0.1310644 -0.7347379 -0.6655692
vn 0.08641168 -0.273772 -0.9579049
vn 0.0904763 -0.08038818 -0.9926489
vn 0.1028201 -0.03023777 -0.9942403
vn -0.2851075 -0.3342867 0.8983129
vn -0.1905428 -0.5335538 0.8240229
vn -0.3780783 -0.2101247 -0.9016121
vn -0.2584429 -0.5487781 -0.7950157
vn 0 -0.7846519 0.6199367
vn -0.3779162 -0.05533003 -0.924185
vn -0.3574475 -0.07456823 -0.9309515
vn -0.2609689 -0.002873991 -0.9653429
vn 0.1310644 -0.734738 -0.6655691
vn -0.3820295 -0.2480074 0.8902504
vn 0 -0.8854463 -0.4647419
vn 0.2851075 -0.3342867 0.8983129
vn 0.1905428 -0.5335538 0.8240229
vn 0.3780783 -0.2101246 -0.9016121
vn 0.2584429 -0.5487781 -0.7950157
vn 0.3779162 -0.05532997 -0.924185
vn 0.3574477 -0.07456823 -0.9309515
vn 0.2609689 -0.002874003 -0.9653429
vn -0.1310644 -0.7347379 -0.6655692
vn 0.3820296 -0.2480074 0.8902503
g fuzzyOrangePyjamas_geo_0
f 8/8/8 146/146/146 90/90/90
f 2/2/2 146/146/146 8/8/8
f 135/135/135 2/2/2 8/8/8
f 1/1/1 2/2/2 135/135/135
f 136/136/136 1/1/1 135/135/135
f 134/134/134 152/152/152 151/151/151
f 133/133/133 134/134/134 151/151/151
f 6/6/6 134/134/134 133/133/133
f 132/132/132 6/6/6 133/133/133
f 4/4/4 6/6/6 132/132/132
f 145/145/145 4/4/4 132/132/132
f 70/70/70 4/4/4 145/145/145
f 69/69/69 70/70/70 145/145/145
f 137/137/137 70/70/70 69/69/69
f 138/138/138 137/137/137 69/69/69
f 28/28/28 135/135/135 8/8/8
f 50/50/50 57/57/57 51/51/51
f 56/56/56 57/57/57 50/50/50
f 55/55/55 56/56/56 50/50/50
f 13/13/13 56/56/56 55/55/55
f 19/19/19 13/13/13 55/55/55
f 12/12/12 13/13/13 19/19/19
f 18/18/18 12/12/12 19/19/19
f 64/64/64 12/12/12 18/18/18
f 143/143/143 64/64/64 18/18/18
f 63/63/63 64/64/64 143/143/143
f 68/68/68 63/63/63 143/143/143
f 38/38/38 63/63/63 68/68/68
f 67/67/67 38/38/38 68/68/68
f 59/59/59 38/38/38 67/67/67
f 11/11/11 59/59/59 67/67/67
f 60/60/60 59/59/59 11/11/11
f 26/26/26 60/60/60 11/11/11
f 61/61/61 60/60/60 26/26/26
f 25/25/25 61/61/61 26/26/26
f 49/49/49 61/61/61 25/25/25
f 48/48/48 49/49/49 25/25/25
f 55/55/55 49/49/49 48/48/48
f 54/54/54 55/55/55 48/48/48
f 19/19/19 55/55/55 54/54/54
f 53/53/53 19/19/19 54/54/54
f 20/20/20 19/19/19 53/53/53
f 52/52/52 20/20/20 53/53/53
f 27/27/27 20/20/20 52/52/52
f 31/31/31 27/27/27 52/52/52
f 23/23/23 27/27/27 31/31/31
f 30/30/30 23/23/23 31/31/31
f 146/146/146 1/1/1 147/147/147
f 2/2/2 1/1/1 146/146/146
f 148/148/148 132/132/132 133/133/133
f 131/131/131 132/132/132 148/148/148
f 149/149/149 131/131/131 148/148/148
f 93/93/93 85/85/85 92/92/92
f 89/89/89 85/85/85 93/93/93
f 114/114/114 89/89/89 93/93/93
f 82/82/82 89/89/89 114/114/114
f 115/115/115 82/82/82 114/114/114
f 81/81/81 82/82/82 115/115/115
f 116/116/116 81/81/81 115/115/115
f 117/117/117 81/81/81 116/116/116
f 110/110/110 117/117/117 116/116/116
f 111/111/111 117/117/117 110/110/110
f 123/123/123 111/111/111 110/110/110
f 107/107/107 111/111/111 123/123/123
f 102/102/102 107/107/107 123/123/123
f 98/98/98 107/107/107 102/102/102
f 99/99/99 98/98/98 102/102/102
f 47/47/47 53/53/53 54/54/54
f 48/48/48 47/47/47 54/54/54
f 17/17/17 47/47/47 48/48/48
f 14/14/14 17/17/17 48/48/48
f 16/16/16 17/17/17 14/14/14
f 15/15/15 16/16/16 14/14/14
f 22/22/22 27/27/27 23/23/23
f 20/20/20 27/27/27 22/22/22
f 21/21/21 20/20/20 22/22/22
f 18/18/18 20/20/20 21/21/21
f 122/122/122 102/102/102 123/123/123
f 103/103/103 102/102/102 122/122/122
f 121/121/121 103/103/103 122/122/122
f 100/100/100 103/103/103 121/121/121
f 73/73/73 100/100/100 121/121/121
f 129/129/129 100/100/100 73/73/73
f 86/86/86 129/129/129 73/73/73
f 5/5/5 129/129/129 86/86/86
f 139/139/139 5/5/5 86/86/86
f 24/24/24 5/5/5 139/139/139
f 15/15/15 24/24/24 139/139/139
f 11/11/11 24/24/24 15/15/15
f 26/26/26 11/11/11 15/15/15
f 72/72/72 142/142/142 9/9/9
f 141/141/141 142/142/142 72/72/72
f 71/71/71 141/141/141 72/72/72
f 140/140/140 141/141/141 71/71/71
f 137/137/137 140/140/140 71/71/71
f 17/17/17 16/16/16 144/144/144
f 29/29/29 17/17/17 144/144/144
f 46/46/46 17/17/17 29/29/29
f 58/58/58 46/46/46 29/29/29
f 52/52/52 46/46/46 58/58/58
f 31/31/31 52/52/52 58/58/58
f 50/50/50 49/49/49 55/55/55
f 45/45/45 49/49/49 50/50/50
f 35/35/35 45/45/45 50/50/50
f 40/40/40 45/45/45 35/35/35
f 36/36/36 40/40/40 35/35/35
f 41/41/41 40/40/40 36/36/36
f 37/37/37 41/41/41 36/36/36
f 42/42/42 41/41/41 37/37/37
f 39/39/39 42/42/42 37/37/37
f 65/65/65 42/42/42 39/39/39
f 32/32/32 65/65/65 39/39/39
f 66/66/66 65/65/65 32/32/32
f 62/62/62 66/66/66 32/32/32
f 43/43/43 66/66/66 62/62/62
f 33/33/33 43/43/43 62/62/62
f 44/44/44 43/43/43 33/33/33
f 34/34/34 44/44/44 33/33/33
f 56/56/56 44/44/44 34/34/34
f 57/57/57 56/56/56 34/34/34
f 35/35/35 50/50/50 51/51/51
f 130/130/130 100/100/100 129/129/129
f 5/5/5 130/130/130 129/129/129
f 10/10/10 130/130/130 5/5/5
f 68/68/68 10/10/10 5/5/5
f 3/3/3 10/10/10 68/68/68
f 143/143/143 3/3/3 68/68/68
f 79/79/79 91/91/91 154/154/154
f 78/78/78 79/79/79 154/154/154
f 76/76/76 79/79/79 78/78/78
f 77/77/77 76/76/76 78/78/78
f 87/87/87 76/76/76 77/77/77
f 88/88/88 87/87/87 77/77/77
f 123/123/123 87/87/87 88/88/88
f 122/122/122 123/123/123 88/88/88
f 82/82/82 83/83/83 84/84/84
f 80/80/80 83/83/83 82/82/82
f 81/81/81 80/80/80 82/82/82
f 74/74/74 80/80/80 81/81/81
f 75/75/75 74/74/74 81/81/81
f 106/106/106 74/74/74 75/75/75
f 118/118/118 106/106/106 75/75/75
f 119/119/119 106/106/106 118/118/118
f 113/113/113 119/119/119 118/118/118
f 73/73/73 122/122/122 88/88/88
f 77/77/77 73/73/73 88/88/88
f 86/86/86 73/73/73 77/77/77
f 139/139/139 86/86/86 77/77/77
f 133/133/133 150/150/150 148/148/148
f 151/151/151 150/150/150 133/133/133
f 89/89/89 84/84/84 85/85/85
f 82/82/82 84/84/84 89/89/89
f 71/71/71 70/70/70 137/137/137
f 6/6/6 70/70/70 71/71/71
f 72/72/72 6/6/6 71/71/71
f 7/7/7 6/6/6 72/72/72
f 9/9/9 7/7/7 72/72/72
f 134/134/134 7/7/7 9/9/9
f 152/152/152 134/134/134 9/9/9
f 127/127/127 124/124/124 94/94/94
f 128/128/128 124/124/124 127/127/127
f 125/125/125 128/128/128 127/127/127
f 126/126/126 128/128/128 125/125/125
f 130/130/130 126/126/126 125/125/125
f 153/153/153 126/126/126 130/130/130
f 3/3/3 153/153/153 130/130/130
f 103/103/103 99/99/99 102/102/102
f 101/101/101 99/99/99 103/103/103
f 104/104/104 101/101/101 103/103/103
f 94/94/94 101/101/101 104/104/104
f 127/127/127 94/94/94 104/104/104
f 126/126/126 153/153/153 80/80/80
f 74/74/74 126/126/126 80/80/80
f 128/128/128 126/126/126 74/74/74
f 105/105/105 128/128/128 74/74/74
f 95/95/95 128/128/128 105/105/105
f 96/96/96 95/95/95 105/105/105
f 117/117/117 75/75/75 81/81/81
f 118/118/118 75/75/75 117/117/117
f 112/112/112 118/118/118 117/117/117
f 113/113/113 118/118/118 112/112/112
f 107/107/107 113/113/113 112/112/112
f 97/97/97 113/113/113 107/107/107
f 98/98/98 97/97/97 107/107/107
f 106/106/106 105/105/105 74/74/74
f 96/96/96 105/105/105 106/106/106
f 119/119/119 96/96/96 106/106/106
f 109/109/109 110/110/110 116/116/116
f 115/115/115 109/109/109 116/116/116
f 108/108/108 109/109/109 115/115/115
f 114/114/114 108/108/108 115/115/115
f 120/120/120 108/108/108 114/114/114
f 93/93/93 120/120/120 114/114/114
f 79/79/79 110/110/110 109/109/109
f 108/108/108 79/79/79 109/109/109
f 91/91/91 79/79/79 108/108/108
f 120/120/120 91/91/91 108/108/108
f 124/124/124 128/128/128 95/95/95
f 131/131/131 145/145/145 132/132/132
f 20/20/20 18/18/18 19/19/19
f 25/25/25 14/14/14 48/48/48
f 15/15/15 14/14/14 25/25/25
f 26/26/26 15/15/15 25/25/25
f 67/67/67 24/24/24 11/11/11
f 5/5/5 24/24/24 67/67/67
f 68/68/68 5/5/5 67/67/67
f 38/38/38 41/41/41 42/42/42
f 65/65/65 38/38/38 42/42/42
f 63/63/63 38/38/38 65/65/65
f 66/66/66 63/63/63 65/65/65
f 64/64/64 63/63/63 66/66/66
f 12/12/12 64/64/64 66/66/66
f 44/44/44 56/56/56 13/13/13
f 12/12/12 44/44/44 13/13/13
f 43/43/43 44/44/44 12/12/12
f 66/66/66 43/43/43 12/12/12
f 41/41/41 38/38/38 59/59/59
f 60/60/60 41/41/41 59/59/59
f 40/40/40 41/41/41 60/60/60
f 61/61/61 40/40/40 60/60/60
f 45/45/45 40/40/40 61/61/61
f 49/49/49 45/45/45 61/61/61
f 46/46/46 47/47/47 17/17/17
f 53/53/53 47/47/47 46/46/46
f 52/52/52 53/53/53 46/46/46
f 70/70/70 6/6/6 4/4/4
f 100/100/100 104/104/104 103/103/103
f 127/127/127 104/104/104 100/100/100
f 125/125/125 127/127/127 100/100/100
f 111/111/111 112/112/112 117/117/117
f 107/107/107 112/112/112 111/111/111
f 122/122/122 73/73/73 121/121/121
f 110/110/110 87/87/87 123/123/123
f 76/76/76 87/87/87 110/110/110
f 79/79/79 76/76/76 110/110/110
f 125/125/125 100/100/100 130/130/130
f 10/10/10 3/3/3 130/130/130
f 7/7/7 134/134/134 6/6/6
