g fx_cylinder_geo
v 0.7071067 -0.5 -0.7071067
v 0 -0.5 -0.9999998
v -0.7071067 -0.5 -0.7071067
v -0.9999998 -0.5 0
v -0.7071067 -0.5 0.7071067
v 0 -0.5 0.9999999
v 0.7071068 -0.5 0.7071068
v 1 -0.5 0
v 0.7071067 0.5 -0.7071067
v 0 0.5 -0.9999998
v -0.7071067 0.5 -0.7071067
v -0.9999998 0.5 0
v -0.7071067 0.5 0.7071067
v 0 0.5 0.9999999
v 0.7071068 0.5 0.7071068
v 1 0.5 0
v 0.7071067 0.5 -0.7071067
v 0.7071067 -0.5 -0.7071067
vt 0 0
vt 0.123401 0
vt 0.2489541 0
vt 0.3745073 0
vt 0.5000606 0
vt 0.6256139 0
vt 0.7511671 0
vt 0.8767202 0
vt 0 1
vt 0.123401 1
vt 0.2489541 1
vt 0.3745073 1
vt 0.5000606 1
vt 0.6256139 1
vt 0.7511671 1
vt 0.8767202 1
vt 1 1
vt 1 0
vn 0.7071068 0 -0.7071068
vn 0 0 -1
vn -0.7071068 0 -0.7071068
vn -1 0 0
vn -0.7071068 0 0.7071068
vn 0 0 1
vn 0.7071068 0 0.7071068
vn 1 0 0
vn 0.7071068 0 -0.7071068
vn 0 0 -1
vn -0.7071068 0 -0.7071068
vn -1 0 0
vn -0.7071068 0 0.7071068
vn 0 0 1
vn 0.7071068 0 0.7071068
vn 1 0 0
vn 0.7071068 0 -0.7071068
vn 0.7071068 0 -0.7071068
g fx_cylinder_geo_0
f 8/8/8 18/18/18 17/17/17
f 16/16/16 8/8/8 17/17/17
f 7/7/7 8/8/8 16/16/16
f 15/15/15 7/7/7 16/16/16
f 6/6/6 7/7/7 15/15/15
f 14/14/14 6/6/6 15/15/15
f 5/5/5 6/6/6 14/14/14
f 13/13/13 5/5/5 14/14/14
f 4/4/4 5/5/5 13/13/13
f 12/12/12 4/4/4 13/13/13
f 3/3/3 4/4/4 12/12/12
f 11/11/11 3/3/3 12/12/12
f 2/2/2 3/3/3 11/11/11
f 10/10/10 2/2/2 11/11/11
f 1/1/1 2/2/2 10/10/10
f 9/9/9 1/1/1 10/10/10
