g gayClub_fannyPack_geo
v -0.3330081 0.002530996 -0.04699124
v -0.3319756 0.002530996 -0.1028553
v -0.282675 0.003098013 -0.1481421
v -0.2619024 0.004187837 -0.09631542
v -0.2219452 0.01680751 -0.1603309
v -0.2204984 0.01778223 -0.1029632
v -0.2723969 0.00931768 -0.041724
v -0.2957196 0.00931768 -0.001342713
v 0.1464095 0 0.02823248
v 0.09821436 0 0.07440725
v -0.133199 0 0.01798826
v -0.1107279 0 0.06853186
v 0.2438751 0.003439565 0.02618123
v 0.2536384 0.003439565 0.07049619
v 0.3003025 0 0.05999025
v 0.320159 0 0.003849632
v -0.08965474 0.1023119 0.09991915
v -0.2188875 0.01886744 -0.03909274
v -0.1907415 0.0282311 -0.01049566
v 0.217205 0.02069895 -0.01487317
v 0.1840739 0.02991576 0.008484775
v 0.08960088 0.1023119 0.09991915
v 0.2220638 0.01868414 -0.0980338
v -0.2219452 0.01680751 -0.1603309
v -0.1386349 0.0582553 0.04459112
v 0.1367273 0.0582553 0.04558238
v -0.08965475 0 0.09991915
v -0.221351 -5.960464E-10 -0.03909274
v -0.1907415 4.386135E-18 -0.01049566
v 0.2211809 0 -0.01487317
v 0.1840739 5.960464E-10 0.008484775
v 0.1367273 0 0.04558237
v -0.1386349 0 0.04459112
v 0.08960088 5.960464E-10 0.09991915
v -0.2268794 0 -0.1638425
v 0.2268794 0 -0.09971429
v 0.1367273 0.00813874 0.04558238
v 0.1840739 0.00813874 0.008484775
v 0.2211809 0.00813874 -0.01487317
v 0.2268794 0.00813874 -0.09971429
v -0.2268794 0.00813874 -0.1638425
v -0.221351 0.008138739 -0.03909274
v -0.1907415 0.00813874 -0.01049566
v -0.1386349 0.00813874 0.04459112
v -0.08965475 0.00813874 0.09991913
v 0.08960088 0.008138739 0.09991915
v 0.08290531 0.00813874 -0.1204544
v 0.1365009 0 -0.1124872
v 0.1365009 0.00813874 -0.1124872
v 0.1340564 0.06043437 -0.09900931
v 0.08290531 0 -0.1204544
v 0.07872973 0.1064112 -0.09451698
v -0.08626151 0.1050396 -0.116137
v -0.08200591 0 -0.142119
v -0.08200591 0.00813874 -0.142119
v -0.138595 0 -0.1513655
v -0.138595 0.00813874 -0.1513655
v -0.1412152 0.05929663 -0.1364017
v 0.1925667 0.03117678 -0.09894126
v 0.1938913 0.00813874 -0.1043764
v 0.1938913 0 -0.1043764
v -0.1865344 0.03024963 -0.1508733
v -0.1849443 0.00813874 -0.1579159
v -0.1849443 0 -0.1579159
v -0.02752947 0.1220111 0.1220175
v 0.02752946 0.1220111 0.1220175
v 0.02816343 0.00813874 0.1219559
v -0.02816346 0.00813874 0.1219559
v 0.02816342 1.862645E-11 0.1219559
v -0.02816345 5.960464E-10 0.1219559
v -0.02827355 0 -0.1345806
v 0.02827355 0 -0.1276326
v 0.02827355 0.00813874 -0.1276326
v -0.02827355 0.00813874 -0.1345806
v 0.02264832 0.126674 -0.09613597
v -0.03314232 0.1256495 -0.1031081
v 0.281077 0 -0.05100392
v 0.2475025 0 -0.01558686
v 0.2191278 0.0199016 -0.0477836
v 0.2220638 0.01868413 -0.09803381
v 0.2043495 -0.001184133 0.0308261
v 0.2070241 -0.001184133 0.07692295
v -0.2211072 0 -0.01140493
v -0.2425888 0 0.02942248
v 0.2233141 0.0169654 -0.04303343
v 0.2278344 0.01685711 -0.093435
v -0.2321545 0.01574067 -0.1582818
v -0.2288331 0.01817614 -0.1015997
v 0.2209755 0.00813874 -0.1005487
v 0.2148712 0.02173036 -0.09825508
v -0.2204298 0.00813874 -0.162931
v -0.2153391 0.01931523 -0.1585665
v -0.08413371 0.05658916 -0.1385854
v -0.1399051 0.03371768 -0.1498253
v -0.1857394 0.01919419 -0.1573894
v 0.1934119 0.01647642 -0.1054042
v 0.1352786 0.03428655 -0.1116899
v 0.08081753 0.05727496 -0.1162512
v 0.02546093 0.06740639 -0.1222472
v -0.03070793 0.06689414 -0.1299086
v 0.1840739 0.00813874 0.008484775
v 0.1367273 0.00813874 0.04558238
v 0.2211809 0.00813874 -0.01487317
v 0.2268794 0.00813874 -0.09971429
v -0.221351 0.008138739 -0.03909274
v -0.2268794 0.00813874 -0.1638425
v -0.1907415 0.00813874 -0.01049566
v -0.1386349 0.00813874 0.04459112
v -0.08965475 0.00813874 0.09991913
v -0.02816346 0.00813874 0.1219559
v 0.08960088 0.008138739 0.09991915
v 0.02816343 0.00813874 0.1219559
v -0.2204298 0.00813874 -0.162931
v 0.2220638 0.01868414 -0.0980338
v 0.2268794 0.00813874 -0.09971429
v 0.2209755 0.00813874 -0.1005487
v -0.1907415 0.0282311 -0.01049566
v -0.2153391 0.01931523 -0.1585665
v -0.1865344 0.03024963 -0.1508733
v -0.2188875 0.01886744 -0.03909274
v 0.02264832 0.126674 -0.09613597
v 0.08960088 0.1023119 0.09991915
v 0.02752946 0.1220111 0.1220175
v 0.07872973 0.1064112 -0.09451698
v -0.02752947 0.1220111 0.1220175
v -0.08626151 0.1050396 -0.116137
v -0.03314232 0.1256495 -0.1031081
v -0.08965474 0.1023119 0.09991915
v -0.1412152 0.05929663 -0.1364017
v -0.1386349 0.0582553 0.04459112
v 0.1367273 0.0582553 0.04558238
v 0.1340564 0.06043437 -0.09900931
v 0.1840739 0.02991576 0.008484775
v 0.1925667 0.03117678 -0.09894126
v 0.2148712 0.02173036 -0.09825508
v 0.2220638 0.01868414 -0.0980338
v 0.217205 0.02069895 -0.01487317
v -0.08200591 0 -0.142119
v -0.1386349 0 0.04459112
v -0.08965475 0 0.09991915
v -0.138595 0 -0.1513655
v 0.02816342 1.862645E-11 0.1219559
v 0.08290531 0 -0.1204544
v 0.02827355 0 -0.1276326
v 0.08960088 5.960464E-10 0.09991915
v -0.02816345 5.960464E-10 0.1219559
v -0.02827355 0 -0.1345806
v -0.1849443 0 -0.1579159
v -0.221351 -5.960464E-10 -0.03909274
v -0.1907415 4.386135E-18 -0.01049566
v -0.2268794 0 -0.1638425
v 0.1365009 0 -0.1124872
v 0.1367273 0 0.04558237
v 0.1938913 0 -0.1043764
v 0.1840739 5.960464E-10 0.008484775
v 0.2268794 0 -0.09971429
v 0.2211809 0 -0.01487317
v 0.320159 0 0.003849632
v 0.3003025 0 0.05999025
v 0.2233141 0.0169654 -0.04303343
v 0.2278344 0.01685711 -0.093435
v -0.2288331 0.01817614 -0.1015997
v -0.2321545 0.01574067 -0.1582818
v 0.2209755 0.00813874 -0.1005487
v 0.2148712 0.02173036 -0.09825508
v -0.2219452 0.01680751 -0.1603309
v -0.2204298 0.00813874 -0.162931
v -0.2153391 0.01931523 -0.1585665
v -0.2268794 0.00813874 -0.1638425
v -0.2219452 0.01680751 -0.1603309
v -0.138595 0.00813874 -0.1513655
v -0.08200591 0.00813874 -0.142119
v -0.1849443 0.00813874 -0.1579159
v 0.1938913 0.00813874 -0.1043764
v 0.1365009 0.00813874 -0.1124872
v 0.08290531 0.00813874 -0.1204544
v 0.02827355 0.00813874 -0.1276326
v -0.02827355 0.00813874 -0.1345806
v -0.3319756 0.002530996 -0.1028553
v -0.3330081 0.002530996 -0.04699124
vt 0.9582988 0.9114226
vt 0.03253707 0.9114226
vt 0.03253707 0.9114226
vt 0.9582988 0.9114226
vt 0.0952281 0.9129004
vt 0.0952281 0.9129005
vt 0.03253707 0.9114226
vt 0.9582988 0.9114226
vt 0.03253707 0.9114226
vt 0.9582988 0.9114226
vt 0.03253707 0.9114226
vt 0.9582988 0.9114226
vt 0.03253707 0.9114226
vt 0.9582988 0.9114226
vt 0.9582988 0.9114226
vt 0.03253707 0.9114226
vt 0.5480625 0.7304461
vt 0.5480625 0.7304461
vt 0.5480625 0.7304461
vt 0.5480625 0.7304461
vt 0.5480625 0.7304461
vt 0.5480625 0.7304461
vt 0.5480625 0.7304461
vt 0.5480625 0.7304461
vt 0.5480625 0.7304461
vt 0.5480625 0.7304461
vt 0.09509952 0.8921139
vt 0.09509952 0.8921139
vt 0.09509952 0.8921139
vt 0.09509952 0.8921139
vt 0.09509952 0.8921139
vt 0.09509951 0.8921139
vt 0.09509952 0.8921139
vt 0.09509952 0.8921139
vt 0.09509951 0.8921139
vt 0.09509952 0.8921139
vt 0.5480625 0.7304461
vt 0.5480625 0.7304461
vt 0.5480625 0.7304461
vt 0.5480625 0.7304461
vt 0.5480625 0.7304461
vt 0.5480625 0.7304461
vt 0.5480625 0.7304461
vt 0.5480625 0.7304461
vt 0.5480625 0.7304461
vt 0.5480625 0.7304461
vt 0.09509951 0.8921139
vt 0.09509951 0.8921139
vt 0.09509951 0.8921139
vt 0.9122545 0.7350261
vt 0.09509951 0.8921139
vt 0.9122546 0.735026
vt 0.9122546 0.735026
vt 0.09509952 0.8921139
vt 0.09509952 0.8921139
vt 0.09509952 0.8921139
vt 0.09509952 0.8921139
vt 0.9122546 0.735026
vt 0.9122546 0.7350261
vt 0.09509951 0.8921139
vt 0.09509951 0.8921139
vt 0.9122545 0.735026
vt 0.09509952 0.8921139
vt 0.09509952 0.8921139
vt 0.5480625 0.7304461
vt 0.5480625 0.7304461
vt 0.5480625 0.7304461
vt 0.5480625 0.7304461
vt 0.09509951 0.8921139
vt 0.09509952 0.8921139
vt 0.09509951 0.8921139
vt 0.09509951 0.8921139
vt 0.09509951 0.8921139
vt 0.09509951 0.8921139
vt 0.9122546 0.7350261
vt 0.9122546 0.735026
vt 0.02973622 0.9114226
vt 0.9610997 0.9114226
vt 0.09522814 0.9129005
vt 0.09522814 0.9129006
vt 0.03253707 0.9114226
vt 0.9582988 0.9114226
vt 0.03253707 0.9114226
vt 0.9582988 0.9114226
vt 0.09522814 0.9129005
vt 0.09522814 0.9129005
vt 0.0952281 0.9129005
vt 0.0952281 0.9129006
vt 0.09598833 0.9056375
vt 0.09598833 0.9056374
vt 0.09509952 0.8921139
vt 0.9122546 0.7350261
vt 0.9122546 0.735026
vt 0.9122546 0.735026
vt 0.9122545 0.735026
vt 0.9122546 0.7350261
vt 0.9122545 0.7350261
vt 0.9122546 0.735026
vt 0.9122546 0.735026
vt 0.9122546 0.735026
vt 0.09509952 0.8921139
vt 0.09509951 0.8921139
vt 0.09509952 0.8921139
vt 0.09509952 0.8921139
vt 0.09509952 0.8921139
vt 0.09509951 0.8921139
vt 0.09509952 0.8921139
vt 0.09509952 0.8921139
vt 0.09509952 0.8921139
vt 0.09509952 0.8921139
vt 0.09509952 0.8921139
vt 0.09509951 0.8921139
vt 0.9122546 0.735026
vt 0.09598833 0.9056374
vt 0.09598833 0.9056375
vt 0.09509952 0.8921139
vt 0.08996574 0.2300274
vt 0.03962104 0.5451166
vt 0.09772432 0.5308679
vt 0.03396294 0.3206404
vt 0.5466183 0.4286047
vt 0.6755098 0.05795461
vt 0.5527139 0.01804118
vt 0.6589057 0.4241294
vt 0.4493257 0.0187608
vt 0.3342258 0.4668696
vt 0.4415838 0.4424106
vt 0.3269476 0.06030045
vt 0.1992712 0.5041306
vt 0.2030053 0.163945
vt 0.7975658 0.1587547
vt 0.7945414 0.4304799
vt 0.9017188 0.2133559
vt 0.9177643 0.4284874
vt 0.9633724 0.4265189
vt 0.9780798 0.4258842
vt 0.9665508 0.2702153
vt 0.395312 0.7284348
vt 0.395312 0.7284348
vt 0.395312 0.7284348
vt 0.395312 0.7284348
vt 0.395312 0.7284348
vt 0.395312 0.7284348
vt 0.395312 0.7284348
vt 0.395312 0.7284348
vt 0.395312 0.7284348
vt 0.395312 0.7284348
vt 0.395312 0.7284348
vt 0.395312 0.7284348
vt 0.395312 0.7284348
vt 0.395312 0.7284348
vt 0.395312 0.7284348
vt 0.395312 0.7284348
vt 0.395312 0.7284348
vt 0.395312 0.7284348
vt 0.395312 0.7284348
vt 0.395312 0.7284348
vt 0.02973622 0.9114226
vt 0.9610997 0.9114226
vt 0.9610997 0.9114226
vt 0.02973622 0.9114226
vt 0.9582988 0.9114226
vt 0.03253707 0.9114226
vt 0.9122546 0.7350261
vt 0.9122547 0.7350261
vt 0.09598833 0.9056374
vt 0.09598833 0.9056375
vt 0.09598833 0.9056375
vt 0.09598833 0.9056374
vt 0.02629548 0.5483844
vt 0.9122546 0.735026
vt 0.9122546 0.735026
vt 0.9122546 0.735026
vt 0.9122546 0.7350261
vt 0.9122546 0.7350261
vt 0.9122546 0.735026
vt 0.9122546 0.735026
vt 0.9122546 0.735026
vt 0.03253707 0.9114226
vt 0.9582988 0.9114226
vn -0.02308849 0.9997161 -0.005884885
vn -0.02308849 0.9997161 -0.005884885
vn -0.1618983 0.9866975 0.01473403
vn -0.1618983 0.9866975 0.01473403
vn -0.04141933 0.9987457 -0.02813164
vn -0.04141933 0.9987457 -0.02813164
vn 0.01234568 0.9996544 0.02321081
vn 0.01234568 0.9996544 0.02321081
vn 0.01398934 0.9998783 0.006901378
vn 0.01398934 0.9998783 0.006901378
vn 0 1 0
vn 0 1 0
vn -0.02382701 0.9996648 0.01013223
vn -0.02382701 0.9996648 0.01013223
vn 0.05739864 0.9983347 0.005767078
vn 0.05739864 0.9983347 0.005767078
vn -0.6619031 0.5413945 0.5184364
vn -0.6958475 0.6839017 0.2192595
vn -0.7011143 0.5683833 0.4305569
vn 0.6691525 0.6908986 0.273668
vn 0.6204748 0.5885619 0.518272
vn 0.6639703 0.5460528 0.5108521
vn 0.6394331 0.6556388 -0.4015758
vn -0.5316188 0.7335269 -0.4234616
vn -0.7830798 0.4746513 0.4018608
vn 0.7548108 0.4895175 0.4366156
vn -0.3900646 -0.7182737 0.5761359
vn -0.799114 -0.475183 0.3682632
vn -0.4983332 -0.7072755 0.5014235
vn 0.7488939 -0.4893225 0.4469021
vn 0.4066704 -0.7075742 0.5778911
vn 0.4862645 -0.7087322 0.5111219
vn -0.5216113 -0.7071548 0.4773403
vn 0.3928068 -0.7187191 0.5737122
vn -0.3133997 -0.4357949 -0.84372
vn 0.5092977 -0.3986291 -0.7626997
vn 0.68927 -4.278154E-07 0.7245046
vn 0.5820001 0.01619004 0.8130275
vn 0.8539443 0.1175761 0.5069073
vn 0.7531439 0.1947535 -0.6283671
vn -0.6441822 0.2551393 -0.7210639
vn -0.9039888 0.1110134 0.4128926
vn -0.7096093 0.01401642 0.7044559
vn -0.7377198 1.425269E-07 0.6751069
vn -0.5604078 0.0001928154 0.8282169
vn 0.5647232 0.0001927083 0.8252804
vn 0.1336276 0.04115802 -0.9901766
vn 0.101461 -0.7071091 -0.6997874
vn 0.1351728 0.01772484 -0.9906635
vn 0.4724446 0.7195404 -0.5089771
vn 0.09804618 -0.7071194 -0.7002636
vn 0.4156863 0.7429738 -0.5245901
vn -0.2893565 0.7843348 -0.5487182
vn 0.1061383 -0.7071292 -0.6990728
vn 0.1515534 0.03917435 -0.9876724
vn 0.1064917 -0.7071273 -0.699021
vn 0.1517178 0.03474431 -0.9878131
vn -0.3650213 0.7622979 -0.5344729
vn 0.3726474 0.7681456 -0.5206594
vn 0.1357896 -0.02848786 -0.9903281
vn 0.09894987 -0.7071067 -0.7001492
vn -0.2497313 0.809748 -0.5309824
vn 0.1402607 0.03025835 -0.9896521
vn 0.09894958 -0.7071066 -0.7001494
vn -0.2386934 0.6807438 0.6925412
vn 0.2278249 0.6846973 0.6923045
vn 0.1710808 5.209714E-05 0.985257
vn -0.1709443 5.206476E-05 0.9852807
vn 0.1202541 -0.7123548 0.6914403
vn -0.1201595 -0.7123461 0.6914656
vn 0.09223989 -0.7071197 -0.7010517
vn 0.08917603 -0.7071098 -0.7014579
vn 0.1268095 0.04578086 -0.9908701
vn 0.1326157 0.0428855 -0.9902394
vn 0.1784335 0.8275254 -0.5323187
vn -0.05128441 0.8408027 -0.5389069
vn 0.1499758 0.9864864 0.06596885
vn 0.1499758 0.9864864 0.06596885
vn 0.4169571 0.9087293 0.0189186
vn 0.4169571 0.9087293 0.0189186
vn -0.04553381 0.9989057 0.01068486
vn -0.04553381 0.9989057 0.01068486
vn 0.06686831 0.9970795 0.03689249
vn 0.06686831 0.9970795 0.03689249
vn 0.3577016 0.9308352 0.07480308
vn 0.3577016 0.9308352 0.07480308
vn -0.1709923 0.9852661 0.003495728
vn -0.1709923 0.9852661 0.003495728
vn 0.1561911 0.08968028 -0.9836472
vn 0.3301277 0.748516 -0.5750995
vn 0.1203984 0.1621636 -0.9793912
vn -0.1590586 0.8060682 -0.5700476
vn 0.09037993 0.2575437 -0.9620305
vn 0.07061824 0.269347 -0.9604505
vn 0.077499 0.2641071 -0.9613746
vn 0.1808332 0.1663478 -0.969344
vn 0.1868225 0.2313548 -0.9547629
vn 0.1745906 0.2489557 -0.9526485
vn 0.1365675 0.2529419 -0.9577941
vn 0.1128633 0.254006 -0.960595
vn 0.5820001 0.01619004 0.8130275
vn 0.68927 -4.278154E-07 0.7245046
vn 0.8539443 0.1175761 0.5069073
vn 0.7531439 0.1947535 -0.6283671
vn -0.9039888 0.1110134 0.4128926
vn -0.6441822 0.2551393 -0.7210639
vn -0.7096093 0.01401642 0.7044559
vn -0.7377198 1.425269E-07 0.6751069
vn -0.5604078 0.0001928154 0.8282169
vn -0.1709443 5.206476E-05 0.9852807
vn 0.5647232 0.0001927083 0.8252804
vn 0.1710808 5.209714E-05 0.985257
vn 0.1203984 0.1621636 -0.9793912
vn 0.6394331 0.6556388 -0.4015758
vn 0.7531439 0.1947535 -0.6283671
vn 0.1561911 0.08968028 -0.9836472
vn -0.7011143 0.5683833 0.4305569
vn -0.1590586 0.8060682 -0.5700476
vn -0.2497313 0.809748 -0.5309824
vn -0.6958475 0.6839017 0.2192595
vn 0.1784335 0.8275254 -0.5323187
vn 0.6639703 0.5460528 0.5108521
vn 0.2278249 0.6846973 0.6923045
vn 0.4156863 0.7429738 -0.5245901
vn -0.2386934 0.6807438 0.6925412
vn -0.2893565 0.7843348 -0.5487182
vn -0.05128441 0.8408027 -0.5389069
vn -0.6619031 0.5413945 0.5184364
vn -0.3650213 0.7622979 -0.5344729
vn -0.7830798 0.4746513 0.4018608
vn 0.7548108 0.4895175 0.4366156
vn 0.4724446 0.7195404 -0.5089771
vn 0.6204748 0.5885619 0.518272
vn 0.3726474 0.7681456 -0.5206594
vn 0.3301277 0.748516 -0.5750995
vn 0.6394331 0.6556388 -0.4015758
vn 0.6691525 0.6908986 0.273668
vn 0.1061383 -0.7071292 -0.6990728
vn -0.5216113 -0.7071548 0.4773403
vn -0.3900646 -0.7182737 0.5761359
vn 0.1064917 -0.7071273 -0.699021
vn 0.1202541 -0.7123548 0.6914403
vn 0.09804618 -0.7071194 -0.7002636
vn 0.08917603 -0.7071098 -0.7014579
vn 0.3928068 -0.7187191 0.5737122
vn -0.1201595 -0.7123461 0.6914656
vn 0.09223989 -0.7071197 -0.7010517
vn 0.09894958 -0.7071066 -0.7001494
vn -0.799114 -0.475183 0.3682632
vn -0.4983332 -0.7072755 0.5014235
vn -0.3133997 -0.4357949 -0.84372
vn 0.101461 -0.7071091 -0.6997874
vn 0.4862645 -0.7087322 0.5111219
vn 0.09894987 -0.7071067 -0.7001492
vn 0.4066704 -0.7075742 0.5778911
vn 0.5092977 -0.3986291 -0.7626997
vn 0.7488939 -0.4893225 0.4469021
vn 0 1 0
vn 0 1 0
vn 0.3577016 0.9308352 0.07480308
vn 0.3577016 0.9308352 0.07480308
vn -0.1709923 0.9852661 0.003495728
vn -0.1709923 0.9852661 0.003495728
vn 0.1561911 0.08968028 -0.9836472
vn 0.3301277 0.748516 -0.5750995
vn -0.5316188 0.7335269 -0.4234616
vn 0.1203984 0.1621636 -0.9793912
vn -0.1590586 0.8060682 -0.5700476
vn -0.6441822 0.2551393 -0.7210639
vn -0.5316188 0.7335269 -0.4234616
vn 0.1517178 0.03474431 -0.9878131
vn 0.1515534 0.03917435 -0.9876724
vn 0.1402607 0.03025835 -0.9896521
vn 0.1357896 -0.02848786 -0.9903281
vn 0.1351728 0.01772484 -0.9906635
vn 0.1336276 0.04115802 -0.9901766
vn 0.1268095 0.04578086 -0.9908701
vn 0.1326157 0.0428855 -0.9902394
vn -0.1088683 0.9936744 -0.02754954
vn -0.1088683 0.9936744 -0.02754954
g gayClub_fannyPack_geo_0
f 3/3/3 162/162/162 163/163/163
f 4/4/4 162/162/162 3/3/3
f 2/2/2 4/4/4 3/3/3
f 1/1/1 4/4/4 2/2/2
f 87/87/87 6/6/6 5/5/5
f 88/88/88 6/6/6 87/87/87
f 82/82/82 9/9/9 10/10/10
f 81/81/81 9/9/9 82/82/82
f 14/14/14 81/81/81 82/82/82
f 13/13/13 81/81/81 14/14/14
f 15/15/15 13/13/13 14/14/14
f 16/16/16 13/13/13 15/15/15
f 83/83/83 12/12/12 11/11/11
f 84/84/84 12/12/12 83/83/83
f 7/7/7 84/84/84 83/83/83
f 8/8/8 84/84/84 7/7/7
f 179/179/179 8/8/8 7/7/7
f 180/180/180 8/8/8 179/179/179
f 39/39/39 40/40/40 23/23/23
f 20/20/20 39/39/39 23/23/23
f 38/38/38 39/39/39 20/20/20
f 21/21/21 38/38/38 20/20/20
f 37/37/37 38/38/38 21/21/21
f 26/26/26 37/37/37 21/21/21
f 46/46/46 37/37/37 26/26/26
f 22/22/22 46/46/46 26/26/26
f 67/67/67 46/46/46 22/22/22
f 66/66/66 67/67/67 22/22/22
f 68/68/68 67/67/67 66/66/66
f 65/65/65 68/68/68 66/66/66
f 45/45/45 68/68/68 65/65/65
f 17/17/17 45/45/45 65/65/65
f 44/44/44 45/45/45 17/17/17
f 25/25/25 44/44/44 17/17/17
f 43/43/43 44/44/44 25/25/25
f 19/19/19 43/43/43 25/25/25
f 42/42/42 43/43/43 19/19/19
f 18/18/18 42/42/42 19/19/19
f 41/41/41 42/42/42 18/18/18
f 24/24/24 41/41/41 18/18/18
f 114/114/114 89/89/89 90/90/90
f 115/115/115 89/89/89 114/114/114
f 121/121/121 125/125/125 123/123/123
f 122/122/122 121/121/121 123/123/123
f 124/124/124 121/121/121 122/122/122
f 131/131/131 124/124/124 122/122/122
f 132/132/132 124/124/124 131/131/131
f 133/133/133 132/132/132 131/131/131
f 134/134/134 132/132/132 133/133/133
f 137/137/137 134/134/134 133/133/133
f 135/135/135 134/134/134 137/137/137
f 136/136/136 135/135/135 137/137/137
f 148/148/148 149/149/149 151/151/151
f 150/150/150 149/149/149 148/148/148
f 141/141/141 150/150/150 148/148/148
f 139/139/139 150/150/150 141/141/141
f 138/138/138 139/139/139 141/141/141
f 140/140/140 139/139/139 138/138/138
f 146/146/146 140/140/140 138/138/138
f 155/155/155 156/156/156 157/157/157
f 154/154/154 156/156/156 155/155/155
f 153/153/153 154/154/154 155/155/155
f 152/152/152 154/154/154 153/153/153
f 145/145/145 152/152/152 153/153/153
f 143/143/143 152/152/152 145/145/145
f 142/142/142 143/143/143 145/145/145
f 144/144/144 143/143/143 142/142/142
f 146/146/146 144/144/144 142/142/142
f 147/147/147 144/144/144 146/146/146
f 138/138/138 147/147/147 146/146/146
f 79/79/79 86/86/86 80/80/80
f 85/85/85 86/86/86 79/79/79
f 77/77/77 161/161/161 160/160/160
f 78/78/78 77/77/77 160/160/160
f 158/158/158 77/77/77 78/78/78
f 159/159/159 158/158/158 78/78/78
f 93/93/93 172/172/172 171/171/171
f 178/178/178 172/172/172 93/93/93
f 100/100/100 178/178/178 93/93/93
f 177/177/177 178/178/178 100/100/100
f 99/99/99 177/177/177 100/100/100
f 176/176/176 177/177/177 99/99/99
f 98/98/98 176/176/176 99/99/99
f 175/175/175 176/176/176 98/98/98
f 97/97/97 175/175/175 98/98/98
f 174/174/174 175/175/175 97/97/97
f 96/96/96 174/174/174 97/97/97
f 164/164/164 174/174/174 96/96/96
f 59/59/59 164/164/164 96/96/96
f 165/165/165 164/164/164 59/59/59
f 167/167/167 166/166/166 168/168/168
f 169/169/169 166/166/166 167/167/167
f 125/125/125 121/121/121 127/127/127
f 126/126/126 125/125/125 127/127/127
f 128/128/128 125/125/125 126/126/126
f 129/129/129 128/128/128 126/126/126
f 130/130/130 128/128/128 129/129/129
f 119/119/119 130/130/130 129/129/129
f 117/117/117 130/130/130 119/119/119
f 118/118/118 117/117/117 119/119/119
f 120/120/120 117/117/117 118/118/118
f 170/170/170 120/120/120 118/118/118
f 50/50/50 97/97/97 98/98/98
f 96/96/96 97/97/97 50/50/50
f 59/59/59 96/96/96 50/50/50
f 70/70/70 110/110/110 109/109/109
f 112/112/112 110/110/110 70/70/70
f 69/69/69 112/112/112 70/70/70
f 111/111/111 112/112/112 69/69/69
f 34/34/34 111/111/111 69/69/69
f 102/102/102 111/111/111 34/34/34
f 32/32/32 102/102/102 34/34/34
f 101/101/101 102/102/102 32/32/32
f 31/31/31 101/101/101 32/32/32
f 103/103/103 101/101/101 31/31/31
f 30/30/30 103/103/103 31/31/31
f 104/104/104 103/103/103 30/30/30
f 36/36/36 104/104/104 30/30/30
f 116/116/116 104/104/104 36/36/36
f 61/61/61 116/116/116 36/36/36
f 60/60/60 116/116/116 61/61/61
f 49/49/49 60/60/60 61/61/61
f 47/47/47 51/51/51 72/72/72
f 48/48/48 51/51/51 47/47/47
f 49/49/49 48/48/48 47/47/47
f 61/61/61 48/48/48 49/49/49
f 109/109/109 27/27/27 70/70/70
f 33/33/33 27/27/27 109/109/109
f 108/108/108 33/33/33 109/109/109
f 29/29/29 33/33/33 108/108/108
f 107/107/107 29/29/29 108/108/108
f 28/28/28 29/29/29 107/107/107
f 105/105/105 28/28/28 107/107/107
f 35/35/35 28/28/28 105/105/105
f 106/106/106 35/35/35 105/105/105
f 91/91/91 35/35/35 106/106/106
f 54/54/54 55/55/55 74/74/74
f 57/57/57 55/55/55 54/54/54
f 56/56/56 57/57/57 54/54/54
f 64/64/64 57/57/57 56/56/56
f 94/94/94 58/58/58 53/53/53
f 62/62/62 58/58/58 94/94/94
f 95/95/95 62/62/62 94/94/94
f 92/92/92 62/62/62 95/95/95
f 113/113/113 92/92/92 95/95/95
f 95/95/95 173/173/173 113/113/113
f 171/171/171 173/173/173 95/95/95
f 94/94/94 171/171/171 95/95/95
f 93/93/93 171/171/171 94/94/94
f 53/53/53 93/93/93 94/94/94
f 100/100/100 93/93/93 53/53/53
f 76/76/76 100/100/100 53/53/53
f 99/99/99 100/100/100 76/76/76
f 75/75/75 99/99/99 76/76/76
f 98/98/98 99/99/99 75/75/75
f 52/52/52 98/98/98 75/75/75
f 50/50/50 98/98/98 52/52/52
f 74/74/74 71/71/71 54/54/54
f 72/72/72 71/71/71 74/74/74
f 73/73/73 72/72/72 74/74/74
f 47/47/47 72/72/72 73/73/73
f 64/64/64 63/63/63 57/57/57
f 91/91/91 63/63/63 64/64/64
f 35/35/35 91/91/91 64/64/64
