g geo_C2_palette_house
v -2.000005 1.5 0.001152344
v 2.000005 1.499999 0.001152344
v -2.000005 -1.5 0.001152344
v 2.000005 -1.5 0.001152344
v 2.245809 -1.684353 0.1164453
v 2.245809 1.684352 0.1164453
v -2.245809 1.684352 0.1164453
v -2.245809 -1.684353 0.1164453
v 2.000005 1.499999 0.001152344
v 2.245809 1.684352 0.1164453
v -2.245809 1.684352 0.1164453
v -2.000005 1.5 0.001152344
vt 1.871047 0
vt -1.328062 0
vt 5.070155 0
vt -4.070155 0
vt -4.070155 1
vt -1.328062 1
vt 1.871046 1
vt 5.070155 1
vt -1.328062 0
vt -1.328062 1
vt 1.871046 1
vt 1.871047 0
vn 0 0.5302404 -0.8478474
vn 0.4246447 0 -0.9053602
vn -0.4246446 0 -0.9053602
vn 0.4246447 0 -0.9053602
vn 0.4246447 0 -0.9053602
vn 0.4246447 0 -0.9053602
vn 0 0.5302404 -0.8478474
vn -0.4246446 0 -0.9053602
vn 0 0.5302404 -0.8478474
vn 0 0.5302404 -0.8478474
vn -0.4246446 0 -0.9053602
vn -0.4246446 0 -0.9053602
g geo_C2_palette_house_0
f 2/2/2 5/5/5 4/4/4
f 6/6/6 5/5/5 2/2/2
f 9/9/9 7/7/7 10/10/10
f 1/1/1 7/7/7 9/9/9
f 11/11/11 3/3/3 8/8/8
f 12/12/12 3/3/3 11/11/11
