g geo_signs
v 0.3947656 2.459536 1.377461
v 0.3947656 2.296212 1.377461
v -0.02611816 2.296212 1.376572
v -0.02611816 2.459536 1.376572
v 0.3950976 2.459536 1.219346
v 0.3950976 2.296212 1.219346
v -0.02578125 2.296212 1.218447
v -0.02578125 2.459536 1.218447
v 0.3093701 2.637471 1.355654
v 0.409624 2.557525 1.35585
v 0.4652734 2.441995 1.355977
v 0.4652734 2.313755 1.355977
v 0.409624 2.198219 1.35585
v 0.3093701 2.11827 1.355654
v 0.1843359 2.089737 1.355391
v 0.05933594 2.118272 1.355156
v -0.04090332 2.198226 1.354902
v -0.0965625 2.313759 1.354785
v -0.0965625 2.441992 1.354785
v -0.04091309 2.557525 1.354902
v 0.05933594 2.637475 1.355127
v 0.1843359 2.666008 1.355391
v 0.3096289 2.637477 1.24083
v 0.4098779 2.557523 1.241035
v 0.4655176 2.441991 1.241152
v 0.4655176 2.313759 1.241162
v 0.4098779 2.198223 1.241035
v 0.3096289 2.118268 1.24083
v 0.1846289 2.089736 1.240557
v 0.05959472 2.118268 1.240303
v -0.04067871 2.198219 1.240117
v -0.09629394 2.313757 1.23999
v -0.09629394 2.441991 1.23999
v -0.04065429 2.557522 1.240117
v 0.05959472 2.637475 1.240303
v 0.1846289 2.666014 1.240557
v 0.3037695 2.625864 1.373184
v 0.3995166 2.549493 1.373408
v 0.4526806 2.439128 1.373506
v 0.4526806 2.316622 1.373525
v 0.3995166 2.206252 1.373408
v 0.3037695 2.129877 1.373174
v 0.1843066 2.10262 1.372939
v 0.06490722 2.12988 1.372686
v -0.03087402 2.206258 1.372451
v -0.08404297 2.316626 1.372363
v -0.08404297 2.439125 1.372363
v -0.03087402 2.549494 1.372451
v 0.06491699 2.62587 1.372686
v 0.1843213 2.653124 1.372939
v 0.3040674 2.62587 1.223252
v 0.3998291 2.549491 1.223457
v 0.4529932 2.439124 1.223594
v 0.4529932 2.316626 1.223594
v 0.3998389 2.206256 1.223457
v 0.3040674 2.129876 1.223252
v 0.1846338 2.102618 1.223018
v 0.06521972 2.129875 1.222754
v -0.03055176 2.206252 1.22252
v -0.08371094 2.316624 1.222432
v -0.08371094 2.439123 1.222461
v -0.03055176 2.549489 1.222568
v 0.06522949 2.625869 1.222754
v 0.1846484 2.653132 1.223018
v 0.2232471 -0.01999999 1.320518
v 0.2233301 -0.02 1.275654
v 0.1846289 -0.01999999 1.253223
v 0.1457471 -0.01999993 1.275518
v 0.145625 -0.01999994 1.320283
v 0.1843897 -0.02 1.342773
v 0.2231787 2.122141 1.320361
v 0.2233301 2.122141 1.275635
v 0.1846045 2.122142 1.253193
v 0.1457471 2.122143 1.275518
v 0.1456494 2.122142 1.320283
v 0.1843359 2.122141 1.342685
v 0.1845752 -0.006630497 1.253145
v 0.2233301 -0.00663035 1.275635
v 0.2232471 -0.006630189 1.320518
v 0.1843897 -0.006630198 1.342773
v 0.145625 -0.006630302 1.320283
v 0.145708 -0.006630441 1.275488
v 0.145708 2.072206 1.275488
v 0.1845605 2.072206 1.253145
v 0.2233301 2.072205 1.275635
v 0.2232178 2.072205 1.32042
v 0.1843701 2.072206 1.342734
v 0.145625 2.072205 1.320283
v 0.409624 2.557525 1.35585
v 0.3037695 2.625864 1.373184
v 0.3093701 2.637471 1.355654
v 0.4652734 2.441995 1.355977
v 0.4652734 2.313755 1.355977
v 0.409624 2.198219 1.35585
v 0.3093701 2.11827 1.355654
v 0.1843359 2.089737 1.355391
v 0.05933594 2.118272 1.355156
v -0.04090332 2.198226 1.354902
v -0.0965625 2.313759 1.354785
v -0.0965625 2.441992 1.354785
v -0.04091309 2.557525 1.354902
v 0.05933594 2.637475 1.355127
v 0.06491699 2.62587 1.372686
v 0.1843359 2.666008 1.355391
v 0.1843213 2.653124 1.372939
v 0.3096289 2.637477 1.24083
v 0.4098779 2.557523 1.241035
v 0.3040674 2.62587 1.223252
v 0.4655176 2.441991 1.241152
v 0.4655176 2.313759 1.241162
v 0.4098779 2.198223 1.241035
v 0.3096289 2.118268 1.24083
v 0.1846289 2.089736 1.240557
v 0.05959472 2.118268 1.240303
v -0.04067871 2.198219 1.240117
v -0.09629394 2.313757 1.23999
v -0.09629394 2.441991 1.23999
v -0.04065429 2.557522 1.240117
v 0.06522949 2.625869 1.222754
v 0.05959472 2.637475 1.240303
v 0.1846484 2.653132 1.223018
v 0.1846289 2.666014 1.240557
v -0.03055176 2.549489 1.222568
v 0.4529932 2.439124 1.223594
v 0.3998291 2.549491 1.223457
v -0.08371094 2.439123 1.222461
v -0.08371094 2.316624 1.222432
v 0.3998389 2.206256 1.223457
v 0.4529932 2.316626 1.223594
v -0.03055176 2.206252 1.22252
v 0.06521972 2.129875 1.222754
v 0.1846338 2.102618 1.223018
v 0.3040674 2.129876 1.223252
v 0.3995166 2.549493 1.373408
v -0.08404297 2.439125 1.372363
v -0.03087402 2.549494 1.372451
v 0.4526806 2.439128 1.373506
v 0.4526806 2.316622 1.373525
v -0.03087402 2.206258 1.372451
v -0.08404297 2.316626 1.372363
v 0.3995166 2.206252 1.373408
v 0.3037695 2.129877 1.373174
v 0.1843066 2.10262 1.372939
v 0.06490722 2.12988 1.372686
v 0.2233301 -0.00663035 1.275635
v 0.1845752 -0.006630497 1.253145
v 0.2232471 -0.006630189 1.320518
v 0.1843897 -0.006630198 1.342773
v 0.145625 -0.006630302 1.320283
v 0.145708 -0.006630441 1.275488
v 0.1845605 2.072206 1.253145
v 0.145708 2.072206 1.275488
v 0.2233301 2.072205 1.275635
v 0.2232178 2.072205 1.32042
v 0.1843701 2.072206 1.342734
v 0.145625 2.072205 1.320283
vt 0.7206786 0.2288606
vt 0.7206786 0.1593231
vt 0.5509744 0.159323
vt 0.5509744 0.2288606
vt 0.5509744 0.2288606
vt 0.5509744 0.1593231
vt 0.7206786 0.1593231
vt 0.7206786 0.2288606
vt 0.989831 0.13058
vt 0.989831 0.13058
vt 0.989831 0.13058
vt 0.989831 0.13058
vt 0.989831 0.13058
vt 0.989831 0.13058
vt 0.989831 0.13058
vt 0.989831 0.13058
vt 0.989831 0.13058
vt 0.989831 0.13058
vt 0.989831 0.13058
vt 0.989831 0.13058
vt 0.989831 0.13058
vt 0.989831 0.13058
vt 0.989831 0.13058
vt 0.989831 0.13058
vt 0.989831 0.13058
vt 0.989831 0.13058
vt 0.989831 0.13058
vt 0.989831 0.13058
vt 0.989831 0.13058
vt 0.989831 0.13058
vt 0.989831 0.13058
vt 0.989831 0.13058
vt 0.989831 0.13058
vt 0.989831 0.13058
vt 0.989831 0.13058
vt 0.989831 0.13058
vt 0.5421655 0.1642714
vt 0.9671286 0.0900898
vt 0.9671286 0.0900898
vt 0.9671286 0.0900898
vt 0.9671286 0.0900898
vt 0.9671286 0.0900898
vt 0.9671286 0.0900898
vt 0.9671286 0.0900898
vt 0.9671286 0.0900898
vt 0.9671286 0.0900898
vt 0.9671286 0.0900898
vt 0.9671286 0.0900898
vt 0.5421655 0.1642714
vt 0.5421655 0.1642714
vt 0.5421655 0.1642714
vt 0.9671286 0.0900898
vt 0.9671286 0.0900898
vt 0.9671286 0.0900898
vt 0.9671286 0.0900898
vt 0.9671286 0.0900898
vt 0.9671286 0.0900898
vt 0.9671286 0.0900898
vt 0.9671286 0.0900898
vt 0.9671286 0.0900898
vt 0.9671286 0.0900898
vt 0.9671286 0.0900898
vt 0.5421655 0.1642714
vt 0.5421655 0.1642714
vt 0.9671286 0.0900898
vt 0.9671286 0.0900898
vt 0.9671286 0.0900898
vt 0.9671286 0.0900898
vt 0.9671286 0.0900898
vt 0.9671286 0.0900898
vt 0.9671286 0.0900898
vt 0.9671286 0.0900898
vt 0.9671286 0.0900898
vt 0.9671286 0.0900898
vt 0.9671286 0.0900898
vt 0.9671286 0.0900898
vt 0.9671286 0.0900898
vt 0.9671286 0.0900898
vt 0.9671286 0.0900898
vt 0.9671286 0.0900898
vt 0.9671286 0.0900898
vt 0.9671286 0.0900898
vt 0.9677108 0.13058
vt 0.9677108 0.13058
vt 0.9677108 0.13058
vt 0.9677108 0.13058
vt 0.9677108 0.13058
vt 0.9677108 0.13058
vt 0.9671286 0.0900898
vt 0.9671286 0.0900898
vt 0.9671286 0.0900898
vt 0.9671286 0.0900898
vt 0.9671286 0.0900898
vt 0.9671286 0.0900898
vt 0.9671286 0.0900898
vt 0.9671286 0.0900898
vt 0.9671286 0.0900898
vt 0.9671286 0.0900898
vt 0.9671286 0.0900898
vt 0.9671286 0.0900898
vt 0.9671286 0.0900898
vt 0.9671286 0.0900898
vt 0.9671286 0.0900898
vt 0.9671286 0.0900898
vt 0.9671286 0.0900898
vt 0.9671286 0.0900898
vt 0.9671286 0.0900898
vt 0.9671286 0.0900898
vt 0.9671286 0.0900898
vt 0.9671286 0.0900898
vt 0.9671286 0.0900898
vt 0.9671286 0.0900898
vt 0.9671286 0.0900898
vt 0.9671286 0.0900898
vt 0.9671286 0.0900898
vt 0.9671286 0.0900898
vt 0.9671286 0.0900898
vt 0.9671286 0.0900898
vt 0.9671286 0.0900898
vt 0.9671286 0.0900898
vt 0.9671286 0.0900898
vt 0.9671286 0.0900898
vt 0.5421655 0.1642714
vt 0.5421655 0.1642714
vt 0.5421655 0.1642714
vt 0.5421655 0.1642714
vt 0.5421655 0.1642714
vt 0.5421655 0.1642714
vt 0.5421655 0.1642714
vt 0.5421655 0.1642714
vt 0.5421655 0.1642714
vt 0.5421655 0.1642714
vt 0.5421655 0.1642714
vt 0.5421655 0.1642714
vt 0.5421655 0.1642714
vt 0.5421655 0.1642714
vt 0.5421655 0.1642714
vt 0.5421655 0.1642714
vt 0.5421655 0.1642714
vt 0.5421655 0.1642714
vt 0.5421655 0.1642714
vt 0.5421655 0.1642714
vt 0.5421655 0.1642714
vt 0.5421655 0.1642714
vt 0.9677108 0.13058
vt 0.9677108 0.13058
vt 0.9677108 0.13058
vt 0.9677108 0.13058
vt 0.9677108 0.13058
vt 0.9677108 0.13058
vt 0.9671286 0.0900898
vt 0.9671286 0.0900898
vt 0.9671286 0.0900898
vt 0.9671286 0.0900898
vt 0.9671286 0.0900898
vt 0.9671286 0.0900898
vn -0.00211144 0 0.9999979
vn -0.00211144 0 0.9999979
vn -0.00211144 0 0.9999979
vn -0.00211144 0 0.9999979
vn 0.002134549 0 -0.9999977
vn 0.002134549 0 -0.9999977
vn 0.002134549 0 -0.9999977
vn 0.002134549 0 -0.9999977
vn 0.4115098 0.8558031 0.3134657
vn 0.7420102 0.5922975 0.3140137
vn 0.9254475 0.2114248 0.3143987
vn 0.9254696 -0.2114187 0.3143377
vn 0.7420268 -0.5922936 0.3139817
vn 0.4114915 -0.8557869 0.3135339
vn -0.0006420662 -0.9497901 0.3128869
vn -0.4127628 -0.8556637 0.3121962
vn -0.7432405 -0.5921419 0.3113866
vn -0.9267061 -0.2113983 0.3106875
vn -0.9267045 0.2114004 0.3106908
vn -0.7432326 0.5921938 0.3113064
vn -0.4127764 0.8557146 0.3120386
vn -0.0006493671 0.9498245 0.3127825
vn 0.4128146 0.8557894 -0.3117831
vn 0.7432567 0.592222 -0.3111956
vn 0.926631 0.2113541 -0.310941
vn 0.9266533 -0.2113612 -0.3108698
vn 0.7432954 -0.5922182 -0.31111
vn 0.4128011 -0.8557909 -0.3117968
vn 0.0006492236 -0.9498551 -0.31269
vn -0.4115061 -0.8558546 -0.3133298
vn -0.7421186 -0.5923079 -0.3137376
vn -0.9255487 -0.2113661 -0.3141401
vn -0.9254712 0.2114154 -0.3143352
vn -0.7420253 0.5922475 -0.3140722
vn -0.4115273 0.8557822 -0.3134999
vn 0.0006579783 0.9498574 -0.312683
vn 0.1925936 0.4037364 0.8943739
vn 0.348574 0.2795296 0.894628
vn 0.4351345 0.09982228 0.8948148
vn 0.4351814 -0.09980691 0.8947937
vn 0.3485901 -0.2795793 0.8946062
vn 0.1925748 -0.4036399 0.8944216
vn -0.001649901 -0.5907723 0.8068365
vn -0.1961752 -0.4032701 0.8938056
vn -0.3520673 -0.2792242 0.8933545
vn -0.4387099 -0.09974818 0.8930756
vn -0.4386728 0.09974626 0.893094
vn -0.352046 0.2792147 0.893366
vn -0.1962163 0.4034118 0.8937327
vn -0.001680538 0.590948 0.8067079
vn 0.1962749 0.4037624 -0.8935615
vn 0.352106 0.2792357 -0.8933358
vn 0.4385189 0.09964628 -0.8931807
vn 0.4386071 -0.0995751 -0.8931454
vn 0.3522142 -0.279327 -0.8932645
vn 0.1962822 -0.4038423 -0.8935237
vn 0.001680431 -0.5911997 -0.8065235
vn -0.1925984 -0.4040436 -0.8942341
vn -0.3487746 -0.2796209 -0.8945214
vn -0.4354279 -0.09968957 -0.8946868
vn -0.4352926 0.09979919 -0.8947405
vn -0.3486384 0.2794153 -0.8946387
vn -0.1926057 0.4038358 -0.8943264
vn 0.001687807 0.591195 -0.8065268
vn 0.8646972 7.345519E-07 0.5022935
vn 0.8669763 -0.001241254 -0.4983477
vn 0.002190566 -0.004250309 -0.9999886
vn -0.8648427 -0.003853557 -0.5020281
vn -0.8671235 -0.0008446243 0.4980924
vn -0.002781869 0 0.9999962
vn 0.8647643 0.0009758457 0.502177
vn 0.8672175 0.0003435246 -0.4979294
vn 0.001873971 0.0007473383 -0.999998
vn -0.8650404 0.0009979936 -0.5017012
vn -0.8668877 0.000583431 0.4985031
vn -0.001762515 0.0009651588 0.999998
vn 0.002075703 -0.002125407 -0.9999956
vn 0.8670402 -0.0006180804 -0.4982379
vn 0.8647339 1.234139E-05 0.5022303
vn -0.002560804 1.158196E-05 0.9999968
vn -0.8670365 -0.0004206366 0.4982443
vn -0.864981 -0.001927234 -0.501801
vn -0.8650783 0.000498492 -0.5016366
vn 0.001917385 0.0003736968 -0.9999981
vn 0.8671606 0.000174296 -0.4980286
vn 0.8647675 0.0004999993 0.5021722
vn -0.002051129 0.0004941396 0.9999979
vn -0.8669186 0.0002933563 0.4984496
vn 0.7420102 0.5922975 0.3140137
vn 0.1925936 0.4037364 0.8943739
vn 0.4115098 0.8558031 0.3134657
vn 0.9254475 0.2114248 0.3143987
vn 0.9254696 -0.2114187 0.3143377
vn 0.7420268 -0.5922936 0.3139817
vn 0.4114915 -0.8557869 0.3135339
vn -0.0006420662 -0.9497901 0.3128869
vn -0.4127628 -0.8556637 0.3121962
vn -0.7432405 -0.5921419 0.3113866
vn -0.9267061 -0.2113983 0.3106875
vn -0.9267045 0.2114004 0.3106908
vn -0.7432326 0.5921938 0.3113064
vn -0.4127764 0.8557146 0.3120386
vn -0.1962163 0.4034118 0.8937327
vn -0.0006493671 0.9498245 0.3127825
vn -0.001680538 0.590948 0.8067079
vn 0.4128146 0.8557894 -0.3117831
vn 0.7432567 0.592222 -0.3111956
vn 0.1962749 0.4037624 -0.8935615
vn 0.926631 0.2113541 -0.310941
vn 0.9266533 -0.2113612 -0.3108698
vn 0.7432954 -0.5922182 -0.31111
vn 0.4128011 -0.8557909 -0.3117968
vn 0.0006492236 -0.9498551 -0.31269
vn -0.4115061 -0.8558546 -0.3133298
vn -0.7421186 -0.5923079 -0.3137376
vn -0.9255487 -0.2113661 -0.3141401
vn -0.9254712 0.2114154 -0.3143352
vn -0.7420253 0.5922475 -0.3140722
vn -0.1926057 0.4038358 -0.8943264
vn -0.4115273 0.8557822 -0.3134999
vn 0.001687807 0.591195 -0.8065268
vn 0.0006579783 0.9498574 -0.312683
vn -0.3486384 0.2794153 -0.8946387
vn 0.4385189 0.09964628 -0.8931807
vn 0.352106 0.2792357 -0.8933358
vn -0.4352926 0.09979919 -0.8947405
vn -0.4354279 -0.09968957 -0.8946868
vn 0.3522142 -0.279327 -0.8932645
vn 0.4386071 -0.0995751 -0.8931454
vn -0.3487746 -0.2796209 -0.8945214
vn -0.1925984 -0.4040436 -0.8942341
vn 0.001680431 -0.5911997 -0.8065235
vn 0.1962822 -0.4038423 -0.8935237
vn 0.348574 0.2795296 0.894628
vn -0.4386728 0.09974626 0.893094
vn -0.352046 0.2792147 0.893366
vn 0.4351345 0.09982228 0.8948148
vn 0.4351814 -0.09980691 0.8947937
vn -0.3520673 -0.2792242 0.8933545
vn -0.4387099 -0.09974818 0.8930756
vn 0.3485901 -0.2795793 0.8946062
vn 0.1925748 -0.4036399 0.8944216
vn -0.001649901 -0.5907723 0.8068365
vn -0.1961752 -0.4032701 0.8938056
vn 0.8670402 -0.0006180804 -0.4982379
vn 0.002075703 -0.002125407 -0.9999956
vn 0.8647339 1.234139E-05 0.5022303
vn -0.002560804 1.158196E-05 0.9999968
vn -0.8670365 -0.0004206366 0.4982443
vn -0.864981 -0.001927234 -0.501801
vn 0.001917385 0.0003736968 -0.9999981
vn -0.8650783 0.000498492 -0.5016366
vn 0.8671606 0.000174296 -0.4980286
vn 0.8647675 0.0004999993 0.5021722
vn -0.002051129 0.0004941396 0.9999979
vn -0.8669186 0.0002933563 0.4984496
g geo_signs_0
f 3/3/3 1/1/1 4/4/4
f 2/2/2 1/1/1 3/3/3
f 6/6/6 8/8/8 5/5/5
f 7/7/7 8/8/8 6/6/6
f 134/134/134 136/136/136 135/135/135
f 49/49/49 136/136/136 134/134/134
f 37/37/37 49/49/49 134/134/134
f 50/50/50 49/49/49 37/37/37
f 133/133/133 132/132/132 131/131/131
f 130/130/130 133/133/133 131/131/131
f 128/128/128 133/133/133 130/130/130
f 127/127/127 128/128/128 130/130/130
f 129/129/129 128/128/128 127/127/127
f 126/126/126 129/129/129 127/127/127
f 124/124/124 129/129/129 126/126/126
f 123/123/123 124/124/124 126/126/126
f 125/125/125 124/124/124 123/123/123
f 63/63/63 125/125/125 123/123/123
f 51/51/51 125/125/125 63/63/63
f 64/64/64 51/51/51 63/63/63
f 137/137/137 134/134/134 135/135/135
f 140/140/140 137/137/137 135/135/135
f 138/138/138 137/137/137 140/140/140
f 139/139/139 138/138/138 140/140/140
f 141/141/141 138/138/138 139/139/139
f 144/144/144 141/141/141 139/139/139
f 142/142/142 141/141/141 144/144/144
f 143/143/143 142/142/142 144/144/144
f 23/23/23 9/9/9 24/24/24
f 22/22/22 9/9/9 23/23/23
f 36/36/36 22/22/22 23/23/23
f 21/21/21 22/22/22 36/36/36
f 35/35/35 21/21/21 36/36/36
f 20/20/20 21/21/21 35/35/35
f 34/34/34 20/20/20 35/35/35
f 19/19/19 20/20/20 34/34/34
f 33/33/33 19/19/19 34/34/34
f 18/18/18 19/19/19 33/33/33
f 32/32/32 18/18/18 33/33/33
f 17/17/17 18/18/18 32/32/32
f 31/31/31 17/17/17 32/32/32
f 16/16/16 17/17/17 31/31/31
f 30/30/30 16/16/16 31/31/31
f 15/15/15 16/16/16 30/30/30
f 29/29/29 15/15/15 30/30/30
f 14/14/14 15/15/15 29/29/29
f 28/28/28 14/14/14 29/29/29
f 13/13/13 14/14/14 28/28/28
f 27/27/27 13/13/13 28/28/28
f 12/12/12 13/13/13 27/27/27
f 26/26/26 12/12/12 27/27/27
f 11/11/11 12/12/12 26/26/26
f 25/25/25 11/11/11 26/26/26
f 10/10/10 11/11/11 25/25/25
f 24/24/24 10/10/10 25/25/25
f 9/9/9 10/10/10 24/24/24
f 38/38/38 89/89/89 90/90/90
f 92/92/92 89/89/89 38/38/38
f 39/39/39 92/92/92 38/38/38
f 93/93/93 92/92/92 39/39/39
f 40/40/40 93/93/93 39/39/39
f 94/94/94 93/93/93 40/40/40
f 41/41/41 94/94/94 40/40/40
f 95/95/95 94/94/94 41/41/41
f 42/42/42 95/95/95 41/41/41
f 96/96/96 95/95/95 42/42/42
f 43/43/43 96/96/96 42/42/42
f 97/97/97 96/96/96 43/43/43
f 44/44/44 97/97/97 43/43/43
f 98/98/98 97/97/97 44/44/44
f 45/45/45 98/98/98 44/44/44
f 99/99/99 98/98/98 45/45/45
f 46/46/46 99/99/99 45/45/45
f 100/100/100 99/99/99 46/46/46
f 47/47/47 100/100/100 46/46/46
f 101/101/101 100/100/100 47/47/47
f 48/48/48 101/101/101 47/47/47
f 102/102/102 101/101/101 48/48/48
f 103/103/103 102/102/102 48/48/48
f 104/104/104 102/102/102 103/103/103
f 105/105/105 104/104/104 103/103/103
f 91/91/91 104/104/104 105/105/105
f 90/90/90 91/91/91 105/105/105
f 89/89/89 91/91/91 90/90/90
f 108/108/108 106/106/106 52/52/52
f 122/122/122 106/106/106 108/108/108
f 121/121/121 122/122/122 108/108/108
f 120/120/120 122/122/122 121/121/121
f 119/119/119 120/120/120 121/121/121
f 118/118/118 120/120/120 119/119/119
f 62/62/62 118/118/118 119/119/119
f 117/117/117 118/118/118 62/62/62
f 61/61/61 117/117/117 62/62/62
f 116/116/116 117/117/117 61/61/61
f 60/60/60 116/116/116 61/61/61
f 115/115/115 116/116/116 60/60/60
f 59/59/59 115/115/115 60/60/60
f 114/114/114 115/115/115 59/59/59
f 58/58/58 114/114/114 59/59/59
f 113/113/113 114/114/114 58/58/58
f 57/57/57 113/113/113 58/58/58
f 112/112/112 113/113/113 57/57/57
f 56/56/56 112/112/112 57/57/57
f 111/111/111 112/112/112 56/56/56
f 55/55/55 111/111/111 56/56/56
f 110/110/110 111/111/111 55/55/55
f 54/54/54 110/110/110 55/55/55
f 109/109/109 110/110/110 54/54/54
f 53/53/53 109/109/109 54/54/54
f 107/107/107 109/109/109 53/53/53
f 52/52/52 107/107/107 53/53/53
f 106/106/106 107/107/107 52/52/52
f 79/79/79 65/65/65 78/78/78
f 70/70/70 65/65/65 79/79/79
f 80/80/80 70/70/70 79/79/79
f 69/69/69 70/70/70 80/80/80
f 81/81/81 69/69/69 80/80/80
f 68/68/68 69/69/69 81/81/81
f 82/82/82 68/68/68 81/81/81
f 67/67/67 68/68/68 82/82/82
f 77/77/77 67/67/67 82/82/82
f 66/66/66 67/67/67 77/77/77
f 78/78/78 66/66/66 77/77/77
f 65/65/65 66/66/66 78/78/78
f 85/85/85 145/145/145 84/84/84
f 147/147/147 145/145/145 85/85/85
f 86/86/86 147/147/147 85/85/85
f 148/148/148 147/147/147 86/86/86
f 87/87/87 148/148/148 86/86/86
f 149/149/149 148/148/148 87/87/87
f 88/88/88 149/149/149 87/87/87
f 150/150/150 149/149/149 88/88/88
f 83/83/83 150/150/150 88/88/88
f 146/146/146 150/150/150 83/83/83
f 84/84/84 146/146/146 83/83/83
f 145/145/145 146/146/146 84/84/84
f 73/73/73 151/151/151 74/74/74
f 153/153/153 151/151/151 73/73/73
f 72/72/72 153/153/153 73/73/73
f 154/154/154 153/153/153 72/72/72
f 71/71/71 154/154/154 72/72/72
f 155/155/155 154/154/154 71/71/71
f 76/76/76 155/155/155 71/71/71
f 156/156/156 155/155/155 76/76/76
f 75/75/75 156/156/156 76/76/76
f 152/152/152 156/156/156 75/75/75
f 74/74/74 152/152/152 75/75/75
f 151/151/151 152/152/152 74/74/74
