g glassesSquare_geo
v -0.05061238 1.443964 0.1792414
v 0.05061167 1.443964 0.1792417
v 0.1509208 1.436944 0.1926388
v 0.1431061 1.435376 0.192749
v 0.1519213 1.477176 0.1898121
v 0.009362499 1.478962 0.1961315
v 0.1519213 1.476845 0.1850997
v 0.009362499 1.478616 0.1912083
v 0.01660065 1.44601 0.1933329
v 0.01660065 1.446367 0.1984216
v 0.08607837 1.48088 0.190054
v 0.08607837 1.481223 0.194938
v 0.1441066 1.469359 0.1818774
v 0.08607837 1.473532 0.1905702
v 0.01640153 1.470988 0.1918881
v 0.1509208 1.443727 0.1868448
v 0.1431061 1.445343 0.1867312
v 0.009362496 1.461373 0.1922535
v 0.009362496 1.461731 0.1973421
v 0.1441066 1.469828 0.1903284
v 0.08607837 1.473875 0.1954543
v 0.01640153 1.471323 0.1966682
v 0.1511978 1.432199 0.008896396
v 0.1438073 1.433815 0.008782846
v 0.1438073 1.423475 0.009509331
v 0.1511978 1.425044 0.009399094
v -0.1509208 1.436944 0.1926388
v -0.1431061 1.435376 0.192749
v -0.1519213 1.477176 0.1898121
v -0.009362498 1.478962 0.1961315
v -0.1519213 1.476845 0.1850997
v -0.009362498 1.478616 0.1912083
v -0.01660065 1.44601 0.1933329
v -0.01660065 1.446367 0.1984216
v -0.08607837 1.48088 0.190054
v -0.08607837 1.481223 0.194938
v -0.1441066 1.469497 0.1838411
v -0.08607837 1.473532 0.1905702
v -0.01640153 1.470988 0.1918881
v -0.1509208 1.443727 0.1868448
v -0.1431061 1.445343 0.1867312
v -0.009362495 1.461373 0.1922535
v -0.009362495 1.461731 0.1973421
v -0.1441066 1.469828 0.1903284
v -0.08607837 1.473875 0.1954543
v -0.01640153 1.471323 0.1966682
v -0.1511978 1.432199 0.008896396
v -0.1438073 1.433815 0.008782846
v -0.1438073 1.423475 0.009509331
v -0.1511978 1.425044 0.009399094
v -0.1506296 1.436472 0.1873545
v 0.1506198 1.436468 0.1873548
v -0.08607834 1.473828 0.194795
v -0.01908461 1.406854 0.200167
v -0.01620715 1.471395 0.1959097
v -0.1432905 1.4699 0.1895874
v -0.1409943 1.406469 0.1938877
v -0.01493324 1.403326 0.1943084
v -0.1447097 1.402814 0.187818
v -0.1467571 1.469396 0.18417
v -0.01266899 1.470892 0.1887522
v -0.08607835 1.473561 0.190989
v 0.08607833 1.473829 0.1947949
v 0.01908463 1.406854 0.200167
v 0.01620715 1.471395 0.1959097
v 0.1441066 1.469918 0.1898578
v 0.1409943 1.406469 0.1938877
v 0.01493324 1.403326 0.1943084
v 0.1447098 1.402814 0.187818
v 0.145941 1.469514 0.1858632
v 0.012669 1.470892 0.1887523
v 0.08607837 1.473561 0.190989
v -0.04018404 1.39405 0.180922
v -0.01641475 1.418075 0.1812252
v -0.01375602 1.450473 0.1852768
v -3.442642E-20 1.545415 0.1724801
v -0.08393662 1.536673 0.1489165
v -0.04234899 1.542067 0.1668084
v -0.1172009 1.513627 0.1076979
v -0.1054314 1.526221 0.1276328
v -0.1214795 1.482725 0.1029993
v -0.1126404 1.496371 0.1335799
v -0.08785752 1.506547 0.1563863
v 5.811182E-10 1.50109 0.1843536
v -0.1152001 1.472214 0.1238537
v 1.921993E-31 1.478264 0.188553
v -0.123511 1.400932 0.1467639
v -0.09268786 1.402374 0.1631777
v -0.04388324 1.505665 0.175438
v -0.1175621 1.442923 0.1195754
v -0.1265747 1.450878 0.09842132
v -0.09011211 1.381809 0.1695402
v -0.09526995 1.441172 0.158625
v -0.09268165 1.473425 0.1561129
v -0.04601901 1.363877 0.1805769
v 0.08393662 1.536673 0.1489165
v 0.04234899 1.542067 0.1668084
v 0.1172009 1.513627 0.1076979
v 0.1054314 1.526221 0.1276328
v 0.1214795 1.482725 0.1029993
v 0.1126404 1.496371 0.1335799
v 0.08785752 1.506547 0.1563863
v 0.1152001 1.472214 0.1238537
v 0.123511 1.400932 0.1467639
v 0.04388323 1.505665 0.175438
v 0.1175621 1.442923 0.1195754
v 0.1265747 1.450878 0.09842132
v 0.09011211 1.381809 0.1695402
v 0.04601901 1.363877 0.1805769
v -0.0078447 1.468398 0.1864988
v 0.01641475 1.418075 0.1812252
v 0.04018405 1.39405 0.180922
v 0.01375602 1.450473 0.1852768
v 0.09268165 1.473425 0.1561129
v 0.007844699 1.468398 0.1864988
v 0.09268788 1.402374 0.1631777
v 0.09526995 1.441172 0.158625
v 0.131731 1.423 0.09391595
v -0.131731 1.423 0.09391595
v -0.05083188 1.473019 0.175964
v 0.05083063 1.473019 0.1759625
v -0.1409943 1.406469 0.1938877
v -0.01908461 1.406854 0.200167
v -0.01620715 1.471395 0.1959097
v -0.1432905 1.4699 0.1895874
v -0.01493324 1.403326 0.1943084
v -0.01266899 1.470892 0.1887522
v -0.1467571 1.469396 0.18417
v -0.1447097 1.402814 0.187818
v 0.1409943 1.406469 0.1938877
v 0.01908463 1.406854 0.200167
v 0.01620715 1.471395 0.1959097
v 0.1441066 1.469918 0.1898578
v 0.012669 1.470892 0.1887523
v 0.01493324 1.403326 0.1943084
v 0.145941 1.469514 0.1858632
v 0.1447098 1.402814 0.187818
v 0.1511978 1.425044 0.009399094
v 0.1511978 1.432199 0.008896396
v 0.1438073 1.423475 0.009509331
v -0.1511978 1.432199 0.008896396
v -0.1438073 1.423475 0.009509331
v -0.1438073 1.433815 0.008782846
v -0.1511978 1.425044 0.009399094
vt 0.5861186 0.1799835
vt 0.6554136 0.1799373
vt 0.9935931 0.1319903
vt 0.9935931 0.1319903
vt 0.9935931 0.1319903
vt 0.9935931 0.1319903
vt 0.9935931 0.1319903
vt 0.9935931 0.1319903
vt 0.9935931 0.1319903
vt 0.9935931 0.1319903
vt 0.9935931 0.1319903
vt 0.9935931 0.1319903
vt 0.9935931 0.1319903
vt 0.9935931 0.1319903
vt 0.9935931 0.1319903
vt 0.9935931 0.1319903
vt 0.9935931 0.1319903
vt 0.9935931 0.1319903
vt 0.9935931 0.1319903
vt 0.9935931 0.1319903
vt 0.9935931 0.1319903
vt 0.9935931 0.1319903
vt 0.9935931 0.1319903
vt 0.9935931 0.1319903
vt 0.9935931 0.1319903
vt 0.9935931 0.1319903
vt 0.9935931 0.1319903
vt 0.9935931 0.1319903
vt 0.9935931 0.1319903
vt 0.9935931 0.1319903
vt 0.9935931 0.1319903
vt 0.9935931 0.1319903
vt 0.9935931 0.1319903
vt 0.9935931 0.1319903
vt 0.9935931 0.1319903
vt 0.9935931 0.1319903
vt 0.9935931 0.1319903
vt 0.9935931 0.1319903
vt 0.9935931 0.1319903
vt 0.9935931 0.1319903
vt 0.9935931 0.1319903
vt 0.9935931 0.1319903
vt 0.9935931 0.1319903
vt 0.9935931 0.1319903
vt 0.9935931 0.1319903
vt 0.9935931 0.1319903
vt 0.9935931 0.1319903
vt 0.9935931 0.1319903
vt 0.9935931 0.1319903
vt 0.9935931 0.1319903
vt 0.9935931 0.1319903
vt 0.9935931 0.1319903
vt 0.5267118 0.4851094
vt 0.5395447 0.4723171
vt 0.5400995 0.4846129
vt 0.5157235 0.4844151
vt 0.5161737 0.4723171
vt 0.9935931 0.1319903
vt 0.9935931 0.1319903
vt 0.9935931 0.1319903
vt 0.9935931 0.1319903
vt 0.9936343 0.1301427
vt 0.5291684 0.4712597
vt 0.5163355 0.4584673
vt 0.5157807 0.4707631
vt 0.5401568 0.4705652
vt 0.5397065 0.4584672
vt 0.9935931 0.1319903
vt 0.9935931 0.1319903
vt 0.9935931 0.1319903
vt 0.9935931 0.1319903
vt 0.9936343 0.1301427
vt 0.5952369 0.1525219
vt 0.609272 0.1652171
vt 0.6118491 0.1833163
vt 0.6208208 0.2370126
vt 0.5709926 0.2348446
vt 0.5967374 0.2360381
vt 0.5391007 0.2267187
vt 0.5532084 0.2313995
vt 0.5326503 0.2101151
vt 0.5511216 0.2141571
vt 0.5703214 0.2187866
vt 0.6208061 0.2112482
vt 0.5435185 0.2018772
vt 0.6207881 0.1982188
vt 0.5446969 0.1592047
vt 0.5588102 0.1637741
vt 0.5961452 0.2151743
vt 0.5379044 0.186347
vt 0.5261052 0.1932088
vt 0.566309 0.1469012
vt 0.5598741 0.1820814
vt 0.5631263 0.2007566
vt 0.5912639 0.1358164
vt 0.6706498 0.2347731
vt 0.6449049 0.2360006
vt 0.7025329 0.2265933
vt 0.6884336 0.2313003
vt 0.708956 0.2099806
vt 0.6904886 0.2140525
vt 0.6713018 0.2187188
vt 0.6980705 0.2017636
vt 0.6968539 0.1591319
vt 0.6454414 0.2151336
vt 0.7036614 0.1862297
vt 0.7154677 0.19306
vt 0.6752508 0.146835
vt 0.6503085 0.1357385
vt 0.6157351 0.193155
vt 0.6322905 0.1651062
vt 0.6463328 0.1524421
vt 0.6296577 0.183187
vt 0.6784528 0.200671
vt 0.6257148 0.1930227
vt 0.6827401 0.163708
vt 0.6816748 0.1820062
vt 0.7221435 0.178624
vt 0.5194243 0.1787674
vt 0.5914891 0.2019633
vt 0.6500626 0.201928
vt 0.9935931 0.1319903
vt 0.9935931 0.1319903
vt 0.9935931 0.1319903
vt 0.9935931 0.1319903
vt 0.9936343 0.1301427
vt 0.9936343 0.1301427
vt 0.9936343 0.1301427
vt 0.9936343 0.1301427
vt 0.9935931 0.1319903
vt 0.9935931 0.1319903
vt 0.9935931 0.1319903
vt 0.9935931 0.1319903
vt 0.9936343 0.1301427
vt 0.9936343 0.1301427
vt 0.9936343 0.1301427
vt 0.9936343 0.1301427
vt 0.9935931 0.1319903
vt 0.9935931 0.1319903
vt 0.9935931 0.1319903
vt 0.9935931 0.1319903
vt 0.9935931 0.1319903
vt 0.9935931 0.1319903
vt 0.9935931 0.1319903
vn -0.2731059 0.03632352 0.9612979
vn 0.2731044 0.03634068 0.9612978
vn 0.8423922 -0.3764783 0.3855379
vn -0.5920863 -0.6828653 0.4279354
vn 0.462741 0.4317459 0.774252
vn -0.4134721 0.4651778 0.7827199
vn 0.4688531 0.4147353 -0.7798535
vn -0.4141438 0.3473653 -0.8413218
vn 0.4192206 -0.4559204 -0.7851055
vn 0.4087819 -0.3472444 0.8439898
vn -0.02689153 0.7111947 -0.7024807
vn 0.04403013 0.7482919 0.6619068
vn -0.4063363 -0.3834387 -0.8293766
vn -0.05035549 -0.7097091 -0.7026928
vn 0.4261164 -0.4591787 -0.779474
vn 0.9332495 0.2058813 -0.2943778
vn -0.7539507 0.4366796 -0.4907843
vn -0.3978125 0.3557008 -0.8457081
vn -0.4082498 0.4644696 0.7858754
vn -0.3985744 -0.3518451 0.8469613
vn 0.02543811 -0.6648026 0.7465858
vn 0.4266359 -0.3417082 0.8373873
vn 0.6591592 0.4830063 -0.5763802
vn -0.4930879 0.563541 -0.6627864
vn -0.4950482 -0.6479686 -0.578847
vn 0.6457049 -0.5760549 -0.5012245
vn -0.8424118 -0.3759194 0.3860402
vn 0.5916293 -0.6826282 0.4289446
vn -0.4627409 0.431746 0.774252
vn 0.4134712 0.4651781 0.7827202
vn -0.4285959 0.3868231 -0.8165008
vn 0.4141442 0.3473652 -0.8413216
vn -0.4192203 -0.4559205 -0.7851057
vn -0.4087828 -0.3472442 0.8439895
vn 0.02597313 0.6852815 -0.727815
vn -0.04403007 0.7482919 0.6619068
vn 0.4380472 -0.4021886 -0.8039645
vn 0.0466246 -0.7287912 -0.6831468
vn -0.4261159 -0.4591787 -0.7794742
vn -0.9241406 0.2224437 -0.310617
vn 0.7704393 0.427068 -0.4733247
vn 0.3978129 0.3557007 -0.8457079
vn 0.4082489 0.4644699 0.7858757
vn 0.3982036 -0.3518091 0.8471506
vn -0.02544355 -0.6650924 0.7463275
vn -0.4266366 -0.3417079 0.8373869
vn -0.6590326 0.4832729 -0.5763013
vn 0.4930882 0.5635408 -0.6627864
vn 0.4950026 -0.6479831 -0.5788699
vn -0.64587 -0.5757711 -0.5013376
vn -0.7639889 -0.6445458 0.02969377
vn 0.7636313 -0.6449886 0.02927227
vn -0.05334676 0.05299819 0.9971686
vn 0.241147 -0.236273 0.9412881
vn 0.4903616 0.04082701 0.8705623
vn -0.5263215 0.03789071 0.8494409
vn -0.3093162 -0.2310547 0.9224626
vn 0.5363826 -0.5834261 -0.6098424
vn -0.4757977 -0.6061257 -0.6373603
vn -0.8444339 -0.0538989 -0.5329411
vn 0.8586243 -0.07943214 -0.5064138
vn 0.04398181 -0.04285199 -0.9981128
vn 0.05125589 0.05128874 0.9973677
vn -0.241146 -0.2362706 0.9412889
vn -0.4903612 0.0408273 0.8705625
vn 0.5453389 0.02940346 0.8376998
vn 0.3181756 -0.2380679 0.9176536
vn -0.5363853 -0.5834261 -0.6098401
vn 0.4954748 -0.5785062 -0.647947
vn 0.8383508 -0.036691 -0.5438949
vn -0.8586245 -0.07943159 -0.5064133
vn -0.03465753 -0.03506447 -0.9987839
vn -0.2364988 0.03523826 0.9709926
vn -0.08558341 -0.03675739 0.9956527
vn -0.1453862 0.01540749 0.989255
vn -1.358224E-07 0.2490266 0.9684966
vn -0.5724245 0.2670107 0.7752647
vn -0.278825 0.2481222 0.9277349
vn -0.9398459 0.1836345 0.2880415
vn -0.8508186 0.2348233 0.4700699
vn -0.9465396 0.07762761 0.3131083
vn -0.8711782 0.1109931 0.4782563
vn -0.5896 0.1502317 0.7936008
vn 4.563545E-07 0.1845919 0.9828152
vn -0.8851814 0.02143323 0.4647522
vn 1.053368E-06 0.1185924 0.992943
vn -0.7261224 0.2804457 0.627771
vn -0.4553016 0.1636608 0.875166
vn -0.2850428 0.1513634 0.946488
vn -0.8732002 0.1641663 0.4588801
vn -0.9159632 0.07963468 0.3932808
vn -0.3618043 0.1699558 0.9166312
vn -0.6053464 0.118382 0.7871096
vn -0.6302828 0.05550605 0.7743789
vn -0.2505401 0.1298709 0.9593556
vn 0.5724241 0.2670105 0.7752651
vn 0.2788245 0.2481219 0.9277351
vn 0.939846 0.1836345 0.2880412
vn 0.8508186 0.2348233 0.4700699
vn 0.9465399 0.07762775 0.3131073
vn 0.8711783 0.1109932 0.478256
vn 0.5895968 0.1502238 0.7936047
vn 0.8851817 0.02143351 0.4647513
vn 0.7261239 0.2804472 0.6277686
vn 0.2850487 0.1513483 0.9464888
vn 0.8732 0.1641664 0.4588803
vn 0.9159631 0.07963435 0.3932811
vn 0.361808 0.1699578 0.9166293
vn 0.2505383 0.1298702 0.9593562
vn -0.2176042 0.08270475 0.9725268
vn 0.08557877 -0.03676004 0.995653
vn 0.2364976 0.03523704 0.9709929
vn 0.1453924 0.01542674 0.9892538
vn 0.6302755 0.05550598 0.7743848
vn 0.2176247 0.08270402 0.9725222
vn 0.4553034 0.1636617 0.8751649
vn 0.605342 0.1183899 0.7871118
vn 0.9153132 0.2028222 0.3479439
vn -0.9153134 0.2028221 0.3479435
vn -0.3192708 0.07811175 0.9444389
vn 0.319276 0.07811042 0.9444371
vn -0.3093162 -0.2310547 0.9224626
vn 0.241147 -0.236273 0.9412881
vn 0.4903616 0.04082701 0.8705623
vn -0.5263215 0.03789071 0.8494409
vn 0.5363826 -0.5834261 -0.6098424
vn 0.8586243 -0.07943214 -0.5064138
vn -0.8444339 -0.0538989 -0.5329411
vn -0.4757977 -0.6061257 -0.6373603
vn 0.3181756 -0.2380679 0.9176536
vn -0.241146 -0.2362706 0.9412889
vn -0.4903612 0.0408273 0.8705625
vn 0.5453389 0.02940346 0.8376998
vn -0.8586245 -0.07943159 -0.5064133
vn -0.5363853 -0.5834261 -0.6098401
vn 0.8383508 -0.036691 -0.5438949
vn 0.4954748 -0.5785062 -0.647947
vn 0.6457049 -0.5760549 -0.5012245
vn 0.6591592 0.4830063 -0.5763802
vn -0.4950482 -0.6479686 -0.578847
vn -0.6590326 0.4832729 -0.5763013
vn 0.4950026 -0.6479831 -0.5788699
vn 0.4930882 0.5635408 -0.6627864
vn -0.64587 -0.5757711 -0.5013376
g glassesSquare_geo_0
f 73/73/73 92/92/92 95/95/95
f 88/88/88 92/92/92 73/73/73
f 1/1/1 88/88/88 73/73/73
f 93/93/93 88/88/88 1/1/1
f 94/94/94 93/93/93 1/1/1
f 85/85/85 93/93/93 94/94/94
f 82/82/82 85/85/85 94/94/94
f 81/81/81 85/85/85 82/82/82
f 80/80/80 81/81/81 82/82/82
f 79/79/79 81/81/81 80/80/80
f 112/112/112 109/109/109 108/108/108
f 116/116/116 112/112/112 108/108/108
f 2/2/2 112/112/112 116/116/116
f 117/117/117 2/2/2 116/116/116
f 114/114/114 2/2/2 117/117/117
f 103/103/103 114/114/114 117/117/117
f 101/101/101 114/114/114 103/103/103
f 100/100/100 101/101/101 103/103/103
f 99/99/99 101/101/101 100/100/100
f 98/98/98 99/99/99 100/100/100
f 138/138/138 24/24/24 139/139/139
f 140/140/140 24/24/24 138/138/138
f 142/142/142 141/141/141 143/143/143
f 144/144/144 141/141/141 142/142/142
f 83/83/83 78/78/78 77/77/77
f 89/89/89 78/78/78 83/83/83
f 120/120/120 89/89/89 83/83/83
f 110/110/110 89/89/89 120/120/120
f 1/1/1 110/110/110 120/120/120
f 75/75/75 110/110/110 1/1/1
f 74/74/74 75/75/75 1/1/1
f 2/2/2 113/113/113 111/111/111
f 115/115/115 113/113/113 2/2/2
f 121/121/121 115/115/115 2/2/2
f 105/105/105 115/115/115 121/121/121
f 102/102/102 105/105/105 121/121/121
f 97/97/97 105/105/105 102/102/102
f 96/96/96 97/97/97 102/102/102
f 2/2/2 111/111/111 112/112/112
f 90/90/90 119/119/119 87/87/87
f 91/91/91 119/119/119 90/90/90
f 81/81/81 91/91/91 90/90/90
f 83/83/83 82/82/82 94/94/94
f 80/80/80 82/82/82 83/83/83
f 77/77/77 80/80/80 83/83/83
f 105/105/105 86/86/86 115/115/115
f 84/84/84 86/86/86 105/105/105
f 76/76/76 84/84/84 105/105/105
f 89/89/89 84/84/84 76/76/76
f 78/78/78 89/89/89 76/76/76
f 106/106/106 103/103/103 117/117/117
f 100/100/100 103/103/103 106/106/106
f 107/107/107 100/100/100 106/106/106
f 102/102/102 99/99/99 96/96/96
f 101/101/101 99/99/99 102/102/102
f 114/114/114 101/101/101 102/102/102
f 76/76/76 105/105/105 97/97/97
f 106/106/106 118/118/118 107/107/107
f 104/104/104 118/118/118 106/106/106
f 116/116/116 104/104/104 106/106/106
f 108/108/108 104/104/104 116/116/116
f 86/86/86 89/89/89 110/110/110
f 84/84/84 89/89/89 86/86/86
f 90/90/90 93/93/93 85/85/85
f 88/88/88 93/93/93 90/90/90
f 87/87/87 88/88/88 90/90/90
f 92/92/92 88/88/88 87/87/87
f 73/73/73 74/74/74 1/1/1
f 120/120/120 94/94/94 1/1/1
f 83/83/83 94/94/94 120/120/120
f 114/114/114 121/121/121 2/2/2
f 102/102/102 121/121/121 114/114/114
f 81/81/81 90/90/90 85/85/85
f 117/117/117 116/116/116 106/106/106
g glassesSquare_geo_1
f 59/59/59 125/125/125 60/60/60
f 122/122/122 125/125/125 59/59/59
f 58/58/58 122/122/122 59/59/59
f 123/123/123 122/122/122 58/58/58
f 61/61/61 123/123/123 58/58/58
f 124/124/124 123/123/123 61/61/61
f 62/62/62 129/129/129 128/128/128
f 126/126/126 129/129/129 62/62/62
f 127/127/127 126/126/126 62/62/62
f 69/69/69 70/70/70 133/133/133
f 130/130/130 69/69/69 133/133/133
f 68/68/68 69/69/69 130/130/130
f 131/131/131 68/68/68 130/130/130
f 71/71/71 68/68/68 131/131/131
f 132/132/132 71/71/71 131/131/131
f 72/72/72 135/135/135 134/134/134
f 137/137/137 135/135/135 72/72/72
f 136/136/136 137/137/137 72/72/72
f 51/51/51 47/47/47 50/50/50
f 40/40/40 47/47/47 51/51/51
f 27/27/27 40/40/40 51/51/51
f 29/29/29 40/40/40 27/27/27
f 28/28/28 29/29/29 27/27/27
f 44/44/44 29/29/29 28/28/28
f 37/37/37 44/44/44 28/28/28
f 45/45/45 44/44/44 37/37/37
f 38/38/38 45/45/45 37/37/37
f 46/46/46 45/45/45 38/38/38
f 39/39/39 46/46/46 38/38/38
f 34/34/34 46/46/46 39/39/39
f 33/33/33 34/34/34 39/39/39
f 10/10/10 34/34/34 33/33/33
f 9/9/9 10/10/10 33/33/33
f 15/15/15 10/10/10 9/9/9
f 18/18/18 15/15/15 9/9/9
f 8/8/8 15/15/15 18/18/18
f 19/19/19 8/8/8 18/18/18
f 6/6/6 8/8/8 19/19/19
f 10/10/10 6/6/6 19/19/19
f 22/22/22 6/6/6 10/10/10
f 15/15/15 22/22/22 10/10/10
f 14/14/14 22/22/22 15/15/15
f 11/11/11 14/14/14 15/15/15
f 7/7/7 14/14/14 11/11/11
f 5/5/5 7/7/7 11/11/11
f 16/16/16 7/7/7 5/5/5
f 3/3/3 16/16/16 5/5/5
f 52/52/52 16/16/16 3/3/3
f 4/4/4 52/52/52 3/3/3
f 26/26/26 52/52/52 4/4/4
f 25/25/25 26/26/26 4/4/4
f 12/12/12 8/8/8 6/6/6
f 22/22/22 12/12/12 6/6/6
f 21/21/21 12/12/12 22/22/22
f 14/14/14 21/21/21 22/22/22
f 13/13/13 21/21/21 14/14/14
f 7/7/7 13/13/13 14/14/14
f 17/17/17 13/13/13 7/7/7
f 16/16/16 17/17/17 7/7/7
f 24/24/24 17/17/17 16/16/16
f 23/23/23 24/24/24 16/16/16
f 11/11/11 15/15/15 8/8/8
f 12/12/12 11/11/11 8/8/8
f 5/5/5 11/11/11 12/12/12
f 21/21/21 5/5/5 12/12/12
f 20/20/20 5/5/5 21/21/21
f 13/13/13 20/20/20 21/21/21
f 4/4/4 20/20/20 13/13/13
f 17/17/17 4/4/4 13/13/13
f 25/25/25 4/4/4 17/17/17
f 24/24/24 25/25/25 17/17/17
f 23/23/23 52/52/52 26/26/26
f 16/16/16 52/52/52 23/23/23
f 28/28/28 51/51/51 50/50/50
f 49/49/49 28/28/28 50/50/50
f 41/41/41 28/28/28 49/49/49
f 48/48/48 41/41/41 49/49/49
f 40/40/40 41/41/41 48/48/48
f 47/47/47 40/40/40 48/48/48
f 4/4/4 5/5/5 20/20/20
f 3/3/3 5/5/5 4/4/4
f 43/43/43 19/19/19 18/18/18
f 42/42/42 43/43/43 18/18/18
f 32/32/32 43/43/43 42/42/42
f 39/39/39 32/32/32 42/42/42
f 35/35/35 32/32/32 39/39/39
f 38/38/38 35/35/35 39/39/39
f 31/31/31 35/35/35 38/38/38
f 37/37/37 31/31/31 38/38/38
f 41/41/41 31/31/31 37/37/37
f 28/28/28 41/41/41 37/37/37
f 51/51/51 28/28/28 27/27/27
f 31/31/31 41/41/41 40/40/40
f 29/29/29 31/31/31 40/40/40
f 35/35/35 31/31/31 29/29/29
f 36/36/36 35/35/35 29/29/29
f 32/32/32 35/35/35 36/36/36
f 30/30/30 32/32/32 36/36/36
f 43/43/43 32/32/32 30/30/30
f 34/34/34 43/43/43 30/30/30
f 19/19/19 43/43/43 34/34/34
f 10/10/10 19/19/19 34/34/34
f 45/45/45 29/29/29 44/44/44
f 36/36/36 29/29/29 45/45/45
f 46/46/46 36/36/36 45/45/45
f 30/30/30 36/36/36 46/46/46
f 34/34/34 30/30/30 46/46/46
f 42/42/42 33/33/33 39/39/39
f 9/9/9 33/33/33 42/42/42
f 18/18/18 9/9/9 42/42/42
g glassesSquare_geo_2
f 53/53/53 54/54/54 55/55/55
f 57/57/57 54/54/54 53/53/53
f 56/56/56 57/57/57 53/53/53
g glassesSquare_geo_3
f 63/63/63 67/67/67 66/66/66
f 64/64/64 67/67/67 63/63/63
f 65/65/65 64/64/64 63/63/63
