g hairBeardA2_geo
v 0.003158838 1.485024 0.1990235
v 0.002415867 1.266188 0.2048839
v -0.01567379 1.49076 0.1957298
v -0.05576319 1.480174 0.1955265
v -0.08660024 1.46397 0.1910748
v -0.07581526 1.462966 0.1974056
v -0.09443349 1.444934 0.1958451
v -0.0986595 1.413178 0.2022578
v -0.07944564 1.430081 0.2065997
v -0.06788935 1.434448 0.2103197
v -0.07681268 1.415523 0.2101813
v -0.06897753 1.416227 0.2110183
v -0.08035801 1.391636 0.20912
v -0.07947262 1.357004 0.2090401
v -0.07322551 1.365785 0.2128823
v -0.06562466 1.331891 0.2124901
v -0.04078007 1.29027 0.2086614
v -0.04242277 1.302981 0.2130126
v -0.02313012 1.275243 0.2067002
v -0.02313012 1.285218 0.2108765
v 0.002450529 1.274899 0.2115356
v 0.003321346 1.478449 0.2052161
v -0.01649243 1.48425 0.202209
v -0.0526797 1.474973 0.2015921
v -0.06885608 1.467985 0.2002383
v -0.06408223 1.466297 0.2026985
v -0.08699472 1.443563 0.2023344
v -0.08906699 1.432333 0.2043547
v -0.08066492 1.439034 0.2064214
v -0.05259129 1.450036 0.2120483
v -0.06454508 1.428226 0.2147446
v -0.05590993 1.426714 0.2155265
v -0.07214542 1.391003 0.2156427
v -0.07232761 1.37351 0.2159859
v -0.06804349 1.373831 0.2178672
v -0.05966102 1.33678 0.2183881
v -0.04742678 1.315746 0.21785
v -0.04497729 1.316695 0.2187562
v -0.02842758 1.291724 0.2155826
v -0.02724202 1.296103 0.2172926
v 0.002450529 1.296557 0.2221684
v 0.002463316 1.328529 0.23012
v 0.003079604 1.38558 0.2298712
v 0.003497365 1.418911 0.2236777
v 0.003533013 1.454714 0.2152667
v -0.02491029 1.328182 0.2284128
v -0.03425135 1.384891 0.227723
v -0.02752072 1.418502 0.2230057
v -0.02443781 1.449514 0.2165718
v -0.01718842 1.4425 0.2190182
v -0.02702111 1.440462 0.2166272
v -0.01937055 1.432781 0.2189605
v 0.003531087 1.443613 0.2163712
v 0.02067279 1.490659 0.1954994
v 0.06076145 1.479807 0.1942137
v 0.09157103 1.463404 0.188901
v 0.08078201 1.462471 0.1955108
v 0.09935573 1.444324 0.1933984
v 0.1035694 1.412543 0.1996897
v 0.08441629 1.429586 0.2047122
v 0.07357869 1.434 0.2084576
v 0.08186651 1.415019 0.2084537
v 0.07395017 1.415774 0.2094944
v 0.08534707 1.391105 0.2071775
v 0.08443528 1.356487 0.2069125
v 0.07820168 1.365313 0.2109371
v 0.07053868 1.331461 0.2105673
v 0.04561181 1.290008 0.2077006
v 0.0472545 1.302705 0.211982
v 0.02796185 1.275096 0.2065349
v 0.02796185 1.285101 0.2107718
v 0.02157647 1.484143 0.2019971
v 0.05775099 1.474674 0.2005757
v 0.07390376 1.467533 0.1985541
v 0.06914169 1.465893 0.201233
v 0.09200714 1.442998 0.2001229
v 0.09407541 1.431757 0.202088
v 0.08569782 1.438509 0.204411
v 0.05837533 1.449686 0.2106806
v 0.06962363 1.427849 0.21343
v 0.06093628 1.426349 0.2141849
v 0.0772063 1.390555 0.2141245
v 0.07738266 1.373057 0.2142158
v 0.0730991 1.373378 0.2160436
v 0.06465613 1.336387 0.2166322
v 0.05235446 1.315426 0.2163703
v 0.04990098 1.316401 0.2173401
v 0.03332864 1.291539 0.2147367
v 0.03214308 1.295931 0.2164018
v 0.0298288 1.328017 0.2275987
v 0.03929035 1.384663 0.2269005
v 0.03255851 1.418324 0.222779
v 0.02951689 1.449356 0.2162766
v 0.02226786 1.44239 0.2190844
v 0.03204827 1.440283 0.2163022
v 0.02439766 1.432658 0.2190661
v -0.08699472 1.443563 0.2023344
v -0.08906699 1.432333 0.2043547
v -0.08066492 1.439034 0.2064214
v 0.002450529 1.274899 0.2115356
v -0.02724202 1.296103 0.2172926
v -0.02842758 1.291724 0.2155826
v -0.04497729 1.316695 0.2187562
v -0.04742678 1.315746 0.21785
v -0.05966102 1.33678 0.2183881
v -0.06804349 1.373831 0.2178672
v -0.07214542 1.391003 0.2156427
v -0.05590993 1.426714 0.2155265
v -0.02443781 1.449514 0.2165718
v -0.0526797 1.474973 0.2015921
v -0.01649243 1.48425 0.202209
v -0.05259129 1.450036 0.2120483
v -0.06408223 1.466297 0.2026985
v -0.06885608 1.467985 0.2002383
v -0.07232761 1.37351 0.2159859
v 0.003321346 1.478449 0.2052161
v 0.003533013 1.454714 0.2152667
v -0.01718842 1.4425 0.2190182
v -0.06454508 1.428226 0.2147446
v -0.02702111 1.440462 0.2166272
v -0.01937055 1.432781 0.2189605
v 0.003531087 1.443613 0.2163712
v 0.09200714 1.442998 0.2001229
v 0.09407541 1.431757 0.202088
v 0.08569782 1.438509 0.204411
v 0.03214308 1.295931 0.2164018
v 0.04990098 1.316401 0.2173401
v 0.03332864 1.291539 0.2147367
v 0.06465613 1.336387 0.2166322
v 0.05235446 1.315426 0.2163703
v 0.0730991 1.373378 0.2160436
v 0.0772063 1.390555 0.2141245
v 0.06093628 1.426349 0.2141849
v 0.02951689 1.449356 0.2162766
v 0.05775099 1.474674 0.2005757
v 0.05837533 1.449686 0.2106806
v 0.02157647 1.484143 0.2019971
v 0.06914169 1.465893 0.201233
v 0.07390376 1.467533 0.1985541
v 0.07738266 1.373057 0.2142158
v 0.02226786 1.44239 0.2190844
v 0.06962363 1.427849 0.21343
v 0.03204827 1.440283 0.2163022
v 0.02439766 1.432658 0.2190661
vt 0.9942831 0.1297721
vt 0.9942831 0.1297721
vt 0.9942831 0.1297721
vt 0.9942832 0.1297721
vt 0.9942831 0.1297721
vt 0.9942831 0.1297722
vt 0.9942831 0.1297722
vt 0.9942831 0.1297721
vt 0.9942831 0.1297722
vt 0.9942831 0.1297722
vt 0.9942831 0.1297721
vt 0.9942832 0.1297722
vt 0.9942832 0.1297722
vt 0.9942831 0.1297721
vt 0.9942832 0.1297721
vt 0.9942831 0.1297721
vt 0.9942831 0.1297721
vt 0.9942831 0.1297721
vt 0.9942832 0.1297721
vt 0.9942831 0.1297721
vt 0.9942832 0.1297721
vt 0.9942831 0.1297722
vt 0.9942831 0.1297722
vt 0.9942832 0.1297722
vt 0.9942831 0.1297721
vt 0.9942832 0.1297722
vt 0.8708051 0.3310112
vt 0.8722922 0.324744
vt 0.8670524 0.3278343
vt 0.9942832 0.1297721
vt 0.9942831 0.1297722
vt 0.9942831 0.1297721
vt 0.9942831 0.1297721
vt 0.9942831 0.1297721
vt 0.9942831 0.1297721
vt 0.9942831 0.1297721
vt 0.9942832 0.1297721
vt 0.9942832 0.1297721
vt 0.9942831 0.1297721
vt 0.9942832 0.1297721
vt 0.9377956 0.2793016
vt 0.9377956 0.2969227
vt 0.9377956 0.32732
vt 0.9377956 0.345386
vt 0.9942831 0.1297721
vt 0.9523468 0.2966779
vt 0.956807 0.3269611
vt 0.9530815 0.3451856
vt 0.9942831 0.1297721
vt 0.9942831 0.1297722
vt 0.9942832 0.1297722
vt 0.9942831 0.1297721
vt 0.9942831 0.1297722
vt 0.9942832 0.1297722
vt 0.9942831 0.1297722
vt 0.9942831 0.1297721
vt 0.9942833 0.1297721
vt 0.9942832 0.1297721
vt 0.9942831 0.1297721
vt 0.9942831 0.1297721
vt 0.9942831 0.1297721
vt 0.9942831 0.1297721
vt 0.9942832 0.1297721
vt 0.9942831 0.1297721
vt 0.9942831 0.1297721
vt 0.9942831 0.1297722
vt 0.9942831 0.1297721
vt 0.9942832 0.1297721
vt 0.9942832 0.1297721
vt 0.9942831 0.1297721
vt 0.9942831 0.1297721
vt 0.9942831 0.1297722
vt 0.9942832 0.1297722
vt 0.9942831 0.1297721
vt 0.9942831 0.1297721
vt 0.7709084 0.3311633
vt 0.7693973 0.3248992
vt 0.7746955 0.3279781
vt 0.9942831 0.1297721
vt 0.9942832 0.1297721
vt 0.9942832 0.1297721
vt 0.9942831 0.1297721
vt 0.9942831 0.1297721
vt 0.9942831 0.1297721
vt 0.9942831 0.1297722
vt 0.9942831 0.1297721
vt 0.9942832 0.1297721
vt 0.9942832 0.1297721
vt 0.9942831 0.1297721
vt 0.9232207 0.2965533
vt 0.9187298 0.3268549
vt 0.9224573 0.3451378
vt 0.9942831 0.1297721
vt 0.9942831 0.1297721
vt 0.9942831 0.1297721
vt 0.9942831 0.1297721
vt 0.9942832 0.1297722
vt 0.9942832 0.1297721
vt 0.9942832 0.1297722
vt 0.9377956 0.2662677
vt 0.9540932 0.2784167
vt 0.954819 0.2758784
vt 0.9637767 0.2899239
vt 0.965174 0.2893891
vt 0.9715413 0.3010232
vt 0.9756307 0.3210896
vt 0.9777268 0.330501
vt 0.9685824 0.3500022
vt 0.8351249 0.3307113
vt 0.8509607 0.3471571
vt 0.8310249 0.3514538
vt 0.8506886 0.3322316
vt 0.8573098 0.3425783
vt 0.8601258 0.3439855
vt 0.9781239 0.3209486
vt 0.8210078 0.3477184
vt 0.8210078 0.3334299
vt 0.8312016 0.3264927
vt 0.857788 0.320336
vt 0.9531668 0.3574998
vt 0.9489136 0.3532214
vt 0.9377956 0.3592749
vt 0.9942833 0.1297721
vt 0.9942831 0.1297721
vt 0.9942832 0.1297721
vt 0.9214132 0.278234
vt 0.9116647 0.2896855
vt 0.9206705 0.2756712
vt 0.9038509 0.3007637
vt 0.9102457 0.2891296
vt 0.8997248 0.3208543
vt 0.8976149 0.330297
vt 0.9067894 0.3499001
vt 0.8068565 0.3307615
vt 0.7909603 0.3472492
vt 0.7908059 0.3323851
vt 0.8109722 0.3514877
vt 0.7845492 0.3426971
vt 0.7816914 0.344117
vt 0.897223 0.3207099
vt 0.8107849 0.3265283
vt 0.7840327 0.3204798
vt 0.9223239 0.3574892
vt 0.9266279 0.3532101
vn 0.003051145 0.6929374 0.7209913
vn -0.003118981 -0.5811811 0.8137683
vn -0.05083244 0.7024227 0.7099425
vn -0.3015888 0.6930975 0.6547214
vn -0.4575725 0.4342062 0.7759461
vn -0.4884993 0.3174342 0.8127755
vn -0.5649321 0.3575128 0.7436641
vn -0.4401 0.1234826 0.8894178
vn -0.2443988 0.04520667 0.9686204
vn -0.3868487 0.2013716 0.8998876
vn -0.3243453 0.02591088 0.9455838
vn -0.3348987 -0.02208323 0.9419953
vn -0.5967499 0.1068436 0.7952822
vn -0.448298 -0.1833135 0.8748857
vn -0.4156707 -0.2474261 0.8752132
vn -0.5859368 -0.2598369 0.7675694
vn -0.2962828 -0.3856953 0.8737596
vn -0.2749434 -0.4361162 0.8568598
vn -0.1160984 -0.47463 0.8724949
vn 0.02806397 -0.5003451 0.8653711
vn 0.004485857 -0.5119377 0.8590109
vn 0.005392329 0.5497849 0.8352889
vn -0.06526823 0.556426 0.8283297
vn -0.2446017 0.534313 0.8091228
vn -0.3952567 0.4463105 0.8028567
vn -0.3544891 0.361439 0.86238
vn -0.4656282 0.3182321 0.8257837
vn -0.4284069 0.1612979 0.8890729
vn -0.304224 0.1607531 0.9389389
vn -0.2624998 0.2850166 0.9218782
vn -0.2144944 0.07657535 0.9737188
vn -0.2242912 0.08891688 0.9704572
vn -0.4341549 0.088882 0.8964427
vn -0.4351102 -0.1133046 0.8932195
vn -0.3648711 -0.09113485 0.926587
vn -0.4159172 -0.1955895 0.8881203
vn -0.2911744 -0.3185672 0.9020712
vn -0.2688934 -0.3121378 0.9111895
vn -0.168311 -0.4115137 0.8957276
vn -0.1119739 -0.4099163 0.905224
vn 0.01277933 -0.3332677 0.9427456
vn 0.01357727 -0.1204987 0.9926206
vn 0.01138227 0.08221904 0.9965492
vn 0.005788448 0.2217241 0.9750923
vn 0.003163032 0.2556091 0.966775
vn -0.1848115 -0.1626715 0.9692175
vn -0.18685 0.0669165 0.9801067
vn -0.1142399 0.2209148 0.9685794
vn -0.106919 0.2379032 0.9653862
vn -0.04690008 0.1413614 0.9888465
vn -0.1505505 0.1293114 0.9801088
vn -0.07227329 0.1685905 0.9830329
vn -0.002986663 0.1608668 0.9869716
vn 0.06534386 0.7063725 0.7048177
vn 0.3241466 0.6951935 0.641588
vn 0.481747 0.4300317 0.7635395
vn 0.5125388 0.3131881 0.7995107
vn 0.5867673 0.3544714 0.7280481
vn 0.4673761 0.1230573 0.8754522
vn 0.2739578 0.04587408 0.960647
vn 0.4123376 0.1993051 0.8889629
vn 0.3435783 0.01854834 0.9389408
vn 0.352011 -0.02716201 0.9356017
vn 0.6184513 0.1044715 0.7788477
vn 0.4561933 -0.1989891 0.8673471
vn 0.4185041 -0.2608162 0.8699593
vn 0.5969715 -0.2580477 0.7596291
vn 0.3333776 -0.3765495 0.8643321
vn 0.3057742 -0.4206456 0.8541425
vn 0.1674702 -0.4562913 0.873929
vn 0.0220382 -0.4841661 0.8746984
vn 0.08334509 0.5580684 0.8255987
vn 0.2738418 0.5329978 0.8005773
vn 0.4239207 0.4429134 0.790012
vn 0.3839816 0.3568894 0.8515797
vn 0.4900026 0.3152283 0.8127291
vn 0.4548962 0.1602505 0.8760076
vn 0.3324203 0.1595891 0.9295312
vn 0.2910227 0.28372 0.9136786
vn 0.2374476 0.07172178 0.968749
vn 0.2484483 0.08345141 0.9650436
vn 0.450329 0.08017473 0.8892558
vn 0.4368632 -0.128045 0.890368
vn 0.3723651 -0.1043422 0.9222022
vn 0.4331616 -0.1961582 0.8797119
vn 0.32234 -0.3129305 0.8934044
vn 0.2916018 -0.3053477 0.9064938
vn 0.2044754 -0.3954742 0.8954273
vn 0.1427149 -0.4000395 0.9053181
vn 0.2097183 -0.1642193 0.9638726
vn 0.2098967 0.05881711 0.9759528
vn 0.136391 0.2174761 0.9664893
vn 0.1328933 0.2428618 0.960915
vn 0.06173422 0.1544295 0.9860733
vn 0.1838899 0.1273762 0.9746588
vn 0.08940683 0.1704081 0.9813091
vn -0.4656282 0.3182321 0.8257837
vn -0.4284069 0.1612979 0.8890729
vn -0.304224 0.1607531 0.9389389
vn 0.004485857 -0.5119377 0.8590109
vn -0.1119739 -0.4099163 0.905224
vn -0.168311 -0.4115137 0.8957276
vn -0.2688934 -0.3121378 0.9111895
vn -0.2911744 -0.3185672 0.9020712
vn -0.4159172 -0.1955895 0.8881203
vn -0.3648711 -0.09113485 0.926587
vn -0.4341549 0.088882 0.8964427
vn -0.2242912 0.08891688 0.9704572
vn -0.106919 0.2379032 0.9653862
vn -0.2446017 0.534313 0.8091228
vn -0.06526823 0.556426 0.8283297
vn -0.2624998 0.2850166 0.9218782
vn -0.3544891 0.361439 0.86238
vn -0.3952567 0.4463105 0.8028567
vn -0.4351102 -0.1133046 0.8932195
vn 0.005392329 0.5497849 0.8352889
vn 0.003163032 0.2556091 0.966775
vn -0.04690008 0.1413614 0.9888465
vn -0.2144944 0.07657535 0.9737188
vn -0.1505505 0.1293114 0.9801088
vn -0.07227329 0.1685905 0.9830329
vn -0.002986663 0.1608668 0.9869716
vn 0.4900026 0.3152283 0.8127291
vn 0.4548962 0.1602505 0.8760076
vn 0.3324203 0.1595891 0.9295312
vn 0.1427149 -0.4000395 0.9053181
vn 0.2916018 -0.3053477 0.9064938
vn 0.2044754 -0.3954742 0.8954273
vn 0.4331616 -0.1961582 0.8797119
vn 0.32234 -0.3129305 0.8934044
vn 0.3723651 -0.1043422 0.9222022
vn 0.450329 0.08017473 0.8892558
vn 0.2484483 0.08345141 0.9650436
vn 0.1328933 0.2428618 0.960915
vn 0.2738418 0.5329978 0.8005773
vn 0.2910227 0.28372 0.9136786
vn 0.08334509 0.5580684 0.8255987
vn 0.3839816 0.3568894 0.8515797
vn 0.4239207 0.4429134 0.790012
vn 0.4368632 -0.128045 0.890368
vn 0.06173422 0.1544295 0.9860733
vn 0.2374476 0.07172178 0.968749
vn 0.1838899 0.1273762 0.9746588
vn 0.08940683 0.1704081 0.9813091
g hairBeardA2_geo_0
f 113/113/113 110/110/110 114/114/114
f 112/112/112 110/110/110 113/113/113
f 27/27/27 112/112/112 113/113/113
f 29/29/29 112/112/112 27/27/27
f 28/28/28 29/29/29 27/27/27
f 101/101/101 103/103/103 102/102/102
f 46/46/46 103/103/103 101/101/101
f 41/41/41 46/46/46 101/101/101
f 42/42/42 46/46/46 41/41/41
f 90/90/90 42/42/42 41/41/41
f 43/43/43 42/42/42 90/90/90
f 91/91/91 43/43/43 90/90/90
f 44/44/44 43/43/43 91/91/91
f 92/92/92 44/44/44 91/91/91
f 122/122/122 44/44/44 92/92/92
f 144/144/144 122/122/122 92/92/92
f 47/47/47 43/43/43 44/44/44
f 46/46/46 43/43/43 47/47/47
f 105/105/105 46/46/46 47/47/47
f 103/103/103 46/46/46 105/105/105
f 104/104/104 103/103/103 105/105/105
f 48/48/48 44/44/44 122/122/122
f 47/47/47 44/44/44 48/48/48
f 107/107/107 47/47/47 48/48/48
f 106/106/106 47/47/47 107/107/107
f 115/115/115 106/106/106 107/107/107
f 117/117/117 109/109/109 118/118/118
f 116/116/116 109/109/109 117/117/117
f 134/134/134 116/116/116 117/117/117
f 137/137/137 116/116/116 134/134/134
f 135/135/135 137/137/137 134/134/134
f 109/109/109 112/112/112 119/119/119
f 110/110/110 112/112/112 109/109/109
f 111/111/111 110/110/110 109/109/109
f 76/76/76 78/78/78 77/77/77
f 136/136/136 78/78/78 76/76/76
f 138/138/138 136/136/136 76/76/76
f 135/135/135 136/136/136 138/138/138
f 139/139/139 135/135/135 138/138/138
f 127/127/127 126/126/126 128/128/128
f 90/90/90 126/126/126 127/127/127
f 129/129/129 90/90/90 127/127/127
f 91/91/91 90/90/90 129/129/129
f 131/131/131 91/91/91 129/129/129
f 132/132/132 91/91/91 131/131/131
f 140/140/140 132/132/132 131/131/131
f 129/129/129 127/127/127 130/130/130
f 134/134/134 117/117/117 141/141/141
f 136/136/136 134/134/134 142/142/142
f 135/135/135 134/134/134 136/136/136
f 21/21/21 2/2/2 71/71/71
f 20/20/20 2/2/2 21/21/21
f 40/40/40 20/20/20 21/21/21
f 19/19/19 20/20/20 40/40/40
f 39/39/39 19/19/19 40/40/40
f 18/18/18 19/19/19 39/39/39
f 38/38/38 18/18/18 39/39/39
f 17/17/17 18/18/18 38/38/38
f 37/37/37 17/17/17 38/38/38
f 16/16/16 17/17/17 37/37/37
f 36/36/36 16/16/16 37/37/37
f 15/15/15 16/16/16 36/36/36
f 35/35/35 15/15/15 36/36/36
f 14/14/14 15/15/15 35/35/35
f 34/34/34 14/14/14 35/35/35
f 13/13/13 14/14/14 34/34/34
f 33/33/33 13/13/13 34/34/34
f 12/12/12 13/13/13 33/33/33
f 32/32/32 12/12/12 33/33/33
f 11/11/11 12/12/12 32/32/32
f 31/31/31 11/11/11 32/32/32
f 10/10/10 11/11/11 31/31/31
f 30/30/30 10/10/10 31/31/31
f 9/9/9 10/10/10 30/30/30
f 99/99/99 9/9/9 30/30/30
f 8/8/8 9/9/9 99/99/99
f 98/98/98 8/8/8 99/99/99
f 7/7/7 8/8/8 98/98/98
f 97/97/97 7/7/7 98/98/98
f 6/6/6 7/7/7 97/97/97
f 26/26/26 6/6/6 97/97/97
f 5/5/5 6/6/6 26/26/26
f 25/25/25 5/5/5 26/26/26
f 4/4/4 5/5/5 25/25/25
f 24/24/24 4/4/4 25/25/25
f 3/3/3 4/4/4 24/24/24
f 23/23/23 3/3/3 24/24/24
f 1/1/1 3/3/3 23/23/23
f 22/22/22 1/1/1 23/23/23
f 72/72/72 1/1/1 22/22/22
f 41/41/41 126/126/126 90/90/90
f 100/100/100 126/126/126 41/41/41
f 101/101/101 100/100/100 41/41/41
f 105/105/105 47/47/47 106/106/106
f 48/48/48 108/108/108 107/107/107
f 120/120/120 108/108/108 48/48/48
f 121/121/121 120/120/120 48/48/48
f 52/52/52 45/45/45 50/50/50
f 49/49/49 52/52/52 50/50/50
f 51/51/51 52/52/52 49/49/49
f 32/32/32 51/51/51 49/49/49
f 31/31/31 32/32/32 49/49/49
f 96/96/96 93/93/93 94/94/94
f 45/45/45 96/96/96 94/94/94
f 53/53/53 96/96/96 45/45/45
f 52/52/52 53/53/53 45/45/45
f 109/109/109 116/116/116 111/111/111
f 48/48/48 122/122/122 121/121/121
f 89/89/89 21/21/21 71/71/71
f 70/70/70 89/89/89 71/71/71
f 88/88/88 89/89/89 70/70/70
f 69/69/69 88/88/88 70/70/70
f 87/87/87 88/88/88 69/69/69
f 68/68/68 87/87/87 69/69/69
f 86/86/86 87/87/87 68/68/68
f 67/67/67 86/86/86 68/68/68
f 85/85/85 86/86/86 67/67/67
f 66/66/66 85/85/85 67/67/67
f 84/84/84 85/85/85 66/66/66
f 65/65/65 84/84/84 66/66/66
f 83/83/83 84/84/84 65/65/65
f 64/64/64 83/83/83 65/65/65
f 82/82/82 83/83/83 64/64/64
f 63/63/63 82/82/82 64/64/64
f 81/81/81 82/82/82 63/63/63
f 62/62/62 81/81/81 63/63/63
f 80/80/80 81/81/81 62/62/62
f 61/61/61 80/80/80 62/62/62
f 79/79/79 80/80/80 61/61/61
f 60/60/60 79/79/79 61/61/61
f 125/125/125 79/79/79 60/60/60
f 59/59/59 125/125/125 60/60/60
f 124/124/124 125/125/125 59/59/59
f 58/58/58 124/124/124 59/59/59
f 123/123/123 124/124/124 58/58/58
f 57/57/57 123/123/123 58/58/58
f 75/75/75 123/123/123 57/57/57
f 56/56/56 75/75/75 57/57/57
f 74/74/74 75/75/75 56/56/56
f 55/55/55 74/74/74 56/56/56
f 73/73/73 74/74/74 55/55/55
f 54/54/54 73/73/73 55/55/55
f 72/72/72 73/73/73 54/54/54
f 1/1/1 72/72/72 54/54/54
f 92/92/92 143/143/143 144/144/144
f 133/133/133 143/143/143 92/92/92
f 132/132/132 133/133/133 92/92/92
f 93/93/93 81/81/81 80/80/80
f 95/95/95 81/81/81 93/93/93
f 96/96/96 95/95/95 93/93/93
f 42/42/42 43/43/43 46/46/46
f 132/132/132 92/92/92 91/91/91
