g hairStacheA1_geo
v 0.0001836204 1.493715 0.1990911
v -0.05568446 1.489085 0.1967469
v -0.1073132 1.468995 0.1846317
v -0.1383886 1.436046 0.178321
v -0.143342 1.404804 0.185326
v -0.1319843 1.405749 0.1867253
v -0.1343837 1.381021 0.1914217
v -0.09390078 1.399072 0.2026772
v -0.09657507 1.387415 0.2082786
v -0.07644992 1.388155 0.2133477
v -0.04201452 1.402845 0.2189704
v -0.04580326 1.390808 0.2213149
v -0.01949708 1.397969 0.2223563
v 0.0004731776 1.412628 0.2204386
v 0.0560189 1.489117 0.1967862
v 0.1076029 1.468572 0.1845782
v 0.1386755 1.436115 0.178317
v 0.1464823 1.399985 0.1846259
v 0.1321873 1.405766 0.1865
v 0.1340469 1.381209 0.1913369
v 0.09239013 1.401563 0.2027599
v 0.09677584 1.386231 0.2077686
v 0.07704049 1.388994 0.2124063
v 0.04371023 1.400336 0.2194167
v 0.04613925 1.390677 0.2217344
v 0.01984683 1.397895 0.2230463
v -0.01833753 1.405882 0.2226627
v 0.0004921574 1.420584 0.2213334
v -0.03512911 1.403148 0.2223738
v 0.0004332266 1.451567 0.213945
v -0.07448979 1.395844 0.213529
v -0.03302331 1.413192 0.2206753
v -0.08770728 1.395674 0.2086615
v -0.04582141 1.445413 0.2120445
v -0.1275924 1.391834 0.1934207
v -0.08382204 1.414004 0.2070018
v -0.107781 1.409394 0.1972497
v -0.1340575 1.414187 0.1863799
v -0.1249825 1.414778 0.1896004
v -0.126451 1.423205 0.1877504
v -0.09366724 1.435779 0.1990006
v 0.0002398971 1.486777 0.20314
v -0.05286501 1.482696 0.2007524
v -0.1021517 1.464722 0.1891291
v -0.1314455 1.435826 0.1824505
v 0.03549399 1.403027 0.2227868
v 0.01868199 1.405807 0.2233308
v 0.03336409 1.412977 0.22104
v 0.04616598 1.445369 0.2120786
v 0.08807223 1.395638 0.2084063
v 0.07375322 1.397899 0.2136607
v 0.08241871 1.414927 0.2072533
v 0.108116 1.409341 0.1970222
v 0.1279227 1.391851 0.1934249
v 0.1252127 1.420668 0.1905789
v 0.1264486 1.42653 0.186992
v 0.1384196 1.410636 0.1880553
v 0.09399657 1.435075 0.1990176
v 0.05321481 1.482697 0.2007333
v 0.1024905 1.464202 0.1890356
v 0.1317283 1.435805 0.182433
v -0.01833753 1.405882 0.2226627
v 0.0004921574 1.420584 0.2213334
v -0.03512911 1.403148 0.2223738
v -0.07448979 1.395844 0.213529
v -0.03302331 1.413192 0.2206753
v -0.08770728 1.395674 0.2086615
v -0.1275924 1.391834 0.1934207
v -0.08382204 1.414004 0.2070018
v -0.1340575 1.414187 0.1863799
v -0.1249825 1.414778 0.1896004
v 0.0002398971 1.486777 0.20314
v -0.05286501 1.482696 0.2007524
v -0.1021517 1.464722 0.1891291
v -0.1314455 1.435826 0.1824505
v 0.01868199 1.405807 0.2233308
v 0.03549399 1.403027 0.2227868
v 0.07375322 1.397899 0.2136607
v 0.08807223 1.395638 0.2084063
v 0.03336409 1.412977 0.22104
v 0.08241871 1.414927 0.2072533
v 0.1279227 1.391851 0.1934249
v 0.1252127 1.420668 0.1905789
v 0.1384196 1.410636 0.1880553
v 0.05321481 1.482697 0.2007333
v 0.1024905 1.464202 0.1890356
v 0.1317283 1.435805 0.182433
vt 0.9932886 0.1303183
vt 0.9932886 0.1303184
vt 0.9932886 0.1303183
vt 0.9932886 0.1303183
vt 0.9932886 0.1303183
vt 0.9932886 0.1303183
vt 0.9932886 0.1303183
vt 0.9932886 0.1303184
vt 0.9932886 0.1303184
vt 0.9932886 0.1303184
vt 0.9932886 0.1303183
vt 0.9932886 0.1303183
vt 0.9932886 0.1303184
vt 0.9932886 0.1303183
vt 0.9932886 0.1303183
vt 0.9932887 0.1303183
vt 0.9932886 0.1303184
vt 0.9932886 0.1303183
vt 0.9932886 0.1303183
vt 0.9932886 0.1303184
vt 0.9932886 0.1303183
vt 0.9932886 0.1303183
vt 0.9932886 0.1303183
vt 0.9932886 0.1303183
vt 0.9932886 0.1303183
vt 0.9932886 0.1303183
vt 0.844392 0.2857244
vt 0.8574075 0.2931927
vt 0.8328674 0.2839393
vt 0.8574075 0.3092978
vt 0.8076653 0.2851216
vt 0.8341796 0.2893104
vt 0.7983814 0.2851744
vt 0.8257118 0.3077196
vt 0.7714509 0.2851943
vt 0.8029788 0.2954309
vt 0.7849036 0.2938781
vt 0.7668434 0.2976151
vt 0.7731625 0.2975724
vt 0.7720752 0.3020059
vt 0.7940756 0.3061886
vt 0.8574075 0.3282093
vt 0.8217167 0.326959
vt 0.7888639 0.320711
vt 0.7693876 0.3086085
vt 0.8819445 0.2839504
vt 0.8704227 0.2857306
vt 0.8806316 0.2893199
vt 0.8890944 0.3077277
vt 0.916416 0.2851815
vt 0.9071339 0.2851333
vt 0.9118255 0.2954539
vt 0.9299583 0.2938457
vt 0.9434 0.285035
vt 0.9415493 0.300081
vt 0.9426325 0.3038615
vt 0.9505438 0.2957603
vt 0.9207234 0.306204
vt 0.8930822 0.326952
vt 0.9258949 0.320729
vt 0.945413 0.3087565
vt 0.9932886 0.1303184
vt 0.9932886 0.1303183
vt 0.9932886 0.1303183
vt 0.9932886 0.1303184
vt 0.9932886 0.1303183
vt 0.9932886 0.1303184
vt 0.9932886 0.1303183
vt 0.9932886 0.1303184
vt 0.9932886 0.1303183
vt 0.9932886 0.1303183
vt 0.9932886 0.1303183
vt 0.9932886 0.1303183
vt 0.9932886 0.1303184
vt 0.9932886 0.1303183
vt 0.9932886 0.1303183
vt 0.9932886 0.1303183
vt 0.9932886 0.1303183
vt 0.9932886 0.1303184
vt 0.9932886 0.1303183
vt 0.9932886 0.1303183
vt 0.9932886 0.1303184
vt 0.9932886 0.1303183
vt 0.9932886 0.1303183
vt 0.9932886 0.1303183
vt 0.9932886 0.1303184
vt 0.9932886 0.1303183
vn -0.0001788631 0.5033726 0.8640694
vn -0.2171561 0.4606788 0.8605918
vn -0.4174231 0.352709 0.837469
vn -0.4484122 0.2680615 0.8526837
vn -0.3223913 0.115058 0.9395879
vn -0.4060767 0.09654865 0.9087244
vn -0.4217598 0.06595611 0.9043055
vn -0.4241903 0.1221119 0.8973022
vn -0.4341815 0.2388759 0.8685763
vn -0.226474 0.07916721 0.9707946
vn -0.3066726 0.1379663 0.9417628
vn -0.2359346 0.1125697 0.9652268
vn 0.06495029 -0.07147777 0.9953253
vn -0.02056458 -0.08713012 0.9959847
vn 0.2183934 0.4544474 0.8635867
vn 0.4160857 0.3480246 0.8400902
vn 0.5285481 0.2910631 0.7974455
vn 0.3131563 -0.001821667 0.9496999
vn 0.3571018 -0.06995875 0.931442
vn 0.4608923 0.02395101 0.8871328
vn 0.4182712 0.0974025 0.9030846
vn 0.4428629 0.2011665 0.8737302
vn 0.2393571 0.03953442 0.9701264
vn 0.3209728 0.1361621 0.9372493
vn 0.2459051 0.1206155 0.9617602
vn -0.07834115 -0.06716082 0.9946619
vn 0.02621329 0.00731277 0.9996296
vn -0.007210923 0.1101806 0.9938855
vn -0.1735849 0.1307713 0.9760979
vn -0.001005234 0.2512996 0.9679089
vn -0.2401637 0.1138665 0.964031
vn -0.1791334 0.1826171 0.9667276
vn -0.3453768 0.2004372 0.9168096
vn -0.2087623 0.2131739 0.9544502
vn -0.4010549 0.1500478 0.9036817
vn -0.3659917 0.1700761 0.9149449
vn -0.3806633 0.1878288 0.9054369
vn -0.349178 0.146879 0.9254736
vn -0.3733967 0.1338149 0.9179698
vn -0.3777073 0.1731274 0.9095956
vn -0.3513349 0.1850056 0.917789
vn 3.977577E-05 0.3972135 0.9177262
vn -0.203034 0.360928 0.9102242
vn -0.3834795 0.2840141 0.8787944
vn -0.4252583 0.2369485 0.8735049
vn 0.1822888 0.1468626 0.9722151
vn -0.03324541 0.02092506 0.9992281
vn 0.1859588 0.19065 0.9638838
vn 0.211027 0.2145229 0.9536496
vn 0.350695 0.1812919 0.9187743
vn 0.2531596 0.09111699 0.963124
vn 0.3627489 0.1613558 0.9178113
vn 0.3547839 0.1834351 0.916777
vn 0.4044482 0.1156124 0.9072241
vn 0.3626361 0.1207132 0.9240798
vn 0.3701553 0.2664952 0.8899244
vn 0.3512847 0.1800645 0.9187904
vn 0.3445831 0.1928456 0.9187345
vn 0.2045958 0.3579168 0.9110631
vn 0.3830862 0.2815945 0.879744
vn 0.4384178 0.2679224 0.8579088
vn 0.02621329 0.00731277 0.9996296
vn -0.007210923 0.1101806 0.9938855
vn -0.1735849 0.1307713 0.9760979
vn -0.2401637 0.1138665 0.964031
vn -0.1791334 0.1826171 0.9667276
vn -0.3453768 0.2004372 0.9168096
vn -0.4010549 0.1500478 0.9036817
vn -0.3659917 0.1700761 0.9149449
vn -0.349178 0.146879 0.9254736
vn -0.3733967 0.1338149 0.9179698
vn 3.977577E-05 0.3972135 0.9177262
vn -0.203034 0.360928 0.9102242
vn -0.3834795 0.2840141 0.8787944
vn -0.4252583 0.2369485 0.8735049
vn -0.03324541 0.02092506 0.9992281
vn 0.1822888 0.1468626 0.9722151
vn 0.2531596 0.09111699 0.963124
vn 0.350695 0.1812919 0.9187743
vn 0.1859588 0.19065 0.9638838
vn 0.3627489 0.1613558 0.9178113
vn 0.4044482 0.1156124 0.9072241
vn 0.3626361 0.1207132 0.9240798
vn 0.3512847 0.1800645 0.9187904
vn 0.2045958 0.3579168 0.9110631
vn 0.3830862 0.2815945 0.879744
vn 0.4384178 0.2679224 0.8579088
g hairStacheA1_geo_0
f 34/34/34 42/42/42 43/43/43
f 30/30/30 42/42/42 34/34/34
f 32/32/32 30/30/30 34/34/34
f 28/28/28 30/30/30 32/32/32
f 29/29/29 28/28/28 32/32/32
f 27/27/27 28/28/28 29/29/29
f 40/40/40 38/38/38 39/39/39
f 37/37/37 40/40/40 39/39/39
f 41/41/41 40/40/40 37/37/37
f 36/36/36 41/41/41 37/37/37
f 34/34/34 41/41/41 36/36/36
f 33/33/33 34/34/34 36/36/36
f 32/32/32 34/34/34 33/33/33
f 31/31/31 32/32/32 33/33/33
f 48/48/48 47/47/47 46/46/46
f 28/28/28 47/47/47 48/48/48
f 30/30/30 28/28/28 48/48/48
f 56/56/56 55/55/55 57/57/57
f 53/53/53 55/55/55 56/56/56
f 58/58/58 53/53/53 56/56/56
f 52/52/52 53/53/53 58/58/58
f 49/49/49 52/52/52 58/58/58
f 50/50/50 52/52/52 49/49/49
f 48/48/48 50/50/50 49/49/49
f 51/51/51 50/50/50 48/48/48
f 35/35/35 37/37/37 39/39/39
f 36/36/36 37/37/37 35/35/35
f 40/40/40 45/45/45 38/38/38
f 44/44/44 45/45/45 40/40/40
f 41/41/41 44/44/44 40/40/40
f 43/43/43 44/44/44 41/41/41
f 34/34/34 43/43/43 41/41/41
f 53/53/53 54/54/54 55/55/55
f 52/52/52 54/54/54 53/53/53
f 49/49/49 42/42/42 30/30/30
f 59/59/59 42/42/42 49/49/49
f 58/58/58 59/59/59 49/49/49
f 60/60/60 59/59/59 58/58/58
f 56/56/56 60/60/60 58/58/58
f 61/61/61 60/60/60 56/56/56
f 57/57/57 61/61/61 56/56/56
f 26/26/26 63/63/63 14/14/14
f 76/76/76 63/63/63 26/26/26
f 25/25/25 76/76/76 26/26/26
f 77/77/77 76/76/76 25/25/25
f 24/24/24 77/77/77 25/25/25
f 80/80/80 77/77/77 24/24/24
f 23/23/23 80/80/80 24/24/24
f 78/78/78 80/80/80 23/23/23
f 22/22/22 78/78/78 23/23/23
f 79/79/79 78/78/78 22/22/22
f 21/21/21 79/79/79 22/22/22
f 81/81/81 79/79/79 21/21/21
f 20/20/20 81/81/81 21/21/21
f 82/82/82 81/81/81 20/20/20
f 19/19/19 82/82/82 20/20/20
f 83/83/83 82/82/82 19/19/19
f 18/18/18 83/83/83 19/19/19
f 84/84/84 83/83/83 18/18/18
f 17/17/17 84/84/84 18/18/18
f 87/87/87 84/84/84 17/17/17
f 16/16/16 87/87/87 17/17/17
f 86/86/86 87/87/87 16/16/16
f 15/15/15 86/86/86 16/16/16
f 85/85/85 86/86/86 15/15/15
f 1/1/1 85/85/85 15/15/15
f 72/72/72 85/85/85 1/1/1
f 2/2/2 72/72/72 1/1/1
f 73/73/73 72/72/72 2/2/2
f 3/3/3 73/73/73 2/2/2
f 74/74/74 73/73/73 3/3/3
f 4/4/4 74/74/74 3/3/3
f 75/75/75 74/74/74 4/4/4
f 5/5/5 75/75/75 4/4/4
f 70/70/70 75/75/75 5/5/5
f 6/6/6 70/70/70 5/5/5
f 71/71/71 70/70/70 6/6/6
f 7/7/7 71/71/71 6/6/6
f 68/68/68 71/71/71 7/7/7
f 8/8/8 68/68/68 7/7/7
f 69/69/69 68/68/68 8/8/8
f 9/9/9 69/69/69 8/8/8
f 67/67/67 69/69/69 9/9/9
f 10/10/10 67/67/67 9/9/9
f 65/65/65 67/67/67 10/10/10
f 11/11/11 65/65/65 10/10/10
f 66/66/66 65/65/65 11/11/11
f 12/12/12 66/66/66 11/11/11
f 64/64/64 66/66/66 12/12/12
f 13/13/13 64/64/64 12/12/12
f 62/62/62 64/64/64 13/13/13
f 14/14/14 62/62/62 13/13/13
f 63/63/63 62/62/62 14/14/14
f 49/49/49 30/30/30 48/48/48
