g hawk2_geo
v -7.629394E-08 1.221918 0.3016814
v -7.629394E-08 1.109371 0.3229218
v -7.629394E-08 1.200036 0.3164047
v -7.629394E-08 1.104084 0.3505959
v -7.682488E-08 1.107118 0.3186018
v -7.629394E-08 1.101313 0.3353724
v 0.03126049 1.139977 0.311463
v 0.02317382 1.118283 0.3185117
v 0.02327003 1.114719 0.3147541
v 0.0161525 1.194228 0.3004794
v 0.0142466 1.164572 0.3344615
v 0.02520012 1.138969 0.3189964
v 0.01495276 1.105329 0.3342618
v 0.01262944 1.107975 0.3472812
v -7.440445E-08 1.102285 0.3161027
v 0.03594246 1.111438 0.3106102
v 0.04319115 1.143461 0.2943254
v 0.02247215 1.191408 0.2869245
v 0.01463929 1.217446 0.2858384
v -1.192093E-09 1.254473 0.2883679
v 0.01457939 1.122247 0.3509777
v -7.629394E-08 1.120467 0.3575519
v 0.03526273 1.135121 0.3043927
v 0.03652449 1.122724 0.3086291
v 0.03225345 1.118057 0.3130375
v 0.02349309 1.122151 0.3293706
v 0.025114 1.117168 0.322159
v 0.03076005 1.125188 0.3247668
v 0.02431546 1.128797 0.3249884
v 0.03286854 1.138373 0.3170561
v 0.02453702 1.13437 0.3220613
v 0.03757014 1.122297 0.3133679
v 0.0357157 1.134748 0.3067261
v 0.03357965 1.117884 0.3153117
v 0.03253623 1.132349 0.3230534
v 0.03853264 1.128495 0.3112704
v 0.03101616 1.115681 0.3112991
v 0.03753014 1.12108 0.3066319
v -7.629394E-08 1.23705 0.2947717
v 0.03590913 1.135798 0.3007792
v 0.03084992 1.14215 0.3086666
v 0.004777262 1.234399 0.2914745
v 0.006637659 1.219612 0.2978474
v 0.009935124 1.198195 0.312031
v -7.629394E-08 1.167685 0.3389835
v 0.01561894 1.138573 0.3478335
v -7.629394E-08 1.14037 0.3548895
v -0.03126064 1.139977 0.311463
v -0.02317397 1.118283 0.3185117
v -0.02327018 1.114719 0.3147541
v -0.01615265 1.194228 0.3004794
v -0.01424675 1.164572 0.3344615
v -0.02520028 1.138969 0.3189964
v -0.01495291 1.105329 0.3342618
v -0.0126296 1.107975 0.3472812
v -0.03594246 1.111438 0.3106102
v -0.04319115 1.143461 0.2943254
v -0.02300682 1.191408 0.287328
v -0.01463928 1.217445 0.2858384
v -0.01457954 1.122247 0.3509777
v -0.03526288 1.135121 0.3043927
v -0.03652465 1.122724 0.3086291
v -0.0322536 1.118057 0.3130375
v -0.02349325 1.122151 0.3293706
v -0.02511415 1.117168 0.322159
v -0.0307602 1.125188 0.3247668
v -0.02431561 1.128797 0.3249884
v -0.03286869 1.138373 0.3170561
v -0.02453717 1.13437 0.3220613
v -0.03757029 1.122297 0.3133679
v -0.03571584 1.134748 0.3067261
v -0.03357981 1.117884 0.3153117
v -0.03253639 1.132349 0.3230534
v -0.03853279 1.128495 0.3112704
v -0.03101632 1.115681 0.3112991
v -0.03753029 1.12108 0.3066319
v -0.03590928 1.135798 0.3007792
v -0.03085007 1.14215 0.3086666
v -0.004777415 1.234399 0.2914745
v -0.006637812 1.219612 0.2978474
v -0.009935278 1.198195 0.312031
v -0.01561909 1.138573 0.3478335
v 0.03400406 1.167114 0.2900766
v -0.03400406 1.167114 0.2900766
v 0.04550598 1.12745 0.3024678
v -0.04550598 1.127824 0.3025928
v 0.02040762 1.164721 0.3169481
v 0.02534991 1.165363 0.3011924
v -0.02033189 1.165128 0.3168425
v -0.02556675 1.16583 0.301142
v -0.009594267 1.220202 0.2928795
v 0.009252788 1.220202 0.2928795
v -7.682488E-08 1.107118 0.3186018
v 0.02327003 1.114719 0.3147541
v -7.629394E-08 1.109371 0.3229218
v 0.02317382 1.118283 0.3185117
v 0.03126049 1.139977 0.311463
v 0.02520012 1.138969 0.3189964
v 0.03652449 1.122724 0.3086291
v 0.03526273 1.135121 0.3043927
v 0.03225345 1.118057 0.3130375
v 0.02317382 1.118283 0.3185117
v 0.03101616 1.115681 0.3112991
v 0.03753014 1.12108 0.3066319
v 0.03590913 1.135798 0.3007792
v 0.03084992 1.14215 0.3086666
v 0.02247215 1.191408 0.2869245
v 0.02534991 1.165363 0.3011924
v -0.02327018 1.114719 0.3147541
v -0.02520028 1.138969 0.3189964
v -0.02317397 1.118283 0.3185117
v -0.03126064 1.139977 0.311463
v -0.03652465 1.122724 0.3086291
v -0.03526288 1.135121 0.3043927
v -0.0322536 1.118057 0.3130375
v -0.02317397 1.118283 0.3185117
v -0.03101632 1.115681 0.3112991
v -0.03753029 1.12108 0.3066319
v -0.03085007 1.14215 0.3086666
v -0.03590928 1.135798 0.3007792
v -0.02556675 1.16583 0.301142
v -0.03085007 1.14215 0.3086666
v 0.03084992 1.14215 0.3086666
v -0.02300682 1.191408 0.287328
vt 0.952751 0.2026827
vt 0.9665893 0.1863915
vt 0.9528186 0.2001234
vt 0.9528518 0.1794972
vt 0.9665893 0.1863915
vt 0.95288 0.1762329
vt 0.9665893 0.1863915
vt 0.9665894 0.1863915
vt 0.9665893 0.1863915
vt 0.9568941 0.2010799
vt 0.956235 0.1934915
vt 0.9665894 0.1863915
vt 0.9569777 0.1746548
vt 0.9560643 0.1794406
vt 0.9529203 0.151074
vt 0.9768797 0.1469376
vt 0.9703885 0.1609839
vt 0.9619786 0.2027528
vt 0.9570862 0.2078299
vt 0.9527048 0.2103041
vt 0.9561497 0.1853903
vt 0.952844 0.1844673
vt 0.9665894 0.1863915
vt 0.9665894 0.1863915
vt 0.9665894 0.1863915
vt 0.9610013 0.1897692
vt 0.9650624 0.1912146
vt 0.9644283 0.1930866
vt 0.9611693 0.1916503
vt 0.9655372 0.195981
vt 0.9613035 0.1933632
vt 0.9693127 0.1948032
vt 0.9680483 0.1976914
vt 0.9695712 0.1938026
vt 0.9647117 0.1943903
vt 0.9685768 0.1960357
vt 0.9665893 0.1863915
vt 0.9665893 0.1863915
vt 0.9527267 0.2054611
vt 0.9665894 0.1863915
vt 0.9665894 0.1863915
vt 0.9540585 0.2053192
vt 0.9541839 0.2026186
vt 0.9551566 0.2002731
vt 0.9528313 0.1928802
vt 0.956186 0.1894614
vt 0.9528385 0.1890192
vt 0.9665894 0.1863915
vt 0.9665894 0.1863915
vt 0.9665893 0.1863915
vt 0.9487056 0.2010014
vt 0.9494373 0.1934393
vt 0.9665894 0.1863915
vt 0.948773 0.1746443
vt 0.9496409 0.1794253
vt 0.9288526 0.146618
vt 0.9345591 0.1605788
vt 0.9435863 0.2026218
vt 0.948369 0.207757
vt 0.949539 0.1853527
vt 0.9665894 0.1863915
vt 0.9665893 0.1863915
vt 0.9665894 0.1863915
vt 0.9447048 0.18966
vt 0.9406463 0.1910645
vt 0.9412502 0.1929525
vt 0.9445198 0.1915466
vt 0.9401112 0.1958421
vt 0.944372 0.1932597
vt 0.9362592 0.1946445
vt 0.9376303 0.1975286
vt 0.9361692 0.1936427
vt 0.9409499 0.1942562
vt 0.93711 0.1958759
vt 0.9665894 0.1863915
vt 0.9665894 0.1863915
vt 0.9665894 0.1863915
vt 0.9665894 0.1863915
vt 0.9514169 0.2052874
vt 0.9513198 0.2025865
vt 0.9504591 0.2002321
vt 0.9494957 0.1894132
vt 0.9667807 0.1621497
vt 0.9391255 0.1621192
vt 0.9736341 0.1539607
vt 0.9312209 0.1524121
vt 0.9595096 0.1983518
vt 0.963984 0.1600325
vt 0.9461668 0.1983064
vt 0.9416528 0.1599908
vt 0.9494534 0.2058569
vt 0.9556351 0.2052242
vt 0.9529195 0.1517818
vt 0.9596274 0.1532143
vt 0.952886 0.172748
vt 0.9584731 0.1709151
vt 0.9645553 0.1972338
vt 0.9624553 0.1952792
vt 0.9694764 0.1958544
vt 0.9677852 0.198801
vt 0.9697731 0.1937199
vt 0.9823858 0.1877251
vt 0.9687604 0.1522468
vt 0.9704679 0.1526641
vt 0.9701253 0.1570817
vt 0.9658093 0.1566929
vt 0.9619786 0.1637014
vt 0.9628084 0.1995592
vt 0.9461697 0.1531019
vt 0.9432093 0.195167
vt 0.9472857 0.1708909
vt 0.9410975 0.1970911
vt 0.9362196 0.1956833
vt 0.9378825 0.1986311
vt 0.9359429 0.1935595
vt 0.9234526 0.1875477
vt 0.9369771 0.1520683
vt 0.9352329 0.152446
vt 0.9398329 0.1565711
vt 0.9355508 0.1569093
vt 0.9428167 0.1994867
vt 0.9409584 0.1975723
vt 0.9646914 0.1977201
vt 0.9435863 0.163624
vn 0.0004491625 0.4889671 0.8723021
vn 2.330919E-07 -0.9999995 -0.0009709941
vn 1.144505E-06 0.7697129 0.6383901
vn -4.787116E-07 -0.7619105 0.6476824
vn 2.34219E-06 -0.6492402 0.7605834
vn 1.549864E-07 -0.9810083 -0.1939658
vn 0.6261697 0.7048396 0.3333357
vn 0.2942608 -0.9557068 0.005940623
vn 0.354775 -0.6329517 0.6881184
vn 0.7219031 0.5902064 0.3612648
vn 0.6046003 0.3227548 0.7282088
vn 0.7508217 0.4770625 0.456813
vn 0.6428768 -0.7657691 -0.01752674
vn 0.6063839 -0.5929125 0.5298615
vn 0.3324991 0.2014367 0.9213402
vn 0.5088456 0.3930092 0.765911
vn 0.5792472 0.2555518 0.7740581
vn 0.8899244 0.4560959 -0.003344846
vn 0.8166662 0.4534551 -0.3569801
vn -0.3236194 0.9348201 0.1462253
vn 0.7262962 -0.1222791 0.6764182
vn -5.36135E-07 -0.1078533 0.9941669
vn 0.939579 0.3423321 0.0001451371
vn 0.9577023 -0.2817568 -0.05847531
vn 0.4984992 -0.8455366 0.1912232
vn 0.8174191 -0.1507744 0.5559613
vn 0.5802861 -0.7828125 0.224661
vn 0.5896065 -0.07643247 0.8040661
vn 0.6511705 0.3049976 0.6949486
vn 0.5500323 0.7240732 0.4161519
vn 0.5210443 0.5098621 0.6845097
vn 0.8822573 -0.4402053 0.1668572
vn 0.9230431 0.375148 -0.08517922
vn 0.4546729 -0.8886749 0.05941063
vn 0.576783 0.4091097 0.7070718
vn 0.9994317 0.02984658 0.01567006
vn 0.4679373 -0.3273593 0.8208961
vn 0.5827193 0.1801968 0.7924439
vn 5.721229E-07 0.3963573 0.9180964
vn 0.6941366 0.2940258 0.6570565
vn 0.7839653 0.3658888 0.5015213
vn 0.7563692 0.267395 0.5969971
vn 0.7862433 0.3637025 0.4995417
vn 0.7297699 0.4443329 0.5196191
vn 0 0.5366569 0.8438006
vn 0.729449 0.2226802 0.6467749
vn -1.320884E-07 0.3239526 0.9460734
vn -0.6261683 0.7048399 0.3333377
vn -0.2942615 -0.9557064 0.005945751
vn -0.354774 -0.6329476 0.6881226
vn -0.7219031 0.5902064 0.3612648
vn -0.6046003 0.3227548 0.7282088
vn -0.750438 0.4760876 0.4584578
vn -0.6428765 -0.7657694 -0.01752479
vn -0.6063845 -0.5929121 0.5298613
vn -0.5088456 0.3930092 0.765911
vn -0.8358903 0.4909741 0.245422
vn -0.8899244 0.4560959 -0.003344846
vn -0.8734208 0.4419692 0.2044487
vn -0.7262965 -0.1222788 0.676418
vn -0.9395789 0.3423324 0.0001455256
vn -0.9577022 -0.2817571 -0.0584767
vn -0.4985005 -0.8455356 0.1912245
vn -0.817418 -0.1507739 0.5559632
vn -0.5802841 -0.7828122 0.2246672
vn -0.5896049 -0.07643206 0.8040673
vn -0.6511701 0.3049976 0.6949489
vn -0.5500312 0.7240747 0.4161507
vn -0.5210444 0.509864 0.6845082
vn -0.8822573 -0.4402056 0.1668565
vn -0.9230428 0.3751489 -0.08517753
vn -0.4546727 -0.8886744 0.05941769
vn -0.5767819 0.4091097 0.7070727
vn -0.9994317 0.02984663 0.01566815
vn -0.4679416 -0.3273609 0.820893
vn -0.5716099 0.1828911 0.7998831
vn -0.6877379 0.2987995 0.6616157
vn -0.784798 0.3634703 0.5019777
vn -0.7527911 0.2737458 0.5986391
vn -0.7765738 0.3658335 0.5129319
vn -0.7281038 0.4433466 0.5227892
vn -0.729449 0.2226801 0.6467748
vn 0.5636395 0.3895963 0.7283716
vn -0.5776272 0.3790294 0.7229686
vn 0.2111319 0.3984123 0.8925754
vn -0.1843634 0.4054486 0.8953332
vn 0.9239097 0.2799438 0.2608114
vn 0.7739008 0.3473462 0.5295546
vn -0.9215446 0.2820855 0.2668024
vn -0.7677528 0.34423 0.540427
vn -0.8500217 0.2492793 0.464029
vn 0.8520526 0.243866 0.46318
vn 2.34219E-06 -0.6492402 0.7605834
vn 0.354775 -0.6329517 0.6881184
vn 2.330919E-07 -0.9999995 -0.0009709941
vn 0.2942608 -0.9557068 0.005940623
vn 0.6261697 0.7048396 0.3333357
vn 0.7508217 0.4770625 0.456813
vn 0.9577023 -0.2817568 -0.05847531
vn 0.939579 0.3423321 0.0001451371
vn 0.4984992 -0.8455366 0.1912232
vn 0.2942608 -0.9557068 0.005940623
vn 0.4679373 -0.3273593 0.8208961
vn 0.5827193 0.1801968 0.7924439
vn 0.6941366 0.2940258 0.6570565
vn 0.7839653 0.3658888 0.5015213
vn 0.8899244 0.4560959 -0.003344846
vn 0.7739008 0.3473462 0.5295546
vn -0.354774 -0.6329476 0.6881226
vn -0.750438 0.4760876 0.4584578
vn -0.2942615 -0.9557064 0.005945751
vn -0.6261683 0.7048399 0.3333377
vn -0.9577022 -0.2817571 -0.0584767
vn -0.9395789 0.3423324 0.0001455256
vn -0.4985005 -0.8455356 0.1912245
vn -0.2942615 -0.9557064 0.005945751
vn -0.4679416 -0.3273609 0.820893
vn -0.5716099 0.1828911 0.7998831
vn -0.784798 0.3634703 0.5019777
vn -0.6877379 0.2987995 0.6616157
vn -0.7677528 0.34423 0.540427
vn -0.784798 0.3634703 0.5019777
vn 0.7839653 0.3658888 0.5015213
vn -0.8899244 0.4560959 -0.003344846
g hawk2_geo_0
f 23/23/23 38/38/38 40/40/40
f 41/41/41 23/23/23 40/40/40
f 7/7/7 23/23/23 41/41/41
f 12/12/12 7/7/7 41/41/41
f 110/110/110 121/121/121 122/122/122
f 89/89/89 121/121/121 110/110/110
f 52/52/52 89/89/89 110/110/110
f 51/51/51 89/89/89 52/52/52
f 81/81/81 51/51/51 52/52/52
f 91/91/91 51/51/51 81/81/81
f 80/80/80 91/91/91 81/81/81
f 79/79/79 91/91/91 80/80/80
f 39/39/39 79/79/79 80/80/80
f 20/20/20 79/79/79 39/39/39
f 42/42/42 20/20/20 39/39/39
f 19/19/19 20/20/20 42/42/42
f 92/92/92 19/19/19 42/42/42
f 10/10/10 19/19/19 92/92/92
f 44/44/44 10/10/10 92/92/92
f 11/11/11 10/10/10 44/44/44
f 3/3/3 11/11/11 44/44/44
f 45/45/45 11/11/11 3/3/3
f 52/52/52 45/45/45 3/3/3
f 82/82/82 45/45/45 52/52/52
f 67/67/67 82/82/82 52/52/52
f 60/60/60 82/82/82 67/67/67
f 64/64/64 60/60/60 67/67/67
f 55/55/55 60/60/60 64/64/64
f 54/54/54 55/55/55 64/64/64
f 6/6/6 55/55/55 54/54/54
f 95/95/95 6/6/6 54/54/54
f 13/13/13 6/6/6 95/95/95
f 96/96/96 13/13/13 95/95/95
f 17/17/17 106/106/106 105/105/105
f 88/88/88 106/106/106 17/17/17
f 83/83/83 88/88/88 17/17/17
f 107/107/107 88/88/88 83/83/83
f 61/61/61 77/77/77 76/76/76
f 78/78/78 77/77/77 61/61/61
f 48/48/48 78/78/78 61/61/61
f 53/53/53 78/78/78 48/48/48
f 111/111/111 95/95/95 54/54/54
f 87/87/87 10/10/10 11/11/11
f 98/98/98 87/87/87 11/11/11
f 108/108/108 87/87/87 98/98/98
f 123/123/123 108/108/108 98/98/98
f 57/57/57 120/120/120 119/119/119
f 90/90/90 57/57/57 119/119/119
f 84/84/84 57/57/57 90/90/90
f 124/124/124 84/84/84 90/90/90
f 5/5/5 2/2/2 49/49/49
f 8/8/8 2/2/2 5/5/5
f 9/9/9 8/8/8 5/5/5
f 25/25/25 8/8/8 9/9/9
f 37/37/37 25/25/25 9/9/9
f 38/38/38 25/25/25 37/37/37
f 10/10/10 18/18/18 19/19/19
f 108/108/108 18/18/18 10/10/10
f 87/87/87 108/108/108 10/10/10
f 38/38/38 24/24/24 25/25/25
f 23/23/23 24/24/24 38/38/38
f 15/15/15 94/94/94 93/93/93
f 103/103/103 94/94/94 15/15/15
f 16/16/16 103/103/103 15/15/15
f 104/104/104 103/103/103 16/16/16
f 85/85/85 104/104/104 16/16/16
f 105/105/105 104/104/104 85/85/85
f 17/17/17 105/105/105 85/85/85
f 31/31/31 98/98/98 11/11/11
f 97/97/97 98/98/98 31/31/31
f 30/30/30 97/97/97 31/31/31
f 100/100/100 97/97/97 30/30/30
f 33/33/33 100/100/100 30/30/30
f 99/99/99 100/100/100 33/33/33
f 36/36/36 99/99/99 33/33/33
f 32/32/32 99/99/99 36/36/36
f 28/28/28 32/32/32 36/36/36
f 34/34/34 32/32/32 28/28/28
f 27/27/27 34/34/34 28/28/28
f 102/102/102 34/34/34 27/27/27
f 13/13/13 102/102/102 27/27/27
f 101/101/101 34/34/34 102/102/102
f 32/32/32 34/34/34 101/101/101
f 99/99/99 32/32/32 101/101/101
f 63/63/63 76/76/76 75/75/75
f 50/50/50 63/63/63 75/75/75
f 49/49/49 63/63/63 50/50/50
f 5/5/5 49/49/49 50/50/50
f 51/51/51 58/58/58 121/121/121
f 59/59/59 58/58/58 51/51/51
f 91/91/91 59/59/59 51/51/51
f 79/79/79 59/59/59 91/91/91
f 62/62/62 76/76/76 63/63/63
f 61/61/61 76/76/76 62/62/62
f 86/86/86 120/120/120 57/57/57
f 118/118/118 120/120/120 86/86/86
f 56/56/56 118/118/118 86/86/86
f 117/117/117 118/118/118 56/56/56
f 15/15/15 117/117/117 56/56/56
f 109/109/109 117/117/117 15/15/15
f 93/93/93 109/109/109 15/15/15
f 65/65/65 116/116/116 54/54/54
f 72/72/72 116/116/116 65/65/65
f 66/66/66 72/72/72 65/65/65
f 70/70/70 72/72/72 66/66/66
f 74/74/74 70/70/70 66/66/66
f 113/113/113 70/70/70 74/74/74
f 71/71/71 113/113/113 74/74/74
f 114/114/114 113/113/113 71/71/71
f 68/68/68 114/114/114 71/71/71
f 112/112/112 114/114/114 68/68/68
f 69/69/69 112/112/112 68/68/68
f 110/110/110 112/112/112 69/69/69
f 52/52/52 110/110/110 69/69/69
f 115/115/115 70/70/70 113/113/113
f 72/72/72 70/70/70 115/115/115
f 116/116/116 72/72/72 115/115/115
f 59/59/59 79/79/79 20/20/20
f 26/26/26 13/13/13 27/27/27
f 14/14/14 13/13/13 26/26/26
f 21/21/21 14/14/14 26/26/26
f 4/4/4 14/14/14 21/21/21
f 22/22/22 4/4/4 21/21/21
f 60/60/60 4/4/4 22/22/22
f 47/47/47 60/60/60 22/22/22
f 82/82/82 60/60/60 47/47/47
f 45/45/45 82/82/82 47/47/47
f 29/29/29 21/21/21 26/26/26
f 28/28/28 29/29/29 26/26/26
f 35/35/35 29/29/29 28/28/28
f 36/36/36 35/35/35 28/28/28
f 30/30/30 35/35/35 36/36/36
f 33/33/33 30/30/30 36/36/36
f 4/4/4 60/60/60 55/55/55
f 6/6/6 4/4/4 55/55/55
f 14/14/14 4/4/4 6/6/6
f 13/13/13 14/14/14 6/6/6
f 43/43/43 44/44/44 92/92/92
f 3/3/3 44/44/44 43/43/43
f 1/1/1 3/3/3 43/43/43
f 80/80/80 3/3/3 1/1/1
f 39/39/39 80/80/80 1/1/1
f 43/43/43 39/39/39 1/1/1
f 42/42/42 39/39/39 43/43/43
f 92/92/92 42/42/42 43/43/43
f 46/46/46 45/45/45 47/47/47
f 11/11/11 45/45/45 46/46/46
f 29/29/29 11/11/11 46/46/46
f 31/31/31 11/11/11 29/29/29
f 35/35/35 31/31/31 29/29/29
f 30/30/30 31/31/31 35/35/35
f 21/21/21 47/47/47 22/22/22
f 46/46/46 47/47/47 21/21/21
f 29/29/29 46/46/46 21/21/21
f 28/28/28 26/26/26 27/27/27
f 73/73/73 69/69/69 68/68/68
f 67/67/67 69/69/69 73/73/73
f 66/66/66 67/67/67 73/73/73
f 64/64/64 67/67/67 66/66/66
f 65/65/65 64/64/64 66/66/66
f 54/54/54 64/64/64 65/65/65
f 74/74/74 68/68/68 71/71/71
f 73/73/73 68/68/68 74/74/74
f 66/66/66 73/73/73 74/74/74
f 81/81/81 3/3/3 80/80/80
f 52/52/52 3/3/3 81/81/81
f 69/69/69 67/67/67 52/52/52
f 89/89/89 51/51/51 121/121/121
