g hawk1_geo
v -2.00049E-17 1.641676 0.1463434
v -2.409535E-17 1.515443 0.1831869
v -1.893192E-17 1.656734 0.1366789
v -2.280624E-17 1.635342 0.1715757
v -3.04182E-17 1.557969 0.2401381
v -2.622014E-17 1.614632 0.2023253
v -2.372339E-17 1.51373 0.1798366
v -2.772574E-17 1.517336 0.2158866
v 0.02402385 1.630178 0.1341132
v 0.02682602 1.614616 0.1352269
v 0.03360536 1.590132 0.1387501
v 0.01258567 1.639202 0.1443388
v 0.03764326 1.525381 0.2136895
v 0.02044993 1.624223 0.162138
v 0.0466278 1.53493 0.1596309
v 0.04602461 1.524693 0.1893137
v 0.04247788 1.539335 0.1838834
v 0.02647025 1.616326 0.1447578
v 0.02320954 1.517175 0.1794111
v 0.03133824 1.594339 0.1574915
v 0.01874094 1.655573 0.1319648
v 0.02382449 1.514782 0.1774655
v 0.02242026 1.519854 0.2143788
v 0.04942007 1.516868 0.1674248
v 0.04535712 1.535894 0.1568295
v 0.04241519 1.541606 0.1664049
v 0.04400026 1.54017 0.1669103
v 0.04980965 1.519389 0.1682117
v 0.05093445 1.525257 0.1817763
v 0.05208987 1.536935 0.1689756
v 0.05469009 1.522454 0.169849
v 0.05414449 1.533253 0.1637699
v 0.05242907 1.535092 0.1767972
v 0.05747283 1.526864 0.1680471
v 0.05095344 1.526379 0.1641361
v 0.05025079 1.525945 0.1615754
v 0.03592369 1.499465 0.1811199
v -2.491449E-17 1.487799 0.1905651
v 0.02709854 1.603888 0.1818856
v 0.03789958 1.554134 0.207871
v 0.02147336 1.557332 0.2306356
v 0.01616625 1.611552 0.19631
v 0.009980159 1.631878 0.169396
v -2.979461E-17 1.519989 0.2345213
v -3.050214E-17 1.529102 0.2408942
v 0.02178936 1.522709 0.2278516
v 0.02129716 1.531733 0.2318626
v 0.03823449 1.534639 0.2119024
v 0.04118313 1.578355 0.1384809
v 0.04865332 1.562409 0.1374834
v 0.05682044 1.546835 0.1439031
v 0.03705804 1.56952 0.1729866
v 0.03379384 1.578858 0.1997714
v 0.02058541 1.584595 0.2189775
v -2.893032E-17 1.586454 0.2267365
v 0.0380714 1.562458 0.1527456
v -0.02402385 1.630178 0.1341132
v -0.02682602 1.614616 0.1352269
v -0.03360536 1.590132 0.1387501
v -0.01258567 1.639202 0.1443388
v -0.03764326 1.525381 0.2136895
v -0.02044993 1.624223 0.162138
v -0.0466278 1.53493 0.1596309
v -0.04602461 1.524693 0.1893137
v -0.04247788 1.539335 0.1838834
v -0.02647025 1.616326 0.1447578
v -0.02320954 1.517175 0.1794111
v -0.03133824 1.594339 0.1574915
v -0.01874094 1.655573 0.1319648
v -0.02382449 1.514782 0.1774655
v -0.02242026 1.519854 0.2143788
v -0.04942007 1.516868 0.1674248
v -0.04535712 1.535894 0.1568295
v -0.04241519 1.541606 0.1664049
v -0.04400026 1.54017 0.1669103
v -0.04980965 1.519389 0.1682117
v -0.05093445 1.525257 0.1817763
v -0.05208987 1.536935 0.1689756
v -0.05469009 1.522454 0.169849
v -0.05414449 1.533253 0.1637699
v -0.05242907 1.535092 0.1767972
v -0.05747283 1.526864 0.1680471
v -0.05095344 1.526379 0.1641361
v -0.05025079 1.525945 0.1615754
v -0.03592369 1.499465 0.1811199
v -0.02709854 1.603888 0.1818856
v -0.03789958 1.554134 0.207871
v -0.02147336 1.557332 0.2306356
v -0.01616625 1.611552 0.19631
v -0.009980159 1.631878 0.169396
v -0.02178936 1.522709 0.2278516
v -0.02129716 1.531733 0.2318626
v -0.03823449 1.534639 0.2119024
v -0.04118313 1.578355 0.1384809
v -0.04865332 1.562409 0.1374834
v -0.05682044 1.546835 0.1439031
v -0.03705804 1.56952 0.1729866
v -0.03379384 1.578858 0.1997714
v -0.02058541 1.584595 0.2189775
v -0.0380714 1.562458 0.1527456
v 0.02320954 1.517175 0.1794111
v -2.409535E-17 1.515443 0.1831869
v 0.04247788 1.539335 0.1838834
v 0.04400026 1.54017 0.1669103
v 0.04980965 1.519389 0.1682117
v 0.05095344 1.526379 0.1641361
v 0.0466278 1.53493 0.1596309
v -2.372339E-17 1.51373 0.1798366
v 0.02382449 1.514782 0.1774655
v 0.04942007 1.516868 0.1674248
v 0.04535712 1.535894 0.1568295
v 0.05025079 1.525945 0.1615754
v 0.04942007 1.516868 0.1674248
v 0.04241519 1.541606 0.1664049
v -0.02320954 1.517175 0.1794111
v -2.772574E-17 1.517336 0.2158866
v -2.409535E-17 1.515443 0.1831869
v -0.04247788 1.539335 0.1838834
v -0.04400026 1.54017 0.1669103
v -0.04980965 1.519389 0.1682117
v -0.05095344 1.526379 0.1641361
v -0.0466278 1.53493 0.1596309
v -0.02382449 1.514782 0.1774655
v -0.04942007 1.516868 0.1674248
v -0.04535712 1.535894 0.1568295
v -0.05025079 1.525945 0.1615754
v -0.04942007 1.516868 0.1674248
v -0.04241519 1.541606 0.1664049
vt 0.9504652 0.1935029
vt 0.993726 0.1295959
vt 0.9504653 0.1986493
vt 0.9504652 0.1865193
vt 0.9504653 0.1651003
vt 0.9504652 0.1783935
vt 0.993726 0.1295959
vt 0.9556703 0.1514971
vt 0.9599733 0.1941337
vt 0.9637225 0.191167
vt 0.968894 0.1853723
vt 0.9546455 0.1935389
vt 0.9608394 0.1603047
vt 0.9567304 0.1868217
vt 0.993726 0.1295959
vt 0.9672959 0.1609726
vt 0.9676512 0.1656373
vt 0.9615812 0.1892806
vt 0.9680852 0.1537328
vt 0.9642018 0.1824576
vt 0.9554507 0.199684
vt 0.993726 0.1295959
vt 0.9592072 0.1567795
vt 0.993726 0.1295959
vt 0.993726 0.1295959
vt 0.993726 0.1295959
vt 0.993726 0.1295959
vt 0.993726 0.1295959
vt 0.9695813 0.1615886
vt 0.9720579 0.1646575
vt 0.9725672 0.1615816
vt 0.9732118 0.1639513
vt 0.9705269 0.1639315
vt 0.9727431 0.1625841
vt 0.9937259 0.1295959
vt 0.993726 0.1295959
vt 0.964163 0.1350711
vt 0.951845 0.1301869
vt 0.9581513 0.179779
vt 0.9604539 0.1667876
vt 0.9547793 0.1656291
vt 0.9539945 0.1788296
vt 0.9530295 0.1865503
vt 0.9504652 0.155827
vt 0.9504652 0.158952
vt 0.9564291 0.1584122
vt 0.9554462 0.1602779
vt 0.9609034 0.1623564
vt 0.9721614 0.1827677
vt 0.9761059 0.1790974
vt 0.9788375 0.174181
vt 0.9657441 0.1745423
vt 0.9592004 0.1726258
vt 0.9545064 0.1715635
vt 0.9504653 0.1710618
vt 0.9713019 0.1764751
vt 0.9409569 0.1941337
vt 0.9372077 0.191167
vt 0.9320355 0.1853716
vt 0.9462849 0.1935389
vt 0.9400916 0.1603047
vt 0.9441999 0.1868216
vt 0.993726 0.1295959
vt 0.9336359 0.160973
vt 0.9332806 0.1656369
vt 0.9393489 0.1892804
vt 0.9328461 0.1537338
vt 0.9367283 0.1824571
vt 0.94548 0.1996842
vt 0.993726 0.1295958
vt 0.9417236 0.1567798
vt 0.993726 0.1295959
vt 0.993726 0.1295959
vt 0.993726 0.1295959
vt 0.993726 0.1295959
vt 0.9277614 0.1601466
vt 0.9313508 0.1615891
vt 0.9288746 0.1646575
vt 0.9283651 0.1615824
vt 0.9277205 0.1639517
vt 0.9304053 0.1639315
vt 0.928189 0.1625847
vt 0.993726 0.1295959
vt 0.993726 0.1295959
vt 0.939527 0.1350712
vt 0.9427792 0.1797788
vt 0.9404773 0.1667873
vt 0.9461514 0.1656291
vt 0.946936 0.1788295
vt 0.9479009 0.1865503
vt 0.9445015 0.1584122
vt 0.9454844 0.1602779
vt 0.9400277 0.1623563
vt 0.9287683 0.1827664
vt 0.9248242 0.1790954
vt 0.922093 0.174178
vt 0.9351869 0.1745415
vt 0.9417305 0.1726256
vt 0.9464244 0.1715634
vt 0.9296288 0.1764737
vt 0.993726 0.1295959
vt 0.9645783 0.1477877
vt 0.993726 0.1295959
vt 0.9721692 0.166825
vt 0.973171 0.1601456
vt 0.9743373 0.1625344
vt 0.9745005 0.1655298
vt 0.951845 0.1397381
vt 0.9599766 0.1403774
vt 0.9691508 0.1423535
vt 0.9752022 0.1692278
vt 0.9768003 0.1659757
vt 0.9766722 0.1627243
vt 0.9717175 0.168999
vt 0.993726 0.1295958
vt 0.9452602 0.1514976
vt 0.9363528 0.1477884
vt 0.993726 0.1295959
vt 0.9287637 0.1668244
vt 0.993726 0.1295959
vt 0.9265948 0.1625351
vt 0.9264327 0.1655305
vt 0.9437135 0.1403774
vt 0.9345392 0.1423535
vt 0.9257297 0.1692253
vt 0.9241323 0.1659726
vt 0.9242612 0.1627208
vt 0.9292145 0.1689975
vn -4.644303E-07 0.869623 0.4937164
vn 0 -0.9325242 0.3611075
vn -5.520729E-07 0.5417679 0.8405281
vn -1.37733E-07 0.9148032 0.4038998
vn -1.398232E-07 0.2307007 0.9730248
vn 0 0.7560022 0.654569
vn -1.325639E-07 -0.2630445 0.9647837
vn 0 -0.9927417 0.1202661
vn 0.5564668 0.3016003 0.7741976
vn 0.6346815 0.2356468 0.7359688
vn 0.6176654 0.3546039 0.7019584
vn 0.6003015 0.6290694 0.4938723
vn 0.7331501 -0.5563889 0.3910528
vn 0.8130537 0.5363275 0.226487
vn 0.7412784 0.4362319 -0.510106
vn 0.7846184 -0.4891371 0.3809446
vn 0.8911182 0.4073574 0.1999211
vn 0.9427493 0.3215355 0.08853548
vn 0.2494819 -0.8945017 0.3709794
vn 0.9633062 0.263877 0.04909351
vn 0.3264225 0.4125773 0.8504283
vn 0.2679488 -0.1256176 0.9552088
vn 0.2241728 -0.9647042 0.1381758
vn 0.4886937 0.2927291 0.8218809
vn 0.6176654 0.3546039 0.7019584
vn 0.8612207 0.5008739 0.08616421
vn 0.5383105 0.8416173 -0.04361491
vn 0.6389743 -0.7482228 0.1785347
vn 0.6353222 -0.6147319 0.4674082
vn 0.5923064 0.8034956 -0.05973224
vn 0.7838476 -0.6203284 0.02784995
vn 0.7450116 0.4270352 -0.5124438
vn 0.7459332 0.5842583 0.3197281
vn 0.9246674 -0.131257 -0.3574376
vn 0.8047254 -0.1961387 -0.5603094
vn 0.3845594 0.4627666 0.7987247
vn 0.4197846 0.1573824 0.8938746
vn -1.205939E-06 0.1711296 0.9852485
vn 0.8800533 0.4243686 0.2131131
vn 0.9427579 0.1613746 0.2918317
vn 0.620102 0.2009203 0.7583564
vn 0.5830418 0.642078 0.4977929
vn 0.4914799 0.8037055 0.3354176
vn -1.971538E-07 -0.8236599 0.5670841
vn -1.669819E-07 -0.2382837 0.9711955
vn 0.4543262 -0.7052633 0.5442348
vn 0.5942581 -0.1150726 0.7959997
vn 0.8956073 0.05921997 0.4408861
vn 0.725957 0.3751318 0.5764221
vn 0.7004506 0.3970532 0.593058
vn 0.4535517 0.4842673 0.7481818
vn 0.97739 0.2081016 0.0374516
vn 0.9160617 0.3076231 0.2572915
vn 0.6112706 0.4615009 0.6429349
vn -1.937133E-07 0.5475812 0.8367525
vn 0.8947071 0.3011644 0.3298469
vn -0.5564668 0.3016003 0.7741976
vn -0.6346815 0.2356468 0.7359688
vn -0.6176654 0.3546039 0.7019584
vn -0.600302 0.6290704 0.4938702
vn -0.7331501 -0.5563887 0.391053
vn -0.8130537 0.5363274 0.2264872
vn -0.7412786 0.4362324 -0.5101054
vn -0.7846183 -0.489137 0.380945
vn -0.8911182 0.4073574 0.199921
vn -0.9427494 0.3215355 0.08853499
vn -0.2494812 -0.8945014 0.3709802
vn -0.9633062 0.263877 0.04909251
vn -0.3264225 0.4125773 0.8504283
vn -0.2679471 -0.1256158 0.9552094
vn -0.2241729 -0.9647042 0.1381757
vn -0.4886937 0.2927291 0.8218809
vn -0.6176654 0.3546039 0.7019584
vn -0.8612207 0.5008739 0.08616385
vn -0.5383101 0.8416173 -0.04361868
vn -0.6389736 -0.7482223 0.178539
vn -0.6353227 -0.6147321 0.4674073
vn -0.5923053 0.8034961 -0.05973708
vn -0.7838474 -0.6203285 0.02785112
vn -0.7450128 0.4270365 -0.5124411
vn -0.7459342 0.5842597 0.3197227
vn -0.9246678 -0.1312582 -0.3574365
vn -0.8047263 -0.1961401 -0.5603076
vn -0.3845594 0.4627666 0.7987247
vn -0.4197846 0.1573824 0.8938746
vn -0.8800535 0.4243687 0.213113
vn -0.9427582 0.1613746 0.2918306
vn -0.6201031 0.2009205 0.7583556
vn -0.5830418 0.642078 0.4977929
vn -0.4914803 0.803706 0.3354159
vn -0.4543263 -0.7052633 0.5442345
vn -0.5942584 -0.1150726 0.7959995
vn -0.8956074 0.05922 0.440886
vn -0.7259576 0.3751321 0.5764213
vn -0.7004514 0.3970536 0.5930566
vn -0.4535539 0.4842671 0.7481806
vn -0.97739 0.2081016 0.03745141
vn -0.916062 0.3076231 0.2572904
vn -0.6112713 0.4615011 0.642934
vn -0.8947074 0.3011646 0.3298465
vn 0.2494819 -0.8945017 0.3709794
vn 0 -0.9325242 0.3611075
vn 0.8911182 0.4073574 0.1999211
vn 0.5383105 0.8416173 -0.04361491
vn 0.6389743 -0.7482228 0.1785347
vn 0.8047254 -0.1961387 -0.5603094
vn 0.7412784 0.4362319 -0.510106
vn -1.325639E-07 -0.2630445 0.9647837
vn 0.2679488 -0.1256176 0.9552088
vn 0.4886937 0.2927291 0.8218809
vn 0.6176654 0.3546039 0.7019584
vn 0.3845594 0.4627666 0.7987247
vn 0.4886937 0.2927291 0.8218809
vn 0.8612207 0.5008739 0.08616421
vn -0.2494812 -0.8945014 0.3709802
vn 0 -0.9927417 0.1202661
vn 0 -0.9325242 0.3611075
vn -0.8911182 0.4073574 0.199921
vn -0.5383101 0.8416173 -0.04361868
vn -0.6389736 -0.7482223 0.178539
vn -0.8047263 -0.1961401 -0.5603076
vn -0.7412786 0.4362324 -0.5101054
vn -0.2679471 -0.1256158 0.9552094
vn -0.4886937 0.2927291 0.8218809
vn -0.6176654 0.3546039 0.7019584
vn -0.3845594 0.4627666 0.7987247
vn -0.4886937 0.2927291 0.8218809
vn -0.8612207 0.5008739 0.08616385
g hawk1_geo_0
f 46/46/46 8/8/8 23/23/23
f 44/44/44 8/8/8 46/46/46
f 45/45/45 44/44/44 46/46/46
f 91/91/91 44/44/44 45/45/45
f 92/92/92 91/91/91 45/45/45
f 61/61/61 91/91/91 92/92/92
f 93/93/93 61/61/61 92/92/92
f 65/65/65 61/61/61 93/93/93
f 87/87/87 65/65/65 93/93/93
f 97/97/97 65/65/65 87/87/87
f 98/98/98 97/97/97 87/87/87
f 68/68/68 97/97/97 98/98/98
f 86/86/86 68/68/68 98/98/98
f 66/66/66 68/68/68 86/86/86
f 62/62/62 66/66/66 86/86/86
f 60/60/60 66/66/66 62/62/62
f 90/90/90 60/60/60 62/62/62
f 1/1/1 60/60/60 90/90/90
f 4/4/4 1/1/1 90/90/90
f 43/43/43 1/1/1 4/4/4
f 6/6/6 43/43/43 4/4/4
f 42/42/42 43/43/43 6/6/6
f 55/55/55 42/42/42 6/6/6
f 54/54/54 42/42/42 55/55/55
f 5/5/5 54/54/54 55/55/55
f 41/41/41 54/54/54 5/5/5
f 45/45/45 41/41/41 5/5/5
f 47/47/47 41/41/41 45/45/45
f 46/46/46 47/47/47 45/45/45
f 13/13/13 47/47/47 46/46/46
f 23/23/23 13/13/13 46/46/46
f 19/19/19 13/13/13 23/23/23
f 8/8/8 19/19/19 23/23/23
f 102/102/102 19/19/19 8/8/8
f 15/15/15 36/36/36 25/25/25
f 26/26/26 15/15/15 25/25/25
f 27/27/27 15/15/15 26/26/26
f 103/103/103 27/27/27 26/26/26
f 108/108/108 85/85/85 38/38/38
f 37/37/37 108/108/108 38/38/38
f 109/109/109 108/108/108 37/37/37
f 110/110/110 109/109/109 37/37/37
f 51/51/51 112/112/112 113/113/113
f 111/111/111 112/112/112 51/51/51
f 50/50/50 111/111/111 51/51/51
f 114/114/114 111/111/111 50/50/50
f 56/56/56 114/114/114 50/50/50
f 52/52/52 114/114/114 56/56/56
f 20/20/20 52/52/52 56/56/56
f 53/53/53 52/52/52 20/20/20
f 39/39/39 53/53/53 20/20/20
f 42/42/42 53/53/53 39/39/39
f 43/43/43 42/42/42 39/39/39
f 71/71/71 91/91/91 61/61/61
f 67/67/67 71/71/71 61/61/61
f 116/116/116 71/71/71 67/67/67
f 117/117/117 116/116/116 67/67/67
f 63/63/63 73/73/73 84/84/84
f 74/74/74 73/73/73 63/63/63
f 75/75/75 74/74/74 63/63/63
f 118/118/118 74/74/74 75/75/75
f 123/123/123 85/85/85 108/108/108
f 124/124/124 85/85/85 123/123/123
f 100/100/100 97/97/97 68/68/68
f 128/128/128 97/97/97 100/100/100
f 95/95/95 128/128/128 100/100/100
f 125/125/125 128/128/128 95/95/95
f 96/96/96 125/125/125 95/95/95
f 126/126/126 125/125/125 96/96/96
f 127/127/127 126/126/126 96/96/96
f 12/12/12 21/21/21 3/3/3
f 9/9/9 21/21/21 12/12/12
f 18/18/18 9/9/9 12/12/12
f 10/10/10 9/9/9 18/18/18
f 11/11/11 10/10/10 18/18/18
f 22/22/22 101/101/101 2/2/2
f 28/28/28 101/101/101 22/22/22
f 24/24/24 28/28/28 22/22/22
f 35/35/35 28/28/28 24/24/24
f 36/36/36 35/35/35 24/24/24
f 15/15/15 35/35/35 36/36/36
f 72/72/72 120/120/120 83/83/83
f 115/115/115 120/120/120 72/72/72
f 70/70/70 115/115/115 72/72/72
f 2/2/2 115/115/115 70/70/70
f 7/7/7 2/2/2 70/70/70
f 22/22/22 2/2/2 7/7/7
f 34/34/34 30/30/30 33/33/33
f 29/29/29 34/34/34 33/33/33
f 31/31/31 34/34/34 29/29/29
f 105/105/105 31/31/31 29/29/29
f 34/34/34 31/31/31 105/105/105
f 106/106/106 34/34/34 105/105/105
f 32/32/32 34/34/34 106/106/106
f 107/107/107 32/32/32 106/106/106
f 30/30/30 32/32/32 107/107/107
f 104/104/104 30/30/30 107/107/107
f 33/33/33 30/30/30 104/104/104
f 17/17/17 33/33/33 104/104/104
f 29/29/29 33/33/33 17/17/17
f 16/16/16 29/29/29 17/17/17
f 19/19/19 29/29/29 16/16/16
f 13/13/13 19/19/19 16/16/16
f 105/105/105 29/29/29 19/19/19
f 60/60/60 69/69/69 57/57/57
f 3/3/3 69/69/69 60/60/60
f 1/1/1 3/3/3 60/60/60
f 12/12/12 3/3/3 1/1/1
f 43/43/43 12/12/12 1/1/1
f 14/14/14 12/12/12 43/43/43
f 39/39/39 14/14/14 43/43/43
f 18/18/18 14/14/14 39/39/39
f 20/20/20 18/18/18 39/39/39
f 11/11/11 18/18/18 20/20/20
f 56/56/56 11/11/11 20/20/20
f 49/49/49 11/11/11 56/56/56
f 50/50/50 49/49/49 56/56/56
f 52/52/52 17/17/17 114/114/114
f 40/40/40 17/17/17 52/52/52
f 53/53/53 40/40/40 52/52/52
f 54/54/54 40/40/40 53/53/53
f 42/42/42 54/54/54 53/53/53
f 64/64/64 61/61/61 65/65/65
f 67/67/67 61/61/61 64/64/64
f 77/77/77 67/67/67 64/64/64
f 76/76/76 67/67/67 77/77/77
f 79/79/79 76/76/76 77/77/77
f 82/82/82 76/76/76 79/79/79
f 77/77/77 82/82/82 79/79/79
f 81/81/81 82/82/82 77/77/77
f 65/65/65 81/81/81 77/77/77
f 119/119/119 81/81/81 65/65/65
f 66/66/66 57/57/57 58/58/58
f 59/59/59 66/66/66 58/58/58
f 68/68/68 66/66/66 59/59/59
f 100/100/100 68/68/68 59/59/59
f 84/84/84 83/83/83 63/63/63
f 72/72/72 83/83/83 84/84/84
f 78/78/78 81/81/81 119/119/119
f 122/122/122 78/78/78 119/119/119
f 80/80/80 78/78/78 122/122/122
f 121/121/121 80/80/80 122/122/122
f 82/82/82 80/80/80 121/121/121
f 76/76/76 82/82/82 121/121/121
f 91/91/91 116/116/116 44/44/44
f 71/71/71 116/116/116 91/91/91
f 100/100/100 94/94/94 95/95/95
f 59/59/59 94/94/94 100/100/100
f 97/97/97 128/128/128 65/65/65
f 17/17/17 13/13/13 16/16/16
f 48/48/48 13/13/13 17/17/17
f 40/40/40 48/48/48 17/17/17
f 41/41/41 48/48/48 40/40/40
f 54/54/54 41/41/41 40/40/40
f 14/14/14 18/18/18 12/12/12
f 32/32/32 30/30/30 34/34/34
f 48/48/48 47/47/47 13/13/13
f 41/41/41 47/47/47 48/48/48
f 57/57/57 66/66/66 60/60/60
f 88/88/88 92/92/92 45/45/45
f 5/5/5 88/88/88 45/45/45
f 99/99/99 88/88/88 5/5/5
f 55/55/55 99/99/99 5/5/5
f 89/89/89 99/99/99 55/55/55
f 6/6/6 89/89/89 55/55/55
f 90/90/90 89/89/89 6/6/6
f 4/4/4 90/90/90 6/6/6
f 82/82/82 78/78/78 80/80/80
f 81/81/81 78/78/78 82/82/82
f 64/64/64 65/65/65 77/77/77
f 88/88/88 93/93/93 92/92/92
f 87/87/87 93/93/93 88/88/88
f 99/99/99 87/87/87 88/88/88
f 98/98/98 87/87/87 99/99/99
f 89/89/89 98/98/98 99/99/99
f 86/86/86 98/98/98 89/89/89
f 90/90/90 86/86/86 89/89/89
f 62/62/62 86/86/86 90/90/90
