g hay_geo
v -0.3882401 0.01835852 0.5280734
v 0.2382391 0.01835852 0.5249797
v 0.02070999 0.5399152 0.2199584
v -0.2193513 0.4069407 -0.4619425
v -0.586731 0.01835852 -0.7651621
v 0.3562141 0.01835852 -0.6974877
v -0.07274826 0.0180428 0.7641752
v -0.1166122 0.4744301 -0.4473381
v -0.04739258 0.0180428 -0.9621579
v -0.3357491 0.3470883 0.2455366
v -0.3019974 0.6074045 -0.01569096
v 0.06877289 0.6074045 -0.01569096
v 0.1174442 0.3192042 -0.533359
v -0.460624 0.0180428 -0.1265279
v 0.2249245 0.0180428 0.119093
v -0.1166122 0.3470883 0.4084779
v -0.3287197 0.4406854 -0.3113816
v -0.7135711 0.01820064 -0.33642
v 0.4225813 0.01820064 -0.2478326
v 0.165217 0.3331462 -0.2830092
v 0.2452115 0.06182498 0.119093
v 0.4382042 0.05947279 -0.2484595
v 0.3566914 0.05712063 -0.6987414
v -0.04739258 0.06182499 -0.9657662
v -0.560985 0.0620845 -0.7914296
v -0.7280211 0.06195473 -0.3710829
v -0.4659418 0.06182499 -0.1265279
v -0.4040189 0.0620845 0.5270888
v -0.07274826 0.06182499 0.7746533
v 0.2540179 0.0620845 0.5180959
v -0.2549638 0.4504338 -0.4619425
v -0.1522247 0.5179231 -0.4473381
v -0.3019974 0.6642671 -0.0579614
v -0.3287197 0.497548 -0.3536521
v 0.02070999 0.6076866 0.2199584
v 0.06877289 0.6751759 -0.01569096
v -0.1166122 0.4245678 0.4084779
v -0.3357491 0.4245678 0.2455366
v 0.165217 0.3994664 -0.2830092
v 0.1174442 0.3855243 -0.533359
v 0.3566914 0.1590668 -0.6987414
v -0.04739258 0.1637712 -0.9657662
v -0.4659418 0.2053184 -0.1265279
v -0.4040189 0.205578 0.5270888
v -0.1166122 0.6074045 0.3024355
v 0.06877289 0.3470883 0.3024355
v -0.3487127 0.3470883 -0.5633907
v -0.1166122 0.6941767 -0.01569096
v 0.2540179 0.0620845 0.5180959
v -0.1166122 0.7604009 -0.001307831
v -0.1166122 0.6736288 0.3168185
v 0.2943304 0.1029772 0.53751
v 0.1090855 0.3879811 0.3218497
v 0.2452115 0.1467319 0.119093
v 0.4382042 0.1443797 -0.2484595
v -0.3798238 0.3993084 -0.5996953
v -0.5920961 0.1143046 -0.8277343
v 0.3566914 0.05712063 -0.6987414
v -0.04739258 0.06182499 -0.9657662
v -0.4659418 0.06182499 -0.1265279
v -0.4040189 0.0620845 0.5270888
v 0.4382042 0.05947279 -0.2484595
v 0.2452115 0.06182498 0.119093
v -0.560985 0.0620845 -0.7914296
vt -0.4906902 -0.002822995
vt -0.4857756 -0.002822995
vt 0.5956175 0.6877493
vt 0.660612 0.1752432
vt 1.458273 -0.002822995
vt 1.45622 -0.002822995
vt -0.8657583 -0.003004372
vt 0.9887747 0.1752432
vt 1.876672 -0.003004372
vt 0.958271 0.6877493
vt 0.04450904 0.2058826
vt 0.958271 0.6877493
vt 0.958271 0.6877493
vt 0.4346031 -0.003004372
vt 0.1590107 -0.003004372
vt 0.5956175 0.6877493
vt 0.4716343 0.2058826
vt 0.8826325 -0.002913713
vt 0.8214856 -0.002913713
vt 0.5956175 0.6877493
vt 0.1590107 0.06538635
vt 0.8224813 0.06403488
vt 1.458211 0.0626834
vt 1.882403 0.06538635
vt 1.500001 0.06553549
vt 0.9376976 0.06546098
vt 0.4346031 0.06538635
vt -0.4891258 0.06553549
vt -0.8824036 0.06538635
vt -0.4748398 0.06553549
vt 0.660612 0.5987449
vt 0.9887747 0.5987449
vt 0.04450904 0.4248584
vt 0.4716343 0.4248584
vt 0.5956175 0.9839203
vt 0.958271 0.9839203
vt 0.5956175 0.9839203
vt 0.958271 0.9839203
vt 0.5956175 0.9839203
vt 0.958271 0.9839203
vt 0.04305804 0.9489043
vt 0.5749499 0.9489043
vt 0.04305804 0.9489043
vt 0.5749499 0.9489043
vt 0.5684558 0.5632493
vt 0.5684558 0.5632493
vt 0 0.5632493
vt 0 0.5632493
vt 0 0.5632493
vt 0 0.9383508
vt 0.5684558 0.9383508
vt 0 0.9383508
vt 0.5684558 0.9383508
vt 0.5684558 0.9383508
vt 0 0.9383508
vt 0 0.9383508
vt 0.5684558 0.9383508
vt 0.04305804 0.5731517
vt 0.5749499 0.5731517
vt 0.04305804 0.5731517
vt 0.5749499 0.5731517
vt 0 0.5632493
vt 0.5684558 0.5632493
vt 0.5684558 0.5632493
vn -0.8457323 -0.2302152 0.4813915
vn 0.8570958 -0.2934685 0.4233948
vn 0.9798275 0 0.1998449
vn -0.09178002 -0.07515053 0.9929395
vn -0.7008346 -0.1795176 -0.6903653
vn 0.8287326 -0.1369874 -0.5426203
vn 0.01228051 -0.2077546 0.9781039
vn -0.09178002 -0.07515053 0.9929395
vn 0.1253223 -0.1514312 -0.9804912
vn 0.596687 0 -0.802474
vn 0.9968666 -0.04719124 -0.06348172
vn 0.9798275 0 0.1998449
vn 0.9822757 0 -0.1874421
vn -0.8867246 -0.04711768 0.4598907
vn 0.9017888 -0.3752944 0.2143154
vn 0.596687 0 -0.802474
vn 0.9968666 -0.04719124 -0.06348172
vn -0.9672235 0.02471474 0.252721
vn 0.9462374 -0.2870524 0.1491156
vn 0.9822757 0 -0.1874421
vn 0.9017888 -0.3752944 0.2143154
vn 0.9462374 -0.2870524 0.1491156
vn 0.7462661 -0.09046137 -0.6594723
vn 0.2855546 -0.09976732 -0.9531554
vn -0.7008346 -0.1795176 -0.6903653
vn -0.9672235 0.02471474 0.252721
vn -0.9412067 -0.03099174 0.3364069
vn -0.9225158 -0.1531192 0.3542866
vn 0.01228051 -0.2077546 0.9781039
vn 0.8570958 -0.2934685 0.4233948
vn -0.09178002 -0.07515053 0.9929395
vn -0.09178002 -0.07515053 0.9929395
vn 0.9968666 -0.04719124 -0.06348172
vn 0.9968666 -0.04719124 -0.06348172
vn 0.9798275 0 0.1998449
vn 0.9798275 0 0.1998449
vn 0.596687 0 -0.802474
vn 0.596687 0 -0.802474
vn 0.9822757 0 -0.1874421
vn 0.9822757 0 -0.1874421
vn 0.5513157 0 -0.8342967
vn 0.5513157 0 -0.8342967
vn -0.9955423 0 0.09431643
vn -0.9955423 0 0.09431643
vn -1 0 0
vn 0.5881709 -0.2089012 -0.7812908
vn 0.7444342 -0.02046843 -0.6673821
vn -1 0 0
vn 0.5881709 -0.2089012 -0.7812908
vn -1 0 0
vn -1 0 0
vn 0.5881709 -0.2089012 -0.7812908
vn 0.5881709 -0.2089012 -0.7812908
vn -0.8853704 0 -0.4648861
vn -0.8853704 0 -0.4648861
vn 0.7444342 -0.02046843 -0.6673821
vn 0.7444342 -0.02046843 -0.6673821
vn 0.7462661 -0.09046137 -0.6594723
vn 0.2855546 -0.09976732 -0.9531554
vn -0.9412067 -0.03099174 0.3364069
vn -0.9225158 -0.1531192 0.3542866
vn -0.8853704 0 -0.4648861
vn -0.8853704 0 -0.4648861
vn 0.7444342 -0.02046843 -0.6673821
g hay_geo_0
f 32/32/32 4/4/4 8/8/8
f 31/31/31 4/4/4 32/32/32
f 34/34/34 11/11/11 17/17/17
f 33/33/33 11/11/11 34/34/34
f 36/36/36 3/3/3 12/12/12
f 35/35/35 3/3/3 36/36/36
f 38/38/38 16/16/16 10/10/10
f 37/37/37 16/16/16 38/38/38
f 40/40/40 20/20/20 13/13/13
f 39/39/39 20/20/20 40/40/40
f 42/42/42 58/58/58 59/59/59
f 41/41/41 58/58/58 42/42/42
f 44/44/44 60/60/60 61/61/61
f 43/43/43 60/60/60 44/44/44
f 51/51/51 48/48/48 45/45/45
f 50/50/50 48/48/48 51/51/51
f 53/53/53 49/49/49 46/46/46
f 52/52/52 49/49/49 53/53/53
f 54/54/54 62/62/62 63/63/63
f 55/55/55 62/62/62 54/54/54
f 57/57/57 47/47/47 64/64/64
f 56/56/56 47/47/47 57/57/57
f 21/21/21 15/15/15 22/22/22
f 2/2/2 15/15/15 21/21/21
f 30/30/30 2/2/2 21/21/21
f 7/7/7 2/2/2 30/30/30
f 29/29/29 7/7/7 30/30/30
f 1/1/1 7/7/7 29/29/29
f 28/28/28 1/1/1 29/29/29
f 14/14/14 1/1/1 28/28/28
f 27/27/27 14/14/14 28/28/28
f 18/18/18 14/14/14 27/27/27
f 26/26/26 18/18/18 27/27/27
f 5/5/5 18/18/18 26/26/26
f 25/25/25 5/5/5 26/26/26
f 9/9/9 5/5/5 25/25/25
f 24/24/24 9/9/9 25/25/25
f 6/6/6 9/9/9 24/24/24
f 23/23/23 6/6/6 24/24/24
f 19/19/19 6/6/6 23/23/23
f 22/22/22 19/19/19 23/23/23
f 15/15/15 19/19/19 22/22/22
