g hotPie_geo
v 0.1125151 7.143756E-10 -0.09433394
v 0.02557643 7.143756E-10 -0.1445281
v -0.0732866 7.143755E-10 -0.1270958
v -0.1378148 7.143756E-10 -0.05019405
v -0.1378148 7.143756E-10 0.05019404
v -0.07328661 7.143756E-10 0.1270958
v 0.02557639 7.143756E-10 0.1445281
v 0.112515 7.143756E-10 0.09433397
v 0.1468498 7.143756E-10 -2.836054E-18
v 0.02808831 0.04505548 -0.1617672
v 0.125397 0.04505548 -0.105586
v -0.08256698 0.04505548 -0.1422557
v -0.1547921 0.04505548 -0.05618118
v -0.1547921 0.04505548 0.05618116
v -0.08256699 0.04505548 0.1422557
v 0.02808827 0.04505548 0.1617672
v 0.1253969 0.04505548 0.1055861
v 0.1638271 0.04505548 -1.227937E-17
v 0.1366191 0.04090213 -0.1153884
v 0.03027656 0.04144575 -0.1767853
v -0.09065165 0.04144575 -0.1554623
v -0.169582 0.04046137 -0.06139688
v -0.1711088 0.03814901 0.05514209
v -0.09065168 0.03679809 0.1554623
v 0.03027652 0.03877601 0.1767853
v 0.136619 0.03847419 0.1153884
v 0.1786169 0.03971238 0
v 0.02431234 0.06242827 -0.1651384
v 0.123649 0.06242827 -0.1077866
v -0.08864906 0.06242827 -0.1452203
v -0.1619449 0.06279656 -0.05837002
v -0.1623794 0.06242827 0.057352
v -0.08864906 0.06242827 0.1452203
v 0.02431231 0.06242827 0.1651384
v 0.123649 0.06242827 0.1077866
v 0.1628799 0.06242827 0
v 0.1368019 0.05547104 0.1174118
v 0.02859462 0.05577286 0.1798852
v -0.09445409 0.05379494 0.1581883
v -0.1762952 0.05514585 0.05621871
v -0.1747685 0.05745821 -0.06247351
v -0.09445408 0.05844259 -0.1581884
v 0.02859466 0.05764735 -0.1743456
v 0.136802 0.05789896 -0.1174118
v 0.1795362 0.05670921 0
v 0.1502823 0.05843342 0
v 0.1140903 0.05843342 -0.0994372
v 0.02244845 0.05843342 -0.1523465
v -0.08176274 0.05843342 -0.1339713
v -0.1497818 0.05843342 -0.05290941
v -0.1497818 0.05843342 0.05290941
v -0.08176274 0.05843342 0.1339712
v 0.02244842 0.05843342 0.1523465
v 0.1140903 0.05843342 0.09943722
v 0.1354412 0.07277319 0
v 0.1028293 0.07277319 -0.08960094
v 0.02025261 0.07277319 -0.1372764
v -0.07365006 0.07277319 -0.1207189
v -0.1349407 0.07277319 -0.04767563
v -0.1349407 0.07277319 0.04767562
v -0.07365006 0.07277319 0.1207188
v 0.02025258 0.07277319 0.1372764
v 0.1028293 0.07277319 0.08960091
v 0.06851427 0.09335045 -0.05962741
v -0.01768368 0.09335045 -0.08584506
v -0.08971629 0.09335045 -0.03172708
v -0.06932251 0.09335045 0.05603139
v 0.01356135 0.09335045 0.09135439
v 0.07936554 0.09335045 0.02981371
v -0.0008024634 0.1023185 6.379083E-10
v -0.05287181 0.0498302 0.1734847
v -0.04824303 0.03283336 0.1709043
v -0.1104942 0.0491533 0.1426233
v -0.1097731 0.03215647 0.1373327
v -0.1813251 0.05601905 0.02507445
v -0.1761386 0.03902221 0.02272641
v -0.1830683 0.05146265 -0.02214036
v -0.178316 0.03437053 -0.01695381
v -0.124706 0.05332179 -0.1354494
v -0.1235267 0.03632494 -0.1295971
v -0.02166739 0.04797937 -0.1807039
v -0.02063932 0.03098254 -0.1774887
v 0.07654098 0.04991023 -0.1617785
v 0.07804954 0.03291339 -0.1587786
v 0.1658616 0.05153591 -0.06453264
v 0.1658749 0.03453906 -0.06197012
v 0.167572 0.05066822 0.06031539
v 0.1662184 0.03367138 0.06150859
v 0.08283654 0.04948848 0.1567019
v 0.08236741 0.03249164 0.1548438
v 0.07740672 0.05670096 0.1344844
v -0.04189826 0.05717078 0.1534637
v -0.1241939 0.0572945 0.1017413
v -0.1624876 0.05847172 -0.0002809987
v -0.1270311 0.05906658 -0.09947842
v -0.03250813 0.05830994 -0.1551194
v 0.07754221 0.05777888 -0.1404529
v 0.1396513 0.05695565 0.06382026
v 0.1457762 0.05702883 -0.0469924
v -0.1489736 0.04713646 0.1051035
v -0.1450954 0.03004251 0.1036383
v -0.01189762 0.05442486 0.1755934
v -0.01211026 0.03724895 0.1723831
v -0.1378148 7.143756E-10 -0.05019405
v 0.1125151 7.143756E-10 -0.09433394
v 0.02557643 7.143756E-10 -0.1445281
v -0.1378148 7.143756E-10 0.05019404
v 0.1468498 7.143756E-10 -2.836054E-18
v 0.02557639 7.143756E-10 0.1445281
v 0.112515 7.143756E-10 0.09433397
v -0.07328661 7.143756E-10 0.1270958
v -0.0732866 7.143755E-10 -0.1270958
v 0.08283654 0.04948848 0.1567019
v -0.01189762 0.05442486 0.1755934
v 0.02859462 0.05577286 0.1798852
v -0.1762952 0.05514585 0.05621871
v -0.1813251 0.05601905 0.02507445
v -0.124706 0.05332179 -0.1354494
v -0.1747685 0.05745821 -0.06247351
v -0.02166739 0.04797937 -0.1807039
v -0.09445408 0.05844259 -0.1581884
v 0.07654098 0.04991023 -0.1617785
v 0.02859466 0.05764735 -0.1743456
v 0.136802 0.05789896 -0.1174118
v 0.1658616 0.05153591 -0.06453264
v 0.167572 0.05066822 0.06031539
v 0.1795362 0.05670921 0
v -0.09445409 0.05379494 0.1581883
v -0.1104942 0.0491533 0.1426233
v -0.05287181 0.0498302 0.1734847
v -0.1830683 0.05146265 -0.02214036
v 0.1368019 0.05547104 0.1174118
v -0.1489736 0.04713646 0.1051035
v -0.01189762 0.05442486 0.1755934
v -0.01189762 0.05442486 0.1755934
v -0.01211026 0.03724895 0.1723831
vt 0.8660771 0.06035853
vt 0.870912 0.09558517
vt 0.8992856 0.1262901
vt 0.9380112 0.1272247
vt 0.967914 0.0971446
vt 0.9719087 0.06140688
vt 0.9516667 0.03467643
vt 0.9185808 0.02475959
vt 0.8857301 0.03421724
vt 0.8513152 0.1057008
vt 0.848888 0.05589334
vt 0.8908984 0.1456447
vt 0.9479159 0.1488329
vt 0.9877196 0.1067271
vt 0.9894162 0.05666177
vt 0.9618472 0.02044815
vt 0.9187684 0.007269382
vt 0.8759233 0.02013117
vt 0.8207299 0.980746
vt 0.8207299 0.980746
vt 0.8207299 0.980746
vt 0.8207299 0.9807461
vt 0.8207299 0.9807461
vt 0.8207299 0.9807461
vt 0.8207299 0.9807461
vt 0.8207299 0.9807461
vt 0.8207299 0.9807461
vt 0.5152299 0.9531401
vt 0.7971376 0.8296679
vt 0.2196941 0.8688059
vt 0.04698944 0.6188601
vt 0.07278627 0.3108577
vt 0.2880198 0.08914348
vt 0.6031279 0.05230978
vt 0.8686233 0.2486134
vt 0.9368286 0.5538187
vt 0.7610317 0.9807461
vt 0.7610317 0.9807461
vt 0.7610317 0.9807461
vt 0.7610317 0.9807461
vt 0.7610317 0.9807461
vt 0.7610317 0.980746
vt 0.7610317 0.980746
vt 0.7610317 0.980746
vt 0.7610317 0.9807461
vt 0.9017627 0.5495318
vt 0.7733077 0.8037809
vt 0.5137725 0.9175924
vt 0.2415714 0.8400522
vt 0.08165318 0.6070591
vt 0.1061355 0.3255121
vt 0.3048182 0.1209247
vt 0.5960482 0.08979011
vt 0.8389112 0.2679332
vt 0.84755 0.5429013
vt 0.7364357 0.7638739
vt 0.5111505 0.8629416
vt 0.2746281 0.7957641
vt 0.1355166 0.5933421
vt 0.1570287 0.3484346
vt 0.3304765 0.1711642
vt 0.5826437 0.1458503
vt 0.791826 0.2988238
vt 0.6505198 0.6704162
vt 0.4293276 0.7134479
vt 0.2635846 0.5610423
vt 0.3337609 0.3462372
vt 0.5516478 0.2759395
vt 0.7032066 0.4499428
vt 0.4930339 0.5033208
vt 0.3374001 0.02096441
vt 0.8207299 0.9807461
vt 0.7610317 0.9807461
vt 0.8207299 0.9807461
vt 0.7610317 0.9807461
vt 0.8207299 0.9807461
vt 0.7610317 0.9807461
vt 0.8207299 0.9807462
vt 0.7610317 0.980746
vt 0.8207299 0.980746
vt 0.7610317 0.980746
vt 0.8207299 0.980746
vt 0.7610317 0.980746
vt 0.8207299 0.980746
vt 0.7610317 0.980746
vt 0.8207299 0.9807461
vt 0.7610317 0.9807461
vt 0.8207299 0.9807461
vt 0.7610317 0.9807461
vt 0.8207299 0.980746
vt 0.7488925 0.1569394
vt 0.4178239 0.07329056
vt 0.183715 0.1985553
vt 0.05934152 0.4640383
vt 0.1294214 0.737132
vt 0.3665855 0.9105576
vt 0.664097 0.9025227
vt 0.8962179 0.3730634
vt 0.8752924 0.6740275
vt 0.7610317 0.9807462
vt 0.8207299 0.9807462
vt 0.7610317 0.980746
vt 0.8207299 0.9807461
vt 0.9447708 0.9559089
vt 0.9791744 0.9498426
vt 0.967226 0.9429443
vt 0.9447708 0.9697056
vt 0.9838929 0.9628073
vt 0.967226 0.9826701
vt 0.9791744 0.9757719
vt 0.953639 0.9802743
vt 0.953639 0.9453401
vt 0.7779713 0.09338951
vt 0.5040219 0.01218119
vt 0.6171042 0.006220222
vt 0.03142005 0.3076275
vt 0.01377574 0.3918397
vt 0.1242525 0.8349584
vt 0.009808928 0.6273602
vt 0.3865189 0.9876108
vt 0.2003505 0.9025222
vt 0.6567838 0.9628017
vt 0.5240598 0.981289
vt 0.8300216 0.8604591
vt 0.9251369 0.7284726
vt 0.9732791 0.3920034
vt 0.9838754 0.5598767
vt 0.2725972 0.04841611
vt 0.22053 0.08528087
vt 0.7610317 0.9807461
vt 0.003455967 0.5165455
vt 0.9107577 0.2249665
vt 0.1128123 0.1797451
vt 0.5040219 0.01218119
vt 0.7610317 0.980746
vt 0.8207299 0.9807461
vn 0.4231957 -0.833642 -0.3548892
vn 0.09574749 -0.8351972 -0.5415515
vn -0.3601068 -0.6932186 -0.6243163
vn -0.5126114 -0.8380833 -0.1866706
vn -0.5126115 -0.8380833 0.1866706
vn -0.2734455 -0.8369491 0.4740716
vn 0.1260612 -0.6897309 0.7130077
vn 0.5570569 -0.6866321 0.4671447
vn 0.5532368 -0.833024 0
vn 0.1623954 -0.3604971 -0.9185148
vn 0.7163718 -0.3548479 -0.6007448
vn -0.4648032 -0.3668773 -0.8058282
vn -0.8725712 -0.3710163 -0.3177522
vn -0.8725713 -0.371016 0.3177521
vn -0.4648034 -0.3668768 0.8058283
vn 0.1623953 -0.3604969 0.918515
vn 0.7163717 -0.3548477 0.6007451
vn 0.9357715 -0.3526068 1.574174E-07
vn 0.751396 -0.08379481 -0.6545094
vn 0.1910503 -0.001993397 -0.9815782
vn -0.4424958 -0.2455336 -0.8625026
vn -0.8757101 -0.2892126 -0.3866364
vn -0.913963 -0.2851313 0.2887419
vn -0.4999559 -0.2462829 0.8302945
vn 0.1439525 -0.1572738 0.977007
vn 0.751511 -0.07877871 0.6550002
vn 0.9986817 -0.05102957 -0.005538128
vn 0.03955131 0.9666958 -0.2528538
vn 0.08619031 0.9958217 -0.03017123
vn -0.07025407 0.9954866 -0.06380348
vn -0.11099 0.9938155 0.003443517
vn -0.1638693 0.9811723 0.1022144
vn -0.1705369 0.9608012 0.2185824
vn 0.05031631 0.9770135 0.2071543
vn -0.009010147 0.9999582 -0.001575883
vn 0.08777535 0.9953802 0.03890751
vn 0.617792 0.5662054 0.5456597
vn 0.1467093 0.4862463 0.8614179
vn -0.5116089 0.3680467 0.7764006
vn -0.8709658 0.3574071 0.3371629
vn -0.8243962 0.4619914 -0.3270091
vn -0.3988672 0.4889407 -0.7757847
vn 0.1539175 0.5257715 -0.8365846
vn 0.6199881 0.566705 -0.5426419
vn 0.8120312 0.5836108 -0.001967721
vn 0.2165536 0.9761807 0.01325495
vn 0.1723378 0.9768827 -0.126491
vn 0.06236607 0.9460452 -0.3179766
vn -0.1019376 0.9834003 -0.1501087
vn -0.1684937 0.984961 -0.03823105
vn -0.1042451 0.9935337 0.04498433
vn -0.1146933 0.9778087 0.1753155
vn 0.0645311 0.9395685 0.3362244
vn 0.1017782 0.9912373 0.08420174
vn 0.5497363 0.8351898 0.01574699
vn 0.4028937 0.8510559 -0.3367202
vn 0.07984824 0.8411791 -0.5348289
vn -0.2532531 0.8451284 -0.4707665
vn -0.4778669 0.8609287 -0.1744851
vn -0.4924451 0.8481051 0.1954875
vn -0.2790223 0.8456011 0.4550883
vn 0.09170955 0.8545765 0.5111637
vn 0.429955 0.8366389 0.3393733
vn 0.1680466 0.9757957 -0.1399397
vn -0.04239223 0.9679321 -0.247609
vn -0.1981293 0.9774875 -0.07254698
vn -0.189373 0.9687909 0.1599438
vn 0.03870889 0.9763995 0.2124748
vn 0.2422724 0.9662365 0.08769886
vn 0.001279342 0.9999992 1.936261E-06
vn -0.1471663 0.5995299 0.7867059
vn -0.1925726 -0.202748 0.9601089
vn -0.6492485 0.4853783 0.5855632
vn -0.6510025 -0.2434875 0.7189642
vn -0.7928528 0.60564 0.06771044
vn -0.9516791 -0.2879699 0.1066778
vn -0.8972816 0.4400661 -0.03503399
vn -0.9519127 -0.2958398 -0.07963002
vn -0.5829625 0.6324 -0.5101225
vn -0.6919742 -0.2735193 -0.6681008
vn -0.115544 0.6091444 -0.7845972
vn -0.126 -0.1149829 -0.985344
vn 0.3651721 0.6448252 -0.6714534
vn 0.460026 -0.04097447 -0.8869594
vn 0.6690373 0.7073456 -0.2281476
vn 0.9359109 -0.0562503 -0.3477162
vn 0.680223 0.6852195 0.2603287
vn 0.9389634 -0.05574674 0.3394702
vn 0.3945671 0.6382206 0.6610532
vn 0.4879587 -0.1124732 0.86559
vn 0.03974484 0.9946794 0.0950437
vn 0.01222512 0.9959171 0.08944055
vn -0.1515604 0.9793525 0.1337838
vn -0.037883 0.9989179 -0.02697628
vn -0.02935457 0.998998 -0.03378426
vn -0.002646795 0.9945509 -0.1042188
vn 0.03434363 0.9934067 -0.1093785
vn 0.0674962 0.997699 0.006398884
vn 0.03797536 0.9988356 -0.02975331
vn -0.7220157 0.3760596 0.5807517
vn -0.7778674 -0.24969 0.5766952
vn -0.1080828 0.4509169 0.8859977
vn -0.09618983 -0.1847444 0.9780681
vn -0.5126114 -0.8380833 -0.1866706
vn 0.4231957 -0.833642 -0.3548892
vn 0.09574749 -0.8351972 -0.5415515
vn -0.5126115 -0.8380833 0.1866706
vn 0.5532368 -0.833024 0
vn 0.1260612 -0.6897309 0.7130077
vn 0.5570569 -0.6866321 0.4671447
vn -0.2734455 -0.8369491 0.4740716
vn -0.3601068 -0.6932186 -0.6243163
vn 0.3945671 0.6382206 0.6610532
vn -0.1080828 0.4509169 0.8859977
vn 0.1467093 0.4862463 0.8614179
vn -0.8709658 0.3574071 0.3371629
vn -0.7928528 0.60564 0.06771044
vn -0.5829625 0.6324 -0.5101225
vn -0.8243962 0.4619914 -0.3270091
vn -0.115544 0.6091444 -0.7845972
vn -0.3988672 0.4889407 -0.7757847
vn 0.3651721 0.6448252 -0.6714534
vn 0.1539175 0.5257715 -0.8365846
vn 0.6199881 0.566705 -0.5426419
vn 0.6690373 0.7073456 -0.2281476
vn 0.680223 0.6852195 0.2603287
vn 0.8120312 0.5836108 -0.001967721
vn -0.5116089 0.3680467 0.7764006
vn -0.6492485 0.4853783 0.5855632
vn -0.1471663 0.5995299 0.7867059
vn -0.8972816 0.4400661 -0.03503399
vn 0.617792 0.5662054 0.5456597
vn -0.7220157 0.3760596 0.5807517
vn -0.1001173 0.520271 0.8481125
vn -0.1001173 0.520271 0.8481125
vn -0.02593345 -0.1702736 0.9850556
g hotPie_geo_0
f 108/108/108 111/111/111 107/107/107
f 109/109/109 111/111/111 108/108/108
f 110/110/110 109/109/109 108/108/108
f 105/105/105 108/108/108 107/107/107
f 104/104/104 105/105/105 107/107/107
f 106/106/106 105/105/105 104/104/104
f 112/112/112 106/106/106 104/104/104
f 45/45/45 27/27/27 86/86/86
f 88/88/88 27/27/27 45/45/45
f 87/87/87 88/88/88 45/45/45
f 26/26/26 88/88/88 87/87/87
f 37/37/37 26/26/26 87/87/87
f 90/90/90 26/26/26 37/37/37
f 89/89/89 90/90/90 37/37/37
f 25/25/25 90/90/90 89/89/89
f 38/38/38 25/25/25 89/89/89
f 103/103/103 25/25/25 38/38/38
f 102/102/102 103/103/103 38/38/38
f 28/28/28 123/123/123 120/120/120
f 122/122/122 123/123/123 28/28/28
f 97/97/97 122/122/122 28/28/28
f 124/124/124 122/122/122 97/97/97
f 29/29/29 124/124/124 97/97/97
f 125/125/125 124/124/124 29/29/29
f 99/99/99 125/125/125 29/29/29
f 36/36/36 125/125/125 99/99/99
f 46/46/46 36/36/36 99/99/99
f 98/98/98 36/36/36 46/46/46
f 54/54/54 98/98/98 46/46/46
f 35/35/35 98/98/98 54/54/54
f 91/91/91 35/35/35 54/54/54
f 113/113/113 35/35/35 91/91/91
f 34/34/34 113/113/113 91/91/91
f 115/115/115 113/113/113 34/34/34
f 114/114/114 115/115/115 34/34/34
f 34/34/34 71/71/71 134/134/134
f 92/92/92 71/71/71 34/34/34
f 53/53/53 92/92/92 34/34/34
f 52/52/52 92/92/92 53/53/53
f 62/62/62 52/52/52 53/53/53
f 61/61/61 52/52/52 62/62/62
f 68/68/68 61/61/61 62/62/62
f 67/67/67 61/61/61 68/68/68
f 70/70/70 67/67/67 68/68/68
f 66/66/66 67/67/67 70/70/70
f 65/65/65 66/66/66 70/70/70
f 58/58/58 66/66/66 65/65/65
f 57/57/57 58/58/58 65/65/65
f 48/48/48 58/58/58 57/57/57
f 47/47/47 48/48/48 57/57/57
f 97/97/97 48/48/48 47/47/47
f 29/29/29 97/97/97 47/47/47
f 23/23/23 40/40/40 75/75/75
f 100/100/100 40/40/40 23/23/23
f 101/101/101 100/100/100 23/23/23
f 73/73/73 100/100/100 101/101/101
f 74/74/74 73/73/73 101/101/101
f 39/39/39 73/73/73 74/74/74
f 24/24/24 39/39/39 74/74/74
f 130/130/130 39/39/39 24/24/24
f 72/72/72 130/130/130 24/24/24
f 135/135/135 130/130/130 72/72/72
f 136/136/136 135/135/135 72/72/72
f 11/11/11 1/1/1 10/10/10
f 9/9/9 1/1/1 11/11/11
f 18/18/18 9/9/9 11/11/11
f 8/8/8 9/9/9 18/18/18
f 17/17/17 8/8/8 18/18/18
f 7/7/7 8/8/8 17/17/17
f 16/16/16 7/7/7 17/17/17
f 6/6/6 7/7/7 16/16/16
f 15/15/15 6/6/6 16/16/16
f 5/5/5 6/6/6 15/15/15
f 14/14/14 5/5/5 15/15/15
f 4/4/4 5/5/5 14/14/14
f 13/13/13 4/4/4 14/14/14
f 3/3/3 4/4/4 13/13/13
f 12/12/12 3/3/3 13/13/13
f 2/2/2 3/3/3 12/12/12
f 10/10/10 2/2/2 12/12/12
f 1/1/1 2/2/2 10/10/10
f 41/41/41 22/22/22 78/78/78
f 80/80/80 22/22/22 41/41/41
f 79/79/79 80/80/80 41/41/41
f 21/21/21 80/80/80 79/79/79
f 42/42/42 21/21/21 79/79/79
f 82/82/82 21/21/21 42/42/42
f 81/81/81 82/82/82 42/42/42
f 20/20/20 82/82/82 81/81/81
f 43/43/43 20/20/20 81/81/81
f 84/84/84 20/20/20 43/43/43
f 83/83/83 84/84/84 43/43/43
f 19/19/19 84/84/84 83/83/83
f 44/44/44 19/19/19 83/83/83
f 85/85/85 19/19/19 44/44/44
f 86/86/86 85/85/85 45/45/45
f 19/19/19 85/85/85 86/86/86
f 77/77/77 41/41/41 78/78/78
f 76/76/76 77/77/77 78/78/78
f 75/75/75 77/77/77 76/76/76
f 23/23/23 75/75/75 76/76/76
f 32/32/32 116/116/116 133/133/133
f 117/117/117 116/116/116 32/32/32
f 94/94/94 117/117/117 32/32/32
f 31/31/31 117/117/117 94/94/94
f 50/50/50 31/31/31 94/94/94
f 95/95/95 31/31/31 50/50/50
f 30/30/30 95/95/95 50/50/50
f 118/118/118 95/95/95 30/30/30
f 121/121/121 118/118/118 30/30/30
f 31/31/31 119/119/119 131/131/131
f 118/118/118 119/119/119 31/31/31
f 95/95/95 118/118/118 31/31/31
f 49/49/49 58/58/58 48/48/48
f 28/28/28 49/49/49 48/48/48
f 96/96/96 49/49/49 28/28/28
f 120/120/120 96/96/96 28/28/28
f 30/30/30 96/96/96 120/120/120
f 121/121/121 30/30/30 120/120/120
f 36/36/36 127/127/127 125/125/125
f 126/126/126 127/127/127 36/36/36
f 98/98/98 126/126/126 36/36/36
f 132/132/132 126/126/126 98/98/98
f 35/35/35 132/132/132 98/98/98
f 113/113/113 132/132/132 35/35/35
f 59/59/59 66/66/66 58/58/58
f 67/67/67 66/66/66 59/59/59
f 60/60/60 67/67/67 59/59/59
f 61/61/61 67/67/67 60/60/60
f 51/51/51 61/61/61 60/60/60
f 52/52/52 61/61/61 51/51/51
f 93/93/93 52/52/52 51/51/51
f 33/33/33 52/52/52 93/93/93
f 129/129/129 33/33/33 93/93/93
f 128/128/128 33/33/33 129/129/129
f 33/33/33 92/92/92 52/52/52
f 71/71/71 92/92/92 33/33/33
f 128/128/128 71/71/71 33/33/33
f 32/32/32 93/93/93 51/51/51
f 129/129/129 93/93/93 32/32/32
f 133/133/133 129/129/129 32/32/32
f 117/117/117 31/31/31 131/131/131
f 46/46/46 99/99/99 29/29/29
f 47/47/47 46/46/46 29/29/29
f 55/55/55 46/46/46 47/47/47
f 56/56/56 55/55/55 47/47/47
f 69/69/69 55/55/55 56/56/56
f 64/64/64 69/69/69 56/56/56
f 70/70/70 69/69/69 64/64/64
f 65/65/65 70/70/70 64/64/64
f 48/48/48 97/97/97 28/28/28
f 59/59/59 51/51/51 60/60/60
f 50/50/50 51/51/51 59/59/59
f 49/49/49 50/50/50 59/59/59
f 30/30/30 50/50/50 49/49/49
f 96/96/96 30/30/30 49/49/49
f 51/51/51 94/94/94 32/32/32
f 50/50/50 94/94/94 51/51/51
f 54/54/54 34/34/34 91/91/91
f 53/53/53 34/34/34 54/54/54
f 63/63/63 53/53/53 54/54/54
f 62/62/62 53/53/53 63/63/63
f 69/69/69 62/62/62 63/63/63
f 68/68/68 62/62/62 69/69/69
f 70/70/70 68/68/68 69/69/69
f 56/56/56 65/65/65 64/64/64
f 57/57/57 65/65/65 56/56/56
f 47/47/47 57/57/57 56/56/56
f 58/58/58 49/49/49 59/59/59
f 55/55/55 54/54/54 46/46/46
f 63/63/63 54/54/54 55/55/55
f 69/69/69 63/63/63 55/55/55
