g iPhone_geo
v -0.06760883 0 0.1115508
v 0.06760906 0 0.1115508
v -0.06760883 0.02088375 0.1115508
v 0.06760906 0.02088375 0.1115508
v -0.06760883 0.02088375 -0.1115508
v 0.06760906 0.02088375 -0.1115508
v -0.06760883 0 -0.1115508
v 0.06760906 0 -0.1115508
v -0.05665882 0.02088375 0.1008287
v 0.05665909 0.02088375 0.1008287
v 0.05665909 0.02088375 -0.1008287
v -0.05665882 0.02088375 -0.1008287
v -0.05665882 0.02088375 -0.07370548
v 0.05665909 0.02088375 -0.07370548
v -0.05665882 0.02088375 0.0737055
v 0.05665909 0.02088375 0.0737055
v -0.06760883 0.02088375 0.1115508
v 0.05665909 0.02088375 0.1008287
v 0.06760906 0.02088375 0.1115508
v -0.05665882 0.02088375 0.1008287
v 0.05665909 0.02088375 0.0737055
v 0.06760906 0.02088375 -0.1115508
v -0.06760883 0.02088375 -0.1115508
v -0.05665882 0.02088375 0.0737055
v -0.05665882 0.02088375 -0.07370548
v 0.05665909 0.02088375 -0.1008287
v 0.05665909 0.02088375 -0.07370548
v -0.05665882 0.02088375 -0.1008287
v -0.06760883 0 -0.1115508
v -0.06760883 0.02088375 0.1115508
v -0.06760883 0 0.1115508
v -0.06760883 0.02088375 -0.1115508
v -0.06760883 0 -0.1115508
v 0.06760906 0 0.1115508
v 0.06760906 0 -0.1115508
v -0.06760883 0 0.1115508
v 0.06760906 0.02088375 0.1115508
v 0.06760906 0 -0.1115508
v 0.06760906 0 0.1115508
v 0.06760906 0.02088375 -0.1115508
v -0.05665882 0.02088375 0.0737055
v 0.05665909 0.02088375 -0.07370548
v 0.05665909 0.02088375 0.0737055
v -0.05665882 0.02088375 -0.07370548
vt 0.5067342 0.05011064
vt 0.5067342 0.05011064
vt 0.5067342 0.05011064
vt 0.5067342 0.05011064
vt 0.5067342 0.05011064
vt 0.5067342 0.05011064
vt 0.5067342 0.05011064
vt 0.5067342 0.05011064
vt 0.03798241 0.1091448
vt 0.9718377 0.1091448
vt 0.2922836 0.0461393
vt 0.2922836 0.0461393
vt 0.2922836 0.0461393
vt 0.2922836 0.0461393
vt 0.03798241 0.2209059
vt 0.9718377 0.2209059
vt 0.2922836 0.0461393
vt 0.2922836 0.0461393
vt 0.2922836 0.0461393
vt 0.2922836 0.0461393
vt 0.2922836 0.0461393
vt 0.2922836 0.0461393
vt 0.2922836 0.0461393
vt 0.2922836 0.0461393
vt 0.03798241 0.8779474
vt 0.9718377 0.9897087
vt 0.9718377 0.8779474
vt 0.03798241 0.9897087
vt 0.7132424 0.05408192
vt 0.7132424 0.05408192
vt 0.7132424 0.05408192
vt 0.7132424 0.05408192
vt 0.8988758 0.04795796
vt 0.8988758 0.04795796
vt 0.8988758 0.04795796
vt 0.8988758 0.04795796
vt 0.7132424 0.05408192
vt 0.7132426 0.05408192
vt 0.7132424 0.05408192
vt 0.7132426 0.05408192
vt 0.03798241 0.2469044
vt 0.9718377 0.8543124
vt 0.9718377 0.2469044
vt 0.03798241 0.8543124
vn -0.5773503 -0.5773503 0.5773502
vn 0.5773503 -0.5773503 0.5773502
vn -0.3015113 0.904534 0.3015113
vn 0.3015113 0.904534 0.3015113
vn -0.3015113 0.904534 -0.3015113
vn 0.3015113 0.904534 -0.3015113
vn -0.5773503 -0.5773503 -0.5773502
vn 0.5773503 -0.5773503 -0.5773502
vn 0 1 0
vn 0 1 0
vn 0 1 0
vn 0 1 0
vn 0 1 0
vn 0 1 0
vn 0 1 0
vn 0 1 0
vn -0.3015113 0.904534 0.3015113
vn 0 1 0
vn 0.3015113 0.904534 0.3015113
vn 0 1 0
vn 0 1 0
vn 0.3015113 0.904534 -0.3015113
vn -0.3015113 0.904534 -0.3015113
vn 0 1 0
vn 0 1 0
vn 0 1 0
vn 0 1 0
vn 0 1 0
vn -0.5773503 -0.5773503 -0.5773502
vn -0.3015113 0.904534 0.3015113
vn -0.5773503 -0.5773503 0.5773502
vn -0.3015113 0.904534 -0.3015113
vn -0.5773503 -0.5773503 -0.5773502
vn 0.5773503 -0.5773503 0.5773502
vn 0.5773503 -0.5773503 -0.5773502
vn -0.5773503 -0.5773503 0.5773502
vn 0.3015113 0.904534 0.3015113
vn 0.5773503 -0.5773503 -0.5773502
vn 0.5773503 -0.5773503 0.5773502
vn 0.3015113 0.904534 -0.3015113
vn 0 1 0
vn 0 1 0
vn 0 1 0
vn 0 1 0
g iPhone_geo_0
f 4/4/4 1/1/1 2/2/2
f 3/3/3 1/1/1 4/4/4
f 16/16/16 9/9/9 10/10/10
f 15/15/15 9/9/9 16/16/16
f 8/8/8 5/5/5 6/6/6
f 7/7/7 5/5/5 8/8/8
f 26/26/26 25/25/25 27/27/27
f 28/28/28 25/25/25 26/26/26
f 30/30/30 29/29/29 31/31/31
f 32/32/32 29/29/29 30/30/30
f 34/34/34 33/33/33 35/35/35
f 36/36/36 33/33/33 34/34/34
f 38/38/38 37/37/37 39/39/39
f 40/40/40 37/37/37 38/38/38
f 42/42/42 41/41/41 43/43/43
f 44/44/44 41/41/41 42/42/42
f 17/17/17 20/20/20 24/24/24
f 18/18/18 20/20/20 17/17/17
f 19/19/19 18/18/18 17/17/17
f 21/21/21 18/18/18 19/19/19
f 22/22/22 21/21/21 19/19/19
f 14/14/14 21/21/21 22/22/22
f 11/11/11 14/14/14 22/22/22
f 12/12/12 11/11/11 22/22/22
f 23/23/23 12/12/12 22/22/22
f 13/13/13 12/12/12 23/23/23
f 24/24/24 13/13/13 23/23/23
f 24/24/24 23/23/23 17/17/17
