g jewelBox_geo
v 0.01108948 0.3081329 0.2344211
v -0.0110907 0.3081329 0.2344211
v -0.02218048 0.2889245 0.2344211
v -0.0110907 0.2697162 0.2344211
v 0.01108948 0.2697162 0.2344211
v 0.02217926 0.2889245 0.2344211
v -6.103515E-07 0.2889245 0.2344211
v -0.0110907 0.2405952 0.2344211
v 0.01108948 0.2405952 0.2344211
v -0.05531189 0.2208746 0.2289718
v 0.05531189 0.2208746 0.2289718
v -0.05531189 0.3314987 0.2289718
v 0.05531189 0.3314987 0.2289718
v -0.05531189 0.3314987 0.1974987
v 0.05531189 0.3314987 0.1974987
v -0.05531189 0.2208746 0.1974987
v 0.05531189 0.2208746 0.1974987
v -0.2851007 1.192093E-09 0.1816158
v 0.2851007 1.192093E-09 0.1816158
v -0.2851007 0.3156394 0.1816158
v 0.2851007 0.3156394 0.1816158
v -0.2851007 0.3156394 -0.1816158
v 0.2851007 0.3156394 -0.1816158
v -0.2851007 1.192093E-09 -0.1816158
v 0.2851007 1.192093E-09 -0.1816158
v 0.2851007 0.414923 -0.08855733
v -0.2851007 0.414923 -0.08855733
v 0.2851007 0.414923 0.08855734
v -0.2851007 0.414923 0.08855734
v 0.2851007 0.4366083 6.928091E-09
v -0.2851007 0.4366083 6.928091E-09
v -0.2851007 0.2365329 0.1816158
v -0.2851007 0.2365329 -0.1816158
v 0.2851007 0.2365329 -0.1816158
v 0.2851007 0.2365329 0.1816158
v -0.05531189 0.2208746 0.1974987
v 0.05531189 0.2208746 0.2289718
v 0.05531189 0.2208746 0.1974987
v -0.05531189 0.2208746 0.2289718
v 0.05531189 0.2208746 0.2289718
v 0.05531189 0.3314987 0.1974987
v 0.05531189 0.2208746 0.1974987
v 0.05531189 0.3314987 0.2289718
v -0.05531189 0.2208746 0.1974987
v -0.05531189 0.3314987 0.2289718
v -0.05531189 0.2208746 0.2289718
v -0.05531189 0.3314987 0.1974987
v 0.2851007 1.192093E-09 -0.1816158
v -0.2851007 1.192093E-09 0.1816158
v 0.2851007 1.192093E-09 0.1816158
v -0.2851007 1.192093E-09 -0.1816158
v 0.2851007 0.414923 0.08855734
v -0.2851007 1.192093E-09 -0.1816158
v -0.2851007 0.2365329 0.1816158
v -0.2851007 1.192093E-09 0.1816158
v -0.2851007 0.2365329 -0.1816158
v 0.2851007 0.414923 -0.08855733
v 0.2851007 0.4366083 6.928091E-09
v 0.2851007 0.2365329 -0.1816158
v 0.2851007 1.192093E-09 0.1816158
v 0.2851007 0.2365329 0.1816158
v 0.2851007 1.192093E-09 -0.1816158
v -0.2851007 0.3156394 -0.1816158
v -0.2851007 0.414923 0.08855734
v -0.2851007 0.3156394 0.1816158
v -0.2851007 0.414923 -0.08855733
v 0.2851007 0.3156394 -0.1816158
v 0.2851007 0.3156394 0.1816158
v -0.2851007 0.4366083 6.928091E-09
v -0.2851007 0.2365329 -0.1816158
v -0.2851007 0.3156394 0.1816158
v -0.2851007 0.2365329 0.1816158
v -0.2851007 0.3156394 -0.1816158
v -0.2851007 0.3156394 -0.1816158
v 0.2851007 0.2365329 -0.1816158
v 0.2851007 0.3156394 -0.1816158
v -0.2851007 0.2365329 -0.1816158
v 0.2851007 0.3156394 -0.1816158
v 0.2851007 0.2365329 0.1816158
v 0.2851007 0.3156394 0.1816158
v 0.2851007 0.2365329 -0.1816158
v -0.2851007 0.2365329 0.1816158
v 0.2851007 0.3156394 0.1816158
v 0.2851007 0.2365329 0.1816158
v -0.2851007 0.3156394 0.1816158
vt 0 1
vt 0 1
vt 0 1
vt 0 1
vt 0 1
vt 0 1
vt 0 1
vt 0 1
vt 0 1
vt 0.5680283 0.9942026
vt 0.5680283 0.9942026
vt 0.5680283 0.9942026
vt 0.5680283 0.9942026
vt 0.5680283 0.9942026
vt 0.5680283 0.9942026
vt 0.5680283 0.9942026
vt 0.5680283 0.9942026
vt 0.9549028 0.6453507
vt 0.9549028 0.6453507
vt 0.9549028 0.6453507
vt 0.9549028 0.6453507
vt 0.9549028 0.6453507
vt 0.9549028 0.6453507
vt 0.9549028 0.6453507
vt 0.9549028 0.6453507
vt 0.9431111 0.6177245
vt 0.9431111 0.6453507
vt 0.9431111 0.6453507
vt 0.9431111 0.6453507
vt 0.9431111 0.6177245
vt 0.9431111 0.6453507
vt 0.9549028 0.6453507
vt 0.9549028 0.6453507
vt 0.9549028 0.6453507
vt 0.9549028 0.6453507
vt 0.5680283 0.9247692
vt 0.5680283 0.9247692
vt 0.5680283 0.9247692
vt 0.5680283 0.9247692
vt 0.5680283 0.950213
vt 0.5680283 0.950213
vt 0.5680283 0.950213
vt 0.5680283 0.950213
vt 0.5680283 0.950213
vt 0.5680283 0.950213
vt 0.5680283 0.950213
vt 0.5680283 0.950213
vt 0.9549028 0.6080651
vt 0.9549028 0.6080651
vt 0.9549028 0.6080651
vt 0.9549028 0.6080651
vt 0.9431111 0.6177245
vt 0.9549028 0.6177245
vt 0.9549028 0.6177245
vt 0.9549028 0.6177245
vt 0.9549028 0.6177245
vt 0.9431111 0.6453507
vt 0.9431111 0.6453507
vt 0.9549028 0.6177245
vt 0.9549028 0.6177245
vt 0.9549028 0.6177245
vt 0.9549028 0.6177245
vt 0.9549028 0.6177245
vt 0.9431111 0.6177245
vt 0.9549028 0.6177245
vt 0.9431111 0.6177245
vt 0.9549028 0.6177245
vt 0.9549028 0.6177245
vt 0.9431111 0.6177245
vt 0.5680283 0.950213
vt 0.5680283 0.950213
vt 0.5680283 0.950213
vt 0.5680283 0.950213
vt 0.5680283 0.9942026
vt 0.5680283 0.9942026
vt 0.5680283 0.9942026
vt 0.5680283 0.9942026
vt 0.5680283 0.950213
vt 0.5680283 0.950213
vt 0.5680283 0.950213
vt 0.5680283 0.950213
vt 0.5680283 0.9942026
vt 0.5680283 0.9942026
vt 0.5680283 0.9942026
vt 0.5680283 0.9942026
vn 0 0 1
vn 0 0 1
vn 0 0 1
vn 0 0 1
vn 0 0 1
vn 0 0 1
vn 0 0 1
vn 0 0 1
vn 0 0 1
vn -0.5773503 -0.5773503 0.5773503
vn 0.5773503 -0.5773503 0.5773503
vn -0.5773503 0.5773503 0.5773503
vn 0.5773503 0.5773503 0.5773503
vn -0.5773503 0.5773503 -0.5773503
vn 0.5773503 0.5773503 -0.5773503
vn -0.5773503 -0.5773503 -0.5773503
vn 0.5773503 -0.5773503 -0.5773503
vn -0.5773502 -0.5773503 0.5773503
vn 0.5773502 -0.5773503 0.5773503
vn -0.7322903 0.2503931 0.6332885
vn 0.7322903 0.2503931 0.6332885
vn -0.7322903 0.2503931 -0.6332885
vn 0.7322903 0.2503931 -0.6332885
vn -0.5773502 -0.5773503 -0.5773503
vn 0.5773502 -0.5773503 -0.5773503
vn 0.7218969 0.5974301 -0.3492019
vn -0.7218969 0.5974301 -0.3492019
vn 0.7218969 0.5974301 0.3492019
vn -0.7218969 0.5974301 0.3492019
vn 0.4576899 0.8891119 0
vn -0.45769 0.8891119 0
vn -0.7071068 0 0.7071068
vn -0.7071068 0 -0.7071068
vn 0.7071068 0 -0.7071068
vn 0.7071068 0 0.7071068
vn -0.5773503 -0.5773503 -0.5773503
vn 0.5773503 -0.5773503 0.5773503
vn 0.5773503 -0.5773503 -0.5773503
vn -0.5773503 -0.5773503 0.5773503
vn 0.5773503 -0.5773503 0.5773503
vn 0.5773503 0.5773503 -0.5773503
vn 0.5773503 -0.5773503 -0.5773503
vn 0.5773503 0.5773503 0.5773503
vn -0.5773503 -0.5773503 -0.5773503
vn -0.5773503 0.5773503 0.5773503
vn -0.5773503 -0.5773503 0.5773503
vn -0.5773503 0.5773503 -0.5773503
vn 0.5773502 -0.5773503 -0.5773503
vn -0.5773502 -0.5773503 0.5773503
vn 0.5773502 -0.5773503 0.5773503
vn -0.5773502 -0.5773503 -0.5773503
vn 0.7218969 0.5974301 0.3492019
vn -0.5773502 -0.5773503 -0.5773503
vn -0.7071068 0 0.7071068
vn -0.5773502 -0.5773503 0.5773503
vn -0.7071068 0 -0.7071068
vn 0.7218969 0.5974301 -0.3492019
vn 0.4576899 0.8891119 0
vn 0.7071068 0 -0.7071068
vn 0.5773502 -0.5773503 0.5773503
vn 0.7071068 0 0.7071068
vn 0.5773502 -0.5773503 -0.5773503
vn -0.7322903 0.2503931 -0.6332885
vn -0.7218969 0.5974301 0.3492019
vn -0.7322903 0.2503931 0.6332885
vn -0.7218969 0.5974301 -0.3492019
vn 0.7322903 0.2503931 -0.6332885
vn 0.7322903 0.2503931 0.6332885
vn -0.45769 0.8891119 0
vn -0.7071068 0 -0.7071068
vn -0.7322903 0.2503931 0.6332885
vn -0.7071068 0 0.7071068
vn -0.7322903 0.2503931 -0.6332885
vn -0.7322903 0.2503931 -0.6332885
vn 0.7071068 0 -0.7071068
vn 0.7322903 0.2503931 -0.6332885
vn -0.7071068 0 -0.7071068
vn 0.7322903 0.2503931 -0.6332885
vn 0.7071068 0 0.7071068
vn 0.7322903 0.2503931 0.6332885
vn 0.7071068 0 -0.7071068
vn -0.7071068 0 0.7071068
vn 0.7322903 0.2503931 0.6332885
vn 0.7071068 0 0.7071068
vn -0.7322903 0.2503931 0.6332885
g jewelBox_geo_0
f 5/5/5 8/8/8 9/9/9
f 4/4/4 8/8/8 5/5/5
f 7/7/7 4/4/4 5/5/5
f 3/3/3 4/4/4 7/7/7
f 2/2/2 3/3/3 7/7/7
f 14/14/14 17/17/17 16/16/16
f 15/15/15 17/17/17 14/14/14
f 12/12/12 15/15/15 14/14/14
f 13/13/13 15/15/15 12/12/12
f 10/10/10 13/13/13 12/12/12
f 11/11/11 13/13/13 10/10/10
f 37/37/37 36/36/36 38/38/38
f 39/39/39 36/36/36 37/37/37
f 41/41/41 40/40/40 42/42/42
f 43/43/43 40/40/40 41/41/41
f 45/45/45 44/44/44 46/46/46
f 47/47/47 44/44/44 45/45/45
f 35/35/35 18/18/18 19/19/19
f 32/32/32 18/18/18 35/35/35
f 27/27/27 23/23/23 22/22/22
f 57/57/57 23/23/23 27/27/27
f 31/31/31 57/57/57 27/27/27
f 58/58/58 57/57/57 31/31/31
f 29/29/29 58/58/58 31/31/31
f 28/28/28 58/58/58 29/29/29
f 20/20/20 28/28/28 29/29/29
f 21/21/21 28/28/28 20/20/20
f 25/25/25 33/33/33 34/34/34
f 24/24/24 33/33/33 25/25/25
f 49/49/49 48/48/48 50/50/50
f 51/51/51 48/48/48 49/49/49
f 52/52/52 26/26/26 30/30/30
f 67/67/67 26/26/26 52/52/52
f 68/68/68 67/67/67 52/52/52
f 54/54/54 53/53/53 55/55/55
f 56/56/56 53/53/53 54/54/54
f 60/60/60 59/59/59 61/61/61
f 62/62/62 59/59/59 60/60/60
f 64/64/64 63/63/63 65/65/65
f 66/66/66 63/63/63 64/64/64
f 69/69/69 66/66/66 64/64/64
f 71/71/71 70/70/70 72/72/72
f 73/73/73 70/70/70 71/71/71
f 75/75/75 74/74/74 76/76/76
f 77/77/77 74/74/74 75/75/75
f 79/79/79 78/78/78 80/80/80
f 81/81/81 78/78/78 79/79/79
f 83/83/83 82/82/82 84/84/84
f 85/85/85 82/82/82 83/83/83
f 7/7/7 1/1/1 2/2/2
f 6/6/6 1/1/1 7/7/7
f 5/5/5 6/6/6 7/7/7
