g katana_geo
v 0.02389836 0.0702216 -0.05363039
v 0.02689129 0.08139792 0.04488098
v 0.02385285 0.0563183 -0.05541707
v 0.02684578 0.06749456 0.0430942
v -0.01168314 0.07013004 -0.05138421
v -0.008690128 0.08130644 0.04712714
v -0.01172863 0.0562268 -0.05317094
v -0.008735635 0.06740308 0.04534039
v 0.01495408 0.1111794 -0.03163521
v 0.0162227 0.1158575 0.01411462
v 0.01506818 0.06655359 -0.02770506
v 0.0163368 0.07131761 0.01750438
v 0.001654232 0.1111631 -0.03093843
v 0.002922856 0.1158412 0.01481141
v 0.001768309 0.06653729 -0.02700831
v 0.003036929 0.0713013 0.01820118
v 0.004577225 0.8188936 -0.09756251
v 0.008282634 0.8251077 -0.1292966
v 0.009773633 0.6063807 -0.08803017
v 0.0113341 0.4218781 -0.06200261
v 0.01221925 0.2444195 -0.04121353
v 0.01250614 0.1113485 -0.02885516
v 0.009522604 0.1157626 0.01312998
v 0.008910004 0.2500248 -0.0009268774
v 0.007794912 0.4289042 -0.02371323
v 0.006052307 0.6166322 -0.05354148
v -0.0006581368 0.8250906 -0.1288283
v 0.0008328866 0.6063637 -0.08756173
v 0.00239335 0.4218611 -0.06153415
v 0.003428649 0.2444025 -0.04075303
v 0.004301562 0.1113384 -0.02842533
v 0.01453698 0.0668948 -0.02110362
v 0.01602111 0.06908575 0.01235167
v 0.01475437 -0.0247339 -0.01981978
v 0.01623851 -0.02254295 0.01363559
v 0.01480371 -0.1810788 -0.02255437
v 0.01628783 -0.1788879 0.01090103
v -0.001022176 0.06687849 -0.02041154
v 0.0004619482 0.06906944 0.01304381
v -0.0008047996 -0.02475022 -0.01912763
v 0.0006793243 -0.02255927 0.01432769
v -0.0007555069 -0.1810951 -0.0218622
v 0.000728658 -0.1789042 0.01159314
v -0.008735635 0.06740308 0.04534039
v 0.02385285 0.0563183 -0.05541707
v -0.01172863 0.0562268 -0.05317094
v 0.02684578 0.06749456 0.0430942
v -0.01168314 0.07013004 -0.05138421
v 0.02689129 0.08139792 0.04488098
v -0.008690128 0.08130644 0.04712714
v 0.02389836 0.0702216 -0.05363039
v 0.0162227 0.1158575 0.01411462
v 0.001654232 0.1111631 -0.03093843
v 0.01495408 0.1111794 -0.03163521
v 0.002922856 0.1158412 0.01481141
v 0.009773633 0.6063807 -0.08803017
v 0.008282634 0.8251077 -0.1292966
v 0.0113341 0.4218781 -0.06200261
v 0.01221925 0.2444195 -0.04121353
v 0.01250614 0.1113485 -0.02885516
v 0.004301562 0.1113384 -0.02842533
v 0.003428649 0.2444025 -0.04075303
v 0.00239335 0.4218611 -0.06153415
v 0.0008328866 0.6063637 -0.08756173
v -0.0006581368 0.8250906 -0.1288283
v 0.01480371 -0.1810788 -0.02255437
v 0.000728658 -0.1789042 0.01159314
v 0.01628783 -0.1788879 0.01090103
v -0.0007555069 -0.1810951 -0.0218622
v 0.01602111 0.06908575 0.01235167
v 0.01506818 0.06655359 -0.02770506
v 0.01453698 0.0668948 -0.02110362
v 0.0163368 0.07131761 0.01750438
v 0.001768309 0.06653729 -0.02700831
v -0.001022176 0.06687849 -0.02041154
v 0.0004619482 0.06906944 0.01304381
v 0.003036929 0.0713013 0.01820118
vt 0.55 0.57625
vt 0.55 0.57625
vt 0.55 0.57625
vt 0.55 0.57625
vt 0.55 0.57625
vt 0.55 0.57625
vt 0.55 0.57625
vt 0.55 0.57625
vt 0.55 0.57625
vt 0.55 0.57625
vt 0.55 0.57625
vt 0.55 0.57625
vt 0.55 0.57625
vt 0.55 0.57625
vt 0.55 0.57625
vt 0.55 0.57625
vt 0.4775 0.9130387
vt 0.4775 0.9130387
vt 0.4775 0.9060894
vt 0.4775 0.8991402
vt 0.4775 0.8918254
vt 0.4775 0.8857904
vt 0.4775 0.8857904
vt 0.4775 0.8918254
vt 0.4775 0.8991401
vt 0.4775 0.9060894
vt 0.4768051 0.8751259
vt 0.4768051 0.8681766
vt 0.4768051 0.8612275
vt 0.4768051 0.8539127
vt 0.4768051 0.8478778
vt 0.06493291 0.9609289
vt 0.06493291 0.9609289
vt 0.06493291 0.9609289
vt 0.06493291 0.9609289
vt 0.06493291 0.9609289
vt 0.06493291 0.9609289
vt 0.06493291 0.9609289
vt 0.06493291 0.9609289
vt 0.06493291 0.9609289
vt 0.06493291 0.9609289
vt 0.06493291 0.9609289
vt 0.06493291 0.9609289
vt 0.5549165 0.5508593
vt 0.5549165 0.5508593
vt 0.5549165 0.5508593
vt 0.5549165 0.5508593
vt 0.5549165 0.5508593
vt 0.5549165 0.5508593
vt 0.5549165 0.5508593
vt 0.5549165 0.5508593
vt 0.5549165 0.5508593
vt 0.5549165 0.5508593
vt 0.5549165 0.5508593
vt 0.5549165 0.5508593
vt 0.4768051 0.8681766
vt 0.4768051 0.8751259
vt 0.4768051 0.8612275
vt 0.4768051 0.8539127
vt 0.4768051 0.8478778
vt 0.4775 0.8857904
vt 0.4775 0.8918254
vt 0.4775 0.8991402
vt 0.4775 0.9060895
vt 0.4775 0.9130387
vt 0.08348715 0.9269487
vt 0.08348716 0.9269487
vt 0.08348716 0.9269487
vt 0.08348715 0.9269487
vt 0.08348716 0.9269487
vt 0.08348715 0.9269487
vt 0.08348715 0.9269487
vt 0.08348716 0.9269487
vt 0.08348715 0.9269487
vt 0.08348715 0.9269487
vt 0.08348716 0.9269487
vt 0.08348716 0.9269487
vn 0.5027238 0.6082477 -0.6142504
vn 0.6557676 0.5399873 0.5276198
vn 0.6022807 -0.5508503 -0.5777733
vn 0.5686942 -0.5943614 0.5686135
vn -0.568695 0.5943597 -0.5686145
vn -0.6022819 0.5508482 0.577774
vn -0.6557665 -0.5399891 -0.5276191
vn -0.5027233 -0.6082492 0.6142493
vn 0.5458057 0.5262443 -0.6520452
vn 0.60444 0.6193886 0.5010089
vn 0.7238209 -0.579195 -0.3749888
vn 0.7315884 -0.4604731 0.5027354
vn -0.6025999 0.5164047 -0.6084402
vn -0.5596298 0.6278971 0.5408879
vn -0.8139801 -0.08854377 -0.5741047
vn -0.6871998 0.0489384 0.7248183
vn 0.01273682 0.9139838 0.4055507
vn 0.6648642 0.5768502 -0.4745516
vn 0.7258247 -0.1051604 -0.6797939
vn 0.7208545 -0.08305226 -0.6880925
vn 0.7172279 -0.06917077 -0.6933972
vn 0.7154434 -0.06184111 -0.6959284
vn 0.0271567 0.08782555 0.9957656
vn 0.02658985 0.1043972 0.9941802
vn 0.02490939 0.1346336 0.9905823
vn 0.02327308 0.1752263 0.9842531
vn -0.7053109 0.5617016 -0.4324671
vn -0.7751423 -0.1073286 -0.6226035
vn -0.7718396 -0.0862776 -0.6299363
vn -0.7696564 -0.07042895 -0.6345619
vn -0.768415 -0.06273223 -0.6368697
vn 0.735003 -0.5564522 -0.3874682
vn 0.7243568 -0.4799297 0.4949493
vn 0.6750389 0.002190095 -0.7377789
vn 0.7378645 -0.0001821412 0.6749488
vn 0.5693274 -0.5816893 -0.5809507
vn 0.5887105 -0.5700625 0.5731046
vn -0.81812 -0.04698824 -0.5731245
vn -0.6846817 0.0147114 0.7286938
vn -0.737865 0.0001824045 -0.6749483
vn -0.6750394 -0.00218983 0.7377784
vn -0.6174086 -0.582948 -0.5281839
vn -0.5343107 -0.5712921 0.6230068
vn -0.5027233 -0.6082492 0.6142493
vn 0.6022807 -0.5508503 -0.5777733
vn -0.6557665 -0.5399891 -0.5276191
vn 0.5686942 -0.5943614 0.5686135
vn -0.568695 0.5943597 -0.5686145
vn 0.6557676 0.5399873 0.5276198
vn -0.6022819 0.5508482 0.577774
vn 0.5027238 0.6082477 -0.6142504
vn 0.60444 0.6193886 0.5010089
vn -0.6025999 0.5164047 -0.6084402
vn 0.5458057 0.5262443 -0.6520452
vn -0.5596298 0.6278971 0.5408879
vn 0.7258247 -0.1051604 -0.6797939
vn 0.6648642 0.5768502 -0.4745516
vn 0.7208545 -0.08305226 -0.6880925
vn 0.7172279 -0.06917077 -0.6933972
vn 0.7154434 -0.06184111 -0.6959284
vn -0.768415 -0.06273223 -0.6368697
vn -0.7696564 -0.07042895 -0.6345619
vn -0.7718396 -0.0862776 -0.6299363
vn -0.7751423 -0.1073286 -0.6226035
vn -0.7053109 0.5617016 -0.4324671
vn 0.5693274 -0.5816893 -0.5809507
vn -0.5343107 -0.5712921 0.6230068
vn 0.5887105 -0.5700625 0.5731046
vn -0.6174086 -0.582948 -0.5281839
vn 0.7243568 -0.4799297 0.4949493
vn 0.7238209 -0.579195 -0.3749888
vn 0.735003 -0.5564522 -0.3874682
vn 0.7315884 -0.4604731 0.5027354
vn -0.8139801 -0.08854377 -0.5741047
vn -0.81812 -0.04698824 -0.5731245
vn -0.6846817 0.0147114 0.7286938
vn -0.6871998 0.0489384 0.7248183
g katana_geo_0
f 45/45/45 44/44/44 46/46/46
f 47/47/47 44/44/44 45/45/45
f 49/49/49 48/48/48 50/50/50
f 51/51/51 48/48/48 49/49/49
f 53/53/53 52/52/52 54/54/54
f 55/55/55 52/52/52 53/53/53
f 30/30/30 60/60/60 31/31/31
f 59/59/59 60/60/60 30/30/30
f 29/29/29 59/59/59 30/30/30
f 58/58/58 59/59/59 29/29/29
f 28/28/28 58/58/58 29/29/29
f 56/56/56 58/58/58 28/28/28
f 27/27/27 56/56/56 28/28/28
f 57/57/57 56/56/56 27/27/27
f 67/67/67 66/66/66 68/68/68
f 69/69/69 66/66/66 67/67/67
f 6/6/6 7/7/7 8/8/8
f 4/4/4 6/6/6 8/8/8
f 2/2/2 6/6/6 4/4/4
f 3/3/3 2/2/2 4/4/4
f 1/1/1 2/2/2 3/3/3
f 7/7/7 1/1/1 3/3/3
f 5/5/5 1/1/1 7/7/7
f 6/6/6 5/5/5 7/7/7
f 14/14/14 15/15/15 16/16/16
f 12/12/12 14/14/14 16/16/16
f 10/10/10 14/14/14 12/12/12
f 11/11/11 10/10/10 12/12/12
f 9/9/9 10/10/10 11/11/11
f 15/15/15 9/9/9 11/11/11
f 13/13/13 9/9/9 15/15/15
f 14/14/14 13/13/13 15/15/15
f 17/17/17 18/18/18 65/65/65
f 19/19/19 18/18/18 17/17/17
f 26/26/26 19/19/19 17/17/17
f 20/20/20 19/19/19 26/26/26
f 25/25/25 20/20/20 26/26/26
f 21/21/21 20/20/20 25/25/25
f 24/24/24 21/21/21 25/25/25
f 22/22/22 21/21/21 24/24/24
f 23/23/23 22/22/22 24/24/24
f 64/64/64 17/17/17 65/65/65
f 26/26/26 17/17/17 64/64/64
f 63/63/63 26/26/26 64/64/64
f 25/25/25 26/26/26 63/63/63
f 62/62/62 25/25/25 63/63/63
f 24/24/24 25/25/25 62/62/62
f 61/61/61 24/24/24 62/62/62
f 23/23/23 24/24/24 61/61/61
f 41/41/41 42/42/42 43/43/43
f 37/37/37 41/41/41 43/43/43
f 35/35/35 41/41/41 37/37/37
f 36/36/36 35/35/35 37/37/37
f 34/34/34 35/35/35 36/36/36
f 42/42/42 34/34/34 36/36/36
f 40/40/40 34/34/34 42/42/42
f 41/41/41 40/40/40 42/42/42
f 39/39/39 40/40/40 41/41/41
f 35/35/35 39/39/39 41/41/41
f 33/33/33 39/39/39 35/35/35
f 34/34/34 33/33/33 35/35/35
f 32/32/32 33/33/33 34/34/34
f 40/40/40 32/32/32 34/34/34
f 38/38/38 32/32/32 40/40/40
f 39/39/39 38/38/38 40/40/40
f 73/73/73 70/70/70 71/71/71
f 76/76/76 70/70/70 73/73/73
f 77/77/77 76/76/76 73/73/73
f 75/75/75 76/76/76 77/77/77
f 74/74/74 75/75/75 77/77/77
f 72/72/72 75/75/75 74/74/74
f 71/71/71 72/72/72 74/74/74
f 70/70/70 72/72/72 71/71/71
