g kathyIreland_geo
v 0.005 -0.9104249 0.4552124
v 0.005 0.9104249 0.4552124
v 0.005 -0.9104249 -0.4552124
v 0.005 0.9104249 -0.4552124
v -0.005 -0.915 0.4575
v -0.005 0.915 0.4575
v -0.005 -0.915 -0.4575
v -0.005 0.915 -0.4575
vt 1 0
vt 1 1
vt 0.5 2.980232E-08
vt 0.5 1
vt 0.5 0
vt 0.5 1
vt 2.980232E-08 2.980232E-08
vt 0 1
vn -1 0 0
vn -1 0 0
vn -1 0 0
vn -1 0 0
vn -1 0 0
vn -1 0 0
vn -1 0 0
vn -1 0 0
g kathyIreland_geo_0
f 4/4/4 1/1/1 2/2/2
f 3/3/3 1/1/1 4/4/4
f 8/8/8 5/5/5 6/6/6
f 7/7/7 5/5/5 8/8/8
