g kerosene_geo
v -0.03233578 0.4 0.08414967
v -0.03233577 0.4 0.1109375
v -0.01339392 0.4 0.1298794
v 0.01339392 0.4 0.1298794
v 0.03233578 0.4 0.1109375
v 0.03233577 0.4 0.08414968
v 0.01339392 0.4 0.06520781
v -0.01339392 0.4 0.06520781
v -0.03233578 0.4258647 0.08414967
v -0.03233577 0.4258647 0.1109375
v -0.01339392 0.4258647 0.1298794
v 0.01339392 0.4258647 0.1298794
v 0.03233578 0.4258647 0.1109375
v 0.03233577 0.4258647 0.08414968
v 0.01339392 0.4258647 0.06520781
v -0.01339392 0.4258647 0.06520781
v 0.02056347 0.4 0.02128514
v 0.02056347 0.4 -0.1258661
v 0.02056347 0.4 0.03552023
v 0.02056347 0.4 -0.1394857
v -0.02056347 0.4 0.03552022
v -0.02056346 0.4 -0.1394857
v -0.02056347 0.4 0.02128514
v -0.02056347 0.4 -0.1258661
v 0.02056347 0.4376661 -0.1184849
v -0.02056347 0.4376661 -0.1184849
v -0.02056347 0.4258647 -0.111245
v 0.02056347 0.4258647 -0.111245
v 0.02056346 0.4376661 0.01305779
v -0.02056347 0.4376661 0.01305779
v -0.02056347 0.4258647 0.006234467
v 0.02056347 0.4258647 0.006234467
v 0.08724587 0 0.175
v 0.08724588 0 -0.175
v 0.08724587 0.4 0.175
v 0.08724588 0.4 -0.175
v -0.08724587 0.4 0.175
v -0.08724587 0.4 -0.175
v -0.08724587 0 0.175
v -0.08724587 0 -0.175
v 0.07092776 0.4 0.1581149
v 0.07092778 0.4 -0.1581149
v -0.07092775 0.4 -0.1581149
v -0.07092776 0.4 0.1581149
v 0.08724587 0.006658412 0.175
v -0.08724587 0.006658413 0.175
v -0.08724587 0.006658413 -0.175
v 0.08724588 0.006658412 -0.175
v -0.01339392 0.4258647 0.1298794
v -0.03233578 0.4258647 0.08414967
v -0.01339392 0.4258647 0.06520781
v -0.03233577 0.4258647 0.1109375
v 0.02056347 0.4 0.03552023
v 0.02056346 0.4376661 0.01305779
v -0.02056347 0.4 0.03552022
v -0.02056347 0.4376661 0.01305779
v -0.02056347 0.4 0.02128514
v 0.02056347 0.4258647 0.006234467
v -0.02056347 0.4258647 0.006234467
v 0.02056347 0.4 0.02128514
v -0.02056346 0.4 -0.1394857
v -0.02056347 0.4376661 -0.1184849
v -0.02056347 0.4 -0.1258661
v -0.02056347 0.4258647 -0.111245
v 0.02056347 0.4376661 -0.1184849
v 0.02056347 0.4 -0.1258661
v 0.02056347 0.4258647 -0.111245
v 0.02056347 0.4 -0.1394857
v 0.02056346 0.4376661 0.01305779
v -0.02056347 0.4376661 -0.1184849
v 0.02056347 0.4376661 -0.1184849
v -0.02056347 0.4376661 0.01305779
v -0.02056347 0.4258647 0.006234467
v -0.02056347 0.4376661 -0.1184849
v -0.02056347 0.4376661 0.01305779
v -0.02056347 0.4258647 -0.111245
v 0.02056347 0.4258647 0.006234467
v -0.02056347 0.4258647 -0.111245
v -0.02056347 0.4258647 0.006234467
v 0.02056347 0.4258647 -0.111245
v 0.02056346 0.4376661 0.01305779
v 0.02056347 0.4258647 -0.111245
v 0.02056347 0.4258647 0.006234467
v 0.02056347 0.4376661 -0.1184849
v 0.07092778 0.4 -0.1581149
v 0.07092776 0.4 0.1581149
v -0.07092775 0.4 -0.1581149
v -0.07092776 0.4 0.1581149
v 0.08724587 0 0.175
v -0.08724587 0 -0.175
v -0.08724587 0 0.175
v 0.08724588 0 -0.175
v 0.03233578 0.4258647 0.1109375
v 0.01339392 0.4258647 0.06520781
v 0.03233577 0.4258647 0.08414968
v 0.01339392 0.4258647 0.1298794
v 0.01339392 0.4258647 0.1298794
v -0.01339392 0.4258647 0.06520781
v 0.01339392 0.4258647 0.06520781
v -0.01339392 0.4258647 0.1298794
v -0.08724587 0.006658413 0.175
v 0.08724587 0.4 0.175
v 0.08724587 0.006658412 0.175
v -0.08724587 0.4 0.175
v -0.08724587 0.4 0.175
v -0.08724587 0.006658413 -0.175
v -0.08724587 0.4 -0.175
v -0.08724587 0.006658413 0.175
v 0.08724588 0.006658412 -0.175
v -0.08724587 0.4 -0.175
v -0.08724587 0.006658413 -0.175
v 0.08724588 0.4 -0.175
v 0.08724587 0.006658412 0.175
v 0.08724588 0.4 -0.175
v 0.08724588 0.006658412 -0.175
v 0.08724587 0.4 0.175
vt 0.09432194 0.3
vt 0.09432194 0.3
vt 0.09432194 0.3
vt 0.09432194 0.3
vt 0.09432194 0.3
vt 0.09432194 0.3
vt 0.09432194 0.3
vt 0.09432194 0.3
vt 0.09432194 0.7606565
vt 0.09432194 0.7606565
vt 0.09432194 0.7606565
vt 0.09432194 0.7606565
vt 0.09432194 0.7606565
vt 0.09432194 0.7606565
vt 0.09432194 0.7606565
vt 0.09432194 0.7606565
vt 0.05967569 0.007555008
vt 0.09432194 0.007555008
vt 0.05967569 0.007555008
vt 0.02255274 0.007555008
vt 0.02255274 0.007555008
vt 0.02255274 0.007555008
vt 0.05967569 0.007555008
vt 0.05967569 0.007555008
vt 0.02255274 0.2519549
vt 0.02255274 0.2519549
vt 0.05967569 0.1743712
vt 0.09432194 0.2519549
vt 0.05967569 0.2519549
vt 0.02255274 0.2519549
vt 0.05967569 0.1743722
vt 0.05967569 0.1743716
vt 0.05978631 0.4641169
vt 0.05978631 0.4641169
vt 0.02255274 0.3
vt 0.02255274 0.3
vt 0.02255274 0.3
vt 0.02255274 0.3
vt 0.05978631 0.4641169
vt 0.05978631 0.4641169
vt 0.01342405 0.3085055
vt 0.01342405 0.3085055
vt 0.01342404 0.3085055
vt 0.01342404 0.3085055
vt 0.05978631 0.4641169
vt 0.05978631 0.4641169
vt 0.05978631 0.4641169
vt 0.05978631 0.4641169
vt 0.00355126 0.5407339
vt 0.06796509 0.6962426
vt 0.00355126 0.7606565
vt 0.06796509 0.6051478
vt 0.02255274 0.007555008
vt 0.02255274 0.2519549
vt 0.05967569 0.007555008
vt 0.05967569 0.2519549
vt 0.09432194 0.007555008
vt 0.09432194 0.2519549
vt 0.09432194 0.2519549
vt 0.09432194 0.007555008
vt 0.05967569 0.007555008
vt 0.05967569 0.2519549
vt 0.09432194 0.007555008
vt 0.09432194 0.2519549
vt 0.05967569 0.2519549
vt 0.05967569 0.007555008
vt 0.05967569 0.1743712
vt 0.05967569 0.007555008
vt 0.06257954 0.5505388
vt 0.06257953 0.5505388
vt 0.06257954 0.5505388
vt 0.06257953 0.5505388
vt 0.04992543 0.259199
vt 0.04992543 0.259199
vt 0.04992543 0.259199
vt 0.04992543 0.259199
vt 0.05133142 0.292932
vt 0.0513314 0.292932
vt 0.0513314 0.292932
vt 0.05133142 0.292932
vt 0.04992543 0.259199
vt 0.04992543 0.259199
vt 0.04992543 0.259199
vt 0.04992543 0.259199
vt 0.02255274 0.5091946
vt 0.02255274 0.5091946
vt 0.02255274 0.5091946
vt 0.02255274 0.5091946
vt 0.06312913 0.3525071
vt 0.06312907 0.3525071
vt 0.06312913 0.3525071
vt 0.06312907 0.3525071
vt 0.06796512 0.6051478
vt 0.003551267 0.7606565
vt 0.06796512 0.6962427
vt 0.003551267 0.5407339
vt 0.09432194 0.7742605
vt 0.003226906 0.9941832
vt 0.09432194 0.9941832
vt 0.003226906 0.7742605
vt 0.1097647 0.0212334
vt 0.1097647 0.9948394
vt 0.1097647 0.0212334
vt 0.1097647 0.9948394
vt 0.9920756 0.9948364
vt 0.1282035 0.0212334
vt 0.1282036 0.9948394
vt 0.9920743 0.02123277
vt 0.1097647 0.0212334
vt 0.1097647 0.9948394
vt 0.1097647 0.0212334
vt 0.1097647 0.9948394
vt 0.1282036 0.0212334
vt 0.9920756 0.9948366
vt 0.9920743 0.02123286
vt 0.1282036 0.9948394
vn -0.9238796 0 -0.3826832
vn -0.9238795 0 0.3826833
vn -0.3826836 0 0.9238794
vn 0.3826832 0 0.9238796
vn 0.9238795 0 0.3826835
vn 0.9238795 0 -0.3826834
vn 0.3826835 0 -0.9238795
vn -0.3826836 0 -0.9238794
vn -0.81252 0.4759631 -0.3365566
vn -0.81252 0.4759631 0.3365567
vn -0.2596885 0.7345096 0.6269431
vn 0.2596882 0.7345095 0.6269432
vn 0.8125199 0.4759633 0.3365569
vn 0.8125199 0.4759631 -0.3365568
vn 0.2596884 0.7345095 -0.6269431
vn -0.2596884 0.7345095 -0.6269431
vn 0.7071068 -0.3556367 -0.6111648
vn 0.7071067 -0.3479723 0.6155609
vn 0.7071066 0.3621747 0.6073133
vn 0.7071067 0.344344 -0.6175979
vn -0.7071068 0.3621747 0.6073132
vn -0.7071066 0.344344 -0.6175981
vn -0.7071067 -0.3556368 -0.6111649
vn -0.7071069 -0.3479723 0.6155608
vn 0.7573393 0.5630727 -0.3307359
vn -0.7573393 0.5630726 -0.3307361
vn -0.7567828 -0.5646005 0.3294027
vn 0.7567827 -0.5646005 0.3294029
vn 0.7546157 0.5705622 0.3240587
vn -0.7546157 0.5705621 0.3240586
vn -0.755611 -0.5678214 -0.3265439
vn 0.755611 -0.5678214 -0.3265439
vn 0.5773502 -0.5773503 0.5773503
vn 0.5773502 -0.5773503 -0.5773503
vn 0.4082482 0.8164964 0.4082489
vn 0.4082484 0.8164967 -0.4082479
vn -0.4082482 0.8164964 0.4082489
vn -0.4082484 0.8164967 -0.4082479
vn -0.5773503 -0.5773503 0.5773503
vn -0.5773503 -0.5773503 -0.5773503
vn 0 1 5.713222E-07
vn 0 1 3.808815E-07
vn 0 1 3.808815E-07
vn 0 1 5.713222E-07
vn 0.7071068 0 0.7071068
vn -0.7071068 0 0.7071068
vn -0.7071068 0 -0.7071068
vn 0.7071068 0 -0.7071068
vn -0.2596885 0.7345096 0.6269431
vn -0.81252 0.4759631 -0.3365566
vn -0.2596884 0.7345095 -0.6269431
vn -0.81252 0.4759631 0.3365567
vn 0.7071066 0.3621747 0.6073133
vn 0.7546157 0.5705622 0.3240587
vn -0.7071068 0.3621747 0.6073132
vn -0.7546157 0.5705621 0.3240586
vn -0.7071067 -0.3556368 -0.6111649
vn 0.755611 -0.5678214 -0.3265439
vn -0.755611 -0.5678214 -0.3265439
vn 0.7071068 -0.3556367 -0.6111648
vn -0.7071066 0.344344 -0.6175981
vn -0.7573393 0.5630726 -0.3307361
vn -0.7071069 -0.3479723 0.6155608
vn -0.7567828 -0.5646005 0.3294027
vn 0.7573393 0.5630727 -0.3307359
vn 0.7071067 -0.3479723 0.6155609
vn 0.7567827 -0.5646005 0.3294029
vn 0.7071067 0.344344 -0.6175979
vn 0.7546157 0.5705622 0.3240587
vn -0.7573393 0.5630726 -0.3307361
vn 0.7573393 0.5630727 -0.3307359
vn -0.7546157 0.5705621 0.3240586
vn -0.755611 -0.5678214 -0.3265439
vn -0.7573393 0.5630726 -0.3307361
vn -0.7546157 0.5705621 0.3240586
vn -0.7567828 -0.5646005 0.3294027
vn 0.755611 -0.5678214 -0.3265439
vn -0.7567828 -0.5646005 0.3294027
vn -0.755611 -0.5678214 -0.3265439
vn 0.7567827 -0.5646005 0.3294029
vn 0.7546157 0.5705622 0.3240587
vn 0.7567827 -0.5646005 0.3294029
vn 0.755611 -0.5678214 -0.3265439
vn 0.7573393 0.5630727 -0.3307359
vn 0 1 3.808815E-07
vn 0 1 5.713222E-07
vn 0 1 3.808815E-07
vn 0 1 5.713222E-07
vn 0.5773502 -0.5773503 0.5773503
vn -0.5773503 -0.5773503 -0.5773503
vn -0.5773503 -0.5773503 0.5773503
vn 0.5773502 -0.5773503 -0.5773503
vn 0.8125199 0.4759633 0.3365569
vn 0.2596884 0.7345095 -0.6269431
vn 0.8125199 0.4759631 -0.3365568
vn 0.2596882 0.7345095 0.6269432
vn 0.2596882 0.7345095 0.6269432
vn -0.2596884 0.7345095 -0.6269431
vn 0.2596884 0.7345095 -0.6269431
vn -0.2596885 0.7345096 0.6269431
vn -0.7071068 0 0.7071068
vn 0.4082482 0.8164964 0.4082489
vn 0.7071068 0 0.7071068
vn -0.4082482 0.8164964 0.4082489
vn -0.4082482 0.8164964 0.4082489
vn -0.7071068 0 -0.7071068
vn -0.4082484 0.8164967 -0.4082479
vn -0.7071068 0 0.7071068
vn 0.7071068 0 -0.7071068
vn -0.4082484 0.8164967 -0.4082479
vn -0.7071068 0 -0.7071068
vn 0.4082484 0.8164967 -0.4082479
vn 0.7071068 0 0.7071068
vn 0.4082484 0.8164967 -0.4082479
vn 0.7071068 0 -0.7071068
vn 0.4082482 0.8164964 0.4082489
g kerosene_geo_0
f 50/50/50 49/49/49 51/51/51
f 52/52/52 49/49/49 50/50/50
f 29/29/29 17/17/17 32/32/32
f 19/19/19 17/17/17 29/29/29
f 30/30/30 53/53/53 54/54/54
f 21/21/21 53/53/53 30/30/30
f 31/31/31 55/55/55 56/56/56
f 23/23/23 55/55/55 31/31/31
f 58/58/58 57/57/57 59/59/59
f 60/60/60 57/57/57 58/58/58
f 22/22/22 25/25/25 20/20/20
f 26/26/26 25/25/25 22/22/22
f 61/61/61 27/27/27 62/62/62
f 24/24/24 27/27/27 61/61/61
f 63/63/63 28/28/28 64/64/64
f 18/18/18 28/28/28 63/63/63
f 66/66/66 65/65/65 67/67/67
f 68/68/68 65/65/65 66/66/66
f 70/70/70 69/69/69 71/71/71
f 72/72/72 69/69/69 70/70/70
f 74/74/74 73/73/73 75/75/75
f 76/76/76 73/73/73 74/74/74
f 78/78/78 77/77/77 79/79/79
f 80/80/80 77/77/77 78/78/78
f 82/82/82 81/81/81 83/83/83
f 84/84/84 81/81/81 82/82/82
f 43/43/43 41/41/41 42/42/42
f 44/44/44 41/41/41 43/43/43
f 90/90/90 89/89/89 91/91/91
f 92/92/92 89/89/89 90/90/90
f 94/94/94 93/93/93 95/95/95
f 96/96/96 93/93/93 94/94/94
f 98/98/98 97/97/97 99/99/99
f 100/100/100 97/97/97 98/98/98
f 102/102/102 101/101/101 103/103/103
f 104/104/104 101/101/101 102/102/102
f 106/106/106 105/105/105 107/107/107
f 108/108/108 105/105/105 106/106/106
f 110/110/110 109/109/109 111/111/111
f 112/112/112 109/109/109 110/110/110
f 114/114/114 113/113/113 115/115/115
f 116/116/116 113/113/113 114/114/114
f 9/9/9 1/1/1 10/10/10
f 8/8/8 1/1/1 9/9/9
f 16/16/16 8/8/8 9/9/9
f 7/7/7 8/8/8 16/16/16
f 15/15/15 7/7/7 16/16/16
f 6/6/6 7/7/7 15/15/15
f 14/14/14 6/6/6 15/15/15
f 5/5/5 6/6/6 14/14/14
f 13/13/13 5/5/5 14/14/14
f 4/4/4 5/5/5 13/13/13
f 12/12/12 4/4/4 13/13/13
f 3/3/3 4/4/4 12/12/12
f 11/11/11 3/3/3 12/12/12
f 2/2/2 3/3/3 11/11/11
f 10/10/10 2/2/2 11/11/11
f 1/1/1 2/2/2 10/10/10
f 45/45/45 33/33/33 48/48/48
f 39/39/39 33/33/33 45/45/45
f 46/46/46 39/39/39 45/45/45
f 40/40/40 39/39/39 46/46/46
f 47/47/47 40/40/40 46/46/46
f 34/34/34 40/40/40 47/47/47
f 48/48/48 34/34/34 47/47/47
f 33/33/33 34/34/34 48/48/48
f 86/86/86 35/35/35 85/85/85
f 37/37/37 35/35/35 86/86/86
f 88/88/88 37/37/37 86/86/86
f 38/38/38 37/37/37 88/88/88
f 87/87/87 38/38/38 88/88/88
f 36/36/36 38/38/38 87/87/87
f 85/85/85 36/36/36 87/87/87
f 35/35/35 36/36/36 85/85/85
