g kettleBell_geo
v -0.1552069 -0.05406523 0.4481547
v -0.1660173 0.07888816 0.4448688
v -0.05649177 0.1548898 0.4505417
v 0.06384331 0.09793876 0.4594998
v 0.07465339 -0.03501448 0.4627859
v -0.03487213 -0.111017 0.457114
v -0.216263 -0.1030103 0.3429894
v -0.2337541 0.1121128 0.3376728
v -0.05653862 0.2350867 0.3468512
v 0.1381679 0.1429376 0.3613462
v 0.1556589 -0.07218542 0.3666626
v -0.0215567 -0.1951594 0.3574844
v -0.2080624 -0.1054491 0.2173311
v -0.2255536 0.1096739 0.2120146
v -0.04833801 0.232648 0.221193
v 0.1463683 0.1404989 0.2356877
v 0.1638593 -0.07462421 0.2410044
v -0.01335617 -0.1975983 0.231826
v -0.1337381 -0.06045015 0.1191773
v -0.144548 0.07250316 0.1158914
v -0.03502281 0.1485052 0.1215639
v 0.08531234 0.09155391 0.1305222
v 0.09612228 -0.0413994 0.1338081
v -0.01340294 -0.1174015 0.1281357
v -0.04821571 0.02269037 0.4926585
v -0.02167877 0.0147983 0.08601919
v 0.003226852 0.1556786 -0.002069779
v -0.02142883 0.008759079 -0.06265026
v 0.01480408 0.01328934 0.001449428
v -0.06569351 0.006617737 -0.00367435
v -0.03300621 0.1511485 -0.06616937
v -0.07727104 0.149007 -0.007193365
v -0.00131134 0.0180814 0.2483922
v -0.04335754 0.2061649 0.02482189
v -0.04789551 0.06856834 0.2752836
v -0.08180908 0.01140965 0.2432695
v -0.03903481 0.1986407 -0.03328772
v -0.009851456 -0.13363 -0.05913129
v 0.02638138 -0.1291 0.004968405
v -0.05411629 -0.1357716 -0.0001554537
v -0.03924041 -0.0378812 0.2779142
v -0.0115477 -0.1850637 0.03449086
v -0.008265686 -0.1798012 -0.02393485
v 0.1381679 0.1429376 0.3613462
v 0.1556589 -0.07218542 0.3666626
v 0.1463683 0.1404989 0.2356877
v 0.1638593 -0.07462421 0.2410044
v -0.00131134 0.0180814 0.2483922
v -0.08180908 0.01140965 0.2432695
vt 0.9727297 0.04261817
vt 0.9727297 0.04261817
vt 0.9727297 0.04261817
vt 0.9727297 0.04261817
vt 0.9727297 0.04261817
vt 0.9727297 0.04261817
vt 0.9727297 0.04261816
vt 0.9727297 0.04261816
vt 0.9727297 0.04261816
vt 0.9727297 0.04261816
vt 0.9727297 0.04261816
vt 0.9727297 0.04261816
vt 0.9727297 0.04261816
vt 0.9727297 0.04261816
vt 0.9727297 0.04261816
vt 0.9727297 0.04261816
vt 1.916257 1.04143
vt 0.9727297 0.04261816
vt 0.9727297 0.7898568
vt 0.9727297 0.7898568
vt 0.9727297 0.7898568
vt 0.9727297 0.7898568
vt 0.9727297 0.7898568
vt 0.9727297 0.7898568
vt 0.9727296 0.04261827
vt 0.9727296 0.7898569
vt 0.9725162 0.322044
vt 0.9725162 0.9298667
vt 0.9725162 0.322044
vt 0.9725162 0.322044
vt 0.9725162 0.9298667
vt 0.9725162 0.322044
vt 0.9725162 0.322044
vt 0.9725162 0.322044
vt 0.9725162 0.322044
vt 0.9725162 0.322044
vt 0.9725162 0.9298667
vt 0.9725162 0.9298667
vt 0.9725162 0.322044
vt 0.9725162 0.322044
vt 0.9725162 0.322044
vt 0.9725162 0.322044
vt 0.9725162 0.9298667
vt 1.013873 -0.04142988
vt 1.916257 -0.04142988
vt 1.013873 1.04143
vt 0.9727297 0.04261816
vt 0.9725162 0.322044
vt 0.9725162 0.322044
vn -0.5008895 -0.2934036 0.8142629
vn -0.5449308 0.2482889 0.8008764
vn -0.09869008 0.5579461 0.8239881
vn 0.3915936 0.325909 0.860487
vn 0.4356382 -0.2157838 0.8738745
vn -0.01060494 -0.5254405 0.8507643
vn -0.7935175 -0.5285438 0.301615
vn -0.8696365 0.4076542 0.2784785
vn -0.09840927 0.9428272 0.318422
vn 0.7489368 0.5418018 0.3815028
vn 0.8250567 -0.3943962 0.4046394
vn 0.0538288 -0.9295695 0.3646958
vn -0.7489371 -0.5418016 -0.3815027
vn -0.8250564 0.3943964 -0.40464
vn -0.0538294 0.9295693 -0.3646964
vn 0.7935171 0.5285438 -0.3016158
vn 0.8696364 -0.4076545 -0.2784786
vn 0.09840909 -0.9428271 -0.3184221
vn -0.3915923 -0.3259079 -0.8604879
vn -0.4356357 0.2157852 -0.8738754
vn 0.01060331 0.5254412 -0.8507639
vn 0.5008857 0.2934038 -0.8142652
vn 0.5449289 -0.2482894 -0.8008776
vn 0.09868982 -0.5579448 -0.823989
vn -0.06510965 0.01936524 0.9976902
vn 0.06510856 -0.01936371 -0.9976903
vn 0.9639226 0.2615692 -0.04934308
vn 0.06510863 -0.01936355 -0.9976903
vn 0.8442346 0.08173365 0.5297051
vn -0.9061005 -0.06333524 0.418295
vn 0.03472587 0.3105533 -0.9499215
vn -0.9797719 0.1004822 -0.173062
vn 0.6249458 -0.5845977 0.5173858
vn -0.09156401 0.983107 0.1584824
vn -0.08660002 0.3206007 0.9432473
vn -0.5807319 -0.6845278 0.4406498
vn -0.03740305 0.8521695 -0.5219274
vn 0.08819555 -0.3471092 -0.9336685
vn 0.9936954 -0.1046219 -0.0402944
vn -0.9499996 -0.2657105 -0.164008
vn -0.03746744 -0.2836952 0.9581823
vn 0.06772208 -0.9760153 0.2069005
vn 0.1027439 -0.8716009 -0.4793282
vn 0.7489368 0.5418018 0.3815028
vn 0.8250567 -0.3943962 0.4046394
vn 0.7935171 0.5285438 -0.3016158
vn 0.8696364 -0.4076545 -0.2784786
vn 0.5202913 0.7025057 0.4855745
vn -0.6853802 0.6025825 0.4088377
g kettleBell_geo_0
f 17/17/17 44/44/44 45/45/45
f 46/46/46 44/44/44 17/17/17
f 12/12/12 5/5/5 6/6/6
f 11/11/11 5/5/5 12/12/12
f 18/18/18 11/11/11 12/12/12
f 47/47/47 11/11/11 18/18/18
f 24/24/24 47/47/47 18/18/18
f 23/23/23 47/47/47 24/24/24
f 26/26/26 23/23/23 24/24/24
f 22/22/22 23/23/23 26/26/26
f 21/21/21 22/22/22 26/26/26
f 15/15/15 22/22/22 21/21/21
f 14/14/14 15/15/15 21/21/21
f 8/8/8 15/15/15 14/14/14
f 7/7/7 8/8/8 14/14/14
f 1/1/1 8/8/8 7/7/7
f 6/6/6 1/1/1 7/7/7
f 25/25/25 1/1/1 6/6/6
f 5/5/5 25/25/25 6/6/6
f 4/4/4 25/25/25 5/5/5
f 11/11/11 4/4/4 5/5/5
f 10/10/10 4/4/4 11/11/11
f 3/3/3 25/25/25 4/4/4
f 10/10/10 3/3/3 4/4/4
f 9/9/9 3/3/3 10/10/10
f 16/16/16 9/9/9 10/10/10
f 15/15/15 9/9/9 16/16/16
f 22/22/22 15/15/15 16/16/16
f 23/23/23 16/16/16 47/47/47
f 22/22/22 16/16/16 23/23/23
f 2/2/2 1/1/1 25/25/25
f 8/8/8 1/1/1 2/2/2
f 9/9/9 8/8/8 2/2/2
f 15/15/15 8/8/8 9/9/9
f 2/2/2 3/3/3 9/9/9
f 25/25/25 3/3/3 2/2/2
f 20/20/20 21/21/21 26/26/26
f 14/14/14 21/21/21 20/20/20
f 13/13/13 14/14/14 20/20/20
f 7/7/7 14/14/14 13/13/13
f 12/12/12 7/7/7 13/13/13
f 6/6/6 7/7/7 12/12/12
f 19/19/19 20/20/20 26/26/26
f 13/13/13 20/20/20 19/19/19
f 18/18/18 13/13/13 19/19/19
f 12/12/12 13/13/13 18/18/18
f 24/24/24 19/19/19 26/26/26
f 18/18/18 19/19/19 24/24/24
f 30/30/30 29/29/29 27/27/27
f 39/39/39 29/29/29 30/30/30
f 40/40/40 39/39/39 30/30/30
f 48/48/48 39/39/39 40/40/40
f 49/49/49 48/48/48 40/40/40
f 41/41/41 48/48/48 49/49/49
f 42/42/42 41/41/41 49/49/49
f 39/39/39 41/41/41 42/42/42
f 43/43/43 39/39/39 42/42/42
f 38/38/38 39/39/39 43/43/43
f 40/40/40 38/38/38 43/43/43
f 28/28/28 38/38/38 40/40/40
f 30/30/30 28/28/28 40/40/40
f 32/32/32 28/28/28 30/30/30
f 27/27/27 32/32/32 30/30/30
f 33/33/33 32/32/32 27/27/27
f 35/35/35 33/33/33 27/27/27
f 36/36/36 33/33/33 35/35/35
f 34/34/34 36/36/36 35/35/35
f 32/32/32 36/36/36 34/34/34
f 37/37/37 32/32/32 34/34/34
f 31/31/31 32/32/32 37/37/37
f 27/27/27 31/31/31 37/37/37
f 29/29/29 31/31/31 27/27/27
f 28/28/28 32/32/32 31/31/31
f 29/29/29 28/28/28 31/31/31
f 38/38/38 28/28/28 29/29/29
f 39/39/39 38/38/38 29/29/29
f 34/34/34 27/27/27 37/37/37
f 35/35/35 27/27/27 34/34/34
f 32/32/32 33/33/33 36/36/36
f 48/48/48 41/41/41 39/39/39
f 40/40/40 42/42/42 49/49/49
f 43/43/43 42/42/42 40/40/40
