g kinkyCanineMagazine_geo
v -0.1778016 -0.002733536 0.2361811
v 0.1778017 0.006414032 0.2386322
v -0.1778016 0.005498657 -0.2354402
v 0.1778017 0.01464615 -0.2329891
v -0.1668479 0.01464615 -0.2329891
v -0.1668479 0.006414032 0.2386322
v -0.1655948 -0.01464615 0.2329891
v -0.1655948 -0.006414032 -0.2386322
v 0.1778017 -0.01464615 0.2329891
v 0.1778017 -0.006414032 -0.2386322
v -0.1668479 0.01464615 -0.2329891
v -0.1668479 0.006414032 0.2386322
v -0.1778016 -0.002733536 0.2361811
v -0.1778016 0.005498657 -0.2354402
v -0.1655948 -0.01464615 0.2329891
v -0.1655948 -0.006414032 -0.2386322
v -0.1668479 0.01464615 -0.2329891
v 0.1778017 -0.006414032 -0.2386322
v 0.1778017 0.01464615 -0.2329891
v -0.1655948 -0.006414032 -0.2386322
v -0.1778016 0.005498657 -0.2354402
v 0.1778017 0.01464615 -0.2329891
v 0.1778017 -0.01464615 0.2329891
v 0.1778017 0.006414032 0.2386322
v 0.1778017 -0.006414032 -0.2386322
v -0.1655948 -0.01464615 0.2329891
v 0.1778017 0.006414032 0.2386322
v 0.1778017 -0.01464615 0.2329891
v -0.1668479 0.006414032 0.2386322
v -0.1778016 -0.002733536 0.2361811
vt 0.4966142 0.001272297
vt 1 0.001272297
vt 0.4966142 0.9980164
vt 1 0.9980164
vt 0.51184 0.9980164
vt 0.51184 0.001272297
vt 0.4796464 0.001272297
vt 0.4796464 0.9980164
vt 0.00231567 0.001272297
vt 0.0023157 0.9980164
vt 0.51184 0.9980164
vt 0.51184 0.001272297
vt 0.4966142 0.001272297
vt 0.4966142 0.9980164
vt 0.4796464 0.001272297
vt 0.4796464 0.9980164
vt 0.6501521 0.9470577
vt 0.6501513 0.9470584
vt 0.6501521 0.9470584
vt 0.6501513 0.9470577
vt 0.6501518 0.9470577
vt 0.646665 0.7834423
vt 0.646668 0.7834424
vt 0.6466688 0.7834424
vt 0.6466642 0.7834423
vt 0.5145769 0.9470577
vt 0.5145763 0.9470584
vt 0.5145769 0.9470584
vt 0.5145763 0.9470578
vt 0.5145765 0.9470578
vn -0.6426962 0.7660044 0.01337132
vn 0 0.9998477 0.0174523
vn -0.6426962 0.7660044 0.01337132
vn 0 0.9998477 0.0174523
vn 0 0.9998477 0.0174523
vn 0 0.9998477 0.0174523
vn -0.7000432 -0.7139917 -0.01246297
vn -0.7000432 -0.7139917 -0.01246297
vn 0 -0.9998477 -0.01745227
vn 0 -0.9998477 -0.01745227
vn -0.6426962 0.7660044 0.01337132
vn -0.6426962 0.7660044 0.01337132
vn -0.7000432 -0.7139917 -0.01246297
vn -0.7000432 -0.7139917 -0.01246297
vn 0 -0.9998477 -0.01745227
vn 0 -0.9998477 -0.01745227
vn 0 0.2588181 -0.9659261
vn 0 0.2588181 -0.9659261
vn 0 0.2588181 -0.9659261
vn 0 0.2588181 -0.9659261
vn 0 0.258819 -0.9659258
vn 1 0 -1.477001E-07
vn 1 0 -1.477001E-07
vn 1 0 -1.477001E-07
vn 1 0 -1.477001E-07
vn 0 -0.2588183 0.9659261
vn 0 -0.2588183 0.9659261
vn 0 -0.2588183 0.9659261
vn 0 -0.2588183 0.9659261
vn 0 -0.258819 0.9659258
g kinkyCanineMagazine_geo_0
f 4/4/4 6/6/6 2/2/2
f 5/5/5 6/6/6 4/4/4
f 11/11/11 1/1/1 12/12/12
f 3/3/3 1/1/1 11/11/11
f 8/8/8 13/13/13 14/14/14
f 7/7/7 13/13/13 8/8/8
f 10/10/10 15/15/15 16/16/16
f 9/9/9 15/15/15 10/10/10
f 17/17/17 20/20/20 21/21/21
f 18/18/18 20/20/20 17/17/17
f 19/19/19 18/18/18 17/17/17
f 23/23/23 22/22/22 24/24/24
f 25/25/25 22/22/22 23/23/23
f 26/26/26 29/29/29 30/30/30
f 27/27/27 29/29/29 26/26/26
f 28/28/28 27/27/27 26/26/26
