g kunai_geo
v -0.01144408 -0.0542904 -1.490116E-10
v -2.980232E-10 -0.05201983 0.01144405
v -0.01144408 0.05201979 -1.490116E-10
v -2.980232E-10 0.05201979 0.01144405
v -2.980232E-10 0.05201979 -0.01144411
v 0.01144411 0.05201979 -1.490116E-10
v -2.980232E-10 -0.05201983 -0.01144411
v 0.01144411 -0.0542904 -1.490116E-10
v -2.980232E-10 -0.1105648 -1.490116E-10
v -2.980232E-10 -0.07586462 0.03284618
v -2.980232E-10 -0.07586462 -0.03284618
v 0.01144411 -0.06239046 -1.490116E-10
v 0.01144411 -0.09223646 -1.490116E-10
v -0.01144408 -0.06239046 -1.490116E-10
v -0.01144408 -0.09223646 -1.490116E-10
v -0.01144408 -0.07615871 0.01558864
v 0.01144411 -0.07615871 0.01558864
v 0.01144411 -0.07615871 -0.01558866
v -0.01144408 -0.07615871 -0.01558866
v -0.02700772 0.09413799 -1.490116E-10
v -2.980232E-10 0.109225 0.04582386
v 0.02700768 0.09413799 -1.490116E-10
v -2.980232E-10 0.109225 -0.04582399
v -2.980232E-10 0.337511 -1.490116E-10
v -2.980232E-10 -0.05201983 -0.01144411
v 0.01144411 -0.0542904 -1.490116E-10
v -2.980232E-10 -0.05201983 0.01144405
v -0.01144408 -0.0542904 -1.490116E-10
v -0.01144408 -0.07615871 -0.01558866
v 0.01144411 -0.09223646 -1.490116E-10
v -0.01144408 -0.09223646 -1.490116E-10
v 0.01144411 -0.07615871 -0.01558866
v 0.01144411 -0.07615871 0.01558864
v -0.01144408 -0.07615871 0.01558864
v 0.01144411 -0.06239046 -1.490116E-10
v -0.01144408 -0.06239046 -1.490116E-10
v -0.01144408 0.05201979 -1.490116E-10
v -2.980232E-10 0.05201979 0.01144405
v 0.01144411 0.05201979 -1.490116E-10
v 0.01144411 0.05201979 -1.490116E-10
v -2.980232E-10 0.05201979 -0.01144411
v 0.02700768 0.09413799 -1.490116E-10
v -0.02700772 0.09413799 -1.490116E-10
v -0.01144408 0.05201979 -1.490116E-10
v -0.02700772 0.09413799 -1.490116E-10
v -2.980232E-10 0.109225 0.04582386
v 0.02700768 0.09413799 -1.490116E-10
v 0.02700768 0.09413799 -1.490116E-10
v -2.980232E-10 0.337511 -1.490116E-10
v -2.980232E-10 0.109225 -0.04582399
v -0.02700772 0.09413799 -1.490116E-10
vt 0.8254398 0.07803797
vt 0.8286218 0.09407701
vt 0.9744348 0.07803798
vt 0.9744348 0.09407705
vt 0.9744348 0.0619989
vt 0.9744348 0.07803798
vt 0.8286217 0.06199893
vt 0.8254398 0.07803797
vt 0.871055 0.991004
vt 0.8710549 0.991004
vt 0.871055 0.991004
vt 0.8747228 0.9533374
vt 0.8747229 0.9533374
vt 0.8747228 0.9533374
vt 0.8747229 0.9533374
vt 0.8747228 0.9533374
vt 0.8747228 0.9533374
vt 0.8747228 0.9533374
vt 0.8747228 0.9533374
vt 0.8832908 0.9533374
vt 0.8832908 0.9533374
vt 0.8832908 0.9533374
vt 0.8832908 0.9888664
vt 0.8747228 0.9533374
vt 0.871055 0.991004
vt 0.8747228 0.9533374
vt 0.8710549 0.991004
vt 0.8747228 0.9533374
vt 0.8818055 0.9339163
vt 0.8818054 0.9339163
vt 0.8818054 0.9339163
vt 0.8818055 0.9339163
vt 0.8818054 0.9339163
vt 0.8818054 0.9339163
vt 0.8818054 0.9339163
vt 0.8818054 0.9339163
vt 0.8832908 0.9533374
vt 0.8832908 0.9533374
vt 0.8832908 0.9533374
vt 0.8832908 0.9888664
vt 0.8832908 0.9888664
vt 0.8832908 0.9888664
vt 0.8832908 0.9888664
vt 0.8832908 0.9888664
vt 0.8747229 0.9533374
vt 0.8747228 0.9533374
vt 0.8747228 0.9533374
vt 0.8725809 0.9888664
vt 0.8725809 0.9888664
vt 0.8725809 0.9888664
vt 0.8725809 0.9888664
vn -0.9661407 0.2580154 7.374112E-07
vn -6.382733E-07 0.3143135 0.9493192
vn -0.9766931 -0.2146404 1.101951E-06
vn -2.015521E-07 -0.2399141 0.9707941
vn -2.015525E-07 -0.2399148 -0.9707939
vn 0.9766932 -0.2146401 1.142023E-06
vn -6.382747E-07 0.3143137 -0.9493192
vn 0.9661406 0.258016 7.762231E-07
vn -8.620058E-07 -1 0
vn -8.197981E-07 -0.07181349 0.997418
vn -7.894355E-07 -0.07181433 -0.997418
vn 0.9102612 -0.4140347 0
vn 0.9547948 0.2972659 -2.317514E-07
vn -0.910261 -0.4140349 -1.047873E-07
vn -0.9547946 0.2972664 -2.317511E-07
vn -0.9636393 -0.07889411 -0.2552942
vn 0.9636394 -0.07889419 -0.2552936
vn 0.9636395 -0.07889464 0.2552932
vn -0.9636394 -0.07889451 0.2552938
vn -0.9906537 -0.1364006 7.213097E-07
vn 2.735782E-07 -0.204349 0.9788982
vn 0.9906538 -0.1364003 7.395705E-07
vn 3.282945E-07 -0.2043495 -0.978898
vn 1.695693E-06 1 5.318309E-06
vn -6.382747E-07 0.3143137 -0.9493192
vn 0.9661406 0.258016 7.762231E-07
vn -6.382733E-07 0.3143135 0.9493192
vn -0.9661407 0.2580154 7.374112E-07
vn -0.9636394 -0.07889451 0.2552938
vn 0.9547948 0.2972659 -2.317514E-07
vn -0.9547946 0.2972664 -2.317511E-07
vn 0.9636395 -0.07889464 0.2552932
vn 0.9636394 -0.07889419 -0.2552936
vn -0.9636393 -0.07889411 -0.2552942
vn 0.9102612 -0.4140347 0
vn -0.910261 -0.4140349 -1.047873E-07
vn -0.9766931 -0.2146404 1.101951E-06
vn -2.015521E-07 -0.2399141 0.9707941
vn 0.9766932 -0.2146401 1.142023E-06
vn 0.9766932 -0.2146401 1.142023E-06
vn -2.015525E-07 -0.2399148 -0.9707939
vn 0.9906538 -0.1364003 7.395705E-07
vn -0.9906537 -0.1364006 7.213097E-07
vn -0.9766931 -0.2146404 1.101951E-06
vn -0.9906537 -0.1364006 7.213097E-07
vn 2.735782E-07 -0.204349 0.9788982
vn 0.9906538 -0.1364003 7.395705E-07
vn 0.9906538 -0.1364003 7.395705E-07
vn 1.695693E-06 1 5.318309E-06
vn 3.282945E-07 -0.2043495 -0.978898
vn -0.9906537 -0.1364006 7.213097E-07
g kunai_geo_0
f 38/38/38 39/39/39 22/22/22
f 21/21/21 38/38/38 22/22/22
f 37/37/37 38/38/38 21/21/21
f 20/20/20 37/37/37 21/21/21
f 41/41/41 44/44/44 43/43/43
f 23/23/23 41/41/41 43/43/43
f 40/40/40 41/41/41 23/23/23
f 42/42/42 40/40/40 23/23/23
f 24/24/24 46/46/46 47/47/47
f 45/45/45 46/46/46 24/24/24
f 49/49/49 50/50/50 51/51/51
f 48/48/48 50/50/50 49/49/49
f 3/3/3 1/1/1 4/4/4
f 7/7/7 1/1/1 3/3/3
f 5/5/5 7/7/7 3/3/3
f 8/8/8 7/7/7 5/5/5
f 6/6/6 8/8/8 5/5/5
f 2/2/2 8/8/8 6/6/6
f 4/4/4 2/2/2 6/6/6
f 1/1/1 2/2/2 4/4/4
f 10/10/10 17/17/17 12/12/12
f 13/13/13 17/17/17 10/10/10
f 9/9/9 13/13/13 10/10/10
f 11/11/11 13/13/13 9/9/9
f 15/15/15 11/11/11 9/9/9
f 19/19/19 11/11/11 15/15/15
f 12/12/12 25/25/25 26/26/26
f 11/11/11 25/25/25 12/12/12
f 18/18/18 11/11/11 12/12/12
f 13/13/13 11/11/11 18/18/18
f 10/10/10 14/14/14 16/16/16
f 27/27/27 14/14/14 10/10/10
f 12/12/12 27/27/27 10/10/10
f 26/26/26 27/27/27 12/12/12
f 15/15/15 10/10/10 16/16/16
f 9/9/9 10/10/10 15/15/15
f 14/14/14 25/25/25 11/11/11
f 28/28/28 25/25/25 14/14/14
f 27/27/27 28/28/28 14/14/14
f 19/19/19 14/14/14 11/11/11
f 32/32/32 29/29/29 30/30/30
f 36/36/36 29/29/29 32/32/32
f 35/35/35 36/36/36 32/32/32
f 34/34/34 36/36/36 35/35/35
f 33/33/33 34/34/34 35/35/35
f 31/31/31 34/34/34 33/33/33
f 30/30/30 31/31/31 33/33/33
f 29/29/29 31/31/31 30/30/30
