g landmine_geo
v 0.04497425 0.08453115 -0.04497425
v 0 0.08453115 -0.06360313
v -0.04497425 0.08453115 -0.04497425
v -0.06360313 0.08453115 0
v -0.04497425 0.08453115 0.04497425
v 0 0.08453115 0.06360313
v 0.04497425 0.08453115 0.04497425
v 0.06360321 0.08453115 0
v 0.02596588 0.111413 -0.02596588
v 0 0.111413 -0.0367213
v -0.02596588 0.111413 -0.02596588
v -0.0367213 0.111413 0
v -0.02596588 0.111413 0.02596588
v 0 0.111413 0.0367213
v 0.02596588 0.111413 0.02596588
v 0.0367213 0.111413 0
v 0 0.1212524 0
v 0.1143838 -0.0446022 -0.1143838
v -1.347666E-08 -0.0446022 -0.1617631
v -0.114384 -0.0446022 -0.1143838
v -0.1617631 -0.0446022 -1.010749E-08
v -0.114384 -0.0446022 0.1143838
v -1.347666E-08 -0.0446022 0.1617633
v 0.1143838 -0.0446022 0.1143838
v 0.1617633 -0.0446022 -1.010749E-08
v -0.005263209 0.004498084 0.007196529
v 0.005263209 0.01431413 0.007196529
v -0.1276232 0.1357131 0.007196529
v -0.1170967 0.1455291 0.007196529
v -0.1276232 0.1357131 -0.007196529
v -0.1170967 0.1455291 -0.007196529
v -0.005263209 0.004498084 -0.007196529
v 0.005263209 0.01431413 -0.007196529
v -0.09775277 0.1209396 0.004573815
v -0.1044429 0.1147009 0.004573815
v -0.1044429 0.1147009 -0.004573815
v -0.09775277 0.1209396 -0.004573815
v 0.007196529 0.004497831 0.005262976
v 0.007196529 0.01431437 -0.005262976
v 0.007196529 0.135707 0.1276292
v 0.007196529 0.1455235 0.1171032
v -0.007196529 0.135707 0.1276292
v -0.007196529 0.1455235 0.1171032
v -0.007196529 0.004497831 0.005262976
v -0.007196529 0.01431437 -0.005262976
v 0.004894576 0.1230405 0.09928312
v 0.004894576 0.116364 0.1064421
v -0.004894576 0.116364 0.1064421
v -0.004894576 0.1230405 0.09928312
v 0.005262976 0.004497831 -0.007196529
v -0.005262976 0.01431437 -0.007196529
v 0.1276292 0.135707 -0.007196529
v 0.1171032 0.1455235 -0.007196529
v 0.1276292 0.135707 0.007196529
v 0.1171032 0.1455235 0.007196529
v 0.005262976 0.004497831 0.007196529
v -0.005262976 0.01431437 0.007196529
v 0.1071629 0.1175175 0.004634933
v 0.1071629 0.1175175 -0.004634933
v 0.1003836 0.1238399 -0.004634933
v 0.1003836 0.1238399 0.004634933
v -0.007196529 0.004498084 -0.005263209
v -0.007196529 0.01431413 0.005263209
v -0.00719653 0.1357131 -0.1276232
v -0.00719653 0.1455291 -0.1170967
v 0.007196527 0.1357131 -0.1276232
v 0.007196527 0.1455291 -0.1170967
v 0.007196529 0.004498084 -0.005263209
v 0.007196529 0.01431413 0.005263209
v 0.005223064 0.1247004 -0.100372
v 0.005223064 0.1175762 -0.1080119
v -0.005223064 0.1175762 -0.1080119
v -0.005223065 0.1247004 -0.100372
v -0.007196529 0.009406102 -0.007196529
v -0.007196529 0.009406102 0.007196529
v -0.00719653 0.18882 -0.007196529
v -0.00719653 0.18882 0.007196529
v 0.007196527 0.18882 -0.007196529
v 0.007196527 0.18882 0.007196529
v 0.007196529 0.009406102 -0.007196529
v 0.007196529 0.009406102 0.007196529
v 0.004804824 0.1547032 0.004804824
v 0.004804824 0.1547032 -0.004804824
v -0.004804825 0.1547032 -0.004804824
v -0.004804825 0.1547032 0.004804824
v 0.05682474 0.04780982 -0.05682474
v 0.04918686 0.057491 -0.04918686
v -2.079537E-09 0.04780982 -0.08036232
v 0 0.057491 -0.0695607
v -0.05682475 0.04780982 -0.05682473
v -0.04918686 0.057491 -0.04918686
v -0.08036232 0.04780982 -1.559651E-09
v -0.0695607 0.057491 0
v -0.05682475 0.04780982 0.05682473
v -0.04918686 0.057491 0.04918686
v -2.079533E-09 0.04780982 0.08036232
v 0 0.057491 0.0695607
v 0.05682474 0.04780982 0.05682474
v 0.04918686 0.057491 0.04918686
v 0.08036232 0.04780982 -1.559649E-09
v 0.06956073 0.057491 0
v 0.1143838 0.03281133 -0.1143838
v 0.1070856 0.04780982 -0.1070856
v -1.3976E-08 0.04780982 -0.1514418
v -1.347666E-08 0.03281133 -0.1617631
v -0.1070857 0.04780982 -0.1070856
v -0.114384 0.03281133 -0.1143838
v -0.1514418 0.04780982 -1.108984E-08
v -0.1617631 0.03281133 -1.010749E-08
v -0.1070857 0.04780982 0.1070856
v -0.114384 0.03281133 0.1143838
v -1.3976E-08 0.04780982 0.151442
v -1.347666E-08 0.03281133 0.1617633
v 0.1070856 0.04780982 0.1070856
v 0.1143838 0.03281133 0.1143838
v 0.151442 0.04780982 -1.108984E-08
v 0.1617633 0.03281133 -1.010749E-08
v 0 0.057491 -0.0695607
v -2.079537E-09 0.04780982 -0.08036232
v 0.04918686 0.057491 -0.04918686
v 0.05682474 0.04780982 -0.05682474
v 0.06956073 0.057491 0
v 0.08036232 0.04780982 -1.559649E-09
v -0.04918686 0.057491 -0.04918686
v -0.05682475 0.04780982 -0.05682473
v -0.0695607 0.057491 0
v -0.08036232 0.04780982 -1.559651E-09
v -0.05682475 0.04780982 0.05682473
v -0.04918686 0.057491 0.04918686
v -2.079533E-09 0.04780982 0.08036232
v 0 0.057491 0.0695607
v 0.04918686 0.057491 0.04918686
v 0.05682474 0.04780982 0.05682474
v 0.1617633 0.03281133 -1.010749E-08
v 0.151442 0.04780982 -1.108984E-08
v 0.1070856 0.04780982 -0.1070856
v 0.1143838 0.03281133 -0.1143838
v -1.347666E-08 0.03281133 -0.1617631
v -1.3976E-08 0.04780982 -0.1514418
v -0.1070857 0.04780982 -0.1070856
v -0.114384 0.03281133 -0.1143838
v -0.1514418 0.04780982 -1.108984E-08
v -0.1617631 0.03281133 -1.010749E-08
v -0.1070857 0.04780982 0.1070856
v -0.114384 0.03281133 0.1143838
v -1.347666E-08 0.03281133 0.1617633
v -1.3976E-08 0.04780982 0.151442
v 0.1070856 0.04780982 0.1070856
v 0.1143838 0.03281133 0.1143838
vt 0.509267 0.8638324
vt 0.509267 0.8638322
vt 0.509267 0.8638324
vt 0.509267 0.8638322
vt 0.509267 0.8638324
vt 0.509267 0.8638322
vt 0.509267 0.8638324
vt 0.509267 0.8638323
vt 0.509267 0.8638323
vt 0.509267 0.8638322
vt 0.509267 0.8638323
vt 0.509267 0.8638322
vt 0.509267 0.8638323
vt 0.509267 0.8638322
vt 0.509267 0.8638323
vt 0.509267 0.8638323
vt 0.509267 0.8638324
vt 0.513352 0.861109
vt 0.513352 0.861109
vt 0.513352 0.861109
vt 0.513352 0.861109
vt 0.513352 0.861109
vt 0.513352 0.861109
vt 0.513352 0.861109
vt 0.513352 0.861109
vt 0.4793101 0.8937892
vt 0.4793101 0.8937892
vt 0.47931 0.8937892
vt 0.47931 0.8937892
vt 0.47931 0.8937892
vt 0.47931 0.8937892
vt 0.4793101 0.8937892
vt 0.4793101 0.8937892
vt 0.4793101 0.852939
vt 0.4793101 0.852939
vt 0.4793102 0.852939
vt 0.4793102 0.852939
vt 0.4793102 0.8937893
vt 0.4793101 0.8937893
vt 0.4793101 0.8937893
vt 0.4793101 0.8937894
vt 0.4793101 0.8937893
vt 0.4793101 0.8937894
vt 0.4793101 0.8937893
vt 0.4793101 0.8937893
vt 0.4793101 0.852939
vt 0.4793101 0.852939
vt 0.47931 0.852939
vt 0.47931 0.852939
vt 0.4793101 0.8937893
vt 0.4793101 0.8937892
vt 0.4793101 0.8937893
vt 0.4793101 0.8937893
vt 0.4793101 0.8937892
vt 0.4793101 0.8937892
vt 0.4793101 0.8937893
vt 0.4793101 0.8937893
vt 0.47931 0.8529389
vt 0.4793101 0.852939
vt 0.4793101 0.852939
vt 0.47931 0.852939
vt 0.4793101 0.8937892
vt 0.4793101 0.8937892
vt 0.4793101 0.8937892
vt 0.4793101 0.8937892
vt 0.4793102 0.8937892
vt 0.4793102 0.8937892
vt 0.4793102 0.8937892
vt 0.4793102 0.8937892
vt 0.4793102 0.852939
vt 0.4793101 0.852939
vt 0.4793101 0.852939
vt 0.4793101 0.852939
vt 0.4793101 0.8937892
vt 0.4793101 0.8937892
vt 0.4793101 0.8937892
vt 0.4793101 0.8937892
vt 0.4793101 0.8937892
vt 0.4793101 0.8937892
vt 0.4793101 0.8937892
vt 0.4793101 0.8937892
vt 0.4793101 0.852939
vt 0.4793101 0.852939
vt 0.4793101 0.852939
vt 0.4793101 0.852939
vt 0.5065436 0.8897042
vt 0.509267 0.8638324
vt 0.5065436 0.8897041
vt 0.509267 0.8638322
vt 0.5065436 0.8897042
vt 0.509267 0.8638324
vt 0.5065435 0.889704
vt 0.509267 0.8638322
vt 0.5065436 0.8897043
vt 0.509267 0.8638324
vt 0.5065435 0.889704
vt 0.509267 0.8638322
vt 0.5065436 0.8897043
vt 0.509267 0.8638324
vt 0.5065436 0.8897042
vt 0.509267 0.8638324
vt 0.513352 0.8611089
vt 0.5065436 0.8897042
vt 0.5065436 0.8897042
vt 0.513352 0.8611089
vt 0.5065436 0.8897042
vt 0.513352 0.861109
vt 0.5065436 0.8897042
vt 0.513352 0.8611089
vt 0.5065436 0.8897042
vt 0.513352 0.8611089
vt 0.5065436 0.8897042
vt 0.513352 0.8611089
vt 0.5065436 0.8897042
vt 0.513352 0.8611089
vt 0.5065436 0.8897042
vt 0.513352 0.861109
vt 5.960464E-08 1
vt 1.192093E-07 1
vt 5.960464E-08 0.9999999
vt 1.192093E-07 0.9999999
vt 5.960464E-08 1
vt 1.192093E-07 1
vt 5.960464E-08 1
vt 1.192093E-07 1
vt 5.960464E-08 1
vt 1.192093E-07 1
vt 1.192093E-07 1
vt 1.192093E-07 1
vt 1.192093E-07 1
vt 5.960464E-08 1
vt 5.960464E-08 1
vt 1.192093E-07 1
vt 1.192093E-07 1
vt 5.960464E-08 1
vt 5.960464E-08 1
vt 1.192093E-07 1
vt 5.960464E-08 1
vt 5.960464E-08 1
vt 1.490116E-08 1
vt 1.490116E-08 1
vt 3.72529E-09 1
vt 2.328306E-10 1
vt 1.490116E-08 1
vt 1.490116E-08 1
vt 5.960464E-08 1
vt 5.960464E-08 1
vt 5.960464E-08 1
vt 1.192093E-07 1
vn 0.6184357 0.4848442 -0.6184363
vn 0 0.4848441 -0.8746006
vn -0.6184359 0.4848443 -0.618436
vn -0.8746006 0.4848441 0
vn -0.618436 0.4848442 0.618436
vn 0 0.4848441 0.8746006
vn 0.6184356 0.4848442 0.6184363
vn 0.8746006 0.4848441 0
vn 0.3506417 0.8683897 -0.3506419
vn 0 0.8683895 -0.4958827
vn -0.3506419 0.8683896 -0.3506419
vn -0.4958827 0.8683895 0
vn -0.3506419 0.8683896 0.3506418
vn 0 0.8683895 0.4958827
vn 0.3506417 0.8683897 0.350642
vn 0.4958823 0.8683897 0
vn 0 1 0
vn 0.7071064 0 -0.7071072
vn 1.935468E-07 0 -1
vn -0.707107 0 -0.7071065
vn -1 0 0
vn -0.7071074 0 0.7071061
vn 1.935469E-07 0 1
vn 0.7071068 0 0.7071068
vn 1 0 0
vn -0.5340425 -0.4638012 0.7068856
vn 0.4999243 0.5003885 0.7068856
vn -0.7921104 -0.04329594 0.6088405
vn 0.09844531 0.7871606 0.6088406
vn -0.7921104 -0.04329594 -0.6088405
vn 0.09844531 0.7871606 -0.6088406
vn -0.5340425 -0.4638012 -0.7068856
vn 0.4999243 0.5003885 -0.7068856
vn 0.5484976 0.4474881 0.706332
vn -0.4846593 -0.5159463 0.706332
vn -0.4846593 -0.5159463 -0.706332
vn 0.5484976 0.4474881 -0.706332
vn 0.706942 -0.4663757 0.5317204
vn 0.7069421 0.4979401 -0.5022833
vn 0.6075283 -0.04014936 0.7932826
vn 0.6075276 0.7885591 -0.09531359
vn -0.6075283 -0.04014936 0.7932826
vn -0.6075276 0.7885591 -0.09531359
vn -0.706942 -0.4663757 0.5317204
vn -0.7069421 0.4979401 -0.5022833
vn 0.7063591 0.4481385 -0.5479314
vn 0.7063591 -0.5153825 0.4852194
vn -0.7063591 -0.5153825 0.4852193
vn -0.7063591 0.4481385 -0.5479314
vn 0.5332099 -0.4647262 -0.7069064
vn -0.5007417 0.4995408 -0.7069064
vn 0.7888533 -0.05200797 -0.6123769
vn -0.1068345 0.7833145 -0.6123763
vn 0.7888533 -0.05200801 0.6123769
vn -0.1068345 0.7833145 0.6123764
vn 0.5332099 -0.4647262 0.7069064
vn -0.5007417 0.4995408 0.7069064
vn 0.4793303 -0.521264 0.7060638
vn 0.4793303 -0.521264 -0.7060638
vn -0.5533884 0.4418541 -0.7060639
vn -0.5533884 0.4418541 0.7060639
vn -0.7069889 -0.468807 -0.5295156
vn -0.7069889 0.4955234 0.5046021
vn -0.6051937 -0.03449543 -0.7953305
vn -0.6051937 0.7909868 0.0898909
vn 0.6051937 -0.03449536 -0.7953305
vn 0.6051937 0.7909869 0.0898909
vn 0.7069889 -0.468807 -0.5295156
vn 0.7069889 0.4955234 0.5046021
vn 0.7064489 0.4502558 0.5460767
vn 0.7064489 -0.5133382 -0.4872514
vn -0.7064489 -0.5133382 -0.4872514
vn -0.7064489 0.4502558 0.5460767
vn -0.7069153 0.02327275 -0.7069153
vn -0.7069153 0.02327275 0.7069153
vn -0.6037399 0.5205731 -0.6037399
vn -0.6037399 0.5205731 0.6037399
vn 0.6037399 0.5205731 -0.6037399
vn 0.6037399 0.5205731 0.6037399
vn 0.7069153 0.02327276 -0.7069153
vn 0.7069153 0.02327276 0.7069153
vn 0.7066005 -0.03783311 0.7066005
vn 0.7066005 -0.03783312 -0.7066005
vn -0.7066005 -0.03783314 -0.7066005
vn -0.7066005 -0.03783314 0.7066005
vn 0.247992 0.9364827 -0.247992
vn 0.6084018 0.509602 -0.6084021
vn 0 0.9364828 -0.3507135
vn 0 0.5096023 -0.86041
vn -0.2479919 0.9364828 -0.2479918
vn -0.6084018 0.5096025 -0.6084017
vn -0.3507135 0.9364828 0
vn -0.86041 0.5096024 0
vn -0.2479919 0.9364828 0.2479918
vn -0.6084018 0.5096025 0.6084017
vn 0 0.9364828 0.3507135
vn 0 0.5096022 0.8604101
vn 0.2479921 0.9364827 0.247992
vn 0.6084018 0.509602 0.608402
vn 0.3507139 0.9364827 0
vn 0.8604106 0.5096016 0
vn 0.6744473 0.3004005 -0.6744481
vn 0.3199612 0.8917676 -0.3199616
vn 0 0.8917674 -0.4524941
vn 1.91894E-07 0.3004001 -0.9538133
vn -0.3199615 0.8917675 -0.3199614
vn -0.674448 0.3004003 -0.6744477
vn -0.4524942 0.8917674 0
vn -0.9538133 0.3004001 0
vn -0.3199619 0.8917674 0.3199613
vn -0.6744485 0.3004001 0.6744473
vn 0 0.8917675 0.4524939
vn 1.918941E-07 0.3004003 0.9538133
vn 0.3199615 0.8917675 0.3199615
vn 0.6744478 0.3004004 0.6744478
vn 0.4524936 0.8917677 0
vn 0.9538131 0.3004006 0
vn 0 0.5096023 -0.86041
vn 0 0.9364828 -0.3507135
vn 0.6084018 0.509602 -0.6084021
vn 0.247992 0.9364827 -0.247992
vn 0.8604106 0.5096016 0
vn 0.3507139 0.9364827 0
vn -0.6084018 0.5096025 -0.6084017
vn -0.2479919 0.9364828 -0.2479918
vn -0.86041 0.5096024 0
vn -0.3507135 0.9364828 0
vn -0.2479919 0.9364828 0.2479918
vn -0.6084018 0.5096025 0.6084017
vn 0 0.9364828 0.3507135
vn 0 0.5096022 0.8604101
vn 0.6084018 0.509602 0.608402
vn 0.2479921 0.9364827 0.247992
vn 0.9538131 0.3004006 0
vn 0.4524936 0.8917677 0
vn 0.3199612 0.8917676 -0.3199616
vn 0.6744473 0.3004005 -0.6744481
vn 1.91894E-07 0.3004001 -0.9538133
vn 0 0.8917674 -0.4524941
vn -0.3199615 0.8917675 -0.3199614
vn -0.674448 0.3004003 -0.6744477
vn -0.4524942 0.8917674 0
vn -0.9538133 0.3004001 0
vn -0.3199619 0.8917674 0.3199613
vn -0.6744485 0.3004001 0.6744473
vn 1.918941E-07 0.3004003 0.9538133
vn 0 0.8917675 0.4524939
vn 0.3199615 0.8917675 0.3199615
vn 0.6744478 0.3004004 0.6744478
g landmine_geo_0
f 7/7/7 99/99/99 101/101/101
f 97/97/97 99/99/99 7/7/7
f 6/6/6 97/97/97 7/7/7
f 5/5/5 97/97/97 6/6/6
f 13/13/13 5/5/5 6/6/6
f 4/4/4 5/5/5 13/13/13
f 12/12/12 4/4/4 13/13/13
f 11/11/11 4/4/4 12/12/12
f 17/17/17 11/11/11 12/12/12
f 10/10/10 11/11/11 17/17/17
f 9/9/9 10/10/10 17/17/17
f 2/2/2 10/10/10 9/9/9
f 1/1/1 2/2/2 9/9/9
f 89/89/89 2/2/2 1/1/1
f 87/87/87 89/89/89 1/1/1
f 93/93/93 5/5/5 4/4/4
f 3/3/3 93/93/93 4/4/4
f 91/91/91 93/93/93 3/3/3
f 89/89/89 91/91/91 3/3/3
f 95/95/95 5/5/5 93/93/93
f 97/97/97 5/5/5 95/95/95
f 13/13/13 17/17/17 12/12/12
f 14/14/14 17/17/17 13/13/13
f 6/6/6 14/14/14 13/13/13
f 15/15/15 14/14/14 6/6/6
f 7/7/7 15/15/15 6/6/6
f 16/16/16 15/15/15 7/7/7
f 8/8/8 16/16/16 7/7/7
f 1/1/1 16/16/16 8/8/8
f 101/101/101 1/1/1 8/8/8
f 87/87/87 1/1/1 101/101/101
f 102/102/102 18/18/18 105/105/105
f 25/25/25 18/18/18 102/102/102
f 117/117/117 25/25/25 102/102/102
f 24/24/24 25/25/25 117/117/117
f 115/115/115 24/24/24 117/117/117
f 23/23/23 24/24/24 115/115/115
f 113/113/113 23/23/23 115/115/115
f 22/22/22 23/23/23 113/113/113
f 111/111/111 22/22/22 113/113/113
f 21/21/21 22/22/22 111/111/111
f 109/109/109 21/21/21 111/111/111
f 20/20/20 21/21/21 109/109/109
f 107/107/107 20/20/20 109/109/109
f 19/19/19 20/20/20 107/107/107
f 105/105/105 19/19/19 107/107/107
f 18/18/18 19/19/19 105/105/105
f 103/103/103 86/86/86 100/100/100
f 88/88/88 86/86/86 103/103/103
f 104/104/104 88/88/88 103/103/103
f 90/90/90 88/88/88 104/104/104
f 106/106/106 90/90/90 104/104/104
f 108/108/108 90/90/90 106/106/106
f 94/94/94 110/110/110 112/112/112
f 108/108/108 110/110/110 94/94/94
f 92/92/92 108/108/108 94/94/94
f 90/90/90 108/108/108 92/92/92
f 114/114/114 100/100/100 98/98/98
f 96/96/96 114/114/114 98/98/98
f 112/112/112 114/114/114 96/96/96
f 94/94/94 112/112/112 96/96/96
f 116/116/116 100/100/100 114/114/114
f 103/103/103 100/100/100 116/116/116
f 28/28/28 31/31/31 30/30/30
f 29/29/29 31/31/31 28/28/28
f 34/34/34 29/29/29 28/28/28
f 31/31/31 29/29/29 34/34/34
f 37/37/37 31/31/31 34/34/34
f 30/30/30 31/31/31 37/37/37
f 36/36/36 30/30/30 37/37/37
f 28/28/28 30/30/30 36/36/36
f 35/35/35 28/28/28 36/36/36
f 34/34/34 28/28/28 35/35/35
f 27/27/27 34/34/34 35/35/35
f 37/37/37 34/34/34 27/27/27
f 33/33/33 37/37/37 27/27/27
f 36/36/36 37/37/37 33/33/33
f 32/32/32 36/36/36 33/33/33
f 35/35/35 36/36/36 32/32/32
f 26/26/26 35/35/35 32/32/32
f 27/27/27 35/35/35 26/26/26
f 49/49/49 45/45/45 44/44/44
f 39/39/39 45/45/45 49/49/49
f 46/46/46 39/39/39 49/49/49
f 38/38/38 39/39/39 46/46/46
f 47/47/47 38/38/38 46/46/46
f 44/44/44 38/38/38 47/47/47
f 48/48/48 44/44/44 47/47/47
f 49/49/49 44/44/44 48/48/48
f 43/43/43 49/49/49 48/48/48
f 46/46/46 49/49/49 43/43/43
f 41/41/41 46/46/46 43/43/43
f 47/47/47 46/46/46 41/41/41
f 40/40/40 47/47/47 41/41/41
f 48/48/48 47/47/47 40/40/40
f 42/42/42 48/48/48 40/40/40
f 43/43/43 48/48/48 42/42/42
f 40/40/40 43/43/43 42/42/42
f 41/41/41 43/43/43 40/40/40
f 61/61/61 57/57/57 56/56/56
f 51/51/51 57/57/57 61/61/61
f 60/60/60 51/51/51 61/61/61
f 50/50/50 51/51/51 60/60/60
f 59/59/59 50/50/50 60/60/60
f 56/56/56 50/50/50 59/59/59
f 58/58/58 56/56/56 59/59/59
f 61/61/61 56/56/56 58/58/58
f 55/55/55 61/61/61 58/58/58
f 60/60/60 61/61/61 55/55/55
f 53/53/53 60/60/60 55/55/55
f 59/59/59 60/60/60 53/53/53
f 52/52/52 59/59/59 53/53/53
f 58/58/58 59/59/59 52/52/52
f 54/54/54 58/58/58 52/52/52
f 55/55/55 58/58/58 54/54/54
f 52/52/52 55/55/55 54/54/54
f 53/53/53 55/55/55 52/52/52
f 72/72/72 62/62/62 63/63/63
f 68/68/68 62/62/62 72/72/72
f 71/71/71 68/68/68 72/72/72
f 69/69/69 68/68/68 71/71/71
f 70/70/70 69/69/69 71/71/71
f 63/63/63 69/69/69 70/70/70
f 73/73/73 63/63/63 70/70/70
f 72/72/72 63/63/63 73/73/73
f 64/64/64 72/72/72 73/73/73
f 66/66/66 72/72/72 64/64/64
f 67/67/67 66/66/66 64/64/64
f 70/70/70 66/66/66 67/67/67
f 73/73/73 70/70/70 67/67/67
f 83/83/83 80/80/80 74/74/74
f 81/81/81 80/80/80 83/83/83
f 82/82/82 81/81/81 83/83/83
f 75/75/75 81/81/81 82/82/82
f 85/85/85 75/75/75 82/82/82
f 74/74/74 75/75/75 85/85/85
f 84/84/84 74/74/74 85/85/85
f 83/83/83 74/74/74 84/84/84
f 78/78/78 83/83/83 84/84/84
f 82/82/82 83/83/83 78/78/78
f 79/79/79 82/82/82 78/78/78
f 85/85/85 82/82/82 79/79/79
f 77/77/77 85/85/85 79/79/79
f 84/84/84 85/85/85 77/77/77
f 76/76/76 84/84/84 77/77/77
f 78/78/78 84/84/84 76/76/76
f 79/79/79 78/78/78 76/76/76
f 119/119/119 124/124/124 118/118/118
f 120/120/120 119/119/119 118/118/118
f 121/121/121 119/119/119 120/120/120
f 122/122/122 121/121/121 120/120/120
f 123/123/123 121/121/121 122/122/122
f 133/133/133 123/123/123 122/122/122
f 126/126/126 127/127/127 128/128/128
f 125/125/125 127/127/127 126/126/126
f 124/124/124 125/125/125 126/126/126
f 119/119/119 125/125/125 124/124/124
f 130/130/130 132/132/132 131/131/131
f 129/129/129 130/130/130 131/131/131
f 128/128/128 130/130/130 129/129/129
f 126/126/126 128/128/128 129/129/129
f 133/133/133 132/132/132 130/130/130
f 122/122/122 132/132/132 133/133/133
f 148/148/148 146/146/146 149/149/149
f 134/134/134 148/148/148 149/149/149
f 135/135/135 148/148/148 134/134/134
f 136/136/136 135/135/135 134/134/134
f 138/138/138 140/140/140 139/139/139
f 136/136/136 138/138/138 139/139/139
f 137/137/137 138/138/138 136/136/136
f 134/134/134 137/137/137 136/136/136
f 143/143/143 144/144/144 142/142/142
f 140/140/140 143/143/143 142/142/142
f 141/141/141 143/143/143 140/140/140
f 138/138/138 141/141/141 140/140/140
f 146/146/146 148/148/148 147/147/147
f 144/144/144 146/146/146 147/147/147
f 145/145/145 146/146/146 144/144/144
f 143/143/143 145/145/145 144/144/144
f 3/3/3 2/2/2 89/89/89
f 11/11/11 2/2/2 3/3/3
f 4/4/4 11/11/11 3/3/3
f 8/8/8 7/7/7 101/101/101
f 10/10/10 2/2/2 11/11/11
f 17/17/17 14/14/14 15/15/15
f 16/16/16 17/17/17 15/15/15
f 9/9/9 17/17/17 16/16/16
f 1/1/1 9/9/9 16/16/16
f 65/65/65 73/73/73 67/67/67
f 64/64/64 73/73/73 65/65/65
f 67/67/67 64/64/64 65/65/65
f 71/71/71 66/66/66 70/70/70
f 72/72/72 66/66/66 71/71/71
f 77/77/77 79/79/79 76/76/76
