g larchStump_geo
v 0.1761719 0.02385149 -0.3804443
v -0.2322266 0.02385402 -0.2526465
v -0.2109375 0.023859 -0.005007324
v -0.3406641 0.02385421 0.3431787
v -0.01070313 0.02385109 0.1836987
v 0.3740625 0.02385487 0.283877
v 0.2402344 0.02385757 0
v 0.08457031 0.1523706 -0.1879395
v -0.108457 0.1961865 -0.1585449
v -0.1570703 0.1523744 -0.005942383
v -0.1329297 0.196187 0.1523926
v -0.006484375 0.1523705 0.1357739
v 0.1078516 0.1961859 0.1584448
v 0.1823438 0.1523724 -0.002172851
v 0.1860352 0.02385503 -0.1029736
v -0.06742188 0.02385325 -0.2198608
v -0.1058984 0.02385207 0.1975562
v -0.2205859 0.110909 0.1916748
v -0.258164 0.0238571 0.09207519
v -0.1300586 0.124766 -0.1714624
v 0.1211523 0.02385281 0.2504956
v 0.1759375 0.1280341 0.2266772
v 0.2531836 0.02385668 0.1075781
v -0.1296094 0.4542868 0.1488379
v -0.006074219 0.4120449 0.1328369
v 0.1060156 0.4715417 0.1544971
v 0.1790039 0.3986779 -0.002629394
v 0.08300781 0.4834963 -0.1842236
v -0.1063672 0.4155871 -0.1562866
v -0.1531445 0.4805533 -0.006374511
v 0.009453124 0.4419287 -0.009248046
v -0.1006229 0.420038 0.1158861
v -0.002328376 0.420038 0.09856009
v 0.08672808 0.420038 0.1217904
v 0.1476909 0.420038 -0.003851741
v 0.06770444 0.420038 -0.1478192
v -0.0819885 0.420038 -0.1253369
v -0.1236637 0.420038 -0.006895517
v -0.1296094 0.4542868 0.1488379
v -0.006074219 0.4120449 0.1328369
v 0.1060156 0.4715417 0.1544971
v 0.1790039 0.3986779 -0.002629394
v 0.08300781 0.4834963 -0.1842236
v -0.1063672 0.4155871 -0.1562866
v -0.1531445 0.4805533 -0.006374511
vt 0.6058247 0.1923514
vt 0.6183422 0.0968276
vt 0.6232796 0.05915048
vt 0.6211414 0.07546788
vt 0.6155432 0.1181876
vt 0.6086238 0.1709915
vt 0.6019565 0.2218697
vt 0.5821286 0.1906969
vt 0.5944276 0.09683916
vt 0.5992789 0.0598191
vt 0.5971779 0.07585168
vt 0.5916775 0.1178264
vt 0.5848787 0.1697094
vt 0.5783278 0.2197004
vt 0.6035697 0.2095598
vt 0.6144948 0.1261879
vt 0.6172897 0.1048606
vt 0.6076231 0.07568439
vt 0.622429 0.06564126
vt 0.6043386 0.09683437
vt 0.6124051 0.1421358
vt 0.5942692 0.1702164
vt 0.6041236 0.2053328
vt 0.5881336 0.07599661
vt 0.5826688 0.1176901
vt 0.5753178 0.1691932
vt 0.5682457 0.218449
vt 0.5707227 0.1899004
vt 0.5858913 0.09684325
vt 0.5878293 0.06013807
vt 0.3750519 0.6112726
vt 0.151926 0.3631594
vt 0.3497212 0.3890422
vt 0.5236404 0.3542379
vt 0.6647409 0.6046327
vt 0.4793564 0.8795274
vt 0.1874726 0.8509827
vt 0.110626 0.6084805
vt 0.0706428 0.2849275
vt 0.3428296 0.3167347
vt 0.5959319 0.2528621
vt 0.7400578 0.6014982
vt 0.5449543 1.010158
vt 0.1400433 0.9146389
vt -0.02225864 0.6026607
vn 0.2554869 0.8558158 -0.4497842
vn -0.3641934 0.7791597 -0.51017
vn -0.8315031 0.5433177 -0.115795
vn -0.2505749 0.9117985 0.3253241
vn -0.1073941 0.3552795 0.9285704
vn 0.3022303 0.8310928 0.4668422
vn 0.8476995 0.4905722 -0.2018522
vn 0.414756 0.444088 -0.794206
vn -0.6421088 0.2078153 -0.7379086
vn -0.958479 0.245408 -0.145234
vn -0.5814059 0.3422755 0.7381156
vn -0.07054672 0.1840249 0.9803867
vn 0.4162818 0.3634356 0.8334411
vn 0.9551588 0.2699292 -0.1216953
vn 0.8326373 0.5001653 -0.2378021
vn -0.1267406 0.5145716 -0.8480288
vn 0.3084991 0.4599589 0.8326261
vn -0.3758967 0.8046561 0.4595979
vn -0.7816246 0.5831187 -0.2214399
vn -0.5077305 0.597079 -0.6210526
vn -0.2576404 0.3390115 0.9048163
vn 0.3080479 0.7692335 0.5598093
vn 0.6873842 0.7085447 -0.1595851
vn 0.0663163 0.8942136 0.442701
vn -0.03001753 0.8438397 0.5357551
vn 0.1575886 0.9474294 0.278466
vn 0.5409485 0.8410079 0.008970612
vn 0.1706821 0.9602911 -0.2207002
vn -0.2735333 0.897898 -0.3449037
vn -0.299502 0.9448131 -0.1327657
vn -0.007559735 0.9995961 0.02739917
vn 0.2365325 0.9706042 -0.04449508
vn -0.003986052 0.9936267 -0.1126501
vn -0.08413362 0.9830182 -0.1630856
vn -0.1024953 0.9946345 0.01403678
vn -0.08859876 0.9691321 0.2300723
vn 0.1328038 0.9808087 0.142749
vn 0.3517761 0.9359489 -0.01590636
vn 0.0663163 0.8942136 0.442701
vn -0.03001753 0.8438397 0.5357551
vn 0.1575886 0.9474294 0.278466
vn 0.5409485 0.8410079 0.008970612
vn 0.1706821 0.9602911 -0.2207002
vn -0.2735333 0.897898 -0.3449037
vn -0.299502 0.9448131 -0.1327657
g larchStump_geo_0
f 18/18/18 19/19/19 4/4/4
f 3/3/3 19/19/19 18/18/18
f 10/10/10 3/3/3 18/18/18
f 20/20/20 3/3/3 10/10/10
f 9/9/9 20/20/20 10/10/10
f 16/16/16 20/20/20 9/9/9
f 8/8/8 16/16/16 9/9/9
f 1/1/1 16/16/16 8/8/8
f 15/15/15 1/1/1 8/8/8
f 17/17/17 18/18/18 4/4/4
f 11/11/11 18/18/18 17/17/17
f 5/5/5 11/11/11 17/17/17
f 12/12/12 11/11/11 5/5/5
f 13/13/13 12/12/12 5/5/5
f 26/26/26 12/12/12 13/13/13
f 27/27/27 26/26/26 13/13/13
f 7/7/7 15/15/15 8/8/8
f 14/14/14 7/7/7 8/8/8
f 22/22/22 7/7/7 14/14/14
f 13/13/13 22/22/22 14/14/14
f 21/21/21 22/22/22 13/13/13
f 5/5/5 21/21/21 13/13/13
f 22/22/22 23/23/23 7/7/7
f 6/6/6 23/23/23 22/22/22
f 21/21/21 6/6/6 22/22/22
f 20/20/20 2/2/2 3/3/3
f 16/16/16 2/2/2 20/20/20
f 14/14/14 27/27/27 13/13/13
f 28/28/28 27/27/27 14/14/14
f 8/8/8 28/28/28 14/14/14
f 29/29/29 28/28/28 8/8/8
f 9/9/9 29/29/29 8/8/8
f 30/30/30 29/29/29 9/9/9
f 10/10/10 30/30/30 9/9/9
f 24/24/24 30/30/30 10/10/10
f 11/11/11 24/24/24 10/10/10
f 25/25/25 24/24/24 11/11/11
f 12/12/12 25/25/25 11/11/11
f 26/26/26 25/25/25 12/12/12
f 32/32/32 39/39/39 33/33/33
f 45/45/45 39/39/39 32/32/32
f 38/38/38 45/45/45 32/32/32
f 44/44/44 45/45/45 38/38/38
f 37/37/37 44/44/44 38/38/38
f 43/43/43 44/44/44 37/37/37
f 36/36/36 43/43/43 37/37/37
f 42/42/42 43/43/43 36/36/36
f 35/35/35 42/42/42 36/36/36
f 41/41/41 42/42/42 35/35/35
f 34/34/34 41/41/41 35/35/35
f 40/40/40 41/41/41 34/34/34
f 33/33/33 40/40/40 34/34/34
f 39/39/39 40/40/40 33/33/33
f 11/11/11 10/10/10 18/18/18
f 31/31/31 33/33/33 34/34/34
f 32/32/32 33/33/33 31/31/31
f 38/38/38 32/32/32 31/31/31
f 31/31/31 36/36/36 37/37/37
f 35/35/35 36/36/36 31/31/31
f 34/34/34 35/35/35 31/31/31
f 31/31/31 37/37/37 38/38/38
