g lobsterTank_geo
v -0.8334082 0 0.38198
v -0.843407 0 0.3719812
v -0.8334082 0.01923706 0.38198
v -0.843407 0.01923706 0.3719812
v 0.8434082 0 0.3719812
v 0.8334094 0 0.38198
v 0.8334094 0.01923706 0.38198
v 0.8434082 0.01923706 0.3719812
v -0.8334067 0.7520245 -0.38198
v -0.8434067 0.7520245 -0.3719812
v -0.8334079 0.01923706 -0.38198
v -0.8434067 0.01923706 -0.3719812
v 0.8434082 0.7520245 -0.3719812
v 0.8334082 0.7520245 -0.38198
v 0.8434082 0.01923706 -0.3719812
v 0.8334094 0.01923706 -0.38198
v -0.833407 0.7520245 0.38198
v -0.843407 0.7520245 0.3719812
v -0.8326257 0.7640362 0.3646155
v -0.8226269 0.7640362 0.3746142
v 0.8434082 0.7520245 0.3719812
v 0.8334082 0.7520245 0.38198
v 0.8226281 0.7640362 0.3746142
v 0.8326269 0.7640362 0.3646155
v 0.8326269 0.7640362 -0.3646155
v 0.8226281 0.7640362 -0.3746142
v -0.8226267 0.7640362 -0.3746142
v -0.8326254 0.7640362 -0.3646155
v -0.8434067 0 -0.3719812
v -0.8334079 0 -0.38198
v 0.8334094 0 -0.38198
v 0.8434082 0 -0.3719812
v -0.8334082 0.1745648 0.38198
v 0.8334094 0.1745648 0.38198
v 0.8434082 0.1745648 0.3719812
v 0.8434082 0.1745648 -0.3719812
v 0.8334094 0.1745648 -0.38198
v -0.8334079 0.1745648 -0.38198
v -0.8434067 0.1745648 -0.3719812
v -0.843407 0.1745648 0.3719812
v -0.833407 0.6880804 0.38198
v 0.8334082 0.6880804 0.38198
v 0.8434082 0.6880804 0.3719812
v 0.8434082 0.6880804 -0.3719812
v 0.8334082 0.6880804 -0.38198
v -0.8334067 0.6880804 -0.38198
v -0.8434067 0.6880804 -0.3719812
v -0.843407 0.6880804 0.3719812
v -0.833407 0.6753833 0.38198
v 0.8334094 0.6753833 0.38198
v 0.8434082 0.6753833 0.3719812
v 0.8434082 0.6753833 -0.3719812
v 0.8334082 0.6753833 -0.38198
v -0.8334067 0.6753833 -0.38198
v -0.8434079 0.6753833 -0.3719812
v -0.843407 0.6753833 0.3719812
v -0.843407 0.1608704 0.3719812
v -0.8434067 0.1608704 -0.3719812
v -0.8334067 0.1608704 -0.38198
v 0.8334094 0.1608704 -0.38198
v 0.8434082 0.1608704 -0.3719812
v 0.8434082 0.1608704 0.3719812
v 0.8334094 0.1608704 0.38198
v -0.833407 0.1608704 0.38198
v -0.8334082 0.1745648 0.3719812
v -0.8334082 0.6753833 0.3719812
v -0.8334079 0.6753833 -0.3719812
v -0.8334079 0.1745648 -0.3719812
v 0.8334094 0.1745648 -0.3719812
v 0.8334094 0.6753833 -0.3719812
v 0.8334094 0.6753833 0.3719812
v 0.8334094 0.1745648 0.3719812
v -0.8326257 0.6753833 0.3646155
v -0.8326254 0.6753833 -0.3646155
v -0.8226269 0.6753833 0.3746142
v 0.8226281 0.6753833 0.3746142
v 0.8326269 0.6753833 0.3646155
v 0.8326269 0.6753833 -0.3646155
v -0.8226267 0.6753833 -0.3746142
v 0.8226281 0.6753833 -0.3746142
v -0.8434067 0.7520245 -0.3719812
v -0.843407 0.7520245 0.3719812
v 0.8334082 0.7520245 -0.38198
v -0.8334067 0.7520245 -0.38198
v 0.8434082 0.7520245 0.3719812
v 0.8434082 0.7520245 -0.3719812
v -0.833407 0.7520245 0.38198
v 0.8334082 0.7520245 0.38198
v -0.843407 0.6880804 0.3719812
v -0.833407 0.6880804 0.38198
v 0.8334082 0.6880804 0.38198
v 0.8434082 0.6880804 0.3719812
v -0.8334067 0.6880804 -0.38198
v -0.8434067 0.6880804 -0.3719812
v 0.8434082 0.6880804 -0.3719812
v 0.8334082 0.6880804 -0.38198
v 0.8334094 0.01923706 0.38198
v -0.8334082 0.01923706 0.38198
v 0.8334094 0.1608704 0.38198
v 0.8434082 0.01923706 0.3719812
v 0.8434082 0.1608704 0.3719812
v 0.8434082 0.01923706 -0.3719812
v 0.8434082 0.1608704 -0.3719812
v -0.8434067 0.01923706 -0.3719812
v -0.8434067 0.1608704 -0.3719812
v -0.843407 0.01923706 0.3719812
v -0.833407 0.1608704 0.38198
v -0.843407 0.1608704 0.3719812
v -0.8334082 0.1745648 0.38198
v 0.8334094 0.1745648 -0.38198
v 0.8334094 0.1745648 0.38198
v -0.8334079 0.1745648 -0.38198
v -0.8434067 0.1745648 -0.3719812
v -0.843407 0.1745648 0.3719812
v 0.8434082 0.1745648 0.3719812
v 0.8434082 0.1745648 -0.3719812
v -0.8326254 0.7640362 -0.3646155
v -0.8326257 0.7640362 0.3646155
v -0.8226269 0.7640362 0.3746142
v 0.8226281 0.7640362 0.3746142
v 0.8326269 0.7640362 0.3646155
v 0.8326269 0.7640362 -0.3646155
v 0.8226281 0.7640362 -0.3746142
v -0.8226267 0.7640362 -0.3746142
v -0.8326254 0.6753833 -0.3646155
v -0.8226267 0.6753833 -0.3746142
v 0.8226281 0.6753833 -0.3746142
v 0.8326269 0.6753833 -0.3646155
v -0.8226269 0.6753833 0.3746142
v -0.8326257 0.6753833 0.3646155
v 0.8326269 0.6753833 0.3646155
v 0.8226281 0.6753833 0.3746142
vt 0 1
vt 0 1
vt 0 1
vt 0 1
vt 0 1
vt 0 1
vt 0 1
vt 0 1
vt 0 1
vt 0 1
vt 0 1
vt 0 1
vt 0 1
vt 0 1
vt 0 1
vt 0 1
vt 0 1
vt 0 1
vt 0 1
vt 0 1
vt 0 1
vt 0 1
vt 0 1
vt 0 1
vt 0 1
vt 0 1
vt 0 1
vt 0 1
vt 0 1
vt 0 1
vt 0 1
vt 0 1
vt 0 1
vt 0 1
vt 0 1
vt 0 1
vt 0 1
vt 0 1
vt 0 1
vt 0 1
vt 0.7784352 0.9049376
vt 0.7784352 0.9049376
vt 0.7784352 0.9049376
vt 0.7784353 0.9049376
vt 0.7784352 0.9049376
vt 0.7784352 0.9049376
vt 0.7784352 0.9049376
vt 0.7784353 0.9049376
vt 0 1
vt 0 1
vt 0 1
vt 0 1
vt 0 1
vt 0 1
vt 0 1
vt 0 1
vt 0.2669477 0.3401213
vt 0 1
vt 0 1
vt 0 1
vt 0.2669477 0.3401213
vt 0 1
vt 0.2669477 0.3401213
vt 0.2669477 0.3401213
vt 0 1
vt 0 1
vt 0 1
vt 0 1
vt 0 1
vt 0 1
vt 0 1
vt 0 1
vt 0.02835463 0.9716454
vt 0.02835463 0.9716454
vt 0.02835463 0.9716454
vt 0.02835463 0.9716454
vt 0.02835463 0.9716454
vt 0.02835463 0.9716454
vt 0.02835463 0.9716454
vt 0.02835463 0.9716454
vt 0.7784352 0.9049376
vt 0.7784353 0.9049376
vt 0.7784352 0.9049376
vt 0.7784352 0.9049376
vt 0.7784352 0.9049376
vt 0.7784353 0.9049376
vt 0.7784352 0.9049376
vt 0.7784352 0.9049376
vt 0 1
vt 0 1
vt 0 1
vt 0 1
vt 0 1
vt 0 1
vt 0 1
vt 0 1
vt 0.2669477 0.3401213
vt 0.2669477 0.3401213
vt 0 1
vt 0.2669477 0.3401213
vt 0.2669477 0.3401213
vt 0.2669477 0.3401213
vt 0 1
vt 0.2669477 0.3401213
vt 0.2669477 0.3401213
vt 0.2669477 0.3401213
vt 0 1
vt 0 1
vt 0.2641966 0.3504381
vt 0.2641966 0.3504381
vt 0.2641966 0.3504381
vt 0.2641966 0.3504381
vt 0.2641966 0.3504381
vt 0.2641966 0.3504381
vt 0.2641966 0.3504381
vt 0.2641966 0.3504381
vt 0.02835463 0.9716454
vt 0.02835463 0.9716454
vt 0.02835463 0.9716454
vt 0.02835463 0.9716454
vt 0.02835463 0.9716454
vt 0.02835463 0.9716454
vt 0.02835463 0.9716454
vt 0.02835463 0.9716454
vt 0 1
vt 0 1
vt 0 1
vt 0 1
vt 0 1
vt 0 1
vt 0 1
vt 0 1
vn -0.3826832 0 0.9238796
vn -0.9238795 0 0.3826835
vn -0.3826765 8.246363E-07 0.9238825
vn -0.9238768 8.246415E-07 0.3826903
vn 0.9238794 0 0.3826837
vn 0.3826832 0 0.9238796
vn 0.3826835 0 0.9238795
vn 0.9238795 0 0.3826834
vn -0.3401461 0.3580057 -0.8695588
vn -0.8477256 0.4038583 -0.3438895
vn -0.3826765 8.246363E-07 -0.9238825
vn -0.9238766 8.246414E-07 -0.3826906
vn 0.847725 0.4038595 -0.3438891
vn 0.3401459 0.3580062 -0.8695588
vn 0.9238795 0 -0.3826833
vn 0.3826835 0 -0.9238795
vn -0.3401459 0.3580068 0.8695585
vn -0.8477256 0.4038588 0.3438888
vn 0.3208882 0.935204 -0.149747
vn 0.1688745 0.9449927 -0.2801256
vn 0.847725 0.4038595 0.3438891
vn 0.3401459 0.3580068 0.8695585
vn -0.1688745 0.9449927 -0.2801256
vn -0.3208889 0.9352038 -0.1497468
vn -0.3208889 0.9352038 0.1497468
vn -0.1688748 0.9449927 0.2801252
vn 0.1688742 0.944993 0.2801248
vn 0.3208879 0.9352042 0.1497467
vn -0.9238794 0 -0.3826838
vn -0.3826832 0 -0.9238796
vn 0.3826832 0 -0.9238796
vn 0.9238794 0 -0.3826837
vn -0.130974 0.6324533 0.7634451
vn 0.1309859 0.6324555 0.7634413
vn 0.912487 0.3779645 0.156558
vn 0.9124843 0.3779671 -0.1565671
vn 0.1309804 0.632462 -0.7634369
vn -0.1309666 0.6324505 -0.7634488
vn -0.9124835 0.3779612 -0.1565861
vn -0.912486 0.3779592 0.1565766
vn -0.3826552 0 0.9238912
vn 0.3826619 9.198542E-06 0.9238884
vn 0.9238707 9.198719E-06 0.382705
vn 0.9238678 0 -0.3827118
vn 0.3826552 0 -0.9238912
vn -0.3826484 9.197946E-06 -0.923894
vn -0.923865 2.178711E-05 -0.3827185
vn -0.9238678 1.258884E-05 0.3827118
vn -0.1690761 -1.457533E-07 0.985603
vn 0.1690916 1.387777E-05 0.9856004
vn 0.9855967 1.387798E-05 0.1691123
vn 0.9855934 3.518503E-07 -0.169132
vn 0.1690761 -1.457533E-07 -0.985603
vn -0.1690564 1.337932E-05 -0.9856064
vn -0.98559 3.287063E-05 -0.1691515
vn -0.9855934 1.934466E-05 0.1691322
vn -0.9238738 -7.70415E-06 0.3826972
vn -0.9238736 -7.704147E-06 -0.3826976
vn -0.3826694 -7.704052E-06 -0.9238853
vn 0.3826835 0 -0.9238795
vn 0.9238795 0 -0.3826834
vn 0.9238795 0 0.3826834
vn 0.3826835 0 0.9238795
vn -0.3826694 -7.704052E-06 0.9238853
vn 0.7070851 -8.618345E-07 -0.7071283
vn 0.7070851 -8.618345E-07 -0.7071283
vn 0.7070851 -8.618345E-07 0.7071283
vn 0.7070851 -8.618345E-07 0.7071283
vn -0.7070851 -8.618345E-07 0.7071283
vn -0.7070851 -8.618345E-07 0.7071283
vn -0.7071068 0 -0.7071068
vn -0.7071068 0 -0.7071068
vn 0.9238794 0 -0.3826838
vn 0.9238792 0 0.3826842
vn 0.3826829 0 -0.9238798
vn -0.3826829 0 -0.9238798
vn -0.9238793 0 -0.382684
vn -0.9238793 0 0.382684
vn 0.3826829 0 0.9238798
vn -0.3826829 0 0.9238798
vn -0.8477256 0.4038583 -0.3438895
vn -0.8477256 0.4038588 0.3438888
vn 0.3401459 0.3580062 -0.8695588
vn -0.3401461 0.3580057 -0.8695588
vn 0.847725 0.4038595 0.3438891
vn 0.847725 0.4038595 -0.3438891
vn -0.3401459 0.3580068 0.8695585
vn 0.3401459 0.3580068 0.8695585
vn -0.9238678 1.258884E-05 0.3827118
vn -0.3826552 0 0.9238912
vn 0.3826619 9.198542E-06 0.9238884
vn 0.9238707 9.198719E-06 0.382705
vn -0.3826484 9.197946E-06 -0.923894
vn -0.923865 2.178711E-05 -0.3827185
vn 0.9238678 0 -0.3827118
vn 0.3826552 0 -0.9238912
vn 0.3826835 0 0.9238795
vn -0.3826765 8.246363E-07 0.9238825
vn 0.3826835 0 0.9238795
vn 0.9238795 0 0.3826834
vn 0.9238795 0 0.3826834
vn 0.9238795 0 -0.3826833
vn 0.9238795 0 -0.3826834
vn -0.9238766 8.246414E-07 -0.3826906
vn -0.9238736 -7.704147E-06 -0.3826976
vn -0.9238768 8.246415E-07 0.3826903
vn -0.3826694 -7.704052E-06 0.9238853
vn -0.9238738 -7.70415E-06 0.3826972
vn -0.130974 0.6324533 0.7634451
vn 0.1309804 0.632462 -0.7634369
vn 0.1309859 0.6324555 0.7634413
vn -0.1309666 0.6324505 -0.7634488
vn -0.9124835 0.3779612 -0.1565861
vn -0.912486 0.3779592 0.1565766
vn 0.912487 0.3779645 0.156558
vn 0.9124843 0.3779671 -0.1565671
vn 0.3208879 0.9352042 0.1497467
vn 0.3208882 0.935204 -0.149747
vn 0.1688745 0.9449927 -0.2801256
vn -0.1688745 0.9449927 -0.2801256
vn -0.3208889 0.9352038 -0.1497468
vn -0.3208889 0.9352038 0.1497468
vn -0.1688748 0.9449927 0.2801252
vn 0.1688742 0.944993 0.2801248
vn 0.9238792 0 0.3826842
vn 0.3826829 0 0.9238798
vn -0.3826829 0 0.9238798
vn -0.9238793 0 0.382684
vn 0.3826829 0 -0.9238798
vn 0.9238794 0 -0.3826838
vn -0.9238793 0 -0.382684
vn -0.3826829 0 -0.9238798
g lobsterTank_geo_0
f 48/48/48 81/81/81 47/47/47
f 82/82/82 81/81/81 48/48/48
f 83/83/83 46/46/46 84/84/84
f 45/45/45 46/46/46 83/83/83
f 44/44/44 85/85/85 43/43/43
f 86/86/86 85/85/85 44/44/44
f 42/42/42 87/87/87 41/41/41
f 88/88/88 87/87/87 42/42/42
f 97/97/97 64/64/64 98/98/98
f 63/63/63 64/64/64 97/97/97
f 100/100/100 61/61/61 101/101/101
f 102/102/102 61/61/61 100/100/100
f 104/104/104 57/57/57 105/105/105
f 106/106/106 57/57/57 104/104/104
f 109/109/109 113/113/113 114/114/114
f 112/112/112 113/113/113 109/109/109
f 110/110/110 112/112/112 109/109/109
f 110/110/110 115/115/115 116/116/116
f 111/111/111 115/115/115 110/110/110
f 109/109/109 111/111/111 110/110/110
f 73/73/73 117/117/117 118/118/118
f 74/74/74 117/117/117 73/73/73
f 76/76/76 119/119/119 120/120/120
f 75/75/75 119/119/119 76/76/76
f 78/78/78 121/121/121 122/122/122
f 77/77/77 121/121/121 78/78/78
f 79/79/79 123/123/123 124/124/124
f 80/80/80 123/123/123 79/79/79
f 12/12/12 30/30/30 29/29/29
f 11/11/11 30/30/30 12/12/12
f 58/58/58 11/11/11 12/12/12
f 59/59/59 11/11/11 58/58/58
f 39/39/39 59/59/59 58/58/58
f 38/38/38 59/59/59 39/39/39
f 55/55/55 38/38/38 39/39/39
f 54/54/54 38/38/38 55/55/55
f 94/94/94 54/54/54 55/55/55
f 93/93/93 54/54/54 94/94/94
f 10/10/10 93/93/93 94/94/94
f 9/9/9 93/93/93 10/10/10
f 28/28/28 9/9/9 10/10/10
f 27/27/27 9/9/9 28/28/28
f 125/125/125 27/27/27 28/28/28
f 126/126/126 27/27/27 125/125/125
f 16/16/16 32/32/32 31/31/31
f 15/15/15 32/32/32 16/16/16
f 60/60/60 15/15/15 16/16/16
f 103/103/103 15/15/15 60/60/60
f 37/37/37 103/103/103 60/60/60
f 36/36/36 103/103/103 37/37/37
f 53/53/53 36/36/36 37/37/37
f 52/52/52 36/36/36 53/53/53
f 96/96/96 52/52/52 53/53/53
f 95/95/95 52/52/52 96/96/96
f 14/14/14 95/95/95 96/96/96
f 13/13/13 95/95/95 14/14/14
f 26/26/26 13/13/13 14/14/14
f 25/25/25 13/13/13 26/26/26
f 127/127/127 25/25/25 26/26/26
f 128/128/128 25/25/25 127/127/127
f 3/3/3 2/2/2 1/1/1
f 4/4/4 2/2/2 3/3/3
f 107/107/107 4/4/4 3/3/3
f 108/108/108 4/4/4 107/107/107
f 33/33/33 108/108/108 107/107/107
f 40/40/40 108/108/108 33/33/33
f 49/49/49 40/40/40 33/33/33
f 56/56/56 40/40/40 49/49/49
f 90/90/90 56/56/56 49/49/49
f 89/89/89 56/56/56 90/90/90
f 17/17/17 89/89/89 90/90/90
f 18/18/18 89/89/89 17/17/17
f 20/20/20 18/18/18 17/17/17
f 19/19/19 18/18/18 20/20/20
f 129/129/129 19/19/19 20/20/20
f 130/130/130 19/19/19 129/129/129
f 8/8/8 6/6/6 5/5/5
f 7/7/7 6/6/6 8/8/8
f 62/62/62 7/7/7 8/8/8
f 99/99/99 7/7/7 62/62/62
f 35/35/35 99/99/99 62/62/62
f 34/34/34 99/99/99 35/35/35
f 51/51/51 34/34/34 35/35/35
f 50/50/50 34/34/34 51/51/51
f 92/92/92 50/50/50 51/51/51
f 91/91/91 50/50/50 92/92/92
f 21/21/21 91/91/91 92/92/92
f 22/22/22 91/91/91 21/21/21
f 24/24/24 22/22/22 21/21/21
f 23/23/23 22/22/22 24/24/24
f 131/131/131 23/23/23 24/24/24
f 132/132/132 23/23/23 131/131/131
f 6/6/6 3/3/3 1/1/1
f 7/7/7 3/3/3 6/6/6
f 60/60/60 59/59/59 38/38/38
f 11/11/11 59/59/59 60/60/60
f 16/16/16 11/11/11 60/60/60
f 30/30/30 11/11/11 16/16/16
f 31/31/31 30/30/30 16/16/16
f 32/32/32 8/8/8 5/5/5
f 15/15/15 8/8/8 32/32/32
f 2/2/2 12/12/12 29/29/29
f 4/4/4 12/12/12 2/2/2
f 22/22/22 20/20/20 17/17/17
f 23/23/23 20/20/20 22/22/22
f 13/13/13 24/24/24 21/21/21
f 25/25/25 24/24/24 13/13/13
f 9/9/9 26/26/26 14/14/14
f 27/27/27 26/26/26 9/9/9
f 18/18/18 28/28/28 10/10/10
f 19/19/19 28/28/28 18/18/18
f 50/50/50 90/90/90 49/49/49
f 91/91/91 90/90/90 50/50/50
f 51/51/51 95/95/95 92/92/92
f 52/52/52 95/95/95 51/51/51
f 96/96/96 54/54/54 93/93/93
f 53/53/53 54/54/54 96/96/96
f 55/55/55 89/89/89 94/94/94
f 56/56/56 89/89/89 55/55/55
f 58/58/58 40/40/40 39/39/39
f 108/108/108 40/40/40 58/58/58
f 37/37/37 60/60/60 38/38/38
f 62/62/62 36/36/36 35/35/35
f 103/103/103 36/36/36 62/62/62
f 99/99/99 33/33/33 107/107/107
f 34/34/34 33/33/33 99/99/99
f 65/65/65 49/49/49 33/33/33
f 66/66/66 49/49/49 65/65/65
f 40/40/40 66/66/66 65/65/65
f 56/56/56 66/66/66 40/40/40
f 67/67/67 38/38/38 54/54/54
f 68/68/68 38/38/38 67/67/67
f 55/55/55 68/68/68 67/67/67
f 39/39/39 68/68/68 55/55/55
f 69/69/69 53/53/53 37/37/37
f 70/70/70 53/53/53 69/69/69
f 36/36/36 70/70/70 69/69/69
f 52/52/52 70/70/70 36/36/36
f 71/71/71 34/34/34 50/50/50
f 72/72/72 34/34/34 71/71/71
f 51/51/51 72/72/72 71/71/71
f 35/35/35 72/72/72 51/51/51
