g logs_geo
v 1.540605 1.688319 -0.09592773
v 1.657383 1.727212 -0.02208008
v 1.594824 1.684343 0.06450195
v 1.642578 1.603633 0.08770508
v 1.528105 1.525988 0.05554687
v 1.586973 1.493828 -0.02208008
v 1.590547 1.525988 -0.0993457
v 1.559512 1.601243 -0.1371289
v 1.517988 1.677046 -0.09077148
v 1.657383 1.712582 -0.02208008
v 1.594824 1.6761 0.05624023
v 1.642578 1.603633 0.07606445
v 1.541855 1.534236 0.04731445
v 1.604922 1.505488 -0.02208008
v 1.614824 1.534236 -0.09147461
v 1.559512 1.601243 -0.1254687
v 1.503281 1.701443 -0.02208008
v 1.495371 1.672794 0.04731445
v 1.476269 1.603633 0.07606445
v 1.457168 1.534468 0.04731445
v 1.449258 1.50582 -0.02208008
v 1.457168 1.534468 -0.09147461
v 1.476269 1.603633 -0.1202246
v -0.1382422 1.550889 -0.1107519
v -0.04910156 1.493828 -0.01833984
v -0.04910156 1.514678 0.05920898
v -0.04910156 1.603633 0.0902539
v 0.2610547 1.681274 0.04260742
v 0.4404687 1.672244 -0.08978515
v 1.578613 1.694985 -0.06523437
v 1.346406 1.603633 -0.1309473
v 1.346406 1.708535 -0.02160156
v 1.578652 1.70462 -0.07011718
v 1.626816 1.631321 -0.1156738
v 1.614961 1.636724 -0.1252148
v 1.303379 1.501661 0.01271484
v 1.38623 1.514889 0.01408203
v 1.594512 1.625806 0.06686524
v 1.594453 1.625981 0.07845703
v -1.597285 1.594482 -0.135957
v -1.755586 1.672895 -0.1015039
v -1.685332 1.713697 -0.02467773
v -1.71707 1.688917 0.05375976
v -1.662988 1.599892 0.0878125
v -1.728848 1.521859 0.05755859
v -1.68373 1.489134 -0.02560547
v -1.597285 1.594774 -0.1220117
v -1.755586 1.664855 -0.09304687
v -1.685332 1.70204 -0.02438476
v -1.730801 1.680472 0.04570312
v -1.672168 1.599604 0.07615234
v -1.753066 1.52952 0.04913086
v -1.68373 1.496011 -0.02490234
v -1.589355 1.526106 -0.08940429
v -1.589355 1.664862 -0.09282226
v -1.570273 1.695304 -0.02436523
v -1.551172 1.668269 0.04546875
v -1.543301 1.599596 0.07583984
v -1.551211 1.529514 0.04888672
v -1.570273 1.499074 -0.01954102
v -1.431699 1.701782 -0.02467773
v -0.3524609 1.596039 -0.1394043
v -1.705566 1.533352 -0.1098828
v -1.705566 1.539303 -0.1007422
v -1.708906 1.651562 0.0686914
v -1.715742 1.651311 0.05847656
v -1.627734 1.50262 -0.0771289
v -1.627734 1.511776 -0.07113281
v -1.495898 1.633958 0.06004883
v -1.455254 1.632921 0.07332031
v -1.682129 1.504042 -0.05699218
v -1.682187 1.494358 -0.06214844
v -1.684707 1.557233 -0.1269824
v -1.683809 1.561424 -0.1170605
v 0.03787109 1.597893 -0.1427637
v -0.1382617 1.648379 -0.1175391
v -0.08474609 1.597981 -0.160166
v -0.1392773 1.583439 -0.1599902
v -0.2054883 1.597407 -0.1598242
v -0.1392187 1.6136 -0.1620898
v -1.173477 1.676161 -0.1057324
v -1.137773 1.601113 0.07636718
v -1.092012 1.519127 0.04581055
v -1.146328 1.718729 -0.02444336
v -0.7386718 1.703833 -0.02421875
v -1.14123 1.686271 0.05474609
v -1.370677 2.441406E-06 -0.05632807
v -1.305382 2.441406E-06 -0.09830011
v -1.239576 2.441406E-06 -0.06030528
v -1.231194 2.441406E-06 0.003571796
v -1.29849 2.441406E-06 0.04101415
v -1.291023 1.627751 0.05789688
v -1.230445 1.627751 0.0007797122
v -1.230495 1.627751 -0.06076379
v -1.314375 1.627751 -0.0993752
v -1.376863 2.441406E-06 0.01188538
v -1.364569 1.627751 0.04357889
v -1.388016 1.627751 -0.03742741
v 1.389772 2.441406E-06 -0.01829701
v 1.354211 2.441406E-06 0.05069928
v 1.278261 2.441406E-06 0.05068833
v 1.239025 2.441406E-06 -0.0004299116
v 1.278566 2.441406E-06 -0.06649895
v 1.263677 1.627751 -0.07739154
v 1.239774 1.627751 0.00236222
v 1.270569 1.627751 0.05564066
v 1.362536 1.627751 0.04713392
v 1.361022 2.441406E-06 -0.0804646
v 1.334529 1.627751 -0.101765
v 1.395337 1.627751 -0.0433346
v 1.657383 1.712582 -0.02208008
v 1.495371 1.672794 0.04731445
v 1.594824 1.6761 0.05624023
v 1.476269 1.603633 0.07606445
v 1.594512 1.625806 0.06686524
v 1.642578 1.603633 0.07606445
v 1.457168 1.534468 0.04731445
v 1.541855 1.534236 0.04731445
v 1.604922 1.505488 -0.02208008
v 1.457168 1.534468 -0.09147461
v 1.614824 1.534236 -0.09147461
v 1.476269 1.603633 -0.1202246
v 1.559512 1.601243 -0.1254687
v 1.503281 1.701443 -0.02208008
v 1.449258 1.50582 -0.02208008
v 1.38623 1.514889 0.01408203
v 1.517988 1.677046 -0.09077148
v 1.517988 1.677046 -0.09077148
v 1.578613 1.694985 -0.06523437
v 1.626816 1.631321 -0.1156738
v -0.04910156 1.493828 -0.01833984
v 1.38623 1.514889 0.01408203
v 1.604922 1.505488 -0.02208008
v 1.38623 1.514889 0.01408203
v 1.586973 1.493828 -0.02208008
v -1.68373 1.489134 -0.02560547
v -1.68373 1.496011 -0.02490234
v -1.589355 1.526106 -0.08940429
v -1.597285 1.594774 -0.1220117
v -1.755586 1.664855 -0.09304687
v -1.589355 1.664862 -0.09282226
v -1.685332 1.70204 -0.02438476
v -1.551172 1.668269 0.04546875
v -1.570273 1.695304 -0.02436523
v -1.730801 1.680472 0.04570312
v -1.715742 1.651311 0.05847656
v -1.672168 1.599604 0.07615234
v -1.551211 1.529514 0.04888672
v -1.753066 1.52952 0.04913086
v -1.570273 1.499074 -0.01954102
v -1.68373 1.496011 -0.02490234
v -1.597285 1.594774 -0.1220117
v -1.543301 1.599596 0.07583984
v -1.495898 1.633958 0.06004883
v -1.705566 1.539303 -0.1007422
v -1.627734 1.511776 -0.07113281
v -1.495898 1.633958 0.06004883
v -1.682129 1.504042 -0.05699218
v -1.597285 1.594774 -0.1220117
v -1.683809 1.561424 -0.1170605
v -1.230445 1.627751 0.0007797122
v -1.231194 2.441406E-06 0.003571796
v 1.239774 1.627751 0.00236222
v 1.239025 2.441406E-06 -0.0004299116
v -1.239576 2.441406E-06 -0.06030528
v -1.305382 2.441406E-06 -0.09830011
v -1.370677 2.441406E-06 -0.05632807
v -1.231194 2.441406E-06 0.003571796
v -1.376863 2.441406E-06 0.01188538
v -1.29849 2.441406E-06 0.04101415
v 1.389772 2.441406E-06 -0.01829701
v 1.361022 2.441406E-06 -0.0804646
v 1.278566 2.441406E-06 -0.06649895
v 1.239025 2.441406E-06 -0.0004299116
v 1.354211 2.441406E-06 0.05069928
v 1.278261 2.441406E-06 0.05068833
vt 0.2524112 -0.407904
vt 0.3275037 -0.462282
vt 0.4124211 -0.4406646
vt 0.4921266 -0.4568656
vt 0.5710523 -0.3903579
vt 0.003902197 -0.4275205
vt 0.08446527 -0.4303946
vt 0.1624349 -0.4150422
vt 0.8465499 0.009658013
vt 0.3289543 -0.4829435
vt 0.4133769 -0.4606769
vt 0.4965515 -0.4727737
vt 0.5734515 -0.4113317
vt 0.003902078 -0.4515029
vt 0.083992 -0.455478
vt 0.159282 -0.4365796
vt 0.9952645 0.6117542
vt 0.9814644 0.07772261
vt 0.9814644 0.1565325
vt 0.9240282 0.2139295
vt 0.9952644 0.8750614
vt 0.7804989 0.1476901
vt 0.7836154 0.06658021
vt 0.1090627 0.5598583
vt 0.003902197 0.5123483
vt 0.5762556 0.5068415
vt 0.4863459 0.5059033
vt 0.398137 0.2614636
vt 0.2520856 0.2270477
vt 0.2785211 -0.4475832
vt 0.165886 -0.2906591
vt 0.3273524 -0.2946607
vt 0.2815446 -0.4287063
vt 0.9586218 0.7070603
vt 0.1951672 -0.4463938
vt 0.6190538 -0.2654625
vt 0.9952642 0.405705
vt 0.465484 -0.4631803
vt 0.4691448 -0.4386331
vt 0.1677111 1.395658
vt 0.2521087 1.470044
vt 0.3311656 1.43652
vt 0.4058305 1.44637
vt 0.4970179 1.416112
vt 0.5702839 1.453268
vt 0.6529225 1.434182
vt 0.1693157 1.423247
vt 0.2509893 1.487577
vt 0.3309029 1.458196
vt 0.4047558 1.467552
vt 0.4947023 1.43244
vt 0.5700027 1.476747
vt 0.6529225 1.454054
vt 0.784205 0.3852549
vt 0.9264501 0.4396289
vt 0.9845963 0.3806008
vt 0.9845963 0.3004778
vt 0.9449048 0.7615346
vt 0.8366511 0.2427714
vt 0.7807544 0.3023025
vt 0.3299735 1.292129
vt 0.1627442 0.6784265
vt 0.1022047 1.459324
vt 0.9195107 0.9459831
vt 0.4407862 1.442241
vt 0.444102 1.455317
vt 0.05755675 1.417618
vt 0.9343355 0.9162101
vt 0.9449046 0.7317801
vt 0.4631759 1.308425
vt 0.04095292 1.465772
vt 0.04059076 1.44791
vt 0.1303782 1.446337
vt 0.133893 1.464208
vt 0.1648077 0.4624828
vt 0.2188178 0.5583416
vt 0.1650931 0.5323498
vt 0.1559912 0.5592181
vt 0.1652032 0.5919949
vt 0.1745396 0.5592668
vt 0.2486318 1.148999
vt 0.4934409 1.126225
vt 0.5791057 1.09777
vt 0.3305174 1.131842
vt 0.329215 1.056667
vt 0.4075332 1.130813
vt 0.4124211 -0.4406646
vt 0.4921266 -0.4568656
vt 0.5710523 -0.3903579
vt 0.003902197 -0.4275205
vt 0.08446527 -0.4303946
vt 0.1090627 0.5598583
vt 0.003902197 0.5123483
vt 0.5762556 0.5068415
vt 0.4863459 0.5059033
vt 0.2815446 -0.4287063
vt 0.2188178 0.5583416
vt 0.3286351 0.6358919
vt 0.4124211 -0.4406646
vt 0.4921266 -0.4568656
vt 0.5710523 -0.3903579
vt 0.003902197 -0.4275205
vt 0.08446527 -0.4303946
vt 0.1090627 0.5598583
vt 0.003902197 0.5123483
vt 0.5762556 0.5068415
vt 0.4863459 0.5059033
vt 0.2815446 -0.4287063
vt 0.2188178 0.5583416
vt 0.3286351 0.6358919
vt 0.9608648 0.6147541
vt 0.9952645 0.5544927
vt 0.969215 0.5527109
vt 0.9952643 0.4955986
vt 0.9679512 0.5158544
vt 0.9584697 0.4984099
vt 0.9952644 0.4367042
vt 0.9770613 0.4409156
vt 0.9556065 0.8680428
vt 0.9952644 0.8066718
vt 0.9545928 0.8046623
vt 0.9952644 0.7383002
vt 0.9721082 0.7378544
vt 0.9257857 0.01737219
vt 0.8340623 0.2071389
vt 0.8763361 0.2188264
vt 0.2496694 -0.4339074
vt 0.9952645 0.6648213
vt 0.9804784 0.6442007
vt 0.1941602 -0.4665657
vt 0.6529225 0.5086584
vt 0.9952644 0.9095948
vt 0.6439167 -0.4410355
vt 0.6136525 -0.3166345
vt 0.6529225 -0.4257564
vt 0.003901839 1.448061
vt 0.003902078 1.470342
vt 0.9449047 0.9324515
vt 0.9449047 0.4978842
vt 0.9008959 0.5640615
vt 0.9449047 0.5665309
vt 0.9149547 0.6327413
vt 0.9449047 0.7017141
vt 0.9449047 0.6345031
vt 0.9010447 0.6911168
vt 0.9042898 0.7125236
vt 0.9165119 0.7654739
vt 0.9449047 0.8185402
vt 0.9006332 0.8209438
vt 0.9449047 0.875576
vt 0.9195106 0.8811344
vt 0.8430634 0.4422743
vt 0.9188229 0.2408757
vt 0.9521617 0.2702174
vt 0.09939194 1.4776
vt 0.05773842 1.439636
vt 0.4636839 1.336318
vt 0.9213979 0.9053717
vt 0.9449047 0.9887496
vt 0.9241375 0.9657497
vt 0.6529225 0.5086584
vt 0.6529225 -0.4257564
vt 0.6529225 0.5086584
vt 0.6529225 -0.4257564
vt 0.8241964 0.5963595
vt 0.744091 0.5963595
vt 0.7066038 0.6690949
vt 0.8655185 0.6502578
vt 0.7369118 0.7346308
vt 0.8238165 0.7199126
vt 0.7066038 0.669101
vt 0.736921 0.7346339
vt 0.823845 0.7198987
vt 0.8655185 0.6502424
vt 0.7440819 0.5963595
vt 0.8241488 0.5963595
vn 0.5351394 0.5822529 -0.6120518
vn 0.6379719 0.767765 -0.05940232
vn 0.505626 0.6030325 0.6170043
vn 0.4599489 0.04932579 0.8865743
vn 0.2281424 -0.9160513 0.3298501
vn 0.1707581 -0.9802009 0.1002399
vn 0.2398704 -0.5892969 -0.7714864
vn 0.3148535 -0.2583501 -0.913303
vn 0.7269477 -0.5841717 0.360958
vn 0.5451043 -0.8246288 -0.1511578
vn 0.7613257 -0.5691674 -0.3105349
vn 0.474133 0.03717966 -0.8796679
vn 0.3735616 -0.2550274 -0.8918592
vn 0.52446 0.5385857 0.6594445
vn 0.8988969 0.4056126 0.1657189
vn 0.7824355 -0.4876546 0.3872824
vn 0.5333719 -0.8111772 0.2398042
vn 0.5912613 -0.5495261 -0.5902807
vn 0.3306404 -0.1932113 -0.9237675
vn 0.4969516 0.2992172 -0.8145601
vn 0.6090768 0.6195827 0.4951189
vn 0.8167471 0.2924461 0.4973927
vn 0.3633277 -0.2726941 0.8908597
vn 0.006755436 -0.6937502 -0.720184
vn 0.003464296 -0.9929509 -0.1184753
vn -0.001040321 -0.7662302 0.6425654
vn -0.004784495 0.1077922 0.9941619
vn -0.0003013636 0.7505251 0.6608419
vn -0.007340474 0.751772 -0.6593823
vn 0.3876577 -0.8973137 -0.2110676
vn -0.01001185 -0.03833951 -0.9992146
vn -0.0205495 0.9966382 0.07931025
vn 0.4003657 0.3763059 -0.8355244
vn 0.3856792 -0.427775 0.8174717
vn 0.3245421 0.2995096 -0.8971992
vn 0.06521118 -0.9433475 0.3253354
vn 0.9674404 -0.1728797 -0.1848558
vn 0.6120706 0.08426977 -0.7863003
vn 0.492125 0.5951959 0.6352596
vn -0.2472607 0.1739116 -0.953214
vn -0.480966 0.6552989 -0.5824561
vn -0.4726535 0.8787355 0.06650276
vn -0.365843 0.779168 0.5089756
vn -0.1791562 0.3122152 0.9329656
vn -0.315581 -0.645656 0.6953681
vn -0.3739597 -0.9189497 0.125243
vn -0.8083421 0.2000409 0.5536847
vn -0.443316 -0.6644737 0.6016192
vn -0.8298149 -0.4952659 0.2571364
vn -0.8384634 -0.3757313 -0.3947217
vn -0.4548509 0.7466211 -0.4854561
vn -0.8016815 0.4493503 -0.3941967
vn -0.8243394 0.5536067 -0.1182544
vn -0.4562029 0.5666548 0.6861351
vn -0.6002902 -0.550303 0.5803605
vn -0.48952 -0.8534914 0.1786688
vn -0.5696102 -0.770584 -0.2859099
vn -0.6791715 0.3476759 -0.6464112
vn -0.7851218 0.5238269 -0.3304377
vn -0.3020326 0.9329122 0.1960893
vn -0.004651281 0.9974794 -0.07080396
vn -0.05754095 -0.1058656 -0.9927142
vn -0.5766824 -0.6290047 -0.5213353
vn -0.4933416 0.5051665 0.7081107
vn -0.2617316 -0.09331319 0.9606192
vn -0.5034784 -0.8633473 -0.03377644
vn -0.2244765 -0.7882449 -0.5729574
vn -0.3306631 0.8586684 0.3915998
vn -0.8874766 -0.3977159 -0.2328249
vn -0.04642827 0.2355336 0.9707566
vn -0.4923342 0.8627077 -0.1155098
vn -0.5369862 -0.5795795 -0.6129709
vn -0.3563485 0.04110321 -0.9334487
vn -0.4207414 0.804554 0.4191294
vn 0.09492186 -0.03417997 -0.9948978
vn 0.004605384 0.6160634 -0.7876831
vn 0.1122089 -0.05640227 -0.9920826
vn 0.005696182 -0.5954381 -0.8033809
vn -0.1044122 -0.05642092 -0.9929324
vn 0.001501468 0.5071695 -0.861845
vn -0.003624133 0.770264 -0.637715
vn 0.003454203 -0.1134376 0.9935392
vn 0.001690822 -0.7070625 0.707149
vn -0.01148556 0.9989266 -0.04487507
vn 0.01322297 0.9984439 -0.05417489
vn -0.0005882595 0.8238354 0.5668287
vn -0.7948229 -0.5010456 -0.3423594
vn -0.07277454 -0.5080123 -0.85827
vn 0.7234542 -0.4995408 -0.4765219
vn 0.7868897 -0.4981652 0.3641924
vn 0.1549592 -0.493377 0.8559012
vn 0.1781431 -0.009840925 0.9839553
vn 0.9075049 -0.004593431 0.4200162
vn 0.8351157 -0.002017369 -0.5500706
vn -0.08448894 -0.0005253016 -0.9964243
vn -0.6506937 -0.521249 0.5521749
vn -0.7624328 -0.009618767 0.646996
vn -0.9184213 -0.002182878 -0.3955978
vn 0.8595165 -0.5010456 -0.1009194
vn 0.4921498 -0.5080164 0.7069001
vn -0.3882236 -0.4995306 0.7744364
vn -0.8635476 -0.4981751 0.07814898
vn -0.5621789 -0.4933838 -0.6637222
vn -0.6462913 -0.009838584 -0.7630273
vn -0.9959195 -0.004600624 0.09012832
vn -0.4481409 -0.002029338 0.8939606
vn 0.571372 -0.0005274827 0.820691
vn 0.2874291 -0.5212494 -0.8035444
vn 0.3367873 -0.009618894 -0.9415316
vn 0.9931751 -0.002182883 -0.1166128
vn 0.5451043 -0.8246288 -0.1511578
vn 0.5912613 -0.5495261 -0.5902807
vn 0.7613257 -0.5691674 -0.3105349
vn 0.3306404 -0.1932113 -0.9237675
vn 0.6120706 0.08426977 -0.7863003
vn 0.474133 0.03717966 -0.8796679
vn 0.4969516 0.2992172 -0.8145601
vn 0.3735616 -0.2550274 -0.8918592
vn 0.52446 0.5385857 0.6594445
vn 0.8167471 0.2924461 0.4973927
vn 0.8988969 0.4056126 0.1657189
vn 0.3633277 -0.2726941 0.8908597
vn 0.7824355 -0.4876546 0.3872824
vn 0.5333719 -0.8111772 0.2398042
vn 0.6090768 0.6195827 0.4951189
vn 0.9674404 -0.1728797 -0.1848558
vn 0.7269477 -0.5841717 0.360958
vn 0.7269477 -0.5841717 0.360958
vn 0.3876577 -0.8973137 -0.2110676
vn 0.3856792 -0.427775 0.8174717
vn 0.003464296 -0.9929509 -0.1184753
vn 0.9674404 -0.1728797 -0.1848558
vn 0.52446 0.5385857 0.6594445
vn 0.9674404 -0.1728797 -0.1848558
vn 0.1707581 -0.9802009 0.1002399
vn -0.3739597 -0.9189497 0.125243
vn -0.8243394 0.5536067 -0.1182544
vn -0.4562029 0.5666548 0.6861351
vn -0.8083421 0.2000409 0.5536847
vn -0.443316 -0.6644737 0.6016192
vn -0.6002902 -0.550303 0.5803605
vn -0.8298149 -0.4952659 0.2571364
vn -0.5696102 -0.770584 -0.2859099
vn -0.48952 -0.8534914 0.1786688
vn -0.8384634 -0.3757313 -0.3947217
vn -0.5034784 -0.8633473 -0.03377644
vn -0.4548509 0.7466211 -0.4854561
vn -0.7851218 0.5238269 -0.3304377
vn -0.8016815 0.4493503 -0.3941967
vn -0.3020326 0.9329122 0.1960893
vn -0.8243394 0.5536067 -0.1182544
vn -0.8083421 0.2000409 0.5536847
vn -0.6791715 0.3476759 -0.6464112
vn -0.8874766 -0.3977159 -0.2328249
vn -0.4933416 0.5051665 0.7081107
vn -0.3306631 0.8586684 0.3915998
vn -0.8874766 -0.3977159 -0.2328249
vn -0.4923342 0.8627077 -0.1155098
vn -0.8083421 0.2000409 0.5536847
vn -0.4207414 0.804554 0.4191294
vn 0.9075049 -0.004593431 0.4200162
vn 0.7868897 -0.4981652 0.3641924
vn -0.9959195 -0.004600624 0.09012832
vn -0.8635476 -0.4981751 0.07814898
vn 0.7234542 -0.4995408 -0.4765219
vn -0.07277454 -0.5080123 -0.85827
vn -0.7948229 -0.5010456 -0.3423594
vn 0.7868897 -0.4981652 0.3641924
vn -0.6506937 -0.521249 0.5521749
vn 0.1549592 -0.493377 0.8559012
vn 0.8595165 -0.5010456 -0.1009194
vn 0.2874291 -0.5212494 -0.8035444
vn -0.5621789 -0.4933838 -0.6637222
vn -0.8635476 -0.4981751 0.07814898
vn 0.4921498 -0.5080164 0.7069001
vn -0.3882236 -0.4995306 0.7744364
g logs_geo_0
f 124/124/124 125/125/125 22/22/22
f 126/126/126 125/125/125 124/124/124
f 18/18/18 126/126/126 124/124/124
f 20/20/20 126/126/126 18/18/18
f 19/19/19 20/20/20 18/18/18
f 9/9/9 22/22/22 23/23/23
f 124/124/124 22/22/22 9/9/9
f 2/2/2 10/10/10 30/30/30
f 33/33/33 2/2/2 30/30/30
f 29/29/29 2/2/2 33/33/33
f 1/1/1 29/29/29 33/33/33
f 35/35/35 29/29/29 1/1/1
f 130/130/130 35/35/35 1/1/1
f 8/8/8 35/35/35 130/130/130
f 16/16/16 8/8/8 130/130/130
f 7/7/7 8/8/8 16/16/16
f 15/15/15 7/7/7 16/16/16
f 6/6/6 7/7/7 15/15/15
f 14/14/14 6/6/6 15/15/15
f 117/117/117 118/118/118 37/37/37
f 116/116/116 118/118/118 117/117/117
f 114/114/114 116/116/116 117/117/117
f 115/115/115 116/116/116 114/114/114
f 113/113/113 115/115/115 114/114/114
f 112/112/112 113/113/113 114/114/114
f 111/111/111 113/113/113 112/112/112
f 17/17/17 111/111/111 112/112/112
f 129/129/129 111/111/111 17/17/17
f 128/128/128 129/129/129 17/17/17
f 122/122/122 123/123/123 34/34/34
f 121/121/121 123/123/123 122/122/122
f 120/120/120 121/121/121 122/122/122
f 119/119/119 121/121/121 120/120/120
f 21/21/21 119/119/119 120/120/120
f 132/132/132 119/119/119 21/21/21
f 55/55/55 57/57/57 56/56/56
f 154/154/154 57/57/57 55/55/55
f 152/152/152 154/154/154 55/55/55
f 153/153/153 154/154/154 152/152/152
f 59/59/59 153/153/153 152/152/152
f 59/59/59 54/54/54 60/60/60
f 152/152/152 54/54/54 59/59/59
f 31/31/31 35/35/35 8/8/8
f 29/29/29 35/35/35 31/31/31
f 75/75/75 29/29/29 31/31/31
f 76/76/76 29/29/29 75/75/75
f 77/77/77 76/76/76 75/75/75
f 80/80/80 76/76/76 77/77/77
f 79/79/79 80/80/80 77/77/77
f 62/62/62 80/80/80 79/79/79
f 24/24/24 62/62/62 79/79/79
f 73/73/73 62/62/62 24/24/24
f 63/63/63 73/73/73 24/24/24
f 155/155/155 73/73/73 63/63/63
f 67/67/67 155/155/155 63/63/63
f 156/156/156 155/155/155 67/67/67
f 72/72/72 156/156/156 67/67/67
f 71/71/71 156/156/156 72/72/72
f 136/136/136 71/71/71 72/72/72
f 137/137/137 71/71/71 136/136/136
f 145/145/145 69/69/69 146/146/146
f 143/143/143 69/69/69 145/145/145
f 142/142/142 143/143/143 145/145/145
f 144/144/144 143/143/143 142/142/142
f 140/140/140 144/144/144 142/142/142
f 141/141/141 144/144/144 140/140/140
f 139/139/139 141/141/141 140/140/140
f 150/150/150 158/158/158 151/151/151
f 149/149/149 150/150/150 151/151/151
f 148/148/148 150/150/150 149/149/149
f 147/147/147 148/148/148 149/149/149
f 58/58/58 148/148/148 147/147/147
f 69/69/69 58/58/58 147/147/147
f 138/138/138 64/64/64 68/68/68
f 160/160/160 64/64/64 138/138/138
f 159/159/159 160/160/160 138/138/138
f 34/34/34 128/128/128 122/122/122
f 87/87/87 98/98/98 95/95/95
f 97/97/97 98/98/98 87/87/87
f 96/96/96 97/97/97 87/87/87
f 92/92/92 97/97/97 96/96/96
f 91/91/91 92/92/92 96/96/96
f 93/93/93 92/92/92 91/91/91
f 90/90/90 93/93/93 91/91/91
f 89/89/89 161/161/161 162/162/162
f 94/94/94 161/161/161 89/89/89
f 95/95/95 94/94/94 89/89/89
f 99/99/99 110/110/110 107/107/107
f 109/109/109 110/110/110 99/99/99
f 108/108/108 109/109/109 99/99/99
f 104/104/104 109/109/109 108/108/108
f 103/103/103 104/104/104 108/108/108
f 105/105/105 104/104/104 103/103/103
f 102/102/102 105/105/105 103/103/103
f 101/101/101 163/163/163 164/164/164
f 106/106/106 163/163/163 101/101/101
f 107/107/107 106/106/106 101/101/101
f 168/168/168 170/170/170 169/169/169
f 167/167/167 168/168/168 169/169/169
f 165/165/165 168/168/168 167/167/167
f 166/166/166 165/165/165 167/167/167
f 174/174/174 175/175/175 176/176/176
f 171/171/171 175/175/175 174/174/174
f 173/173/173 171/171/171 174/174/174
f 172/172/172 171/171/171 173/173/173
f 2/2/2 11/11/11 10/10/10
f 3/3/3 11/11/11 2/2/2
f 32/32/32 3/3/3 2/2/2
f 28/28/28 3/3/3 32/32/32
f 85/85/85 28/28/28 32/32/32
f 86/86/86 28/28/28 85/85/85
f 84/84/84 86/86/86 85/85/85
f 61/61/61 86/86/86 84/84/84
f 81/81/81 61/61/61 84/84/84
f 41/41/41 61/61/61 81/81/81
f 40/40/40 41/41/41 81/81/81
f 48/48/48 41/41/41 40/40/40
f 47/47/47 48/48/48 40/40/40
f 36/36/36 135/135/135 133/133/133
f 134/134/134 36/36/36 133/133/133
f 5/5/5 36/36/36 134/134/134
f 13/13/13 5/5/5 134/134/134
f 4/4/4 5/5/5 13/13/13
f 12/12/12 4/4/4 13/13/13
f 39/39/39 4/4/4 12/12/12
f 38/38/38 39/39/39 12/12/12
f 3/3/3 39/39/39 38/38/38
f 11/11/11 3/3/3 38/38/38
f 24/24/24 75/75/75 31/31/31
f 7/7/7 24/24/24 31/31/31
f 25/25/25 24/24/24 7/7/7
f 6/6/6 25/25/25 7/7/7
f 1/1/1 127/127/127 130/130/130
f 30/30/30 127/127/127 1/1/1
f 33/33/33 30/30/30 1/1/1
f 74/74/74 73/73/73 155/155/155
f 40/40/40 73/73/73 74/74/74
f 47/47/47 40/40/40 74/74/74
f 45/45/45 53/53/53 46/46/46
f 52/52/52 53/53/53 45/45/45
f 44/44/44 52/52/52 45/45/45
f 51/51/51 52/52/52 44/44/44
f 70/70/70 51/51/51 44/44/44
f 157/157/157 51/51/51 70/70/70
f 65/65/65 157/157/157 70/70/70
f 66/66/66 157/157/157 65/65/65
f 43/43/43 66/66/66 65/65/65
f 50/50/50 66/66/66 43/43/43
f 42/42/42 50/50/50 43/43/43
f 49/49/49 50/50/50 42/42/42
f 41/41/41 49/49/49 42/42/42
f 48/48/48 49/49/49 41/41/41
f 83/83/83 46/46/46 131/131/131
f 45/45/45 46/46/46 83/83/83
f 82/82/82 45/45/45 83/83/83
f 44/44/44 45/45/45 82/82/82
f 70/70/70 44/44/44 82/82/82
f 68/68/68 150/150/150 138/138/138
f 158/158/158 150/150/150 68/68/68
f 67/67/67 63/63/63 24/24/24
f 25/25/25 67/67/67 24/24/24
f 72/72/72 67/67/67 25/25/25
f 136/136/136 72/72/72 25/25/25
f 27/27/27 70/70/70 82/82/82
f 83/83/83 27/27/27 82/82/82
f 26/26/26 27/27/27 83/83/83
f 131/131/131 26/26/26 83/83/83
f 36/36/36 26/26/26 131/131/131
f 135/135/135 36/36/36 131/131/131
f 88/88/88 95/95/95 89/89/89
f 87/87/87 95/95/95 88/88/88
f 100/100/100 107/107/107 101/101/101
f 99/99/99 107/107/107 100/100/100
f 8/8/8 7/7/7 31/31/31
f 5/5/5 26/26/26 36/36/36
f 27/27/27 26/26/26 5/5/5
f 4/4/4 27/27/27 5/5/5
f 39/39/39 27/27/27 4/4/4
f 85/85/85 81/81/81 84/84/84
f 29/29/29 81/81/81 85/85/85
f 32/32/32 29/29/29 85/85/85
f 2/2/2 29/29/29 32/32/32
f 28/28/28 27/27/27 39/39/39
f 70/70/70 27/27/27 28/28/28
f 86/86/86 70/70/70 28/28/28
f 65/65/65 70/70/70 86/86/86
f 43/43/43 65/65/65 86/86/86
f 3/3/3 28/28/28 39/39/39
f 76/76/76 81/81/81 29/29/29
f 40/40/40 81/81/81 76/76/76
f 62/62/62 40/40/40 76/76/76
f 73/73/73 40/40/40 62/62/62
f 61/61/61 43/43/43 86/86/86
f 42/42/42 43/43/43 61/61/61
f 41/41/41 42/42/42 61/61/61
f 78/78/78 77/77/77 75/75/75
f 79/79/79 77/77/77 78/78/78
f 24/24/24 79/79/79 78/78/78
f 78/78/78 75/75/75 24/24/24
f 80/80/80 62/62/62 76/76/76
