g long_mdl
v 1.109142E-31 1.215963 0.1030945
v -0.1623823 1.281944 0.04043219
v -0.1777808 1.345039 -0.1297826
v -0.1174026 1.351492 -0.1923165
v -0.21436 1.331517 -0.02204606
v -0.1103692 1.243904 0.08491201
v -0.05953726 1.22517 0.0874659
v -0.05870134 1.349362 -0.2121819
v 0.1623823 1.281944 0.04043217
v 0.1777808 1.345039 -0.1297826
v 0.1174026 1.35149 -0.1923165
v 0.21436 1.331517 -0.02204606
v 0.1103692 1.243904 0.08491201
v 0.05953726 1.22517 0.0874659
v 0.05870132 1.349361 -0.2121819
v 5.823626E-31 1.433132 0.2124515
v -0.1464678 1.505945 -0.183064
v -0.1984333 1.45806 0.07864618
v -0.2149889 1.475641 -0.01954458
v -0.1921197 1.492891 -0.115961
v -0.1760148 1.322571 0.07224192
v 2.316633E-31 1.409259 -0.2462258
v -0.06798337 1.407681 -0.2280874
v -0.1217702 1.397754 -0.1919863
v -0.1690155 1.385713 -0.1089527
v -0.1904453 1.363095 -0.01184134
v -0.1760275 1.555298 -0.106371
v -0.1921123 1.384936 0.08080698
v 5.239024E-31 1.333316 0.2169434
v -1.862645E-11 1.469369 -0.2484331
v -0.06989267 1.474945 -0.2350587
v -0.1405566 1.456267 -0.1884696
v -0.1841877 1.431697 -0.1186889
v -0.2098133 1.410752 -0.0136176
v -0.04942007 1.516868 0.1674248
v -0.06472386 1.440735 0.1916204
v -0.07363658 1.341249 0.1909235
v -0.06569504 1.254164 0.1680254
v -0.126001 1.286803 0.128413
v 4.079611E-31 1.240474 0.1927511
v 1.723007E-31 1.347228 -0.2320473
v -0.1331991 1.448582 0.151179
v -0.1334958 1.361821 0.149582
v -0.0359237 1.499465 0.1811199
v 1.678502E-09 1.4878 0.1905651
v -0.116258 1.534244 0.1387747
v -0.1662252 1.567351 0.08016319
v -0.1809704 1.581002 -0.04557954
v 0.1464678 1.505945 -0.183064
v 0.1984333 1.45806 0.07864618
v 0.2149873 1.475639 -0.02505483
v 0.1921197 1.492891 -0.115961
v 0.1760148 1.322571 0.07224192
v 0.06798337 1.407681 -0.2280874
v 0.1217702 1.397754 -0.1919863
v 0.1690155 1.385713 -0.1089527
v 0.1904453 1.363095 -0.01184134
v 0.1760275 1.555298 -0.106371
v 0.1921123 1.384936 0.08080698
v 0.06989267 1.474945 -0.2350587
v 0.1405566 1.456267 -0.1884696
v 0.1841877 1.431697 -0.1186889
v 0.2098133 1.410752 -0.01361758
v 0.04942007 1.516868 0.1674248
v 0.06472386 1.440735 0.1916204
v 0.0736419 1.341249 0.1909235
v 0.06569504 1.254164 0.1680254
v 0.126001 1.286803 0.128413
v 0.1331991 1.448582 0.151179
v 0.1334958 1.361821 0.149582
v 0.03592369 1.499465 0.1811199
v 0.116258 1.534244 0.1387747
v 0.1662252 1.567351 0.08016319
v 0.1809704 1.581002 -0.04557954
v 0.1626235 1.608091 0.004635793
v -0.1626235 1.608091 0.004635792
v 0.2036008 1.533885 -0.03911259
v 0.1875959 1.516924 0.08168801
v -0.2036017 1.533886 -0.03635747
v -0.1870667 1.519662 0.08181807
v 2.316633E-31 1.409259 -0.2462258
v 1.723007E-31 1.347228 -0.2320473
v -1.862645E-11 1.469369 -0.2484331
v -0.06569504 1.254164 0.1680254
v -0.1331991 1.448582 0.151179
v -0.1334958 1.361821 0.149582
v -0.126001 1.286803 0.128413
v 4.079611E-31 1.240474 0.1927511
v -0.116258 1.534244 0.1387747
v 0.06569504 1.254164 0.1680254
v 0.1334958 1.361821 0.149582
v 0.1331991 1.448582 0.151179
v 0.126001 1.286803 0.128413
v 0.116258 1.534244 0.1387747
vt 0.6235341 0.1407284
vt 0.594847 0.1459771
vt 0.5648002 0.1506795
vt 0.5465282 0.1487361
vt 0.580097 0.1501343
vt 0.6067784 0.1429151
vt 0.6154472 0.1414823
vt 0.5316404 0.1448133
vt 0.6522694 0.1455873
vt 0.6825002 0.1499339
vt 0.7008371 0.1478614
vt 0.6671171 0.1495466
vt 0.6402988 0.142701
vt 0.6316245 0.1413843
vt 0.7157415 0.1438696
vt 0.623716 0.1726375
vt 0.5460465 0.1759716
vt 0.593987 0.1750941
vt 0.5790329 0.1762793
vt 0.5632058 0.1770166
vt 0.5947525 0.1550904
vt 0.5173371 0.1505892
vt 0.5313504 0.1535199
vt 0.5461555 0.1560853
vt 0.5637243 0.1569618
vt 0.5804957 0.1569002
vt 0.5651768 0.1919495
vt 0.5941307 0.1643396
vt 0.6236551 0.161507
vt 0.5143359 0.161189
vt 0.5300081 0.1638818
vt 0.5458785 0.166003
vt 0.5627608 0.1665264
vt 0.5800394 0.1663477
vt 0.6158025 0.1836293
vt 0.6170897 0.1736886
vt 0.6159213 0.1620581
vt 0.6156852 0.1511431
vt 0.6058482 0.1526718
vt 0.623594 0.1508231
vt 0.5201371 0.1422872
vt 0.6068224 0.1746349
vt 0.6058836 0.1629929
vt 0.6186001 0.1807341
vt 0.6237603 0.178811
vt 0.6082872 0.1844246
vt 0.594999 0.1859604
vt 0.5774127 0.1879372
vt 0.7014949 0.175136
vt 0.6534714 0.1747187
vt 0.668456 0.1757362
vt 0.6843147 0.1763193
vt 0.6524848 0.154709
vt 0.7160646 0.1525811
vt 0.7012534 0.1552268
vt 0.683632 0.1562306
vt 0.6667963 0.1563401
vt 0.6824907 0.1898052
vt 0.6532154 0.1639591
vt 0.7174627 0.1629359
vt 0.7015905 0.1651588
vt 0.6846783 0.1658121
vt 0.6673533 0.1658026
vt 0.6317333 0.1835189
vt 0.6303512 0.1736032
vt 0.6313941 0.1619576
vt 0.6315039 0.1510422
vt 0.6413545 0.1524396
vt 0.640625 0.1744158
vt 0.64144 0.1627623
vt 0.6289095 0.1806625
vt 0.6392531 0.1842206
vt 0.6525596 0.1855983
vt 0.670192 0.1873822
vt 0.6610215 0.1967462
vt 0.5866348 0.1971972
vt 0.669324 0.1815592
vt 0.6530155 0.1801585
vt 0.5782229 0.1821082
vt 0.5945187 0.180803
vt 0.7300638 0.1495885
vt 0.7272345 0.141303
vt 0.7331102 0.1601599
vt 0.6156852 0.1511431
vt 0.6068224 0.1746349
vt 0.6058836 0.1629929
vt 0.6058482 0.1526718
vt 0.623594 0.1508231
vt 0.6082872 0.1844246
vt 0.6315039 0.1510422
vt 0.64144 0.1627623
vt 0.640625 0.1744158
vt 0.6413545 0.1524396
vt 0.6392531 0.1842206
vn 0 -0.9567218 0.2910039
vn -0.8666633 -0.3375947 0.3673206
vn -0.8490493 0.2786351 -0.4488627
vn -0.5807189 -0.1271372 -0.8041155
vn -0.9721757 0.2065509 0.110504
vn -0.6332863 -0.6859465 0.3583656
vn -0.3845301 -0.8632002 0.3271421
vn -0.354292 -0.2210534 -0.9086323
vn 0.8666628 -0.3375948 0.3673217
vn 0.8490492 0.2786355 -0.4488625
vn 0.5807199 -0.1271331 -0.8041155
vn 0.972176 0.2065501 0.1105036
vn 0.6332861 -0.6859463 0.3583664
vn 0.3845301 -0.8632002 0.3271421
vn 0.3542913 -0.2210494 -0.9086335
vn -3.03785E-06 0.1843288 0.9828646
vn -0.7559057 0.08572415 -0.6490439
vn -0.8910664 0.07365796 0.4478562
vn -0.997475 0.05833756 -0.04050241
vn -0.913631 0.0823126 -0.3981245
vn -0.8841059 -0.315913 0.3443191
vn -5.261105E-07 -0.1695041 -0.9855295
vn -0.3697362 -0.1578898 -0.9156232
vn -0.697108 -0.05531475 -0.7148291
vn -0.9220697 0.05511783 -0.383079
vn -0.9968021 -0.07962418 -0.006750545
vn -0.8972666 0.2943341 -0.3290596
vn -0.9103751 -0.1742291 0.3753152
vn -6.306715E-06 -0.1176595 0.993054
vn 0 -0.07530426 -0.9971607
vn -0.4438224 -0.05399856 -0.8944863
vn -0.6946323 -0.1123784 -0.710533
vn -0.8846892 -0.2092576 -0.4165767
vn -0.9722883 -0.2186771 -0.08267867
vn -0.3166806 0.3445221 0.8837522
vn -0.3792101 0.1891023 0.9057814
vn -0.4679148 -0.1181936 0.8758345
vn -0.4797272 -0.6110531 0.6296633
vn -0.6943969 -0.4899066 0.5270715
vn -3.458216E-06 -0.7062705 0.7079422
vn -9.931096E-07 -0.2635399 -0.9646484
vn -0.6218109 0.09729336 0.7771006
vn -0.6859872 -0.1344334 0.7150868
vn -0.267051 0.3320557 0.9046672
vn 1.602671E-07 0.326322 0.9452587
vn -0.5362276 0.264131 0.8016825
vn -0.8545272 0.3778073 0.3564335
vn -0.918426 0.3947754 0.02541682
vn 0.7559057 0.08572408 -0.6490439
vn 0.892295 0.07465471 0.4452375
vn 0.9972183 0.05715755 -0.04784023
vn 0.9116957 0.08052757 -0.4028974
vn 0.8841057 -0.3159131 0.3443196
vn 0.3697358 -0.1578878 -0.9156238
vn 0.6971084 -0.05531296 -0.7148289
vn 0.9220697 0.05511757 -0.3830791
vn 0.9968021 -0.07962469 -0.006750749
vn 0.8938934 0.2992211 -0.3337984
vn 0.9109275 -0.172722 0.374671
vn 0.4438223 -0.05399853 -0.8944864
vn 0.6946326 -0.1123784 -0.7105327
vn 0.883172 -0.211967 -0.4184222
vn 0.9717267 -0.2200445 -0.08560195
vn 0.3166803 0.344521 0.8837527
vn 0.3792104 0.1891071 0.9057803
vn 0.4679193 -0.1181949 0.875832
vn 0.4797285 -0.6110592 0.6296564
vn 0.6944001 -0.4899094 0.5270647
vn 0.6220201 0.09769179 0.776883
vn 0.6859955 -0.1344335 0.7150788
vn 0.2670511 0.3320554 0.9046673
vn 0.5377814 0.2621625 0.8012877
vn 0.8576369 0.3709477 0.3561696
vn 0.9183266 0.3950814 0.02422633
vn 0.9237874 0.3536792 0.146724
vn -0.9237875 0.3536789 0.1467242
vn 0.9490898 0.3124445 -0.0400882
vn 0.839159 0.2863367 0.4624103
vn -0.949424 0.3120595 -0.0348262
vn -0.8359891 0.2920597 0.464568
vn -5.261105E-07 -0.1695041 -0.9855295
vn -9.931096E-07 -0.2635399 -0.9646484
vn 0 -0.07530426 -0.9971607
vn -0.4797272 -0.6110531 0.6296633
vn -0.6218109 0.09729336 0.7771006
vn -0.6859872 -0.1344334 0.7150868
vn -0.6943969 -0.4899066 0.5270715
vn -3.458216E-06 -0.7062705 0.7079422
vn -0.5362276 0.264131 0.8016825
vn 0.4797285 -0.6110592 0.6296564
vn 0.6859955 -0.1344335 0.7150788
vn 0.6220201 0.09769179 0.776883
vn 0.6944001 -0.4899094 0.5270647
vn 0.5377814 0.2621625 0.8012877
g long_mdl_0
f 48/48/48 47/47/47 76/76/76
f 80/80/80 47/47/47 48/48/48
f 79/79/79 80/80/80 48/48/48
f 18/18/18 80/80/80 79/79/79
f 19/19/19 18/18/18 79/79/79
f 28/28/28 18/18/18 19/19/19
f 34/34/34 28/28/28 19/19/19
f 21/21/21 28/28/28 34/34/34
f 26/26/26 21/21/21 34/34/34
f 5/5/5 21/21/21 26/26/26
f 25/25/25 5/5/5 26/26/26
f 3/3/3 5/5/5 25/25/25
f 24/24/24 3/3/3 25/25/25
f 4/4/4 3/3/3 24/24/24
f 23/23/23 4/4/4 24/24/24
f 8/8/8 4/4/4 23/23/23
f 22/22/22 8/8/8 23/23/23
f 41/41/41 8/8/8 22/22/22
f 74/74/74 75/75/75 73/73/73
f 78/78/78 74/74/74 73/73/73
f 77/77/77 74/74/74 78/78/78
f 50/50/50 77/77/77 78/78/78
f 51/51/51 77/77/77 50/50/50
f 59/59/59 51/51/51 50/50/50
f 63/63/63 51/51/51 59/59/59
f 53/53/53 63/63/63 59/59/59
f 57/57/57 63/63/63 53/53/53
f 12/12/12 57/57/57 53/53/53
f 56/56/56 57/57/57 12/12/12
f 10/10/10 56/56/56 12/12/12
f 55/55/55 56/56/56 10/10/10
f 11/11/11 55/55/55 10/10/10
f 54/54/54 55/55/55 11/11/11
f 15/15/15 54/54/54 11/11/11
f 81/81/81 54/54/54 15/15/15
f 82/82/82 81/81/81 15/15/15
f 23/23/23 30/30/30 22/22/22
f 31/31/31 30/30/30 23/23/23
f 24/24/24 31/31/31 23/23/23
f 32/32/32 31/31/31 24/24/24
f 25/25/25 32/32/32 24/24/24
f 33/33/33 32/32/32 25/25/25
f 26/26/26 33/33/33 25/25/25
f 34/34/34 33/33/33 26/26/26
f 18/18/18 42/42/42 89/89/89
f 43/43/43 42/42/42 18/18/18
f 28/28/28 43/43/43 18/18/18
f 39/39/39 43/43/43 28/28/28
f 21/21/21 39/39/39 28/28/28
f 6/6/6 39/39/39 21/21/21
f 2/2/2 6/6/6 21/21/21
f 21/21/21 5/5/5 2/2/2
f 1/1/1 67/67/67 88/88/88
f 38/38/38 1/1/1 88/88/88
f 7/7/7 1/1/1 38/38/38
f 6/6/6 7/7/7 38/38/38
f 39/39/39 6/6/6 38/38/38
f 80/80/80 89/89/89 47/47/47
f 18/18/18 89/89/89 80/80/80
f 27/27/27 79/79/79 48/48/48
f 19/19/19 79/79/79 27/27/27
f 20/20/20 19/19/19 27/27/27
f 34/34/34 19/19/19 20/20/20
f 33/33/33 34/34/34 20/20/20
f 62/62/62 63/63/63 57/57/57
f 56/56/56 62/62/62 57/57/57
f 61/61/61 62/62/62 56/56/56
f 55/55/55 61/61/61 56/56/56
f 60/60/60 61/61/61 55/55/55
f 54/54/54 60/60/60 55/55/55
f 83/83/83 60/60/60 54/54/54
f 81/81/81 83/83/83 54/54/54
f 53/53/53 13/13/13 9/9/9
f 68/68/68 13/13/13 53/53/53
f 59/59/59 68/68/68 53/53/53
f 70/70/70 68/68/68 59/59/59
f 50/50/50 70/70/70 59/59/59
f 69/69/69 70/70/70 50/50/50
f 94/94/94 69/69/69 50/50/50
f 9/9/9 12/12/12 53/53/53
f 67/67/67 13/13/13 68/68/68
f 14/14/14 13/13/13 67/67/67
f 1/1/1 14/14/14 67/67/67
f 49/49/49 62/62/62 61/61/61
f 52/52/52 62/62/62 49/49/49
f 58/58/58 52/52/52 49/49/49
f 51/51/51 52/52/52 58/58/58
f 77/77/77 51/51/51 58/58/58
f 49/49/49 61/61/61 60/60/60
f 17/17/17 33/33/33 20/20/20
f 32/32/32 33/33/33 17/17/17
f 31/31/31 32/32/32 17/17/17
f 17/17/17 20/20/20 27/27/27
f 74/74/74 77/77/77 58/58/58
f 94/94/94 78/78/78 73/73/73
f 50/50/50 78/78/78 94/94/94
f 52/52/52 63/63/63 62/62/62
f 51/51/51 63/63/63 52/52/52
g long_mdl_1
f 37/37/37 87/87/87 84/84/84
f 29/29/29 37/37/37 84/84/84
f 36/36/36 37/37/37 29/29/29
f 16/16/16 36/36/36 29/29/29
f 44/44/44 36/36/36 16/16/16
f 45/45/45 44/44/44 16/16/16
f 66/66/66 93/93/93 91/91/91
f 90/90/90 93/93/93 66/66/66
f 29/29/29 90/90/90 66/66/66
f 40/40/40 90/90/90 29/29/29
f 84/84/84 40/40/40 29/29/29
f 86/86/86 87/87/87 37/37/37
f 36/36/36 86/86/86 37/37/37
f 85/85/85 86/86/86 36/36/36
f 46/46/46 85/85/85 36/36/36
f 65/65/65 72/72/72 64/64/64
f 71/71/71 65/65/65 64/64/64
f 16/16/16 65/65/65 71/71/71
f 45/45/45 16/16/16 71/71/71
f 65/65/65 92/92/92 72/72/72
f 91/91/91 92/92/92 65/65/65
f 66/66/66 91/91/91 65/65/65
f 35/35/35 36/36/36 44/44/44
f 46/46/46 36/36/36 35/35/35
f 65/65/65 29/29/29 66/66/66
f 16/16/16 29/29/29 65/65/65
