g longBigCheek_geo
v 8.583068E-08 1.076477 0.206447
v 8.583068E-08 1.076697 0.2300045
v 4.291534E-08 1.122366 0.135488
v 4.291534E-08 1.202661 -0.04242997
v 8.843666E-08 1.130203 0.2582577
v -8.583068E-08 1.248868 -0.05543645
v 8.583068E-08 1.091704 0.2406753
v 0.1258411 1.304382 0.07678619
v 0.1527673 1.299731 0.1781528
v 0.08811414 1.165467 0.06579768
v 0.054042 1.094549 0.1850287
v 0.02420038 1.079094 0.227281
v 0.04507155 1.086371 0.2140063
v 0.05902397 1.13215 0.1250948
v 0.1463138 1.297462 0.1209199
v 0.07309347 1.11447 0.191
v 0.02585697 1.081158 0.2034
v 0.07694595 1.196593 0.002360219
v 0.1367085 1.351041 0.116119
v 0.04723576 1.202498 -0.02824993
v 0.0334645 1.129325 0.248209
v 0.0537083 1.248998 -0.04227353
v 0.106403 1.146961 0.1942665
v 0.1353338 1.194177 0.1917847
v 0.121263 1.195544 0.1246319
v 0.09897314 1.20598 0.05443408
v 0.0843031 1.211456 0.2490356
v 0.07695291 1.17579 0.2388334
v 0.06458607 1.128276 0.2282789
v 0.1466263 1.343163 0.1697423
v 0.08239703 1.260185 0.2550886
v 0.1465734 1.245625 0.1870826
v 0.08337225 1.251282 -0.01077644
v 0.04481819 1.270771 0.270996
v 0.05650313 1.102786 0.2221421
v 0.02504884 1.092381 0.2370444
v 0.1321577 1.299617 0.2150285
v 0.1201509 1.250183 0.2313346
v 0.1076734 1.206539 0.2322832
v 0.1359641 1.370125 0.1650634
v 0.1387425 1.245909 0.121518
v 0.1124256 1.26626 0.04418951
v 0.09856979 1.158188 0.1274938
v 0.07109286 1.133202 0.1469136
v 0.04133338 1.110105 0.1600061
v 8.583068E-08 1.102608 0.1626092
v -0.1258411 1.304382 0.07678619
v -0.1527671 1.299731 0.1781528
v -0.08811409 1.165467 0.06579768
v -0.05404183 1.094549 0.1850287
v -0.02420021 1.079094 0.227281
v -0.04507138 1.086371 0.2140063
v -0.05902392 1.13215 0.1250948
v -0.1463136 1.297462 0.1209199
v -0.0730933 1.11447 0.191
v -0.0258568 1.081158 0.2034
v -0.07694598 1.196593 0.002360201
v -0.1367085 1.351041 0.116119
v -0.04723571 1.202498 -0.02824994
v -0.03346432 1.129325 0.248209
v -0.0537083 1.248998 -0.04227353
v -0.1064029 1.146961 0.1942665
v -0.1353336 1.194177 0.1917847
v -0.1212629 1.195544 0.1246319
v -0.09897298 1.20598 0.05443408
v -0.0843031 1.211456 0.2490356
v -0.07695291 1.17579 0.2388334
v -0.06458592 1.128276 0.2282789
v -0.1466262 1.343163 0.1697423
v -0.08239703 1.260185 0.2550886
v -0.1465732 1.245625 0.1870826
v -0.08337225 1.251282 -0.01077644
v -0.04481819 1.270771 0.270996
v -0.05650296 1.102786 0.2221421
v -0.02504867 1.092381 0.2370444
v -0.1321577 1.299617 0.2150285
v -0.1201507 1.250183 0.2313346
v -0.1076733 1.206539 0.2322832
v -0.1359641 1.370125 0.1650634
v -0.1383473 1.245909 0.121518
v -0.1124256 1.26626 0.04418951
v -0.09856964 1.158123 0.1274938
v -0.07109269 1.128727 0.1469136
v -0.04133321 1.110105 0.1600061
v 5.705961E-09 1.215834 0.2803304
v 7.493474E-09 1.165626 0.2695997
v 8.242444E-09 1.261863 0.2793616
v 0.0402963 1.215104 0.2708184
v 0.03753049 1.169103 0.260166
v -0.04029629 1.215104 0.2708184
v -0.03753049 1.169103 0.260166
v -0.05233814 1.282856 0.2677821
v 0.05233814 1.282856 0.2677821
v 0.1414179 1.342997 0.1898794
v -0.141368 1.342996 0.1899767
v 8.583068E-08 1.102608 0.1626092
v 8.583068E-08 1.076477 0.206447
v -8.583068E-08 1.248868 -0.05543645
v 4.291534E-08 1.202661 -0.04242997
v 4.291534E-08 1.122366 0.135488
v 0.08239703 1.260185 0.2550886
v 8.843666E-08 1.130203 0.2582577
v 0.0334645 1.129325 0.248209
v 0.07695291 1.17579 0.2388334
v 0.0843031 1.211456 0.2490356
v 0.06458607 1.128276 0.2282789
v -0.03346432 1.129325 0.248209
v -0.07695291 1.17579 0.2388334
v -0.0843031 1.211456 0.2490356
v -0.06458592 1.128276 0.2282789
v -0.08239703 1.260185 0.2550886
vt 0.6317269 0.1389509
vt 0.6195801 0.147505
vt 0.6730062 0.1342871
vt 0.7282166 0.2214371
vt 0.6194485 0.1663311
vt 0.7200802 0.2322805
vt 0.6195182 0.1557141
vt 0.6692817 0.2140554
vt 0.6507274 0.2050042
vt 0.6930437 0.1813607
vt 0.6459075 0.1544933
vt 0.6287194 0.1521319
vt 0.6364514 0.1549021
vt 0.6765865 0.1595555
vt 0.6607806 0.2078713
vt 0.6490149 0.1641516
vt 0.6381105 0.147196
vt 0.7078351 0.2023957
vt 0.6574061 0.2179382
vt 0.7168695 0.2125123
vt 0.6287977 0.1655604
vt 0.7076459 0.2230849
vt 0.650324 0.1750762
vt 0.6516364 0.1858215
vt 0.6662091 0.1868135
vt 0.686178 0.1932623
vt 0.6355713 0.1854479
vt 0.640146 0.1751054
vt 0.6388415 0.1655709
vt 0.6493593 0.212398
vt 0.6346468 0.1951121
vt 0.6514418 0.1955653
vt 0.6977028 0.2140893
vt 0.6272879 0.1963224
vt 0.6374137 0.1609009
vt 0.6274958 0.1569473
vt 0.6420877 0.2031371
vt 0.6423131 0.1945664
vt 0.6425602 0.1856995
vt 0.647872 0.2172236
vt 0.664238 0.1980616
vt 0.679565 0.2067681
vt 0.6677585 0.1743599
vt 0.6622853 0.1639695
vt 0.6566285 0.149964
vt 0.653502 0.1333027
vt 0.5692536 0.2134071
vt 0.5878832 0.2046071
vt 0.5458094 0.1804454
vt 0.5931553 0.1541272
vt 0.6103763 0.1520042
vt 0.6026081 0.1546689
vt 0.5625443 0.158843
vt 0.5778086 0.2073162
vt 0.5899212 0.1637676
vt 0.601033 0.1469284
vt 0.5307379 0.2013432
vt 0.58111 0.2174204
vt 0.52157 0.2114033
vt 0.6100942 0.1654103
vt 0.5307161 0.2221023
vt 0.5885677 0.1746806
vt 0.5871385 0.1853882
vt 0.572573 0.1862166
vt 0.5525396 0.1924372
vt 0.6038803 0.1853255
vt 0.5986905 0.1747944
vt 0.6000949 0.1652721
vt 0.589219 0.211973
vt 0.6042545 0.1947919
vt 0.5872427 0.195135
vt 0.5407777 0.2131753
vt 0.611296 0.1961375
vt 0.6015713 0.1606396
vt 0.6115276 0.156831
vt 0.596688 0.2027267
vt 0.5963545 0.1942178
vt 0.5962046 0.1853587
vt 0.5906866 0.2168099
vt 0.5744069 0.1974732
vt 0.5590202 0.2060184
vt 0.5711808 0.1737366
vt 0.5771361 0.1626077
vt 0.5825071 0.1494289
vt 0.6193296 0.1853171
vt 0.6193904 0.1752805
vt 0.6192546 0.1944507
vt 0.6271566 0.1854317
vt 0.6276504 0.1754165
vt 0.6115288 0.1853153
vt 0.6111262 0.1753021
vt 0.610067 0.1981323
vt 0.628588 0.1983987
vt 0.6461358 0.2115864
vt 0.5924749 0.2111713
vt 0.5857612 0.1327644
vt 0.6075086 0.138771
vt 0.5181521 0.2312069
vt 0.5100973 0.2202446
vt 0.5662349 0.1335949
vt 0.6346468 0.1951121
vt 0.6194485 0.1663311
vt 0.6287977 0.1655604
vt 0.640146 0.1751054
vt 0.6355713 0.1854479
vt 0.6388415 0.1655709
vt 0.6100942 0.1654103
vt 0.5986905 0.1747944
vt 0.6038803 0.1853255
vt 0.6000949 0.1652721
vt 0.6042545 0.1947919
vn 0 -0.9580426 -0.2866261
vn 0 -0.8987908 0.4383777
vn 0 -0.8335408 -0.5524578
vn -1.385221E-07 -0.2965089 -0.9550301
vn 0 -0.3435926 0.9391187
vn -1.385221E-07 -0.2965089 -0.9550301
vn 0 -0.4868489 0.8734862
vn 0.92061 0.02219341 -0.3898523
vn 0.9842799 0.02600629 0.1746901
vn 0.8549888 -0.4392437 -0.2757882
vn 0.4520237 -0.8442793 -0.2878662
vn 0.3086857 -0.8759989 0.3705927
vn 0.5148787 -0.8469142 0.1328015
vn 0.4940766 -0.8075948 -0.3219919
vn 0.9653302 0.01175417 -0.260767
vn 0.7370649 -0.6754435 0.02261321
vn 0.1907928 -0.9432983 -0.2716362
vn 0.8141059 -0.2655219 -0.5164589
vn 0.9524741 0.2075088 -0.2230093
vn 0.485107 -0.2871405 -0.825967
vn 0.3707336 -0.3338915 0.8666446
vn 0.485107 -0.2871405 -0.825967
vn 0.755793 -0.5934329 0.2767928
vn 0.89363 -0.383389 0.23332
vn 0.8767356 -0.4047431 -0.2598417
vn 0.8603289 -0.3903034 -0.327868
vn 0.4768902 -0.1957373 0.8568913
vn 0.5604508 -0.3333612 0.7581327
vn 0.6604804 -0.419202 0.6229249
vn 0.9602682 0.2606833 0.09964534
vn 0.4746051 -0.008343205 0.8801593
vn 0.963816 -0.1648426 0.209489
vn 0.8384303 -0.2654012 -0.476022
vn 0.3367965 -0.02148367 0.9413323
vn 0.7013101 -0.5198341 0.4877875
vn 0.3528494 -0.4854618 0.7998902
vn 0.7985004 0.08024141 0.5966224
vn 0.7120957 -0.04387758 0.70071
vn 0.6378238 -0.2633549 0.7237576
vn 0.9249874 0.3756877 0.05706949
vn 0.9465797 -0.2001307 -0.2528531
vn 0.9018718 -0.2133901 -0.3756221
vn 0.7235504 -0.6435041 -0.2497542
vn 0.5632983 -0.7663555 -0.3088596
vn 0.2382286 -0.8360817 -0.4941805
vn 0 -0.8320172 -0.5547497
vn -0.9210075 0.01979006 -0.3890419
vn -0.9844298 0.02502892 0.173987
vn -0.8547913 -0.4394306 -0.2761026
vn -0.4431832 -0.8522744 -0.2778794
vn -0.3086857 -0.8759989 0.3705932
vn -0.5148786 -0.8469143 0.1328018
vn -0.4508597 -0.805394 -0.3847935
vn -0.9652672 0.009562141 -0.2610898
vn -0.735999 -0.675994 0.03657309
vn -0.1907929 -0.9432985 -0.2716358
vn -0.8141065 -0.2655211 -0.5164583
vn -0.9524754 0.2075057 -0.2230068
vn -0.4851067 -0.2871408 -0.8259671
vn -0.370734 -0.3338925 0.8666441
vn -0.4851067 -0.2871408 -0.8259671
vn -0.7602178 -0.5850523 0.2824581
vn -0.8941594 -0.3825398 0.232685
vn -0.8775377 -0.4029482 -0.2599237
vn -0.8607466 -0.3896661 -0.3275298
vn -0.476891 -0.1957374 0.8568908
vn -0.5604513 -0.3333622 0.758132
vn -0.6604804 -0.4192027 0.6229244
vn -0.9602259 0.2607308 0.09992783
vn -0.4746054 -0.008343981 0.8801591
vn -0.9641014 -0.1650467 0.2080099
vn -0.8384307 -0.2654012 -0.4760213
vn -0.3367964 -0.02148359 0.9413323
vn -0.7013105 -0.5198335 0.4877876
vn -0.3528498 -0.4854618 0.7998899
vn -0.7984828 0.08027009 0.5966421
vn -0.7120964 -0.04387895 0.7007092
vn -0.6378244 -0.2633545 0.7237572
vn -0.9249306 0.3757491 0.05758542
vn -0.9464126 -0.200597 -0.2531084
vn -0.9023635 -0.2139536 -0.3741174
vn -0.7272863 -0.6298079 -0.2727573
vn -0.5272732 -0.7723386 -0.3542258
vn -0.2073707 -0.8410435 -0.499643
vn 3.383769E-07 -0.1129061 0.9936056
vn 2.465298E-07 -0.266633 0.9637982
vn 1.065874E-07 -0.001565496 0.9999988
vn 0.3298577 -0.1408628 0.9334621
vn 0.3654535 -0.2753129 0.889183
vn -0.3298579 -0.1408633 0.933462
vn -0.3654536 -0.2753142 0.8891826
vn -0.3902916 0.001985617 0.9206892
vn 0.3902916 0.001985617 0.9206892
vn 0.9082835 0.2625142 0.3257413
vn -0.9080766 0.2625763 0.3262677
vn 0 -0.8320172 -0.5547497
vn 0 -0.9580426 -0.2866261
vn -1.385221E-07 -0.2965089 -0.9550301
vn -1.385221E-07 -0.2965089 -0.9550301
vn 0 -0.8335408 -0.5524578
vn 0.4746051 -0.008343205 0.8801593
vn 0 -0.3435926 0.9391187
vn 0.3707336 -0.3338915 0.8666446
vn 0.5604508 -0.3333612 0.7581327
vn 0.4768902 -0.1957373 0.8568913
vn 0.6604804 -0.419202 0.6229249
vn -0.370734 -0.3338925 0.8666441
vn -0.5604513 -0.3333622 0.758132
vn -0.476891 -0.1957374 0.8568908
vn -0.6604804 -0.4192027 0.6229244
vn -0.4746054 -0.008343981 0.8801591
g longBigCheek_geo_0
f 34/34/34 31/31/31 93/93/93
f 92/92/92 111/111/111 73/73/73
f 38/38/38 37/37/37 101/101/101
f 32/32/32 37/37/37 38/38/38
f 24/24/24 32/32/32 38/38/38
f 41/41/41 32/32/32 24/24/24
f 25/25/25 41/41/41 24/24/24
f 42/42/42 41/41/41 25/25/25
f 26/26/26 42/42/42 25/25/25
f 33/33/33 42/42/42 26/26/26
f 18/18/18 33/33/33 26/26/26
f 22/22/22 33/33/33 18/18/18
f 20/20/20 22/22/22 18/18/18
f 6/6/6 22/22/22 20/20/20
f 4/4/4 6/6/6 20/20/20
f 59/59/59 98/98/98 99/99/99
f 61/61/61 98/98/98 59/59/59
f 57/57/57 61/61/61 59/59/59
f 72/72/72 61/61/61 57/57/57
f 65/65/65 72/72/72 57/57/57
f 81/81/81 72/72/72 65/65/65
f 64/64/64 81/81/81 65/65/65
f 80/80/80 81/81/81 64/64/64
f 63/63/63 80/80/80 64/64/64
f 71/71/71 80/80/80 63/63/63
f 77/77/77 71/71/71 63/63/63
f 76/76/76 71/71/71 77/77/77
f 70/70/70 76/76/76 77/77/77
f 17/17/17 1/1/1 46/46/46
f 12/12/12 1/1/1 17/17/17
f 13/13/13 12/12/12 17/17/17
f 35/35/35 12/12/12 13/13/13
f 11/11/11 35/35/35 13/13/13
f 16/16/16 35/35/35 11/11/11
f 45/45/45 16/16/16 11/11/11
f 44/44/44 16/16/16 45/45/45
f 14/14/14 44/44/44 45/45/45
f 43/43/43 44/44/44 14/14/14
f 10/10/10 43/43/43 14/14/14
f 26/26/26 43/43/43 10/10/10
f 18/18/18 26/26/26 10/10/10
f 9/9/9 94/94/94 37/37/37
f 32/32/32 9/9/9 37/37/37
f 15/15/15 9/9/9 32/32/32
f 41/41/41 15/15/15 32/32/32
f 8/8/8 15/15/15 41/41/41
f 42/42/42 8/8/8 41/41/41
f 84/84/84 100/100/100 96/96/96
f 56/56/56 84/84/84 96/96/96
f 50/50/50 84/84/84 56/56/56
f 52/52/52 50/50/50 56/56/56
f 74/74/74 50/50/50 52/52/52
f 51/51/51 74/74/74 52/52/52
f 75/75/75 74/74/74 51/51/51
f 2/2/2 75/75/75 51/51/51
f 7/7/7 75/75/75 2/2/2
f 36/36/36 7/7/7 2/2/2
f 21/21/21 7/7/7 36/36/36
f 29/29/29 21/21/21 36/36/36
f 55/55/55 84/84/84 50/50/50
f 74/74/74 55/55/55 50/50/50
f 68/68/68 55/55/55 74/74/74
f 75/75/75 68/68/68 74/74/74
f 60/60/60 68/68/68 75/75/75
f 7/7/7 60/60/60 75/75/75
f 5/5/5 60/60/60 7/7/7
f 21/21/21 5/5/5 7/7/7
f 29/29/29 35/35/35 16/16/16
f 23/23/23 29/29/29 16/16/16
f 28/28/28 29/29/29 23/23/23
f 39/39/39 28/28/28 23/23/23
f 27/27/27 28/28/28 39/39/39
f 101/101/101 27/27/27 39/39/39
f 30/30/30 40/40/40 94/94/94
f 19/19/19 40/40/40 30/30/30
f 15/15/15 19/19/19 30/30/30
f 8/8/8 19/19/19 15/15/15
f 45/45/45 3/3/3 14/14/14
f 46/46/46 3/3/3 45/45/45
f 17/17/17 46/46/46 45/45/45
f 80/80/80 47/47/47 81/81/81
f 54/54/54 47/47/47 80/80/80
f 71/71/71 54/54/54 80/80/80
f 48/48/48 54/54/54 71/71/71
f 76/76/76 48/48/48 71/71/71
f 95/95/95 48/48/48 76/76/76
f 56/56/56 2/2/2 51/51/51
f 97/97/97 2/2/2 56/56/56
f 96/96/96 97/97/97 56/56/56
f 58/58/58 47/47/47 54/54/54
f 69/69/69 58/58/58 54/54/54
f 79/79/79 58/58/58 69/69/69
f 95/95/95 79/79/79 69/69/69
f 78/78/78 66/66/66 70/70/70
f 67/67/67 66/66/66 78/78/78
f 62/62/62 67/67/67 78/78/78
f 68/68/68 67/67/67 62/62/62
f 55/55/55 68/68/68 62/62/62
f 78/78/78 70/70/70 77/77/77
f 63/63/63 78/78/78 77/77/77
f 62/62/62 78/78/78 63/63/63
f 64/64/64 62/62/62 63/63/63
f 82/82/82 62/62/62 64/64/64
f 65/65/65 82/82/82 64/64/64
f 49/49/49 82/82/82 65/65/65
f 57/57/57 49/49/49 65/65/65
f 83/83/83 55/55/55 62/62/62
f 82/82/82 83/83/83 62/62/62
f 53/53/53 83/83/83 82/82/82
f 49/49/49 53/53/53 82/82/82
f 84/84/84 53/53/53 100/100/100
f 83/83/83 53/53/53 84/84/84
f 55/55/55 83/83/83 84/84/84
f 36/36/36 35/35/35 29/29/29
f 12/12/12 35/35/35 36/36/36
f 2/2/2 12/12/12 36/36/36
f 1/1/1 12/12/12 2/2/2
f 39/39/39 38/38/38 101/101/101
f 24/24/24 38/38/38 39/39/39
f 23/23/23 24/24/24 39/39/39
f 25/25/25 24/24/24 23/23/23
f 43/43/43 25/25/25 23/23/23
f 26/26/26 25/25/25 43/43/43
f 17/17/17 11/11/11 13/13/13
f 45/45/45 11/11/11 17/17/17
f 30/30/30 9/9/9 15/15/15
f 94/94/94 9/9/9 30/30/30
f 44/44/44 23/23/23 16/16/16
f 43/43/43 23/23/23 44/44/44
f 48/48/48 69/69/69 54/54/54
f 95/95/95 69/69/69 48/48/48
f 51/51/51 52/52/52 56/56/56
g longBigCheek_geo_1
f 90/90/90 109/109/109 108/108/108
f 91/91/91 90/90/90 108/108/108
f 86/86/86 90/90/90 91/91/91
f 102/102/102 86/86/86 91/91/91
f 89/89/89 86/86/86 102/102/102
f 103/103/103 89/89/89 102/102/102
f 104/104/104 89/89/89 103/103/103
f 106/106/106 104/104/104 103/103/103
f 107/107/107 108/108/108 110/110/110
f 91/91/91 108/108/108 107/107/107
f 102/102/102 91/91/91 107/107/107
f 88/88/88 31/31/31 34/34/34
f 105/105/105 31/31/31 88/88/88
f 104/104/104 105/105/105 88/88/88
f 90/90/90 111/111/111 109/109/109
f 73/73/73 111/111/111 90/90/90
f 85/85/85 73/73/73 90/90/90
f 87/87/87 73/73/73 85/85/85
f 34/34/34 87/87/87 85/85/85
f 88/88/88 89/89/89 104/104/104
f 86/86/86 89/89/89 88/88/88
f 85/85/85 86/86/86 88/88/88
f 90/90/90 86/86/86 85/85/85
f 34/34/34 85/85/85 88/88/88
