g lootBag_geo
v -0.08815719 0.02703476 0.1179607
v 0.1041399 0.02703476 0.1110999
v 0.130704 0.07799878 0.2163616
v -0.1214586 0.07799878 0.2253242
v 0.17745 0.02703476 -0.006855929
v 0.2373252 0.07799878 -0.008993902
v 0.1113851 0.02703476 -0.118002
v 0.1447031 0.07799878 -0.2253769
v -0.08088873 0.02703476 -0.1111781
v -0.1074659 0.07799878 -0.216416
v -0.1806569 0.02703476 0.006817971
v -0.2405457 0.07799878 0.008955942
v 0.1117856 0.2737314 0.2163882
v -0.1396043 0.2609356 0.2242893
v 0.2363014 0.2891751 -0.01160218
v 0.1268773 0.2892712 -0.23238
v -0.1245101 0.2764744 -0.2244626
v -0.2577476 0.2623071 0.003847214
v 0.06328458 0.4489793 0.1520337
v -0.1041334 0.4356709 0.1243167
v 0.11131 0.4730558 -0.007632433
v 0.04515709 0.4659083 -0.1318783
v -0.0956264 0.4436416 -0.1280674
v -0.1702777 0.4285234 3.926352E-05
v -0.04848518 0.5357133 -0.003492987
v -0.03834137 0.5366087 0.01557256
v -0.01675539 0.5393991 0.01499303
v -0.005304885 0.5412928 -0.00465015
v -0.01546308 0.5403991 -0.02373034
v -0.03705292 0.5376088 -0.02313593
v -0.02679303 0.5068688 0.01021365
v -0.03503087 0.5061449 -0.005300788
v -0.009281729 0.5091335 0.00969673
v -1.753802E-05 0.5106723 -0.00623233
v -0.008230779 0.5099441 -0.02170353
v -0.02575375 0.5076814 -0.02121071
v -0.07449751 0.6093506 0.02517361
v -0.1123773 0.6035045 -0.0003886347
v -0.01310714 0.6154932 0.0356202
v 0.02613474 0.6502239 -0.00286621
v -0.01051513 0.6174942 -0.04188702
v -0.08309379 0.625656 -0.05956316
v -0.04366007 0.5701896 -0.01024814
v 0.1041399 0.02703476 0.1110999
v 0.130704 0.07799878 0.2163616
v 0.1113851 0.02703476 -0.118002
v 0.1447031 0.07799878 -0.2253769
v -0.08088873 0.02703476 -0.1111781
v -0.1074659 0.07799878 -0.216416
v -0.1214586 0.07799878 0.2253242
v -0.08815719 0.02703476 0.1179607
v 0.1117856 0.2737314 0.2163882
v 0.1268773 0.2892712 -0.23238
v -0.1245101 0.2764744 -0.2244626
v -0.1396043 0.2609356 0.2242893
v 0.06328458 0.4489793 0.1520337
v 0.04515709 0.4659083 -0.1318783
v -0.0956264 0.4436416 -0.1280674
v -0.1041334 0.4356709 0.1243167
v -0.02679303 0.5068688 0.01021365
v -0.009281729 0.5091335 0.00969673
v -0.008230779 0.5099441 -0.02170353
v -0.02575375 0.5076814 -0.02121071
v -0.03503087 0.5061449 -0.005300788
v -0.02679303 0.5068688 0.01021365
v -0.009281729 0.5091335 0.00969673
v -1.753802E-05 0.5106723 -0.00623233
v -0.008230779 0.5099441 -0.02170353
v -0.02575375 0.5076814 -0.02121071
v -0.04848518 0.5357133 -0.003492987
v -0.03834137 0.5366087 0.01557256
v -0.01675539 0.5393991 0.01499303
v -0.005304885 0.5412928 -0.00465015
v -0.01546308 0.5403991 -0.02373034
v -0.03705292 0.5376088 -0.02313593
v 0.17745 0.02703476 -0.006855929
v 0.1113851 0.02703476 -0.118002
v -0.08088873 0.02703476 -0.1111781
v -0.1806569 0.02703476 0.006817971
v 0.1041399 0.02703476 0.1110999
v -0.1123773 0.6035045 -0.0003886347
v -0.07449751 0.6093506 0.02517361
v -0.01310714 0.6154932 0.0356202
v 0.02613474 0.6502239 -0.00286621
v -0.01051513 0.6174942 -0.04188702
v -0.08309379 0.625656 -0.05956316
vt 0.211536 0.009970903
vt 0.8540919 0.009970903
vt 0.9428549 0.1137567
vt 0.1002601 0.1137567
vt 0.06465119 0.009970903
vt 0.06465119 0.1137567
vt 0.06465119 0.009970903
vt 0.06465119 0.1137567
vt 0.8319657 0.009970903
vt 0.9207724 0.1137567
vt 0.1015098 0.009970903
vt 0.1015098 0.1137567
vt 0.8924598 0.5122692
vt 0.02614018 0.4853953
vt 0.06465119 0.5065652
vt 0.06465119 0.5449064
vt 0.9724872 0.5180303
vt 0.1015098 0.4792793
vt 0.6449088 0.8692408
vt 0.134525 0.8421387
vt 0.06465119 0.8690079
vt 0.06465119 0.9037156
vt 0.9073297 0.8583707
vt 0.1015098 0.826712
vt 0.5060307 1.044873
vt 0.5060307 1.044873
vt 0.5060307 1.044873
vt 0.5060307 1.044873
vt 0.5060307 1.044873
vt 0.5060307 1.044873
vt 0.1015098 0.9903842
vt 0.1015098 0.9903842
vt 0.4578793 0.9917419
vt 0.06465119 0.9965683
vt 0.06465119 0.9933925
vt 0.6880052 0.9887848
vt -0.6703162 0.9673388
vt -0.6703162 0.9673388
vt -0.6703162 0.9673388
vt -0.6703162 0.9673388
vt -0.6703162 0.9673388
vt -0.6703162 0.9673388
vt 0.9655403 0.04978359
vt 0.06465119 0.009970903
vt 0.06465119 0.1137567
vt 0.1894876 0.009970903
vt 0.07815635 0.1137567
vt 0.1015098 0.009970903
vt 0.1015098 0.1137567
vt 0.1015098 0.1137567
vt 0.1015098 0.009970903
vt 0.06465119 0.5065652
vt 0.1233216 0.5449064
vt 0.1015097 0.5180303
vt 0.1015097 0.4792793
vt 0.06465119 0.8690079
vt 0.4781429 0.9037156
vt 0.1015098 0.8583707
vt 0.1015098 0.826712
vt 0.3748565 0.9871299
vt 0.06465119 0.9965683
vt 0.604927 0.9933925
vt 0.1015098 0.9903842
vt 0.5060307 1.044873
vt 0.5060307 1.044873
vt 0.5060307 1.044873
vt 0.5060307 1.044873
vt 0.5060307 1.044873
vt 0.5060307 1.044873
vt -0.6703162 0.9673388
vt -0.6703162 0.9673388
vt -0.6703162 0.9673388
vt -0.6703162 0.9673388
vt -0.6703162 0.9673388
vt -0.6703162 0.9673388
vt 0.211536 0.009970903
vt 0.211536 0.009970903
vt 0.211536 0.009970903
vt 0.211536 0.009970903
vt 0.211536 0.009970903
vt 0.9655403 0.6006747
vt 0.9655403 0.6006747
vt 0.9655403 0.6006747
vt 0.9655404 0.6006747
vt 0.9655403 0.6006747
vt 0.9655403 0.6006747
vn -0.1699356 -0.9491376 0.2650654
vn 0.2036726 -0.9447895 0.2566912
vn 0.482924 -0.5226616 0.7025732
vn -0.4220586 -0.56462 0.7092749
vn 0.397927 -0.9173654 0.009729245
vn 0.8902634 -0.4550398 0.01923467
vn 0.1891038 -0.9503884 -0.246985
vn 0.4608903 -0.5556771 -0.691956
vn -0.1852437 -0.9437464 -0.2739113
vn -0.4364579 -0.5606993 -0.7036482
vn -0.3639413 -0.9313806 -0.008772377
vn -0.8417611 -0.5395879 -0.01682919
vn 0.493232 0.2769286 0.824641
vn -0.5084832 0.2281638 0.8302928
vn 0.9521933 0.3052135 0.01313547
vn 0.4758245 0.3129074 -0.8219975
vn -0.5182455 0.2221488 -0.8258762
vn -0.9815183 0.1909273 -0.01298222
vn 0.2596061 0.7751929 0.5759172
vn -0.417493 0.7198742 0.5545093
vn 0.6059305 0.7954788 0.007854482
vn 0.2374683 0.8063185 -0.5417188
vn -0.4219562 0.7311415 -0.5360832
vn -0.7153069 0.6988093 0.001299622
vn -0.8480355 -0.5287154 0.03599536
vn -0.3918495 -0.3420857 0.8540676
vn 0.465013 -0.1374177 0.8745738
vn 0.9990647 -0.03927454 0.01808814
vn 0.5217605 -0.1085089 -0.846163
vn -0.3786945 -0.3598426 -0.8527039
vn -0.4975141 0.4272173 0.7549603
vn -0.935269 0.3537226 -0.012339
vn 0.3565148 0.5881128 0.7259617
vn 0.7374237 0.6751897 0.01802847
vn 0.3331954 0.6332934 -0.6985129
vn -0.5043656 0.4604495 -0.7304804
vn -0.360159 0.8519578 0.3800705
vn -0.7188476 0.6859971 0.1125439
vn 0.02107921 0.8131342 0.5816944
vn 0.1467603 0.9885215 0.03587052
vn 0.1070495 0.8154871 -0.5687894
vn -0.3107376 0.8997315 -0.3064724
vn -0.2003035 0.9797229 -0.0046403
vn 0.2036726 -0.9447895 0.2566912
vn 0.482924 -0.5226616 0.7025732
vn 0.1891038 -0.9503884 -0.246985
vn 0.4608903 -0.5556771 -0.691956
vn -0.1852437 -0.9437464 -0.2739113
vn -0.4364579 -0.5606993 -0.7036482
vn -0.4220586 -0.56462 0.7092749
vn -0.1699356 -0.9491376 0.2650654
vn 0.493232 0.2769286 0.824641
vn 0.4758245 0.3129074 -0.8219975
vn -0.5182455 0.2221488 -0.8258762
vn -0.5084832 0.2281638 0.8302928
vn 0.2596061 0.7751929 0.5759172
vn 0.2374683 0.8063185 -0.5417188
vn -0.4219562 0.7311415 -0.5360832
vn -0.417493 0.7198742 0.5545093
vn -0.4975141 0.4272173 0.7549603
vn 0.3565148 0.5881128 0.7259617
vn 0.3331954 0.6332934 -0.6985129
vn -0.5043656 0.4604495 -0.7304804
vn -0.935269 0.3537226 -0.012339
vn -0.4975141 0.4272173 0.7549603
vn 0.3565148 0.5881128 0.7259617
vn 0.7374237 0.6751897 0.01802847
vn 0.3331954 0.6332934 -0.6985129
vn -0.5043656 0.4604495 -0.7304804
vn -0.8480355 -0.5287154 0.03599536
vn -0.3918495 -0.3420857 0.8540676
vn 0.465013 -0.1374177 0.8745738
vn 0.9990647 -0.03927454 0.01808814
vn 0.5217605 -0.1085089 -0.846163
vn -0.3786945 -0.3598426 -0.8527039
vn 0.397927 -0.9173654 0.009729245
vn 0.1891038 -0.9503884 -0.246985
vn -0.1852437 -0.9437464 -0.2739113
vn -0.3639413 -0.9313806 -0.008772377
vn 0.2036726 -0.9447895 0.2566912
vn -0.7188476 0.6859971 0.1125439
vn -0.360159 0.8519578 0.3800705
vn 0.02107921 0.8131342 0.5816944
vn 0.1467603 0.9885215 0.03587052
vn 0.1070495 0.8154871 -0.5687894
vn -0.3107376 0.8997315 -0.3064724
g lootBag_geo_0
f 20/20/20 33/33/33 60/60/60
f 19/19/19 33/33/33 20/20/20
f 14/14/14 19/19/19 20/20/20
f 13/13/13 19/19/19 14/14/14
f 4/4/4 13/13/13 14/14/14
f 3/3/3 13/13/13 4/4/4
f 1/1/1 3/3/3 4/4/4
f 2/2/2 3/3/3 1/1/1
f 21/21/21 35/35/35 34/34/34
f 22/22/22 35/35/35 21/21/21
f 15/15/15 22/22/22 21/21/21
f 16/16/16 22/22/22 15/15/15
f 6/6/6 16/16/16 15/15/15
f 8/8/8 16/16/16 6/6/6
f 5/5/5 8/8/8 6/6/6
f 7/7/7 8/8/8 5/5/5
f 57/57/57 36/36/36 62/62/62
f 23/23/23 36/36/36 57/57/57
f 53/53/53 23/23/23 57/57/57
f 17/17/17 23/23/23 53/53/53
f 47/47/47 17/17/17 53/53/53
f 10/10/10 17/17/17 47/47/47
f 46/46/46 10/10/10 47/47/47
f 9/9/9 10/10/10 46/46/46
f 24/24/24 31/31/31 32/32/32
f 59/59/59 31/31/31 24/24/24
f 18/18/18 59/59/59 24/24/24
f 55/55/55 59/59/59 18/18/18
f 12/12/12 55/55/55 18/18/18
f 50/50/50 55/55/55 12/12/12
f 11/11/11 50/50/50 12/12/12
f 51/51/51 50/50/50 11/11/11
f 6/6/6 44/44/44 5/5/5
f 45/45/45 44/44/44 6/6/6
f 15/15/15 45/45/45 6/6/6
f 52/52/52 45/45/45 15/15/15
f 21/21/21 52/52/52 15/15/15
f 56/56/56 52/52/52 21/21/21
f 34/34/34 56/56/56 21/21/21
f 61/61/61 56/56/56 34/34/34
f 12/12/12 48/48/48 11/11/11
f 49/49/49 48/48/48 12/12/12
f 18/18/18 49/49/49 12/12/12
f 54/54/54 49/49/49 18/18/18
f 24/24/24 54/54/54 18/18/18
f 58/58/58 54/54/54 24/24/24
f 32/32/32 58/58/58 24/24/24
f 63/63/63 58/58/58 32/32/32
f 79/79/79 80/80/80 1/1/1
f 76/76/76 80/80/80 79/79/79
f 78/78/78 76/76/76 79/79/79
f 77/77/77 76/76/76 78/78/78
f 25/25/25 64/64/64 26/26/26
f 69/69/69 64/64/64 25/25/25
f 30/30/30 69/69/69 25/25/25
f 68/68/68 69/69/69 30/30/30
f 29/29/29 68/68/68 30/30/30
f 67/67/67 68/68/68 29/29/29
f 28/28/28 67/67/67 29/29/29
f 66/66/66 67/67/67 28/28/28
f 27/27/27 66/66/66 28/28/28
f 65/65/65 66/66/66 27/27/27
f 26/26/26 65/65/65 27/27/27
f 64/64/64 65/65/65 26/26/26
f 38/38/38 70/70/70 37/37/37
f 75/75/75 70/70/70 38/38/38
f 42/42/42 75/75/75 38/38/38
f 74/74/74 75/75/75 42/42/42
f 41/41/41 74/74/74 42/42/42
f 73/73/73 74/74/74 41/41/41
f 40/40/40 73/73/73 41/41/41
f 72/72/72 73/73/73 40/40/40
f 39/39/39 72/72/72 40/40/40
f 71/71/71 72/72/72 39/39/39
f 37/37/37 71/71/71 39/39/39
f 70/70/70 71/71/71 37/37/37
f 43/43/43 82/82/82 83/83/83
f 81/81/81 82/82/82 43/43/43
f 86/86/86 81/81/81 43/43/43
f 43/43/43 85/85/85 86/86/86
f 84/84/84 85/85/85 43/43/43
f 83/83/83 84/84/84 43/43/43
