g microphone_geo
v -0.04365773 0.2470419 -0.01570914
v -0.07430523 0.2465862 -0.02658599
v -0.08021559 0.2467999 -0.05856762
v -0.05547879 0.2474698 -0.07967231
v -0.02483111 0.2479258 -0.06879606
v -0.01892082 0.2477111 -0.03681413
v -0.03889073 0.2230822 0.007460353
v -0.09197409 0.2222923 -0.01137761
v -0.1022119 0.2226622 -0.06676975
v -0.05936627 0.2238205 -0.1033241
v -0.006282969 0.2246098 -0.08448619
v 0.003954685 0.2242415 -0.0290937
v -0.03670708 0.1905071 0.01570212
v -0.09800241 0.1895951 -0.00605015
v -0.1098238 0.1900231 -0.07001326
v -0.06034954 0.1913654 -0.1122233
v 0.0009454631 0.1922767 -0.0904709
v 0.0127669 0.191847 -0.02650821
v -0.03769015 0.158048 0.006802869
v -0.09077332 0.1572583 -0.01203557
v -0.1010114 0.1576296 -0.06742731
v -0.05816625 0.1587926 -0.1039807
v -0.005082931 0.1595822 -0.08514266
v 0.005155201 0.1592087 -0.02975121
v -0.04157826 0.1344024 -0.01684843
v -0.07222597 0.1339465 -0.02772449
v -0.0781365 0.1341629 -0.05970563
v -0.05339954 0.1348312 -0.0808108
v -0.02275194 0.1352881 -0.06993491
v -0.01684149 0.1350743 -0.03795335
v -0.0497287 0.2559669 -0.04760364
v -0.03830837 -0.09932905 -0.02486872
v -0.06353425 -0.09970583 -0.0338213
v -0.06839952 -0.09952545 -0.06014485
v -0.04803854 -0.09897547 -0.07751615
v -0.0228124 -0.0985992 -0.06856462
v -0.01794769 -0.09877571 -0.04223967
v -0.01700941 0.09959357 -0.03860331
v -0.02276132 0.09980381 -0.06972661
v -0.05258628 0.09935959 -0.08031109
v -0.07665905 0.09870677 -0.05977271
v -0.07090721 0.09849819 -0.02864984
v -0.04108215 0.09894165 -0.01806536
v -0.04157826 0.1344024 -0.01684843
v -0.07222597 0.1339465 -0.02772449
v -0.0781365 0.1341629 -0.05970563
v -0.05339954 0.1348312 -0.0808108
v -0.02275194 0.1352881 -0.06993491
v -0.01684149 0.1350743 -0.03795335
v -0.02276132 0.09980381 -0.06972661
v -0.01794769 -0.09877571 -0.04223967
v -0.01700941 0.09959357 -0.03860331
v -0.0228124 -0.0985992 -0.06856462
v -0.05258628 0.09935959 -0.08031109
v -0.04803854 -0.09897547 -0.07751615
v -0.07665905 0.09870677 -0.05977271
v -0.06839952 -0.09952545 -0.06014485
v -0.07090721 0.09849819 -0.02864984
v -0.06353425 -0.09970583 -0.0338213
v -0.04108215 0.09894165 -0.01806536
v -0.03830837 -0.09932905 -0.02486872
vt 0.768818 0.9926233
vt 0.768818 0.9926233
vt 0.7688181 0.9884633
vt 0.7688181 0.9843023
vt 0.7688181 0.9843023
vt 0.7688181 0.9884633
vt 0.7688181 0.9825442
vt 0.7688181 0.9825442
vt 0.7688181 0.975338
vt 0.768818 0.9681296
vt 0.768818 0.9681296
vt 0.7688181 0.975338
vt 0.7688181 0.9657296
vt 0.7688181 0.9657296
vt 0.768818 0.9574085
vt 0.768818 0.9490874
vt 0.768818 0.9490874
vt 0.768818 0.9574085
vt 0.7688181 0.9466853
vt 0.7688181 0.9466853
vt 0.768818 0.9394791
vt 0.7688182 0.932274
vt 0.7688182 0.932274
vt 0.768818 0.9394791
vt 0.7688182 0.9305149
vt 0.7688182 0.9305149
vt 0.7688181 0.9263549
vt 0.7688181 0.922195
vt 0.7688181 0.922195
vt 0.7688181 0.9263549
vt 0.768818 0.9932663
vt 0.272268 0.2812308
vt 0.2722681 0.2812308
vt 0.272268 0.2812308
vt 0.272268 0.2812308
vt 0.272268 0.2812308
vt 0.2722681 0.2812308
vt 0.3435068 0.281846
vt 0.3414087 0.3188234
vt 0.3414087 0.3188234
vt 0.3435068 0.281846
vt 0.3435068 0.281846
vt 0.3435066 0.281846
vt 0.3435066 0.2818461
vt 0.3435068 0.2818461
vt 0.3435068 0.2818461
vt 0.3414087 0.3188235
vt 0.3414087 0.3188235
vt 0.3435068 0.2818461
vt 0.2688507 0.3188234
vt 0.2709489 0.2818455
vt 0.2709489 0.281846
vt 0.2688507 0.3188228
vt 0.2688507 0.3188234
vt 0.2688507 0.3188228
vt 0.2709488 0.281846
vt 0.2709488 0.2818455
vt 0.2709488 0.281846
vt 0.2709488 0.2818455
vt 0.2709488 0.281846
vt 0.2709488 0.2818455
vn 0.07341149 0.8669925 0.492884
vn -0.3905045 0.8600927 0.3282479
vn -0.4799737 0.8633275 -0.1558556
vn -0.1055333 0.8734587 -0.4753236
vn 0.3583843 0.8803632 -0.3106792
vn 0.4478548 0.8771262 0.1734235
vn 0.147324 0.50096 0.8528392
vn -0.6650494 0.4888781 0.5645418
vn -0.8217203 0.494552 -0.2831858
vn -0.1660221 0.5123076 -0.8426017
vn 0.6463394 0.5243921 -0.5543088
vn 0.8030211 0.518717 0.2934105
vn 0.1817415 -0.006592465 0.9833242
vn -0.7605845 -0.02060959 0.6489117
vn -0.9423211 -0.01401846 -0.3344166
vn -0.1817364 0.006583069 -0.9833252
vn 0.7605837 0.02059691 -0.6489131
vn 0.9423234 0.01401246 0.3344104
vn 0.1660272 -0.512333 0.8425852
vn -0.6463317 -0.5244174 0.5542938
vn -0.8030006 -0.5187415 -0.2934236
vn -0.1473095 -0.5009728 -0.8528342
vn 0.6650337 -0.4888917 -0.5645487
vn 0.8217145 -0.4945766 0.2831594
vn 0.1735633 -0.4121682 0.8944234
vn -0.6874982 -0.424978 0.5888463
vn -0.8535595 -0.4189608 -0.3096903
vn -0.158562 -0.4001175 -0.9026428
vn 0.7024908 -0.3873178 -0.597069
vn 0.8685581 -0.3933533 0.3014631
vn -0.01844994 0.9997788 0.01009587
vn 0.1652246 -0.5213448 0.837198
vn -0.6420794 -0.5333539 0.5506974
vn -0.7977602 -0.5277039 -0.2917313
vn -0.1461643 -0.5100444 -0.8476382
vn 0.6611146 -0.4980392 -0.5611455
vn 0.8168173 -0.5036852 0.2812662
vn 0.9424883 -0.01058252 0.3340716
vn 0.7608106 -0.00400232 -0.6489618
vn -0.1812328 -0.01801019 -0.9832754
vn -0.9415823 -0.03860415 -0.3345632
vn -0.7599034 -0.04519056 0.6484633
vn 0.1821334 -0.0311767 0.9827794
vn 0.1735633 -0.4121682 0.8944234
vn -0.6874982 -0.424978 0.5888463
vn -0.8535595 -0.4189608 -0.3096903
vn -0.158562 -0.4001175 -0.9026428
vn 0.7024908 -0.3873178 -0.597069
vn 0.8685581 -0.3933533 0.3014631
vn 0.7608106 -0.00400232 -0.6489618
vn 0.8168173 -0.5036852 0.2812662
vn 0.9424883 -0.01058252 0.3340716
vn 0.6611146 -0.4980392 -0.5611455
vn -0.1812328 -0.01801019 -0.9832754
vn -0.1461643 -0.5100444 -0.8476382
vn -0.9415823 -0.03860415 -0.3345632
vn -0.7977602 -0.5277039 -0.2917313
vn -0.7599034 -0.04519056 0.6484633
vn -0.6420794 -0.5333539 0.5506974
vn 0.1821334 -0.0311767 0.9827794
vn 0.1652246 -0.5213448 0.837198
g microphone_geo_0
f 37/37/37 32/32/32 33/33/33
f 34/34/34 37/37/37 33/33/33
f 36/36/36 37/37/37 34/34/34
f 35/35/35 36/36/36 34/34/34
f 20/20/20 26/26/26 19/19/19
f 13/13/13 20/20/20 19/19/19
f 14/14/14 20/20/20 13/13/13
f 7/7/7 14/14/14 13/13/13
f 8/8/8 14/14/14 7/7/7
f 1/1/1 8/8/8 7/7/7
f 2/2/2 8/8/8 1/1/1
f 31/31/31 2/2/2 1/1/1
f 3/3/3 2/2/2 31/31/31
f 4/4/4 3/3/3 31/31/31
f 10/10/10 3/3/3 4/4/4
f 11/11/11 10/10/10 4/4/4
f 17/17/17 10/10/10 11/11/11
f 18/18/18 17/17/17 11/11/11
f 24/24/24 17/17/17 18/18/18
f 19/19/19 24/24/24 18/18/18
f 25/25/25 24/24/24 19/19/19
f 26/26/26 25/25/25 19/19/19
f 30/30/30 24/24/24 25/25/25
f 23/23/23 24/24/24 30/30/30
f 29/29/29 23/23/23 30/30/30
f 22/22/22 23/23/23 29/29/29
f 28/28/28 22/22/22 29/29/29
f 21/21/21 22/22/22 28/28/28
f 27/27/27 21/21/21 28/28/28
f 20/20/20 21/21/21 27/27/27
f 26/26/26 20/20/20 27/27/27
f 43/43/43 44/44/44 42/42/42
f 49/49/49 44/44/44 43/43/43
f 38/38/38 49/49/49 43/43/43
f 48/48/48 49/49/49 38/38/38
f 39/39/39 48/48/48 38/38/38
f 47/47/47 48/48/48 39/39/39
f 40/40/40 47/47/47 39/39/39
f 46/46/46 47/47/47 40/40/40
f 41/41/41 46/46/46 40/40/40
f 45/45/45 46/46/46 41/41/41
f 42/42/42 45/45/45 41/41/41
f 44/44/44 45/45/45 42/42/42
f 53/53/53 50/50/50 51/51/51
f 54/54/54 50/50/50 53/53/53
f 55/55/55 54/54/54 53/53/53
f 56/56/56 54/54/54 55/55/55
f 57/57/57 56/56/56 55/55/55
f 58/58/58 56/56/56 57/57/57
f 59/59/59 58/58/58 57/57/57
f 60/60/60 58/58/58 59/59/59
f 61/61/61 60/60/60 59/59/59
f 52/52/52 60/60/60 61/61/61
f 51/51/51 52/52/52 61/61/61
f 50/50/50 52/52/52 51/51/51
f 14/14/14 21/21/21 20/20/20
f 15/15/15 21/21/21 14/14/14
f 8/8/8 15/15/15 14/14/14
f 9/9/9 15/15/15 8/8/8
f 2/2/2 9/9/9 8/8/8
f 3/3/3 9/9/9 2/2/2
f 10/10/10 9/9/9 3/3/3
f 16/16/16 9/9/9 10/10/10
f 17/17/17 16/16/16 10/10/10
f 23/23/23 16/16/16 17/17/17
f 24/24/24 23/23/23 17/17/17
f 5/5/5 4/4/4 31/31/31
f 11/11/11 4/4/4 5/5/5
f 12/12/12 11/11/11 5/5/5
f 18/18/18 11/11/11 12/12/12
f 13/13/13 18/18/18 12/12/12
f 19/19/19 18/18/18 13/13/13
f 6/6/6 5/5/5 31/31/31
f 12/12/12 5/5/5 6/6/6
f 7/7/7 12/12/12 6/6/6
f 13/13/13 12/12/12 7/7/7
f 6/6/6 1/1/1 7/7/7
f 31/31/31 1/1/1 6/6/6
f 16/16/16 15/15/15 9/9/9
f 22/22/22 15/15/15 16/16/16
f 23/23/23 22/22/22 16/16/16
f 21/21/21 15/15/15 22/22/22
