g moneyPrinterBill_geo
v 0.6923975 0.7772858 0.9221094
v 0.6856298 0.7772858 0.7283203
v 0.6788647 0.8166205 0.5345312
v 0.6720971 0.8905792 0.3407422
v 0.6653247 0.9963519 0.1469531
v 0.6585571 1.037034 -0.04683594
v 0.651792 1.032618 -0.240625
v 0.6453662 1.004727 -0.4246289
v -0.5756494 0.7772858 0.966377
v -0.582417 0.7772858 0.7725879
v -0.5891821 0.8166205 0.5788086
v -0.5959448 0.8905792 0.3850195
v -0.6027173 0.9963519 0.1912402
v -0.6094849 1.037034 -0.002539062
v -0.61625 1.032618 -0.1963281
v -0.6226758 1.004727 -0.3803515
vt -0.998251 -4.031368
vt -0.4223412 -4.031368
vt 0.153568 -4.031368
vt 0.7294778 -4.031368
vt 1.305388 -4.031368
vt 1.881298 -4.031368
vt 2.457208 -4.031368
vt 3.033117 -4.031368
vt -0.998251 4.031368
vt -0.4223412 4.031368
vt 0.153568 4.031368
vt 0.7294778 4.031368
vt 1.305388 4.031368
vt 1.881298 4.031368
vt 2.457208 4.031368
vt 3.033117 4.031368
vn 0 1 0
vn 0.003486633 0.9949971 0.0998433
vn 0.009720578 0.9604273 0.2783614
vn 0.01460798 0.9081797 0.4183255
vn 0.01206986 0.9383084 0.3455891
vn 0.003208556 0.9957693 0.09183259
vn -0.003017232 0.9962566 -0.08639293
vn -0.00522736 0.9887204 -0.1496824
vn 0 1 0
vn 0.003486633 0.9949971 0.0998433
vn 0.009720578 0.9604273 0.2783614
vn 0.01460798 0.9081797 0.4183255
vn 0.01206986 0.9383084 0.3455891
vn 0.003208556 0.9957693 0.09183259
vn -0.003017232 0.9962566 -0.08639293
vn -0.00522736 0.9887204 -0.1496824
g moneyPrinterBill_geo_0
f 7/7/7 8/8/8 16/16/16
f 15/15/15 7/7/7 16/16/16
f 6/6/6 7/7/7 15/15/15
f 14/14/14 6/6/6 15/15/15
f 5/5/5 6/6/6 14/14/14
f 13/13/13 5/5/5 14/14/14
f 4/4/4 5/5/5 13/13/13
f 12/12/12 4/4/4 13/13/13
f 3/3/3 4/4/4 12/12/12
f 11/11/11 3/3/3 12/12/12
f 2/2/2 3/3/3 11/11/11
f 10/10/10 2/2/2 11/11/11
f 1/1/1 2/2/2 10/10/10
f 9/9/9 1/1/1 10/10/10
