g mouthWash_geo
v -0.07222971 0 0.03264049
v 0.07222971 0 0.03264049
v -0.03210406 0.3114636 0.02737688
v 0.03210406 0.3114636 0.02737688
v -0.03210406 0.3114636 -0.02737688
v 0.03210406 0.3114636 -0.02737688
v -0.07222971 0 -0.03264049
v 0.07222971 0 -0.03264049
v 0.09438924 0.03506216 0.05387341
v -0.09438924 0.03506216 0.05387341
v -0.09438924 0.03506216 -0.05387341
v 0.09438924 0.03506216 -0.05387341
v 0.1019027 0.1146269 0.05387341
v -0.1019027 0.1146269 0.05387341
v -0.1019027 0.1146269 -0.05387341
v 0.1019027 0.1146269 -0.05387341
v 0.02569086 0.275073 0.02096019
v -0.02569086 0.275073 0.02096019
v -0.02569086 0.275073 -0.02096019
v 0.02569086 0.275073 -0.02096019
v 0.03284216 0.3087621 -0.05688424
v -0.03284213 0.3087621 -0.05688424
v -0.06568427 0.3087621 -8.510385E-09
v -0.03284214 0.3087621 0.05688424
v 0.03284213 0.3087621 0.05688424
v 0.06568427 0.3087621 1.277335E-09
v 0.02020374 0.4133657 -0.03499386
v -0.02020371 0.4133657 -0.03499388
v -0.04040744 0.4133657 -6.087034E-09
v -0.02020373 0.4133657 0.03499388
v 0.02020372 0.4133657 0.03499388
v 0.04040744 0.4133657 -6.585697E-11
v -0.07622854 0.184057 0.04095897
v -0.07622854 0.184057 -0.04095897
v 0.07622854 0.184057 -0.04095897
v 0.07622854 0.184057 0.04095897
v -0.09438924 0.03506216 0.05387341
v 0.09438924 0.03506216 0.05387341
v -0.1019027 0.1146269 0.05387341
v 0.09438924 0.03506216 -0.05387341
v -0.1019027 0.1146269 -0.05387341
v -0.09438924 0.03506216 -0.05387341
v 0.1019027 0.1146269 0.05387341
v 0.1019027 0.1146269 -0.05387341
v -0.07622854 0.184057 0.04095897
v -0.07622854 0.184057 -0.04095897
v 0.07622854 0.184057 0.04095897
v 0.07622854 0.184057 -0.04095897
v 0.03210406 0.3114636 0.02737688
v -0.03210406 0.3114636 0.02737688
v -0.03210406 0.3114636 -0.02737688
v 0.03210406 0.3114636 -0.02737688
v -0.03284213 0.3087621 -0.05688424
v -0.02020371 0.4133657 -0.03499388
v -0.06568427 0.3087621 -8.510385E-09
v -0.04040744 0.4133657 -6.087034E-09
v 0.03284213 0.3087621 0.05688424
v 0.06568427 0.3087621 1.277335E-09
v -0.03284214 0.3087621 0.05688424
v -0.06568427 0.3087621 -8.510385E-09
v -0.03284213 0.3087621 -0.05688424
v 0.03284216 0.3087621 -0.05688424
v 0.04040744 0.4133657 -6.585697E-11
v 0.02020372 0.4133657 0.03499388
v 0.02020374 0.4133657 -0.03499386
v -0.02020373 0.4133657 0.03499388
vt 0.2210429 0.5474594
vt 0.2210429 0.5474594
vt 0.2210429 0.5474594
vt 0.2210429 0.5474594
vt 0.2210429 0.5474594
vt 0.2210429 0.5474594
vt 0.2210429 0.5474594
vt 0.2210429 0.5474594
vt 0.2210429 0.5474594
vt 0.2210429 0.5474594
vt 0.2210429 0.5474594
vt 0.2210429 0.5474594
vt 0.9814918 0.365441
vt 0.01850811 0.365441
vt 0.2210429 0.5474594
vt 0.01850808 0.365441
vt 0.2243233 0.5378607
vt 0.2243233 0.5378606
vt 0.2243233 0.5378607
vt 0.2243233 0.5378607
vt 0.7667143 0.7486909
vt 0.5395527 0.7486909
vt 0.02133048 0.9903044
vt 0.4650581 0.7486909
vt 0.5656103 0.7486909
vt 0.6661623 0.7486909
vt 0.7667143 0.9374729
vt 0.5395527 0.9374729
vt 0.02133048 0.9903044
vt 0.4650581 0.9374729
vt 0.5656102 0.9374729
vt 0.6661623 0.9374729
vt 0.1197929 0.7216074
vt 0.2210429 0.5474594
vt 0.1197929 0.7216074
vt 0.880207 0.7216074
vt 0.05278853 0.01612961
vt 0.9472113 0.01612961
vt 0.2210429 0.5474594
vt 0.05278862 0.01612961
vt 0.9814918 0.365441
vt 0.9472114 0.01612961
vt 0.2210429 0.5474594
vt 0.2210429 0.5474594
vt 0.2210429 0.5474594
vt 0.8802069 0.7216074
vt 0.2210429 0.5474594
vt 0.2210429 0.5474594
vt 0.2210429 0.5340855
vt 0.2210429 0.5340855
vt 0.2210429 0.5340855
vt 0.2210429 0.5340855
vt 0.02133048 0.9903044
vt 0.02133048 0.9903044
vt 0.3645061 0.7486909
vt 0.3645061 0.9374729
vt 0.2210429 0.5474594
vt 0.2210429 0.5474594
vt 0.2210429 0.5474594
vt 0.2210429 0.5474594
vt 0.2210429 0.5474594
vt 0.2210429 0.5474594
vt 0.02133048 0.9903044
vt 0.02133048 0.9903044
vt 0.02133048 0.9903044
vt 0.02133048 0.9903044
vn -0.3553799 -0.8627792 0.359607
vn 0.3553799 -0.8627792 0.359607
vn -0.640271 0.424405 0.6402604
vn 0.640271 0.424405 0.6402604
vn -0.640271 0.424405 -0.6402604
vn 0.640271 0.424405 -0.6402604
vn -0.3553799 -0.8627792 -0.359607
vn 0.3553799 -0.8627792 -0.359607
vn 0.6450254 -0.4016361 0.6501004
vn -0.6450254 -0.4016361 0.6501004
vn -0.6450254 -0.4016361 -0.6501004
vn 0.6450254 -0.4016361 -0.6501004
vn 0.6896091 0.1553938 0.7073133
vn -0.6896091 0.1553938 0.7073133
vn -0.6896091 0.1553938 -0.7073133
vn 0.6896091 0.1553938 -0.7073133
vn 0.6821152 0.1294625 0.7196931
vn -0.6821152 0.1294625 0.7196931
vn -0.6821152 0.1294626 -0.7196931
vn 0.6821152 0.1294626 -0.7196931
vn 0.472192 -0.3288466 -0.8178599
vn -0.3646646 -0.6841622 -0.6316184
vn -0.7293298 -0.6841624 -1.538517E-07
vn -0.364665 -0.6841625 0.6316179
vn 0.4721919 -0.3288467 0.8178598
vn 0.4269838 -0.9042593 -2.109867E-07
vn 0.2877055 0.8178646 -0.4983203
vn -0.2877052 0.8178644 -0.4983207
vn -0.5754107 0.8178646 2.448787E-07
vn -0.3844567 0.6393521 0.6658993
vn 0.1794251 0.9333951 0.3107736
vn 0.7689137 0.6393525 1.757186E-07
vn -0.6166171 0.4184364 0.6668541
vn -0.6166171 0.4184364 -0.6668541
vn 0.6166171 0.4184364 -0.6668541
vn 0.6166171 0.4184364 0.6668541
vn -0.6450254 -0.4016361 0.6501004
vn 0.6450254 -0.4016361 0.6501004
vn -0.6896091 0.1553938 0.7073133
vn 0.6450254 -0.4016361 -0.6501004
vn -0.6896091 0.1553938 -0.7073133
vn -0.6450254 -0.4016361 -0.6501004
vn 0.6896091 0.1553938 0.7073133
vn 0.6896091 0.1553938 -0.7073133
vn -0.6166171 0.4184364 0.6668541
vn -0.6166171 0.4184364 -0.6668541
vn 0.6166171 0.4184364 0.6668541
vn 0.6166171 0.4184364 -0.6668541
vn 0.640271 0.424405 0.6402604
vn -0.640271 0.424405 0.6402604
vn -0.640271 0.424405 -0.6402604
vn 0.640271 0.424405 -0.6402604
vn -0.3646646 -0.6841622 -0.6316184
vn -0.2877052 0.8178644 -0.4983207
vn -0.7293298 -0.6841624 -1.538517E-07
vn -0.5754107 0.8178646 2.448787E-07
vn 0.4721919 -0.3288467 0.8178598
vn 0.4269838 -0.9042593 -2.109867E-07
vn -0.364665 -0.6841625 0.6316179
vn -0.7293298 -0.6841624 -1.538517E-07
vn -0.3646646 -0.6841622 -0.6316184
vn 0.472192 -0.3288466 -0.8178599
vn 0.7689137 0.6393525 1.757186E-07
vn 0.1794251 0.9333951 0.3107736
vn 0.2877055 0.8178646 -0.4983203
vn -0.3844567 0.6393521 0.6658993
g mouthWash_geo_0
f 3/3/3 6/6/6 5/5/5
f 4/4/4 6/6/6 3/3/3
f 14/14/14 36/36/36 33/33/33
f 13/13/13 36/36/36 14/14/14
f 37/37/37 13/13/13 14/14/14
f 38/38/38 13/13/13 37/37/37
f 16/16/16 46/46/46 35/35/35
f 41/41/41 46/46/46 16/16/16
f 40/40/40 41/41/41 16/16/16
f 42/42/42 41/41/41 40/40/40
f 27/27/27 22/22/22 28/28/28
f 21/21/21 22/22/22 27/27/27
f 26/26/26 21/21/21 27/27/27
f 29/29/29 66/66/66 64/64/64
f 54/54/54 29/29/29 64/64/64
f 23/23/23 29/29/29 54/54/54
f 53/53/53 23/23/23 54/54/54
f 30/30/30 24/24/24 25/25/25
f 55/55/55 24/24/24 30/30/30
f 56/56/56 55/55/55 30/30/30
f 58/58/58 60/60/60 61/61/61
f 59/59/59 60/60/60 58/58/58
f 57/57/57 59/59/59 58/58/58
f 58/58/58 61/61/61 62/62/62
f 64/64/64 65/65/65 54/54/54
f 63/63/63 65/65/65 64/64/64
f 2/2/2 9/9/9 1/1/1
f 12/12/12 9/9/9 2/2/2
f 8/8/8 12/12/12 2/2/2
f 11/11/11 12/12/12 8/8/8
f 7/7/7 11/11/11 8/8/8
f 10/10/10 11/11/11 7/7/7
f 1/1/1 10/10/10 7/7/7
f 9/9/9 10/10/10 1/1/1
f 19/19/19 50/50/50 51/51/51
f 18/18/18 50/50/50 19/19/19
f 34/34/34 18/18/18 19/19/19
f 45/45/45 18/18/18 34/34/34
f 15/15/15 45/45/45 34/34/34
f 39/39/39 45/45/45 15/15/15
f 11/11/11 39/39/39 15/15/15
f 10/10/10 39/39/39 11/11/11
f 44/44/44 9/9/9 12/12/12
f 43/43/43 9/9/9 44/44/44
f 48/48/48 43/43/43 44/44/44
f 47/47/47 43/43/43 48/48/48
f 20/20/20 47/47/47 48/48/48
f 17/17/17 47/47/47 20/20/20
f 52/52/52 17/17/17 20/20/20
f 49/49/49 17/17/17 52/52/52
f 17/17/17 45/45/45 47/47/47
f 18/18/18 45/45/45 17/17/17
f 49/49/49 18/18/18 17/17/17
f 50/50/50 18/18/18 49/49/49
f 19/19/19 48/48/48 34/34/34
f 20/20/20 48/48/48 19/19/19
f 51/51/51 20/20/20 19/19/19
f 52/52/52 20/20/20 51/51/51
f 26/26/26 27/27/27 32/32/32
f 31/31/31 26/26/26 32/32/32
f 25/25/25 26/26/26 31/31/31
f 30/30/30 25/25/25 31/31/31
f 7/7/7 2/2/2 1/1/1
f 8/8/8 2/2/2 7/7/7
