g mysteryMeat_geo
v -0.03486611 0.06625152 -0.09367454
v -0.004268713 0.06625152 -0.09367454
v -0.01089824 0.1636018 -0.09367454
v -0.06464332 0.1610826 -0.09367454
v -0.2040082 0.3234164 -0.09367454
v -0.1958035 0.1483745 -0.09367454
v 0.1121757 0.3488336 -0.09367454
v 0.1207336 0.1662486 -0.09367454
v -0.2541034 0.06634834 -0.01596128
v -0.2088187 0.06634834 -0.09958458
v -0.08954025 0.06634834 -0.187063
v 0.0044136 0.06634834 -0.1892607
v 0.06424637 0.06634834 -0.1196904
v 0.1313173 0.06634834 -0.0281234
v 0.2086496 0.06634834 0.02045986
v 0.2382584 0.06634834 0.07317498
v 0.2239081 0.06634834 0.1382553
v 0.1654417 0.06634834 0.1696985
v 0.09564857 0.06634834 0.1785741
v 0.0102962 0.06634834 0.172112
v -0.03962742 0.06634834 0.08143745
v -0.1558751 0.06634834 0.07727592
v -0.2199475 0.06634834 0.05768051
v -0.2067407 0.06634834 0.04098217
v -0.2327277 0.06634834 -0.01556276
v -0.1532266 0.06634834 0.05953964
v -0.03528053 0.06634834 0.06215767
v 0.02550707 0.06634834 0.1544635
v 0.0963681 0.06634834 0.1590999
v 0.1582762 0.06634834 0.1494333
v 0.2056255 0.06634834 0.1254745
v 0.2166202 0.06634834 0.07724846
v 0.1959265 0.06634834 0.03491989
v 0.1183743 0.06634834 -0.01357056
v 0.05038425 0.06634834 -0.1068043
v -0.003906169 0.06634834 -0.1702273
v -0.0860778 0.06634834 -0.1654175
v -0.1916814 0.06634834 -0.0851432
v -0.02033493 0.06634834 0.127112
v -0.0003672764 0.06634834 0.1175624
v -0.06433792 0.06634834 0.04703159
v -0.06432175 0.06634834 0.0663028
v -0.0275658 0.06634834 0.07491562
v 0.1260542 0.06634834 0.0329821
v 0.09228431 0.06634834 0.06134071
v 0.09501655 0.06634834 0.06720192
v 0.03103851 0.06634834 0.07471321
v 0.03291081 0.06634834 0.08728027
v -0.2541034 -4.768371E-09 -0.01596128
v -0.2088187 -4.768371E-09 -0.09958458
v -0.08954025 -4.768371E-09 -0.187063
v 0.0044136 -4.768371E-09 -0.1892607
v 0.06424637 -4.768371E-09 -0.1196904
v 0.1313173 -4.768371E-09 -0.0281234
v 0.2086496 -4.768371E-09 0.02045986
v 0.2382584 -4.768371E-09 0.07317498
v 0.2239081 -4.768371E-09 0.1382553
v 0.1654417 -4.768371E-09 0.1696985
v 0.09564857 -4.768371E-09 0.1785741
v 0.0102962 -4.768371E-09 0.172112
v -0.03962742 -4.768371E-09 0.08143745
v -0.1558751 -4.768371E-09 0.07727592
v -0.2199475 -4.768371E-09 0.05768051
v -0.2067407 -4.768371E-09 0.04098217
v -0.2327277 -4.768371E-09 -0.01556276
v -0.1532266 -4.768371E-09 0.05953964
v -0.03528053 -4.768371E-09 0.06215767
v 0.02550707 -4.768371E-09 0.1544635
v 0.0963681 -4.768371E-09 0.1590999
v 0.1582762 -4.768371E-09 0.1494333
v 0.2056255 -4.768371E-09 0.1254745
v 0.2166202 -4.768371E-09 0.07724846
v 0.1959265 -4.768371E-09 0.03491989
v 0.1183743 -4.768371E-09 -0.01357056
v 0.05038425 -4.768371E-09 -0.1068043
v -0.003906169 -4.768371E-09 -0.1702273
v -0.0860778 -4.768371E-09 -0.1654175
v -0.1916814 -4.768371E-09 -0.0851432
v -0.02033493 -4.768371E-09 0.127112
v -0.0003672764 -4.768371E-09 0.1175624
v -0.06433792 -4.768371E-09 0.04703159
v -0.06432175 -4.768371E-09 0.0663028
v -0.0275658 -4.768371E-09 0.07491562
v 0.1260542 -4.768371E-09 0.0329821
v 0.09228431 -4.768371E-09 0.06134071
v 0.09501655 -4.768371E-09 0.06720192
v 0.03103851 -4.768371E-09 0.07471321
v 0.03291081 -4.768371E-09 0.08728027
v -0.2067407 0.06634834 0.04098217
v -0.2327277 0.06634834 -0.01556276
v -0.0860778 0.06634834 -0.1654175
v -0.1916814 0.06634834 -0.0851432
v 0.1183743 0.06634834 -0.01357056
v 0.05038425 0.06634834 -0.1068043
v 0.1959265 0.06634834 0.03491989
v 0.1582762 0.06634834 0.1494333
v 0.0963681 0.06634834 0.1590999
v 0.2166202 0.06634834 0.07724846
v 0.2056255 0.06634834 0.1254745
v -0.003906169 0.06634834 -0.1702273
v -0.03528053 0.06634834 0.06215767
v -0.06433792 0.06634834 0.04703159
v -0.1532266 0.06634834 0.05953964
v 0.02550707 0.06634834 0.1544635
v -0.0003672764 0.06634834 0.1175624
v 0.1260542 0.06634834 0.0329821
v 0.09228431 0.06634834 0.06134071
v 0.03103851 0.06634834 0.07471321
v 0.03291081 0.06634834 0.08728027
v -0.03528053 0.06634834 0.06215767
v -0.0275658 0.06634834 0.07491562
v -0.0275658 0.06634834 0.07491562
v 0.09501655 0.06634834 0.06720192
v -0.03486611 0.06625152 -0.09367454
v -0.01089824 0.1636018 -0.09367454
v -0.004268713 0.06625152 -0.09367454
v -0.06464332 0.1610826 -0.09367454
v -0.1958035 0.1483745 -0.09367454
v -0.2040082 0.3234164 -0.09367454
v 0.1121757 0.3488336 -0.09367454
v 0.1207336 0.1662486 -0.09367454
v -0.2067407 -4.768371E-09 0.04098217
v -0.2327277 -4.768371E-09 -0.01556276
v -0.0860778 -4.768371E-09 -0.1654175
v -0.1916814 -4.768371E-09 -0.0851432
v 0.1183743 -4.768371E-09 -0.01357056
v 0.05038425 -4.768371E-09 -0.1068043
v 0.1959265 -4.768371E-09 0.03491989
v 0.1582762 -4.768371E-09 0.1494333
v 0.2166202 -4.768371E-09 0.07724846
v 0.0963681 -4.768371E-09 0.1590999
v 0.2056255 -4.768371E-09 0.1254745
v -0.003906169 -4.768371E-09 -0.1702273
v -0.03528053 -4.768371E-09 0.06215767
v -0.06433792 -4.768371E-09 0.04703159
v -0.1532266 -4.768371E-09 0.05953964
v -0.0003672764 -4.768371E-09 0.1175624
v 0.02550707 -4.768371E-09 0.1544635
v 0.1260542 -4.768371E-09 0.0329821
v 0.09228431 -4.768371E-09 0.06134071
v 0.03103851 -4.768371E-09 0.07471321
v 0.03291081 -4.768371E-09 0.08728027
v -0.03528053 -4.768371E-09 0.06215767
v -0.0275658 -4.768371E-09 0.07491562
v -0.0275658 -4.768371E-09 0.07491562
v 0.09501655 -4.768371E-09 0.06720192
v -0.03962742 0.06634834 0.08143745
v -0.02033493 -4.768371E-09 0.127112
v -0.03962742 -4.768371E-09 0.08143745
v -0.02033493 0.06634834 0.127112
v -0.06432175 0.06634834 0.0663028
v -0.06432175 -4.768371E-09 0.0663028
v -0.1558751 0.06634834 0.07727592
v -0.1558751 -4.768371E-09 0.07727592
v -0.2088187 0.06634834 -0.09958458
v -0.2541034 -4.768371E-09 -0.01596128
v -0.2088187 -4.768371E-09 -0.09958458
v -0.2541034 0.06634834 -0.01596128
v -0.08954025 0.06634834 -0.187063
v -0.2088187 -4.768371E-09 -0.09958458
v -0.08954025 -4.768371E-09 -0.187063
v -0.2088187 0.06634834 -0.09958458
v 0.0044136 0.06634834 -0.1892607
v 0.0044136 -4.768371E-09 -0.1892607
v 0.2382584 0.06634834 0.07317498
v 0.2086496 -4.768371E-09 0.02045986
v 0.2382584 -4.768371E-09 0.07317498
v 0.2086496 0.06634834 0.02045986
v 0.2239081 0.06634834 0.1382553
v 0.2239081 -4.768371E-09 0.1382553
v 0.1654417 0.06634834 0.1696985
v 0.1654417 -4.768371E-09 0.1696985
vt 0.5859511 0.1519235
vt 0.4985938 0.1544719
vt 0.4191573 0.4391688
vt 0.5800626 0.4395651
vt 0.971158 0.971507
vt 0.9762292 0.4272466
vt 0.02804852 0.945266
vt 0.02180052 0.4188469
vt 0.1920446 0.07101506
vt 0.1920446 0.07101506
vt 0.1920446 0.07101506
vt 0.1920446 0.07101506
vt 0.1920446 0.07101506
vt 0.1920446 0.07101506
vt 0.1920446 0.07101506
vt 0.1920446 0.07101506
vt 0.1920446 0.07101506
vt 0.1920446 0.07101506
vt 0.1920446 0.07101507
vt 0.1920446 0.07101506
vt 0.1920446 0.07101506
vt 0.1920446 0.07101507
vt 0.1920446 0.07101506
vt 0.06447272 0.06937923
vt 0.06447278 0.06937928
vt 0.1920446 0.07101506
vt 0.1920446 0.07101506
vt 0.1920446 0.07101507
vt 0.1920446 0.07101507
vt 0.1920446 0.07101506
vt 0.1920446 0.07101506
vt 0.1920446 0.07101506
vt 0.1920446 0.07101506
vt 0.1920446 0.07101506
vt 0.1920446 0.07101506
vt 0.1920446 0.07101506
vt 0.06447272 0.06937927
vt 0.06447272 0.06937927
vt 0.1920446 0.07101507
vt 0.1920446 0.07101507
vt 0.1920446 0.07101506
vt 0.1920446 0.07101507
vt 0.1920446 0.07101507
vt 0.06447273 0.06937924
vt 0.06447273 0.06937926
vt 0.1898752 0.06200003
vt 0.06447273 0.06937926
vt 0.06447273 0.06937927
vt 0.1920446 0.07101506
vt 0.1920446 0.07101506
vt 0.1920446 0.07101506
vt 0.1920446 0.07101506
vt 0.1920446 0.07101506
vt 0.1920446 0.07101506
vt 0.1920446 0.07101506
vt 0.1920446 0.07101506
vt 0.1920446 0.07101506
vt 0.1920446 0.07101506
vt 0.1920446 0.07101507
vt 0.1920446 0.07101506
vt 0.1920446 0.07101506
vt 0.1920446 0.07101507
vt 0.1920446 0.07101506
vt 0.06447272 0.06937923
vt 0.06447278 0.06937928
vt 0.1920446 0.07101506
vt 0.1920446 0.07101506
vt 0.1920446 0.07101507
vt 0.1920446 0.07101507
vt 0.1920446 0.07101506
vt 0.1920446 0.07101506
vt 0.1920446 0.07101506
vt 0.1920446 0.07101506
vt 0.1920446 0.07101506
vt 0.1920446 0.07101506
vt 0.1920446 0.07101506
vt 0.06447272 0.06937927
vt 0.06447272 0.06937927
vt 0.1920446 0.07101507
vt 0.1920446 0.07101507
vt 0.1920446 0.07101506
vt 0.1920446 0.07101507
vt 0.1920446 0.07101507
vt 0.06447273 0.06937924
vt 0.06447273 0.06937926
vt 0.1898752 0.06200003
vt 0.06447273 0.06937926
vt 0.06447273 0.06937927
vt 0.1920446 0.07101507
vt 0.1920447 0.07101507
vt 0.1920446 0.07101506
vt 0.1920446 0.07101506
vt 0.06447273 0.06937921
vt 0.06447273 0.06937927
vt 0.06447273 0.06937927
vt 0.06447273 0.06937927
vt 0.06447273 0.06937928
vt 0.06447273 0.06937927
vt 0.06447273 0.06937927
vt 0.06447271 0.06937927
vt 0.06447273 0.06937927
vt 0.06447271 0.06937928
vt 0.06447271 0.06937923
vt 0.06447273 0.06937928
vt 0.06447273 0.06937928
vt 0.1898752 0.06200004
vt 0.1898752 0.06200003
vt 0.1898752 0.06200003
vt 0.1898752 0.06200003
vt 0.1898752 0.06200003
vt 0.1898752 0.06200003
vt 0.06447273 0.06937928
vt 0.06447273 0.06937926
vt 0.4929401 0.1519235
vt 0.5789068 0.4391705
vt 0.5843293 0.1473586
vt 0.4179827 0.4395651
vt 0.02431544 0.4208798
vt 0.02553146 0.9449672
vt 0.9737299 0.9744481
vt 0.9725056 0.427781
vt 0.1920446 0.07101507
vt 0.1920447 0.07101507
vt 0.1920446 0.07101506
vt 0.1920446 0.07101506
vt 0.06447273 0.06937921
vt 0.06447273 0.06937927
vt 0.06447273 0.06937927
vt 0.06447273 0.06937927
vt 0.06447273 0.06937927
vt 0.06447273 0.06937928
vt 0.06447273 0.06937927
vt 0.06447271 0.06937927
vt 0.06447273 0.06937927
vt 0.06447271 0.06937928
vt 0.06447271 0.06937923
vt 0.06447273 0.06937928
vt 0.06447273 0.06937928
vt 0.1898752 0.06200004
vt 0.1898752 0.06200003
vt 0.1898752 0.06200003
vt 0.1898752 0.06200003
vt 0.1898752 0.06200003
vt 0.1898752 0.06200003
vt 0.06447273 0.06937928
vt 0.06447273 0.06937926
vt 0.3163021 0.07191601
vt 0.3163021 0.07191598
vt 0.3163021 0.07191601
vt 0.3163021 0.07191598
vt 0.3163021 0.07191601
vt 0.3163021 0.07191601
vt 0.3163021 0.07191601
vt 0.3163021 0.07191601
vt 0.194109 0.06609738
vt 0.194109 0.06609741
vt 0.194109 0.06609738
vt 0.194109 0.06609741
vt 0.3163021 0.07191601
vt 0.3163021 0.07191601
vt 0.3163021 0.07191601
vt 0.3163021 0.07191601
vt 0.3163021 0.07191601
vt 0.3163021 0.07191601
vt 0.3163021 0.07191598
vt 0.3163021 0.07191598
vt 0.3163021 0.07191598
vt 0.3163021 0.07191598
vt 0.3163021 0.07191598
vt 0.3163021 0.07191598
vt 0.3163021 0.07191598
vt 0.3163021 0.07191598
vn 0 0 -1
vn 0 0 -1
vn 0 0 -1
vn 0 0 -1
vn 0 0 -1
vn 0 0 -1
vn 0 0 -1
vn 0 0 -1
vn -0.6660396 0.7456301 -0.02066696
vn -0.5263368 0.715745 -0.4589974
vn -0.2224206 0.7235756 -0.6534274
vn 0.2725497 0.7418462 -0.6126833
vn 0.5534889 0.7073764 -0.4396235
vn 0.4775288 0.7134197 -0.512834
vn 0.5040521 0.7180981 -0.4798611
vn 0.6753112 0.7306885 -0.1002454
vn 0.536579 0.7400122 0.4055426
vn 0.2138488 0.7130652 0.6676876
vn 0.01795642 0.7089119 0.7050685
vn -0.3351212 0.7429347 0.5794322
vn -0.4063051 0.8442755 0.3494495
vn -0.0619911 0.7147712 0.6966056
vn -0.4429334 0.7384477 0.5084339
vn 0 1 0
vn 0 1 0
vn 0 1 0
vn 0 1 0
vn 0 1 0
vn 0 1 0
vn 0 1 0
vn 0 1 0
vn 0 1 0
vn 0 1 0
vn 0 1 0
vn 0 1 0
vn 0 1 0
vn 0 1 0
vn 0 1 0
vn -0.6194745 0.70884 0.3373386
vn 0 1 0
vn 0 1 0
vn -0.1466829 0.7269732 0.670816
vn 0 1 -1.283463E-07
vn 0 1 -3.225156E-07
vn 0 1 -3.323792E-07
vn 0 1 -3.553252E-07
vn 0 1 -1.283463E-07
vn 0 1 -1.099227E-07
vn -0.6660396 -0.7456301 -0.02066701
vn -0.5263368 -0.715745 -0.4589974
vn -0.2224206 -0.7235755 -0.6534274
vn 0.2725497 -0.7418461 -0.6126834
vn 0.5534889 -0.7073764 -0.4396235
vn 0.4775288 -0.7134197 -0.512834
vn 0.5040521 -0.7180981 -0.4798611
vn 0.6753112 -0.7306885 -0.1002454
vn 0.536579 -0.7400122 0.4055426
vn 0.2138488 -0.7130652 0.6676876
vn 0.01795642 -0.7089119 0.7050684
vn -0.3351212 -0.7429347 0.5794322
vn -0.4063051 -0.8442755 0.3494495
vn -0.06199109 -0.714771 0.6966057
vn -0.4429334 -0.7384476 0.508434
vn 0 -1 0
vn 0 -1 0
vn 0 -1 0
vn 0 -1 0
vn 0 -1 0
vn 0 -1 0
vn 0 -1 0
vn 0 -1 0
vn 0 -1 0
vn 0 -1 0
vn 0 -1 0
vn 0 -1 0
vn 0 -1 0
vn 0 -1 0
vn 0 -1 0
vn -0.6194745 -0.70884 0.3373386
vn 0 -1 0
vn 0 -1 0
vn -0.1466829 -0.7269732 0.670816
vn 0 -1 0
vn 0 -1 0
vn 0 -1 0
vn 0 -1 0
vn 0 -1 0
vn 0 -1 0
vn 0 1 0
vn 0 1 0
vn 0 1 0
vn 0 1 0
vn 0 1 0
vn 0 1 0
vn 0 1 0
vn 0 1 0
vn 0 1 0
vn 0 1 0
vn 0 1 0
vn 0 1 0
vn 0 1 0
vn 0 1 0
vn 0 1 0
vn 0 1 0
vn 0 1 0
vn 0 1 -3.225156E-07
vn 0 1 -3.323792E-07
vn 0 1 -1.283463E-07
vn 0 1 -1.099227E-07
vn 0 1 0
vn 0 1 -1.283463E-07
vn 0 1 -1.283463E-07
vn 0 1 -3.553252E-07
vn 0 0 1
vn 0 0 1
vn 0 0 1
vn 0 0 1
vn 0 0 1
vn 0 0 1
vn 0 0 1
vn 0 0 1
vn 0 -1 0
vn 0 -1 0
vn 0 -1 0
vn 0 -1 0
vn 0 -1 0
vn 0 -1 0
vn 0 -1 0
vn 0 -1 0
vn 0 -1 0
vn 0 -1 0
vn 0 -1 0
vn 0 -1 0
vn 0 -1 0
vn 0 -1 0
vn 0 -1 0
vn 0 -1 0
vn 0 -1 0
vn 0 -1 0
vn 0 -1 0
vn 0 -1 0
vn 0 -1 0
vn 0 -1 0
vn 0 -1 0
vn 0 -1 0
vn 0 -1 0
vn -0.4063051 0.8442755 0.3494495
vn -0.6194745 -0.70884 0.3373386
vn -0.4063051 -0.8442755 0.3494495
vn -0.6194745 0.70884 0.3373386
vn -0.1466829 0.7269732 0.670816
vn -0.1466829 -0.7269732 0.670816
vn -0.0619911 0.7147712 0.6966056
vn -0.06199109 -0.714771 0.6966057
vn -0.5263368 0.715745 -0.4589974
vn -0.6660396 -0.7456301 -0.02066701
vn -0.5263368 -0.715745 -0.4589974
vn -0.6660396 0.7456301 -0.02066696
vn -0.2224206 0.7235756 -0.6534274
vn -0.5263368 -0.715745 -0.4589974
vn -0.2224206 -0.7235755 -0.6534274
vn -0.5263368 0.715745 -0.4589974
vn 0.2725497 0.7418462 -0.6126833
vn 0.2725497 -0.7418461 -0.6126834
vn 0.6753112 0.7306885 -0.1002454
vn 0.5040521 -0.7180981 -0.4798611
vn 0.6753112 -0.7306885 -0.1002454
vn 0.5040521 0.7180981 -0.4798611
vn 0.536579 0.7400122 0.4055426
vn 0.536579 -0.7400122 0.4055426
vn 0.2138488 0.7130652 0.6676876
vn 0.2138488 -0.7130652 0.6676876
g mysteryMeat_geo_0
f 4/4/4 5/5/5 7/7/7
f 3/3/3 4/4/4 7/7/7
f 1/1/1 4/4/4 3/3/3
f 2/2/2 1/1/1 3/3/3
f 5/5/5 4/4/4 6/6/6
f 3/3/3 7/7/7 8/8/8
f 37/37/37 24/24/24 103/103/103
f 25/25/25 24/24/24 37/37/37
f 38/38/38 25/25/25 37/37/37
f 97/97/97 44/44/44 113/113/113
f 95/95/95 44/44/44 97/97/97
f 96/96/96 95/95/95 97/97/97
f 98/98/98 95/95/95 96/96/96
f 99/99/99 98/98/98 96/96/96
f 109/109/109 110/110/110 111/111/111
f 108/108/108 110/110/110 109/109/109
f 46/46/46 108/108/108 109/109/109
f 107/107/107 108/108/108 46/46/46
f 106/106/106 107/107/107 46/46/46
f 104/104/104 97/97/97 113/113/113
f 48/48/48 104/104/104 113/113/113
f 105/105/105 104/104/104 48/48/48
f 112/112/112 105/105/105 48/48/48
f 117/117/117 120/120/120 119/119/119
f 115/115/115 120/120/120 117/117/117
f 114/114/114 115/115/115 117/117/117
f 116/116/116 115/115/115 114/114/114
f 118/118/118 117/117/117 119/119/119
f 121/121/121 120/120/120 115/115/115
f 77/77/77 65/65/65 78/78/78
f 64/64/64 65/65/65 77/77/77
f 136/136/136 64/64/64 77/77/77
f 129/129/129 130/130/130 132/132/132
f 128/128/128 130/130/130 129/129/129
f 131/131/131 128/128/128 129/129/129
f 84/84/84 128/128/128 131/131/131
f 146/146/146 84/84/84 131/131/131
f 86/86/86 140/140/140 139/139/139
f 141/141/141 140/140/140 86/86/86
f 142/142/142 141/141/141 86/86/86
f 143/143/143 141/141/141 142/142/142
f 144/144/144 143/143/143 142/142/142
f 138/138/138 146/146/146 131/131/131
f 88/88/88 146/146/146 138/138/138
f 137/137/137 88/88/88 138/138/138
f 145/145/145 88/88/88 137/137/137
f 152/152/152 153/153/153 154/154/154
f 151/151/151 153/153/153 152/152/152
f 149/149/149 151/151/151 152/152/152
f 147/147/147 151/151/151 149/149/149
f 148/148/148 147/147/147 149/149/149
f 150/150/150 147/147/147 148/148/148
f 156/156/156 155/155/155 157/157/157
f 158/158/158 155/155/155 156/156/156
f 161/161/161 163/163/163 164/164/164
f 159/159/159 163/163/163 161/161/161
f 160/160/160 159/159/159 161/161/161
f 162/162/162 159/159/159 160/160/160
f 170/170/170 171/171/171 172/172/172
f 169/169/169 171/171/171 170/170/170
f 167/167/167 169/169/169 170/170/170
f 165/165/165 169/169/169 167/167/167
f 166/166/166 165/165/165 167/167/167
f 168/168/168 165/165/165 166/166/166
f 13/13/13 35/35/35 34/34/34
f 36/36/36 35/35/35 13/13/13
f 12/12/12 36/36/36 13/13/13
f 91/91/91 36/36/36 12/12/12
f 11/11/11 91/91/91 12/12/12
f 92/92/92 91/91/91 11/11/11
f 10/10/10 92/92/92 11/11/11
f 90/90/90 92/92/92 10/10/10
f 9/9/9 90/90/90 10/10/10
f 89/89/89 90/90/90 9/9/9
f 23/23/23 89/89/89 9/9/9
f 26/26/26 89/89/89 23/23/23
f 22/22/22 26/26/26 23/23/23
f 41/41/41 26/26/26 22/22/22
f 42/42/42 41/41/41 22/22/22
f 27/27/27 41/41/41 42/42/42
f 21/21/21 27/27/27 42/42/42
f 43/43/43 27/27/27 21/21/21
f 40/40/40 43/43/43 21/21/21
f 20/20/20 28/28/28 40/40/40
f 29/29/29 28/28/28 20/20/20
f 19/19/19 29/29/29 20/20/20
f 30/30/30 29/29/29 19/19/19
f 18/18/18 30/30/30 19/19/19
f 31/31/31 30/30/30 18/18/18
f 17/17/17 31/31/31 18/18/18
f 32/32/32 31/31/31 17/17/17
f 16/16/16 32/32/32 17/17/17
f 33/33/33 32/32/32 16/16/16
f 15/15/15 33/33/33 16/16/16
f 34/34/34 33/33/33 15/15/15
f 14/14/14 34/34/34 15/15/15
f 13/13/13 34/34/34 14/14/14
f 53/53/53 13/13/13 14/14/14
f 52/52/52 13/13/13 53/53/53
f 76/76/76 52/52/52 53/53/53
f 124/124/124 52/52/52 76/76/76
f 44/44/44 95/95/95 93/93/93
f 94/94/94 44/44/44 93/93/93
f 45/45/45 44/44/44 94/94/94
f 47/47/47 45/45/45 94/94/94
f 100/100/100 103/103/103 102/102/102
f 101/101/101 100/100/100 102/102/102
f 94/94/94 100/100/100 101/101/101
f 47/47/47 94/94/94 101/101/101
f 100/100/100 37/37/37 103/103/103
f 59/59/59 69/69/69 70/70/70
f 60/60/60 69/69/69 59/59/59
f 20/20/20 60/60/60 59/59/59
f 39/39/39 60/60/60 20/20/20
f 40/40/40 39/39/39 20/20/20
f 21/21/21 39/39/39 40/40/40
f 61/61/61 83/83/83 80/80/80
f 67/67/67 83/83/83 61/61/61
f 82/82/82 67/67/67 61/61/61
f 81/81/81 67/67/67 82/82/82
f 62/62/62 81/81/81 82/82/82
f 66/66/66 81/81/81 62/62/62
f 63/63/63 66/66/66 62/62/62
f 122/122/122 66/66/66 63/63/63
f 49/49/49 122/122/122 63/63/63
f 123/123/123 122/122/122 49/49/49
f 50/50/50 123/123/123 49/49/49
f 125/125/125 123/123/123 50/50/50
f 51/51/51 125/125/125 50/50/50
f 124/124/124 125/125/125 51/51/51
f 52/52/52 124/124/124 51/51/51
f 80/80/80 79/79/79 61/61/61
f 60/60/60 79/79/79 80/80/80
f 68/68/68 60/60/60 80/80/80
f 69/69/69 60/60/60 68/68/68
f 54/54/54 53/53/53 14/14/14
f 74/74/74 53/53/53 54/54/54
f 55/55/55 74/74/74 54/54/54
f 73/73/73 74/74/74 55/55/55
f 56/56/56 73/73/73 55/55/55
f 72/72/72 73/73/73 56/56/56
f 57/57/57 72/72/72 56/56/56
f 71/71/71 72/72/72 57/57/57
f 58/58/58 71/71/71 57/57/57
f 70/70/70 71/71/71 58/58/58
f 59/59/59 70/70/70 58/58/58
f 75/75/75 53/53/53 74/74/74
f 76/76/76 53/53/53 75/75/75
f 84/84/84 126/126/126 128/128/128
f 127/127/127 126/126/126 84/84/84
f 85/85/85 127/127/127 84/84/84
f 87/87/87 127/127/127 85/85/85
f 134/134/134 127/127/127 87/87/87
f 133/133/133 127/127/127 134/134/134
f 135/135/135 133/133/133 134/134/134
f 136/136/136 133/133/133 135/135/135
f 136/136/136 77/77/77 133/133/133
f 60/60/60 39/39/39 79/79/79
f 63/63/63 9/9/9 49/49/49
f 23/23/23 9/9/9 63/63/63
f 62/62/62 23/23/23 63/63/63
f 22/22/22 23/23/23 62/62/62
f 12/12/12 13/13/13 52/52/52
f 54/54/54 15/15/15 55/55/55
f 14/14/14 15/15/15 54/54/54
f 19/19/19 58/58/58 18/18/18
f 59/59/59 58/58/58 19/19/19
f 20/20/20 59/59/59 19/19/19
