g newsPaper_geo
v 0.01684071 -0.1183715 -0.01603172
v -0.01684071 -0.1183715 -0.01603172
v -0.03368141 -0.1280942 0.0131372
v -0.01684071 -0.1280942 0.04230621
v 0.01684071 -0.1280942 0.04230614
v 0.03368141 -0.1280942 0.01313721
v 0.01109043 -0.05980472 -0.00607193
v -0.01109039 -0.05980472 -0.00607193
v -0.02218079 -0.05980472 0.0131372
v -0.01109039 -0.05980472 0.03234634
v 0.01109039 -0.05980472 0.03234634
v 0.02218079 -0.05980472 0.01313721
v 0.01052444 -0.0009511185 -0.005091553
v -0.01052441 -0.0009511185 -0.005091629
v -0.02104889 -0.0009511185 0.0131372
v -0.01052444 -0.0009511185 0.03136601
v 0.01052441 -0.0009511185 0.03136601
v 0.02104889 -0.0009511185 0.01313721
v 0.01491302 0.1355448 -0.02487823
v -0.01510544 0.1355448 -0.0130262
v -0.0302108 0.1355448 0.0131372
v -0.0151054 0.1355448 0.03930053
v 0.0151054 0.1355448 0.03930053
v 0.0302108 0.1355448 0.01313721
v 0.03711471 0.2334326 -0.05213333
v -0.0225145 0.2334326 -0.02585907
v -0.04502899 0.2334326 0.0131372
v -0.0225145 0.2334326 0.05213348
v 0.0225145 0.2334326 0.05213348
v 0.04502899 0.2334326 0.01313721
v 0 -0.1195901 0.01313721
v 0 0.2208625 0.01313721
v 0.003495655 0.1355448 -0.008339844
v -0.002524843 0.2284305 -0.01402748
v 0.01687836 0.1355448 -0.02147423
v 0.0399649 0.2334326 -0.04719665
v 0.01052444 -0.0009511185 -0.005091553
v -0.01684071 -0.1183715 -0.01603172
v 0.01684071 -0.1183715 -0.01603172
v -0.03368141 -0.1280942 0.0131372
v -0.01684071 -0.1280942 0.04230621
v 0.01684071 -0.1280942 0.04230614
v 0.03368141 -0.1280942 0.01313721
v -0.002524843 0.2284305 -0.01402748
v -0.0225145 0.2334326 -0.02585907
v -0.04502899 0.2334326 0.0131372
v -0.0225145 0.2334326 0.05213348
v 0.0225145 0.2334326 0.05213348
v 0.04502899 0.2334326 0.01313721
v 0.0399649 0.2334326 -0.04719665
v 0.01687836 0.1355448 -0.02147423
v 0.01491302 0.1355448 -0.02487823
v 0.01052444 -0.0009511185 -0.005091553
v 0.0399649 0.2334326 -0.04719665
v 0.03711471 0.2334326 -0.05213333
v 0.03711471 0.2334326 -0.05213333
vt 0.3887744 0.9722897
vt 0.3887744 0.9722897
vt 0.3887745 0.9722897
vt 0.3887745 0.9722897
vt 0.3887745 0.9722897
vt 0.3887744 0.9722897
vt 0.3887744 0.9578044
vt 0.3887744 0.9578044
vt 0.3887745 0.9578044
vt 0.3887745 0.9578044
vt 0.3887745 0.9578044
vt 0.3887744 0.9578044
vt 0.3887744 0.9487916
vt 0.3887744 0.9487916
vt 0.3887745 0.9487916
vt 0.3887745 0.9487916
vt 0.3887745 0.9487916
vt 0.3887744 0.9487916
vt 0.3887745 0.9722897
vt 0.3887745 0.9722897
vt 0.3887745 0.9722897
vt 0.3887745 0.9722897
vt 0.3887745 0.9722897
vt 0.3887745 0.9722897
vt 0.3887745 0.9722897
vt 0.3887745 0.9722897
vt 0.3887745 0.9722897
vt 0.3887745 0.9722897
vt 0.3887745 0.9722897
vt 0.3887745 0.9722897
vt 0.17939 0.9612681
vt 0.178031 0.9728197
vt 0.390813 0.9362757
vt 0.390813 0.9362757
vt 0.3903767 0.9713278
vt 0.178031 0.9728197
vt 0.390813 0.9222538
vt 0.17939 0.9612681
vt 0.17939 0.9612681
vt 0.17939 0.9612681
vt 0.17939 0.9612681
vt 0.17939 0.9612681
vt 0.17939 0.9612681
vt 0.178031 0.9728197
vt 0.178031 0.9728197
vt 0.178031 0.9728197
vt 0.178031 0.9728197
vt 0.178031 0.9728197
vt 0.178031 0.9728197
vt 0.3903767 0.971328
vt 0.3812037 0.9898074
vt 0.3812037 0.9898074
vt 0.3812037 0.9616998
vt 0.3812037 0.9898074
vt 0.3812037 0.9898074
vt 0.178031 0.9728197
vn 0.2592787 -0.6732463 -0.6924695
vn -0.2592785 -0.6732462 -0.6924697
vn -0.6035786 -0.7843636 -0.1430617
vn -0.3008705 -0.7986912 0.5211232
vn 0.300871 -0.798691 0.5211231
vn 0.6035785 -0.7843637 -0.1430613
vn 0.5033985 0.1033212 -0.8578547
vn -0.5033975 0.1033213 -0.8578553
vn -0.9953778 0.09577997 0.0070159
vn -0.4978315 0.09302928 0.8622699
vn 0.4978317 0.09302923 0.8622698
vn 0.9953778 0.09577998 0.007016654
vn 0.7059899 -0.03033743 -0.7075719
vn -0.5497972 -0.03467208 -0.8345782
vn -0.9997142 -0.0239046 0
vn -0.4998568 -0.02390435 0.8657781
vn 0.4998565 -0.02390429 0.8657783
vn 0.9983917 -0.01157635 -0.0554979
vn 0.3435565 -0.2160039 -0.9139536
vn -0.6261696 -0.1189465 -0.7705605
vn -0.9941004 -0.1084632 4.040186E-07
vn -0.4970502 -0.1084634 0.8609163
vn 0.4970499 -0.1084634 0.8609164
vn 0.9818066 -0.08243356 -0.171057
vn 0.2818413 0.3404942 -0.8970113
vn -0.2145355 0.9569385 -0.1955587
vn -0.5851469 0.8109273 3.52901E-07
vn -0.2925734 0.8109273 0.5067521
vn 0.2925733 0.8109273 0.5067522
vn 0.4597052 0.8813325 -0.1091982
vn 0 -0.9865364 -0.1635417
vn 0.01660215 0.9997607 0.01424844
vn 0.9996569 0.02270025 -0.01306901
vn 0.3480086 0.9080365 0.2331518
vn 0.9813232 -0.09591389 0.1667492
vn 0.6501516 0.7228581 0.2340491
vn 0.7059899 -0.03033743 -0.7075719
vn -0.2592785 -0.6732462 -0.6924697
vn 0.2592787 -0.6732463 -0.6924695
vn -0.6035786 -0.7843636 -0.1430617
vn -0.3008705 -0.7986912 0.5211232
vn 0.300871 -0.798691 0.5211231
vn 0.6035785 -0.7843637 -0.1430613
vn 0.3480086 0.9080365 0.2331518
vn -0.2145355 0.9569385 -0.1955587
vn -0.5851469 0.8109273 3.52901E-07
vn -0.2925734 0.8109273 0.5067521
vn 0.2925733 0.8109273 0.5067522
vn 0.4597052 0.8813325 -0.1091982
vn 0.6501516 0.7228581 0.2340491
vn 0.9813232 -0.09591389 0.1667492
vn 0.3435565 -0.2160039 -0.9139536
vn 0.7059899 -0.03033743 -0.7075719
vn 0.6501516 0.7228581 0.2340491
vn 0.2818413 0.3404942 -0.8970113
vn 0.2818413 0.3404942 -0.8970113
g newsPaper_geo_0
f 11/11/11 4/4/4 5/5/5
f 10/10/10 4/4/4 11/11/11
f 17/17/17 10/10/10 11/11/11
f 16/16/16 10/10/10 17/17/17
f 22/22/22 16/16/16 17/17/17
f 21/21/21 16/16/16 22/22/22
f 27/27/27 21/21/21 22/22/22
f 20/20/20 21/21/21 27/27/27
f 26/26/26 20/20/20 27/27/27
f 19/19/19 20/20/20 26/26/26
f 25/25/25 19/19/19 26/26/26
f 11/11/11 5/5/5 6/6/6
f 12/12/12 11/11/11 6/6/6
f 17/17/17 11/11/11 12/12/12
f 18/18/18 17/17/17 12/12/12
f 24/24/24 17/17/17 18/18/18
f 37/37/37 24/24/24 18/18/18
f 33/33/33 24/24/24 37/37/37
f 35/35/35 33/33/33 37/37/37
f 34/34/34 33/33/33 35/35/35
f 50/50/50 34/34/34 35/35/35
f 52/52/52 51/51/51 53/53/53
f 54/54/54 51/51/51 52/52/52
f 55/55/55 54/54/54 52/52/52
f 45/45/45 36/36/36 56/56/56
f 44/44/44 36/36/36 45/45/45
f 32/32/32 44/44/44 45/45/45
f 49/49/49 44/44/44 32/32/32
f 48/48/48 49/49/49 32/32/32
f 12/12/12 37/37/37 18/18/18
f 7/7/7 37/37/37 12/12/12
f 1/1/1 7/7/7 12/12/12
f 8/8/8 7/7/7 1/1/1
f 2/2/2 8/8/8 1/1/1
f 9/9/9 8/8/8 2/2/2
f 3/3/3 9/9/9 2/2/2
f 10/10/10 9/9/9 3/3/3
f 4/4/4 10/10/10 3/3/3
f 6/6/6 1/1/1 12/12/12
f 14/14/14 13/13/13 7/7/7
f 19/19/19 13/13/13 14/14/14
f 20/20/20 19/19/19 14/14/14
f 22/22/22 28/28/28 27/27/27
f 29/29/29 28/28/28 22/22/22
f 23/23/23 29/29/29 22/22/22
f 30/30/30 29/29/29 23/23/23
f 24/24/24 30/30/30 23/23/23
f 34/34/34 30/30/30 24/24/24
f 33/33/33 34/34/34 24/24/24
f 31/31/31 39/39/39 43/43/43
f 38/38/38 39/39/39 31/31/31
f 40/40/40 38/38/38 31/31/31
f 31/31/31 41/41/41 40/40/40
f 42/42/42 41/41/41 31/31/31
f 43/43/43 42/42/42 31/31/31
f 32/32/32 47/47/47 48/48/48
f 46/46/46 47/47/47 32/32/32
f 45/45/45 46/46/46 32/32/32
f 15/15/15 16/16/16 21/21/21
f 9/9/9 16/16/16 15/15/15
f 14/14/14 9/9/9 15/15/15
f 8/8/8 9/9/9 14/14/14
f 7/7/7 8/8/8 14/14/14
f 10/10/10 16/16/16 9/9/9
f 21/21/21 14/14/14 15/15/15
f 20/20/20 14/14/14 21/21/21
f 23/23/23 17/17/17 24/24/24
f 22/22/22 17/17/17 23/23/23
