g pCube1
v 0.03220512 0.1788859 0.05250611
v 0.01806625 -0.1634741 0.02363833
v 0.001073494 0.1798612 0.0561877
v -0.01306534 -0.1624988 0.02731993
v 0.06838055 -0.02115122 0.3591267
v 0.09783582 -0.02295189 0.3660519
v -0.007739896 0.06890521 0.01104997
v -0.01245285 -0.04521479 0.001427285
v 0.01973509 0.01187296 -0.00870203
v 0.02680222 0.2034951 0.0002981233
v 0.01741879 0.0819204 -0.04684671
v -0.0134173 0.08288657 -0.0432
v -0.00403347 0.2044616 0.003944249
v 0.01195484 -0.05038422 -0.05800268
v -0.01888124 -0.04941826 -0.05435631
v 0.01102703 -0.1784837 -0.03191034
v -0.01980865 -0.1775177 -0.02826406
v -0.02788175 0.07199908 0.003149724
v -0.03272545 -0.04528489 -0.006739783
v -0.03337574 -0.1641725 0.01925991
v -0.01897522 0.1845156 0.04866092
v -0.03055189 0.07794398 -0.02100461
v -0.03570658 -0.0468695 -0.03152875
v -0.03644569 -0.1695726 -0.005274641
v -0.02142345 0.1941745 0.0253965
v 0.04124443 -0.09304105 0.2009891
v 0.0483144 0.078139 0.2154226
v 0.01433771 -0.07941733 0.2110765
v 0.02031315 0.06527012 0.2232763
v 0.01863469 -0.008084001 0.2285188
v 0.1606856 -0.0249209 0.358621
v 0.01806625 -0.1634741 0.02363833
v 0.04124443 -0.09304105 0.2009891
v 0.09783582 -0.02295189 0.3660519
v 0.0483144 0.078139 0.2154226
v 0.02680222 0.2034951 0.0002981233
v 0.001073494 0.1798612 0.0561877
v 0.02680222 0.2034951 0.0002981233
v 0.03220512 0.1788859 0.05250611
v 0.01102703 -0.1784837 -0.03191034
v 0.01806625 -0.1634741 0.02363833
v -0.01306534 -0.1624988 0.02731993
v 0.01102703 -0.1784837 -0.03191034
v -0.01980865 -0.1775177 -0.02826406
v 0.01195484 -0.05038422 -0.05800268
v 0.01741879 0.0819204 -0.04684671
v -0.00403347 0.2044616 0.003944249
v 0.03220512 0.1788859 0.05250611
v 0.09783582 -0.02295189 0.3660519
v 0.1606856 -0.0249209 0.358621
v 0.09783582 -0.02295189 0.3660519
v 0.0483144 0.078139 0.2154226
v 0.09783582 -0.02295189 0.3660519
v 0.04124443 -0.09304105 0.2009891
vt 0.568526 0.8359681
vt 0.9540694 0.8859442
vt 0.1439387 0.1518592
vt 0.8323524 0.342042
vt 0.3182204 0.8351315
vt 0.8100662 0.4847301
vt 0.3912451 0.1506954
vt 0.6207162 0.2140897
vt 0.7544277 0.9139543
vt 0.1311626 0.04291627
vt 0.400573 0.04570031
vt 0.400573 0.04570031
vt 0.1311626 0.04291627
vt 0.6666098 0.1191963
vt 0.6666098 0.1191963
vt 0.8992422 0.2551078
vt 0.8992422 0.2551078
vt 0.3932278 0.131125
vt 0.6290609 0.1962768
vt 0.8433763 0.3260964
vt 0.1426641 0.132516
vt 0.3979469 0.08454996
vt 0.6489202 0.1538845
vt 0.8712806 0.2857323
vt 0.1394375 0.08355165
vt 0.8826716 0.6806785
vt 0.6898999 0.6556903
vt 0.5103082 0.5969872
vt 0.2894363 0.5359686
vt 0.3941764 0.5870953
vt 0.1716441 0.8881307
vt 0.8600652 0.3882951
vt 0.5748115 0.6037586
vt 0.2602816 0.8531547
vt 0.2306046 0.5086672
vt 0.5383045 0.894124
vt 0.1041926 0.1569514
vt 0.03139859 0.0478555
vt 0.03887141 0.1612559
vt 0.9684644 0.9498836
vt 0.9176968 0.4040412
vt 0.8638485 0.3668154
vt 0.9823223 0.3105584
vt 0.9289849 0.2736858
vt 0.8225026 0.9731516
vt 0.6735098 0.9538383
vt 0.09610012 0.04359189
vt 0.1009719 0.1762247
vt 0.3679475 0.8838279
vt 0.4255035 0.9513439
vt 0.2602816 0.8531547
vt 0.2306046 0.5086672
vt 0.3679475 0.8838277
vt 0.5748115 0.6037585
vn 0.7366716 0.6200497 0.2699133
vn 0.6815508 -0.7146479 0.1573743
vn -0.4914345 0.5179133 0.7001843
vn -0.5370088 -0.5856714 0.6071332
vn -0.790792 -0.01892564 0.6117922
vn 0.978277 -0.02303322 -0.2060186
vn -0.7978104 -0.09398245 0.5955384
vn -0.7915282 0.05810701 0.608364
vn 0.9901663 -0.02935974 -0.1367793
vn 0.5651546 0.8243001 0.03360904
vn 0.6300824 0.1394281 -0.7639083
vn -0.4973647 0.2230368 -0.8383812
vn -0.4116137 0.7653567 -0.4947761
vn 0.6218101 -0.06087928 -0.7807981
vn -0.5081567 -0.0382675 -0.8604141
vn 0.4955148 -0.8617879 -0.1085668
vn -0.4694745 -0.6355681 -0.6129005
vn -0.8020431 -0.09310113 0.5899652
vn -0.7957809 0.05851986 0.6027506
vn -0.5324939 -0.6354064 0.5592039
vn -0.4825267 0.5744182 0.6612198
vn -0.9637455 0.1126547 -0.2418751
vn -0.9680403 0.008654816 -0.250645
vn -0.6799547 -0.7322829 0.0377282
vn -0.6179541 0.768852 0.1643145
vn 0.600575 -0.77685 0.1892448
vn 0.6608469 0.6824629 0.312291
vn -0.715939 -0.5601823 0.4166859
vn -0.6705264 0.5393572 0.5093997
vn -0.9746076 0.0214561 0.2228891
vn 0.0895308 0.8403743 0.5345608
vn 0.6815508 -0.7146479 0.1573743
vn 0.600575 -0.77685 0.1892448
vn -0.3353637 -0.06539134 0.9398165
vn 0.6608469 0.6824629 0.312291
vn 0.5651546 0.8243001 0.03360904
vn -0.4914345 0.5179133 0.7001843
vn 0.5651546 0.8243001 0.03360904
vn 0.7366716 0.6200497 0.2699133
vn 0.4955148 -0.8617879 -0.1085668
vn 0.6815508 -0.7146479 0.1573743
vn -0.5370088 -0.5856714 0.6071332
vn 0.4955148 -0.8617879 -0.1085668
vn -0.4694745 -0.6355681 -0.6129005
vn 0.6218101 -0.06087928 -0.7807981
vn 0.6300824 0.1394281 -0.7639083
vn -0.4116137 0.7653567 -0.4947761
vn 0.7366716 0.6200497 0.2699133
vn -0.3353637 -0.06539134 0.9398165
vn 0.01673187 -0.9223784 0.3859251
vn 0.0895308 0.8403743 0.5345608
vn 0.0895308 0.8403743 0.5345608
vn 0.01673187 -0.9223784 0.3859251
vn 0.01673187 -0.9223784 0.3859251
g pCube1_0
f 52/52/52 51/51/51 31/31/31
f 50/50/50 53/53/53 54/54/54
f 38/38/38 37/37/37 39/39/39
f 21/21/21 37/37/37 38/38/38
f 25/25/25 21/21/21 38/38/38
f 18/18/18 21/21/21 25/25/25
f 22/22/22 18/18/18 25/25/25
f 19/19/19 18/18/18 22/22/22
f 23/23/23 19/19/19 22/22/22
f 20/20/20 19/19/19 23/23/23
f 24/24/24 20/20/20 23/23/23
f 43/43/43 20/20/20 24/24/24
f 44/44/44 43/43/43 24/24/24
f 20/20/20 41/41/41 42/42/42
f 43/43/43 41/41/41 20/20/20
f 47/47/47 25/25/25 38/38/38
f 15/15/15 16/16/16 17/17/17
f 14/14/14 16/16/16 15/15/15
f 12/12/12 14/14/14 15/15/15
f 11/11/11 14/14/14 12/12/12
f 10/10/10 11/11/11 12/12/12
f 12/12/12 13/13/13 10/10/10
f 22/22/22 13/13/13 12/12/12
f 23/23/23 22/22/22 12/12/12
f 9/9/9 26/26/26 2/2/2
f 6/6/6 26/26/26 9/9/9
f 27/27/27 6/6/6 9/9/9
f 9/9/9 1/1/1 27/27/27
f 36/36/36 1/1/1 9/9/9
f 46/46/46 36/36/36 9/9/9
f 28/28/28 32/32/32 33/33/33
f 4/4/4 32/32/32 28/28/28
f 30/30/30 4/4/4 28/28/28
f 8/8/8 4/4/4 30/30/30
f 7/7/7 8/8/8 30/30/30
f 18/18/18 8/8/8 7/7/7
f 21/21/21 18/18/18 7/7/7
f 5/5/5 30/30/30 28/28/28
f 29/29/29 30/30/30 5/5/5
f 34/34/34 29/29/29 5/5/5
f 35/35/35 29/29/29 34/34/34
f 3/3/3 30/30/30 29/29/29
f 7/7/7 30/30/30 3/3/3
f 21/21/21 7/7/7 3/3/3
f 9/9/9 45/45/45 46/46/46
f 40/40/40 45/45/45 9/9/9
f 2/2/2 40/40/40 9/9/9
f 19/19/19 8/8/8 18/18/18
f 4/4/4 8/8/8 19/19/19
f 20/20/20 4/4/4 19/19/19
f 15/15/15 23/23/23 12/12/12
f 24/24/24 23/23/23 15/15/15
f 17/17/17 24/24/24 15/15/15
f 13/13/13 22/22/22 25/25/25
f 48/48/48 29/29/29 35/35/35
f 3/3/3 29/29/29 48/48/48
f 49/49/49 28/28/28 33/33/33
f 5/5/5 28/28/28 49/49/49
