g peterChin_geo
v -5.919839E-19 1.405336 0.2301808
v 2.775557E-19 1.408851 0.261169
v 5.915884E-18 1.43515 0.2720864
v 5.663659E-17 1.397717 0.2235614
v -0.02390455 1.457453 0.2470632
v -0.02101904 1.462995 0.2163129
v -0.04856788 1.464495 0.2133781
v -0.05984167 1.46217 0.2183393
v -0.08125629 1.445415 0.2065986
v -0.0196377 1.382505 0.2283814
v -0.03634237 1.391461 0.2673382
v -0.04238774 1.376136 0.2254592
v -0.04504175 1.381104 0.2453578
v -0.06561952 1.381655 0.2206096
v -0.06677941 1.385954 0.2414492
v -0.08063447 1.39838 0.2163138
v -0.08183474 1.400719 0.2358604
v -0.08515699 1.419674 0.2140442
v -0.08617113 1.423486 0.2313605
v -0.07910299 1.443825 0.2131998
v -0.07964908 1.439772 0.2409163
v -0.07109775 1.398021 0.2629288
v -0.06429134 1.432393 0.2682011
v -0.05264791 1.443208 0.2677186
v -0.0316321 1.431206 0.2743939
v -0.05261025 1.414126 0.272948
v -0.04838085 1.428181 0.27538
v -0.01520076 1.377234 0.2231455
v -0.04089 1.36983 0.2207175
v -0.06807341 1.3757 0.2162746
v -0.08373839 1.395188 0.2086394
v -0.0888582 1.419134 0.2049655
v -0.05692105 1.457977 0.2402959
v -7.738374E-18 1.461749 0.2185349
v -0.05817698 1.465163 0.2121289
v 0.02390455 1.457453 0.2470632
v 0.02101904 1.462995 0.2163129
v 0.04856788 1.464495 0.2133781
v 0.05984167 1.46217 0.2183393
v 0.0196377 1.382505 0.2283814
v 0.03634237 1.391461 0.2673382
v 0.04238774 1.376136 0.2254592
v 0.04504175 1.381104 0.2453578
v 0.06561952 1.381655 0.2206096
v 0.06677941 1.385954 0.2414492
v 0.08063447 1.39838 0.2163138
v 0.07662207 1.401767 0.2468233
v 0.08212999 1.431749 0.213622
v 0.08291011 1.431629 0.2361384
v 0.06429134 1.432393 0.2682011
v 0.04553087 1.442709 0.2692498
v 0.02910377 1.42971 0.2754613
v 0.05261025 1.414126 0.272948
v 0.04838085 1.428181 0.27538
v 0.01520076 1.377234 0.2231455
v 0.04089 1.36983 0.2207175
v 0.06807341 1.3757 0.2162746
v 0.08373839 1.395188 0.2086394
v 0.08505724 1.432275 0.2057821
v 0.05692105 1.457977 0.2402959
v 0.05622837 1.464944 0.2125272
v -0.08515699 1.419674 0.2140442
v -0.07910299 1.443825 0.2131998
v -0.0196377 1.382505 0.2283814
v -5.919839E-19 1.405336 0.2301808
v -0.04238774 1.376136 0.2254592
v -0.06561952 1.381655 0.2206096
v -0.08063447 1.39838 0.2163138
v -0.04856788 1.464495 0.2133781
v -0.05984167 1.46217 0.2183393
v 0.0196377 1.382505 0.2283814
v 0.04238774 1.376136 0.2254592
v 0.06561952 1.381655 0.2206096
v 0.08063447 1.39838 0.2163138
v 0.08212999 1.431749 0.213622
v 0.04856788 1.464495 0.2133781
v 0.05984167 1.46217 0.2183393
v -0.05984167 1.46217 0.2183393
v -0.05817698 1.465163 0.2121289
v 0.02910377 1.42971 0.2754613
v 0.05984167 1.46217 0.2183393
v 0.05622837 1.464944 0.2125272
vt 0.03042166 0.9674803
vt 0.03042166 0.9674803
vt 0.03042166 0.9674803
vt 0.2638853 0.9876672
vt 0.03042166 0.9674803
vt 0.03042166 0.9674803
vt 0.03042166 0.9674803
vt 0.03042166 0.9674803
vt 0.2638853 0.9876672
vt 0.03042166 0.9674803
vt 0.03042166 0.9674803
vt 0.03042166 0.9674803
vt 0.03042166 0.9674803
vt 0.03042166 0.9674803
vt 0.03042166 0.9674803
vt 0.03042166 0.9674803
vt 0.03042166 0.9674803
vt 0.03042166 0.9674803
vt 0.03042166 0.9674803
vt 0.03042166 0.9674803
vt 0.03042166 0.9674803
vt 0.03042166 0.9674803
vt 0.03042166 0.9674803
vt 0.03042166 0.9674803
vt 0.03042166 0.9674803
vt 0.03042166 0.9674803
vt 0.03042166 0.9674803
vt 0.2638853 0.9876672
vt 0.2638853 0.9876672
vt 0.2638853 0.9876672
vt 0.2638853 0.9876672
vt 0.2638853 0.9876672
vt 0.03042166 0.9674803
vt 0.03042166 0.9674803
vt 0.2638853 0.9876672
vt 0.03042166 0.9674803
vt 0.03042166 0.9674803
vt 0.03042166 0.9674803
vt 0.03042166 0.9674803
vt 0.03042166 0.9674803
vt 0.03042166 0.9674803
vt 0.03042166 0.9674803
vt 0.03042166 0.9674803
vt 0.03042166 0.9674803
vt 0.03042166 0.9674803
vt 0.03042166 0.9674803
vt 0.03042166 0.9674803
vt 0.03042166 0.9674803
vt 0.03042166 0.9674803
vt 0.03042166 0.9674803
vt 0.03042166 0.9674803
vt 0.03042166 0.9674803
vt 0.03042166 0.9674803
vt 0.03042166 0.9674803
vt 0.2638853 0.9876672
vt 0.2638853 0.9876672
vt 0.2638853 0.9876672
vt 0.2638853 0.9876672
vt 0.2638853 0.9876672
vt 0.03042166 0.9674803
vt 0.2638853 0.9876672
vt 0.2638853 0.9876672
vt 0.2638853 0.9876672
vt 0.2638853 0.9876672
vt 0.2638853 0.9876672
vt 0.2638853 0.9876672
vt 0.2638853 0.9876672
vt 0.2638853 0.9876672
vt 0.2638853 0.9876672
vt 0.2638853 0.9876672
vt 0.2638853 0.9876672
vt 0.2638853 0.9876672
vt 0.2638853 0.9876672
vt 0.2638853 0.9876672
vt 0.2638853 0.9876672
vt 0.2638853 0.9876672
vt 0.2638853 0.9876672
vt 0.2638853 0.9876672
vt 0.2638853 0.9876672
vt 0.03042166 0.9674803
vt 0.2638853 0.9876672
vt 0.2638853 0.9876672
vn 1.699935E-07 -0.7834035 0.6215134
vn -0.02812215 -0.5406462 0.8407799
vn -0.01035151 0.5366966 0.8437118
vn 3.524509E-07 -0.550519 0.8348226
vn 0.06215028 0.8617708 0.5034764
vn 0.1306365 0.9505883 0.2816312
vn -0.03578096 0.9585721 0.2825939
vn -0.385624 0.8782691 0.2827322
vn -0.8187112 0.475446 0.3219676
vn 0.3870783 -0.7409902 0.5487294
vn 0.139261 -0.7208202 0.6789879
vn -0.04993393 -0.8285468 0.5576889
vn -0.08462794 -0.940038 0.3304038
vn -0.5379191 -0.7084515 0.4568801
vn -0.5124199 -0.8220352 0.2483626
vn -0.883385 -0.3745752 0.2816459
vn -0.8926561 -0.4109194 0.1852306
vn -0.9817588 0.05270358 0.18268
vn -0.9909738 0.03403996 0.1296622
vn -0.8359985 0.5128798 0.1950918
vn -0.8563906 0.3937141 0.3340424
vn -0.6528063 -0.3560513 0.6686339
vn -0.5596021 0.2289181 0.7965187
vn -0.1725878 0.6533682 0.7371047
vn 0.09511534 0.2063262 0.9738494
vn -0.1576153 -0.1733753 0.9721618
vn -0.1739655 0.1550119 0.9724749
vn 0.3217812 -0.560232 0.7632804
vn -0.09127716 -0.6012012 0.7938675
vn -0.4958686 -0.4860521 0.7196302
vn -0.8140539 -0.2673289 0.5156078
vn -0.9221371 0.05027223 0.3835829
vn -0.2995844 0.898276 0.32148
vn 0 0.9313108 0.3642255
vn -0.3631228 0.8509937 0.3794096
vn -0.07893997 0.8583865 0.5068936
vn -0.1306365 0.950588 0.281632
vn 0.03620548 0.9587997 0.2817661
vn 0.4554683 0.8596214 0.2315157
vn -0.3870782 -0.7409908 0.5487288
vn -0.04810456 -0.6602682 0.7494877
vn 0.04993477 -0.8285488 0.5576859
vn 0.1473497 -0.9055451 0.3978394
vn 0.5513122 -0.6866676 0.4738589
vn 0.5147765 -0.7884797 0.336608
vn 0.9033456 -0.2935242 0.3127463
vn 0.7646252 -0.4426011 0.4684576
vn 0.936439 0.305668 0.1721892
vn 0.8872368 0.3073418 0.3440228
vn 0.5730474 0.2610644 0.7768282
vn 0.1591204 0.6519236 0.7414016
vn -0.07530905 0.1841847 0.9800023
vn 0.3586109 -0.2269611 0.9054762
vn 0.1903746 0.1605048 0.9685017
vn -0.3217812 -0.5602335 0.7632793
vn 0.09127895 -0.6012079 0.7938622
vn 0.4958709 -0.486057 0.7196252
vn 0.8391358 -0.2029356 0.5046468
vn 0.9125576 0.3223045 0.2517109
vn 0.3368155 0.8883751 0.3120018
vn 0.434943 0.8478268 0.3033386
vn -0.9817588 0.05270358 0.18268
vn -0.8359985 0.5128798 0.1950918
vn 0.3870783 -0.7409902 0.5487294
vn 1.699935E-07 -0.7834035 0.6215134
vn -0.04993393 -0.8285468 0.5576889
vn -0.5379191 -0.7084515 0.4568801
vn -0.883385 -0.3745752 0.2816459
vn -0.03578096 0.9585721 0.2825939
vn -0.385624 0.8782691 0.2827322
vn -0.3870782 -0.7409908 0.5487288
vn 0.04993477 -0.8285488 0.5576859
vn 0.5513122 -0.6866676 0.4738589
vn 0.9033456 -0.2935242 0.3127463
vn 0.936439 0.305668 0.1721892
vn 0.03620548 0.9587997 0.2817661
vn 0.4554683 0.8596214 0.2315157
vn -0.385624 0.8782691 0.2827322
vn -0.3631228 0.8509937 0.3794096
vn -0.1556054 0.0360192 0.9871624
vn 0.4554683 0.8596214 0.2315157
vn 0.434943 0.8478268 0.3033386
g peterChin_geo_0
f 70/70/70 69/69/69 35/35/35
f 61/61/61 76/76/76 77/77/77
f 9/9/9 78/78/78 79/79/79
f 63/63/63 78/78/78 9/9/9
f 62/62/62 63/63/63 9/9/9
f 4/4/4 65/65/65 64/64/64
f 71/71/71 65/65/65 4/4/4
f 55/55/55 71/71/71 4/4/4
f 72/72/72 71/71/71 55/55/55
f 56/56/56 72/72/72 55/55/55
f 73/73/73 72/72/72 56/56/56
f 57/57/57 73/73/73 56/56/56
f 74/74/74 73/73/73 57/57/57
f 58/58/58 74/74/74 57/57/57
f 75/75/75 74/74/74 58/58/58
f 59/59/59 75/75/75 58/58/58
f 81/81/81 75/75/75 59/59/59
f 82/82/82 81/81/81 59/59/59
f 49/49/49 48/48/48 39/39/39
f 46/46/46 48/48/48 49/49/49
f 47/47/47 46/46/46 49/49/49
f 44/44/44 46/46/46 47/47/47
f 45/45/45 44/44/44 47/47/47
f 42/42/42 44/44/44 45/45/45
f 43/43/43 42/42/42 45/45/45
f 40/40/40 42/42/42 43/43/43
f 41/41/41 40/40/40 43/43/43
f 1/1/1 40/40/40 41/41/41
f 2/2/2 1/1/1 41/41/41
f 11/11/11 1/1/1 2/2/2
f 26/26/26 11/11/11 2/2/2
f 22/22/22 11/11/11 26/26/26
f 23/23/23 22/22/22 26/26/26
f 21/21/21 22/22/22 23/23/23
f 24/24/24 21/21/21 23/23/23
f 33/33/33 21/21/21 24/24/24
f 5/5/5 33/33/33 24/24/24
f 7/7/7 33/33/33 5/5/5
f 6/6/6 7/7/7 5/5/5
f 21/21/21 8/8/8 20/20/20
f 18/18/18 21/21/21 20/20/20
f 19/19/19 21/21/21 18/18/18
f 16/16/16 19/19/19 18/18/18
f 17/17/17 19/19/19 16/16/16
f 14/14/14 17/17/17 16/16/16
f 15/15/15 17/17/17 14/14/14
f 12/12/12 15/15/15 14/14/14
f 13/13/13 15/15/15 12/12/12
f 10/10/10 13/13/13 12/12/12
f 11/11/11 13/13/13 10/10/10
f 1/1/1 11/11/11 10/10/10
f 28/28/28 4/4/4 64/64/64
f 66/66/66 28/28/28 64/64/64
f 29/29/29 28/28/28 66/66/66
f 67/67/67 29/29/29 66/66/66
f 30/30/30 29/29/29 67/67/67
f 68/68/68 30/30/30 67/67/67
f 31/31/31 30/30/30 68/68/68
f 62/62/62 31/31/31 68/68/68
f 32/32/32 31/31/31 62/62/62
f 9/9/9 32/32/32 62/62/62
f 8/8/8 33/33/33 7/7/7
f 21/21/21 33/33/33 8/8/8
f 5/5/5 34/34/34 6/6/6
f 3/3/3 34/34/34 5/5/5
f 25/25/25 3/3/3 5/5/5
f 2/2/2 3/3/3 25/25/25
f 26/26/26 2/2/2 25/25/25
f 36/36/36 38/38/38 37/37/37
f 60/60/60 38/38/38 36/36/36
f 51/51/51 60/60/60 36/36/36
f 49/49/49 60/60/60 51/51/51
f 50/50/50 49/49/49 51/51/51
f 47/47/47 49/49/49 50/50/50
f 53/53/53 47/47/47 50/50/50
f 41/41/41 47/47/47 53/53/53
f 52/52/52 41/41/41 53/53/53
f 54/54/54 53/53/53 50/50/50
f 52/52/52 53/53/53 54/54/54
f 51/51/51 52/52/52 54/54/54
f 36/36/36 52/52/52 51/51/51
f 80/80/80 2/2/2 41/41/41
f 3/3/3 2/2/2 80/80/80
f 36/36/36 3/3/3 80/80/80
f 34/34/34 3/3/3 36/36/36
f 37/37/37 34/34/34 36/36/36
f 60/60/60 39/39/39 38/38/38
f 49/49/49 39/39/39 60/60/60
f 22/22/22 13/13/13 11/11/11
f 15/15/15 13/13/13 22/22/22
f 17/17/17 15/15/15 22/22/22
f 21/21/21 17/17/17 22/22/22
f 19/19/19 17/17/17 21/21/21
f 27/27/27 23/23/23 26/26/26
f 24/24/24 23/23/23 27/27/27
f 25/25/25 24/24/24 27/27/27
f 5/5/5 24/24/24 25/25/25
f 26/26/26 25/25/25 27/27/27
f 47/47/47 43/43/43 45/45/45
f 41/41/41 43/43/43 47/47/47
f 54/54/54 50/50/50 51/51/51
