g peterChin_geo
v -0.06018898 1.470386 0.2170554
v -0.05205337 1.465487 0.2273051
v -0.05484965 1.475556 0.214092
v -0.02886455 1.467439 0.231175
v -0.0288538 1.479658 0.2146183
v 0.01280013 1.460595 0.2355317
v 0.01195415 1.478729 0.2151293
v 0.04555405 1.462861 0.2273509
v 0.05002073 1.469311 0.2131576
v 0.06152903 1.458587 0.2129928
v 0.07799692 1.44721 0.20924
v 0.06650174 1.46456 0.2107644
v -0.007977917 1.405349 0.2231259
v -0.003490616 1.400951 0.2260102
v -0.007754521 1.405517 0.2437169
v -0.00553801 1.426428 0.2655469
v 0.01336803 1.383578 0.2226437
v 0.0166841 1.387539 0.2455906
v 0.03577276 1.377244 0.2195749
v 0.03804784 1.381104 0.2428859
v 0.0582538 1.382987 0.2151798
v 0.05978549 1.385954 0.2389773
v 0.07326235 1.398863 0.2105116
v 0.07484083 1.400719 0.2333885
v 0.07816452 1.419762 0.2093482
v 0.07917721 1.423486 0.229918
v 0.0713385 1.443258 0.2115896
v 0.07244349 1.444952 0.2291241
v 0.05732935 1.454297 0.247088
v 0.06970099 1.442675 0.2471884
v 0.0417756 1.457195 0.249569
v 0.02102114 1.454311 0.2536509
v -0.006129112 1.443871 0.2649204
v 0.009082888 1.409962 0.2630586
v 0.02354273 1.397394 0.2631883
v 0.04004523 1.391926 0.26044
v 0.05867582 1.39719 0.2566094
v 0.07015514 1.40844 0.2540193
v 0.07474302 1.426509 0.2503997
v 0.04969668 1.442383 0.2646707
v 0.0562073 1.436513 0.2649058
v 0.04161131 1.444033 0.2658227
v 0.03141992 1.442209 0.2683091
v 0.02130656 1.436223 0.2725788
v 0.02024961 1.427329 0.2736655
v 0.02557665 1.419064 0.2731346
v 0.0331098 1.413084 0.2727191
v 0.0419068 1.410753 0.2714163
v 0.05080545 1.413309 0.2696863
v 0.05664327 1.419357 0.2680825
v 0.05838753 1.428272 0.2665525
v 0.04138693 1.428181 0.2729081
v -0.0784758 1.462133 0.2164079
v -0.07370855 1.459904 0.2297196
v -0.09382037 1.447277 0.2109211
v -0.09161425 1.444284 0.2326017
v -0.09927379 1.417877 0.2130067
v -0.09612724 1.4226 0.2343397
v -0.09189352 1.396045 0.2157933
v -0.09243975 1.4024 0.2371046
v -0.07520415 1.381083 0.2176988
v -0.07404798 1.382714 0.2393269
v -0.05180918 1.376683 0.2204993
v -0.05261621 1.378883 0.2477254
v -0.02854781 1.382933 0.2227522
v -0.02980773 1.385562 0.2516464
v -0.01275927 1.400018 0.2259874
v -0.03364893 1.457316 0.2461796
v -0.05252699 1.46212 0.2446155
v -0.0713694 1.457445 0.2479142
v -0.08512668 1.444041 0.2519131
v -0.09011218 1.425255 0.2539567
v -0.08499067 1.406461 0.2557075
v -0.07116179 1.393244 0.2594813
v -0.0523455 1.387663 0.2620452
v -0.03341597 1.393435 0.263777
v -0.01965886 1.407656 0.2619296
v -0.04278275 1.443865 0.2649447
v -0.03301439 1.436799 0.2712387
v -0.05247644 1.446163 0.2636953
v -0.06185431 1.443611 0.2648855
v -0.06875011 1.436677 0.2667139
v -0.07126363 1.427234 0.2680989
v -0.06870332 1.418003 0.2693628
v -0.06179564 1.411496 0.2709415
v -0.052503 1.409144 0.272034
v -0.04321787 1.411827 0.2726285
v -0.03611375 1.418557 0.2724177
v -0.03179447 1.427899 0.2730751
v -0.05213698 1.428123 0.2724293
v -0.008250331 1.404186 0.2240557
v -0.007127426 1.393928 0.224386
v 0.0103987 1.3766 0.222662
v 0.03552838 1.368973 0.2204153
v 0.0628093 1.375408 0.213331
v 0.08117684 1.393962 0.2107185
v 0.08616743 1.419444 0.2081417
v -0.07977186 1.463006 0.2131663
v -0.09784006 1.44731 0.2102622
v -0.1068981 1.417307 0.2103466
v -0.1001876 1.392372 0.2125827
v -0.08059699 1.374185 0.2149278
v -0.05430471 1.368618 0.2180174
v -0.0277548 1.374644 0.2223837
v 0.057191 1.457252 0.2288053
v 0.0579107 1.47063 0.2132503
v -0.007754521 1.405517 0.2437169
v 0.06152903 1.458587 0.2129928
v 0.0713385 1.443258 0.2115896
v 0.07816452 1.419762 0.2093482
v -0.003490616 1.400951 0.2260102
v -0.007977917 1.405349 0.2231259
v 0.01336803 1.383578 0.2226437
v 0.03577276 1.377244 0.2195749
v 0.0582538 1.382987 0.2151798
v 0.07326235 1.398863 0.2105116
v -0.09382037 1.447277 0.2109211
v -0.0784758 1.462133 0.2164079
v -0.09927379 1.417877 0.2130067
v -0.09784006 1.44731 0.2102622
v -0.09382037 1.447277 0.2109211
v -0.09189352 1.396045 0.2157933
v -0.07520415 1.381083 0.2176988
v -0.05180918 1.376683 0.2204993
v -0.02854781 1.382933 0.2227522
v -0.01275927 1.400018 0.2259874
v -0.0784758 1.462133 0.2164079
v -0.07977186 1.463006 0.2131663
v -0.06018898 1.470386 0.2170554
v -0.07977186 1.463006 0.2131663
v 0.05002073 1.469311 0.2131576
v 0.06650174 1.46456 0.2107644
v 0.06152903 1.458587 0.2129928
vt 0.2379612 0.9802191
vt 0.2365787 0.9808931
vt 0.2367619 0.9812418
vt 0.2369689 0.9806269
vt 0.2373103 0.9812824
vt 0.2377906 0.9805661
vt 0.2378436 0.9812213
vt 0.2382419 0.980742
vt 0.2381839 0.9809939
vt 0.02078676 0.9819918
vt 0.02078676 0.9819918
vt 0.02078676 0.9819918
vt 0.2373072 0.9792387
vt 0.2373168 0.9786375
vt 0.237332 0.9789891
vt 0.2373007 0.9794469
vt 0.2376096 0.9780613
vt 0.2376812 0.978167
vt 0.238033 0.9778114
vt 0.2380682 0.9779316
vt 0.2384855 0.977981
vt 0.2384651 0.978054
vt 0.2388283 0.978493
vt 0.238777 0.9785669
vt 0.2389812 0.9792247
vt 0.2389583 0.9792691
vt 0.2389264 0.9800168
vt 0.2388961 0.9799817
vt 0.2385368 0.9802408
vt 0.2387468 0.97983
vt 0.2382267 0.9804039
vt 0.2378999 0.9802756
vt 0.2373388 0.9799777
vt 0.2375909 0.9788216
vt 0.2378059 0.9784237
vt 0.2381051 0.9782466
vt 0.2384185 0.9783549
vt 0.2386765 0.9787408
vt 0.238798 0.9792809
vt 0.2383848 0.9798204
vt 0.2384981 0.9795979
vt 0.2382171 0.9799086
vt 0.23804 0.9798391
vt 0.2379011 0.9796305
vt 0.2378369 0.9793384
vt 0.2378651 0.9790413
vt 0.2379776 0.9788189
vt 0.2381437 0.9787302
vt 0.2383195 0.9787996
vt 0.2384598 0.9790084
vt 0.2385256 0.9793007
vt 0.2381876 0.9793208
vt 0.2374059 0.9800134
vt 0.236146 0.9807409
vt 0.2357616 0.9802419
vt 0.2358031 0.9802467
vt 0.2355834 0.9794765
vt 0.2356369 0.9795447
vt 0.2356471 0.9787357
vt 0.2356916 0.9788651
vt 0.2359299 0.9782074
vt 0.2359529 0.9782807
vt 0.2363606 0.9779828
vt 0.2363396 0.9780791
vt 0.2368272 0.9781448
vt 0.2367655 0.9782159
vt 0.2371941 0.9786464
vt 0.2368318 0.9803955
vt 0.2365265 0.9805697
vt 0.236194 0.9804538
vt 0.235927 0.9800773
vt 0.2357992 0.9795402
vt 0.235842 0.9789877
vt 0.2360407 0.9785725
vt 0.2363445 0.9783993
vt 0.2366717 0.9785136
vt 0.2369361 0.9788911
vt 0.236632 0.9799839
vt 0.2367395 0.9797574
vt 0.2364666 0.9800783
vt 0.2362874 0.9800152
vt 0.2361434 0.9798113
vt 0.2360739 0.9795208
vt 0.2360966 0.9792219
vt 0.236205 0.9789951
vt 0.2363699 0.9789008
vt 0.2365476 0.9789646
vt 0.2366906 0.9791688
vt 0.2367607 0.9794591
vt 0.2364117 0.9794922
vt 0.02078676 0.9819918
vt 0.02078676 0.9819918
vt 0.02078676 0.9819918
vt 0.02078676 0.9819918
vt 0.02078676 0.9819918
vt 0.02078676 0.9819918
vt 0.02078676 0.9819918
vt 0.0182001 0.9770769
vt 0.0182001 0.9770769
vt 0.02078676 0.9819918
vt 0.02078676 0.9819918
vt 0.02078676 0.9819918
vt 0.02078676 0.9819918
vt 0.02078676 0.9819918
vt 0.2385763 0.9805247
vt 0.02021927 0.9819552
vt 0.2371104 0.9787012
vt 0.2386032 0.980719
vt 0.02078676 0.9819918
vt 0.02078676 0.9819918
vt 0.02078676 0.9819918
vt 0.02078676 0.9819918
vt 0.02078676 0.9819918
vt 0.02078676 0.9819918
vt 0.02078676 0.9819918
vt 0.02078676 0.9819918
vt 0.0182001 0.9770769
vt 0.0182001 0.9770769
vt 0.02078676 0.9819918
vt 0.02078676 0.9819918
vt 0.02078676 0.9819918
vt 0.02078676 0.9819918
vt 0.02078676 0.9819918
vt 0.02078676 0.9819918
vt 0.02078676 0.9819918
vt 0.02078676 0.9819918
vt 0.01677555 0.9786829
vt 0.01677555 0.9786829
vt 0.01677555 0.9786829
vt 0.2375143 0.9799035
vt 0.02021927 0.9819552
vt 0.02021927 0.9819552
vt 0.02021927 0.9819552
vn -0.354212 0.7907277 0.499283
vn -0.2020864 0.8704696 0.448825
vn -0.2961326 0.7443826 0.5984981
vn 1.341539E-05 0.8363724 0.5481616
vn -0.05771711 0.782153 0.6204075
vn 0.01490992 0.8689057 0.494753
vn 0.09992108 0.7862473 0.6097795
vn 0.3017584 0.8796887 0.3675452
vn 0.3421309 0.5446191 0.7657261
vn 0.5523841 0.5327323 0.6411459
vn 0.2643769 0.05370406 0.962923
vn 0.2224512 0.06756561 0.9725998
vn -0.001398154 -0.5254282 0.8508368
vn -0.5405306 -0.4927424 0.6819322
vn 0.05963881 -0.9043985 0.4225004
vn 0.0104307 -0.3259138 0.9453419
vn -0.2479072 -0.5934144 0.7657684
vn -0.4180585 -0.8260718 0.3779318
vn 0.1163027 -0.6323524 0.7659009
vn 0.0308566 -0.9347534 0.3539546
vn 0.4582255 -0.5416619 0.7047212
vn 0.5207652 -0.8080089 0.2755452
vn 0.6753851 -0.2777766 0.6831508
vn 0.8828622 -0.4376896 0.1702412
vn 0.6639333 0.04083102 0.7466762
vn 0.9952465 0.05908933 0.077414
vn 0.7775765 0.3022299 0.5513908
vn 0.8295938 0.5534613 0.07385623
vn 0.4484315 0.7885967 0.4207428
vn 0.7413088 0.5232928 0.4202689
vn 0.1359366 0.8813028 0.4525777
vn -0.05713032 0.8574697 0.5113529
vn -0.0228736 0.6664877 0.745165
vn -0.4285586 -0.4942002 0.7563753
vn -0.268686 -0.6104105 0.7451221
vn 0.1062937 -0.6957303 0.7103949
vn 0.4819356 -0.5897642 0.6480094
vn 0.7679399 -0.300779 0.5655088
vn 0.8726833 0.1193303 0.4734808
vn 0.3254009 0.5376874 0.7778217
vn 0.4727449 0.3954601 0.7874793
vn 0.157675 0.6003581 0.7840337
vn 0.07164843 0.5908929 0.8035622
vn -0.03434893 0.3455883 0.9377574
vn -0.1307308 -0.05286876 0.9900073
vn -0.1376357 -0.2043891 0.9691654
vn -0.04283752 -0.2566956 0.9655425
vn 0.1615559 -0.3019653 0.93953
vn 0.34608 -0.246228 0.9053178
vn 0.485058 -0.08060877 0.8707589
vn 0.5368851 0.1715847 0.8260225
vn 0.1878643 0.1519527 0.9703696
vn -0.4894938 0.7278671 0.4802138
vn -0.4652454 0.8446704 0.264724
vn -0.6985726 0.3894674 0.6002596
vn -0.8400445 0.4960912 0.2195876
vn -0.7689001 0.01799397 0.6391156
vn -0.9745394 0.009709121 0.224006
vn -0.6874414 -0.3355464 0.6440753
vn -0.8553628 -0.4439194 0.267002
vn -0.4099202 -0.6426177 0.6473082
vn -0.5039007 -0.8126395 0.2927476
vn -0.06170381 -0.7430093 0.6664306
vn -0.0241284 -0.9481134 0.3170152
vn 0.2852903 -0.650429 0.7039543
vn 0.4803893 -0.8141789 0.3260963
vn 0.5789028 -0.4645122 0.6701492
vn 0.04075178 0.8291886 0.5574816
vn -0.04348432 0.8798495 0.473259
vn -0.3546831 0.8135077 0.4608743
vn -0.6875783 0.4954619 0.5308048
vn -0.8083756 0.06614148 0.5849395
vn -0.7137614 -0.2991201 0.6333022
vn -0.4577892 -0.5609925 0.6897219
vn -0.08842926 -0.6579946 0.7478123
vn 0.3325691 -0.5500774 0.766037
vn 0.5104426 -0.449558 0.7330388
vn -0.0155557 0.6369819 0.7707217
vn 0.009090275 0.4203188 0.907331
vn 0.005528323 0.6142669 0.789079
vn -0.1557963 0.5540805 0.8177544
vn -0.3430581 0.3648275 0.8655703
vn -0.4226333 0.1140363 0.8990977
vn -0.3867406 -0.06761676 0.9197063
vn -0.2664822 -0.1785594 0.9471557
vn -0.09304716 -0.224584 0.9700022
vn 0.09334148 -0.1769951 0.9797755
vn 0.1602293 -0.1618032 0.9737281
vn 0.1201017 -0.01939242 0.9925721
vn -0.1022552 0.1852998 0.9773474
vn -0.02237807 0.1079908 0.9938999
vn -0.00661886 -0.01463326 0.999871
vn 0.07112205 -0.04691323 0.9963638
vn 0.1727246 0.01491669 0.9848572
vn 0.1983619 0.02054685 0.9799135
vn 0.1273716 0.05224795 0.990478
vn 0.1162185 0.03369223 0.9926521
vn -0.4479588 0.6620629 0.6008375
vn -0.4036026 0.2297264 0.8856244
vn -0.3117754 0.04977413 0.9488513
vn -0.3112616 -0.09164652 0.9458948
vn -0.2192758 -0.2146454 0.9517592
vn -0.1271351 -0.2058247 0.9702953
vn -0.04779548 -0.1499777 0.9875335
vn 0.4967682 0.8440728 0.2018972
vn 0.1504525 0.02407518 0.988324
vn 0.05963881 -0.9043985 0.4225004
vn 0.5523841 0.5327323 0.6411459
vn 0.7775765 0.3022299 0.5513908
vn 0.6639333 0.04083102 0.7466762
vn -0.5405306 -0.4927424 0.6819322
vn -0.001398154 -0.5254282 0.8508368
vn -0.2479072 -0.5934144 0.7657684
vn 0.1163027 -0.6323524 0.7659009
vn 0.4582255 -0.5416619 0.7047212
vn 0.6753851 -0.2777766 0.6831508
vn -0.6985726 0.3894674 0.6002596
vn -0.4894938 0.7278671 0.4802138
vn -0.7689001 0.01799397 0.6391156
vn -0.4036026 0.2297264 0.8856244
vn -0.6985726 0.3894674 0.6002596
vn -0.6874414 -0.3355464 0.6440753
vn -0.4099202 -0.6426177 0.6473082
vn -0.06170381 -0.7430093 0.6664306
vn 0.2852903 -0.650429 0.7039543
vn 0.5789028 -0.4645122 0.6701492
vn -0.4894938 0.7278671 0.4802138
vn -0.4479588 0.6620629 0.6008375
vn -0.354212 0.7907277 0.499283
vn -0.4479588 0.6620629 0.6008375
vn 0.3421309 0.5446191 0.7657261
vn 0.2224512 0.06756561 0.9725998
vn 0.5523841 0.5327323 0.6411459
g peterChin_geo_0
f 2/2/2 5/5/5 3/3/3
f 1/1/1 2/2/2 3/3/3
f 54/54/54 2/2/2 1/1/1
f 53/53/53 54/54/54 1/1/1
f 56/56/56 54/54/54 53/53/53
f 55/55/55 56/56/56 53/53/53
f 58/58/58 56/56/56 55/55/55
f 57/57/57 58/58/58 55/55/55
f 60/60/60 58/58/58 57/57/57
f 59/59/59 60/60/60 57/57/57
f 62/62/62 60/60/60 59/59/59
f 61/61/61 62/62/62 59/59/59
f 64/64/64 62/62/62 61/61/61
f 63/63/63 64/64/64 61/61/61
f 66/66/66 64/64/64 63/63/63
f 65/65/65 66/66/66 63/63/63
f 107/107/107 66/66/66 65/65/65
f 67/67/67 107/107/107 65/65/65
f 28/28/28 27/27/27 108/108/108
f 25/25/25 27/27/27 28/28/28
f 26/26/26 25/25/25 28/28/28
f 23/23/23 25/25/25 26/26/26
f 24/24/24 23/23/23 26/26/26
f 21/21/21 23/23/23 24/24/24
f 22/22/22 21/21/21 24/24/24
f 19/19/19 21/21/21 22/22/22
f 20/20/20 19/19/19 22/22/22
f 17/17/17 19/19/19 20/20/20
f 18/18/18 17/17/17 20/20/20
f 14/14/14 17/17/17 18/18/18
f 15/15/15 14/14/14 18/18/18
f 13/13/13 14/14/14 15/15/15
f 67/67/67 13/13/13 15/15/15
f 4/4/4 5/5/5 2/2/2
f 7/7/7 5/5/5 4/4/4
f 6/6/6 7/7/7 4/4/4
f 9/9/9 7/7/7 6/6/6
f 8/8/8 9/9/9 6/6/6
f 108/108/108 9/9/9 8/8/8
f 105/105/105 108/108/108 8/8/8
f 28/28/28 108/108/108 105/105/105
f 29/29/29 28/28/28 105/105/105
f 30/30/30 28/28/28 29/29/29
f 40/40/40 30/30/30 29/29/29
f 41/41/41 30/30/30 40/40/40
f 52/52/52 41/41/41 40/40/40
f 51/51/51 41/41/41 52/52/52
f 50/50/50 51/51/51 52/52/52
f 38/38/38 51/51/51 50/50/50
f 37/37/37 38/38/38 50/50/50
f 22/22/22 38/38/38 37/37/37
f 20/20/20 22/22/22 37/37/37
f 36/36/36 20/20/20 37/37/37
f 18/18/18 20/20/20 36/36/36
f 35/35/35 18/18/18 36/36/36
f 15/15/15 18/18/18 35/35/35
f 34/34/34 15/15/15 35/35/35
f 16/16/16 15/15/15 34/34/34
f 46/46/46 16/16/16 34/34/34
f 45/45/45 16/16/16 46/46/46
f 52/52/52 45/45/45 46/46/46
f 44/44/44 45/45/45 52/52/52
f 43/43/43 44/44/44 52/52/52
f 32/32/32 44/44/44 43/43/43
f 31/31/31 32/32/32 43/43/43
f 8/8/8 32/32/32 31/31/31
f 105/105/105 8/8/8 31/31/31
f 77/77/77 107/107/107 16/16/16
f 66/66/66 107/107/107 77/77/77
f 76/76/76 66/66/66 77/77/77
f 64/64/64 66/66/66 76/76/76
f 75/75/75 64/64/64 76/76/76
f 62/62/62 64/64/64 75/75/75
f 74/74/74 62/62/62 75/75/75
f 60/60/60 62/62/62 74/74/74
f 73/73/73 60/60/60 74/74/74
f 58/58/58 60/60/60 73/73/73
f 72/72/72 58/58/58 73/73/73
f 56/56/56 58/58/58 72/72/72
f 71/71/71 56/56/56 72/72/72
f 54/54/54 56/56/56 71/71/71
f 70/70/70 54/54/54 71/71/71
f 2/2/2 54/54/54 70/70/70
f 69/69/69 2/2/2 70/70/70
f 4/4/4 2/2/2 69/69/69
f 68/68/68 4/4/4 69/69/69
f 33/33/33 4/4/4 68/68/68
f 78/78/78 33/33/33 68/68/68
f 79/79/79 33/33/33 78/78/78
f 90/90/90 79/79/79 78/78/78
f 89/89/89 79/79/79 90/90/90
f 88/88/88 89/89/89 90/90/90
f 77/77/77 89/89/89 88/88/88
f 76/76/76 77/77/77 88/88/88
f 42/42/42 43/43/43 52/52/52
f 31/31/31 43/43/43 42/42/42
f 29/29/29 31/31/31 42/42/42
f 105/105/105 31/31/31 29/29/29
f 33/33/33 45/45/45 44/44/44
f 32/32/32 33/33/33 44/44/44
f 6/6/6 33/33/33 32/32/32
f 8/8/8 6/6/6 32/32/32
f 24/24/24 38/38/38 22/22/22
f 39/39/39 38/38/38 24/24/24
f 26/26/26 39/39/39 24/24/24
f 30/30/30 39/39/39 26/26/26
f 28/28/28 30/30/30 26/26/26
f 40/40/40 42/42/42 52/52/52
f 29/29/29 42/42/42 40/40/40
f 16/16/16 79/79/79 89/89/89
f 33/33/33 79/79/79 16/16/16
f 45/45/45 33/33/33 16/16/16
f 49/49/49 37/37/37 50/50/50
f 36/36/36 37/37/37 49/49/49
f 48/48/48 36/36/36 49/49/49
f 35/35/35 36/36/36 48/48/48
f 47/47/47 35/35/35 48/48/48
f 34/34/34 35/35/35 47/47/47
f 46/46/46 34/34/34 47/47/47
f 39/39/39 51/51/51 38/38/38
f 41/41/41 51/51/51 39/39/39
f 30/30/30 41/41/41 39/39/39
f 52/52/52 48/48/48 49/49/49
f 47/47/47 48/48/48 52/52/52
f 46/46/46 47/47/47 52/52/52
f 52/52/52 49/49/49 50/50/50
f 87/87/87 76/76/76 88/88/88
f 75/75/75 76/76/76 87/87/87
f 86/86/86 75/75/75 87/87/87
f 74/74/74 75/75/75 86/86/86
f 85/85/85 74/74/74 86/86/86
f 73/73/73 74/74/74 85/85/85
f 84/84/84 73/73/73 85/85/85
f 72/72/72 73/73/73 84/84/84
f 83/83/83 72/72/72 84/84/84
f 71/71/71 72/72/72 83/83/83
f 82/82/82 71/71/71 83/83/83
f 70/70/70 71/71/71 82/82/82
f 81/81/81 70/70/70 82/82/82
f 69/69/69 70/70/70 81/81/81
f 80/80/80 69/69/69 81/81/81
f 68/68/68 69/69/69 80/80/80
f 78/78/78 68/68/68 80/80/80
f 89/89/89 77/77/77 16/16/16
f 90/90/90 81/81/81 82/82/82
f 80/80/80 81/81/81 90/90/90
f 78/78/78 80/80/80 90/90/90
f 90/90/90 84/84/84 85/85/85
f 83/83/83 84/84/84 90/90/90
f 82/82/82 83/83/83 90/90/90
f 90/90/90 87/87/87 88/88/88
f 86/86/86 87/87/87 90/90/90
f 85/85/85 86/86/86 90/90/90
f 33/33/33 6/6/6 4/4/4
g peterChin_geo_1
f 128/128/128 127/127/127 129/129/129
f 130/130/130 1/1/1 3/3/3
f 11/11/11 109/109/109 110/110/110
f 10/10/10 109/109/109 11/11/11
f 12/12/12 10/10/10 11/11/11
f 98/98/98 117/117/117 118/118/118
f 99/99/99 117/117/117 98/98/98
f 110/110/110 97/97/97 11/11/11
f 96/96/96 97/97/97 110/110/110
f 116/116/116 96/96/96 110/110/110
f 95/95/95 96/96/96 116/116/116
f 115/115/115 95/95/95 116/116/116
f 94/94/94 95/95/95 115/115/115
f 114/114/114 94/94/94 115/115/115
f 93/93/93 94/94/94 114/114/114
f 113/113/113 93/93/93 114/114/114
f 92/92/92 93/93/93 113/113/113
f 111/111/111 92/92/92 113/113/113
f 91/91/91 92/92/92 111/111/111
f 112/112/112 91/91/91 111/111/111
f 92/92/92 91/91/91 112/112/112
f 126/126/126 92/92/92 112/112/112
f 104/104/104 92/92/92 126/126/126
f 125/125/125 104/104/104 126/126/126
f 103/103/103 104/104/104 125/125/125
f 124/124/124 103/103/103 125/125/125
f 102/102/102 103/103/103 124/124/124
f 123/123/123 102/102/102 124/124/124
f 101/101/101 102/102/102 123/123/123
f 122/122/122 101/101/101 123/123/123
f 100/100/100 101/101/101 122/122/122
f 119/119/119 100/100/100 122/122/122
f 120/120/120 100/100/100 119/119/119
f 121/121/121 120/120/120 119/119/119
f 132/132/132 131/131/131 133/133/133
f 106/106/106 131/131/131 132/132/132
