g plunger_geo
v 0.2621057 0.8006865 -0.142769
v 0.1310585 0.7748573 -0.2665567
v -0.04928187 0.7710828 -0.2915957
v -0.2100316 0.7908043 -0.2083222
v -0.2897896 0.8264888 -0.0485439
v -0.2580914 0.8645062 0.1267096
v -0.1270441 0.8903352 0.2504968
v 0.0532963 0.8941101 0.2755361
v 0.214046 0.8743886 0.1922626
v 0.2938039 0.838704 0.03248429
v 0.2628103 0.8754629 -0.1591176
v 0.1317631 0.8496338 -0.2829051
v -0.04857708 0.8458588 -0.3079443
v -0.2093268 0.8655802 -0.2246708
v -0.2890851 0.9012651 -0.06489249
v -0.2573864 0.9392825 0.1103608
v -0.1263393 0.9651115 0.2341482
v 0.05400104 0.9688863 0.2591874
v 0.2147507 0.9491651 0.175914
v 0.2945086 0.9134806 0.0161358
v 0.09001544 1.128551 -0.1191137
v 0.04712852 1.120099 -0.1596247
v -0.01188993 1.118863 -0.167819
v -0.06449726 1.125317 -0.1405668
v -0.09059911 1.136995 -0.08827733
v -0.08022536 1.149437 -0.03092355
v -0.03733854 1.15789 0.009587469
v 0.02167996 1.159125 0.01778177
v 0.07428719 1.152671 -0.009470396
v 0.1003892 1.140993 -0.06175987
v 0.1870269 1.067165 -0.03309075
v 0.1671641 1.043343 -0.1429076
v 0.0850477 1.027158 -0.2204751
v -0.02795683 1.024793 -0.236165
v -0.1286856 1.037151 -0.1839843
v -0.1786633 1.059511 -0.08386446
v -0.1588003 1.083334 0.02595241
v -0.0766838 1.099518 0.1035198
v 0.0363206 1.101884 0.1192097
v 0.137049 1.089526 0.06702909
v 0.1810722 1.0236 0.1256199
v 0.04643519 1.040118 0.1953661
v -0.1046104 1.036957 0.1743946
v -0.2143701 1.015323 0.07071515
v -0.2409194 0.9834815 -0.07606962
v -0.1741174 0.9535937 -0.2098932
v -0.03948027 0.9370757 -0.2796396
v 0.1115654 0.9402374 -0.258668
v 0.2213251 0.9618706 -0.1549887
v 0.2478743 0.9937124 -0.008203783
v 0.03814001 1.129416 -0.1165239
v -0.01536847 1.128297 -0.1239532
v -0.04861524 1.137693 -0.08240829
v -0.02835333 1.148209 -0.03343403
v 0.02515523 1.14933 -0.02600473
v 0.05840191 1.139933 -0.06754964
v 0.04602979 1.966558 -0.2995509
v -0.007478809 1.965438 -0.3069803
v -0.04072534 1.974834 -0.2654353
v -0.02046356 1.985351 -0.2164611
v 0.03304508 1.986471 -0.2090319
v 0.06629158 1.977075 -0.2505767
v 0.01317219 2.017248 -0.2670342
v -0.0297822 1.998612 -0.269096
v -0.01358004 2.007021 -0.2299347
v 0.02920694 2.007916 -0.2239941
v 0.05579206 2.000403 -0.2572147
v 0.03958998 1.991994 -0.2963759
v -0.00319706 1.991098 -0.3023167
v 0.09453148 1.087436 -0.1127931
v 0.08971426 1.096596 -0.1121273
v 0.04917692 1.078497 -0.1556351
v 0.04682744 1.088144 -0.1526383
v -0.01323771 1.07719 -0.1643009
v -0.01219121 1.086909 -0.1608326
v -0.06887206 1.084016 -0.1354806
v -0.06479849 1.093363 -0.1335804
v -0.09647602 1.096366 -0.08018233
v -0.09090042 1.105041 -0.08129095
v -0.08550537 1.109524 -0.01952803
v -0.08052667 1.117483 -0.02393714
v -0.04015061 1.118463 0.02331367
v -0.0376397 1.125935 0.01657381
v 0.02226404 1.119769 0.03197958
v 0.02137887 1.127171 0.0247682
v 0.07789832 1.112944 0.00315918
v 0.07398611 1.120717 -0.002484097
v 0.1055021 1.100593 -0.05213907
v 0.1000879 1.109038 -0.05477352
v 0.2347137 0.8859596 -0.1460679
v 0.2424865 0.8779564 -0.1485892
v 0.1178561 0.8629272 -0.2564519
v 0.1216792 0.8541455 -0.2627041
v -0.04295729 0.8595611 -0.2787799
v -0.04456957 0.8506656 -0.2857867
v -0.1863016 0.8771473 -0.2045231
v -0.1927584 0.8688459 -0.2090201
v -0.2574235 0.9089682 -0.06204521
v -0.2662843 0.9017425 -0.06172672
v -0.2291572 0.9428691 0.09423205
v -0.2370628 0.9367892 0.09983248
v -0.1122995 0.9659016 0.2046162
v -0.1162554 0.9605998 0.2139473
v 0.04851389 0.9692673 0.2269439
v 0.04999332 0.9640798 0.2370298
v 0.1918579 0.9516813 0.1526872
v 0.1981822 0.9458992 0.1602632
v 0.26298 0.9198605 0.01020941
v 0.271708 0.9130031 0.01297001
v 0.2621057 0.8006865 -0.142769
v 0.214046 0.8743886 0.1922626
v 0.2938039 0.838704 0.03248429
v -0.03733854 1.15789 0.009587469
v -0.06449726 1.125317 -0.1405668
v -0.01188993 1.118863 -0.167819
v -0.08022536 1.149437 -0.03092355
v 0.02167996 1.159125 0.01778177
v 0.04712852 1.120099 -0.1596247
v 0.07428719 1.152671 -0.009470396
v 0.09001544 1.128551 -0.1191137
v -0.09059911 1.136995 -0.08827733
v 0.1003892 1.140993 -0.06175987
v 0.1310585 0.7748573 -0.2665567
v -0.1270441 0.8903352 0.2504968
v 0.0532963 0.8941101 0.2755361
v -0.04928187 0.7710828 -0.2915957
v -0.2580914 0.8645062 0.1267096
v -0.2100316 0.7908043 -0.2083222
v -0.2897896 0.8264888 -0.0485439
v 0.08971426 1.096596 -0.1121273
v 0.04917692 1.078497 -0.1556351
v 0.09453148 1.087436 -0.1127931
v 0.04682744 1.088144 -0.1526383
v 0.1000879 1.109038 -0.05477352
v 0.1055021 1.100593 -0.05213907
v -0.01323771 1.07719 -0.1643009
v -0.01219121 1.086909 -0.1608326
v -0.06887206 1.084016 -0.1354806
v -0.06479849 1.093363 -0.1335804
v -0.09647602 1.096366 -0.08018233
v -0.09090042 1.105041 -0.08129095
v -0.08550537 1.109524 -0.01952803
v -0.08052667 1.117483 -0.02393714
v -0.04015061 1.118463 0.02331367
v -0.0376397 1.125935 0.01657381
v 0.02226404 1.119769 0.03197958
v 0.02137887 1.127171 0.0247682
v 0.07789832 1.112944 0.00315918
v 0.07398611 1.120717 -0.002484097
v 0.2424865 0.8779564 -0.1485892
v 0.26298 0.9198605 0.01020941
v 0.2347137 0.8859596 -0.1460679
v 0.271708 0.9130031 0.01297001
v 0.1216792 0.8541455 -0.2627041
v 0.1178561 0.8629272 -0.2564519
v -0.04456957 0.8506656 -0.2857867
v -0.04295729 0.8595611 -0.2787799
v -0.1927584 0.8688459 -0.2090201
v -0.1863016 0.8771473 -0.2045231
v -0.2662843 0.9017425 -0.06172672
v -0.2574235 0.9089682 -0.06204521
v -0.2370628 0.9367892 0.09983248
v -0.2291572 0.9428691 0.09423205
v -0.1162554 0.9605998 0.2139473
v -0.1122995 0.9659016 0.2046162
v 0.04999332 0.9640798 0.2370298
v 0.04851389 0.9692673 0.2269439
v 0.1981822 0.9458992 0.1602632
v 0.1918579 0.9516813 0.1526872
vt 0.9711198 0.7610919
vt 0.9711196 0.7610919
vt 0.9711198 0.7610919
vt 0.9711198 0.7610919
vt 0.9711198 0.7610919
vt 0.9711198 0.7610919
vt 0.9711196 0.7610919
vt 0.9711196 0.7610919
vt 0.9711198 0.7610919
vt 0.9711198 0.7610919
vt 0.9711198 0.7610919
vt 0.9711196 0.7610919
vt 0.9711198 0.7610919
vt 0.9711198 0.7610919
vt 0.9711198 0.7610919
vt 0.9711198 0.7610919
vt 0.9711196 0.7610919
vt 0.9711196 0.7610919
vt 0.9711198 0.7610919
vt 0.9711198 0.7610919
vt 0.9711198 0.7610919
vt 0.9711198 0.7610919
vt 0.9711196 0.7610919
vt 0.9711198 0.7610919
vt 0.9711198 0.7610919
vt 0.9711198 0.7610919
vt 0.9711198 0.7610919
vt 0.9711198 0.7610919
vt 0.9711196 0.7610919
vt 0.9711196 0.7610919
vt 0.9711198 0.7610919
vt 0.9711198 0.7610919
vt 0.9711198 0.7610919
vt 0.9711198 0.7610919
vt 0.9711198 0.7610919
vt 0.9711198 0.7610919
vt 0.9711196 0.7610919
vt 0.9711198 0.7610919
vt 0.9711198 0.7610919
vt 0.9711198 0.7610919
vt 0.9711198 0.7610919
vt 0.9711196 0.7610919
vt 0.9711196 0.7610919
vt 0.9711198 0.7610919
vt 0.9711198 0.7610919
vt 0.9711196 0.7610919
vt 0.9711196 0.7610919
vt 0.9711196 0.7610919
vt 0.9711198 0.7610919
vt 0.9711198 0.7610919
vt 0.952684 0.7616869
vt 0.952684 0.7616869
vt 0.9526842 0.7616869
vt 0.9526842 0.7616869
vt 0.9526842 0.7616869
vt 0.9526842 0.7616869
vt 0.952684 0.7616869
vt 0.952684 0.7616869
vt 0.9526842 0.7616869
vt 0.9526842 0.7616869
vt 0.9526842 0.7616869
vt 0.9526842 0.7616869
vt 0.9526842 0.7616869
vt 0.9526842 0.7616869
vt 0.9526842 0.7616869
vt 0.9526842 0.7616869
vt 0.9526842 0.7616869
vt 0.9526842 0.7616869
vt 0.9526842 0.7616869
vt 0.9711198 0.7610919
vt 0.9711198 0.7610919
vt 0.9711198 0.7610919
vt 0.9711198 0.7610919
vt 0.9711196 0.7610919
vt 0.9711196 0.7610919
vt 0.9711198 0.7610919
vt 0.9711198 0.7610919
vt 0.9711198 0.7610919
vt 0.9711198 0.7610919
vt 0.9711198 0.7610919
vt 0.9711198 0.7610919
vt 0.9711198 0.7610919
vt 0.9711198 0.7610919
vt 0.9711198 0.7610919
vt 0.9711198 0.7610919
vt 0.9711196 0.7610919
vt 0.9711196 0.7610919
vt 0.9711196 0.7610919
vt 0.9711196 0.7610919
vt 0.9711198 0.7610919
vt 0.9711198 0.7610919
vt 0.9711196 0.7610919
vt 0.9711196 0.7610919
vt 0.9711196 0.7610919
vt 0.9711196 0.7610919
vt 0.9711198 0.7610919
vt 0.9711198 0.7610919
vt 0.9711198 0.7610919
vt 0.9711198 0.7610919
vt 0.9711198 0.7610919
vt 0.9711198 0.7610919
vt 0.9711198 0.7610919
vt 0.9711198 0.7610919
vt 0.9711196 0.7610919
vt 0.9711196 0.7610919
vt 0.9711198 0.7610919
vt 0.9711198 0.7610919
vt 0.9711198 0.7610919
vt 0.9711198 0.7610919
vt 0.7808708 0.9528629
vt 0.7808708 0.8146945
vt 0.7584242 0.8837787
vt 0.9699446 0.7610919
vt 0.9699446 0.7610919
vt 0.9699446 0.7610919
vt 0.9699446 0.7610919
vt 0.9699446 0.7610919
vt 0.9699446 0.7610919
vt 0.9699446 0.7610919
vt 0.9699446 0.7610919
vt 0.9699446 0.7610919
vt 0.9699446 0.7610919
vt 0.8396367 0.9955595
vt 0.9122766 0.7720002
vt 0.8396375 0.7719992
vt 0.9122757 0.9955605
vt 0.9710426 0.8146967
vt 0.9710422 0.9528645
vt 0.9934891 0.8837807
vt 0.9894673 0.7606742
vt 0.9894673 0.7606742
vt 0.9894673 0.7606742
vt 0.9894673 0.7606742
vt 0.9894673 0.7606742
vt 0.9894673 0.7606742
vt 0.9894673 0.7606742
vt 0.9894673 0.7606742
vt 0.9894673 0.7606742
vt 0.9894673 0.7606742
vt 0.9894673 0.7606742
vt 0.9894673 0.7606742
vt 0.9894673 0.7606742
vt 0.9894673 0.7606742
vt 0.9894673 0.7606742
vt 0.9894673 0.7606742
vt 0.9894673 0.7606742
vt 0.9894673 0.7606742
vt 0.9894673 0.7606742
vt 0.9894673 0.7606742
vt 0.9894673 0.7606742
vt 0.9894673 0.7606742
vt 0.9894673 0.7606742
vt 0.9894673 0.7606742
vt 0.9894673 0.7606742
vt 0.9894673 0.7606742
vt 0.9894673 0.7606742
vt 0.9894673 0.7606742
vt 0.9894673 0.7606742
vt 0.9894673 0.7606742
vt 0.9894673 0.7606742
vt 0.9894673 0.7606742
vt 0.9894673 0.7606743
vt 0.9894673 0.7606742
vt 0.9894673 0.7606742
vt 0.9894673 0.7606742
vt 0.9894672 0.7606742
vt 0.9894672 0.7606742
vt 0.9894672 0.7606742
vt 0.9894672 0.7606742
vn 0.6016499 -0.782496 -0.1603661
vn 0.2951552 -0.8429056 -0.4498819
vn -0.1266269 -0.8517343 -0.508443
vn -0.5025893 -0.8056099 -0.3136824
vn -0.880817 -0.4729307 -0.02231361
vn -0.6149922 -0.6332341 0.4698927
vn -0.3084983 -0.5728248 0.7594081
vn 0.1132837 -0.5639967 0.8179697
vn 0.4892473 -0.6101215 0.6232086
vn 0.8722489 -0.4362361 0.2210881
vn 0.6149907 0.6332353 -0.469893
vn 0.3084972 0.5728238 -0.7594092
vn -0.1132849 0.5639935 -0.8179718
vn -0.4892481 0.6101183 -0.6232111
vn -0.6757869 0.6935797 -0.2495181
vn -0.6016492 0.7824967 0.160366
vn -0.2951548 0.842906 0.4498811
vn 0.1266259 0.8517347 0.5084427
vn 0.5025879 0.8056114 0.3136807
vn 0.6891261 0.7221522 -0.06000998
vn 0.6149935 0.6332333 -0.4698921
vn 0.3084972 0.5728253 -0.7594081
vn -0.1132849 0.5639971 -0.8179693
vn -0.4892459 0.6101227 -0.6232085
vn -0.8722466 0.4362406 -0.2210883
vn -0.601647 0.7824982 0.160367
vn -0.2951549 0.8429056 0.4498817
vn 0.126627 0.8517343 0.5084429
vn 0.5025918 0.8056083 0.3136822
vn 0.8808185 0.4729279 0.02231466
vn 0.6041063 0.7920758 -0.08758705
vn 0.5392796 0.7143257 -0.4460002
vn 0.2712725 0.6615025 -0.6991608
vn -0.09754494 0.6537823 -0.750369
vn -0.4262967 0.6941149 -0.5800651
vn -0.5894123 0.7670937 -0.253299
vn -0.5245848 0.844844 0.1051156
vn -0.256577 0.8976675 0.3582756
vn 0.1122403 0.9053871 0.4094829
vn 0.4409921 0.8650547 0.2391786
vn 0.6529442 0.5500016 0.5207322
vn 0.1609544 0.6103607 0.7755988
vn -0.3909959 0.5988086 0.6989639
vn -0.7920796 0.5197559 0.3200994
vn -0.889096 0.4033997 -0.2162803
vn -0.6449882 0.2941834 -0.7052987
vn -0.1529976 0.2338239 -0.9601657
vn 0.3989526 0.2453766 -0.8835311
vn 0.8000362 0.3244288 -0.5046664
vn 0.8970521 0.4407854 0.03171431
vn 0.6152989 -0.1739003 -0.7688732
vn -0.3749874 -0.1946284 -0.9063688
vn -0.9902856 -0.02072788 -0.137495
vn -0.6152979 0.1739005 0.7688739
vn 0.3749885 0.1946282 0.9063683
vn 0.9902856 0.02072793 0.137495
vn 0.6032999 0.03686199 -0.7966621
vn -0.3645384 0.01660069 -0.9310404
vn -0.9658896 0.1865558 -0.1795949
vn -0.5994016 0.3767738 0.7062289
vn 0.368437 0.3970358 0.840605
vn 0.9697862 0.22708 0.08916008
vn 0.009208528 0.9768822 -0.2135795
vn -0.6712202 0.6978951 -0.2498113
vn -0.4145091 0.8311369 0.3706666
vn 0.2634214 0.8453258 0.4647938
vn 0.6846381 0.7262787 -0.06156088
vn 0.4279313 0.5930392 -0.6820406
vn -0.2499977 0.5788513 -0.7761651
vn 0.5784326 0.6744768 -0.4587994
vn 0.8498687 0.1700126 -0.4988174
vn 0.2905331 0.617732 -0.7307515
vn 0.4229747 0.08587206 -0.9020634
vn -0.1056601 0.6094378 -0.7857617
vn -0.164495 0.07357423 -0.9836301
vn -0.4588116 0.6527649 -0.6028184
vn -0.6881444 0.1378198 -0.7123642
vn -0.6340314 0.7311645 -0.2517991
vn -0.9479613 0.2540711 -0.1918784
vn -0.5643894 0.8146884 0.1332191
vn -0.8447002 0.3779197 0.3790229
vn -0.2764923 0.8714305 0.4051677
vn -0.4178065 0.4620565 0.7822669
vn 0.1196947 0.8797213 0.4601778
vn 0.1696591 0.4743487 0.863834
vn 0.472849 0.8363937 0.2772354
vn 0.693311 0.4101022 0.5925674
vn 0.6480703 0.7579979 -0.07378383
vn 0.9531279 0.2938567 0.07208047
vn 0.7559944 0.4209182 -0.5012987
vn 0.3007817 0.8860131 -0.3528614
vn 0.3775329 0.3463238 -0.8587949
vn 0.1536148 0.8570051 -0.4918788
vn -0.1432871 0.335422 -0.9311074
vn -0.04891214 0.8527646 -0.52
vn -0.6075308 0.392374 -0.690615
vn -0.2294406 0.8749111 -0.4264828
vn -0.8378698 0.4954304 -0.2291786
vn -0.3190104 0.9149867 -0.2470462
vn -0.7463246 0.6052247 0.2769523
vn -0.2834105 0.9576825 -0.05022892
vn -0.3678628 0.6798169 0.6344494
vn -0.136241 0.9866888 0.08878939
vn 0.1529576 0.6907213 0.7067589
vn 0.06628606 0.9909287 0.1169037
vn 0.6171995 0.6337679 0.4662651
vn 0.2468092 0.968782 0.02338207
vn 0.8475387 0.5307117 0.004829493
vn 0.3363777 0.928708 -0.1560499
vn 0.6016499 -0.782496 -0.1603661
vn 0.4892473 -0.6101215 0.6232086
vn 0.8722489 -0.4362361 0.2210881
vn -0.2951549 0.8429056 0.4498817
vn -0.4892459 0.6101227 -0.6232085
vn -0.1132849 0.5639971 -0.8179693
vn -0.601647 0.7824982 0.160367
vn 0.126627 0.8517343 0.5084429
vn 0.3084972 0.5728253 -0.7594081
vn 0.5025918 0.8056083 0.3136822
vn 0.6149935 0.6332333 -0.4698921
vn -0.8722466 0.4362406 -0.2210883
vn 0.8808185 0.4729279 0.02231466
vn 0.2951552 -0.8429056 -0.4498819
vn -0.3084983 -0.5728248 0.7594081
vn 0.1132837 -0.5639967 0.8179697
vn -0.1266269 -0.8517343 -0.508443
vn -0.6149922 -0.6332341 0.4698927
vn -0.5025893 -0.8056099 -0.3136824
vn -0.880817 -0.4729307 -0.02231361
vn 0.8498687 0.1700126 -0.4988174
vn 0.2905331 0.617732 -0.7307515
vn 0.5784326 0.6744768 -0.4587994
vn 0.4229747 0.08587206 -0.9020634
vn 0.9531279 0.2938567 0.07208047
vn 0.6480703 0.7579979 -0.07378383
vn -0.1056601 0.6094378 -0.7857617
vn -0.164495 0.07357423 -0.9836301
vn -0.4588116 0.6527649 -0.6028184
vn -0.6881444 0.1378198 -0.7123642
vn -0.6340314 0.7311645 -0.2517991
vn -0.9479613 0.2540711 -0.1918784
vn -0.5643894 0.8146884 0.1332191
vn -0.8447002 0.3779197 0.3790229
vn -0.2764923 0.8714305 0.4051677
vn -0.4178065 0.4620565 0.7822669
vn 0.1196947 0.8797213 0.4601778
vn 0.1696591 0.4743487 0.863834
vn 0.472849 0.8363937 0.2772354
vn 0.693311 0.4101022 0.5925674
vn 0.3007817 0.8860131 -0.3528614
vn 0.8475387 0.5307117 0.004829493
vn 0.7559944 0.4209182 -0.5012987
vn 0.3363777 0.928708 -0.1560499
vn 0.1536148 0.8570051 -0.4918788
vn 0.3775329 0.3463238 -0.8587949
vn -0.04891214 0.8527646 -0.52
vn -0.1432871 0.335422 -0.9311074
vn -0.2294406 0.8749111 -0.4264828
vn -0.6075308 0.392374 -0.690615
vn -0.3190104 0.9149867 -0.2470462
vn -0.8378698 0.4954304 -0.2291786
vn -0.2834105 0.9576825 -0.05022892
vn -0.7463246 0.6052247 0.2769523
vn -0.136241 0.9866888 0.08878939
vn -0.3678628 0.6798169 0.6344494
vn 0.06628606 0.9909287 0.1169037
vn 0.1529576 0.6907213 0.7067589
vn 0.2468092 0.968782 0.02338207
vn 0.6171995 0.6337679 0.4662651
g plunger_geo_0
f 127/127/127 129/129/129 128/128/128
f 126/126/126 127/127/127 128/128/128
f 124/124/124 127/127/127 126/126/126
f 123/123/123 124/124/124 126/126/126
f 125/125/125 124/124/124 123/123/123
f 110/110/110 125/125/125 123/123/123
f 111/111/111 125/125/125 110/110/110
f 112/112/112 111/111/111 110/110/110
f 119/119/119 122/122/122 120/120/120
f 118/118/118 119/119/119 120/120/120
f 117/117/117 119/119/119 118/118/118
f 115/115/115 117/117/117 118/118/118
f 113/113/113 117/117/117 115/115/115
f 114/114/114 113/113/113 115/115/115
f 116/116/116 113/113/113 114/114/114
f 121/121/121 116/116/116 114/114/114
f 11/11/11 1/1/1 12/12/12
f 10/10/10 1/1/1 11/11/11
f 20/20/20 10/10/10 11/11/11
f 9/9/9 10/10/10 20/20/20
f 19/19/19 9/9/9 20/20/20
f 8/8/8 9/9/9 19/19/19
f 18/18/18 8/8/8 19/19/19
f 7/7/7 8/8/8 18/18/18
f 17/17/17 7/7/7 18/18/18
f 6/6/6 7/7/7 17/17/17
f 16/16/16 6/6/6 17/17/17
f 5/5/5 6/6/6 16/16/16
f 15/15/15 5/5/5 16/16/16
f 4/4/4 5/5/5 15/15/15
f 14/14/14 4/4/4 15/15/15
f 3/3/3 4/4/4 14/14/14
f 13/13/13 3/3/3 14/14/14
f 2/2/2 3/3/3 13/13/13
f 12/12/12 2/2/2 13/13/13
f 1/1/1 2/2/2 12/12/12
f 12/12/12 93/93/93 11/11/11
f 95/95/95 93/93/93 12/12/12
f 13/13/13 95/95/95 12/12/12
f 97/97/97 95/95/95 13/13/13
f 14/14/14 97/97/97 13/13/13
f 99/99/99 97/97/97 14/14/14
f 15/15/15 99/99/99 14/14/14
f 101/101/101 99/99/99 15/15/15
f 16/16/16 101/101/101 15/15/15
f 103/103/103 101/101/101 16/16/16
f 17/17/17 103/103/103 16/16/16
f 105/105/105 103/103/103 17/17/17
f 18/18/18 105/105/105 17/17/17
f 107/107/107 105/105/105 18/18/18
f 19/19/19 107/107/107 18/18/18
f 109/109/109 107/107/107 19/19/19
f 20/20/20 109/109/109 19/19/19
f 91/91/91 109/109/109 20/20/20
f 11/11/11 91/91/91 20/20/20
f 93/93/93 91/91/91 11/11/11
f 49/49/49 90/90/90 48/48/48
f 108/108/108 90/90/90 49/49/49
f 50/50/50 108/108/108 49/49/49
f 106/106/106 108/108/108 50/50/50
f 41/41/41 106/106/106 50/50/50
f 104/104/104 106/106/106 41/41/41
f 42/42/42 104/104/104 41/41/41
f 102/102/102 104/104/104 42/42/42
f 43/43/43 102/102/102 42/42/42
f 100/100/100 102/102/102 43/43/43
f 44/44/44 100/100/100 43/43/43
f 98/98/98 100/100/100 44/44/44
f 45/45/45 98/98/98 44/44/44
f 96/96/96 98/98/98 45/45/45
f 46/46/46 96/96/96 45/45/45
f 94/94/94 96/96/96 46/46/46
f 47/47/47 94/94/94 46/46/46
f 92/92/92 94/94/94 47/47/47
f 48/48/48 92/92/92 47/47/47
f 90/90/90 92/92/92 48/48/48
f 21/21/21 71/71/71 22/22/22
f 89/89/89 71/71/71 21/21/21
f 30/30/30 89/89/89 21/21/21
f 87/87/87 89/89/89 30/30/30
f 29/29/29 87/87/87 30/30/30
f 85/85/85 87/87/87 29/29/29
f 28/28/28 85/85/85 29/29/29
f 83/83/83 85/85/85 28/28/28
f 27/27/27 83/83/83 28/28/28
f 81/81/81 83/83/83 27/27/27
f 26/26/26 81/81/81 27/27/27
f 79/79/79 81/81/81 26/26/26
f 25/25/25 79/79/79 26/26/26
f 77/77/77 79/79/79 25/25/25
f 24/24/24 77/77/77 25/25/25
f 75/75/75 77/77/77 24/24/24
f 23/23/23 75/75/75 24/24/24
f 73/73/73 75/75/75 23/23/23
f 22/22/22 73/73/73 23/23/23
f 71/71/71 73/73/73 22/22/22
f 31/31/31 88/88/88 40/40/40
f 70/70/70 88/88/88 31/31/31
f 32/32/32 70/70/70 31/31/31
f 72/72/72 70/70/70 32/32/32
f 33/33/33 72/72/72 32/32/32
f 74/74/74 72/72/72 33/33/33
f 34/34/34 74/74/74 33/33/33
f 76/76/76 74/74/74 34/34/34
f 35/35/35 76/76/76 34/34/34
f 78/78/78 76/76/76 35/35/35
f 36/36/36 78/78/78 35/35/35
f 80/80/80 78/78/78 36/36/36
f 37/37/37 80/80/80 36/36/36
f 82/82/82 80/80/80 37/37/37
f 38/38/38 82/82/82 37/37/37
f 84/84/84 82/82/82 38/38/38
f 39/39/39 84/84/84 38/38/38
f 86/86/86 84/84/84 39/39/39
f 40/40/40 86/86/86 39/39/39
f 88/88/88 86/86/86 40/40/40
f 57/57/57 51/51/51 58/58/58
f 56/56/56 51/51/51 57/57/57
f 62/62/62 56/56/56 57/57/57
f 55/55/55 56/56/56 62/62/62
f 61/61/61 55/55/55 62/62/62
f 54/54/54 55/55/55 61/61/61
f 60/60/60 54/54/54 61/61/61
f 53/53/53 54/54/54 60/60/60
f 59/59/59 53/53/53 60/60/60
f 52/52/52 53/53/53 59/59/59
f 58/58/58 52/52/52 59/59/59
f 51/51/51 52/52/52 58/58/58
f 134/134/134 132/132/132 130/130/130
f 135/135/135 132/132/132 134/134/134
f 149/149/149 135/135/135 134/134/134
f 148/148/148 135/135/135 149/149/149
f 147/147/147 148/148/148 149/149/149
f 146/146/146 148/148/148 147/147/147
f 145/145/145 146/146/146 147/147/147
f 144/144/144 146/146/146 145/145/145
f 143/143/143 144/144/144 145/145/145
f 142/142/142 144/144/144 143/143/143
f 141/141/141 142/142/142 143/143/143
f 140/140/140 142/142/142 141/141/141
f 139/139/139 140/140/140 141/141/141
f 138/138/138 140/140/140 139/139/139
f 137/137/137 138/138/138 139/139/139
f 136/136/136 138/138/138 137/137/137
f 133/133/133 136/136/136 137/137/137
f 131/131/131 136/136/136 133/133/133
f 130/130/130 131/131/131 133/133/133
f 132/132/132 131/131/131 130/130/130
f 154/154/154 152/152/152 150/150/150
f 155/155/155 152/152/152 154/154/154
f 156/156/156 155/155/155 154/154/154
f 157/157/157 155/155/155 156/156/156
f 158/158/158 157/157/157 156/156/156
f 159/159/159 157/157/157 158/158/158
f 160/160/160 159/159/159 158/158/158
f 161/161/161 159/159/159 160/160/160
f 162/162/162 161/161/161 160/160/160
f 163/163/163 161/161/161 162/162/162
f 164/164/164 163/163/163 162/162/162
f 165/165/165 163/163/163 164/164/164
f 166/166/166 165/165/165 164/164/164
f 167/167/167 165/165/165 166/166/166
f 168/168/168 167/167/167 166/166/166
f 169/169/169 167/167/167 168/168/168
f 153/153/153 169/169/169 168/168/168
f 151/151/151 169/169/169 153/153/153
f 150/150/150 151/151/151 153/153/153
f 152/152/152 151/151/151 150/150/150
f 31/31/31 50/50/50 32/32/32
f 41/41/41 50/50/50 31/31/31
f 40/40/40 41/41/41 31/31/31
f 42/42/42 41/41/41 40/40/40
f 39/39/39 42/42/42 40/40/40
f 43/43/43 42/42/42 39/39/39
f 38/38/38 43/43/43 39/39/39
f 44/44/44 43/43/43 38/38/38
f 37/37/37 44/44/44 38/38/38
f 45/45/45 44/44/44 37/37/37
f 36/36/36 45/45/45 37/37/37
f 46/46/46 45/45/45 36/36/36
f 35/35/35 46/46/46 36/36/36
f 47/47/47 46/46/46 35/35/35
f 34/34/34 47/47/47 35/35/35
f 48/48/48 47/47/47 34/34/34
f 33/33/33 48/48/48 34/34/34
f 49/49/49 48/48/48 33/33/33
f 32/32/32 49/49/49 33/33/33
f 50/50/50 49/49/49 32/32/32
f 64/64/64 58/58/58 59/59/59
f 69/69/69 58/58/58 64/64/64
f 63/63/63 69/69/69 64/64/64
f 68/68/68 69/69/69 63/63/63
f 67/67/67 68/68/68 63/63/63
f 62/62/62 68/68/68 67/67/67
f 61/61/61 62/62/62 67/67/67
f 65/65/65 64/64/64 59/59/59
f 63/63/63 64/64/64 65/65/65
f 66/66/66 63/63/63 65/65/65
f 67/67/67 63/63/63 66/66/66
f 61/61/61 67/67/67 66/66/66
f 60/60/60 65/65/65 59/59/59
f 66/66/66 65/65/65 60/60/60
f 61/61/61 66/66/66 60/60/60
f 57/57/57 68/68/68 62/62/62
f 69/69/69 68/68/68 57/57/57
f 58/58/58 69/69/69 57/57/57
