g pointySmall_geo
v -0.0003254138 1.379587 0.2352606
v -0.0003509103 1.369588 0.2350489
v -0.01641475 1.418075 0.1812252
v -0.004 1.378819 0.2323962
v -0.004 1.37088 0.232548
v -0.02079889 1.374765 0.1852329
v -0.009813301 1.364483 0.2085278
v -0.004 1.397989 0.2148221
v -0.004 1.420009 0.1988117
v -0.0180128 1.363386 0.1876651
v -0.01380222 1.374854 0.2070907
v -0.007518946 1.4186 0.1900118
v -0.004 1.361328 0.211577
v -0.004 1.361187 0.1910094
v -3.518688E-08 1.452613 0.1932895
v -9.528587E-10 1.35024 0.1879142
v -0.04601901 1.363877 0.1805769
v -0.01375602 1.450473 0.1852768
v -0.00899289 1.352196 0.1857211
v -0.0002640518 1.399134 0.2166309
v -0.0002452781 1.421003 0.2007218
v -0.0002643411 1.359308 0.2129669
v -0.0002918018 1.359254 0.1925755
v 0.0003254131 1.379587 0.2352606
v 0.0003509099 1.369588 0.2350489
v 0.01641475 1.418075 0.1812252
v 0.004 1.378819 0.2323962
v 0.004 1.37088 0.232548
v 0.02079889 1.374765 0.1852329
v 0.009813301 1.364483 0.2085278
v 0.004 1.397989 0.2148221
v 0.004 1.420009 0.1988117
v 0.0180128 1.363386 0.1876651
v 0.01380222 1.374854 0.2070907
v 0.007518946 1.4186 0.1900118
v 0.004 1.361328 0.211577
v 0.004 1.361187 0.1910094
v 3.613973E-08 1.35024 0.1879142
v 0.04018405 1.39405 0.180922
v 0.04601901 1.363877 0.1805769
v 0.01375602 1.450473 0.1852768
v 0.00899289 1.352196 0.1857211
v 0.000264052 1.399134 0.2166309
v 0.0002452767 1.421003 0.2007218
v 0.0002643414 1.359308 0.2129669
v 0.0002918016 1.359254 0.1925755
v -0.04018404 1.39405 0.180922
v -0.0078447 1.468398 0.1864988
v -6.51395E-27 1.478264 0.188553
v 0.007844662 1.468398 0.1864988
v -0.004 1.378819 0.2323962
v -0.004 1.37088 0.232548
v -0.004 1.397989 0.2148221
v -0.004 1.361328 0.211577
v -0.004 1.361187 0.1910094
v -9.528587E-10 1.35024 0.1879142
v -0.004 1.420009 0.1988117
v -3.518688E-08 1.452613 0.1932895
v 0.004 1.378819 0.2323962
v 0.004 1.37088 0.232548
v 0.004 1.397989 0.2148221
v -3.518688E-08 1.452613 0.1932895
v 0.004 1.361328 0.211577
v 0.004 1.361187 0.1910094
v 3.613973E-08 1.35024 0.1879142
v 0.004 1.420009 0.1988117
v -0.01375602 1.450473 0.1852768
v -3.518688E-08 1.452613 0.1932895
v 0.01375602 1.450473 0.1852768
vt 0.9956503 0.1310701
vt 0.9956503 0.1310701
vt 0.9381389 0.1563927
vt 0.9956503 0.1310701
vt 0.9956503 0.1310701
vt 0.9178662 0.1617082
vt 0.9090947 0.152904
vt 0.9956503 0.1310701
vt 0.934765 0.1423182
vt 0.9120952 0.162245
vt 0.9135982 0.1521226
vt 0.9357551 0.1480646
vt 0.9956503 0.1310701
vt 0.9956503 0.1310701
vt 0.9518768 0.1413204
vt 0.9956503 0.1310701
vt 0.9218577 0.1703598
vt 0.953471 0.1457385
vt 0.9099518 0.16551
vt 0.9956503 0.1310701
vt 0.9956503 0.1310701
vt 0.9956503 0.1310701
vt 0.9956503 0.1310701
vt 0.9956503 0.1310701
vt 0.9956503 0.1310701
vt 0.9500535 0.1669518
vt 0.9956503 0.1310701
vt 0.9956503 0.1310701
vt 0.9438824 0.1878033
vt 0.9525917 0.1967989
vt 0.9956503 0.1310701
vt 0.9631777 0.1711284
vt 0.9432828 0.1937225
vt 0.9533731 0.1922953
vt 0.9574311 0.1701384
vt 0.9956503 0.1310701
vt 0.9956503 0.1310701
vt 0.9956503 0.1310701
vt 0.9401324 0.1669687
vt 0.9351363 0.1840359
vt 0.9597572 0.1524224
vt 0.9399859 0.1959417
vt 0.9956503 0.1310701
vt 0.9956503 0.1310701
vt 0.9956503 0.1310701
vt 0.9956503 0.1310701
vt 0.9348726 0.1665497
vt 0.9088407 0.2048942
vt 0.9167533 0.2131658
vt 0.9246662 0.2048943
vt 0.9099081 0.1418527
vt 0.9070128 0.1424002
vt 0.9207777 0.1419493
vt 0.9055747 0.1516828
vt 0.9055242 0.1596526
vt 0.9035277 0.1619744
vt 0.9956503 0.1310701
vt 0.9956503 0.1310701
vt 0.9636431 0.1959854
vt 0.9630957 0.1988807
vt 0.9635465 0.1851158
vt 0.9641755 0.1540167
vt 0.9538129 0.2003188
vt 0.9458432 0.2003693
vt 0.9435214 0.2023659
vt 0.9956503 0.1310701
vt 0.9028352 0.1896126
vt 0.9167533 0.1905243
vt 0.9306712 0.1896126
vn -8.201055E-07 0.6373999 0.7705331
vn -1.5414E-07 -0.3123861 0.9499552
vn -0.6402609 0.3714273 0.6723896
vn -0.8569562 0.2996876 0.4193011
vn -0.7802175 -0.2845083 0.5570599
vn -0.6276773 0.266644 0.7313838
vn -0.7109749 -0.4949468 0.4995421
vn -0.7801533 0.5152767 0.3547545
vn -0.7248212 0.4310623 0.5374194
vn -0.5034958 -0.2517665 0.826502
vn -0.9050103 0.2109223 0.3694159
vn -0.8092216 0.3213132 0.4918519
vn -0.5362431 -0.7328434 0.4187886
vn -0.5354365 -0.5406881 0.6488175
vn 2.438176E-07 0.4560943 0.8899315
vn -1.989903E-06 -0.1239529 0.9922881
vn -0.2093042 0.3629394 0.9080015
vn -0.7476904 0.2570462 0.6122797
vn -0.2343042 0.1132645 0.9655427
vn -5.785462E-07 0.8288319 0.5594978
vn 4.269126E-07 0.6482584 0.7614203
vn -2.919399E-07 -0.8786754 0.4774196
vn -1.465846E-06 -0.7166202 0.6974636
vn -8.201055E-07 0.6373999 0.7705331
vn -1.5414E-07 -0.3123861 0.9499552
vn 0.6402605 0.371427 0.6723902
vn 0.8569558 0.2996881 0.4193016
vn 0.7802174 -0.2845089 0.5570598
vn 0.6276763 0.2666437 0.7313846
vn 0.7109749 -0.4949469 0.4995421
vn 0.780153 0.5152769 0.354755
vn 0.7248214 0.4310622 0.5374191
vn 0.5034951 -0.2517662 0.8265025
vn 0.90501 0.2109222 0.3694164
vn 0.8092216 0.3213131 0.4918519
vn 0.5362429 -0.7328436 0.4187886
vn 0.5354345 -0.5406883 0.648819
vn -1.989903E-06 -0.1239529 0.9922881
vn 0.1528303 0.4664777 0.8712299
vn 0.2093028 0.3629389 0.908002
vn 0.747691 0.2570462 0.6122789
vn 0.2343028 0.1132647 0.965543
vn -5.785462E-07 0.8288319 0.5594978
vn 4.269126E-07 0.6482584 0.7614203
vn -2.919399E-07 -0.8786754 0.4774196
vn -1.465846E-06 -0.7166202 0.6974636
vn -0.1528327 0.4664785 0.8712289
vn -0.4792006 0.1349564 0.8672679
vn -8.149151E-07 0.15376 0.9881082
vn 0.4791991 0.1349557 0.8672687
vn -0.8569562 0.2996876 0.4193011
vn -0.7802175 -0.2845083 0.5570599
vn -0.7801533 0.5152767 0.3547545
vn -0.5362431 -0.7328434 0.4187886
vn -0.5354365 -0.5406881 0.6488175
vn -1.989903E-06 -0.1239529 0.9922881
vn -0.7248212 0.4310623 0.5374194
vn 2.438176E-07 0.4560943 0.8899315
vn 0.8569558 0.2996881 0.4193016
vn 0.7802174 -0.2845089 0.5570598
vn 0.780153 0.5152769 0.354755
vn 2.438176E-07 0.4560943 0.8899315
vn 0.5362429 -0.7328436 0.4187886
vn 0.5354345 -0.5406883 0.648819
vn -1.989903E-06 -0.1239529 0.9922881
vn 0.7248214 0.4310622 0.5374191
vn -0.7476904 0.2570462 0.6122797
vn 2.438176E-07 0.4560943 0.8899315
vn 0.747691 0.2570462 0.6122789
g pointySmall_geo_0
f 2/2/2 4/4/4 5/5/5
f 13/13/13 2/2/2 5/5/5
f 22/22/22 2/2/2 13/13/13
f 14/14/14 22/22/22 13/13/13
f 23/23/23 22/22/22 14/14/14
f 16/16/16 23/23/23 14/14/14
f 12/12/12 53/53/53 9/9/9
f 11/11/11 53/53/53 12/12/12
f 6/6/6 11/11/11 12/12/12
f 7/7/7 11/11/11 6/6/6
f 10/10/10 7/7/7 6/6/6
f 55/55/55 7/7/7 10/10/10
f 19/19/19 55/55/55 10/10/10
f 56/56/56 55/55/55 19/19/19
f 8/8/8 1/1/1 20/20/20
f 21/21/21 8/8/8 20/20/20
f 57/57/57 8/8/8 21/21/21
f 58/58/58 57/57/57 21/21/21
f 25/25/25 28/28/28 27/27/27
f 36/36/36 28/28/28 25/25/25
f 45/45/45 36/36/36 25/25/25
f 37/37/37 36/36/36 45/45/45
f 46/46/46 37/37/37 45/45/45
f 38/38/38 37/37/37 46/46/46
f 35/35/35 32/32/32 61/61/61
f 34/34/34 35/35/35 61/61/61
f 29/29/29 35/35/35 34/34/34
f 30/30/30 29/29/29 34/34/34
f 33/33/33 29/29/29 30/30/30
f 64/64/64 33/33/33 30/30/30
f 42/42/42 33/33/33 64/64/64
f 65/65/65 42/42/42 64/64/64
f 31/31/31 43/43/43 24/24/24
f 44/44/44 43/43/43 31/31/31
f 66/66/66 44/44/44 31/31/31
f 58/58/58 44/44/44 66/66/66
f 68/68/68 69/69/69 50/50/50
f 49/49/49 68/68/68 50/50/50
f 67/67/67 68/68/68 49/49/49
f 48/48/48 67/67/67 49/49/49
f 4/4/4 1/1/1 8/8/8
f 2/2/2 1/1/1 4/4/4
f 7/7/7 54/54/54 52/52/52
f 51/51/51 7/7/7 52/52/52
f 11/11/11 7/7/7 51/51/51
f 53/53/53 11/11/11 51/51/51
f 6/6/6 47/47/47 17/17/17
f 3/3/3 47/47/47 6/6/6
f 12/12/12 3/3/3 6/6/6
f 18/18/18 3/3/3 12/12/12
f 15/15/15 18/18/18 12/12/12
f 10/10/10 17/17/17 19/19/19
f 6/6/6 17/17/17 10/10/10
f 9/9/9 15/15/15 12/12/12
f 7/7/7 55/55/55 54/54/54
f 24/24/24 27/27/27 31/31/31
f 25/25/25 27/27/27 24/24/24
f 30/30/30 60/60/60 63/63/63
f 59/59/59 60/60/60 30/30/30
f 34/34/34 59/59/59 30/30/30
f 61/61/61 59/59/59 34/34/34
f 35/35/35 41/41/41 62/62/62
f 26/26/26 41/41/41 35/35/35
f 29/29/29 26/26/26 35/35/35
f 39/39/39 26/26/26 29/29/29
f 40/40/40 39/39/39 29/29/29
f 40/40/40 33/33/33 42/42/42
f 29/29/29 33/33/33 40/40/40
f 35/35/35 62/62/62 32/32/32
f 63/63/63 64/64/64 30/30/30
