g pointySmall_geo
v -6.912763E-09 1.581879 0.1489545
v -6.724475E-09 1.468705 0.1900274
v 1.665373E-09 1.540428 0.1864101
v -1.752036E-09 1.56292 0.1587162
v 1.016031E-08 1.518054 0.233125
v -1.034134E-09 1.49322 0.2364501
v -1.577627E-09 1.477528 0.2116073
v 0.03225574 1.536428 0.1453093
v 0.01707715 1.576785 0.1392169
v 0.03458258 1.501334 0.161785
v 0.03851514 1.478932 0.1792707
v 0.002999995 1.560541 0.1570161
v 0.004 1.537945 0.1842385
v 0.004000007 1.515414 0.2310973
v 0.02616834 1.509151 0.1717358
v 0.01191133 1.486739 0.2112886
v 0.003999999 1.494332 0.2336571
v 0.02991962 1.484029 0.1893345
v 0.002999999 1.57968 0.1464892
v 0.01328493 1.516126 0.1795368
v 0.02123074 1.515931 0.1637172
v 0.02432519 1.531128 0.1516633
v 0.004000008 1.502225 0.2378938
v 1.029206E-08 1.502973 0.2411855
v 0.003999996 1.479498 0.2103383
v 0.003999996 1.469834 0.1878448
v -0.0322566 1.536328 0.145316
v -0.01707717 1.576785 0.1392169
v -0.03458257 1.501334 0.161785
v -0.03851515 1.478932 0.1792707
v -0.003000004 1.560541 0.1570161
v -0.004 1.537945 0.1842385
v -0.003999993 1.515414 0.2310974
v -0.02616832 1.509151 0.1717358
v -0.01191133 1.486739 0.2112885
v -0.004000001 1.494332 0.2336571
v -0.02991963 1.484028 0.1893345
v -0.003000011 1.579679 0.1464892
v -0.01328493 1.516126 0.1795368
v -0.02123072 1.515931 0.1637172
v -0.02432519 1.531128 0.1516633
v -0.003999992 1.502225 0.2378939
v -0.004000003 1.479498 0.2103383
v -0.004000003 1.469834 0.1878448
v 0.09013507 1.471778 0.1761045
v 0.07815588 1.509687 0.1447876
v 0.0361734 1.471367 0.1826751
v 0.0320415 1.626773 0.1272243
v 7.970716E-10 1.463246 0.1886786
v -0.07815586 1.509687 0.1447875
v -0.09013507 1.471778 0.1761044
v -0.03617341 1.471367 0.1826751
v -0.0320415 1.626772 0.1272243
v 0.0001165105 1.62721 0.1389727
v 0.002999995 1.560541 0.1570161
v 0.004000008 1.502225 0.2378938
v 0.004000007 1.515414 0.2310973
v 0.004 1.537945 0.1842385
v 0.003999999 1.494332 0.2336571
v 0.003999996 1.479498 0.2103383
v 0.003999996 1.469834 0.1878448
v 7.970716E-10 1.463246 0.1886786
v -0.003000004 1.560541 0.1570161
v -6.912763E-09 1.581879 0.1489545
v -0.003999992 1.502225 0.2378939
v -0.003999993 1.515414 0.2310974
v -0.004 1.537945 0.1842385
v -0.004000001 1.494332 0.2336571
v -0.004000003 1.479498 0.2103383
v -0.004000003 1.469834 0.1878448
v 7.970716E-10 1.463246 0.1886786
vt 0.9430445 0.167786
vt 0.9928951 0.1338617
vt 0.9928951 0.1338617
vt 0.9928951 0.1338617
vt 0.9928951 0.1338617
vt 0.9928951 0.1338617
vt 0.9928951 0.1338617
vt 0.9527483 0.1591905
vt 0.9482454 0.1673645
vt 0.9548997 0.1522886
vt 0.9561633 0.1483227
vt 0.9446008 0.1614623
vt 0.9928951 0.1338617
vt 0.9928951 0.1338617
vt 0.9518601 0.151931
vt 0.9495198 0.1440814
vt 0.9928951 0.1338617
vt 0.9532408 0.1470011
vt 0.9441704 0.1674274
vt 0.9489576 0.1516799
vt 0.9517047 0.1544644
vt 0.9514775 0.1574599
vt 0.9928951 0.1338617
vt 0.9928951 0.1338617
vt 0.9928951 0.1338617
vt 0.9928951 0.1338617
vt 0.9333321 0.1592116
vt 0.9378475 0.1674297
vt 0.9311773 0.1523083
vt 0.9299064 0.1483431
vt 0.9414823 0.1614831
vt 0.9928951 0.1338617
vt 0.9928951 0.1338617
vt 0.9342164 0.1519473
vt 0.936549 0.14409
vt 0.9928951 0.1338617
vt 0.9328287 0.1470167
vt 0.9419193 0.1674413
vt 0.9371195 0.1516932
vt 0.9343736 0.1544822
vt 0.9346024 0.1574792
vt 0.9928951 0.1338617
vt 0.9928951 0.1338617
vt 0.9928951 0.1338617
vt 0.9644452 0.1486084
vt 0.9615057 0.1562879
vt 0.9561123 0.1469818
vt 0.9516697 0.1806468
vt 0.9928951 0.1338617
vt 0.9245799 0.1563214
vt 0.9216206 0.1486454
vt 0.9299549 0.1470013
vt 0.9343786 0.180629
vt 0.9430578 0.1799226
vt 0.9928951 0.1338617
vt 0.9443806 0.1421558
vt 0.9433335 0.1443801
vt 0.9446203 0.1535778
vt 0.9458497 0.1418256
vt 0.9501888 0.1423011
vt 0.9539804 0.1418798
vt 0.9547219 0.1409798
vt 0.9928951 0.1338617
vt 0.9928951 0.1338617
vt 0.9416904 0.142157
vt 0.9427409 0.144382
vt 0.9414622 0.1535889
vt 0.9402196 0.1418281
vt 0.9358771 0.1423091
vt 0.9320819 0.1418925
vt 0.9313387 0.1409926
vn -0.0002317809 0.3874922 0.921873
vn -2.141757E-06 -0.6562111 0.7545773
vn 5.500495E-07 0.8478729 0.5301997
vn 7.905283E-07 0.6323345 0.7746955
vn 1.604222E-06 0.7188165 0.6952
vn 4.971654E-07 -0.6775809 0.7354483
vn -4.80113E-07 -0.8871159 0.4615466
vn 0.4316281 0.3568387 0.8284705
vn 0.4747388 0.2462908 0.8449638
vn 0.524464 0.5419719 0.6566613
vn 0.5106993 0.4182823 0.7511498
vn 0.6696208 0.3797947 0.6382508
vn 0.7967001 0.473954 0.3750154
vn 0.8319905 0.4141968 0.3690974
vn 0.7184891 0.6065179 0.3404548
vn 0.8202788 -0.2026587 0.5348571
vn 0.6702045 -0.5217925 0.5277866
vn 0.7715296 0.3399597 0.5377449
vn 0.6028489 0.247243 0.7585803
vn 0.8395764 0.4270242 0.3358004
vn 0.7465392 0.5281751 0.4046113
vn 0.5894592 0.3775184 0.7141553
vn 0.8365859 -0.02064887 0.5474463
vn 2.276717E-06 -0.004008953 0.999992
vn 0.4528195 -0.7730488 0.444241
vn 0.389547 -0.5171623 0.7621
vn -0.4326215 0.3572724 0.8277651
vn -0.4741071 0.2467017 0.8451986
vn -0.524859 0.5421317 0.6562135
vn -0.5106981 0.4182818 0.7511509
vn -0.6697916 0.3798296 0.6380506
vn -0.7966996 0.4739543 0.3750162
vn -0.8319894 0.4141977 0.3690987
vn -0.7184894 0.6065168 0.3404562
vn -0.8202776 -0.2026575 0.5348594
vn -0.6702033 -0.5217911 0.5277894
vn -0.7715287 0.3399605 0.5377458
vn -0.6027986 0.2482705 0.7582847
vn -0.8395759 0.4270231 0.3358029
vn -0.7465391 0.5281746 0.4046121
vn -0.5902901 0.3777443 0.713349
vn -0.8365838 -0.02064731 0.5474498
vn -0.4528199 -0.7730477 0.4442424
vn -0.3895485 -0.5171635 0.7620984
vn 0.1313891 0.5192529 0.8444604
vn 0.2057706 0.5401251 0.8160412
vn 0.3831602 -0.1095633 0.9171609
vn 0.3869342 0.1345638 0.912236
vn -2.277069E-06 -0.09646844 0.9953361
vn -0.20561 0.54053 0.8158136
vn -0.1313908 0.5192508 0.8444614
vn -0.3831583 -0.109565 0.9171615
vn -0.3852833 0.135792 0.9127526
vn 0.0002025574 0.1767094 0.984263
vn 0.6696208 0.3797947 0.6382508
vn 0.8365859 -0.02064887 0.5474463
vn 0.8319905 0.4141968 0.3690974
vn 0.7967001 0.473954 0.3750154
vn 0.6702045 -0.5217925 0.5277866
vn 0.4528195 -0.7730488 0.444241
vn 0.389547 -0.5171623 0.7621
vn -2.277069E-06 -0.09646844 0.9953361
vn -0.6697916 0.3798296 0.6380506
vn -0.0002317809 0.3874922 0.921873
vn -0.8365838 -0.02064731 0.5474498
vn -0.8319894 0.4141977 0.3690987
vn -0.7966996 0.4739543 0.3750162
vn -0.6702033 -0.5217911 0.5277894
vn -0.4528199 -0.7730477 0.4442424
vn -0.3895485 -0.5171635 0.7620984
vn -2.277069E-06 -0.09646844 0.9953361
g pointySmall_geo_0
f 20/20/20 58/58/58 57/57/57
f 21/21/21 58/58/58 20/20/20
f 15/15/15 21/21/21 20/20/20
f 10/10/10 21/21/21 15/15/15
f 18/18/18 10/10/10 15/15/15
f 11/11/11 10/10/10 18/18/18
f 16/16/16 11/11/11 18/18/18
f 47/47/47 11/11/11 16/16/16
f 61/61/61 47/47/47 16/16/16
f 62/62/62 47/47/47 61/61/61
f 38/38/38 31/31/31 1/1/1
f 54/54/54 38/38/38 1/1/1
f 28/28/28 38/38/38 54/54/54
f 53/53/53 28/28/28 54/54/54
f 39/39/39 66/66/66 67/67/67
f 40/40/40 39/39/39 67/67/67
f 34/34/34 39/39/39 40/40/40
f 29/29/29 34/34/34 40/40/40
f 37/37/37 34/34/34 29/29/29
f 30/30/30 37/37/37 29/29/29
f 35/35/35 37/37/37 30/30/30
f 52/52/52 35/35/35 30/30/30
f 70/70/70 35/35/35 52/52/52
f 71/71/71 70/70/70 52/52/52
f 24/24/24 42/42/42 36/36/36
f 6/6/6 24/24/24 36/36/36
f 17/17/17 24/24/24 6/6/6
f 7/7/7 17/17/17 6/6/6
f 25/25/25 17/17/17 7/7/7
f 2/2/2 25/25/25 7/7/7
f 26/26/26 25/25/25 2/2/2
f 49/49/49 26/26/26 2/2/2
f 24/24/24 17/17/17 23/23/23
f 14/14/14 24/24/24 23/23/23
f 5/5/5 24/24/24 14/14/14
f 13/13/13 5/5/5 14/14/14
f 3/3/3 5/5/5 13/13/13
f 4/4/4 3/3/3 13/13/13
f 32/32/32 3/3/3 4/4/4
f 63/63/63 32/32/32 4/4/4
f 22/22/22 12/12/12 58/58/58
f 8/8/8 12/12/12 22/22/22
f 10/10/10 8/8/8 22/22/22
f 46/46/46 8/8/8 10/10/10
f 45/45/45 46/46/46 10/10/10
f 19/19/19 54/54/54 1/1/1
f 12/12/12 19/19/19 1/1/1
f 9/9/9 19/19/19 12/12/12
f 8/8/8 9/9/9 12/12/12
f 4/4/4 64/64/64 63/63/63
f 55/55/55 64/64/64 4/4/4
f 13/13/13 55/55/55 4/4/4
f 11/11/11 45/45/45 10/10/10
f 47/47/47 45/45/45 11/11/11
f 16/16/16 18/18/18 15/15/15
f 20/20/20 16/16/16 15/15/15
f 56/56/56 16/16/16 20/20/20
f 57/57/57 56/56/56 20/20/20
f 16/16/16 60/60/60 61/61/61
f 59/59/59 60/60/60 16/16/16
f 56/56/56 59/59/59 16/16/16
f 2/2/2 44/44/44 49/49/49
f 43/43/43 44/44/44 2/2/2
f 7/7/7 43/43/43 2/2/2
f 36/36/36 43/43/43 7/7/7
f 6/6/6 36/36/36 7/7/7
f 5/5/5 3/3/3 32/32/32
f 33/33/33 5/5/5 32/32/32
f 24/24/24 5/5/5 33/33/33
f 42/42/42 24/24/24 33/33/33
f 29/29/29 50/50/50 51/51/51
f 27/27/27 50/50/50 29/29/29
f 41/41/41 27/27/27 29/29/29
f 31/31/31 27/27/27 41/41/41
f 67/67/67 31/31/31 41/41/41
f 31/31/31 28/28/28 27/27/27
f 38/38/38 28/28/28 31/31/31
f 51/51/51 30/30/30 29/29/29
f 52/52/52 30/30/30 51/51/51
f 35/35/35 69/69/69 68/68/68
f 65/65/65 35/35/35 68/68/68
f 39/39/39 35/35/35 65/65/65
f 66/66/66 39/39/39 65/65/65
f 35/35/35 70/70/70 69/69/69
f 19/19/19 48/48/48 54/54/54
f 9/9/9 48/48/48 19/19/19
f 22/22/22 21/21/21 10/10/10
f 58/58/58 21/21/21 22/22/22
f 34/34/34 35/35/35 39/39/39
f 37/37/37 35/35/35 34/34/34
f 40/40/40 41/41/41 29/29/29
f 67/67/67 41/41/41 40/40/40
