g pointySmall_geo
v -0.004102408 0.6446952 0.2540403
v -1.788139E-09 0.779898 0.2499295
v -0.03662182 0.6476449 0.2550583
v -0.004738951 0.7297338 0.2579581
v -0.05416712 0.6827707 0.2458227
v -0.004663897 0.6682644 0.3029905
v 2.704882E-33 0.6696943 0.3062846
v 4.66862E-32 0.7314841 0.2610852
v 1.554676E-31 0.6440932 0.2544259
v -0.004597166 0.6625058 0.3024162
v 2.669595E-33 0.663359 0.3064635
v 3.85119E-33 0.6590832 0.3004721
v 0.004102408 0.6446952 0.2540403
v 0.03662182 0.6476449 0.2550583
v 0.004459513 0.7297338 0.2587585
v 0.05416712 0.6827707 0.2458227
v 0.004534566 0.6682644 0.3037909
v 0.004601298 0.6625058 0.3032167
v -0.0313484 0.7238094 0.2475482
v 0.0313484 0.7238094 0.2475482
v -0.004738951 0.7297338 0.2579581
v -0.004663897 0.6682644 0.3029905
v -0.004597166 0.6625058 0.3024162
v -0.004102408 0.6446952 0.2540403
v 4.66862E-32 0.7314841 0.2610852
v 0.004459513 0.7297338 0.2587585
v 0.004534566 0.6682644 0.3037909
v 0.004601298 0.6625058 0.3032167
v 0.004102408 0.6446952 0.2540403
v -1.788139E-09 0.779898 0.2499295
v -0.004738951 0.7297338 0.2579581
v 0.004459513 0.7297338 0.2587585
v -0.05416712 0.6827707 0.2458227
v 0.05416712 0.6827707 0.2458227
vt 0.9936969 0.1306957
vt 0.9611841 0.1951101
vt 0.957197 0.1488615
vt 0.9613072 0.1763319
vt 0.9487436 0.1615527
vt 0.9627588 0.155752
vt 0.9936969 0.1306957
vt 0.9936969 0.1306957
vt 0.9936969 0.1306957
vt 0.9628487 0.1542937
vt 0.9936969 0.1306957
vt 0.9936969 0.1306957
vt 0.9936969 0.1306957
vt 0.9708148 0.1496998
vt 0.9633659 0.1764589
vt 0.9776477 0.163332
vt 0.9641514 0.1558379
vt 0.964241 0.1543792
vt 0.9512668 0.1760658
vt 0.973363 0.1774258
vt 0.9936969 0.1306957
vt 0.9936969 0.1306957
vt 0.9936969 0.1306957
vt 0.9637294 0.1436462
vt 0.9622965 0.1770423
vt 0.9936969 0.1306957
vt 0.9936969 0.1306957
vt 0.9936969 0.1306957
vt 0.9649716 0.1437229
vt 0.9611841 0.1951101
vt 0.9613072 0.1763319
vt 0.9633659 0.1764589
vt 0.9487436 0.1615527
vt 0.9776477 0.163332
vn -0.2528173 -0.5732071 0.7794339
vn 1.178703E-07 0.1586937 0.9873279
vn -0.4905802 -0.107511 0.8647385
vn -0.578994 0.2762554 0.7671042
vn -0.5629454 0.3142018 0.7644407
vn -0.7910641 0.1933638 0.5803688
vn -0.00161361 0.3683984 0.9296665
vn -0.001510217 0.4866874 0.8735749
vn 0.009398078 -0.6133657 0.7897432
vn -0.5867703 -0.5156425 0.6243505
vn 5.207476E-07 -0.466584 0.8844769
vn 0.008580041 -0.8288721 0.5593724
vn 0.265709 -0.5900693 0.7623758
vn 0.5289961 -0.110686 0.8413748
vn 0.5944719 0.2927789 0.7489218
vn 0.5629454 0.3142017 0.7644408
vn 0.827283 0.2147564 0.519117
vn 0.61457 -0.5277899 0.5862948
vn -0.4927404 0.2545022 0.8321272
vn 0.4927403 0.2545021 0.8321272
vn -0.578994 0.2762554 0.7671042
vn -0.7910641 0.1933638 0.5803688
vn -0.5867703 -0.5156425 0.6243505
vn -0.2528173 -0.5732071 0.7794339
vn -0.001510217 0.4866874 0.8735749
vn 0.5944719 0.2927789 0.7489218
vn 0.827283 0.2147564 0.519117
vn 0.61457 -0.5277899 0.5862948
vn 0.265709 -0.5900693 0.7623758
vn 1.178703E-07 0.1586937 0.9873279
vn -0.578994 0.2762554 0.7671042
vn 0.5944719 0.2927789 0.7489218
vn -0.5629454 0.3142018 0.7644407
vn 0.5629454 0.3142017 0.7644408
g pointySmall_geo_0
f 33/33/33 31/31/31 19/19/19
f 20/20/20 32/32/32 34/34/34
f 3/3/3 4/4/4 5/5/5
f 6/6/6 4/4/4 3/3/3
f 10/10/10 6/6/6 3/3/3
f 3/3/3 24/24/24 10/10/10
f 14/14/14 17/17/17 18/18/18
f 15/15/15 17/17/17 14/14/14
f 16/16/16 15/15/15 14/14/14
f 18/18/18 29/29/29 14/14/14
f 12/12/12 13/13/13 28/28/28
f 11/11/11 12/12/12 28/28/28
f 23/23/23 12/12/12 11/11/11
f 7/7/7 23/23/23 11/11/11
f 22/22/22 23/23/23 7/7/7
f 21/21/21 22/22/22 7/7/7
f 7/7/7 8/8/8 21/21/21
f 26/26/26 8/8/8 7/7/7
f 27/27/27 26/26/26 7/7/7
f 12/12/12 9/9/9 13/13/13
f 1/1/1 9/9/9 12/12/12
f 23/23/23 1/1/1 12/12/12
f 7/7/7 28/28/28 27/27/27
f 11/11/11 28/28/28 7/7/7
g pointySmall_geo_1
f 31/31/31 30/30/30 19/19/19
f 32/32/32 20/20/20 30/30/30
f 2/2/2 25/25/25 15/15/15
f 4/4/4 25/25/25 2/2/2
