g poo_geo
v -0.01478514 0.07605879 0.1009932
v -0.03009489 0.05725663 0.09649659
v -0.04391849 0.1231275 0.1006837
v -0.03407725 0.13743 0.1018164
v -0.01439474 0.1372178 0.1040817
v -0.004553498 0.1229117 0.1052143
v -0.005959453 0.08784721 0.09107057
v -0.03780638 0.1015381 0.08740525
v -0.0537299 0.126091 0.08557262
v -0.03780638 0.149318 0.08740525
v -0.005959453 0.1490062 0.09107063
v 0.01463512 0.1254403 0.09290325
v -0.01222027 0.08441777 -0.09535814
v -0.04367744 0.09224157 -0.07960213
v -0.05940599 0.1248989 -0.0871446
v -0.04367744 0.1485419 -0.08988247
v -0.01222027 0.1477966 -0.0953581
v 0.008179381 0.1235844 -0.09809594
v -0.02191955 0.09850162 -0.104767
v -0.03679657 0.05938426 -0.09940315
v -0.05090564 0.1210641 -0.1027794
v -0.04118499 0.1356806 -0.1044715
v -0.02174329 0.1352591 -0.1078556
v -0.01202256 0.1203624 -0.1095477
v -0.02513475 0.1225941 0.1081862
v -0.03280682 0.120042 -0.1113366
v 0.006956367 0.1619022 -0.05548662
v -0.02917184 0.1611169 -0.05001113
v -0.04490033 0.1325488 -0.04727322
v -0.02917184 0.1065054 -0.05001102
v 0.006956383 0.1098423 -0.05548665
v 0.02268494 0.1339871 -0.05822445
v 0.009974292 0.1679227 -0.01023559
v -0.02685671 0.1664791 -0.01023559
v -0.04293665 0.1328778 -0.01023559
v -0.02685671 0.1116236 -0.01023559
v 0.009974292 0.1051046 -0.01785738
v 0.02605426 0.1310965 -0.01023559
v 0.01281432 0.166886 0.02688771
v -0.0209476 0.1663747 0.02688767
v -0.03549291 0.1396372 0.02688767
v -0.0209475 0.1195573 0.02688767
v 0.01281435 0.1106144 0.02688764
v 0.02735972 0.139354 0.02688767
v 0.008442204 0.1615944 0.05797005
v -0.02807581 0.1619619 0.05430477
v -0.04399927 0.1381865 0.0524722
v -0.02807581 0.09673987 0.05430477
v 0.00844222 0.1141256 0.05797007
v 0.02436566 0.1375189 0.0598028
v 0.003576937 0.05615411 0.07452029
v -0.02451165 0.05292157 0.04059632
v -0.004967505 0.00593 -0.07542247
v -0.02801428 0.04171058 -0.03526676
v 0.01139432 0.09746347 0.008326033
v -0.02728128 0.08955075 -0.01752977
v -0.02764778 0.08772671 -0.02382657
v 0.01201547 0.07423388 0.01644565
v 0.01080023 0.05699711 -0.008767302
v 0.001241585 0.04107627 -0.06358048
v -0.003178183 0.04469142 -0.07050404
v -0.007010045 0.03825385 -0.08845457
vt 0.2948563 0.7915776
vt 0.2948564 0.7915777
vt 0.2948563 0.7915777
vt 0.2948563 0.7915777
vt 0.2948563 0.7915776
vt 0.2948563 0.7915776
vt 0.2948564 0.7833824
vt 0.2948564 0.7833824
vt 0.2948564 0.7833824
vt 0.2948563 0.7833824
vt 0.2948564 0.7833824
vt 0.2948564 0.7833822
vt 0.2948563 0.7915777
vt 0.2948564 0.7915776
vt 0.2948564 0.7915776
vt 0.2948563 0.7915776
vt 0.2948563 0.7915776
vt 0.2948564 0.7915777
vt 0.2948564 0.7915777
vt 0.2948564 0.7915776
vt 0.2948563 0.7915776
vt 0.2948563 0.7915776
vt 0.2948564 0.7915777
vt 0.2948563 0.7915777
vt 0.2948564 0.7915776
vt 0.2948565 0.7915776
vt 0.2948564 0.7751873
vt 0.2948564 0.7751874
vt 0.2948564 0.7751872
vt 0.2948564 0.7751873
vt 0.2948564 0.7751873
vt 0.2948563 0.7751873
vt 0.2948564 0.7915776
vt 0.2948564 0.7915776
vt 0.2948563 0.7915778
vt 0.2948563 0.7915778
vt 0.2948564 0.7915776
vt 0.2948563 0.7915776
vt 0.2948564 0.7751873
vt 0.2948564 0.7751873
vt 0.2948563 0.7751872
vt 0.2948563 0.7751872
vt 0.2948564 0.7751871
vt 0.2948563 0.7751871
vt 0.2948564 0.7915776
vt 0.2948563 0.7915778
vt 0.2948564 0.7915777
vt 0.2948564 0.7915778
vt 0.2948564 0.7915776
vt 0.2948563 0.7915776
vt 0.2948564 0.7915776
vt 0.2948564 0.7915777
vt 0.2948564 0.7915776
vt 0.2948564 0.7915777
vt 0.2948563 0.7915777
vt 0.2948564 0.7915777
vt 0.2948563 0.7915778
vt 0.2948563 0.7915776
vt 0.2948563 0.7915777
vt 0.2948564 0.7915778
vt 0.2948564 0.7915776
vt 0.2948564 0.7915777
vn 0.2664488 -0.2095519 0.9407938
vn -0.559698 -0.2479706 0.7907267
vn -0.6960872 0.04945192 0.7162522
vn -0.3343436 0.463311 0.8207053
vn 0.1170276 0.4550706 0.8827317
vn 0.3896226 0.05289168 0.9194546
vn 0.8751603 -0.2739624 0.3987971
vn -0.9185191 -0.3784492 -0.1144501
vn -0.9931194 0.07868116 0.08673707
vn -0.4657771 0.7728266 0.4310345
vn 0.2916908 0.739296 0.6069249
vn 0.8154199 0.05754327 0.5760027
vn 0.8189724 -0.3077258 -0.4843439
vn -0.9108725 -0.3655807 0.1914738
vn -0.9970185 0.07668374 0.008590974
vn -0.5048222 0.7744854 -0.3812175
vn 0.2728942 0.7356803 -0.619922
vn 0.7381364 0.03835468 -0.6735603
vn 0.246037 -0.2642978 -0.9325302
vn -0.502858 -0.2772578 -0.8186952
vn -0.7271162 0.04281946 -0.6851778
vn -0.3794911 0.4497081 -0.8085476
vn 0.06696608 0.4368039 -0.8970606
vn 0.281967 0.001205395 -0.9594234
vn -0.1102289 0.04540223 0.9928686
vn -0.1141639 0.0113066 -0.9933976
vn 0.4402175 0.8524343 -0.2820713
vn -0.526329 0.8474064 -0.06985799
vn -0.9770184 0.007973369 0.2130059
vn -0.9188944 -0.3341431 0.2097175
vn 0.9091476 -0.3591246 -0.2109028
vn 0.9727111 -0.01331901 -0.2316372
vn 0.5146627 0.853332 -0.08334737
vn -0.5369371 0.843595 0.00677218
vn -0.9880463 -0.06726553 0.1387072
vn -0.9072862 -0.3972671 0.1378781
vn 0.9352824 -0.351014 -0.04512316
vn 0.9968189 -0.04170894 -0.06791403
vn 0.5038688 0.860818 0.07147622
vn -0.5126154 0.8580339 0.03167263
vn -0.9972599 -0.007839331 -0.07356089
vn -0.9215425 -0.3567773 -0.153197
vn 0.9385869 -0.3436266 0.03123378
vn 0.9979714 -0.01785173 0.0611094
vn 0.4242021 0.8478612 0.3180942
vn -0.4919604 0.866695 0.08255145
vn -0.9594695 0.06775825 -0.2735454
vn -0.8979366 -0.2871181 -0.3335763
vn 0.9193239 -0.3415442 0.1954254
vn 0.9749011 0.01497237 0.2221344
vn 0.9017737 0.04697794 0.429648
vn -0.9678236 -4.266996E-07 -0.2516299
vn 0.9313388 -0.01445423 -0.3638667
vn -0.9984367 -0.003225687 0.05580057
vn 0.9982091 -0.0009495816 -0.05981426
vn -0.9984367 -0.003225687 0.05580057
vn -0.9984367 -0.003225687 0.05580057
vn 0.9982091 -0.0009495816 -0.05981426
vn 0.9982091 -0.0009495816 -0.05981426
vn 0.9313388 -0.01445423 -0.3638667
vn 0.9313388 -0.01445423 -0.3638667
vn 0.9313388 -0.01445423 -0.3638667
g poo_geo_0
f 49/49/49 7/7/7 51/51/51
f 12/12/12 7/7/7 49/49/49
f 50/50/50 12/12/12 49/49/49
f 11/11/11 12/12/12 50/50/50
f 45/45/45 11/11/11 50/50/50
f 46/46/46 11/11/11 45/45/45
f 40/40/40 46/46/46 45/45/45
f 41/41/41 46/46/46 40/40/40
f 34/34/34 41/41/41 40/40/40
f 35/35/35 41/41/41 34/34/34
f 28/28/28 35/35/35 34/34/34
f 29/29/29 35/35/35 28/28/28
f 16/16/16 29/29/29 28/28/28
f 15/15/15 29/29/29 16/16/16
f 22/22/22 15/15/15 16/16/16
f 21/21/21 15/15/15 22/22/22
f 26/26/26 21/21/21 22/22/22
f 20/20/20 21/21/21 26/26/26
f 19/19/19 20/20/20 26/26/26
f 23/23/23 22/22/22 16/16/16
f 17/17/17 23/23/23 16/16/16
f 24/24/24 23/23/23 17/17/17
f 18/18/18 24/24/24 17/17/17
f 13/13/13 24/24/24 18/18/18
f 31/31/31 13/13/13 18/18/18
f 61/61/61 13/13/13 31/31/31
f 60/60/60 61/61/61 31/31/31
f 62/62/62 61/61/61 53/53/53
f 13/13/13 61/61/61 62/62/62
f 36/36/36 35/35/35 29/29/29
f 30/30/30 36/36/36 29/29/29
f 57/57/57 36/36/36 30/30/30
f 54/54/54 57/57/57 30/30/30
f 56/56/56 36/36/36 57/57/57
f 39/39/39 40/40/40 45/45/45
f 33/33/33 40/40/40 39/39/39
f 44/44/44 33/33/33 39/39/39
f 38/38/38 33/33/33 44/44/44
f 43/43/43 38/38/38 44/44/44
f 37/37/37 38/38/38 43/43/43
f 55/55/55 37/37/37 43/43/43
f 59/59/59 37/37/37 55/55/55
f 55/55/55 43/43/43 58/58/58
f 6/6/6 1/1/1 7/7/7
f 25/25/25 1/1/1 6/6/6
f 5/5/5 25/25/25 6/6/6
f 4/4/4 25/25/25 5/5/5
f 10/10/10 4/4/4 5/5/5
f 9/9/9 4/4/4 10/10/10
f 47/47/47 9/9/9 10/10/10
f 48/48/48 9/9/9 47/47/47
f 42/42/42 48/48/48 47/47/47
f 52/52/52 48/48/48 42/42/42
f 8/8/8 9/9/9 48/48/48
f 3/3/3 9/9/9 8/8/8
f 2/2/2 3/3/3 8/8/8
f 25/25/25 3/3/3 2/2/2
f 1/1/1 25/25/25 2/2/2
f 15/15/15 30/30/30 29/29/29
f 14/14/14 30/30/30 15/15/15
f 21/21/21 14/14/14 15/15/15
f 20/20/20 14/14/14 21/21/21
f 26/26/26 22/22/22 23/23/23
f 24/24/24 26/26/26 23/23/23
f 19/19/19 26/26/26 24/24/24
f 13/13/13 19/19/19 24/24/24
f 17/17/17 16/16/16 28/28/28
f 27/27/27 17/17/17 28/28/28
f 32/32/32 17/17/17 27/27/27
f 38/38/38 32/32/32 27/27/27
f 31/31/31 32/32/32 38/38/38
f 37/37/37 31/31/31 38/38/38
f 11/11/11 5/5/5 6/6/6
f 10/10/10 5/5/5 11/11/11
f 46/46/46 10/10/10 11/11/11
f 47/47/47 10/10/10 46/46/46
f 41/41/41 47/47/47 46/46/46
f 42/42/42 47/47/47 41/41/41
f 35/35/35 42/42/42 41/41/41
f 36/36/36 42/42/42 35/35/35
f 44/44/44 49/49/49 43/43/43
f 50/50/50 49/49/49 44/44/44
f 45/45/45 50/50/50 44/44/44
f 3/3/3 4/4/4 9/9/9
f 25/25/25 4/4/4 3/3/3
f 12/12/12 6/6/6 7/7/7
f 11/11/11 6/6/6 12/12/12
f 32/32/32 18/18/18 17/17/17
f 31/31/31 18/18/18 32/32/32
f 33/33/33 34/34/34 40/40/40
f 28/28/28 34/34/34 33/33/33
f 27/27/27 28/28/28 33/33/33
f 33/33/33 38/38/38 27/27/27
f 39/39/39 45/45/45 44/44/44
