g popsicles_geo
v -0.05008781 0 0.16165
v 0.0500886 0 0.16165
v -0.05008781 0.3090134 0.16165
v 0.0500886 0.3090134 0.16165
v -0.05008781 0.3090134 -0.1616473
v 0.0500886 0.3090134 -0.1616473
v -0.05008781 0 -0.1616473
v 0.0500886 0 -0.1616473
v -0.05008781 0 -0.1616473
v -0.05008781 0.3090134 0.16165
v -0.05008781 0 0.16165
v -0.05008781 0.3090134 -0.1616473
v 0.0500886 0.3090134 0.16165
v 0.0500886 0 -0.1616473
v 0.0500886 0 0.16165
v 0.0500886 0.3090134 -0.1616473
v 0.0500886 0.3090134 -0.1616473
v -0.05008781 0.3090134 0.16165
v -0.05008781 0.3090134 -0.1616473
v 0.0500886 0.3090134 0.16165
vt 0.425092 0.5699718
vt 0.425092 0.5699718
vt 0.425092 0.9942322
vt 0.425092 0.9942322
vt 0.006556541 0.9914436
vt 0.006556541 0.9914436
vt 0.006556511 0.5699718
vt 0.006556511 0.5699718
vt 0.003086075 0.5699719
vt 0.4293464 0.9942322
vt 0.4293464 0.5699719
vt 0.00308609 0.9942322
vt 0.00308609 0.9942322
vt 0.4293464 0.5699719
vt 0.00308609 0.5699719
vt 0.4293464 0.9942322
vt 0.00308609 0.9914619
vt 0.4293464 0.991462
vt 0.00308609 0.9914619
vt 0.4293464 0.991462
vn -0.7071068 0 0.7071068
vn 0.7071068 0 0.7071068
vn -0.5773502 0.5773503 0.5773503
vn 0.5773502 0.5773503 0.5773503
vn -0.5773502 0.5773503 -0.5773503
vn 0.5773502 0.5773503 -0.5773503
vn -0.7071068 0 -0.7071068
vn 0.7071068 0 -0.7071068
vn -0.7071068 0 -0.7071068
vn -0.5773502 0.5773503 0.5773503
vn -0.7071068 0 0.7071068
vn -0.5773502 0.5773503 -0.5773503
vn 0.5773502 0.5773503 0.5773503
vn 0.7071068 0 -0.7071068
vn 0.7071068 0 0.7071068
vn 0.5773502 0.5773503 -0.5773503
vn 0.5773502 0.5773503 -0.5773503
vn -0.5773502 0.5773503 0.5773503
vn -0.5773502 0.5773503 -0.5773503
vn 0.5773502 0.5773503 0.5773503
g popsicles_geo_0
f 4/4/4 1/1/1 2/2/2
f 3/3/3 1/1/1 4/4/4
f 8/8/8 5/5/5 6/6/6
f 7/7/7 5/5/5 8/8/8
f 10/10/10 9/9/9 11/11/11
f 12/12/12 9/9/9 10/10/10
f 14/14/14 13/13/13 15/15/15
f 16/16/16 13/13/13 14/14/14
f 18/18/18 17/17/17 19/19/19
f 20/20/20 17/17/17 18/18/18
