g propane_geo
v 0.0883551 0.03168817 -0.1530351
v -0.0883548 0.03168817 -0.1530351
v -0.1767096 0.03168817 -2.633181E-08
v -0.0883548 0.03168817 0.1530351
v 0.0883551 0.03168817 0.1530351
v 0.1767096 0.03168817 0
v 0.05248428 0.3144133 -0.0909052
v -0.05248398 0.3144133 -0.09090523
v -0.1049683 0.3144133 -1.90103E-08
v -0.05248413 0.3144133 0.0909052
v 0.05248428 0.3144133 0.0909052
v 0.1049683 0.3144133 -3.368807E-09
v 0 0.03168817 0
v -0.0883548 0.2523393 0.1530351
v -0.1767096 0.2523393 -2.633181E-08
v -0.0883548 0.2523393 -0.1530351
v 0.0883551 0.2523393 -0.1530351
v 0.1767096 0.2523393 0
v 0.0883551 0.2523393 0.1530351
v 0.05248428 0.3697179 -0.0909052
v -0.05248398 0.3697179 -0.09090523
v -0.1049683 0.3697179 -1.90103E-08
v -0.05248413 0.3697179 0.0909052
v 0.05248428 0.3697179 0.09090522
v 0.1049683 0.3697179 -3.368807E-09
v 0.04373688 0.3697179 -0.07575433
v -0.04373672 0.3697179 -0.07575437
v -0.0874736 0.3697179 -1.63737E-08
v -0.04373688 0.3697179 0.07575433
v 0.04373688 0.3697179 0.07575434
v 0.0874736 0.3697179 -3.447421E-09
v 0.04373688 0.3144133 -0.07575433
v -0.04373672 0.3144133 -0.07575437
v -0.0874736 0.3144133 -1.63737E-08
v -0.04373688 0.3144133 0.07575433
v 0.04373688 0.3144133 0.07575434
v 0.0874736 0.3144133 -3.447421E-09
v 0.07847457 -1.519851E-08 -0.1359216
v -0.07847427 -1.519851E-08 -0.1359216
v -0.1569487 -1.519851E-08 -2.338719E-08
v -0.07847442 -1.519851E-08 0.1359216
v 0.07847457 -1.519851E-08 0.1359216
v 0.1569488 -1.519851E-08 0
v 0.07847457 0.03168807 -0.1359216
v -0.07847427 0.03168807 -0.1359216
v -0.1569487 0.03168807 -2.338719E-08
v -0.07847442 0.03168807 0.1359216
v 0.07847457 0.03168807 0.1359216
v 0.1569488 0.03168807 0
v 0 -1.519851E-08 0
v 0 0.3396992 0.0140205
v 0.01402039 0.3537198 0.0140205
v 0 0.3396992 0.07606713
v 0.01402039 0.3537198 0.07606713
v -0.01402054 0.3537198 0.07606713
v 0 0.3677403 0.07606713
v -0.01402054 0.3537198 0.0140205
v 0 0.3677403 0.0140205
v 0 0.3183448 0.0140205
v 0.01402039 0.3183448 -1.549721E-08
v 0.01402069 0.3396993 -1.549721E-08
v -0.01402054 0.3396993 -1.549721E-08
v 0 0.3396993 -0.01402053
v -0.01402054 0.3183448 -1.549721E-08
v 0 0.3183448 -0.01402053
v -0.02323974 0.3711659 0.02077479
v 0.0002416992 0.3711659 0.03742266
v 0.02333114 0.3711659 0.02023481
v 0.01411941 0.3711659 -0.007035732
v -0.01466293 0.3711659 -0.006701995
v -0.01965363 0.3820933 0.01991522
v 0.000211792 0.3820933 0.03399915
v 0.01974487 0.3820933 0.01945839
v 0.0119519 0.3820933 -0.003612218
v -0.01239761 0.3820933 -0.003329884
v -1.831055E-05 0.3711659 0.01354871
v -0.006600342 0.3820933 0.01603529
v 7.247925E-05 0.3820933 0.02076617
v 0.006633759 0.3820933 0.01588184
v 0.004016113 0.3820933 0.008132285
v -0.004163055 0.3820933 0.008227122
v -0.01285278 0.01011794 0.142364
v 0.01285263 0.01011794 0.142364
v -0.02628052 0.03168816 0.142364
v 0.02628036 0.03168816 0.142364
v 0.1168645 0.01011794 0.0823128
v 0.1297174 0.01011794 0.06005121
v 0.1101506 0.03168816 0.09394157
v 0.1364313 0.03168816 0.04842244
v 0.1297174 0.01011794 -0.06005121
v 0.1168645 0.01011794 -0.0823128
v 0.1364313 0.03168816 -0.04842244
v 0.1101506 0.03168816 -0.09394157
v 0.01285263 0.01011794 -0.142364
v -0.01285278 0.01011794 -0.142364
v 0.02628036 0.03168816 -0.142364
v -0.02628052 0.03168816 -0.142364
v -0.1168645 0.01011794 -0.0823128
v -0.1297172 0.01011794 -0.06005121
v -0.1101506 0.03168816 -0.09394157
v -0.1364311 0.03168816 -0.04842244
v -0.1297172 0.01011794 0.06005121
v -0.1168645 0.01011794 0.0823128
v -0.1364311 0.03168816 0.04842244
v -0.1101506 0.03168816 0.09394157
v -0.1767096 0.2523393 -2.633181E-08
v -0.0883548 0.2523393 0.1530351
v -0.0883548 0.2523393 -0.1530351
v 0.0883551 0.2523393 -0.1530351
v 0.1767096 0.2523393 0
v 0.0883551 0.2523393 0.1530351
v 0.05248428 0.3144133 -0.0909052
v -0.05248398 0.3144133 -0.09090523
v -0.1049683 0.3144133 -1.90103E-08
v -0.05248413 0.3144133 0.0909052
v 0.05248428 0.3144133 0.0909052
v 0.1049683 0.3144133 -3.368807E-09
v 0.05248428 0.3697179 -0.0909052
v -0.05248398 0.3697179 -0.09090523
v -0.1049683 0.3697179 -1.90103E-08
v -0.05248413 0.3697179 0.0909052
v 0.05248428 0.3697179 0.09090522
v 0.1049683 0.3697179 -3.368807E-09
v 0.04373688 0.3697179 -0.07575433
v -0.04373672 0.3697179 -0.07575437
v -0.0874736 0.3697179 -1.63737E-08
v -0.04373688 0.3697179 0.07575433
v -0.05248413 0.3144133 0.0909052
v -0.05248413 0.3697179 0.0909052
v -0.04373688 0.3144133 0.07575433
v -0.04373688 0.3697179 0.07575433
v 0.05248428 0.3697179 0.09090522
v 0.04373688 0.3697179 0.07575434
v 0.05248428 0.3144133 0.0909052
v 0.04373688 0.3697179 0.07575434
v 0.0874736 0.3697179 -3.447421E-09
v 0.04373688 0.3144133 0.07575434
v -0.04373688 0.3144133 0.07575433
v 0.05248428 0.3144133 0.0909052
v -0.05248413 0.3144133 0.0909052
v 0.04373688 0.3144133 0.07575434
v -0.0874736 0.3144133 -1.63737E-08
v -0.04373672 0.3144133 -0.07575437
v 0.04373688 0.3144133 -0.07575433
v 0.0874736 0.3144133 -3.447421E-09
v 0 0.3396992 0.07606713
v 0.01402039 0.3537198 0.07606713
v -0.01402054 0.3537198 0.07606713
v 0 0.3677403 0.07606713
v 0 0.3183448 0.0140205
v 0 0.3396992 0.0140205
v -0.006600342 0.3820933 0.01603529
v -0.004163055 0.3820933 0.008227122
v 7.247925E-05 0.3820933 0.02076617
v 0.006633759 0.3820933 0.01588184
v 0.004016113 0.3820933 0.008132285
vt 0.1470472 0.9578143
vt 0.1470472 0.9578143
vt 0.1470472 0.9578143
vt 0.1470472 0.9578143
vt 0.1470472 0.9578143
vt 0.1470472 0.9578143
vt 0.1462909 0.9835292
vt 0.1462909 0.9835292
vt 0.1462909 0.9835292
vt 0.1462909 0.9835292
vt 0.1462909 0.9835292
vt 0.1462909 0.9835292
vt 0.1470472 0.9578143
vt 0.1470472 0.9578143
vt 0.1470472 0.9578143
vt 0.1470472 0.9578143
vt 0.1470472 0.9578143
vt 0.1470472 0.9578143
vt 0.1470472 0.9578143
vt 0.1470472 0.9578143
vt 0.1470472 0.9578143
vt 0.1470472 0.9578143
vt 0.1470472 0.9578143
vt 0.1470472 0.9578143
vt 0.1470472 0.9578143
vt 0.1470472 0.9945606
vt 0.1470472 0.9945606
vt 0.1470472 0.9945606
vt 0.1470472 0.9945606
vt 0.1470472 0.9945606
vt 0.1470472 0.9945606
vt 0.1569298 0.9578143
vt 0.1569298 0.9578143
vt 0.1569298 0.9578143
vt 0.154852 0.9578143
vt 0.154852 0.9578143
vt 0.1569298 0.9578143
vt 0.155133 0.9254715
vt 0.155133 0.9254715
vt 0.155133 0.9254715
vt 0.155133 0.9254715
vt 0.155133 0.9254715
vt 0.155133 0.9254715
vt 0.155133 0.9254715
vt 0.155133 0.9254715
vt 0.155133 0.9254715
vt 0.155133 0.9254715
vt 0.155133 0.9254715
vt 0.155133 0.9254715
vt 0.155133 0.9254715
vt 0.03984718 0.9657012
vt 0.03026366 0.9883989
vt 0.03984718 0.9657012
vt 0.03026366 0.9883989
vt 0.04236915 0.923332
vt 0.04236913 0.923332
vt 0.03026369 0.988399
vt 0.03026366 0.988399
vt 0.03984718 0.9657012
vt 0.03026366 0.9883989
vt 0.03026366 0.9883989
vt 0.03026368 0.9883989
vt 0.03026366 0.9883989
vt 0.03026368 0.9883989
vt 0.03026366 0.9883989
vt 0.1775799 0.9717987
vt 0.1775799 0.9717987
vt 0.1775799 0.9717987
vt 0.1775799 0.9717987
vt 0.1775799 0.9717987
vt 0.1775799 0.9717987
vt 0.1775799 0.9717987
vt 0.1775799 0.9717987
vt 0.1775799 0.9717987
vt 0.1775799 0.9717987
vt 0.1775799 0.9717987
vt 0.03041715 0.9933149
vt 0.03041715 0.9933149
vt 0.03041715 0.9933149
vt 0.03041715 0.9933149
vt 0.03041715 0.9933149
vt 0 1
vt 0 1
vt 0 1
vt 0 1
vt 0 1
vt 0 1
vt 0 1
vt 0 1
vt 0 1
vt 0 1
vt 0 1
vt 0 1
vt 0 1
vt 0 1
vt 0 1
vt 0 1
vt 0 1
vt 0 1
vt 0 1
vt 0 1
vt 0 1
vt 0 1
vt 0 1
vt 0 1
vt 0.1462909 0.9835292
vt 0.1462909 0.9835292
vt 0.1462909 0.9835292
vt 0.1462909 0.9835292
vt 0.1462909 0.9835292
vt 0.1462909 0.9835292
vt 0.1470472 0.9578143
vt 0.1470472 0.9578143
vt 0.1470472 0.9578143
vt 0.1470472 0.9578143
vt 0.1470472 0.9578143
vt 0.1470472 0.9578143
vt 0.1470472 0.9945606
vt 0.1470472 0.9945606
vt 0.1470472 0.9945606
vt 0.1470472 0.9945606
vt 0.1470472 0.9945606
vt 0.1470472 0.9945606
vt 0.1569298 0.9578143
vt 0.1569298 0.9578143
vt 0.1569298 0.9578143
vt 0.154852 0.9578143
vt 0.154852 0.9578143
vt 0.154852 0.9578143
vt 0.1569298 0.9578143
vt 0.1569298 0.9578143
vt 0.154852 0.9578143
vt 0.154852 0.9578143
vt 0.154852 0.9578143
vt 0.1569298 0.9578143
vt 0.1569298 0.9578143
vt 0.1569298 0.9578143
vt 0.1470472 0.9945606
vt 0.1470472 0.9945606
vt 0.1470472 0.9945606
vt 0.1470472 0.9945606
vt 0.1470472 0.9945606
vt 0.1470472 0.9945606
vt 0.1470472 0.9945606
vt 0.1470472 0.9945606
vt 0.04236915 0.923332
vt 0.04236913 0.923332
vt 0.03026368 0.9883989
vt 0.03026366 0.9883989
vt 0.03026369 0.9883989
vt 0.03026368 0.9883989
vt 0.1775799 0.9717987
vt 0.1775799 0.9717987
vt 0.1775799 0.9717987
vt 0.1775799 0.9717987
vt 0.1775799 0.9717987
vn 0.3273273 -0.7559291 -0.5669463
vn -0.3273269 -0.755929 -0.5669466
vn -0.6546537 -0.7559289 0
vn -0.327327 -0.755929 0.5669466
vn 0.3273273 -0.7559291 0.5669463
vn 0.6546541 -0.7559286 0
vn 0.4510087 0.4317022 -0.7811685
vn -0.4510077 0.431702 -0.7811692
vn -0.9020163 0.431702 -4.001076E-07
vn -0.1893434 0.7470015 0.6372895
vn 0.1893446 0.7470007 0.63729
vn 0.9020164 0.4317019 0
vn 0 -1 0
vn -0.4510083 0.431702 0.7811689
vn -0.9020163 0.4317019 0
vn -0.4510081 0.4317021 -0.7811691
vn 0.4510088 0.4317023 -0.7811685
vn 0.9020164 0.4317018 0
vn 0.4510087 0.4317023 0.7811685
vn 0.3273273 0.7559292 -0.5669461
vn -0.3273266 0.7559291 -0.5669468
vn -0.6546536 0.755929 -3.516668E-07
vn 1.770172E-06 0.7071087 0.7071048
vn 1.222259E-06 0.7071068 0.7071068
vn 0.654654 0.7559288 -1.214303E-07
vn -0.3273271 0.7559288 0.5669467
vn 0.3273264 0.7559288 0.5669472
vn 0.6546537 0.7559289 5.181541E-07
vn 0.8660258 0.4999993 -2.33948E-06
vn -0.8660253 0.5000002 8.04663E-07
vn -0.6546538 0.7559288 0
vn -0.4330131 0.5000001 0.7499997
vn 0.4330123 0.5 0.7500002
vn 0.8660254 0.5 4.894878E-07
vn 0.6546543 0.7559284 -8.325356E-07
vn -0.6546535 0.7559291 1.634328E-06
vn -0.8660255 0.4999999 0
vn 0.327327 -0.755929 -0.5669466
vn -0.3273267 -0.7559289 -0.5669468
vn -0.6546537 -0.7559289 -3.153981E-07
vn -0.327327 -0.7559291 0.5669466
vn 0.327327 -0.7559291 0.5669466
vn 0.6546538 -0.7559288 0
vn 0.5000004 0 -0.8660253
vn -0.4999997 0 -0.8660255
vn -1 0 -4.817786E-07
vn -0.5000003 0 0.8660253
vn 0.5000002 0 0.8660253
vn 1 0 0
vn 0 -1 0
vn 1.378144E-06 -0.707105 0.7071084
vn 1 3.410724E-06 2.94668E-06
vn 2.202421E-06 -0.8164958 0.5773514
vn 0.816498 0 0.5773481
vn -0.8164966 0 0.5773503
vn 2.202421E-06 0.8164958 0.5773514
vn -1 3.712365E-07 5.336524E-07
vn 1.269762E-06 0.9120959 -0.4099769
vn 0 -0.5773523 0.8164951
vn 0.8164937 -0.5773544 -7.914911E-07
vn 1 -5.336524E-07 2.784273E-06
vn -1 3.712366E-07 3.24832E-07
vn 0 0.4099773 -0.9120958
vn -0.8164965 -0.5773505 -8.603192E-07
vn 0 -0.5773516 -0.8164957
vn -0.6877849 -0.6868739 0.2348536
vn 0.008421164 -0.6932257 0.7206714
vn 0.6926416 -0.6873392 0.2186608
vn 0.4269717 -0.677112 -0.5993451
vn -0.4408224 -0.6768177 -0.5895706
vn -0.4977352 0.8505139 0.1699581
vn 0.006224948 0.8462676 0.5327216
vn 0.5020227 0.8502092 0.1584849
vn 0.2993141 0.8566715 -0.4201488
vn -0.3087312 0.8568506 -0.4129067
vn 0 -1 -7.092092E-07
vn 0 1 -1.834233E-06
vn 0 1 -2.188195E-06
vn 0 1 -7.653522E-07
vn 0 1 0
vn 0 1 -7.69153E-07
vn 0 0 1
vn 0 0 1
vn 0 0 1
vn 0 0 1
vn 0.8660233 0 0.5000038
vn 0.8660233 0 0.5000038
vn 0.8660233 0 0.5000038
vn 0.8660233 0 0.5000038
vn 0.8660233 2.259585E-07 -0.5000038
vn 0.8660233 2.259585E-07 -0.5000038
vn 0.8660233 2.259585E-07 -0.5000038
vn 0.8660233 2.259585E-07 -0.5000038
vn 0 0 -1
vn 0 0 -1
vn 0 0 -1
vn 0 0 -1
vn -0.866025 0 -0.5000007
vn -0.866025 0 -0.5000007
vn -0.866025 0 -0.5000007
vn -0.866025 0 -0.5000007
vn -0.866025 -1.129795E-07 0.5000007
vn -0.866025 -1.129795E-07 0.5000007
vn -0.866025 -1.129795E-07 0.5000007
vn -0.866025 -1.129795E-07 0.5000007
vn -0.9020163 0.4317019 0
vn -0.4510083 0.431702 0.7811689
vn -0.4510081 0.4317021 -0.7811691
vn 0.4510088 0.4317023 -0.7811685
vn 0.9020164 0.4317018 0
vn 0.4510087 0.4317023 0.7811685
vn 0.4510087 0.4317022 -0.7811685
vn -0.4510077 0.431702 -0.7811692
vn -0.9020163 0.431702 -4.001076E-07
vn -0.1893434 0.7470015 0.6372895
vn 0.1893446 0.7470007 0.63729
vn 0.9020164 0.4317019 0
vn 0.3273273 0.7559292 -0.5669461
vn -0.3273266 0.7559291 -0.5669468
vn -0.6546536 0.755929 -3.516668E-07
vn 1.770172E-06 0.7071087 0.7071048
vn 1.222259E-06 0.7071068 0.7071068
vn 0.654654 0.7559288 -1.214303E-07
vn -0.3273271 0.7559288 0.5669467
vn 0.3273264 0.7559288 0.5669472
vn 0.6546537 0.7559289 5.181541E-07
vn 0.8660258 0.4999993 -2.33948E-06
vn -0.1893434 0.7470015 0.6372895
vn 1.770172E-06 0.7071087 0.7071048
vn 0.6546543 0.7559284 -8.325356E-07
vn 0.8660258 0.4999993 -2.33948E-06
vn 1.222259E-06 0.7071068 0.7071068
vn -0.8660253 0.5000002 8.04663E-07
vn 0.1893446 0.7470007 0.63729
vn -0.8660253 0.5000002 8.04663E-07
vn -0.6546538 0.7559288 0
vn -0.6546535 0.7559291 1.634328E-06
vn 0.6546543 0.7559284 -8.325356E-07
vn 0.1893446 0.7470007 0.63729
vn -0.1893434 0.7470015 0.6372895
vn -0.6546535 0.7559291 1.634328E-06
vn 0.8660254 0.5 4.894878E-07
vn 0.4330123 0.5 0.7500002
vn -0.4330131 0.5000001 0.7499997
vn -0.8660255 0.4999999 0
vn 2.202421E-06 -0.8164958 0.5773514
vn 0.816498 0 0.5773481
vn -0.8164966 0 0.5773503
vn 2.202421E-06 0.8164958 0.5773514
vn 0 -0.5773523 0.8164951
vn 1.378144E-06 -0.707105 0.7071084
vn 0 1 -1.834233E-06
vn 0 1 -7.69153E-07
vn 0 1 -2.188195E-06
vn 0 1 -7.653522E-07
vn 0 1 0
g propane_geo_0
f 25/25/25 24/24/24 116/116/116
f 117/117/117 25/25/25 116/116/116
f 20/20/20 25/25/25 117/117/117
f 112/112/112 20/20/20 117/117/117
f 21/21/21 20/20/20 112/112/112
f 113/113/113 21/21/21 112/112/112
f 22/22/22 21/21/21 113/113/113
f 114/114/114 22/22/22 113/113/113
f 23/23/23 22/22/22 114/114/114
f 115/115/115 23/23/23 114/114/114
f 31/31/31 30/30/30 122/122/122
f 123/123/123 31/31/31 122/122/122
f 26/26/26 31/31/31 123/123/123
f 118/118/118 26/26/26 123/123/123
f 27/27/27 26/26/26 118/118/118
f 119/119/119 27/27/27 118/118/118
f 28/28/28 27/27/27 119/119/119
f 120/120/120 28/28/28 119/119/119
f 29/29/29 28/28/28 120/120/120
f 121/121/121 29/29/29 120/120/120
f 128/128/128 127/127/127 129/129/129
f 35/35/35 127/127/127 128/128/128
f 37/37/37 137/137/137 135/135/135
f 136/136/136 37/37/37 135/135/135
f 32/32/32 37/37/37 136/136/136
f 124/124/124 32/32/32 136/136/136
f 33/33/33 32/32/32 124/124/124
f 125/125/125 33/33/33 124/124/124
f 34/34/34 33/33/33 125/125/125
f 126/126/126 34/34/34 125/125/125
f 130/130/130 34/34/34 126/126/126
f 131/131/131 130/130/130 126/126/126
f 36/36/36 132/132/132 133/133/133
f 134/134/134 132/132/132 36/36/36
f 138/138/138 141/141/141 145/145/145
f 139/139/139 141/141/141 138/138/138
f 140/140/140 139/139/139 138/138/138
f 142/142/142 144/144/144 143/143/143
f 145/145/145 144/144/144 142/142/142
f 138/138/138 145/145/145 142/142/142
f 56/56/56 146/146/146 147/147/147
f 55/55/55 146/146/146 56/56/56
f 58/58/58 148/148/148 149/149/149
f 57/57/57 148/148/148 58/58/58
f 63/63/63 57/57/57 58/58/58
f 62/62/62 57/57/57 63/63/63
f 65/65/65 62/62/62 63/63/63
f 64/64/64 62/62/62 65/65/65
f 60/60/60 64/64/64 65/65/65
f 150/150/150 64/64/64 60/60/60
f 61/61/61 52/52/52 151/151/151
f 58/58/58 52/52/52 61/61/61
f 63/63/63 58/58/58 61/61/61
f 57/57/57 62/62/62 151/151/151
f 79/79/79 77/77/77 78/78/78
f 81/81/81 77/77/77 79/79/79
f 80/80/80 81/81/81 79/79/79
f 85/85/85 82/82/82 83/83/83
f 84/84/84 82/82/82 85/85/85
f 89/89/89 86/86/86 87/87/87
f 88/88/88 86/86/86 89/89/89
f 93/93/93 90/90/90 91/91/91
f 92/92/92 90/90/90 93/93/93
f 97/97/97 94/94/94 95/95/95
f 96/96/96 94/94/94 97/97/97
f 101/101/101 98/98/98 99/99/99
f 100/100/100 98/98/98 101/101/101
f 105/105/105 102/102/102 103/103/103
f 104/104/104 102/102/102 105/105/105
f 2/2/2 16/16/16 1/1/1
f 15/15/15 16/16/16 2/2/2
f 3/3/3 15/15/15 2/2/2
f 14/14/14 15/15/15 3/3/3
f 4/4/4 14/14/14 3/3/3
f 19/19/19 14/14/14 4/4/4
f 5/5/5 19/19/19 4/4/4
f 18/18/18 19/19/19 5/5/5
f 6/6/6 18/18/18 5/5/5
f 17/17/17 18/18/18 6/6/6
f 1/1/1 17/17/17 6/6/6
f 16/16/16 17/17/17 1/1/1
f 9/9/9 106/106/106 10/10/10
f 108/108/108 106/106/106 9/9/9
f 8/8/8 108/108/108 9/9/9
f 109/109/109 108/108/108 8/8/8
f 7/7/7 109/109/109 8/8/8
f 110/110/110 109/109/109 7/7/7
f 12/12/12 110/110/110 7/7/7
f 111/111/111 110/110/110 12/12/12
f 11/11/11 111/111/111 12/12/12
f 107/107/107 111/111/111 11/11/11
f 10/10/10 107/107/107 11/11/11
f 106/106/106 107/107/107 10/10/10
f 39/39/39 45/45/45 38/38/38
f 46/46/46 45/45/45 39/39/39
f 40/40/40 46/46/46 39/39/39
f 47/47/47 46/46/46 40/40/40
f 41/41/41 47/47/47 40/40/40
f 48/48/48 47/47/47 41/41/41
f 42/42/42 48/48/48 41/41/41
f 49/49/49 48/48/48 42/42/42
f 43/43/43 49/49/49 42/42/42
f 44/44/44 49/49/49 43/43/43
f 38/38/38 44/44/44 43/43/43
f 45/45/45 44/44/44 38/38/38
f 53/53/53 148/148/148 57/57/57
f 51/51/51 53/53/53 57/57/57
f 54/54/54 53/53/53 51/51/51
f 52/52/52 54/54/54 51/51/51
f 149/149/149 54/54/54 52/52/52
f 58/58/58 149/149/149 52/52/52
f 51/51/51 62/62/62 64/64/64
f 59/59/59 51/51/51 64/64/64
f 61/61/61 51/51/51 59/59/59
f 60/60/60 61/61/61 59/59/59
f 63/63/63 61/61/61 60/60/60
f 65/65/65 63/63/63 60/60/60
f 71/71/71 154/154/154 152/152/152
f 72/72/72 154/154/154 71/71/71
f 66/66/66 72/72/72 71/71/71
f 67/67/67 72/72/72 66/66/66
f 76/76/76 67/67/67 66/66/66
f 68/68/68 67/67/67 76/76/76
f 69/69/69 68/68/68 76/76/76
f 74/74/74 68/68/68 69/69/69
f 75/75/75 74/74/74 69/69/69
f 153/153/153 74/74/74 75/75/75
f 152/152/152 153/153/153 75/75/75
f 156/156/156 74/74/74 153/153/153
f 73/73/73 74/74/74 156/156/156
f 155/155/155 73/73/73 156/156/156
f 72/72/72 73/73/73 155/155/155
f 154/154/154 72/72/72 155/155/155
f 13/13/13 1/1/1 6/6/6
f 2/2/2 1/1/1 13/13/13
f 3/3/3 2/2/2 13/13/13
f 13/13/13 4/4/4 3/3/3
f 5/5/5 4/4/4 13/13/13
f 6/6/6 5/5/5 13/13/13
f 50/50/50 38/38/38 43/43/43
f 39/39/39 38/38/38 50/50/50
f 40/40/40 39/39/39 50/50/50
f 50/50/50 41/41/41 40/40/40
f 42/42/42 41/41/41 50/50/50
f 43/43/43 42/42/42 50/50/50
f 73/73/73 68/68/68 74/74/74
f 67/67/67 68/68/68 73/73/73
f 72/72/72 67/67/67 73/73/73
f 70/70/70 69/69/69 76/76/76
f 75/75/75 69/69/69 70/70/70
f 71/71/71 75/75/75 70/70/70
f 152/152/152 75/75/75 71/71/71
f 70/70/70 66/66/66 71/71/71
f 76/76/76 66/66/66 70/70/70
