g prp_axeBodySpray_geo
v -0.064216 0 -4.440125E-10
v -0.05195183 0 0.03774521
v -0.01984381 0 0.06107307
v 0.01984384 0 0.06107307
v 0.05195183 0 0.03774521
v 0.064216 0 -4.440125E-10
v 9.852806E-10 0 -4.440125E-10
v 9.852806E-10 0.3213147 -4.440125E-10
v -0.05195183 0.2096204 0.03774521
v -0.064216 0.2096204 -4.440125E-10
v 0.064216 0.2096204 -4.440125E-10
v 0.05195183 0.2096204 0.03774521
v 0.01984384 0.2096204 0.06107307
v -0.01984384 0.2096204 0.06107307
v -0.05195183 0.1725099 0.03774521
v -0.064216 0.1725099 -4.440125E-10
v 0.064216 0.1725099 -4.440125E-10
v 0.05195183 0.1725099 0.03774521
v 0.01984384 0.1725099 0.06107307
v -0.01984384 0.1725099 0.06107307
v -0.01804543 0.2096204 0.0555381
v -0.04724358 0.2096204 0.03432446
v -0.05839622 0.2096204 -4.440125E-10
v 0.05839622 0.2096204 -4.440125E-10
v 0.04724358 0.2096204 0.03432449
v 0.01804543 0.2096204 0.0555381
v -0.01804543 0.1840622 0.0555381
v -0.04724358 0.1840622 0.03432446
v -0.05839622 0.1840622 -4.440125E-10
v 0.05839622 0.1840622 -4.440125E-10
v 0.04724358 0.1840622 0.03432449
v 0.01804543 0.1840622 0.0555381
v -0.064216 0.3142325 -4.440125E-10
v -0.054217 0.3213147 -4.440125E-10
v -0.05195183 0.3142325 0.03774521
v -0.0438625 0.3213147 0.03186794
v -0.01984381 0.3142325 0.06107307
v -0.01675398 0.3213147 0.05156342
v 0.01984384 0.3142325 0.06107307
v 0.01675398 0.3213147 0.05156342
v 0.05195183 0.3142325 0.03774521
v 0.0438625 0.3213147 0.03186794
v 0.064216 0.3142325 -4.440125E-10
v 0.054217 0.3213147 -4.440125E-10
v -0.05195183 0 -0.03774521
v -0.05195183 0.1725099 -0.03774521
v -0.01984381 0 -0.06107307
v -0.01984384 0.1725099 -0.06107307
v 0.01984384 0 -0.06107307
v 0.01984384 0.1725099 -0.06107307
v 0.05195183 0 -0.03774521
v 0.05195183 0.1725099 -0.03774521
v -0.0438625 0.3213147 -0.03186794
v -0.01675398 0.3213147 -0.05156342
v 0.01675398 0.3213147 -0.05156342
v 0.0438625 0.3213147 -0.03186794
v -0.05195183 0.2096204 -0.03774521
v -0.05195183 0.3142325 -0.03774521
v 0.05195183 0.2096204 -0.03774521
v 0.05195183 0.3142325 -0.03774521
v 0.01984384 0.2096204 -0.06107307
v 0.01984384 0.3142325 -0.06107307
v -0.01984384 0.2096204 -0.06107307
v -0.01984381 0.3142325 -0.06107307
v -0.04724358 0.1840622 -0.03432446
v 0.04724358 0.1840622 -0.03432449
v 0.01804543 0.1840622 -0.0555381
v -0.01804543 0.1840622 -0.0555381
v -0.04724358 0.2096204 -0.03432446
v -0.01804543 0.2096204 -0.0555381
v 0.04724358 0.2096204 -0.03432449
v 0.01804543 0.2096204 -0.0555381
v -0.05195183 0 0.03774521
v -0.064216 0 -4.440125E-10
v -0.01984381 0 0.06107307
v 0.01984384 0 0.06107307
v 0.05195183 0 0.03774521
v 0.064216 0 -4.440125E-10
v -0.064216 0.1725099 -4.440125E-10
v -0.05195183 0.1725099 0.03774521
v 0.05195183 0.1725099 0.03774521
v 0.064216 0.1725099 -4.440125E-10
v 0.01984384 0.1725099 0.06107307
v -0.01984384 0.1725099 0.06107307
v -0.01984384 0.2096204 0.06107307
v -0.05195183 0.2096204 0.03774521
v -0.064216 0.2096204 -4.440125E-10
v 0.064216 0.2096204 -4.440125E-10
v 0.05195183 0.2096204 0.03774521
v 0.01984384 0.2096204 0.06107307
v -0.04724358 0.1840622 0.03432446
v -0.01804543 0.2096204 0.0555381
v -0.01804543 0.1840622 0.0555381
v -0.04724358 0.2096204 0.03432446
v -0.05839622 0.1840622 -4.440125E-10
v -0.05839622 0.2096204 -4.440125E-10
v 0.04724358 0.1840622 0.03432449
v 0.05839622 0.2096204 -4.440125E-10
v 0.05839622 0.1840622 -4.440125E-10
v 0.04724358 0.2096204 0.03432449
v 0.01804543 0.1840622 0.0555381
v 0.01804543 0.2096204 0.0555381
v -0.054217 0.3213147 -4.440125E-10
v -0.05195183 0.3142325 0.03774521
v -0.064216 0.3142325 -4.440125E-10
v -0.0438625 0.3213147 0.03186794
v -0.01984381 0.3142325 0.06107307
v -0.01675398 0.3213147 0.05156342
v 0.01984384 0.3142325 0.06107307
v 0.01675398 0.3213147 0.05156342
v 0.05195183 0.3142325 0.03774521
v 0.0438625 0.3213147 0.03186794
v 0.064216 0.3142325 -4.440125E-10
v 0.054217 0.3213147 -4.440125E-10
v -0.064216 0 -4.440125E-10
v -0.064216 0.1725099 -4.440125E-10
v 0.064216 0.1725099 -4.440125E-10
v 0.064216 0 -4.440125E-10
v -0.05195183 0 -0.03774521
v -0.064216 0 -4.440125E-10
v 9.852806E-10 0 -4.440125E-10
v -0.01984381 0 -0.06107307
v 0.01984384 0 -0.06107307
v 0.05195183 0 -0.03774521
v 0.064216 0 -4.440125E-10
v -0.054217 0.3213147 -4.440125E-10
v 9.852806E-10 0.3213147 -4.440125E-10
v 0.054217 0.3213147 -4.440125E-10
v -0.064216 0.2096204 -4.440125E-10
v -0.064216 0.3142325 -4.440125E-10
v 0.064216 0.3142325 -4.440125E-10
v 0.064216 0.2096204 -4.440125E-10
v -0.064216 0.1725099 -4.440125E-10
v -0.05839622 0.1840622 -4.440125E-10
v -0.05195183 0.1725099 -0.03774521
v 0.05195183 0.1725099 -0.03774521
v 0.05839622 0.1840622 -4.440125E-10
v 0.064216 0.1725099 -4.440125E-10
v 0.01984384 0.1725099 -0.06107307
v -0.01984384 0.1725099 -0.06107307
v -0.01984384 0.2096204 -0.06107307
v -0.05195183 0.2096204 -0.03774521
v -0.05839622 0.2096204 -4.440125E-10
v -0.064216 0.2096204 -4.440125E-10
v 0.064216 0.2096204 -4.440125E-10
v 0.05195183 0.2096204 -0.03774521
v 0.05839622 0.2096204 -4.440125E-10
v 0.01984384 0.2096204 -0.06107307
v -0.04724358 0.1840622 -0.03432446
v -0.01804543 0.2096204 -0.0555381
v -0.04724358 0.2096204 -0.03432446
v -0.01804543 0.1840622 -0.0555381
v -0.05839622 0.1840622 -4.440125E-10
v -0.05839622 0.2096204 -4.440125E-10
v 0.04724358 0.1840622 -0.03432449
v 0.05839622 0.2096204 -4.440125E-10
v 0.04724358 0.2096204 -0.03432449
v 0.05839622 0.1840622 -4.440125E-10
v 0.01804543 0.1840622 -0.0555381
v 0.01804543 0.2096204 -0.0555381
v -0.054217 0.3213147 -4.440125E-10
v -0.05195183 0.3142325 -0.03774521
v -0.0438625 0.3213147 -0.03186794
v -0.064216 0.3142325 -4.440125E-10
v -0.01984381 0.3142325 -0.06107307
v -0.01675398 0.3213147 -0.05156342
v 0.01984384 0.3142325 -0.06107307
v 0.01675398 0.3213147 -0.05156342
v 0.05195183 0.3142325 -0.03774521
v 0.0438625 0.3213147 -0.03186794
v 0.064216 0.3142325 -4.440125E-10
v 0.054217 0.3213147 -4.440125E-10
vt -0.01525307 0.01320729
vt 0.19254 0.01320729
vt 0.4003333 0.01320729
vt 0.6081263 0.01320729
vt 0.8159194 0.01320729
vt 1.023712 0.01320729
vt 0.05461898 0.05401725
vt 0.4509452 0.5892235
vt 0.19254 0.6572938
vt 0.02302277 0.6572938
vt 1.03175 0.6572938
vt 0.8159194 0.6572938
vt 0.6081263 0.6572938
vt 0.4003333 0.6572938
vt 0.19254 0.5339926
vt -0.01525307 0.5339926
vt 1.023712 0.5339926
vt 0.8159194 0.5339926
vt 0.6081263 0.5339926
vt 0.4003333 0.5339926
vt 0.04993272 0.05603337
vt 0.04993274 0.05603337
vt 0.04993274 0.05603337
vt 0.04993272 0.05603337
vt 0.04993274 0.05603337
vt 0.04993274 0.05603337
vt 0.4003333 0.9915401
vt 0.19254 0.9915401
vt -0.01525307 0.9915401
vt 1.023712 0.9915401
vt 0.8159194 0.9915401
vt 0.6081263 0.9915401
vt 0.02302277 0.9712684
vt 0.4509452 0.5892235
vt 0.19254 0.9712684
vt 0.4509452 0.5892235
vt 0.4003333 0.9712684
vt 0.4509452 0.5892235
vt 0.6081263 0.9712684
vt 0.4509452 0.5892235
vt 0.8159194 0.9712684
vt 0.4509452 0.5892235
vt 1.03175 0.9712684
vt 0.4509452 0.5892235
vt 0.8159193 0.01320729
vt 0.8159193 0.5339926
vt 0.608126 0.01320729
vt 0.608126 0.5339926
vt 0.400333 0.01320729
vt 0.400333 0.5339926
vt 0.1925399 0.01320729
vt 0.1925399 0.5339926
vt 0.5575142 0.5892235
vt 0.5575142 0.5892235
vt 0.5575142 0.5892235
vt 0.5575142 0.5892235
vt 0.8159193 0.6572938
vt 0.8159193 0.9712684
vt 0.1925399 0.6572938
vt 0.1925399 0.9712684
vt 0.400333 0.6572938
vt 0.400333 0.9712684
vt 0.608126 0.6572938
vt 0.608126 0.9712684
vt 0.8159193 0.9915401
vt 0.1925399 0.9915401
vt 0.400333 0.9915401
vt 0.608126 0.9915401
vt 0.9585266 0.05603337
vt 0.9585266 0.05603337
vt 0.9585266 0.05603337
vt 0.9585266 0.05603337
vt 0.05461896 0.05401725
vt 0.05461898 0.05401725
vt 0.05461896 0.05401725
vt 0.05461896 0.05401725
vt 0.05461896 0.05401725
vt 0.05461896 0.05401725
vt -0.01525307 0.9890673
vt 0.19254 0.9890673
vt 0.8159194 0.9890673
vt 1.023712 0.9890673
vt 0.6081263 0.9890673
vt 0.4003333 0.9890673
vt 0.04993272 0.05603337
vt 0.04993274 0.05603337
vt 0.04993274 0.05603337
vt 0.04993272 0.05603337
vt 0.04993274 0.05603337
vt 0.04993274 0.05603337
vt 0.19254 0.5687484
vt 0.4003333 0.6555459
vt 0.4003333 0.5687484
vt 0.19254 0.6555459
vt -0.01525307 0.5687484
vt -0.01525307 0.6555459
vt 0.8159194 0.5687484
vt 1.023712 0.6555459
vt 1.023712 0.5687484
vt 0.8159194 0.6555459
vt 0.6081263 0.5687484
vt 0.6081263 0.6555459
vt -0.01525307 0.9946334
vt 0.19254 0.9924902
vt -0.01525307 0.9924902
vt 0.19254 0.9946334
vt 0.4003333 0.9924902
vt 0.4003333 0.9946334
vt 0.6081263 0.9924902
vt 0.6081263 0.9946334
vt 0.8159194 0.9924902
vt 0.8159194 0.9946334
vt 1.023712 0.9924902
vt 1.023712 0.9946334
vt 1.023712 0.01320729
vt 1.023712 0.5339926
vt -0.01525307 0.5339926
vt -0.01525307 0.01320729
vt 0.9538404 0.05401725
vt 0.9538404 0.05401725
vt 0.9538404 0.05401725
vt 0.9538404 0.05401725
vt 0.9538404 0.05401725
vt 0.9538404 0.05401725
vt 0.9538404 0.05401725
vt 0.5575142 0.5892235
vt 0.5575142 0.5892235
vt 0.5575142 0.5892235
vt 1.03175 0.6572938
vt 1.03175 0.9712684
vt 0.02302289 0.9712684
vt 0.02302289 0.6572938
vt 1.023712 0.9890673
vt 1.023712 0.9915401
vt 0.8159193 0.9890673
vt 0.1925399 0.9890673
vt -0.01525307 0.9915401
vt -0.01525307 0.9890673
vt 0.400333 0.9890673
vt 0.608126 0.9890673
vt 0.9585266 0.05603337
vt 0.9585266 0.05603337
vt 0.9585266 0.05603337
vt 0.9585266 0.05603337
vt 0.9585266 0.05603337
vt 0.9585266 0.05603337
vt 0.9585266 0.05603337
vt 0.9585266 0.05603337
vt 0.8159193 0.5687484
vt 0.608126 0.6555459
vt 0.8159193 0.6555459
vt 0.608126 0.5687484
vt 1.023712 0.5687484
vt 1.023712 0.6555459
vt 0.1925399 0.5687484
vt -0.01525307 0.6555459
vt 0.1925399 0.6555459
vt -0.01525307 0.5687484
vt 0.400333 0.5687484
vt 0.400333 0.6555459
vt 1.023712 0.9946334
vt 0.8159193 0.9924902
vt 0.8159193 0.9946334
vt 1.023712 0.9924902
vt 0.608126 0.9924902
vt 0.608126 0.9946334
vt 0.400333 0.9924902
vt 0.400333 0.9946334
vt 0.1925399 0.9924902
vt 0.1925399 0.9946334
vt -0.01525307 0.9924902
vt -0.01525307 0.9946334
vn -0.6891516 -0.7246171 0
vn -0.5575356 -0.7246169 0.4050731
vn -0.2129598 -0.7246171 0.6554221
vn 0.2129599 -0.7246171 0.655422
vn 0.5575356 -0.7246169 0.4050731
vn 0.6891516 -0.7246171 0
vn 0 -1 0
vn 0 1 0
vn -0.5575356 -0.7246169 0.4050731
vn -0.6891516 -0.7246171 0
vn 0.6891516 -0.7246171 -6.64247E-07
vn 0.5575356 -0.7246169 0.4050733
vn 0.2129597 -0.7246165 0.6554228
vn -0.2129597 -0.7246168 0.6554224
vn -0.7868766 0.2323483 0.5716988
vn -0.9726327 0.2323479 0
vn 0.9726328 0.2323476 0
vn 0.7868766 0.2323478 0.571699
vn 0.3005603 0.2323492 0.9250283
vn -0.3005603 0.2323495 0.9250283
vn -0.2129591 -0.7246166 0.6554229
vn -0.5575354 -0.7246172 0.4050731
vn -0.6891519 -0.7246169 0
vn 0.6891519 -0.7246169 -6.694532E-07
vn 0.5575351 -0.7246171 0.4050735
vn 0.2129588 -0.7246163 0.6554233
vn -0.3005599 0.2323495 0.9250284
vn -0.7868765 0.2323483 0.5716988
vn -0.9726327 0.2323479 0
vn 0.9726328 0.2323476 0
vn 0.7868764 0.2323479 0.5716992
vn 0.3005596 0.2323491 0.9250286
vn -0.8843221 0.4668773 1.257785E-07
vn -0.300653 0.9537336 -1.182985E-07
vn -0.7154315 0.4668773 0.5197916
vn -0.2432332 0.9537336 0.1767192
vn -0.2732707 0.4668781 0.8410398
vn -0.09290672 0.9537339 0.2859372
vn 0.2732708 0.4668781 0.8410398
vn 0.09290668 0.9537337 0.2859374
vn 0.7154316 0.4668773 0.5197915
vn 0.2432331 0.9537335 0.1767198
vn 0.8843221 0.4668773 1.301156E-07
vn 0.3006529 0.9537336 3.548954E-07
vn -0.5575356 -0.7246169 -0.4050731
vn -0.7868766 0.2323483 -0.5716988
vn -0.2129598 -0.7246171 -0.6554221
vn -0.3005603 0.2323495 -0.9250282
vn 0.2129599 -0.7246171 -0.655422
vn 0.3005603 0.2323492 -0.9250283
vn 0.5575356 -0.7246169 -0.4050731
vn 0.7868767 0.2323479 -0.571699
vn -0.2432332 0.9537336 -0.1767192
vn -0.09290676 0.9537339 -0.2859372
vn 0.09290668 0.9537337 -0.2859374
vn 0.2432331 0.9537336 -0.1767194
vn -0.5575356 -0.7246169 -0.4050731
vn -0.7154316 0.4668774 -0.5197915
vn 0.5575358 -0.7246171 -0.4050728
vn 0.7154316 0.4668774 -0.5197914
vn 0.21296 -0.7246174 -0.6554217
vn 0.2732708 0.4668781 -0.8410398
vn -0.2129598 -0.7246171 -0.6554221
vn -0.2732708 0.4668781 -0.8410398
vn -0.7868765 0.2323484 -0.5716988
vn 0.7868764 0.232348 -0.5716991
vn 0.3005596 0.2323492 -0.9250285
vn -0.3005598 0.2323495 -0.9250284
vn -0.5575354 -0.7246172 -0.4050731
vn -0.2129592 -0.7246169 -0.6554224
vn 0.5575353 -0.7246174 -0.405073
vn 0.2129591 -0.7246173 -0.6554222
vn -0.5575356 -0.7246169 0.4050731
vn -0.6891516 -0.7246171 0
vn -0.2129598 -0.7246171 0.6554221
vn 0.2129599 -0.7246171 0.655422
vn 0.5575356 -0.7246169 0.4050731
vn 0.6891516 -0.7246171 0
vn -0.9726327 0.2323479 0
vn -0.7868766 0.2323483 0.5716988
vn 0.7868766 0.2323478 0.571699
vn 0.9726328 0.2323476 0
vn 0.3005603 0.2323492 0.9250283
vn -0.3005603 0.2323495 0.9250283
vn -0.2129597 -0.7246168 0.6554224
vn -0.5575356 -0.7246169 0.4050731
vn -0.6891516 -0.7246171 0
vn 0.6891516 -0.7246171 -6.64247E-07
vn 0.5575356 -0.7246169 0.4050733
vn 0.2129597 -0.7246165 0.6554228
vn -0.7868765 0.2323483 0.5716988
vn -0.2129591 -0.7246166 0.6554229
vn -0.3005599 0.2323495 0.9250284
vn -0.5575354 -0.7246172 0.4050731
vn -0.9726327 0.2323479 0
vn -0.6891519 -0.7246169 0
vn 0.7868764 0.2323479 0.5716992
vn 0.6891519 -0.7246169 -6.694532E-07
vn 0.9726328 0.2323476 0
vn 0.5575351 -0.7246171 0.4050735
vn 0.3005596 0.2323491 0.9250286
vn 0.2129588 -0.7246163 0.6554233
vn -0.300653 0.9537336 -1.182985E-07
vn -0.7154315 0.4668773 0.5197916
vn -0.8843221 0.4668773 1.257785E-07
vn -0.2432332 0.9537336 0.1767192
vn -0.2732707 0.4668781 0.8410398
vn -0.09290672 0.9537339 0.2859372
vn 0.2732708 0.4668781 0.8410398
vn 0.09290668 0.9537337 0.2859374
vn 0.7154316 0.4668773 0.5197915
vn 0.2432331 0.9537335 0.1767198
vn 0.8843221 0.4668773 1.301156E-07
vn 0.3006529 0.9537336 3.548954E-07
vn -0.6891516 -0.7246171 0
vn -0.9726327 0.2323479 0
vn 0.9726328 0.2323476 0
vn 0.6891516 -0.7246171 0
vn -0.5575356 -0.7246169 -0.4050731
vn -0.6891516 -0.7246171 0
vn 0 -1 0
vn -0.2129598 -0.7246171 -0.6554221
vn 0.2129599 -0.7246171 -0.655422
vn 0.5575356 -0.7246169 -0.4050731
vn 0.6891516 -0.7246171 0
vn -0.300653 0.9537336 -1.182985E-07
vn 0 1 0
vn 0.3006529 0.9537336 3.548954E-07
vn -0.6891516 -0.7246171 0
vn -0.8843221 0.4668773 1.257785E-07
vn 0.8843221 0.4668773 1.301156E-07
vn 0.6891516 -0.7246171 -6.64247E-07
vn -0.9726327 0.2323479 0
vn -0.9726327 0.2323479 0
vn -0.7868766 0.2323483 -0.5716988
vn 0.7868767 0.2323479 -0.571699
vn 0.9726328 0.2323476 0
vn 0.9726328 0.2323476 0
vn 0.3005603 0.2323492 -0.9250283
vn -0.3005603 0.2323495 -0.9250282
vn -0.2129598 -0.7246171 -0.6554221
vn -0.5575356 -0.7246169 -0.4050731
vn -0.6891519 -0.7246169 0
vn -0.6891516 -0.7246171 0
vn 0.6891516 -0.7246171 -6.64247E-07
vn 0.5575358 -0.7246171 -0.4050728
vn 0.6891519 -0.7246169 -6.694532E-07
vn 0.21296 -0.7246174 -0.6554217
vn -0.7868765 0.2323484 -0.5716988
vn -0.2129592 -0.7246169 -0.6554224
vn -0.5575354 -0.7246172 -0.4050731
vn -0.3005598 0.2323495 -0.9250284
vn -0.9726327 0.2323479 0
vn -0.6891519 -0.7246169 0
vn 0.7868764 0.232348 -0.5716991
vn 0.6891519 -0.7246169 -6.694532E-07
vn 0.5575353 -0.7246174 -0.405073
vn 0.9726328 0.2323476 0
vn 0.3005596 0.2323492 -0.9250285
vn 0.2129591 -0.7246173 -0.6554222
vn -0.300653 0.9537336 -1.182985E-07
vn -0.7154316 0.4668774 -0.5197915
vn -0.2432332 0.9537336 -0.1767192
vn -0.8843221 0.4668773 1.257785E-07
vn -0.2732708 0.4668781 -0.8410398
vn -0.09290676 0.9537339 -0.2859372
vn 0.2732708 0.4668781 -0.8410398
vn 0.09290668 0.9537337 -0.2859374
vn 0.7154316 0.4668774 -0.5197914
vn 0.2432331 0.9537336 -0.1767194
vn 0.8843221 0.4668773 1.301156E-07
vn 0.3006529 0.9537336 3.548954E-07
g prp_axeBodySpray_geo_0
f 5/5/5 6/6/6 17/17/17
f 18/18/18 5/5/5 17/17/17
f 4/4/4 5/5/5 18/18/18
f 19/19/19 4/4/4 18/18/18
f 3/3/3 4/4/4 19/19/19
f 20/20/20 3/3/3 19/19/19
f 2/2/2 3/3/3 20/20/20
f 15/15/15 2/2/2 20/20/20
f 1/1/1 2/2/2 15/15/15
f 16/16/16 1/1/1 15/15/15
f 7/7/7 73/73/73 74/74/74
f 75/75/75 73/73/73 7/7/7
f 76/76/76 75/75/75 7/7/7
f 7/7/7 77/77/77 76/76/76
f 78/78/78 77/77/77 7/7/7
f 8/8/8 38/38/38 40/40/40
f 36/36/36 38/38/38 8/8/8
f 34/34/34 36/36/36 8/8/8
f 8/8/8 42/42/42 44/44/44
f 40/40/40 42/42/42 8/8/8
f 12/12/12 11/11/11 43/43/43
f 41/41/41 12/12/12 43/43/43
f 13/13/13 12/12/12 41/41/41
f 39/39/39 13/13/13 41/41/41
f 14/14/14 13/13/13 39/39/39
f 37/37/37 14/14/14 39/39/39
f 9/9/9 14/14/14 37/37/37
f 35/35/35 9/9/9 37/37/37
f 10/10/10 9/9/9 35/35/35
f 33/33/33 10/10/10 35/35/35
f 81/81/81 82/82/82 30/30/30
f 31/31/31 81/81/81 30/30/30
f 83/83/83 81/81/81 31/31/31
f 32/32/32 83/83/83 31/31/31
f 84/84/84 83/83/83 32/32/32
f 27/27/27 84/84/84 32/32/32
f 80/80/80 84/84/84 27/27/27
f 28/28/28 80/80/80 27/27/27
f 79/79/79 80/80/80 28/28/28
f 29/29/29 79/79/79 28/28/28
f 25/25/25 24/24/24 88/88/88
f 89/89/89 25/25/25 88/88/88
f 26/26/26 25/25/25 89/89/89
f 90/90/90 26/26/26 89/89/89
f 21/21/21 26/26/26 90/90/90
f 85/85/85 21/21/21 90/90/90
f 22/22/22 21/21/21 85/85/85
f 86/86/86 22/22/22 85/85/85
f 23/23/23 22/22/22 86/86/86
f 87/87/87 23/23/23 86/86/86
f 97/97/97 99/99/99 98/98/98
f 100/100/100 97/97/97 98/98/98
f 101/101/101 97/97/97 100/100/100
f 102/102/102 101/101/101 100/100/100
f 93/93/93 101/101/101 102/102/102
f 92/92/92 93/93/93 102/102/102
f 91/91/91 93/93/93 92/92/92
f 94/94/94 91/91/91 92/92/92
f 95/95/95 91/91/91 94/94/94
f 96/96/96 95/95/95 94/94/94
f 112/112/112 113/113/113 114/114/114
f 111/111/111 113/113/113 112/112/112
f 110/110/110 111/111/111 112/112/112
f 109/109/109 111/111/111 110/110/110
f 108/108/108 109/109/109 110/110/110
f 107/107/107 109/109/109 108/108/108
f 106/106/106 107/107/107 108/108/108
f 104/104/104 107/107/107 106/106/106
f 103/103/103 104/104/104 106/106/106
f 105/105/105 104/104/104 103/103/103
f 51/51/51 117/117/117 118/118/118
f 52/52/52 117/117/117 51/51/51
f 49/49/49 52/52/52 51/51/51
f 50/50/50 52/52/52 49/49/49
f 47/47/47 50/50/50 49/49/49
f 48/48/48 50/50/50 47/47/47
f 45/45/45 48/48/48 47/47/47
f 46/46/46 48/48/48 45/45/45
f 115/115/115 46/46/46 45/45/45
f 116/116/116 46/46/46 115/115/115
f 121/121/121 122/122/122 123/123/123
f 119/119/119 122/122/122 121/121/121
f 120/120/120 119/119/119 121/121/121
f 124/124/124 121/121/121 123/123/123
f 125/125/125 121/121/121 124/124/124
f 127/127/127 53/53/53 126/126/126
f 54/54/54 53/53/53 127/127/127
f 55/55/55 54/54/54 127/127/127
f 56/56/56 127/127/127 128/128/128
f 55/55/55 127/127/127 56/56/56
f 59/59/59 131/131/131 132/132/132
f 60/60/60 131/131/131 59/59/59
f 61/61/61 60/60/60 59/59/59
f 62/62/62 60/60/60 61/61/61
f 63/63/63 62/62/62 61/61/61
f 64/64/64 62/62/62 63/63/63
f 57/57/57 64/64/64 63/63/63
f 58/58/58 64/64/64 57/57/57
f 129/129/129 58/58/58 57/57/57
f 130/130/130 58/58/58 129/129/129
f 136/136/136 137/137/137 138/138/138
f 66/66/66 137/137/137 136/136/136
f 139/139/139 66/66/66 136/136/136
f 67/67/67 66/66/66 139/139/139
f 140/140/140 67/67/67 139/139/139
f 68/68/68 67/67/67 140/140/140
f 135/135/135 68/68/68 140/140/140
f 65/65/65 68/68/68 135/135/135
f 133/133/133 65/65/65 135/135/135
f 134/134/134 65/65/65 133/133/133
f 71/71/71 145/145/145 147/147/147
f 146/146/146 145/145/145 71/71/71
f 72/72/72 146/146/146 71/71/71
f 148/148/148 146/146/146 72/72/72
f 70/70/70 148/148/148 72/72/72
f 141/141/141 148/148/148 70/70/70
f 69/69/69 141/141/141 70/70/70
f 142/142/142 141/141/141 69/69/69
f 143/143/143 142/142/142 69/69/69
f 144/144/144 142/142/142 143/143/143
f 155/155/155 156/156/156 158/158/158
f 157/157/157 156/156/156 155/155/155
f 159/159/159 157/157/157 155/155/155
f 160/160/160 157/157/157 159/159/159
f 152/152/152 160/160/160 159/159/159
f 150/150/150 160/160/160 152/152/152
f 149/149/149 150/150/150 152/152/152
f 151/151/151 150/150/150 149/149/149
f 153/153/153 151/151/151 149/149/149
f 154/154/154 151/151/151 153/153/153
f 170/170/170 172/172/172 171/171/171
f 169/169/169 170/170/170 171/171/171
f 168/168/168 170/170/170 169/169/169
f 167/167/167 168/168/168 169/169/169
f 166/166/166 168/168/168 167/167/167
f 165/165/165 166/166/166 167/167/167
f 163/163/163 166/166/166 165/165/165
f 162/162/162 163/163/163 165/165/165
f 161/161/161 163/163/163 162/162/162
f 164/164/164 161/161/161 162/162/162
