g pukePumpkin_collision_invisible
v 2.336688 -0.2857096 -1.18613
v 1.997759 -0.2857096 -1.851315
v 1.469864 -0.2857096 -2.37921
v 0.8046788 -0.2857096 -2.718139
v 0.06731489 -0.2857096 -2.834925
v -0.670049 -0.2857096 -2.718138
v -1.335234 -0.2857096 -2.379209
v -1.863128 -0.2857096 -1.851315
v -2.202057 -0.2857096 -1.18613
v -2.318844 -0.2857096 -0.4487659
v -2.202057 -0.2857096 0.2885978
v -1.863128 -0.2857096 0.9537832
v -1.335234 -0.2857096 1.481677
v -0.6700488 -0.2857096 1.820606
v 0.06731481 -0.2857096 1.937393
v 0.8046783 -0.2857096 1.820606
v 1.469864 -0.2857096 1.481677
v 1.997758 -0.2857096 0.9537829
v 2.336687 -0.2857096 0.2885976
v 2.453473 -0.2857096 -0.4487659
v 2.336688 10.61996 -1.18613
v 1.997759 10.61996 -1.851315
v 1.469864 10.61996 -2.37921
v 0.8046788 10.61996 -2.718139
v 0.06731489 10.61996 -2.834925
v -0.670049 10.61996 -2.718138
v -1.335234 10.61996 -2.379209
v -1.863128 10.61996 -1.851315
v -2.202057 10.61996 -1.18613
v -2.318844 10.61996 -0.4487659
v -2.202057 10.61996 0.2885978
v -1.863128 10.61996 0.9537832
v -1.335234 10.61996 1.481677
v -0.6700488 10.61996 1.820606
v 0.06731481 10.61996 1.937393
v 0.8046783 10.61996 1.820606
v 1.469864 10.61996 1.481677
v 1.997758 10.61996 0.9537829
v 2.336687 10.61996 0.2885976
v 2.453473 10.61996 -0.4487659
vt 0 1
vt 0 1
vt 0 1
vt 0 1
vt 0 1
vt 0 1
vt 0 1
vt 0 1
vt 0 1
vt 0 1
vt 0 1
vt 0 1
vt 0 1
vt 0 1
vt 0 1
vt 0 1
vt 0 1
vt 0 1
vt 0 1
vt 0 1
vt 0 1
vt 0 1
vt 0 1
vt 0 1
vt 0 1
vt 0 1
vt 0 1
vt 0 1
vt 0 1
vt 0 1
vt 0 1
vt 0 1
vt 0 1
vt 0 1
vt 0 1
vt 0 1
vt 0 1
vt 0 1
vt 0 1
vt 0 1
vn 0.9510569 0 -0.309016
vn 0.8090171 0 -0.5877852
vn 0.5877851 0 -0.8090171
vn 0.3090166 0 -0.9510565
vn -1.961298E-07 0 -1
vn -0.309017 0 -0.9510565
vn -0.5877854 0 -0.8090169
vn -0.8090171 0 -0.587785
vn -0.9510565 0 -0.309017
vn -1 0 0
vn -0.9510565 0 0.3090171
vn -0.809017 0 0.5877852
vn -0.5877851 0 0.8090171
vn -0.3090169 0 0.9510565
vn 1.131518E-07 0 1
vn 0.3090171 0 0.9510565
vn 0.5877852 0 0.809017
vn 0.8090169 0 0.5877853
vn 0.9510565 0 0.3090169
vn 1 0 9.353881E-07
vn 0.9510569 0 -0.309016
vn 0.8090171 0 -0.5877852
vn 0.5877851 0 -0.8090171
vn 0.3090166 0 -0.9510565
vn -1.961298E-07 0 -1
vn -0.309017 0 -0.9510565
vn -0.5877854 0 -0.8090169
vn -0.8090171 0 -0.587785
vn -0.9510565 0 -0.309017
vn -1 0 0
vn -0.9510565 0 0.3090171
vn -0.809017 0 0.5877852
vn -0.5877851 0 0.8090171
vn -0.3090169 0 0.9510565
vn 1.131518E-07 0 1
vn 0.3090171 0 0.9510565
vn 0.5877852 0 0.809017
vn 0.8090169 0 0.5877853
vn 0.9510565 0 0.3090169
vn 1 0 9.353881E-07
g pukePumpkin_collision_invisible_0
f 21/21/21 1/1/1 22/22/22
f 20/20/20 1/1/1 21/21/21
f 40/40/40 20/20/20 21/21/21
f 19/19/19 20/20/20 40/40/40
f 39/39/39 19/19/19 40/40/40
f 18/18/18 19/19/19 39/39/39
f 38/38/38 18/18/18 39/39/39
f 17/17/17 18/18/18 38/38/38
f 37/37/37 17/17/17 38/38/38
f 16/16/16 17/17/17 37/37/37
f 36/36/36 16/16/16 37/37/37
f 15/15/15 16/16/16 36/36/36
f 35/35/35 15/15/15 36/36/36
f 14/14/14 15/15/15 35/35/35
f 34/34/34 14/14/14 35/35/35
f 13/13/13 14/14/14 34/34/34
f 33/33/33 13/13/13 34/34/34
f 12/12/12 13/13/13 33/33/33
f 32/32/32 12/12/12 33/33/33
f 11/11/11 12/12/12 32/32/32
f 31/31/31 11/11/11 32/32/32
f 10/10/10 11/11/11 31/31/31
f 30/30/30 10/10/10 31/31/31
f 9/9/9 10/10/10 30/30/30
f 29/29/29 9/9/9 30/30/30
f 8/8/8 9/9/9 29/29/29
f 28/28/28 8/8/8 29/29/29
f 7/7/7 8/8/8 28/28/28
f 27/27/27 7/7/7 28/28/28
f 6/6/6 7/7/7 27/27/27
f 26/26/26 6/6/6 27/27/27
f 5/5/5 6/6/6 26/26/26
f 25/25/25 5/5/5 26/26/26
f 4/4/4 5/5/5 25/25/25
f 24/24/24 4/4/4 25/25/25
f 3/3/3 4/4/4 24/24/24
f 23/23/23 3/3/3 24/24/24
f 2/2/2 3/3/3 23/23/23
f 22/22/22 2/2/2 23/23/23
f 1/1/1 2/2/2 22/22/22
