g rastafarian_geo
v 0.2006516 1.105955 0.09345587
v 0.07557394 1.034757 -0.001398401
v 0.1083942 1.317079 0.2607871
v 0.154838 1.284331 0.224937
v 0.1937883 1.198606 0.1702543
v 0.1936549 1.133492 -0.02216745
v 0.1190742 1.060106 -0.08308403
v 0.1120685 1.4056 0.2144122
v 0.1930468 1.318998 0.1462856
v 0.2204292 1.216876 0.09812906
v 0.1200492 1.424706 0.1124299
v 0.1782041 1.326816 0.06827546
v 0.1943555 1.227564 0.0300658
v 0.05522715 1.168784 -0.2115709
v 0.05736619 1.279127 -0.1785605
v 0.07389899 1.222092 -0.1961733
v -4.541904E-11 1.225871 -0.2143577
v -4.541904E-11 1.328802 0.2862454
v -4.541903E-11 1.429464 0.2319977
v -4.541903E-11 1.455342 0.1274549
v -4.541903E-11 1.299929 -0.1761379
v -4.541904E-11 1.020605 -0.02551142
v -4.541903E-11 1.037993 -0.1042038
v -4.541904E-11 1.150633 -0.2188291
v 0.1372038 1.062055 0.04697765
v 0.1568057 1.14215 -0.1166866
v 0.1726849 1.228812 -0.07549639
v 0.15358 1.322248 -0.03631452
v 0.1063089 1.402381 -0.002274504
v -4.541903E-11 1.429984 0.01514796
v -4.541903E-11 1.063177 -0.1713887
v 0.1011011 1.08581 -0.1519291
v 0.1236128 1.156683 -0.166333
v 0.1421188 1.22643 -0.1270816
v 0.1294066 1.306387 -0.0921464
v 0.08458813 1.111843 -0.1946141
v -4.541903E-11 1.096508 -0.2035174
v 0.09160689 1.371014 -0.06632564
v -4.541903E-11 1.39385 -0.05317896
v 0.1822136 1.10811 0.1062843
v 0.1259923 1.068947 0.05382991
v 0.07109807 1.04911 0.01600327
v -4.541904E-11 1.039968 -0.003739615
v 0.1019386 1.29933 0.2618983
v 0.137852 1.276523 0.2308439
v 0.1744698 1.198186 0.1812825
v -4.541904E-11 1.309235 0.2864851
v -0.1936549 1.133492 -0.02216745
v -0.2006516 1.105955 0.09345587
v -0.1372038 1.062055 0.04697765
v -0.1190742 1.060106 -0.08308403
v -0.07557394 1.034757 -0.001398401
v -0.154838 1.284331 0.224937
v -0.1930468 1.318998 0.1462856
v -0.1120685 1.4056 0.2144122
v -0.1083942 1.317079 0.2607871
v -0.1937883 1.198606 0.1702543
v -0.2204292 1.216876 0.09812906
v -0.1782041 1.326816 0.06827546
v -0.1200492 1.424706 0.1124299
v -0.1943555 1.227564 0.0300658
v -0.15358 1.322248 -0.03631452
v -0.1063089 1.402381 -0.002274504
v -0.1011011 1.08581 -0.1519291
v -0.1568057 1.14215 -0.1166866
v -0.1726849 1.228812 -0.07549639
v -0.08458813 1.111843 -0.1946141
v -0.05522715 1.168784 -0.2115709
v -0.1294066 1.306387 -0.0921464
v -0.09160689 1.371014 -0.06632564
v -0.1236128 1.156683 -0.166333
v -0.1421188 1.22643 -0.1270816
v -0.05736619 1.279127 -0.1785605
v -0.07389899 1.222092 -0.1961733
v -0.1822136 1.10811 0.1062843
v -0.1259923 1.068947 0.05382991
v -0.07109807 1.04911 0.01600327
v -0.1019386 1.29933 0.2618983
v -0.137852 1.276523 0.2308439
v -0.1744698 1.198186 0.1812825
v 0.1200492 1.424706 0.1124299
v 0.1782041 1.326816 0.06827546
v -4.541903E-11 1.037993 -0.1042038
v 0.1190742 1.060106 -0.08308403
v 0.1936549 1.133492 -0.02216745
v 0.1943555 1.227564 0.0300658
v 0.1063089 1.402381 -0.002274504
v 0.15358 1.322248 -0.03631452
v 0.1726849 1.228812 -0.07549639
v 0.1568057 1.14215 -0.1166866
v 0.1200492 1.424706 0.1124299
v -4.541903E-11 1.455342 0.1274549
v 0.1063089 1.402381 -0.002274504
v -4.541903E-11 1.429984 0.01514796
v 0.1782041 1.326816 0.06827546
v 0.1726849 1.228812 -0.07549639
v 0.1943555 1.227564 0.0300658
v 0.15358 1.322248 -0.03631452
v 0.1190742 1.060106 -0.08308403
v 0.1568057 1.14215 -0.1166866
v 0.1011011 1.08581 -0.1519291
v 0.1936549 1.133492 -0.02216745
v 0.1236128 1.156683 -0.166333
v 0.1421188 1.22643 -0.1270816
v 0.1294066 1.306387 -0.0921464
v 0.08458813 1.111843 -0.1946141
v 0.1011011 1.08581 -0.1519291
v -4.541903E-11 1.096508 -0.2035174
v -4.541903E-11 1.063177 -0.1713887
v 0.09160689 1.371014 -0.06632564
v -4.541903E-11 1.39385 -0.05317896
v -0.1200492 1.424706 0.1124299
v -0.1782041 1.326816 0.06827546
v -0.1190742 1.060106 -0.08308403
v -4.541903E-11 1.063177 -0.1713887
v -0.1936549 1.133492 -0.02216745
v -0.1943555 1.227564 0.0300658
v -0.1063089 1.402381 -0.002274504
v -0.15358 1.322248 -0.03631452
v -0.1726849 1.228812 -0.07549639
v -0.1568057 1.14215 -0.1166866
v -0.1200492 1.424706 0.1124299
v -0.1063089 1.402381 -0.002274504
v -0.1782041 1.326816 0.06827546
v -0.1726849 1.228812 -0.07549639
v -0.15358 1.322248 -0.03631452
v -0.1943555 1.227564 0.0300658
v -0.1190742 1.060106 -0.08308403
v -0.1568057 1.14215 -0.1166866
v -0.1936549 1.133492 -0.02216745
v -0.1011011 1.08581 -0.1519291
v -0.1236128 1.156683 -0.166333
v -0.1421188 1.22643 -0.1270816
v -0.1294066 1.306387 -0.0921464
v -0.08458813 1.111843 -0.1946141
v -0.1011011 1.08581 -0.1519291
v -0.09160689 1.371014 -0.06632564
vt 0.9084414 0.9326991
vt 0.9511719 0.9367787
vt 0.8166793 0.9293587
vt 0.8433081 0.9287949
vt 0.879513 0.9300531
vt 0.9178677 0.998014
vt 0.9412982 0.9965969
vt 0.8160905 0.9677063
vt 0.8496773 0.9693581
vt 0.8858021 0.9665241
vt 0.8244712 0.9962616
vt 0.8572201 0.9962616
vt 0.8903306 0.9967178
vt 0.8002437 0.9853045
vt 0.8002437 0.9853044
vt 0.8002436 0.9853045
vt 0.8002436 0.9853045
vt 0.7858523 0.9275309
vt 0.7855536 0.9679887
vt 0.7899581 0.9962616
vt 0.8002436 0.9853044
vt 0.9747094 0.9416488
vt 0.9755766 0.9959262
vt 0.8002436 0.9853045
vt 0.9272035 0.9296107
vt 0.9356186 0.8605309
vt 0.8358688 0.8602279
vt 0.9338784 0.864506
vt 0.8373787 0.8616078
vt 0.8331648 0.864506
vt 0.9360876 0.8627993
vt 0.8412154 0.8600286
vt 0.9387217 0.9709384
vt 0.9387217 0.9709384
vt 0.9387217 0.9709384
vt 0.8002436 0.9853045
vt 0.8002436 0.9853045
vt 0.9387217 0.9709384
vt 0.9387217 0.9709384
vt 0.906979 0.9197844
vt 0.9261817 0.9197844
vt 0.9512404 0.9197844
vt 0.9741432 0.9197845
vt 0.8172888 0.9197844
vt 0.8418273 0.9197844
vt 0.876993 0.9197844
vt 0.786694 0.9197844
vt 0.9178677 0.998014
vt 0.9084414 0.9326991
vt 0.9272035 0.9296107
vt 0.9412982 0.9965969
vt 0.9511719 0.9367787
vt 0.8433081 0.9287949
vt 0.8496773 0.9693581
vt 0.8160905 0.9677063
vt 0.8166793 0.9293587
vt 0.879513 0.9300531
vt 0.8858021 0.9665241
vt 0.8572201 0.9962616
vt 0.8244712 0.9962616
vt 0.8903306 0.9967178
vt 0.9443846 0.864506
vt 0.842813 0.8645061
vt 0.8404909 0.8629268
vt 0.9356186 0.8605309
vt 0.8358688 0.8602279
vt 0.8002436 0.9853045
vt 0.8002437 0.9853045
vt 0.9387217 0.9709384
vt 0.9387217 0.9709384
vt 0.9387217 0.9709384
vt 0.9387217 0.9709384
vt 0.8002437 0.9853044
vt 0.8002436 0.9853045
vt 0.906979 0.9197844
vt 0.9261817 0.9197844
vt 0.9512404 0.9197844
vt 0.8172888 0.9197844
vt 0.8418273 0.9197844
vt 0.876993 0.9197844
vt 0.8203458 0.7607307
vt 0.9328544 0.7607308
vt 0.9328544 0.7607307
vt 0.8203458 0.7607307
vt 0.9328544 0.7607307
vt 0.8203458 0.7607307
vt 0.9387217 0.9709384
vt 0.9387217 0.9709384
vt 0.9387217 0.9709384
vt 0.9387217 0.9709384
vt 0.9328544 0.7607309
vt 0.8203458 0.7607307
vt 0.9362184 0.864506
vt 0.9387217 0.9709384
vt 0.8203458 0.7607307
vt 0.9399002 0.8625258
vt 0.9328544 0.7607308
vt 0.8340278 0.8625258
vt 0.9328544 0.7607309
vt 0.8336791 0.862531
vt 0.9262061 0.8550031
vt 0.8203458 0.7607307
vt 0.8002436 0.9853044
vt 0.8002437 0.9853045
vt 0.8002436 0.9853044
vt 0.9387217 0.9709384
vt 0.9387217 0.9709384
vt 0.9387217 0.9709384
vt 0.9387217 0.9709384
vt 0.8002436 0.9853044
vt 0.8002436 0.9853044
vt 0.8203458 0.7607307
vt 0.9328544 0.7607308
vt 0.8203458 0.7607307
vt 0.9306534 0.8602632
vt 0.9328544 0.7607307
vt 0.8203458 0.7607307
vt 0.9387217 0.9709384
vt 0.9387217 0.9709384
vt 0.9387217 0.9709384
vt 0.9387217 0.9709384
vt 0.9328544 0.7607309
vt 0.9362184 0.864506
vt 0.8203458 0.7607307
vt 0.9399002 0.8625258
vt 0.8452585 0.8625258
vt 0.9328544 0.7607308
vt 0.9328544 0.7607309
vt 0.8336791 0.862531
vt 0.8203458 0.7607307
vt 0.9262061 0.8550031
vt 0.8002436 0.9853044
vt 0.8002437 0.9853045
vt 0.8002436 0.9853044
vt 0.9387217 0.9709384
vt 0.9387217 0.9709384
vt 0.8002436 0.9853044
vn 0.7505919 -0.6172412 0.2358497
vn 0.1276504 -0.9508177 0.2822254
vn 0.4702063 0.1416467 0.8711156
vn 0.7049063 -0.0401706 0.708162
vn 0.7420536 -0.2628797 0.6166448
vn 0.9362512 -0.2260108 -0.2689853
vn 0.5341367 -0.8169689 -0.2173936
vn 0.5865688 0.6509413 0.4818845
vn 0.9129698 0.3437293 0.2198552
vn 0.9988793 0.0449356 0.01486639
vn 0.5637701 0.8249124 -0.04102107
vn 0.8887398 0.4331976 -0.1499375
vn 0.9448442 0.1972366 -0.2614707
vn 0.3572754 0.04069987 -0.9331119
vn 0.356294 0.5264739 -0.7719325
vn 0.4568018 0.2767686 -0.8454178
vn 0 0.271578 -0.9624164
vn 0 0.2372643 0.9714451
vn 0 0.7924841 0.6098927
vn 0 0.9999994 0.001084237
vn 0 0.6285509 -0.7777685
vn 0 -0.9670193 0.2547033
vn 0 -0.9568475 -0.2905902
vn 0 -0.08950046 -0.9959868
vn 0.2834562 -0.914875 0.2875001
vn 0.8719017 -0.1887356 -0.4518478
vn 0.9060333 0.1900325 -0.3781419
vn 0.8250973 0.4489125 -0.3430624
vn 0.4917174 0.7945596 -0.3562149
vn 0 0.9379319 -0.3468193
vn 0 -0.8512605 -0.5247433
vn 0.5409622 -0.6645348 -0.5155128
vn 0.7231198 -0.02262426 -0.690352
vn 0.7495611 0.2461266 -0.6144751
vn 0.6762908 0.4789593 -0.5596684
vn 0.468468 -0.3481554 -0.8119887
vn 0 -0.5185508 -0.8550468
vn 0.3965617 0.7249168 -0.5632358
vn 0 0.8327413 -0.5536622
vn 0.2767932 -0.7088758 0.6487531
vn -0.007087898 -0.8120048 0.5836077
vn -0.1009984 -0.7734905 0.6257089
vn 0 -0.7620193 0.6475543
vn 0.3775077 -0.1249095 0.9175432
vn 0.484635 -0.2784756 0.8292046
vn 0.4459626 -0.4412432 0.7787309
vn 0 -0.004874852 0.9999882
vn -0.9362512 -0.2260108 -0.2689852
vn -0.7505919 -0.6172412 0.2358497
vn -0.2834562 -0.9148749 0.2875003
vn -0.5341365 -0.8169688 -0.2173939
vn -0.1276504 -0.9508177 0.2822254
vn -0.7049062 -0.04017056 0.7081621
vn -0.9129698 0.3437294 0.2198553
vn -0.5865687 0.6509413 0.4818844
vn -0.470206 0.1416467 0.8711156
vn -0.7420537 -0.2628797 0.6166447
vn -0.9988793 0.04493551 0.01486649
vn -0.8887398 0.4331976 -0.1499375
vn -0.5637701 0.8249124 -0.04102106
vn -0.9448444 0.1972365 -0.2614706
vn -0.8250973 0.4489125 -0.3430623
vn -0.4917174 0.7945596 -0.3562149
vn -0.540962 -0.6645347 -0.5155132
vn -0.8719014 -0.1887355 -0.4518484
vn -0.9060333 0.1900324 -0.378142
vn -0.4684674 -0.3481554 -0.8119889
vn -0.3572752 0.04069977 -0.9331119
vn -0.6762908 0.4789593 -0.5596683
vn -0.3965617 0.7249167 -0.5632358
vn -0.7231193 -0.0226242 -0.6903525
vn -0.7495611 0.2461265 -0.6144752
vn -0.356294 0.5264738 -0.7719325
vn -0.4568018 0.2767686 -0.8454178
vn -0.2767932 -0.7088757 0.6487531
vn 0.007087807 -0.8120044 0.5836082
vn 0.1009983 -0.7734901 0.6257094
vn -0.3775073 -0.1249094 0.9175434
vn -0.4846349 -0.2784756 0.8292047
vn -0.4459628 -0.4412432 0.7787307
vn 0.5637701 0.8249124 -0.04102107
vn 0.8887398 0.4331976 -0.1499375
vn 0 -0.9568475 -0.2905902
vn 0.5341367 -0.8169689 -0.2173936
vn 0.9362512 -0.2260108 -0.2689853
vn 0.9448442 0.1972366 -0.2614707
vn 0.4917174 0.7945596 -0.3562149
vn 0.8250973 0.4489125 -0.3430624
vn 0.9060333 0.1900325 -0.3781419
vn 0.8719017 -0.1887356 -0.4518478
vn 0.5637701 0.8249124 -0.04102107
vn 0 0.9999994 0.001084237
vn 0.4917174 0.7945596 -0.3562149
vn 0 0.9379319 -0.3468193
vn 0.8887398 0.4331976 -0.1499375
vn 0.9060333 0.1900325 -0.3781419
vn 0.9448442 0.1972366 -0.2614707
vn 0.8250973 0.4489125 -0.3430624
vn 0.5341367 -0.8169689 -0.2173936
vn 0.8719017 -0.1887356 -0.4518478
vn 0.5409622 -0.6645348 -0.5155128
vn 0.9362512 -0.2260108 -0.2689853
vn 0.7231198 -0.02262426 -0.690352
vn 0.7495611 0.2461266 -0.6144751
vn 0.6762908 0.4789593 -0.5596684
vn 0.468468 -0.3481554 -0.8119887
vn 0.5409622 -0.6645348 -0.5155128
vn 0 -0.5185508 -0.8550468
vn 0 -0.8512605 -0.5247433
vn 0.3965617 0.7249168 -0.5632358
vn 0 0.8327413 -0.5536622
vn -0.5637701 0.8249124 -0.04102106
vn -0.8887398 0.4331976 -0.1499375
vn -0.5341365 -0.8169688 -0.2173939
vn 0 -0.8512605 -0.5247433
vn -0.9362512 -0.2260108 -0.2689852
vn -0.9448444 0.1972365 -0.2614706
vn -0.4917174 0.7945596 -0.3562149
vn -0.8250973 0.4489125 -0.3430623
vn -0.9060333 0.1900324 -0.378142
vn -0.8719014 -0.1887355 -0.4518484
vn -0.5637701 0.8249124 -0.04102106
vn -0.4917174 0.7945596 -0.3562149
vn -0.8887398 0.4331976 -0.1499375
vn -0.9060333 0.1900324 -0.378142
vn -0.8250973 0.4489125 -0.3430623
vn -0.9448444 0.1972365 -0.2614706
vn -0.5341365 -0.8169688 -0.2173939
vn -0.8719014 -0.1887355 -0.4518484
vn -0.9362512 -0.2260108 -0.2689852
vn -0.540962 -0.6645347 -0.5155132
vn -0.7231193 -0.0226242 -0.6903525
vn -0.7495611 0.2461265 -0.6144752
vn -0.6762908 0.4789593 -0.5596683
vn -0.4684674 -0.3481554 -0.8119889
vn -0.540962 -0.6645347 -0.5155132
vn -0.3965617 0.7249167 -0.5632358
g rastafarian_geo_0
f 28/28/28 81/81/81 82/82/82
f 29/29/29 81/81/81 28/28/28
f 32/32/32 83/83/83 31/31/31
f 84/84/84 83/83/83 32/32/32
f 27/27/27 85/85/85 26/26/26
f 86/86/86 85/85/85 27/27/27
f 30/30/30 91/91/91 93/93/93
f 92/92/92 91/91/91 30/30/30
f 122/122/122 92/92/92 30/30/30
f 96/96/96 95/95/95 97/97/97
f 98/98/98 95/95/95 96/96/96
f 100/100/100 99/99/99 101/101/101
f 102/102/102 99/99/99 100/100/100
f 62/62/62 112/112/112 63/63/63
f 113/113/113 112/112/112 62/62/62
f 64/64/64 83/83/83 114/114/114
f 115/115/115 83/83/83 64/64/64
f 66/66/66 116/116/116 117/117/117
f 65/65/65 116/116/116 66/66/66
f 122/122/122 30/30/30 123/123/123
f 125/125/125 124/124/124 126/126/126
f 127/127/127 124/124/124 125/125/125
f 129/129/129 128/128/128 130/130/130
f 131/131/131 128/128/128 129/129/129
f 56/56/56 78/78/78 47/47/47
f 18/18/18 56/56/56 47/47/47
f 19/19/19 56/56/56 18/18/18
f 3/3/3 19/19/19 18/18/18
f 8/8/8 19/19/19 3/3/3
f 4/4/4 8/8/8 3/3/3
f 9/9/9 8/8/8 4/4/4
f 5/5/5 9/9/9 4/4/4
f 10/10/10 9/9/9 5/5/5
f 1/1/1 10/10/10 5/5/5
f 6/6/6 10/10/10 1/1/1
f 7/7/7 6/6/6 1/1/1
f 22/22/22 51/51/51 23/23/23
f 7/7/7 22/22/22 23/23/23
f 2/2/2 22/22/22 7/7/7
f 25/25/25 2/2/2 7/7/7
f 41/41/41 2/2/2 25/25/25
f 40/40/40 41/41/41 25/25/25
f 10/10/10 6/6/6 13/13/13
f 12/12/12 10/10/10 13/13/13
f 9/9/9 10/10/10 12/12/12
f 11/11/11 9/9/9 12/12/12
f 8/8/8 9/9/9 11/11/11
f 20/20/20 8/8/8 11/11/11
f 19/19/19 8/8/8 20/20/20
f 55/55/55 19/19/19 20/20/20
f 56/56/56 19/19/19 55/55/55
f 53/53/53 56/56/56 55/55/55
f 78/78/78 56/56/56 53/53/53
f 79/79/79 78/78/78 53/53/53
f 24/24/24 37/37/37 67/67/67
f 36/36/36 37/37/37 24/24/24
f 14/14/14 36/36/36 24/24/24
f 103/103/103 36/36/36 14/14/14
f 16/16/16 103/103/103 14/14/14
f 104/104/104 103/103/103 16/16/16
f 105/105/105 104/104/104 16/16/16
f 108/108/108 109/109/109 136/136/136
f 107/107/107 109/109/109 108/108/108
f 106/106/106 107/107/107 108/108/108
f 90/90/90 107/107/107 106/106/106
f 33/33/33 90/90/90 106/106/106
f 89/89/89 90/90/90 33/33/33
f 34/34/34 89/89/89 33/33/33
f 88/88/88 89/89/89 34/34/34
f 35/35/35 88/88/88 34/34/34
f 87/87/87 88/88/88 35/35/35
f 38/38/38 87/87/87 35/35/35
f 39/39/39 87/87/87 38/38/38
f 118/118/118 70/70/70 69/69/69
f 39/39/39 70/70/70 118/118/118
f 94/94/94 39/39/39 118/118/118
f 87/87/87 39/39/39 94/94/94
f 15/15/15 110/110/110 105/105/105
f 21/21/21 110/110/110 15/15/15
f 17/17/17 21/21/21 15/15/15
f 73/73/73 21/21/21 17/17/17
f 74/74/74 73/73/73 17/17/17
f 134/134/134 73/73/73 74/74/74
f 133/133/133 134/134/134 74/74/74
f 137/137/137 73/73/73 134/134/134
f 21/21/21 73/73/73 137/137/137
f 111/111/111 21/21/21 137/137/137
f 110/110/110 21/21/21 111/111/111
f 57/57/57 79/79/79 53/53/53
f 80/80/80 79/79/79 57/57/57
f 49/49/49 80/80/80 57/57/57
f 75/75/75 80/80/80 49/49/49
f 50/50/50 75/75/75 49/49/49
f 76/76/76 75/75/75 50/50/50
f 52/52/52 76/76/76 50/50/50
f 77/77/77 76/76/76 52/52/52
f 22/22/22 77/77/77 52/52/52
f 43/43/43 77/77/77 22/22/22
f 42/42/42 43/43/43 22/22/22
f 1/1/1 40/40/40 25/25/25
f 46/46/46 40/40/40 1/1/1
f 5/5/5 46/46/46 1/1/1
f 45/45/45 46/46/46 5/5/5
f 4/4/4 45/45/45 5/5/5
f 44/44/44 45/45/45 4/4/4
f 3/3/3 44/44/44 4/4/4
f 47/47/47 44/44/44 3/3/3
f 18/18/18 47/47/47 3/3/3
f 42/42/42 2/2/2 41/41/41
f 22/22/22 2/2/2 42/42/42
f 58/58/58 61/61/61 48/48/48
f 59/59/59 61/61/61 58/58/58
f 54/54/54 59/59/59 58/58/58
f 60/60/60 59/59/59 54/54/54
f 55/55/55 60/60/60 54/54/54
f 20/20/20 60/60/60 55/55/55
f 135/135/135 108/108/108 136/136/136
f 121/121/121 135/135/135 136/136/136
f 71/71/71 135/135/135 121/121/121
f 120/120/120 71/71/71 121/121/121
f 72/72/72 71/71/71 120/120/120
f 119/119/119 72/72/72 120/120/120
f 69/69/69 72/72/72 119/119/119
f 118/118/118 69/69/69 119/119/119
f 68/68/68 67/67/67 132/132/132
f 24/24/24 67/67/67 68/68/68
f 17/17/17 24/24/24 68/68/68
f 14/14/14 24/24/24 17/17/17
f 16/16/16 14/14/14 17/17/17
f 74/74/74 132/132/132 133/133/133
f 68/68/68 132/132/132 74/74/74
f 17/17/17 68/68/68 74/74/74
f 54/54/54 53/53/53 55/55/55
f 57/57/57 53/53/53 54/54/54
f 58/58/58 57/57/57 54/54/54
f 49/49/49 57/57/57 58/58/58
f 48/48/48 49/49/49 58/58/58
f 51/51/51 49/49/49 48/48/48
f 15/15/15 16/16/16 17/17/17
f 105/105/105 16/16/16 15/15/15
f 51/51/51 50/50/50 49/49/49
f 52/52/52 50/50/50 51/51/51
f 22/22/22 52/52/52 51/51/51
f 25/25/25 7/7/7 1/1/1
