g ratPack2_geo
v -0.1559802 0 0.01720353
v 0.1559827 0 0.01720353
v -0.1559802 0.276954 0.01720353
v 0.1559827 0.276954 0.01720353
v -0.1559802 0.276954 -0.01720324
v 0.1559827 0.276954 -0.01720324
v -0.1559802 0 -0.01720324
v 0.1559827 0 -0.01720324
v -0.1559802 0 -0.01720324
v -0.1559802 0.276954 0.01720353
v -0.1559802 0 0.01720353
v -0.1559802 0.276954 -0.01720324
v 0.1559827 0.276954 0.01720353
v 0.1559827 0 -0.01720324
v 0.1559827 0 0.01720353
v 0.1559827 0.276954 -0.01720324
v -0.1559802 0.276954 0.01720353
v 0.1559827 0.276954 -0.01720324
v 0.1559827 0.276954 0.01720353
v -0.1559802 0.276954 -0.01720324
vt 0.5 0
vt 1 0
vt 0.5 1
vt 1 1
vt 0.5 1
vt 1 1
vt 0.5 0
vt 1 0
vt 0.4202807 0.5730307
vt 0.4202807 0.5730307
vt 0.4202807 0.5730307
vt 0.4202807 0.5730307
vt 0.4202807 0.5730307
vt 0.4202807 0.5730307
vt 0.4202807 0.5730307
vt 0.4202807 0.5730307
vt 0.4202807 0.5730307
vt 0.4202807 0.5730307
vt 0.4202807 0.5730307
vt 0.4202807 0.5730307
vn -0.7071068 0 0.7071068
vn 0.7071068 0 0.7071068
vn -0.7071068 0 0.7071068
vn 0.7071068 0 0.7071068
vn -0.7071068 0 -0.7071068
vn 0.7071068 0 -0.7071068
vn -0.7071068 0 -0.7071068
vn 0.7071068 0 -0.7071068
vn -0.7071068 0 -0.7071068
vn -0.7071068 0 0.7071068
vn -0.7071068 0 0.7071068
vn -0.7071068 0 -0.7071068
vn 0.7071068 0 0.7071068
vn 0.7071068 0 -0.7071068
vn 0.7071068 0 0.7071068
vn 0.7071068 0 -0.7071068
vn 0 1 0
vn 0 1 0
vn 0 1 0
vn 0 1 0
g ratPack2_geo_0
f 4/4/4 1/1/1 2/2/2
f 3/3/3 1/1/1 4/4/4
f 8/8/8 5/5/5 6/6/6
f 7/7/7 5/5/5 8/8/8
f 10/10/10 9/9/9 11/11/11
f 12/12/12 9/9/9 10/10/10
f 14/14/14 13/13/13 15/15/15
f 16/16/16 13/13/13 14/14/14
f 18/18/18 17/17/17 19/19/19
f 20/20/20 17/17/17 18/18/18
