g recipeBook_geo
v 0.1724886 0.0006885529 -0.1372671
v -0.1723463 -1.421085E-16 -0.1372671
v -0.1724873 0.07051574 -0.1372647
v 0.1723469 0.07051567 -0.1372671
v -0.1723463 -1.421085E-16 0.1372671
v -0.1724886 0.07051574 0.1372671
v 0.1724886 0.0006885529 0.1372671
v 0.1723469 0.07051567 0.1372671
v -0.1724873 0.07051574 -0.1372647
v -0.1723463 -1.421085E-16 -0.1372671
v 0.1724886 0.0006885529 -0.1372671
v -0.1723463 -1.421085E-16 0.1372671
v -0.1723463 -1.421085E-16 -0.1372671
v -0.1724873 0.07051574 -0.1372647
v -0.1724886 0.07051574 0.1372671
v 0.1723469 0.07051567 -0.1372671
v 0.1723469 0.07051567 -0.1372671
v 0.1724886 0.0006885529 0.1372671
v 0.1723469 0.07051567 0.1372671
v 0.1724886 0.0006885529 -0.1372671
v -0.1724886 0.07051574 0.1372671
v 0.1724886 0.0006885529 0.1372671
v -0.1723463 -1.421085E-16 0.1372671
v 0.1723469 0.07051567 0.1372671
vt 0.7971883 0.01004171
vt 0.7971883 0.01004171
vt 0.7971883 0.01004171
vt 0.7971883 0.01004171
vt 0.9040844 0.7797321
vt 0.9040844 0.7797321
vt 0.9040844 0.9013726
vt 0.03462905 0.070173
vt 0.9040844 0.7797321
vt 0.9040844 0.7797321
vt 0.9040844 0.9013726
vt 0.9040844 0.9013726
vt 0.9040844 0.9013726
vt 0.7190165 0.929819
vt 0.03462908 0.9298221
vt 0.7190227 0.07017294
vt 0.9040844 0.7797321
vt 0.9040844 0.7797321
vt 0.9040844 0.7797321
vt 0.9040844 0.7797321
vt 0.9914966 1.000207
vt 0.819165 0.0002070665
vt 0.8174658 0.9997947
vt 0.9914963 0.0006174445
vn 0.5785096 -0.5761784 -0.5773603
vn -0.5761976 -0.5785002 -0.5773507
vn -0.5777345 0.5765808 -0.5777349
vn 0.5769544 0.5781376 -0.5769578
vn -0.5761934 -0.5785086 0.5773465
vn -0.5777369 0.5765758 0.5777373
vn 0.5785081 -0.5761843 0.577356
vn 0.5769596 0.5781301 0.5769603
vn -0.5777345 0.5765808 -0.5777349
vn -0.5761976 -0.5785002 -0.5773507
vn 0.5785096 -0.5761784 -0.5773603
vn -0.5761934 -0.5785086 0.5773465
vn -0.5761976 -0.5785002 -0.5773507
vn -0.5777345 0.5765808 -0.5777349
vn -0.5777369 0.5765758 0.5777373
vn 0.5769544 0.5781376 -0.5769578
vn 0.5769544 0.5781376 -0.5769578
vn 0.5785081 -0.5761843 0.577356
vn 0.5769596 0.5781301 0.5769603
vn 0.5785096 -0.5761784 -0.5773603
vn -0.5777369 0.5765758 0.5777373
vn 0.5785081 -0.5761843 0.577356
vn -0.5761934 -0.5785086 0.5773465
vn 0.5769596 0.5781301 0.5769603
g recipeBook_geo_0
f 3/3/3 1/1/1 2/2/2
f 4/4/4 1/1/1 3/3/3
f 9/9/9 5/5/5 6/6/6
f 10/10/10 5/5/5 9/9/9
f 12/12/12 11/11/11 7/7/7
f 13/13/13 11/11/11 12/12/12
f 8/8/8 14/14/14 15/15/15
f 16/16/16 14/14/14 8/8/8
f 18/18/18 17/17/17 19/19/19
f 20/20/20 17/17/17 18/18/18
f 22/22/22 21/21/21 23/23/23
f 24/24/24 21/21/21 22/22/22
