g recordWpn_geo
v -0.0488291 0.285623 0.1428721
v -0.04118759 0.3021425 0.2251163
v -0.03215912 0.2923605 0.3082921
v -0.02262712 0.257235 0.3842575
v -0.01352499 0.2002042 0.4455764
v -0.005743484 0.1268503 0.4862467
v -4.439354E-05 0.04435406 0.5022871
v 0.00301445 -0.03920912 0.4921276
v 0.003133621 -0.1156599 0.4567629
v 0.0003012848 -0.1775146 0.3996544
v -0.005204925 -0.2187184 0.3263922
v -0.01284636 -0.2352376 0.2441478
v -0.02187485 -0.2254557 0.160972
v -0.03140686 -0.1903303 0.08500664
v -0.04050897 -0.1332991 0.02368767
v -0.04829056 -0.0599452 -0.01698251
v -0.0539895 0.02255085 -0.03302316
v -0.0570484 0.1061142 -0.02286368
v -0.05716734 0.1825648 0.01250125
v -0.05433521 0.2444194 0.06960991
v -0.02844025 0.2866242 0.1407767
v -0.0207988 0.3031435 0.2230211
v -0.01177025 0.2933617 0.3061965
v -0.002238274 0.2582361 0.3821619
v 0.006863746 0.2012052 0.4434811
v 0.01464535 0.1278514 0.4841514
v 0.02034436 0.04535517 0.5001917
v 0.02340324 -0.0382081 0.4900323
v 0.02352241 -0.1146589 0.4546674
v 0.0206901 -0.1765135 0.3975589
v 0.01518394 -0.2177172 0.3242967
v 0.007542419 -0.2342364 0.2420523
v -0.001486025 -0.2244547 0.1588766
v -0.01101798 -0.1893291 0.08291116
v -0.02012004 -0.1322981 0.02159223
v -0.02790174 -0.05894411 -0.01907802
v -0.03360061 0.02355197 -0.03511857
v -0.03665955 0.1071153 -0.0249591
v -0.03677874 0.183566 0.01040587
v -0.03394645 0.2454205 0.06751446
v -0.03201403 0.1699651 0.2512293
v -0.02239021 0.1345006 0.3279271
v -0.01453358 0.06043915 0.3689896
v -0.01144545 -0.02392988 0.3587326
v -0.01430487 -0.0863812 0.3010728
v -0.02201994 -0.1030601 0.2180351
v -0.0316437 -0.06759539 0.1413372
v -0.03950035 0.006465842 0.1002745
v -0.04258869 0.09083489 0.1105319
v -0.03972902 0.1532861 0.1681916
v -0.01162532 0.1709662 0.2491337
v -0.002001381 0.1355016 0.3258316
v 0.005855217 0.06144026 0.3668942
v 0.0089435 -0.0229289 0.356637
v 0.006083984 -0.08538008 0.2989773
v -0.001631164 -0.1020591 0.2159398
v -0.01125497 -0.06659441 0.1392418
v -0.01911156 0.007466912 0.09817905
v -0.02219997 0.09183598 0.1084365
v -0.01934037 0.1542872 0.1660962
v -0.02914157 0.09149704 0.2416892
v -0.0250496 0.0764176 0.2743008
v -0.02170911 0.04492704 0.2917604
v -0.02039592 0.009053831 0.2873991
v -0.02161182 -0.01750013 0.2628825
v -0.0248922 -0.02459191 0.2275753
v -0.02898424 -0.009512691 0.1949636
v -0.03232493 0.02197792 0.177504
v -0.03363804 0.05785125 0.1818654
v -0.03242212 0.08440517 0.2063819
v -0.008752889 0.09249806 0.2395937
v -0.00466093 0.07741867 0.2722053
v -0.001320257 0.04592814 0.289665
v -7.200241E-06 0.01005493 0.2853036
v -0.001222973 -0.01649917 0.260787
v -0.004503421 -0.02359093 0.2254799
v -0.008595543 -0.008511586 0.1928682
v -0.01193593 0.02297904 0.1754085
v -0.01324909 0.05885231 0.17977
v -0.01203326 0.08540632 0.2042865
v 0.0001556206 0.1826111 0.3693264
v -0.02023308 0.18161 0.3714218
v -0.0488291 0.285623 0.1428721
v -0.04118759 0.3021425 0.2251163
v -0.03215912 0.2923605 0.3082921
v -0.02262712 0.257235 0.3842575
v -0.01352499 0.2002042 0.4455764
v -0.005743484 0.1268503 0.4862467
v -4.439354E-05 0.04435406 0.5022871
v 0.00301445 -0.03920912 0.4921276
v 0.003133621 -0.1156599 0.4567629
v 0.0003012848 -0.1775146 0.3996544
v -0.005204925 -0.2187184 0.3263922
v -0.01284636 -0.2352376 0.2441478
v -0.02187485 -0.2254557 0.160972
v -0.03140686 -0.1903303 0.08500664
v -0.04050897 -0.1332991 0.02368767
v -0.04829056 -0.0599452 -0.01698251
v -0.0539895 0.02255085 -0.03302316
v -0.0570484 0.1061142 -0.02286368
v -0.05716734 0.1825648 0.01250125
v -0.05433521 0.2444194 0.06960991
v -0.0207988 0.3031435 0.2230211
v -0.02844025 0.2866242 0.1407767
v -0.01177025 0.2933617 0.3061965
v -0.002238274 0.2582361 0.3821619
v 0.01464535 0.1278514 0.4841514
v 0.006863746 0.2012052 0.4434811
v 0.02034436 0.04535517 0.5001917
v 0.02340324 -0.0382081 0.4900323
v 0.02352241 -0.1146589 0.4546674
v 0.0206901 -0.1765135 0.3975589
v 0.01518394 -0.2177172 0.3242967
v 0.007542419 -0.2342364 0.2420523
v -0.001486025 -0.2244547 0.1588766
v -0.01101798 -0.1893291 0.08291116
v -0.02012004 -0.1322981 0.02159223
v -0.02790174 -0.05894411 -0.01907802
v -0.03360061 0.02355197 -0.03511857
v -0.03665955 0.1071153 -0.0249591
v -0.03677874 0.183566 0.01040587
v -0.03394645 0.2454205 0.06751446
v -0.03972902 0.1532861 0.1681916
v -0.03201403 0.1699651 0.2512293
v -0.02239021 0.1345006 0.3279271
v -0.01453358 0.06043915 0.3689896
v -0.01144545 -0.02392988 0.3587326
v -0.01430487 -0.0863812 0.3010728
v -0.02201994 -0.1030601 0.2180351
v -0.0316437 -0.06759539 0.1413372
v -0.03950035 0.006465842 0.1002745
v -0.04258869 0.09083489 0.1105319
v -0.01162532 0.1709662 0.2491337
v -0.01934037 0.1542872 0.1660962
v -0.002001381 0.1355016 0.3258316
v 0.005855217 0.06144026 0.3668942
v 0.0089435 -0.0229289 0.356637
v 0.006083984 -0.08538008 0.2989773
v -0.001631164 -0.1020591 0.2159398
v -0.01125497 -0.06659441 0.1392418
v -0.01911156 0.007466912 0.09817905
v -0.02219997 0.09183598 0.1084365
v -0.008752889 0.09249806 0.2395937
v -0.01203326 0.08540632 0.2042865
v -0.03242212 0.08440517 0.2063819
v -0.02914157 0.09149704 0.2416892
v -0.0250496 0.0764176 0.2743008
v -0.00466093 0.07741867 0.2722053
v -0.02170911 0.04492704 0.2917604
v -0.001320257 0.04592814 0.289665
v -7.200241E-06 0.01005493 0.2853036
v -0.02039592 0.009053831 0.2873991
v -0.001222973 -0.01649917 0.260787
v -0.02161182 -0.01750013 0.2628825
v -0.0248922 -0.02459191 0.2275753
v -0.004503421 -0.02359093 0.2254799
v -0.008595543 -0.008511586 0.1928682
v -0.02898424 -0.009512691 0.1949636
v -0.01193593 0.02297904 0.1754085
v -0.03232493 0.02197792 0.177504
v -0.03363804 0.05785125 0.1818654
v -0.01324909 0.05885231 0.17977
v -0.02023308 0.18161 0.3714218
v 0.006863746 0.2012052 0.4434811
v -0.01352499 0.2002042 0.4455764
v 0.0001556206 0.1826111 0.3693264
v -0.02262712 0.257235 0.3842575
v -0.002238274 0.2582361 0.3821619
vt 0.07816988 0.9503791
vt 0.07816988 0.9503791
vt 0.07816988 0.9503791
vt 0.07816988 0.9503791
vt 0.07816988 0.9503791
vt 0.07816988 0.9503791
vt 0.07816988 0.9503791
vt 0.07816988 0.9503791
vt 0.07816988 0.9503791
vt 0.07816988 0.9503791
vt 0.07816988 0.9503791
vt 0.07816988 0.9503791
vt 0.07816988 0.9503791
vt 0.07816988 0.9503791
vt 0.07816988 0.9503791
vt 0.07816988 0.9503791
vt 0.07816988 0.9503791
vt 0.07816988 0.9503791
vt 0.07816988 0.9503791
vt 0.07816988 0.9503791
vt 0.07816988 0.9503791
vt 0.07816988 0.9503791
vt 0.07816988 0.9503791
vt 0.07816988 0.9503791
vt 0.07816988 0.9503791
vt 0.07816988 0.9503791
vt 0.07816988 0.9503791
vt 0.07816988 0.9503791
vt 0.07816988 0.9503791
vt 0.07816988 0.9503791
vt 0.07816988 0.9503791
vt 0.07816988 0.9503791
vt 0.07816988 0.9503791
vt 0.07816988 0.9503791
vt 0.07816988 0.9503791
vt 0.07816988 0.9503791
vt 0.07816988 0.9503791
vt 0.07816988 0.9503791
vt 0.07816988 0.9503791
vt 0.07816988 0.9503791
vt 0.07816988 0.9660131
vt 0.07816988 0.9660131
vt 0.07816988 0.9660131
vt 0.07816988 0.9660131
vt 0.07816988 0.9660131
vt 0.07816988 0.9660131
vt 0.07816988 0.9660131
vt 0.07816988 0.9660131
vt 0.07816988 0.9660131
vt 0.07816988 0.9660131
vt 0.07816988 0.9660131
vt 0.07816988 0.9660131
vt 0.07816988 0.9660131
vt 0.07816988 0.9660131
vt 0.07816988 0.9660131
vt 0.07816988 0.9660131
vt 0.07816988 0.9660131
vt 0.07816988 0.9660131
vt 0.07816988 0.9660131
vt 0.07816988 0.9660131
vt 0.1753724 0.6499349
vt 0.1753724 0.6499349
vt 0.1753724 0.6499349
vt 0.1753724 0.6499349
vt 0.1753724 0.6499349
vt 0.1753724 0.6499349
vt 0.1753724 0.6499349
vt 0.1753724 0.6499349
vt 0.1753724 0.6499349
vt 0.1753724 0.6499349
vt 0.1753724 0.6499349
vt 0.1753724 0.6499348
vt 0.1753724 0.6499349
vt 0.1753724 0.6499349
vt 0.1753724 0.6499349
vt 0.1753724 0.6499349
vt 0.1753724 0.6499349
vt 0.1753724 0.6499349
vt 0.1753724 0.6499349
vt 0.1753724 0.6499348
vt 0.07816988 0.9660131
vt 0.07816988 0.9660131
vt 0.07816988 0.9660131
vt 0.07816988 0.9660131
vt 0.07816988 0.9660131
vt 0.07816988 0.9660131
vt 0.07816988 0.9660131
vt 0.07816988 0.9660131
vt 0.07816988 0.9660131
vt 0.07816988 0.9660131
vt 0.07816988 0.9660131
vt 0.07816988 0.9660131
vt 0.07816988 0.9660131
vt 0.07816988 0.9660131
vt 0.07816988 0.9660131
vt 0.07816988 0.9660131
vt 0.07816988 0.9660131
vt 0.07816988 0.9660131
vt 0.07816988 0.9660131
vt 0.07816988 0.9660131
vt 0.07816988 0.9660131
vt 0.07816988 0.9660131
vt 0.07816988 0.9660131
vt 0.07816988 0.9660131
vt 0.07816988 0.9660131
vt 0.07816988 0.9660131
vt 0.07816988 0.9660131
vt 0.07816988 0.9660131
vt 0.07816988 0.9660131
vt 0.07816988 0.9660131
vt 0.07816988 0.9660131
vt 0.07816988 0.9660131
vt 0.07816988 0.9660131
vt 0.07816988 0.9660131
vt 0.07816988 0.9660131
vt 0.07816988 0.9660131
vt 0.07816988 0.9660131
vt 0.07816988 0.9660131
vt 0.07816988 0.9660131
vt 0.07816988 0.9660131
vt 0.07816988 0.9660131
vt 0.07816988 0.9660131
vt 0.1753724 0.6499349
vt 0.1753724 0.6499349
vt 0.1753724 0.6499349
vt 0.1753724 0.6499349
vt 0.1753724 0.6499349
vt 0.1753724 0.6499349
vt 0.1753724 0.6499349
vt 0.1753724 0.6499349
vt 0.1753724 0.6499349
vt 0.1753724 0.6499349
vt 0.1753724 0.6499349
vt 0.1753724 0.6499349
vt 0.1753725 0.6499349
vt 0.1753724 0.6499349
vt 0.1753724 0.6499348
vt 0.1753724 0.6499348
vt 0.1753724 0.6499348
vt 0.1753724 0.6499349
vt 0.1753724 0.6499348
vt 0.1753724 0.6499349
vt 0.1801306 0.6247846
vt 0.1801306 0.6247846
vt 0.1801306 0.6247846
vt 0.1801306 0.6247846
vt 0.1801306 0.6247846
vt 0.1801306 0.6247846
vt 0.1801306 0.6247846
vt 0.1801306 0.6247846
vt 0.1801306 0.6247846
vt 0.1801306 0.6247846
vt 0.1801306 0.6247846
vt 0.1801306 0.6247846
vt 0.1801306 0.6247846
vt 0.1801306 0.6247846
vt 0.1801306 0.6247846
vt 0.1801306 0.6247846
vt 0.1801306 0.6247846
vt 0.1801306 0.6247846
vt 0.1801306 0.6247846
vt 0.1801306 0.6247846
vt 0.08224832 0.9265883
vt 0.08224832 0.9265882
vt 0.08224832 0.9265883
vt 0.08224832 0.9265882
vt 0.08224832 0.9265882
vt 0.08224832 0.9265883
vn -0.7638333 0.6234738 -0.1668501
vn -0.7438881 0.6665916 0.04781381
vn -0.720323 0.6410602 0.2649088
vn -0.4718629 0.3704933 0.8000501
vn -0.5325006 0.7504146 0.3915624
vn -0.651378 0.209065 0.7293822
vn -0.6365026 -0.006255306 0.7712492
vn -0.6285184 -0.2243602 0.7447329
vn -0.628207 -0.4239016 0.6524289
vn -0.6355982 -0.5853478 0.5033715
vn -0.6499696 -0.6928937 0.3121504
vn -0.6699145 -0.7360101 0.09748607
vn -0.6934811 -0.7104775 -0.1196067
vn -0.7183605 -0.6187965 -0.3178821
vn -0.742118 -0.469941 -0.4779292
vn -0.7624283 -0.2784832 -0.5840806
vn -0.7773025 -0.06316274 -0.6259483
vn -0.785286 0.1549445 -0.5994315
vn -0.7855969 0.3544863 -0.507126
vn -0.7782053 0.5159292 -0.3580694
vn 0.6499718 0.6928917 -0.3121502
vn 0.6699169 0.7360078 -0.09748743
vn 0.6934819 0.7104767 0.1196063
vn 0.5862065 0.4224433 0.6913057
vn 0.5255684 0.8023655 0.2828207
vn 0.7624267 0.2784835 0.5840826
vn 0.777302 0.06316179 0.625949
vn 0.7852858 -0.1549431 0.5994321
vn 0.7855974 -0.3544841 0.507127
vn 0.7782061 -0.5159281 0.3580692
vn 0.7638351 -0.6234722 0.1668484
vn 0.7438898 -0.6665896 -0.04781492
vn 0.7203238 -0.6410596 -0.2649078
vn 0.6954448 -0.5493792 -0.4631833
vn 0.6716871 -0.4005237 -0.6232312
vn 0.6513764 -0.2090667 -0.7293833
vn 0.6365025 0.006253898 -0.7712492
vn 0.6285189 0.2243618 -0.744732
vn 0.6282076 0.4239028 -0.6524276
vn 0.6355996 0.5853474 -0.5033702
vn -0.9935759 -0.04878496 0.102113
vn -0.9935759 -0.04878496 0.1021132
vn -0.9935759 -0.048784 0.1021131
vn -0.9935759 -0.04878397 0.1021133
vn -0.9935759 -0.04878444 0.1021125
vn -0.9935759 -0.04878443 0.1021128
vn -0.9935758 -0.04878474 0.1021135
vn -0.9935759 -0.04878474 0.1021131
vn -0.9935759 -0.0487835 0.102113
vn -0.9935759 -0.04878446 0.1021128
vn 0.9935759 0.04878457 -0.1021134
vn 0.9935758 0.04878492 -0.1021138
vn 0.9935759 0.04878446 -0.1021134
vn 0.9935759 0.0487843 -0.1021133
vn 0.9935759 0.04878451 -0.102113
vn 0.9935759 0.04878465 -0.1021133
vn 0.9935759 0.04878459 -0.1021131
vn 0.9935759 0.0487844 -0.1021131
vn 0.9935758 0.04878495 -0.1021134
vn 0.9935759 0.04878473 -0.102113
vn -0.6949372 -0.7190126 -0.009126077
vn -0.7431334 -0.5414047 -0.3932349
vn -0.7824794 -0.1705016 -0.5988783
vn -0.7979458 0.2520256 -0.5475086
vn -0.7836242 0.5647854 -0.2587478
vn -0.7449863 0.6483147 0.1571102
vn -0.6967905 0.4707051 0.5412205
vn -0.657445 0.0998004 0.7468641
vn -0.6419786 -0.3227251 0.6954941
vn -0.656299 -0.635484 0.4067329
vn 0.7449875 -0.6483127 -0.1571119
vn 0.6967896 -0.4707046 -0.541222
vn 0.6574441 -0.09980217 -0.7468646
vn 0.6419778 0.3227252 -0.6954948
vn 0.6562995 0.6354842 -0.406732
vn 0.694938 0.7190117 0.009124081
vn 0.7431339 0.5414048 0.3932338
vn 0.7824795 0.1705013 0.5988782
vn 0.7979462 -0.2520253 0.5475081
vn 0.7836255 -0.5647841 0.2587468
vn 0.8872051 0.3960537 0.236661
vn -0.8548508 0.3105205 0.4157008
vn -0.7638333 0.6234738 -0.1668501
vn -0.7438881 0.6665916 0.04781381
vn -0.720323 0.6410602 0.2649088
vn -0.4718629 0.3704933 0.8000501
vn -0.5325006 0.7504146 0.3915624
vn -0.651378 0.209065 0.7293822
vn -0.6365026 -0.006255306 0.7712492
vn -0.6285184 -0.2243602 0.7447329
vn -0.628207 -0.4239016 0.6524289
vn -0.6355982 -0.5853478 0.5033715
vn -0.6499696 -0.6928937 0.3121504
vn -0.6699145 -0.7360101 0.09748607
vn -0.6934811 -0.7104775 -0.1196067
vn -0.7183605 -0.6187965 -0.3178821
vn -0.742118 -0.469941 -0.4779292
vn -0.7624283 -0.2784832 -0.5840806
vn -0.7773025 -0.06316274 -0.6259483
vn -0.785286 0.1549445 -0.5994315
vn -0.7855969 0.3544863 -0.507126
vn -0.7782053 0.5159292 -0.3580694
vn 0.6699169 0.7360078 -0.09748743
vn 0.6499718 0.6928917 -0.3121502
vn 0.6934819 0.7104767 0.1196063
vn 0.5862065 0.4224433 0.6913057
vn 0.7624267 0.2784835 0.5840826
vn 0.5255684 0.8023655 0.2828207
vn 0.777302 0.06316179 0.625949
vn 0.7852858 -0.1549431 0.5994321
vn 0.7855974 -0.3544841 0.507127
vn 0.7782061 -0.5159281 0.3580692
vn 0.7638351 -0.6234722 0.1668484
vn 0.7438898 -0.6665896 -0.04781492
vn 0.7203238 -0.6410596 -0.2649078
vn 0.6954448 -0.5493792 -0.4631833
vn 0.6716871 -0.4005237 -0.6232312
vn 0.6513764 -0.2090667 -0.7293833
vn 0.6365025 0.006253898 -0.7712492
vn 0.6285189 0.2243618 -0.744732
vn 0.6282076 0.4239028 -0.6524276
vn 0.6355996 0.5853474 -0.5033702
vn -0.9935759 -0.04878446 0.1021128
vn -0.9935759 -0.04878496 0.102113
vn -0.9935759 -0.04878496 0.1021132
vn -0.9935759 -0.048784 0.1021131
vn -0.9935759 -0.04878397 0.1021133
vn -0.9935759 -0.04878444 0.1021125
vn -0.9935759 -0.04878443 0.1021128
vn -0.9935758 -0.04878474 0.1021135
vn -0.9935759 -0.04878474 0.1021131
vn -0.9935759 -0.0487835 0.102113
vn 0.9935759 0.04878457 -0.1021134
vn 0.9935759 0.04878473 -0.102113
vn 0.9935758 0.04878492 -0.1021138
vn 0.9935759 0.04878446 -0.1021134
vn 0.9935759 0.0487843 -0.1021133
vn 0.9935759 0.04878451 -0.102113
vn 0.9935759 0.04878465 -0.1021133
vn 0.9935759 0.04878459 -0.1021131
vn 0.9935759 0.0487844 -0.1021131
vn 0.9935758 0.04878495 -0.1021134
vn 0.7449875 -0.6483127 -0.1571119
vn 0.7836255 -0.5647841 0.2587468
vn -0.656299 -0.635484 0.4067329
vn -0.6949372 -0.7190126 -0.009126077
vn -0.7431334 -0.5414047 -0.3932349
vn 0.6967896 -0.4707046 -0.541222
vn -0.7824794 -0.1705016 -0.5988783
vn 0.6574441 -0.09980217 -0.7468646
vn 0.6419778 0.3227252 -0.6954948
vn -0.7979458 0.2520256 -0.5475086
vn 0.6562995 0.6354842 -0.406732
vn -0.7836242 0.5647854 -0.2587478
vn -0.7449863 0.6483147 0.1571102
vn 0.694938 0.7190117 0.009124081
vn 0.7431339 0.5414048 0.3932338
vn -0.6967905 0.4707051 0.5412205
vn 0.7824795 0.1705013 0.5988782
vn -0.657445 0.0998004 0.7468641
vn -0.6419786 -0.3227251 0.6954941
vn 0.7979462 -0.2520253 0.5475081
vn -0.8548508 0.3105205 0.4157008
vn 0.5255684 0.8023655 0.2828207
vn -0.5325006 0.7504146 0.3915624
vn 0.8872051 0.3960537 0.236661
vn -0.4718629 0.3704933 0.8000501
vn 0.5862065 0.4224433 0.6913057
g recordWpn_geo_0
f 23/23/23 4/4/4 24/24/24
f 3/3/3 4/4/4 23/23/23
f 22/22/22 3/3/3 23/23/23
f 2/2/2 3/3/3 22/22/22
f 1/1/1 2/2/2 22/22/22
f 6/6/6 25/25/25 5/5/5
f 26/26/26 25/25/25 6/6/6
f 7/7/7 26/26/26 6/6/6
f 27/27/27 26/26/26 7/7/7
f 28/28/28 27/27/27 7/7/7
f 41/41/41 84/84/84 83/83/83
f 85/85/85 84/84/84 41/41/41
f 82/82/82 85/85/85 41/41/41
f 86/86/86 85/85/85 82/82/82
f 43/43/43 90/90/90 89/89/89
f 88/88/88 43/43/43 89/89/89
f 82/82/82 43/43/43 88/88/88
f 87/87/87 82/82/82 88/88/88
f 51/51/51 104/104/104 103/103/103
f 105/105/105 51/51/51 103/103/103
f 81/81/81 51/51/51 105/105/105
f 106/106/106 81/81/81 105/105/105
f 53/53/53 109/109/109 110/110/110
f 107/107/107 109/109/109 53/53/53
f 81/81/81 107/107/107 53/53/53
f 108/108/108 107/107/107 81/81/81
f 166/166/166 168/168/168 167/167/167
f 163/163/163 166/166/166 167/167/167
f 164/164/164 166/166/166 163/163/163
f 165/165/165 164/164/164 163/163/163
f 20/20/20 40/40/40 39/39/39
f 21/21/21 40/40/40 20/20/20
f 1/1/1 21/21/21 20/20/20
f 22/22/22 21/21/21 1/1/1
f 30/30/30 10/10/10 11/11/11
f 9/9/9 10/10/10 30/30/30
f 29/29/29 9/9/9 30/30/30
f 8/8/8 9/9/9 29/29/29
f 28/28/28 8/8/8 29/29/29
f 7/7/7 8/8/8 28/28/28
f 12/12/12 33/33/33 32/32/32
f 31/31/31 12/12/12 32/32/32
f 11/11/11 12/12/12 31/31/31
f 30/30/30 11/11/11 31/31/31
f 37/37/37 17/17/17 18/18/18
f 16/16/16 17/17/17 37/37/37
f 36/36/36 16/16/16 37/37/37
f 15/15/15 16/16/16 36/36/36
f 35/35/35 15/15/15 36/36/36
f 14/14/14 15/15/15 35/35/35
f 34/34/34 14/14/14 35/35/35
f 13/13/13 14/14/14 34/34/34
f 33/33/33 13/13/13 34/34/34
f 12/12/12 13/13/13 33/33/33
f 19/19/19 20/20/20 39/39/39
f 38/38/38 19/19/19 39/39/39
f 18/18/18 19/19/19 38/38/38
f 37/37/37 18/18/18 38/38/38
f 50/50/50 102/102/102 101/101/101
f 83/83/83 102/102/102 50/50/50
f 41/41/41 83/83/83 50/50/50
f 42/42/42 82/82/82 41/41/41
f 43/43/43 82/82/82 42/42/42
f 44/44/44 90/90/90 43/43/43
f 91/91/91 90/90/90 44/44/44
f 45/45/45 91/91/91 44/44/44
f 92/92/92 91/91/91 45/45/45
f 93/93/93 92/92/92 45/45/45
f 46/46/46 93/93/93 45/45/45
f 94/94/94 93/93/93 46/46/46
f 95/95/95 94/94/94 46/46/46
f 47/47/47 96/96/96 95/95/95
f 97/97/97 96/96/96 47/47/47
f 98/98/98 97/97/97 47/47/47
f 46/46/46 47/47/47 95/95/95
f 48/48/48 98/98/98 47/47/47
f 99/99/99 98/98/98 48/48/48
f 100/100/100 99/99/99 48/48/48
f 49/49/49 100/100/100 48/48/48
f 101/101/101 100/100/100 49/49/49
f 50/50/50 101/101/101 49/49/49
f 60/60/60 104/104/104 51/51/51
f 122/122/122 104/104/104 60/60/60
f 121/121/121 122/122/122 60/60/60
f 52/52/52 81/81/81 53/53/53
f 51/51/51 81/81/81 52/52/52
f 55/55/55 112/112/112 113/113/113
f 111/111/111 112/112/112 55/55/55
f 54/54/54 111/111/111 55/55/55
f 110/110/110 111/111/111 54/54/54
f 53/53/53 110/110/110 54/54/54
f 56/56/56 114/114/114 115/115/115
f 113/113/113 114/114/114 56/56/56
f 55/55/55 113/113/113 56/56/56
f 57/57/57 117/117/117 118/118/118
f 116/116/116 117/117/117 57/57/57
f 115/115/115 116/116/116 57/57/57
f 56/56/56 115/115/115 57/57/57
f 58/58/58 119/119/119 120/120/120
f 118/118/118 119/119/119 58/58/58
f 57/57/57 118/118/118 58/58/58
f 59/59/59 121/121/121 60/60/60
f 120/120/120 121/121/121 59/59/59
f 58/58/58 120/120/120 59/59/59
f 62/62/62 126/126/126 125/125/125
f 124/124/124 62/62/62 125/125/125
f 61/61/61 62/62/62 124/124/124
f 123/123/123 61/61/61 124/124/124
f 70/70/70 61/61/61 123/123/123
f 132/132/132 70/70/70 123/123/123
f 69/69/69 70/70/70 132/132/132
f 68/68/68 69/69/69 132/132/132
f 127/127/127 64/64/64 65/65/65
f 63/63/63 64/64/64 127/127/127
f 126/126/126 63/63/63 127/127/127
f 62/62/62 63/63/63 126/126/126
f 67/67/67 131/131/131 130/130/130
f 129/129/129 67/67/67 130/130/130
f 66/66/66 67/67/67 129/129/129
f 128/128/128 66/66/66 129/129/129
f 65/65/65 66/66/66 128/128/128
f 127/127/127 65/65/65 128/128/128
f 68/68/68 131/131/131 67/67/67
f 132/132/132 131/131/131 68/68/68
f 72/72/72 135/135/135 136/136/136
f 133/133/133 135/135/135 72/72/72
f 71/71/71 133/133/133 72/72/72
f 134/134/134 133/133/133 71/71/71
f 80/80/80 134/134/134 71/71/71
f 142/142/142 134/134/134 80/80/80
f 79/79/79 142/142/142 80/80/80
f 78/78/78 142/142/142 79/79/79
f 137/137/137 75/75/75 74/74/74
f 73/73/73 137/137/137 74/74/74
f 136/136/136 137/137/137 73/73/73
f 72/72/72 136/136/136 73/73/73
f 77/77/77 140/140/140 141/141/141
f 139/139/139 140/140/140 77/77/77
f 76/76/76 139/139/139 77/77/77
f 138/138/138 139/139/139 76/76/76
f 75/75/75 138/138/138 76/76/76
f 137/137/137 138/138/138 75/75/75
f 78/78/78 141/141/141 142/142/142
f 77/77/77 141/141/141 78/78/78
f 159/159/159 160/160/160 158/158/158
f 161/161/161 160/160/160 159/159/159
f 162/162/162 161/161/161 159/159/159
f 145/145/145 161/161/161 162/162/162
f 144/144/144 145/145/145 162/162/162
f 143/143/143 145/145/145 144/144/144
f 149/149/149 150/150/150 151/151/151
f 148/148/148 150/150/150 149/149/149
f 147/147/147 148/148/148 149/149/149
f 143/143/143 148/148/148 147/147/147
f 146/146/146 143/143/143 147/147/147
f 145/145/145 143/143/143 146/146/146
f 153/153/153 155/155/155 154/154/154
f 152/152/152 153/153/153 154/154/154
f 151/151/151 153/153/153 152/152/152
f 149/149/149 151/151/151 152/152/152
f 157/157/157 159/159/159 158/158/158
f 155/155/155 157/157/157 158/158/158
f 156/156/156 157/157/157 155/155/155
f 153/153/153 156/156/156 155/155/155
