g round_geo
v 1.688988E-31 0.602515 0.2715692
v 1.413455E-31 0.5085527 0.270748
v -4.768371E-09 0.5465484 0.2745575
v 1.624879E-31 0.4674881 0.1582137
v -4.768371E-09 0.5970305 0.2718796
v 1.470646E-31 0.4619792 0.2048418
v 1.526961E-31 0.5188882 0.04653984
v 1.65315E-31 0.5275697 -0.03009265
v 1.407731E-31 0.4795978 0.2437281
v -3E-08 0.5453494 -0.0455454
v -0.0372186 0.6145132 0.269723
v -0.053346 0.6363157 0.2649631
v -0.01852453 0.6046662 0.270745
v -0.1409564 0.5660526 -0.0100246
v -0.1614738 0.5181503 0.09570085
v -0.1723269 0.5192338 0.1393982
v -0.04866293 0.5108103 0.2688271
v -0.1817739 0.5405848 0.1881718
v -0.04326725 0.5488748 0.2730535
v -0.1011985 0.5592383 0.2592438
v -0.08823835 0.4790714 0.1459965
v -0.1488204 0.5417019 0.2374512
v -0.04602793 0.4702648 0.1558045
v -0.1852414 0.6185276 0.2153365
v -0.2043649 0.643446 0.1868345
v -0.1849225 0.5717673 0.2163687
v -0.2054107 0.598184 0.1935393
v -0.03785438 0.5976651 0.2694133
v -0.1475849 0.5823969 0.2446757
v -0.1399366 0.6067261 0.2392551
v -0.09070228 0.6003076 0.2591238
v -0.08497725 0.6235792 0.2511627
v -0.2124308 0.6303785 0.167307
v -0.207939 0.6799843 0.146529
v -0.1066012 0.5238387 0.2539361
v -0.05238929 0.4658568 0.1986655
v -0.02293372 0.5200189 0.03656261
v -0.09885874 0.478893 0.1843984
v -0.03511198 0.5247419 -0.005126341
v -0.2015179 0.5881311 0.08697928
v -0.1953093 0.5408562 0.119253
v -0.1807579 0.5719683 0.04338133
v -0.1752544 0.5422494 0.05957561
v -0.2156119 0.5975288 0.1418882
v -0.2029872 0.564586 0.1663789
v -0.2149081 0.6230679 0.1209536
v -0.1051611 0.4955782 0.2277982
v -0.05214301 0.4831094 0.2414617
v -0.1281101 0.498373 0.1202257
v -0.142037 0.5004207 0.1617718
v -0.1483366 0.5161557 0.2084161
v -0.0928857 0.5332018 0.01650324
v -0.0680798 0.5502642 -0.03587999
v 0.03721859 0.6145132 0.269723
v 0.05334599 0.6363157 0.2649631
v 0.01852452 0.6046662 0.270745
v 0.1409564 0.5660526 -0.0100246
v 0.1614738 0.5181503 0.09570085
v 0.1723269 0.5192338 0.1393982
v 0.04866292 0.5108103 0.2688271
v 0.1817739 0.5405848 0.1881718
v 0.04326724 0.5488748 0.2730535
v 0.1011985 0.5592383 0.2592438
v 0.08823834 0.4790714 0.1459965
v 0.1488204 0.5417019 0.2374512
v 0.04602792 0.4702648 0.1558045
v 0.1852414 0.6185276 0.2153365
v 0.2043649 0.643446 0.1868345
v 0.1849225 0.5717673 0.2163687
v 0.2054107 0.598184 0.1935393
v 0.03785437 0.5976651 0.2694133
v 0.1475849 0.5823969 0.2446757
v 0.1399366 0.6067261 0.2392551
v 0.09070227 0.6003076 0.2591238
v 0.08497725 0.6235792 0.2511627
v 0.2124308 0.6303785 0.167307
v 0.207939 0.6799843 0.146529
v 0.1066012 0.5238387 0.2539361
v 0.05238928 0.4658568 0.1986655
v 0.02293372 0.5200189 0.03656261
v 0.09885871 0.478893 0.1843984
v 0.03511198 0.5247419 -0.005126341
v 0.2015179 0.5881311 0.08697928
v 0.1953093 0.5408562 0.119253
v 0.1807579 0.5719683 0.04338133
v 0.1752544 0.5422494 0.05957561
v 0.2156119 0.5975288 0.1418882
v 0.2029872 0.564586 0.1663789
v 0.2149081 0.6230679 0.1209536
v 0.1051611 0.4955782 0.2277982
v 0.052143 0.4831094 0.2414617
v 0.12811 0.498373 0.1202257
v 0.142037 0.5004207 0.1617718
v 0.1483366 0.5161557 0.2084161
v 0.09288563 0.5332018 0.01650324
v 0.06807973 0.5502642 -0.03587999
v -0.08096542 0.4926166 0.1044725
v -0.03759472 0.4807482 0.1234062
v 1.748896E-31 0.4784915 0.1272944
v 0.03759472 0.4807482 0.1234062
v 0.08096538 0.4926166 0.1044725
v -0.1432798 0.5311889 0.045439
v -0.1127127 0.5075452 0.07753708
v 0.1127126 0.5075452 0.07753708
v 0.1432797 0.5311889 0.045439
v 0.1993861 0.5698556 0.100506
v -0.1993861 0.5698556 0.100506
v -0.0928857 0.5332018 0.01650324
v -0.03511198 0.5247419 -0.005126341
v 0.09288563 0.5332018 0.01650324
v 0.03511198 0.5247419 -0.005126341
v 0.1409564 0.5660526 -0.0100246
v -0.1409564 0.5660526 -0.0100246
v -0.09070228 0.6003076 0.2591238
v -0.1011985 0.5592383 0.2592438
v -0.08497725 0.6235792 0.2511627
v -0.1051611 0.4955782 0.2277982
v -0.05214301 0.4831094 0.2414617
v 1.407731E-31 0.4795978 0.2437281
v -0.1066012 0.5238387 0.2539361
v 0.09070227 0.6003076 0.2591238
v 0.1011985 0.5592383 0.2592438
v 0.08497725 0.6235792 0.2511627
v 0.1051611 0.4955782 0.2277982
v 0.052143 0.4831094 0.2414617
v 0.1066012 0.5238387 0.2539361
vt 0.5992749 0.2106674
vt 0.5992749 0.1915234
vt 0.5992749 0.1985454
vt 0.5992749 0.1656643
vt 0.5992749 0.2090738
vt 0.5992749 0.1763426
vt 0.5992749 0.1469851
vt 0.5386822 0.1424734
vt 0.5992749 0.1844451
vt 0.5387616 0.1453005
vt 0.5935321 0.2125551
vt 0.5896707 0.2147857
vt 0.5963482 0.2109023
vt 0.5543659 0.152736
vt 0.5591547 0.1681046
vt 0.5637851 0.1774109
vt 0.5920376 0.1915851
vt 0.567122 0.186898
vt 0.5925178 0.1984859
vt 0.5827175 0.1981931
vt 0.5800457 0.169118
vt 0.575084 0.1928078
vt 0.5898624 0.1670925
vt 0.564621 0.2026381
vt 0.5563541 0.2060551
vt 0.5663413 0.1951464
vt 0.5606094 0.1972508
vt 0.5930501 0.2084161
vt 0.5740079 0.200145
vt 0.5727295 0.2058275
vt 0.5832466 0.2058053
vt 0.5828361 0.2100099
vt 0.5539884 0.2001193
vt 0.5413966 0.205702
vt 0.5826722 0.1918957
vt 0.590233 0.1764158
vt 0.5910068 0.1464739
vt 0.5813205 0.1768851
vt 0.5432441 0.1400214
vt 0.5468754 0.1810361
vt 0.5549723 0.1791888
vt 0.541226 0.1718082
vt 0.5497093 0.1694552
vt 0.5514975 0.1917796
vt 0.5602953 0.1890658
vt 0.5465014 0.1936666
vt 0.5824279 0.1852738
vt 0.5912101 0.1848526
vt 0.5697982 0.1688017
vt 0.571775 0.1772734
vt 0.5742578 0.1860131
vt 0.5687871 0.1521854
vt 0.5470198 0.1449672
vt 0.6050175 0.2125551
vt 0.6088792 0.2147857
vt 0.6022015 0.2109023
vt 0.644184 0.152736
vt 0.6393951 0.1681046
vt 0.6347647 0.1774109
vt 0.6065121 0.1915851
vt 0.6314278 0.186898
vt 0.606032 0.1984859
vt 0.6158323 0.1981931
vt 0.6185042 0.169118
vt 0.6234658 0.1928078
vt 0.6086875 0.1670925
vt 0.6339288 0.2026381
vt 0.6421958 0.2060551
vt 0.6322086 0.1951464
vt 0.6379404 0.1972508
vt 0.6054996 0.2084161
vt 0.6245419 0.200145
vt 0.6258203 0.2058275
vt 0.6153032 0.2058053
vt 0.6157137 0.2100099
vt 0.6445614 0.2001193
vt 0.6571532 0.205702
vt 0.6158776 0.1918957
vt 0.6083166 0.1764158
vt 0.6075429 0.1464739
vt 0.6172293 0.1768851
vt 0.5339894 0.1402814
vt 0.6516744 0.1810361
vt 0.6435775 0.1791888
vt 0.6573238 0.1718082
vt 0.6488405 0.1694552
vt 0.6470522 0.1917796
vt 0.6382545 0.1890658
vt 0.6520483 0.1936666
vt 0.6161218 0.1852738
vt 0.6073397 0.1848526
vt 0.6287516 0.1688017
vt 0.6267748 0.1772734
vt 0.624292 0.1860131
vt 0.6297628 0.1521854
vt 0.5304983 0.1454318
vt 0.574923 0.160741
vt 0.5905671 0.1576702
vt 0.5992749 0.1554674
vt 0.6079826 0.1576702
vt 0.6236268 0.160741
vt 0.5567604 0.1604203
vt 0.5690385 0.1599626
vt 0.6295114 0.1599626
vt 0.6417894 0.1604203
vt 0.6484013 0.1802893
vt 0.55032 0.1802502
vt 0.5506048 0.1386467
vt 0.5817916 0.1369589
vt 0.5265616 0.1393234
vt 0.6167582 0.1369589
vt 0.5210354 0.1446785
vt 0.5564275 0.1436702
vt 0.5832466 0.2058053
vt 0.5827175 0.1981931
vt 0.5828361 0.2100099
vt 0.5824279 0.1852738
vt 0.5912101 0.1848526
vt 0.5992749 0.1844451
vt 0.5826722 0.1918957
vt 0.6153032 0.2058053
vt 0.6158323 0.1981931
vt 0.6157137 0.2100099
vt 0.6161218 0.1852738
vt 0.6073397 0.1848526
vt 0.6158776 0.1918957
vn 0 0.06440611 0.9979237
vn 0 -0.4185228 0.9082062
vn 0 -0.01810854 0.999836
vn 0 -0.9752634 -0.2210457
vn 0 0.03702173 0.9993144
vn 0 -0.9896106 0.1437742
vn 0 -0.9047413 -0.4259613
vn 0 -0.7994502 -0.6007323
vn 0 -0.8216073 0.5700539
vn 0 -0.7938024 -0.6081757
vn -0.1389785 0.04438388 0.9893003
vn -0.3207586 0.2086297 0.9238979
vn -0.03846997 0.04467892 0.9982604
vn -0.3594811 -0.8144423 -0.4554746
vn -0.470965 -0.8454472 -0.2518154
vn -0.6417644 -0.766822 0.01107053
vn -0.1844166 -0.4054381 0.895327
vn -0.7559732 -0.5812142 0.3011556
vn -0.1380885 -0.01172191 0.9903505
vn -0.2773929 -0.01458384 0.9606459
vn -0.2367715 -0.9483142 -0.2112805
vn -0.5801274 -0.3480104 0.736438
vn -0.1053865 -0.9700624 -0.2187981
vn -0.5945558 0.1107756 0.796387
vn -0.8988829 0.1111843 0.4238487
vn -0.7626715 -0.2368303 0.6018668
vn -0.9111872 -0.1015846 0.3992723
vn -0.1127968 0.02487593 0.9933066
vn -0.3970739 0.1057465 0.9116743
vn -0.3356056 0.3299974 0.8823098
vn -0.2720826 0.1685323 0.9474006
vn -0.3162523 0.2819607 0.9058051
vn -0.9824163 0.05937417 0.1770112
vn -0.9771357 0.1511224 0.1495587
vn -0.3918986 -0.3888027 0.8338153
vn -0.1775058 -0.9753872 0.1308105
vn -0.06057037 -0.9497761 -0.3070126
vn -0.3690771 -0.9249098 0.09123605
vn -0.2324129 -0.8964246 -0.3773686
vn -0.937951 -0.2483448 -0.2420182
vn -0.8471843 -0.519531 -0.1112036
vn -0.8588109 -0.3414169 -0.3819402
vn -0.6423919 -0.6626245 -0.3850474
vn -0.9851511 -0.1633329 -0.05291066
vn -0.9135571 -0.3729981 0.1621292
vn -0.9988533 0.004689926 -0.04764629
vn -0.4337117 -0.7682343 0.470861
vn -0.2091834 -0.8093008 0.5488848
vn -0.3495005 -0.9128703 -0.2109912
vn -0.50905 -0.8590311 0.05416387
vn -0.6075562 -0.6982151 0.3786436
vn -0.1838289 -0.9096659 -0.3724446
vn -0.222609 -0.8216604 -0.5247089
vn 0.1389789 0.04438371 0.9893003
vn 0.3207581 0.2086294 0.9238982
vn 0.03847073 0.04467892 0.9982604
vn 0.3594807 -0.8144423 -0.4554747
vn 0.470965 -0.8454472 -0.2518155
vn 0.6417642 -0.7668222 0.01107031
vn 0.1844165 -0.405438 0.895327
vn 0.7559731 -0.5812142 0.3011556
vn 0.1380886 -0.0117219 0.9903505
vn 0.2773927 -0.01458387 0.9606459
vn 0.2367714 -0.9483142 -0.2112804
vn 0.5801273 -0.3480102 0.7364382
vn 0.1053865 -0.9700624 -0.2187979
vn 0.5945557 0.1107757 0.796387
vn 0.8988829 0.1111844 0.4238485
vn 0.7626715 -0.2368302 0.6018668
vn 0.9111872 -0.1015846 0.3992724
vn 0.1127968 0.02487595 0.9933066
vn 0.3959759 0.1133807 0.9112343
vn 0.3464284 0.3255609 0.8797713
vn 0.2625427 0.1335201 0.9556379
vn 0.3204497 0.2629908 0.9100263
vn 0.9824163 0.0593742 0.1770112
vn 0.9914054 0.1054197 0.07747284
vn 0.3918985 -0.3888026 0.8338154
vn 0.1775057 -0.9753873 0.1308105
vn 0.06057043 -0.9497761 -0.3070121
vn 0.3690771 -0.9249098 0.09123621
vn 0.2324131 -0.8964244 -0.377369
vn 0.9508352 -0.2090609 -0.2284863
vn 0.8327476 -0.545531 -0.09448407
vn 0.8588106 -0.3414172 -0.3819406
vn 0.6423916 -0.6626245 -0.3850477
vn 0.9930143 -0.112431 -0.03580285
vn 0.9135571 -0.3729982 0.1621293
vn 0.9873751 0.00298575 -0.1583708
vn 0.4337117 -0.7682343 0.4708613
vn 0.2091834 -0.8093009 0.5488847
vn 0.3495007 -0.9128702 -0.2109913
vn 0.50905 -0.8590311 0.05416385
vn 0.6075562 -0.6982149 0.378644
vn 0.1838289 -0.9096657 -0.3724449
vn 0.2226089 -0.8216599 -0.5247096
vn -0.1179897 -0.9229251 -0.366453
vn -0.03987415 -0.9261883 -0.374947
vn 0 -0.9265657 -0.3761328
vn 0.03987417 -0.9261883 -0.3749471
vn 0.1179894 -0.9229252 -0.3664527
vn -0.3897389 -0.8077604 -0.4422971
vn -0.2115607 -0.9014735 -0.3776076
vn 0.2115607 -0.9014735 -0.3776076
vn 0.3897385 -0.8077607 -0.442297
vn 0.9291192 -0.2923275 -0.2264555
vn -0.9252418 -0.3069831 -0.2229106
vn -0.1838289 -0.9096659 -0.3724446
vn -0.2324129 -0.8964246 -0.3773686
vn 0.1838289 -0.9096657 -0.3724449
vn 0.2324131 -0.8964244 -0.377369
vn 0.3594807 -0.8144423 -0.4554747
vn -0.3594811 -0.8144423 -0.4554746
vn -0.2720826 0.1685323 0.9474006
vn -0.2773929 -0.01458384 0.9606459
vn -0.3162523 0.2819607 0.9058051
vn -0.4337117 -0.7682343 0.470861
vn -0.2091834 -0.8093008 0.5488848
vn 0 -0.8216073 0.5700539
vn -0.3918986 -0.3888027 0.8338153
vn 0.2625427 0.1335201 0.9556379
vn 0.2773927 -0.01458387 0.9606459
vn 0.3204497 0.2629908 0.9100263
vn 0.4337117 -0.7682343 0.4708613
vn 0.2091834 -0.8093009 0.5488847
vn 0.3918985 -0.3888026 0.8338154
g round_geo_0
f 52/52/52 109/109/109 37/37/37
f 97/97/97 52/52/52 37/37/37
f 103/103/103 52/52/52 97/97/97
f 21/21/21 103/103/103 97/97/97
f 49/49/49 103/103/103 21/21/21
f 38/38/38 49/49/49 21/21/21
f 50/50/50 49/49/49 38/38/38
f 117/117/117 50/50/50 38/38/38
f 51/51/51 50/50/50 117/117/117
f 120/120/120 51/51/51 117/117/117
f 22/22/22 51/51/51 120/120/120
f 115/115/115 22/22/22 120/120/120
f 29/29/29 22/22/22 115/115/115
f 114/114/114 29/29/29 115/115/115
f 30/30/30 29/29/29 114/114/114
f 32/32/32 30/30/30 114/114/114
f 95/95/95 80/80/80 111/111/111
f 101/101/101 80/80/80 95/95/95
f 104/104/104 101/101/101 95/95/95
f 64/64/64 101/101/101 104/104/104
f 92/92/92 64/64/64 104/104/104
f 81/81/81 64/64/64 92/92/92
f 93/93/93 81/81/81 92/92/92
f 124/124/124 81/81/81 93/93/93
f 94/94/94 124/124/124 93/93/93
f 126/126/126 124/124/124 94/94/94
f 65/65/65 126/126/126 94/94/94
f 122/122/122 126/126/126 65/65/65
f 72/72/72 122/122/122 65/65/65
f 121/121/121 122/122/122 72/72/72
f 75/75/75 121/121/121 72/72/72
f 96/96/96 82/82/82 8/8/8
f 110/110/110 82/82/82 96/96/96
f 112/112/112 110/110/110 96/96/96
f 53/53/53 108/108/108 113/113/113
f 39/39/39 108/108/108 53/53/53
f 8/8/8 39/39/39 53/53/53
f 102/102/102 14/14/14 52/52/52
f 42/42/42 14/14/14 102/102/102
f 43/43/43 42/42/42 102/102/102
f 107/107/107 42/42/42 43/43/43
f 41/41/41 107/107/107 43/43/43
f 44/44/44 107/107/107 41/41/41
f 45/45/45 44/44/44 41/41/41
f 27/27/27 44/44/44 45/45/45
f 26/26/26 27/27/27 45/45/45
f 24/24/24 27/27/27 26/26/26
f 29/29/29 24/24/24 26/26/26
f 30/30/30 24/24/24 29/29/29
f 44/44/44 46/46/46 40/40/40
f 33/33/33 46/46/46 44/44/44
f 27/27/27 33/33/33 44/44/44
f 25/25/25 33/33/33 27/27/27
f 24/24/24 25/25/25 27/27/27
f 34/34/34 33/33/33 25/25/25
f 46/46/46 33/33/33 34/34/34
f 107/107/107 40/40/40 42/42/42
f 44/44/44 40/40/40 107/107/107
f 100/100/100 80/80/80 101/101/101
f 99/99/99 80/80/80 100/100/100
f 66/66/66 99/99/99 100/100/100
f 4/4/4 99/99/99 66/66/66
f 79/79/79 4/4/4 66/66/66
f 6/6/6 4/4/4 79/79/79
f 119/119/119 6/6/6 79/79/79
f 36/36/36 6/6/6 119/119/119
f 118/118/118 36/36/36 119/119/119
f 117/117/117 36/36/36 118/118/118
f 8/8/8 10/10/10 96/96/96
f 53/53/53 10/10/10 8/8/8
f 72/72/72 73/73/73 75/75/75
f 67/67/67 73/73/73 72/72/72
f 69/69/69 67/67/67 72/72/72
f 70/70/70 67/67/67 69/69/69
f 88/88/88 70/70/70 69/69/69
f 87/87/87 70/70/70 88/88/88
f 106/106/106 87/87/87 88/88/88
f 83/83/83 87/87/87 106/106/106
f 85/85/85 83/83/83 106/106/106
f 70/70/70 68/68/68 67/67/67
f 76/76/76 68/68/68 70/70/70
f 87/87/87 76/76/76 70/70/70
f 89/89/89 76/76/76 87/87/87
f 83/83/83 89/89/89 87/87/87
f 76/76/76 77/77/77 68/68/68
f 89/89/89 77/77/77 76/76/76
f 69/69/69 65/65/65 94/94/94
f 61/61/61 69/69/69 94/94/94
f 88/88/88 69/69/69 61/61/61
f 84/84/84 88/88/88 61/61/61
f 106/106/106 88/88/88 84/84/84
f 86/86/86 106/106/106 84/84/84
f 85/85/85 106/106/106 86/86/86
f 57/57/57 85/85/85 86/86/86
f 64/64/64 100/100/100 101/101/101
f 66/66/66 100/100/100 64/64/64
f 81/81/81 66/66/66 64/64/64
f 79/79/79 66/66/66 81/81/81
f 124/124/124 79/79/79 81/81/81
f 125/125/125 79/79/79 124/124/124
f 125/125/125 119/119/119 79/79/79
f 99/99/99 7/7/7 80/80/80
f 37/37/37 7/7/7 99/99/99
f 98/98/98 37/37/37 99/99/99
f 97/97/97 37/37/37 98/98/98
f 23/23/23 97/97/97 98/98/98
f 21/21/21 97/97/97 23/23/23
f 38/38/38 21/21/21 23/23/23
f 59/59/59 61/61/61 94/94/94
f 84/84/84 61/61/61 59/59/59
f 58/58/58 84/84/84 59/59/59
f 86/86/86 84/84/84 58/58/58
f 105/105/105 86/86/86 58/58/58
f 57/57/57 86/86/86 105/105/105
f 95/95/95 57/57/57 105/105/105
f 4/4/4 98/98/98 99/99/99
f 23/23/23 98/98/98 4/4/4
f 36/36/36 23/23/23 4/4/4
f 38/38/38 23/23/23 36/36/36
f 117/117/117 38/38/38 36/36/36
f 6/6/6 36/36/36 4/4/4
f 18/18/18 26/26/26 45/45/45
f 41/41/41 18/18/18 45/45/45
f 16/16/16 18/18/18 41/41/41
f 15/15/15 16/16/16 41/41/41
f 50/50/50 16/16/16 15/15/15
f 49/49/49 50/50/50 15/15/15
f 15/15/15 41/41/41 43/43/43
f 102/102/102 15/15/15 43/43/43
f 49/49/49 15/15/15 102/102/102
f 103/103/103 49/49/49 102/102/102
f 26/26/26 22/22/22 29/29/29
f 51/51/51 22/22/22 26/26/26
f 18/18/18 51/51/51 26/26/26
f 16/16/16 51/51/51 18/18/18
f 50/50/50 51/51/51 16/16/16
f 93/93/93 59/59/59 94/94/94
f 58/58/58 59/59/59 93/93/93
f 92/92/92 58/58/58 93/93/93
f 105/105/105 58/58/58 92/92/92
f 104/104/104 105/105/105 92/92/92
f 95/95/95 105/105/105 104/104/104
f 69/69/69 72/72/72 65/65/65
f 103/103/103 102/102/102 52/52/52
g round_geo_1
f 71/71/71 63/63/63 74/74/74
f 62/62/62 63/63/63 71/71/71
f 3/3/3 62/62/62 71/71/71
f 2/2/2 62/62/62 3/3/3
f 19/19/19 2/2/2 3/3/3
f 17/17/17 2/2/2 19/19/19
f 35/35/35 17/17/17 19/19/19
f 48/48/48 17/17/17 35/35/35
f 47/47/47 48/48/48 35/35/35
f 20/20/20 35/35/35 19/19/19
f 28/28/28 20/20/20 19/19/19
f 31/31/31 20/20/20 28/28/28
f 11/11/11 31/31/31 28/28/28
f 116/116/116 31/31/31 11/11/11
f 12/12/12 116/116/116 11/11/11
f 9/9/9 2/2/2 17/17/17
f 60/60/60 2/2/2 9/9/9
f 91/91/91 60/60/60 9/9/9
f 78/78/78 60/60/60 91/91/91
f 90/90/90 78/78/78 91/91/91
f 54/54/54 123/123/123 55/55/55
f 74/74/74 123/123/123 54/54/54
f 71/71/71 74/74/74 54/54/54
f 56/56/56 71/71/71 54/54/54
f 5/5/5 71/71/71 56/56/56
f 1/1/1 5/5/5 56/56/56
f 13/13/13 5/5/5 1/1/1
f 9/9/9 17/17/17 48/48/48
f 5/5/5 3/3/3 71/71/71
f 28/28/28 3/3/3 5/5/5
f 13/13/13 28/28/28 5/5/5
f 11/11/11 28/28/28 13/13/13
f 62/62/62 78/78/78 63/63/63
f 60/60/60 78/78/78 62/62/62
f 2/2/2 60/60/60 62/62/62
f 3/3/3 28/28/28 19/19/19
