g round1_geo
v -4.195674E-17 1.653951 0.1630486
v -4.108156E-17 1.509371 0.1807881
v -1.893192E-17 1.656734 0.1366789
v -2.37016E-17 1.647381 0.19968
v -3.865833E-17 1.553377 0.2996969
v 4.777421E-18 1.631932 0.2535851
v -4.095322E-17 1.498539 0.2032627
v 0.02402385 1.630178 0.1341132
v 0.02682602 1.614616 0.1352269
v 0.03360536 1.590131 0.1387501
v 0.01578276 1.651274 0.1601264
v 0.04293231 1.509518 0.2093554
v 0.04654146 1.616276 0.1944174
v 0.03724135 1.535586 0.1635125
v 0.03381352 1.521469 0.1756348
v 0.04777006 1.536146 0.1725119
v 0.01739629 1.509881 0.1804895
v 0.04115095 1.607948 0.1536268
v 0.01874094 1.655573 0.1319648
v 0.02464086 1.501843 0.2041643
v 0.04942007 1.516868 0.1674248
v 0.03592369 1.499465 0.1811199
v -2.491449E-17 1.487799 0.1905651
v 0.04095713 1.55271 0.2763443
v 0.03337115 1.626912 0.2381282
v 0.02172265 1.642372 0.1983888
v -2.903231E-17 1.49708 0.2452457
v -2.392491E-17 1.515414 0.2787579
v 0.03259122 1.501066 0.2332289
v 0.03862696 1.519904 0.2589561
v 0.0561234 1.526759 0.2192668
v 0.04118314 1.578355 0.1384809
v 0.04865332 1.562409 0.1374834
v 0.05682043 1.546835 0.1439031
v 0.04897274 1.57022 0.1636204
v 0.06041363 1.571778 0.2206662
v 0.03984977 1.598094 0.2697942
v -1.724899E-17 1.600893 0.2894749
v 0.03585412 1.566548 0.1527456
v 0.02595716 1.642547 0.1457186
v -0.01736835 1.509896 0.1804886
v -0.03414583 1.521371 0.17546
v -0.04293231 1.509518 0.2093554
v -0.02464086 1.501843 0.2041643
v -0.0561234 1.526759 0.2192668
v -0.04777006 1.536146 0.1725119
v -0.02172265 1.642372 0.1983888
v -0.01578276 1.651274 0.1601264
v -0.03862696 1.519904 0.2589561
v -0.04095713 1.55271 0.2763443
v -0.04115095 1.607948 0.1536268
v -0.03360536 1.590131 0.1387501
v -0.02682602 1.614616 0.1352269
v -0.04654146 1.616276 0.1944174
v -0.03337115 1.626912 0.2381282
v -0.02595716 1.642547 0.1457186
v -0.01874094 1.655573 0.1319648
v -0.03984977 1.598094 0.2697942
v -0.04897274 1.57022 0.1636204
v -0.06041363 1.571778 0.2206662
v -0.03724135 1.535586 0.1635125
v -0.03592369 1.499465 0.1811199
v -0.04942007 1.516868 0.1674248
v -0.03259122 1.501066 0.2332289
v -0.05682043 1.546835 0.1439031
v -0.04865332 1.562409 0.1374834
v -0.03585412 1.566548 0.1527456
v -0.04118314 1.578355 0.1384809
v -0.02402385 1.630178 0.1341132
v 0.04066432 1.519449 0.1720309
v 0.02388763 1.506097 0.1807185
v -3.989743E-17 1.502084 0.1840906
v -0.02439592 1.506081 0.1807195
v -0.03815385 1.519547 0.1722057
v 0.03724135 1.535586 0.1635125
v 0.03360536 1.590131 0.1387501
v 0.03585412 1.566548 0.1527456
v -2.392491E-17 1.515414 0.2787579
v -3.865833E-17 1.553377 0.2996969
v -4.095322E-17 1.498539 0.2032627
v -4.108156E-17 1.509371 0.1807881
v -1.724899E-17 1.600893 0.2894749
v -2.903231E-17 1.49708 0.2452457
v -0.03724135 1.535586 0.1635125
v -0.03360536 1.590131 0.1387501
v -0.03585412 1.566548 0.1527456
v 0.04066432 1.519449 0.1720309
v 0.03381352 1.521469 0.1756348
v 0.03724135 1.535586 0.1635125
v 0.01739629 1.509881 0.1804895
v 0.02388763 1.506097 0.1807185
v -4.108156E-17 1.509371 0.1807881
v -3.989743E-17 1.502084 0.1840906
v -0.02439592 1.506081 0.1807195
v -0.01736835 1.509896 0.1804886
v -0.03815385 1.519547 0.1722057
v -0.03414583 1.521371 0.17546
v -0.03724135 1.535586 0.1635125
vt 0.9357517 0.2376056
vt 0.9633293 0.229825
vt 0.9357517 0.2413859
vt 0.9357517 0.2320031
vt 0.9486611 0.2134358
vt 0.9357517 0.2224991
vt 0.9631073 0.2262684
vt 0.9425737 0.2415377
vt 0.9449196 0.2411751
vt 0.9486245 0.2399697
vt 0.938476 0.2388121
vt 0.9571089 0.2272257
vt 0.9431027 0.2335692
vt 0.9565161 0.2348238
vt 0.958235 0.2324206
vt 0.9554564 0.2332312
vt 0.96092 0.2306238
vt 0.9458969 0.2378716
vt 0.9385929 0.2419264
vt 0.9598347 0.2271255
vt 0.9735273 0.1588127
vt 0.9622906 0.1410721
vt 0.9378321 0.1314658
vt 0.94914 0.2190719
vt 0.9397457 0.2260395
vt 0.9391225 0.2332656
vt 0.9605135 0.2196793
vt 0.9558607 0.2152384
vt 0.9577855 0.2233543
vt 0.9541281 0.2205736
vt 0.953973 0.2266954
vt 0.97242 0.2018003
vt 0.9787849 0.1916871
vt 0.9826012 0.1795901
vt 0.9511266 0.2355486
vt 0.9482466 0.2276319
vt 0.9431331 0.2211985
vt 0.9407244 0.2160822
vt 0.9650153 0.1910502
vt 0.9407771 0.2397074
vt 0.9105849 0.2306057
vt 0.9132658 0.2324082
vt 0.9144034 0.2272157
vt 0.9116769 0.2271102
vt 0.9175413 0.226692
vt 0.9160435 0.2332211
vt 0.9323826 0.2332634
vt 0.9330274 0.2388115
vt 0.91739 0.2205686
vt 0.9223729 0.2190624
vt 0.9256052 0.2378615
vt 0.9228742 0.2399561
vt 0.9265779 0.2411651
vt 0.9284047 0.2335644
vt 0.9317594 0.2260327
vt 0.9307243 0.2397047
vt 0.9329079 0.2419243
vt 0.9283754 0.221187
vt 0.9203762 0.2355345
vt 0.9232678 0.2276254
vt 0.9149829 0.2348138
vt 0.913352 0.1411044
vt 0.9025344 0.1591364
vt 0.9137316 0.2233438
vt 0.893548 0.1799409
vt 0.8974143 0.192016
vt 0.911181 0.1913199
vt 0.9038212 0.2021016
vt 0.9289251 0.2415309
vt 0.9658608 0.1577484
vt 0.9540554 0.1455282
vt 0.9378299 0.1427758
vt 0.9212681 0.1453501
vt 0.9119973 0.1577357
vt 0.9654411 0.1688308
vt 0.966993 0.209585
vt 0.9521804 0.2376914
vt 0.915661 0.2152292
vt 0.9228589 0.2134231
vt 0.9084051 0.2262463
vt 0.9081768 0.2298016
vt 0.9307886 0.2160739
vt 0.9110059 0.2196642
vt 0.9106777 0.1691014
vt 0.9092805 0.209863
vt 0.9193207 0.237676
vt 0.9975365 0.1281082
vt 0.9975365 0.1281082
vt 0.9975365 0.1281083
vt 0.9975365 0.1281082
vt 0.9975365 0.1281082
vt 0.9975365 0.1281082
vt 0.9975365 0.1281082
vt 0.9975365 0.1281082
vt 0.9975365 0.1281082
vt 0.9975365 0.1281082
vt 0.9975365 0.1281082
vt 0.9975365 0.1281083
vn 0 0.9870023 0.1607066
vn 0.0001904409 -0.7275833 0.6860192
vn 0 0.9906704 0.1362795
vn 0 0.9720463 0.2347892
vn 1.158408E-07 -0.1647524 0.9863349
vn 0 0.882994 0.4693844
vn -9.413551E-05 -0.975177 -0.2214267
vn 0.8708681 0.1830178 -0.4561723
vn 0.8040627 0.1212774 -0.5820438
vn 0.9537769 0.1954957 -0.2282347
vn 0.4895924 0.8596569 0.1459087
vn 0.6296278 -0.75686 -0.1753049
vn 0.8789402 0.4765606 -0.01881544
vn 0.8351376 0.2912289 0.4666165
vn 0.8704745 -0.4767116 0.1225572
vn 0.8351581 -0.3413669 -0.4312536
vn 0.4644404 -0.6683809 0.581001
vn 0.883989 0.164198 -0.437724
vn 0.7229411 0.6908578 -0.008465348
vn 0.2752385 -0.9279553 -0.2512824
vn 0.4429214 0.4292426 0.7871287
vn 0.2151032 0.3474768 0.9126831
vn 4.142221E-05 0.3645591 0.9311802
vn 0.7642069 -0.0985295 0.6374008
vn 0.6088606 0.7352335 0.2978599
vn 0.5009165 0.852636 0.1486418
vn 0 -0.9720398 0.2348162
vn 0 -0.7052104 0.7089981
vn 0.4354907 -0.8903878 0.1325044
vn 0.6760705 -0.5529198 0.4870404
vn 0.9241781 -0.3819599 0.00124539
vn 0.7236236 0.3741209 0.5800021
vn 0.6730476 0.3721313 0.6391597
vn 0.4543767 0.4973919 0.7390149
vn 0.8953394 -0.0579859 -0.4415936
vn 0.997387 0.05383549 0.04817645
vn 0.7438366 0.3728782 0.5546791
vn 0 0.5131938 0.8582728
vn 0.9769052 0.1790678 0.1165802
vn 0.8833252 0.4430138 -0.1532169
vn -0.4713999 -0.6684735 0.5752611
vn -0.8757855 -0.4750035 0.08585662
vn -0.6298261 -0.7572327 -0.1729676
vn -0.2735884 -0.9287751 -0.2500526
vn -0.9249122 -0.3801728 0.002487635
vn -0.8368609 -0.3366587 -0.4316536
vn -0.5009165 0.8526362 0.1486409
vn -0.4895923 0.859657 0.1459082
vn -0.6760705 -0.5529197 0.4870404
vn -0.7642068 -0.09852953 0.6374009
vn -0.8839892 0.164198 -0.4377239
vn -0.953777 0.1954954 -0.2282347
vn -0.8040627 0.1212774 -0.5820439
vn -0.8789403 0.4765606 -0.01881541
vn -0.6088606 0.7352336 0.2978597
vn -0.8833252 0.4430137 -0.1532172
vn -0.7229411 0.6908578 -0.008465183
vn -0.7438365 0.3728781 0.5546796
vn -0.8953396 -0.05798588 -0.4415933
vn -0.997387 0.05383546 0.04817706
vn -0.8488937 0.262203 0.4589434
vn -0.2098478 0.3608157 0.9087222
vn -0.4119343 0.4255091 0.8057619
vn -0.4354905 -0.8903878 0.1325048
vn -0.4543756 0.4973911 0.7390162
vn -0.6730477 0.3721316 0.6391596
vn -0.9769052 0.1790678 0.1165797
vn -0.723624 0.3741206 0.5800018
vn -0.8708681 0.1830178 -0.4561723
vn 0.421313 0.3622365 0.8314325
vn 0.1945327 0.2892456 0.9372802
vn 0.0001902767 0.3471965 0.9377924
vn -0.1983761 0.2956477 0.9344728
vn -0.4496311 0.3341893 0.8283414
vn 0.8351376 0.2912289 0.4666165
vn 0.9537769 0.1954957 -0.2282347
vn 0.9769052 0.1790678 0.1165802
vn 0 -0.7052104 0.7089981
vn 1.158408E-07 -0.1647524 0.9863349
vn -9.413551E-05 -0.975177 -0.2214267
vn 0.0001904409 -0.7275833 0.6860192
vn 0 0.5131938 0.8582728
vn 0 -0.9720398 0.2348162
vn -0.8488937 0.262203 0.4589434
vn -0.953777 0.1954954 -0.2282347
vn -0.9769052 0.1790678 0.1165797
vn 0.421313 0.3622365 0.8314325
vn 0.8704745 -0.4767116 0.1225572
vn 0.8351376 0.2912289 0.4666165
vn 0.4644404 -0.6683809 0.581001
vn 0.1945327 0.2892456 0.9372802
vn 0.0001904409 -0.7275833 0.6860192
vn 0.0001902767 0.3471965 0.9377924
vn -0.1983761 0.2956477 0.9344728
vn -0.4713999 -0.6684735 0.5752611
vn -0.4496311 0.3341893 0.8283414
vn -0.8757855 -0.4750035 0.08585662
vn -0.8488937 0.262203 0.4589434
g round1_geo_0
f 51/51/51 69/69/69 53/53/53
f 56/56/56 69/69/69 51/51/51
f 54/54/54 56/56/56 51/51/51
f 48/48/48 56/56/56 54/54/54
f 47/47/47 48/48/48 54/54/54
f 1/1/1 48/48/48 47/47/47
f 4/4/4 1/1/1 47/47/47
f 26/26/26 1/1/1 4/4/4
f 6/6/6 26/26/26 4/4/4
f 25/25/25 26/26/26 6/6/6
f 38/38/38 25/25/25 6/6/6
f 37/37/37 25/25/25 38/38/38
f 5/5/5 37/37/37 38/38/38
f 24/24/24 37/37/37 5/5/5
f 28/28/28 24/24/24 5/5/5
f 30/30/30 24/24/24 28/28/28
f 29/29/29 30/30/30 28/28/28
f 12/12/12 30/30/30 29/29/29
f 20/20/20 12/12/12 29/29/29
f 17/17/17 12/12/12 20/20/20
f 7/7/7 17/17/17 20/20/20
f 2/2/2 17/17/17 7/7/7
f 39/39/39 32/32/32 76/76/76
f 33/33/33 32/32/32 39/39/39
f 75/75/75 33/33/33 39/39/39
f 34/34/34 33/33/33 75/75/75
f 21/21/21 34/34/34 75/75/75
f 6/6/6 4/4/4 47/47/47
f 55/55/55 6/6/6 47/47/47
f 82/82/82 6/6/6 55/55/55
f 58/58/58 82/82/82 55/55/55
f 79/79/79 82/82/82 58/58/58
f 50/50/50 79/79/79 58/58/58
f 78/78/78 79/79/79 50/50/50
f 49/49/49 78/78/78 50/50/50
f 64/64/64 78/78/78 49/49/49
f 43/43/43 64/64/64 49/49/49
f 44/44/44 64/64/64 43/43/43
f 41/41/41 44/44/44 43/43/43
f 80/80/80 44/44/44 41/41/41
f 81/81/81 80/80/80 41/41/41
f 84/84/84 65/65/65 63/63/63
f 66/66/66 65/65/65 84/84/84
f 67/67/67 66/66/66 84/84/84
f 68/68/68 66/66/66 67/67/67
f 85/85/85 68/68/68 67/67/67
f 92/92/92 94/94/94 93/93/93
f 91/91/91 92/92/92 93/93/93
f 90/90/90 92/92/92 91/91/91
f 87/87/87 90/90/90 91/91/91
f 88/88/88 90/90/90 87/87/87
f 89/89/89 88/88/88 87/87/87
f 95/95/95 94/94/94 92/92/92
f 96/96/96 94/94/94 95/95/95
f 97/97/97 96/96/96 95/95/95
f 98/98/98 96/96/96 97/97/97
f 18/18/18 10/10/10 9/9/9
f 77/77/77 10/10/10 18/18/18
f 35/35/35 77/77/77 18/18/18
f 14/14/14 77/77/77 35/35/35
f 16/16/16 14/14/14 35/35/35
f 15/15/15 14/14/14 16/16/16
f 12/12/12 15/15/15 16/16/16
f 17/17/17 15/15/15 12/12/12
f 72/72/72 62/62/62 23/23/23
f 22/22/22 72/72/72 23/23/23
f 71/71/71 72/72/72 22/22/22
f 21/21/21 71/71/71 22/22/22
f 70/70/70 71/71/71 21/21/21
f 75/75/75 70/70/70 21/21/21
f 11/11/11 19/19/19 3/3/3
f 40/40/40 19/19/19 11/11/11
f 13/13/13 40/40/40 11/11/11
f 18/18/18 40/40/40 13/13/13
f 36/36/36 18/18/18 13/13/13
f 35/35/35 18/18/18 36/36/36
f 16/16/16 35/35/35 36/36/36
f 29/29/29 7/7/7 20/20/20
f 27/27/27 7/7/7 29/29/29
f 28/28/28 27/27/27 29/29/29
f 8/8/8 18/18/18 9/9/9
f 40/40/40 18/18/18 8/8/8
f 19/19/19 40/40/40 8/8/8
f 51/51/51 53/53/53 52/52/52
f 86/86/86 51/51/51 52/52/52
f 59/59/59 51/51/51 86/86/86
f 61/61/61 59/59/59 86/86/86
f 46/46/46 59/59/59 61/61/61
f 42/42/42 46/46/46 61/61/61
f 43/43/43 46/46/46 42/42/42
f 41/41/41 43/43/43 42/42/42
f 63/63/63 74/74/74 84/84/84
f 73/73/73 74/74/74 63/63/63
f 62/62/62 73/73/73 63/63/63
f 72/72/72 73/73/73 62/62/62
f 36/36/36 37/37/37 24/24/24
f 25/25/25 37/37/37 36/36/36
f 13/13/13 25/25/25 36/36/36
f 26/26/26 25/25/25 13/13/13
f 11/11/11 26/26/26 13/13/13
f 1/1/1 26/26/26 11/11/11
f 3/3/3 1/1/1 11/11/11
f 48/48/48 1/1/1 3/3/3
f 57/57/57 48/48/48 3/3/3
f 56/56/56 48/48/48 57/57/57
f 69/69/69 56/56/56 57/57/57
f 64/64/64 83/83/83 78/78/78
f 80/80/80 83/83/83 64/64/64
f 44/44/44 80/80/80 64/64/64
f 31/31/31 24/24/24 30/30/30
f 36/36/36 24/24/24 31/31/31
f 16/16/16 36/36/36 31/31/31
f 12/12/12 31/31/31 30/30/30
f 16/16/16 31/31/31 12/12/12
f 45/45/45 43/43/43 49/49/49
f 46/46/46 43/43/43 45/45/45
f 60/60/60 46/46/46 45/45/45
f 59/59/59 46/46/46 60/60/60
f 51/51/51 59/59/59 60/60/60
f 50/50/50 45/45/45 49/49/49
f 60/60/60 45/45/45 50/50/50
f 58/58/58 60/60/60 50/50/50
f 55/55/55 60/60/60 58/58/58
f 54/54/54 55/55/55 47/47/47
f 60/60/60 55/55/55 54/54/54
f 51/51/51 60/60/60 54/54/54
