g roundButton_geo
v 2.05157E-31 0.7082384 0.2547252
v 2.16865E-31 0.7459944 0.2529035
v -0.03219849 0.7045752 0.2517072
v 0.03219849 0.7045752 0.2517072
v 1.714812E-31 0.6104783 0.270803
v 1.63319E-31 0.6251796 0.3130957
v 1.964555E-31 0.6917852 0.2665613
v 1.680431E-31 0.6469479 0.3188947
v 1.688988E-31 0.602515 0.2715692
v 1.87702E-31 0.6818594 0.2873514
v 1.76645E-31 0.6702355 0.3131043
v 1.663225E-31 0.6133925 0.2911556
v -0.02444894 0.6845711 0.2652583
v -0.04203352 0.6449662 0.2700612
v -0.03161536 0.6202232 0.2697228
v -0.0372186 0.6145132 0.269723
v -0.04173385 0.6494899 0.2855285
v -0.02784163 0.6462138 0.3130225
v -0.03352334 0.6216576 0.2897799
v -0.02355692 0.6292071 0.3068726
v -0.02663534 0.6661655 0.3064748
v -0.02507734 0.6748011 0.2832732
v -0.05135845 0.6638634 0.2558537
v -0.05334599 0.6363157 0.2649631
v 0.02444894 0.6845711 0.2652583
v 0.04203352 0.6449662 0.2700612
v 0.03161536 0.6202232 0.2697228
v 0.0372186 0.6145132 0.269723
v 0.04173385 0.6494899 0.2855285
v 0.02784163 0.6462138 0.3130225
v 0.03352334 0.6216576 0.2897799
v 0.02355692 0.6292071 0.3068726
v 0.02663534 0.6661655 0.3064748
v 0.02507734 0.6748011 0.2832732
v 0.05135845 0.6638634 0.2558537
v 0.05334599 0.6363157 0.2649631
v -0.01852452 0.6046662 0.270745
v -0.01589246 0.612184 0.2700003
v -0.01676167 0.6140178 0.2904678
v 0.01676167 0.6140178 0.2904678
v 0.01589246 0.612184 0.2700003
v 0.01852452 0.6046662 0.270745
v -0.04203352 0.6449662 0.2700612
v -0.02444894 0.6845711 0.2652583
v -0.03161536 0.6202232 0.2697228
v -0.04203352 0.6449662 0.2700612
v -0.0372186 0.6145132 0.269723
v -0.01589246 0.612184 0.2700003
v 1.964555E-31 0.6917852 0.2665613
v 0.04203352 0.6449662 0.2700612
v 0.02444894 0.6845711 0.2652583
v 0.03161536 0.6202232 0.2697228
v 0.04203352 0.6449662 0.2700612
v 0.0372186 0.6145132 0.269723
v 0.01589246 0.612184 0.2700003
v 1.714812E-31 0.6104783 0.270803
vt 0.9364375 0.1588483
vt 0.9364375 0.1697925
vt 0.9285632 0.1577898
vt 0.9443117 0.1577898
vt 0.9930494 0.1310989
vt 0.9706731 0.1732312
vt 0.9706731 0.1945725
vt 0.9706731 0.1770949
vt 0.9930494 0.1310989
vt 0.9706731 0.186986
vt 0.9706731 0.1811977
vt 0.9706731 0.1682864
vt 0.9609675 0.1900979
vt 0.9570155 0.1781253
vt 0.9598463 0.1683052
vt 0.9930494 0.1310989
vt 0.9613114 0.1784448
vt 0.96675 0.1773203
vt 0.9634538 0.1721208
vt 0.9667838 0.1741666
vt 0.9666598 0.1807004
vt 0.9648443 0.185243
vt 0.9258357 0.1480635
vt 0.9269125 0.1424297
vt 0.9803787 0.1900979
vt 0.9843308 0.1781253
vt 0.9814997 0.1683051
vt 0.9930494 0.1310989
vt 0.9800348 0.1784448
vt 0.9745962 0.1773202
vt 0.9778924 0.1721208
vt 0.9745624 0.1741666
vt 0.9746863 0.1807004
vt 0.9765019 0.1852429
vt 0.9470392 0.1480635
vt 0.9459624 0.1424297
vt 0.9930494 0.1310989
vt 0.9930494 0.1310989
vt 0.9670634 0.1702036
vt 0.9742827 0.1702036
vt 0.9930494 0.1310989
vt 0.9930494 0.1310989
vt 0.9291032 0.1441859
vt 0.9311875 0.150851
vt 0.9930494 0.1310989
vt 0.9930494 0.1310989
vt 0.9318891 0.1384752
vt 0.9652597 0.1654999
vt 0.9364375 0.1523379
vt 0.9437717 0.1441859
vt 0.9416873 0.150851
vt 0.9930494 0.1310989
vt 0.9930494 0.1310989
vt 0.9409857 0.1384752
vt 0.9760864 0.1654999
vt 0.9706731 0.1626946
vn 0 0.3072137 0.9516406
vn 0 0.04819333 0.998838
vn -0.2756521 0.3186557 0.9069038
vn 0.275652 0.3186557 0.9069038
vn 0 -0.6253241 0.7803651
vn 0 -0.6106489 0.7919015
vn 0 0.7433242 0.6689312
vn 0 -0.02010838 0.9997979
vn 0 0.1030985 0.9946712
vn 0 0.9112099 0.4119426
vn 1.369065E-07 0.6695839 0.7427365
vn 0 -0.9400574 0.3410163
vn -0.5325629 0.555957 0.6381916
vn -0.6953063 0.0969303 0.7121472
vn -0.5018209 -0.4313561 0.7497384
vn -0.1230254 -0.00595713 0.9923856
vn -0.9563363 0.1406302 0.2562108
vn -0.6157655 -0.02503232 0.7875318
vn -0.7209128 -0.6246051 0.3002551
vn -0.4457861 -0.5836642 0.6786832
vn -0.6288047 0.5523087 0.5473204
vn -0.6081734 0.7461701 0.2708417
vn -0.5333617 0.3232302 0.7816952
vn -0.465152 0.1286083 0.8758387
vn 0.5325627 0.555957 0.6381918
vn 0.6953058 0.09693017 0.7121477
vn 0.50182 -0.4313564 0.7497388
vn 0.1230238 -0.005957254 0.9923859
vn 0.9563363 0.1406301 0.2562108
vn 0.6157656 -0.02503235 0.7875317
vn 0.7209128 -0.6246051 0.3002552
vn 0.4457861 -0.5836642 0.6786832
vn 0.6288049 0.5523087 0.5473204
vn 0.6081734 0.7461701 0.2708416
vn 0.5333615 0.3232301 0.7816955
vn 0.4651507 0.1286082 0.8758394
vn -0.0209329 0.08163907 0.996442
vn -0.196728 -0.6141903 0.7642437
vn -0.2779474 -0.9039097 0.325104
vn 0.2779474 -0.9039096 0.3251041
vn 0.1967271 -0.6141905 0.7642438
vn 0.02093162 0.0816389 0.9964421
vn -0.6953063 0.0969303 0.7121472
vn -0.5325629 0.555957 0.6381916
vn -0.5018209 -0.4313561 0.7497384
vn -0.6953063 0.0969303 0.7121472
vn -0.1230254 -0.00595713 0.9923856
vn -0.196728 -0.6141903 0.7642437
vn 0 0.7433242 0.6689312
vn 0.6953058 0.09693017 0.7121477
vn 0.5325627 0.555957 0.6381918
vn 0.50182 -0.4313564 0.7497388
vn 0.6953058 0.09693017 0.7121477
vn 0.1230238 -0.005957254 0.9923859
vn 0.1967271 -0.6141905 0.7642438
vn 0 -0.6253241 0.7803651
g roundButton_geo_0
f 9/9/9 41/41/41 5/5/5
f 38/38/38 9/9/9 5/5/5
f 37/37/37 9/9/9 38/38/38
f 45/45/45 37/37/37 38/38/38
f 16/16/16 37/37/37 45/45/45
f 46/46/46 16/16/16 45/45/45
f 43/43/43 24/24/24 47/47/47
f 23/23/23 24/24/24 43/43/43
f 44/44/44 23/23/23 43/43/43
f 3/3/3 23/23/23 44/44/44
f 1/1/1 3/3/3 44/44/44
f 2/2/2 3/3/3 1/1/1
f 4/4/4 2/2/2 1/1/1
f 42/42/42 41/41/41 9/9/9
f 52/52/52 41/41/41 42/42/42
f 28/28/28 52/52/52 42/42/42
f 53/53/53 52/52/52 28/28/28
f 51/51/51 4/4/4 1/1/1
f 35/35/35 4/4/4 51/51/51
f 50/50/50 35/35/35 51/51/51
f 36/36/36 35/35/35 50/50/50
f 54/54/54 36/36/36 50/50/50
f 19/19/19 15/15/15 48/48/48
f 14/14/14 15/15/15 19/19/19
f 17/17/17 14/14/14 19/19/19
f 13/13/13 14/14/14 17/17/17
f 22/22/22 13/13/13 17/17/17
f 10/10/10 13/13/13 22/22/22
f 11/11/11 10/10/10 22/22/22
f 33/33/33 10/10/10 11/11/11
f 30/30/30 33/33/33 11/11/11
f 29/29/29 33/33/33 30/30/30
f 31/31/31 29/29/29 30/30/30
f 26/26/26 29/29/29 31/31/31
f 27/27/27 26/26/26 31/31/31
f 25/25/25 29/29/29 26/26/26
f 34/34/34 29/29/29 25/25/25
f 7/7/7 34/34/34 25/25/25
f 10/10/10 34/34/34 7/7/7
f 13/13/13 10/10/10 7/7/7
f 49/49/49 1/1/1 44/44/44
f 51/51/51 1/1/1 49/49/49
f 21/21/21 11/11/11 22/22/22
f 17/17/17 21/21/21 22/22/22
f 18/18/18 21/21/21 17/17/17
f 19/19/19 18/18/18 17/17/17
f 20/20/20 18/18/18 19/19/19
f 39/39/39 20/20/20 19/19/19
f 12/12/12 20/20/20 39/39/39
f 56/56/56 12/12/12 39/39/39
f 40/40/40 12/12/12 56/56/56
f 55/55/55 40/40/40 56/56/56
f 31/31/31 40/40/40 55/55/55
f 27/27/27 31/31/31 55/55/55
f 48/48/48 39/39/39 19/19/19
f 56/56/56 39/39/39 48/48/48
f 6/6/6 20/20/20 12/12/12
f 18/18/18 20/20/20 6/6/6
f 8/8/8 18/18/18 6/6/6
f 21/21/21 18/18/18 8/8/8
f 11/11/11 21/21/21 8/8/8
f 8/8/8 30/30/30 11/11/11
f 32/32/32 30/30/30 8/8/8
f 6/6/6 32/32/32 8/8/8
f 40/40/40 32/32/32 6/6/6
f 12/12/12 40/40/40 6/6/6
f 32/32/32 31/31/31 30/30/30
f 40/40/40 31/31/31 32/32/32
f 33/33/33 34/34/34 10/10/10
f 29/29/29 34/34/34 33/33/33
