g round5_geo
v -7.629394E-08 1.131263 0.3591219
v -7.629394E-08 1.185702 0.3034108
v -7.629394E-08 1.12422 0.309604
v -7.629394E-08 1.102285 0.3161027
v -7.629394E-08 1.165718 0.3807356
v -7.629394E-08 1.144992 0.3768715
v -7.629394E-08 1.193309 0.3152624
v -7.629394E-08 1.186351 0.3741266
v -7.629394E-08 1.129786 0.3368665
v -7.629394E-08 1.129383 0.3185473
v -7.629394E-08 1.205626 0.2967095
v 0.01593377 1.124817 0.3089812
v 0.01339708 1.179127 0.3021871
v 0.03594246 1.111438 0.3106102
v 0.02247215 1.191408 0.2869245
v 0.04319115 1.143461 0.2943254
v 0.02481346 1.144889 0.357711
v 0.0279193 1.159642 0.3565079
v 0.02894919 1.129694 0.3100781
v 0.03328991 1.145598 0.3042749
v 0.028564 1.152326 0.3067524
v 0.03075977 1.150466 0.3293772
v 0.01805531 1.132961 0.3372077
v 0.0153579 1.130684 0.3178742
v 0.01884449 1.135205 0.3579249
v 0.02269423 1.170575 0.3026074
v 0.01458431 1.164031 0.3730943
v 0.01522302 1.146212 0.3708284
v 0.01314021 1.1839 0.3672481
v 0.02740148 1.138576 0.3322394
v 0.0340014 1.134513 0.3067662
v 0.03567185 1.130033 0.3146492
v 0.04323115 1.135584 0.3148395
v 0.04527512 1.146053 0.3138274
v 0.02479133 1.172254 0.316482
v 0.01366361 1.185889 0.3146628
v 0.02675855 1.152831 0.3093346
v 0.03303237 1.132187 0.3242945
v 0.04033328 1.136878 0.323396
v 0.04273698 1.146982 0.3224097
v 0.02648683 1.154501 0.3193964
v 0.02485725 1.132768 0.3184535
v -7.629394E-08 1.197743 0.3556508
v 0.0124147 1.19189 0.3544741
v 0.02361569 1.180046 0.3555171
v 0.03977763 1.134803 0.3084131
v 0.04146069 1.14398 0.3067065
v 0.03769387 1.153111 0.3206581
v 0.03958251 1.152417 0.3130615
v 0.03400406 1.167114 0.2900766
v 0.03714041 1.150428 0.3081019
v 0.02624396 1.17513 0.3338444
v 0.02811882 1.155592 0.3361115
v 0.02423277 1.142425 0.337138
v 0.03341532 1.138121 0.3284079
v 0.0357992 1.14864 0.326721
v 0.01380917 1.190667 0.331159
v -7.629394E-08 1.19813 0.3311589
v 0.03201882 1.150411 0.3040053
v 0.04550598 1.127824 0.3025928
v -1.192093E-09 1.254473 0.2883679
v 0.01463928 1.217445 0.2858384
v -7.629394E-08 1.227516 0.2915853
v -0.01593392 1.124817 0.3089812
v -0.01339723 1.179127 0.3021871
v -0.03594246 1.111438 0.3106102
v -0.02247215 1.191408 0.2869245
v -0.04319116 1.143461 0.2943254
v -0.02481361 1.144889 0.357711
v -0.02791945 1.159642 0.3565079
v -0.03329006 1.145598 0.3042749
v -0.02856415 1.152326 0.3067524
v -0.03075992 1.150466 0.3293772
v -0.01805547 1.132961 0.3372077
v -0.02894934 1.129694 0.3100781
v -0.01535805 1.130684 0.3178742
v -0.01884464 1.135205 0.3579249
v -0.02269439 1.170575 0.3026074
v -0.01458446 1.164031 0.3730943
v -0.01522318 1.146212 0.3708284
v -0.01314036 1.1839 0.3672481
v -0.02740164 1.138576 0.3322394
v -0.03400155 1.134513 0.3067662
v -0.03567201 1.130033 0.3146492
v -0.0432313 1.135584 0.3148395
v -0.04527527 1.146053 0.3138274
v -0.02479148 1.172254 0.316482
v -0.01366376 1.185889 0.3146628
v -0.0267587 1.152831 0.3093346
v -0.03303252 1.132187 0.3242945
v -0.04033343 1.136878 0.323396
v -0.04273713 1.146982 0.3224097
v -0.02648699 1.154501 0.3193964
v -0.02485741 1.132768 0.3184535
v -0.01241486 1.19189 0.3544741
v -0.02361585 1.180046 0.3555171
v -0.03977778 1.134803 0.3084131
v -0.04146085 1.14398 0.3067065
v -0.03769401 1.153111 0.3206581
v -0.03958266 1.152417 0.3130615
v -0.03400406 1.167114 0.2900766
v -0.03714056 1.150428 0.3081019
v -0.02624412 1.17513 0.3338444
v -0.02811898 1.155592 0.3361115
v -0.02423292 1.142425 0.337138
v -0.03341546 1.138121 0.3284079
v -0.03579935 1.14864 0.326721
v -0.01380932 1.190667 0.331159
v -0.03201897 1.150411 0.3040053
v -0.04550598 1.127824 0.3025928
v -0.01463928 1.217445 0.2858384
v 0.01593377 1.124817 0.3089812
v 0.0153579 1.130684 0.3178742
v -7.629394E-08 1.129383 0.3185473
v -7.629394E-08 1.12422 0.309604
v 0.02894919 1.129694 0.3100781
v 0.02648683 1.154501 0.3193964
v 0.02675855 1.152831 0.3093346
v 0.02479133 1.172254 0.316482
v 0.02269423 1.170575 0.3026074
v 0.02894919 1.129694 0.3100781
v 0.0340014 1.134513 0.3067662
v 0.04146069 1.14398 0.3067065
v 0.03328991 1.145598 0.3042749
v 0.03769387 1.153111 0.3206581
v 0.03958251 1.152417 0.3130615
v 0.03201882 1.150411 0.3040053
v 0.028564 1.152326 0.3067524
v 0.03328991 1.145598 0.3042749
v 0.03714041 1.150428 0.3081019
v 0.03341532 1.138121 0.3284079
v 0.0357992 1.14864 0.326721
v 0.0357992 1.14864 0.326721
v 0.02675855 1.152831 0.3093346
v -0.01593392 1.124817 0.3089812
v -0.01535805 1.130684 0.3178742
v -0.02894934 1.129694 0.3100781
v -0.02648699 1.154501 0.3193964
v -0.0267587 1.152831 0.3093346
v -0.02479148 1.172254 0.316482
v -0.02269439 1.170575 0.3026074
v -0.02894934 1.129694 0.3100781
v -0.03400155 1.134513 0.3067662
v -0.04146085 1.14398 0.3067065
v -0.03329006 1.145598 0.3042749
v -0.03769401 1.153111 0.3206581
v -0.03958266 1.152417 0.3130615
v -0.03201897 1.150411 0.3040053
v -0.02856415 1.152326 0.3067524
v -0.03329006 1.145598 0.3042749
v -0.03714056 1.150428 0.3081019
v -0.03341546 1.138121 0.3284079
v -0.03579935 1.14864 0.326721
v -0.03579935 1.14864 0.326721
v -0.0267587 1.152831 0.3093346
vt 0.9376401 0.1703786
vt 0.9376401 0.2041606
vt 0.9376387 0.1464524
vt 0.9376383 0.1320058
vt 0.9376401 0.1754156
vt 0.9376401 0.1731944
vt 0.9376401 0.1921326
vt 0.9376401 0.1777553
vt 0.9376401 0.166104
vt 0.9376401 0.1601036
vt 0.9376404 0.207094
vt 0.9493057 0.146939
vt 0.9472717 0.1978209
vt 0.9657792 0.1353836
vt 0.9467255 0.206715
vt 0.9736516 0.1627716
vt 0.9418801 0.1729954
vt 0.9425445 0.1755041
vt 0.9465131 0.1394794
vt 0.9465132 0.1394794
vt 0.9465132 0.1394794
vt 0.951553 0.1731261
vt 0.9430068 0.1679218
vt 0.9439628 0.1607683
vt 0.9407763 0.1714513
vt 0.9574358 0.189692
vt 0.9394535 0.1755979
vt 0.9396229 0.1733844
vt 0.9392588 0.1782349
vt 0.9475681 0.1669237
vt 0.9667225 0.1518635
vt 0.9511054 0.1602361
vt 0.9529161 0.1602455
vt 0.9547662 0.160359
vt 0.9507902 0.1858359
vt 0.9445331 0.1914173
vt 0.9465131 0.1394794
vt 0.9511008 0.1628545
vt 0.9528309 0.1619834
vt 0.9546903 0.1618704
vt 0.9548311 0.1773862
vt 0.9478399 0.1616161
vt 0.9376401 0.1804576
vt 0.9394916 0.1804263
vt 0.9414276 0.1788215
vt 0.9525496 0.1587316
vt 0.9547451 0.158764
vt 0.9540293 0.1509114
vt 0.953835 0.1530743
vt 0.9684702 0.1922026
vt 0.9527633 0.1542894
vt 0.9455567 0.1813278
vt 0.9473531 0.1750693
vt 0.9457415 0.1706306
vt 0.9516177 0.1659655
vt 0.9542236 0.1705559
vt 0.9415035 0.1852734
vt 0.9376401 0.1855512
vt 0.9465132 0.1394794
vt 0.971521 0.1463868
vt 0.9376413 0.2437607
vt 0.9427917 0.2239875
vt 0.9376408 0.2239484
vt 0.9259714 0.1469396
vt 0.9280085 0.1978211
vt 0.9094971 0.1353845
vt 0.9285555 0.2067153
vt 0.9029791 0.1567755
vt 0.9333997 0.1729955
vt 0.9327355 0.1755042
vt 0.9465132 0.1394794
vt 0.9465132 0.1394794
vt 0.9237274 0.1731263
vt 0.9322733 0.1679218
vt 0.9465132 0.1394794
vt 0.9313171 0.1607681
vt 0.9345036 0.1714514
vt 0.9178439 0.1896925
vt 0.9358265 0.175598
vt 0.9356571 0.1733846
vt 0.9360213 0.1782349
vt 0.9277119 0.1669237
vt 0.908554 0.151865
vt 0.9241745 0.1602362
vt 0.9223637 0.1602454
vt 0.9205136 0.1603589
vt 0.9244901 0.185836
vt 0.9307472 0.1914173
vt 0.9465132 0.1394794
vt 0.9241788 0.1628544
vt 0.9224488 0.1619834
vt 0.9205893 0.1618704
vt 0.9204493 0.1773863
vt 0.92744 0.1616162
vt 0.9357886 0.1804263
vt 0.9338525 0.1788215
vt 0.9227301 0.1587314
vt 0.9205346 0.1587639
vt 0.9212504 0.150911
vt 0.9214445 0.1530739
vt 0.9068096 0.192204
vt 0.9225165 0.1542891
vt 0.9297234 0.1813278
vt 0.927927 0.1750693
vt 0.9295385 0.1706307
vt 0.9236622 0.1659657
vt 0.9210567 0.1705563
vt 0.9337767 0.1852734
vt 0.9465132 0.1394794
vt 0.9031786 0.141999
vt 0.9324902 0.2239877
vt 0.9465132 0.1394794
vt 0.9465132 0.1394794
vt 0.9465132 0.1394794
vt 0.9465132 0.1394794
vt 0.9595851 0.1484157
vt 0.9509707 0.1501916
vt 0.9501414 0.1529001
vt 0.9461766 0.1486897
vt 0.9447678 0.1523593
vt 0.9491745 0.1589774
vt 0.9500972 0.1579135
vt 0.953523 0.1563154
vt 0.9505038 0.1550376
vt 0.9561589 0.1622797
vt 0.9563596 0.1605288
vt 0.9646317 0.16727
vt 0.9603574 0.1690101
vt 0.9692855 0.1617337
vt 0.956443 0.1592212
vt 0.9526092 0.1640251
vt 0.954903 0.1639537
vt 0.9537865 0.148358
vt 0.9572906 0.1691366
vt 0.9465132 0.1394794
vt 0.9465132 0.1394794
vt 0.9156918 0.1484168
vt 0.924309 0.150191
vt 0.9251384 0.1528997
vt 0.9291034 0.148689
vt 0.9305123 0.1523588
vt 0.9261051 0.158977
vt 0.9251828 0.1579135
vt 0.9217565 0.1563152
vt 0.9247758 0.1550373
vt 0.9191207 0.1622796
vt 0.9189199 0.1605288
vt 0.9106463 0.1672708
vt 0.9149206 0.1690107
vt 0.9059922 0.161735
vt 0.9188367 0.1592211
vt 0.9226705 0.1640252
vt 0.9203766 0.1639538
vt 0.9214931 0.1483574
vt 0.9179876 0.1691374
vn 0 -0.9247083 0.3806763
vn -1.808541E-07 0.9679391 0.2511851
vn 0 -0.3546678 0.9349924
vn 0 0.04657404 0.9989148
vn -1.540465E-07 0.07880478 0.9968901
vn 0 -0.4977765 0.8673053
vn 1.075408E-07 0.9146001 -0.4043594
vn -2.125899E-07 0.6273318 0.778752
vn 0 -0.9974034 0.07201613
vn 0 -0.9525018 0.304533
vn -2.067994E-06 0.2998143 0.9539976
vn 0.08557621 -0.2693369 0.9592363
vn 0.6337145 0.7377295 0.2327252
vn 0.2701028 -0.0602905 0.9609419
vn 0.5934376 0.3587333 0.7205153
vn 0.7124707 0.215624 0.6677513
vn 0.8800312 -0.3407688 0.3307894
vn 0.9401938 0.01254145 0.3404092
vn 0.2521494 -0.8636991 0.4363997
vn 0.8821297 0.465793 -0.06988546
vn 0.745046 0.3617644 0.5603865
vn 0.7916454 0.4148284 0.4485699
vn 0.4676038 -0.8779441 0.1027656
vn 0.239901 -0.9005845 0.3624844
vn 0.5555125 -0.7478131 0.3635675
vn 0.8170499 0.4528489 0.3568715
vn 0.6375754 0.07012204 0.7671899
vn 0.5771534 -0.37104 0.7274773
vn 0.6141286 0.5093266 0.6028536
vn 0.4387915 -0.6434942 0.6271979
vn 0.855625 0.03681373 0.5162855
vn 0.2537107 -0.9669348 0.02584715
vn 0.8327783 -0.553601 -0.002480225
vn 0.959226 0.2411353 -0.1474424
vn 0.909695 0.3806168 -0.1660894
vn 0.5999646 0.7414401 -0.300515
vn 0.6501146 0.7551558 -0.0842066
vn 0.1946371 -0.8237959 0.5324253
vn 0.6809078 -0.4135118 0.6044605
vn 0.7841229 0.3058063 0.5400313
vn 0.6920616 0.7181715 0.07266594
vn -0.06910716 -0.9396799 0.3350012
vn 0 0.9622915 0.2720205
vn 0.5922503 0.776599 0.2147873
vn 0.8540382 0.4492969 0.2622044
vn 0.5085407 -0.6173623 -0.6002085
vn 0.6063727 0.1469423 -0.7814859
vn 0.3893762 0.8550919 0.3423508
vn 0.4562316 0.8510751 -0.2598538
vn 0.5793361 0.2894588 0.7619603
vn 0.3166657 0.6477904 -0.6928855
vn 0.9185497 0.3894231 -0.06794173
vn 0.9926177 0.08880544 0.08260614
vn 0.8620171 -0.4587101 0.2156656
vn 0.5018255 -0.2724077 0.8209538
vn 0.4678631 0.5311779 0.7063668
vn 0.6278961 0.7696327 -0.1158099
vn 0 0.9893125 -0.1458105
vn 0.7752225 0.3242174 0.5421376
vn 0.5681196 0.1734149 0.8044671
vn -1.045982E-06 0.1694843 0.9855329
vn 0.7095531 0.2248721 0.6678075
vn -1.165123E-06 0.2140815 0.9768158
vn -0.08557584 -0.2693364 0.9592366
vn -0.6337146 0.7377298 0.2327241
vn -0.2701038 -0.06029047 0.9609417
vn -0.4766469 0.2955995 0.8279062
vn -0.7124687 0.2156239 0.6677533
vn -0.8800311 -0.3407685 0.3307898
vn -0.9401934 0.01254139 0.3404103
vn -0.8821306 0.4657902 -0.06989303
vn -0.7450476 0.361765 0.560384
vn -0.7916469 0.4148286 0.448567
vn -0.4676041 -0.8779441 0.1027641
vn -0.2521487 -0.8636964 0.4364053
vn -0.239901 -0.9005837 0.3624865
vn -0.5555128 -0.7478129 0.3635674
vn -0.8170508 0.4528489 0.3568695
vn -0.637575 0.07012198 0.7671903
vn -0.5771531 -0.3710399 0.7274777
vn -0.6141278 0.5093258 0.602855
vn -0.4387945 -0.6434954 0.6271945
vn -0.8556257 0.03680505 0.5162848
vn -0.2537105 -0.9669348 0.02584886
vn -0.8327779 -0.5536017 -0.002478958
vn -0.9592251 0.2411354 -0.1474474
vn -0.909695 0.3806166 -0.1660899
vn -0.5999645 0.7414401 -0.3005151
vn -0.6501151 0.7551553 -0.0842079
vn -0.1946387 -0.823798 0.5324216
vn -0.6809086 -0.4135138 0.6044583
vn -0.7841222 0.3058058 0.5400326
vn -0.6920617 0.7181713 0.07266694
vn 0.06910732 -0.9396788 0.3350041
vn -0.59225 0.7765986 0.2147892
vn -0.8540376 0.4492966 0.2622067
vn -0.5085421 -0.6173671 -0.6002021
vn -0.6063707 0.1469416 -0.7814876
vn -0.389376 0.8550912 0.3423526
vn -0.4562305 0.851074 -0.2598592
vn -0.5793355 0.2894593 0.7619604
vn -0.316664 0.647789 -0.6928877
vn -0.9185498 0.389423 -0.06794164
vn -0.9926177 0.08880543 0.08260557
vn -0.8620175 -0.4587102 0.2156638
vn -0.5018295 -0.2724103 0.8209504
vn -0.4678629 0.5311757 0.7063686
vn -0.6278962 0.7696326 -0.1158098
vn -0.7752265 0.3242183 0.5421314
vn -0.5681196 0.1734149 0.8044671
vn -0.7095528 0.2248716 0.6678081
vn 0.08557621 -0.2693369 0.9592363
vn 0.239901 -0.9005845 0.3624844
vn 0 -0.9525018 0.304533
vn 0 -0.3546678 0.9349924
vn 0.2521494 -0.8636991 0.4363997
vn 0.6920616 0.7181715 0.07266594
vn 0.6501146 0.7551558 -0.0842066
vn 0.909695 0.3806168 -0.1660894
vn 0.8170499 0.4528489 0.3568715
vn 0.2521494 -0.8636991 0.4363997
vn 0.855625 0.03681373 0.5162855
vn 0.6063727 0.1469423 -0.7814859
vn 0.8821297 0.465793 -0.06988546
vn 0.3893762 0.8550919 0.3423508
vn 0.4562316 0.8510751 -0.2598538
vn 0.7752225 0.3242174 0.5421376
vn 0.745046 0.3617644 0.5603865
vn 0.8821297 0.465793 -0.06988546
vn 0.3166657 0.6477904 -0.6928855
vn 0.5018255 -0.2724077 0.8209538
vn 0.4678631 0.5311779 0.7063668
vn 0.4678631 0.5311779 0.7063668
vn 0.6501146 0.7551558 -0.0842066
vn -0.08557584 -0.2693364 0.9592366
vn -0.239901 -0.9005837 0.3624865
vn -0.2521487 -0.8636964 0.4364053
vn -0.6920617 0.7181713 0.07266694
vn -0.6501151 0.7551553 -0.0842079
vn -0.909695 0.3806166 -0.1660899
vn -0.8170508 0.4528489 0.3568695
vn -0.2521487 -0.8636964 0.4364053
vn -0.8556257 0.03680505 0.5162848
vn -0.6063707 0.1469416 -0.7814876
vn -0.8821306 0.4657902 -0.06989303
vn -0.389376 0.8550912 0.3423526
vn -0.4562305 0.851074 -0.2598592
vn -0.7752265 0.3242183 0.5421314
vn -0.7450476 0.361765 0.560384
vn -0.8821306 0.4657902 -0.06989303
vn -0.316664 0.647789 -0.6928877
vn -0.5018295 -0.2724103 0.8209504
vn -0.4678629 0.5311757 0.7063686
vn -0.4678629 0.5311757 0.7063686
vn -0.6501151 0.7551553 -0.0842079
g round5_geo_0
f 114/114/114 135/135/135 115/115/115
f 112/112/112 114/114/114 115/115/115
f 113/113/113 114/114/114 112/112/112
f 19/19/19 113/113/113 112/112/112
f 20/20/20 21/21/21 37/37/37
f 59/59/59 21/21/21 20/20/20
f 117/117/117 48/48/48 49/49/49
f 118/118/118 117/117/117 49/49/49
f 119/119/119 117/117/117 118/118/118
f 120/120/120 119/119/119 118/118/118
f 39/39/39 131/131/131 38/38/38
f 32/32/32 39/39/39 38/38/38
f 33/33/33 39/39/39 32/32/32
f 46/46/46 33/33/33 32/32/32
f 34/34/34 33/33/33 46/46/46
f 47/47/47 34/34/34 46/46/46
f 126/126/126 34/34/34 47/47/47
f 130/130/130 126/126/126 47/47/47
f 133/133/133 48/48/48 117/117/117
f 50/50/50 127/127/127 129/129/129
f 128/128/128 127/127/127 50/50/50
f 26/26/26 128/128/128 50/50/50
f 134/134/134 128/128/128 26/26/26
f 135/135/135 136/136/136 75/75/75
f 114/114/114 136/136/136 135/135/135
f 71/71/71 72/72/72 109/109/109
f 89/89/89 72/72/72 71/71/71
f 138/138/138 100/100/100 99/99/99
f 139/139/139 100/100/100 138/138/138
f 140/140/140 139/139/139 138/138/138
f 141/141/141 139/139/139 140/140/140
f 91/91/91 90/90/90 152/152/152
f 153/153/153 91/91/91 152/152/152
f 92/92/92 91/91/91 153/153/153
f 146/146/146 92/92/92 153/153/153
f 86/86/86 92/92/92 146/146/146
f 147/147/147 86/86/86 146/146/146
f 98/98/98 86/86/86 147/147/147
f 151/151/151 98/98/98 147/147/147
f 138/138/138 99/99/99 154/154/154
f 101/101/101 150/150/150 148/148/148
f 149/149/149 101/101/101 148/148/148
f 78/78/78 101/101/101 149/149/149
f 155/155/155 78/78/78 149/149/149
f 66/66/66 137/137/137 83/83/83
f 64/64/64 137/137/137 66/66/66
f 4/4/4 64/64/64 66/66/66
f 3/3/3 64/64/64 4/4/4
f 12/12/12 3/3/3 4/4/4
f 22/22/22 56/56/56 41/41/41
f 30/30/30 56/56/56 22/22/22
f 53/53/53 30/30/30 22/22/22
f 54/54/54 30/30/30 53/53/53
f 18/18/18 54/54/54 53/53/53
f 17/17/17 54/54/54 18/18/18
f 28/28/28 17/17/17 18/18/18
f 25/25/25 17/17/17 28/28/28
f 6/6/6 25/25/25 28/28/28
f 1/1/1 25/25/25 6/6/6
f 77/77/77 1/1/1 6/6/6
f 74/74/74 1/1/1 77/77/77
f 69/69/69 74/74/74 77/77/77
f 105/105/105 74/74/74 69/69/69
f 70/70/70 105/105/105 69/69/69
f 104/104/104 105/105/105 70/70/70
f 103/103/103 104/104/104 70/70/70
f 87/87/87 104/104/104 103/103/103
f 88/88/88 87/87/87 103/103/103
f 65/65/65 87/87/87 88/88/88
f 7/7/7 65/65/65 88/88/88
f 2/2/2 65/65/65 7/7/7
f 13/13/13 2/2/2 7/7/7
f 15/15/15 2/2/2 13/13/13
f 26/26/26 15/15/15 13/13/13
f 50/50/50 15/15/15 26/26/26
f 27/27/27 28/28/28 18/18/18
f 5/5/5 28/28/28 27/27/27
f 8/8/8 5/5/5 27/27/27
f 79/79/79 5/5/5 8/8/8
f 81/81/81 79/79/79 8/8/8
f 70/70/70 79/79/79 81/81/81
f 96/96/96 70/70/70 81/81/81
f 103/103/103 70/70/70 96/96/96
f 95/95/95 103/103/103 96/96/96
f 108/108/108 103/103/103 95/95/95
f 43/43/43 108/108/108 95/95/95
f 58/58/58 108/108/108 43/43/43
f 57/57/57 58/58/58 43/43/43
f 36/36/36 58/58/58 57/57/57
f 52/52/52 36/36/36 57/57/57
f 35/35/35 36/36/36 52/52/52
f 53/53/53 35/35/35 52/52/52
f 41/41/41 35/35/35 53/53/53
f 22/22/22 41/41/41 53/53/53
f 51/51/51 118/118/118 49/49/49
f 124/124/124 118/118/118 51/51/51
f 123/123/123 124/124/124 51/51/51
f 122/122/122 124/124/124 123/123/123
f 46/46/46 122/122/122 123/123/123
f 121/121/121 122/122/122 46/46/46
f 32/32/32 121/121/121 46/46/46
f 42/42/42 121/121/121 32/32/32
f 38/38/38 42/42/42 32/32/32
f 30/30/30 42/42/42 38/38/38
f 55/55/55 30/30/30 38/38/38
f 56/56/56 30/30/30 55/55/55
f 9/9/9 1/1/1 74/74/74
f 10/10/10 9/9/9 74/74/74
f 23/23/23 9/9/9 10/10/10
f 24/24/24 23/23/23 10/10/10
f 30/30/30 23/23/23 24/24/24
f 42/42/42 30/30/30 24/24/24
f 14/14/14 116/116/116 12/12/12
f 31/31/31 116/116/116 14/14/14
f 60/60/60 31/31/31 14/14/14
f 16/16/16 31/31/31 60/60/60
f 12/12/12 4/4/4 14/14/14
f 13/13/13 35/35/35 26/26/26
f 36/36/36 35/35/35 13/13/13
f 7/7/7 36/36/36 13/13/13
f 58/58/58 36/36/36 7/7/7
f 88/88/88 58/58/58 7/7/7
f 108/108/108 58/58/58 88/88/88
f 103/103/103 108/108/108 88/88/88
f 125/125/125 34/34/34 126/126/126
f 40/40/40 34/34/34 125/125/125
f 132/132/132 40/40/40 125/125/125
f 39/39/39 40/40/40 132/132/132
f 131/131/131 39/39/39 132/132/132
f 129/129/129 16/16/16 50/50/50
f 31/31/31 16/16/16 129/129/129
f 42/42/42 24/24/24 121/121/121
f 65/65/65 78/78/78 87/87/87
f 67/67/67 78/78/78 65/65/65
f 2/2/2 67/67/67 65/65/65
f 11/11/11 67/67/67 2/2/2
f 15/15/15 11/11/11 2/2/2
f 62/62/62 11/11/11 15/15/15
f 78/78/78 67/67/67 101/101/101
f 82/82/82 106/106/106 90/90/90
f 107/107/107 106/106/106 82/82/82
f 73/73/73 107/107/107 82/82/82
f 93/93/93 107/107/107 73/73/73
f 104/104/104 93/93/93 73/73/73
f 87/87/87 93/93/93 104/104/104
f 85/85/85 92/92/92 86/86/86
f 91/91/91 92/92/92 85/85/85
f 84/84/84 91/91/91 85/85/85
f 90/90/90 91/91/91 84/84/84
f 94/94/94 90/90/90 84/84/84
f 82/82/82 90/90/90 94/94/94
f 76/76/76 82/82/82 94/94/94
f 74/74/74 82/82/82 76/76/76
f 10/10/10 74/74/74 76/76/76
f 97/97/97 86/86/86 98/98/98
f 85/85/85 86/86/86 97/97/97
f 84/84/84 85/85/85 97/97/97
f 102/102/102 100/100/100 139/139/139
f 145/145/145 102/102/102 139/139/139
f 144/144/144 102/102/102 145/145/145
f 143/143/143 144/144/144 145/145/145
f 97/97/97 144/144/144 143/143/143
f 142/142/142 97/97/97 143/143/143
f 84/84/84 97/97/97 142/142/142
f 94/94/94 84/84/84 142/142/142
f 83/83/83 110/110/110 66/66/66
f 68/68/68 110/110/110 83/83/83
f 150/150/150 68/68/68 83/83/83
f 101/101/101 68/68/68 150/150/150
f 142/142/142 76/76/76 94/94/94
f 63/63/63 62/62/62 61/61/61
f 111/111/111 63/63/63 61/61/61
f 11/11/11 63/63/63 111/111/111
f 67/67/67 11/11/11 111/111/111
f 44/44/44 57/57/57 43/43/43
f 52/52/52 57/57/57 44/44/44
f 45/45/45 52/52/52 44/44/44
f 18/18/18 52/52/52 45/45/45
f 29/29/29 18/18/18 45/45/45
f 27/27/27 18/18/18 29/29/29
f 8/8/8 27/27/27 29/29/29
f 80/80/80 69/69/69 77/77/77
f 6/6/6 80/80/80 77/77/77
f 5/5/5 80/80/80 6/6/6
f 28/28/28 5/5/5 6/6/6
f 23/23/23 1/1/1 9/9/9
f 25/25/25 1/1/1 23/23/23
f 17/17/17 25/25/25 23/23/23
f 33/33/33 40/40/40 39/39/39
f 34/34/34 40/40/40 33/33/33
f 8/8/8 43/43/43 95/95/95
f 44/44/44 43/43/43 8/8/8
f 29/29/29 44/44/44 8/8/8
f 45/45/45 44/44/44 29/29/29
f 53/53/53 52/52/52 18/18/18
f 23/23/23 54/54/54 17/17/17
f 30/30/30 54/54/54 23/23/23
f 80/80/80 70/70/70 69/69/69
f 79/79/79 70/70/70 80/80/80
f 5/5/5 79/79/79 80/80/80
f 82/82/82 104/104/104 73/73/73
f 105/105/105 104/104/104 82/82/82
f 74/74/74 105/105/105 82/82/82
f 95/95/95 81/81/81 8/8/8
f 96/96/96 81/81/81 95/95/95
f 63/63/63 11/11/11 62/62/62
