g saltShaker_geo
v 0.03546875 0.03159042 0.02501854
v 0.00734375 0.03159042 0.04276947
v -0.025 0.03159042 0.03546562
v -0.0428125 0.03159103 0.007384643
v -0.03546875 0.03156914 -0.02501854
v -0.00734375 0.03156914 -0.04276947
v 0.025 0.03156914 -0.03546577
v 0.0428125 0.03159103 -0.007390136
v 0.03546875 0 0.02499084
v 0.00734375 0 0.04272301
v -0.025 0 0.03542687
v -0.0428125 6.103515E-07 0.007376556
v -0.03546875 -2.128601E-05 -0.02499107
v -0.00734375 6.103515E-07 -0.04272812
v 0.025 -2.128601E-05 -0.03542679
v 0.04265625 6.103515E-07 -0.007382278
v 0.0221875 0.1424757 0.01568817
v 0.0046875 0.1424757 0.02681991
v -0.01578125 0.1424757 0.02223953
v -0.026875 0.1424763 0.004629822
v -0.0221875 0.1424763 -0.01569305
v -0.0046875 0.1424763 -0.02682465
v 0.015625 0.1424763 -0.02224441
v 0.026875 0.1424763 -0.004635391
v 0.0221875 0.1697803 0.01568817
v 0.0046875 0.1697803 0.02681991
v -0.01578125 0.1697803 0.02223953
v -0.026875 0.1697803 0.004629974
v -0.0221875 0.1697803 -0.01569305
v -0.0046875 0.1697803 -0.0268248
v 0.015625 0.1697803 -0.02224441
v 0.026875 0.1697803 -0.004635239
v 0.0046875 0.1489832 0.02681991
v -0.01578125 0.1489832 0.02223953
v -0.026875 0.1489832 0.004629974
v -0.0221875 0.1489832 -0.01569305
v -0.0046875 0.1489832 -0.0268248
v 0.015625 0.1489832 -0.02224441
v 0.026875 0.1489832 -0.004635239
v 0.0221875 0.1489832 0.01568817
v 0.0046875 0.1628776 0.02681991
v -0.01578125 0.1628776 0.02223953
v -0.026875 0.1628776 0.004629974
v -0.0221875 0.1628776 -0.01569305
v -0.0046875 0.1628776 -0.0268248
v 0.015625 0.1628776 -0.02224441
v 0.026875 0.1628776 -0.004635239
v 0.0221875 0.1628776 0.01568817
v -0.0428125 0.03159103 0.007384643
v -0.0428125 6.103515E-07 0.007376556
v 0.0428125 0.03159103 -0.007390136
v 0.04265625 6.103515E-07 -0.007382278
v 0.00734375 0.03159042 0.04276947
v 0.03546875 0.03159042 0.02501854
v -0.025 0.03159042 0.03546562
v -0.0428125 0.03159103 0.007384643
v -0.03546875 0.03156914 -0.02501854
v -0.026875 0.1424763 0.004629822
v -0.0428125 0.03159103 0.007384643
v -0.00734375 0.03156914 -0.04276947
v 0.025 0.03156914 -0.03546577
v 0.0428125 0.03159103 -0.007390136
v 0.026875 0.1424763 -0.004635391
v 0.0428125 0.03159103 -0.007390136
v 0.0046875 0.1424757 0.02681991
v 0.0221875 0.1424757 0.01568817
v -0.01578125 0.1424757 0.02223953
v -0.026875 0.1424763 0.004629822
v -0.0221875 0.1424763 -0.01569305
v -0.0046875 0.1424763 -0.02682465
v 0.015625 0.1424763 -0.02224441
v 0.026875 0.1424763 -0.004635391
v -0.01578125 0.1489832 0.02223953
v 0.0046875 0.1489832 0.02681991
v -0.026875 0.1489832 0.004629974
v -0.0221875 0.1489832 -0.01569305
v -0.0046875 0.1489832 -0.0268248
v 0.015625 0.1489832 -0.02224441
v 0.026875 0.1489832 -0.004635239
v 0.0221875 0.1489832 0.01568817
v -0.01578125 0.1628776 0.02223953
v 0.0046875 0.1697803 0.02681991
v 0.0046875 0.1628776 0.02681991
v -0.01578125 0.1697803 0.02223953
v -0.026875 0.1628776 0.004629974
v -0.026875 0.1697803 0.004629974
v -0.0221875 0.1628776 -0.01569305
v -0.0221875 0.1697803 -0.01569305
v -0.0046875 0.1628776 -0.0268248
v -0.0046875 0.1697803 -0.0268248
v 0.015625 0.1628776 -0.02224441
v 0.015625 0.1697803 -0.02224441
v 0.026875 0.1628776 -0.004635239
v 0.026875 0.1697803 -0.004635239
v 0.0221875 0.1628776 0.01568817
v 0.0221875 0.1697803 0.01568817
v 0.025 -2.128601E-05 -0.03542679
v -0.00734375 6.103515E-07 -0.04272812
v -0.03546875 -2.128601E-05 -0.02499107
v 0.04265625 6.103515E-07 -0.007382278
v -0.0428125 6.103515E-07 0.007376556
v 0.03546875 0 0.02499084
v -0.025 0 0.03542687
v 0.00734375 0 0.04272301
vt 0.7093626 0.7512976
vt 0.7093625 0.7512971
vt 0.7093625 0.7512904
vt 0.7093625 0.7512818
vt 0.7172138 0.7502066
vt 0.7172139 0.7502047
vt 0.7172139 0.7501974
vt 0.7172139 0.7501889
vt 0.7093625 0.7097039
vt 0.7093625 0.7097033
vt 0.7093625 0.7096968
vt 0.7093625 0.7096881
vt 0.7172139 0.7122729
vt 0.7172139 0.7122709
vt 0.7172139 0.7122637
vt 0.7172139 0.712255
vt 0.7092772 0.7555199
vt 0.7092772 0.7555199
vt 0.7092772 0.7555199
vt 0.7092772 0.7555199
vt 0.7171968 0.7557182
vt 0.7171966 0.7557182
vt 0.7171968 0.7557183
vt 0.7171968 0.7557182
vt 0.3835391 0.7377118
vt 0.3835391 0.7377118
vt 0.3835391 0.7377118
vt 0.3835391 0.7377118
vt 0.3835391 0.7377118
vt 0.3835391 0.7377118
vt 0.3835391 0.7377118
vt 0.3835391 0.7377118
vt -1.907349E-06 0.9999994
vt -1.907349E-06 0.9999994
vt -1.907349E-06 0.9999994
vt -1.907349E-06 0.9999994
vt -1.907349E-06 0.9999994
vt -1.907349E-06 0.9999994
vt -1.907349E-06 0.9999994
vt -1.907349E-06 0.9999994
vt 0.3940451 0.7445668
vt 0.3940451 0.7445668
vt 0.3940451 0.7445668
vt 0.3940451 0.7445668
vt 0.3940451 0.7445668
vt 0.3940451 0.7445668
vt 0.3940451 0.7445669
vt 0.3940451 0.7445668
vt 0.717214 0.750202
vt 0.7172139 0.7122682
vt 0.7093625 0.7512919
vt 0.7093625 0.7096981
vt 0.7092772 0.7486346
vt 0.7092772 0.7486346
vt 0.7092772 0.7486346
vt 0.7092772 0.7486346
vt 0.7171968 0.7456608
vt 0.7171968 0.7557183
vt 0.7171968 0.7456608
vt 0.7171966 0.7456608
vt 0.7171967 0.7456608
vt 0.7171967 0.7456608
vt 0.7092772 0.7555199
vt 0.7092772 0.7486346
vt -1.907349E-06 0.9999994
vt -1.907349E-06 0.9999994
vt -1.907349E-06 0.9999994
vt -1.907349E-06 0.9999994
vt -1.907349E-06 0.9999994
vt -1.907349E-06 0.9999994
vt -1.907349E-06 0.9999994
vt -1.907349E-06 0.9999994
vt 0.394045 0.7445668
vt 0.394045 0.7445668
vt 0.394045 0.7445668
vt 0.394045 0.7445668
vt 0.394045 0.7445668
vt 0.394045 0.7445668
vt 0.394045 0.7445669
vt 0.394045 0.7445668
vt -1.907349E-06 0.9999994
vt -1.907349E-06 0.9999994
vt -1.907349E-06 0.9999994
vt -1.907349E-06 0.9999994
vt -1.907349E-06 0.9999994
vt -1.907349E-06 0.9999994
vt -1.907349E-06 0.9999994
vt -1.907349E-06 0.9999994
vt -1.907349E-06 0.9999994
vt -1.907349E-06 0.9999994
vt -1.907349E-06 0.9999994
vt -1.907349E-06 0.9999994
vt -1.907349E-06 0.9999994
vt -1.907349E-06 0.9999994
vt -1.907349E-06 0.9999994
vt -1.907349E-06 0.9999994
vt 0.7176628 0.6865622
vt 0.7176629 0.6865622
vt 0.7176628 0.6865622
vt 0.7176629 0.6865622
vt 0.7176628 0.6865622
vt 0.7176629 0.6865622
vt 0.7176629 0.6865622
vt 0.7176628 0.6865622
vn 0.8147597 0.07154064 0.5753682
vn 0.1696804 0.07180848 0.9828795
vn -0.5745144 0.07185869 0.8153339
vn -0.9829091 0.07230603 0.1692974
vn -0.8143831 0.07217076 -0.5758224
vn -0.1695243 0.07185978 -0.9829028
vn 0.5745386 0.07147965 -0.8153502
vn 0.982857 0.07123349 -0.1700526
vn 0.7180008 -0.4773682 0.5065515
vn 0.1490604 -0.476729 0.86632
vn -0.506242 -0.476409 0.7188556
vn -0.866366 -0.4763725 0.1499304
vn -0.7179564 -0.4763192 -0.5076009
vn -0.1490529 -0.4767534 -0.866308
vn 0.5067534 -0.4773367 -0.7178792
vn 0.8656484 -0.4777052 -0.1498351
vn 0.8143843 0.07240366 0.5757917
vn 0.1710565 0.07244557 0.9825942
vn -0.5748042 0.07235774 0.8150856
vn -0.983198 0.07243326 0.1675562
vn -0.8143726 0.07238035 -0.575811
vn -0.1704994 0.072463 -0.9826897
vn 0.5734417 0.07244862 -0.8160366
vn 0.9828042 0.07265748 -0.1697552
vn 0.7183482 0.47537 0.5079362
vn 0.1169275 0.7346001 0.6683492
vn -0.3910471 0.7347254 0.5543111
vn -0.8669797 0.4762278 0.146811
vn -0.7183473 0.4753697 -0.5079377
vn -0.1163586 0.7347153 -0.6683219
vn 0.3900908 0.7341673 -0.5557224
vn 0.8662494 0.4767154 -0.1495141
vn 0.1723322 0 0.9850389
vn -0.5764557 -1.652338E-06 0.8171285
vn -0.9859638 -8.912996E-07 0.1669591
vn -0.8165015 -1.913382E-06 -0.5773433
vn -0.1715252 -5.775685E-06 -0.9851797
vn 0.5745333 -1.385511E-06 -0.8184812
vn 0.9854293 9.495412E-07 -0.1700852
vn 0.8165034 -7.593446E-07 0.5773407
vn 0.1723322 0 0.9850389
vn -0.5764555 0 0.8171285
vn -0.9859638 0 0.1669594
vn -0.8165021 0 -0.5773425
vn -0.1715252 0 -0.9851798
vn 0.5745345 0 -0.8184804
vn 0.9854294 0 -0.1700844
vn 0.8165032 0 0.5773408
vn -0.9829091 0.07230603 0.1692974
vn -0.866366 -0.4763725 0.1499304
vn 0.982857 0.07123349 -0.1700526
vn 0.8656484 -0.4777052 -0.1498351
vn 0.1696804 0.07180848 0.9828795
vn 0.8147597 0.07154064 0.5753682
vn -0.5745144 0.07185869 0.8153339
vn -0.9829091 0.07230603 0.1692974
vn -0.8143831 0.07217076 -0.5758224
vn -0.983198 0.07243326 0.1675562
vn -0.9829091 0.07230603 0.1692974
vn -0.1695243 0.07185978 -0.9829028
vn 0.5745386 0.07147965 -0.8153502
vn 0.982857 0.07123349 -0.1700526
vn 0.9828042 0.07265748 -0.1697552
vn 0.982857 0.07123349 -0.1700526
vn 0.1710565 0.07244557 0.9825942
vn 0.8143843 0.07240366 0.5757917
vn -0.5748042 0.07235774 0.8150856
vn -0.983198 0.07243326 0.1675562
vn -0.8143726 0.07238035 -0.575811
vn -0.1704994 0.072463 -0.9826897
vn 0.5734417 0.07244862 -0.8160366
vn 0.9828042 0.07265748 -0.1697552
vn -0.5764557 -1.652338E-06 0.8171285
vn 0.1723322 0 0.9850389
vn -0.9859638 -8.912996E-07 0.1669591
vn -0.8165015 -1.913382E-06 -0.5773433
vn -0.1715252 -5.775685E-06 -0.9851797
vn 0.5745333 -1.385511E-06 -0.8184812
vn 0.9854293 9.495412E-07 -0.1700852
vn 0.8165034 -7.593446E-07 0.5773407
vn -0.5764555 0 0.8171285
vn 0.1169275 0.7346001 0.6683492
vn 0.1723322 0 0.9850389
vn -0.3910471 0.7347254 0.5543111
vn -0.9859638 0 0.1669594
vn -0.8669797 0.4762278 0.146811
vn -0.8165021 0 -0.5773425
vn -0.7183473 0.4753697 -0.5079377
vn -0.1715252 0 -0.9851798
vn -0.1163586 0.7347153 -0.6683219
vn 0.5745345 0 -0.8184804
vn 0.3900908 0.7341673 -0.5557224
vn 0.9854294 0 -0.1700844
vn 0.8662494 0.4767154 -0.1495141
vn 0.8165032 0 0.5773408
vn 0.7183482 0.47537 0.5079362
vn 0.5067534 -0.4773367 -0.7178792
vn -0.1490529 -0.4767534 -0.866308
vn -0.7179564 -0.4763192 -0.5076009
vn 0.8656484 -0.4777052 -0.1498351
vn -0.866366 -0.4763725 0.1499304
vn 0.7180008 -0.4773682 0.5065515
vn -0.506242 -0.476409 0.7188556
vn 0.1490604 -0.476729 0.86632
g saltShaker_geo_0
f 9/9/9 52/52/52 51/51/51
f 1/1/1 9/9/9 51/51/51
f 10/10/10 9/9/9 1/1/1
f 2/2/2 10/10/10 1/1/1
f 11/11/11 10/10/10 2/2/2
f 3/3/3 11/11/11 2/2/2
f 12/12/12 11/11/11 3/3/3
f 4/4/4 12/12/12 3/3/3
f 7/7/7 8/8/8 16/16/16
f 15/15/15 7/7/7 16/16/16
f 6/6/6 7/7/7 15/15/15
f 14/14/14 6/6/6 15/15/15
f 5/5/5 6/6/6 14/14/14
f 13/13/13 5/5/5 14/14/14
f 49/49/49 5/5/5 13/13/13
f 50/50/50 49/49/49 13/13/13
f 54/54/54 64/64/64 63/63/63
f 17/17/17 54/54/54 63/63/63
f 53/53/53 54/54/54 17/17/17
f 18/18/18 53/53/53 17/17/17
f 55/55/55 53/53/53 18/18/18
f 19/19/19 55/55/55 18/18/18
f 56/56/56 55/55/55 19/19/19
f 20/20/20 56/56/56 19/19/19
f 23/23/23 24/24/24 62/62/62
f 61/61/61 23/23/23 62/62/62
f 22/22/22 23/23/23 61/61/61
f 60/60/60 22/22/22 61/61/61
f 21/21/21 22/22/22 60/60/60
f 57/57/57 21/21/21 60/60/60
f 58/58/58 21/21/21 57/57/57
f 59/59/59 58/58/58 57/57/57
f 27/27/27 29/29/29 28/28/28
f 30/30/30 29/29/29 27/27/27
f 31/31/31 30/30/30 27/27/27
f 31/31/31 25/25/25 32/32/32
f 26/26/26 25/25/25 31/31/31
f 27/27/27 26/26/26 31/31/31
f 102/102/102 104/104/104 103/103/103
f 101/101/101 102/102/102 103/103/103
f 100/100/100 102/102/102 101/101/101
f 99/99/99 100/100/100 101/101/101
f 97/97/97 100/100/100 99/99/99
f 98/98/98 97/97/97 99/99/99
f 33/33/33 65/65/65 40/40/40
f 67/67/67 65/65/65 33/33/33
f 34/34/34 67/67/67 33/33/33
f 68/68/68 67/67/67 34/34/34
f 35/35/35 68/68/68 34/34/34
f 69/69/69 68/68/68 35/35/35
f 36/36/36 69/69/69 35/35/35
f 70/70/70 69/69/69 36/36/36
f 37/37/37 70/70/70 36/36/36
f 71/71/71 70/70/70 37/37/37
f 38/38/38 71/71/71 37/37/37
f 72/72/72 71/71/71 38/38/38
f 39/39/39 72/72/72 38/38/38
f 66/66/66 72/72/72 39/39/39
f 40/40/40 66/66/66 39/39/39
f 65/65/65 66/66/66 40/40/40
f 42/42/42 73/73/73 41/41/41
f 75/75/75 73/73/73 42/42/42
f 43/43/43 75/75/75 42/42/42
f 76/76/76 75/75/75 43/43/43
f 44/44/44 76/76/76 43/43/43
f 77/77/77 76/76/76 44/44/44
f 45/45/45 77/77/77 44/44/44
f 78/78/78 77/77/77 45/45/45
f 46/46/46 78/78/78 45/45/45
f 79/79/79 78/78/78 46/46/46
f 47/47/47 79/79/79 46/46/46
f 80/80/80 79/79/79 47/47/47
f 48/48/48 80/80/80 47/47/47
f 74/74/74 80/80/80 48/48/48
f 41/41/41 74/74/74 48/48/48
f 73/73/73 74/74/74 41/41/41
f 84/84/84 81/81/81 82/82/82
f 85/85/85 81/81/81 84/84/84
f 86/86/86 85/85/85 84/84/84
f 87/87/87 85/85/85 86/86/86
f 88/88/88 87/87/87 86/86/86
f 89/89/89 87/87/87 88/88/88
f 90/90/90 89/89/89 88/88/88
f 91/91/91 89/89/89 90/90/90
f 92/92/92 91/91/91 90/90/90
f 93/93/93 91/91/91 92/92/92
f 94/94/94 93/93/93 92/92/92
f 95/95/95 93/93/93 94/94/94
f 96/96/96 95/95/95 94/94/94
f 83/83/83 95/95/95 96/96/96
f 82/82/82 83/83/83 96/96/96
f 81/81/81 83/83/83 82/82/82
