g scissors_geo
v -0.02023203 0.1488561 -0.1242901
v -0.0211145 0.1451809 -0.126469
v -0.01949543 0.148905 -0.1243308
v -0.01838439 0.1453519 -0.1266285
v 0.0056249 0.0725949 0.186132
v 0.007377696 0.03243664 0.1699325
v -0.005362235 0.07186291 0.1867398
v -0.003609329 0.03171215 0.1705572
v -0.008203097 0.09527671 0.05260437
v -0.01919185 0.09454513 0.05321224
v -0.01780057 0.05985922 0.03699882
v -0.006812203 0.06058644 0.0363825
v -0.006513079 0.08792973 0.07408544
v -0.01750131 0.08719837 0.07470176
v -0.01667075 0.07177307 0.07130146
v -0.005682092 0.07250097 0.07068514
v 0.0003982496 0.07779935 0.09894546
v -0.01059025 0.07706805 0.09955332
v -0.009649625 0.06107948 0.09743446
v 0.001338599 0.06180486 0.09680969
v 0.0034674 0.049367 0.1201131
v 0.0005018354 0.09466663 0.1207515
v -0.01048653 0.09393515 0.1213593
v -0.007520927 0.04864211 0.1207294
v -0.002449375 0.07140613 0.07851101
v -0.002641729 0.08284657 0.08861011
v -0.01343751 0.07067433 0.07912731
v 0.006244202 0.03358224 0.1510465
v 0.002966502 0.09168933 0.1612316
v -0.008022118 0.09095766 0.1618394
v -0.004744614 0.03285057 0.1516544
v 0.007444859 0.04846638 0.1900718
v -0.003543901 0.04774305 0.1906966
v 0.005743785 0.04293315 0.1531834
v 0.006689384 0.05024854 0.1786953
v 0.003491328 0.08311179 0.1604656
v 0.001063332 0.08713433 0.1218809
v 0.001180329 0.07023145 0.1039507
v 0.003060591 0.0578239 0.1228716
v 0.006568789 0.0408416 0.1654201
v 0.005472162 0.06831229 0.1783221
v -0.005497797 0.06760886 0.1789459
v -0.00427987 0.04952702 0.1792851
v -0.004402968 0.04014308 0.1660101
v -0.005218954 0.04215511 0.1538322
v -0.007905152 0.05707246 0.1235036
v -0.00978899 0.06950306 0.1045575
v -0.009908149 0.08644066 0.1224709
v -0.007476089 0.08234312 0.1610638
v -0.01362992 0.0821228 0.08924335
v 0.0003184628 0.07639819 0.09584963
v -0.01065949 0.07555495 0.09651621
v -0.01026763 0.06457324 0.0905143
v 0.0006628346 0.06563517 0.08928283
v -0.01089532 0.07504344 0.09169255
v 0.0001354146 0.07554915 0.09159059
v -0.01242095 0.257121 0.05412471
v -0.01115695 0.2569834 0.05835785
v -0.0131691 0.2570711 0.05414915
v -0.01393015 0.256799 0.05851125
v -0.007073132 -0.0394965 -0.03463736
v -0.004291747 -0.04739512 0.006020045
v 0.003915687 -0.0387649 -0.03524522
v 0.006696815 -0.04666346 0.005412187
v -0.005498651 0.0708041 0.01182139
v 0.005489564 0.07153575 0.01121355
v 0.00758621 0.07316912 0.05099401
v -0.003401062 0.0724372 0.05160179
v -0.004695244 0.05612542 0.008702128
v 0.006292827 0.05685722 0.008085826
v 0.007533378 0.04709771 0.01873248
v -0.003455363 0.04636598 0.01934036
v -0.009520311 0.0165362 -0.01149589
v 0.001467433 0.01726798 -0.01212064
v 0.002294381 0.01506447 0.0001498389
v -0.008694429 0.0143328 0.0007577062
v -0.006715157 -0.004250231 0.01412492
v -0.009883566 0.008125219 -0.02813743
v 0.001105182 0.008856868 -0.0287453
v 0.004272177 -0.003518257 0.01351713
v -0.007484363 0.03337147 0.004714298
v -0.008396644 0.04048948 -0.00320606
v 0.002590625 0.04122159 -0.003813844
v 0.00350446 0.03410302 0.004106426
v -0.004834796 -0.03024256 0.0168162
v -0.0089584 -0.0152872 -0.03955612
v 0.002030282 -0.01455547 -0.04016399
v 0.006152544 -0.02951057 0.0162084
v -0.005420438 -0.05115554 -0.01884645
v 0.005567791 -0.05042399 -0.01945428
v -0.005486369 -0.02823538 0.007492244
v -0.005981802 -0.04010485 -0.01569821
v -0.008313042 -0.01817437 -0.03139229
v -0.009289181 0.004961314 -0.02120749
v -0.008817982 0.01037664 -0.006215217
v -0.006892032 -0.006673212 0.008027416
v -0.005117395 -0.03975202 0.000322659
v -0.007029917 -0.03425068 -0.02756681
v 0.003938034 -0.03351746 -0.02817353
v 0.004984555 -0.03935238 -0.01631331
v 0.005850401 -0.03900832 -0.0002840471
v 0.005491095 -0.02755976 0.006969708
v 0.004078522 -0.005978632 0.007420551
v 0.002150593 0.01111752 -0.0068135
v 0.001675346 0.005725217 -0.02185637
v 0.002657118 -0.01745246 -0.03198221
v -0.01858177 0.07939602 0.03857521
v -0.01895288 0.07693383 0.03343715
v -0.01930377 0.08018358 0.0286961
v -0.0192813 0.08589565 0.02912685
v -0.01890538 0.08835781 0.03435782
v -0.0185571 0.085108 0.03904819
v -0.02114558 0.08076529 0.03673492
v -0.0213585 0.07934386 0.03379893
v -0.021561 0.08122005 0.03107413
v -0.02154832 0.08451792 0.03131061
v -0.02133205 0.08593938 0.03432264
v -0.02112955 0.08406313 0.03704744
v -0.02223034 0.08263993 0.03410128
v 0.007651849 0.08269051 0.03504027
v 0.007660281 0.08129567 0.03200734
v 0.007247512 0.08316748 0.02931959
v 0.006826789 0.08643468 0.02966474
v 0.006817875 0.08782988 0.03268923
v 0.007226877 0.08595768 0.0353179
v 0.005555856 0.08099682 0.0371214
v 0.005575011 0.07858038 0.03195328
v 0.004861678 0.08182249 0.02730004
v 0.004128196 0.08748098 0.02780649
v 0.004107821 0.08989794 0.03298315
v 0.004822712 0.08665524 0.0376363
v 0.008115926 0.08468102 0.03228708
v -0.0211145 0.1451809 -0.126469
v -0.006812203 0.06058644 0.0363825
v -0.01838439 0.1453519 -0.1266285
v -0.01780057 0.05985922 0.03699882
v -0.01919185 0.09454513 0.05321224
v -0.01949543 0.148905 -0.1243308
v -0.008203097 0.09527671 0.05260437
v -0.02023203 0.1488561 -0.1242901
v -0.01750131 0.08719837 0.07470176
v -0.01667075 0.07177307 0.07130146
v -0.005682092 0.07250097 0.07068514
v -0.006513079 0.08792973 0.07408544
v -0.006513079 0.08792973 0.07408544
v -0.01750131 0.08719837 0.07470176
v -0.01667075 0.07177307 0.07130146
v -0.005682092 0.07250097 0.07068514
v -0.01115695 0.2569834 0.05835785
v -0.003401062 0.0724372 0.05160179
v -0.01393015 0.256799 0.05851125
v 0.00758621 0.07316912 0.05099401
v 0.005489564 0.07153575 0.01121355
v -0.0131691 0.2570711 0.05414915
v -0.005498651 0.0708041 0.01182139
v -0.01242095 0.257121 0.05412471
v 0.006292827 0.05685722 0.008085826
v 0.007533378 0.04709771 0.01873248
v -0.003455363 0.04636598 0.01934036
v -0.004695244 0.05612542 0.008702128
v -0.004695244 0.05612542 0.008702128
v 0.006292827 0.05685722 0.008085826
v 0.007533378 0.04709771 0.01873248
v -0.003455363 0.04636598 0.01934036
v -0.02114558 0.08076529 0.03673492
v -0.0213585 0.07934386 0.03379893
v -0.021561 0.08122005 0.03107413
v -0.02154832 0.08451792 0.03131061
v -0.02133205 0.08593938 0.03432264
v -0.02112955 0.08406313 0.03704744
v 0.007660281 0.08129567 0.03200734
v 0.007651849 0.08269051 0.03504027
v 0.007247512 0.08316748 0.02931959
v 0.006826789 0.08643468 0.02966474
v 0.006817875 0.08782988 0.03268923
v 0.007226877 0.08595768 0.0353179
vt 0.2560809 0.7661726
vt 0.2560809 0.7661726
vt 0.2560809 0.7661726
vt 0.2560809 0.7661726
vt 0.7574128 0.2567994
vt 0.7574128 0.2567994
vt 0.7574126 0.2567994
vt 0.7574126 0.2567994
vt 0.2560809 0.7661726
vt 0.2560809 0.7661726
vt 0.2560809 0.7661726
vt 0.2560809 0.7661726
vt 0.5865352 0.8166116
vt 0.5865352 0.8166116
vt 0.2560809 0.7661726
vt 0.5865352 0.8166116
vt 0.7574128 0.2567994
vt 0.7574126 0.2567994
vt 0.7574126 0.2567994
vt 0.7574128 0.2567994
vt 0.7574128 0.2567994
vt 0.7574128 0.2567994
vt 0.7574126 0.2567994
vt 0.7574126 0.2567994
vt 0.7574128 0.2567994
vt 0.7574128 0.2567994
vt 0.7574126 0.2567994
vt 0.7574128 0.2567993
vt 0.7574128 0.2567994
vt 0.7574126 0.2567994
vt 0.7574126 0.2567993
vt 0.7574128 0.2567994
vt 0.7574126 0.2567994
vt 0.7574128 0.2567994
vt 0.7574128 0.2567994
vt 0.7574128 0.2567994
vt 0.7574128 0.2567993
vt 0.7574128 0.2567994
vt 0.7574128 0.2567993
vt 0.7574128 0.2567994
vt 0.7574128 0.2567994
vt 0.7574126 0.2567994
vt 0.7574126 0.2567994
vt 0.7574126 0.2567994
vt 0.7574126 0.2567994
vt 0.7574126 0.2567993
vt 0.7574126 0.2567994
vt 0.7574126 0.2567993
vt 0.7574126 0.2567994
vt 0.7574126 0.2567994
vt 0.7574128 0.2567994
vt 0.7574126 0.2567994
vt 0.7574126 0.2567994
vt 0.7574128 0.2567994
vt 0.7574126 0.2567994
vt 0.7574128 0.2567994
vt 0.2560809 0.7661726
vt 0.2560809 0.7661726
vt 0.2560809 0.7661726
vt 0.2560809 0.7661726
vt 0.7574126 0.2567995
vt 0.7574126 0.2567993
vt 0.7574128 0.2567995
vt 0.7574128 0.2567993
vt 0.2560809 0.7661726
vt 0.2560809 0.7661726
vt 0.2560809 0.7661726
vt 0.2560809 0.7661726
vt 0.5865352 0.8166116
vt 0.5865352 0.8166116
vt 0.2560809 0.7661726
vt 0.5865352 0.8166116
vt 0.7574127 0.2567994
vt 0.7574128 0.2567994
vt 0.7574128 0.2567994
vt 0.7574127 0.2567994
vt 0.7574127 0.2567994
vt 0.7574127 0.2567994
vt 0.7574128 0.2567994
vt 0.7574128 0.2567994
vt 0.7574128 0.2567993
vt 0.7574128 0.2567994
vt 0.7574128 0.2567994
vt 0.7574128 0.2567993
vt 0.7574127 0.2567994
vt 0.7574127 0.2567995
vt 0.7574128 0.2567995
vt 0.7574128 0.2567994
vt 0.7574126 0.2567995
vt 0.7574128 0.2567995
vt 0.7574127 0.2567994
vt 0.7574126 0.2567994
vt 0.7574127 0.2567995
vt 0.7574127 0.2567993
vt 0.7574127 0.2567993
vt 0.7574127 0.2567994
vt 0.7574126 0.2567994
vt 0.7574126 0.2567995
vt 0.7574128 0.2567995
vt 0.7574128 0.2567994
vt 0.7574128 0.2567994
vt 0.7574128 0.2567994
vt 0.7574128 0.2567994
vt 0.7574128 0.2567994
vt 0.7574128 0.2567994
vt 0.7574128 0.2567995
vt 0.2550355 0.3363841
vt 0.2550355 0.3363841
vt 0.2550355 0.3363841
vt 0.2550355 0.3363841
vt 0.2550355 0.3363841
vt 0.2550355 0.3363841
vt 0.2550355 0.3363841
vt 0.2550355 0.3363841
vt 0.2550355 0.3363841
vt 0.2550355 0.3363841
vt 0.2550355 0.3363841
vt 0.2550355 0.3363841
vt 0.7287835 0.7323772
vt 0.2550355 0.3363841
vt 0.2550355 0.3363841
vt 0.2550355 0.3363841
vt 0.2550355 0.3363841
vt 0.2550355 0.3363841
vt 0.2550355 0.3363841
vt 0.2550355 0.3363841
vt 0.2550355 0.3363841
vt 0.2550355 0.3363841
vt 0.2550355 0.3363841
vt 0.2550355 0.3363841
vt 0.2550355 0.3363841
vt 0.7287835 0.7323772
vt 0.5865352 0.8166116
vt 0.5865352 0.8166116
vt 0.5865352 0.8166116
vt 0.5865352 0.8166116
vt 0.5865352 0.8166116
vt 0.5865352 0.8166116
vt 0.5865352 0.8166116
vt 0.5865352 0.8166116
vt 0.2560809 0.7661726
vt 0.5865352 0.8166116
vt 0.2560809 0.7661726
vt 0.2560809 0.7661726
vt 0.7574128 0.2567994
vt 0.7574126 0.2567994
vt 0.7574126 0.2567993
vt 0.7574128 0.2567993
vt 0.5865352 0.8166116
vt 0.5865352 0.8166116
vt 0.5865352 0.8166116
vt 0.5865352 0.8166116
vt 0.5865352 0.8166116
vt 0.5865352 0.8166116
vt 0.5865352 0.8166116
vt 0.5865352 0.8166116
vt 0.2560809 0.7661726
vt 0.5865352 0.8166116
vt 0.2560809 0.7661726
vt 0.2560809 0.7661726
vt 0.7574128 0.2567995
vt 0.7574128 0.2567995
vt 0.7574128 0.2567995
vt 0.7574128 0.2567995
vt 0.7287835 0.7323772
vt 0.7287835 0.7323772
vt 0.7287835 0.7323772
vt 0.7287835 0.7323772
vt 0.7287835 0.7323772
vt 0.7287835 0.7323772
vt 0.7287835 0.7323772
vt 0.7287835 0.7323772
vt 0.7287835 0.7323772
vt 0.7287835 0.7323772
vt 0.7287835 0.7323772
vt 0.7287835 0.7323772
vn -0.5860063 0.7584321 -0.2852672
vn -0.6114152 -0.2207393 -0.7598984
vn 0.4611592 0.8299549 -0.3138582
vn 0.5668954 -0.1686884 -0.8063335
vn 0.7388545 0.3987714 0.5432084
vn 0.7827377 -0.6007547 0.1625284
vn -0.7208595 0.3015285 0.6240531
vn -0.6747181 -0.69657 0.2440196
vn 0.6684909 0.7200334 0.1862035
vn -0.7325497 0.6374432 0.2388243
vn -0.7018237 -0.7117822 -0.02845817
vn 0.7786592 -0.6217592 -0.08429304
vn 0.6554137 0.7449396 0.1244901
vn -0.7274577 0.5903565 0.3496919
vn -0.6337752 -0.7553895 0.1664805
vn 0.7745723 -0.6300455 -0.05550174
vn 0.6452215 0.646497 -0.4071005
vn -0.7682503 0.5509543 -0.325946
vn -0.8111196 -0.5458753 -0.2100125
vn 0.8470982 -0.4361866 -0.3035886
vn 0.7274912 -0.5789807 -0.3681548
vn 0.6741617 0.7000787 -0.235363
vn -0.7831227 0.6026411 -0.1534351
vn -0.6822371 -0.6716542 -0.2888478
vn 0.7233946 -0.5526624 -0.4138413
vn 0.7195714 0.6277936 0.2968035
vn -0.6376767 -0.768886 -0.04672245
vn 0.7461525 -0.6262781 -0.2259029
vn 0.6902502 0.6931309 0.2076636
vn -0.7491482 0.5966169 0.2877936
vn -0.6784984 -0.719966 -0.1459071
vn 0.8040617 -0.1828939 0.5657158
vn -0.7057714 -0.2825549 0.6496533
vn 0.6755272 0.7154707 0.1782271
vn 0.6946869 0.3454044 -0.6309565
vn 0.7468563 -0.5884942 -0.3096454
vn 0.7912894 -0.5867452 0.1720207
vn 0.9395378 0.09510645 0.3289731
vn 0.6837121 0.6595255 0.3123522
vn 0.6798748 0.7082894 -0.1899903
vn 0.7228751 -0.244468 -0.6462871
vn -0.7505204 -0.342813 -0.5649765
vn -0.7982858 0.24737 -0.5491338
vn -0.7827926 0.6127647 -0.1084214
vn -0.7400035 0.6214178 0.2573613
vn -0.7257957 0.565927 0.3910845
vn -0.9011415 -0.02707902 0.4326786
vn -0.6828145 -0.6847626 0.2546853
vn -0.6913534 -0.6850581 -0.2296212
vn -0.6911786 0.3447194 0.63517
vn 0.7882287 0.5801226 -0.2053124
vn -0.8753244 0.4704495 -0.111733
vn -0.8025355 -0.5749637 -0.1592277
vn 0.839615 -0.4074499 -0.3592092
vn -0.7888283 0.4382312 0.4309333
vn 0.7527978 0.6288995 0.1943729
vn 0.4599612 0.7081843 -0.5356405
vn 0.5630376 0.6128196 0.5544735
vn -0.6106309 0.6285739 -0.4816896
vn -0.5794867 0.5246569 0.6236429
vn -0.7355703 -0.4158911 -0.5347625
vn -0.6796843 -0.6099424 0.4074302
vn 0.7215644 -0.3183537 -0.6148136
vn 0.7956606 -0.5110469 0.3252003
vn -0.7483261 0.1065207 -0.6547225
vn 0.6494052 0.2097027 -0.7309566
vn 0.7963389 -0.2367967 0.5565715
vn -0.6889884 -0.3457168 0.6370046
vn -0.7756794 0.3064714 -0.5517216
vn 0.6445361 0.2832438 -0.7101734
vn 0.7556049 -0.5461296 0.3616677
vn -0.6431774 -0.539654 0.5432277
vn -0.8887379 0.3144149 -0.3335988
vn 0.8067792 0.376295 -0.4555319
vn 0.8806226 0.1375466 0.4534145
vn -0.8226022 0.0764474 0.5634549
vn -0.6969383 0.2005825 0.6885083
vn -0.7823004 0.4325709 -0.4482059
vn 0.6650957 0.5281802 -0.5278951
vn 0.736632 0.2957391 0.6082037
vn -0.655578 -0.3068703 0.6899624
vn -0.7671525 0.3807565 -0.5162379
vn 0.6395242 0.2939661 -0.7103469
vn 0.7785213 -0.3939047 0.4886141
vn -0.6768026 -0.201814 0.7079614
vn -0.7667461 0.03624718 -0.6409263
vn 0.6809745 0.1325639 -0.7202086
vn 0.7720283 -0.1051341 0.6268325
vn -0.6971261 -0.7060638 -0.1244545
vn 0.7670745 -0.6077572 -0.2054944
vn -0.7658731 0.1497843 -0.6253024
vn -0.7517421 0.6307769 0.192365
vn -0.6809244 -0.107599 0.7244062
vn -0.6748988 -0.5414738 0.501316
vn -0.850392 -0.520308 -0.07818571
vn -0.7471948 -0.2753652 -0.6048751
vn -0.8037517 0.523442 -0.282828
vn -0.7375819 0.3690974 0.5654557
vn 0.7387014 0.4682272 0.4848542
vn 0.6766425 0.7275101 0.1135079
vn 0.6916068 0.6228259 -0.3657432
vn 0.6680582 0.2445629 -0.7027711
vn 0.7062171 -0.178512 -0.6851211
vn 0.8971616 -0.405426 -0.1753023
vn 0.7918654 -0.4436143 0.4197088
vn 0.7641227 -0.01145943 0.6449692
vn -0.6628122 -0.4033582 0.6308582
vn -0.7090189 -0.7051851 -0.002516355
vn -0.7525953 -0.3074189 -0.5823176
vn -0.7506701 0.3988437 -0.526705
vn -0.7021651 0.7035981 0.1091502
vn -0.6614308 0.2993458 0.6876782
vn -0.837896 -0.2822671 0.4671783
vn -0.8703405 -0.4917736 0.02580706
vn -0.9002656 -0.2149702 -0.3785626
vn -0.8990276 0.2766942 -0.3393961
vn -0.8661003 0.4891225 0.1030995
vn -0.8374936 0.2067654 0.5058186
vn -0.997344 -0.003019121 0.07277363
vn 0.921972 -0.1617385 0.351864
vn 0.9236718 -0.370667 -0.09714106
vn 0.8621727 -0.09007546 -0.4985424
vn 0.7995619 0.3958764 -0.4516443
vn 0.7984338 0.6020737 -0.003258939
vn 0.8574185 0.324619 0.3993195
vn 0.7858037 -0.3051779 0.5379397
vn 0.7885706 -0.6054395 -0.1077001
vn 0.7000078 -0.2038765 -0.6844147
vn 0.6126878 0.494017 -0.6168961
vn 0.6094272 0.7923731 0.02726279
vn 0.6919606 0.3937317 0.6051166
vn 0.989195 0.134574 -0.05816317
vn -0.6114152 -0.2207393 -0.7598984
vn 0.7786592 -0.6217592 -0.08429304
vn 0.5668954 -0.1686884 -0.8063335
vn -0.7018237 -0.7117822 -0.02845817
vn -0.7325497 0.6374432 0.2388243
vn 0.4611592 0.8299549 -0.3138582
vn 0.6684909 0.7200334 0.1862035
vn -0.5860063 0.7584321 -0.2852672
vn -0.7274577 0.5903565 0.3496919
vn -0.6337752 -0.7553895 0.1664805
vn 0.7745723 -0.6300455 -0.05550174
vn 0.6554137 0.7449396 0.1244901
vn 0.6554137 0.7449396 0.1244901
vn -0.7274577 0.5903565 0.3496919
vn -0.6337752 -0.7553895 0.1664805
vn 0.7745723 -0.6300455 -0.05550174
vn 0.5630376 0.6128196 0.5544735
vn -0.6889884 -0.3457168 0.6370046
vn -0.5794867 0.5246569 0.6236429
vn 0.7963389 -0.2367967 0.5565715
vn 0.6494052 0.2097027 -0.7309566
vn -0.6106309 0.6285739 -0.4816896
vn -0.7483261 0.1065207 -0.6547225
vn 0.4599612 0.7081843 -0.5356405
vn 0.6445361 0.2832438 -0.7101734
vn 0.7556049 -0.5461296 0.3616677
vn -0.6431774 -0.539654 0.5432277
vn -0.7756794 0.3064714 -0.5517216
vn -0.7756794 0.3064714 -0.5517216
vn 0.6445361 0.2832438 -0.7101734
vn 0.7556049 -0.5461296 0.3616677
vn -0.6431774 -0.539654 0.5432277
vn -0.837896 -0.2822671 0.4671783
vn -0.8703405 -0.4917736 0.02580706
vn -0.9002656 -0.2149702 -0.3785626
vn -0.8990276 0.2766942 -0.3393961
vn -0.8661003 0.4891225 0.1030995
vn -0.8374936 0.2067654 0.5058186
vn 0.9236718 -0.370667 -0.09714106
vn 0.921972 -0.1617385 0.351864
vn 0.8621727 -0.09007546 -0.4985424
vn 0.7995619 0.3958764 -0.4516443
vn 0.7984338 0.6020737 -0.003258939
vn 0.8574185 0.324619 0.3993195
g scissors_geo_0
f 134/134/134 133/133/133 135/135/135
f 136/136/136 133/133/133 134/134/134
f 142/142/142 136/136/136 134/134/134
f 139/139/139 14/14/14 13/13/13
f 137/137/137 14/14/14 139/139/139
f 138/138/138 137/137/137 139/139/139
f 140/140/140 137/137/137 138/138/138
f 9/9/9 144/144/144 143/143/143
f 12/12/12 9/9/9 143/143/143
f 3/3/3 9/9/9 12/12/12
f 4/4/4 3/3/3 12/12/12
f 1/1/1 3/3/3 4/4/4
f 2/2/2 1/1/1 4/4/4
f 10/10/10 1/1/1 2/2/2
f 11/11/11 10/10/10 2/2/2
f 141/141/141 10/10/10 11/11/11
f 15/15/15 141/141/141 11/11/11
f 142/142/142 134/134/134 16/16/16
f 150/150/150 149/149/149 151/151/151
f 152/152/152 149/149/149 150/150/150
f 158/158/158 152/152/152 150/150/150
f 155/155/155 70/70/70 69/69/69
f 153/153/153 70/70/70 155/155/155
f 154/154/154 153/153/153 155/155/155
f 156/156/156 153/153/153 154/154/154
f 65/65/65 160/160/160 159/159/159
f 68/68/68 65/65/65 159/159/159
f 59/59/59 65/65/65 68/68/68
f 60/60/60 59/59/59 68/68/68
f 57/57/57 59/59/59 60/60/60
f 58/58/58 57/57/57 60/60/60
f 66/66/66 57/57/57 58/58/58
f 67/67/67 66/66/66 58/58/58
f 157/157/157 66/66/66 67/67/67
f 71/71/71 157/157/157 67/67/67
f 158/158/158 150/150/150 72/72/72
f 50/50/50 146/146/146 147/147/147
f 145/145/145 146/146/146 50/50/50
f 26/26/26 145/145/145 50/50/50
f 25/25/25 145/145/145 26/26/26
f 54/54/54 25/25/25 26/26/26
f 53/53/53 25/25/25 54/54/54
f 19/19/19 53/53/53 54/54/54
f 52/52/52 53/53/53 19/19/19
f 18/18/18 52/52/52 19/19/19
f 51/51/51 52/52/52 18/18/18
f 17/17/17 51/51/51 18/18/18
f 20/20/20 51/51/51 17/17/17
f 38/38/38 20/20/20 17/17/17
f 39/39/39 20/20/20 38/38/38
f 46/46/46 39/39/39 38/38/38
f 45/45/45 39/39/39 46/46/46
f 31/31/31 45/45/45 46/46/46
f 8/8/8 45/45/45 31/31/31
f 28/28/28 8/8/8 31/31/31
f 6/6/6 8/8/8 28/28/28
f 34/34/34 6/6/6 28/28/28
f 40/40/40 6/6/6 34/34/34
f 44/44/44 40/40/40 34/34/34
f 43/43/43 40/40/40 44/44/44
f 33/33/33 43/43/43 44/44/44
f 7/7/7 43/43/43 33/33/33
f 5/5/5 7/7/7 33/33/33
f 29/29/29 7/7/7 5/5/5
f 41/41/41 29/29/29 5/5/5
f 36/36/36 29/29/29 41/41/41
f 49/49/49 36/36/36 41/41/41
f 48/48/48 36/36/36 49/49/49
f 30/30/30 48/48/48 49/49/49
f 23/23/23 48/48/48 30/30/30
f 22/22/22 23/23/23 30/30/30
f 17/17/17 23/23/23 22/22/22
f 37/37/37 17/17/17 22/22/22
f 38/38/38 17/17/17 37/37/37
f 47/47/47 38/38/38 37/37/37
f 46/46/46 38/38/38 47/47/47
f 19/19/19 46/46/46 47/47/47
f 24/24/24 46/46/46 19/19/19
f 20/20/20 24/24/24 19/19/19
f 21/21/21 24/24/24 20/20/20
f 39/39/39 21/21/21 20/20/20
f 34/34/34 21/21/21 39/39/39
f 45/45/45 34/34/34 39/39/39
f 44/44/44 34/34/34 45/45/45
f 8/8/8 44/44/44 45/45/45
f 33/33/33 44/44/44 8/8/8
f 6/6/6 33/33/33 8/8/8
f 32/32/32 33/33/33 6/6/6
f 40/40/40 32/32/32 6/6/6
f 35/35/35 32/32/32 40/40/40
f 43/43/43 35/35/35 40/40/40
f 42/42/42 35/35/35 43/43/43
f 7/7/7 42/42/42 43/43/43
f 49/49/49 42/42/42 7/7/7
f 30/30/30 49/49/49 7/7/7
f 54/54/54 20/20/20 19/19/19
f 51/51/51 20/20/20 54/54/54
f 56/56/56 51/51/51 54/54/54
f 52/52/52 51/51/51 56/56/56
f 55/55/55 52/52/52 56/56/56
f 53/53/53 52/52/52 55/55/55
f 50/50/50 53/53/53 55/55/55
f 27/27/27 53/53/53 50/50/50
f 147/147/147 27/27/27 50/50/50
f 148/148/148 27/27/27 147/147/147
f 25/25/25 148/148/148 145/145/145
f 27/27/27 148/148/148 25/25/25
f 53/53/53 27/27/27 25/25/25
f 80/80/80 75/75/75 76/76/76
f 77/77/77 80/80/80 76/76/76
f 88/88/88 80/80/80 77/77/77
f 85/85/85 88/88/88 77/77/77
f 64/64/64 88/88/88 85/85/85
f 62/62/62 64/64/64 85/85/85
f 90/90/90 64/64/64 62/62/62
f 89/89/89 90/90/90 62/62/62
f 61/61/61 90/90/90 89/89/89
f 92/92/92 61/61/61 89/89/89
f 98/98/98 61/61/61 92/92/92
f 99/99/99 98/98/98 92/92/92
f 106/106/106 98/98/98 99/99/99
f 63/63/63 106/106/106 99/99/99
f 87/87/87 106/106/106 63/63/63
f 86/86/86 87/87/87 63/63/63
f 78/78/78 87/87/87 86/86/86
f 93/93/93 78/78/78 86/86/86
f 94/94/94 78/78/78 93/93/93
f 105/105/105 94/94/94 93/93/93
f 104/104/104 94/94/94 105/105/105
f 79/79/79 104/104/104 105/105/105
f 74/74/74 104/104/104 79/79/79
f 73/73/73 74/74/74 79/79/79
f 82/82/82 74/74/74 73/73/73
f 76/76/76 82/82/82 73/73/73
f 81/81/81 82/82/82 76/76/76
f 75/75/75 81/81/81 76/76/76
f 84/84/84 81/81/81 75/75/75
f 74/74/74 84/84/84 75/75/75
f 83/83/83 84/84/84 74/74/74
f 82/82/82 83/83/83 74/74/74
f 161/161/161 83/83/83 82/82/82
f 81/81/81 161/161/161 82/82/82
f 164/164/164 161/161/161 81/81/81
f 84/84/84 164/164/164 81/81/81
f 163/163/163 164/164/164 84/84/84
f 83/83/83 163/163/163 84/84/84
f 162/162/162 163/163/163 83/83/83
f 161/161/161 162/162/162 83/83/83
f 112/112/112 113/113/113 107/107/107
f 118/118/118 113/113/113 112/112/112
f 111/111/111 118/118/118 112/112/112
f 117/117/117 118/118/118 111/111/111
f 110/110/110 117/117/117 111/111/111
f 116/116/116 117/117/117 110/110/110
f 109/109/109 116/116/116 110/110/110
f 115/115/115 116/116/116 109/109/109
f 108/108/108 115/115/115 109/109/109
f 114/114/114 115/115/115 108/108/108
f 107/107/107 114/114/114 108/108/108
f 113/113/113 114/114/114 107/107/107
f 119/119/119 166/166/166 165/165/165
f 167/167/167 166/166/166 119/119/119
f 168/168/168 167/167/167 119/119/119
f 119/119/119 169/169/169 168/168/168
f 170/170/170 169/169/169 119/119/119
f 165/165/165 170/170/170 119/119/119
f 125/125/125 126/126/126 120/120/120
f 131/131/131 126/126/126 125/125/125
f 124/124/124 131/131/131 125/125/125
f 130/130/130 131/131/131 124/124/124
f 123/123/123 130/130/130 124/124/124
f 129/129/129 130/130/130 123/123/123
f 122/122/122 129/129/129 123/123/123
f 128/128/128 129/129/129 122/122/122
f 121/121/121 128/128/128 122/122/122
f 127/127/127 128/128/128 121/121/121
f 120/120/120 127/127/127 121/121/121
f 126/126/126 127/127/127 120/120/120
f 132/132/132 172/172/172 171/171/171
f 176/176/176 172/172/172 132/132/132
f 175/175/175 176/176/176 132/132/132
f 132/132/132 174/174/174 175/175/175
f 173/173/173 174/174/174 132/132/132
f 171/171/171 173/173/173 132/132/132
f 41/41/41 42/42/42 49/49/49
f 35/35/35 42/42/42 41/41/41
f 5/5/5 35/35/35 41/41/41
f 32/32/32 35/35/35 5/5/5
f 33/33/33 32/32/32 5/5/5
f 29/29/29 30/30/30 7/7/7
f 22/22/22 30/30/30 29/29/29
f 36/36/36 22/22/22 29/29/29
f 37/37/37 22/22/22 36/36/36
f 48/48/48 37/37/37 36/36/36
f 47/47/47 37/37/37 48/48/48
f 23/23/23 47/47/47 48/48/48
f 18/18/18 47/47/47 23/23/23
f 17/17/17 18/18/18 23/23/23
f 21/21/21 34/34/34 28/28/28
f 31/31/31 21/21/21 28/28/28
f 24/24/24 21/21/21 31/31/31
f 46/46/46 24/24/24 31/31/31
f 18/18/18 19/19/19 47/47/47
f 56/56/56 50/50/50 55/55/55
f 26/26/26 50/50/50 56/56/56
f 54/54/54 26/26/26 56/56/56
f 103/103/103 75/75/75 80/80/80
f 104/104/104 75/75/75 103/103/103
f 95/95/95 104/104/104 103/103/103
f 94/94/94 104/104/104 95/95/95
f 73/73/73 94/94/94 95/95/95
f 78/78/78 94/94/94 73/73/73
f 79/79/79 78/78/78 73/73/73
f 87/87/87 78/78/78 79/79/79
f 105/105/105 87/87/87 79/79/79
f 106/106/106 87/87/87 105/105/105
f 93/93/93 106/106/106 105/105/105
f 98/98/98 106/106/106 93/93/93
f 86/86/86 98/98/98 93/93/93
f 61/61/61 98/98/98 86/86/86
f 63/63/63 61/61/61 86/86/86
f 90/90/90 61/61/61 63/63/63
f 100/100/100 90/90/90 63/63/63
f 101/101/101 90/90/90 100/100/100
f 97/97/97 101/101/101 100/100/100
f 91/91/91 101/101/101 97/97/97
f 62/62/62 91/91/91 97/97/97
f 85/85/85 91/91/91 62/62/62
f 102/102/102 88/88/88 64/64/64
f 103/103/103 88/88/88 102/102/102
f 96/96/96 103/103/103 102/102/102
f 95/95/95 103/103/103 96/96/96
f 76/76/76 95/95/95 96/96/96
f 73/73/73 95/95/95 76/76/76
f 101/101/101 64/64/64 90/90/90
f 102/102/102 64/64/64 101/101/101
f 91/91/91 102/102/102 101/101/101
f 96/96/96 102/102/102 91/91/91
f 77/77/77 96/96/96 91/91/91
f 76/76/76 96/96/96 77/77/77
f 77/77/77 91/91/91 85/85/85
f 97/97/97 89/89/89 62/62/62
f 92/92/92 89/89/89 97/97/97
f 100/100/100 92/92/92 97/97/97
f 99/99/99 92/92/92 100/100/100
f 63/63/63 99/99/99 100/100/100
f 88/88/88 103/103/103 80/80/80
f 104/104/104 74/74/74 75/75/75
