g shadowGradient_geo
v -0.06347819 -0.06262107 0.05125364
v 0.06347813 -0.06262107 0.05125364
v -0.03835054 0.1437852 0.01085878
v 0.03835047 0.1437852 0.01085878
v -0.03760343 0.1457997 -0.02268464
v 0.03760336 0.1457997 -0.02268464
v -0.06347819 -0.06262106 -0.05134561
v 0.06347813 -0.06262106 -0.05134561
v -0.06778812 -0.0005127763 -0.0514477
v -0.06778812 -0.0005127763 0.05074205
v 0.06778805 -0.0005127763 0.05074205
v 0.06778805 -0.0005127763 -0.0514477
v -0.05545194 0.1375132 -0.004694154
v 0.05545187 0.1375132 -0.004694154
v -0.03456771 -0.08834825 -0.03618948
v 0.03456765 -0.08834825 -0.03618948
v 0.03456765 -0.08834825 0.03616241
v -0.03456771 -0.08834825 0.03616241
v -0.03440138 0.1604823 -0.003682837
v 0.03440131 0.1604823 -0.003682837
v 0.0544361 0.08388881 -0.03589445
v -0.05443616 0.08388881 -0.03589445
v -0.05443616 0.08388885 0.03140562
v 0.0544361 0.08388885 0.02929724
v -0.0775047 0.08224952 -0.01198379
v -0.09568975 -0.0005127763 -0.01768534
v -0.08960585 -0.06262106 -0.0191082
v -0.05169662 -0.08834825 -6.660461E-05
v 0.05169655 -0.08834825 -6.660461E-05
v 0.08960579 -0.06262106 -0.01991655
v 0.09568968 -0.0005127763 -0.01805866
v 0.07750463 0.08224952 -0.01198379
v 0.07620163 0.08229423 0.009801563
v 0.09409814 -0.0005127763 0.01667331
v 0.08811544 -0.06262107 0.01978609
v -0.08811552 -0.06262107 0.01897774
v -0.09409823 -0.0005127763 0.01629999
v -0.07620168 0.08229423 0.009801563
v -3.33786E-08 -0.09033592 -7.631302E-05
v 0.0001904345 -0.08834825 0.04216675
v -9.406566E-05 -0.06262107 0.05971773
v -0.0001879263 -0.0005127763 0.05861409
v -3.921032E-05 0.08388885 0.03623249
v 0.0001922655 0.1493873 0.01085878
v 0.0001922655 0.1660843 -0.003682837
v 0.0001922655 0.1493873 -0.02268464
v -3.921032E-05 0.08388881 -0.04158674
v -0.0001879263 -0.0005127763 -0.05971773
v -9.406566E-05 -0.06262106 -0.05960447
v 0.0001904345 -0.08834825 -0.04197798
v 0.05348136 -0.06262106 -0.05264433
v 0.05935336 -0.0005127763 -0.05247387
v 0.02918633 -0.08176066 -0.04212441
v -0.04892581 -0.07942379 -0.0001027489
v -3.469125E-07 -0.08043596 -7.915497E-05
v -0.08530821 -0.00280457 0.01299269
v -0.08693632 -0.002679639 -0.01476318
v -0.08261459 -0.05826636 -0.01673387
v -0.08108126 -0.05832608 0.01634392
v -0.05971621 -0.05931167 0.04432585
v -9.354437E-05 -0.06004598 0.05081337
v -0.0001853279 -0.004026684 0.04564493
v -0.06331259 -0.003572316 0.03958389
v 0.08110555 -0.05832987 0.0171331
v 0.08263876 -0.05826943 -0.01751469
v 0.08696333 -0.002693295 -0.01509552
v 0.08533607 -0.0028196 0.01333706
v -0.06334101 -0.003125577 -0.04339998
v -0.0001853029 -0.003382993 -0.04988756
v -9.350437E-05 -0.0597221 -0.05069151
v -0.05976363 -0.05909004 -0.04435804
v 0.0001894521 -0.08052952 -0.03780043
v -0.03251525 -0.08055198 -0.03211794
v 0.04893605 -0.07942005 -0.0001015663
v -0.03246986 -0.0805496 0.03214291
v 0.0001894186 -0.08053149 0.03799244
v 0.05978851 -0.05909561 -0.04433367
v 0.03252817 -0.08054956 -0.03210881
v 0.06337089 -0.00314034 -0.04336531
v 0.05974117 -0.05931802 0.04430065
v 0.06334333 -0.00358849 0.03954801
v 0.03248231 -0.0805473 0.03213354
vt 0.6574717 0.6720736
vt 0.6574717 0.6720736
vt 0.6574717 0.6720736
vt 0.6574717 0.6720736
vt 0.6574717 0.6720737
vt 0.6574717 0.6720737
vt 0.6574717 0.6720736
vt 0.6574717 0.6720736
vt 0.6574717 0.6720737
vt 0.6574717 0.6720737
vt 0.6574717 0.6720737
vt 0.6574717 0.6720737
vt 0.6574717 0.6720737
vt 0.6574717 0.6720737
vt 0.6574717 0.6720736
vt 0.6574717 0.6720736
vt 0.6574717 0.6720736
vt 0.6574717 0.6720736
vt 0.6574717 0.6720737
vt 0.6574717 0.6720737
vt 0.6574717 0.6720736
vt 0.6574717 0.6720736
vt 0.6574717 0.6720736
vt 0.6574717 0.6720736
vt 0.6574717 0.6720736
vt 0.6574717 0.6720737
vt 0.6574717 0.6720736
vt 0.6574717 0.6720736
vt 0.6574717 0.6720736
vt 0.6574717 0.6720736
vt 0.6574717 0.6720737
vt 0.6574717 0.6720736
vt 0.6574717 0.6720736
vt 0.6574717 0.6720737
vt 0.6574717 0.6720736
vt 0.6574717 0.6720736
vt 0.6574717 0.6720737
vt 0.6574717 0.6720736
vt 0.6574717 0.6720736
vt 0.6574717 0.6720736
vt 0.6574718 0.6720736
vt 0.6574718 0.6720737
vt 0.6574717 0.6720736
vt 0.6574717 0.6720737
vt 0.6574717 0.6720737
vt 0.6574717 0.6720737
vt 0.6574717 0.6720736
vt 0.6574717 0.6720737
vt 0.6574717 0.6720736
vt 0.6574717 0.6720736
vt 0.6574717 0.6720736
vt 0.6574717 0.6720737
vt 0.6574717 0.6720737
vt 0.6637927 0.07203335
vt 0.6637927 0.07203335
vt 0.6637927 0.07203335
vt 0.6637927 0.07203335
vt 0.663793 0.07203338
vt 0.6637927 0.07203338
vt 0.6637927 0.07203341
vt 0.6637927 0.07203341
vt 0.663793 0.07203335
vt 0.663793 0.07203335
vt 0.6637927 0.07203341
vt 0.663793 0.07203338
vt 0.6637927 0.07203335
vt 0.6637927 0.07203335
vt 0.6637927 0.07203335
vt 0.663793 0.07203335
vt 0.6637927 0.07203341
vt 0.663793 0.07203338
vt 0.6637927 0.07203335
vt 0.663793 0.07203335
vt 0.6637927 0.07203335
vt 0.663793 0.07203335
vt 0.6637927 0.07203335
vt 0.6637927 0.07203338
vt 0.6637927 0.07203335
vt 0.6637927 0.07203335
vt 0.6637927 0.07203341
vt 0.663793 0.07203335
vt 0.6637927 0.07203335
vn -0.4458907 -0.420857 0.7899752
vn 0.4430473 -0.4199015 0.7920806
vn -0.4010478 0.5334071 0.7447399
vn 0.4017977 0.5261168 0.7495063
vn -0.4291768 0.553214 -0.7139758
vn 0.4294868 0.5530915 -0.7138844
vn -0.4333777 -0.4261201 -0.7941066
vn 0.6935946 -0.4912861 -0.5268438
vn -0.4715526 0.09715522 -0.8764697
vn -0.479195 0.1199362 0.8694754
vn 0.4756999 0.1258781 0.870554
vn 0.7567555 0.08397603 -0.6482818
vn -0.8424185 0.5373839 0.03936446
vn 0.8422327 0.5372555 0.04472876
vn -0.2269127 -0.8797458 -0.4178014
vn 0.260714 -0.9494864 -0.1746532
vn 0.2310967 -0.879041 0.4169906
vn -0.2322311 -0.8790269 0.4163896
vn -0.4989419 0.86351 0.07353517
vn 0.4994675 0.8632089 0.07350187
vn 0.435519 0.2737712 -0.8575386
vn -0.436434 0.2735158 -0.8571549
vn -0.4244485 0.3313331 0.8426517
vn 0.4223666 0.3281774 0.8449297
vn -0.9003392 0.3063557 -0.3090882
vn -0.9440734 0.07575058 -0.320916
vn -0.8152934 -0.5212473 -0.2521867
vn -0.3351483 -0.9421583 0.003656789
vn 0.3337407 -0.9426585 0.003469218
vn 0.8139597 -0.5216412 -0.2556564
vn 0.9428488 0.07691918 -0.3242214
vn 0.8999202 0.3067633 -0.3099031
vn 0.8720162 0.3222238 0.3684557
vn 0.9293885 0.08369786 0.3594883
vn 0.8126275 -0.5114984 0.2792956
vn -0.8136936 -0.5110126 0.277072
vn -0.9321024 0.08035085 0.3531695
vn -0.8769466 0.3212625 0.3574284
vn 5.214047E-05 -1 -8.185553E-05
vn 0.0001166408 -0.8832728 0.4688593
vn -5.564843E-05 -0.3020757 0.953284
vn 0.003834122 0.132303 0.9912019
vn 0.00919808 0.3002324 0.9538218
vn 0.005625057 0.5135077 0.8580667
vn 0.0007387249 0.9967584 0.08044935
vn 0.0003358964 0.5404875 -0.841352
vn -0.0001828969 0.2288187 -0.973469
vn -0.0003947006 0.09993017 -0.9949944
vn 0.02361964 -0.3642568 -0.930999
vn 0.002165801 -0.880662 -0.4737402
vn 0.1204316 -0.3059203 -0.9444094
vn 0.1181389 0.09946617 -0.9880029
vn 0.1051159 -0.5781586 -0.8091251
vn -0.3133027 -0.9496483 0.003093102
vn 5.903973E-05 -1 7.109359E-05
vn -0.8386297 0.4374171 0.324602
vn -0.8543526 0.4349115 -0.284488
vn -0.8126545 -0.5285093 -0.2455008
vn -0.8108782 -0.5139081 0.2799552
vn -0.4387178 -0.3977111 0.8058241
vn 0.0001462288 -0.2562674 0.9666059
vn 9.52504E-05 0.7360928 0.6768807
vn -0.3074186 0.7492556 0.5866088
vn 0.8095922 -0.5145059 0.2825668
vn 0.811089 -0.529011 -0.2495636
vn 0.8517169 0.4367487 -0.2895322
vn 0.8361815 0.4395029 0.3280818
vn -0.3132892 0.7342057 -0.602322
vn 8.504737E-05 0.7154995 -0.6986132
vn 0.000130471 -0.2885717 -0.9574583
vn -0.4249499 -0.420452 -0.8016468
vn 0.0001856692 -0.8882659 -0.4593296
vn -0.2154497 -0.8905732 -0.4005758
vn 0.3117746 -0.9501518 0.002862519
vn -0.2207455 -0.891302 0.3960456
vn 0.0001886328 -0.8896396 0.4566633
vn 0.4218115 -0.419234 -0.803939
vn 0.2143501 -0.8905663 -0.4011802
vn 0.3102974 0.7340284 -0.6040843
vn 0.4354475 -0.3963787 0.8082508
vn 0.3044084 0.7490644 0.5884199
vn 0.219651 -0.8912996 0.396659
g shadowGradient_geo_0
f 38/38/38 10/10/10 23/23/23
f 37/37/37 10/10/10 38/38/38
f 26/26/26 37/37/37 38/38/38
f 27/27/27 37/37/37 26/26/26
f 7/7/7 27/27/27 26/26/26
f 28/28/28 27/27/27 7/7/7
f 15/15/15 28/28/28 7/7/7
f 50/50/50 28/28/28 15/15/15
f 7/7/7 50/50/50 15/15/15
f 49/49/49 50/50/50 7/7/7
f 9/9/9 49/49/49 7/7/7
f 48/48/48 49/49/49 9/9/9
f 22/22/22 48/48/48 9/9/9
f 47/47/47 48/48/48 22/22/22
f 5/5/5 47/47/47 22/22/22
f 46/46/46 47/47/47 5/5/5
f 19/19/19 46/46/46 5/5/5
f 45/45/45 46/46/46 19/19/19
f 3/3/3 45/45/45 19/19/19
f 44/44/44 45/45/45 3/3/3
f 23/23/23 44/44/44 3/3/3
f 43/43/43 44/44/44 23/23/23
f 10/10/10 43/43/43 23/23/23
f 42/42/42 43/43/43 10/10/10
f 1/1/1 42/42/42 10/10/10
f 41/41/41 42/42/42 1/1/1
f 18/18/18 41/41/41 1/1/1
f 40/40/40 41/41/41 18/18/18
f 28/28/28 40/40/40 18/18/18
f 39/39/39 40/40/40 28/28/28
f 50/50/50 39/39/39 28/28/28
f 29/29/29 39/39/39 50/50/50
f 16/16/16 29/29/29 50/50/50
f 8/8/8 29/29/29 16/16/16
f 20/20/20 46/46/46 45/45/45
f 6/6/6 46/46/46 20/20/20
f 14/14/14 6/6/6 20/20/20
f 21/21/21 6/6/6 14/14/14
f 32/32/32 21/21/21 14/14/14
f 12/12/12 21/21/21 32/32/32
f 31/31/31 12/12/12 32/32/32
f 8/8/8 12/12/12 31/31/31
f 30/30/30 8/8/8 31/31/31
f 29/29/29 8/8/8 30/30/30
f 35/35/35 29/29/29 30/30/30
f 2/2/2 29/29/29 35/35/35
f 34/34/34 2/2/2 35/35/35
f 11/11/11 2/2/2 34/34/34
f 33/33/33 11/11/11 34/34/34
f 24/24/24 11/11/11 33/33/33
f 14/14/14 24/24/24 33/33/33
f 4/4/4 24/24/24 14/14/14
f 20/20/20 4/4/4 14/14/14
f 45/45/45 4/4/4 20/20/20
f 49/49/49 51/51/51 53/53/53
f 52/52/52 51/51/51 49/49/49
f 48/48/48 52/52/52 49/49/49
f 21/21/21 52/52/52 48/48/48
f 47/47/47 21/21/21 48/48/48
f 6/6/6 21/21/21 47/47/47
f 46/46/46 6/6/6 47/47/47
f 50/50/50 49/49/49 53/53/53
f 31/31/31 34/34/34 35/35/35
f 33/33/33 34/34/34 31/31/31
f 32/32/32 33/33/33 31/31/31
f 14/14/14 33/33/33 32/32/32
f 26/26/26 9/9/9 7/7/7
f 25/25/25 9/9/9 26/26/26
f 38/38/38 25/25/25 26/26/26
f 13/13/13 25/25/25 38/38/38
f 23/23/23 13/13/13 38/38/38
f 3/3/3 13/13/13 23/23/23
f 36/36/36 27/27/27 28/28/28
f 37/37/37 27/27/27 36/36/36
f 1/1/1 37/37/37 36/36/36
f 10/10/10 37/37/37 1/1/1
f 31/31/31 35/35/35 30/30/30
f 22/22/22 9/9/9 25/25/25
f 13/13/13 22/22/22 25/25/25
f 5/5/5 22/22/22 13/13/13
f 19/19/19 5/5/5 13/13/13
f 13/13/13 3/3/3 19/19/19
f 29/29/29 40/40/40 39/39/39
f 17/17/17 40/40/40 29/29/29
f 2/2/2 17/17/17 29/29/29
f 40/40/40 17/17/17 2/2/2
f 41/41/41 40/40/40 2/2/2
f 28/28/28 1/1/1 36/36/36
f 18/18/18 1/1/1 28/28/28
f 44/44/44 4/4/4 45/45/45
f 24/24/24 4/4/4 44/44/44
f 43/43/43 24/24/24 44/44/44
f 11/11/11 24/24/24 43/43/43
f 42/42/42 11/11/11 43/43/43
f 2/2/2 11/11/11 42/42/42
f 41/41/41 2/2/2 42/42/42
f 71/71/71 54/54/54 58/58/58
f 73/73/73 54/54/54 71/71/71
f 72/72/72 73/73/73 71/71/71
f 54/54/54 73/73/73 72/72/72
f 55/55/55 54/54/54 72/72/72
f 76/76/76 54/54/54 55/55/55
f 74/74/74 76/76/76 55/55/55
f 82/82/82 76/76/76 74/74/74
f 80/80/80 82/82/82 74/74/74
f 76/76/76 82/82/82 80/80/80
f 61/61/61 76/76/76 80/80/80
f 75/75/75 76/76/76 61/61/61
f 60/60/60 75/75/75 61/61/61
f 54/54/54 75/75/75 60/60/60
f 59/59/59 54/54/54 60/60/60
f 58/58/58 54/54/54 59/59/59
f 56/56/56 58/58/58 59/59/59
f 57/57/57 58/58/58 56/56/56
f 68/68/68 57/57/57 56/56/56
f 71/71/71 57/57/57 68/68/68
f 70/70/70 71/71/71 68/68/68
f 72/72/72 71/71/71 70/70/70
f 77/77/77 72/72/72 70/70/70
f 78/78/78 72/72/72 77/77/77
f 74/74/74 78/78/78 77/77/77
f 72/72/72 78/78/78 74/74/74
f 55/55/55 72/72/72 74/74/74
f 64/64/64 67/67/67 80/80/80
f 74/74/74 64/64/64 80/80/80
f 65/65/65 64/64/64 74/74/74
f 77/77/77 65/65/65 74/74/74
f 66/66/66 65/65/65 77/77/77
f 79/79/79 66/66/66 77/77/77
f 67/67/67 66/66/66 79/79/79
f 81/81/81 67/67/67 79/79/79
f 80/80/80 67/67/67 81/81/81
f 62/62/62 80/80/80 81/81/81
f 61/61/61 80/80/80 62/62/62
f 60/60/60 61/61/61 62/62/62
f 70/70/70 79/79/79 77/77/77
f 69/69/69 79/79/79 70/70/70
f 68/68/68 69/69/69 70/70/70
f 62/62/62 69/69/69 68/68/68
f 63/63/63 62/62/62 68/68/68
f 60/60/60 62/62/62 63/63/63
f 56/56/56 60/60/60 63/63/63
f 59/59/59 60/60/60 56/56/56
f 66/66/66 64/64/64 65/65/65
f 67/67/67 64/64/64 66/66/66
f 57/57/57 71/71/71 58/58/58
f 75/75/75 54/54/54 76/76/76
f 68/68/68 56/56/56 63/63/63
f 81/81/81 69/69/69 62/62/62
f 79/79/79 69/69/69 81/81/81
