g sharp4_geo
v 5.772672E-09 0.6354914 0.3350133
v 0.003073707 0.636668 0.3319936
v 5.772672E-09 0.7481313 0.258577
v 0.003257303 0.7470786 0.2555002
v 7.925173E-09 0.7459944 0.2529035
v 5.772672E-09 0.6370222 0.3281357
v 5.772672E-09 0.6217699 0.3094894
v 0.003065885 0.6195164 0.3108245
v 5.772672E-09 0.6176921 0.3122762
v 3.576279E-09 0.602515 0.2715692
v 0.003250703 0.6011259 0.2737825
v -1.41561E-09 0.5995468 0.2766688
v 2.009695E-31 0.7107199 0.2812018
v -1.088716E-08 0.6096024 0.2869163
v -7.925173E-09 0.7459944 0.2529035
v 0.03049071 0.6196597 0.2683308
v 0.01858219 0.7028564 0.2551139
v 0.0159041 0.6111729 0.2869059
v -3.576278E-09 0.602515 0.2715692
v 0.0372186 0.6145132 0.269723
v 0.03219849 0.7045752 0.2517072
v 0.01852453 0.6046662 0.270745
v 0.05334599 0.6363157 0.2649631
v 0.02885199 0.6610525 0.2592087
v -2.384186E-09 0.672868 0.307518
v 0.01869783 0.6324303 0.3017493
v 0.01761154 0.6663752 0.2869246
v 0.01191249 0.7059224 0.2694487
v -2.19223E-09 0.6217699 0.3094894
v -1.379885E-09 0.6370222 0.3281357
v 5.772672E-09 0.7107199 0.2812018
v 0.00319789 0.7124293 0.2838598
v 5.772672E-09 0.7141178 0.2866297
v 5.772672E-09 0.672868 0.307518
v 0.003145437 0.6746336 0.3100341
v 5.772672E-09 0.6763695 0.3127702
v -0.003073695 0.636668 0.3319936
v -0.003257291 0.7470786 0.2555002
v -0.003065873 0.6195164 0.3108245
v -0.003250706 0.6011259 0.2737825
v -0.03049073 0.6196597 0.2683316
v -0.01858221 0.7028564 0.2551139
v -0.01590413 0.6111729 0.2869059
v -0.0372186 0.6145132 0.269723
v -0.03219849 0.7045752 0.2517072
v -0.01852453 0.6046662 0.270745
v -0.05334599 0.6363157 0.2649631
v -0.02885201 0.6610525 0.2592087
v -0.01869784 0.6324303 0.3017493
v -0.01761154 0.6663752 0.286925
v -0.01191249 0.7059224 0.2694487
v -0.003197878 0.7124293 0.2838598
v -0.003145427 0.6746336 0.3100341
v 0.003178464 0.6073997 0.2885588
v -3.764071E-09 0.6096024 0.2869163
v -0.003178471 0.6073997 0.2885588
v -3.764071E-09 0.605166 0.2895409
v 0.05135845 0.6638634 0.2558537
v -0.05135845 0.6638634 0.2558537
v 0.0159041 0.6111729 0.2869059
v -1.088716E-08 0.6096024 0.2869163
v -7.925173E-09 0.7459944 0.2529035
v 0.03219849 0.7045752 0.2517072
v 0.01858219 0.7028564 0.2551139
v 0.01852453 0.6046662 0.270745
v 0.0372186 0.6145132 0.269723
v 0.03049071 0.6196597 0.2683308
v 0.02885199 0.6610525 0.2592087
v 0.03049071 0.6196597 0.2683308
v 0.01858219 0.7028564 0.2551139
v -0.01590413 0.6111729 0.2869059
v -0.03049073 0.6196597 0.2683316
v -0.01852453 0.6046662 0.270745
v -0.0372186 0.6145132 0.269723
v -0.03049073 0.6196597 0.2683316
v -0.02885201 0.6610525 0.2592087
v -0.01858221 0.7028564 0.2551139
v 0.003257303 0.7470786 0.2555002
v 5.772672E-09 0.7481313 0.258577
v 7.925173E-09 0.7459944 0.2529035
v -0.003250706 0.6011259 0.2737825
v -1.41561E-09 0.5995468 0.2766688
v 0.003250703 0.6011259 0.2737825
v 3.576279E-09 0.602515 0.2715692
v -0.003250706 0.6011259 0.2737825
v -0.01858221 0.7028564 0.2551139
v -0.03219849 0.7045752 0.2517072
v 0.0159041 0.6111729 0.2869059
v -0.01590413 0.6111729 0.2869059
vt 0.9957445 0.1293636
vt 0.9957445 0.1293636
vt 0.9957445 0.1293636
vt 0.9957445 0.1293636
vt 0.9957445 0.1293636
vt 0.9957445 0.1293636
vt 0.9957445 0.1293636
vt 0.9957445 0.1293636
vt 0.9957445 0.1293636
vt 0.9957445 0.1293636
vt 0.9957445 0.1293636
vt 0.9957445 0.1293636
vt 0.9381768 0.2140552
vt 0.9382499 0.1513264
vt 0.9381496 0.2366015
vt 0.962699 0.1546739
vt 0.9601107 0.2128542
vt 0.9480472 0.1531402
vt 0.9382621 0.1427562
vt 0.9658031 0.1510547
vt 0.9684551 0.2137171
vt 0.9524149 0.1453927
vt 0.9768063 0.1658965
vt 0.9695287 0.1849578
vt 0.9382027 0.1923958
vt 0.95172 0.1680788
vt 0.9552016 0.1889984
vt 0.9497783 0.21293
vt 0.9382343 0.1653436
vt 0.9382205 0.1773838
vt 0.9957445 0.1293636
vt 0.9957445 0.1293636
vt 0.9957445 0.1293636
vt 0.9957445 0.1293636
vt 0.9957445 0.1293636
vt 0.9957445 0.1293636
vt 0.9957445 0.1293636
vt 0.9957445 0.1293636
vt 0.9957445 0.1293636
vt 0.9957445 0.1293636
vt 0.9137923 0.1546103
vt 0.9162458 0.2128011
vt 0.9284491 0.1531162
vt 0.9107038 0.1509911
vt 0.9078993 0.2136437
vt 0.9241014 0.145358
vt 0.899662 0.1658027
vt 0.9068944 0.184882
vt 0.9247426 0.1680468
vt 0.921212 0.1889576
vt 0.926578 0.212902
vt 0.9957445 0.1293636
vt 0.9957445 0.1293636
vt 0.9957445 0.1293636
vt 0.9957445 0.1293636
vt 0.9957445 0.1293636
vt 0.9957445 0.1293636
vt 0.9819796 0.1855388
vt 0.8944422 0.185433
vt 0.9480472 0.1531402
vt 0.9382499 0.1513264
vt 0.9381496 0.2366015
vt 0.9684551 0.2137171
vt 0.9601107 0.2128542
vt 0.9524149 0.1453927
vt 0.9658031 0.1510547
vt 0.962699 0.1546739
vt 0.9695287 0.1849578
vt 0.962699 0.1546739
vt 0.9601107 0.2128542
vt 0.9284491 0.1531162
vt 0.9137923 0.1546103
vt 0.9241014 0.145358
vt 0.9107038 0.1509911
vt 0.9137923 0.1546103
vt 0.9068944 0.184882
vt 0.9162458 0.2128011
vt 0.9957445 0.1293636
vt 0.9957445 0.1293636
vt 0.9957445 0.1293636
vt 0.9957445 0.1293636
vt 0.9957445 0.1293636
vt 0.9957445 0.1293636
vt 0.9957445 0.1293636
vt 0.9957445 0.1293636
vt 0.9162458 0.2128011
vt 0.9078993 0.2136437
vt 0.9480472 0.1531402
vt 0.9284491 0.1531162
vn -9.211309E-07 -0.1961289 0.9805781
vn 0.9998035 0.001843742 0.01973829
vn -1.477861E-07 0.9208424 0.3899349
vn 0.5651701 0.7678139 -0.3017361
vn 4.265683E-07 -0.007513418 -0.9999717
vn 0 0.2093575 -0.9778391
vn -2.170412E-07 0.8316852 -0.5552475
vn 0.9998183 -0.01675942 0.009088873
vn 0 -0.8332674 0.5528701
vn -1.119377E-07 0.914784 -0.4039434
vn 0.7735941 -0.5519735 -0.3112514
vn 7.684059E-07 -0.9980587 0.06228008
vn 1.180852E-06 0.5913097 0.8064446
vn -2.285202E-07 -0.8982437 0.4394976
vn 4.605322E-07 0.4692779 0.8830505
vn 0.6196591 -0.1050864 0.7778042
vn 0.6153839 0.2727786 0.7395231
vn 0.5013094 -0.7078432 0.4976412
vn 0 -0.9148663 0.4037568
vn -0.03292421 0.2080594 0.9775619
vn 0.1929489 0.150464 0.9696037
vn 0.3570208 -0.5515396 0.7538834
vn 0.04300196 0.2691768 0.9621302
vn 0.4920109 0.2566156 0.8319097
vn 1.540343E-06 0.5135704 0.8580474
vn 0.8042866 -0.2511441 0.5385625
vn 0.8565383 0.2673829 0.4414164
vn 0.8170965 0.3693011 0.4426852
vn 0 -0.7796799 0.6261783
vn 5.078507E-07 -0.3098112 0.9507981
vn 5.124696E-07 -0.601272 -0.7990445
vn 0.9999095 -0.007448295 -0.01120307
vn -4.207915E-07 0.6025034 0.7981163
vn 3.150565E-07 -0.5360944 -0.8441581
vn 0.9998791 0.003336919 0.01518403
vn -9.597475E-07 0.5275342 0.8495337
vn -0.9998035 0.001843246 0.01973767
vn -0.5651698 0.7678139 -0.3017368
vn -0.9998183 -0.01675983 0.009088824
vn -0.9999435 0.006579183 -0.008355251
vn -0.6196628 -0.105109 0.7777982
vn -0.6153834 0.2727787 0.7395234
vn -0.5013042 -0.7078455 0.4976433
vn 0.03288299 0.2080183 0.977572
vn -0.1929483 0.1504637 0.9696038
vn -0.3570254 -0.5515615 0.7538651
vn -0.04301678 0.2691788 0.9621291
vn -0.4920156 0.2566166 0.8319066
vn -0.804284 -0.2511447 0.5385662
vn -0.8565372 0.2673844 0.4414178
vn -0.8170955 0.369302 0.4426861
vn -0.9999095 -0.007448297 -0.01120444
vn -0.9998791 0.003336272 0.01518292
vn 0.9999486 -0.008650896 0.005294197
vn -2.678375E-07 0.8986217 -0.4387243
vn -0.9999486 -0.008651527 0.005295333
vn 6.590346E-07 -0.8979612 0.4400746
vn 0.1322992 0.2380969 0.9621885
vn -0.1322991 0.2380966 0.9621887
vn 0.5013094 -0.7078432 0.4976412
vn -2.285202E-07 -0.8982437 0.4394976
vn 4.605322E-07 0.4692779 0.8830505
vn 0.1929489 0.150464 0.9696037
vn 0.6153839 0.2727786 0.7395231
vn 0.3570208 -0.5515396 0.7538834
vn -0.03292421 0.2080594 0.9775619
vn 0.6196591 -0.1050864 0.7778042
vn 0.4920109 0.2566156 0.8319097
vn 0.6196591 -0.1050864 0.7778042
vn 0.6153839 0.2727786 0.7395231
vn -0.5013042 -0.7078455 0.4976433
vn -0.6196628 -0.105109 0.7777982
vn -0.3570254 -0.5515615 0.7538651
vn 0.03288299 0.2080183 0.977572
vn -0.6196628 -0.105109 0.7777982
vn -0.4920156 0.2566166 0.8319066
vn -0.6153834 0.2727787 0.7395234
vn 0.5651701 0.7678139 -0.3017361
vn -1.477861E-07 0.9208424 0.3899349
vn 4.265683E-07 -0.007513418 -0.9999717
vn 0 -0.8772771 -0.4799842
vn 7.684059E-07 -0.9980587 0.06228008
vn 0 -0.8470134 -0.5315716
vn 0 -0.8470134 -0.5315716
vn 0 -0.8470134 -0.5315716
vn -0.6153834 0.2727787 0.7395234
vn -0.1929483 0.1504637 0.9696038
vn 0.5013094 -0.7078432 0.4976412
vn -0.5013042 -0.7078455 0.4976433
g sharp4_geo_0
f 65/65/65 16/16/16 88/88/88
f 89/89/89 72/72/72 73/73/73
f 19/19/19 61/61/61 71/71/71
f 60/60/60 61/61/61 19/19/19
f 22/22/22 60/60/60 19/19/19
f 19/19/19 71/71/71 46/46/46
f 78/78/78 38/38/38 79/79/79
f 80/80/80 38/38/38 78/78/78
f 51/51/51 77/77/77 76/76/76
f 15/15/15 77/77/77 51/51/51
f 13/13/13 15/15/15 51/51/51
f 28/28/28 15/15/15 13/13/13
f 25/25/25 28/28/28 13/13/13
f 27/27/27 28/28/28 25/25/25
f 30/30/30 27/27/27 25/25/25
f 26/26/26 27/27/27 30/30/30
f 29/29/29 26/26/26 30/30/30
f 18/18/18 26/26/26 29/29/29
f 14/14/14 18/18/18 29/29/29
f 26/26/26 18/18/18 69/69/69
f 68/68/68 26/26/26 69/69/69
f 27/27/27 26/26/26 68/68/68
f 28/28/28 27/27/27 68/68/68
f 70/70/70 28/28/28 68/68/68
f 15/15/15 28/28/28 70/70/70
f 33/33/33 3/3/3 38/38/38
f 4/4/4 3/3/3 33/33/33
f 32/32/32 4/4/4 33/33/33
f 5/5/5 4/4/4 32/32/32
f 31/31/31 5/5/5 32/32/32
f 52/52/52 5/5/5 31/31/31
f 53/53/53 52/52/52 31/31/31
f 36/36/36 52/52/52 53/53/53
f 1/1/1 36/36/36 53/53/53
f 35/35/35 36/36/36 1/1/1
f 2/2/2 35/35/35 1/1/1
f 34/34/34 35/35/35 2/2/2
f 6/6/6 34/34/34 2/2/2
f 37/37/37 34/34/34 6/6/6
f 39/39/39 37/37/37 6/6/6
f 9/9/9 37/37/37 39/39/39
f 57/57/57 9/9/9 39/39/39
f 8/8/8 9/9/9 57/57/57
f 54/54/54 8/8/8 57/57/57
f 7/7/7 8/8/8 54/54/54
f 55/55/55 7/7/7 54/54/54
f 56/56/56 7/7/7 55/55/55
f 10/10/10 56/56/56 55/55/55
f 40/40/40 56/56/56 10/10/10
f 29/29/29 43/43/43 14/14/14
f 49/49/49 43/43/43 29/29/29
f 30/30/30 49/49/49 29/29/29
f 50/50/50 49/49/49 30/30/30
f 25/25/25 50/50/50 30/30/30
f 51/51/51 50/50/50 25/25/25
f 13/13/13 51/51/51 25/25/25
f 76/76/76 50/50/50 51/51/51
f 49/49/49 50/50/50 76/76/76
f 41/41/41 49/49/49 76/76/76
f 43/43/43 49/49/49 41/41/41
f 57/57/57 40/40/40 12/12/12
f 56/56/56 40/40/40 57/57/57
f 39/39/39 56/56/56 57/57/57
f 7/7/7 56/56/56 39/39/39
f 6/6/6 7/7/7 39/39/39
f 8/8/8 7/7/7 6/6/6
f 2/2/2 8/8/8 6/6/6
f 9/9/9 8/8/8 2/2/2
f 1/1/1 9/9/9 2/2/2
f 37/37/37 9/9/9 1/1/1
f 53/53/53 37/37/37 1/1/1
f 34/34/34 37/37/37 53/53/53
f 31/31/31 34/34/34 53/53/53
f 35/35/35 34/34/34 31/31/31
f 32/32/32 35/35/35 31/31/31
f 36/36/36 35/35/35 32/32/32
f 33/33/33 36/36/36 32/32/32
f 52/52/52 36/36/36 33/33/33
f 38/38/38 52/52/52 33/33/33
f 5/5/5 52/52/52 38/38/38
f 54/54/54 57/57/57 12/12/12
f 11/11/11 54/54/54 12/12/12
f 55/55/55 54/54/54 11/11/11
f 10/10/10 55/55/55 11/11/11
g sharp4_geo_1
f 63/63/63 62/62/62 64/64/64
f 20/20/20 16/16/16 65/65/65
f 42/42/42 62/62/62 45/45/45
f 73/73/73 72/72/72 44/44/44
f 81/81/81 11/11/11 82/82/82
f 84/84/84 83/83/83 85/85/85
f 24/24/24 66/66/66 23/23/23
f 58/58/58 24/24/24 23/23/23
f 17/17/17 24/24/24 58/58/58
f 21/21/21 17/17/17 58/58/58
f 66/66/66 24/24/24 67/67/67
f 48/48/48 74/74/74 75/75/75
f 47/47/47 74/74/74 48/48/48
f 59/59/59 47/47/47 48/48/48
f 59/59/59 86/86/86 87/87/87
f 48/48/48 86/86/86 59/59/59
