g sharp4_geo
v 0.004573938 1.346654 0.3132921
v 0.004573936 1.332445 0.3279487
v 0.008328878 1.324553 0.3167114
v 0.007749215 1.338634 0.3023243
v 0.007186484 1.350045 0.2856779
v 0.004573925 1.359279 0.2979886
v 0.00731701 1.359437 0.2673611
v 0.004573921 1.371843 0.2792953
v 0.01750164 1.322649 0.2762639
v 0.01662509 1.300528 0.2827106
v 0.01112107 1.343907 0.2708291
v 0.01219764 1.31319 0.3006407
v 0.004573922 1.320272 0.320452
v 0.01368048 1.328435 0.2873707
v 2.76169E-31 1.374784 0.2812216
v 2.667668E-31 1.362254 0.3004749
v 2.579198E-31 1.348902 0.3170299
v 2.489819E-31 1.334246 0.3325875
v 2.469483E-31 1.318424 0.3236395
v 0.006034117 1.294915 0.2868386
v 0.007850247 1.289409 0.2790093
v 2.49111E-31 1.293524 0.2914287
v 2.505779E-31 1.288151 0.2810969
v 0.004572836 1.294834 0.2897176
v 0.05233814 1.282856 0.2677821
v 0.0467722 1.295804 0.2673494
v 0.04501577 1.311364 0.2644671
v 0.04076103 1.353921 0.2542152
v 0.0152557 1.377217 0.2565486
v 2.8523E-31 1.386042 0.2618505
v 0.04481819 1.270772 0.270996
v 2.433148E-31 1.261863 0.2793615
v 0.003098199 1.380324 0.2635555
v 2.470441E-31 1.305349 0.3102404
v 0.004573913 1.306076 0.3055603
v 2.481659E-31 1.330796 0.3318962
v 0.006674268 1.40319 0.252295
v 2.919837E-31 1.403513 0.2564906
v 0.01173727 1.432682 0.2477802
v 3.02095E-31 1.433964 0.2527612
v 0.02205661 1.357006 0.2605847
v 0.0258284 1.339544 0.264292
v 0.02821167 1.319513 0.2692201
v 0.02637054 1.295043 0.2760158
v -0.004573938 1.346654 0.3132921
v -0.004573936 1.332445 0.3279487
v -0.00780938 1.326669 0.3167114
v -0.007749215 1.33902 0.3028961
v -0.007186484 1.350045 0.2856779
v -0.004573925 1.359279 0.2979886
v -0.00731701 1.359437 0.2673611
v -0.004573921 1.371843 0.2792953
v -0.01750164 1.322649 0.2762639
v -0.01662509 1.300528 0.2827106
v -0.01112107 1.343907 0.2708291
v -0.01219764 1.31319 0.3006407
v -0.004573922 1.320272 0.320452
v -0.01270731 1.32769 0.2862647
v -0.006034117 1.294915 0.2868386
v -0.007850247 1.289409 0.2790093
v -0.004572836 1.294834 0.2897176
v -0.05233814 1.282856 0.2677821
v -0.0467722 1.295804 0.2673494
v -0.04501577 1.311364 0.2644671
v -0.04076103 1.353921 0.2542152
v -0.0152557 1.377217 0.2565486
v -0.04481819 1.270772 0.270996
v -0.003098199 1.380324 0.2635555
v -0.004573913 1.306076 0.3055603
v -0.006674268 1.40319 0.252295
v -0.01173727 1.432682 0.2477802
v -0.02205661 1.357006 0.2605847
v -0.0258284 1.339544 0.264292
v -0.02821167 1.319513 0.2692201
v -0.02637054 1.295043 0.2760158
v 0.004573925 1.359279 0.2979886
v 0.004573938 1.346654 0.3132921
v 0.004573936 1.332445 0.3279487
v 0.004573922 1.320272 0.320452
v 0.004573913 1.306076 0.3055603
v 0.004573921 1.371843 0.2792953
v 0.004572836 1.294834 0.2897176
v 0.006034117 1.294915 0.2868386
v 0.004572836 1.294834 0.2897176
v 2.505779E-31 1.288151 0.2810969
v 0.003098199 1.380324 0.2635555
v 2.8523E-31 1.386042 0.2618505
v 0.003098199 1.380324 0.2635555
v 0.00731701 1.359437 0.2673611
v 0.01112107 1.343907 0.2708291
v 0.01750164 1.322649 0.2762639
v 0.01662509 1.300528 0.2827106
v -0.004573925 1.359279 0.2979886
v -0.004573938 1.346654 0.3132921
v -0.004573936 1.332445 0.3279487
v -0.004573922 1.320272 0.320452
v -0.004573913 1.306076 0.3055603
v -0.004573921 1.371843 0.2792953
v -0.004572836 1.294834 0.2897176
v -0.006034117 1.294915 0.2868386
v -0.004572836 1.294834 0.2897176
v -0.003098199 1.380324 0.2635555
v -0.003098199 1.380324 0.2635555
v -0.00731701 1.359437 0.2673611
v -0.01112107 1.343907 0.2708291
v -0.01750164 1.322649 0.2762639
v -0.01662509 1.300528 0.2827106
vt 0.9593983 0.1678629
vt 0.9499177 0.158672
vt 0.9571863 0.1535671
vt 0.9664925 0.1626754
vt 0.9772602 0.170056
vt 0.9692971 0.1760292
vt 0.9891083 0.176131
vt 0.9963802 0.1299128
vt 0.9833496 0.1523351
vt 0.9791793 0.1380268
vt 0.9868649 0.1660861
vt 0.9675816 0.146217
vt 0.9547669 0.1507977
vt 0.9761652 0.1560779
vt 0.9963802 0.1299128
vt 0.9963802 0.1299128
vt 0.9963802 0.1299128
vt 0.9963802 0.1299128
vt 0.9963802 0.1299128
vt 0.9765091 0.1343961
vt 0.920203 0.1521607
vt 0.9963802 0.1299128
vt 0.9151252 0.1513467
vt 0.9963802 0.1299128
vt 0.9489794 0.1479217
vt 0.9453793 0.1562971
vt 0.9442432 0.1663616
vt 0.9414909 0.1938892
vt 0.9249932 0.2089581
vt 0.9151252 0.2146665
vt 0.9441154 0.1401046
vt 0.9151252 0.1343434
vt 0.9171294 0.2109675
vt 0.9963802 0.1299128
vt 0.9643994 0.1416156
vt 0.9963802 0.1299128
vt 0.9194424 0.2257581
vt 0.9151252 0.2259669
vt 0.9227173 0.2448347
vt 0.9151252 0.2456636
vt 0.9293923 0.1958843
vt 0.9313686 0.1849912
vt 0.9325572 0.1718542
vt 0.9322329 0.155731
vt 0.9826174 0.2220457
vt 0.9920979 0.2128548
vt 0.9848295 0.2091183
vt 0.9758931 0.2171077
vt 0.9647555 0.2242388
vt 0.972719 0.2302119
vt 0.9529076 0.2303138
vt 0.9963802 0.1299128
vt 0.9586664 0.2065179
vt 0.9628367 0.1922096
vt 0.955151 0.2202688
vt 0.9744343 0.2003998
vt 0.9872489 0.2049805
vt 0.9651356 0.2097789
vt 0.9655069 0.1885789
vt 0.9100475 0.1521607
vt 0.9963802 0.1299128
vt 0.8812711 0.1479217
vt 0.8848714 0.1562971
vt 0.8860074 0.1663616
vt 0.8887597 0.1938892
vt 0.9052574 0.2089581
vt 0.8861352 0.1401046
vt 0.9131212 0.2109675
vt 0.9776165 0.1957983
vt 0.9108081 0.2257581
vt 0.9075332 0.2448347
vt 0.9008582 0.1958843
vt 0.8984186 0.1845897
vt 0.8968769 0.1716328
vt 0.8980678 0.1558046
vt 0.9963802 0.1299128
vt 0.9963802 0.1299128
vt 0.9963802 0.1299128
vt 0.9963802 0.1299128
vt 0.9963802 0.1299128
vt 0.9813886 0.1841558
vt 0.9746468 0.1343434
vt 0.9190283 0.1557221
vt 0.9180831 0.1556694
vt 0.9963802 0.1299128
vt 0.9963393 0.1299128
vt 0.9963393 0.1299128
vt 0.9915698 0.1896416
vt 0.9198582 0.1974569
vt 0.9241723 0.1871163
vt 0.9267865 0.1726476
vt 0.9264839 0.1585499
vt 0.9963802 0.1299128
vt 0.9963802 0.1299128
vt 0.9963802 0.1299128
vt 0.9963802 0.1299128
vt 0.9963802 0.1299128
vt 0.9606271 0.2383386
vt 0.9673691 0.1885262
vt 0.9112221 0.1557221
vt 0.9121674 0.1556694
vt 0.9963393 0.1299128
vt 0.950446 0.2438244
vt 0.9103923 0.1974569
vt 0.9079317 0.1874121
vt 0.9038045 0.1736611
vt 0.9043716 0.1593528
vn 0.8613792 0.3858487 0.3303734
vn 0.8496076 -0.01679796 0.5271478
vn 0.9385124 -0.1252974 0.3217063
vn 0.9706867 0.1905026 0.146548
vn 0.9705516 0.2081555 0.1212471
vn 0.8615697 0.4135773 0.2943663
vn 0.8626484 0.2654751 0.4305354
vn 0.8648331 0.4463028 0.2299514
vn 0.7933042 0.2499857 0.5551356
vn 0.735517 -0.2393114 0.6338335
vn 0.8222271 0.3132786 0.4751834
vn 0.8989644 -0.1990533 0.3901803
vn 0.7927193 -0.3852796 0.4723936
vn 0.9558848 0.2109672 0.2043947
vn 1.943292E-07 0.8689154 0.4949606
vn -1.945521E-07 0.80606 0.5918337
vn -1.210298E-07 0.7501418 0.6612769
vn 0 0.2958613 0.9552308
vn -4.273789E-07 -0.6357586 0.771888
vn 0.5627197 -0.6264351 0.5393752
vn 0.3148973 -0.3381816 0.8868331
vn 1.498375E-07 -0.8618704 0.5071285
vn -4.19328E-07 -0.65716 0.753751
vn 0.5191279 -0.7232116 0.45549
vn 0.2959387 0.1702746 0.9399078
vn 0.3887914 0.4171119 0.821498
vn 0.5359282 0.3482015 0.7691141
vn 0.6164799 0.2460451 0.74794
vn 0.5760216 0.3377592 0.7443909
vn 0 0.6115074 0.7912387
vn 0.2302388 0.1340426 0.9638583
vn 0 0.02677097 0.9996417
vn 0.7176468 0.5132781 0.4706684
vn 0 -0.7823175 0.6228797
vn 0.7125475 -0.5286288 0.4613322
vn -2.009986E-07 -0.3771364 0.9261578
vn 0.4075129 0.1486228 0.9010242
vn -2.773981E-07 0.1627496 0.9866675
vn 0.4503561 0.08421007 0.8888689
vn -5.674415E-07 0.09431627 0.9955423
vn 0.4113016 0.282293 0.8666842
vn 0.4251975 0.2743622 0.8625152
vn 0.4694728 0.2387023 0.8500686
vn 0.4232216 -0.09343448 0.9011956
vn -0.8613792 0.3858485 0.3303737
vn -0.8496076 -0.016798 0.5271479
vn -0.9385124 -0.1252971 0.3217065
vn -0.9706866 0.1905025 0.1465486
vn -0.9705516 0.2081555 0.1212473
vn -0.8615699 0.4135772 0.2943661
vn -0.8626485 0.265475 0.4305353
vn -0.8648329 0.4463027 0.2299518
vn -0.7933047 0.2499858 0.5551348
vn -0.7355173 -0.2393111 0.6338332
vn -0.8222272 0.3132785 0.475183
vn -0.8989646 -0.199053 0.3901802
vn -0.7927198 -0.385279 0.4723933
vn -0.9558846 0.2109674 0.204395
vn -0.5627207 -0.6264355 0.5393737
vn -0.3148982 -0.3381818 0.8868327
vn -0.5191286 -0.7232123 0.4554881
vn -0.2959387 0.1702746 0.9399078
vn -0.3887914 0.4171119 0.821498
vn -0.5359282 0.3482015 0.7691141
vn -0.6164799 0.2460451 0.74794
vn -0.5760216 0.3377592 0.7443909
vn -0.2302388 0.1340426 0.9638583
vn -0.7176475 0.5132793 0.470666
vn -0.7125482 -0.5286288 0.4613315
vn -0.4075134 0.1486229 0.9010239
vn -0.4503572 0.08421025 0.8888685
vn -0.4113022 0.2822931 0.866684
vn -0.4251978 0.2743621 0.8625151
vn -0.4694726 0.2387021 0.8500688
vn -0.4232219 -0.09343444 0.9011954
vn 0.8615697 0.4135773 0.2943663
vn 0.8613792 0.3858487 0.3303734
vn 0.8496076 -0.01679796 0.5271478
vn 0.7927193 -0.3852796 0.4723936
vn 0.7125475 -0.5286288 0.4613322
vn 0.8648331 0.4463028 0.2299514
vn 0.5191279 -0.7232116 0.45549
vn 0.5627197 -0.6264351 0.5393752
vn 0.5191279 -0.7232116 0.45549
vn -4.19328E-07 -0.65716 0.753751
vn 0.7176468 0.5132781 0.4706684
vn 0 0.6115074 0.7912387
vn 0.7176468 0.5132781 0.4706684
vn 0.8626484 0.2654751 0.4305354
vn 0.8222271 0.3132786 0.4751834
vn 0.7933042 0.2499857 0.5551356
vn 0.735517 -0.2393114 0.6338335
vn -0.8615699 0.4135772 0.2943661
vn -0.8613792 0.3858485 0.3303737
vn -0.8496076 -0.016798 0.5271479
vn -0.7927198 -0.385279 0.4723933
vn -0.7125482 -0.5286288 0.4613315
vn -0.8648329 0.4463027 0.2299518
vn -0.5191286 -0.7232123 0.4554881
vn -0.5627207 -0.6264355 0.5393737
vn -0.5191286 -0.7232123 0.4554881
vn -0.7176475 0.5132793 0.470666
vn -0.7176475 0.5132793 0.470666
vn -0.8626485 0.265475 0.4305353
vn -0.8222272 0.3132785 0.475183
vn -0.7933047 0.2499858 0.5551348
vn -0.7355173 -0.2393111 0.6338332
g sharp4_geo_0
f 89/89/89 42/42/42 41/41/41
f 29/29/29 89/89/89 41/41/41
f 33/33/33 89/89/89 29/29/29
f 30/30/30 33/33/33 29/29/29
f 5/5/5 6/6/6 1/1/1
f 4/4/4 5/5/5 1/1/1
f 14/14/14 5/5/5 4/4/4
f 12/12/12 14/14/14 4/4/4
f 10/10/10 14/14/14 12/12/12
f 35/35/35 10/10/10 12/12/12
f 20/20/20 10/10/10 35/35/35
f 82/82/82 20/20/20 35/35/35
f 90/90/90 42/42/42 89/89/89
f 43/43/43 42/42/42 90/90/90
f 91/91/91 43/43/43 90/90/90
f 44/44/44 43/43/43 91/91/91
f 92/92/92 44/44/44 91/91/91
f 21/21/21 44/44/44 92/92/92
f 83/83/83 21/21/21 92/92/92
f 23/23/23 21/21/21 83/83/83
f 84/84/84 23/23/23 83/83/83
f 14/14/14 10/10/10 9/9/9
f 11/11/11 14/14/14 9/9/9
f 5/5/5 14/14/14 11/11/11
f 7/7/7 5/5/5 11/11/11
f 81/81/81 5/5/5 7/7/7
f 88/88/88 81/81/81 7/7/7
f 104/104/104 72/72/72 73/73/73
f 66/66/66 72/72/72 104/104/104
f 68/68/68 66/66/66 104/104/104
f 30/30/30 66/66/66 68/68/68
f 49/49/49 45/45/45 50/50/50
f 48/48/48 45/45/45 49/49/49
f 58/58/58 48/48/48 49/49/49
f 56/56/56 48/48/48 58/58/58
f 54/54/54 56/56/56 58/58/58
f 69/69/69 56/56/56 54/54/54
f 59/59/59 69/69/69 54/54/54
f 99/99/99 69/69/69 59/59/59
f 100/100/100 23/23/23 101/101/101
f 60/60/60 23/23/23 100/100/100
f 107/107/107 60/60/60 100/100/100
f 75/75/75 60/60/60 107/107/107
f 106/106/106 75/75/75 107/107/107
f 74/74/74 75/75/75 106/106/106
f 105/105/105 74/74/74 106/106/106
f 73/73/73 74/74/74 105/105/105
f 104/104/104 73/73/73 105/105/105
f 58/58/58 53/53/53 54/54/54
f 55/55/55 53/53/53 58/58/58
f 49/49/49 55/55/55 58/58/58
f 51/51/51 55/55/55 49/49/49
f 98/98/98 51/51/51 49/49/49
f 103/103/103 51/51/51 98/98/98
f 3/3/3 2/2/2 13/13/13
f 1/1/1 2/2/2 3/3/3
f 4/4/4 1/1/1 3/3/3
f 3/3/3 12/12/12 4/4/4
f 35/35/35 12/12/12 3/3/3
f 13/13/13 35/35/35 3/3/3
f 15/15/15 86/86/86 87/87/87
f 8/8/8 86/86/86 15/15/15
f 16/16/16 8/8/8 15/15/15
f 76/76/76 8/8/8 16/16/16
f 17/17/17 76/76/76 16/16/16
f 77/77/77 76/76/76 17/17/17
f 78/78/78 77/77/77 17/17/17
f 22/22/22 85/85/85 24/24/24
f 80/80/80 22/22/22 24/24/24
f 34/34/34 22/22/22 80/80/80
f 79/79/79 34/34/34 80/80/80
f 19/19/19 34/34/34 79/79/79
f 78/78/78 19/19/19 79/79/79
f 36/36/36 19/19/19 78/78/78
f 18/18/18 36/36/36 78/78/78
f 95/95/95 36/36/36 18/18/18
f 17/17/17 95/95/95 18/18/18
f 94/94/94 95/95/95 17/17/17
f 93/93/93 94/94/94 17/17/17
f 5/5/5 81/81/81 6/6/6
f 47/47/47 46/46/46 45/45/45
f 57/57/57 46/46/46 47/47/47
f 69/69/69 57/57/57 47/47/47
f 16/16/16 93/93/93 17/17/17
f 52/52/52 93/93/93 16/16/16
f 15/15/15 52/52/52 16/16/16
f 102/102/102 52/52/52 15/15/15
f 87/87/87 102/102/102 15/15/15
f 22/22/22 61/61/61 85/85/85
f 97/97/97 61/61/61 22/22/22
f 34/34/34 97/97/97 22/22/22
f 96/96/96 97/97/97 34/34/34
f 19/19/19 96/96/96 34/34/34
f 95/95/95 96/96/96 19/19/19
f 36/36/36 95/95/95 19/19/19
f 50/50/50 98/98/98 49/49/49
f 78/78/78 17/17/17 18/18/18
f 47/47/47 56/56/56 69/69/69
f 48/48/48 56/56/56 47/47/47
f 45/45/45 48/48/48 47/47/47
g sharp4_geo_1
f 25/25/25 44/44/44 21/21/21
f 43/43/43 44/44/44 25/25/25
f 26/26/26 43/43/43 25/25/25
f 42/42/42 43/43/43 26/26/26
f 27/27/27 42/42/42 26/26/26
f 41/41/41 42/42/42 27/27/27
f 28/28/28 41/41/41 27/27/27
f 29/29/29 41/41/41 28/28/28
f 38/38/38 71/71/71 70/70/70
f 30/30/30 38/38/38 70/70/70
f 37/37/37 38/38/38 30/30/30
f 29/29/29 37/37/37 30/30/30
f 62/62/62 60/60/60 75/75/75
f 74/74/74 62/62/62 75/75/75
f 63/63/63 62/62/62 74/74/74
f 73/73/73 63/63/63 74/74/74
f 64/64/64 63/63/63 73/73/73
f 72/72/72 64/64/64 73/73/73
f 65/65/65 64/64/64 72/72/72
f 66/66/66 65/65/65 72/72/72
f 66/66/66 30/30/30 70/70/70
f 32/32/32 23/23/23 60/60/60
f 21/21/21 23/23/23 32/32/32
f 31/31/31 21/21/21 32/32/32
f 25/25/25 21/21/21 31/31/31
f 38/38/38 40/40/40 71/71/71
f 39/39/39 40/40/40 38/38/38
f 37/37/37 39/39/39 38/38/38
f 60/60/60 67/67/67 32/32/32
f 62/62/62 67/67/67 60/60/60
