g sharp8_geo
v -6.009042E-09 1.442702 0.1957309
v -5.86229E-09 1.35565 0.2078572
v 3.592947E-10 1.392766 0.2219817
v -1.986773E-09 1.421727 0.2009067
v 6.155475E-09 1.387326 0.2331255
v -1.553632E-10 1.37308 0.232357
v -1.478346E-09 1.362514 0.2212082
v 0.01641475 1.418075 0.1812252
v 0.01375602 1.450473 0.1852768
v 0.02101114 1.382159 0.1917523
v 0.02251483 1.362465 0.1923014
v 0.003999996 1.419873 0.1998502
v 0.003999999 1.391316 0.2208019
v 0.004000004 1.38572 0.2320854
v 0.009761653 1.373426 0.2195972
v 0.003999998 1.373632 0.2308668
v 0.003999995 1.440988 0.1941989
v 0.004000006 1.381819 0.2343771
v 6.910603E-09 1.382333 0.2361007
v 0.003999996 1.363588 0.2205709
v 0.002589313 1.356452 0.2065008
v -0.01641475 1.418075 0.1812252
v -0.01375602 1.450473 0.1852768
v -0.02101114 1.382159 0.1917523
v -0.02251484 1.362465 0.1923014
v -0.004000004 1.419873 0.1998502
v -0.004000001 1.391316 0.2208019
v -0.003999996 1.38572 0.2320855
v -0.009761653 1.373426 0.2195972
v -0.004000002 1.373632 0.2308668
v -0.004000005 1.440988 0.1941989
v -0.003999994 1.381819 0.2343771
v -0.004000003 1.363588 0.2205709
v -0.00258932 1.356452 0.2065008
v 0.04601901 1.363877 0.1805769
v 0.04018405 1.39405 0.180922
v 0.00899289 1.352196 0.1857211
v 0.0078447 1.468398 0.1864988
v 1.760949E-31 1.35024 0.1879142
v -0.04018405 1.39405 0.180922
v -0.04601901 1.363877 0.1805769
v -0.008992892 1.352196 0.1857211
v -0.0078447 1.468398 0.1864987
v 3.012843E-12 1.478263 0.1885531
v 9.123925E-06 1.446254 0.1937481
v 0.01887562 1.394719 0.1895898
v 0.003999997 1.402194 0.2091554
v -8.137395E-10 1.403846 0.2102736
v -0.004000003 1.402194 0.2091554
v -0.01887588 1.394679 0.1895919
v 0.003999996 1.419873 0.1998502
v 0.003999995 1.440988 0.1941989
v 0.004000004 1.38572 0.2320854
v 0.003999999 1.391316 0.2208019
v 0.003999997 1.402194 0.2091554
v 0.003999998 1.373632 0.2308668
v 0.004000006 1.381819 0.2343771
v 0.003999996 1.363588 0.2205709
v 0.002589313 1.356452 0.2065008
v 1.760949E-31 1.35024 0.1879142
v -0.004000004 1.419873 0.1998502
v -0.004000005 1.440988 0.1941989
v -0.004000001 1.391316 0.2208019
v -0.004000003 1.402194 0.2091554
v -0.004000002 1.373632 0.2308668
v -0.003999994 1.381819 0.2343771
v -0.004000003 1.363588 0.2205709
v -0.00258932 1.356452 0.2065008
v 1.760949E-31 1.35024 0.1879142
v 0.003999995 1.440988 0.1941989
v -6.009042E-09 1.442702 0.1957309
v 9.123925E-06 1.446254 0.1937481
v -0.004000005 1.440988 0.1941989
v -0.003999996 1.38572 0.2320855
v -1.986773E-09 1.421727 0.2009067
v 0.003999996 1.419873 0.1998502
v -0.004000004 1.419873 0.1998502
vt 0.9958969 0.1280515
vt 0.9950501 0.1317067
vt 0.9950501 0.1317067
vt 0.9958969 0.1280515
vt 0.9950501 0.1317067
vt 0.9950501 0.1317067
vt 0.9950501 0.1317067
vt 0.9627283 0.1851769
vt 0.9513927 0.2114909
vt 0.9679694 0.1660843
vt 0.970938 0.1507729
vt 0.9409779 0.186533
vt 0.9950501 0.1317067
vt 0.9950501 0.1317067
vt 0.9530076 0.1446025
vt 0.9950501 0.1317067
vt 0.940718 0.2132124
vt 0.9950501 0.1317067
vt 0.9950501 0.1317067
vt 0.9950501 0.1317067
vt 0.9950501 0.1317067
vt 0.9149057 0.1849503
vt 0.9261245 0.2112755
vt 0.9099382 0.1660634
vt 0.9068736 0.1506429
vt 0.9362605 0.1863434
vt 0.9950501 0.1317067
vt 0.9950501 0.1317067
vt 0.9252229 0.1445558
vt 0.9950501 0.1317067
vt 0.9368364 0.2130713
vt 0.9950501 0.1317067
vt 0.9950501 0.1317067
vt 0.9950501 0.1317067
vt 0.99315 0.1532232
vt 0.9858675 0.1747925
vt 0.9707015 0.1470256
vt 0.9613136 0.2465765
vt 0.9950501 0.1317067
vt 0.8918148 0.1744073
vt 0.8847716 0.1527671
vt 0.9071522 0.1468665
vt 0.9155404 0.2461134
vt 0.9384883 0.2456087
vt 0.9387242 0.2177563
vt 0.9653488 0.1756306
vt 0.9950501 0.1317067
vt 0.9950501 0.1317067
vt 0.9950501 0.1317067
vt 0.9124219 0.1755069
vt 0.9958969 0.1280517
vt 0.9958968 0.1280515
vt 0.9395092 0.1453281
vt 0.9403434 0.160917
vt 0.9406606 0.173725
vt 0.9430079 0.1376689
vt 0.9403715 0.1418365
vt 0.9545236 0.1344144
vt 0.9646786 0.1350178
vt 0.9665847 0.1321484
vt 0.9958969 0.1280517
vt 0.9958968 0.1280515
vt 0.9370029 0.1611467
vt 0.9366317 0.1737451
vt 0.9352499 0.13762
vt 0.9381746 0.1418365
vt 0.9234902 0.1343957
vt 0.9134622 0.1350849
vt 0.9115624 0.1319097
vt 0.995743 0.1292161
vt 0.995743 0.1292161
vt 0.995743 0.1292161
vt 0.995743 0.1292161
vt 0.9385149 0.1453281
vt 0.9950501 0.1317067
vt 0.9950501 0.1317067
vt 0.9950501 0.1317067
vn -8.2769E-05 0.3685384 0.9296126
vn 1.133509E-07 -0.9357665 0.3526203
vn -7.581826E-07 0.822206 0.5691901
vn -1.316734E-06 0.3590236 0.9333285
vn 2.428588E-06 0.7326566 0.6805985
vn 0 -0.5655328 0.8247258
vn -6.814245E-07 -0.8188773 0.5739686
vn 0.6759427 0.2192377 0.7035882
vn 0.6856544 0.09967873 0.7210702
vn 0.7700224 0.2537048 0.5854053
vn 0.6016126 -0.4155411 0.6821935
vn 0.6194848 0.2556244 0.7422228
vn 0.6442675 0.6170705 0.4518224
vn 0.6903324 0.5200114 0.5030202
vn 0.8383752 -0.329237 0.4344308
vn 0.6257862 -0.4458767 0.6399887
vn 0.5287589 0.2114552 0.8220102
vn 0.7169366 -0.007532785 0.6970977
vn 3.845396E-06 0.06499438 0.9978856
vn 0.5920083 -0.6572965 0.4663557
vn 0.4669057 -0.8268898 0.3134522
vn -0.6758906 0.2191614 0.7036619
vn -0.6856567 0.09967972 0.7210678
vn -0.7699972 0.2537749 0.585408
vn -0.6016126 -0.4155425 0.6821925
vn -0.6195275 0.2555608 0.7422091
vn -0.6442659 0.6171433 0.4517253
vn -0.6903318 0.5200104 0.503022
vn -0.8383752 -0.3292371 0.4344307
vn -0.625787 -0.4458785 0.6399868
vn -0.5287694 0.2118364 0.8219053
vn -0.7169312 -0.007534045 0.6971033
vn -0.5920099 -0.6572983 0.466351
vn -0.4669055 -0.8268909 0.3134495
vn 0.4328298 -0.3956461 0.8100138
vn 0.4112605 0.1886236 0.8917882
vn 0.4492737 -0.7906868 0.4158936
vn 0.474983 0.1602018 0.8652899
vn -3.645775E-07 -0.9622471 0.2721771
vn -0.4110603 0.1886238 0.8918803
vn -0.4328308 -0.3956485 0.8100122
vn -0.4492736 -0.790688 0.4158914
vn -0.4747332 0.160196 0.865428
vn 0.0002883004 0.1888974 0.9819967
vn 6.929242E-05 0.3376718 0.9412639
vn 0.7027025 0.3162806 0.6373193
vn 0.6493981 0.4397687 0.6203915
vn -9.404228E-07 0.6041927 0.7968382
vn -0.6494642 0.4397994 0.6203005
vn -0.7026958 0.3163342 0.6373001
vn 0.6194848 0.2556244 0.7422228
vn 0.5287589 0.2114552 0.8220102
vn 0.6903324 0.5200114 0.5030202
vn 0.6442675 0.6170705 0.4518224
vn 0.6493981 0.4397687 0.6203915
vn 0.6257862 -0.4458767 0.6399887
vn 0.7169366 -0.007532785 0.6970977
vn 0.5920083 -0.6572965 0.4663557
vn 0.4669057 -0.8268898 0.3134522
vn -3.645775E-07 -0.9622471 0.2721771
vn -0.6195275 0.2555608 0.7422091
vn -0.5287694 0.2118364 0.8219053
vn -0.6442659 0.6171433 0.4517253
vn -0.6494642 0.4397994 0.6203005
vn -0.625787 -0.4458785 0.6399868
vn -0.7169312 -0.007534045 0.6971033
vn -0.5920099 -0.6572983 0.466351
vn -0.4669055 -0.8268909 0.3134495
vn -3.645775E-07 -0.9622471 0.2721771
vn 0.5287589 0.2114552 0.8220102
vn -8.2769E-05 0.3685384 0.9296126
vn 6.929242E-05 0.3376718 0.9412639
vn -0.5287694 0.2118364 0.8219053
vn -0.6903318 0.5200104 0.503022
vn -1.316734E-06 0.3590236 0.9333285
vn 0.6194848 0.2556244 0.7422228
vn -0.6195275 0.2555608 0.7422091
g sharp8_geo_0
f 1/1/1 51/51/51 52/52/52
f 4/4/4 51/51/51 1/1/1
f 61/61/61 4/4/4 1/1/1
f 15/15/15 56/56/56 58/58/58
f 59/59/59 15/15/15 58/58/58
f 37/37/37 15/15/15 59/59/59
f 60/60/60 37/37/37 59/59/59
f 62/62/62 61/61/61 1/1/1
f 29/29/29 24/24/24 25/25/25
f 42/42/42 29/29/29 25/25/25
f 68/68/68 29/29/29 42/42/42
f 69/69/69 68/68/68 42/42/42
f 71/71/71 72/72/72 73/73/73
f 70/70/70 72/72/72 71/71/71
f 5/5/5 27/27/27 28/28/28
f 3/3/3 27/27/27 5/5/5
f 13/13/13 3/3/3 5/5/5
f 48/48/48 3/3/3 13/13/13
f 47/47/47 48/48/48 13/13/13
f 75/75/75 48/48/48 47/47/47
f 76/76/76 75/75/75 47/47/47
f 48/48/48 27/27/27 3/3/3
f 49/49/49 27/27/27 48/48/48
f 75/75/75 49/49/49 48/48/48
f 77/77/77 49/49/49 75/75/75
f 19/19/19 32/32/32 30/30/30
f 6/6/6 19/19/19 30/30/30
f 16/16/16 19/19/19 6/6/6
f 7/7/7 16/16/16 6/6/6
f 20/20/20 16/16/16 7/7/7
f 2/2/2 20/20/20 7/7/7
f 21/21/21 20/20/20 2/2/2
f 39/39/39 21/21/21 2/2/2
f 19/19/19 16/16/16 18/18/18
f 14/14/14 19/19/19 18/18/18
f 5/5/5 19/19/19 14/14/14
f 13/13/13 5/5/5 14/14/14
f 10/10/10 53/53/53 57/57/57
f 54/54/54 53/53/53 10/10/10
f 46/46/46 54/54/54 10/10/10
f 55/55/55 54/54/54 46/46/46
f 8/8/8 55/55/55 46/46/46
f 12/12/12 55/55/55 8/8/8
f 9/9/9 12/12/12 8/8/8
f 17/17/17 12/12/12 9/9/9
f 38/38/38 17/17/17 9/9/9
f 44/44/44 17/17/17 38/38/38
f 15/15/15 10/10/10 57/57/57
f 11/11/11 10/10/10 15/15/15
f 37/37/37 11/11/11 15/15/15
f 57/57/57 56/56/56 15/15/15
f 2/2/2 34/34/34 39/39/39
f 33/33/33 34/34/34 2/2/2
f 7/7/7 33/33/33 2/2/2
f 30/30/30 33/33/33 7/7/7
f 6/6/6 30/30/30 7/7/7
f 19/19/19 28/28/28 32/32/32
f 5/5/5 28/28/28 19/19/19
f 31/31/31 44/44/44 43/43/43
f 23/23/23 31/31/31 43/43/43
f 26/26/26 31/31/31 23/23/23
f 22/22/22 26/26/26 23/23/23
f 64/64/64 26/26/26 22/22/22
f 50/50/50 64/64/64 22/22/22
f 63/63/63 64/64/64 50/50/50
f 24/24/24 63/63/63 50/50/50
f 74/74/74 63/63/63 24/24/24
f 66/66/66 74/74/74 24/24/24
f 45/45/45 44/44/44 31/31/31
f 17/17/17 44/44/44 45/45/45
f 29/29/29 66/66/66 24/24/24
f 65/65/65 66/66/66 29/29/29
f 67/67/67 65/65/65 29/29/29
f 29/29/29 68/68/68 67/67/67
g sharp8_geo_1
f 35/35/35 11/11/11 37/37/37
f 10/10/10 11/11/11 35/35/35
f 36/36/36 10/10/10 35/35/35
f 46/46/46 10/10/10 36/36/36
f 8/8/8 46/46/46 36/36/36
f 40/40/40 50/50/50 22/22/22
f 24/24/24 50/50/50 40/40/40
f 41/41/41 24/24/24 40/40/40
f 25/25/25 24/24/24 41/41/41
f 42/42/42 25/25/25 41/41/41
