g sharp8_geo
v 5.772672E-09 0.6603506 0.3116155
v 0.003073707 0.6585615 0.3086677
v 5.772672E-09 0.7481313 0.258577
v 0.003257303 0.7470786 0.2555002
v 7.925173E-09 0.7459944 0.2529035
v 5.772672E-09 0.6564238 0.3051298
v 5.772672E-09 0.6354912 0.3003657
v 0.003070125 0.6341544 0.3029476
v 5.772672E-09 0.6329023 0.3050175
v 5.772672E-09 0.6274444 0.2859362
v 0.003061644 0.6248825 0.2873262
v 5.772672E-09 0.6226699 0.2884545
v 3.576279E-09 0.602515 0.2715692
v 0.003250703 0.6025096 0.274601
v -1.41561E-09 0.6024995 0.277891
v -2.793968E-10 0.6354912 0.3003658
v 2.054679E-31 0.7060162 0.2650932
v -1.088716E-08 0.6231758 0.2682217
v -7.925173E-09 0.7459944 0.2529035
v 0.02636417 0.6352652 0.2659488
v 0.01813079 0.70451 0.2541755
v 0.008880805 0.6231823 0.2682237
v -3.576278E-09 0.602515 0.2715692
v 0.0372186 0.6145132 0.269723
v 0.03219849 0.7045752 0.2517072
v 0.01852453 0.6046662 0.270745
v 0.05334599 0.6363157 0.2649631
v 0.02622075 0.6643407 0.2592267
v -2.384186E-09 0.6741365 0.2860467
v 0.01869783 0.6385425 0.2799514
v 0.01761154 0.6673562 0.2696248
v 0.01191249 0.7048591 0.2601605
v 0.006358892 0.6274444 0.2859362
v -1.033768E-09 0.6274444 0.2859362
v -1.379885E-09 0.6564238 0.3051298
v 5.772672E-09 0.7060162 0.2650932
v 0.00319789 0.707414 0.2679275
v 5.772672E-09 0.7087784 0.2708705
v 5.772672E-09 0.6741365 0.2860467
v 0.003145437 0.6761788 0.2883438
v 5.772672E-09 0.6782168 0.290863
v -0.003073695 0.6585615 0.3086677
v -0.003257291 0.7470786 0.2555002
v -0.003070113 0.6341544 0.3029476
v -0.003061633 0.6248825 0.2873262
v -0.003250706 0.6025096 0.274601
v -0.0263642 0.6352652 0.2659488
v -0.01813081 0.70451 0.2541755
v -0.008880827 0.6231823 0.2682237
v -0.0372186 0.6145132 0.269723
v -0.03219849 0.7045752 0.2517072
v -0.01852453 0.6046662 0.270745
v -0.05334599 0.6363157 0.2649631
v -0.02622077 0.6643407 0.2592267
v -0.01869784 0.6385425 0.2799514
v -0.01761154 0.6673562 0.2696252
v -0.01191249 0.7048591 0.2601605
v -0.006358896 0.6274444 0.2859362
v -0.003197878 0.707414 0.2679275
v -0.003145427 0.6761788 0.2883438
v 0.003178464 0.6209968 0.2719509
v -3.764071E-09 0.6231758 0.2682217
v -0.003178471 0.6209968 0.2719509
v -3.764071E-09 0.6195418 0.2753839
v 0.05135845 0.6638634 0.2558537
v -0.05135845 0.6638634 0.2558537
v -1.963816E-09 0.663473 0.296546
v 5.772672E-09 0.663473 0.2965459
v -0.002876525 0.665859 0.2989246
v 5.772672E-09 0.6680706 0.3013619
v 0.002876535 0.665859 0.2989246
v -7.662291E-10 0.6458395 0.3068785
v 0.003071701 0.6458474 0.3104598
v 5.772672E-09 0.6458395 0.3068785
v -0.00307169 0.6458474 0.3104598
v 5.772672E-09 0.6457201 0.3136451
v 0.008880805 0.6231823 0.2682237
v -1.088716E-08 0.6231758 0.2682217
v -7.925173E-09 0.7459944 0.2529035
v 0.03219849 0.7045752 0.2517072
v 0.01813079 0.70451 0.2541755
v 0.02636417 0.6352652 0.2659488
v 0.01852453 0.6046662 0.270745
v 0.008880805 0.6231823 0.2682237
v 0.0372186 0.6145132 0.269723
v 0.02636417 0.6352652 0.2659488
v 0.02622075 0.6643407 0.2592267
v 0.01813079 0.70451 0.2541755
v -0.008880827 0.6231823 0.2682237
v -0.0263642 0.6352652 0.2659488
v -0.01852453 0.6046662 0.270745
v -0.008880827 0.6231823 0.2682237
v -0.0372186 0.6145132 0.269723
v -0.0263642 0.6352652 0.2659488
v -0.02622077 0.6643407 0.2592267
v -0.01813081 0.70451 0.2541755
v 0.003257303 0.7470786 0.2555002
v 5.772672E-09 0.7481313 0.258577
v 7.925173E-09 0.7459944 0.2529035
v -0.003250706 0.6025096 0.274601
v -1.41561E-09 0.6024995 0.277891
v 0.003250703 0.6025096 0.274601
v 3.576279E-09 0.602515 0.2715692
v -0.01813081 0.70451 0.2541755
v -0.03219849 0.7045752 0.2517072
vt 0.9957445 0.1293636
vt 0.9957445 0.1293636
vt 0.9957445 0.1293636
vt 0.9957445 0.1293636
vt 0.9957445 0.1293636
vt 0.9957445 0.1293636
vt 0.9957445 0.1293636
vt 0.9957445 0.1293636
vt 0.9957445 0.1293636
vt 0.9957445 0.1293636
vt 0.9957445 0.1293636
vt 0.9957445 0.1293636
vt 0.9957445 0.1293636
vt 0.9957445 0.1293636
vt 0.9957445 0.1293636
vt 0.9382597 0.1702585
vt 0.9382372 0.2151274
vt 0.9382704 0.148702
vt 0.9382226 0.2420133
vt 0.9614382 0.160081
vt 0.9545162 0.2135219
vt 0.9455134 0.1503868
vt 0.9382867 0.1372441
vt 0.9658722 0.1459298
vt 0.9644831 0.2131217
vt 0.9524077 0.1382806
vt 0.9792646 0.1621508
vt 0.9649204 0.1838544
vt 0.938247 0.1954964
vt 0.9540963 0.1655083
vt 0.9563478 0.1870597
vt 0.9482767 0.2138932
vt 0.9428124 0.160766
vt 0.9382589 0.1604729
vt 0.9382538 0.1829635
vt 0.9957445 0.1293636
vt 0.9957445 0.1293636
vt 0.9957445 0.1293636
vt 0.9957445 0.1293636
vt 0.9957445 0.1293636
vt 0.9957445 0.1293636
vt 0.9957445 0.1293636
vt 0.9957445 0.1293636
vt 0.9957445 0.1293636
vt 0.9957445 0.1293636
vt 0.9957445 0.1293636
vt 0.915093 0.1600536
vt 0.9219601 0.2135032
vt 0.931026 0.150377
vt 0.9106802 0.1458935
vt 0.9119936 0.2130915
vt 0.9241589 0.1382604
vt 0.8972668 0.1621008
vt 0.911587 0.1838238
vt 0.9224285 0.1654907
vt 0.9201561 0.1870391
vt 0.9281992 0.2138817
vt 0.9337229 0.1607602
vt 0.9957445 0.1293636
vt 0.9957445 0.1293636
vt 0.9957445 0.1293636
vt 0.9957445 0.1293636
vt 0.9957445 0.1293636
vt 0.9957445 0.1293636
vt 0.9815348 0.1839263
vt 0.8949736 0.1838753
vt 0.9382508 0.1889254
vt 0.9957445 0.1293636
vt 0.9957445 0.1293636
vt 0.9957445 0.1293636
vt 0.9957445 0.1293636
vt 0.9382569 0.1768609
vt 0.9957446 0.1293636
vt 0.9957445 0.1293636
vt 0.9957445 0.1293636
vt 0.9957445 0.1293636
vt 0.9455134 0.1503868
vt 0.9382704 0.148702
vt 0.9382226 0.2420133
vt 0.9644831 0.2131217
vt 0.9545162 0.2135219
vt 0.9614382 0.160081
vt 0.9524077 0.1382806
vt 0.9455134 0.1503868
vt 0.9658722 0.1459298
vt 0.9614382 0.160081
vt 0.9649204 0.1838544
vt 0.9545162 0.2135219
vt 0.931026 0.150377
vt 0.915093 0.1600536
vt 0.9241589 0.1382604
vt 0.931026 0.150377
vt 0.9106802 0.1458935
vt 0.915093 0.1600536
vt 0.911587 0.1838238
vt 0.9219601 0.2135032
vt 0.9957445 0.1293636
vt 0.9957445 0.1293636
vt 0.9957445 0.1293636
vt 0.9957445 0.1293636
vt 0.9957445 0.1293636
vt 0.9957445 0.1293636
vt 0.9957445 0.1293636
vt 0.9219601 0.2135032
vt 0.9119936 0.2130915
vn 7.977172E-07 0.5067853 0.8620723
vn 0.9996217 0.01704828 0.02158221
vn -2.441788E-07 0.8000576 0.5999232
vn 0.5684946 0.7647022 -0.3033884
vn 1.154944E-06 0.2619442 -0.9650831
vn 1.002762E-07 -0.4986111 -0.8668257
vn 0 0.7260733 -0.6876173
vn 0.9993162 -0.02530279 0.02696026
vn 1.756882E-07 -0.7235218 0.6903015
vn 0 0.9276307 -0.3734988
vn 0.9989991 -0.03822869 0.02322831
vn 0 -0.9232022 0.3843146
vn 0 -0.1496503 -0.988739
vn 0.8148688 -0.5796313 -0.004042954
vn -1.485174E-07 -0.4947079 0.8690594
vn -1.256877E-06 -0.7211267 0.6928031
vn 1.361261E-06 0.36806 0.9298021
vn 1.493377E-07 -0.5570344 0.8304894
vn -2.949802E-07 0.2611462 0.9652992
vn 0.4644362 -0.04520178 0.8844523
vn 0.4580576 0.2188224 0.8615683
vn 0.21688 -0.4524066 0.8650383
vn 1.713901E-07 0.1523967 0.9883194
vn 0.01145647 0.1840146 0.9828568
vn 0.1593256 0.1328101 0.9782519
vn 0.006555162 0.1541897 0.9880195
vn 0.07994574 0.2666163 0.9604813
vn 0.4119062 0.2420526 0.8784896
vn 2.506592E-06 0.471096 0.8820819
vn 0.8341185 -0.0840198 0.5451486
vn 0.7477606 0.274932 0.6043727
vn 0.611235 0.3016153 0.7317239
vn 0.3605936 -0.8169996 0.4499823
vn 0 -0.9314157 0.3639573
vn 1.489442E-06 0.4917608 0.8707303
vn 6.005949E-07 -0.4247368 -0.9053168
vn 0.9998767 -0.006061394 -0.0144858
vn 1.922473E-07 0.4259429 0.90475
vn -2.784249E-07 -0.6338745 -0.773436
vn 0.9999787 -0.005432943 -0.00363097
vn 7.377076E-07 0.630794 0.7759503
vn -0.9996217 0.01704864 0.02158259
vn -0.5684938 0.7647023 -0.3033895
vn -0.9993162 -0.02530298 0.02696036
vn -0.9989991 -0.03822867 0.02322866
vn -0.9999931 -0.002475512 -0.002787166
vn -0.4644372 -0.0452025 0.8844517
vn -0.4580593 0.2188234 0.8615673
vn -0.2168802 -0.4524069 0.8650382
vn -0.01145788 0.1840149 0.9828567
vn -0.1593252 0.1328097 0.9782521
vn -0.006555796 0.1541894 0.9880195
vn -0.07994629 0.2666163 0.9604813
vn -0.411908 0.2420526 0.8784887
vn -0.8341186 -0.08402125 0.5451483
vn -0.7477607 0.2749321 0.6043727
vn -0.6112354 0.3016172 0.7317228
vn -0.360594 -0.8169986 0.4499838
vn -0.9998767 -0.006061057 -0.01448631
vn -0.9999787 -0.005432281 -0.003630307
vn 0.9996431 -0.02592643 0.006453528
vn 0 0.5680168 -0.823017
vn -0.9996431 -0.0259265 0.006453748
vn -2.663104E-07 -0.6024923 0.7981246
vn 0.1400095 0.2409803 0.960378
vn -0.1400094 0.2409799 0.9603781
vn 4.943501E-07 0.6310623 0.7757323
vn -3.167488E-07 -0.7480059 -0.6636922
vn -0.9998847 0.01497917 0.002484589
vn 5.276235E-07 0.7596407 0.6503431
vn 0.9998847 0.01497848 0.002484297
vn 1.009443E-07 -0.2400673 0.9707562
vn 0.9994156 -0.01226708 0.03190368
vn 3.272677E-07 0.2277353 -0.973723
vn -0.9994156 -0.01226713 0.03190408
vn 6.306282E-07 -0.2371041 0.9714842
vn 0.21688 -0.4524066 0.8650383
vn 1.493377E-07 -0.5570344 0.8304894
vn -2.949802E-07 0.2611462 0.9652992
vn 0.1593256 0.1328101 0.9782519
vn 0.4580576 0.2188224 0.8615683
vn 0.4644362 -0.04520178 0.8844523
vn 0.006555162 0.1541897 0.9880195
vn 0.21688 -0.4524066 0.8650383
vn 0.01145647 0.1840146 0.9828568
vn 0.4644362 -0.04520178 0.8844523
vn 0.4119062 0.2420526 0.8784896
vn 0.4580576 0.2188224 0.8615683
vn -0.2168802 -0.4524069 0.8650382
vn -0.4644372 -0.0452025 0.8844517
vn -0.006555796 0.1541894 0.9880195
vn -0.2168802 -0.4524069 0.8650382
vn -0.01145788 0.1840149 0.9828567
vn -0.4644372 -0.0452025 0.8844517
vn -0.411908 0.2420526 0.8784887
vn -0.4580593 0.2188234 0.8615673
vn 0.5684946 0.7647022 -0.3033884
vn -2.441788E-07 0.8000576 0.5999232
vn 1.154944E-06 0.2619442 -0.9650831
vn 0 -0.9999954 -0.003067486
vn -1.485174E-07 -0.4947079 0.8690594
vn 0 -0.9999985 -0.001780473
vn 0 -0.9999985 -0.001780473
vn -0.4580593 0.2188234 0.8615673
vn -0.1593252 0.1328097 0.9782521
g sharp8_geo_0
f 97/97/97 43/43/43 98/98/98
f 99/99/99 43/43/43 97/97/97
f 30/30/30 20/20/20 87/87/87
f 22/22/22 20/20/20 30/30/30
f 33/33/33 22/22/22 30/30/30
f 18/18/18 22/22/22 33/33/33
f 34/34/34 18/18/18 33/33/33
f 58/58/58 18/18/18 34/34/34
f 16/16/16 58/58/58 34/34/34
f 55/55/55 58/58/58 16/16/16
f 72/72/72 55/55/55 16/16/16
f 35/35/35 55/55/55 72/72/72
f 30/30/30 35/35/35 72/72/72
f 67/67/67 35/35/35 30/30/30
f 31/31/31 67/67/67 30/30/30
f 29/29/29 67/67/67 31/31/31
f 32/32/32 29/29/29 31/31/31
f 17/17/17 29/29/29 32/32/32
f 19/19/19 17/17/17 32/32/32
f 57/57/57 17/17/17 19/19/19
f 96/96/96 57/57/57 19/19/19
f 95/95/95 57/57/57 96/96/96
f 32/32/32 88/88/88 19/19/19
f 87/87/87 88/88/88 32/32/32
f 31/31/31 87/87/87 32/32/32
f 30/30/30 87/87/87 31/31/31
f 38/38/38 3/3/3 43/43/43
f 4/4/4 3/3/3 38/38/38
f 37/37/37 4/4/4 38/38/38
f 5/5/5 4/4/4 37/37/37
f 36/36/36 5/5/5 37/37/37
f 59/59/59 5/5/5 36/36/36
f 60/60/60 59/59/59 36/36/36
f 41/41/41 59/59/59 60/60/60
f 70/70/70 41/41/41 60/60/60
f 40/40/40 41/41/41 70/70/70
f 71/71/71 40/40/40 70/70/70
f 39/39/39 40/40/40 71/71/71
f 68/68/68 39/39/39 71/71/71
f 69/69/69 39/39/39 68/68/68
f 42/42/42 69/69/69 68/68/68
f 1/1/1 69/69/69 42/42/42
f 76/76/76 1/1/1 42/42/42
f 2/2/2 1/1/1 76/76/76
f 73/73/73 2/2/2 76/76/76
f 6/6/6 2/2/2 73/73/73
f 74/74/74 6/6/6 73/73/73
f 75/75/75 6/6/6 74/74/74
f 7/7/7 75/75/75 74/74/74
f 44/44/44 75/75/75 7/7/7
f 45/45/45 44/44/44 7/7/7
f 12/12/12 44/44/44 45/45/45
f 64/64/64 12/12/12 45/45/45
f 11/11/11 12/12/12 64/64/64
f 61/61/61 11/11/11 64/64/64
f 10/10/10 11/11/11 61/61/61
f 62/62/62 10/10/10 61/61/61
f 63/63/63 10/10/10 62/62/62
f 13/13/13 63/63/63 62/62/62
f 46/46/46 63/63/63 13/13/13
f 55/55/55 95/95/95 47/47/47
f 49/49/49 55/55/55 47/47/47
f 58/58/58 55/55/55 49/49/49
f 18/18/18 58/58/58 49/49/49
f 64/64/64 46/46/46 15/15/15
f 63/63/63 46/46/46 64/64/64
f 45/45/45 63/63/63 64/64/64
f 10/10/10 63/63/63 45/45/45
f 7/7/7 10/10/10 45/45/45
f 11/11/11 10/10/10 7/7/7
f 8/8/8 11/11/11 7/7/7
f 12/12/12 11/11/11 8/8/8
f 9/9/9 12/12/12 8/8/8
f 44/44/44 12/12/12 9/9/9
f 76/76/76 44/44/44 9/9/9
f 75/75/75 44/44/44 76/76/76
f 42/42/42 75/75/75 76/76/76
f 6/6/6 75/75/75 42/42/42
f 68/68/68 6/6/6 42/42/42
f 2/2/2 6/6/6 68/68/68
f 71/71/71 2/2/2 68/68/68
f 1/1/1 2/2/2 71/71/71
f 70/70/70 1/1/1 71/71/71
f 69/69/69 1/1/1 70/70/70
f 60/60/60 69/69/69 70/70/70
f 39/39/39 69/69/69 60/60/60
f 36/36/36 39/39/39 60/60/60
f 40/40/40 39/39/39 36/36/36
f 37/37/37 40/40/40 36/36/36
f 41/41/41 40/40/40 37/37/37
f 38/38/38 41/41/41 37/37/37
f 59/59/59 41/41/41 38/38/38
f 43/43/43 59/59/59 38/38/38
f 5/5/5 59/59/59 43/43/43
f 61/61/61 64/64/64 15/15/15
f 14/14/14 61/61/61 15/15/15
f 62/62/62 61/61/61 14/14/14
f 13/13/13 62/62/62 14/14/14
f 16/16/16 30/30/30 72/72/72
f 33/33/33 30/30/30 16/16/16
f 34/34/34 33/33/33 16/16/16
f 56/56/56 95/95/95 55/55/55
f 29/29/29 56/56/56 55/55/55
f 57/57/57 56/56/56 29/29/29
f 17/17/17 57/57/57 29/29/29
f 56/56/56 57/57/57 95/95/95
f 55/55/55 67/67/67 29/29/29
f 35/35/35 67/67/67 55/55/55
f 8/8/8 7/7/7 74/74/74
f 73/73/73 8/8/8 74/74/74
f 9/9/9 8/8/8 73/73/73
f 76/76/76 9/9/9 73/73/73
g sharp8_geo_1
f 80/80/80 79/79/79 81/81/81
f 48/48/48 79/79/79 51/51/51
f 100/100/100 14/14/14 101/101/101
f 103/103/103 102/102/102 100/100/100
f 28/28/28 85/85/85 27/27/27
f 65/65/65 28/28/28 27/27/27
f 21/21/21 28/28/28 65/65/65
f 25/25/25 21/21/21 65/65/65
f 23/23/23 78/78/78 89/89/89
f 77/77/77 78/78/78 23/23/23
f 26/26/26 77/77/77 23/23/23
f 83/83/83 82/82/82 84/84/84
f 24/24/24 82/82/82 83/83/83
f 85/85/85 28/28/28 86/86/86
f 23/23/23 89/89/89 52/52/52
f 91/91/91 90/90/90 50/50/50
f 92/92/92 90/90/90 91/91/91
f 54/54/54 93/93/93 94/94/94
f 53/53/53 93/93/93 54/54/54
f 66/66/66 53/53/53 54/54/54
f 66/66/66 104/104/104 105/105/105
f 54/54/54 104/104/104 66/66/66
