g sharp2_geo
v 6.562543E-32 1.528512 0.2229912
v 8.644157E-32 1.661143 0.1445209
v 8.66727E-32 1.65692 0.1379543
v 6.591948E-32 1.524969 0.2164661
v 1.862645E-11 1.52003 0.2156051
v 1.862645E-11 1.513888 0.2205968
v 6.628517E-32 1.51537 0.2031581
v 6.535541E-32 1.50778 0.2049974
v 6.784981E-32 1.51391 0.185831
v 6.719723E-32 1.505592 0.1841314
v 7.789224E-32 1.600849 0.1709274
v 6.48083E-32 1.487799 0.1905651
v 7.168151E-32 1.561758 0.1948211
v 7.77418E-32 1.605461 0.1770651
v 7.153233E-32 1.566301 0.200877
v 0.003686026 1.526783 0.2195106
v 0.003906197 1.659033 0.1412425
v 0.003681731 1.516542 0.2176847
v 0.00367156 1.51086 0.2042429
v 0.003898292 1.509709 0.1848298
v 0.03161633 1.518671 0.1810427
v 0.01388753 1.592184 0.1526404
v 0.01065001 1.513627 0.1845917
v 0.03592369 1.499465 0.1811199
v 0.03360536 1.590132 0.1387501
v 0.05682044 1.546835 0.1439031
v 0.02243179 1.55073 0.1668887
v 0.02242271 1.520637 0.2007137
v 0.01524202 1.556557 0.1838971
v 0.009230755 1.597587 0.1644932
v 0.007186628 1.51537 0.2031581
v 0.003834948 1.603163 0.1739285
v 0.003772048 1.564041 0.1977163
v 0.04942007 1.516868 0.1674248
v 0.04865332 1.562409 0.1374834
v 0.04118313 1.578355 0.1384809
v 0.01874094 1.655573 0.1319648
v -0.003686026 1.526783 0.2195106
v -0.003906197 1.659033 0.1412425
v -0.003681731 1.516542 0.2176847
v -0.00367156 1.51086 0.2042429
v -0.003898292 1.509709 0.1848298
v -0.03161633 1.520246 0.1810427
v -0.01388753 1.592184 0.1526404
v -0.01065001 1.513627 0.1845917
v -0.03592369 1.499465 0.1811199
v -0.03360536 1.590132 0.1387501
v -0.05682044 1.546835 0.1439031
v -0.02243179 1.55073 0.1649989
v -0.02242271 1.520637 0.1994538
v -0.01524202 1.557877 0.1843085
v -0.009230755 1.599248 0.1656476
v -0.007186628 1.51537 0.2031581
v -0.003834948 1.603163 0.1739285
v -0.003772048 1.564041 0.1977163
v -0.04942007 1.516868 0.1674248
v -0.04865332 1.562409 0.1374834
v -0.04118313 1.578355 0.1384809
v -0.01874094 1.655573 0.1319648
v 6.784981E-32 1.51391 0.185831
v 6.628517E-32 1.51537 0.2031581
v 1.862645E-11 1.52003 0.2156051
v 6.591948E-32 1.524969 0.2164661
v 7.168151E-32 1.561758 0.1948211
v 8.66727E-32 1.65692 0.1379543
v 7.789224E-32 1.600849 0.1709274
v 6.48083E-32 1.487799 0.1905651
v 7.168151E-32 1.561758 0.1948211
v 6.591948E-32 1.524969 0.2164661
v 1.862645E-11 1.52003 0.2156051
v 6.628517E-32 1.51537 0.2031581
v 6.784981E-32 1.51391 0.185831
v 8.66727E-32 1.65692 0.1379543
v 7.789224E-32 1.600849 0.1709274
v 1.862645E-11 1.52003 0.2156051
v 6.591948E-32 1.524969 0.2164661
v 7.168151E-32 1.561758 0.1948211
v 7.789224E-32 1.600849 0.1709274
vt 0.9960997 0.1296234
vt 0.9960997 0.1296234
vt 0.9397988 0.2346556
vt 0.9960997 0.1296234
vt 0.9960997 0.1296234
vt 0.9960997 0.1296234
vt 0.9960997 0.1296234
vt 0.9960997 0.1296234
vt 0.9960997 0.1296234
vt 0.9960997 0.1296234
vt 0.9397988 0.2121517
vt 0.9421548 0.1614839
vt 0.9960997 0.1296234
vt 0.9960997 0.1296234
vt 0.9960997 0.1296234
vt 0.9960997 0.1296234
vt 0.9960997 0.1296234
vt 0.9960997 0.1296234
vt 0.9960997 0.1296234
vt 0.9960997 0.1296234
vt 0.9592462 0.179773
vt 0.9513974 0.2111611
vt 0.9470737 0.1720978
vt 0.9698265 0.1710594
vt 0.9609805 0.2141651
vt 0.976844 0.1951596
vt 0.9581048 0.1961279
vt 0.9454796 0.1878296
vt 0.9488954 0.1968939
vt 0.9459983 0.2109885
vt 0.9415298 0.1862693
vt 0.9960997 0.1296234
vt 0.9960997 0.1296234
vt 0.9726433 0.1807332
vt 0.9708138 0.2023841
vt 0.9661254 0.2080011
vt 0.9453948 0.2292423
vt 0.9960997 0.1296234
vt 0.9960997 0.1296234
vt 0.9960997 0.1296234
vt 0.9960997 0.1296234
vt 0.9960997 0.1296234
vt 0.9201425 0.179773
vt 0.9279913 0.2111611
vt 0.932315 0.1720978
vt 0.9095622 0.1710594
vt 0.9184082 0.2141651
vt 0.9025447 0.1951596
vt 0.9212838 0.1961279
vt 0.9339091 0.1878296
vt 0.9304933 0.1968939
vt 0.9333904 0.2109885
vt 0.9378589 0.1862693
vt 0.9960997 0.1296234
vt 0.9960997 0.1296234
vt 0.9067454 0.1807332
vt 0.9085749 0.2023841
vt 0.9132633 0.2080011
vt 0.9339939 0.2292423
vt 0.9397989 0.1717285
vt 0.9397989 0.1861697
vt 0.9397989 0.1911163
vt 0.9397989 0.1919488
vt 0.9397989 0.1972838
vt 0.9960997 0.1296234
vt 0.9960997 0.1296234
vt 0.9372339 0.1614839
vt 0.9960997 0.1296234
vt 0.9960997 0.1296234
vt 0.9960997 0.1296234
vt 0.9960997 0.1296234
vt 0.9960997 0.1296234
vt 0.9395899 0.2346556
vt 0.9395899 0.2121517
vt 0.9395898 0.1911163
vt 0.9395898 0.1919488
vt 0.9395898 0.1972838
vt 0.9960997 0.1296234
vn 3.070278E-07 0.1645991 0.9863605
vn 1.7584E-07 0.916397 0.4002704
vn 0.6697463 0.3349472 0.6627597
vn 0.66588 -0.1162852 -0.7369406
vn 0.7253844 0.4009219 -0.5595347
vn -1.143725E-07 -0.6227068 0.7824553
vn 0.7612545 0.6326286 -0.1423818
vn 0 -0.9717883 0.2358546
vn 0.7543232 0.6551656 -0.04188789
vn 1.64239E-07 -0.9961302 0.08788918
vn 0.6163973 0.4044748 0.6756141
vn 0.0004305796 0.1416893 0.9899111
vn 0.6965493 -0.3687769 -0.6154857
vn 3.601645E-07 0.5116187 0.8592126
vn 6.199453E-07 0.5115857 0.8592322
vn 0.9995775 -1.404067E-05 -0.02906868
vn 0.576957 0.6859974 -0.443315
vn 0.9996616 -0.02498536 -0.00723578
vn 0.9984382 -0.05203422 0.02033658
vn 0.9987801 -0.04699153 0.01516932
vn 0.647472 0.02840603 0.7615597
vn 0.7121341 0.2972522 0.6360081
vn 0.2109951 -0.5815183 0.7856956
vn 0.4126195 0.1254384 0.9022253
vn 0.5744908 0.2902113 0.765335
vn 0.5280283 0.4951118 0.6899641
vn 0.7077638 0.3898408 0.5891474
vn 0.7437741 -0.2472701 0.6210133
vn 0.7778088 0.3771796 0.5027415
vn 0.8017257 0.3477136 0.4861389
vn 0.198918 -0.9173664 0.3447758
vn 0.9999759 -0.004595068 -0.005207011
vn 0.9998945 -0.008607032 -0.01170263
vn 0.5858057 0.2970473 0.7540522
vn 0.593753 0.4100551 0.6923237
vn 0.6174887 0.3173264 0.7197303
vn 0.4490806 0.2458036 0.8590152
vn -0.9995775 -1.404067E-05 -0.02906823
vn -0.5769568 0.6859974 -0.4433151
vn -0.9996616 -0.0249853 -0.007235866
vn -0.9984382 -0.0520341 0.0203369
vn -0.9987801 -0.04699162 0.01517026
vn -0.6570913 0.03509095 0.7529938
vn -0.7240509 0.2883961 0.6265604
vn -0.225356 -0.5814175 0.7817726
vn -0.4160622 0.1192677 0.9014807
vn -0.5716521 0.2778098 0.7720335
vn -0.508675 0.5068015 0.6959899
vn -0.7049163 0.3869115 0.5944682
vn -0.7594531 -0.2370231 0.6058474
vn -0.7749136 0.3734243 0.509964
vn -0.7834558 0.3619688 0.5051491
vn -0.2206614 -0.9136233 0.3414687
vn -0.9999759 -0.004594752 -0.005206758
vn -0.9998945 -0.008606592 -0.01170192
vn -0.5847667 0.307809 0.7505342
vn -0.5712616 0.4025688 0.7152612
vn -0.6043325 0.2993657 0.7383511
vn -0.4490806 0.2458037 0.8590152
vn -1.830146E-07 -0.6095779 0.7927261
vn -0.00489324 -0.9751894 0.2213176
vn 0.2438765 -0.8052765 0.5404202
vn 0.6107652 -0.09380867 0.7862353
vn 0.6053334 0.4154393 0.6789562
vn 2.020254E-07 0.0686957 -0.9976377
vn 0.7011632 -0.3663414 -0.6116897
vn 0.0004305796 0.1416893 0.9899111
vn -0.6965495 -0.3687767 -0.6154855
vn -0.6658805 -0.1162854 -0.7369402
vn -0.7253847 0.4009221 -0.5595343
vn -0.7612544 0.6326289 -0.1423817
vn -0.7543232 0.6551655 -0.04188788
vn -0.6435505 0.3513671 0.6799882
vn -0.529721 0.4296384 0.7313047
vn -0.2649381 -0.7962138 0.5439221
vn -0.6229046 -0.08646469 0.7775049
vn -0.5762683 0.4119186 0.7058597
vn -0.7011632 -0.3663412 -0.6116897
g sharp2_geo_0
f 7/7/7 20/20/20 9/9/9
f 19/19/19 20/20/20 7/7/7
f 5/5/5 19/19/19 7/7/7
f 18/18/18 19/19/19 5/5/5
f 4/4/4 18/18/18 5/5/5
f 16/16/16 18/18/18 4/4/4
f 13/13/13 16/16/16 4/4/4
f 33/33/33 16/16/16 13/13/13
f 66/66/66 33/33/33 13/13/13
f 32/32/32 33/33/33 66/66/66
f 65/65/65 32/32/32 66/66/66
f 17/17/17 32/32/32 65/65/65
f 39/39/39 17/17/17 65/65/65
f 2/2/2 17/17/17 39/39/39
f 14/14/14 2/2/2 39/39/39
f 17/17/17 2/2/2 14/14/14
f 32/32/32 17/17/17 14/14/14
f 54/54/54 39/39/39 65/65/65
f 78/78/78 54/54/54 65/65/65
f 55/55/55 54/54/54 78/78/78
f 68/68/68 55/55/55 78/78/78
f 38/38/38 55/55/55 68/68/68
f 69/69/69 38/38/38 68/68/68
f 40/40/40 38/38/38 69/69/69
f 70/70/70 40/40/40 69/69/69
f 41/41/41 40/40/40 70/70/70
f 71/71/71 41/41/41 70/70/70
f 42/42/42 41/41/41 71/71/71
f 72/72/72 42/42/42 71/71/71
f 15/15/15 32/32/32 14/14/14
f 33/33/33 32/32/32 15/15/15
f 1/1/1 33/33/33 15/15/15
f 16/16/16 33/33/33 1/1/1
f 6/6/6 16/16/16 1/1/1
f 18/18/18 16/16/16 6/6/6
f 8/8/8 18/18/18 6/6/6
f 19/19/19 18/18/18 8/8/8
f 10/10/10 19/19/19 8/8/8
f 20/20/20 19/19/19 10/10/10
f 28/28/28 21/21/21 27/27/27
f 23/23/23 21/21/21 28/28/28
f 31/31/31 23/23/23 28/28/28
f 60/60/60 23/23/23 31/31/31
f 61/61/61 60/60/60 31/31/31
f 53/53/53 60/60/60 61/61/61
f 75/75/75 53/53/53 61/61/61
f 50/50/50 53/53/53 75/75/75
f 76/76/76 50/50/50 75/75/75
f 51/51/51 50/50/50 76/76/76
f 77/77/77 51/51/51 76/76/76
f 52/52/52 51/51/51 77/77/77
f 74/74/74 52/52/52 77/77/77
f 73/73/73 52/52/52 74/74/74
f 62/62/62 61/61/61 31/31/31
f 28/28/28 62/62/62 31/31/31
f 63/63/63 62/62/62 28/28/28
f 29/29/29 63/63/63 28/28/28
f 64/64/64 63/63/63 29/29/29
f 30/30/30 64/64/64 29/29/29
f 11/11/11 64/64/64 30/30/30
f 3/3/3 11/11/11 30/30/30
f 30/30/30 22/22/22 3/3/3
f 27/27/27 22/22/22 30/30/30
f 29/29/29 27/27/27 30/30/30
f 28/28/28 27/27/27 29/29/29
f 54/54/54 14/14/14 39/39/39
f 15/15/15 14/14/14 54/54/54
f 55/55/55 15/15/15 54/54/54
f 1/1/1 15/15/15 55/55/55
f 38/38/38 1/1/1 55/55/55
f 6/6/6 1/1/1 38/38/38
f 40/40/40 6/6/6 38/38/38
f 8/8/8 6/6/6 40/40/40
f 41/41/41 8/8/8 40/40/40
f 10/10/10 8/8/8 41/41/41
f 42/42/42 10/10/10 41/41/41
f 50/50/50 49/49/49 43/43/43
f 45/45/45 50/50/50 43/43/43
f 53/53/53 50/50/50 45/45/45
f 60/60/60 53/53/53 45/45/45
f 52/52/52 73/73/73 44/44/44
f 49/49/49 52/52/52 44/44/44
f 51/51/51 52/52/52 49/49/49
f 50/50/50 51/51/51 49/49/49
g sharp2_geo_1
f 21/21/21 24/24/24 34/34/34
f 12/12/12 24/24/24 21/21/21
f 23/23/23 12/12/12 21/21/21
f 60/60/60 12/12/12 23/23/23
f 22/22/22 37/37/37 3/3/3
f 25/25/25 37/37/37 22/22/22
f 36/36/36 25/25/25 22/22/22
f 43/43/43 56/56/56 46/46/46
f 67/67/67 43/43/43 46/46/46
f 45/45/45 43/43/43 67/67/67
f 60/60/60 45/45/45 67/67/67
f 44/44/44 47/47/47 58/58/58
f 59/59/59 47/47/47 44/44/44
f 73/73/73 59/59/59 44/44/44
f 27/27/27 36/36/36 22/22/22
f 35/35/35 36/36/36 27/27/27
f 26/26/26 35/35/35 27/27/27
f 34/34/34 27/27/27 21/21/21
f 26/26/26 27/27/27 34/34/34
f 49/49/49 57/57/57 48/48/48
f 58/58/58 57/57/57 49/49/49
f 44/44/44 58/58/58 49/49/49
f 56/56/56 49/49/49 48/48/48
f 43/43/43 49/49/49 56/56/56
