g shaved1_geo
v 0.1748948 1.629897 -0.1451028
v 0.0592775 1.813569 0.01956474
v 0.1220178 1.783753 -0.002298783
v 0.1728216 1.650135 -0.07970074
v 0.1395401 1.553843 -0.201066
v 0.07385688 1.514946 -0.2573345
v 4.458399E-31 1.509726 -0.2640581
v 0.1645793 1.754761 -0.15553
v 0.06344704 1.844492 -0.1440889
v 0.07989981 1.646773 -0.2880161
v 0.07712531 1.726476 -0.2747528
v 4.966403E-31 1.642696 -0.302814
v 5.177083E-31 1.72352 -0.2932083
v 5.255011E-31 1.810872 -0.2321996
v 5.114633E-31 1.851096 -0.1445225
v 0.147917 1.664589 -0.2306442
v 0.1424712 1.735596 -0.2255471
v 0.1691898 1.753299 -0.08037541
v 0.1697964 1.68027 -0.02298752
v 0.1780695 1.685798 -0.155427
v 0.180208 1.685863 -0.08341923
v 0.1624155 1.735819 -0.02315962
v 0.1709636 1.60656 -0.02619613
v 0.1657918 1.645792 -0.04111857
v 4.692779E-31 1.561544 -0.2914709
v 0.07399616 1.57066 -0.2780815
v 0.1395158 1.602349 -0.2183318
v 0.05558332 1.801204 -0.2307183
v 4.292788E-31 1.469369 -0.2484331
v 0.1464678 1.505945 -0.183064
v 0.05680442 1.767959 0.0754371
v 0.1760275 1.555298 -0.106371
v 0.1722755 1.597697 -0.05242699
v 0.06989267 1.474945 -0.2350587
v 0.1784133 1.594494 -0.07497653
v 0.1837429 1.601423 -0.07854605
v 0.1812502 1.601451 -0.05716553
v 0.1775672 1.651802 -0.07343851
v 0.1766042 1.650158 -0.05715912
v 0.193346 1.612469 -0.07943919
v 0.1939687 1.611034 -0.06581607
v 0.1945138 1.650588 -0.07793485
v 0.1945368 1.649311 -0.06884233
v 0.2034081 1.627223 -0.06959805
v 0.2028029 1.626654 -0.08104353
v 0.1813424 1.623784 -0.07875259
v 0.114481 1.751494 0.04665937
v 0.1809704 1.581002 -0.04557954
v 0.1626235 1.608091 0.004635793
v 0.1584011 1.641845 0.01728247
v 0.1408737 1.722156 0.03152593
v 0.1551954 1.682759 0.02238511
v 0.1687835 1.636451 -0.01587476
v 0.1679656 1.629302 -0.02897069
v 4.523602E-31 1.822817 0.02699138
v 4.191742E-31 1.770788 0.08714405
v 0.06590191 1.841282 -0.05027451
v 4.828088E-31 1.850625 -0.04812874
v 0.1269932 1.808821 -0.06025308
v 0.1268593 1.815927 -0.1424254
v 0.1067366 1.782806 -0.2180271
v 0.1754612 1.592598 -0.1257369
v -0.1748948 1.629897 -0.1451028
v -0.0592775 1.813569 0.01956474
v -0.1220178 1.783753 -0.002298783
v -0.1728216 1.650135 -0.07970074
v -0.1395401 1.553843 -0.201066
v -0.07385688 1.514946 -0.2573345
v -0.1645793 1.754761 -0.15553
v -0.06344704 1.844492 -0.1440889
v -0.07989981 1.646773 -0.2880161
v -0.07712531 1.726476 -0.2747528
v -0.147917 1.664589 -0.2306442
v -0.1424712 1.735596 -0.2255471
v -0.1691898 1.753299 -0.08037541
v -0.1697964 1.68027 -0.02298752
v -0.1780695 1.685798 -0.155427
v -0.180208 1.685863 -0.08341923
v -0.1624155 1.735819 -0.02315962
v -0.1709636 1.60656 -0.02619613
v -0.1657918 1.645792 -0.04111857
v -0.07399616 1.57066 -0.2780815
v -0.1395158 1.602349 -0.2183318
v -0.05558332 1.801204 -0.2307183
v -0.1464678 1.505945 -0.183064
v -0.05680442 1.767959 0.0754371
v -0.1760275 1.555298 -0.106371
v -0.1722755 1.597697 -0.05242699
v -0.06989267 1.474945 -0.2350587
v -0.1784133 1.594494 -0.07497653
v -0.1837429 1.601423 -0.07854605
v -0.1812502 1.601451 -0.05716553
v -0.1775672 1.651802 -0.07343851
v -0.1766042 1.650158 -0.05715912
v -0.193346 1.612469 -0.07943919
v -0.1939687 1.611034 -0.06581607
v -0.1945138 1.650588 -0.07793485
v -0.1945368 1.649311 -0.06884233
v -0.2034081 1.627223 -0.06959805
v -0.2028029 1.626654 -0.08104353
v -0.1813424 1.623784 -0.07875259
v -0.114481 1.751494 0.04665937
v -0.1809704 1.581002 -0.04557954
v -0.1626235 1.608091 0.004635793
v -0.1584011 1.641845 0.01728247
v -0.1408737 1.722156 0.03152593
v -0.1551954 1.682759 0.02238511
v -0.1687835 1.636451 -0.01587476
v -0.1679656 1.629302 -0.02897069
v -0.06590191 1.841282 -0.05027451
v -0.1269932 1.808821 -0.06025308
v -0.1268593 1.815927 -0.1424254
v -0.1067366 1.782806 -0.2180271
v -0.1754612 1.592598 -0.1257369
v 4.262538E-31 1.78269 0.07511483
v 0.0578679 1.779845 0.0607267
v -0.05813393 1.782758 0.05760873
v 0.1395158 1.602349 -0.2183318
v 0.147917 1.664589 -0.2306442
v 0.1424712 1.735596 -0.2255471
v 0.05558332 1.801204 -0.2307183
v 5.255011E-31 1.810872 -0.2321996
v 0.1067366 1.782806 -0.2180271
v 0.1395401 1.553843 -0.201066
v 4.458399E-31 1.509726 -0.2640581
v 0.07385688 1.514946 -0.2573345
v 0.1728216 1.650135 -0.07970074
v 0.1657918 1.645792 -0.04111857
v 0.1657918 1.645792 -0.04111857
v 0.1812502 1.601451 -0.05716553
v 0.1722755 1.597697 -0.05242699
v 0.1766042 1.650158 -0.05715912
v 0.1939687 1.611034 -0.06581607
v 0.1945368 1.649311 -0.06884233
v 0.1679656 1.629302 -0.02897069
v 0.1624155 1.735819 -0.02315962
v 0.1220178 1.783753 -0.002298783
v 0.1697964 1.68027 -0.02298752
v 0.1687835 1.636451 -0.01587476
v 0.1709636 1.60656 -0.02619613
v 0.1220178 1.783753 -0.002298783
v 0.1269932 1.808821 -0.06025308
v 0.1268593 1.815927 -0.1424254
v 0.1067366 1.782806 -0.2180271
v -0.1395158 1.602349 -0.2183318
v -0.147917 1.664589 -0.2306442
v -0.1697964 1.68027 -0.02298752
v -0.1687835 1.636451 -0.01587476
v -0.1424712 1.735596 -0.2255471
v -0.05558332 1.801204 -0.2307183
v -0.1067366 1.782806 -0.2180271
v -0.1395401 1.553843 -0.201066
v -0.1395401 1.553843 -0.201066
v -0.1754612 1.592598 -0.1257369
v 4.458399E-31 1.509726 -0.2640581
v -0.07385688 1.514946 -0.2573345
v 4.292788E-31 1.469369 -0.2484331
v -0.1728216 1.650135 -0.07970074
v -0.1657918 1.645792 -0.04111857
v -0.1657918 1.645792 -0.04111857
v -0.1812502 1.601451 -0.05716553
v -0.1766042 1.650158 -0.05715912
v -0.1722755 1.597697 -0.05242699
v -0.1939687 1.611034 -0.06581607
v -0.1945368 1.649311 -0.06884233
v -0.1679656 1.629302 -0.02897069
v -0.1624155 1.735819 -0.02315962
v -0.1220178 1.783753 -0.002298783
v 4.262538E-31 1.78269 0.07511483
v -0.1709636 1.60656 -0.02619613
v -0.1220178 1.783753 -0.002298783
v -0.1269932 1.808821 -0.06025308
v -0.1268593 1.815927 -0.1424254
v -0.1067366 1.782806 -0.2180271
v 0.1754612 1.592598 -0.1257369
v 0.1395401 1.553843 -0.201066
v 0.0578679 1.779845 0.0607267
v -0.05813393 1.782758 0.05760873
vt 0.8176055 0.6142071
vt 0.8893362 0.5992068
vt 0.9131975 0.6026442
vt 0.8320065 0.6315261
vt 0.8173754 0.6011848
vt 0.8525805 0.5866643
vt 0.8824811 0.5849921
vt 0.8528626 0.5952111
vt 0.8899492 0.6521081
vt 0.8552923 0.6369607
vt 0.8564968 0.6641815
vt 0.8822634 0.6346984
vt 0.8825912 0.6611357
vt 0.8832712 0.6978047
vt 0.8704282 0.6519234
vt 0.81704 0.5827943
vt 0.8283713 0.6724999
vt 0.8623277 0.616754
vt 0.8499293 0.6442065
vt 0.8329694 0.6044484
vt 0.8423316 0.6253021
vt 0.8656114 0.6343871
vt 0.8656361 0.2084893
vt 0.8363013 0.6442453
vt 0.8821938 0.606896
vt 0.855448 0.6103247
vt 0.7988572 0.5933138
vt 0.8626721 0.6951058
vt 0.8719375 0.2390533
vt 0.8711221 0.2246434
vt 0.8417645 0.1948322
vt 0.8686862 0.2168267
vt 0.8660645 0.2111541
vt 0.8719894 0.2329022
vt 0.8658049 0.2132549
vt 0.8651371 0.2128242
vt 0.8655193 0.2116369
vt 0.8623037 0.2120471
vt 0.8623776 0.2109938
vt 0.8643261 0.2122768
vt 0.8645732 0.2117242
vt 0.8630831 0.2117417
vt 0.8631597 0.2114708
vt 0.863906 0.2117975
vt 0.8638331 0.2120192
vt 0.8636081 0.2126114
vt 0.849057 0.1996125
vt 0.8678294 0.2109473
vt 0.8659225 0.2052675
vt 0.8625129 0.203458
vt 0.8536 0.201548
vt 0.8581347 0.2026902
vt 0.837733 0.6542268
vt 0.832458 0.6508036
vt 0.8703192 0.5981302
vt 0.8328477 0.1911742
vt 0.8906511 0.6226094
vt 0.8704339 0.6225626
vt 0.9131806 0.6244012
vt 0.9123741 0.6525192
vt 0.8420436 0.690671
vt 0.8652391 0.2176436
vt 0.8810647 0.6351144
vt 0.8513548 0.5994658
vt 0.827713 0.6032546
vt 0.8655807 0.65147
vt 0.9446008 0.6009845
vt 0.9111419 0.5883366
vt 0.8471014 0.6138892
vt 0.850979 0.6517744
vt 0.9090209 0.6362591
vt 0.9086359 0.6632528
vt 0.8836522 0.6038013
vt 0.9366851 0.6704016
vt 0.8362726 0.6347796
vt 0.8468806 0.6629707
vt 0.8663609 0.6243869
vt 0.8556771 0.6445949
vt 0.8308097 0.6533962
vt 0.8000595 0.2084893
vt 0.8604769 0.6638862
vt 0.9084852 0.609965
vt 0.9410524 0.6200677
vt 0.9036918 0.6942357
vt 0.7945734 0.2246437
vt 0.8239309 0.1948322
vt 0.7970091 0.2168268
vt 0.7996309 0.211154
vt 0.7937064 0.2329023
vt 0.7998906 0.2132548
vt 0.8005583 0.2128241
vt 0.8001762 0.2116368
vt 0.8033918 0.2120472
vt 0.8033178 0.2109938
vt 0.8013693 0.2122767
vt 0.8011222 0.2117242
vt 0.8026124 0.2117417
vt 0.8025358 0.2114708
vt 0.8017894 0.2117974
vt 0.8018624 0.2120191
vt 0.8020873 0.2126114
vt 0.8166385 0.1996125
vt 0.797866 0.2109471
vt 0.7997732 0.2052676
vt 0.8031825 0.2034581
vt 0.8120953 0.201548
vt 0.8075607 0.2026902
vt 0.8584052 0.6737552
vt 0.8638896 0.6706786
vt 0.8502935 0.6229439
vt 0.8280371 0.6247211
vt 0.8288184 0.6521772
vt 0.9239576 0.6889437
vt 0.8004563 0.2176437
vt 0.8702329 0.5776342
vt 0.8905642 0.5816298
vt 0.8246401 0.1976734
vt 0.8217847 0.6212445
vt 0.8239932 0.6458673
vt 0.8391962 0.5752475
vt 0.8891101 0.6831479
vt 0.870248 0.6825945
vt 0.9077815 0.6808202
vt 0.8668215 0.225151
vt 0.8682079 0.2390023
vt 0.8681693 0.232803
vt 0.8618286 0.2126281
vt 0.8617339 0.2093866
vt 0.8726525 0.1624719
vt 0.8226974 0.1738941
vt 0.8266594 0.1842743
vt 0.8682857 0.1408667
vt 0.8193824 0.1555831
vt 0.8471475 0.1275738
vt 0.8633939 0.2084494
vt 0.8539854 0.2082233
vt 0.8472648 0.2058899
vt 0.8605132 0.2073095
vt 0.8628197 0.2070891
vt 0.8245907 0.6565213
vt 0.8882655 0.6336964
vt 0.8850036 0.6136796
vt 0.8750269 0.5880823
vt 0.8569577 0.5669376
vt 0.9011204 0.6154708
vt 0.9398854 0.644038
vt 0.8051823 0.2073095
vt 0.8028758 0.2070891
vt 0.8600788 0.5971121
vt 0.8514618 0.6827855
vt 0.8330054 0.6802263
vt 0.798874 0.2251512
vt 0.9131336 0.6273783
vt 0.8893924 0.6460888
vt 0.7974877 0.239002
vt 0.7975261 0.232803
vt 0.7937583 0.2390529
vt 0.8038669 0.2126281
vt 0.8039615 0.2093867
vt 0.8726525 0.1624719
vt 0.8226974 0.1738941
vt 0.8682857 0.1408667
vt 0.8266594 0.1842743
vt 0.8193824 0.1555831
vt 0.8471475 0.1275738
vt 0.8023016 0.2084493
vt 0.81171 0.2082233
vt 0.8184307 0.2058899
vt 0.8328477 0.1943454
vt 0.8713716 0.6768893
vt 0.8093028 0.6500227
vt 0.8135592 0.6295894
vt 0.825438 0.605352
vt 0.8448296 0.5854077
vt 0.8085887 0.6246226
vt 0.7861016 0.6044217
vt 0.8411972 0.1971049
vt 0.849952 0.5833375
vn 0.9792491 -0.1010897 -0.1756473
vn 0.3476791 0.7992681 0.4901935
vn 0.6248496 0.6417864 0.4446047
vn 0.9266502 0.2031146 -0.316329
vn 0.8249624 -0.1945307 -0.5306551
vn 0.444381 -0.3573709 -0.8214692
vn -2.452908E-07 -0.4209857 -0.9070673
vn 0.9010578 0.3774105 -0.2136731
vn 0.2817758 0.93556 -0.2129079
vn 0.4390572 -0.013707 -0.8983545
vn 0.3778264 0.3849862 -0.842041
vn 0 0.001520579 -0.9999989
vn 0 0.3611685 -0.9325007
vn 0 0.7551135 -0.655594
vn 0 0.9765329 -0.2153686
vn 0.8160697 -0.01983896 -0.5776128
vn 0.7170863 0.3456948 -0.6052125
vn 0.9251105 0.3646494 0.1058363
vn 0.9843706 0.02886408 0.1737271
vn 0.9811226 0.01151081 -0.1930438
vn 0.9971731 0.004784601 0.07498676
vn 0.8876256 0.3374758 0.313418
vn 0.9824949 0.1750078 0.06384362
vn 0.9445479 0.245019 0.2186209
vn -1.834509E-07 -0.2781192 -0.9605466
vn 0.4600447 -0.2543538 -0.8506839
vn 0.8251358 -0.1876611 -0.5328547
vn 0.27158 0.7249336 -0.6330211
vn -1.282419E-07 -0.432967 -0.9014098
vn 0.8219191 -0.1889201 -0.5373622
vn 0.3371612 0.7190197 0.6077278
vn 0.9755662 -0.04053835 -0.2159336
vn 0.9795228 0.08948182 0.1803557
vn 0.4287305 -0.3751498 -0.8218592
vn 0.9719028 -0.07000139 -0.2247323
vn 0.3688686 -0.6245276 -0.6884048
vn 0.759977 -0.4122169 0.5025059
vn 0.1305411 0.8383024 -0.5293469
vn 0.3716223 0.704954 0.6040999
vn 0.6517943 -0.5903674 -0.4760572
vn 0.744137 -0.3650678 0.5594512
vn 0.4567311 0.7620608 -0.458977
vn 0.61086 0.4827715 0.6275204
vn 0.9161152 -0.0503438 0.3977418
vn 0.5937937 -0.03908754 -0.8036673
vn 0.04946364 0.05985763 -0.9969806
vn 0.6385451 0.590761 0.4932156
vn 0.9557013 0.2878214 0.06159434
vn 0.9597763 0.09002534 0.2659414
vn 0.9566979 0.01340702 0.2907735
vn 0.858433 0.3282348 0.3941506
vn 0.9392207 0.1046627 0.3269714
vn 0.995905 0.03088679 0.08496566
vn 0.9941088 0.08988926 -0.06056127
vn 0.000696537 0.8617639 0.507309
vn 0.00027871 0.7423059 0.6700611
vn 0.3146233 0.9269243 0.2045077
vn 0 0.9810925 0.1935391
vn 0.6665016 0.722934 0.1820495
vn 0.6274737 0.7489202 -0.2130618
vn 0.5069126 0.6183875 -0.6005302
vn 0.9851257 -0.02251621 -0.1703542
vn -0.9792491 -0.1010897 -0.1756476
vn -0.346964 0.8006939 0.4883701
vn -0.6257827 0.6412292 0.4440958
vn -0.9266503 0.2031146 -0.3163282
vn -0.8249621 -0.1945306 -0.5306554
vn -0.4443808 -0.3573706 -0.8214694
vn -0.9010577 0.3774105 -0.2136734
vn -0.2817758 0.93556 -0.2129079
vn -0.4390571 -0.01370697 -0.8983546
vn -0.3778262 0.384986 -0.842041
vn -0.8160694 -0.01983891 -0.5776133
vn -0.717086 0.3456946 -0.605213
vn -0.9251105 0.3646494 0.1058364
vn -0.9843706 0.02886407 0.1737271
vn -0.9811226 0.01151081 -0.1930442
vn -0.9971731 0.004784613 0.07498666
vn -0.8876256 0.337476 0.3134178
vn -0.9824949 0.1750077 0.06384409
vn -0.9445479 0.245019 0.2186207
vn -0.4600445 -0.254354 -0.8506839
vn -0.8251355 -0.1876611 -0.5328554
vn -0.27158 0.7249337 -0.6330209
vn -0.8219191 -0.1889198 -0.5373623
vn -0.3396324 0.7152491 0.6107935
vn -0.9755662 -0.0405381 -0.2159333
vn -0.9795228 0.08948184 0.1803556
vn -0.4287303 -0.375149 -0.8218598
vn -0.971903 -0.07000123 -0.2247319
vn -0.3688686 -0.624527 -0.6884054
vn -0.7599772 -0.4122172 0.5025055
vn -0.1305423 0.8383037 -0.5293447
vn -0.3716216 0.704953 0.6041017
vn -0.6517935 -0.5903667 -0.4760593
vn -0.7441376 -0.3650683 0.5594501
vn -0.4567321 0.7620619 -0.4589743
vn -0.6108589 0.4827705 0.627522
vn -0.9161155 -0.05034385 0.3977411
vn -0.5937933 -0.03908757 -0.8036676
vn -0.04946461 0.05985774 -0.9969805
vn -0.6407506 0.5873179 0.4944658
vn -0.9557013 0.2878213 0.06159554
vn -0.9597759 0.09002487 0.2659433
vn -0.9566979 0.01340701 0.2907736
vn -0.8584332 0.3282351 0.3941501
vn -0.9392207 0.1046627 0.3269716
vn -0.995905 0.03088687 0.08496571
vn -0.9941088 0.08988933 -0.06056164
vn -0.3146233 0.9269243 0.2045076
vn -0.6665015 0.722934 0.1820497
vn -0.6274736 0.7489202 -0.2130618
vn -0.5069124 0.6183873 -0.6005306
vn -0.9851257 -0.0225161 -0.1703541
vn 0.001379107 0.7698925 0.6381721
vn 0.3557172 0.7163487 0.6002582
vn -0.3396324 0.7152491 0.6107935
vn 0.8251358 -0.1876611 -0.5328547
vn 0.8160697 -0.01983896 -0.5776128
vn 0.7170863 0.3456948 -0.6052125
vn 0.27158 0.7249336 -0.6330211
vn 0 0.7551135 -0.655594
vn 0.5069126 0.6183875 -0.6005302
vn 0.8249624 -0.1945307 -0.5306551
vn -2.452908E-07 -0.4209857 -0.9070673
vn 0.444381 -0.3573709 -0.8214692
vn 0.9266502 0.2031146 -0.316329
vn 0.9445479 0.245019 0.2186209
vn 0.9445479 0.245019 0.2186209
vn 0.759977 -0.4122169 0.5025059
vn 0.9795228 0.08948182 0.1803557
vn 0.3716223 0.704954 0.6040999
vn 0.744137 -0.3650678 0.5594512
vn 0.61086 0.4827715 0.6275204
vn 0.9941088 0.08988926 -0.06056127
vn 0.8876256 0.3374758 0.313418
vn 0.6248496 0.6417864 0.4446047
vn 0.9843706 0.02886408 0.1737271
vn 0.995905 0.03088679 0.08496566
vn 0.9824949 0.1750078 0.06384362
vn 0.6248496 0.6417864 0.4446047
vn 0.6665016 0.722934 0.1820495
vn 0.6274737 0.7489202 -0.2130618
vn 0.5069126 0.6183875 -0.6005302
vn -0.8251355 -0.1876611 -0.5328554
vn -0.8160694 -0.01983891 -0.5776133
vn -0.9843706 0.02886407 0.1737271
vn -0.995905 0.03088687 0.08496571
vn -0.717086 0.3456946 -0.605213
vn -0.27158 0.7249337 -0.6330209
vn -0.5069124 0.6183873 -0.6005306
vn -0.8249621 -0.1945306 -0.5306554
vn -0.8249621 -0.1945306 -0.5306554
vn -0.9851257 -0.0225161 -0.1703541
vn -2.452908E-07 -0.4209857 -0.9070673
vn -0.4443808 -0.3573706 -0.8214694
vn -1.282419E-07 -0.432967 -0.9014098
vn -0.9266503 0.2031146 -0.3163282
vn -0.9445479 0.245019 0.2186207
vn -0.9445479 0.245019 0.2186207
vn -0.7599772 -0.4122172 0.5025055
vn -0.3716216 0.704953 0.6041017
vn -0.9795228 0.08948184 0.1803556
vn -0.7441376 -0.3650683 0.5594501
vn -0.6108589 0.4827705 0.627522
vn -0.9941088 0.08988933 -0.06056164
vn -0.8876256 0.337476 0.3134178
vn -0.6257827 0.6412292 0.4440958
vn 0.00027871 0.7423059 0.6700611
vn -0.9824949 0.1750077 0.06384409
vn -0.6257827 0.6412292 0.4440958
vn -0.6665015 0.722934 0.1820497
vn -0.6274736 0.7489202 -0.2130618
vn -0.5069124 0.6183873 -0.6005306
vn 0.9851257 -0.02251621 -0.1703542
vn 0.8249624 -0.1945307 -0.5306551
vn 0.3371612 0.7190197 0.6077278
vn -0.3545258 0.7196637 0.5969887
g shaved1_geo_0
f 6/6/6 118/118/118 5/5/5
f 26/26/26 118/118/118 6/6/6
f 7/7/7 26/26/26 6/6/6
f 25/25/25 26/26/26 7/7/7
f 82/82/82 25/25/25 7/7/7
f 12/12/12 25/25/25 82/82/82
f 71/71/71 12/12/12 82/82/82
f 13/13/13 12/12/12 71/71/71
f 72/72/72 13/13/13 71/71/71
f 14/14/14 13/13/13 72/72/72
f 84/84/84 14/14/14 72/72/72
f 36/36/36 37/37/37 33/33/33
f 40/40/40 37/37/37 36/36/36
f 45/45/45 40/40/40 36/36/36
f 41/41/41 40/40/40 45/45/45
f 44/44/44 41/41/41 45/45/45
f 43/43/43 41/41/41 44/44/44
f 42/42/42 43/43/43 44/44/44
f 38/38/38 43/43/43 42/42/42
f 46/46/46 38/38/38 42/42/42
f 127/127/127 38/38/38 46/46/46
f 35/35/35 127/127/127 46/46/46
f 62/62/62 127/127/127 35/35/35
f 32/32/32 62/62/62 35/35/35
f 124/124/124 62/62/62 32/32/32
f 30/30/30 124/124/124 32/32/32
f 126/126/126 124/124/124 30/30/30
f 34/34/34 126/126/126 30/30/30
f 125/125/125 126/126/126 34/34/34
f 29/29/29 125/125/125 34/34/34
f 39/39/39 127/127/127 128/128/128
f 38/38/38 127/127/127 39/39/39
f 43/43/43 38/38/38 39/39/39
f 132/132/132 133/133/133 134/134/134
f 130/130/130 133/133/133 132/132/132
f 129/129/129 130/130/130 132/132/132
f 131/131/131 130/130/130 129/129/129
f 23/23/23 49/49/49 48/48/48
f 33/33/33 23/23/23 48/48/48
f 135/135/135 23/23/23 33/33/33
f 128/128/128 135/135/135 33/33/33
f 54/54/54 53/53/53 140/140/140
f 19/19/19 53/53/53 54/54/54
f 24/24/24 19/19/19 54/54/54
f 21/21/21 19/19/19 24/24/24
f 4/4/4 21/21/21 24/24/24
f 20/20/20 21/21/21 4/4/4
f 1/1/1 20/20/20 4/4/4
f 27/27/27 20/20/20 1/1/1
f 176/176/176 27/27/27 1/1/1
f 21/21/21 22/22/22 19/19/19
f 18/18/18 22/22/22 21/21/21
f 8/8/8 18/18/18 21/21/21
f 143/143/143 18/18/18 8/8/8
f 120/120/120 143/143/143 8/8/8
f 144/144/144 143/143/143 120/120/120
f 68/68/68 82/82/82 7/7/7
f 83/83/83 82/82/82 68/68/68
f 67/67/67 83/83/83 68/68/68
f 89/89/89 155/155/155 157/157/157
f 156/156/156 155/155/155 89/89/89
f 85/85/85 156/156/156 89/89/89
f 152/152/152 156/156/156 85/85/85
f 87/87/87 152/152/152 85/85/85
f 114/114/114 152/152/152 87/87/87
f 90/90/90 114/114/114 87/87/87
f 158/158/158 114/114/114 90/90/90
f 101/101/101 158/158/158 90/90/90
f 93/93/93 158/158/158 101/101/101
f 97/97/97 93/93/93 101/101/101
f 98/98/98 93/93/93 97/97/97
f 99/99/99 98/98/98 97/97/97
f 96/96/96 98/98/98 99/99/99
f 100/100/100 96/96/96 99/99/99
f 95/95/95 96/96/96 100/100/100
f 91/91/91 95/95/95 100/100/100
f 92/92/92 95/95/95 91/91/91
f 88/88/88 92/92/92 91/91/91
f 94/94/94 93/93/93 98/98/98
f 158/158/158 93/93/93 94/94/94
f 159/159/159 158/158/158 94/94/94
f 162/162/162 165/165/165 164/164/164
f 161/161/161 162/162/162 164/164/164
f 160/160/160 162/162/162 161/161/161
f 163/163/163 160/160/160 161/161/161
f 80/80/80 103/103/103 104/104/104
f 88/88/88 103/103/103 80/80/80
f 166/166/166 88/88/88 80/80/80
f 159/159/159 88/88/88 166/166/166
f 63/63/63 145/145/145 153/153/153
f 77/77/77 145/145/145 63/63/63
f 66/66/66 77/77/77 63/63/63
f 78/78/78 77/77/77 66/66/66
f 81/81/81 78/78/78 66/66/66
f 76/76/76 78/78/78 81/81/81
f 109/109/109 76/76/76 81/81/81
f 108/108/108 76/76/76 109/109/109
f 170/170/170 108/108/108 109/109/109
f 78/78/78 76/76/76 79/79/79
f 75/75/75 78/78/78 79/79/79
f 69/69/69 78/78/78 75/75/75
f 173/173/173 69/69/69 75/75/75
f 149/149/149 69/69/69 173/173/173
f 174/174/174 149/149/149 173/173/173
f 20/20/20 120/120/120 8/8/8
f 16/16/16 120/120/120 20/20/20
f 27/27/27 16/16/16 20/20/20
f 10/10/10 118/118/118 26/26/26
f 119/119/119 118/118/118 10/10/10
f 11/11/11 119/119/119 10/10/10
f 17/17/17 119/119/119 11/11/11
f 61/61/61 17/17/17 11/11/11
f 57/57/57 59/59/59 60/60/60
f 3/3/3 59/59/59 57/57/57
f 2/2/2 3/3/3 57/57/57
f 116/116/116 3/3/3 2/2/2
f 55/55/55 116/116/116 2/2/2
f 115/115/115 116/116/116 55/55/55
f 178/178/178 115/115/115 55/55/55
f 12/12/12 26/26/26 25/25/25
f 10/10/10 26/26/26 12/12/12
f 13/13/13 10/10/10 12/12/12
f 11/11/11 10/10/10 13/13/13
f 14/14/14 11/11/11 13/13/13
f 28/28/28 11/11/11 14/14/14
f 61/61/61 11/11/11 28/28/28
f 15/15/15 122/122/122 150/150/150
f 121/121/121 122/122/122 15/15/15
f 9/9/9 121/121/121 15/15/15
f 123/123/123 121/121/121 9/9/9
f 60/60/60 123/123/123 9/9/9
f 35/35/35 48/48/48 32/32/32
f 33/33/33 48/48/48 35/35/35
f 36/36/36 33/33/33 35/35/35
f 41/41/41 37/37/37 40/40/40
f 139/139/139 49/49/49 23/23/23
f 50/50/50 49/49/49 139/139/139
f 138/138/138 50/50/50 139/139/139
f 52/52/52 50/50/50 138/138/138
f 136/136/136 52/52/52 138/138/138
f 51/51/51 52/52/52 136/136/136
f 47/47/47 51/51/51 136/136/136
f 31/31/31 177/177/177 169/169/169
f 137/137/137 177/177/177 31/31/31
f 47/47/47 137/137/137 31/31/31
f 136/136/136 137/137/137 47/47/47
f 18/18/18 141/141/141 22/22/22
f 142/142/142 141/141/141 18/18/18
f 143/143/143 142/142/142 18/18/18
f 77/77/77 73/73/73 145/145/145
f 149/149/149 73/73/73 77/77/77
f 69/69/69 149/149/149 77/77/77
f 72/72/72 74/74/74 113/113/113
f 146/146/146 74/74/74 72/72/72
f 71/71/71 146/146/146 72/72/72
f 83/83/83 146/146/146 71/71/71
f 82/82/82 83/83/83 71/71/71
f 167/167/167 106/106/106 102/102/102
f 107/107/107 106/106/106 167/167/167
f 147/147/147 107/107/107 167/167/167
f 105/105/105 107/107/107 147/147/147
f 148/148/148 105/105/105 147/147/147
f 104/104/104 105/105/105 148/148/148
f 80/80/80 104/104/104 148/148/148
f 58/58/58 55/55/55 2/2/2
f 64/64/64 55/55/55 58/58/58
f 110/110/110 64/64/64 58/58/58
f 65/65/65 64/64/64 110/110/110
f 111/111/111 65/65/65 110/110/110
f 84/84/84 72/72/72 113/113/113
f 70/70/70 150/150/150 151/151/151
f 112/112/112 70/70/70 151/151/151
f 110/110/110 70/70/70 112/112/112
f 111/111/111 110/110/110 112/112/112
f 63/63/63 154/154/154 66/66/66
f 153/153/153 154/154/154 63/63/63
f 90/90/90 88/88/88 91/91/91
f 103/103/103 88/88/88 90/90/90
f 87/87/87 103/103/103 90/90/90
f 95/95/95 92/92/92 96/96/96
f 169/169/169 56/56/56 31/31/31
f 86/86/86 56/56/56 169/169/169
f 117/117/117 86/86/86 169/169/169
f 102/102/102 86/86/86 117/117/117
f 168/168/168 102/102/102 117/117/117
f 167/167/167 102/102/102 168/168/168
f 75/75/75 172/172/172 173/173/173
f 171/171/171 172/172/172 75/75/75
f 79/79/79 171/171/171 75/75/75
f 175/175/175 1/1/1 4/4/4
f 176/176/176 1/1/1 175/175/175
f 178/178/178 64/64/64 65/65/65
f 55/55/55 64/64/64 178/178/178
f 20/20/20 8/8/8 21/21/21
f 57/57/57 58/58/58 2/2/2
f 9/9/9 58/58/58 57/57/57
f 60/60/60 9/9/9 57/57/57
f 46/46/46 36/36/36 35/35/35
f 45/45/45 36/36/36 46/46/46
f 42/42/42 45/45/45 46/46/46
f 44/44/44 45/45/45 42/42/42
f 58/58/58 70/70/70 110/110/110
f 15/15/15 70/70/70 58/58/58
f 9/9/9 15/15/15 58/58/58
f 78/78/78 69/69/69 77/77/77
f 15/15/15 150/150/150 70/70/70
f 101/101/101 90/90/90 91/91/91
f 100/100/100 101/101/101 91/91/91
f 97/97/97 101/101/101 100/100/100
f 99/99/99 97/97/97 100/100/100
