g sign_new1
v -0.3554112 0.2876124 0.03234889
v 0.3554112 0.2876124 0.03234889
v -0.3554112 0.7296286 0.03234889
v 0.3554112 0.7296286 0.03234889
v -0.3554112 0.7296286 1.311302E-08
v 0.3554112 0.7296286 1.311302E-08
v -0.3554112 0.2876124 1.311302E-08
v 0.3554112 0.2876124 1.311302E-08
v -0.05092201 -0.2033136 2.384186E-09
v 0.05092201 -0.2033136 2.384186E-09
v -0.05092201 0.7966864 2.384186E-09
v 0.05092201 0.7966864 2.384186E-09
v -0.05092201 0.7966864 -0.03234889
v 0.05092201 0.7966864 -0.03234889
v -0.05092201 -0.2033136 -0.03234889
v 0.05092201 -0.2033136 -0.03234889
v -0.3554112 0.7296286 0.03234889
v 0.3554112 0.7296286 0.03234889
v -0.3554112 0.7296286 1.311302E-08
v 0.3554112 0.7296286 1.311302E-08
v -0.3554112 0.2876124 1.311302E-08
v 0.3554112 0.2876124 0.03234889
v 0.3554112 0.2876124 1.311302E-08
v -0.3554112 0.2876124 0.03234889
v 0.3554112 0.2876124 0.03234889
v 0.3554112 0.7296286 1.311302E-08
v 0.3554112 0.2876124 1.311302E-08
v 0.3554112 0.7296286 0.03234889
v -0.3554112 0.2876124 1.311302E-08
v -0.3554112 0.7296286 0.03234889
v -0.3554112 0.2876124 0.03234889
v -0.3554112 0.7296286 1.311302E-08
v -0.05092201 0.7966864 2.384186E-09
v 0.05092201 0.7966864 2.384186E-09
v -0.05092201 0.7966864 -0.03234889
v 0.05092201 0.7966864 -0.03234889
v -0.05092201 -0.2033136 -0.03234889
v 0.05092201 -0.2033136 2.384186E-09
v 0.05092201 -0.2033136 -0.03234889
v -0.05092201 -0.2033136 2.384186E-09
v 0.05092201 -0.2033136 2.384186E-09
v 0.05092201 0.7966864 -0.03234889
v 0.05092201 -0.2033136 -0.03234889
v 0.05092201 0.7966864 2.384186E-09
v -0.05092201 -0.2033136 -0.03234889
v -0.05092201 0.7966864 2.384186E-09
v -0.05092201 -0.2033136 2.384186E-09
v -0.05092201 0.7966864 -0.03234889
vt 0 0.3441388
vt 0.9614868 0.3441388
vt 0 1
vt 0.9614868 1
vt 0.9860305 0.8754487
vt 0.9860305 0.8754484
vt 0.9917967 0.9042801
vt 0.9917967 0.9042798
vt 0 0.3441388
vt 0 0.1715412
vt 1 0.3441388
vt 0.9999999 0.1715412
vt 0 1
vt 0 1
vt 0 0.1715412
vt 0 -0.0008548398
vt 0.9860304 0.8754487
vt 0.9860304 0.8754484
vt 0.9917966 0.9042801
vt 0.9917966 0.9042798
vt 0.9860305 0.8754487
vt 0.9860305 0.8754484
vt 0.9860305 0.8754484
vt 0.9860305 0.8754487
vt 0.9814376 0.9345706
vt 0.9814373 0.9345707
vt 0.9814373 0.9345706
vt 0.9814376 0.9345707
vt 0.9814373 0.9345706
vt 0.9814374 0.9345707
vt 0.9814374 0.9345706
vt 0.9814373 0.9345707
vt 0 1
vt 0 1
vt 1 0.1715412
vt 0.9999999 -0.0008553677
vt 0 1
vt 0 1
vt 0 1
vt 0 1
vt 0.9923423 0.9945475
vt 0.9923422 0.9945476
vt 0.9923422 0.9945475
vt 0.9923423 0.9945476
vt 0.9923422 0.9945475
vt 0.9923422 0.9945476
vt 0.9923422 0.9945475
vt 0.9923422 0.9945476
vn 0 0 1
vn 0 0 1
vn 0 0 1
vn 0 0 1
vn 0 1 0
vn 0 1 0
vn 0 0 -1
vn 0 0 -1
vn 0 0 1
vn 0 0 1
vn 0 0 1
vn 0 0 1
vn 0 1 0
vn 0 1 0
vn 0 0 -1
vn 0 0 -1
vn 0 1 0
vn 0 1 0
vn 0 0 -1
vn 0 0 -1
vn 0 -1 0
vn 0 -1 0
vn 0 -1 0
vn 0 -1 0
vn 1 0 0
vn 1 0 0
vn 1 0 0
vn 1 0 0
vn -1 0 0
vn -1 0 0
vn -1 0 0
vn -1 0 0
vn 0 1 0
vn 0 1 0
vn 0 0 -1
vn 0 0 -1
vn 0 -1 0
vn 0 -1 0
vn 0 -1 0
vn 0 -1 0
vn 1 0 0
vn 1 0 0
vn 1 0 0
vn 1 0 0
vn -1 0 0
vn -1 0 0
vn -1 0 0
vn -1 0 0
g sign_new1_0
f 4/4/4 1/1/1 2/2/2
f 3/3/3 1/1/1 4/4/4
f 6/6/6 17/17/17 18/18/18
f 5/5/5 17/17/17 6/6/6
f 8/8/8 19/19/19 20/20/20
f 7/7/7 19/19/19 8/8/8
f 22/22/22 21/21/21 23/23/23
f 24/24/24 21/21/21 22/22/22
f 26/26/26 25/25/25 27/27/27
f 28/28/28 25/25/25 26/26/26
f 30/30/30 29/29/29 31/31/31
f 32/32/32 29/29/29 30/30/30
f 12/12/12 9/9/9 10/10/10
f 11/11/11 9/9/9 12/12/12
f 14/14/14 33/33/33 34/34/34
f 13/13/13 33/33/33 14/14/14
f 16/16/16 35/35/35 36/36/36
f 15/15/15 35/35/35 16/16/16
f 38/38/38 37/37/37 39/39/39
f 40/40/40 37/37/37 38/38/38
f 42/42/42 41/41/41 43/43/43
f 44/44/44 41/41/41 42/42/42
f 46/46/46 45/45/45 47/47/47
f 48/48/48 45/45/45 46/46/46
