g sign_broken
v 0.3137816 0.3775633 0.03234886
v 0.3137816 0.3775633 2.384186E-09
v -0.05092204 -0.2033136 2.384186E-09
v 0.05092204 -0.2033136 2.384186E-09
v -0.05092204 -0.2033136 -0.03234871
v 0.05092204 -0.2033136 -0.03234871
v -0.2459985 0.1399507 0.03234879
v -0.2459985 0.1399507 -7.390976E-08
v 0.173083 0.7090285 0.03234886
v 0.173083 0.7090285 2.384186E-09
v 0.06905406 0.6648708 0.03234879
v -0.1202457 0.2956052 0.03234886
v -0.1429196 0.4356574 0.03234886
v 0.01745809 0.4910549 0.03234886
v 0.1558119 0.5974213 0.03234886
v 0.06905406 0.6648708 2.384186E-09
v 0.1558119 0.5974213 2.384186E-09
v -0.1202457 0.2956052 -1.502037E-07
v -0.1429196 0.4356574 -1.502037E-07
v 0.01745809 0.4910549 -1.502037E-07
v 0.06905406 0.6648708 0.03234894
v 0.1558119 0.5974213 0.03234894
v 0.173083 0.7090285 0.03234894
v -0.2459985 0.1399507 0.03234886
v -0.1202457 0.2956052 0.03234879
v -0.1429196 0.4356574 0.03234879
v 0.01745809 0.4910549 0.03234879
v -0.05092204 0.5915588 7.867813E-08
v 0.05092204 0.4743041 2.384186E-09
v -0.01331231 0.5482581 2.384186E-09
v 0.05092204 0.699404 2.384186E-09
v -0.05092204 0.5923897 -0.03234871
v 0.05092204 0.4507841 -0.03234901
v -0.00774858 0.5323606 -0.03234871
v 0.05092204 0.7255618 -0.03234871
v -0.05092204 -0.2033136 -0.03234871
v 0.05092204 -0.2033136 -0.03234871
v 0.05092204 0.4507841 -0.03234901
v 0.05092204 -0.2033136 -0.03234871
v 0.05092204 -0.2033136 2.384186E-09
v -0.05092204 -0.2033136 -0.03234871
v -0.05092204 -0.2033136 2.384186E-09
v -0.05092204 0.5923897 -0.03234871
v 0.3137816 0.3775633 2.384186E-09
v 0.3137816 0.3775633 2.384186E-09
v -0.2459985 0.1399507 -7.390976E-08
v 0.3137816 0.3775633 0.03234886
v 0.3137816 0.3775633 0.03234886
v 0.173083 0.7090285 0.03234886
v 0.173083 0.7090285 2.384186E-09
v 0.1558119 0.5974213 0.03234894
v 0.1558119 0.5974213 2.384186E-09
v -0.1202457 0.2956052 -1.502037E-07
v -0.2459985 0.1399507 -7.390976E-08
v -0.1202457 0.2956052 0.03234879
v -0.1202457 0.2956052 -1.502037E-07
v -0.1429196 0.4356574 0.03234879
v -0.1429196 0.4356574 -1.502037E-07
v 0.06905406 0.6648708 2.384186E-09
v 0.01745809 0.4910549 0.03234879
v 0.01745809 0.4910549 -1.502037E-07
v 0.06905406 0.6648708 0.03234894
v 0.05092204 0.4743041 2.384186E-09
v 0.05092204 -0.2033136 2.384186E-09
v -0.05092204 -0.2033136 2.384186E-09
v -0.05092204 0.5915588 7.867813E-08
v 0.05092204 0.699404 2.384186E-09
v 0.05092204 0.7255618 -0.03234871
v 0.05092204 0.7255618 -0.03234871
v -0.01331231 0.5482581 2.384186E-09
v -0.00774858 0.5323606 -0.03234871
v 0.05092204 0.699404 2.384186E-09
v -0.05092204 0.5915588 7.867813E-08
v -0.00774858 0.5323606 -0.03234871
v -0.01331231 0.5482581 2.384186E-09
v -0.05092204 0.5923897 -0.03234871
v 0.173083 0.7090285 2.384186E-09
v 0.1558119 0.5974213 2.384186E-09
v -0.2459985 0.1399507 0.03234879
v 0.06905406 0.6648708 2.384186E-09
v 0.01745809 0.4910549 -1.502037E-07
v -0.1429196 0.4356574 -1.502037E-07
vt 0.9814376 0.9345706
vt 0.9814373 0.9345706
vt 0 1
vt 0 1
vt 0 0.1715412
vt 0 -0.0008548398
vt 0.9860306 0.8754486
vt 0.9917967 0.9042801
vt 0.9814376 0.9345707
vt 0.9814373 0.9345707
vt 0.8086211 0.8784394
vt 0.377758 0.4838309
vt 0.4235466 0.6882653
vt 0.6525133 0.6709481
vt 0.8809959 0.736015
vt 0.9860306 0.8777553
vt 0.9860306 0.8777553
vt 0.9917967 0.90428
vt 0.9814175 0.9054334
vt 0.9860301 0.8777553
vt 0.98603 0.8777553
vt 0.98603 0.8777553
vt 0.9814174 0.9054333
vt 0.9860302 0.8777553
vt 0.9860302 0.8777553
vt 0.9814173 0.9054334
vt 0.9860303 0.8777553
vt 0.9923422 0.9945475
vt 0.9909816 0.9742454
vt 0.7515718 0.2804007
vt 0.9909816 0.9742453
vt 0.7957033 0.1715412
vt 0.6540976 -0.0008551851
vt 0.7356742 0.09845937
vt 0.9909816 0.9742453
vt 0 1
vt 0 1
vt 0.9909816 0.9742455
vt 0.9909816 0.9742453
vt 0.9909816 0.9742453
vt 0.9923422 0.9945475
vt 0.9923422 0.9945475
vt 0.9923422 0.9945476
vt 0.9917967 0.9042798
vt 0.9860305 0.8754484
vt 0.9860305 0.8754486
vt 0.9860305 0.8754484
vt 0.9614868 0.3441388
vt 0.9614868 0.8784394
vt 0.9814173 0.9054333
vt 0.9814174 0.9054332
vt 0.9814173 0.9054332
vt 0.9860303 0.8777553
vt 0.9860303 0.8777553
vt 0.9814173 0.9054332
vt 0.9814175 0.9054332
vt 0.9860303 0.8777553
vt 0.9860301 0.8777553
vt 0.9814175 0.9054334
vt 0.9814175 0.9054332
vt 0.9814175 0.9054332
vt 0.9814175 0.9054334
vt 0.6776177 0.1715412
vt 0 0.1715412
vt 0 0.3441388
vt 0.7948725 0.3441388
vt 0.9027175 0.1715412
vt 0.9288753 -0.0008553301
vt 0.9909816 0.9742455
vt 0.9909816 0.9742453
vt 0.9909816 0.9742453
vt 0.9909816 0.9742455
vt 0.9909816 0.9742454
vt 0.9909816 0.9742453
vt 0.9909815 0.9742453
vt 0.9909816 0.9742454
vt 0.9917966 0.9042798
vt 0.9917966 0.9042798
vt 0.1389154 0.3441388
vt 0.9917966 0.9042798
vt 0.9917967 0.9042799
vt 0.9917967 0.90428
vn 0.920505 0.3907307 0
vn 0.920505 0.3907307 0
vn 0 -1 0
vn 0 -1 0
vn -2.645549E-06 -1.212625E-07 -1
vn -2.645549E-06 -1.212625E-07 -1
vn 0.3907323 -0.9205044 0
vn 0 -9.135433E-07 -1
vn 0.920505 0.3907307 0
vn 0.920505 0.3907307 0
vn 3.711422E-07 1.604654E-07 1
vn 0 -5.783859E-07 1
vn -2.510136E-07 0 1
vn 3.711422E-07 1.604654E-07 1
vn -2.278732E-06 0 1
vn 0.6137763 0.7894799 0
vn 0.6137763 0.7894799 0
vn 0 -9.135433E-07 -1
vn -0.987147 -0.1598153 0
vn -0.3264907 0.9452004 0
vn 0.6137763 0.7894799 0
vn 0.6137763 0.7894799 0
vn -0.9882372 0.1529286 0
vn -0.7778637 0.6284329 0
vn -0.7778637 0.6284329 0
vn -0.987147 -0.1598153 0
vn -0.3264907 0.9452004 0
vn -1 0 0
vn 1 0 0
vn 6.511962E-07 0 1
vn 1 0 0
vn -2.645549E-06 -1.212625E-07 -1
vn -2.645549E-06 -1.212625E-07 -1
vn -2.645549E-06 -1.212625E-07 -1
vn 1 0 0
vn 0 -1 0
vn 0 -1 0
vn 1 0 0
vn 1 0 0
vn 1 0 0
vn -1 0 0
vn -1 0 0
vn -1 0 0
vn 0 -9.135433E-07 -1
vn 0.3907323 -0.9205044 0
vn 0.3907323 -0.9205044 0
vn 0.3907323 -0.9205044 0
vn -2.278732E-06 0 1
vn -2.278732E-06 0 1
vn -0.9882372 0.1529286 0
vn -0.9882372 0.1529286 0
vn -0.9882372 0.1529286 0
vn -0.7778637 0.6284329 0
vn -0.7778637 0.6284329 0
vn -0.987147 -0.1598153 0
vn -0.987147 -0.1598153 0
vn -0.3264907 0.9452004 0
vn -0.3264907 0.9452004 0
vn -0.9586552 0.2845701 0
vn -0.9586552 0.2845701 0
vn -0.9586552 0.2845701 0
vn -0.9586552 0.2845701 0
vn 6.511962E-07 0 1
vn 6.511962E-07 0 1
vn 6.511962E-07 0 1
vn 6.511962E-07 0 1
vn 0 0 1
vn -2.271586E-06 1.110628E-06 -1
vn -0.9414471 0.3360233 -0.02767138
vn -0.9414471 0.3360233 -0.02767138
vn -0.9414471 0.3360233 -0.02767138
vn -0.9414471 0.3360233 -0.02767138
vn 0.7855685 0.6141554 -0.07546831
vn 0.7855685 0.6141554 -0.07546831
vn 0.7855685 0.6141554 -0.07546831
vn 0.7855685 0.6141554 -0.07546831
vn 1.139366E-06 0 -1
vn 1.139366E-06 0 -1
vn 0 -5.783859E-07 1
vn 0 5.676795E-07 -1
vn 0 5.676795E-07 -1
vn 5.020273E-07 -2.160345E-07 -1
g sign_broken_0
f 10/10/10 1/1/1 2/2/2
f 9/9/9 1/1/1 10/10/10
f 33/33/33 34/34/34 68/68/68
f 5/5/5 34/34/34 33/33/33
f 6/6/6 5/5/5 33/33/33
f 32/32/32 34/34/34 5/5/5
f 4/4/4 36/36/36 37/37/37
f 3/3/3 36/36/36 4/4/4
f 29/29/29 35/35/35 31/31/31
f 38/38/38 35/35/35 29/29/29
f 40/40/40 38/38/38 29/29/29
f 39/39/39 38/38/38 40/40/40
f 28/28/28 41/41/41 42/42/42
f 43/43/43 41/41/41 28/28/28
f 44/44/44 82/82/82 81/81/81
f 18/18/18 82/82/82 44/44/44
f 8/8/8 18/18/18 44/44/44
f 45/45/45 7/7/7 46/46/46
f 47/47/47 7/7/7 45/45/45
f 14/14/14 13/13/13 12/12/12
f 48/48/48 14/14/14 12/12/12
f 15/15/15 14/14/14 48/48/48
f 49/49/49 15/15/15 48/48/48
f 21/21/21 17/17/17 16/16/16
f 22/22/22 17/17/17 21/21/21
f 51/51/51 50/50/50 52/52/52
f 23/23/23 50/50/50 51/51/51
f 24/24/24 53/53/53 54/54/54
f 25/25/25 53/53/53 24/24/24
f 55/55/55 19/19/19 56/56/56
f 26/26/26 19/19/19 55/55/55
f 57/57/57 20/20/20 58/58/58
f 27/27/27 20/20/20 57/57/57
f 60/60/60 59/59/59 61/61/61
f 62/62/62 59/59/59 60/60/60
f 30/30/30 64/64/64 63/63/63
f 65/65/65 64/64/64 30/30/30
f 66/66/66 65/65/65 30/30/30
f 67/67/67 30/30/30 63/63/63
f 70/70/70 69/69/69 71/71/71
f 72/72/72 69/69/69 70/70/70
f 74/74/74 73/73/73 75/75/75
f 76/76/76 73/73/73 74/74/74
f 44/44/44 78/78/78 77/77/77
f 80/80/80 78/78/78 44/44/44
f 81/81/81 80/80/80 44/44/44
f 12/12/12 79/79/79 48/48/48
f 11/11/11 14/14/14 15/15/15
