g slinkyBloody_geo
v 0.1007874 0 -0.05134121
v 0.07369313 0 -0.08920654
v 0.03454086 0 -0.1102203
v -0.008914928 0 -0.1102203
v -0.04806724 0 -0.08920661
v -0.07516146 0 -0.05134125
v -0.08483129 0 -0.004123904
v -0.07516146 0 0.04309345
v -0.04806724 0 0.08095878
v -0.008914962 0 0.1019725
v 0.03454082 0 0.1019725
v 0.07369317 0 0.08095878
v 0.1007874 0 0.04309345
v 0.1104573 0 -0.004123883
v 0.2326415 0.06396847 -0.0478368
v 0.2600867 0.07503719 -0.08619896
v 0.300572 0.08994758 -0.1074884
v 0.3466504 0.1049965 -0.1074884
v 0.3891954 0.117203 -0.08619903
v 0.4192091 0.1248999 -0.04783684
v 0.430034 0.1274983 -2.054665E-08
v 0.4192091 0.1248999 0.04783684
v 0.3891955 0.117203 0.08619903
v 0.3466504 0.1049965 0.1074884
v 0.3005721 0.08994761 0.1074884
v 0.2600867 0.07503713 0.08619903
v 0.2326415 0.06396847 0.04783684
v 0.2229597 0.05986952 1.760888E-10
v 0.1060855 0.005851646 0.04571579
v 0.07777341 0.007705653 0.08568413
v 0.03686132 0.01038476 0.1078648
v -0.0085477 0.01335835 0.1078648
v -0.04945983 0.01603747 0.08568413
v -0.07777188 0.01789147 0.04571579
v -0.08787627 0.01855315 -0.004123904
v -0.07777181 0.01789146 -0.05396358
v -0.04945976 0.01603746 -0.09393188
v -0.008547651 0.01335835 -0.1161126
v 0.03686135 0.01038476 -0.1161126
v 0.07777341 0.007705653 -0.09393188
v 0.1060855 0.005851646 -0.05396355
v 0.11619 0.005189961 -0.004123883
v 0.2264561 0.06697686 0.04983967
v 0.2542841 0.07951483 0.08980796
v 0.2953932 0.09645596 0.1119888
v 0.3422616 0.1136304 0.1119888
v 0.3856066 0.1276363 0.08980796
v 0.4162226 0.1365143 0.04983967
v 0.4272722 0.1395214 -2.159035E-08
v 0.4162226 0.1365143 -0.04983971
v 0.3856066 0.1276363 -0.08980796
v 0.3422616 0.1136303 -0.1119888
v 0.2953932 0.09645595 -0.1119888
v 0.2542841 0.07951489 -0.08980796
v 0.2264561 0.06697686 -0.04983963
v 0.2166473 0.06234082 8.881784E-18
v 0.1318938 0.07337627 8.881784E-18
v 0.1256117 0.08265204 0.04983967
v 0.1080095 0.1086422 0.08980796
v 0.0825737 0.1461991 0.1119888
v 0.05434203 0.1878841 0.1119888
v 0.02890616 0.225441 0.08980796
v 0.01130403 0.2514311 0.04983967
v 0.005021891 0.2607069 -2.159035E-08
v 0.01130403 0.2514311 -0.04983971
v 0.0289062 0.2254409 -0.08980796
v 0.05434205 0.187884 -0.1119888
v 0.08257373 0.146199 -0.1119888
v 0.1080095 0.1086422 -0.08980796
v 0.1256117 0.08265204 -0.04983963
v 0.1665182 0.1107475 -0.009925012
v 0.1695992 0.1207298 0.03991466
v 0.178232 0.1486995 0.07988304
v 0.1907067 0.1891169 0.1020638
v 0.2045527 0.2339768 0.1020637
v 0.2170274 0.2743942 0.07988296
v 0.2256602 0.3023639 0.03991466
v 0.2287411 0.3123461 -0.009925034
v 0.2256601 0.3023638 -0.05976471
v 0.2170274 0.2743942 -0.09973305
v 0.2045526 0.2339768 -0.1219138
v 0.1907067 0.1891169 -0.1219138
v 0.178232 0.1486996 -0.09973297
v 0.1695992 0.1207298 -0.05976467
v 0.20372 0.1094931 -0.05480215
v 0.2245717 0.1313539 -0.09477047
v 0.2551521 0.1623543 -0.1169512
v 0.289715 0.1959468 -0.1169512
v 0.3214148 0.2254778 -0.09477051
v 0.3436624 0.2455061 -0.05480221
v 0.351664 0.2525733 -0.004962528
v 0.3436624 0.2455061 0.04487716
v 0.3214149 0.2254778 0.08484547
v 0.289715 0.1959468 0.1070262
v 0.2551521 0.1623543 0.1070263
v 0.2245717 0.1313538 0.08484551
v 0.20372 0.1094931 0.04487716
v 0.1963396 0.1016103 -0.004962506
v 0.1422234 0.1112803 -0.05480215
v 0.1394502 0.1407911 -0.09477047
v 0.1354427 0.1834352 -0.1169512
v 0.1309948 0.2307667 -0.1169512
v 0.1269874 0.2734109 -0.09477051
v 0.1242142 0.3029216 -0.05480221
v 0.1232244 0.3134539 -0.004962528
v 0.1242142 0.3029217 0.04487716
v 0.1269874 0.273411 0.08484547
v 0.1309948 0.2307667 0.1070262
v 0.1354427 0.1834352 0.1070263
v 0.1394502 0.140791 0.08484551
v 0.1422234 0.1112803 0.04487716
v 0.1432132 0.1007481 -0.004962506
v 0.1218961 0.04369371 -0.002061942
v 0.112592 0.04952691 -0.05190159
v 0.08652248 0.06587122 -0.09186993
v 0.04885098 0.08948938 -0.1140507
v 0.007038727 0.1157036 -0.1140507
v -0.03063281 0.1393218 -0.09186993
v -0.05670233 0.1556661 -0.05190165
v -0.06600644 0.1614993 -0.002061963
v -0.05670236 0.1556661 0.04777773
v -0.03063287 0.1393218 0.08774605
v 0.007038688 0.1157036 0.1099268
v 0.04885095 0.0894894 0.1099268
v 0.08652248 0.06587122 0.08774605
v 0.112592 0.04952691 0.04777773
v -0.008914928 0 -0.1102203
v -0.008547651 0.01335835 -0.1161126
v 0.007038727 0.1157036 -0.1140507
v 0.3466504 0.1049965 -0.1074884
v 0.3422616 0.1136303 -0.1119888
v 0.1309948 0.2307667 -0.1169512
v 0.05434205 0.187884 -0.1119888
v 0.289715 0.1959468 -0.1169512
v 0.2045526 0.2339768 -0.1219138
vt 1 0.7837967
vt 1 0.8547459
vt 1 0.9256951
vt 1 1
vt 0.9999999 0.07430492
vt 1 0.1452541
vt 1 0.2162033
vt 1 0.2871525
vt 1 0.3581016
vt 1 0.4290508
vt 1 0.5
vt 1 0.5709492
vt 1 0.6418983
vt 1 0.7128476
vt 0 0.7837967
vt 0 0.8547459
vt 0 0.925695
vt 0 0
vt 0 0.07430488
vt 0 0.1452541
vt 0 0.2162033
vt 0 0.2871524
vt 0 0.3581016
vt 0 0.4290508
vt 0 0.5
vt 0 0.5709492
vt 0 0.6418984
vt 0 0.7128475
vt 0.9804454 0.6418983
vt 0.9804454 0.5709492
vt 0.9804454 0.5
vt 0.9804454 0.4290508
vt 0.9804454 0.3581016
vt 0.9804454 0.2871525
vt 0.9804454 0.2162033
vt 0.9804454 0.1452541
vt 0.9804453 0.07430492
vt 0.9804454 1
vt 0.9804454 0.925695
vt 0.9804454 0.8547459
vt 0.9804454 0.7837966
vt 0.9804454 0.7128476
vt 0.01958294 0.6418984
vt 0.01958294 0.5709492
vt 0.01958294 0.5
vt 0.01958294 0.4290508
vt 0.01958294 0.3581016
vt 0.01958294 0.2871524
vt 0.01958294 0.2162033
vt 0.01958294 0.1452541
vt 0.01958294 0.07430488
vt 0.01958294 0
vt 0.01958294 0.925695
vt 0.01958294 0.8547459
vt 0.01958294 0.7837967
vt 0.01958294 0.7128475
vt 0.6747782 0.7128476
vt 0.6747782 0.6418983
vt 0.6747782 0.5709492
vt 0.6747782 0.5
vt 0.6747782 0.4290508
vt 0.6747782 0.3581016
vt 0.6747782 0.2871524
vt 0.6747782 0.2162033
vt 0.6747782 0.1452541
vt 0.6747782 0.07430491
vt 0.6747782 0
vt 0.6747782 0.925695
vt 0.6747782 0.8547459
vt 0.6747782 0.7837967
vt 0.3912232 0.7128476
vt 0.3912232 0.6418984
vt 0.3912232 0.5709492
vt 0.3912232 0.5
vt 0.3912232 0.4290508
vt 0.3912232 0.3581016
vt 0.3912232 0.2871524
vt 0.3912232 0.2162033
vt 0.3912232 0.1452541
vt 0.3912232 0.07430489
vt 0.3912232 0
vt 0.3912232 0.925695
vt 0.3912232 0.8547459
vt 0.3912232 0.7837967
vt 0.2054031 0.7837967
vt 0.2054031 0.8547459
vt 0.2054031 0.925695
vt 0.2054031 0
vt 0.2054031 0.07430489
vt 0.2054031 0.1452541
vt 0.2054031 0.2162033
vt 0.2054031 0.2871524
vt 0.2054031 0.3581016
vt 0.2054031 0.4290508
vt 0.2054031 0.5
vt 0.2054031 0.5709492
vt 0.2054031 0.6418984
vt 0.2054031 0.7128476
vt 0.5330007 0.7837967
vt 0.5330007 0.8547459
vt 0.5330007 0.925695
vt 0.5330007 0
vt 0.5330007 0.0743049
vt 0.5330007 0.1452541
vt 0.5330007 0.2162033
vt 0.5330007 0.2871524
vt 0.5330007 0.3581016
vt 0.5330007 0.4290508
vt 0.5330007 0.5
vt 0.5330007 0.5709492
vt 0.5330007 0.6418984
vt 0.5330007 0.7128476
vt 0.8276118 0.7128476
vt 0.8276118 0.7837967
vt 0.8276118 0.8547459
vt 0.8276118 0.925695
vt 0.8276118 0
vt 0.8276117 0.07430491
vt 0.8276118 0.1452541
vt 0.8276118 0.2162033
vt 0.8276118 0.2871525
vt 0.8276118 0.3581016
vt 0.8276118 0.4290508
vt 0.8276118 0.5
vt 0.8276118 0.5709492
vt 0.8276118 0.6418983
vt 1 0
vt 0.9804454 0
vt 0.8276118 1
vt 0 1
vt 0.01958294 1
vt 0.5330007 1
vt 0.6747782 1
vt 0.2054031 1
vt 0.3912232 1
vn 0.6519027 -0.6969475 -0.2988093
vn 0.4999632 -0.6235046 -0.6010649
vn 0.1857809 -0.516534 -0.8358697
vn -0.2434487 -0.3903483 -0.887897
vn -0.6442969 -0.2727908 -0.7144695
vn -0.9012165 -0.1941328 -0.3874549
vn -0.9858959 -0.1673591 -3.722887E-07
vn -0.9012161 -0.194136 0.3874542
vn -0.6442966 -0.2727941 0.7144685
vn -0.2434489 -0.3903485 0.8878968
vn 0.185781 -0.5165324 0.8358706
vn 0.4999637 -0.6235033 0.6010658
vn 0.6519032 -0.6969471 0.2988095
vn 0.6899595 -0.7238479 0
vn -0.3435608 -0.884841 -0.3146785
vn -0.2191811 -0.7630944 -0.6079856
vn 0.01093011 -0.5623921 -0.8267985
vn 0.3250746 -0.3052011 -0.895086
vn 0.6492922 -0.04502578 -0.7592052
vn 0.8888268 0.1473927 -0.4338919
vn 0.9759998 0.2177712 0
vn 0.888827 0.1473924 0.4338917
vn 0.649292 -0.0450227 0.7592054
vn 0.3250744 -0.305199 0.8950866
vn 0.01092999 -0.5623895 0.8268003
vn -0.2191825 -0.7630923 0.6079876
vn -0.3435618 -0.8848407 0.3146783
vn -0.3801278 -0.924934 -1.81048E-07
vn 0.8166281 -0.4469727 0.3651493
vn 0.5974743 -0.3891021 0.7011591
vn 0.2170534 -0.2981087 0.9295262
vn -0.2519566 -0.1906444 0.9487743
vn -0.6630201 -0.09412104 0.7426611
vn -0.9172959 -0.03113082 0.3969873
vn -0.9999663 -0.008222979 -5.040609E-05
vn -0.9171031 -0.02511167 -0.3978585
vn -0.6614022 -0.08170338 -0.745568
vn -0.2468909 -0.1719389 -0.9536676
vn 0.226228 -0.2750213 -0.9344432
vn 0.6082782 -0.3662642 -0.704165
vn 0.8243384 -0.4319704 -0.3658796
vn 0.8869465 -0.4618721 0.0001817008
vn -0.6190924 -0.6846763 0.3846335
vn -0.4280909 -0.5454872 0.7205428
vn -0.1166857 -0.32981 0.9368083
vn 0.2561961 -0.07028586 0.9640661
vn 0.6001998 0.1727571 0.7809707
vn 0.8352832 0.3392588 0.4326724
vn 0.9193801 0.3933704 -8.576498E-05
vn 0.8416143 0.3241795 -0.4319641
vn 0.6137064 0.1423948 -0.7765875
vn 0.2799572 -0.1132325 -0.9533113
vn -0.0805212 -0.378062 -0.9222719
vn -0.3866901 -0.5888689 -0.7097213
vn -0.5902945 -0.7113299 -0.3815259
vn -0.6715879 -0.7409247 -0.0003540849
vn 0.9181201 -0.3963004 -0.001220739
vn 0.8322886 -0.4123095 0.3705353
vn 0.5675944 -0.3684225 0.7362754
vn 0.2076758 -0.1505791 0.9665385
vn -0.134446 0.1736239 0.9755916
vn -0.4034927 0.4850971 0.7758057
vn -0.5742834 0.6994145 0.4254621
vn -0.6345333 0.7728955 2.252953E-06
vn -0.5821941 0.6944417 -0.4228483
vn -0.423409 0.4792857 -0.7687718
vn -0.1707187 0.1701422 -0.9705189
vn 0.158609 -0.1574952 -0.9746991
vn 0.5269147 -0.3884194 -0.7559705
vn 0.8168733 -0.4320771 -0.3821355
vn 0.02916775 -0.9995741 -0.0009218527
vn 0.002972193 -0.9122354 0.4096559
vn -0.03358348 -0.6416175 0.7662893
vn -0.01421335 -0.2232589 0.9746556
vn 0.05899362 0.243704 0.9680538
vn 0.1451682 0.6402453 0.754329
vn 0.2070999 0.8900848 0.406028
vn 0.2275235 0.9737726 -1.145843E-06
vn 0.2019819 0.889895 -0.4090113
vn 0.1327319 0.6331851 -0.7625344
vn 0.03736551 0.2235673 -0.9739721
vn -0.04166146 -0.2498014 -0.9674004
vn -0.05715177 -0.6586729 -0.7502558
vn -0.008910489 -0.9154635 -0.4023025
vn -0.5462645 -0.719972 -0.4280601
vn -0.3565142 -0.5251853 -0.7727082
vn -0.09983578 -0.2177846 -0.9708773
vn 0.1858177 0.1400415 -0.9725533
vn 0.4404177 0.4615249 -0.7700824
vn 0.6068792 0.6753164 -0.4191007
vn 0.6565698 0.7542652 -0.0001830751
vn 0.5833511 0.6967083 0.4174913
vn 0.3930688 0.5073076 0.7669002
vn 0.1138239 0.2108052 0.9708787
vn -0.1937213 -0.1299295 0.9724147
vn -0.4556658 -0.4382934 0.7747694
vn -0.6143013 -0.6623341 0.4288908
vn -0.642036 -0.7666743 0.0003478942
vn 0.5237347 -0.7532535 -0.3978834
vn 0.2479601 -0.5956509 -0.764013
vn 0.01662689 -0.2299623 -0.9730575
vn -0.1186975 0.2204063 -0.968159
vn -0.1863384 0.6221272 -0.7604182
vn -0.2111221 0.886175 -0.4124576
vn -0.2062205 0.9785055 0.000154996
vn -0.1745193 0.8932615 0.4142787
vn -0.1094747 0.6341714 0.7654031
vn 0.002394322 0.2349426 0.9720063
vn 0.1756537 -0.2069909 0.9624451
vn 0.4049146 -0.5474305 0.7323689
vn 0.6125051 -0.6970874 0.3727016
vn 0.6726247 -0.7399756 -0.003492476
vn 0.9690422 -0.2468939 0.0006985466
vn 0.8901334 -0.2238268 -0.3969432
vn 0.6380181 -0.1693329 -0.751172
vn 0.2404023 -0.05276794 -0.969238
vn -0.2079351 0.1028048 -0.9727251
vn -0.593187 0.248383 -0.7657905
vn -0.8412428 0.3457804 -0.4156276
vn -0.9266798 0.3758516 -0.0001104494
vn -0.8467906 0.3333885 0.4144851
vn -0.6063846 0.2236242 0.7630793
vn -0.230494 0.06598609 0.9708339
vn 0.2118514 -0.09999951 0.9721724
vn 0.6135823 -0.2198955 0.7583948
vn 0.8782552 -0.2593653 0.4017431
vn -0.2434487 -0.3903483 -0.887897
vn -0.2468909 -0.1719389 -0.9536676
vn -0.2079351 0.1028048 -0.9727251
vn 0.3250746 -0.3052011 -0.895086
vn 0.2799572 -0.1132325 -0.9533113
vn -0.1186975 0.2204063 -0.968159
vn -0.1707187 0.1701422 -0.9705189
vn 0.1858177 0.1400415 -0.9725533
vn 0.03736551 0.2235673 -0.9739721
g slinkyBloody_geo_0
f 37/37/37 128/128/128 127/127/127
f 5/5/5 37/37/37 127/127/127
f 36/36/36 37/37/37 5/5/5
f 6/6/6 36/36/36 5/5/5
f 35/35/35 36/36/36 6/6/6
f 7/7/7 35/35/35 6/6/6
f 34/34/34 35/35/35 7/7/7
f 8/8/8 34/34/34 7/7/7
f 33/33/33 34/34/34 8/8/8
f 9/9/9 33/33/33 8/8/8
f 32/32/32 33/33/33 9/9/9
f 10/10/10 32/32/32 9/9/9
f 31/31/31 32/32/32 10/10/10
f 11/11/11 31/31/31 10/10/10
f 30/30/30 31/31/31 11/11/11
f 12/12/12 30/30/30 11/11/11
f 29/29/29 30/30/30 12/12/12
f 13/13/13 29/29/29 12/12/12
f 42/42/42 29/29/29 13/13/13
f 14/14/14 42/42/42 13/13/13
f 41/41/41 42/42/42 14/14/14
f 1/1/1 41/41/41 14/14/14
f 40/40/40 41/41/41 1/1/1
f 2/2/2 40/40/40 1/1/1
f 39/39/39 40/40/40 2/2/2
f 3/3/3 39/39/39 2/2/2
f 38/38/38 39/39/39 3/3/3
f 4/4/4 38/38/38 3/3/3
f 53/53/53 131/131/131 130/130/130
f 17/17/17 53/53/53 130/130/130
f 54/54/54 53/53/53 17/17/17
f 16/16/16 54/54/54 17/17/17
f 55/55/55 54/54/54 16/16/16
f 15/15/15 55/55/55 16/16/16
f 56/56/56 55/55/55 15/15/15
f 28/28/28 56/56/56 15/15/15
f 43/43/43 56/56/56 28/28/28
f 27/27/27 43/43/43 28/28/28
f 44/44/44 43/43/43 27/27/27
f 26/26/26 44/44/44 27/27/27
f 45/45/45 44/44/44 26/26/26
f 25/25/25 45/45/45 26/26/26
f 46/46/46 45/45/45 25/25/25
f 24/24/24 46/46/46 25/25/25
f 47/47/47 46/46/46 24/24/24
f 23/23/23 47/47/47 24/24/24
f 48/48/48 47/47/47 23/23/23
f 22/22/22 48/48/48 23/23/23
f 49/49/49 48/48/48 22/22/22
f 21/21/21 49/49/49 22/22/22
f 50/50/50 49/49/49 21/21/21
f 20/20/20 50/50/50 21/21/21
f 51/51/51 50/50/50 20/20/20
f 19/19/19 51/51/51 20/20/20
f 52/52/52 51/51/51 19/19/19
f 18/18/18 52/52/52 19/19/19
f 39/39/39 38/38/38 129/129/129
f 116/116/116 39/39/39 129/129/129
f 40/40/40 39/39/39 116/116/116
f 115/115/115 40/40/40 116/116/116
f 41/41/41 40/40/40 115/115/115
f 114/114/114 41/41/41 115/115/115
f 42/42/42 41/41/41 114/114/114
f 113/113/113 42/42/42 114/114/114
f 29/29/29 42/42/42 113/113/113
f 126/126/126 29/29/29 113/113/113
f 30/30/30 29/29/29 126/126/126
f 125/125/125 30/30/30 126/126/126
f 31/31/31 30/30/30 125/125/125
f 124/124/124 31/31/31 125/125/125
f 32/32/32 31/31/31 124/124/124
f 123/123/123 32/32/32 124/124/124
f 33/33/33 32/32/32 123/123/123
f 122/122/122 33/33/33 123/123/123
f 34/34/34 33/33/33 122/122/122
f 121/121/121 34/34/34 122/122/122
f 35/35/35 34/34/34 121/121/121
f 120/120/120 35/35/35 121/121/121
f 36/36/36 35/35/35 120/120/120
f 119/119/119 36/36/36 120/120/120
f 37/37/37 36/36/36 119/119/119
f 118/118/118 37/37/37 119/119/119
f 128/128/128 37/37/37 118/118/118
f 117/117/117 128/128/128 118/118/118
f 68/68/68 133/133/133 132/132/132
f 101/101/101 68/68/68 132/132/132
f 69/69/69 68/68/68 101/101/101
f 100/100/100 69/69/69 101/101/101
f 70/70/70 69/69/69 100/100/100
f 99/99/99 70/70/70 100/100/100
f 57/57/57 70/70/70 99/99/99
f 112/112/112 57/57/57 99/99/99
f 58/58/58 57/57/57 112/112/112
f 111/111/111 58/58/58 112/112/112
f 59/59/59 58/58/58 111/111/111
f 110/110/110 59/59/59 111/111/111
f 60/60/60 59/59/59 110/110/110
f 109/109/109 60/60/60 110/110/110
f 61/61/61 60/60/60 109/109/109
f 108/108/108 61/61/61 109/109/109
f 62/62/62 61/61/61 108/108/108
f 107/107/107 62/62/62 108/108/108
f 63/63/63 62/62/62 107/107/107
f 106/106/106 63/63/63 107/107/107
f 64/64/64 63/63/63 106/106/106
f 105/105/105 64/64/64 106/106/106
f 65/65/65 64/64/64 105/105/105
f 104/104/104 65/65/65 105/105/105
f 66/66/66 65/65/65 104/104/104
f 103/103/103 66/66/66 104/104/104
f 67/67/67 66/66/66 103/103/103
f 102/102/102 67/67/67 103/103/103
f 82/82/82 135/135/135 134/134/134
f 87/87/87 82/82/82 134/134/134
f 83/83/83 82/82/82 87/87/87
f 86/86/86 83/83/83 87/87/87
f 84/84/84 83/83/83 86/86/86
f 85/85/85 84/84/84 86/86/86
f 71/71/71 84/84/84 85/85/85
f 98/98/98 71/71/71 85/85/85
f 72/72/72 71/71/71 98/98/98
f 97/97/97 72/72/72 98/98/98
f 73/73/73 72/72/72 97/97/97
f 96/96/96 73/73/73 97/97/97
f 74/74/74 73/73/73 96/96/96
f 95/95/95 74/74/74 96/96/96
f 75/75/75 74/74/74 95/95/95
f 94/94/94 75/75/75 95/95/95
f 76/76/76 75/75/75 94/94/94
f 93/93/93 76/76/76 94/94/94
f 77/77/77 76/76/76 93/93/93
f 92/92/92 77/77/77 93/93/93
f 78/78/78 77/77/77 92/92/92
f 91/91/91 78/78/78 92/92/92
f 79/79/79 78/78/78 91/91/91
f 90/90/90 79/79/79 91/91/91
f 80/80/80 79/79/79 90/90/90
f 89/89/89 80/80/80 90/90/90
f 81/81/81 80/80/80 89/89/89
f 88/88/88 81/81/81 89/89/89
f 51/51/51 52/52/52 88/88/88
f 89/89/89 51/51/51 88/88/88
f 50/50/50 51/51/51 89/89/89
f 90/90/90 50/50/50 89/89/89
f 49/49/49 50/50/50 90/90/90
f 91/91/91 49/49/49 90/90/90
f 48/48/48 49/49/49 91/91/91
f 92/92/92 48/48/48 91/91/91
f 47/47/47 48/48/48 92/92/92
f 93/93/93 47/47/47 92/92/92
f 46/46/46 47/47/47 93/93/93
f 94/94/94 46/46/46 93/93/93
f 45/45/45 46/46/46 94/94/94
f 95/95/95 45/45/45 94/94/94
f 44/44/44 45/45/45 95/95/95
f 96/96/96 44/44/44 95/95/95
f 43/43/43 44/44/44 96/96/96
f 97/97/97 43/43/43 96/96/96
f 56/56/56 43/43/43 97/97/97
f 98/98/98 56/56/56 97/97/97
f 55/55/55 56/56/56 98/98/98
f 85/85/85 55/55/55 98/98/98
f 54/54/54 55/55/55 85/85/85
f 86/86/86 54/54/54 85/85/85
f 53/53/53 54/54/54 86/86/86
f 87/87/87 53/53/53 86/86/86
f 131/131/131 53/53/53 87/87/87
f 134/134/134 131/131/131 87/87/87
f 80/80/80 81/81/81 102/102/102
f 103/103/103 80/80/80 102/102/102
f 79/79/79 80/80/80 103/103/103
f 104/104/104 79/79/79 103/103/103
f 78/78/78 79/79/79 104/104/104
f 105/105/105 78/78/78 104/104/104
f 77/77/77 78/78/78 105/105/105
f 106/106/106 77/77/77 105/105/105
f 76/76/76 77/77/77 106/106/106
f 107/107/107 76/76/76 106/106/106
f 75/75/75 76/76/76 107/107/107
f 108/108/108 75/75/75 107/107/107
f 74/74/74 75/75/75 108/108/108
f 109/109/109 74/74/74 108/108/108
f 73/73/73 74/74/74 109/109/109
f 110/110/110 73/73/73 109/109/109
f 72/72/72 73/73/73 110/110/110
f 111/111/111 72/72/72 110/110/110
f 71/71/71 72/72/72 111/111/111
f 112/112/112 71/71/71 111/111/111
f 84/84/84 71/71/71 112/112/112
f 99/99/99 84/84/84 112/112/112
f 83/83/83 84/84/84 99/99/99
f 100/100/100 83/83/83 99/99/99
f 82/82/82 83/83/83 100/100/100
f 101/101/101 82/82/82 100/100/100
f 135/135/135 82/82/82 101/101/101
f 132/132/132 135/135/135 101/101/101
f 66/66/66 67/67/67 117/117/117
f 118/118/118 66/66/66 117/117/117
f 65/65/65 66/66/66 118/118/118
f 119/119/119 65/65/65 118/118/118
f 64/64/64 65/65/65 119/119/119
f 120/120/120 64/64/64 119/119/119
f 63/63/63 64/64/64 120/120/120
f 121/121/121 63/63/63 120/120/120
f 62/62/62 63/63/63 121/121/121
f 122/122/122 62/62/62 121/121/121
f 61/61/61 62/62/62 122/122/122
f 123/123/123 61/61/61 122/122/122
f 60/60/60 61/61/61 123/123/123
f 124/124/124 60/60/60 123/123/123
f 59/59/59 60/60/60 124/124/124
f 125/125/125 59/59/59 124/124/124
f 58/58/58 59/59/59 125/125/125
f 126/126/126 58/58/58 125/125/125
f 57/57/57 58/58/58 126/126/126
f 113/113/113 57/57/57 126/126/126
f 70/70/70 57/57/57 113/113/113
f 114/114/114 70/70/70 113/113/113
f 69/69/69 70/70/70 114/114/114
f 115/115/115 69/69/69 114/114/114
f 68/68/68 69/69/69 115/115/115
f 116/116/116 68/68/68 115/115/115
f 133/133/133 68/68/68 116/116/116
f 129/129/129 133/133/133 116/116/116
