g smartPhone_geo
v -0.0767382 -0.01428558 0.1532768
v 0.0767382 -0.01428558 0.1532768
v -0.0767382 0.01684757 0.1532768
v 0.0767382 0.01684757 0.1532768
v -0.0767382 0.01684757 -0.03996724
v 0.0767382 0.01684757 -0.03996724
v -0.0767382 -0.01428558 -0.03996724
v 0.0767382 -0.01428558 -0.03996724
v -0.05316509 -0.01428558 0.1728553
v 0.05316509 -0.01428558 0.1728553
v 0.05316509 0.01684757 0.1728553
v -0.05316509 0.01684757 0.1728553
v -0.05316509 0.01684757 -0.05954568
v 0.05316509 0.01684757 -0.05954568
v 0.05316509 -0.01428558 -0.05954568
v -0.05316509 -0.01428558 -0.05954568
v -0.06379922 0.01684757 0.1396881
v 0.06379922 0.01684757 0.1396881
v 0.06379922 0.01684757 0.06078536
v -0.06379922 0.01684757 0.06078536
v -0.0436417 0.01684757 0.1567615
v 0.0436417 0.01684757 0.1567615
v 0.0436417 0.01684757 0.04371188
v -0.0436417 0.01684757 0.04371188
v -0.05737934 0.01684757 0.1363204
v 0.05737934 0.01684757 0.1363204
v 0.05737934 0.01684757 0.06415301
v -0.05737934 0.01684757 0.06415301
v -0.06379922 0.02005794 0.01900855
v 0.06379922 0.02005794 0.01900855
v 0.06379922 0.02005794 -0.02923151
v -0.06379922 0.02005794 -0.02923151
v -0.0436417 0.02005794 0.03608199
v 0.0436417 0.02005794 0.03608199
v 0.0436417 0.02005794 -0.04630496
v -0.0436417 0.02005794 -0.04630496
v 0.06933774 0.01684757 0.02230132
v 0.06933774 0.01684757 -0.03252428
v -0.06933774 0.01684757 0.02230132
v -0.06933774 0.01684757 -0.03252428
v -0.04771818 0.01684757 0.04077826
v 0.04771818 0.01684757 0.04077826
v 0.04771818 0.01684757 -0.05100122
v -0.04771818 0.01684757 -0.05100122
v 0.007739048 -0.02005798 0.1415856
v -0.008157806 -0.02005798 0.1424186
v -0.01227783 -0.02005798 0.1577948
v 0.001072674 -0.02005798 0.1664648
v 0.01344383 -0.02005798 0.1564469
v 0.0003639746 -0.02005798 0.1529421
v 0.009254665 -0.02005798 0.1023703
v -0.01057518 -0.02005798 0.1034095
v -0.01571457 -0.02005798 0.12259
v 0.0009389877 -0.02005798 0.1334049
v 0.01637085 -0.02005798 0.1209085
v 5.496114E-05 -0.02005798 0.1165366
v -0.01828403 -0.01764992 0.1720456
v 0.018284 -0.01764992 0.1720456
v -0.01828403 -0.01428555 0.1720456
v 0.018284 -0.01428555 0.1720456
v -0.01828403 -0.01428555 0.09219743
v 0.018284 -0.01428555 0.09219743
v -0.01828403 -0.01764992 0.09219743
v 0.018284 -0.01764992 0.09219743
v 0.04665534 -0.004421746 0.2033522
v 0.05549883 -0.004421746 0.2033522
v 0.04665534 0.004421746 0.2033522
v 0.05549883 0.004421746 0.2033522
v 0.04113206 0.00994502 0.1609504
v 0.0610221 0.00994502 0.1609504
v 0.04113206 -0.00994502 0.1609504
v 0.0610221 -0.00994502 0.1609504
v 0.0767382 -0.01428558 0.1532768
v 0.0767382 -0.01428558 -0.03996724
v -0.0767382 -0.01428558 0.1532768
v -0.0767382 -0.01428558 -0.03996724
v 0.05316509 -0.01428558 0.1728553
v -0.05316509 -0.01428558 0.1728553
v -0.05316509 -0.01428558 -0.05954568
v 0.05316509 -0.01428558 -0.05954568
v 0.0767382 0.01684757 0.1532768
v 0.06379922 0.01684757 0.06078536
v 0.0767382 0.01684757 -0.03996724
v 0.06379922 0.01684757 0.1396881
v -0.0767382 0.01684757 -0.03996724
v -0.06379922 0.01684757 0.06078536
v -0.0767382 0.01684757 0.1532768
v -0.06379922 0.01684757 0.1396881
v -0.0436417 0.01684757 0.1567615
v -0.05316509 0.01684757 0.1728553
v 0.0436417 0.01684757 0.1567615
v 0.05316509 0.01684757 0.1728553
v 0.0436417 0.01684757 0.04371188
v 0.05316509 0.01684757 -0.05954568
v -0.0436417 0.01684757 0.04371188
v -0.05316509 0.01684757 -0.05954568
v 0.05737934 0.01684757 0.1363204
v -0.05737934 0.01684757 0.1363204
v 0.05737934 0.01684757 0.06415301
v -0.05737934 0.01684757 0.06415301
vt 0.008413851 0.9524235
vt 0.008413851 0.9524235
vt 0.005421817 0.9575927
vt 0.005421817 0.9575927
vt 0.005421817 0.9575927
vt 0.005421817 0.9575927
vt 0.008413851 0.9510464
vt 0.008413851 0.9510464
vt 0.00487788 0.9597685
vt 0.00487788 0.9597685
vt 0.00487788 0.9597685
vt 0.00487788 0.9597685
vt 0.00487788 0.9597685
vt 0.00487788 0.9597685
vt 0.00487788 0.9597685
vt 0.00487788 0.9597685
vt 0.07763183 0.9299738
vt 0.07763183 0.9299738
vt 0.07763183 0.9299738
vt 0.07763183 0.9299738
vt 0.07763183 0.9299738
vt 0.07763183 0.9299738
vt 0.07763183 0.9299738
vt 0.07763183 0.9299738
vt 0.6622508 0.3537445
vt 0.6622508 0.3537445
vt 0.6622508 0.2924811
vt 0.6622508 0.2924811
vt 0.06036235 0.9518642
vt 0.06036235 0.9518641
vt 0.06036234 0.9518641
vt 0.06036234 0.9518642
vt 0.06036236 0.9518642
vt 0.06036236 0.9518641
vt 0.06036237 0.9518641
vt 0.06036237 0.9518642
vt 0.06036236 0.9403085
vt 0.06036234 0.9403085
vt 0.06036236 0.9403086
vt 0.06036234 0.9403086
vt 0.06036235 0.9403086
vt 0.06036235 0.9403085
vt 0.06036237 0.9403085
vt 0.06036237 0.9403086
vt 0.004758167 0.9898039
vt 0.004758168 0.9898039
vt 0.004758179 0.9898039
vt 0.004758179 0.9898039
vt 0.004758179 0.9898039
vt 0.004758179 0.9898039
vt 0 1
vt 0 1
vt 0 1
vt 0 1
vt 0 1
vt 0 1
vt 0.03535298 0.9560886
vt 0.03535298 0.9560887
vt 0.03535298 0.9560886
vt 0.03535298 0.9560887
vt 0.03535298 0.9560886
vt 0.03535298 0.9560887
vt 0.03535298 0.9560886
vt 0.03535298 0.9560887
vt 0.07849576 0.9896716
vt 0.07849576 0.9896716
vt 0.07849576 0.9896716
vt 0.07849576 0.9896716
vt 0.07849577 0.9518008
vt 0.07849577 0.9518009
vt 0.07849574 0.9518008
vt 0.07849574 0.9518009
vt 0.005421817 0.9575927
vt 0.005421817 0.9575927
vt 0.005421817 0.9575927
vt 0.005421817 0.9575927
vt 0.008413851 0.9524235
vt 0.008413851 0.9524235
vt 0.008413851 0.9510464
vt 0.008413851 0.9510464
vt 0.008957788 0.9594947
vt 0.008957788 0.9594947
vt 0.008957788 0.9594947
vt 0.008957788 0.9594947
vt 0.008957788 0.9594947
vt 0.008957788 0.9594947
vt 0.008957788 0.9594947
vt 0.008957788 0.9594947
vt 0.008957788 0.9594947
vt 0.008957788 0.9594947
vt 0.008957788 0.9594947
vt 0.008957788 0.9594947
vt 0.008957788 0.9594947
vt 0.008957788 0.9594947
vt 0.008957788 0.9594947
vt 0.008957788 0.9594947
vt 0.07763183 0.9299738
vt 0.07763183 0.9299738
vt 0.07763183 0.9299738
vt 0.07763183 0.9299738
vn -0.6075131 -0.7413598 0.2851554
vn 0.6075131 -0.7413598 0.2851554
vn -0.6075131 0.7413598 0.2851553
vn 0.6075131 0.7413598 0.2851554
vn -0.6075131 0.7413598 -0.2851553
vn 0.6075131 0.7413598 -0.2851553
vn -0.6075131 -0.7413598 -0.2851554
vn 0.6075131 -0.7413598 -0.2851554
vn -0.2999058 -0.469398 0.830495
vn 0.2999058 -0.469398 0.830495
vn 0.2327017 0.728427 0.6443943
vn -0.2327017 0.728427 0.6443943
vn -0.2327018 0.728427 -0.6443943
vn 0.2327018 0.728427 -0.6443943
vn 0.299906 -0.469398 -0.830495
vn -0.299906 -0.469398 -0.830495
vn 0 1 0
vn 0 1 0
vn 0 1 0
vn 0 1 0
vn 0 1 0
vn 0 1 0
vn 0 1 0
vn 0 1 0
vn 0 1 0
vn 0 1 0
vn 0 1 0
vn 0 1 0
vn -0.2079357 0.973864 0.09138732
vn 0.2079356 0.973864 0.09138732
vn 0.2079357 0.973864 -0.0913874
vn -0.2079358 0.973864 -0.09138738
vn -0.1040812 0.942238 0.3183624
vn 0.1040812 0.942238 0.3183624
vn 0.1040814 0.9422377 -0.3183631
vn -0.1040814 0.9422377 -0.3183631
vn 0.40908 0.8946112 0.1797899
vn 0.4090801 0.8946111 -0.1797901
vn -0.4090801 0.8946112 0.1797899
vn -0.4090802 0.894611 -0.17979
vn -0.1524648 0.8713583 0.4663574
vn 0.1524648 0.8713583 0.4663574
vn 0.152465 0.8713577 -0.4663585
vn -0.152465 0.8713577 -0.4663584
vn 0 -1 0
vn 0 -1 0
vn 0 -1 0
vn 0 -1 0
vn 0 -1 -1.367156E-07
vn 0 -1 0
vn 0 -1 0
vn 0 -1 0
vn 0 -1 1.043358E-07
vn 0 -1 0
vn 0 -1 0
vn 0 -1 0
vn -0.5773503 -0.5773503 0.5773503
vn 0.5773503 -0.5773503 0.5773503
vn -0.7071068 0 0.7071068
vn 0.7071068 0 0.7071068
vn -0.7071068 0 -0.7071068
vn 0.7071068 0 -0.7071068
vn -0.5773503 -0.5773503 -0.5773503
vn 0.5773503 -0.5773503 -0.5773503
vn -0.5262952 -0.5262953 0.6678522
vn 0.5262952 -0.5262953 0.6678522
vn -0.5262952 0.5262953 0.6678522
vn 0.5262952 0.5262953 0.6678522
vn -0.6954057 0.6954058 0.1811675
vn 0.6954058 0.6954058 0.1811675
vn -0.6954057 -0.6954058 0.1811675
vn 0.6954058 -0.6954058 0.1811675
vn 0.6075131 -0.7413598 0.2851554
vn 0.6075131 -0.7413598 -0.2851554
vn -0.6075131 -0.7413598 0.2851554
vn -0.6075131 -0.7413598 -0.2851554
vn 0.2999058 -0.469398 0.830495
vn -0.2999058 -0.469398 0.830495
vn -0.299906 -0.469398 -0.830495
vn 0.299906 -0.469398 -0.830495
vn 0.6075131 0.7413598 0.2851554
vn 0 1 0
vn 0.6075131 0.7413598 -0.2851553
vn 0 1 0
vn -0.6075131 0.7413598 -0.2851553
vn 0 1 0
vn -0.6075131 0.7413598 0.2851553
vn 0 1 0
vn 0 1 0
vn -0.2327017 0.728427 0.6443943
vn 0 1 0
vn 0.2327017 0.728427 0.6443943
vn 0 1 0
vn 0.2327018 0.728427 -0.6443943
vn 0 1 0
vn -0.2327018 0.728427 -0.6443943
vn 0 1 0
vn 0 1 0
vn 0 1 0
vn 0 1 0
g smartPhone_geo_0
f 25/25/25 27/27/27 28/28/28
f 26/26/26 27/27/27 25/25/25
f 8/8/8 79/79/79 80/80/80
f 7/7/7 79/79/79 8/8/8
f 2/2/2 7/7/7 8/8/8
f 1/1/1 7/7/7 2/2/2
f 77/77/77 1/1/1 2/2/2
f 78/78/78 1/1/1 77/77/77
f 17/17/17 97/97/97 98/98/98
f 18/18/18 97/97/97 17/17/17
f 21/21/21 18/18/18 17/17/17
f 22/22/22 18/18/18 21/21/21
f 19/19/19 100/100/100 99/99/99
f 20/20/20 100/100/100 19/19/19
f 23/23/23 20/20/20 19/19/19
f 24/24/24 20/20/20 23/23/23
f 9/9/9 12/12/12 3/3/3
f 11/11/11 12/12/12 9/9/9
f 10/10/10 11/11/11 9/9/9
f 73/73/73 11/11/11 10/10/10
f 13/13/13 16/16/16 76/76/76
f 15/15/15 16/16/16 13/13/13
f 14/14/14 15/15/15 13/13/13
f 6/6/6 15/15/15 14/14/14
f 73/73/73 4/4/4 11/11/11
f 6/6/6 4/4/4 73/73/73
f 74/74/74 6/6/6 73/73/73
f 15/15/15 6/6/6 74/74/74
f 3/3/3 75/75/75 9/9/9
f 76/76/76 75/75/75 3/3/3
f 5/5/5 76/76/76 3/3/3
f 13/13/13 76/76/76 5/5/5
f 95/95/95 96/96/96 85/85/85
f 94/94/94 96/96/96 95/95/95
f 93/93/93 94/94/94 95/95/95
f 83/83/83 94/94/94 93/93/93
f 82/82/82 83/83/83 93/93/93
f 81/81/81 83/83/83 82/82/82
f 84/84/84 81/81/81 82/82/82
f 91/91/91 81/81/81 84/84/84
f 86/86/86 95/95/95 85/85/85
f 87/87/87 86/86/86 85/85/85
f 88/88/88 86/86/86 87/87/87
f 89/89/89 88/88/88 87/87/87
f 91/91/91 92/92/92 81/81/81
f 90/90/90 92/92/92 91/91/91
f 89/89/89 90/90/90 91/91/91
f 87/87/87 90/90/90 89/89/89
f 97/97/97 19/19/19 99/99/99
f 18/18/18 19/19/19 97/97/97
f 98/98/98 20/20/20 17/17/17
f 100/100/100 20/20/20 98/98/98
f 31/31/31 38/38/38 43/43/43
f 30/30/30 38/38/38 31/31/31
f 29/29/29 30/30/30 31/31/31
f 33/33/33 30/30/30 29/29/29
f 41/41/41 33/33/33 29/29/29
f 34/34/34 33/33/33 41/41/41
f 42/42/42 34/34/34 41/41/41
f 30/30/30 34/34/34 42/42/42
f 37/37/37 30/30/30 42/42/42
f 38/38/38 30/30/30 37/37/37
f 29/29/29 39/39/39 41/41/41
f 40/40/40 39/39/39 29/29/29
f 32/32/32 40/40/40 29/29/29
f 44/44/44 40/40/40 32/32/32
f 36/36/36 44/44/44 32/32/32
f 43/43/43 44/44/44 36/36/36
f 35/35/35 43/43/43 36/36/36
f 31/31/31 43/43/43 35/35/35
f 32/32/32 31/31/31 35/35/35
f 29/29/29 31/31/31 32/32/32
f 50/50/50 45/45/45 49/49/49
f 46/46/46 45/45/45 50/50/50
f 47/47/47 46/46/46 50/50/50
f 50/50/50 48/48/48 47/47/47
f 49/49/49 48/48/48 50/50/50
f 56/56/56 51/51/51 55/55/55
f 52/52/52 51/51/51 56/56/56
f 53/53/53 52/52/52 56/56/56
f 56/56/56 54/54/54 53/53/53
f 55/55/55 54/54/54 56/56/56
f 58/58/58 60/60/60 57/57/57
f 62/62/62 60/60/60 58/58/58
f 64/64/64 62/62/62 58/58/58
f 61/61/61 62/62/62 64/64/64
f 63/63/63 61/61/61 64/64/64
f 59/59/59 61/61/61 63/63/63
f 57/57/57 59/59/59 63/63/63
f 60/60/60 59/59/59 57/57/57
f 68/68/68 67/67/67 65/65/65
f 70/70/70 67/67/67 68/68/68
f 66/66/66 70/70/70 68/68/68
f 72/72/72 70/70/70 66/66/66
f 65/65/65 72/72/72 66/66/66
f 71/71/71 72/72/72 65/65/65
f 67/67/67 71/71/71 65/65/65
f 69/69/69 71/71/71 67/67/67
f 70/70/70 69/69/69 67/67/67
f 34/34/34 30/30/30 33/33/33
f 36/36/36 32/32/32 35/35/35
f 58/58/58 63/63/63 64/64/64
f 57/57/57 63/63/63 58/58/58
f 66/66/66 68/68/68 65/65/65
