g spiceySausage_geo
v 0.08603647 0.0317135 0.5
v -0.002617865 0.004609136 0.5
v -0.09027227 0.03479097 0.5
v -0.1434457 0.1107306 0.5
v -0.1418278 0.2034216 0.5
v -0.0860365 0.2774591 0.5
v 0.00261786 0.3045635 0.5
v 0.09027226 0.2743817 0.5
v 0.1434457 0.1984421 0.5
v 0.1418278 0.1057511 0.5
v 0.08603645 0.03171349 -0.5
v -0.002617865 0.004609136 -0.5
v -0.09027227 0.03479099 -0.5
v -0.1434457 0.1107306 -0.5
v -0.1418278 0.2034216 -0.5
v -0.08603645 0.2774592 -0.5
v 0.002617884 0.3045635 -0.5
v 0.09027227 0.2743817 -0.5
v 0.1434457 0.1984421 -0.5
v 0.1418278 0.1057511 -0.5
v 0.1242276 0.1925666 0.5749999
v 0.07817808 0.2583322 0.5749999
v 0.002267122 0.2844704 0.5749999
v -0.07450979 0.2609974 0.5749999
v -0.1228265 0.1968789 0.5749999
v -0.1242276 0.1166061 0.5749999
v -0.07817808 0.0508405 0.5749999
v -0.002267132 0.02470227 0.5749999
v 0.07450977 0.04817534 0.5749999
v 0.1228265 0.1122938 0.5749999
v 0.0837832 0.1802015 0.6299037
v 0.05272587 0.2245559 0.6299037
v 0.001529026 0.2421844 0.6299037
v -0.05025186 0.2263534 0.6299037
v -0.08283823 0.1831098 0.6299037
v -0.08378322 0.1289712 0.6299037
v -0.05272585 0.08461674 0.6299037
v -0.001529016 0.06698825 0.6299037
v 0.05025183 0.08281926 0.6299037
v 0.08283822 0.1260629 0.6299037
v 0.01795986 0.1542728 0.6618838
v 0.005848055 0.1715703 0.6618838
v -0.01434557 0.1653965 0.6618838
v -0.01471409 0.1442834 0.6618838
v 0.005251755 0.1374086 0.6618838
v 0.04350301 0.1538985 0.7049393
v 0.0130243 0.1974266 0.7049393
v 2.845072E-09 0.1545863 0.6577045
v -0.03779183 0.1818905 0.7049393
v -0.03871923 0.1287606 0.7049393
v 0.01152374 0.1114605 0.7049393
v -0.07450976 0.2609974 -0.5749999
v 0.002267156 0.2844704 -0.5749999
v 0.07817811 0.2583322 -0.5749999
v 0.1242277 0.1925665 -0.5749999
v 0.1228265 0.1122938 -0.5749999
v 0.07450976 0.04817532 -0.5749999
v -0.002267136 0.02470227 -0.5749999
v -0.07817808 0.0508405 -0.5749999
v -0.1242276 0.1166061 -0.5749999
v -0.1228265 0.1968789 -0.5749999
v -0.05025183 0.2263534 -0.6299037
v 0.00152904 0.2421844 -0.6299037
v 0.05272588 0.2245559 -0.6299037
v 0.08378322 0.1802014 -0.6299037
v 0.08283821 0.1260628 -0.6299037
v 0.05025183 0.08281923 -0.6299037
v -0.001529028 0.06698826 -0.6299037
v -0.05272587 0.08461673 -0.6299037
v -0.0837832 0.1289712 -0.6299037
v -0.08283821 0.1831098 -0.6299037
v -0.005251748 0.1717641 -0.6618838
v 0.0147141 0.1648893 -0.6618838
v 0.01434556 0.1437762 -0.6618838
v -0.005848049 0.1376024 -0.6618838
v -0.01795985 0.1548998 -0.6618838
v -0.01083275 0.1944598 -0.7049393
v 2.845072E-09 0.1545863 -0.6557865
v 0.03560854 0.1784688 -0.7049393
v 0.03475131 0.1293589 -0.7049393
v -0.01221978 0.1149984 -0.7049393
v -0.04039229 0.155233 -0.7049393
v 0.1349137 0.1081318 0.288095
v 0.1349137 0.1081318 -0.2880951
v 0.1364527 0.1963041 0.288095
v 0.1364527 0.1963041 -0.2880951
v 0.08587147 0.2685416 0.288095
v 0.08587147 0.2685416 -0.2880951
v 0.002490244 0.2972521 0.288095
v 0.002490244 0.2972521 -0.2880951
v -0.08184217 0.2714691 0.288095
v -0.08184217 0.2714691 -0.2880951
v -0.1349137 0.2010408 0.288095
v -0.1349137 0.2010408 -0.2880951
v -0.1364527 0.1128685 0.288095
v -0.1364527 0.1128685 -0.2880951
v -0.0858715 0.04063102 0.288095
v -0.0858715 0.040631 -0.2880951
v -0.002490268 0.01192052 0.288095
v -0.002490268 0.01192052 -0.2880951
v 0.08184218 0.03770354 0.288095
v 0.08184218 0.03770354 -0.2880951
v -0.1434457 0.1107306 0.5
v -0.1364527 0.1128685 0.288095
v 0.00261786 0.3045635 0.5
v 0.002490244 0.2972521 0.288095
v 0.1434457 0.1984421 0.5
v 0.1364527 0.1963041 0.288095
v 0.08603647 0.0317135 0.5
v 0.08184218 0.03770354 0.288095
v 0.002267122 0.2844704 0.5749999
v -0.1242276 0.1166061 0.5749999
v 0.07450977 0.04817534 0.5749999
v 0.1242276 0.1925666 0.5749999
v 0.1242276 0.1925666 0.5749999
v 0.07817808 0.2583322 0.5749999
v 0.002267122 0.2844704 0.5749999
v -0.07450979 0.2609974 0.5749999
v -0.1228265 0.1968789 0.5749999
v -0.1242276 0.1166061 0.5749999
v -0.07817808 0.0508405 0.5749999
v -0.002267132 0.02470227 0.5749999
v 0.07450977 0.04817534 0.5749999
v 0.05025183 0.08281926 0.6299037
v 0.1228265 0.1122938 0.5749999
v 0.07450977 0.04817534 0.5749999
v 0.1242276 0.1925666 0.5749999
v 0.0837832 0.1802015 0.6299037
v 0.08283822 0.1260629 0.6299037
v 0.1434457 0.1984421 -0.5
v 0.1242277 0.1925665 -0.5749999
v -0.002617865 0.004609136 -0.5
v -0.002267136 0.02470227 -0.5749999
v -0.1434457 0.1107306 -0.5
v -0.1242276 0.1166061 -0.5749999
v -0.08603645 0.2774592 -0.5
v -0.07450976 0.2609974 -0.5749999
v 0.002267156 0.2844704 -0.5749999
v -0.07450976 0.2609974 -0.5749999
v 0.07817811 0.2583322 -0.5749999
v 0.1242277 0.1925665 -0.5749999
v 0.1228265 0.1122938 -0.5749999
v 0.07450976 0.04817532 -0.5749999
v -0.002267136 0.02470227 -0.5749999
v -0.07817808 0.0508405 -0.5749999
v -0.1242276 0.1166061 -0.5749999
v -0.1228265 0.1968789 -0.5749999
v 0.08184218 0.03770354 0.288095
v 0.1349137 0.1081318 0.288095
v 0.08184218 0.03770354 -0.2880951
v 0.1349137 0.1081318 -0.2880951
v 0.1364527 0.1963041 0.288095
v 0.1364527 0.1963041 -0.2880951
v 0.1364527 0.1963041 -0.2880951
v 0.08587147 0.2685416 0.288095
v 0.08587147 0.2685416 -0.2880951
v 0.08587147 0.2685416 0.288095
v 0.002490244 0.2972521 0.288095
v 0.08587147 0.2685416 -0.2880951
v 0.002490244 0.2972521 -0.2880951
v -0.08184217 0.2714691 0.288095
v -0.08184217 0.2714691 -0.2880951
v -0.08184217 0.2714691 -0.2880951
v -0.08184217 0.2714691 0.288095
v -0.1349137 0.2010408 0.288095
v -0.08184217 0.2714691 -0.2880951
v -0.1349137 0.2010408 -0.2880951
v -0.1364527 0.1128685 0.288095
v -0.1364527 0.1128685 -0.2880951
v -0.1364527 0.1128685 -0.2880951
v -0.0858715 0.04063102 0.288095
v -0.0858715 0.040631 -0.2880951
v -0.0858715 0.04063102 0.288095
v -0.002490268 0.01192052 0.288095
v -0.002490268 0.01192052 -0.2880951
v -0.0858715 0.040631 -0.2880951
v -0.002490268 0.01192052 -0.2880951
v 0.08184218 0.03770354 0.288095
v 0.08184218 0.03770354 -0.2880951
vt 0.8824457 0.8067242
vt 0.7963117 0.8067242
vt 0.6898445 0.8067242
vt 0.6037107 0.8067242
vt 0.7918832 0.5888169
vt 0.8931396 0.5888169
vt 0.9557195 0.5888169
vt 0.7078757 0.6193719
vt 0.7940097 0.6193719
vt 0.6598874 0.6831105
vt 0.6137049 0.7382566
vt 0.551125 0.7382566
vt 0.8593874 0.5646724
vt 0.7732536 0.5646724
vt 0.8143799 0.6808538
vt 0.6935068 0.9026239
vt 0.7796409 0.9026239
vt 0.886108 0.9026239
vt 0.9722419 0.9026239
vt 0.7149615 0.7382566
vt 0.7753379 0.5332381
vt 0.7007438 0.5332381
vt 0.6085404 0.5332381
vt 0.8795738 0.5026832
vt 0.7918832 0.5026832
vt 0.7041925 0.5026832
vt 0.6969765 0.892858
vt 0.7891799 0.892858
vt 0.8637741 0.892858
vt 0.6598874 0.7692443
vt 0.433455 0.7932037
vt 0.3695944 0.8804343
vt 0.2643226 0.9151034
vt 0.1578501 0.8839693
vt 0.09084556 0.7989235
vt 0.0889024 0.6924509
vt 0.152763 0.6052204
vt 0.2580347 0.570551
vt 0.3645073 0.6016854
vt 0.8479844 0.766565
vt 0.2981081 0.7422107
vt 0.2732036 0.7762291
vt 0.2316812 0.7640873
vt 0.2309234 0.7225648
vt 0.2719774 0.7090445
vt 0.5031505 0.7384766
vt 0.3274054 0.9785363
vt 0.2611787 0.7428272
vt 0.03439099 0.8928542
vt 0.0290435 0.5998403
vt 0.3187529 0.5044293
vt 0.7121786 0.9887576
vt 0.786773 0.9887576
vt 0.8789761 0.9887576
vt 0.9535702 0.9887576
vt 0.7149615 0.6521229
vt 0.6272708 0.6521229
vt 0.5730749 0.6521229
vt 0.8665193 0.4785385
vt 0.7919253 0.4785385
vt 0.8143799 0.7669876
vt 0.1578501 0.8839693
vt 0.2643228 0.9151036
vt 0.3695944 0.8804343
vt 0.4334551 0.7932037
vt 0.4315118 0.6867311
vt 0.3645073 0.6016853
vt 0.2580347 0.570551
vt 0.152763 0.6052204
vt 0.08890246 0.6924509
vt 0.09084556 0.7989235
vt 0.25038 0.7766101
vt 0.2914341 0.7630897
vt 0.2906763 0.7215673
vt 0.2491539 0.7094254
vt 0.2242494 0.7434439
vt 0.1663444 0.9812255
vt 0.2611787 0.7428272
vt 0.4560534 0.8858149
vt 0.450706 0.5928004
vt 0.157692 0.5071182
vt 0.2067505 0.743736
vt 0.6598874 0.439748
vt 0.7149615 0.981619
vt 0.7872155 0.8627344
vt 0.8112817 0.981619
vt 0.7052807 0.8627344
vt 0.883513 0.6592614
vt 0.9477327 0.8321795
vt 0.7822361 0.6592614
vt 0.8882035 0.8321795
vt 0.7003012 0.6592614
vt 0.7918832 0.8321795
vt 0.8143798 0.4374913
vt 0.6105049 0.5633616
vt 0.7180597 0.4374913
vt 0.6924397 0.5633616
vt 0.8619825 0.8080348
vt 0.7937167 0.5633616
vt 0.9632595 0.8080348
vt 0.8756516 0.5633616
vt 0.6186414 0.981619
vt 0.6906269 0.5888169
vt 0.6955631 0.8321795
vt 0.6014085 0.6193719
vt 0.6040037 0.8627344
vt 0.7611439 0.6831105
vt 0.7562076 0.439748
vt 0.558631 0.6831105
vt 0.5635675 0.439748
vt 0.9337697 0.5026832
vt 0.6223824 0.892858
vt 0.5721969 0.7692443
vt 0.7475781 0.7692443
vt 0.5166174 0.8175217
vt 0.4219297 0.9468608
vt 0.2658405 0.998266
vt 0.1079706 0.9521023
vt 0.008621069 0.8260027
vt 0.005739989 0.6681329
vt 0.1004278 0.5387938
vt 0.2565171 0.4873886
vt 0.4143868 0.5335523
vt 0.7479843 0.766565
vt 0.8479844 0.5998981
vt 0.7479843 0.5998981
vt 0.9479844 0.5998981
vt 0.9479844 0.766565
vt 0.4315118 0.6867311
vt 0.8162178 0.7382566
vt 0.8026519 0.6521229
vt 0.9658546 0.5646724
vt 0.9587227 0.4785385
vt 0.7131236 0.6808538
vt 0.7266892 0.7669876
vt 0.9156364 0.6808538
vt 0.9020705 0.7669876
vt 0.2658405 0.9982661
vt 0.1079706 0.9521023
vt 0.4219297 0.9468608
vt 0.5166174 0.8175217
vt 0.5137363 0.6596519
vt 0.4143868 0.5335523
vt 0.2565171 0.4873886
vt 0.1004278 0.5387938
vt 0.005740048 0.6681329
vt 0.008621128 0.8260027
vt 0 0.02958816
vt 0 0.1378088
vt 1 0.02958816
vt 1 0.1378088
vt 0 0.2439721
vt 1 0.2439721
vt 0.9654478 0.6592614
vt 0 0.3508366
vt 1 0.3508366
vt 1 -0.9633155
vt 1 -0.9633156
vt 0 -0.9633155
vt 0 -0.9633156
vt 1 -0.9633156
vt 0 -0.9633156
vt 0.9107 0.4374913
vt 1 0.3508366
vt 1 0.242616
vt 0 0.3508366
vt 0 0.242616
vt 1 0.1364527
vt 0 0.1364527
vt 0.7800477 0.8080348
vt 1 0.02958815
vt 0 0.02958815
vt 1 -0.9633156
vt 1 -0.9633155
vt 0 -0.9633155
vt 0 -0.9633156
vt 0.5591121 0.981619
vt 1 -0.9633156
vt 0 -0.9633156
vn 0.5698608 -0.8138454 0.1136416
vn -0.01733937 -0.9933704 0.1136416
vn -0.5979164 -0.7934617 0.1136416
vn -0.9501096 -0.2904776 0.1136415
vn -0.9393933 0.3234589 0.1136415
vn -0.5698609 0.8138453 0.1136415
vn 0.01733938 0.9933705 0.1136415
vn 0.5979164 0.7934617 0.1136414
vn 0.9501096 0.2904776 0.1136415
vn 0.9393933 -0.3234591 0.1136416
vn 0.5698608 -0.8138454 -0.1136416
vn -0.0173394 -0.9933704 -0.1136415
vn -0.5979164 -0.7934617 -0.1136416
vn -0.9501096 -0.2904775 -0.1136416
vn -0.9393933 0.3234591 -0.1136416
vn -0.5698608 0.8138454 -0.1136415
vn 0.01733948 0.9933705 -0.1136414
vn 0.5979164 0.7934617 -0.1136414
vn 0.9501096 0.2904775 -0.1136414
vn 0.9393933 -0.3234592 -0.1136415
vn 0.8566564 0.261906 0.4444606
vn 0.539105 0.7154163 0.4444608
vn 0.01563389 0.8956618 0.4444609
vn -0.5138088 0.7337949 0.4444609
vn -0.846994 0.2916432 0.4444607
vn -0.8566561 -0.2619062 0.4444607
vn -0.5391048 -0.7154164 0.4444609
vn -0.01563371 -0.8956618 0.4444609
vn 0.5138088 -0.733795 0.4444608
vn 0.846994 -0.2916433 0.4444606
vn 0.592245 0.179543 0.7855
vn 0.3712747 0.4951209 0.7855001
vn 0.01225797 0.6187403 0.7855
vn -0.3561578 0.5061042 0.7855
vn -0.5846694 0.2028593 0.7854998
vn -0.5913926 -0.1823314 0.7854999
vn -0.3736031 -0.4933663 0.7855
vn -0.009342835 -0.618791 0.7855
vn 0.3537694 -0.5077766 0.7855
vn 0.5856184 -0.2001027 0.7854999
vn 0.8131134 -0.01432023 0.581929
vn 0.2687396 0.7712953 0.5769597
vn -0.655421 0.4961294 0.5694549
vn -0.6720194 -0.4729969 0.5697928
vn 0.2414606 -0.7798617 0.5775055
vn 0.4394586 -0.007677046 0.89823
vn 0.1478003 0.4271361 0.8920257
vn -0.0111979 0.0006684196 0.9999371
vn -0.3757921 0.2842989 0.8820172
vn -0.3847186 -0.2705776 0.8824847
vn 0.1323221 -0.4307406 0.8927225
vn -0.5138088 0.733795 -0.4444608
vn 0.01563393 0.8956619 -0.4444608
vn 0.5391051 0.7154163 -0.4444609
vn 0.8566564 0.2619058 -0.4444607
vn 0.846994 -0.2916436 -0.4444605
vn 0.5138087 -0.7337951 -0.4444607
vn -0.01563383 -0.8956619 -0.4444608
vn -0.5391049 -0.7154163 -0.4444609
vn -0.8566563 -0.2619059 -0.4444607
vn -0.846994 0.2916433 -0.4444606
vn -0.3537695 0.5077765 -0.7855
vn 0.009342883 0.618791 -0.7855
vn 0.3736035 0.4933661 -0.7855
vn 0.5913925 0.1823311 -0.7855
vn 0.5846691 -0.2028596 -0.7855
vn 0.3561577 -0.5061043 -0.7855
vn -0.01225786 -0.6187403 -0.7855
vn -0.3712743 -0.4951209 -0.7855002
vn -0.5922449 -0.179543 -0.7855001
vn -0.5856183 0.2001027 -0.7854998
vn -0.2378544 0.770552 -0.591333
vn 0.6637126 0.4665749 -0.584631
vn 0.647292 -0.4894518 -0.5843372
vn -0.264778 -0.7620878 -0.5908593
vn -0.8034748 0.01411984 -0.5951713
vn -0.1193039 0.3902219 -0.9129586
vn 0.009550317 -0.0005698193 -0.9999542
vn 0.3479269 0.2441494 -0.9051729
vn 0.3398172 -0.256572 -0.9048178
vn -0.1332789 -0.386928 -0.9124272
vn -0.3984511 0.006937164 -0.9171634
vn 0.9453779 -0.3255197 -0.017247
vn 0.9453779 -0.3255197 0.01724701
vn 0.9561625 0.2923282 -0.017247
vn 0.9561625 0.2923282 0.01724705
vn 0.6017256 0.7985167 -0.01724704
vn 0.6017255 0.7985167 0.01724707
vn 0.01744993 0.999699 -0.01724708
vn 0.01744995 0.999699 0.01724703
vn -0.5734912 0.8190301 -0.01724706
vn -0.5734912 0.8190301 0.01724699
vn -0.9453779 0.3255198 -0.01724701
vn -0.9453778 0.3255199 0.017247
vn -0.9561626 -0.292328 -0.017247
vn -0.9561626 -0.292328 0.01724702
vn -0.6017257 -0.7985166 -0.017247
vn -0.6017257 -0.7985166 0.01724698
vn -0.01744988 -0.999699 -0.01724699
vn -0.01744988 -0.999699 0.01724698
vn 0.5734912 -0.8190301 -0.017247
vn 0.5734912 -0.8190301 0.017247
vn -0.9501096 -0.2904776 0.1136415
vn -0.9561626 -0.292328 -0.017247
vn 0.01733938 0.9933705 0.1136415
vn 0.01744993 0.999699 -0.01724708
vn 0.9501096 0.2904776 0.1136415
vn 0.9561625 0.2923282 -0.017247
vn 0.5698608 -0.8138454 0.1136416
vn 0.5734912 -0.8190301 -0.017247
vn 0.01563389 0.8956618 0.4444609
vn -0.8566561 -0.2619062 0.4444607
vn 0.5138088 -0.733795 0.4444608
vn 0.8566564 0.261906 0.4444606
vn 0.8566564 0.261906 0.4444606
vn 0.539105 0.7154163 0.4444608
vn 0.01563389 0.8956618 0.4444609
vn -0.5138088 0.7337949 0.4444609
vn -0.846994 0.2916432 0.4444607
vn -0.8566561 -0.2619062 0.4444607
vn -0.5391048 -0.7154164 0.4444609
vn -0.01563371 -0.8956618 0.4444609
vn 0.5138088 -0.733795 0.4444608
vn 0.3537694 -0.5077766 0.7855
vn 0.846994 -0.2916433 0.4444606
vn 0.5138088 -0.733795 0.4444608
vn 0.8566564 0.261906 0.4444606
vn 0.592245 0.179543 0.7855
vn 0.5856184 -0.2001027 0.7854999
vn 0.9501096 0.2904775 -0.1136414
vn 0.8566564 0.2619058 -0.4444607
vn -0.0173394 -0.9933704 -0.1136415
vn -0.01563383 -0.8956619 -0.4444608
vn -0.9501096 -0.2904775 -0.1136416
vn -0.8566563 -0.2619059 -0.4444607
vn -0.5698608 0.8138454 -0.1136415
vn -0.5138088 0.733795 -0.4444608
vn 0.01563393 0.8956619 -0.4444608
vn -0.5138088 0.733795 -0.4444608
vn 0.5391051 0.7154163 -0.4444609
vn 0.8566564 0.2619058 -0.4444607
vn 0.846994 -0.2916436 -0.4444605
vn 0.5138087 -0.7337951 -0.4444607
vn -0.01563383 -0.8956619 -0.4444608
vn -0.5391049 -0.7154163 -0.4444609
vn -0.8566563 -0.2619059 -0.4444607
vn -0.846994 0.2916433 -0.4444606
vn 0.5734912 -0.8190301 -0.017247
vn 0.9453779 -0.3255197 -0.017247
vn 0.5734912 -0.8190301 0.017247
vn 0.9453779 -0.3255197 0.01724701
vn 0.9561625 0.2923282 -0.017247
vn 0.9561625 0.2923282 0.01724705
vn 0.9561625 0.2923282 0.01724705
vn 0.6017256 0.7985167 -0.01724704
vn 0.6017255 0.7985167 0.01724707
vn 0.6017256 0.7985167 -0.01724704
vn 0.01744993 0.999699 -0.01724708
vn 0.6017255 0.7985167 0.01724707
vn 0.01744995 0.999699 0.01724703
vn -0.5734912 0.8190301 -0.01724706
vn -0.5734912 0.8190301 0.01724699
vn -0.5734912 0.8190301 0.01724699
vn -0.5734912 0.8190301 -0.01724706
vn -0.9453779 0.3255198 -0.01724701
vn -0.5734912 0.8190301 0.01724699
vn -0.9453778 0.3255199 0.017247
vn -0.9561626 -0.292328 -0.017247
vn -0.9561626 -0.292328 0.01724702
vn -0.9561626 -0.292328 0.01724702
vn -0.6017257 -0.7985166 -0.017247
vn -0.6017257 -0.7985166 0.01724698
vn -0.6017257 -0.7985166 -0.017247
vn -0.01744988 -0.999699 -0.01724699
vn -0.01744988 -0.999699 0.01724698
vn -0.6017257 -0.7985166 0.01724698
vn -0.01744988 -0.999699 0.01724698
vn 0.5734912 -0.8190301 -0.017247
vn 0.5734912 -0.8190301 0.017247
g spiceySausage_geo_0
f 2/2/2 29/29/29 28/28/28
f 27/27/27 2/2/2 28/28/28
f 3/3/3 2/2/2 27/27/27
f 4/4/4 3/3/3 27/27/27
f 97/97/97 3/3/3 4/4/4
f 95/95/95 97/97/97 4/4/4
f 7/7/7 24/24/24 111/111/111
f 6/6/6 24/24/24 7/7/7
f 91/91/91 6/6/6 7/7/7
f 5/5/5 6/6/6 91/91/91
f 93/93/93 5/5/5 91/91/91
f 103/103/103 5/5/5 93/93/93
f 104/104/104 103/103/103 93/93/93
f 89/89/89 91/91/91 7/7/7
f 9/9/9 22/22/22 21/21/21
f 8/8/8 22/22/22 9/9/9
f 87/87/87 8/8/8 9/9/9
f 105/105/105 8/8/8 87/87/87
f 106/106/106 105/105/105 87/87/87
f 85/85/85 87/87/87 9/9/9
f 10/10/10 109/109/109 110/110/110
f 83/83/83 10/10/10 110/110/110
f 107/107/107 10/10/10 83/83/83
f 108/108/108 107/107/107 83/83/83
f 22/22/22 105/105/105 23/23/23
f 8/8/8 105/105/105 22/22/22
f 5/5/5 24/24/24 6/6/6
f 25/25/25 24/24/24 5/5/5
f 103/103/103 25/25/25 5/5/5
f 26/26/26 25/25/25 103/103/103
f 4/4/4 27/27/27 112/112/112
f 10/10/10 113/113/113 109/109/109
f 30/30/30 113/113/113 10/10/10
f 107/107/107 30/30/30 10/10/10
f 114/114/114 30/30/30 107/107/107
f 32/32/32 116/116/116 117/117/117
f 33/33/33 32/32/32 117/117/117
f 42/42/42 32/32/32 33/33/33
f 43/43/43 42/42/42 33/33/33
f 47/47/47 42/42/42 43/43/43
f 49/49/49 47/47/47 43/43/43
f 48/48/48 47/47/47 49/49/49
f 50/50/50 48/48/48 49/49/49
f 51/51/51 48/48/48 50/50/50
f 44/44/44 51/51/51 50/50/50
f 45/45/45 51/51/51 44/44/44
f 37/37/37 45/45/45 44/44/44
f 38/38/38 45/45/45 37/37/37
f 122/122/122 38/38/38 37/37/37
f 39/39/39 38/38/38 122/122/122
f 123/123/123 39/39/39 122/122/122
f 40/40/40 127/127/127 128/128/128
f 125/125/125 127/127/127 40/40/40
f 124/124/124 125/125/125 40/40/40
f 126/126/126 125/125/125 124/124/124
f 17/17/17 92/92/92 90/90/90
f 88/88/88 17/17/17 90/90/90
f 18/18/18 17/17/17 88/88/88
f 19/19/19 18/18/18 88/88/88
f 54/54/54 18/18/18 19/19/19
f 55/55/55 54/54/54 19/19/19
f 12/12/12 102/102/102 177/177/177
f 11/11/11 102/102/102 12/12/12
f 57/57/57 11/11/11 12/12/12
f 20/20/20 11/11/11 57/57/57
f 56/56/56 20/20/20 57/57/57
f 130/130/130 20/20/20 56/56/56
f 131/131/131 130/130/130 56/56/56
f 58/58/58 57/57/57 12/12/12
f 14/14/14 98/98/98 170/170/170
f 13/13/13 98/98/98 14/14/14
f 59/59/59 13/13/13 14/14/14
f 132/132/132 13/13/13 59/59/59
f 133/133/133 132/132/132 59/59/59
f 60/60/60 59/59/59 14/14/14
f 15/15/15 136/136/136 137/137/137
f 61/61/61 15/15/15 137/137/137
f 134/134/134 15/15/15 61/61/61
f 135/135/135 134/134/134 61/61/61
f 153/153/153 156/156/156 155/155/155
f 152/152/152 153/153/153 155/155/155
f 151/151/151 153/153/153 152/152/152
f 149/149/149 151/151/151 152/152/152
f 150/150/150 151/151/151 149/149/149
f 148/148/148 150/150/150 149/149/149
f 20/20/20 102/102/102 11/11/11
f 84/84/84 102/102/102 20/20/20
f 130/130/130 84/84/84 20/20/20
f 86/86/86 84/84/84 130/130/130
f 88/88/88 154/154/154 19/19/19
f 160/160/160 162/162/162 161/161/161
f 158/158/158 160/160/160 161/161/161
f 159/159/159 160/160/160 158/158/158
f 157/157/157 159/159/159 158/158/158
f 169/169/169 172/172/172 171/171/171
f 168/168/168 169/169/169 171/171/171
f 167/167/167 169/169/169 168/168/168
f 165/165/165 167/167/167 168/168/168
f 166/166/166 167/167/167 165/165/165
f 164/164/164 166/166/166 165/165/165
f 15/15/15 163/163/163 136/136/136
f 94/94/94 163/163/163 15/15/15
f 134/134/134 94/94/94 15/15/15
f 96/96/96 94/94/94 134/134/134
f 98/98/98 132/132/132 100/100/100
f 13/13/13 132/132/132 98/98/98
f 175/175/175 173/173/173 176/176/176
f 174/174/174 173/173/173 175/175/175
f 178/178/178 174/174/174 175/175/175
f 179/179/179 178/178/178 175/175/175
f 2/2/2 1/1/1 29/29/29
f 101/101/101 1/1/1 2/2/2
f 99/99/99 101/101/101 2/2/2
f 2/2/2 97/97/97 99/99/99
f 3/3/3 97/97/97 2/2/2
f 32/32/32 115/115/115 116/116/116
f 31/31/31 115/115/115 32/32/32
f 42/42/42 31/31/31 32/32/32
f 41/41/41 31/31/31 42/42/42
f 46/46/46 41/41/41 42/42/42
f 45/45/45 41/41/41 46/46/46
f 51/51/51 45/45/45 46/46/46
f 36/36/36 37/37/37 44/44/44
f 120/120/120 37/37/37 36/36/36
f 35/35/35 120/120/120 36/36/36
f 119/119/119 120/120/120 35/35/35
f 34/34/34 119/119/119 35/35/35
f 118/118/118 119/119/119 34/34/34
f 117/117/117 118/118/118 34/34/34
f 37/37/37 121/121/121 122/122/122
f 120/120/120 121/121/121 37/37/37
f 41/41/41 129/129/129 31/31/31
f 39/39/39 129/129/129 41/41/41
f 45/45/45 39/39/39 41/41/41
f 38/38/38 39/39/39 45/45/45
f 17/17/17 16/16/16 92/92/92
f 52/52/52 16/16/16 17/17/17
f 53/53/53 52/52/52 17/17/17
f 17/17/17 54/54/54 53/53/53
f 18/18/18 54/54/54 17/17/17
f 69/69/69 145/145/145 146/146/146
f 144/144/144 145/145/145 69/69/69
f 68/68/68 144/144/144 69/69/69
f 67/67/67 144/144/144 68/68/68
f 75/75/75 67/67/67 68/68/68
f 74/74/74 67/67/67 75/75/75
f 81/81/81 74/74/74 75/75/75
f 80/80/80 74/74/74 81/81/81
f 78/78/78 80/80/80 81/81/81
f 79/79/79 80/80/80 78/78/78
f 77/77/77 79/79/79 78/78/78
f 73/73/73 79/79/79 77/77/77
f 72/72/72 73/73/73 77/77/77
f 64/64/64 73/73/73 72/72/72
f 63/63/63 64/64/64 72/72/72
f 138/138/138 64/64/64 63/63/63
f 62/62/62 138/138/138 63/63/63
f 139/139/139 138/138/138 62/62/62
f 147/147/147 139/139/139 62/62/62
f 74/74/74 80/80/80 79/79/79
f 73/73/73 74/74/74 79/79/79
f 66/66/66 74/74/74 73/73/73
f 65/65/65 66/66/66 73/73/73
f 141/141/141 66/66/66 65/65/65
f 64/64/64 141/141/141 65/65/65
f 140/140/140 141/141/141 64/64/64
f 138/138/138 140/140/140 64/64/64
f 67/67/67 143/143/143 144/144/144
f 142/142/142 143/143/143 67/67/67
f 66/66/66 142/142/142 67/67/67
f 141/141/141 142/142/142 66/66/66
f 71/71/71 146/146/146 147/147/147
f 70/70/70 146/146/146 71/71/71
f 76/76/76 70/70/70 71/71/71
f 75/75/75 70/70/70 76/76/76
f 82/82/82 75/75/75 76/76/76
f 81/81/81 75/75/75 82/82/82
f 78/78/78 81/81/81 82/82/82
f 34/34/34 33/33/33 117/117/117
f 43/43/43 33/33/33 34/34/34
f 35/35/35 43/43/43 34/34/34
f 44/44/44 43/43/43 35/35/35
f 36/36/36 44/44/44 35/35/35
f 46/46/46 48/48/48 51/51/51
f 47/47/47 48/48/48 46/46/46
f 42/42/42 47/47/47 46/46/46
f 43/43/43 50/50/50 49/49/49
f 44/44/44 50/50/50 43/43/43
f 69/69/69 75/75/75 68/68/68
f 70/70/70 75/75/75 69/69/69
f 146/146/146 70/70/70 69/69/69
f 72/72/72 82/82/82 76/76/76
f 71/71/71 72/72/72 76/76/76
f 62/62/62 72/72/72 71/71/71
f 147/147/147 62/62/62 71/71/71
f 82/82/82 77/77/77 78/78/78
f 72/72/72 77/77/77 82/82/82
f 72/72/72 62/62/62 63/63/63
f 73/73/73 64/64/64 65/65/65
f 74/74/74 66/66/66 67/67/67
