g spinnerRimsSUV_geo
v 0.0136676 0.1713334 -0.2967581
v 0.01366768 0.2967582 -0.1713336
v -0.0136676 0.2967581 -0.1713336
v -0.01366753 0.1713334 -0.2967581
v 0.0136676 3.814697E-08 -0.3426668
v -0.0136676 3.814697E-08 -0.3426669
v 0.0136676 -0.1713334 -0.2967581
v -0.01366753 -0.1713334 -0.2967581
v 0.0136676 -0.2967582 -0.1713333
v -0.0136676 -0.2967582 -0.1713333
v 0.0136676 -0.3426669 1.525879E-07
v -0.0136676 -0.3426669 1.525879E-07
v 0.0136676 -0.2967581 0.1713333
v -0.0136676 -0.2967581 0.1713333
v 0.0136676 -0.1713333 0.2967583
v -0.0136676 -0.1713333 0.296758
v 0.0136676 1.525879E-07 0.3426669
v -0.0136676 7.629394E-08 0.3426669
v 0.0136676 0.1713335 0.296758
v -0.0136676 0.1713335 0.296758
v 0.0136676 0.2967582 0.1713333
v -0.01366768 0.2967584 0.1713333
v 0.01366768 0.3426669 -1.525879E-07
v -0.0136676 0.3426668 -1.525879E-07
v 0.0136676 3.814697E-08 -1.525879E-07
v -0.0136676 3.814697E-08 -1.525879E-07
v 0.01366768 0.2967582 -0.1713336
v 0.0136676 0.1713334 -0.2967581
v 0.0136676 3.814697E-08 -0.3426668
v 0.0136676 -0.1713334 -0.2967581
v 0.0136676 -0.2967582 -0.1713333
v 0.0136676 -0.3426669 1.525879E-07
v 0.0136676 -0.2967581 0.1713333
v 0.0136676 -0.1713333 0.2967583
v 0.0136676 1.525879E-07 0.3426669
v 0.0136676 0.1713335 0.296758
v 0.0136676 0.2967582 0.1713333
v 0.01366768 0.3426669 -1.525879E-07
v -0.01366753 0.1713334 -0.2967581
v -0.0136676 0.2967581 -0.1713336
v -0.0136676 3.814697E-08 -0.3426669
v -0.01366753 -0.1713334 -0.2967581
v -0.0136676 -0.2967582 -0.1713333
v -0.0136676 -0.3426669 1.525879E-07
v -0.0136676 -0.2967581 0.1713333
v -0.0136676 -0.1713333 0.296758
v -0.0136676 7.629394E-08 0.3426669
v -0.0136676 0.1713335 0.296758
v -0.01366768 0.2967584 0.1713333
v -0.0136676 0.3426668 -1.525879E-07
vt 0.03569297 0.03191748
vt 0.03569297 0.03191748
vt 0.03569297 0.03191748
vt 0.03569297 0.03191748
vt 0.03569297 0.03191748
vt 0.03569297 0.03191748
vt 0.03569297 0.03191748
vt 0.03569297 0.03191748
vt 0.03569297 0.0319175
vt 0.03569297 0.0319175
vt 0.03569297 0.03191748
vt 0.03569297 0.03191748
vt 0.03569297 0.03191748
vt 0.03569297 0.03191748
vt 0.03569297 0.03191748
vt 0.03569297 0.03191748
vt 0.03569297 0.03191748
vt 0.03569297 0.03191748
vt 0.03569297 0.03191748
vt 0.03569297 0.03191748
vt 0.03569297 0.0319175
vt 0.03569297 0.03191748
vt 0.03569297 0.03191748
vt 0.03569297 0.03191748
vt 0.03073326 0.0319137
vt 0.3341119 0.3213166
vt 0.03073326 0.0319137
vt 0.03073326 0.0319137
vt 0.03073326 0.0319137
vt 0.03073326 0.0319137
vt 0.03073326 0.0319137
vt 0.03073326 0.0319137
vt 0.03073323 0.0319137
vt 0.03073323 0.0319137
vt 0.03073323 0.0319137
vt 0.03073323 0.0319137
vt 0.03073323 0.0319137
vt 0.03073326 0.0319137
vt 0.5131553 0.4246873
vt 0.4374828 0.5003598
vt 0.5408534 0.3213166
vt 0.5131553 0.2179458
vt 0.4374826 0.1422731
vt 0.3341118 0.1145749
vt 0.2307411 0.1422732
vt 0.1550685 0.2179459
vt 0.1273703 0.3213166
vt 0.1550685 0.4246874
vt 0.2307412 0.50036
vt 0.3341119 0.528058
vn 0.7192546 0.347373 -0.6016683
vn 0.7192537 0.6016688 -0.3473742
vn -0.7192556 0.601667 -0.3473732
vn -0.7192543 0.3473733 -0.6016684
vn 0.7192555 0 -0.6947456
vn -0.7192538 0 -0.6947474
vn 0.7192549 -0.3473732 -0.6016678
vn -0.7192541 -0.3473736 -0.6016685
vn 0.7192543 -0.6016684 -0.3473736
vn -0.7192548 -0.6016679 -0.3473735
vn 0.7192546 -0.6947467 3.108142E-07
vn -0.7192548 -0.6947464 3.108142E-07
vn 0.7192539 -0.6016686 0.3473741
vn -0.7192552 -0.6016674 0.3473734
vn 0.7192531 -0.3473744 0.6016694
vn -0.719256 -0.3473728 0.6016667
vn 0.7192539 2.893791E-07 0.6947474
vn -0.7192556 2.893783E-07 0.6947455
vn 0.7192549 0.3473735 0.6016678
vn -0.7192541 0.3473738 0.6016685
vn 0.7192553 0.6016675 0.3473731
vn -0.7192541 0.6016687 0.3473735
vn 0.7192542 0.694747 0
vn -0.7192551 0.6947461 -4.173655E-07
vn 1 0 0
vn -1 0 0
vn 0.7192537 0.6016688 -0.3473742
vn 0.7192546 0.347373 -0.6016683
vn 0.7192555 0 -0.6947456
vn 0.7192549 -0.3473732 -0.6016678
vn 0.7192543 -0.6016684 -0.3473736
vn 0.7192546 -0.6947467 3.108142E-07
vn 0.7192539 -0.6016686 0.3473741
vn 0.7192531 -0.3473744 0.6016694
vn 0.7192539 2.893791E-07 0.6947474
vn 0.7192549 0.3473735 0.6016678
vn 0.7192553 0.6016675 0.3473731
vn 0.7192542 0.694747 0
vn -0.7192543 0.3473733 -0.6016684
vn -0.7192556 0.601667 -0.3473732
vn -0.7192538 0 -0.6947474
vn -0.7192541 -0.3473736 -0.6016685
vn -0.7192548 -0.6016679 -0.3473735
vn -0.7192548 -0.6947464 3.108142E-07
vn -0.7192552 -0.6016674 0.3473734
vn -0.719256 -0.3473728 0.6016667
vn -0.7192556 2.893783E-07 0.6947455
vn -0.7192541 0.3473738 0.6016685
vn -0.7192541 0.6016687 0.3473735
vn -0.7192551 0.6947461 -4.173655E-07
g spinnerRimsSUV_geo_0
f 5/5/5 4/4/4 1/1/1
f 6/6/6 4/4/4 5/5/5
f 7/7/7 6/6/6 5/5/5
f 8/8/8 6/6/6 7/7/7
f 9/9/9 8/8/8 7/7/7
f 10/10/10 8/8/8 9/9/9
f 11/11/11 10/10/10 9/9/9
f 12/12/12 10/10/10 11/11/11
f 13/13/13 12/12/12 11/11/11
f 14/14/14 12/12/12 13/13/13
f 15/15/15 14/14/14 13/13/13
f 16/16/16 14/14/14 15/15/15
f 17/17/17 16/16/16 15/15/15
f 18/18/18 16/16/16 17/17/17
f 19/19/19 18/18/18 17/17/17
f 20/20/20 18/18/18 19/19/19
f 21/21/21 20/20/20 19/19/19
f 22/22/22 20/20/20 21/21/21
f 23/23/23 22/22/22 21/21/21
f 24/24/24 22/22/22 23/23/23
f 2/2/2 24/24/24 23/23/23
f 3/3/3 24/24/24 2/2/2
f 1/1/1 3/3/3 2/2/2
f 4/4/4 3/3/3 1/1/1
f 25/25/25 38/38/38 37/37/37
f 27/27/27 38/38/38 25/25/25
f 28/28/28 27/27/27 25/25/25
f 25/25/25 29/29/29 28/28/28
f 30/30/30 29/29/29 25/25/25
f 31/31/31 30/30/30 25/25/25
f 25/25/25 32/32/32 31/31/31
f 33/33/33 32/32/32 25/25/25
f 34/34/34 33/33/33 25/25/25
f 25/25/25 35/35/35 34/34/34
f 36/36/36 35/35/35 25/25/25
f 37/37/37 36/36/36 25/25/25
f 26/26/26 40/40/40 39/39/39
f 50/50/50 40/40/40 26/26/26
f 49/49/49 50/50/50 26/26/26
f 26/26/26 42/42/42 43/43/43
f 41/41/41 42/42/42 26/26/26
f 39/39/39 41/41/41 26/26/26
f 26/26/26 45/45/45 46/46/46
f 44/44/44 45/45/45 26/26/26
f 43/43/43 44/44/44 26/26/26
f 26/26/26 48/48/48 49/49/49
f 47/47/47 48/48/48 26/26/26
f 46/46/46 47/47/47 26/26/26
