g spoon_geo
v 0 -0.0200912 -0.2280404
v -0.04287311 -0.0200912 -0.1904285
v -0.05915289 -0.01854137 -0.09975686
v -0.01933224 -0.002458596 -0.04888256
v -0.01526229 0.008313171 0.05703966
v -0.03779735 -0.002328453 0.2363406
v 0 0.007600227 0.2697514
v 0.03779735 -0.002328453 0.2363406
v 0.01526229 0.008313171 0.05703966
v 0.01933224 -0.002458596 -0.04888256
v 0.05915289 -0.01854137 -0.09975686
v 0.04287311 -0.0200912 -0.1904285
v 0 -0.0108833 -0.2280404
v -0.04287311 -0.0108833 -0.1904285
v -0.05915289 -0.009333478 -0.09975686
v -0.01933224 0.006749297 -0.04888256
v -0.01526229 0.01752106 0.05703966
v -0.03779735 0.006789827 0.2350591
v 0 0.01671851 0.26847
v 0.03779735 0.006789827 0.2350591
v 0.01526229 0.01752106 0.05703966
v 0.01933224 0.006749297 -0.04888256
v 0.05915289 -0.009333478 -0.09975686
v 0.04287311 -0.0108833 -0.1904285
v 0.02911684 -0.03119407 -0.1737543
v -0.02911684 -0.03119407 -0.1737543
v -0.0401731 -0.02964425 -0.1121756
v 0.0401731 -0.02964425 -0.1121756
v 0 -0.02052297 -0.07762485
v 0.0401731 -0.02043635 -0.1121756
v -0.0401731 -0.02043635 -0.1121756
v 0 -0.01131508 -0.07762485
v 0.02911684 -0.02198617 -0.1737543
v -0.02911684 -0.02198617 -0.1737543
v 0 -0.0200912 -0.2280404
v 0 0.01671851 0.26847
v 0.03779735 0.006789827 0.2350591
v 0.01526229 0.01752106 0.05703966
v -0.01526229 0.01752106 0.05703966
v 0.01933224 0.006749297 -0.04888256
v -0.01933224 0.006749297 -0.04888256
v 0 -0.0108833 -0.2280404
v -0.01526229 0.008313171 0.05703966
v 0.01526229 0.008313171 0.05703966
v -0.01933224 -0.002458596 -0.04888256
v 0.01933224 -0.002458596 -0.04888256
v 0 0.007600227 0.2697514
v 0.03779735 -0.002328453 0.2363406
v -0.03779735 -0.002328453 0.2363406
v -0.03779735 0.006789827 0.2350591
v 0.04287311 -0.0200912 -0.1904285
v -0.04287311 -0.0200912 -0.1904285
v 0.05915289 -0.01854137 -0.09975686
v -0.05915289 -0.01854137 -0.09975686
v -0.05915289 -0.009333478 -0.09975686
v 0.05915289 -0.009333478 -0.09975686
v -0.04287311 -0.0108833 -0.1904285
v 0.04287311 -0.0108833 -0.1904285
vt 0.5823458 0.8617316
vt 0.5809953 0.867172
vt 0.5809953 0.8671718
vt 0.5809953 0.867172
vt 0.5809952 0.8671719
vt 0.5809953 0.867172
vt 0.5809953 0.8972991
vt 0.5809953 0.867172
vt 0.5809953 0.8671719
vt 0.5809953 0.8671719
vt 0.5809953 0.8671719
vt 0.5809953 0.8671719
vt 0.5809953 0.867172
vt 0.5809953 0.867172
vt 0.5809953 0.8671718
vt 0.5809952 0.867172
vt 0.5809953 0.8671719
vt 0.5809952 0.8671719
vt 0.5800388 0.9087761
vt 0.5800389 0.878649
vt 0.5800388 0.8786489
vt 0.5809953 0.8671719
vt 0.5809953 0.8671719
vt 0.5809953 0.8671719
vt 0.5823457 0.8454014
vt 0.5823457 0.8454014
vt 0.5823457 0.8454012
vt 0.5823457 0.8454012
vt 0.5823458 0.8454012
vt 0.5800388 0.9149929
vt 0.5800388 0.9149929
vt 0.5800388 0.9149929
vt 0.5800389 0.9149929
vt 0.5800388 0.9149929
vt 0.5809953 0.867172
vt 0.5809953 0.8972991
vt 0.5809953 0.867172
vt 0.5809953 0.8671719
vt 0.5800388 0.8786489
vt 0.5800388 0.878649
vt 0.5800388 0.878649
vt 0.5800388 0.8786491
vt 0.5823458 0.8617316
vt 0.5823458 0.8617316
vt 0.5823457 0.8617317
vt 0.5823458 0.8617317
vt 0.5823458 0.8918589
vt 0.5823457 0.8617317
vt 0.5823457 0.8617317
vt 0.5800388 0.878649
vt 0.5823457 0.8617316
vt 0.5823457 0.8617316
vt 0.5823457 0.8617316
vt 0.5823457 0.8617316
vt 0.5800388 0.878649
vt 0.5800388 0.878649
vt 0.5800388 0.8786489
vt 0.5800388 0.8786489
vn 0 -0.755661 -0.654963
vn -0.7520737 -0.5177314 -0.4078473
vn -0.8007514 -0.5426081 0.2537195
vn -0.523837 -0.7187909 0.4570934
vn -0.5013955 -0.8652109 -0.003569658
vn -0.7997872 -0.4982011 0.3348674
vn 0 -0.8870617 0.461651
vn 0.7997871 -0.4982012 0.3348673
vn 0.5013955 -0.8652109 -0.00356965
vn 0.5238369 -0.7187909 0.4570934
vn 0.8007514 -0.5426081 0.2537195
vn 0.7520737 -0.5177314 -0.4078474
vn 0 0.9759701 -0.2179041
vn -0.4036433 0.8781535 -0.2567459
vn -0.5146953 0.8563976 0.04088706
vn -0.5011222 0.8552761 -0.1318305
vn -0.608646 0.7922573 -0.0433416
vn -0.844623 0.4598328 0.274164
vn 0 0.9001638 0.4355515
vn 0.844623 0.4598327 0.274164
vn 0.608646 0.7922573 -0.0433416
vn 0.5011222 0.8552761 -0.1318305
vn 0.5146953 0.8563977 0.04088701
vn 0.4036433 0.8781535 -0.2567459
vn 0.2220994 -0.9623991 -0.1563963
vn -0.2220994 -0.9623991 -0.1563963
vn -0.1962892 -0.9660523 0.1679687
vn 0.1962891 -0.9660523 0.1679687
vn 0 -0.9058136 0.4236761
vn -0.1962891 0.9660523 -0.1679687
vn 0.1962891 0.9660523 -0.1679687
vn 0 0.9058136 -0.4236761
vn -0.2220994 0.9623991 0.1563962
vn 0.2220994 0.9623991 0.1563962
vn 0 -0.755661 -0.654963
vn 0 0.9001638 0.4355515
vn 0.844623 0.4598327 0.274164
vn 0.608646 0.7922573 -0.0433416
vn -0.608646 0.7922573 -0.0433416
vn 0.5011222 0.8552761 -0.1318305
vn -0.5011222 0.8552761 -0.1318305
vn 0 0.9759701 -0.2179041
vn -0.5013955 -0.8652109 -0.003569658
vn 0.5013955 -0.8652109 -0.00356965
vn -0.523837 -0.7187909 0.4570934
vn 0.5238369 -0.7187909 0.4570934
vn 0 -0.8870617 0.461651
vn 0.7997871 -0.4982012 0.3348673
vn -0.7997872 -0.4982011 0.3348674
vn -0.844623 0.4598328 0.274164
vn 0.7520737 -0.5177314 -0.4078474
vn -0.7520737 -0.5177314 -0.4078473
vn 0.8007514 -0.5426081 0.2537195
vn -0.8007514 -0.5426081 0.2537195
vn -0.5146953 0.8563976 0.04088706
vn 0.5146953 0.8563977 0.04088701
vn -0.4036433 0.8781535 -0.2567459
vn 0.4036433 0.8781535 -0.2567459
g spoon_geo_0
f 56/56/56 32/32/32 40/40/40
f 30/30/30 32/32/32 56/56/56
f 58/58/58 30/30/30 56/56/56
f 33/33/33 30/30/30 58/58/58
f 42/42/42 33/33/33 58/58/58
f 34/34/34 33/33/33 42/42/42
f 57/57/57 34/34/34 42/42/42
f 31/31/31 34/34/34 57/57/57
f 55/55/55 31/31/31 57/57/57
f 32/32/32 31/31/31 55/55/55
f 41/41/41 32/32/32 55/55/55
f 40/40/40 32/32/32 41/41/41
f 39/39/39 40/40/40 41/41/41
f 21/21/21 40/40/40 39/39/39
f 19/19/19 21/21/21 39/39/39
f 20/20/20 21/21/21 19/19/19
f 44/44/44 43/43/43 45/45/45
f 47/47/47 43/43/43 44/44/44
f 48/48/48 47/47/47 44/44/44
f 49/49/49 43/43/43 47/47/47
f 50/50/50 19/19/19 39/39/39
f 14/14/14 2/2/2 3/3/3
f 35/35/35 2/2/2 14/14/14
f 13/13/13 35/35/35 14/14/14
f 12/12/12 35/35/35 13/13/13
f 24/24/24 12/12/12 13/13/13
f 11/11/11 12/12/12 24/24/24
f 23/23/23 11/11/11 24/24/24
f 10/10/10 11/11/11 23/23/23
f 22/22/22 10/10/10 23/23/23
f 9/9/9 10/10/10 22/22/22
f 38/38/38 9/9/9 22/22/22
f 37/37/37 9/9/9 38/38/38
f 5/5/5 18/18/18 17/17/17
f 16/16/16 5/5/5 17/17/17
f 4/4/4 5/5/5 16/16/16
f 15/15/15 4/4/4 16/16/16
f 3/3/3 4/4/4 15/15/15
f 14/14/14 3/3/3 15/15/15
f 7/7/7 37/37/37 36/36/36
f 18/18/18 7/7/7 36/36/36
f 6/6/6 7/7/7 18/18/18
f 5/5/5 6/6/6 18/18/18
f 8/8/8 37/37/37 7/7/7
f 9/9/9 37/37/37 8/8/8
f 45/45/45 46/46/46 44/44/44
f 29/29/29 46/46/46 45/45/45
f 54/54/54 29/29/29 45/45/45
f 27/27/27 29/29/29 54/54/54
f 52/52/52 27/27/27 54/54/54
f 26/26/26 27/27/27 52/52/52
f 1/1/1 26/26/26 52/52/52
f 25/25/25 26/26/26 1/1/1
f 51/51/51 25/25/25 1/1/1
f 28/28/28 25/25/25 51/51/51
f 53/53/53 28/28/28 51/51/51
f 29/29/29 28/28/28 53/53/53
f 46/46/46 29/29/29 53/53/53
f 31/31/31 33/33/33 34/34/34
f 30/30/30 33/33/33 31/31/31
f 32/32/32 30/30/30 31/31/31
f 28/28/28 26/26/26 25/25/25
f 27/27/27 26/26/26 28/28/28
f 29/29/29 27/27/27 28/28/28
