g syringe_geo
v 0.02228617 0.4269812 -0.03172646
v -0.01434838 0.4269996 -0.03172647
v -0.03266567 0.4270089 -5.092138E-09
v -0.01434839 0.4269997 0.03172646
v 0.02228616 0.4269812 0.03172646
v 0.04060344 0.4269719 7.272679E-10
v -0.03272728 0.3050503 -5.092138E-09
v -0.01441 0.305041 -0.03172647
v 0.02222456 0.3050225 -0.03172646
v 0.04054183 0.3050133 7.272679E-10
v 0.02222455 0.3050225 0.03172646
v -0.01441 0.305041 0.03172646
v -0.03273163 0.2964475 -5.092138E-09
v -0.01441434 0.2964383 -0.03172647
v 0.02222021 0.2964198 -0.03172646
v 0.04053749 0.2964106 7.272679E-10
v 0.02222021 0.2964198 0.03172646
v -0.01441435 0.2964383 0.03172646
v 0.0404708 0.1644125 7.272679E-10
v 0.02215352 0.1644218 0.03172646
v -0.01448103 0.1644403 0.03172646
v -0.03279831 0.1644495 -5.092138E-09
v -0.01448102 0.1644403 -0.03172647
v 0.02215353 0.1644218 -0.03172646
v 0.03409943 0.4269752 -0.0521876
v -0.02616162 0.4270056 -0.05218761
v -0.05629216 0.4270208 -8.845211E-09
v -0.02616163 0.4270056 0.0521876
v 0.03409942 0.4269752 0.0521876
v 0.06422993 0.4269599 7.272679E-10
v 0.03410829 0.4445055 -0.0521876
v -0.02615277 0.444536 -0.05218761
v -0.0562833 0.4445512 -8.845211E-09
v -0.02615277 0.4445361 0.0521876
v 0.03410826 0.4445056 0.0521876
v 0.06423879 0.4444903 7.272679E-10
v 0.01442221 0.4445155 -0.01809033
v -0.006466709 0.444526 -0.01809033
v -0.01691117 0.4445314 -2.590939E-09
v -0.00646671 0.444526 0.01809033
v 0.0144222 0.4445155 0.01809033
v 0.02486665 0.4445102 7.272679E-10
v 0.01445962 0.5185794 -0.01809033
v -0.006429287 0.5185899 -0.01809033
v -0.01687374 0.5185952 -2.590939E-09
v -0.006429293 0.5185899 0.01809033
v 0.01445962 0.5185794 0.01809033
v 0.02490407 0.5185741 7.272679E-10
v 0.02333083 0.5185749 -0.03345566
v -0.01530046 0.5185944 -0.03345567
v -0.0346161 0.5186041 -5.409316E-09
v -0.01530048 0.5185943 0.03345566
v 0.0233308 0.5185749 0.03345567
v 0.04264643 0.5185651 7.272679E-10
v 0.02333761 0.5320373 -0.03345566
v -0.01529368 0.5320568 -0.03345567
v -0.03460931 0.5320666 -5.409316E-09
v -0.01529368 0.5320568 0.03345566
v 0.0233376 0.5320373 0.03345567
v 0.04265321 0.5320275 7.272679E-10
v 0.01284901 0.1383836 -0.01563335
v -0.005202818 0.1383927 -0.01563335
v -0.01422875 0.1383973 -2.14027E-09
v -0.005202832 0.1383927 0.01563335
v 0.01284901 0.1383836 0.01563335
v 0.02187493 0.1383791 7.272679E-10
v 0.01285345 0.1471656 -0.01563335
v -0.005198393 0.1471747 -0.01563335
v -0.01422432 0.1471792 -2.14027E-09
v -0.005198407 0.1471747 0.01563335
v 0.01285346 0.1471656 0.01563335
v 0.02187937 0.147161 7.272679E-10
v 0.005629773 -2.822876E-06 -0.003250345
v 0.001876578 -9.155273E-07 -0.003250346
v 0 0 0
v 0.001876578 -9.155273E-07 0.003250347
v 0.005629773 -2.822876E-06 0.003250347
v 0.007506313 -3.77655E-06 5.961926E-10
v 0.006563129 0.1471687 -0.004738203
v 0.001091917 0.1471715 -0.004738204
v -0.001643672 0.1471729 -1.418341E-10
v 0.001091917 0.1471715 0.004738204
v 0.006563132 0.1471687 0.004738204
v 0.00929872 0.1471674 7.272679E-10
v 0.02214481 0.1471609 -0.03172646
v -0.01448974 0.1471794 -0.03172647
v -0.03280703 0.1471886 -5.092138E-09
v -0.01448975 0.1471794 0.03172646
v 0.0221448 0.1471609 0.03172646
v 0.04046207 0.1471516 7.272679E-10
v -0.03279831 0.1644495 -5.092138E-09
v 0.02215685 0.170971 -0.03172646
v 0.0404741 0.1709617 7.272679E-10
v 0.02215682 0.170971 0.03172646
v -0.01447773 0.1709895 0.03172646
v -0.03279501 0.1709988 -5.092137E-09
v -0.0144777 0.1709895 -0.03172647
v -0.03272728 0.3050503 -5.092138E-09
v -0.01441 0.305041 -0.03172647
v 0.02222456 0.3050225 -0.03172646
v 0.04054183 0.3050133 7.272679E-10
v 0.02222455 0.3050225 0.03172646
v -0.01441 0.305041 0.03172646
v 0.03409943 0.4269752 -0.0521876
v -0.02616162 0.4270056 -0.05218761
v -0.05629216 0.4270208 -8.845211E-09
v 0.06422993 0.4269599 7.272679E-10
v -0.02616163 0.4270056 0.0521876
v 0.03409942 0.4269752 0.0521876
v -0.0562833 0.4445512 -8.845211E-09
v -0.02615277 0.444536 -0.05218761
v 0.03410829 0.4445055 -0.0521876
v 0.06423879 0.4444903 7.272679E-10
v -0.02615277 0.4445361 0.0521876
v 0.03410826 0.4445056 0.0521876
v 0.02333083 0.5185749 -0.03345566
v -0.01530046 0.5185944 -0.03345567
v -0.0346161 0.5186041 -5.409316E-09
v 0.04264643 0.5185651 7.272679E-10
v -0.01530048 0.5185943 0.03345566
v 0.0233308 0.5185749 0.03345567
v -0.03460931 0.5320666 -5.409316E-09
v -0.01529368 0.5320568 -0.03345567
v 0.02333761 0.5320373 -0.03345566
v 0.04265321 0.5320275 7.272679E-10
v -0.01529368 0.5320568 0.03345566
v 0.0233376 0.5320373 0.03345567
v 0.01284901 0.1383836 -0.01563335
v -0.005202818 0.1383927 -0.01563335
v -0.01422875 0.1383973 -2.14027E-09
v 0.02187493 0.1383791 7.272679E-10
v -0.005202832 0.1383927 0.01563335
v 0.01284901 0.1383836 0.01563335
v 0.005629773 -2.822876E-06 -0.003250345
v 0.001876578 -9.155273E-07 -0.003250346
v 0 0 0
v 0.007506313 -3.77655E-06 5.961926E-10
v 0.001876578 -9.155273E-07 0.003250347
v 0.005629773 -2.822876E-06 0.003250347
v -0.001643672 0.1471729 -1.418341E-10
v 0.001091917 0.1471715 -0.004738204
v 0.006563129 0.1471687 -0.004738203
v 0.00929872 0.1471674 7.272679E-10
v 0.001091917 0.1471715 0.004738204
v 0.006563132 0.1471687 0.004738204
v -0.01448102 0.1644403 -0.03172647
v 0.02215353 0.1644218 -0.03172646
v -0.01448103 0.1644403 0.03172646
v 0.02215352 0.1644218 0.03172646
v 0.0404708 0.1644125 7.272679E-10
v 0.02214481 0.1471609 -0.03172646
v -0.01448974 0.1471794 -0.03172647
v -0.03280703 0.1471886 -5.092138E-09
v 0.04046207 0.1471516 7.272679E-10
v -0.01448975 0.1471794 0.03172646
v 0.0221448 0.1471609 0.03172646
v 0.0404741 0.1709617 7.272679E-10
v 0.02222021 0.2964198 -0.03172646
v 0.02215685 0.170971 -0.03172646
v 0.04053749 0.2964106 7.272679E-10
v 0.02215682 0.170971 0.03172646
v 0.02222021 0.2964198 0.03172646
v -0.01447773 0.1709895 0.03172646
v -0.01441435 0.2964383 0.03172646
v -0.03279501 0.1709988 -5.092137E-09
v -0.03273163 0.2964475 -5.092138E-09
v -0.0144777 0.1709895 -0.03172647
v -0.01441434 0.2964383 -0.03172647
vt 0.7248239 0.4236903
vt 0.7248239 0.4236903
vt 0.7248239 0.4236903
vt 0.7248239 0.4236905
vt 0.7248239 0.4236905
vt 0.7248239 0.4236905
vt 0.7248239 0.3736419
vt 0.7248239 0.3736419
vt 0.7248239 0.3736419
vt 0.7248239 0.3736418
vt 0.7248239 0.3736418
vt 0.7248239 0.3736418
vt 0.1163972 0.9880672
vt 0.1163972 0.9880669
vt 0.1163972 0.9880668
vt 0.116397 0.9880667
vt 0.116397 0.9880673
vt 0.1163972 0.9880669
vt 0.03382957 0.9859044
vt 0.03382957 0.9859043
vt 0.03382963 0.9859044
vt 0.03382963 0.9859043
vt 0.03382963 0.9859044
vt 0.03382963 0.9859044
vt 0.6718171 0.9605932
vt 0.6718171 0.9605932
vt 0.6718171 0.9605932
vt 0.6718174 0.9605932
vt 0.6718171 0.9605932
vt 0.6718171 0.9605932
vt 0.6718171 0.9605932
vt 0.6718171 0.9605932
vt 0.6718171 0.9605932
vt 0.6718174 0.9605932
vt 0.6718171 0.9605932
vt 0.6718171 0.9605932
vt 0.6718174 0.9605932
vt 0.6718172 0.9605932
vt 0.6718172 0.9605932
vt 0.6718174 0.9605932
vt 0.6718174 0.9605932
vt 0.6718175 0.9605932
vt 0.6718174 0.9495985
vt 0.6718172 0.9495985
vt 0.6718172 0.9495985
vt 0.6718174 0.9495986
vt 0.6718174 0.9495986
vt 0.6718175 0.9495986
vt 0.6718174 0.9605932
vt 0.6718174 0.9605932
vt 0.6718174 0.9605932
vt 0.6718174 0.9605932
vt 0.6718174 0.9605932
vt 0.6718175 0.9605932
vt 0.6718174 0.9605932
vt 0.6718174 0.9605932
vt 0.6718174 0.9605932
vt 0.6718175 0.9605932
vt 0.6718174 0.9605932
vt 0.6718174 0.9605932
vt 0.5770507 0.9633237
vt 0.5770507 0.9633237
vt 0.5770507 0.9633237
vt 0.5770507 0.9633237
vt 0.5770507 0.9633237
vt 0.5770507 0.9633237
vt 0.5770507 0.97737
vt 0.5770507 0.97737
vt 0.5770507 0.97737
vt 0.5770507 0.97737
vt 0.5770507 0.97737
vt 0.5770507 0.97737
vt 0.5770507 0.9352311
vt 0.5770507 0.9352311
vt 0.5770507 0.9352311
vt 0.5770507 0.9352311
vt 0.5770507 0.9352311
vt 0.5770507 0.9352311
vt 0.5770507 0.97737
vt 0.5770507 0.97737
vt 0.5770507 0.97737
vt 0.5770507 0.97737
vt 0.5770507 0.97737
vt 0.5770507 0.97737
vt 0.5770508 0.9633237
vt 0.5770508 0.9633237
vt 0.5770508 0.9633237
vt 0.5770507 0.9633237
vt 0.5770508 0.9633237
vt 0.5770507 0.9633237
vt 0.5770507 0.9633237
vt 0.03382954 0.9859044
vt 0.03382954 0.9859044
vt 0.03382954 0.9859043
vt 0.03382945 0.9859044
vt 0.03382945 0.9859043
vt 0.03382954 0.9859044
vt 0.1163968 0.9880672
vt 0.1163968 0.9880669
vt 0.1163968 0.9880668
vt 0.116397 0.9880667
vt 0.116397 0.9880673
vt 0.1163974 0.9880669
vt 0.6718174 0.9375567
vt 0.6718174 0.9375567
vt 0.6718175 0.9375567
vt 0.6718175 0.9375566
vt 0.6718174 0.9375567
vt 0.6718174 0.9375567
vt 0.6718171 0.9815354
vt 0.6718174 0.9815355
vt 0.6718174 0.9815355
vt 0.6718171 0.9815354
vt 0.6718171 0.9815355
vt 0.6718171 0.9815355
vt 0.6718171 0.9307504
vt 0.6718171 0.9307505
vt 0.6718171 0.9307505
vt 0.6718171 0.9307504
vt 0.6718172 0.9307505
vt 0.6718172 0.9307504
vt 0.6718171 0.9815355
vt 0.6718171 0.9815355
vt 0.6718171 0.9815354
vt 0.6718171 0.9815354
vt 0.6718171 0.9815355
vt 0.6718171 0.9815354
vt 0.5770507 0.9522569
vt 0.5770507 0.9522569
vt 0.5770508 0.9522569
vt 0.5770508 0.9522569
vt 0.5770508 0.9522569
vt 0.5770508 0.9522569
vt 0.03946783 0.9548941
vt 0.03946783 0.9548938
vt 0.03946772 0.9548939
vt 0.03946772 0.9548941
vt 0.03946769 0.9548938
vt 0.03946769 0.9548941
vt 0.5770507 0.9633237
vt 0.5770507 0.9633237
vt 0.5770507 0.9633237
vt 0.5770507 0.9633237
vt 0.5770507 0.9633237
vt 0.5770507 0.9633237
vt 0.5770507 0.9633237
vt 0.5770507 0.9633237
vt 0.5770507 0.9633237
vt 0.5770508 0.9633237
vt 0.5770507 0.9633237
vt 0.5770507 0.9522569
vt 0.5770507 0.9522569
vt 0.5770507 0.9522569
vt 0.5770507 0.9522569
vt 0.5770507 0.9522569
vt 0.5770507 0.9522569
vt 0.3835879 0.3745833
vt 0.383588 0.4143981
vt 0.383588 0.3745833
vt 0.3835879 0.4143981
vt 0.3835882 0.3745833
vt 0.3835882 0.4143981
vt 0.383588 0.3745833
vt 0.383588 0.4143981
vt 0.383588 0.3745833
vt 0.383588 0.4143981
vt 0.383588 0.3745833
vt 0.383588 0.4143981
vn 0.5000001 -0.0002525712 -0.8660253
vn -0.4999999 0.0002525958 -0.8660255
vn -0.9999999 0.0005051916 0
vn -0.5 0.0002525958 0.8660254
vn 0.4999999 -0.0002525711 0.8660254
vn 0.9999999 -0.0005051423 1.548574E-07
vn -0.9999999 0.0005051799 -1.548575E-07
vn -0.4999996 0.0002525243 -0.8660256
vn 0.5000001 -0.0002525125 -0.8660253
vn 0.9999999 -0.0005050246 0
vn 0.4999999 -0.0002525121 0.8660254
vn -0.4999999 0.0002526554 0.8660254
vn -0.9999999 0.000505185 -2.753021E-07
vn -0.4999995 0.0002525178 -0.8660257
vn 0.5000001 -0.0002525333 -0.8660253
vn 0.9999999 -0.0005050842 0
vn 0.4999999 -0.0002525509 0.8660254
vn -0.4999999 0.000252667 0.8660254
vn 0.9999999 -0.0005046439 -3.09715E-07
vn 0.4999996 -0.0002519775 0.8660256
vn -0.5000001 0.0002519774 0.8660253
vn -0.9999999 0.0005046427 -4.301595E-07
vn -0.4999996 0.0002526653 -0.8660256
vn 0.4999994 -0.0002526659 -0.8660257
vn 0.4327602 -0.5002187 -0.7499998
vn -0.4332654 -0.4997813 -0.7499998
vn -0.8662781 -0.4995621 -1.468303E-07
vn -0.4332658 -0.4997813 0.7499996
vn 0.4327599 -0.5002186 0.7500002
vn 0.8657727 -0.5004374 2.256987E-07
vn 0.4332654 0.499781 -0.7500001
vn -0.4327602 0.5002187 -0.7499999
vn -0.8657728 0.5004373 -3.894275E-07
vn -0.4327607 0.500219 0.7499995
vn 0.4332651 0.4997815 0.7499999
vn 0.8662778 0.4995625 0
vn 0.5000001 -0.0002525849 -0.8660253
vn -0.4999999 0.0002526561 -0.8660254
vn -0.9999999 0.0005052942 -1.032383E-07
vn -0.5000002 0.0002526383 0.8660253
vn 0.5 -0.0002525938 0.8660254
vn 0.9999999 -0.0005051786 0
vn 0.5000001 -0.0002525849 -0.8660253
vn -0.4999999 0.0002526561 -0.8660254
vn -0.9999999 0.0005052942 -1.032383E-07
vn -0.5000002 0.0002526383 0.8660253
vn 0.5 -0.0002525938 0.8660254
vn 0.9999999 -0.0005051786 0
vn 0.4327608 -0.5002182 -0.7499999
vn -0.4332648 -0.4997816 -0.7500001
vn -0.8662775 -0.4995629 -5.543983E-07
vn -0.4332653 -0.4997815 0.7499997
vn 0.4327606 -0.5002185 0.7499998
vn 0.8657733 -0.5004364 0
vn 0.4332656 0.4997818 -0.7499995
vn -0.4327598 0.5002184 -0.7500004
vn -0.865773 0.500437 -5.543987E-07
vn -0.4327602 0.5002188 0.7499998
vn 0.4332656 0.4997815 0.7499996
vn 0.8662775 0.4995631 0
vn 0.4327602 -0.5002189 -0.7499998
vn -0.4332646 -0.4997815 -0.7500002
vn -0.8662773 -0.4995633 -6.955573E-07
vn -0.4332654 -0.4997818 0.7499996
vn 0.4327602 -0.5002192 0.7499996
vn 0.8657725 -0.5004379 -3.081273E-07
vn 0.5000004 -0.000253021 -0.8660251
vn -0.4999995 0.0002519355 -0.8660257
vn -0.9999999 0.0005038713 -4.129532E-07
vn -0.5000001 0.0002519357 0.8660253
vn 0.5000001 -0.0002530209 0.8660253
vn 0.9999999 -0.0005060415 0
vn 0.4305587 -0.5077618 -0.7461884
vn -0.4310699 -0.5073264 -0.7461895
vn -0.8618826 -0.5071079 0
vn -0.43107 -0.5073263 0.7461894
vn 0.4305587 -0.507762 0.7461884
vn 0.8613702 -0.5079777 -1.037833E-07
vn 0.4354407 0.4921601 -0.7537705
vn -0.4349421 0.4925994 -0.7537713
vn -0.870132 0.4928188 -6.611743E-07
vn -0.4349426 0.4925999 0.7537708
vn 0.435441 0.4921605 0.7537699
vn 0.8706299 0.4919386 -7.210808E-07
vn 0.4327603 -0.5002189 -0.7499998
vn -0.433265 -0.4997813 -0.7500001
vn -0.8662778 -0.4995626 -1.639128E-07
vn -0.4332654 -0.4997813 0.7499999
vn 0.4327601 -0.5002189 0.7499998
vn 0.8657727 -0.5004376 0
vn -0.9999999 0.0005049813 -1.892702E-07
vn 0.4999999 -0.0002526394 -0.8660254
vn 0.9999999 -0.0005049527 0
vn 0.4999997 -0.0002523131 0.8660255
vn -0.5000001 0.0002522981 0.8660253
vn -0.9999999 0.0005049222 -3.527308E-07
vn -0.4999996 0.000252624 -0.8660255
vn -0.9999999 0.0005051799 -1.548575E-07
vn -0.4999996 0.0002525243 -0.8660256
vn 0.5000001 -0.0002525125 -0.8660253
vn 0.9999999 -0.0005050246 0
vn 0.4999999 -0.0002525121 0.8660254
vn -0.4999999 0.0002526554 0.8660254
vn 0.4327602 -0.5002187 -0.7499998
vn -0.4332654 -0.4997813 -0.7499998
vn -0.8662781 -0.4995621 -1.468303E-07
vn 0.8657727 -0.5004374 2.256987E-07
vn -0.4332658 -0.4997813 0.7499996
vn 0.4327599 -0.5002186 0.7500002
vn -0.8657728 0.5004373 -3.894275E-07
vn -0.4327602 0.5002187 -0.7499999
vn 0.4332654 0.499781 -0.7500001
vn 0.8662778 0.4995625 0
vn -0.4327607 0.500219 0.7499995
vn 0.4332651 0.4997815 0.7499999
vn 0.4327608 -0.5002182 -0.7499999
vn -0.4332648 -0.4997816 -0.7500001
vn -0.8662775 -0.4995629 -5.543983E-07
vn 0.8657733 -0.5004364 0
vn -0.4332653 -0.4997815 0.7499997
vn 0.4327606 -0.5002185 0.7499998
vn -0.865773 0.500437 -5.543987E-07
vn -0.4327598 0.5002184 -0.7500004
vn 0.4332656 0.4997818 -0.7499995
vn 0.8662775 0.4995631 0
vn -0.4327602 0.5002188 0.7499998
vn 0.4332656 0.4997815 0.7499996
vn 0.4327602 -0.5002189 -0.7499998
vn -0.4332646 -0.4997815 -0.7500002
vn -0.8662773 -0.4995633 -6.955573E-07
vn 0.8657725 -0.5004379 -3.081273E-07
vn -0.4332654 -0.4997818 0.7499996
vn 0.4327602 -0.5002192 0.7499996
vn 0.4305587 -0.5077618 -0.7461884
vn -0.4310699 -0.5073264 -0.7461895
vn -0.8618826 -0.5071079 0
vn 0.8613702 -0.5079777 -1.037833E-07
vn -0.43107 -0.5073263 0.7461894
vn 0.4305587 -0.507762 0.7461884
vn -0.870132 0.4928188 -6.611743E-07
vn -0.4349421 0.4925994 -0.7537713
vn 0.4354407 0.4921601 -0.7537705
vn 0.8706299 0.4919386 -7.210808E-07
vn -0.4349426 0.4925999 0.7537708
vn 0.435441 0.4921605 0.7537699
vn -0.4999996 0.0002524687 -0.8660255
vn 0.5000003 -0.0002527737 -0.8660253
vn -0.5000001 0.0002525124 0.8660253
vn 0.5000001 -0.0002527736 0.8660253
vn 0.9999999 -0.0005055472 0
vn 0.4327603 -0.5002189 -0.7499998
vn -0.433265 -0.4997813 -0.7500001
vn -0.8662778 -0.4995626 -1.639128E-07
vn 0.8657727 -0.5004376 0
vn -0.4332654 -0.4997813 0.7499999
vn 0.4327601 -0.5002189 0.7499998
vn 0.9999999 -0.0005049527 0
vn 0.5000001 -0.0002525333 -0.8660253
vn 0.4999999 -0.0002526394 -0.8660254
vn 0.9999999 -0.0005050842 0
vn 0.4999997 -0.0002523131 0.8660255
vn 0.4999999 -0.0002525509 0.8660254
vn -0.5000001 0.0002522981 0.8660253
vn -0.4999999 0.000252667 0.8660254
vn -0.9999999 0.0005049222 -3.527308E-07
vn -0.9999999 0.000505185 -2.753021E-07
vn -0.4999996 0.000252624 -0.8660255
vn -0.4999995 0.0002525178 -0.8660257
g syringe_geo_0
f 7/7/7 3/3/3 8/8/8
f 3/3/3 2/2/2 8/8/8
f 8/8/8 2/2/2 9/9/9
f 2/2/2 1/1/1 9/9/9
f 9/9/9 1/1/1 10/10/10
f 1/1/1 6/6/6 10/10/10
f 10/10/10 6/6/6 11/11/11
f 6/6/6 5/5/5 11/11/11
f 11/11/11 5/5/5 12/12/12
f 5/5/5 4/4/4 12/12/12
f 12/12/12 4/4/4 7/7/7
f 4/4/4 3/3/3 7/7/7
f 13/13/13 98/98/98 14/14/14
f 98/98/98 99/99/99 14/14/14
f 14/14/14 99/99/99 15/15/15
f 99/99/99 100/100/100 15/15/15
f 15/15/15 100/100/100 16/16/16
f 100/100/100 101/101/101 16/16/16
f 16/16/16 101/101/101 17/17/17
f 101/101/101 102/102/102 17/17/17
f 17/17/17 102/102/102 18/18/18
f 102/102/102 103/103/103 18/18/18
f 18/18/18 103/103/103 13/13/13
f 103/103/103 98/98/98 13/13/13
f 19/19/19 93/93/93 20/20/20
f 93/93/93 94/94/94 20/20/20
f 20/20/20 94/94/94 21/21/21
f 94/94/94 95/95/95 21/21/21
f 21/21/21 95/95/95 22/22/22
f 95/95/95 96/96/96 22/22/22
f 22/22/22 96/96/96 23/23/23
f 96/96/96 97/97/97 23/23/23
f 23/23/23 97/97/97 24/24/24
f 97/97/97 92/92/92 24/24/24
f 24/24/24 92/92/92 19/19/19
f 92/92/92 93/93/93 19/19/19
f 26/26/26 32/32/32 25/25/25
f 32/32/32 31/31/31 25/25/25
f 27/27/27 33/33/33 26/26/26
f 33/33/33 32/32/32 26/26/26
f 28/28/28 34/34/34 27/27/27
f 34/34/34 33/33/33 27/27/27
f 29/29/29 35/35/35 28/28/28
f 35/35/35 34/34/34 28/28/28
f 30/30/30 36/36/36 29/29/29
f 36/36/36 35/35/35 29/29/29
f 25/25/25 31/31/31 30/30/30
f 31/31/31 36/36/36 30/30/30
f 106/106/106 105/105/105 104/104/104
f 104/104/104 107/107/107 106/106/106
f 107/107/107 108/108/108 106/106/106
f 107/107/107 109/109/109 108/108/108
f 112/112/112 111/111/111 110/110/110
f 110/110/110 113/113/113 112/112/112
f 110/110/110 114/114/114 113/113/113
f 114/114/114 115/115/115 113/113/113
f 38/38/38 44/44/44 37/37/37
f 44/44/44 43/43/43 37/37/37
f 39/39/39 45/45/45 38/38/38
f 45/45/45 44/44/44 38/38/38
f 40/40/40 46/46/46 39/39/39
f 46/46/46 45/45/45 39/39/39
f 41/41/41 47/47/47 40/40/40
f 47/47/47 46/46/46 40/40/40
f 42/42/42 48/48/48 41/41/41
f 48/48/48 47/47/47 41/41/41
f 37/37/37 43/43/43 42/42/42
f 43/43/43 48/48/48 42/42/42
f 50/50/50 56/56/56 49/49/49
f 56/56/56 55/55/55 49/49/49
f 51/51/51 57/57/57 50/50/50
f 57/57/57 56/56/56 50/50/50
f 52/52/52 58/58/58 51/51/51
f 58/58/58 57/57/57 51/51/51
f 53/53/53 59/59/59 52/52/52
f 59/59/59 58/58/58 52/52/52
f 54/54/54 60/60/60 53/53/53
f 60/60/60 59/59/59 53/53/53
f 49/49/49 55/55/55 54/54/54
f 55/55/55 60/60/60 54/54/54
f 118/118/118 117/117/117 116/116/116
f 116/116/116 119/119/119 118/118/118
f 119/119/119 120/120/120 118/118/118
f 119/119/119 121/121/121 120/120/120
f 124/124/124 123/123/123 122/122/122
f 122/122/122 125/125/125 124/124/124
f 122/122/122 126/126/126 125/125/125
f 126/126/126 127/127/127 125/125/125
f 62/62/62 68/68/68 61/61/61
f 68/68/68 67/67/67 61/61/61
f 63/63/63 69/69/69 62/62/62
f 69/69/69 68/68/68 62/62/62
f 64/64/64 70/70/70 63/63/63
f 70/70/70 69/69/69 63/63/63
f 65/65/65 71/71/71 64/64/64
f 71/71/71 70/70/70 64/64/64
f 66/66/66 72/72/72 65/65/65
f 72/72/72 71/71/71 65/65/65
f 61/61/61 67/67/67 66/66/66
f 67/67/67 72/72/72 66/66/66
f 130/130/130 129/129/129 128/128/128
f 128/128/128 131/131/131 130/130/130
f 131/131/131 132/132/132 130/130/130
f 131/131/131 133/133/133 132/132/132
f 74/74/74 80/80/80 73/73/73
f 80/80/80 79/79/79 73/73/73
f 75/75/75 81/81/81 74/74/74
f 81/81/81 80/80/80 74/74/74
f 76/76/76 82/82/82 75/75/75
f 82/82/82 81/81/81 75/75/75
f 77/77/77 83/83/83 76/76/76
f 83/83/83 82/82/82 76/76/76
f 78/78/78 84/84/84 77/77/77
f 84/84/84 83/83/83 77/77/77
f 73/73/73 79/79/79 78/78/78
f 79/79/79 84/84/84 78/78/78
f 136/136/136 135/135/135 134/134/134
f 134/134/134 137/137/137 136/136/136
f 137/137/137 138/138/138 136/136/136
f 137/137/137 139/139/139 138/138/138
f 142/142/142 141/141/141 140/140/140
f 140/140/140 143/143/143 142/142/142
f 140/140/140 144/144/144 143/143/143
f 144/144/144 145/145/145 143/143/143
f 86/86/86 146/146/146 85/85/85
f 146/146/146 147/147/147 85/85/85
f 87/87/87 91/91/91 86/86/86
f 91/91/91 146/146/146 86/86/86
f 88/88/88 148/148/148 87/87/87
f 148/148/148 91/91/91 87/87/87
f 89/89/89 149/149/149 88/88/88
f 149/149/149 148/148/148 88/88/88
f 90/90/90 150/150/150 89/89/89
f 150/150/150 149/149/149 89/89/89
f 85/85/85 147/147/147 90/90/90
f 147/147/147 150/150/150 90/90/90
f 153/153/153 152/152/152 151/151/151
f 151/151/151 154/154/154 153/153/153
f 154/154/154 155/155/155 153/153/153
f 154/154/154 156/156/156 155/155/155
f 7/7/7 3/3/3 8/8/8
f 3/3/3 2/2/2 8/8/8
f 8/8/8 2/2/2 9/9/9
f 2/2/2 1/1/1 9/9/9
f 9/9/9 1/1/1 10/10/10
f 1/1/1 6/6/6 10/10/10
f 10/10/10 6/6/6 11/11/11
f 6/6/6 5/5/5 11/11/11
f 11/11/11 5/5/5 12/12/12
f 5/5/5 4/4/4 12/12/12
f 12/12/12 4/4/4 7/7/7
f 4/4/4 3/3/3 7/7/7
f 13/13/13 98/98/98 14/14/14
f 98/98/98 99/99/99 14/14/14
f 14/14/14 99/99/99 15/15/15
f 99/99/99 100/100/100 15/15/15
f 15/15/15 100/100/100 16/16/16
f 100/100/100 101/101/101 16/16/16
f 16/16/16 101/101/101 17/17/17
f 101/101/101 102/102/102 17/17/17
f 17/17/17 102/102/102 18/18/18
f 102/102/102 103/103/103 18/18/18
f 18/18/18 103/103/103 13/13/13
f 103/103/103 98/98/98 13/13/13
f 159/159/159 158/158/158 157/157/157
f 158/158/158 160/160/160 157/157/157
f 157/157/157 160/160/160 161/161/161
f 160/160/160 162/162/162 161/161/161
f 161/161/161 162/162/162 163/163/163
f 162/162/162 164/164/164 163/163/163
f 163/163/163 164/164/164 165/165/165
f 164/164/164 166/166/166 165/165/165
f 165/165/165 166/166/166 167/167/167
f 166/166/166 168/168/168 167/167/167
f 167/167/167 168/168/168 159/159/159
f 168/168/168 158/158/158 159/159/159
