g thinLong_geo
v -0.02189156 1.122485 0.3281376
v -0.0171209 1.190822 0.2899248
v -1.525879E-07 1.121274 0.3547624
v -8.594053E-17 1.105257 0.3235759
v -7.629394E-08 1.19177 0.3132846
v -1.525879E-07 1.136031 0.3518399
v -1.525879E-07 1.166195 0.3323705
v -0.02317581 1.165849 0.2933562
v -7.629394E-08 1.218039 0.2883849
v -0.02891243 1.141049 0.2985615
v -0.03594246 1.111438 0.3106101
v -0.04550606 1.127824 0.3025927
v -0.04319122 1.143461 0.2943256
v -7.629394E-08 1.102285 0.3161027
v -0.03400406 1.167114 0.2900766
v -0.02247231 1.191408 0.2869245
v -0.01463928 1.217446 0.2858385
v -1.228638E-16 1.254473 0.2883679
v -8.48098E-17 1.112408 0.3482614
v -0.0190107 1.138741 0.3222768
v -0.01539009 1.166566 0.3122174
v -0.008879852 1.19224 0.3026928
v -1.110643E-16 1.206082 0.2991298
v -0.004 1.206455 0.2969991
v -0.004000038 1.191834 0.3118256
v -0.004000114 1.165857 0.3311476
v -0.004 1.136148 0.3510908
v -0.004000038 1.121642 0.354267
v -0.004000038 1.112971 0.3479443
v -0.004 1.106755 0.3237588
v -0.03300346 1.125154 0.3037937
v -0.009069747 1.217743 0.2871117
v 0.02189148 1.122485 0.3281376
v 0.0171209 1.190822 0.2899248
v 0.02317566 1.165849 0.2933562
v 0.02891235 1.141049 0.2985615
v 0.03594254 1.111438 0.3106101
v 0.04550606 1.127824 0.3025927
v 0.04319107 1.143461 0.2943256
v 0.03400398 1.167114 0.2900766
v 0.02247238 1.191408 0.2869245
v 0.01463936 1.217446 0.2858385
v 0.01901062 1.138741 0.3222768
v 0.01539017 1.166566 0.3122174
v 0.008879929 1.19224 0.3026928
v 0.004 1.206455 0.2969991
v 0.003999962 1.191834 0.3118257
v 0.003999886 1.165857 0.3311476
v 0.004 1.136148 0.3510908
v 0.003999962 1.121642 0.354267
v 0.003999962 1.112971 0.3479443
v 0.004 1.106755 0.3237588
v 0.03300339 1.125154 0.3037937
v 0.009069747 1.217743 0.2871117
v -0.004 1.206455 0.2969991
v -7.629394E-08 1.218039 0.2883849
v -0.004000038 1.191834 0.3118256
v -0.004000114 1.165857 0.3311476
v -0.004 1.136148 0.3510908
v -0.004000038 1.121642 0.354267
v -0.004000038 1.112971 0.3479443
v -0.004 1.106755 0.3237588
v -7.629394E-08 1.102285 0.3161027
v -7.629394E-08 1.102285 0.3161027
v 0.004 1.206455 0.2969991
v 0.003999962 1.191834 0.3118257
v 0.003999886 1.165857 0.3311476
v 0.004 1.136148 0.3510908
v 0.003999962 1.121642 0.354267
v 0.003999962 1.112971 0.3479443
v 0.004 1.106755 0.3237588
vt 0.9454063 0.1636622
vt 0.950411 0.184059
vt 0.9954521 0.1303777
vt 0.9954515 0.1303771
vt 0.9954521 0.1303763
vt 0.9954521 0.1303777
vt 0.9954521 0.1303777
vt 0.9463316 0.1784917
vt 0.9574106 0.1900005
vt 0.9426517 0.1727973
vt 0.9388316 0.1652798
vt 0.9375255 0.1705106
vt 0.9393001 0.1748686
vt 0.9415644 0.1557934
vt 0.943732 0.1800296
vt 0.9490426 0.1849184
vt 0.9533394 0.1903219
vt 0.9574336 0.1998508
vt 0.9954521 0.1303777
vt 0.9474696 0.1680008
vt 0.9506326 0.1752717
vt 0.953918 0.1820374
vt 0.9954521 0.1303776
vt 0.9561637 0.1859207
vt 0.9562685 0.1802868
vt 0.9554132 0.1716385
vt 0.9541775 0.162272
vt 0.9526129 0.1587006
vt 0.9501307 0.1573772
vt 0.9436238 0.1571209
vt 0.9404699 0.1689495
vt 0.9548188 0.1901375
vt 0.9695237 0.1636554
vt 0.9644292 0.1840453
vt 0.9685284 0.1785094
vt 0.9722415 0.1728227
vt 0.9761054 0.1653065
vt 0.9773902 0.1705562
vt 0.9755893 0.1749159
vt 0.9711196 0.1800631
vt 0.9657936 0.1849097
vt 0.9614878 0.1903039
vt 0.9674363 0.1679935
vt 0.9642343 0.175261
vt 0.9609303 0.1820078
vt 0.9586637 0.1858885
vt 0.958587 0.1802454
vt 0.9594601 0.1716046
vt 0.96074 0.1622226
vt 0.9623244 0.1586506
vt 0.9648179 0.1573358
vt 0.9713392 0.1571085
vt 0.9744464 0.1689771
vt 0.9600082 0.1901224
vt 0.9954521 0.1303776
vt 0.9954521 0.1303776
vt 0.9954528 0.1303776
vt 0.9954528 0.1303777
vt 0.9954521 0.130377
vt 0.9954528 0.1303777
vt 0.9954528 0.1303777
vt 0.9954522 0.1303764
vt 0.9954515 0.1303778
vt 0.9734088 0.1557873
vt 0.9954535 0.1303776
vt 0.9954521 0.1303776
vt 0.9954528 0.1303777
vt 0.9954534 0.130377
vt 0.9954528 0.1303777
vt 0.9954528 0.1303777
vt 0.9954515 0.1303764
vn -0.832539 -0.1915369 0.5198003
vn -0.5998081 0.2857947 0.7473631
vn -4.367094E-06 -0.2110283 0.97748
vn -1.594513E-06 -0.9485525 0.3166199
vn -3.603244E-06 0.6543938 0.7561539
vn -5.553243E-06 0.3824676 0.923969
vn -5.244825E-06 0.5736851 0.8190759
vn -0.6294875 0.2944458 0.7190599
vn -3.34598E-06 0.4528667 0.8915782
vn -0.5826601 0.3513836 0.7328278
vn -0.4062738 -0.3132249 0.8583891
vn -0.04889622 0.4272959 0.9027886
vn -0.1752397 0.3351344 0.92573
vn -2.303109E-06 -0.9260228 0.3774677
vn -0.2851993 0.2483631 0.9257305
vn -0.3413599 0.206681 0.9169278
vn -0.2909466 0.09854646 0.9516505
vn 1.903618E-06 0.01141242 0.9999349
vn -1.338039E-06 -0.821567 0.570112
vn -0.8506459 0.2809983 0.4443438
vn -0.8429247 0.3138207 0.4370292
vn -0.795144 0.3713286 0.4794385
vn -1.886839E-06 0.6884607 0.7252736
vn -0.4693935 0.5751208 0.6700042
vn -0.5605468 0.5447988 0.6236839
vn -0.5638793 0.4736763 0.6765139
vn -0.5502154 0.3471107 0.7594585
vn -0.5529221 -0.1552186 0.8186479
vn -0.4885566 -0.7266288 0.4830352
vn -0.4521252 -0.7975006 0.3994691
vn -0.4668884 0.2619635 0.8446245
vn -0.3379403 0.249811 0.9074088
vn 0.8325394 -0.1915352 0.5198003
vn 0.5998114 0.2857935 0.7473609
vn 0.6294898 0.2944443 0.7190585
vn 0.5826617 0.3513834 0.7328268
vn 0.4062733 -0.3132229 0.85839
vn 0.04889765 0.4272947 0.9027891
vn 0.175242 0.3351348 0.9257294
vn 0.2851994 0.2483622 0.9257308
vn 0.3413645 0.2066795 0.9169263
vn 0.2909617 0.09854946 0.9516456
vn 0.8506463 0.2809981 0.4443432
vn 0.8429242 0.3138205 0.4370303
vn 0.7951413 0.3713295 0.4794421
vn 0.4693891 0.5751234 0.6700052
vn 0.5605391 0.5448 0.6236898
vn 0.5638717 0.4736778 0.676519
vn 0.5502108 0.3471126 0.7594609
vn 0.5529198 -0.1552199 0.8186492
vn 0.4885557 -0.7266286 0.4830364
vn 0.4521242 -0.7974986 0.3994742
vn 0.4668883 0.2619642 0.8446242
vn 0.3379436 0.249814 0.9074067
vn -0.4693935 0.5751208 0.6700042
vn -3.34598E-06 0.4528667 0.8915782
vn -0.5605468 0.5447988 0.6236839
vn -0.5638793 0.4736763 0.6765139
vn -0.5502154 0.3471107 0.7594585
vn -0.5529221 -0.1552186 0.8186479
vn -0.4885566 -0.7266288 0.4830352
vn -0.4521252 -0.7975006 0.3994691
vn -2.303109E-06 -0.9260228 0.3774677
vn -2.303109E-06 -0.9260228 0.3774677
vn 0.4693891 0.5751234 0.6700052
vn 0.5605391 0.5448 0.6236898
vn 0.5638717 0.4736778 0.676519
vn 0.5502108 0.3471126 0.7594609
vn 0.5529198 -0.1552199 0.8186492
vn 0.4885557 -0.7266286 0.4830364
vn 0.4521242 -0.7974986 0.3994742
g thinLong_geo_0
f 1/1/1 29/29/29 28/28/28
f 30/30/30 29/29/29 1/1/1
f 11/11/11 30/30/30 1/1/1
f 14/14/14 30/30/30 11/11/11
f 33/33/33 53/53/53 36/36/36
f 37/37/37 53/53/53 33/33/33
f 52/52/52 37/37/37 33/33/33
f 64/64/64 37/37/37 52/52/52
f 44/44/44 48/48/48 49/49/49
f 47/47/47 48/48/48 44/44/44
f 45/45/45 47/47/47 44/44/44
f 46/46/46 47/47/47 45/45/45
f 54/54/54 46/46/46 45/45/45
f 9/9/9 46/46/46 54/54/54
f 20/20/20 1/1/1 28/28/28
f 10/10/10 1/1/1 20/20/20
f 21/21/21 10/10/10 20/20/20
f 8/8/8 10/10/10 21/21/21
f 22/22/22 8/8/8 21/21/21
f 2/2/2 8/8/8 22/22/22
f 24/24/24 2/2/2 22/22/22
f 32/32/32 2/2/2 24/24/24
f 9/9/9 32/32/32 24/24/24
f 1/1/1 31/31/31 11/11/11
f 10/10/10 31/31/31 1/1/1
f 21/21/21 26/26/26 25/25/25
f 27/27/27 26/26/26 21/21/21
f 20/20/20 27/27/27 21/21/21
f 28/28/28 27/27/27 20/20/20
f 22/22/22 25/25/25 24/24/24
f 21/21/21 25/25/25 22/22/22
f 5/5/5 57/57/57 58/58/58
f 55/55/55 57/57/57 5/5/5
f 23/23/23 55/55/55 5/5/5
f 56/56/56 55/55/55 23/23/23
f 65/65/65 56/56/56 23/23/23
f 19/19/19 70/70/70 69/69/69
f 3/3/3 19/19/19 69/69/69
f 60/60/60 19/19/19 3/3/3
f 6/6/6 60/60/60 3/3/3
f 59/59/59 60/60/60 6/6/6
f 58/58/58 59/59/59 6/6/6
f 4/4/4 71/71/71 70/70/70
f 19/19/19 4/4/4 70/70/70
f 61/61/61 4/4/4 19/19/19
f 60/60/60 61/61/61 19/19/19
f 4/4/4 63/63/63 71/71/71
f 62/62/62 63/63/63 4/4/4
f 61/61/61 62/62/62 4/4/4
f 45/45/45 34/34/34 54/54/54
f 35/35/35 34/34/34 45/45/45
f 44/44/44 35/35/35 45/45/45
f 36/36/36 35/35/35 44/44/44
f 43/43/43 36/36/36 44/44/44
f 33/33/33 36/36/36 43/43/43
f 50/50/50 33/33/33 43/43/43
f 51/51/51 33/33/33 50/50/50
f 5/5/5 66/66/66 65/65/65
f 67/67/67 66/66/66 5/5/5
f 7/7/7 67/67/67 5/5/5
f 6/6/6 67/67/67 7/7/7
f 58/58/58 6/6/6 7/7/7
f 6/6/6 68/68/68 67/67/67
f 69/69/69 68/68/68 6/6/6
f 3/3/3 69/69/69 6/6/6
f 51/51/51 52/52/52 33/33/33
f 49/49/49 43/43/43 44/44/44
f 50/50/50 43/43/43 49/49/49
f 5/5/5 58/58/58 7/7/7
f 23/23/23 5/5/5 65/65/65
g thinLong_geo_1
f 2/2/2 17/17/17 16/16/16
f 15/15/15 2/2/2 16/16/16
f 8/8/8 2/2/2 15/15/15
f 13/13/13 8/8/8 15/15/15
f 10/10/10 8/8/8 13/13/13
f 12/12/12 10/10/10 13/13/13
f 31/31/31 10/10/10 12/12/12
f 11/11/11 31/31/31 12/12/12
f 34/34/34 41/41/41 42/42/42
f 40/40/40 41/41/41 34/34/34
f 35/35/35 40/40/40 34/34/34
f 39/39/39 40/40/40 35/35/35
f 36/36/36 39/39/39 35/35/35
f 38/38/38 39/39/39 36/36/36
f 53/53/53 38/38/38 36/36/36
f 37/37/37 38/38/38 53/53/53
f 54/54/54 34/34/34 42/42/42
f 18/18/18 54/54/54 42/42/42
f 9/9/9 54/54/54 18/18/18
f 32/32/32 9/9/9 18/18/18
f 32/32/32 17/17/17 2/2/2
f 18/18/18 17/17/17 32/32/32
