g thinUpturn_geo
v 0.004573938 1.151887 0.3065861
v 0.004573936 1.141183 0.3238604
v 0.00780938 1.136442 0.3127744
v 0.008028812 1.145208 0.2985308
v 0.007750747 1.158521 0.2878515
v 0.004573925 1.16278 0.2948418
v 0.00731701 1.175125 0.2765647
v 0.004573921 1.178552 0.2823639
v 0.01938671 1.137447 0.2763581
v 0.0162517 1.124592 0.2784854
v 0.01112107 1.159214 0.276507
v 0.00457391 1.122474 0.299533
v 0.01039275 1.129264 0.2955661
v 0.004573922 1.136515 0.3236694
v 0.0119435 1.13998 0.2869728
v 3.948104E-09 1.180993 0.2848937
v 3.152272E-09 1.16513 0.2980072
v 3.384233E-08 1.154362 0.3100979
v 3.398576E-08 1.144223 0.3265823
v -1.188339E-08 1.121004 0.3022135
v 7.537406E-09 1.135853 0.3278564
v 0.006034117 1.119123 0.2811236
v 0.007850247 1.114273 0.2777638
v -1.42006E-08 1.117108 0.2850254
v -1.41065E-09 1.112583 0.2795208
v -0.004573898 1.151887 0.3065861
v -0.008028808 1.145208 0.2985309
v -0.007809384 1.136442 0.3127744
v -0.004573902 1.142483 0.3225209
v -0.004573913 1.162781 0.2948419
v -0.007750734 1.158521 0.2878515
v -0.004573917 1.178552 0.2823641
v -0.007317009 1.175125 0.2765647
v -0.0193867 1.137447 0.2763581
v -0.0162517 1.124592 0.2784853
v -0.01112106 1.159214 0.276507
v -0.004573927 1.122474 0.299533
v -0.004573915 1.136515 0.3236694
v -0.01039275 1.129264 0.295585
v -0.01194349 1.13998 0.2869728
v -0.006034126 1.119123 0.2811253
v -0.007850252 1.114273 0.2777638
v -0.004572853 1.118468 0.2834794
v 0.004572836 1.118406 0.2837099
v 0.04017181 1.103018 0.2665101
v 0.03507824 1.138698 0.2664768
v 0.01432908 1.159942 0.2694068
v 0.01200817 1.178645 0.2708858
v 0.009851518 1.194302 0.2720706
v -1.58537E-09 1.20293 0.2742707
v 0.04110074 1.089197 0.2680254
v -2.929135E-09 1.080955 0.2715487
v -0.03507824 1.138698 0.2664768
v -0.04017181 1.103018 0.2665101
v -0.01432909 1.159942 0.2694069
v -0.01200817 1.178645 0.2708858
v -0.009851521 1.194302 0.2720707
v -0.04110074 1.089197 0.2680254
v -0.003387712 1.193484 0.2763303
v 0.003290562 1.193588 0.2764042
v -0.004573921 1.128972 0.3124399
v -3.615801E-10 1.127627 0.3157613
v 0.004573917 1.12893 0.3123499
v 0.004573925 1.16278 0.2948418
v 0.004573938 1.151887 0.3065861
v 0.004573936 1.141183 0.3238604
v 0.004573922 1.136515 0.3236694
v 0.004573917 1.12893 0.3123499
v 0.004573921 1.178552 0.2823639
v 0.00457391 1.122474 0.299533
v 0.004572836 1.118406 0.2837099
v -1.58537E-09 1.20293 0.2742707
v -0.004573913 1.162781 0.2948419
v -0.004573898 1.151887 0.3065861
v -0.004573902 1.142483 0.3225209
v -0.004573915 1.136515 0.3236694
v -0.004573921 1.128972 0.3124399
v -0.004573917 1.178552 0.2823641
v -0.004573927 1.122474 0.299533
v -2.929135E-09 1.080955 0.2715487
v -1.41065E-09 1.112583 0.2795208
v -1.41065E-09 1.112583 0.2795208
v -0.004572853 1.118468 0.2834794
v 3.948104E-09 1.180993 0.2848937
v -0.003387712 1.193484 0.2763303
v -1.58537E-09 1.20293 0.2742707
v -0.004573917 1.178552 0.2823641
v 0.003290562 1.193588 0.2764042
v 0.004573921 1.178552 0.2823639
v 0.007850247 1.114273 0.2777638
v 0.04017181 1.103018 0.2665101
v -1.41065E-09 1.112583 0.2795208
v -0.007850252 1.114273 0.2777638
v -0.04017181 1.103018 0.2665101
v -1.41065E-09 1.112583 0.2795208
vt 0.9537261 0.1907775
vt 0.949634 0.1872727
vt 0.9530988 0.1851181
vt 0.956894 0.1879698
vt 0.9602293 0.1944711
vt 0.9572129 0.1956384
vt 0.9633725 0.201938
vt 0.9955766 0.133202
vt 0.96715 0.183893
vt 0.9642434 0.1790573
vt 0.9661622 0.1948128
vt 0.9530469 0.1823076
vt 0.9565499 0.1829275
vt 0.9496092 0.185459
vt 0.9623419 0.1848509
vt 0.9955766 0.133202
vt 0.9955766 0.1332019
vt 0.9955766 0.1332019
vt 0.9955766 0.1332019
vt 0.9955766 0.1332019
vt 0.9955766 0.1332019
vt 0.959748 0.1764231
vt 0.960619 0.1739567
vt 0.9955766 0.1332019
vt 0.9565251 0.1732269
vt 0.9421585 0.1907953
vt 0.9389838 0.1879967
vt 0.9427685 0.1851456
vt 0.9462277 0.1872887
vt 0.9386911 0.1956773
vt 0.9356651 0.1945229
vt 0.9955766 0.133202
vt 0.9325553 0.2020196
vt 0.928688 0.1839293
vt 0.9316139 0.1790853
vt 0.9297152 0.1948953
vt 0.9428186 0.1823443
vt 0.9462487 0.1854806
vt 0.9393216 0.1829608
vt 0.9335335 0.1848864
vt 0.9361348 0.1764583
vt 0.9352621 0.1739852
vt 0.9955766 0.1332019
vt 0.9955766 0.1332019
vt 0.9777376 0.1651333
vt 0.9760979 0.1839241
vt 0.9675449 0.1953928
vt 0.9661217 0.2035764
vt 0.9649172 0.2103436
vt 0.9609172 0.2144542
vt 0.9778108 0.1578682
vt 0.9561973 0.1539964
vt 0.9196799 0.1839676
vt 0.9181131 0.1650542
vt 0.9283283 0.1954852
vt 0.9298127 0.2036785
vt 0.9310626 0.2104468
vt 0.9180753 0.1577523
vt 0.9332538 0.2122588
vt 0.9626939 0.2122111
vt 0.9447352 0.1840968
vt 0.9955766 0.1332019
vt 0.9511408 0.184055
vt 0.9955766 0.1332019
vt 0.9955766 0.1332019
vt 0.9955766 0.1332019
vt 0.9955766 0.1332019
vt 0.9955766 0.1332019
vt 0.9610292 0.2033403
vt 0.9955766 0.1332019
vt 0.9585791 0.1764202
vt 0.9350926 0.2145389
vt 0.9955766 0.1332019
vt 0.9955766 0.1332019
vt 0.9955766 0.1332019
vt 0.9955766 0.1332019
vt 0.9955766 0.1332019
vt 0.9349103 0.2034091
vt 0.9955766 0.1332019
vt 0.9398172 0.1539675
vt 0.9955766 0.1332019
vt 0.9393756 0.1732821
vt 0.9372331 0.1764413
vt 0.9955357 0.1320459
vt 0.9955357 0.1320459
vt 0.9955357 0.1320459
vt 0.9955358 0.1320459
vt 0.9955357 0.1320459
vt 0.9955357 0.1320459
vt 0.960619 0.1739567
vt 0.9777376 0.1651333
vt 0.9565251 0.1732269
vt 0.9352621 0.1739852
vt 0.9181131 0.1650542
vt 0.9393756 0.1732821
vn 0.8306198 0.4403962 0.3407665
vn 0.8578456 0.2601165 0.4432159
vn 0.9639061 -0.1020214 0.24592
vn 0.9554258 0.2049613 0.2124911
vn 0.9364825 0.2216493 0.2717942
vn 0.8171951 0.3894338 0.4248922
vn 0.8533515 0.1617622 0.4956047
vn 0.7421714 0.3195113 0.589147
vn 0.7348274 0.1914578 0.6506709
vn 0.657647 -0.2551533 0.7087998
vn 0.8448477 0.2474011 0.474368
vn 0.6227973 -0.7305887 0.2799351
vn 0.9073078 -0.2771084 0.3162331
vn 0.8205446 -0.2845191 0.4957373
vn 0.9244758 0.16141 0.3453858
vn -0.001270681 0.530061 0.8479586
vn 1.422018E-05 0.6855653 0.7280111
vn 0.007217741 0.8009465 0.5986925
vn -0.01403233 0.54204 0.8402356
vn -0.002459591 -0.9413758 0.337351
vn -0.02172233 -0.4399994 0.8977354
vn 0.6959183 -0.4809579 0.5332702
vn 0.4093784 -0.2941 0.8636635
vn -0.01170382 -0.8956808 0.4445436
vn -0.006146824 -0.6005023 0.7995994
vn -0.8273877 0.446229 0.3410416
vn -0.9557741 0.2045933 0.2112757
vn -0.965454 -0.08841435 0.2451151
vn -0.8575933 0.2948962 0.4213905
vn -0.8171893 0.3894389 0.4248989
vn -0.936484 0.2216461 0.2717915
vn -0.743094 0.3192725 0.5881125
vn -0.8534119 0.1616871 0.4955255
vn -0.7348706 0.1915088 0.6506071
vn -0.6576945 -0.2551921 0.7087418
vn -0.8448472 0.2474009 0.4743691
vn -0.616006 -0.7364838 0.2795141
vn -0.8396752 -0.2512117 0.4814957
vn -0.9073491 -0.2770774 0.3161423
vn -0.924486 0.1615057 0.3453137
vn -0.6780932 -0.4972816 0.541203
vn -0.4021793 -0.2934875 0.8672467
vn -0.5638884 -0.6748476 0.4760365
vn 0.5708859 -0.6729298 0.4703774
vn 0.425872 -0.2291776 0.8752774
vn 0.6904993 0.2578371 0.6758186
vn 0.8141061 0.3061743 0.4934456
vn 0.8868734 0.126194 0.4444443
vn 0.8137359 0.2842308 0.5069978
vn 0.003301576 0.7043467 0.7098485
vn 0.2083819 -0.3592512 0.9096788
vn -2.965421E-07 -0.4301398 0.9027623
vn -0.6904972 0.2578361 0.6758209
vn -0.4258724 -0.2291767 0.8752774
vn -0.814104 0.3061738 0.4934494
vn -0.8868721 0.1261936 0.4444471
vn -0.8115936 0.2768105 0.514482
vn -0.208382 -0.3592507 0.9096791
vn -0.6086744 0.293619 0.7370911
vn 0.6083589 0.2956076 0.7365567
vn -0.7112907 -0.6021546 0.3625955
vn 0.0003009167 -0.8647081 0.5022748
vn 0.7113657 -0.6022093 0.3623572
vn 0.8171951 0.3894338 0.4248922
vn 0.8306198 0.4403962 0.3407665
vn 0.8578456 0.2601165 0.4432159
vn 0.8205446 -0.2845191 0.4957373
vn 0.7113657 -0.6022093 0.3623572
vn 0.7421714 0.3195113 0.589147
vn 0.6227973 -0.7305887 0.2799351
vn 0.5708859 -0.6729298 0.4703774
vn 0.003301576 0.7043467 0.7098485
vn -0.8171893 0.3894389 0.4248989
vn -0.8273877 0.446229 0.3410416
vn -0.8575933 0.2948962 0.4213905
vn -0.8396752 -0.2512117 0.4814957
vn -0.7112907 -0.6021546 0.3625955
vn -0.743094 0.3192725 0.5881125
vn -0.616006 -0.7364838 0.2795141
vn -2.965421E-07 -0.4301398 0.9027623
vn -0.006146824 -0.6005023 0.7995994
vn -0.006146824 -0.6005023 0.7995994
vn -0.5638884 -0.6748476 0.4760365
vn -0.001270681 0.530061 0.8479586
vn -0.6086744 0.293619 0.7370911
vn 0.003301576 0.7043467 0.7098485
vn -0.743094 0.3192725 0.5881125
vn 0.6083589 0.2956076 0.7365567
vn 0.7421714 0.3195113 0.589147
vn 0.4093784 -0.2941 0.8636635
vn 0.425872 -0.2291776 0.8752774
vn -0.006146824 -0.6005023 0.7995994
vn -0.4021793 -0.2934875 0.8672467
vn -0.4258724 -0.2291767 0.8752774
vn -0.006146824 -0.6005023 0.7995994
g thinUpturn_geo_0
f 10/10/10 23/23/23 45/45/45
f 9/9/9 10/10/10 45/45/45
f 15/15/15 10/10/10 9/9/9
f 11/11/11 15/15/15 9/9/9
f 5/5/5 15/15/15 11/11/11
f 7/7/7 5/5/5 11/11/11
f 69/69/69 5/5/5 7/7/7
f 49/49/49 69/69/69 7/7/7
f 60/60/60 69/69/69 49/49/49
f 50/50/50 60/60/60 49/49/49
f 90/90/90 51/51/51 91/91/91
f 52/52/52 51/51/51 90/90/90
f 92/92/92 52/52/52 90/90/90
f 23/23/23 71/71/71 25/25/25
f 22/22/22 71/71/71 23/23/23
f 10/10/10 22/22/22 23/23/23
f 12/12/12 22/22/22 10/10/10
f 13/13/13 12/12/12 10/10/10
f 3/3/3 12/12/12 13/13/13
f 4/4/4 3/3/3 13/13/13
f 1/1/1 3/3/3 4/4/4
f 5/5/5 1/1/1 4/4/4
f 6/6/6 1/1/1 5/5/5
f 69/69/69 6/6/6 5/5/5
f 35/35/35 54/54/54 42/42/42
f 34/34/34 54/54/54 35/35/35
f 40/40/40 34/34/34 35/35/35
f 36/36/36 34/34/34 40/40/40
f 31/31/31 36/36/36 40/40/40
f 33/33/33 36/36/36 31/31/31
f 78/78/78 33/33/33 31/31/31
f 57/57/57 33/33/33 78/78/78
f 59/59/59 57/57/57 78/78/78
f 72/72/72 57/57/57 59/59/59
f 93/93/93 80/80/80 82/82/82
f 58/58/58 80/80/80 93/93/93
f 94/94/94 58/58/58 93/93/93
f 31/31/31 30/30/30 78/78/78
f 26/26/26 30/30/30 31/31/31
f 27/27/27 26/26/26 31/31/31
f 28/28/28 26/26/26 27/27/27
f 39/39/39 28/28/28 27/27/27
f 37/37/37 28/28/28 39/39/39
f 35/35/35 37/37/37 39/39/39
f 41/41/41 37/37/37 35/35/35
f 42/42/42 41/41/41 35/35/35
f 83/83/83 41/41/41 42/42/42
f 95/95/95 83/83/83 42/42/42
f 84/84/84 85/85/85 87/87/87
f 86/86/86 85/85/85 84/84/84
f 88/88/88 86/86/86 84/84/84
f 89/89/89 88/88/88 84/84/84
f 3/3/3 14/14/14 63/63/63
f 2/2/2 14/14/14 3/3/3
f 1/1/1 2/2/2 3/3/3
f 7/7/7 48/48/48 49/49/49
f 47/47/47 48/48/48 7/7/7
f 11/11/11 47/47/47 7/7/7
f 46/46/46 47/47/47 11/11/11
f 9/9/9 46/46/46 11/11/11
f 45/45/45 46/46/46 9/9/9
f 17/17/17 8/8/8 16/16/16
f 64/64/64 8/8/8 17/17/17
f 18/18/18 64/64/64 17/17/17
f 65/65/65 64/64/64 18/18/18
f 66/66/66 65/65/65 18/18/18
f 24/24/24 81/81/81 44/44/44
f 70/70/70 24/24/24 44/44/44
f 20/20/20 24/24/24 70/70/70
f 68/68/68 20/20/20 70/70/70
f 62/62/62 20/20/20 68/68/68
f 67/67/67 62/62/62 68/68/68
f 21/21/21 62/62/62 67/67/67
f 66/66/66 21/21/21 67/67/67
f 19/19/19 21/21/21 66/66/66
f 18/18/18 19/19/19 66/66/66
f 75/75/75 19/19/19 18/18/18
f 74/74/74 75/75/75 18/18/18
f 22/22/22 12/12/12 71/71/71
f 28/28/28 29/29/29 26/26/26
f 38/38/38 29/29/29 28/28/28
f 61/61/61 38/38/38 28/28/28
f 33/33/33 57/57/57 56/56/56
f 55/55/55 33/33/33 56/56/56
f 36/36/36 33/33/33 55/55/55
f 53/53/53 36/36/36 55/55/55
f 34/34/34 36/36/36 53/53/53
f 54/54/54 34/34/34 53/53/53
f 73/73/73 74/74/74 18/18/18
f 17/17/17 73/73/73 18/18/18
f 32/32/32 73/73/73 17/17/17
f 16/16/16 32/32/32 17/17/17
f 24/24/24 43/43/43 81/81/81
f 79/79/79 43/43/43 24/24/24
f 20/20/20 79/79/79 24/24/24
f 77/77/77 79/79/79 20/20/20
f 62/62/62 77/77/77 20/20/20
f 76/76/76 77/77/77 62/62/62
f 21/21/21 76/76/76 62/62/62
f 75/75/75 76/76/76 21/21/21
f 19/19/19 75/75/75 21/21/21
f 83/83/83 37/37/37 41/41/41
f 28/28/28 37/37/37 61/61/61
f 63/63/63 12/12/12 3/3/3
f 15/15/15 13/13/13 10/10/10
f 4/4/4 13/13/13 15/15/15
f 5/5/5 4/4/4 15/15/15
f 40/40/40 27/27/27 31/31/31
f 39/39/39 27/27/27 40/40/40
f 35/35/35 39/39/39 40/40/40
