g tigerBlood_geo
v 0.7749057 0.7315969 0.007150162
v 0.7310588 0.763101 -0.01683274
v 0.6790475 0.7374771 -0.0281678
v 0.6708832 0.6803491 -0.01551997
v 0.7147301 0.6488449 0.008462942
v 0.7667415 0.6744688 0.01979801
v 0.5832352 0.8313569 0.43524
v 0.5715534 0.8397503 0.4288504
v 0.5576964 0.8329236 0.4258305
v 0.5555212 0.8177034 0.4292001
v 0.567203 0.8093098 0.4355897
v 0.5810601 0.8161366 0.4386097
v 0.5922713 0.8058108 0.3016131
v 0.6152025 0.8171082 0.3066105
v 0.6345341 0.8032182 0.3171844
v 0.6309345 0.7780312 0.3227606
v 0.6080034 0.7667338 0.3177632
v 0.5886717 0.7806237 0.3071894
v 0.572997 0.758355 0.2685764
v 0.5808623 0.8133899 0.256392
v 0.6309679 0.8380749 0.2673118
v 0.6732081 0.8077251 0.2904159
v 0.665343 0.7526901 0.3026003
v 0.6152375 0.7280051 0.2916806
v 0.706851 0.6518329 0.03036091
v 0.6608542 0.6848819 0.005202055
v 0.6696032 0.7446551 -0.008607893
v 0.7243492 0.7713797 0.002740989
v 0.770346 0.7383308 0.02789981
v 0.761597 0.6785574 0.04170975
v 0.5972648 0.7400271 0.200554
v 0.6054173 0.7944402 0.1874481
v 0.6555566 0.8186856 0.1973078
v 0.6975434 0.7885179 0.2202732
v 0.689391 0.7341048 0.2333791
v 0.6392516 0.7098594 0.2235194
v 0.6645151 0.6988314 0.03538841
v 0.6711634 0.7440515 0.02485727
v 0.7126275 0.7642564 0.03336935
v 0.7474434 0.7392412 0.05241253
v 0.7407951 0.694021 0.06294365
v 0.6993309 0.6738161 0.05443158
v 0.6692645 0.6964287 0.1398101
v 0.6340237 0.7217492 0.1205344
v 0.6408144 0.7674667 0.1096908
v 0.6828459 0.7878633 0.1181229
v 0.7180867 0.7625425 0.1373985
v 0.7112961 0.7168254 0.1482421
v 0.5576964 0.8329236 0.4258305
v 0.5715534 0.8397503 0.4288504
v 0.5832352 0.8313569 0.43524
v 0.5810601 0.8161366 0.4386097
v 0.567203 0.8093098 0.4355897
v 0.5555212 0.8177034 0.4292001
v 0.5886717 0.7806237 0.3071894
v 0.5922713 0.8058108 0.3016131
v 0.6152025 0.8171082 0.3066105
v 0.6345341 0.8032182 0.3171844
v 0.6309345 0.7780312 0.3227606
v 0.6080034 0.7667338 0.3177632
v 0.5808623 0.8133899 0.256392
v 0.572997 0.758355 0.2685764
v 0.6309679 0.8380749 0.2673118
v 0.6732081 0.8077251 0.2904159
v 0.6555566 0.8186856 0.1973078
v 0.6309679 0.8380749 0.2673118
v 0.665343 0.7526901 0.3026003
v 0.6152375 0.7280051 0.2916806
v 0.6392516 0.7098594 0.2235194
v 0.5972648 0.7400271 0.200554
v 0.6054173 0.7944402 0.1874481
v 0.6555566 0.8186856 0.1973078
v 0.6975434 0.7885179 0.2202732
v 0.689391 0.7341048 0.2333791
vt 0.1237746 0.1574753
vt 0.1237746 0.1574753
vt 0.1237746 0.1574753
vt 0.1237746 0.1574753
vt 0.1237746 0.1574753
vt 0.1237746 0.1574753
vt 0.1144017 0.4784112
vt 0.1144017 0.4784112
vt 0.1144017 0.4784112
vt 0.1144017 0.4784112
vt 0.1144017 0.4784112
vt 0.1144017 0.4784112
vt 0.114473 0.4812362
vt 0.114473 0.4812362
vt 0.114473 0.4812362
vt 0.114473 0.4812363
vt 0.114473 0.4812363
vt 0.114473 0.4812363
vt 0.1231043 0.1575739
vt 0.1231043 0.1575738
vt 0.1231043 0.1575739
vt 0.1231043 0.1575739
vt 0.1231043 0.1575739
vt 0.1231043 0.1575739
vt 0.1237746 0.1574753
vt 0.1237746 0.1574753
vt 0.1237746 0.1574753
vt 0.1237746 0.1574753
vt 0.1237746 0.1574753
vt 0.1237746 0.1574753
vt 0.1040054 0.3516307
vt 0.1031241 0.3872808
vt 0.1021681 0.4228791
vt 0.1022719 0.2446197
vt 0.1031364 0.2802548
vt 0.1040019 0.3159326
vt 0.1237746 0.1574753
vt 0.1237746 0.1574753
vt 0.1237746 0.1574753
vt 0.1237746 0.1574753
vt 0.1237746 0.1574753
vt 0.1237746 0.1574753
vt 0.1237746 0.1574753
vt 0.1237746 0.1574753
vt 0.1237746 0.1574753
vt 0.1237746 0.1574753
vt 0.1237746 0.1574753
vt 0.1237746 0.1574753
vt 0.114473 0.4812362
vt 0.114473 0.4812362
vt 0.114473 0.4812362
vt 0.114473 0.4812362
vt 0.114473 0.4812363
vt 0.114473 0.4812362
vt 0.1231043 0.1575739
vt 0.1231043 0.1575739
vt 0.1231043 0.1575739
vt 0.1231043 0.1575739
vt 0.1231043 0.1575739
vt 0.1231043 0.1575739
vt 0.1642288 0.387364
vt 0.1642288 0.3516505
vt 0.1642288 0.42308
vt 0.1642289 0.2445343
vt 0.1021997 0.209024
vt 0.1642289 0.2088401
vt 0.1642289 0.2802352
vt 0.1642289 0.3159407
vt 0.1237746 0.1574753
vt 0.1237746 0.1574753
vt 0.1237746 0.1574753
vt 0.1237746 0.1574753
vt 0.1237746 0.1574753
vt 0.1237746 0.1574753
vn 0.9038658 0.2094433 -0.3730416
vn 0.2986751 0.6442723 -0.7040641
vn -0.2010888 0.130346 -0.9708622
vn -0.5339776 -0.4977599 -0.6834494
vn 0.07211898 -0.9332426 -0.3519334
vn 0.7086451 -0.523299 -0.4732653
vn 0.5591995 0.4988035 0.6621866
vn -0.06104467 0.9444511 0.3229327
vn -0.7167482 0.5284246 0.4550159
vn -0.9122717 -0.2261333 0.3415024
vn -0.2920265 -0.6717812 0.6807573
vn 0.216968 -0.1424523 0.9657289
vn -0.8087986 0.5879229 -0.01383761
vn 0.0006323266 0.9866976 0.1625653
vn 0.6830034 0.4964108 0.535801
vn 0.5559442 -0.3926495 0.7326339
vn -0.2534865 -0.7914239 0.5562308
vn -0.9358575 -0.3011374 0.1829949
vn -0.9371243 -0.3169307 0.1461268
vn -0.8080168 0.5866959 -0.05382132
vn 0.01466924 0.9919971 0.1254057
vn 0.7081624 0.4937194 0.5047248
vn 0.5789864 -0.4098715 0.7048263
vn -0.2436425 -0.8152003 0.5254396
vn -0.1912482 -0.9090083 0.370308
vn -0.9232264 -0.383079 -0.03006181
vn -0.7854232 0.5695916 -0.2422309
vn 0.08209352 0.9951421 -0.05433937
vn 0.8121062 0.4706261 0.3449559
vn 0.6766828 -0.4809345 0.5574966
vn -0.8619253 -0.4466992 -0.2398846
vn -0.724529 0.5186756 -0.4539088
vn 0.1548344 0.9524021 -0.2625956
vn 0.8963714 0.4196055 0.1430021
vn 0.7577419 -0.5463402 0.3568468
vn -0.1214036 -0.9787666 0.1651576
vn -0.9312323 -0.3635955 0.02458731
vn -0.7951431 0.5779021 -0.1837843
vn 0.06135821 0.9981117 0.002866894
vn 0.7820944 0.480261 0.3970866
vn 0.6490308 -0.4597408 0.6061332
vn -0.2079426 -0.8832826 0.4202045
vn -0.1212104 -0.9788903 0.1645661
vn -0.8616865 -0.4468552 -0.2404513
vn -0.7242659 0.5184532 -0.4545826
vn 0.1550524 0.952193 -0.2632245
vn 0.8965625 0.419416 0.1423585
vn 0.7579449 -0.5465193 0.3561405
vn -0.7167482 0.5284246 0.4550159
vn -0.06104467 0.9444511 0.3229327
vn 0.5591995 0.4988035 0.6621866
vn 0.216968 -0.1424523 0.9657289
vn -0.2920265 -0.6717812 0.6807573
vn -0.9122717 -0.2261333 0.3415024
vn -0.9358575 -0.3011374 0.1829949
vn -0.8087986 0.5879229 -0.01383761
vn 0.0006323266 0.9866976 0.1625653
vn 0.6830034 0.4964108 0.535801
vn 0.5559442 -0.3926495 0.7326339
vn -0.2534865 -0.7914239 0.5562308
vn -0.8080168 0.5866959 -0.05382132
vn -0.9371243 -0.3169307 0.1461268
vn 0.01466924 0.9919971 0.1254057
vn 0.7081624 0.4937194 0.5047248
vn 0.1548344 0.9524021 -0.2625956
vn 0.01466924 0.9919971 0.1254057
vn 0.5789864 -0.4098715 0.7048263
vn -0.2436425 -0.8152003 0.5254396
vn -0.1214036 -0.9787666 0.1651576
vn -0.8619253 -0.4466992 -0.2398846
vn -0.724529 0.5186756 -0.4539088
vn 0.1548344 0.9524021 -0.2625956
vn 0.8963714 0.4196055 0.1430021
vn 0.7577419 -0.5463402 0.3568468
g tigerBlood_geo_0
f 9/9/9 12/12/12 7/7/7
f 11/11/11 12/12/12 9/9/9
f 10/10/10 11/11/11 9/9/9
f 8/8/8 9/9/9 7/7/7
f 50/50/50 14/14/14 49/49/49
f 15/15/15 14/14/14 50/50/50
f 51/51/51 15/15/15 50/50/50
f 16/16/16 15/15/15 51/51/51
f 52/52/52 16/16/16 51/51/51
f 17/17/17 16/16/16 52/52/52
f 53/53/53 17/17/17 52/52/52
f 18/18/18 17/17/17 53/53/53
f 54/54/54 18/18/18 53/53/53
f 13/13/13 18/18/18 54/54/54
f 49/49/49 13/13/13 54/54/54
f 14/14/14 13/13/13 49/49/49
f 56/56/56 20/20/20 55/55/55
f 21/21/21 20/20/20 56/56/56
f 57/57/57 21/21/21 56/56/56
f 22/22/22 21/21/21 57/57/57
f 58/58/58 22/22/22 57/57/57
f 23/23/23 22/22/22 58/58/58
f 59/59/59 23/23/23 58/58/58
f 24/24/24 23/23/23 59/59/59
f 60/60/60 24/24/24 59/59/59
f 19/19/19 24/24/24 60/60/60
f 55/55/55 19/19/19 60/60/60
f 20/20/20 19/19/19 55/55/55
f 47/47/47 72/72/72 73/73/73
f 46/46/46 72/72/72 47/47/47
f 40/40/40 46/46/46 47/47/47
f 39/39/39 46/46/46 40/40/40
f 29/29/29 39/39/39 40/40/40
f 28/28/28 39/39/39 29/29/29
f 1/1/1 28/28/28 29/29/29
f 2/2/2 28/28/28 1/1/1
f 6/6/6 2/2/2 1/1/1
f 3/3/3 2/2/2 6/6/6
f 5/5/5 3/3/3 6/6/6
f 4/4/4 3/3/3 5/5/5
f 25/25/25 4/4/4 5/5/5
f 26/26/26 4/4/4 25/25/25
f 42/42/42 26/26/26 25/25/25
f 37/37/37 26/26/26 42/42/42
f 43/43/43 37/37/37 42/42/42
f 44/44/44 37/37/37 43/43/43
f 69/69/69 44/44/44 43/43/43
f 70/70/70 44/44/44 69/69/69
f 26/26/26 3/3/3 4/4/4
f 27/27/27 3/3/3 26/26/26
f 37/37/37 27/27/27 26/26/26
f 38/38/38 27/27/27 37/37/37
f 44/44/44 38/38/38 37/37/37
f 45/45/45 38/38/38 44/44/44
f 70/70/70 45/45/45 44/44/44
f 71/71/71 45/45/45 70/70/70
f 27/27/27 2/2/2 3/3/3
f 28/28/28 2/2/2 27/27/27
f 38/38/38 28/28/28 27/27/27
f 39/39/39 28/28/28 38/38/38
f 45/45/45 39/39/39 38/38/38
f 46/46/46 39/39/39 45/45/45
f 71/71/71 46/46/46 45/45/45
f 72/72/72 46/46/46 71/71/71
f 29/29/29 6/6/6 1/1/1
f 30/30/30 6/6/6 29/29/29
f 40/40/40 30/30/30 29/29/29
f 41/41/41 30/30/30 40/40/40
f 47/47/47 41/41/41 40/40/40
f 48/48/48 41/41/41 47/47/47
f 73/73/73 48/48/48 47/47/47
f 74/74/74 48/48/48 73/73/73
f 30/30/30 5/5/5 6/6/6
f 25/25/25 5/5/5 30/30/30
f 41/41/41 25/25/25 30/30/30
f 42/42/42 25/25/25 41/41/41
f 48/48/48 42/42/42 41/41/41
f 43/43/43 42/42/42 48/48/48
f 74/74/74 43/43/43 48/48/48
f 69/69/69 43/43/43 74/74/74
g tigerBlood_geo_1
f 64/64/64 65/65/65 66/66/66
f 34/34/34 65/65/65 64/64/64
f 67/67/67 34/34/34 64/64/64
f 35/35/35 34/34/34 67/67/67
f 68/68/68 35/35/35 67/67/67
f 36/36/36 35/35/35 68/68/68
f 62/62/62 36/36/36 68/68/68
f 31/31/31 36/36/36 62/62/62
f 61/61/61 31/31/31 62/62/62
f 32/32/32 31/31/31 61/61/61
f 63/63/63 32/32/32 61/61/61
f 33/33/33 32/32/32 63/63/63
