g token_geo
v 0.03643921 0.004455509 -0.02103817
v 0.02103817 0.004455509 -0.03643921
v 1.192093E-09 0.004455509 -0.04207634
v -0.02103817 0.004455509 -0.03643921
v -0.03643921 0.004455509 -0.02103817
v -0.04207642 0.004455509 0
v -0.03643921 0.004455509 0.02103817
v -0.02103817 0.004455509 0.03643921
v 1.192093E-09 0.004455509 0.04207634
v 0.02103817 0.004455509 0.03643921
v 0.03643921 0.004455509 0.02103817
v 0.04207642 0.004455509 0
v -0.01426418 0.004425831 -0.004972105
v -0.01785709 0.004425831 -0.008564968
v -0.02276504 0.004425831 -0.009880066
v -0.027673 0.004425831 -0.008564968
v -0.03126594 0.004425831 -0.004972105
v -0.03258095 0.004425831 -6.412953E-05
v -0.03126594 0.004425831 0.004843836
v -0.027673 0.004425831 0.008436718
v -0.02276504 0.004425831 0.009751797
v -0.01785709 0.004425831 0.008436718
v -0.01426418 0.004425831 0.004843836
v -0.01294912 0.004425831 -6.412953E-05
v 0.04207642 -0.004455509 0
v 0.03643921 -0.004455509 0.02103817
v -0.01426418 -0.004425828 0.004843836
v -0.01294912 -0.004425828 -6.412953E-05
v 0.02103817 -0.004455509 0.03643921
v -0.01785709 -0.004425828 0.008436718
v 1.192093E-09 -0.004455509 0.04207634
v -0.02276504 -0.004425828 0.009751797
v -0.02103817 -0.004455509 0.03643921
v -0.027673 -0.004425828 0.008436718
v -0.03643921 -0.004455509 0.02103817
v -0.03126594 -0.004425828 0.004843836
v -0.04207642 -0.004455509 0
v -0.03258095 -0.004425828 -6.412953E-05
v -0.03643921 -0.004455509 -0.02103817
v -0.03126594 -0.004425828 -0.004972105
v -0.02103817 -0.004455509 -0.03643921
v -0.027673 -0.004425828 -0.008564968
v 1.192093E-09 -0.004455509 -0.04207634
v -0.02276504 -0.004425828 -0.009880066
v 0.02103817 -0.004455509 -0.03643921
v -0.01785709 -0.004425828 -0.008564968
v 0.03643921 -0.004455509 -0.02103817
v -0.01426418 -0.004425828 -0.004972105
v -0.02103817 0.004455509 0.03643921
v -0.027673 0.004425831 0.008436718
v -0.02103817 0.004455509 -0.03643921
v -0.027673 0.004425831 -0.008564968
v -0.01294912 0.004425831 -6.412953E-05
v -0.01426418 0.004425831 0.004843836
v -0.01785709 0.004425831 0.008436718
v -0.02276504 0.004425831 0.009751797
v -0.027673 0.004425831 0.008436718
v -0.03126594 0.004425831 0.004843836
v -0.03258095 0.004425831 -6.412953E-05
v -0.03126594 0.004425831 -0.004972105
v -0.027673 0.004425831 -0.008564968
v -0.02276504 0.004425831 -0.009880066
v -0.01785709 0.004425831 -0.008564968
v -0.01426418 0.004425831 -0.004972105
v -0.01426418 -0.004425828 0.004843836
v -0.01294912 -0.004425828 -6.412953E-05
v -0.01785709 -0.004425828 0.008436718
v -0.02276504 -0.004425828 0.009751797
v -0.027673 -0.004425828 0.008436718
v -0.02103817 -0.004455509 0.03643921
v -0.03126594 -0.004425828 0.004843836
v -0.027673 -0.004425828 0.008436718
v -0.03258095 -0.004425828 -6.412953E-05
v -0.03126594 -0.004425828 -0.004972105
v -0.027673 -0.004425828 -0.008564968
v -0.02103817 -0.004455509 -0.03643921
v -0.02276504 -0.004425828 -0.009880066
v -0.027673 -0.004425828 -0.008564968
v -0.01785709 -0.004425828 -0.008564968
v -0.01426418 -0.004425828 -0.004972105
v 0.04207642 0.004455509 0
v 0.03643921 -0.004455509 0.02103817
v 0.03643921 0.004455509 0.02103817
v 0.04207642 -0.004455509 0
v 0.03643921 0.004455509 -0.02103817
v 0.03643921 -0.004455509 -0.02103817
v 0.02103817 0.004455509 -0.03643921
v 0.02103817 -0.004455509 -0.03643921
v 1.192093E-09 0.004455509 -0.04207634
v 1.192093E-09 -0.004455509 -0.04207634
v -0.02103817 0.004455509 -0.03643921
v -0.02103817 -0.004455509 -0.03643921
v -0.03643921 0.004455509 -0.02103817
v -0.03643921 -0.004455509 -0.02103817
v -0.04207642 0.004455509 0
v -0.04207642 -0.004455509 0
v -0.03643921 0.004455509 0.02103817
v -0.03643921 -0.004455509 0.02103817
v -0.02103817 0.004455509 0.03643921
v -0.02103817 -0.004455509 0.03643921
v 1.192093E-09 0.004455509 0.04207634
v 1.192093E-09 -0.004455509 0.04207634
v 0.02103817 0.004455509 0.03643921
v 0.02103817 -0.004455509 0.03643921
vt 0.7552483 0.2559777
vt 0.9336683 0.422057
vt 0.9960225 0.6462656
vt 0.9276302 0.2714258
vt 0.9276302 0.2714258
vt 0.9276302 0.2714258
vt 0.9276302 0.2714258
vt 0.06734228 0.8559407
vt 0.004988372 0.6317322
vt 0.07540739 0.4094704
vt 0.2597314 0.2487109
vt 0.5085706 0.1925286
vt 0.5550973 0.7919885
vt 0.5958488 0.8299215
vt 0.6100906 0.8811312
vt 0.9276302 0.2714258
vt 0.9276302 0.2714258
vt 0.9276302 0.2714258
vt 0.9276302 0.2714258
vt 0.3979779 0.9290214
vt 0.3837361 0.8778117
vt 0.39982 0.8270466
vt 0.44192 0.7903286
vt 0.4987554 0.7774965
vt 0.4924403 0.1925286
vt 0.7412795 0.2487109
vt 0.4542453 0.08220285
vt 0.4542453 0.08220285
vt 0.9256035 0.4094704
vt 0.4542453 0.08220285
vt 0.9960225 0.6317322
vt 0.4542453 0.08220285
vt 0.9336686 0.8559407
vt 0.4542453 0.08220285
vt 0.9276302 0.2714258
vt 0.4542453 0.08220285
vt 0.9276302 0.2714258
vt 0.4542453 0.08220285
vt 0.9276302 0.2714258
vt 0.4542453 0.08220285
vt 0.9276302 0.2714258
vt 0.4542453 0.08220285
vt 0.004988432 0.6462656
vt 0.4542453 0.08220285
vt 0.06734264 0.422057
vt 0.4542453 0.08220285
vt 0.2457626 0.2559777
vt 0.4542453 0.08220285
vt 0.9276302 0.2714258
vt 0.9276302 0.2714258
vt 0.9256032 0.8685273
vt 0.5940067 0.9318962
vt 0.4542453 0.08220285
vt 0.4542453 0.08220285
vt 0.4542453 0.08220285
vt 0.4542453 0.08220285
vt 0.4542453 0.08220285
vt 0.4542453 0.08220285
vt 0.4542453 0.08220285
vt 0.4542453 0.08220285
vt 0.4542453 0.08220285
vt 0.4542453 0.08220285
vt 0.4542453 0.08220285
vt 0.4542453 0.08220285
vt 0.5590909 0.7903286
vt 0.5022554 0.7774965
vt 0.6011909 0.8270466
vt 0.6172748 0.8778117
vt 0.6030329 0.9290214
vt 0.9276302 0.2714258
vt 0.9276302 0.2714258
vt 0.9276302 0.2714258
vt 0.9276302 0.2714258
vt 0.9276302 0.2714258
vt 0.9276302 0.2714258
vt 0.07540774 0.8685273
vt 0.3909203 0.8811312
vt 0.4070042 0.9318962
vt 0.4051621 0.8299215
vt 0.4459136 0.7919885
vt 0.1867565 0.08572245
vt 0.1867565 0.08572245
vt 0.1867565 0.08572245
vt 0.1867565 0.08572245
vt 0.1867565 0.08572245
vt 0.1867565 0.08572245
vt 0.1867565 0.08572245
vt 0.1867565 0.08572245
vt 0.1867565 0.08572245
vt 0.1867565 0.08572245
vt 0.1867565 0.08572245
vt 0.1867565 0.08572245
vt 0.1867565 0.08572245
vt 0.1867565 0.08572245
vt 0.1867565 0.08572245
vt 0.1867565 0.08572245
vt 0.1867565 0.08572245
vt 0.1867565 0.08572245
vt 0.1867565 0.08572245
vt 0.1867565 0.08572245
vt 0.1867565 0.08572245
vt 0.1867565 0.08572245
vt 0.1867565 0.08572245
vt 0.1867565 0.08572245
vn 0.6014864 0.7194605 -0.3472616
vn 0.3472583 0.719503 -0.6014376
vn 3.492433E-05 0.719598 -0.6943908
vn -0.347025 0.7198018 -0.6012147
vn -0.6007965 0.7201594 -0.347007
vn -0.6935826 0.7203771 1.09492E-06
vn -0.6008002 0.7201554 0.3470092
vn -0.347027 0.7197987 0.6012171
vn 3.464546E-05 0.7195965 0.6943924
vn 0.3472585 0.7195023 0.6014382
vn 0.6014866 0.7194602 0.3472618
vn 0.6945456 0.7194486 0
vn -0.601849 0.7190491 0.3474857
vn -0.347487 0.7190057 0.6019
vn 3.489099E-05 0.7189111 0.695102
vn 0.3477186 0.7187063 0.6021239
vn 0.6025382 0.7183495 0.347738
vn 0.6959103 0.7181287 9.095858E-07
vn 0.6025351 0.7183535 -0.3477353
vn 0.3477161 0.7187096 -0.6021213
vn 3.461252E-05 0.7189123 -0.6951008
vn -0.3474864 0.7190067 -0.6018992
vn -0.6018492 0.7190492 -0.3474849
vn -0.6949478 0.7190602 -1.500077E-07
vn 0.6945456 -0.7194486 0
vn 0.6014866 -0.7194603 0.3472618
vn -0.6018493 -0.7190492 -0.3474849
vn -0.6949477 -0.7190602 -1.497147E-07
vn 0.3472585 -0.7195023 0.6014382
vn -0.3474863 -0.7190067 -0.6018992
vn 3.464546E-05 -0.7195966 0.6943924
vn 3.461E-05 -0.7189122 -0.6951008
vn -0.347027 -0.7197987 0.6012171
vn 0.3477162 -0.7187096 -0.6021213
vn -0.6008 -0.7201555 0.3470091
vn 0.6025351 -0.7183533 -0.3477353
vn -0.6935825 -0.7203773 1.084186E-06
vn 0.6959104 -0.7181286 9.022077E-07
vn -0.6007964 -0.7201596 -0.347007
vn 0.6025382 -0.7183493 0.347738
vn -0.347025 -0.7198018 -0.6012146
vn 0.3477186 -0.7187061 0.6021239
vn 3.493505E-05 -0.719598 -0.6943908
vn 3.489675E-05 -0.7189111 0.695102
vn 0.3472583 -0.719503 -0.6014376
vn -0.347487 -0.7190057 0.6019
vn 0.6014864 -0.7194605 -0.3472616
vn -0.601849 -0.7190491 0.3474856
vn -0.347027 0.7197987 0.6012171
vn 0.3477161 0.7187096 -0.6021213
vn -0.347025 0.7198018 -0.6012147
vn 0.3477186 0.7187063 0.6021239
vn -0.6949478 0.7190602 -1.500077E-07
vn -0.6018492 0.7190492 -0.3474849
vn -0.3474864 0.7190067 -0.6018992
vn 3.461252E-05 0.7189123 -0.6951008
vn 0.3477161 0.7187096 -0.6021213
vn 0.6025351 0.7183535 -0.3477353
vn 0.6959103 0.7181287 9.095858E-07
vn 0.6025382 0.7183495 0.347738
vn 0.3477186 0.7187063 0.6021239
vn 3.489099E-05 0.7189111 0.695102
vn -0.347487 0.7190057 0.6019
vn -0.601849 0.7190491 0.3474857
vn -0.6018493 -0.7190492 -0.3474849
vn -0.6949477 -0.7190602 -1.497147E-07
vn -0.3474863 -0.7190067 -0.6018992
vn 3.461E-05 -0.7189122 -0.6951008
vn 0.3477162 -0.7187096 -0.6021213
vn -0.347027 -0.7197987 0.6012171
vn 0.6025351 -0.7183533 -0.3477353
vn 0.3477162 -0.7187096 -0.6021213
vn 0.6959104 -0.7181286 9.022077E-07
vn 0.6025382 -0.7183493 0.347738
vn 0.3477186 -0.7187061 0.6021239
vn -0.347025 -0.7198018 -0.6012146
vn 3.489675E-05 -0.7189111 0.695102
vn 0.3477186 -0.7187061 0.6021239
vn -0.347487 -0.7190057 0.6019
vn -0.601849 -0.7190491 0.3474856
vn 0.6945456 0.7194486 0
vn 0.6014866 -0.7194603 0.3472618
vn 0.6014866 0.7194602 0.3472618
vn 0.6945456 -0.7194486 0
vn 0.6014864 0.7194605 -0.3472616
vn 0.6014864 -0.7194605 -0.3472616
vn 0.3472583 0.719503 -0.6014376
vn 0.3472583 -0.719503 -0.6014376
vn 3.492433E-05 0.719598 -0.6943908
vn 3.493505E-05 -0.719598 -0.6943908
vn -0.347025 0.7198018 -0.6012147
vn -0.347025 -0.7198018 -0.6012146
vn -0.6007965 0.7201594 -0.347007
vn -0.6007964 -0.7201596 -0.347007
vn -0.6935826 0.7203771 1.09492E-06
vn -0.6935825 -0.7203773 1.084186E-06
vn -0.6008002 0.7201554 0.3470092
vn -0.6008 -0.7201555 0.3470091
vn -0.347027 0.7197987 0.6012171
vn -0.347027 -0.7197987 0.6012171
vn 3.464546E-05 0.7195965 0.6943924
vn 3.464546E-05 -0.7195966 0.6943924
vn 0.3472585 0.7195023 0.6014382
vn 0.3472585 -0.7195023 0.6014382
g token_geo_0
f 15/15/15 51/51/51 52/52/52
f 3/3/3 51/51/51 15/15/15
f 14/14/14 3/3/3 15/15/15
f 2/2/2 3/3/3 14/14/14
f 13/13/13 2/2/2 14/14/14
f 1/1/1 2/2/2 13/13/13
f 24/24/24 1/1/1 13/13/13
f 12/12/12 1/1/1 24/24/24
f 23/23/23 12/12/12 24/24/24
f 11/11/11 12/12/12 23/23/23
f 22/22/22 11/11/11 23/23/23
f 10/10/10 11/11/11 22/22/22
f 21/21/21 10/10/10 22/22/22
f 9/9/9 10/10/10 21/21/21
f 20/20/20 9/9/9 21/21/21
f 8/8/8 9/9/9 20/20/20
f 5/5/5 16/16/16 4/4/4
f 17/17/17 16/16/16 5/5/5
f 6/6/6 17/17/17 5/5/5
f 18/18/18 17/17/17 6/6/6
f 7/7/7 18/18/18 6/6/6
f 19/19/19 18/18/18 7/7/7
f 49/49/49 19/19/19 7/7/7
f 50/50/50 19/19/19 49/49/49
f 77/77/77 78/78/78 76/76/76
f 43/43/43 77/77/77 76/76/76
f 79/79/79 77/77/77 43/43/43
f 45/45/45 79/79/79 43/43/43
f 80/80/80 79/79/79 45/45/45
f 47/47/47 80/80/80 45/45/45
f 66/66/66 80/80/80 47/47/47
f 25/25/25 66/66/66 47/47/47
f 65/65/65 66/66/66 25/25/25
f 26/26/26 65/65/65 25/25/25
f 67/67/67 65/65/65 26/26/26
f 29/29/29 67/67/67 26/26/26
f 68/68/68 67/67/67 29/29/29
f 31/31/31 68/68/68 29/29/29
f 69/69/69 68/68/68 31/31/31
f 33/33/33 69/69/69 31/31/31
f 39/39/39 41/41/41 75/75/75
f 74/74/74 39/39/39 75/75/75
f 37/37/37 39/39/39 74/74/74
f 73/73/73 37/37/37 74/74/74
f 35/35/35 37/37/37 73/73/73
f 71/71/71 35/35/35 73/73/73
f 70/70/70 35/35/35 71/71/71
f 72/72/72 70/70/70 71/71/71
f 64/64/64 28/28/28 53/53/53
f 48/48/48 28/28/28 64/64/64
f 63/63/63 48/48/48 64/64/64
f 46/46/46 48/48/48 63/63/63
f 62/62/62 46/46/46 63/63/63
f 44/44/44 46/46/46 62/62/62
f 61/61/61 44/44/44 62/62/62
f 42/42/42 44/44/44 61/61/61
f 60/60/60 42/42/42 61/61/61
f 40/40/40 42/42/42 60/60/60
f 59/59/59 40/40/40 60/60/60
f 38/38/38 40/40/40 59/59/59
f 58/58/58 38/38/38 59/59/59
f 36/36/36 38/38/38 58/58/58
f 57/57/57 36/36/36 58/58/58
f 34/34/34 36/36/36 57/57/57
f 56/56/56 34/34/34 57/57/57
f 32/32/32 34/34/34 56/56/56
f 55/55/55 32/32/32 56/56/56
f 30/30/30 32/32/32 55/55/55
f 54/54/54 30/30/30 55/55/55
f 27/27/27 30/30/30 54/54/54
f 53/53/53 27/27/27 54/54/54
f 28/28/28 27/27/27 53/53/53
f 84/84/84 81/81/81 82/82/82
f 85/85/85 81/81/81 84/84/84
f 86/86/86 85/85/85 84/84/84
f 87/87/87 85/85/85 86/86/86
f 88/88/88 87/87/87 86/86/86
f 89/89/89 87/87/87 88/88/88
f 90/90/90 89/89/89 88/88/88
f 91/91/91 89/89/89 90/90/90
f 92/92/92 91/91/91 90/90/90
f 93/93/93 91/91/91 92/92/92
f 94/94/94 93/93/93 92/92/92
f 95/95/95 93/93/93 94/94/94
f 96/96/96 95/95/95 94/94/94
f 97/97/97 95/95/95 96/96/96
f 98/98/98 97/97/97 96/96/96
f 99/99/99 97/97/97 98/98/98
f 100/100/100 99/99/99 98/98/98
f 101/101/101 99/99/99 100/100/100
f 102/102/102 101/101/101 100/100/100
f 103/103/103 101/101/101 102/102/102
f 104/104/104 103/103/103 102/102/102
f 83/83/83 103/103/103 104/104/104
f 82/82/82 83/83/83 104/104/104
f 81/81/81 83/83/83 82/82/82
