g toolBox_geo
v -0.5512791 0.015 -0.1914324
v -0.5512791 0.3226257 -0.1914324
v -0.5512791 0.310755 -0.1914324
v -0.5627796 0.015 0.1799319
v -0.5512791 0.015 0.1914324
v -0.5627796 0.310755 0.1799319
v -0.5512791 0.310755 0.1914324
v 0.5627796 0.015 0.1799319
v 0.5512791 0.015 0.1914324
v 0.5627796 0.310755 0.1799319
v 0.5512791 0.310755 0.1914324
v 0.5627796 0.3978648 -0.1783949
v 0.5512791 0.3978648 -0.1914324
v 0.5627796 0.3226257 -0.1799319
v 0.5512791 0.3226257 -0.1914324
v -0.5512791 0.3978648 0.1914324
v -0.5627796 0.3978648 0.1783949
v -0.5627796 0.4973567 0.08684807
v -0.5512791 0.5088573 0.09198532
v 0.5627796 0.3978648 0.1783949
v 0.5512791 0.3978648 0.1914324
v 0.5627796 0.4973567 0.08684807
v 0.5512791 0.5088573 0.09198532
v 0.5512791 0.5088573 -0.09198532
v 0.5627796 0.4973567 -0.08684807
v -0.5512791 0.3978648 -0.1914324
v -0.5627796 0.3978648 -0.1783949
v -0.5627796 0.4973567 -0.08684807
v -0.5512791 0.5088573 -0.09198532
v 0.5627796 0.3226257 0.1799319
v 0.5512791 0.3226257 0.1914324
v -0.5512791 0.3226257 0.1914324
v -0.5627796 0.3226257 0.1799319
v 0.5627796 0.310755 -0.1799319
v 0.5512791 0.310755 -0.1914324
v 0.5627796 0.015 -0.1799319
v 0.5512791 0.015 -0.1914324
v -0.03544894 0.2611691 0.2067845
v 0.03544894 0.2611691 0.2067845
v -0.03544894 0.3670063 0.2067845
v 0.03544894 0.3670063 0.2067845
v -0.03544894 0.3670063 0.1914324
v 0.03544894 0.3670063 0.1914324
v -0.03544894 0.2611691 0.1914324
v 0.03544894 0.2611691 0.1914324
v -0.01589642 0.321779 0.2208355
v 0.01589642 0.321779 0.2208355
v -0.01589642 0.3912003 0.2208355
v 0.01589642 0.3912003 0.2208355
v -0.01589642 0.3912003 0.1914324
v 0.01589642 0.3912003 0.1914324
v -0.01589642 0.321779 0.1914324
v 0.01589642 0.321779 0.1914324
v -0.1718663 0.4567231 0.04327371
v -0.1209502 0.4567231 0.04327371
v -0.1718663 0.5295947 0.04327371
v -0.1209502 0.5295947 0.04327371
v -0.1718663 0.5295947 -0.04327371
v -0.1209502 0.5295947 -0.04327371
v -0.1718663 0.4567231 -0.04327371
v -0.1209502 0.4567231 -0.04327371
v 0.1209502 0.4567231 0.04327371
v 0.1718663 0.4567231 0.04327371
v 0.1209502 0.5295947 0.04327371
v 0.1718663 0.5295947 0.04327371
v 0.1209502 0.5295947 -0.04327371
v 0.1718663 0.5295947 -0.04327371
v 0.1209502 0.4567231 -0.04327371
v 0.1718663 0.4567231 -0.04327371
v -0.133151 0.624671 -0.02349406
v 0.133151 0.624671 -0.02349406
v -0.133151 0.6504303 -0.03236368
v 0.133151 0.6504303 -0.03236368
v -0.133151 0.6401635 -0.06218029
v 0.133151 0.6401635 -0.06218029
v -0.133151 0.6144044 -0.05331068
v 0.133151 0.6144044 -0.05331068
v 0.1623047 0.6144044 -0.05331068
v 0.1623047 0.624671 -0.02349406
v 0.1543584 0.6325536 -0.05955999
v 0.1543584 0.6428202 -0.02974337
v -0.1623047 0.6144044 -0.05331068
v -0.1623047 0.624671 -0.02349406
v -0.1543584 0.6428202 -0.02974337
v -0.1543584 0.6325536 -0.05955999
v 0.133151 0.5028757 -0.01490831
v 0.133151 0.5131425 0.01490831
v 0.1623047 0.5028757 -0.01490831
v 0.1623047 0.5131425 0.01490831
v -0.133151 0.5028757 -0.01490831
v -0.133151 0.5131425 0.01490831
v -0.1623047 0.5131425 0.01490831
v -0.1623047 0.5028757 -0.01490831
v -0.5627796 0.3226257 -0.1799319
v -0.5627796 0.310755 -0.1799319
v -0.5627796 0.015 -0.1799319
v -0.5512791 0.015 -0.1914324
v -0.5512791 0.015 0.1914324
v 0.5512791 0.015 -0.1914324
v 0.5512791 0.015 0.1914324
v 0.5627796 0.015 0.1799319
v 0.5627796 0.015 -0.1799319
v -0.5627796 0.015 0.1799319
v -0.5627796 0.015 -0.1799319
v -0.5512791 0.5088573 0.09198532
v 0.5512791 0.5088573 0.09198532
v 0.5512791 0.5088573 -0.09198532
v -0.5512791 0.5088573 -0.09198532
v -0.5512791 0.3978648 0.1914324
v 0.5512791 0.3978648 0.1914324
v -0.5512791 0.310755 0.1914324
v -0.5512791 0.3226257 0.1914324
v 0.5512791 0.310755 0.1914324
v 0.5512791 0.3226257 0.1914324
v -0.5627796 0.3226257 0.1799319
v -0.5627796 0.310755 0.1799319
v -0.5627796 0.310755 -0.1799319
v -0.5627796 0.3226257 -0.1799319
v 0.5512791 0.310755 -0.1914324
v -0.5512791 0.310755 -0.1914324
v 0.5627796 0.310755 0.1799319
v 0.5627796 0.3226257 0.1799319
v 0.5627796 0.310755 -0.1799319
v 0.5627796 0.3226257 -0.1799319
v 0.5512791 0.3226257 -0.1914324
v -0.5512791 0.3978648 -0.1914324
v -0.5512791 0.3226257 -0.1914324
v 0.5512791 0.3978648 -0.1914324
v -0.5627796 0.015 0.1799319
v -0.5512791 0.015 0.1914324
v 0.5512791 0.015 0.1914324
v 0.5627796 0.015 0.1799319
v 0.5512791 0.3978648 -0.1914324
v 0.5627796 0.3978648 -0.1783949
v 0.5512791 0.5088573 -0.09198532
v 0.5627796 0.4973567 -0.08684807
v -0.5627796 0.3978648 0.1783949
v -0.5512791 0.3978648 0.1914324
v -0.5512791 0.5088573 0.09198532
v -0.5627796 0.4973567 0.08684807
v -0.5512791 0.5088573 -0.09198532
v -0.5627796 0.4973567 -0.08684807
v 0.5512791 0.3978648 0.1914324
v 0.5627796 0.3978648 0.1783949
v 0.5512791 0.5088573 0.09198532
v 0.5627796 0.4973567 0.08684807
v -0.5627796 0.3978648 -0.1783949
v -0.5512791 0.3978648 -0.1914324
v 0.5512791 0.015 -0.1914324
v 0.5627796 0.015 -0.1799319
v -0.03544894 0.3670063 0.2067845
v 0.03544894 0.3670063 0.2067845
v 0.03544894 0.2611691 0.2067845
v -0.03544894 0.2611691 0.2067845
v 0.03544894 0.2611691 0.1914324
v 0.03544894 0.2611691 0.2067845
v 0.03544894 0.3670063 0.1914324
v 0.03544894 0.3670063 0.2067845
v -0.03544894 0.3670063 0.2067845
v -0.03544894 0.2611691 0.2067845
v -0.03544894 0.2611691 0.1914324
v -0.03544894 0.3670063 0.1914324
v 0.01589642 0.3912003 0.2208355
v -0.01589642 0.3912003 0.2208355
v 0.01589642 0.321779 0.2208355
v -0.01589642 0.321779 0.2208355
v 0.01589642 0.321779 0.1914324
v 0.01589642 0.321779 0.2208355
v 0.01589642 0.3912003 0.1914324
v 0.01589642 0.3912003 0.2208355
v -0.01589642 0.3912003 0.2208355
v -0.01589642 0.321779 0.2208355
v -0.01589642 0.321779 0.1914324
v -0.01589642 0.3912003 0.1914324
v -0.1209502 0.5295947 0.04327371
v -0.1718663 0.5295947 0.04327371
v -0.1718663 0.5295947 -0.04327371
v -0.1209502 0.5295947 -0.04327371
v -0.1209502 0.5295947 0.04327371
v -0.1209502 0.5295947 -0.04327371
v -0.1209502 0.4567231 0.04327371
v -0.1209502 0.4567231 -0.04327371
v -0.1718663 0.5295947 0.04327371
v -0.1718663 0.4567231 0.04327371
v -0.1718663 0.4567231 -0.04327371
v -0.1718663 0.5295947 -0.04327371
v 0.1718663 0.5295947 0.04327371
v 0.1209502 0.5295947 0.04327371
v 0.1209502 0.5295947 -0.04327371
v 0.1718663 0.5295947 -0.04327371
v 0.1718663 0.5295947 0.04327371
v 0.1718663 0.5295947 -0.04327371
v 0.1718663 0.4567231 0.04327371
v 0.1718663 0.4567231 -0.04327371
v 0.1209502 0.5295947 0.04327371
v 0.1209502 0.4567231 0.04327371
v 0.1209502 0.4567231 -0.04327371
v 0.1209502 0.5295947 -0.04327371
v -0.133151 0.6504303 -0.03236368
v 0.133151 0.6504303 -0.03236368
v -0.133151 0.6401635 -0.06218029
v 0.133151 0.6401635 -0.06218029
v 0.1623047 0.6144044 -0.05331068
v 0.1543584 0.6325536 -0.05955999
v 0.1543584 0.6428202 -0.02974337
v 0.1623047 0.624671 -0.02349406
v -0.1543584 0.6428202 -0.02974337
v -0.1623047 0.624671 -0.02349406
v -0.1543584 0.6325536 -0.05955999
v -0.1623047 0.6144044 -0.05331068
v 0.1623047 0.5028757 -0.01490831
v 0.1623047 0.5131425 0.01490831
v -0.1623047 0.5131425 0.01490831
v -0.133151 0.5028757 -0.01490831
v -0.133151 0.6144044 -0.05331068
v -0.5627796 0.015 -0.1799319
v -0.5512791 0.015 -0.1914324
vt 0.5076817 0.651306
vt 0 1
vt 0.5076818 0.651306
vt 0.511638 0.6074008
vt 0.5076818 0.651306
vt 0.5085483 0.6339762
vt 0.5076818 0.651306
vt 0.511638 0.6074007
vt 0.5076818 0.651306
vt 0.5085483 0.6339762
vt 0.5076818 0.651306
vt 0.5085484 0.6339762
vt 0.499801 0.6541856
vt 0.5085483 0.6339762
vt 0 1
vt 0.499801 0.6541855
vt 0.5085484 0.6339762
vt 0.5085484 0.6339761
vt 0.4978376 0.6745196
vt 0.5085484 0.6339762
vt 0.499801 0.6541856
vt 0.5085483 0.6339762
vt 0.4978376 0.6745195
vt 0.4978377 0.6745195
vt 0.5085483 0.6339761
vt 0.499801 0.6541855
vt 0.5085484 0.6339762
vt 0.5085484 0.6339762
vt 0.4978377 0.6745196
vt 0.5085483 0.6339762
vt 0.5076818 0.651306
vt 0.5076818 0.651306
vt 0.5085484 0.6339762
vt 0.5085483 0.6339762
vt 0.5076818 0.651306
vt 0.511638 0.6074007
vt 0.5076817 0.651306
vt 0.5824897 0.873272
vt 0.5824897 0.873272
vt 0.5824897 0.873272
vt 0.5824897 0.873272
vt 0.5779511 0.8833578
vt 0.5779511 0.8833578
vt 0.5824897 0.859404
vt 0.5824897 0.859404
vt 0.5824897 0.873272
vt 0.5824897 0.873272
vt 0.5824897 0.873272
vt 0.5824897 0.873272
vt 0.5779511 0.8757935
vt 0.5779511 0.8757935
vt 0.5824897 0.859404
vt 0.5824897 0.8594041
vt 0.5799682 0.8689855
vt 0.5799683 0.8689855
vt 0.5799682 0.8689855
vt 0.5799683 0.8689855
vt 0.5779511 0.8757935
vt 0.5779511 0.8757935
vt 0.5799683 0.8689855
vt 0.5799682 0.8689855
vt 0.5799682 0.8689855
vt 0.5799683 0.8689855
vt 0.5799682 0.8689855
vt 0.5799683 0.8689855
vt 0.5779511 0.8757935
vt 0.5779511 0.8757935
vt 0.5799683 0.8689855
vt 0.5799682 0.8689855
vt 0.6070783 0.9011171
vt 0.6070783 0.9011171
vt 0.6040863 0.913692
vt 0.6040863 0.913692
vt 0.6019871 0.9074622
vt 0.6019871 0.9074622
vt 0.6070783 0.8961053
vt 0.6070783 0.8961053
vt 0.6019871 0.8953189
vt 0.6019871 0.9001588
vt 0.6019871 0.9038748
vt 0.6019871 0.9087147
vt 0.6019872 0.8953189
vt 0.6019872 0.9001588
vt 0.6019871 0.9087147
vt 0.6019871 0.9038748
vt 0.6070783 0.8416605
vt 0.6070783 0.8466724
vt 0.6040863 0.8416605
vt 0.6019871 0.8475825
vt 0.6070783 0.8416605
vt 0.6070783 0.8466724
vt 0.6040863 0.8466724
vt 0.6019872 0.8427426
vt 0.5085484 0.6339762
vt 0.5085483 0.6339762
vt 0.511638 0.6074008
vt 0.5116381 0.6074008
vt 0.511638 0.6074008
vt 0.5116381 0.6074007
vt 0.511638 0.6074007
vt 0.5085484 0.6339762
vt 0.5085484 0.6339762
vt 0.5085484 0.6339762
vt 0.5085484 0.6339762
vt 0.499801 0.6541855
vt 0.499801 0.6541856
vt 0.499801 0.6541856
vt 0.499801 0.6541855
vt 0.5076818 0.651306
vt 0.5076818 0.651306
vt 0 1
vt 0 1
vt 0 1
vt 0 1
vt 0 1
vt 0 1
vt 0 1
vt 0 1
vt 0 1
vt 0 1
vt 0 1
vt 0 1
vt 0 1
vt 0 1
vt 0.5076818 0.651306
vt 0.5076818 0.651306
vt 0.5076818 0.651306
vt 0.5076817 0.651306
vt 0 1
vt 0 1
vt 0 1
vt 0 1
vt 0 1
vt 0 1
vt 0 1
vt 0 1
vt 0 1
vt 0 1
vt 0 1
vt 0 1
vt 0 1
vt 0 1
vt 0 1
vt 0 1
vt 0 1
vt 0 1
vt 0 1
vt 0 1
vt 0 1
vt 0 1
vt 0.5779511 0.8833578
vt 0.5779511 0.8833578
vt 0.5824897 0.859404
vt 0.5824897 0.859404
vt 0.5824897 0.8626819
vt 0.5824897 0.8626819
vt 0.5824897 0.8626819
vt 0.5824897 0.8626819
vt 0.5824897 0.8626819
vt 0.5824897 0.8626819
vt 0.5824897 0.8626819
vt 0.5824897 0.8626819
vt 0.5779511 0.8757935
vt 0.5779511 0.8757935
vt 0.5824897 0.8594041
vt 0.5824897 0.859404
vt 0.5824897 0.8626819
vt 0.5824897 0.8626819
vt 0.5824897 0.8626819
vt 0.5824897 0.8626819
vt 0.5824897 0.8626819
vt 0.5824897 0.8626819
vt 0.5824897 0.8626819
vt 0.5824897 0.8626819
vt 0.5779511 0.8757935
vt 0.5779511 0.8757935
vt 0.5799683 0.8689855
vt 0.5799682 0.8689855
vt 0.5824897 0.8626819
vt 0.5824897 0.8626819
vt 0.5824897 0.8626819
vt 0.5824897 0.8626819
vt 0.5824897 0.8626819
vt 0.5824897 0.8626819
vt 0.5824897 0.8626819
vt 0.5824897 0.8626819
vt 0.5779511 0.8757935
vt 0.5779511 0.8757935
vt 0.5799683 0.8689855
vt 0.5799682 0.8689855
vt 0.5824897 0.8626819
vt 0.5824897 0.8626819
vt 0.5824897 0.8626819
vt 0.5824897 0.8626819
vt 0.5824897 0.8626819
vt 0.5824897 0.8626819
vt 0.5824897 0.8626819
vt 0.5824897 0.8626819
vt 0.6019871 0.912302
vt 0.6019871 0.912302
vt 0.6040863 0.9086801
vt 0.6040863 0.9086801
vt 0.6040863 0.8961053
vt 0.6040863 0.9049652
vt 0.6040863 0.9099771
vt 0.6040863 0.9011171
vt 0.6040862 0.9099771
vt 0.6040863 0.9011171
vt 0.6040862 0.9049652
vt 0.6040863 0.8961053
vt 0.6019871 0.8427426
vt 0.6040863 0.8466724
vt 0.6019872 0.8475825
vt 0.6019871 0.8427426
vt 0.6019871 0.8953189
vt 0 1
vt 0 1
vn -0.3365566 -0.4759631 -0.81252
vn -0.390107 0.001896643 -0.9207675
vn -0.3826832 0 -0.9238796
vn -0.8125199 -0.4759632 0.336557
vn -0.3365566 -0.4759631 0.81252
vn -0.9238794 0 0.3826837
vn -0.3826832 0 0.9238796
vn 0.8125199 -0.4759632 0.336557
vn 0.3365566 -0.4759631 0.81252
vn 0.9238794 0 0.3826837
vn 0.3826832 0 0.9238796
vn 0.9318296 0.1370863 -0.3360073
vn 0.4030775 0.3347433 -0.8517484
vn 0.9269506 0.001883909 -0.3751788
vn 0.390107 0.001896562 -0.9207675
vn -0.4030775 0.3347433 0.8517484
vn -0.9318296 0.1370862 0.3360073
vn -0.8750471 0.4408428 0.199875
vn -0.4029235 0.8347772 0.3752329
vn 0.9318296 0.1370863 0.3360073
vn 0.4030775 0.3347433 0.8517484
vn 0.8750474 0.4408424 0.199875
vn 0.4029239 0.834777 0.3752331
vn 0.4029239 0.834777 -0.3752331
vn 0.8750474 0.4408424 -0.199875
vn -0.4030775 0.3347434 -0.8517484
vn -0.9318296 0.1370863 -0.3360073
vn -0.8750471 0.4408428 -0.199875
vn -0.4029235 0.8347772 -0.3752329
vn 0.9269506 0.001883929 0.3751788
vn 0.390107 0.001896582 0.9207676
vn -0.390107 0.001896562 0.9207676
vn -0.9269506 0.001883881 0.3751788
vn 0.9238794 0 -0.3826837
vn 0.3826832 0 -0.9238796
vn 0.8125199 -0.4759632 -0.336557
vn 0.3365566 -0.4759631 -0.81252
vn -0.5773503 -0.5773503 0.5773503
vn 0.5773503 -0.5773503 0.5773503
vn -0.5773503 0.5773503 0.5773503
vn 0.5773503 0.5773503 0.5773503
vn -0.7071068 0.7071068 0
vn 0.7071068 0.7071068 0
vn -0.7071068 -0.7071068 0
vn 0.7071068 -0.7071068 0
vn -0.5773503 -0.5773503 0.5773503
vn 0.5773503 -0.5773503 0.5773503
vn -0.5773503 0.5773503 0.5773503
vn 0.5773503 0.5773503 0.5773503
vn -0.7071068 0.7071068 0
vn 0.7071068 0.7071068 0
vn -0.7071068 -0.7071068 0
vn 0.7071068 -0.7071068 0
vn -0.7071068 0 0.7071068
vn 0.7071068 0 0.7071068
vn -0.5773502 0.5773503 0.5773503
vn 0.5773502 0.5773503 0.5773503
vn -0.5773502 0.5773503 -0.5773503
vn 0.5773502 0.5773503 -0.5773503
vn -0.7071068 0 -0.7071068
vn 0.7071068 0 -0.7071068
vn -0.7071068 0 0.7071068
vn 0.7071068 0 0.7071068
vn -0.5773502 0.5773503 0.5773503
vn 0.5773502 0.5773503 0.5773503
vn -0.5773502 0.5773503 -0.5773503
vn 0.5773502 0.5773503 -0.5773503
vn -0.7071068 0 -0.7071068
vn 0.7071068 0 -0.7071068
vn 0.3015112 0.009402786 0.9534162
vn -0.3015112 0.009402786 0.9534162
vn -0.126481 0.8842647 0.4495313
vn 0.126481 0.8842648 0.4495313
vn -0.1264805 0.4200501 -0.8986437
vn 0.1264805 0.4200501 -0.8986437
vn 0.3015114 -0.5795721 -0.7570912
vn -0.3015114 -0.5795721 -0.7570912
vn 0.6867809 -0.1033331 -0.7194819
vn 0.6867809 0.3615299 0.6305776
vn 0.6116591 0.4400927 -0.6574127
vn 0.6116593 0.7515413 0.2471004
vn -0.6867809 -0.1033331 -0.7194819
vn -0.6867809 0.3615299 0.6305776
vn -0.6116593 0.7515413 0.2471004
vn -0.6116591 0.4400927 -0.6574127
vn -0.7071068 -0.2302115 -0.6685825
vn -0.7071067 0.2302116 0.6685826
vn 0.7071068 -0.2302116 -0.6685825
vn 0.7071068 0.2302115 0.6685825
vn 0.7071068 -0.2302115 -0.6685825
vn 0.7071067 0.2302116 0.6685826
vn -0.7071068 0.2302115 0.6685825
vn -0.7071068 -0.2302116 -0.6685825
vn -0.9269506 0.001883963 -0.3751788
vn -0.9238794 0 -0.3826837
vn -0.8125199 -0.4759632 -0.336557
vn -0.3365566 -0.4759631 -0.81252
vn -0.3365566 -0.4759631 0.81252
vn 0.3365566 -0.4759631 -0.81252
vn 0.3365566 -0.4759631 0.81252
vn 0.8125199 -0.4759632 0.336557
vn 0.8125199 -0.4759632 -0.336557
vn -0.8125199 -0.4759632 0.336557
vn -0.8125199 -0.4759632 -0.336557
vn -0.4029235 0.8347772 0.3752329
vn 0.4029239 0.834777 0.3752331
vn 0.4029239 0.834777 -0.3752331
vn -0.4029235 0.8347772 -0.3752329
vn -0.4030775 0.3347433 0.8517484
vn 0.4030775 0.3347433 0.8517484
vn -0.3826832 0 0.9238796
vn -0.390107 0.001896562 0.9207676
vn 0.3826832 0 0.9238796
vn 0.390107 0.001896582 0.9207676
vn -0.9269506 0.001883881 0.3751788
vn -0.9238794 0 0.3826837
vn -0.9238794 0 -0.3826837
vn -0.9269506 0.001883963 -0.3751788
vn 0.3826832 0 -0.9238796
vn -0.3826832 0 -0.9238796
vn 0.9238794 0 0.3826837
vn 0.9269506 0.001883929 0.3751788
vn 0.9238794 0 -0.3826837
vn 0.9269506 0.001883909 -0.3751788
vn 0.390107 0.001896562 -0.9207675
vn -0.4030775 0.3347434 -0.8517484
vn -0.390107 0.001896643 -0.9207675
vn 0.4030775 0.3347433 -0.8517484
vn -0.8125199 -0.4759632 0.336557
vn -0.3365566 -0.4759631 0.81252
vn 0.3365566 -0.4759631 0.81252
vn 0.8125199 -0.4759632 0.336557
vn 0.4030775 0.3347433 -0.8517484
vn 0.9318296 0.1370863 -0.3360073
vn 0.4029239 0.834777 -0.3752331
vn 0.8750474 0.4408424 -0.199875
vn -0.9318296 0.1370862 0.3360073
vn -0.4030775 0.3347433 0.8517484
vn -0.4029235 0.8347772 0.3752329
vn -0.8750471 0.4408428 0.199875
vn -0.4029235 0.8347772 -0.3752329
vn -0.8750471 0.4408428 -0.199875
vn 0.4030775 0.3347433 0.8517484
vn 0.9318296 0.1370863 0.3360073
vn 0.4029239 0.834777 0.3752331
vn 0.8750474 0.4408424 0.199875
vn -0.9318296 0.1370863 -0.3360073
vn -0.4030775 0.3347434 -0.8517484
vn 0.3365566 -0.4759631 -0.81252
vn 0.8125199 -0.4759632 -0.336557
vn -0.5773503 0.5773503 0.5773503
vn 0.5773503 0.5773503 0.5773503
vn 0.5773503 -0.5773503 0.5773503
vn -0.5773503 -0.5773503 0.5773503
vn 0.7071068 -0.7071068 0
vn 0.5773503 -0.5773503 0.5773503
vn 0.7071068 0.7071068 0
vn 0.5773503 0.5773503 0.5773503
vn -0.5773503 0.5773503 0.5773503
vn -0.5773503 -0.5773503 0.5773503
vn -0.7071068 -0.7071068 0
vn -0.7071068 0.7071068 0
vn 0.5773503 0.5773503 0.5773503
vn -0.5773503 0.5773503 0.5773503
vn 0.5773503 -0.5773503 0.5773503
vn -0.5773503 -0.5773503 0.5773503
vn 0.7071068 -0.7071068 0
vn 0.5773503 -0.5773503 0.5773503
vn 0.7071068 0.7071068 0
vn 0.5773503 0.5773503 0.5773503
vn -0.5773503 0.5773503 0.5773503
vn -0.5773503 -0.5773503 0.5773503
vn -0.7071068 -0.7071068 0
vn -0.7071068 0.7071068 0
vn 0.5773502 0.5773503 0.5773503
vn -0.5773502 0.5773503 0.5773503
vn -0.5773502 0.5773503 -0.5773503
vn 0.5773502 0.5773503 -0.5773503
vn 0.5773502 0.5773503 0.5773503
vn 0.5773502 0.5773503 -0.5773503
vn 0.7071068 0 0.7071068
vn 0.7071068 0 -0.7071068
vn -0.5773502 0.5773503 0.5773503
vn -0.7071068 0 0.7071068
vn -0.7071068 0 -0.7071068
vn -0.5773502 0.5773503 -0.5773503
vn 0.5773502 0.5773503 0.5773503
vn -0.5773502 0.5773503 0.5773503
vn -0.5773502 0.5773503 -0.5773503
vn 0.5773502 0.5773503 -0.5773503
vn 0.5773502 0.5773503 0.5773503
vn 0.5773502 0.5773503 -0.5773503
vn 0.7071068 0 0.7071068
vn 0.7071068 0 -0.7071068
vn -0.5773502 0.5773503 0.5773503
vn -0.7071068 0 0.7071068
vn -0.7071068 0 -0.7071068
vn -0.5773502 0.5773503 -0.5773503
vn -0.126481 0.8842647 0.4495313
vn 0.126481 0.8842648 0.4495313
vn -0.1264805 0.4200501 -0.8986437
vn 0.1264805 0.4200501 -0.8986437
vn 0.6867809 -0.1033331 -0.7194819
vn 0.6116591 0.4400927 -0.6574127
vn 0.6116593 0.7515413 0.2471004
vn 0.6867809 0.3615299 0.6305776
vn -0.6116593 0.7515413 0.2471004
vn -0.6867809 0.3615299 0.6305776
vn -0.6116591 0.4400927 -0.6574127
vn -0.6867809 -0.1033331 -0.7194819
vn 0.7071068 -0.2302116 -0.6685825
vn 0.7071068 0.2302115 0.6685825
vn -0.7071068 0.2302115 0.6685825
vn 0.7071068 -0.2302115 -0.6685825
vn 0.3015114 -0.5795721 -0.7570912
vn -0.8125199 -0.4759632 -0.336557
vn -0.3365566 -0.4759631 -0.81252
g toolBox_geo_0
f 7/7/7 9/9/9 11/11/11
f 5/5/5 9/9/9 7/7/7
f 23/23/23 29/29/29 19/19/19
f 24/24/24 29/29/29 23/23/23
f 3/3/3 37/37/37 1/1/1
f 35/35/35 37/37/37 3/3/3
f 99/99/99 100/100/100 98/98/98
f 8/8/8 100/100/100 99/99/99
f 36/36/36 8/8/8 99/99/99
f 97/97/97 4/4/4 96/96/96
f 98/98/98 4/4/4 97/97/97
f 99/99/99 98/98/98 97/97/97
f 10/10/10 102/102/102 34/34/34
f 101/101/101 102/102/102 10/10/10
f 6/6/6 104/104/104 103/103/103
f 95/95/95 104/104/104 6/6/6
f 105/105/105 21/21/21 106/106/106
f 16/16/16 21/21/21 105/105/105
f 26/26/26 107/107/107 13/13/13
f 108/108/108 107/107/107 26/26/26
f 109/109/109 31/31/31 110/110/110
f 32/32/32 31/31/31 109/109/109
f 17/17/17 94/94/94 33/33/33
f 27/27/27 94/94/94 17/17/17
f 28/28/28 27/27/27 17/17/17
f 12/12/12 25/25/25 22/22/22
f 20/20/20 12/12/12 22/22/22
f 14/14/14 12/12/12 20/20/20
f 30/30/30 14/14/14 20/20/20
f 126/126/126 125/125/125 127/127/127
f 128/128/128 125/125/125 126/126/126
f 18/18/18 28/28/28 17/17/17
f 111/111/111 129/129/129 130/130/130
f 116/116/116 129/129/129 111/111/111
f 112/112/112 116/116/116 111/111/111
f 115/115/115 116/116/116 112/112/112
f 138/138/138 115/115/115 112/112/112
f 137/137/137 115/115/115 138/138/138
f 139/139/139 137/137/137 138/138/138
f 140/140/140 137/137/137 139/139/139
f 141/141/141 140/140/140 139/139/139
f 142/142/142 140/140/140 141/141/141
f 147/147/147 142/142/142 141/141/141
f 121/121/121 131/131/131 132/132/132
f 113/113/113 131/131/131 121/121/121
f 122/122/122 113/113/113 121/121/121
f 114/114/114 113/113/113 122/122/122
f 143/143/143 114/114/114 122/122/122
f 119/119/119 150/150/150 149/149/149
f 123/123/123 150/150/150 119/119/119
f 15/15/15 123/123/123 119/119/119
f 124/124/124 123/123/123 15/15/15
f 133/133/133 124/124/124 15/15/15
f 134/134/134 124/124/124 133/133/133
f 135/135/135 134/134/134 133/133/133
f 136/136/136 134/134/134 135/135/135
f 145/145/145 136/136/136 135/135/135
f 146/146/146 136/136/136 145/145/145
f 144/144/144 146/146/146 145/145/145
f 38/38/38 41/41/41 40/40/40
f 39/39/39 41/41/41 38/38/38
f 43/43/43 151/151/151 152/152/152
f 42/42/42 151/151/151 43/43/43
f 44/44/44 153/153/153 154/154/154
f 45/45/45 153/153/153 44/44/44
f 156/156/156 157/157/157 158/158/158
f 155/155/155 157/157/157 156/156/156
f 159/159/159 161/161/161 160/160/160
f 162/162/162 161/161/161 159/159/159
f 49/49/49 46/46/46 47/47/47
f 48/48/48 46/46/46 49/49/49
f 51/51/51 164/164/164 163/163/163
f 50/50/50 164/164/164 51/51/51
f 52/52/52 165/165/165 166/166/166
f 53/53/53 165/165/165 52/52/52
f 168/168/168 169/169/169 170/170/170
f 167/167/167 169/169/169 168/168/168
f 171/171/171 173/173/173 172/172/172
f 174/174/174 173/173/173 171/171/171
f 54/54/54 57/57/57 56/56/56
f 55/55/55 57/57/57 54/54/54
f 176/176/176 59/59/59 58/58/58
f 175/175/175 59/59/59 176/176/176
f 177/177/177 61/61/61 60/60/60
f 178/178/178 61/61/61 177/177/177
f 180/180/180 181/181/181 182/182/182
f 179/179/179 181/181/181 180/180/180
f 183/183/183 185/185/185 184/184/184
f 186/186/186 185/185/185 183/183/183
f 62/62/62 65/65/65 64/64/64
f 63/63/63 65/65/65 62/62/62
f 188/188/188 67/67/67 66/66/66
f 187/187/187 67/67/67 188/188/188
f 189/189/189 69/69/69 68/68/68
f 190/190/190 69/69/69 189/189/189
f 192/192/192 193/193/193 194/194/194
f 191/191/191 193/193/193 192/192/192
f 195/195/195 197/197/197 196/196/196
f 198/198/198 197/197/197 195/195/195
f 77/77/77 202/202/202 204/204/204
f 201/201/201 202/202/202 77/77/77
f 76/76/76 201/201/201 77/77/77
f 209/209/209 201/201/201 76/76/76
f 210/210/210 209/209/209 76/76/76
f 199/199/199 74/74/74 85/85/85
f 75/75/75 74/74/74 199/199/199
f 200/200/200 75/75/75 199/199/199
f 80/80/80 75/75/75 200/200/200
f 81/81/81 80/80/80 200/200/200
f 78/78/78 80/80/80 81/81/81
f 79/79/79 78/78/78 81/81/81
f 211/211/211 78/78/78 79/79/79
f 89/89/89 211/211/211 79/79/79
f 77/77/77 203/203/203 88/88/88
f 86/86/86 77/77/77 88/88/88
f 71/71/71 77/77/77 86/86/86
f 87/87/87 71/71/71 86/86/86
f 206/206/206 71/71/71 87/87/87
f 212/212/212 206/206/206 87/87/87
f 83/83/83 93/93/93 213/213/213
f 82/82/82 93/93/93 83/83/83
f 84/84/84 82/82/82 83/83/83
f 85/85/85 82/82/82 84/84/84
f 199/199/199 85/85/85 84/84/84
f 214/214/214 82/82/82 215/215/215
f 93/93/93 82/82/82 214/214/214
f 117/117/117 217/217/217 216/216/216
f 120/120/120 217/217/217 117/117/117
f 118/118/118 120/120/120 117/117/117
f 2/2/2 120/120/120 118/118/118
f 148/148/148 2/2/2 118/118/118
f 112/112/112 113/113/113 114/114/114
f 111/111/111 113/113/113 112/112/112
f 115/115/115 117/117/117 116/116/116
f 118/118/118 117/117/117 115/115/115
f 2/2/2 119/119/119 120/120/120
f 15/15/15 119/119/119 2/2/2
f 122/122/122 123/123/123 124/124/124
f 121/121/121 123/123/123 122/122/122
f 144/144/144 143/143/143 122/122/122
f 145/145/145 143/143/143 144/144/144
f 148/148/148 147/147/147 141/141/141
f 118/118/118 147/147/147 148/148/148
f 70/70/70 72/72/72 207/207/207
f 73/73/73 72/72/72 70/70/70
f 71/71/71 73/73/73 70/70/70
f 205/205/205 73/73/73 71/71/71
f 206/206/206 205/205/205 71/71/71
f 204/204/204 203/203/203 77/77/77
f 70/70/70 92/92/92 91/91/91
f 208/208/208 92/92/92 70/70/70
f 207/207/207 208/208/208 70/70/70
f 70/70/70 91/91/91 90/90/90
f 76/76/76 70/70/70 90/90/90
f 71/71/71 70/70/70 76/76/76
f 77/77/77 71/71/71 76/76/76
