g topHat_geo
v -0.1159693 1.286712 0.2635243
v 0.1134842 1.286663 0.2646459
v -0.1639121 1.707353 0.1785014
v 0.1639119 1.707353 0.1785014
v -0.1639121 1.623017 -0.1382889
v 0.1639119 1.623017 -0.1382889
v -0.1564421 1.215333 -0.003360109
v 0.1563427 1.21487 -0.006901035
v 3.963709E-08 1.306065 0.3031408
v -4.202127E-08 1.724391 0.2425023
v -4.202127E-08 1.605979 -0.2022897
v 4.202127E-08 1.188726 -0.08034448
v 0.1802581 1.249199 0.1247361
v 0.2301419 1.665185 0.02010628
v -4.202127E-08 1.665185 0.02010628
v -0.2301421 1.665185 0.02010628
v -0.1814038 1.248477 0.1250345
v 0.1326947 1.478489 0.2071248
v -4.202127E-08 1.492283 0.2589366
v -0.132695 1.478489 0.2071248
v -0.1863113 1.444352 0.07889614
v -0.132695 1.410216 -0.04933253
v -4.202127E-08 1.396422 -0.1011443
v 0.1326947 1.410216 -0.04933253
v 0.1863112 1.444352 0.07889614
v -0.2013209 1.286362 0.3445286
v -4.202127E-08 1.322845 0.4216116
v -0.2265336 1.191067 -0.0663427
v -4.202127E-08 1.16853 -0.1873112
v -0.2999216 1.245688 0.1317846
v 0.2265335 1.191067 -0.0663427
v 0.2999216 1.245688 0.1317846
v 0.2013208 1.286362 0.3445286
v -0.2014635 1.274335 0.3465329
v -4.202127E-08 1.310834 0.4236752
v -0.2266942 1.178962 -0.06462919
v -4.202127E-08 1.15641 -0.185657
v -0.3001334 1.233621 0.1336435
v 0.226694 1.178962 -0.06462919
v 0.3001334 1.233621 0.1336435
v 0.2014635 1.274335 0.3465329
v 3.963709E-08 1.293707 0.3052152
v -0.1159693 1.274354 0.2655987
v -0.1564421 1.202976 -0.001285725
v 4.202127E-08 1.176368 -0.0782701
v -0.1814038 1.236119 0.1271089
v 0.1563427 1.202512 -0.004826641
v 0.1802581 1.236841 0.1268105
v 0.1134842 1.274305 0.2667203
v -4.202127E-08 1.62326 0.2430784
v -0.1457789 1.608106 0.1861579
v -0.2046819 1.570604 0.04528564
v -0.1457789 1.533101 -0.09558658
v -4.202127E-08 1.517947 -0.1525071
v 0.1457786 1.533101 -0.09558658
v 0.2046817 1.570604 0.04528564
v 0.1457786 1.608106 0.1861579
v -0.06445328 1.30088 0.2917364
v -0.1093397 1.311577 0.3987508
v -0.1094171 1.299557 0.4007847
v -0.06445328 1.288522 0.2938108
v 0.06186119 1.300851 0.2924869
v 0.1093396 1.311577 0.3987508
v 0.109417 1.299557 0.4007847
v 0.06186119 1.288494 0.2945613
v 0.1582016 1.269481 0.2059583
v 0.2725579 1.264379 0.2553162
v 0.2727507 1.252332 0.2572478
v 0.168731 1.262372 0.1752914
v 0.2950911 1.259343 0.1869288
v 0.2952996 1.247286 0.1888241
v 0.1582016 1.257123 0.2080327
v 0.168731 1.250014 0.1773658
v 0.1776273 1.23685 0.07334003
v 0.2781639 1.218378 0.02708348
v 0.2783606 1.206292 0.02886972
v 0.1776273 1.224492 0.07541442
v -0.1605333 1.270181 0.2059629
v -0.272558 1.264379 0.2553162
v -0.2727507 1.252332 0.2572478
v -0.1605333 1.257823 0.2080373
v -0.1706476 1.26146 0.1753297
v -0.2950911 1.259343 0.1869288
v -0.2952996 1.247286 0.1888241
v -0.1706476 1.249102 0.1774041
v -0.1794568 1.236618 0.07384913
v -0.2781639 1.218378 0.02708348
v -0.2783607 1.206292 0.02886972
v -0.1794568 1.22426 0.07592352
v -0.09050472 1.197933 -0.06633201
v -0.1276293 1.179799 -0.1541419
v -0.1277197 1.167686 -0.1524581
v -0.09050472 1.185575 -0.06425762
v 0.08915895 1.196996 -0.06600093
v 0.1276292 1.179799 -0.1541419
v 0.1277196 1.167686 -0.1524581
v 0.08915895 1.184638 -0.06392652
v -4.202127E-08 1.396422 -0.1011443
v -4.202127E-08 1.492283 0.2589366
v 0.1326947 1.478489 0.2071248
v -0.132695 1.478489 0.2071248
v -0.1863113 1.444352 0.07889614
v -0.132695 1.410216 -0.04933253
v -4.202127E-08 1.396422 -0.1011443
v 0.1326947 1.410216 -0.04933253
v -4.202127E-08 1.517947 -0.1525071
v -4.202127E-08 1.396422 -0.1011443
v 0.1863112 1.444352 0.07889614
v 3.963709E-08 1.306065 0.3031408
v -0.06445328 1.30088 0.2917364
v -0.1564421 1.215333 -0.003360109
v -0.09050472 1.197933 -0.06633201
v -0.1814038 1.248477 0.1250345
v -0.1794568 1.236618 0.07384913
v 0.1563427 1.21487 -0.006901035
v 0.1776273 1.23685 0.07334003
v 0.1134842 1.286663 0.2646459
v 0.06186119 1.300851 0.2924869
v 4.202127E-08 1.188726 -0.08034448
v 0.08915895 1.196996 -0.06600093
v 0.1802581 1.249199 0.1247361
v 0.168731 1.262372 0.1752914
v -0.1159693 1.286712 0.2635243
v -0.1605333 1.270181 0.2059629
v -0.1094171 1.299557 0.4007847
v -4.202127E-08 1.310834 0.4236752
v -0.1277197 1.167686 -0.1524581
v -0.2266942 1.178962 -0.06462919
v -0.2783607 1.206292 0.02886972
v -0.3001334 1.233621 0.1336435
v 0.2783606 1.206292 0.02886972
v 0.226694 1.178962 -0.06462919
v 0.109417 1.299557 0.4007847
v 0.2014635 1.274335 0.3465329
v 0.1277196 1.167686 -0.1524581
v -4.202127E-08 1.15641 -0.185657
v 0.2952996 1.247286 0.1888241
v 0.3001334 1.233621 0.1336435
v -0.2727507 1.252332 0.2572478
v -0.2014635 1.274335 0.3465329
v -4.202127E-08 1.724391 0.2425023
v -0.1639121 1.707353 0.1785014
v -0.2301421 1.665185 0.02010628
v -0.1639121 1.623017 -0.1382889
v -4.202127E-08 1.605979 -0.2022897
v -4.202127E-08 1.605979 -0.2022897
v 0.1639119 1.707353 0.1785014
v 0.1582016 1.269481 0.2059583
v 0.2727507 1.252332 0.2572478
v -0.1706476 1.26146 0.1753297
v -0.2952996 1.247286 0.1888241
v 4.202127E-08 1.188726 -0.08034448
v 4.202127E-08 1.188726 -0.08034448
v -4.202127E-08 1.16853 -0.1873112
v -4.202127E-08 1.15641 -0.185657
v -4.202127E-08 1.15641 -0.185657
v 4.202127E-08 1.176368 -0.0782701
vt 0.8523452 0.8986607
vt 0.9113126 0.8986607
vt 0.9360911 0.8886209
vt 0.9128592 0.8311244
vt 0.9935876 0.865389
vt 0.967836 0.8078926
vt 0.7888536 0.8986609
vt 0.968057 0.8986607
vt 0.8821368 0.8986607
vt 0.9128592 0.8645661
vt 0.9935876 0.8319473
vt 0.9957469 0.8986607
vt 0.9399399 0.8986607
vt 0.9394337 0.8078926
vt 0.9532233 0.8482567
vt 0.9695328 0.8886209
vt 0.8210835 0.8986609
vt 0.9113125 0.9888569
vt 0.8821368 0.9888569
vt 0.8521721 0.9888569
vt 0.8210835 0.9888569
vt 0.7888536 0.9888569
vt 0.7562284 0.9888569
vt 0.968057 0.9888569
vt 0.9399399 0.9888569
vt 0.7873535 0.8383986
vt 0.7924575 0.8383986
vt 0.7686675 0.8383986
vt 0.8255584 0.8383986
vt 0.7788207 0.8383986
vt 0.8174151 0.8383986
vt 0.807299 0.8383986
vt 0.7987399 0.8383986
vt 0.7873535 0.8242294
vt 0.7924575 0.8242293
vt 0.7686675 0.8242294
vt 0.8255584 0.8242293
vt 0.7788207 0.8242293
vt 0.8174151 0.8242293
vt 0.807299 0.8242294
vt 0.7987399 0.8242293
vt 0.8684279 0.8801183
vt 0.8761818 0.8801183
vt 0.8900564 0.8801183
vt 0.8403483 0.8801183
vt 0.8835645 0.8801183
vt 0.8477587 0.8801183
vt 0.855899 0.8801181
vt 0.86266 0.8801183
vt 0.8809841 0.7900156
vt 0.8507086 0.7900156
vt 0.8191842 0.7900156
vt 0.7865602 0.7900156
vt 0.7535361 0.7900156
vt 0.9679552 0.7900156
vt 0.9394941 0.7900156
vt 0.9105167 0.7900156
vt 0.867241 0.8986607
vt 0.7899055 0.8383986
vt 0.7899055 0.8242294
vt 0.8723049 0.8801183
vt 0.8967247 0.8986607
vt 0.7955987 0.8383986
vt 0.7955987 0.8242293
vt 0.865544 0.8801183
vt 0.9256263 0.8986607
vt 0.8030194 0.8383986
vt 0.8030194 0.8242294
vt 0.9327831 0.8986607
vt 0.8051592 0.8383986
vt 0.8051592 0.8242294
vt 0.8592795 0.8801182
vt 0.8575892 0.8801181
vt 0.9539984 0.8986607
vt 0.8123571 0.8383986
vt 0.8123571 0.8242294
vt 0.8518288 0.8801183
vt 0.8367143 0.8986608
vt 0.7830871 0.8383986
vt 0.7830871 0.8242294
vt 0.8798732 0.8801183
vt 0.8288989 0.8986608
vt 0.7809539 0.8383986
vt 0.7809539 0.8242294
vt 0.8817188 0.8801183
vt 0.8049685 0.8986609
vt 0.7737441 0.8383986
vt 0.7737441 0.8242294
vt 0.8868104 0.8801183
vt 0.772541 0.8986608
vt 0.7644902 0.8383986
vt 0.7644902 0.8242294
vt 0.8935192 0.8801183
vt 0.9819019 0.8986607
vt 0.8214867 0.8383986
vt 0.8214867 0.8242293
vt 0.8440535 0.8801183
vt 0.9957469 0.9888569
vt 0.8809841 0.7665817
vt 0.9105167 0.7665817
vt 0.8506531 0.7665817
vt 0.8191842 0.7665817
vt 0.7865602 0.7665817
vt 0.7535361 0.7665817
vt 0.9679552 0.7665817
vt 0.9959835 0.7900156
vt 0.9959835 0.7665817
vt 0.9394941 0.7665817
vt 0.7924575 0.8790768
vt 0.7899055 0.8790768
vt 0.7686675 0.8790768
vt 0.7644902 0.8790768
vt 0.7788207 0.8790768
vt 0.7737441 0.8790768
vt 0.8174151 0.8790768
vt 0.8123571 0.8790768
vt 0.7987399 0.8790768
vt 0.7955987 0.8790768
vt 0.8255584 0.8790768
vt 0.8214867 0.8790768
vt 0.807299 0.8790768
vt 0.8051592 0.8790768
vt 0.7873535 0.8790768
vt 0.7830871 0.8790768
vt 0.8723227 0.8234138
vt 0.8684279 0.8234138
vt 0.8935192 0.8234137
vt 0.8900564 0.8234137
vt 0.8868104 0.8234137
vt 0.8835645 0.8234137
vt 0.8518288 0.8234138
vt 0.8477587 0.8234137
vt 0.865544 0.8234138
vt 0.86266 0.8234138
vt 0.8440535 0.8234137
vt 0.8403483 0.8234137
vt 0.8575892 0.8234138
vt 0.855899 0.8234139
vt 0.8798909 0.8234137
vt 0.8762174 0.8234138
vt 0.8809841 0.8074305
vt 0.8509558 0.8074305
vt 0.8191842 0.8074305
vt 0.7865602 0.8074305
vt 0.7535361 0.8074305
vt 0.9959835 0.8074305
vt 0.9105167 0.8074305
vt 0.8030195 0.8790768
vt 0.8592795 0.8234138
vt 0.7809539 0.8790768
vt 0.8817277 0.8234137
vt 0.7562284 0.8986607
vt 0.7603129 0.8790768
vt 0.7603129 0.8383986
vt 0.7603129 0.8242293
vt 0.896982 0.8234137
vt 0.896982 0.8801183
vn -0.5080333 0.7724892 0.381002
vn 0.5094841 0.7728904 0.3782411
vn -0.6778911 0.4492976 0.5818893
vn 0.6778913 0.4492973 0.5818895
vn -0.6778904 0.1005113 -0.7282596
vn 0.6778905 0.1005107 -0.7282595
vn -0.5125526 0.6319847 -0.5812789
vn 0.5094297 0.6334847 -0.5823904
vn -0.000713046 0.828557 0.5599043
vn 0 0.8216494 0.5699933
vn 2.016124E-07 0.4294915 -0.9030709
vn 0.002694536 0.5978619 -0.8015946
vn 0.7292113 0.6751091 -0.1117068
vn 0.7621858 0.6255698 -0.1665391
vn 0 0.9663426 -0.257259
vn -0.7621856 0.6255701 -0.166539
vn -0.7260013 0.6785874 -0.1115408
vn 0.7359726 0.1143338 0.6672871
vn -0.000919313 0.2107427 0.9775411
vn -0.735675 0.1183591 0.6669134
vn -0.9988523 -0.02500439 0.04085313
vn -0.741569 -0.1654183 -0.6501632
vn -0.001824947 -0.1786655 -0.9839081
vn 0.740594 -0.165976 -0.6511317
vn 0.9986124 -0.02845538 0.04431102
vn -0.5487254 0.7460867 0.3771675
vn 0.0005015545 0.8125728 0.5828595
vn -0.5522479 0.5948313 -0.5841213
vn 0.001052122 0.5915668 -0.8062553
vn -0.7096695 0.6725194 -0.2099688
vn 0.5514899 0.5949239 -0.584743
vn 0.7114323 0.6704791 -0.2105281
vn 0.5481052 0.7478597 0.3745485
vn -0.3862223 -0.6388282 0.6653802
vn -0.0005187726 -0.5994796 0.8003899
vn -0.5538637 -0.791114 -0.2595641
vn -0.001120041 -0.8250139 -0.5651112
vn -0.6960505 -0.7050629 0.1356464
vn 0.5547032 -0.7907232 -0.2589613
vn 0.694243 -0.706551 0.1371583
vn 0.3872733 -0.6363228 0.6671677
vn -0.0007142386 -0.9904501 0.13787
vn 0.148209 -0.9752691 0.163964
vn 0.046423 -0.96341 0.2639813
vn -0.001508924 -0.9805212 0.1964077
vn 0.03967654 -0.9687399 0.2448855
vn -0.04504819 -0.9632926 0.264647
vn -0.04474045 -0.9681263 0.246434
vn -0.1450692 -0.9748216 0.1693453
vn 2.247172E-07 0.06296243 0.9980159
vn -0.693212 -0.01229266 0.7206289
vn -0.9806229 -0.1893113 0.05039815
vn -0.6932118 -0.3689626 -0.6191317
vn 2.969477E-07 -0.4415856 -0.8972192
vn 0.6932119 -0.3689628 -0.6191315
vn 0.9806229 -0.1893117 0.0503981
vn 0.693212 -0.01229288 0.7206289
vn -0.2804268 0.8142996 0.5082096
vn -0.3411327 0.7854126 0.5164838
vn -0.1894558 -0.6054062 0.7730393
vn 0.1169895 -0.9809572 0.1550375
vn 0.2788772 0.8152164 0.507592
vn 0.3412808 0.7863223 0.5149997
vn 0.1895039 -0.6040652 0.7740757
vn -0.1164657 -0.9805014 0.158281
vn 0.6459965 0.7290469 0.2262279
vn 0.6515147 0.7260169 0.2200637
vn 0.5868357 -0.6777219 0.4430764
vn 0.6916286 0.7181011 0.07733413
vn 0.7055398 0.7084888 0.01604302
vn 0.6773983 -0.6851116 0.2678688
vn -0.09126365 -0.9870411 0.1319871
vn -0.04914753 -0.9839141 0.1717483
vn 0.6977106 0.6426793 -0.3164859
vn 0.663641 0.625 -0.4110421
vn 0.6619766 -0.748049 -0.04700713
vn -0.04974477 -0.9607744 0.2728332
vn -0.6447927 0.731413 0.2219853
vn -0.6536905 0.7250204 0.2168735
vn -0.5842592 -0.6775539 0.4467236
vn 0.09508751 -0.9860703 0.1364678
vn -0.6908135 0.7200668 0.06542578
vn -0.7054667 0.7086596 0.01087751
vn -0.6771591 -0.683352 0.2729204
vn 0.04789978 -0.9826456 0.1792012
vn -0.6943212 0.6466551 -0.3158405
vn -0.6621161 0.6267954 -0.4107673
vn -0.6635177 -0.7466075 -0.04818033
vn 0.04539457 -0.961476 0.271115
vn -0.2224968 0.6072275 -0.7627384
vn -0.3204765 0.594394 -0.7375572
vn -0.346497 -0.8116636 -0.4702573
vn -0.001197991 -0.9760892 0.2173669
vn 0.2175905 0.607435 -0.7639876
vn 0.3192706 0.5955719 -0.7371298
vn 0.3476416 -0.8107736 -0.4709476
vn 0.003510577 -0.9765303 0.2153518
vn -0.001824947 -0.1786655 -0.9839081
vn -0.000919313 0.2107427 0.9775411
vn 0.7359726 0.1143338 0.6672871
vn -0.735675 0.1183591 0.6669134
vn -0.9988523 -0.02500439 0.04085313
vn -0.741569 -0.1654183 -0.6501632
vn -0.001824947 -0.1786655 -0.9839081
vn 0.740594 -0.165976 -0.6511317
vn 2.969477E-07 -0.4415856 -0.8972192
vn -0.001824947 -0.1786655 -0.9839081
vn 0.9986124 -0.02845538 0.04431102
vn -0.000713046 0.828557 0.5599043
vn -0.2804268 0.8142996 0.5082096
vn -0.5125526 0.6319847 -0.5812789
vn -0.2224968 0.6072275 -0.7627384
vn -0.7260013 0.6785874 -0.1115408
vn -0.6943212 0.6466551 -0.3158405
vn 0.5094297 0.6334847 -0.5823904
vn 0.6977106 0.6426793 -0.3164859
vn 0.5094841 0.7728904 0.3782411
vn 0.2788772 0.8152164 0.507592
vn 0.002694536 0.5978619 -0.8015946
vn 0.2175905 0.607435 -0.7639876
vn 0.7292113 0.6751091 -0.1117068
vn 0.6916286 0.7181011 0.07733413
vn -0.5080333 0.7724892 0.381002
vn -0.6447927 0.731413 0.2219853
vn -0.1894558 -0.6054062 0.7730393
vn -0.0005187726 -0.5994796 0.8003899
vn -0.346497 -0.8116636 -0.4702573
vn -0.5538637 -0.791114 -0.2595641
vn -0.6635177 -0.7466075 -0.04818033
vn -0.6960505 -0.7050629 0.1356464
vn 0.6619766 -0.748049 -0.04700713
vn 0.5547032 -0.7907232 -0.2589613
vn 0.1895039 -0.6040652 0.7740757
vn 0.3872733 -0.6363228 0.6671677
vn 0.3476416 -0.8107736 -0.4709476
vn -0.001120041 -0.8250139 -0.5651112
vn 0.6773983 -0.6851116 0.2678688
vn 0.694243 -0.706551 0.1371583
vn -0.5842592 -0.6775539 0.4467236
vn -0.3862223 -0.6388282 0.6653802
vn 0 0.8216494 0.5699933
vn -0.6778911 0.4492976 0.5818893
vn -0.7621856 0.6255701 -0.166539
vn -0.6778904 0.1005113 -0.7282596
vn 2.016124E-07 0.4294915 -0.9030709
vn 2.016124E-07 0.4294915 -0.9030709
vn 0.6778913 0.4492973 0.5818895
vn 0.6459965 0.7290469 0.2262279
vn 0.5868357 -0.6777219 0.4430764
vn -0.6908135 0.7200668 0.06542578
vn -0.6771591 -0.683352 0.2729204
vn 0.002694536 0.5978619 -0.8015946
vn 0.002694536 0.5978619 -0.8015946
vn 0.001052122 0.5915668 -0.8062553
vn -0.001120041 -0.8250139 -0.5651112
vn -0.001120041 -0.8250139 -0.5651112
vn -0.001508924 -0.9805212 0.1964077
g topHat_geo_0
f 24/24/24 74/74/74 8/8/8
f 94/94/94 24/24/24 8/8/8
f 98/98/98 24/24/24 94/94/94
f 12/12/12 98/98/98 94/94/94
f 15/15/15 4/4/4 14/14/14
f 11/11/11 15/15/15 14/14/14
f 16/16/16 15/15/15 11/11/11
f 5/5/5 16/16/16 11/11/11
f 53/53/53 54/54/54 104/104/104
f 103/103/103 53/53/53 104/104/104
f 52/52/52 53/53/53 103/103/103
f 102/102/102 52/52/52 103/103/103
f 51/51/51 52/52/52 102/102/102
f 101/101/101 51/51/51 102/102/102
f 50/50/50 51/51/51 101/101/101
f 99/99/99 50/50/50 101/101/101
f 57/57/57 50/50/50 99/99/99
f 100/100/100 57/57/57 99/99/99
f 56/56/56 57/57/57 100/100/100
f 108/108/108 56/56/56 100/100/100
f 55/55/55 56/56/56 108/108/108
f 105/105/105 55/55/55 108/108/108
f 106/106/106 55/55/55 105/105/105
f 107/107/107 106/106/106 105/105/105
f 75/75/75 116/116/116 121/121/121
f 115/115/115 116/116/116 75/75/75
f 31/31/31 115/115/115 75/75/75
f 95/95/95 115/115/115 31/31/31
f 96/96/96 95/95/95 31/31/31
f 29/29/29 95/95/95 96/96/96
f 37/37/37 29/29/29 96/96/96
f 93/93/93 156/156/156 157/157/157
f 127/127/127 156/156/156 93/93/93
f 44/44/44 127/127/127 93/93/93
f 128/128/128 127/127/127 44/44/44
f 89/89/89 128/128/128 44/44/44
f 129/129/129 128/128/128 89/89/89
f 46/46/46 129/129/129 89/89/89
f 130/130/130 129/129/129 46/46/46
f 85/85/85 130/130/130 46/46/46
f 151/151/151 130/130/130 85/85/85
f 81/81/81 151/151/151 85/85/85
f 139/139/139 151/151/151 81/81/81
f 43/43/43 139/139/139 81/81/81
f 140/140/140 139/139/139 43/43/43
f 61/61/61 140/140/140 43/43/43
f 125/125/125 140/140/140 61/61/61
f 42/42/42 125/125/125 61/61/61
f 126/126/126 125/125/125 42/42/42
f 65/65/65 126/126/126 42/42/42
f 133/133/133 126/126/126 65/65/65
f 49/49/49 133/133/133 65/65/65
f 134/134/134 133/133/133 49/49/49
f 72/72/72 134/134/134 49/49/49
f 149/149/149 134/134/134 72/72/72
f 73/73/73 149/149/149 72/72/72
f 137/137/137 149/149/149 73/73/73
f 48/48/48 137/137/137 73/73/73
f 138/138/138 137/137/137 48/48/48
f 77/77/77 138/138/138 48/48/48
f 131/131/131 138/138/138 77/77/77
f 47/47/47 131/131/131 77/77/77
f 132/132/132 131/131/131 47/47/47
f 97/97/97 132/132/132 47/47/47
f 135/135/135 132/132/132 97/97/97
f 45/45/45 135/135/135 97/97/97
f 136/136/136 135/135/135 45/45/45
f 55/55/55 106/106/106 146/146/146
f 6/6/6 55/55/55 146/146/146
f 56/56/56 55/55/55 6/6/6
f 14/14/14 56/56/56 6/6/6
f 57/57/57 56/56/56 14/14/14
f 147/147/147 57/57/57 14/14/14
f 50/50/50 57/57/57 147/147/147
f 141/141/141 50/50/50 147/147/147
f 51/51/51 50/50/50 141/141/141
f 142/142/142 51/51/51 141/141/141
f 52/52/52 51/51/51 142/142/142
f 143/143/143 52/52/52 142/142/142
f 53/53/53 52/52/52 143/143/143
f 144/144/144 53/53/53 143/143/143
f 54/54/54 53/53/53 144/144/144
f 145/145/145 54/54/54 144/144/144
f 21/21/21 86/86/86 17/17/17
f 7/7/7 86/86/86 21/21/21
f 22/22/22 7/7/7 21/21/21
f 90/90/90 7/7/7 22/22/22
f 23/23/23 90/90/90 22/22/22
f 152/152/152 90/90/90 23/23/23
f 92/92/92 154/154/154 155/155/155
f 91/91/91 154/154/154 92/92/92
f 28/28/28 91/91/91 92/92/92
f 111/111/111 91/91/91 28/28/28
f 87/87/87 111/111/111 28/28/28
f 114/114/114 111/111/111 87/87/87
f 113/113/113 114/114/114 87/87/87
f 19/19/19 58/58/58 9/9/9
f 1/1/1 58/58/58 19/19/19
f 20/20/20 1/1/1 19/19/19
f 78/78/78 1/1/1 20/20/20
f 82/82/82 78/78/78 20/20/20
f 15/15/15 10/10/10 4/4/4
f 3/3/3 10/10/10 15/15/15
f 16/16/16 3/3/3 15/15/15
f 25/25/25 69/69/69 13/13/13
f 66/66/66 69/69/69 25/25/25
f 18/18/18 66/66/66 25/25/25
f 2/2/2 66/66/66 18/18/18
f 62/62/62 2/2/2 18/18/18
f 19/19/19 62/62/62 18/18/18
f 9/9/9 62/62/62 19/19/19
f 25/25/25 74/74/74 24/24/24
f 13/13/13 74/74/74 25/25/25
f 6/6/6 11/11/11 14/14/14
f 30/30/30 88/88/88 38/38/38
f 84/84/84 30/30/30 38/38/38
f 83/83/83 30/30/30 84/84/84
f 80/80/80 83/83/83 84/84/84
f 79/79/79 83/83/83 80/80/80
f 26/26/26 79/79/79 80/80/80
f 123/123/123 79/79/79 26/26/26
f 59/59/59 123/123/123 26/26/26
f 110/110/110 123/123/123 59/59/59
f 109/109/109 110/110/110 59/59/59
f 91/91/91 153/153/153 154/154/154
f 112/112/112 153/153/153 91/91/91
f 111/111/111 112/112/112 91/91/91
f 26/26/26 80/80/80 34/34/34
f 60/60/60 26/26/26 34/34/34
f 59/59/59 26/26/26 60/60/60
f 27/27/27 59/59/59 60/60/60
f 109/109/109 59/59/59 27/27/27
f 63/63/63 109/109/109 27/27/27
f 118/118/118 109/109/109 63/63/63
f 117/117/117 118/118/118 63/63/63
f 95/95/95 120/120/120 115/115/115
f 119/119/119 120/120/120 95/95/95
f 29/29/29 119/119/119 95/95/95
f 27/27/27 60/60/60 35/35/35
f 64/64/64 27/27/27 35/35/35
f 63/63/63 27/27/27 64/64/64
f 33/33/33 63/63/63 64/64/64
f 117/117/117 63/63/63 33/33/33
f 67/67/67 117/117/117 33/33/33
f 148/148/148 117/117/117 67/67/67
f 70/70/70 148/148/148 67/67/67
f 122/122/122 148/148/148 70/70/70
f 121/121/121 122/122/122 70/70/70
f 28/28/28 92/92/92 36/36/36
f 88/88/88 28/28/28 36/36/36
f 87/87/87 28/28/28 88/88/88
f 30/30/30 87/87/87 88/88/88
f 113/113/113 87/87/87 30/30/30
f 83/83/83 113/113/113 30/30/30
f 150/150/150 113/113/113 83/83/83
f 79/79/79 150/150/150 83/83/83
f 124/124/124 150/150/150 79/79/79
f 123/123/123 124/124/124 79/79/79
f 31/31/31 39/39/39 96/96/96
f 76/76/76 39/39/39 31/31/31
f 75/75/75 76/76/76 31/31/31
f 32/32/32 76/76/76 75/75/75
f 121/121/121 32/32/32 75/75/75
f 70/70/70 32/32/32 121/121/121
f 71/71/71 32/32/32 70/70/70
f 67/67/67 71/71/71 70/70/70
f 68/68/68 71/71/71 67/67/67
f 33/33/33 68/68/68 67/67/67
f 41/41/41 68/68/68 33/33/33
f 64/64/64 41/41/41 33/33/33
f 40/40/40 32/32/32 71/71/71
f 76/76/76 32/32/32 40/40/40
f 21/21/21 82/82/82 20/20/20
f 17/17/17 82/82/82 21/21/21
