g topHat_geo
v -0.1832745 0.9334099 0.1630353
v 0.1904904 0.9334099 0.1630353
v -0.2295517 1.540074 0.08271517
v 0.2367677 1.540074 0.08271517
v -0.2295517 1.444085 -0.3736181
v 0.2367677 1.444085 -0.3736181
v -0.1832745 0.8564731 -0.2027256
v 0.1904904 0.8564731 -0.2027256
v 0.003607955 0.9489533 0.2369295
v 0.003607953 1.559466 0.1749078
v 0.003607953 1.424693 -0.4658106
v 0.003607955 0.8409297 -0.2766198
v 0.2660018 0.8949416 -0.0198452
v 0.3309778 1.492079 -0.1454514
v 0.003607953 1.492079 -0.1454514
v -0.3237617 1.492079 -0.1454514
v -0.2587858 0.8949416 -0.0198452
v 0.1923621 1.212826 0.1061736
v 0.003607953 1.228525 0.1808079
v -0.1851464 1.212826 0.1061736
v -0.2614139 1.173972 -0.07853856
v -0.1851464 1.135119 -0.2632507
v 0.003607953 1.11942 -0.337885
v 0.1923621 1.135119 -0.2632507
v 0.2686299 1.173972 -0.07853856
v -0.2984062 0.9499652 0.2772042
v 0.003607961 0.9756163 0.3991505
v -0.2984062 0.8256305 -0.3138891
v 0.003607964 0.7999793 -0.4358353
v -0.4230209 0.8877978 -0.0183425
v 0.3056223 0.8256305 -0.3138891
v 0.4302372 0.8877978 -0.0183425
v 0.3056223 0.9499652 0.2772042
v -0.2986202 0.9259189 0.2822873
v 0.003607958 0.9515882 0.404319
v -0.2986202 0.8014961 -0.3092249
v 0.003607962 0.7758273 -0.4312565
v -0.4233222 0.8637072 -0.01346879
v 0.3058363 0.8014961 -0.3092249
v 0.4305384 0.8637072 -0.01346879
v 0.3058363 0.9259189 0.2822873
v -0.001952746 0.924939 0.2256982
v -0.210874 0.8835814 0.1191641
v -0.2204824 0.8381003 -0.1673493
v -0.0008918816 0.8092275 -0.2578372
v -0.2508139 0.856523 -0.05942311
v 0.2166701 0.8376008 -0.1682316
v 0.2469484 0.8568093 -0.05982263
v 0.2086785 0.8831055 0.1198372
v 0.003607953 1.415768 0.1681255
v -0.2037578 1.398521 0.08613203
v -0.2875455 1.355836 -0.116793
v -0.2037578 1.313151 -0.3197181
v 0.003607953 1.295904 -0.4017115
v 0.2109736 1.313151 -0.3197181
v 0.2947614 1.355836 -0.116793
v 0.2109736 1.398521 0.08613203
v 0.0781916 0.9195116 0.2137013
v -0.08153401 0.9195682 0.2128694
v -0.1551588 0.9047928 0.1810881
v 0.1518789 0.9046999 0.1823312
v -0.2456246 0.8670129 0.02602239
v -0.1252431 0.8189963 -0.2427347
v 0.1220393 0.8179491 -0.2424982
v 0.242838 0.8678175 0.02590809
v 0.2255074 0.8717471 0.0828394
v -0.2285558 0.8707352 0.0828192
v 0.003607955 0.8409297 -0.2766198
v 0.003607953 1.11942 -0.337885
v 0.003607953 1.228525 0.1808079
v 0.1923621 1.212826 0.1061736
v -0.1851464 1.212826 0.1061736
v -0.2614139 1.173972 -0.07853856
v -0.1851464 1.135119 -0.2632507
v 0.003607953 1.11942 -0.337885
v 0.1923621 1.135119 -0.2632507
v 0.003607953 1.295904 -0.4017115
v 0.003607953 1.11942 -0.337885
v 0.2686299 1.173972 -0.07853856
v 0.003607955 0.9489533 0.2369295
v -0.1832745 0.9334099 0.1630353
v -0.1832745 0.8564731 -0.2027256
v 0.003607955 0.8409297 -0.2766198
v -0.2587858 0.8949416 -0.0198452
v 0.1904904 0.8564731 -0.2027256
v 0.2660018 0.8949416 -0.0198452
v 0.1904904 0.9334099 0.1630353
v 0.003607955 0.8409297 -0.2766198
v 0.003607964 0.7999793 -0.4358353
v 0.003607962 0.7758273 -0.4312565
v -0.2986202 0.9259189 0.2822873
v 0.003607962 0.7758273 -0.4312565
v -0.2986202 0.8014961 -0.3092249
v -0.4233222 0.8637072 -0.01346879
v 0.4305384 0.8637072 -0.01346879
v 0.3058363 0.8014961 -0.3092249
v 0.003607958 0.9515882 0.404319
v -0.0008918816 0.8092275 -0.2578372
v 0.003607962 0.7758273 -0.4312565
v 0.003607953 1.559466 0.1749078
v -0.2295517 1.540074 0.08271517
v -0.3237617 1.492079 -0.1454514
v -0.2295517 1.444085 -0.3736181
v 0.003607953 1.424693 -0.4658106
v 0.003607953 1.424693 -0.4658106
v 0.2367677 1.540074 0.08271517
v 0.3058363 0.9259189 0.2822873
vt 0.8523452 0.8986607
vt 0.9113126 0.8986607
vt 0.9360911 0.8886209
vt 0.9128592 0.8311244
vt 0.9935876 0.865389
vt 0.967836 0.8078926
vt 0.7888536 0.8986609
vt 0.968057 0.8986607
vt 0.8821368 0.8986607
vt 0.9128592 0.8645661
vt 0.9935876 0.8319473
vt 0.7562284 0.8986607
vt 0.9399399 0.8986607
vt 0.9394337 0.8078926
vt 0.9532233 0.8482567
vt 0.9695328 0.8886209
vt 0.8210835 0.8986609
vt 0.9113125 0.9888569
vt 0.8821368 0.9888569
vt 0.8521721 0.9888569
vt 0.8210835 0.9888569
vt 0.7888536 0.9888569
vt 0.7562284 0.9888569
vt 0.968057 0.9888569
vt 0.9399399 0.9888569
vt 0.7873535 0.8383986
vt 0.7924575 0.8383986
vt 0.7686675 0.8383986
vt 0.7603129 0.8383986
vt 0.7788207 0.8383986
vt 0.8174151 0.8383986
vt 0.807299 0.8383986
vt 0.7987399 0.8383986
vt 0.7873535 0.8242294
vt 0.7924575 0.8242293
vt 0.7686675 0.8242294
vt 0.7603129 0.8242293
vt 0.7788207 0.8242293
vt 0.8174151 0.8242293
vt 0.807299 0.8242294
vt 0.7987399 0.8242293
vt 0.8684279 0.8801183
vt 0.8765327 0.8801183
vt 0.8900564 0.8801183
vt 0.896982 0.8801183
vt 0.8835645 0.8801183
vt 0.8477587 0.8801183
vt 0.855899 0.8801181
vt 0.8622656 0.8801183
vt 0.8809841 0.7900156
vt 0.8507086 0.7900156
vt 0.8191842 0.7900156
vt 0.7865602 0.7900156
vt 0.7535361 0.7900156
vt 0.9679552 0.7900156
vt 0.9394941 0.7900156
vt 0.9105167 0.7900156
vt 0.8661385 0.8801183
vt 0.8711989 0.8801183
vt 0.873823 0.8801183
vt 0.8643993 0.8801183
vt 0.8804399 0.8801183
vt 0.8937355 0.8801183
vt 0.843752 0.8801184
vt 0.8588018 0.8801181
vt 0.8607309 0.8801182
vt 0.8781168 0.8801183
vt 0.9957469 0.8986607
vt 0.9957469 0.9888569
vt 0.8809841 0.7665817
vt 0.9105167 0.7665817
vt 0.8506531 0.7665817
vt 0.8191842 0.7665817
vt 0.7865602 0.7665817
vt 0.7535361 0.7665817
vt 0.9679552 0.7665817
vt 0.9959835 0.7900156
vt 0.9959835 0.7665817
vt 0.9394941 0.7665817
vt 0.7924575 0.8790768
vt 0.7873535 0.8790768
vt 0.7686675 0.8790768
vt 0.7603129 0.8790768
vt 0.7788207 0.8790768
vt 0.8174151 0.8790768
vt 0.807299 0.8790768
vt 0.7987399 0.8790768
vt 0.8255584 0.8790768
vt 0.8255584 0.8383986
vt 0.8255584 0.8242293
vt 0.8762174 0.8234138
vt 0.896982 0.8234137
vt 0.8900564 0.8234137
vt 0.8835645 0.8234137
vt 0.855899 0.8234139
vt 0.8477587 0.8234137
vt 0.8684279 0.8234138
vt 0.8403483 0.8801183
vt 0.8403483 0.8234137
vt 0.8809841 0.8074305
vt 0.8509558 0.8074305
vt 0.8191842 0.8074305
vt 0.7865602 0.8074305
vt 0.7535361 0.8074305
vt 0.9959835 0.8074305
vt 0.9105167 0.8074305
vt 0.86266 0.8234138
vn -0.4934903 0.8024389 0.3354985
vn 0.4934903 0.8024389 0.3354984
vn -0.677891 0.4179258 0.6048154
vn 0.6778906 0.4179255 0.6048161
vn -0.6778907 0.1388487 -0.7219316
vn 0.6778904 0.1388481 -0.721932
vn -0.4934902 0.5992761 -0.6303456
vn 0.4934902 0.5992762 -0.6303455
vn 0 0.8426271 0.5384975
vn 0 0.7903859 0.6126094
vn 0 0.4766056 -0.8791173
vn 1.053842E-07 0.5542765 -0.8323326
vn 0.7004144 0.6984518 -0.1469174
vn 0.7621857 0.6334954 -0.1332539
vn 0 0.9785851 -0.2058425
vn -0.7621856 0.6334956 -0.133254
vn -0.7004145 0.6984516 -0.1469173
vn 0.705117 0.071782 0.7054484
vn 1.448536E-07 0.1324344 0.9911918
vn -0.7051172 0.07178193 0.7054482
vn -0.9972261 -0.07283733 0.01532121
vn -0.7051171 -0.2185045 -0.6745856
vn 1.207113E-07 -0.2781091 -0.9605495
vn 0.7051169 -0.2185045 -0.6745858
vn 0.9972261 -0.07283737 0.0153212
vn -0.4904562 0.8058792 0.3316797
vn -1.923138E-07 0.8468109 0.5318941
vn -0.4878953 0.6079015 -0.6264295
vn -1.272799E-07 0.5666522 -0.823957
vn -0.6922446 0.7062103 -0.1485408
vn 0.4878952 0.607902 -0.6264293
vn 0.6922441 0.7062108 -0.1485408
vn 0.4904558 0.8058796 0.3316793
vn -0.2732304 -0.8157012 0.5098792
vn -5.822255E-05 -0.8204545 0.5717118
vn -0.4747472 -0.8215489 -0.3157094
vn -0.0009077076 -0.9748324 -0.2229375
vn -0.5368903 -0.8297979 0.152264
vn 0.4764586 -0.8202177 -0.3165916
vn 0.534594 -0.8311028 0.1532228
vn 0.2820925 -0.8152314 0.5057881
vn -0.0007415003 -0.9890493 0.1475836
vn 0.07131491 -0.9554685 0.2863461
vn 0.0212732 -0.9747564 0.2222556
vn -0.004213542 -0.9819651 0.1890153
vn 0.01309015 -0.9860902 0.1656948
vn -0.01763786 -0.9753009 0.2201747
vn -0.0135258 -0.9855978 0.1685645
vn -0.04586326 -0.958864 0.2801364
vn 0 0.01014405 0.9999486
vn -0.693212 -0.05035017 0.7189729
vn -0.9806229 -0.1917097 0.04032564
vn -0.6932119 -0.3357352 -0.6377611
vn 0 -0.3935637 -0.9192974
vn 0.6932117 -0.3357355 -0.6377611
vn 0.9806228 -0.1917102 0.0403257
vn 0.6932119 -0.05035035 0.718973
vn -0.03682618 -0.9850273 0.1684193
vn 0.0366997 -0.9855595 0.1653044
vn 0.04284855 -0.9718148 0.231819
vn -0.04060625 -0.9708901 0.2360584
vn -0.03873394 -0.9852934 0.1664228
vn -0.02332872 -0.9770322 0.211811
vn 0.02134282 -0.9773201 0.2106891
vn 0.03199659 -0.985366 0.1674216
vn 0.009641455 -0.9701671 0.2422456
vn 0.00935279 -0.9674224 0.2529947
vn 1.053842E-07 0.5542765 -0.8323326
vn 1.207113E-07 -0.2781091 -0.9605495
vn 1.448536E-07 0.1324344 0.9911918
vn 0.705117 0.071782 0.7054484
vn -0.7051172 0.07178193 0.7054482
vn -0.9972261 -0.07283733 0.01532121
vn -0.7051171 -0.2185045 -0.6745856
vn 1.207113E-07 -0.2781091 -0.9605495
vn 0.7051169 -0.2185045 -0.6745858
vn 0 -0.3935637 -0.9192974
vn 1.207113E-07 -0.2781091 -0.9605495
vn 0.9972261 -0.07283737 0.0153212
vn 0 0.8426271 0.5384975
vn -0.4934903 0.8024389 0.3354985
vn -0.4934902 0.5992761 -0.6303456
vn 1.053842E-07 0.5542765 -0.8323326
vn -0.7004145 0.6984516 -0.1469173
vn 0.4934902 0.5992762 -0.6303455
vn 0.7004144 0.6984518 -0.1469174
vn 0.4934903 0.8024389 0.3354984
vn 1.053842E-07 0.5542765 -0.8323326
vn -1.272799E-07 0.5666522 -0.823957
vn -0.0009077076 -0.9748324 -0.2229375
vn -0.2732304 -0.8157012 0.5098792
vn -0.0009077076 -0.9748324 -0.2229375
vn -0.4747472 -0.8215489 -0.3157094
vn -0.5368903 -0.8297979 0.152264
vn 0.534594 -0.8311028 0.1532228
vn 0.4764586 -0.8202177 -0.3165916
vn -5.822255E-05 -0.8204545 0.5717118
vn -0.004213542 -0.9819651 0.1890153
vn -0.0009077076 -0.9748324 -0.2229375
vn 0 0.7903859 0.6126094
vn -0.677891 0.4179258 0.6048154
vn -0.7621856 0.6334956 -0.133254
vn -0.6778907 0.1388487 -0.7219316
vn 0 0.4766056 -0.8791173
vn 0 0.4766056 -0.8791173
vn 0.6778906 0.4179255 0.6048161
vn 0.2820925 -0.8152314 0.5057881
g topHat_geo_0
f 24/24/24 8/8/8 68/68/68
f 13/13/13 8/8/8 24/24/24
f 25/25/25 13/13/13 24/24/24
f 2/2/2 13/13/13 25/25/25
f 18/18/18 2/2/2 25/25/25
f 9/9/9 2/2/2 18/18/18
f 19/19/19 9/9/9 18/18/18
f 1/1/1 9/9/9 19/19/19
f 20/20/20 1/1/1 19/19/19
f 17/17/17 1/1/1 20/20/20
f 21/21/21 17/17/17 20/20/20
f 7/7/7 17/17/17 21/21/21
f 22/22/22 7/7/7 21/21/21
f 12/12/12 7/7/7 22/22/22
f 23/23/23 12/12/12 22/22/22
f 24/24/24 68/68/68 69/69/69
f 15/15/15 4/4/4 14/14/14
f 11/11/11 15/15/15 14/14/14
f 16/16/16 15/15/15 11/11/11
f 5/5/5 16/16/16 11/11/11
f 53/53/53 54/54/54 75/75/75
f 74/74/74 53/53/53 75/75/75
f 52/52/52 53/53/53 74/74/74
f 73/73/73 52/52/52 74/74/74
f 51/51/51 52/52/52 73/73/73
f 72/72/72 51/51/51 73/73/73
f 50/50/50 51/51/51 72/72/72
f 70/70/70 50/50/50 72/72/72
f 57/57/57 50/50/50 70/70/70
f 71/71/71 57/57/57 70/70/70
f 56/56/56 57/57/57 71/71/71
f 79/79/79 56/56/56 71/71/71
f 55/55/55 56/56/56 79/79/79
f 76/76/76 55/55/55 79/79/79
f 77/77/77 55/55/55 76/76/76
f 78/78/78 77/77/77 76/76/76
f 31/31/31 89/89/89 88/88/88
f 85/85/85 31/31/31 88/88/88
f 32/32/32 31/31/31 85/85/85
f 86/86/86 32/32/32 85/85/85
f 33/33/33 32/32/32 86/86/86
f 87/87/87 33/33/33 86/86/86
f 27/27/27 33/33/33 87/87/87
f 80/80/80 27/27/27 87/87/87
f 26/26/26 27/27/27 80/80/80
f 81/81/81 26/26/26 80/80/80
f 30/30/30 26/26/26 81/81/81
f 84/84/84 30/30/30 81/81/81
f 28/28/28 30/30/30 84/84/84
f 82/82/82 28/28/28 84/84/84
f 29/29/29 28/28/28 82/82/82
f 83/83/83 29/29/29 82/82/82
f 94/94/94 62/62/62 67/67/67
f 46/46/46 62/62/62 94/94/94
f 93/93/93 46/46/46 94/94/94
f 44/44/44 46/46/46 93/93/93
f 92/92/92 44/44/44 93/93/93
f 63/63/63 44/44/44 92/92/92
f 45/45/45 63/63/63 92/92/92
f 95/95/95 65/65/65 48/48/48
f 47/47/47 95/95/95 48/48/48
f 96/96/96 95/95/95 47/47/47
f 64/64/64 96/96/96 47/47/47
f 99/99/99 96/96/96 64/64/64
f 98/98/98 99/99/99 64/64/64
f 55/55/55 77/77/77 105/105/105
f 6/6/6 55/55/55 105/105/105
f 56/56/56 55/55/55 6/6/6
f 14/14/14 56/56/56 6/6/6
f 57/57/57 56/56/56 14/14/14
f 106/106/106 57/57/57 14/14/14
f 50/50/50 57/57/57 106/106/106
f 100/100/100 50/50/50 106/106/106
f 51/51/51 50/50/50 100/100/100
f 101/101/101 51/51/51 100/100/100
f 52/52/52 51/51/51 101/101/101
f 102/102/102 52/52/52 101/101/101
f 53/53/53 52/52/52 102/102/102
f 103/103/103 53/53/53 102/102/102
f 54/54/54 53/53/53 103/103/103
f 104/104/104 54/54/54 103/103/103
f 15/15/15 10/10/10 4/4/4
f 3/3/3 10/10/10 15/15/15
f 16/16/16 3/3/3 15/15/15
f 6/6/6 11/11/11 14/14/14
f 31/31/31 39/39/39 90/90/90
f 40/40/40 39/39/39 31/31/31
f 32/32/32 40/40/40 31/31/31
f 41/41/41 40/40/40 32/32/32
f 33/33/33 41/41/41 32/32/32
f 35/35/35 41/41/41 33/33/33
f 27/27/27 35/35/35 33/33/33
f 34/34/34 35/35/35 27/27/27
f 26/26/26 34/34/34 27/27/27
f 38/38/38 34/34/34 26/26/26
f 30/30/30 38/38/38 26/26/26
f 36/36/36 38/38/38 30/30/30
f 28/28/28 36/36/36 30/30/30
f 37/37/37 36/36/36 28/28/28
f 29/29/29 37/37/37 28/28/28
f 89/89/89 31/31/31 90/90/90
f 97/97/97 42/42/42 58/58/58
f 59/59/59 42/42/42 97/97/97
f 91/91/91 59/59/59 97/97/97
f 60/60/60 59/59/59 91/91/91
f 43/43/43 60/60/60 91/91/91
f 61/61/61 97/97/97 58/58/58
f 107/107/107 97/97/97 61/61/61
f 49/49/49 107/107/107 61/61/61
f 66/66/66 107/107/107 49/49/49
f 107/107/107 65/65/65 95/95/95
f 66/66/66 65/65/65 107/107/107
f 67/67/67 91/91/91 94/94/94
f 43/43/43 91/91/91 67/67/67
