g trashmenRecords_geo
v -0.07223495 0.239017 0.3960289
v -0.07223495 0.4354376 0.3960289
v 0.07223495 0.4354376 0.3960289
v 0.07223495 0.239017 0.3960289
v -0.1368857 0.06354763 0.3960289
v -0.1368857 0.2368102 0.3960289
v 0.1368857 0.2368102 0.3960289
v 0.1368857 0.06354763 0.3960289
v 0.3351472 0.1597308 0.3379172
v 0.3351472 0.4672982 0.3379172
v 0.3351472 0.4672982 -0.3379171
v 0.3351472 0.1597308 -0.3379171
v 0.07223495 0.239017 -0.3960289
v 0.07223495 0.4354376 -0.3960289
v -0.07223495 0.4354376 -0.3960289
v -0.07223495 0.239017 -0.3960289
v 0.1368857 0.06354763 -0.3960289
v 0.1368857 0.2368102 -0.3960289
v -0.1368857 0.2368102 -0.3960289
v -0.1368857 0.06354763 -0.3960289
v -0.06819294 0.548297 -0.2497803
v 0.06819294 0.548297 -0.2497803
v -0.06819294 0.4166734 -0.3943215
v 0.06819294 0.4166734 -0.3943215
v 0.06819294 0.548297 0.2497803
v -0.06819294 0.548297 0.2497803
v 0.06819294 0.4166734 0.3943215
v -0.06819294 0.4166734 0.3943215
v -0.3309597 0.1597308 -0.3379172
v -0.3309597 0.4672982 -0.3379172
v -0.3309597 0.4672982 0.3379172
v -0.3309597 0.1597308 0.3379172
v -0.06819294 0.548297 -0.3843225
v -0.06819294 0.5382981 -0.3943215
v 0.06819294 0.5382981 -0.3943215
v 0.06819294 0.548297 -0.3843225
v 0.06819294 0.548297 0.3843225
v 0.06819294 0.5382981 0.3943215
v -0.06819294 0.5382981 0.3943215
v -0.06819294 0.548297 0.3843225
vt 0.345752 0.3431355
vt 0.6301906 0.3431355
vt 0.6301906 0
vt 0.345752 0
vt 0.6233277 0.01211183
vt 0.6233277 0.3166121
vt 1 0.3166121
vt 1 0.01211183
vt 0 0.3436294
vt 0 1
vt 1 1
vt 1 0.3436294
vt 0.345752 0.3431355
vt 0.6301906 0.3431355
vt 0.6301906 0
vt 0.345752 0
vt 0.6233277 0.01211183
vt 0.6233277 0.3166121
vt 1 0.3166121
vt 1 0.01211183
vt 0.009439891 0.3038645
vt 0.009439886 0.01232421
vt 0.340226 0.3038646
vt 0.3402261 0.01232421
vt 0.009439891 0.3038645
vt 0.009439886 0.01232421
vt 0.340226 0.3038646
vt 0.3402261 0.01232421
vt 0 0.3436294
vt 0 1
vt 1 1
vt 1 0.3436294
vt 0.1633915 0.3038645
vt 0.1873973 0.3038645
vt 0.1873973 0.01232416
vt 0.1633915 0.01232416
vt 0.1633915 0.3038645
vt 0.1873973 0.3038645
vt 0.1873973 0.01232416
vt 0.1633915 0.01232416
vn -2.150877E-07 0 1
vn -2.150877E-07 0 1
vn -2.150877E-07 0 1
vn -2.150877E-07 0 1
vn -1.286729E-07 0 1
vn -1.286729E-07 0 1
vn -1.286729E-07 0 1
vn -1.286729E-07 0 1
vn 1 0 0
vn 1 0 0
vn 1 0 0
vn 1 0 0
vn 2.150877E-07 0 -1
vn 2.150877E-07 0 -1
vn 2.150877E-07 0 -1
vn 2.150877E-07 0 -1
vn 1.286729E-07 0 -1
vn 1.286729E-07 0 -1
vn 1.286729E-07 0 -1
vn 1.286729E-07 0 -1
vn 0 1 0
vn 0 1 0
vn 0 0 -1
vn 0 0 -1
vn 0 1 0
vn 0 1 0
vn 0 0 1
vn 0 0 1
vn -1 0 0
vn -1 0 0
vn -1 0 0
vn -1 0 0
vn 0 0.9238793 -0.382684
vn 0 0.3826829 -0.9238797
vn 0 0.3826829 -0.9238797
vn 0 0.9238793 -0.382684
vn 0 0.9238793 0.382684
vn 0 0.3826829 0.9238797
vn 0 0.3826829 0.9238797
vn 0 0.9238793 0.382684
g trashmenRecords_geo_0
f 3/3/3 1/1/1 4/4/4
f 2/2/2 1/1/1 3/3/3
f 7/7/7 5/5/5 8/8/8
f 6/6/6 5/5/5 7/7/7
f 11/11/11 9/9/9 12/12/12
f 10/10/10 9/9/9 11/11/11
f 15/15/15 13/13/13 16/16/16
f 14/14/14 13/13/13 15/15/15
f 19/19/19 17/17/17 20/20/20
f 18/18/18 17/17/17 19/19/19
f 36/36/36 21/21/21 22/22/22
f 33/33/33 21/21/21 36/36/36
f 34/34/34 33/33/33 36/36/36
f 34/34/34 24/24/24 23/23/23
f 35/35/35 24/24/24 34/34/34
f 36/36/36 35/35/35 34/34/34
f 40/40/40 25/25/25 26/26/26
f 37/37/37 25/25/25 40/40/40
f 38/38/38 37/37/37 40/40/40
f 38/38/38 28/28/28 27/27/27
f 39/39/39 28/28/28 38/38/38
f 40/40/40 39/39/39 38/38/38
f 31/31/31 29/29/29 32/32/32
f 30/30/30 29/29/29 31/31/31
