g weeds_geo
v -0.518477 0.6016225 1.45885
v -0.9650547 0.5676737 1.419939
v -1.325294 0.5237787 0.9723043
v -1.336924 0.5237787 0.639281
v -1.239482 0.4383005 -1.208234
v -1.355565 0.5559981 -0.8443373
v -0.07074878 0.5334179 -1.141268
v -0.4729035 0.5028461 -1.176309
v 1.213486 0.553053 0.8930571
v 1.187702 0.4736676 0.4969208
v 0.7808552 0.5255647 1.464586
v 0.3838156 0.4953817 1.429991
v -0.4865651 0.2382247 1.409656
v -0.936124 0.2382247 1.37534
v -1.370494 0.2382247 0.9738826
v -1.382123 0.2382247 0.6408594
v -1.261323 0.2382247 -1.150489
v -1.390254 0.2382247 -0.7526234
v -0.04482628 0.2382247 -1.18123
v -0.4496657 0.2382247 -1.212132
v 1.248797 0.2382247 0.9538499
v 1.214109 0.2382247 0.5423843
v 0.8060881 0.2382247 1.425687
v 0.4063979 0.2382247 1.395178
vt 0.02529529 0.9605002
vt 0.4742452 0.9605002
vt 0.02529529 0.9605002
vt 0.4742452 0.9605002
vt 0.4773291 -0.1058623
vt 0.4773292 0.7076813
vt 0.02529529 0.9605002
vt 0.4742452 0.9605002
vt 0.02529529 0.9605002
vt 0.4742452 0.9605002
vt 0.5573186 0.9605002
vt 1.006269 0.9605002
vt 0.02529529 0.4105337
vt 0.4742452 0.4619115
vt 0.02529529 0.3777497
vt 0.4742452 0.3777497
vt 0.6715057 -0.1058623
vt 0.7857329 0.7076813
vt 0.02529529 0.4644059
vt 0.4742452 0.515784
vt 0.02529529 0.425299
vt 0.4742452 0.5602522
vt 0.5573186 0.4713828
vt 1.006269 0.5227611
vn 0.07535768 0.1402647 -0.9872421
vn 0.07535768 0.1402647 -0.9872421
vn 0.9870867 -0.1564339 -0.03447044
vn 0.9870867 -0.1564339 -0.03447044
vn -0.9511926 0.01487338 -0.3082392
vn -0.9511926 0.01487338 -0.3082392
vn 0.07535736 0.1402644 -0.9872422
vn 0.07535736 0.1402644 -0.9872422
vn 0.9919482 0.09510798 -0.08362477
vn 0.9919482 0.09510798 -0.08362477
vn 0.07535735 0.1402642 -0.9872422
vn 0.07535735 0.1402642 -0.9872422
vn 0.07535768 0.1402647 -0.9872421
vn 0.07535768 0.1402647 -0.9872421
vn 0.9870867 -0.1564339 -0.03447044
vn 0.9870867 -0.1564339 -0.03447044
vn -0.9511926 0.01487338 -0.3082392
vn -0.9511926 0.01487338 -0.3082392
vn 0.07535736 0.1402644 -0.9872422
vn 0.07535736 0.1402644 -0.9872422
vn 0.9919482 0.09510798 -0.08362477
vn 0.9919482 0.09510798 -0.08362477
vn 0.07535735 0.1402642 -0.9872422
vn 0.07535735 0.1402642 -0.9872422
g weeds_geo_0
f 2/2/2 13/13/13 14/14/14
f 1/1/1 13/13/13 2/2/2
f 4/4/4 15/15/15 16/16/16
f 3/3/3 15/15/15 4/4/4
f 6/6/6 17/17/17 18/18/18
f 5/5/5 17/17/17 6/6/6
f 8/8/8 19/19/19 20/20/20
f 7/7/7 19/19/19 8/8/8
f 10/10/10 21/21/21 22/22/22
f 9/9/9 21/21/21 10/10/10
f 12/12/12 23/23/23 24/24/24
f 11/11/11 23/23/23 12/12/12
