g whiteFacePaint_mdl
v 0.01224806 0 -0.03769524
v -0.03206528 0 -0.02329693
v -0.03206528 0 0.02329693
v 0.01224806 0 0.03769524
v 0.03963516 0 0
v 0.01224806 0.1072063 -0.03769524
v -0.03206528 0.1072063 -0.02329693
v -0.03206528 0.1072063 0.02329693
v 0.01224806 0.1072063 0.03769524
v 0.03963516 0.1072063 0
v 1.300283E-07 0 0
v 0.008386974 0.1072063 -0.02049732
v -0.01570911 0.1072063 -0.01266806
v -0.01570911 0.1072063 0.01266806
v 0.008386974 0.1072063 0.02049732
v 0.02327923 0.1072063 0
v 0.008386974 0.1666412 -0.02049732
v -0.01570911 0.1666412 -0.01266806
v 0.001727119 0.1666412 0
v -0.01570911 0.1666412 0.01266806
v 0.008386974 0.1666412 0.02049732
v 0.02327923 0.1666412 0
v 0.01224806 0.0810772 0.03769524
v -0.03206528 0.0810772 0.02329693
v -0.03206528 0.0810772 -0.02329693
v 0.01224806 0.0810772 -0.03769524
v 0.03963516 0.0810772 0
v -0.03206528 0 -0.02329693
v 0.01224806 0 -0.03769524
v -0.03206528 0 0.02329693
v 0.01224806 0 0.03769524
v 0.03963516 0 0
v 0.008386974 0.1072063 -0.02049732
v -0.01570911 0.1666412 -0.01266806
v -0.01570911 0.1072063 -0.01266806
v 0.008386974 0.1666412 -0.02049732
v -0.01570911 0.1666412 0.01266806
v -0.01570911 0.1072063 0.01266806
v 0.008386974 0.1666412 0.02049732
v 0.008386974 0.1072063 0.02049732
v 0.02327923 0.1666412 0
v 0.02327923 0.1072063 0
v -0.03206528 0.0810772 0.02329693
v 0.01224806 0.0810772 0.03769524
v -0.03206528 0.0810772 -0.02329693
v 0.01224806 0.0810772 -0.03769524
v 0.03963516 0.0810772 0
vt 0.9754131 0.5940571
vt 0.9754131 0.5940571
vt 0.9754131 0.5940571
vt 0.9754131 0.5940571
vt 0.9754131 0.5940571
vt 0.4520296 0.3478891
vt 0.4520296 0.3478891
vt 0.4520296 0.3478891
vt 0.4520296 0.3478891
vt 0.4520296 0.3478891
vt 0.9765568 0.5940571
vt 0.4520296 0.3478891
vt 0.4520296 0.3478891
vt 0.4520296 0.3478891
vt 0.4520296 0.3478891
vt 0.4520296 0.3478891
vt 0.0516075 0.9952654
vt 0.05160749 0.9952654
vt 0.05160749 0.9952654
vt 0.05160749 0.9952654
vt 0.05160749 0.9952654
vt 0.05160749 0.9952654
vt 0.9754131 0.5940571
vt 0.9754131 0.5940571
vt 0.9754131 0.5940571
vt 0.9754131 0.5940571
vt 0.9754131 0.5940571
vt 0.9765568 0.5940571
vt 0.9765568 0.5940571
vt 0.9765568 0.5940571
vt 0.9765568 0.5940571
vt 0.9765568 0.5940571
vt 0.06639183 0.9924079
vt 0.06639183 0.9924077
vt 0.06639183 0.9924077
vt 0.06639183 0.9924079
vt 0.06639189 0.9924077
vt 0.06639189 0.9924077
vt 0.06639183 0.9924078
vt 0.06639183 0.9924078
vt 0.06639183 0.9924077
vt 0.06639183 0.9924077
vt 0.4520296 0.3478891
vt 0.4520296 0.3478891
vt 0.4520296 0.3478891
vt 0.4520296 0.3478891
vt 0.4520296 0.3478891
vn 0.1943596 -0.7774377 -0.5981763
vn -0.5088396 -0.7774374 -0.3696934
vn -0.5088396 -0.7774374 0.3696934
vn 0.1943596 -0.7774377 0.5981763
vn 0.6289607 -0.7774372 0
vn 0.1943595 0.7774379 -0.5981762
vn -0.5088396 0.7774374 -0.3696934
vn -0.5088396 0.7774374 0.3696935
vn 0.1943595 0.7774377 0.5981763
vn 0.6289607 0.7774372 0
vn 0 -1 0
vn 0.1943592 0.7774372 -0.5981772
vn -0.5088391 0.7774376 -0.3696938
vn -0.5088391 0.7774376 0.3696938
vn 0.1943592 0.7774372 0.5981773
vn 0.6289595 0.777438 0
vn 0.1943591 0.7774369 -0.5981777
vn -0.5088391 0.7774376 -0.3696937
vn 0 1 -1.727043E-07
vn -0.5088391 0.7774376 0.3696937
vn 0.1943591 0.777437 0.5981774
vn 0.6289595 0.777438 -3.243724E-07
vn 0.3090174 0 0.9510564
vn -0.8090172 0 0.587785
vn -0.8090172 0 -0.587785
vn 0.3090174 0 -0.9510564
vn 1 0 0
vn -0.5088396 -0.7774374 -0.3696934
vn 0.1943596 -0.7774377 -0.5981763
vn -0.5088396 -0.7774374 0.3696934
vn 0.1943596 -0.7774377 0.5981763
vn 0.6289607 -0.7774372 0
vn 0.1943592 0.7774372 -0.5981772
vn -0.5088391 0.7774376 -0.3696937
vn -0.5088391 0.7774376 -0.3696938
vn 0.1943591 0.7774369 -0.5981777
vn -0.5088391 0.7774376 0.3696937
vn -0.5088391 0.7774376 0.3696938
vn 0.1943591 0.777437 0.5981774
vn 0.1943592 0.7774372 0.5981773
vn 0.6289595 0.777438 -3.243724E-07
vn 0.6289595 0.777438 0
vn -0.8090172 0 0.587785
vn 0.3090174 0 0.9510564
vn -0.8090172 0 -0.587785
vn 0.3090174 0 -0.9510564
vn 1 0 0
g whiteFacePaint_mdl_0
f 26/26/26 1/1/1 25/25/25
f 5/5/5 1/1/1 26/26/26
f 27/27/27 5/5/5 26/26/26
f 4/4/4 5/5/5 27/27/27
f 23/23/23 4/4/4 27/27/27
f 3/3/3 4/4/4 23/23/23
f 24/24/24 3/3/3 23/23/23
f 2/2/2 3/3/3 24/24/24
f 25/25/25 2/2/2 24/24/24
f 1/1/1 2/2/2 25/25/25
f 11/11/11 29/29/29 32/32/32
f 28/28/28 29/29/29 11/11/11
f 30/30/30 28/28/28 11/11/11
f 11/11/11 31/31/31 30/30/30
f 32/32/32 31/31/31 11/11/11
f 19/19/19 18/18/18 20/20/20
f 17/17/17 18/18/18 19/19/19
f 22/22/22 17/17/17 19/19/19
f 19/19/19 21/21/21 22/22/22
f 20/20/20 21/21/21 19/19/19
f 7/7/7 13/13/13 6/6/6
f 14/14/14 13/13/13 7/7/7
f 8/8/8 14/14/14 7/7/7
f 15/15/15 14/14/14 8/8/8
f 9/9/9 15/15/15 8/8/8
f 16/16/16 15/15/15 9/9/9
f 10/10/10 16/16/16 9/9/9
f 12/12/12 16/16/16 10/10/10
f 6/6/6 12/12/12 10/10/10
f 13/13/13 12/12/12 6/6/6
f 36/36/36 33/33/33 34/34/34
f 42/42/42 33/33/33 36/36/36
f 41/41/41 42/42/42 36/36/36
f 40/40/40 42/42/42 41/41/41
f 39/39/39 40/40/40 41/41/41
f 38/38/38 40/40/40 39/39/39
f 37/37/37 38/38/38 39/39/39
f 35/35/35 38/38/38 37/37/37
f 34/34/34 35/35/35 37/37/37
f 33/33/33 35/35/35 34/34/34
f 8/8/8 43/43/43 9/9/9
f 45/45/45 43/43/43 8/8/8
f 7/7/7 45/45/45 8/8/8
f 46/46/46 45/45/45 7/7/7
f 6/6/6 46/46/46 7/7/7
f 47/47/47 46/46/46 6/6/6
f 10/10/10 47/47/47 6/6/6
f 44/44/44 47/47/47 10/10/10
f 9/9/9 44/44/44 10/10/10
f 43/43/43 44/44/44 9/9/9
