g wpn_slingShot_geo
v 5.490516E-09 0.2090357 -0.02143623
v -0.01521034 0.1897808 -0.02143623
v -0.03042068 0.1764644 -0.0004903984
v -0.01521034 0.1897808 0.02045544
v 5.642941E-10 0.2090357 0.02045544
v 3.154949E-10 0.2260571 -0.000490396
v -0.1863149 0.3822379 -0.01676859
v -0.199606 0.3689468 -0.0004903984
v -0.1863149 0.3822379 0.01578779
v -0.1730238 0.3955289 -0.000490396
v -0.1863149 0.3822379 -0.000490396
v 5.86685E-09 -0.1145563 -0.01829321
v -0.02055692 -0.1145563 -0.0004903984
v 0 -0.1145563 0.01731241
v 0.02055691 -0.1145563 -0.000490396
v 0.01521036 0.1897808 -0.02143623
v 0.01521034 0.1897808 0.02045544
v 0.03042068 0.1764644 -0.000490396
v 1.629681E-09 -0.1145563 -0.000490396
v 0.1863149 0.3822379 -0.01676859
v 0.1730238 0.3955289 -0.0004903984
v 0.1863149 0.3822379 0.01578779
v 0.199606 0.3689468 -0.000490396
v 0.1863149 0.3822379 -0.000490396
v 0.1574331 0.3159544 -0.0006363856
v 0.1376729 0.3357145 0.02520655
v 0.1775179 0.3407592 -0.0003444087
v 0.1603242 0.3579529 0.02186895
v 0.1603242 0.3579529 -0.02284979
v 0.1458969 0.3723801 -0.0006363856
v 0.1376729 0.3357145 -0.02618734
v 0.1210921 0.3522953 -0.0003444481
v -0.1574331 0.3159544 -0.0006363856
v -0.1376729 0.3357145 0.02520655
v -0.1775178 0.3407592 -0.0003444087
v -0.1603242 0.3579529 0.02186895
v -0.1603241 0.3579529 -0.02284979
v -0.1458969 0.3723801 -0.0006363856
v -0.1376729 0.3357145 -0.02618734
v -0.1210921 0.3522953 -0.0003444481
v -0.1863149 0.3822379 -0.01676859
v -0.199606 0.3689468 -0.0004903984
v -0.1863149 0.3822379 0.01578779
v -0.1730238 0.3955289 -0.000490396
v -0.02055692 -0.1145563 -0.0004903984
v 5.86685E-09 -0.1145563 -0.01829321
v 0 -0.1145563 0.01731241
v 0.02055691 -0.1145563 -0.000490396
v 0.1863149 0.3822379 -0.01676859
v 0.1730238 0.3955289 -0.0004903984
v 0.1863149 0.3822379 0.01578779
v 0.199606 0.3689468 -0.000490396
vt 0.1960892 0.7969075
vt 0.1960892 0.7969075
vt 0.1960892 0.7969075
vt 0.1960892 0.7969075
vt 0.1960892 0.7969075
vt 0.1960892 0.7969075
vt 0.1960892 0.7969075
vt 0.1960892 0.7969075
vt 0.1960892 0.7969075
vt 0.1960892 0.7969075
vt 0.705866 0.7268757
vt 0.1960892 0.7969075
vt 0.1960892 0.7969075
vt 0.1960892 0.7969075
vt 0.1960892 0.7969075
vt 0.1960892 0.7969075
vt 0.1960892 0.7969075
vt 0.1960892 0.7969075
vt 0.7691144 0.7400424
vt 0.1960892 0.7969075
vt 0.1960892 0.7969075
vt 0.1960892 0.7969075
vt 0.1960892 0.7969075
vt 0.7058662 0.7268757
vt 0.2337342 0.2926782
vt 0.2337342 0.2926781
vt 0.2337342 0.2926782
vt 0.2337342 0.2926781
vt 0.2337342 0.2926782
vt 0.2337342 0.2926782
vt 0.2337342 0.2926781
vt 0.2337342 0.2926782
vt 0.2337341 0.2926782
vt 0.2337341 0.2926781
vt 0.2337341 0.2926782
vt 0.2337341 0.2926781
vt 0.2337341 0.2926782
vt 0.2337341 0.2926782
vt 0.2337341 0.2926781
vt 0.2337341 0.2926782
vt 0.705866 0.7268757
vt 0.7058661 0.7268757
vt 0.705866 0.7268757
vt 0.7058661 0.7268757
vt 0.7691144 0.7400424
vt 0.7691144 0.7400424
vt 0.7691144 0.7400424
vt 0.7691144 0.7400424
vt 0.7058662 0.7268757
vt 0.7058662 0.7268757
vt 0.7058662 0.7268757
vt 0.7058662 0.7268757
vn 1.882174E-07 0.2572267 -0.966351
vn -0.2743201 -0.1053608 -0.9558492
vn -0.9318495 -0.3628448 -1.110545E-07
vn -0.2743202 -0.1053608 0.9558491
vn 0 0.2572268 0.966351
vn 5.333263E-07 1 -1.333316E-07
vn -0.4515141 0.4850371 -0.7489153
vn -0.9792181 0.20281 0
vn -0.451514 0.4850373 0.7489152
vn -0.1427391 0.9897603 0
vn -0.7071068 0.7071068 0
vn 1.134837E-07 -0.6596876 -0.7515399
vn -0.5758323 -0.8175678 -4.503472E-07
vn 0 -0.6596878 0.7515398
vn 0.5758324 -0.8175678 2.951397E-07
vn 0.2743203 -0.1053609 -0.9558491
vn 0.2743201 -0.1053608 0.9558491
vn 0.9318495 -0.3628449 1.332653E-07
vn 0 -1 -1.130765E-07
vn 0.4515141 0.4850373 -0.7489151
vn 0.1427395 0.9897602 -2.255766E-07
vn 0.4515139 0.4850371 0.7489154
vn 0.979218 0.2028106 1.064618E-06
vn 0.7071064 0.7071072 5.536236E-07
vn 0.2175914 -0.97604 0.0002200704
vn -0.3923051 -0.3399113 0.8547263
vn 0.9965239 -0.08330639 0.0001988867
vn 0.4232143 0.4706715 0.7741822
vn 0.4230903 0.4710644 -0.774011
vn -0.1201549 0.9927551 -0.0001719968
vn -0.3924196 -0.3394351 -0.8548629
vn -0.9652276 0.2614106 -0.0001893627
vn -0.2175913 -0.97604 0.0002198844
vn 0.3923053 -0.3399109 0.8547264
vn -0.996524 -0.08330557 0.0001989205
vn -0.423214 0.4706717 0.7741822
vn -0.4230901 0.4710642 -0.7740111
vn 0.1201549 0.9927551 -0.0001724427
vn 0.3924195 -0.3394347 -0.8548632
vn 0.9652277 0.2614103 -0.0001900647
vn -0.4515141 0.4850371 -0.7489153
vn -0.9792181 0.20281 0
vn -0.451514 0.4850373 0.7489152
vn -0.1427391 0.9897603 0
vn -0.5758323 -0.8175678 -4.503472E-07
vn 1.134837E-07 -0.6596876 -0.7515399
vn 0 -0.6596878 0.7515398
vn 0.5758324 -0.8175678 2.951397E-07
vn 0.4515141 0.4850373 -0.7489151
vn 0.1427395 0.9897602 -2.255766E-07
vn 0.4515139 0.4850371 0.7489154
vn 0.979218 0.2028106 1.064618E-06
g wpn_slingShot_geo_0
f 6/6/6 7/7/7 10/10/10
f 5/5/5 6/6/6 10/10/10
f 22/22/22 6/6/6 5/5/5
f 17/17/17 22/22/22 5/5/5
f 23/23/23 22/22/22 17/17/17
f 18/18/18 23/23/23 17/17/17
f 20/20/20 23/23/23 18/18/18
f 16/16/16 20/20/20 18/18/18
f 1/1/1 20/20/20 16/16/16
f 2/2/2 1/1/1 16/16/16
f 7/7/7 1/1/1 2/2/2
f 8/8/8 7/7/7 2/2/2
f 5/5/5 10/10/10 9/9/9
f 4/4/4 5/5/5 9/9/9
f 17/17/17 5/5/5 4/4/4
f 14/14/14 17/17/17 4/4/4
f 18/18/18 17/17/17 14/14/14
f 15/15/15 18/18/18 14/14/14
f 16/16/16 18/18/18 15/15/15
f 12/12/12 16/16/16 15/15/15
f 2/2/2 16/16/16 12/12/12
f 3/3/3 2/2/2 12/12/12
f 8/8/8 2/2/2 3/3/3
f 9/9/9 8/8/8 3/3/3
f 11/11/11 42/42/42 43/43/43
f 41/41/41 42/42/42 11/11/11
f 44/44/44 41/41/41 11/11/11
f 11/11/11 43/43/43 44/44/44
f 13/13/13 3/3/3 12/12/12
f 4/4/4 3/3/3 13/13/13
f 14/14/14 4/4/4 13/13/13
f 19/19/19 46/46/46 48/48/48
f 45/45/45 46/46/46 19/19/19
f 47/47/47 45/45/45 19/19/19
f 19/19/19 48/48/48 47/47/47
f 21/21/21 6/6/6 22/22/22
f 1/1/1 6/6/6 21/21/21
f 20/20/20 1/1/1 21/21/21
f 24/24/24 50/50/50 51/51/51
f 49/49/49 50/50/50 24/24/24
f 52/52/52 49/49/49 24/24/24
f 24/24/24 51/51/51 52/52/52
f 9/9/9 3/3/3 4/4/4
f 7/7/7 6/6/6 1/1/1
f 29/29/29 27/27/27 31/31/31
f 30/30/30 27/27/27 29/29/29
f 32/32/32 30/30/30 29/29/29
f 26/26/26 30/30/30 32/32/32
f 31/31/31 26/26/26 32/32/32
f 25/25/25 26/26/26 31/31/31
f 27/27/27 25/25/25 31/31/31
f 28/28/28 25/25/25 27/27/27
f 30/30/30 28/28/28 27/27/27
f 26/26/26 28/28/28 30/30/30
f 26/26/26 25/25/25 28/28/28
f 32/32/32 29/29/29 31/31/31
f 40/40/40 34/34/34 39/39/39
f 38/38/38 34/34/34 40/40/40
f 37/37/37 38/38/38 40/40/40
f 35/35/35 38/38/38 37/37/37
f 39/39/39 35/35/35 37/37/37
f 33/33/33 35/35/35 39/39/39
f 34/34/34 33/33/33 39/39/39
f 36/36/36 33/33/33 34/34/34
f 38/38/38 36/36/36 34/34/34
f 35/35/35 36/36/36 38/38/38
f 35/35/35 33/33/33 36/36/36
f 39/39/39 37/37/37 40/40/40
