g wpn_soupBowl_geo
v -0.0002072906 -0.0959748 -0.05541115
v -0.0002072906 -0.05541115 -0.09597477
v -0.0002072906 0 -0.1108223
v -0.0002072906 0.05541115 -0.09597477
v -0.0002072525 0.0959748 -0.05541117
v -0.0002073288 0.1108224 -6.65008E-09
v -0.0002072525 0.0959748 0.05541111
v -0.0002072716 0.05541115 0.09597477
v -0.0002072906 0 0.1108223
v -0.0002072906 -0.05541115 0.0959748
v -0.0002072906 -0.0959748 0.05541117
v -0.0002072906 -0.1108224 -1.372017E-09
v 0.01629051 -0.0975296 -0.05630878
v 0.01629051 -0.05630882 -0.09752963
v 0.01629051 0 -0.1126176
v 0.01629053 0.05630875 -0.09752963
v 0.01629051 0.0975296 -0.0563088
v 0.01629051 0.1126176 -5.363567E-09
v 0.01629051 0.0975296 0.05630878
v 0.01629053 0.05630882 0.09752963
v 0.01629051 0 0.1126176
v 0.01629051 -0.05630882 0.09752963
v 0.01629051 -0.0975296 0.0563088
v 0.01629051 -0.1126176 0
v 0.05390801 -0.1342381 -0.0775024
v 0.05390804 -0.07750244 -0.1342381
v 0.05390804 -3.814697E-08 -0.1550048
v 0.05390804 0.0775024 -0.1342381
v 0.05390801 0.1342382 -0.0775024
v 0.05390801 0.1550048 -7.382318E-09
v 0.05390801 0.1342382 0.0775024
v 0.05390804 0.07750247 0.1342381
v 0.05390805 -3.814697E-08 0.1550048
v 0.05390804 -0.0775024 0.1342381
v 0.05390801 -0.1342381 0.07750244
v 0.05390808 -0.1550049 0
v 0.101309 -0.1578064 -0.09110954
v 0.101309 -0.09110958 -0.1578064
v 0.101309 0 -0.1822191
v 0.101309 0.09110954 -0.1578064
v 0.101309 0.1578064 -0.09110954
v 0.101309 0.1822191 -8.678435E-09
v 0.101309 0.1578064 0.09110954
v 0.101309 0.09110958 0.1578064
v 0.101309 0 0.1822191
v 0.101309 -0.09110954 0.1578064
v 0.101309 -0.1578064 0.09110958
v 0.101309 -0.1822192 0
v 0.1538533 -0.1659274 -0.09579822
v 0.1538533 -0.09579826 -0.1659274
v 0.1538533 -1.430511E-08 -0.1915964
v 0.1538533 0.0957982 -0.1659274
v 0.1538533 0.1659274 -0.09579826
v 0.1538532 0.1915964 -9.125051E-09
v 0.1538533 0.1659274 0.09579822
v 0.1538533 0.09579826 0.1659274
v 0.1538533 4.768371E-09 0.1915965
v 0.1538533 -0.09579826 0.1659274
v 0.1538533 -0.1659274 0.09579826
v 0.1538533 -0.1915965 0
v 0.1538533 -0.1528136 -0.08822693
v 0.1538533 -0.08822693 -0.1528136
v 0.1538533 -2.384186E-08 -0.1764539
v 0.1538533 0.08822693 -0.1528136
v 0.1538533 0.1528136 -0.08822693
v 0.1538534 0.1764539 -7.248568E-09
v 0.1538533 0.1528136 0.08822693
v 0.1538533 0.08822693 0.1528136
v 0.1538533 -4.768371E-09 0.1764539
v 0.1538533 -0.08822693 0.1528136
v 0.1538533 -0.1528136 0.08822693
v 0.1538533 -0.1764539 1.15529E-09
v 0.1160249 -0.13681 -0.07898727
v 0.1160249 -0.07898731 -0.1368099
v 0.1160248 0 -0.1579745
v 0.1160249 0.07898727 -0.1368099
v 0.1160249 0.1368099 -0.07898731
v 0.1160249 0.1579745 -4.193166E-09
v 0.1160249 0.1368099 0.07898727
v 0.1160248 0.07898731 0.13681
v 0.1160249 0 0.1579746
v 0.1160249 -0.07898731 0.13681
v 0.1160249 -0.13681 0.07898731
v 0.1160249 -0.1579746 3.330586E-09
v 0.01629051 -0.0975296 -0.05630878
v 0.01629051 -0.05630882 -0.09752963
v 0.01629051 0 -0.1126176
v 0.01629051 0 -0.1126176
v 0.01629053 0.05630875 -0.09752963
v 0.05390804 -3.814697E-08 -0.1550048
v 0.01629051 0.0975296 -0.0563088
v 0.01629051 0.1126176 -5.363567E-09
v 0.01629051 0.0975296 0.05630878
v 0.01629053 0.05630882 0.09752963
v 0.01629051 0 0.1126176
v 0.01629051 -0.05630882 0.09752963
v 0.01629051 -0.0975296 0.0563088
v 0.01629051 -0.1126176 0
v 0.101309 0 -0.1822191
v 0.1538533 -1.430511E-08 -0.1915964
v -0.0002072906 -0.05541115 -0.09597477
v -0.0002072906 0.05541115 -0.09597477
v -0.0002072525 0.0959748 -0.05541117
v -0.0002072906 0 -0.1108223
v -0.0002072906 -0.0959748 0.05541117
v -0.0002072906 0 0.1108223
v -0.0002072906 -0.05541115 0.0959748
v -0.0002072716 0.05541115 0.09597477
v 0.1538533 -0.1659274 -0.09579822
v 0.1538533 -0.09579826 -0.1659274
v 0.1538533 -1.430511E-08 -0.1915964
v 0.1538533 0.0957982 -0.1659274
v 0.1538533 0.1659274 -0.09579826
v 0.1538532 0.1915964 -9.125051E-09
v 0.1538533 0.1659274 0.09579822
v 0.1538533 0.09579826 0.1659274
v 0.1538533 4.768371E-09 0.1915965
v 0.1538533 -0.09579826 0.1659274
v 0.1538533 -0.1659274 0.09579826
v 0.1538533 -0.1915965 0
v 0.1538533 -0.1528136 -0.08822693
v 0.1538533 -0.08822693 -0.1528136
v 0.1538533 -2.384186E-08 -0.1764539
v 0.1538533 0.08822693 -0.1528136
v 0.1538533 0.1528136 -0.08822693
v 0.1538534 0.1764539 -7.248568E-09
v 0.1538533 0.1528136 0.08822693
v 0.1538533 0.08822693 0.1528136
v 0.1538533 -4.768371E-09 0.1764539
v 0.1538533 -0.08822693 0.1528136
v 0.1538533 -0.1528136 0.08822693
v 0.1538533 -0.1764539 1.15529E-09
v 0.1160249 0.1368099 -0.07898731
v 0.1160248 0 -0.1579745
v 0.1160249 -0.07898731 -0.1368099
v 0.1160249 0.07898727 -0.1368099
v 0.1160249 -0.1579746 3.330586E-09
v 0.1160249 0.1579745 -4.193166E-09
v 0.1160249 -0.13681 -0.07898727
v 0.1160249 0.1368099 0.07898727
v 0.1160249 -0.13681 0.07898731
v 0.1160249 0 0.1579746
v 0.1160248 0.07898731 0.13681
v 0.1160249 -0.07898731 0.13681
vt 0.1261838 0.1280251
vt 0.126184 0.1280251
vt 0.126184 0.1280251
vt 0.1261841 0.1280251
vt 0.1261839 0.1280251
vt 0.1261841 0.1280251
vt 0.1261841 0.1280251
vt 0.126184 0.1280251
vt 0.1261836 0.1280251
vt 0.1261836 0.1280251
vt 0.1261836 0.1280251
vt 0.1261836 0.1280251
vt 0.1261838 0.08570339
vt 0.126184 0.08570339
vt 0.126184 0.08570339
vt 0.1261841 0.08570339
vt 0.1261839 0.08570339
vt 0.1261841 0.08570339
vt 0.1261841 0.08570339
vt 0.126184 0.08570339
vt 0.1261836 0.08570339
vt 0.1261836 0.08570339
vt 0.1261836 0.08570339
vt 0.1261836 0.08570339
vt 2.071232 0.292529
vt 2.464025 0.292529
vt 2.856817 0.292529
vt -1.463901 0.292529
vt -1.071109 0.292529
vt -0.6783162 0.292529
vt -0.2855236 0.292529
vt 0.1072688 0.292529
vt 0.5000615 0.292529
vt 0.8928541 0.292529
vt 1.285647 0.292529
vt 1.678439 0.292529
vt 2.071232 0.5945
vt 2.464025 0.5945
vt 2.856817 0.5945
vt -1.463901 0.5945
vt -1.071109 0.5945
vt -0.6783162 0.5945
vt -0.2855236 0.5945
vt 0.1072689 0.5945
vt 0.5000615 0.5945
vt 0.8928541 0.5945
vt 1.285647 0.5945
vt 1.678439 0.5945
vt 2.071232 0.9292375
vt 2.464025 0.9292375
vt 2.856817 0.9292375
vt -1.463901 0.9292375
vt -1.071109 0.9292375
vt -0.6783162 0.9292375
vt -0.2855236 0.9292375
vt 0.1072689 0.9292375
vt 0.5000615 0.9292375
vt 0.8928541 0.9292375
vt 1.285647 0.9292375
vt 1.678439 0.9292375
vt 0.2427706 0.9751319
vt 0.2427704 0.9751318
vt 0.2427704 0.9751314
vt 0.2427704 0.9751318
vt 0.2427706 0.9751317
vt 0.2427704 0.9751317
vt 0.2427704 0.9751317
vt 0.2427703 0.9751318
vt 0.2427705 0.9751314
vt 0.2427703 0.9751318
vt 0.2427704 0.9751319
vt 0.2427704 0.9751319
vt 0.2071373 0.2438547
vt 0.2071373 0.2438547
vt 0.2071369 0.2438547
vt 0.2071375 0.2438547
vt 0.2071375 0.2438547
vt 0.2071373 0.2438547
vt 0.2071374 0.2438547
vt 0.2071375 0.2438547
vt 0.2071375 0.2438547
vt 0.2071374 0.2438547
vt 0.2071376 0.2438547
vt 0.2071375 0.2438547
vt 2.071232 0.03485702
vt 2.464025 0.03485702
vt 2.856817 0.03485702
vt -1.856694 0.03485702
vt -1.463901 0.03485702
vt -1.856694 0.292529
vt -1.071109 0.03485702
vt -0.6783162 0.03485702
vt -0.2855237 0.03485702
vt 0.1072688 0.03485702
vt 0.5000614 0.03485702
vt 0.8928541 0.03485702
vt 1.285647 0.03485702
vt 1.678439 0.03485702
vt -1.856694 0.5945
vt -1.856694 0.9292375
vt 0.2950657 0.02618395
vt 0.2950657 0.02618361
vt 0.2950658 0.02618408
vt 0.2950657 0.02618399
vt 0.2950658 0.02618394
vt 0.2950657 0.02618361
vt 0.2950657 0.02618404
vt 0.2950657 0.02618408
vt 0.2427706 0.9751319
vt 0.2427704 0.9751319
vt 0.2427704 0.9751314
vt 0.2427704 0.9751318
vt 0.2427706 0.9751317
vt 0.2427704 0.9751316
vt 0.2427704 0.9751317
vt 0.2427704 0.9751318
vt 0.2427706 0.9751314
vt 0.2427704 0.9751319
vt 0.2427704 0.9751319
vt 0.2427704 0.9751319
vt 0.2071373 0.6114275
vt 0.2071373 0.6114275
vt 0.2071369 0.6114275
vt 0.2071375 0.6114275
vt 0.2071375 0.6114275
vt 0.2071374 0.6114275
vt 0.2071374 0.6114275
vt 0.2071375 0.6114275
vt 0.2071375 0.6114275
vt 0.2071374 0.6114275
vt 0.2071376 0.6114275
vt 0.2071375 0.6114275
vt 0.3715985 0.5756804
vt 0.3715983 0.5756803
vt 0.3715985 0.5756803
vt 0.3715983 0.5756803
vt 0.3715979 0.5756803
vt 0.3715985 0.5756803
vt 0.3715981 0.5756804
vt 0.3715985 0.5756803
vt 0.3715981 0.5756803
vt 0.3715983 0.5756804
vt 0.3715983 0.5756804
vt 0.3715985 0.5756804
vn -0.7545493 -0.5683229 -0.3281225
vn -0.7545497 -0.328122 -0.5683228
vn -0.5326208 0 -0.846354
vn -0.5326203 0.4231779 -0.7329639
vn -0.7545487 0.5683236 -0.3281227
vn -0.7545485 0.6562443 0
vn -0.7545491 0.5683233 0.3281223
vn -0.75455 0.3281221 0.5683222
vn -0.5326213 2.203092E-07 0.8463537
vn -0.5326208 -0.4231777 0.7329636
vn -0.7545493 -0.568323 0.3281223
vn -0.7545492 -0.6562434 1.391642E-07
vn -0.462027 -0.768048 -0.4434336
vn -0.4620273 -0.4434334 -0.7680479
vn -0.4620269 0 -0.8868659
vn -0.4620269 0.4434332 -0.7680483
vn -0.4620264 0.7680482 -0.4434338
vn -0.4620258 0.8868665 0
vn -0.462027 0.7680482 0.4434332
vn -0.4620279 0.4434333 0.7680476
vn -0.4620273 0 0.8868658
vn -0.4620271 -0.4434334 0.768048
vn -0.4620267 -0.768048 0.4434336
vn -0.4620265 -0.8868662 0
vn -0.6318508 -0.6712477 -0.3875451
vn -0.6318508 -0.387545 -0.6712477
vn -0.6318507 0 -0.7750901
vn -0.6318507 0.3875448 -0.6712478
vn -0.631851 0.6712475 -0.387545
vn -0.6318508 0.77509 0
vn -0.6318508 0.6712478 0.3875448
vn -0.6318508 0.3875449 0.6712477
vn -0.6318505 -1.040697E-07 0.7750902
vn -0.6318507 -0.3875449 0.6712478
vn -0.6318508 -0.6712475 0.3875452
vn -0.6318508 -0.77509 0
vn -0.3424579 -0.8136595 -0.4697666
vn -0.3424578 -0.4697665 -0.8136597
vn -0.3424578 0 -0.9395332
vn -0.3424577 0.4697663 -0.8136598
vn -0.3424578 0.8136597 -0.4697665
vn -0.3424577 0.9395333 0
vn -0.3424576 0.8136598 0.4697663
vn -0.342458 0.4697666 0.8136597
vn -0.3424582 0 0.9395331
vn -0.3424581 -0.4697664 0.8136597
vn -0.342458 -0.8136595 0.4697667
vn -0.342458 -0.9395331 0
vn 0.6572575 -0.652694 -0.3768331
vn 0.657258 -0.3768329 -0.6526935
vn 0.6572576 1.319834E-07 -0.753666
vn 0.657257 0.3768331 -0.6526944
vn 0.6572559 0.6526955 -0.3768332
vn 0.657255 0.7536682 0
vn 0.6572562 0.6526953 0.3768329
vn 0.6572571 0.3768332 0.6526942
vn 0.6572571 0 0.7536665
vn 0.6572571 -0.376833 0.6526943
vn 0.6572574 -0.6526939 0.3768335
vn 0.6572575 -0.7536662 0
vn 0.8528386 0.4522164 0.2610874
vn 0.8528386 0.2610872 0.4522167
vn 0.8528386 0 0.5221744
vn 0.852839 -0.2610869 0.452216
vn 0.8528398 -0.4522146 0.2610868
vn 0.8528402 -0.522172 0
vn 0.8528394 -0.452215 -0.2610868
vn 0.8528386 -0.2610874 -0.4522165
vn 0.8528385 0 -0.5221748
vn 0.8528386 0.2610873 -0.4522162
vn 0.8528385 0.4522167 -0.2610872
vn 0.8528385 0.5221748 0
vn 0.8528388 0.4522163 0.2610872
vn 0.8528389 0.261087 0.4522161
vn 0.7276761 -2.305738E-07 0.6859208
vn 0.727676 -0.3429605 0.594025
vn 0.8528388 -0.4522163 0.2610872
vn 0.8528388 -0.5221744 0
vn 0.8528388 -0.4522164 -0.2610869
vn 0.8528386 -0.2610873 -0.4522165
vn 0.7276755 1.32328E-07 -0.6859216
vn 0.7276758 0.3429607 -0.5940252
vn 0.8528386 0.4522165 -0.2610873
vn 0.8528386 0.5221746 0
vn -0.462027 -0.768048 -0.4434336
vn -0.4620273 -0.4434334 -0.7680479
vn -0.4620269 0 -0.8868659
vn -0.4620269 0 -0.8868659
vn -0.4620269 0.4434332 -0.7680483
vn -0.6318507 0 -0.7750901
vn -0.4620264 0.7680482 -0.4434338
vn -0.4620258 0.8868665 0
vn -0.462027 0.7680482 0.4434332
vn -0.4620279 0.4434333 0.7680476
vn -0.4620273 0 0.8868658
vn -0.4620271 -0.4434334 0.768048
vn -0.4620267 -0.768048 0.4434336
vn -0.4620265 -0.8868662 0
vn -0.3424578 0 -0.9395332
vn 0.6572576 1.319834E-07 -0.753666
vn -0.7545497 -0.328122 -0.5683228
vn -0.5326203 0.4231779 -0.7329639
vn -0.7545487 0.5683236 -0.3281227
vn -0.5326208 0 -0.846354
vn -0.7545493 -0.568323 0.3281223
vn -0.5326213 2.203092E-07 0.8463537
vn -0.5326208 -0.4231777 0.7329636
vn -0.75455 0.3281221 0.5683222
vn 0.6572575 -0.652694 -0.3768331
vn 0.657258 -0.3768329 -0.6526935
vn 0.6572576 1.319834E-07 -0.753666
vn 0.657257 0.3768331 -0.6526944
vn 0.6572559 0.6526955 -0.3768332
vn 0.657255 0.7536682 0
vn 0.6572562 0.6526953 0.3768329
vn 0.6572571 0.3768332 0.6526942
vn 0.6572571 0 0.7536665
vn 0.6572571 -0.376833 0.6526943
vn 0.6572574 -0.6526939 0.3768335
vn 0.6572575 -0.7536662 0
vn 0.8528386 0.4522164 0.2610874
vn 0.8528386 0.2610872 0.4522167
vn 0.8528386 0 0.5221744
vn 0.852839 -0.2610869 0.452216
vn 0.8528398 -0.4522146 0.2610868
vn 0.8528402 -0.522172 0
vn 0.8528394 -0.452215 -0.2610868
vn 0.8528386 -0.2610874 -0.4522165
vn 0.8528385 0 -0.5221748
vn 0.8528386 0.2610873 -0.4522162
vn 0.8528385 0.4522167 -0.2610872
vn 0.8528385 0.5221748 0
vn 0.8528388 -0.4522163 0.2610872
vn 0.7276761 -2.305738E-07 0.6859208
vn 0.8528389 0.261087 0.4522161
vn 0.727676 -0.3429605 0.594025
vn 0.8528386 0.5221746 0
vn 0.8528388 -0.5221744 0
vn 0.8528388 0.4522163 0.2610872
vn 0.8528388 -0.4522164 -0.2610869
vn 0.8528386 0.4522165 -0.2610873
vn 0.7276755 1.32328E-07 -0.6859216
vn 0.8528386 -0.2610873 -0.4522165
vn 0.7276758 0.3429607 -0.5940252
g wpn_soupBowl_geo_0
f 28/28/28 90/90/90 88/88/88
f 89/89/89 28/28/28 88/88/88
f 29/29/29 28/28/28 89/89/89
f 91/91/91 29/29/29 89/89/89
f 30/30/30 29/29/29 91/91/91
f 92/92/92 30/30/30 91/91/91
f 31/31/31 30/30/30 92/92/92
f 93/93/93 31/31/31 92/92/92
f 32/32/32 31/31/31 93/93/93
f 94/94/94 32/32/32 93/93/93
f 33/33/33 32/32/32 94/94/94
f 95/95/95 33/33/33 94/94/94
f 34/34/34 33/33/33 95/95/95
f 96/96/96 34/34/34 95/95/95
f 35/35/35 34/34/34 96/96/96
f 97/97/97 35/35/35 96/96/96
f 36/36/36 35/35/35 97/97/97
f 98/98/98 36/36/36 97/97/97
f 25/25/25 36/36/36 98/98/98
f 85/85/85 25/25/25 98/98/98
f 26/26/26 25/25/25 85/85/85
f 86/86/86 26/26/26 85/85/85
f 27/27/27 26/26/26 86/86/86
f 87/87/87 27/27/27 86/86/86
f 38/38/38 39/39/39 51/51/51
f 50/50/50 38/38/38 51/51/51
f 37/37/37 38/38/38 50/50/50
f 49/49/49 37/37/37 50/50/50
f 48/48/48 37/37/37 49/49/49
f 60/60/60 48/48/48 49/49/49
f 47/47/47 48/48/48 60/60/60
f 59/59/59 47/47/47 60/60/60
f 46/46/46 47/47/47 59/59/59
f 58/58/58 46/46/46 59/59/59
f 45/45/45 46/46/46 58/58/58
f 57/57/57 45/45/45 58/58/58
f 44/44/44 45/45/45 57/57/57
f 56/56/56 44/44/44 57/57/57
f 43/43/43 44/44/44 56/56/56
f 55/55/55 43/43/43 56/56/56
f 42/42/42 43/43/43 55/55/55
f 54/54/54 42/42/42 55/55/55
f 41/41/41 42/42/42 54/54/54
f 53/53/53 41/41/41 54/54/54
f 40/40/40 41/41/41 53/53/53
f 52/52/52 40/40/40 53/53/53
f 99/99/99 40/40/40 52/52/52
f 100/100/100 99/99/99 52/52/52
f 102/102/102 101/101/101 103/103/103
f 104/104/104 101/101/101 102/102/102
f 106/106/106 105/105/105 107/107/107
f 108/108/108 105/105/105 106/106/106
f 133/133/133 134/134/134 136/136/136
f 135/135/135 134/134/134 133/133/133
f 138/138/138 135/135/135 133/133/133
f 139/139/139 135/135/135 138/138/138
f 137/137/137 139/139/139 138/138/138
f 141/141/141 142/142/142 144/144/144
f 143/143/143 142/142/142 141/141/141
f 137/137/137 143/143/143 141/141/141
f 140/140/140 143/143/143 137/137/137
f 138/138/138 140/140/140 137/137/137
f 2/2/2 14/14/14 1/1/1
f 15/15/15 14/14/14 2/2/2
f 3/3/3 15/15/15 2/2/2
f 16/16/16 15/15/15 3/3/3
f 4/4/4 16/16/16 3/3/3
f 17/17/17 16/16/16 4/4/4
f 5/5/5 17/17/17 4/4/4
f 18/18/18 17/17/17 5/5/5
f 6/6/6 18/18/18 5/5/5
f 19/19/19 18/18/18 6/6/6
f 7/7/7 19/19/19 6/6/6
f 20/20/20 19/19/19 7/7/7
f 8/8/8 20/20/20 7/7/7
f 21/21/21 20/20/20 8/8/8
f 9/9/9 21/21/21 8/8/8
f 22/22/22 21/21/21 9/9/9
f 10/10/10 22/22/22 9/9/9
f 23/23/23 22/22/22 10/10/10
f 11/11/11 23/23/23 10/10/10
f 24/24/24 23/23/23 11/11/11
f 12/12/12 24/24/24 11/11/11
f 13/13/13 24/24/24 12/12/12
f 1/1/1 13/13/13 12/12/12
f 14/14/14 13/13/13 1/1/1
f 40/40/40 99/99/99 90/90/90
f 28/28/28 40/40/40 90/90/90
f 41/41/41 40/40/40 28/28/28
f 29/29/29 41/41/41 28/28/28
f 42/42/42 41/41/41 29/29/29
f 30/30/30 42/42/42 29/29/29
f 43/43/43 42/42/42 30/30/30
f 31/31/31 43/43/43 30/30/30
f 44/44/44 43/43/43 31/31/31
f 32/32/32 44/44/44 31/31/31
f 45/45/45 44/44/44 32/32/32
f 33/33/33 45/45/45 32/32/32
f 46/46/46 45/45/45 33/33/33
f 34/34/34 46/46/46 33/33/33
f 47/47/47 46/46/46 34/34/34
f 35/35/35 47/47/47 34/34/34
f 48/48/48 47/47/47 35/35/35
f 36/36/36 48/48/48 35/35/35
f 37/37/37 48/48/48 36/36/36
f 25/25/25 37/37/37 36/36/36
f 38/38/38 37/37/37 25/25/25
f 26/26/26 38/38/38 25/25/25
f 39/39/39 38/38/38 26/26/26
f 27/27/27 39/39/39 26/26/26
f 7/7/7 11/11/11 8/8/8
f 12/12/12 11/11/11 7/7/7
f 6/6/6 12/12/12 7/7/7
f 1/1/1 12/12/12 6/6/6
f 5/5/5 1/1/1 6/6/6
f 2/2/2 1/1/1 5/5/5
f 61/61/61 109/109/109 62/62/62
f 120/120/120 109/109/109 61/61/61
f 72/72/72 120/120/120 61/61/61
f 119/119/119 120/120/120 72/72/72
f 71/71/71 119/119/119 72/72/72
f 118/118/118 119/119/119 71/71/71
f 70/70/70 118/118/118 71/71/71
f 117/117/117 118/118/118 70/70/70
f 69/69/69 117/117/117 70/70/70
f 116/116/116 117/117/117 69/69/69
f 68/68/68 116/116/116 69/69/69
f 115/115/115 116/116/116 68/68/68
f 67/67/67 115/115/115 68/68/68
f 114/114/114 115/115/115 67/67/67
f 66/66/66 114/114/114 67/67/67
f 113/113/113 114/114/114 66/66/66
f 65/65/65 113/113/113 66/66/66
f 112/112/112 113/113/113 65/65/65
f 64/64/64 112/112/112 65/65/65
f 111/111/111 112/112/112 64/64/64
f 63/63/63 111/111/111 64/64/64
f 110/110/110 111/111/111 63/63/63
f 62/62/62 110/110/110 63/63/63
f 109/109/109 110/110/110 62/62/62
f 73/73/73 121/121/121 74/74/74
f 132/132/132 121/121/121 73/73/73
f 84/84/84 132/132/132 73/73/73
f 131/131/131 132/132/132 84/84/84
f 83/83/83 131/131/131 84/84/84
f 130/130/130 131/131/131 83/83/83
f 82/82/82 130/130/130 83/83/83
f 129/129/129 130/130/130 82/82/82
f 81/81/81 129/129/129 82/82/82
f 128/128/128 129/129/129 81/81/81
f 80/80/80 128/128/128 81/81/81
f 127/127/127 128/128/128 80/80/80
f 79/79/79 127/127/127 80/80/80
f 126/126/126 127/127/127 79/79/79
f 78/78/78 126/126/126 79/79/79
f 125/125/125 126/126/126 78/78/78
f 77/77/77 125/125/125 78/78/78
f 124/124/124 125/125/125 77/77/77
f 76/76/76 124/124/124 77/77/77
f 123/123/123 124/124/124 76/76/76
f 75/75/75 123/123/123 76/76/76
f 122/122/122 123/123/123 75/75/75
f 74/74/74 122/122/122 75/75/75
f 121/121/121 122/122/122 74/74/74
