g wpn_keyboard_geo
v 0.2934981 -0.08729172 -0.03849433
v 0.2936031 0.5779133 -0.04173126
v 0.2971139 -0.08716476 -0.01287368
v 0.2972139 0.5780402 -0.01611061
v -0.006255302 -0.08691086 0.02981468
v -0.006155204 0.5782991 0.02657791
v -0.009866142 -0.08702804 0.004194107
v -0.009756279 0.5781721 0.0009571075
v 0.2703902 -0.04877609 -0.009299774
v 0.2704903 0.5513411 -0.01222
v 0.02057333 0.5515559 0.02294739
v 0.02046097 -0.04856125 0.02586731
v 0.2702706 -0.03498703 0.008170319
v 0.2703804 0.5377181 0.00538353
v 0.03188679 0.5379231 0.03894432
v 0.0317647 -0.03477218 0.04173119
v 0.03182575 0.3526155 0.04033774
v 0.2703292 0.3524055 0.006776886
v 0.2703585 0.3914632 0.00608016
v 0.03185993 0.3916682 0.03964104
v 0.2704585 0.3824495 -0.01139815
v 0.2704585 0.3609212 -0.01129334
v 0.02053911 0.3815462 0.02377457
v 0.0205318 0.3619124 0.02387016
v 0.2936031 0.5779133 -0.04173126
v -0.009866142 -0.08702804 0.004194107
v 0.2934981 -0.08729172 -0.03849433
v -0.009756279 0.5781721 0.0009571075
v 0.2936031 0.5779133 -0.04173126
v -0.006155204 0.5782991 0.02657791
v -0.009756279 0.5781721 0.0009571075
v 0.2972139 0.5780402 -0.01611061
v -0.009866142 -0.08702804 0.004194107
v 0.2971139 -0.08716476 -0.01287368
v 0.2934981 -0.08729172 -0.03849433
v -0.006255302 -0.08691086 0.02981468
v 0.2971139 -0.08716476 -0.01287368
v 0.2972139 0.5780402 -0.01611061
v -0.006155204 0.5782991 0.02657791
v -0.006255302 -0.08691086 0.02981468
v 0.2704903 0.5513411 -0.01222
v 0.2704903 0.5513411 -0.01222
v 0.02057333 0.5515559 0.02294739
v 0.2703804 0.5377181 0.00538353
v 0.02057333 0.5515559 0.02294739
v 0.03188679 0.5379231 0.03894432
v 0.02046097 -0.04856125 0.02586731
v 0.2702706 -0.03498703 0.008170319
v 0.2703902 -0.04877609 -0.009299774
v 0.0317647 -0.03477218 0.04173119
v 0.02053911 0.3815462 0.02377457
v 0.2703585 0.3914632 0.00608016
v 0.2704585 0.3824495 -0.01139815
v 0.03185993 0.3916682 0.03964104
v 0.03185993 0.3916682 0.03964104
v 0.2703804 0.5377181 0.00538353
v 0.2703585 0.3914632 0.00608016
v 0.03188679 0.5379231 0.03894432
v 0.2703902 -0.04877609 -0.009299774
v 0.2703292 0.3524055 0.006776886
v 0.2704585 0.3609212 -0.01129334
v 0.2702706 -0.03498703 0.008170319
v 0.0205318 0.3619124 0.02387016
v 0.0317647 -0.03477218 0.04173119
v 0.02046097 -0.04856125 0.02586731
v 0.03182575 0.3526155 0.04033774
v 0.03182575 0.3526155 0.04033774
v 0.2704585 0.3609212 -0.01129334
v 0.2703292 0.3524055 0.006776886
v 0.0205318 0.3619124 0.02387016
v 0.0205318 0.3619124 0.02387016
v 0.2704585 0.3824495 -0.01139815
v 0.2704585 0.3609212 -0.01129334
v 0.02053911 0.3815462 0.02377457
v 0.2704585 0.3824495 -0.01139815
v 0.2704585 0.3824495 -0.01139815
v 0.2704585 0.3609212 -0.01129334
v 0.02053911 0.3815462 0.02377457
v 0.0205318 0.3619124 0.02387016
v 0.02053911 0.3815462 0.02377457
vt 0.9274135 0.9470413
vt 0.9274135 0.9470413
vt 0.9274135 0.9576221
vt 0.9274135 0.9576221
vt 0.9274135 0.9700428
vt 0.9274135 0.9700429
vt 0.9274135 0.9594622
vt 0.9274135 0.9594622
vt 0.9274135 0.9361848
vt 0.9274135 0.9361848
vt 0.9274135 0.9486057
vt 0.9274135 0.9486057
vt 0.9274135 0.9734471
vt 0.9274135 0.9817389
vt 0.9274135 0.9956883
vt 0.9274135 0.985868
vt 0.9274135 0.9858681
vt 0.9274135 0.9734473
vt 0.9274135 0.9817389
vt 0.9274135 0.9941596
vt 0.9274135 0.9670179
vt 0.9274135 0.9361848
vt 0.9274135 0.9794387
vt 0.9274135 0.9486057
vt 0.9274135 0.936644
vt 0.9274135 0.9490647
vt 0.9274135 0.936644
vt 0.9274135 0.9490649
vt 0.9274135 0.9276284
vt 0.9274135 0.9506299
vt 0.9274135 0.9400492
vt 0.9274135 0.9382091
vt 0.9274135 0.9400492
vt 0.9274135 0.9382091
vt 0.9274135 0.9276284
vt 0.9274135 0.9506299
vt 0.9274135 0.9509057
vt 0.9274135 0.9509059
vt 0.9274135 0.9633266
vt 0.9274135 0.9633266
vt 0.9274135 0.9670179
vt 0.9274135 0.9685466
vt 0.9274135 0.9809675
vt 0.9274135 0.9832676
vt 0.9274135 0.9794387
vt 0.9274135 0.9941596
vt 0.9274135 0.9809675
vt 0.9274135 0.9832676
vt 0.9274135 0.9685466
vt 0.9274135 0.9956883
vt 0.9274135 0.9779676
vt 0.9274135 0.9802678
vt 0.9274135 0.9655468
vt 0.9274135 0.9926886
vt 0.9274135 0.985868
vt 0.9274135 0.9734473
vt 0.9274135 0.9734473
vt 0.9274135 0.985868
vt 0.9274135 0.9670179
vt 0.9274135 0.9817389
vt 0.9274135 0.9670179
vt 0.9274135 0.9817389
vt 0.9274135 0.9794387
vt 0.9274135 0.9941596
vt 0.9274135 0.9794387
vt 0.9274135 0.9941596
vt 0.9274135 0.9926886
vt 0.9274135 0.9655468
vt 0.9274135 0.9802678
vt 0.9274135 0.9779676
vt 0.9274135 0.9486057
vt 0.9274135 0.9361848
vt 0.9274135 0.9361848
vt 0.9274135 0.9486057
vt 0.9274135 0.9361848
vt 0.9274135 0.9361848
vt 0.9274135 0.9361848
vt 0.9274135 0.9486057
vt 0.9274135 0.9486057
vt 0.9274135 0.9486057
vn 0.4910773 -0.5805221 -0.6494899
vn 0.4912587 0.5740116 -0.655115
vn 0.4245853 -0.2974423 0.8551348
vn 0.4247017 0.3056376 0.852182
vn -0.1725562 -0.2969152 0.9391835
vn -0.172493 0.3061125 0.9362379
vn -0.6522567 -0.579618 -0.4884713
vn -0.6520624 0.5750406 -0.4941084
vn 0.4488558 -0.2539293 0.8567663
vn 0.4491042 0.2622159 0.8541359
vn -0.136337 0.2424756 0.96053
vn -0.1380537 -0.2335616 0.9624916
vn 0.5643546 -0.3583665 0.7436917
vn 0.5648257 0.3650042 0.7400973
vn -0.2461429 0.3322179 0.9105191
vn -0.2486845 -0.3245601 0.9125879
vn -0.2700371 0.3949838 0.8781046
vn 0.5787593 0.4321333 0.6915912
vn 0.5763157 -0.4153141 0.7038285
vn -0.2632506 -0.3761564 0.8883724
vn 0.7528173 0.003072771 0.6582225
vn 0.752449 0.003081485 0.6586434
vn -0.3954584 0.004528553 0.9184727
vn -0.3991549 0.004319503 0.9168733
vn 0.4912587 0.5740116 -0.655115
vn -0.6522567 -0.579618 -0.4884713
vn 0.4910773 -0.5805221 -0.6494899
vn -0.6520624 0.5750406 -0.4941084
vn 0.4912587 0.5740116 -0.655115
vn -0.172493 0.3061125 0.9362379
vn -0.6520624 0.5750406 -0.4941084
vn 0.4247017 0.3056376 0.852182
vn -0.6522567 -0.579618 -0.4884713
vn 0.4245853 -0.2974423 0.8551348
vn 0.4910773 -0.5805221 -0.6494899
vn -0.1725562 -0.2969152 0.9391835
vn 0.4245853 -0.2974423 0.8551348
vn 0.4247017 0.3056376 0.852182
vn -0.172493 0.3061125 0.9362379
vn -0.1725562 -0.2969152 0.9391835
vn 0.4491042 0.2622159 0.8541359
vn 0.4491042 0.2622159 0.8541359
vn -0.136337 0.2424756 0.96053
vn 0.5648257 0.3650042 0.7400973
vn -0.136337 0.2424756 0.96053
vn -0.2461429 0.3322179 0.9105191
vn -0.1380537 -0.2335616 0.9624916
vn 0.5643546 -0.3583665 0.7436917
vn 0.4488558 -0.2539293 0.8567663
vn -0.2486845 -0.3245601 0.9125879
vn 0.06867041 -0.8750813 0.4790795
vn 0.5763157 -0.4153141 0.7038285
vn 0.06867041 -0.8750813 0.4790795
vn -0.2632506 -0.3761564 0.8883724
vn -0.2632506 -0.3761564 0.8883724
vn 0.5648257 0.3650042 0.7400973
vn 0.5763157 -0.4153141 0.7038285
vn -0.2461429 0.3322179 0.9105191
vn 0.4488558 -0.2539293 0.8567663
vn 0.5787593 0.4321333 0.6915912
vn 0.752449 0.003081485 0.6586434
vn 0.5643546 -0.3583665 0.7436917
vn -0.3991549 0.004319503 0.9168733
vn -0.2486845 -0.3245601 0.9125879
vn -0.1380537 -0.2335616 0.9624916
vn -0.2700371 0.3949838 0.8781046
vn -0.2700371 0.3949838 0.8781046
vn 0.0642439 0.8952344 0.44094
vn 0.5787593 0.4321333 0.6915912
vn 0.0642439 0.8952344 0.44094
vn 0.1393526 0.004796472 0.9902312
vn 0.1393468 0.004797389 0.9902321
vn 0.1393468 0.004797389 0.9902321
vn 0.1393526 0.004796472 0.9902312
vn 0.7528173 0.003072771 0.6582225
vn 0.1393468 0.004797389 0.9902321
vn 0.1393468 0.004797389 0.9902321
vn -0.3954584 0.004528553 0.9184727
vn 0.1393526 0.004796472 0.9902312
vn 0.1393526 0.004796472 0.9902312
g wpn_keyboard_geo_0
f 4/4/4 1/1/1 2/2/2
f 3/3/3 1/1/1 4/4/4
f 13/13/13 17/17/17 16/16/16
f 18/18/18 17/17/17 13/13/13
f 8/8/8 5/5/5 6/6/6
f 7/7/7 5/5/5 8/8/8
f 26/26/26 25/25/25 27/27/27
f 28/28/28 25/25/25 26/26/26
f 30/30/30 29/29/29 31/31/31
f 32/32/32 29/29/29 30/30/30
f 34/34/34 33/33/33 35/35/35
f 36/36/36 33/33/33 34/34/34
f 40/40/40 12/12/12 24/24/24
f 9/9/9 12/12/12 40/40/40
f 37/37/37 9/9/9 40/40/40
f 22/22/22 9/9/9 37/37/37
f 14/14/14 21/21/21 41/41/41
f 19/19/19 21/21/21 14/14/14
f 15/15/15 42/42/42 43/43/43
f 44/44/44 42/42/42 15/15/15
f 20/20/20 45/45/45 23/23/23
f 46/46/46 45/45/45 20/20/20
f 48/48/48 47/47/47 49/49/49
f 50/50/50 47/47/47 48/48/48
f 52/52/52 51/51/51 53/53/53
f 54/54/54 51/51/51 52/52/52
f 56/56/56 55/55/55 57/57/57
f 58/58/58 55/55/55 56/56/56
f 60/60/60 59/59/59 61/61/61
f 62/62/62 59/59/59 60/60/60
f 64/64/64 63/63/63 65/65/65
f 66/66/66 63/63/63 64/64/64
f 68/68/68 67/67/67 69/69/69
f 70/70/70 67/67/67 68/68/68
f 72/72/72 71/71/71 73/73/73
f 74/74/74 71/71/71 72/72/72
f 11/11/11 39/39/39 78/78/78
f 38/38/38 39/39/39 11/11/11
f 10/10/10 38/38/38 11/11/11
f 75/75/75 38/38/38 10/10/10
f 76/76/76 37/37/37 38/38/38
f 77/77/77 37/37/37 76/76/76
f 79/79/79 39/39/39 40/40/40
f 80/80/80 39/39/39 79/79/79
