g wpn_nightstick_geo
v 0.02788862 0.1008248 -0.2235635
v 0.02788862 0.1330278 -0.2235635
v 0 0.1491293 -0.2235635
v -0.02788862 0.1330278 -0.2235635
v -0.02788862 0.1008248 -0.2235635
v 0 0.08472329 -0.2235635
v 0.0293676 0.09997087 0.8391863
v 0.0293676 0.1338817 0.8391863
v 0 0.1508371 0.8391863
v -0.02936768 0.1338817 0.8391863
v -0.02936768 0.09997088 0.8391863
v 0 0.08301548 0.8391863
v -0.02178352 0.129503 0.0107008
v 0 0.1420797 0.0107008
v 0.02178352 0.129503 0.0107008
v 0.02178351 0.1043496 0.0107008
v -3.576279E-09 0.09177286 0.0107008
v -0.02178352 0.1043496 0.0107008
v -0.02936764 0.1338817 0.5540342
v 0 0.1508371 0.5540342
v 0.02936764 0.1338817 0.5540342
v 0.02936764 0.09997087 0.5540342
v 0 0.08301548 0.5540342
v -0.02936764 0.09997088 0.5540342
v 0.02264304 0.1054762 -0.01176422
v 0.02264305 0.1054762 0.01438171
v 0 0.1054762 0.02745468
v -0.02264305 0.1054762 0.01438171
v -0.02264305 0.1054762 -0.01176422
v -4.768371E-09 0.1054762 -0.02483719
v 0.02103687 -0.1996568 -0.0108369
v 0.02103688 -0.1996568 0.0134544
v 0 -0.1996568 0.02560005
v -0.02103688 -0.1996568 0.0134544
v -0.02103688 -0.1996568 -0.01083691
v -4.768371E-09 -0.1996568 -0.02298256
v -0.01865006 0.04990228 0.01207638
v 0 0.04990228 0.02284397
v 0.01865006 0.04990228 0.01207638
v 0.01865006 0.04990228 -0.009458885
v -4.768371E-09 0.04990228 -0.02022648
v -0.01865007 0.04990228 -0.009458886
v -0.01434947 0.04111097 0.009593431
v -1.192093E-09 0.04111097 0.01787807
v 0.01434946 0.04111097 0.009593391
v 0.01434946 0.04111097 -0.006975937
v -3.576279E-09 0.04111097 -0.01526058
v -0.01434947 0.04111097 -0.006975899
v -0.01660743 0.03053143 0.01089707
v 0 0.03053143 0.02048534
v 0.01660743 0.03053143 0.01089707
v 0.01660742 0.03053143 -0.00827957
v -3.576279E-09 0.03053143 -0.01786785
v -0.01660743 0.03053143 -0.008279571
v 0 0.08472329 -0.2235635
v 0.02788862 0.1008248 -0.2235635
v 0.02788862 0.1330278 -0.2235635
v 0 0.1491293 -0.2235635
v -0.02788862 0.1008248 -0.2235635
v -0.02788862 0.1330278 -0.2235635
v -0.02936768 0.1338817 0.8391863
v 0 0.1508371 0.8391863
v 0.0293676 0.1338817 0.8391863
v 0.0293676 0.09997087 0.8391863
v 0 0.08301548 0.8391863
v -0.02936768 0.09997088 0.8391863
v 0 0.04990228 0.02284397
v -0.01865006 0.04990228 0.01207638
v 0.01865006 0.04990228 0.01207638
v 0.01865006 0.04990228 -0.009458885
v -4.768371E-09 0.04990228 -0.02022648
v -0.01865007 0.04990228 -0.009458886
v -1.192093E-09 0.04111097 0.01787807
v -0.01434947 0.04111097 0.009593431
v 0.01434946 0.04111097 0.009593391
v 0.01434946 0.04111097 -0.006975937
v -3.576279E-09 0.04111097 -0.01526058
v -0.01434947 0.04111097 -0.006975899
v 0 0.03053143 0.02048534
v -0.02103688 -0.1996568 0.0134544
v -0.01660743 0.03053143 0.01089707
v 0 -0.1996568 0.02560005
v 0.01660743 0.03053143 0.01089707
v 0.02103688 -0.1996568 0.0134544
v 0.01660742 0.03053143 -0.00827957
v 0.02103687 -0.1996568 -0.0108369
v -3.576279E-09 0.03053143 -0.01786785
v -4.768371E-09 -0.1996568 -0.02298256
v -0.01660743 0.03053143 -0.008279571
v -0.02103688 -0.1996568 -0.01083691
vt 0.1066211 0.9725778
vt 0.1066211 0.9725778
vt 0.1066211 0.9725778
vt 0.1066211 0.9725778
vt 0.1066211 0.9725778
vt 0.1066211 0.9725778
vt 0.1066211 0.9785557
vt 0.1066211 0.9785557
vt 0.1066211 0.9785557
vt 0.1066211 0.9785557
vt 0.1066211 0.9785557
vt 0.1066211 0.9785557
vt 0.1066211 0.9656883
vt 0.1066211 0.9656883
vt 0.1066211 0.9656883
vt 0.1066211 0.9656883
vt 0.1066211 0.9656883
vt 0.1066211 0.9656883
vt 0.1066211 0.9770559
vt 0.1066211 0.9770559
vt 0.1066211 0.9770559
vt 0.1066211 0.9770559
vt 0.1066211 0.9770559
vt 0.1066211 0.9770559
vt 0.1066211 0.9351301
vt 0.1066211 0.9351301
vt 0.1066211 0.9351301
vt 0.1066211 0.9351301
vt 0.1066211 0.9351301
vt 0.1066211 0.9351301
vt 0.1066211 0.9872177
vt 0.1066211 0.9872177
vt 0.1066211 0.9872177
vt 0.1066211 0.9872177
vt 0.1066211 0.9872177
vt 0.1066211 0.9872177
vt 0.1066211 0.9773408
vt 0.1066211 0.9773408
vt 0.1066211 0.9773408
vt 0.1066211 0.9773408
vt 0.1066211 0.9773408
vt 0.1066211 0.9773408
vt 0.1066211 0.9830574
vt 0.1066211 0.9830574
vt 0.1066211 0.9830574
vt 0.1066211 0.9830574
vt 0.1066211 0.9830574
vt 0.1066211 0.9830574
vt 0 1
vt 0 1
vt 0 1
vt 0 1
vt 0 1
vt 0 1
vt 0.1066211 0.9872177
vt 0.1066211 0.9872177
vt 0.1066211 0.9872177
vt 0.1066211 0.9872177
vt 0.1066211 0.9872177
vt 0.1066211 0.9872177
vt 0.1066211 0.9725778
vt 0.1066211 0.9725778
vt 0.1066211 0.9725778
vt 0.1066211 0.9725778
vt 0.1066211 0.9725778
vt 0.1066211 0.9725778
vt 0.1066211 0.9830574
vt 0.1066211 0.9830574
vt 0.1066211 0.9830574
vt 0.1066211 0.9830574
vt 0.1066211 0.9830574
vt 0.1066211 0.9830574
vt 0 1
vt 0 1
vt 0 1
vt 0 1
vt 0 1
vt 0 1
vt 0.1066211 0.9693614
vt 0.1066211 0.9884641
vt 0.1066211 0.9693614
vt 0.1066211 0.9884641
vt 0.1066211 0.9693614
vt 0.1066211 0.9884641
vt 0.1066211 0.9693613
vt 0.1066211 0.9884641
vt 0.1066211 0.9693614
vt 0.1066211 0.9884641
vt 0.1066211 0.9693614
vt 0.1066211 0.9884641
vn 0.7596405 -0.4385787 -0.4802031
vn 0.7596406 0.4385785 -0.4802032
vn 3.850182E-07 0.8771572 -0.4802032
vn -0.7596403 0.4385788 -0.4802033
vn -0.7596405 -0.4385786 -0.4802032
vn 0 -0.8771572 -0.4802032
vn 0.7499995 -0.4330131 0.5000005
vn 0.7499996 0.4330128 0.5000005
vn -5.662441E-07 0.8660254 0.5000001
vn -0.7500002 0.4330127 0.4999997
vn -0.7500002 -0.4330125 0.4999997
vn -8.791684E-07 -0.8660254 0.5
vn -0.8660042 0.499988 0.00698427
vn 2.753555E-07 0.9999757 0.006984275
vn 0.8660044 0.4999877 0.006984283
vn 0.8660042 -0.4999879 0.006984285
vn -1.376777E-07 -0.9999757 0.006984283
vn -0.8660043 -0.4999878 0.006984273
vn -0.8659972 0.499984 -0.008058335
vn 3.957531E-07 0.9999676 -0.008058284
vn 0.8659974 0.4999836 -0.008058242
vn 0.8659972 -0.4999839 -0.008058248
vn 0 -0.9999676 -0.008058286
vn -0.8659972 -0.4999839 -0.008058332
vn 0.8630599 -0.08268103 -0.4982883
vn 0.8630601 -0.08268105 0.4982882
vn 0 -0.08268102 0.9965761
vn -0.8630599 -0.08268107 0.4982883
vn -0.8630601 -0.08268105 -0.4982882
vn 0 -0.08268096 -0.9965761
vn 0.7571445 -0.4854304 -0.4371379
vn 0.7571445 -0.4854305 0.4371377
vn 0 -0.4854304 0.8742753
vn -0.7571445 -0.4854305 0.4371378
vn -0.7571445 -0.4854305 -0.4371377
vn 0 -0.4854304 -0.8742753
vn -0.8268827 -0.2972422 0.4774016
vn 0 -0.2972423 0.9548022
vn 0.8268827 -0.2972426 0.4774011
vn 0.8268826 -0.2972423 -0.4774015
vn -1.126613E-07 -0.2972423 -0.9548022
vn -0.8268827 -0.2972426 -0.477401
vn -0.857426 -0.1405698 0.495036
vn 3.087048E-07 -0.1405696 0.9900708
vn 0.8574265 -0.1405698 0.4950354
vn 0.8574261 -0.1405699 -0.4950359
vn -3.359434E-07 -0.1405697 -0.9900708
vn -0.8574265 -0.1405699 -0.4950354
vn -0.8584551 0.1319308 0.4956298
vn 2.50089E-07 0.1319311 0.9912589
vn 0.8584553 0.1319313 0.4956294
vn 0.8584552 0.1319308 -0.4956298
vn -1.810989E-07 0.1319311 -0.9912589
vn -0.8584553 0.1319312 -0.4956295
vn 0 -0.8771572 -0.4802032
vn 0.7596405 -0.4385787 -0.4802031
vn 0.7596406 0.4385785 -0.4802032
vn 3.850182E-07 0.8771572 -0.4802032
vn -0.7596405 -0.4385786 -0.4802032
vn -0.7596403 0.4385788 -0.4802033
vn -0.7500002 0.4330127 0.4999997
vn -5.662441E-07 0.8660254 0.5000001
vn 0.7499996 0.4330128 0.5000005
vn 0.7499995 -0.4330131 0.5000005
vn -8.791684E-07 -0.8660254 0.5
vn -0.7500002 -0.4330125 0.4999997
vn 0 -0.2972423 0.9548022
vn -0.8268827 -0.2972422 0.4774016
vn 0.8268827 -0.2972426 0.4774011
vn 0.8268826 -0.2972423 -0.4774015
vn -1.126613E-07 -0.2972423 -0.9548022
vn -0.8268827 -0.2972426 -0.477401
vn 3.087048E-07 -0.1405696 0.9900708
vn -0.857426 -0.1405698 0.495036
vn 0.8574265 -0.1405698 0.4950354
vn 0.8574261 -0.1405699 -0.4950359
vn -3.359434E-07 -0.1405697 -0.9900708
vn -0.8574265 -0.1405699 -0.4950354
vn 2.50089E-07 0.1319311 0.9912589
vn -0.7571445 -0.4854305 0.4371378
vn -0.8584551 0.1319308 0.4956298
vn 0 -0.4854304 0.8742753
vn 0.8584553 0.1319313 0.4956294
vn 0.7571445 -0.4854305 0.4371377
vn 0.8584552 0.1319308 -0.4956298
vn 0.7571445 -0.4854304 -0.4371379
vn -1.810989E-07 0.1319311 -0.9912589
vn 0 -0.4854304 -0.8742753
vn -0.8584553 0.1319312 -0.4956295
vn -0.7571445 -0.4854305 -0.4371377
g wpn_nightstick_geo_0
f 58/58/58 59/59/59 60/60/60
f 55/55/55 59/59/59 58/58/58
f 57/57/57 55/55/55 58/58/58
f 56/56/56 55/55/55 57/57/57
f 12/12/12 10/10/10 11/11/11
f 9/9/9 10/10/10 12/12/12
f 7/7/7 9/9/9 12/12/12
f 8/8/8 9/9/9 7/7/7
f 34/34/34 32/32/32 33/33/33
f 31/31/31 32/32/32 34/34/34
f 35/35/35 31/31/31 34/34/34
f 36/36/36 31/31/31 35/35/35
f 16/16/16 1/1/1 15/15/15
f 6/6/6 1/1/1 16/16/16
f 17/17/17 6/6/6 16/16/16
f 5/5/5 6/6/6 17/17/17
f 18/18/18 5/5/5 17/17/17
f 4/4/4 5/5/5 18/18/18
f 13/13/13 4/4/4 18/18/18
f 3/3/3 4/4/4 13/13/13
f 14/14/14 3/3/3 13/13/13
f 2/2/2 3/3/3 14/14/14
f 15/15/15 2/2/2 14/14/14
f 1/1/1 2/2/2 15/15/15
f 19/19/19 61/61/61 20/20/20
f 66/66/66 61/61/61 19/19/19
f 24/24/24 66/66/66 19/19/19
f 65/65/65 66/66/66 24/24/24
f 23/23/23 65/65/65 24/24/24
f 64/64/64 65/65/65 23/23/23
f 22/22/22 64/64/64 23/23/23
f 63/63/63 64/64/64 22/22/22
f 21/21/21 63/63/63 22/22/22
f 62/62/62 63/63/63 21/21/21
f 20/20/20 62/62/62 21/21/21
f 61/61/61 62/62/62 20/20/20
f 40/40/40 25/25/25 39/39/39
f 30/30/30 25/25/25 40/40/40
f 41/41/41 30/30/30 40/40/40
f 29/29/29 30/30/30 41/41/41
f 42/42/42 29/29/29 41/41/41
f 28/28/28 29/29/29 42/42/42
f 37/37/37 28/28/28 42/42/42
f 27/27/27 28/28/28 37/37/37
f 38/38/38 27/27/27 37/37/37
f 26/26/26 27/27/27 38/38/38
f 39/39/39 26/26/26 38/38/38
f 25/25/25 26/26/26 39/39/39
f 44/44/44 67/67/67 43/43/43
f 69/69/69 67/67/67 44/44/44
f 45/45/45 69/69/69 44/44/44
f 70/70/70 69/69/69 45/45/45
f 46/46/46 70/70/70 45/45/45
f 71/71/71 70/70/70 46/46/46
f 47/47/47 71/71/71 46/46/46
f 72/72/72 71/71/71 47/47/47
f 48/48/48 72/72/72 47/47/47
f 68/68/68 72/72/72 48/48/48
f 43/43/43 68/68/68 48/48/48
f 67/67/67 68/68/68 43/43/43
f 50/50/50 73/73/73 49/49/49
f 75/75/75 73/73/73 50/50/50
f 51/51/51 75/75/75 50/50/50
f 76/76/76 75/75/75 51/51/51
f 52/52/52 76/76/76 51/51/51
f 77/77/77 76/76/76 52/52/52
f 53/53/53 77/77/77 52/52/52
f 78/78/78 77/77/77 53/53/53
f 54/54/54 78/78/78 53/53/53
f 74/74/74 78/78/78 54/54/54
f 49/49/49 74/74/74 54/54/54
f 73/73/73 74/74/74 49/49/49
f 82/82/82 79/79/79 80/80/80
f 83/83/83 79/79/79 82/82/82
f 84/84/84 83/83/83 82/82/82
f 85/85/85 83/83/83 84/84/84
f 86/86/86 85/85/85 84/84/84
f 87/87/87 85/85/85 86/86/86
f 88/88/88 87/87/87 86/86/86
f 89/89/89 87/87/87 88/88/88
f 90/90/90 89/89/89 88/88/88
f 81/81/81 89/89/89 90/90/90
f 80/80/80 81/81/81 90/90/90
f 79/79/79 81/81/81 80/80/80
f 20/20/20 14/14/14 19/19/19
f 15/15/15 14/14/14 20/20/20
f 21/21/21 15/15/15 20/20/20
f 16/16/16 15/15/15 21/21/21
f 22/22/22 16/16/16 21/21/21
f 17/17/17 16/16/16 22/22/22
f 23/23/23 17/17/17 22/22/22
f 18/18/18 17/17/17 23/23/23
f 24/24/24 18/18/18 23/23/23
f 13/13/13 18/18/18 24/24/24
f 19/19/19 13/13/13 24/24/24
f 14/14/14 13/13/13 19/19/19
