g wpn_remoteControl_geo
v -0.01373474 0.1205752 -0.01132523
v -0.0139328 0.1201675 0.06370224
v 0.007795105 0.1204238 -0.01126907
v 0.007597351 0.1200161 0.06375824
v 0.006834564 -0.01638403 -0.01201508
v 0.006636658 -0.01679179 0.06301223
v -0.01469559 -0.01623256 -0.01207123
v -0.01489349 -0.01664028 0.06295639
v -0.004772491 0.2297763 0.02872665
v -0.004762268 0.2297972 0.02488754
v -0.001433258 0.2297842 0.0229776
v 0.001885986 0.2297504 0.02490494
v 0.001875915 0.2297296 0.0287439
v -0.001453247 0.2297425 0.03065399
v -0.008978119 0.120316 0.03010162
v -0.008957519 0.1203584 0.02230103
v -0.002191009 0.120332 0.01841705
v 0.004554291 0.1202633 0.02233612
v 0.004533539 0.1202209 0.03013672
v -0.002232513 0.1202473 0.03402069
v -0.01030151 0.2474763 0.03200928
v -0.0102742 0.2475326 0.02165371
v -0.001291657 0.2474976 0.0164975
v 0.007663574 0.2474064 0.02170044
v 0.007636413 0.2473501 0.03205582
v -0.001346283 0.2473851 0.0372118
v -0.014095 0.2371347 0.03408829
v -0.01405624 0.2372143 0.01944199
v -0.001352997 0.2371649 0.01215267
v 0.01131165 0.2370359 0.0195079
v 0.01127304 0.2369562 0.0341539
v -0.001430359 0.2370057 0.04144409
v -0.01044693 0.2267641 0.03189636
v -0.01041962 0.2268204 0.02154083
v -0.001437073 0.2267853 0.01638473
v 0.007518158 0.2266942 0.02158737
v 0.007490844 0.2266379 0.0319429
v -0.001491699 0.2266728 0.03709885
v -0.001288757 0.2517312 0.02687893
v -0.001494598 0.2224392 0.02671936
v 0.006917419 0.01373519 0.03766908
v 0.006896362 0.008528766 0.03159378
v 0.006909332 0.007433166 0.02366731
v 0.006952057 0.0107963 0.01640792
v 0.007010803 0.01755039 0.01211899
v 0.007066803 0.02555106 0.01216263
v 0.007102509 0.03225818 0.01652512
v 0.007106476 0.03554226 0.02382065
v 0.007077637 0.03436062 0.03173462
v 0.007025299 0.0290883 0.03775284
v 0.006965179 0.02139953 0.03996413
v 0.02217377 0.01202707 0.04011093
v 0.02214829 0.005743942 0.03278
v 0.02216385 0.004421778 0.02321564
v 0.02221557 0.008480425 0.01445373
v 0.02228607 0.01663133 0.009277344
v 0.02235413 0.02628658 0.009329834
v 0.02239731 0.03438065 0.01459488
v 0.02240234 0.03834392 0.02340057
v 0.0223674 0.03691787 0.03294998
v 0.02230377 0.03055537 0.04021194
v 0.0222316 0.02127641 0.04288208
v 0.02510162 0.02134962 0.02575303
v 0.007746277 0.1158588 -0.00494751
v 0.007582245 0.11552 0.05738707
v 0.01022873 0.1158413 -0.004941101
v 0.01006454 0.1155025 0.05739364
v 0.009991149 0.08201318 -0.005125274
v 0.009827117 0.08167437 0.05720917
v 0.007509307 0.08203056 -0.005131836
v 0.00734497 0.08169181 0.0572026
v 0.007385864 0.07716947 0.02909866
v 0.007311706 0.0770169 0.05717712
v 0.009868164 0.07715198 0.02910507
v 0.009794312 0.07699937 0.05718353
v 0.009727478 0.05710162 0.02899567
v 0.009653472 0.056949 0.05707428
v 0.007245026 0.05711908 0.02898926
v 0.007171173 0.05696648 0.05706787
v 0.007476196 0.07735564 -0.005157318
v 0.007402191 0.07720304 0.02292114
v 0.009958496 0.07733809 -0.005150757
v 0.009884643 0.07718554 0.02292755
v 0.00981781 0.05728779 -0.005260315
v 0.009743652 0.05713519 0.0228183
v 0.007335205 0.05730524 -0.005266724
v 0.007261352 0.05715266 0.02281189
v 0.007795105 0.1204238 -0.01126907
v 0.007597351 0.1200161 0.06375824
v 0.006834564 -0.01638403 -0.01201508
v 0.006636658 -0.01679179 0.06301223
v -0.01469559 -0.01623256 -0.01207123
v -0.0139328 0.1201675 0.06370224
v -0.01489349 -0.01664028 0.06295639
v -0.01373474 0.1205752 -0.01132523
v -0.0139328 0.1201675 0.06370224
v 0.006636658 -0.01679179 0.06301223
v -0.01489349 -0.01664028 0.06295639
v 0.007597351 0.1200161 0.06375824
v -0.01469559 -0.01623256 -0.01207123
v 0.007795105 0.1204238 -0.01126907
v -0.01373474 0.1205752 -0.01132523
v 0.006834564 -0.01638403 -0.01201508
v 0.02217377 0.01202707 0.04011093
v 0.02214829 0.005743942 0.03278
v 0.02216385 0.004421778 0.02321564
v 0.02221557 0.008480425 0.01445373
v 0.02228607 0.01663133 0.009277344
v 0.02235413 0.02628658 0.009329834
v 0.02239731 0.03438065 0.01459488
v 0.02240234 0.03834392 0.02340057
v 0.0223674 0.03691787 0.03294998
v 0.02230377 0.03055537 0.04021194
v 0.0222316 0.02127641 0.04288208
v 0.01022873 0.1158413 -0.004941101
v 0.01006454 0.1155025 0.05739364
v 0.009991149 0.08201318 -0.005125274
v 0.009827117 0.08167437 0.05720917
v 0.009868164 0.07715198 0.02910507
v 0.009794312 0.07699937 0.05718353
v 0.009727478 0.05710162 0.02899567
v 0.009653472 0.056949 0.05707428
v 0.009958496 0.07733809 -0.005150757
v 0.009884643 0.07718554 0.02292755
v 0.00981781 0.05728779 -0.005260315
v 0.009743652 0.05713519 0.0228183
vt 0.05718653 0.9542763
vt 0.05718653 0.9542763
vt 0.05718653 0.9542763
vt 0.05718653 0.9542763
vt 0.05718653 0.959908
vt 0.05718653 0.959908
vt 0.05718653 0.9542761
vt 0.05718653 0.9542761
vt 0.6201276 0.9450085
vt 0.6201276 0.9450085
vt 0.6201276 0.9450085
vt 0.6201276 0.9450085
vt 0.6201276 0.9450085
vt 0.6201276 0.9450085
vt 0.6201276 0.9450083
vt 0.6201276 0.9450083
vt 0.6201276 0.9450083
vt 0.6201276 0.9450083
vt 0.6201276 0.9450083
vt 0.6201276 0.9450083
vt 0.6201276 0.9639165
vt 0.6201276 0.9639165
vt 0.6201276 0.9639165
vt 0.6201276 0.9639165
vt 0.6201276 0.9639165
vt 0.6201276 0.9639165
vt 0.6201276 0.9639163
vt 0.6201276 0.9639163
vt 0.6201276 0.9639163
vt 0.6201276 0.9639163
vt 0.6201276 0.9639163
vt 0.6201276 0.9639163
vt 0.6201276 0.9639165
vt 0.6201276 0.9639165
vt 0.6201276 0.9639165
vt 0.6201276 0.9639165
vt 0.6201276 0.9639165
vt 0.6201276 0.9639165
vt 0.6201276 0.9639164
vt 0.6201276 0.9639167
vt 0.006742192 0.6293367
vt 0.006742073 0.6293367
vt 0.006742073 0.6293367
vt 0.006742073 0.6293367
vt 0.006742073 0.6293367
vt 0.006742073 0.6293367
vt 0.006742073 0.6293367
vt 0.006742073 0.6293367
vt 0.006742073 0.6293367
vt 0.006742192 0.6293367
vt 0.006742192 0.6293367
vt 0.006742192 0.6293367
vt 0.006742133 0.6293367
vt 0.006742073 0.6293367
vt 0.006742073 0.6293367
vt 0.006742073 0.6293367
vt 0.006742073 0.6293367
vt 0.006742073 0.6293367
vt 0.006742073 0.6293367
vt 0.006742133 0.6293367
vt 0.006742192 0.6293367
vt 0.006742133 0.6293367
vt 0.01150967 0.6510479
vt 0.2193238 0.2920552
vt 0.2193238 0.2920552
vt 0.2193238 0.2920552
vt 0.2193238 0.2920552
vt 0.2193238 0.3404782
vt 0.2193238 0.3404782
vt 0.2193238 0.2920552
vt 0.2193238 0.2920552
vt 0.9081312 0.3837892
vt 0.9081312 0.3837892
vt 0.9081312 0.3837893
vt 0.9081312 0.3837893
vt 0.9090927 0.4198299
vt 0.9090928 0.4198299
vt 0.9081316 0.3837892
vt 0.9081316 0.3837892
vt 0.2390383 0.4686832
vt 0.2390383 0.4686832
vt 0.2390383 0.4686832
vt 0.2390383 0.4686832
vt 0.2390383 0.4988918
vt 0.2390383 0.4988918
vt 0.2390383 0.4686832
vt 0.2390383 0.4686832
vt 0.05718653 0.959908
vt 0.05718653 0.959908
vt 0.05718653 0.9542761
vt 0.05718653 0.9542761
vt 0.05718653 0.959908
vt 0.05718653 0.959908
vt 0.05718653 0.959908
vt 0.05718653 0.959908
vt 0.05718653 0.950374
vt 0.05718653 0.9503738
vt 0.05718653 0.9503738
vt 0.05718653 0.950374
vt 0.05718653 0.9503738
vt 0.05718653 0.950374
vt 0.05718653 0.950374
vt 0.05718653 0.9503738
vt 0.01150979 0.6510479
vt 0.01150973 0.6510479
vt 0.01150967 0.6510479
vt 0.01150967 0.6510479
vt 0.01150967 0.6510479
vt 0.01150967 0.6510479
vt 0.01150967 0.6510479
vt 0.01150967 0.6510479
vt 0.01150973 0.6510479
vt 0.01150979 0.6510479
vt 0.01150979 0.6510479
vt 0.2193238 0.3404783
vt 0.2193238 0.3404783
vt 0.2193238 0.2920552
vt 0.2193238 0.2920552
vt 0.9090927 0.41983
vt 0.9090928 0.41983
vt 0.9081316 0.3837893
vt 0.9081316 0.3837893
vt 0.2390383 0.4988918
vt 0.2390383 0.4988918
vt 0.2390383 0.4686832
vt 0.2390383 0.4686832
vn -0.5717542 0.5845284 -0.575694
vn -0.5748029 0.578253 0.5789862
vn 0.582913 0.5764014 -0.57269
vn 0.5798652 0.5701284 0.5819879
vn 0.5748061 -0.5782502 -0.5789859
vn 0.5717584 -0.5845266 0.5756918
vn -0.5798618 -0.5701289 -0.5819909
vn -0.5829105 -0.5764028 0.5726911
vn -0.8665071 0.03954655 0.4975957
vn -0.8638648 0.04497569 -0.5017118
vn 0.002898694 0.04160434 -0.99913
vn 0.8670183 0.03279845 -0.4971958
vn 0.8643788 0.02736684 0.5020959
vn -0.002372488 0.03074343 0.9995245
vn -0.8665071 0.03954655 0.4975957
vn -0.8638648 0.04497569 -0.5017118
vn 0.002898694 0.04160434 -0.99913
vn 0.8670183 0.03279845 -0.4971958
vn 0.8643788 0.02736684 0.5020959
vn -0.002372488 0.03074343 0.9995245
vn -0.5952415 0.7240734 0.3484325
vn -0.5934117 0.7278438 -0.3436657
vn 0.006896278 0.7255216 -0.6881648
vn 0.6053743 0.7194076 -0.3405505
vn 0.6035584 0.7156343 0.3515462
vn 0.003246821 0.7179746 0.6960616
vn -0.8673249 0.003376032 0.4977309
vn -0.8646831 0.008808742 -0.5022405
vn 0.002636071 0.005434788 -0.9999818
vn 0.8673204 -0.003374568 -0.4977387
vn 0.8646891 -0.00881062 0.5022302
vn -0.002631184 -0.005434162 0.9999818
vn -0.6053823 -0.7193946 0.3405639
vn -0.6035498 -0.7156457 -0.3515377
vn -0.003245372 -0.717998 -0.6960376
vn 0.5952346 -0.7240845 -0.3484215
vn 0.5934213 -0.7278295 0.3436792
vn -0.006890901 -0.7254934 0.6881946
vn 0.007025552 0.9999604 0.005470795
vn -0.007024423 -0.9999607 -0.005430124
vn -0.1916215 -0.5343555 0.8232529
vn -0.1946225 -0.8943777 0.4027537
vn -0.1957601 -0.9698017 -0.1454735
vn -0.1946887 -0.7369836 -0.6472647
vn -0.1917709 -0.2700264 -0.9435623
vn -0.1878935 0.2829622 -0.9405469
vn -0.1842764 0.7466601 -0.639172
vn -0.1821097 0.9739839 -0.134876
vn -0.1820723 0.8925765 0.4125008
vn -0.1841615 0.5279809 0.829048
vn -0.1877262 -0.004038571 0.982213
vn 0.5844175 -0.4445945 0.6788166
vn 0.5825966 -0.7412519 0.3333568
vn 0.5825068 -0.8042285 -0.1179076
vn 0.5841836 -0.6130518 -0.5318806
vn 0.5870692 -0.2280825 -0.7767421
vn 0.5902787 0.2282632 -0.7742526
vn 0.5927709 0.6105545 -0.5252103
vn 0.5937601 0.7971993 -0.1091894
vn 0.5929297 0.729306 0.3413899
vn 0.5905492 0.4289059 0.6835871
vn 0.5873753 -0.008534084 0.8092696
vn 0.9999719 -0.007040806 0.002601805
vn 0.006838034 0.7109194 -0.7032402
vn 0.00306499 0.703236 0.7109498
vn 0.5829153 0.5763977 -0.5726913
vn 0.5798469 0.5701385 0.5819963
vn 0.5748144 -0.5782464 -0.5789814
vn 0.5717486 -0.5845328 0.5756952
vn -0.003075132 -0.7032384 -0.7109476
vn -0.006848164 -0.7109217 0.7032378
vn 0.00682852 0.7109228 -0.7032369
vn 0.003123957 0.7032375 0.7109482
vn 0.582908 0.5764044 -0.5726921
vn 0.579878 0.5701242 0.5819792
vn 0.5747953 -0.5782529 -0.578994
vn 0.5717657 -0.5845229 0.5756882
vn -0.003113952 -0.7032346 -0.710951
vn -0.006818532 -0.7109204 0.7032395
vn 0.006855594 0.7109237 -0.7032358
vn 0.003128576 0.7032377 0.7109479
vn 0.5829232 0.5763972 -0.572684
vn 0.579881 0.5701211 0.5819795
vn 0.5748093 -0.578247 -0.5789859
vn 0.5717654 -0.5845232 0.5756882
vn -0.003089475 -0.7032336 -0.7109521
vn -0.006816519 -0.7109202 0.7032398
vn 0.582913 0.5764014 -0.57269
vn 0.5798652 0.5701284 0.5819879
vn 0.5748061 -0.5782502 -0.5789859
vn 0.5717584 -0.5845266 0.5756918
vn -0.5798618 -0.5701289 -0.5819909
vn -0.5748029 0.578253 0.5789862
vn -0.5829105 -0.5764028 0.5726911
vn -0.5717542 0.5845284 -0.575694
vn -0.5748029 0.578253 0.5789862
vn 0.5717584 -0.5845266 0.5756918
vn -0.5829105 -0.5764028 0.5726911
vn 0.5798652 0.5701284 0.5819879
vn -0.5798618 -0.5701289 -0.5819909
vn 0.582913 0.5764014 -0.57269
vn -0.5717542 0.5845284 -0.575694
vn 0.5748061 -0.5782502 -0.5789859
vn 0.5844175 -0.4445945 0.6788166
vn 0.5825966 -0.7412519 0.3333568
vn 0.5825068 -0.8042285 -0.1179076
vn 0.5841836 -0.6130518 -0.5318806
vn 0.5870692 -0.2280825 -0.7767421
vn 0.5902787 0.2282632 -0.7742526
vn 0.5927709 0.6105545 -0.5252103
vn 0.5937601 0.7971993 -0.1091894
vn 0.5929297 0.729306 0.3413899
vn 0.5905492 0.4289059 0.6835871
vn 0.5873753 -0.008534084 0.8092696
vn 0.5829153 0.5763977 -0.5726913
vn 0.5798469 0.5701385 0.5819963
vn 0.5748144 -0.5782464 -0.5789814
vn 0.5717486 -0.5845328 0.5756952
vn 0.582908 0.5764044 -0.5726921
vn 0.579878 0.5701242 0.5819792
vn 0.5747953 -0.5782529 -0.578994
vn 0.5717657 -0.5845229 0.5756882
vn 0.5829232 0.5763972 -0.572684
vn 0.579881 0.5701211 0.5819795
vn 0.5748093 -0.578247 -0.5789859
vn 0.5717654 -0.5845232 0.5756882
g wpn_remoteControl_geo_0
f 4/4/4 1/1/1 2/2/2
f 3/3/3 1/1/1 4/4/4
f 6/6/6 88/88/88 89/89/89
f 5/5/5 88/88/88 6/6/6
f 8/8/8 90/90/90 91/91/91
f 7/7/7 90/90/90 8/8/8
f 93/93/93 92/92/92 94/94/94
f 95/95/95 92/92/92 93/93/93
f 97/97/97 96/96/96 98/98/98
f 99/99/99 96/96/96 97/97/97
f 101/101/101 100/100/100 102/102/102
f 103/103/103 100/100/100 101/101/101
f 69/69/69 115/115/115 116/116/116
f 68/68/68 115/115/115 69/69/69
f 77/77/77 119/119/119 120/120/120
f 76/76/76 119/119/119 77/77/77
f 85/85/85 123/123/123 124/124/124
f 84/84/84 123/123/123 85/85/85
f 15/15/15 9/9/9 16/16/16
f 14/14/14 9/9/9 15/15/15
f 20/20/20 14/14/14 15/15/15
f 13/13/13 14/14/14 20/20/20
f 19/19/19 13/13/13 20/20/20
f 12/12/12 13/13/13 19/19/19
f 18/18/18 12/12/12 19/19/19
f 11/11/11 12/12/12 18/18/18
f 17/17/17 11/11/11 18/18/18
f 10/10/10 11/11/11 17/17/17
f 16/16/16 10/10/10 17/17/17
f 9/9/9 10/10/10 16/16/16
f 52/52/52 41/41/41 53/53/53
f 51/51/51 41/41/41 52/52/52
f 62/62/62 51/51/51 52/52/52
f 50/50/50 51/51/51 62/62/62
f 61/61/61 50/50/50 62/62/62
f 49/49/49 50/50/50 61/61/61
f 60/60/60 49/49/49 61/61/61
f 48/48/48 49/49/49 60/60/60
f 59/59/59 48/48/48 60/60/60
f 47/47/47 48/48/48 59/59/59
f 58/58/58 47/47/47 59/59/59
f 46/46/46 47/47/47 58/58/58
f 57/57/57 46/46/46 58/58/58
f 45/45/45 46/46/46 57/57/57
f 56/56/56 45/45/45 57/57/57
f 44/44/44 45/45/45 56/56/56
f 55/55/55 44/44/44 56/56/56
f 43/43/43 44/44/44 55/55/55
f 54/54/54 43/43/43 55/55/55
f 42/42/42 43/43/43 54/54/54
f 53/53/53 42/42/42 54/54/54
f 41/41/41 42/42/42 53/53/53
f 63/63/63 105/105/105 106/106/106
f 104/104/104 105/105/105 63/63/63
f 114/114/114 104/104/104 63/63/63
f 63/63/63 108/108/108 109/109/109
f 107/107/107 108/108/108 63/63/63
f 106/106/106 107/107/107 63/63/63
f 63/63/63 111/111/111 112/112/112
f 110/110/110 111/111/111 63/63/63
f 109/109/109 110/110/110 63/63/63
f 63/63/63 113/113/113 114/114/114
f 112/112/112 113/113/113 63/63/63
f 66/66/66 64/64/64 67/67/67
f 70/70/70 64/64/64 66/66/66
f 117/117/117 70/70/70 66/66/66
f 71/71/71 70/70/70 117/117/117
f 118/118/118 71/71/71 117/117/117
f 65/65/65 71/71/71 118/118/118
f 67/67/67 65/65/65 118/118/118
f 64/64/64 65/65/65 67/67/67
f 74/74/74 72/72/72 75/75/75
f 78/78/78 72/72/72 74/74/74
f 121/121/121 78/78/78 74/74/74
f 79/79/79 78/78/78 121/121/121
f 122/122/122 79/79/79 121/121/121
f 73/73/73 79/79/79 122/122/122
f 75/75/75 73/73/73 122/122/122
f 72/72/72 73/73/73 75/75/75
f 82/82/82 80/80/80 83/83/83
f 86/86/86 80/80/80 82/82/82
f 125/125/125 86/86/86 82/82/82
f 87/87/87 86/86/86 125/125/125
f 126/126/126 87/87/87 125/125/125
f 81/81/81 87/87/87 126/126/126
f 83/83/83 81/81/81 126/126/126
f 80/80/80 81/81/81 83/83/83
f 39/39/39 22/22/22 21/21/21
f 23/23/23 22/22/22 39/39/39
f 24/24/24 23/23/23 39/39/39
f 30/30/30 23/23/23 24/24/24
f 31/31/31 30/30/30 24/24/24
f 37/37/37 30/30/30 31/31/31
f 38/38/38 37/37/37 31/31/31
f 40/40/40 37/37/37 38/38/38
f 33/33/33 40/40/40 38/38/38
f 34/34/34 40/40/40 33/33/33
f 27/27/27 34/34/34 33/33/33
f 28/28/28 34/34/34 27/27/27
f 21/21/21 28/28/28 27/27/27
f 22/22/22 28/28/28 21/21/21
f 29/29/29 22/22/22 23/23/23
f 28/28/28 22/22/22 29/29/29
f 35/35/35 28/28/28 29/29/29
f 34/34/34 28/28/28 35/35/35
f 40/40/40 34/34/34 35/35/35
f 36/36/36 37/37/37 40/40/40
f 30/30/30 37/37/37 36/36/36
f 29/29/29 30/30/30 36/36/36
f 23/23/23 30/30/30 29/29/29
f 25/25/25 31/31/31 24/24/24
f 32/32/32 31/31/31 25/25/25
f 26/26/26 32/32/32 25/25/25
f 27/27/27 32/32/32 26/26/26
f 21/21/21 27/27/27 26/26/26
f 35/35/35 36/36/36 40/40/40
f 29/29/29 36/36/36 35/35/35
f 32/32/32 38/38/38 31/31/31
f 33/33/33 38/38/38 32/32/32
f 27/27/27 33/33/33 32/32/32
f 39/39/39 25/25/25 24/24/24
f 26/26/26 25/25/25 39/39/39
f 21/21/21 26/26/26 39/39/39
