g wpn_syringe_geo
v -0.0475024 -0.05866959 -0.03172646
v -0.01086784 -0.05866959 -0.03172647
v 0.007449455 -0.05866959 -5.819406E-09
v -0.01086783 -0.05866959 0.03172646
v -0.04750239 -0.05866959 0.03172646
v -0.06581967 -0.05866959 0
v 0.007449455 0.06328906 -5.819406E-09
v -0.01086784 0.06328906 -0.03172647
v -0.0475024 0.06328906 -0.03172646
v -0.06581967 0.06328906 0
v -0.04750239 0.06328906 0.03172646
v -0.01086783 0.06328906 0.03172646
v 0.007449455 0.07189178 -5.819406E-09
v -0.01086784 0.07189178 -0.03172647
v -0.0475024 0.07189178 -0.03172646
v -0.06581967 0.07189178 0
v -0.04750239 0.07189178 0.03172646
v -0.01086783 0.07189178 0.03172646
v -0.06581967 0.2038898 0
v -0.04750239 0.2038898 0.03172646
v -0.01086783 0.2038898 0.03172646
v 0.007449455 0.2038898 -5.819406E-09
v -0.01086784 0.2038898 -0.03172647
v -0.0475024 0.2038898 -0.03172646
v -0.05931566 -0.05866957 -0.0521876
v 0.0009454059 -0.05866957 -0.05218761
v 0.03107595 -0.05866957 -9.572478E-09
v 0.0009454179 -0.05866957 0.0521876
v -0.05931564 -0.05866957 0.0521876
v -0.08944616 -0.05866957 0
v -0.05931566 -0.07619997 -0.0521876
v 0.0009454059 -0.07619997 -0.05218761
v 0.03107595 -0.07619997 -9.572478E-09
v 0.0009454179 -0.07619997 0.0521876
v -0.05931564 -0.07619997 0.0521876
v -0.08944616 -0.07619997 0
v -0.03962957 -0.07619999 -0.01809033
v -0.01874066 -0.07619999 -0.01809033
v -0.008296201 -0.07619999 -3.318207E-09
v -0.01874066 -0.07619999 0.01809033
v -0.03962957 -0.07619999 0.01809033
v -0.05007402 -0.07619999 0
v -0.03962957 -0.1502639 -0.01809033
v -0.01874066 -0.1502639 -0.01809033
v -0.008296201 -0.1502639 -3.318207E-09
v -0.01874066 -0.1502639 0.01809033
v -0.03962957 -0.1502639 0.01809033
v -0.05007402 -0.1502639 0
v -0.04850076 -0.1502638 -0.03345566
v -0.009869481 -0.1502638 -0.03345567
v 0.009446161 -0.1502638 -6.136583E-09
v -0.009869474 -0.1502638 0.03345566
v -0.04850075 -0.1502638 0.03345567
v -0.06781638 -0.1502638 0
v -0.04850076 -0.1637262 -0.03345566
v -0.009869481 -0.1637262 -0.03345567
v 0.009446161 -0.1637262 -6.136583E-09
v -0.009869474 -0.1637262 0.03345566
v -0.04850075 -0.1637262 0.03345567
v -0.06781638 -0.1637262 0
v -0.03821104 0.2299327 -0.01563335
v -0.0201592 0.2299327 -0.01563335
v -0.01113327 0.2299327 -2.867538E-09
v -0.02015919 0.2299327 0.01563335
v -0.03821103 0.2299327 0.01563335
v -0.04723695 0.2299327 0
v -0.03821104 0.2211507 -0.01563335
v -0.0201592 0.2211507 -0.01563335
v -0.01113327 0.2211507 -2.867538E-09
v -0.02015919 0.2211507 0.01563335
v -0.03821103 0.2211507 0.01563335
v -0.04723695 0.2211507 0
v -0.0310617 0.3683228 -0.003250346
v -0.02730853 0.3683228 -0.003250347
v -0.02543194 0.3683228 -7.272679E-10
v -0.02730853 0.3683228 0.003250346
v -0.0310617 0.3683228 0.003250346
v -0.03293829 0.3683228 -1.310753E-10
v -0.03192072 0.2211507 -0.004738203
v -0.02644951 0.2211507 -0.004738204
v -0.02371391 0.2211507 -8.69102E-10
v -0.02644951 0.2211507 0.004738203
v -0.03192072 0.2211507 0.004738203
v -0.03465632 0.2211507 0
v -0.0475024 0.2211507 -0.03172646
v -0.01086784 0.2211507 -0.03172647
v 0.00744945 0.2211507 -5.819406E-09
v -0.01086783 0.2211507 0.03172646
v -0.04750239 0.2211507 0.03172646
v -0.06581967 0.2211507 0
v 0.00744945 -0.05866959 -5.819406E-09
v 0.00744945 0.06328906 -5.819406E-09
v 0.00744945 0.07189178 -5.819406E-09
v 0.00744945 0.2038898 -5.819406E-09
v -0.0475024 0.1973406 -0.03172646
v -0.06581967 0.1973406 0
v -0.04750239 0.1973406 0.03172646
v -0.01086783 0.1973406 0.03172646
v 0.007449455 0.1973406 -5.819405E-09
v -0.01086784 0.1973406 -0.03172647
v 0.007449455 0.06328906 -5.819406E-09
v -0.01086784 0.06328906 -0.03172647
v -0.0475024 0.06328906 -0.03172646
v -0.06581967 0.06328906 0
v -0.04750239 0.06328906 0.03172646
v -0.01086783 0.06328906 0.03172646
v -0.05931566 -0.05866957 -0.0521876
v 0.0009454059 -0.05866957 -0.05218761
v 0.03107595 -0.05866957 -9.572478E-09
v -0.08944616 -0.05866957 0
v 0.0009454179 -0.05866957 0.0521876
v -0.05931564 -0.05866957 0.0521876
v 0.03107595 -0.07619997 -9.572478E-09
v 0.0009454059 -0.07619997 -0.05218761
v -0.05931566 -0.07619997 -0.0521876
v -0.08944616 -0.07619997 0
v 0.0009454179 -0.07619997 0.0521876
v -0.05931564 -0.07619997 0.0521876
v -0.04850076 -0.1502638 -0.03345566
v -0.009869481 -0.1502638 -0.03345567
v 0.009446161 -0.1502638 -6.136583E-09
v -0.06781638 -0.1502638 0
v -0.009869474 -0.1502638 0.03345566
v -0.04850075 -0.1502638 0.03345567
v 0.009446161 -0.1637262 -6.136583E-09
v -0.009869481 -0.1637262 -0.03345567
v -0.04850076 -0.1637262 -0.03345566
v -0.06781638 -0.1637262 0
v -0.009869474 -0.1637262 0.03345566
v -0.04850075 -0.1637262 0.03345567
v -0.03821104 0.2299327 -0.01563335
v -0.0201592 0.2299327 -0.01563335
v -0.01113327 0.2299327 -2.867538E-09
v -0.04723695 0.2299327 0
v -0.02015919 0.2299327 0.01563335
v -0.03821103 0.2299327 0.01563335
v -0.0310617 0.3683228 -0.003250346
v -0.02730853 0.3683228 -0.003250347
v -0.02543194 0.3683228 -7.272679E-10
v -0.03293829 0.3683228 -1.310753E-10
v -0.02730853 0.3683228 0.003250346
v -0.0310617 0.3683228 0.003250346
v -0.02371391 0.2211507 -8.69102E-10
v -0.02644951 0.2211507 -0.004738204
v -0.03192072 0.2211507 -0.004738203
v -0.03465632 0.2211507 0
v -0.02644951 0.2211507 0.004738203
v -0.03192072 0.2211507 0.004738203
v -0.01086784 0.2038898 -0.03172647
v -0.0475024 0.2038898 -0.03172646
v -0.01086783 0.2038898 0.03172646
v -0.04750239 0.2038898 0.03172646
v -0.06581967 0.2038898 0
v -0.0475024 0.2211507 -0.03172646
v -0.01086784 0.2211507 -0.03172647
v 0.00744945 0.2211507 -5.819406E-09
v -0.06581967 0.2211507 0
v -0.01086783 0.2211507 0.03172646
v -0.04750239 0.2211507 0.03172646
v 0.00744945 0.06328906 -5.819406E-09
v -0.06581967 0.1973406 0
v -0.0475024 0.07189178 -0.03172646
v -0.0475024 0.1973406 -0.03172646
v -0.06581967 0.07189178 0
v -0.04750239 0.1973406 0.03172646
v -0.04750239 0.07189178 0.03172646
v -0.01086783 0.1973406 0.03172646
v -0.01086783 0.07189178 0.03172646
v 0.007449455 0.1973406 -5.819405E-09
v 0.007449455 0.07189178 -5.819406E-09
v -0.01086784 0.1973406 -0.03172647
v -0.01086784 0.07189178 -0.03172647
vt 0.7248239 0.4236903
vt 0.7248239 0.4236903
vt 0.7248239 0.4236903
vt 0.7248239 0.4236905
vt 0.7248239 0.4236905
vt 0.7248239 0.4236905
vt 0.7248239 0.3736419
vt 0.7248239 0.3736419
vt 0.7248239 0.3736419
vt 0.7248239 0.3736418
vt 0.7248239 0.3736418
vt 0.7248239 0.3736418
vt 0.1163972 0.9880672
vt 0.1163972 0.9880669
vt 0.1163972 0.9880668
vt 0.116397 0.9880667
vt 0.116397 0.9880673
vt 0.1163972 0.9880669
vt 0.03382957 0.9859044
vt 0.03382957 0.9859043
vt 0.03382963 0.9859044
vt 0.03382963 0.9859043
vt 0.03382963 0.9859044
vt 0.03382963 0.9859044
vt 0.6718171 0.9605932
vt 0.6718171 0.9605932
vt 0.6718171 0.9605932
vt 0.6718174 0.9605932
vt 0.6718171 0.9605932
vt 0.6718171 0.9605932
vt 0.6718171 0.9605932
vt 0.6718171 0.9605932
vt 0.6718171 0.9605932
vt 0.6718174 0.9605932
vt 0.6718171 0.9605932
vt 0.6718171 0.9605932
vt 0.6718174 0.9605932
vt 0.6718172 0.9605932
vt 0.6718172 0.9605932
vt 0.6718174 0.9605932
vt 0.6718174 0.9605932
vt 0.6718175 0.9605932
vt 0.6718174 0.9495985
vt 0.6718172 0.9495985
vt 0.6718172 0.9495985
vt 0.6718174 0.9495986
vt 0.6718174 0.9495986
vt 0.6718175 0.9495986
vt 0.6718174 0.9605932
vt 0.6718174 0.9605932
vt 0.6718174 0.9605932
vt 0.6718174 0.9605932
vt 0.6718174 0.9605932
vt 0.6718175 0.9605932
vt 0.6718174 0.9605932
vt 0.6718174 0.9605932
vt 0.6718174 0.9605932
vt 0.6718175 0.9605932
vt 0.6718174 0.9605932
vt 0.6718174 0.9605932
vt 0.5770507 0.9633237
vt 0.5770507 0.9633237
vt 0.5770507 0.9633237
vt 0.5770507 0.9633237
vt 0.5770507 0.9633237
vt 0.5770507 0.9633237
vt 0.5770507 0.97737
vt 0.5770507 0.97737
vt 0.5770507 0.97737
vt 0.5770507 0.97737
vt 0.5770507 0.97737
vt 0.5770507 0.97737
vt 0.5770507 0.9352311
vt 0.5770507 0.9352311
vt 0.5770507 0.9352311
vt 0.5770507 0.9352311
vt 0.5770507 0.9352311
vt 0.5770507 0.9352311
vt 0.5770507 0.97737
vt 0.5770507 0.97737
vt 0.5770507 0.97737
vt 0.5770507 0.97737
vt 0.5770507 0.97737
vt 0.5770507 0.97737
vt 0.5770508 0.9633237
vt 0.5770508 0.9633237
vt 0.5770508 0.9633237
vt 0.5770507 0.9633237
vt 0.5770508 0.9633237
vt 0.5770507 0.9633237
vt 0.7248241 0.4236903
vt 0.7248241 0.3736419
vt 0.1163972 0.9880672
vt 0.5770507 0.9633237
vt 0.03382954 0.9859044
vt 0.03382954 0.9859044
vt 0.03382954 0.9859043
vt 0.03382945 0.9859044
vt 0.03382945 0.9859043
vt 0.03382954 0.9859044
vt 0.1163968 0.9880672
vt 0.1163968 0.9880669
vt 0.1163968 0.9880668
vt 0.116397 0.9880667
vt 0.116397 0.9880673
vt 0.1163974 0.9880669
vt 0.6718174 0.9375567
vt 0.6718174 0.9375567
vt 0.6718175 0.9375567
vt 0.6718175 0.9375566
vt 0.6718174 0.9375567
vt 0.6718174 0.9375567
vt 0.6718171 0.9815354
vt 0.6718174 0.9815355
vt 0.6718174 0.9815355
vt 0.6718171 0.9815354
vt 0.6718171 0.9815355
vt 0.6718171 0.9815355
vt 0.6718171 0.9307504
vt 0.6718171 0.9307505
vt 0.6718171 0.9307505
vt 0.6718171 0.9307504
vt 0.6718172 0.9307505
vt 0.6718172 0.9307504
vt 0.6718171 0.9815355
vt 0.6718171 0.9815355
vt 0.6718171 0.9815354
vt 0.6718171 0.9815354
vt 0.6718171 0.9815355
vt 0.6718171 0.9815354
vt 0.5770507 0.9522569
vt 0.5770507 0.9522569
vt 0.5770508 0.9522569
vt 0.5770508 0.9522569
vt 0.5770508 0.9522569
vt 0.5770508 0.9522569
vt 0.03946783 0.9548941
vt 0.03946783 0.9548938
vt 0.03946772 0.9548939
vt 0.03946772 0.9548941
vt 0.03946769 0.9548938
vt 0.03946769 0.9548941
vt 0.5770507 0.9633237
vt 0.5770507 0.9633237
vt 0.5770507 0.9633237
vt 0.5770507 0.9633237
vt 0.5770507 0.9633237
vt 0.5770507 0.9633237
vt 0.5770507 0.9633237
vt 0.5770507 0.9633237
vt 0.5770507 0.9633237
vt 0.5770508 0.9633237
vt 0.5770507 0.9633237
vt 0.5770507 0.9522569
vt 0.5770507 0.9522569
vt 0.5770507 0.9522569
vt 0.5770507 0.9522569
vt 0.5770507 0.9522569
vt 0.5770507 0.9522569
vt 0.1163971 0.9880672
vt 0.3835879 0.3745833
vt 0.383588 0.4143981
vt 0.383588 0.3745833
vt 0.3835879 0.4143981
vt 0.3835882 0.3745833
vt 0.3835882 0.4143981
vt 0.383588 0.3745833
vt 0.383588 0.4143981
vt 0.383588 0.3745833
vt 0.383588 0.4143981
vt 0.383588 0.3745833
vt 0.383588 0.4143981
vn -0.5000002 0 -0.8660253
vn 0.4999998 0 -0.8660255
vn 1 0 0
vn 0.5000001 0 0.8660253
vn -0.5 0 0.8660254
vn -1 0 1.032383E-07
vn 1 0 0
vn 0.4999999 0 -0.8660255
vn -0.5000002 0 -0.8660253
vn -1 0 1.032383E-07
vn -0.5 0 0.8660254
vn 0.5000001 0 0.8660253
vn 1 0 0
vn 0.4999999 0 -0.8660255
vn -0.5000002 0 -0.8660253
vn -1 0 0
vn -0.5 0 0.8660254
vn 0.5000001 0 0.8660253
vn -1 0 0
vn -0.5000002 0 0.8660253
vn 0.5000004 0 0.8660253
vn 1 0 -7.226679E-07
vn 0.4999996 0 -0.8660257
vn -0.5000003 0 -0.8660253
vn -0.4330129 0.5000001 -0.7499999
vn 0.4330125 0.5 -0.7500001
vn 0.8660254 0.5000001 -1.532822E-07
vn 0.4330128 0.5 0.7499999
vn -0.4330126 0.5 0.7500001
vn -0.8660254 0.5 1.44741E-07
vn -0.4330129 -0.5000001 -0.7499999
vn 0.4330125 -0.5 -0.7500001
vn 0.8660254 -0.5000001 -1.633905E-07
vn 0.4330128 -0.5 0.7499999
vn -0.4330126 -0.5 0.7500001
vn -0.8660254 -0.5 1.346328E-07
vn -0.5000002 0 -0.8660253
vn 0.4999999 0 -0.8660255
vn 1 0 -1.37651E-07
vn 0.5000001 0 0.8660253
vn -0.5 0 0.8660254
vn -1 0 1.204447E-07
vn -0.5000002 0 -0.8660253
vn 0.4999999 0 -0.8660255
vn 1 0 -1.37651E-07
vn 0.5000001 0 0.8660253
vn -0.5 0 0.8660254
vn -1 0 1.204447E-07
vn -0.4330129 0.5000001 -0.7499999
vn 0.4330126 0.5000001 -0.7500001
vn 0.8660254 0.5000001 -1.937151E-07
vn 0.4330128 0.5000001 0.7499998
vn -0.4330128 0.5000001 0.7499999
vn -0.8660254 0.5 0
vn -0.4330129 -0.5000001 -0.7499998
vn 0.4330127 -0.5000001 -0.75
vn 0.8660254 -0.5000001 0
vn 0.4330128 -0.5000001 0.75
vn -0.4330127 -0.5 0.75
vn -0.8660254 -0.5 0
vn -0.4330128 0.5000001 -0.7499999
vn 0.4330126 0.5000001 -0.75
vn 0.8660254 0.5 -1.240061E-07
vn 0.4330129 0.4999999 0.7499999
vn -0.4330124 0.4999998 0.7500002
vn -0.8660254 0.5000001 3.081276E-07
vn -0.5 0 -0.8660254
vn 0.4999997 0 -0.8660255
vn 1 0 -5.333977E-07
vn 0.5000004 0 0.8660251
vn -0.4999998 0 0.8660255
vn -1 0 0
vn -0.4308128 0.5075432 -0.7461905
vn 0.4308125 0.5075432 -0.7461907
vn 0.8616261 0.5075437 -1.370506E-06
vn 0.4308135 0.5075442 0.7461894
vn -0.4308135 0.5075442 0.7461894
vn -0.8616261 0.5075437 -1.177765E-06
vn -0.4351902 -0.4923794 -0.7537718
vn 0.43519 -0.4923794 -0.753772
vn 0.8703806 -0.4923796 -6.911286E-07
vn 0.4351905 -0.4923799 0.7537713
vn -0.4351905 -0.4923798 0.7537714
vn -0.8703806 -0.4923796 -4.964294E-07
vn -0.4330129 0.5 -0.7499999
vn 0.4330125 0.5 -0.7500001
vn 0.8660253 0.5000001 0
vn 0.4330126 0.5 0.7500001
vn -0.4330125 0.5 0.7500001
vn -0.8660254 0.5 1.788139E-07
vn 1 0 0
vn 1 0 -1.204447E-07
vn 1 0 -1.37651E-07
vn 1 0 0
vn -0.5000002 0 -0.8660253
vn -1 0 0
vn -0.5000001 0 0.8660253
vn 0.5000002 0 0.8660253
vn 1 0 -4.301595E-07
vn 0.4999997 0 -0.8660255
vn 1 0 0
vn 0.4999999 0 -0.8660255
vn -0.5000002 0 -0.8660253
vn -1 0 1.032383E-07
vn -0.5 0 0.8660254
vn 0.5000001 0 0.8660253
vn -0.4330129 0.5000001 -0.7499999
vn 0.4330125 0.5 -0.7500001
vn 0.8660254 0.5000001 -1.532822E-07
vn -0.8660254 0.5 1.44741E-07
vn 0.4330128 0.5 0.7499999
vn -0.4330126 0.5 0.7500001
vn 0.8660254 -0.5000001 -1.633905E-07
vn 0.4330125 -0.5 -0.7500001
vn -0.4330129 -0.5000001 -0.7499999
vn -0.8660254 -0.5 1.346328E-07
vn 0.4330128 -0.5 0.7499999
vn -0.4330126 -0.5 0.7500001
vn -0.4330129 0.5000001 -0.7499999
vn 0.4330126 0.5000001 -0.7500001
vn 0.8660254 0.5000001 -1.937151E-07
vn -0.8660254 0.5 0
vn 0.4330128 0.5000001 0.7499998
vn -0.4330128 0.5000001 0.7499999
vn 0.8660254 -0.5000001 0
vn 0.4330127 -0.5000001 -0.75
vn -0.4330129 -0.5000001 -0.7499998
vn -0.8660254 -0.5 0
vn 0.4330128 -0.5000001 0.75
vn -0.4330127 -0.5 0.75
vn -0.4330128 0.5000001 -0.7499999
vn 0.4330126 0.5000001 -0.75
vn 0.8660254 0.5 -1.240061E-07
vn -0.8660254 0.5000001 3.081276E-07
vn 0.4330129 0.4999999 0.7499999
vn -0.4330124 0.4999998 0.7500002
vn -0.4308128 0.5075432 -0.7461905
vn 0.4308125 0.5075432 -0.7461907
vn 0.8616261 0.5075437 -1.370506E-06
vn -0.8616261 0.5075437 -1.177765E-06
vn 0.4308135 0.5075442 0.7461894
vn -0.4308135 0.5075442 0.7461894
vn 0.8703806 -0.4923796 -6.911286E-07
vn 0.43519 -0.4923794 -0.753772
vn -0.4351902 -0.4923794 -0.7537718
vn -0.8703806 -0.4923796 -4.964294E-07
vn 0.4351905 -0.4923799 0.7537713
vn -0.4351905 -0.4923798 0.7537714
vn 0.4999997 0 -0.8660255
vn -0.5000002 0 -0.8660253
vn 0.5 0 0.8660254
vn -0.4999998 0 0.8660255
vn -1 0 2.064765E-07
vn -0.4330129 0.5 -0.7499999
vn 0.4330125 0.5 -0.7500001
vn 0.8660253 0.5000001 0
vn -0.8660254 0.5 1.788139E-07
vn 0.4330126 0.5 0.7500001
vn -0.4330125 0.5 0.7500001
vn 1 0 -1.204447E-07
vn -1 0 0
vn -0.5000002 0 -0.8660253
vn -0.5000002 0 -0.8660253
vn -1 0 0
vn -0.5000001 0 0.8660253
vn -0.5 0 0.8660254
vn 0.5000002 0 0.8660253
vn 0.5000001 0 0.8660253
vn 1 0 -4.301595E-07
vn 1 0 0
vn 0.4999997 0 -0.8660255
vn 0.4999999 0 -0.8660255
g wpn_syringe_geo_0
f 7/7/7 3/3/3 8/8/8
f 3/3/3 2/2/2 8/8/8
f 8/8/8 2/2/2 9/9/9
f 2/2/2 1/1/1 9/9/9
f 9/9/9 1/1/1 10/10/10
f 1/1/1 6/6/6 10/10/10
f 10/10/10 6/6/6 11/11/11
f 6/6/6 5/5/5 11/11/11
f 11/11/11 5/5/5 12/12/12
f 5/5/5 4/4/4 12/12/12
f 12/12/12 4/4/4 7/7/7
f 4/4/4 3/3/3 7/7/7
f 13/13/13 101/101/101 14/14/14
f 101/101/101 102/102/102 14/14/14
f 14/14/14 102/102/102 15/15/15
f 102/102/102 103/103/103 15/15/15
f 15/15/15 103/103/103 16/16/16
f 103/103/103 104/104/104 16/16/16
f 16/16/16 104/104/104 17/17/17
f 104/104/104 105/105/105 17/17/17
f 17/17/17 105/105/105 18/18/18
f 105/105/105 106/106/106 18/18/18
f 18/18/18 106/106/106 13/13/13
f 106/106/106 101/101/101 13/13/13
f 19/19/19 96/96/96 20/20/20
f 96/96/96 97/97/97 20/20/20
f 20/20/20 97/97/97 21/21/21
f 97/97/97 98/98/98 21/21/21
f 21/21/21 98/98/98 22/22/22
f 98/98/98 99/99/99 22/22/22
f 22/22/22 99/99/99 23/23/23
f 99/99/99 100/100/100 23/23/23
f 23/23/23 100/100/100 24/24/24
f 100/100/100 95/95/95 24/24/24
f 24/24/24 95/95/95 19/19/19
f 95/95/95 96/96/96 19/19/19
f 26/26/26 32/32/32 25/25/25
f 32/32/32 31/31/31 25/25/25
f 27/27/27 33/33/33 26/26/26
f 33/33/33 32/32/32 26/26/26
f 28/28/28 34/34/34 27/27/27
f 34/34/34 33/33/33 27/27/27
f 29/29/29 35/35/35 28/28/28
f 35/35/35 34/34/34 28/28/28
f 30/30/30 36/36/36 29/29/29
f 36/36/36 35/35/35 29/29/29
f 25/25/25 31/31/31 30/30/30
f 31/31/31 36/36/36 30/30/30
f 109/109/109 108/108/108 107/107/107
f 107/107/107 110/110/110 109/109/109
f 110/110/110 111/111/111 109/109/109
f 110/110/110 112/112/112 111/111/111
f 115/115/115 114/114/114 113/113/113
f 113/113/113 116/116/116 115/115/115
f 113/113/113 117/117/117 116/116/116
f 117/117/117 118/118/118 116/116/116
f 38/38/38 44/44/44 37/37/37
f 44/44/44 43/43/43 37/37/37
f 39/39/39 45/45/45 38/38/38
f 45/45/45 44/44/44 38/38/38
f 40/40/40 46/46/46 39/39/39
f 46/46/46 45/45/45 39/39/39
f 41/41/41 47/47/47 40/40/40
f 47/47/47 46/46/46 40/40/40
f 42/42/42 48/48/48 41/41/41
f 48/48/48 47/47/47 41/41/41
f 37/37/37 43/43/43 42/42/42
f 43/43/43 48/48/48 42/42/42
f 50/50/50 56/56/56 49/49/49
f 56/56/56 55/55/55 49/49/49
f 51/51/51 57/57/57 50/50/50
f 57/57/57 56/56/56 50/50/50
f 52/52/52 58/58/58 51/51/51
f 58/58/58 57/57/57 51/51/51
f 53/53/53 59/59/59 52/52/52
f 59/59/59 58/58/58 52/52/52
f 54/54/54 60/60/60 53/53/53
f 60/60/60 59/59/59 53/53/53
f 49/49/49 55/55/55 54/54/54
f 55/55/55 60/60/60 54/54/54
f 121/121/121 120/120/120 119/119/119
f 119/119/119 122/122/122 121/121/121
f 122/122/122 123/123/123 121/121/121
f 122/122/122 124/124/124 123/123/123
f 127/127/127 126/126/126 125/125/125
f 125/125/125 128/128/128 127/127/127
f 125/125/125 129/129/129 128/128/128
f 129/129/129 130/130/130 128/128/128
f 62/62/62 68/68/68 61/61/61
f 68/68/68 67/67/67 61/61/61
f 63/63/63 69/69/69 62/62/62
f 69/69/69 68/68/68 62/62/62
f 64/64/64 70/70/70 63/63/63
f 70/70/70 69/69/69 63/63/63
f 65/65/65 71/71/71 64/64/64
f 71/71/71 70/70/70 64/64/64
f 66/66/66 72/72/72 65/65/65
f 72/72/72 71/71/71 65/65/65
f 61/61/61 67/67/67 66/66/66
f 67/67/67 72/72/72 66/66/66
f 133/133/133 132/132/132 131/131/131
f 131/131/131 134/134/134 133/133/133
f 134/134/134 135/135/135 133/133/133
f 134/134/134 136/136/136 135/135/135
f 74/74/74 80/80/80 73/73/73
f 80/80/80 79/79/79 73/73/73
f 75/75/75 81/81/81 74/74/74
f 81/81/81 80/80/80 74/74/74
f 76/76/76 82/82/82 75/75/75
f 82/82/82 81/81/81 75/75/75
f 77/77/77 83/83/83 76/76/76
f 83/83/83 82/82/82 76/76/76
f 78/78/78 84/84/84 77/77/77
f 84/84/84 83/83/83 77/77/77
f 73/73/73 79/79/79 78/78/78
f 79/79/79 84/84/84 78/78/78
f 139/139/139 138/138/138 137/137/137
f 137/137/137 140/140/140 139/139/139
f 140/140/140 141/141/141 139/139/139
f 140/140/140 142/142/142 141/141/141
f 145/145/145 144/144/144 143/143/143
f 143/143/143 146/146/146 145/145/145
f 143/143/143 147/147/147 146/146/146
f 147/147/147 148/148/148 146/146/146
f 86/86/86 149/149/149 85/85/85
f 149/149/149 150/150/150 85/85/85
f 87/87/87 94/94/94 86/86/86
f 94/94/94 149/149/149 86/86/86
f 88/88/88 151/151/151 87/87/87
f 151/151/151 94/94/94 87/87/87
f 89/89/89 152/152/152 88/88/88
f 152/152/152 151/151/151 88/88/88
f 90/90/90 153/153/153 89/89/89
f 153/153/153 152/152/152 89/89/89
f 85/85/85 150/150/150 90/90/90
f 150/150/150 153/153/153 90/90/90
f 156/156/156 155/155/155 154/154/154
f 154/154/154 157/157/157 156/156/156
f 157/157/157 158/158/158 156/156/156
f 157/157/157 159/159/159 158/158/158
f 92/92/92 91/91/91 8/8/8
f 91/91/91 2/2/2 8/8/8
f 8/8/8 2/2/2 9/9/9
f 2/2/2 1/1/1 9/9/9
f 9/9/9 1/1/1 10/10/10
f 1/1/1 6/6/6 10/10/10
f 10/10/10 6/6/6 11/11/11
f 6/6/6 5/5/5 11/11/11
f 11/11/11 5/5/5 12/12/12
f 5/5/5 4/4/4 12/12/12
f 12/12/12 4/4/4 92/92/92
f 4/4/4 91/91/91 92/92/92
f 93/93/93 160/160/160 14/14/14
f 160/160/160 102/102/102 14/14/14
f 14/14/14 102/102/102 15/15/15
f 102/102/102 103/103/103 15/15/15
f 15/15/15 103/103/103 16/16/16
f 103/103/103 104/104/104 16/16/16
f 16/16/16 104/104/104 17/17/17
f 104/104/104 105/105/105 17/17/17
f 17/17/17 105/105/105 18/18/18
f 105/105/105 106/106/106 18/18/18
f 18/18/18 106/106/106 93/93/93
f 106/106/106 160/160/160 93/93/93
f 163/163/163 162/162/162 161/161/161
f 162/162/162 164/164/164 161/161/161
f 161/161/161 164/164/164 165/165/165
f 164/164/164 166/166/166 165/165/165
f 165/165/165 166/166/166 167/167/167
f 166/166/166 168/168/168 167/167/167
f 167/167/167 168/168/168 169/169/169
f 168/168/168 170/170/170 169/169/169
f 169/169/169 170/170/170 171/171/171
f 170/170/170 172/172/172 171/171/171
f 171/171/171 172/172/172 163/163/163
f 172/172/172 162/162/162 163/163/163
