g wpn_axeBodySprayHers_geo
v -0.06421601 -0.1869113 -4.440125E-10
v -0.05195183 -0.1869113 0.03774521
v -0.01984385 -0.1869113 0.06107307
v 0.01984384 -0.1869113 0.06107307
v 0.05195182 -0.1869113 0.03774517
v 0.06421607 -0.1869113 -4.440125E-10
v -6.534609E-10 -0.1869113 -4.440125E-10
v -6.534609E-10 0.1344035 -4.440125E-10
v -0.05195183 0.02270912 0.03774525
v -0.06421601 0.02270912 -4.440125E-10
v 0.06421607 0.02270912 -4.440125E-10
v 0.05195182 0.02270912 0.03774517
v 0.01984384 0.02270912 0.06107307
v -0.01984381 0.02270912 0.06107307
v -0.05195183 -0.01440138 0.03774525
v -0.06421601 -0.01440138 -4.440125E-10
v 0.06421607 -0.01440138 -4.440125E-10
v 0.05195182 -0.01440138 0.03774517
v 0.01984384 -0.01440138 0.06107307
v -0.01984381 -0.01440138 0.06107307
v -0.01804539 0.02270912 0.0555381
v -0.04724358 0.02270912 0.03432446
v -0.05839623 0.02270912 -4.440125E-10
v 0.05839621 0.02270912 -4.440125E-10
v 0.04724357 0.02270912 0.03432449
v 0.01804544 0.02270912 0.0555381
v -0.01804539 -0.002849092 0.0555381
v -0.04724358 -0.002849092 0.03432446
v -0.05839623 -0.002849092 -4.440125E-10
v 0.05839621 -0.002849092 -4.440125E-10
v 0.04724357 -0.002849092 0.03432449
v 0.01804544 -0.002849092 0.0555381
v -0.06421601 0.1273213 -4.440125E-10
v -0.054217 0.1344035 -4.440125E-10
v -0.05195183 0.1273213 0.03774521
v -0.04386246 0.1344035 0.03186794
v -0.01984385 0.1273213 0.06107307
v -0.01675398 0.1344035 0.05156342
v 0.01984384 0.1273213 0.06107307
v 0.01675397 0.1344035 0.05156342
v 0.05195182 0.1273213 0.03774517
v 0.04386249 0.1344035 0.03186794
v 0.06421607 0.1273213 -4.440125E-10
v 0.05421699 0.1344035 -4.440125E-10
v -0.05195183 -0.1869113 -0.03774521
v -0.05195183 -0.01440138 -0.03774525
v -0.01984385 -0.1869113 -0.06107307
v -0.01984381 -0.01440138 -0.06107307
v 0.01984384 -0.1869113 -0.06107307
v 0.01984384 -0.01440138 -0.06107307
v 0.05195182 -0.1869113 -0.03774517
v 0.05195182 -0.01440138 -0.03774517
v -0.04386246 0.1344035 -0.03186794
v -0.01675398 0.1344035 -0.05156342
v 0.01675397 0.1344035 -0.05156342
v 0.04386249 0.1344035 -0.03186794
v -0.05195183 0.02270912 -0.03774525
v -0.05195183 0.1273213 -0.03774521
v 0.05195182 0.02270912 -0.03774517
v 0.05195182 0.1273213 -0.03774517
v 0.01984384 0.02270912 -0.06107307
v 0.01984384 0.1273213 -0.06107307
v -0.01984381 0.02270912 -0.06107307
v -0.01984385 0.1273213 -0.06107307
v -0.04724358 -0.002849092 -0.03432446
v 0.04724357 -0.002849092 -0.03432449
v 0.01804544 -0.002849092 -0.0555381
v -0.01804539 -0.002849092 -0.0555381
v -0.04724358 0.02270912 -0.03432446
v -0.01804539 0.02270912 -0.0555381
v 0.04724357 0.02270912 -0.03432449
v 0.01804544 0.02270912 -0.0555381
v -0.05195183 -0.1869113 0.03774521
v -0.06421601 -0.1869113 -4.440125E-10
v -0.01984385 -0.1869113 0.06107307
v 0.01984384 -0.1869113 0.06107307
v 0.05195182 -0.1869113 0.03774517
v 0.06421607 -0.1869113 -4.440125E-10
v -0.01984381 0.02270912 0.06107307
v -0.05195183 0.02270912 0.03774525
v -0.06421601 0.02270912 -4.440125E-10
v 0.06421607 0.02270912 -4.440125E-10
v 0.05195182 0.02270912 0.03774517
v 0.01984384 0.02270912 0.06107307
v -0.01804539 0.02270912 0.0555381
v -0.04724358 0.02270912 0.03432446
v -0.05839623 0.02270912 -4.440125E-10
v 0.05839621 0.02270912 -4.440125E-10
v 0.04724357 0.02270912 0.03432449
v 0.01804544 0.02270912 0.0555381
v -0.054217 0.1344035 -4.440125E-10
v -0.05195183 0.1273213 0.03774521
v -0.06421601 0.1273213 -4.440125E-10
v -0.04386246 0.1344035 0.03186794
v -0.01984385 0.1273213 0.06107307
v -0.01675398 0.1344035 0.05156342
v 0.01984384 0.1273213 0.06107307
v 0.01675397 0.1344035 0.05156342
v 0.05195182 0.1273213 0.03774517
v 0.04386249 0.1344035 0.03186794
v 0.06421607 0.1273213 -4.440125E-10
v 0.05421699 0.1344035 -4.440125E-10
v -0.06421601 -0.1869113 -4.440125E-10
v -0.06421601 -0.01440138 -4.440125E-10
v 0.06421607 -0.01440138 -4.440125E-10
v 0.06421607 -0.1869113 -4.440125E-10
v -0.05195183 -0.1869113 -0.03774521
v -0.06421601 -0.1869113 -4.440125E-10
v -6.534609E-10 -0.1869113 -4.440125E-10
v -0.01984385 -0.1869113 -0.06107307
v 0.01984384 -0.1869113 -0.06107307
v 0.05195182 -0.1869113 -0.03774517
v 0.06421607 -0.1869113 -4.440125E-10
v -0.054217 0.1344035 -4.440125E-10
v -6.534609E-10 0.1344035 -4.440125E-10
v 0.05421699 0.1344035 -4.440125E-10
v -0.06421601 0.02270912 -4.440125E-10
v -0.06421601 0.1273213 -4.440125E-10
v 0.06421607 0.1273213 -4.440125E-10
v 0.06421607 0.02270912 -4.440125E-10
v -0.05839623 -0.002849092 -4.440125E-10
v 0.05839621 -0.002849092 -4.440125E-10
v -0.01984381 0.02270912 -0.06107307
v -0.05195183 0.02270912 -0.03774525
v -0.05839623 0.02270912 -4.440125E-10
v -0.06421601 0.02270912 -4.440125E-10
v 0.06421607 0.02270912 -4.440125E-10
v 0.05195182 0.02270912 -0.03774517
v 0.05839621 0.02270912 -4.440125E-10
v 0.01984384 0.02270912 -0.06107307
v -0.01804539 0.02270912 -0.0555381
v -0.04724358 0.02270912 -0.03432446
v -0.05839623 0.02270912 -4.440125E-10
v 0.05839621 0.02270912 -4.440125E-10
v 0.04724357 0.02270912 -0.03432449
v 0.01804544 0.02270912 -0.0555381
v -0.054217 0.1344035 -4.440125E-10
v -0.05195183 0.1273213 -0.03774521
v -0.04386246 0.1344035 -0.03186794
v -0.06421601 0.1273213 -4.440125E-10
v -0.01984385 0.1273213 -0.06107307
v -0.01675398 0.1344035 -0.05156342
v 0.01984384 0.1273213 -0.06107307
v 0.01675397 0.1344035 -0.05156342
v 0.05195182 0.1273213 -0.03774517
v 0.04386249 0.1344035 -0.03186794
v 0.06421607 0.1273213 -4.440125E-10
v 0.05421699 0.1344035 -4.440125E-10
vt -0.01525304 0.01549275
vt 0.1925401 0.01549275
vt 0.4003333 0.01549276
vt 0.6081263 0.01549277
vt 0.8159194 0.01549278
vt 1.023712 0.01549279
vt 0.05461898 0.05401725
vt 0.1827817 0.9275205
vt 0.19254 0.6572938
vt 0.02302277 0.6572938
vt 1.03175 0.6572938
vt 0.8159194 0.6572938
vt 0.6081263 0.6572938
vt 0.4003333 0.6572938
vt 0.19254 0.5339926
vt -0.01525307 0.5339926
vt 1.023712 0.5339926
vt 0.8159194 0.5339926
vt 0.6081263 0.5339926
vt 0.4003333 0.5339926
vt 0.04993272 0.05603337
vt 0.04993274 0.05603337
vt 0.04993274 0.05603337
vt 0.04993272 0.05603337
vt 0.04993274 0.05603337
vt 0.04993274 0.05603337
vt 0.4003333 0.5687484
vt 0.19254 0.5687484
vt -0.01525307 0.5687484
vt 1.023712 0.5687484
vt 0.8159194 0.5687484
vt 0.6081263 0.5687484
vt 0.02302277 0.9712684
vt 0.1827817 0.9275205
vt 0.19254 0.9712684
vt 0.1827817 0.9275205
vt 0.4003333 0.9712684
vt 0.1827817 0.9275205
vt 0.6081263 0.9712684
vt 0.1827817 0.9275205
vt 0.8159194 0.9712684
vt 0.1827817 0.9275205
vt 1.03175 0.9712684
vt 0.1827817 0.9275205
vt 0.8159193 0.01320729
vt 0.8159193 0.5339926
vt 0.608126 0.01320729
vt 0.608126 0.5339926
vt 0.400333 0.01320729
vt 0.400333 0.5339926
vt 0.1925399 0.01320729
vt 0.1925399 0.5339926
vt 0.2893507 0.9275205
vt 0.2893507 0.9275205
vt 0.2893507 0.9275205
vt 0.2893507 0.9275205
vt 0.8159193 0.6572938
vt 0.8159193 0.9712684
vt 0.1925399 0.6572938
vt 0.1925399 0.9712684
vt 0.400333 0.6572938
vt 0.400333 0.9712684
vt 0.608126 0.6572938
vt 0.608126 0.9712684
vt 0.8159193 0.5687484
vt 0.1925399 0.5687484
vt 0.400333 0.5687484
vt 0.608126 0.5687484
vt 0.9585266 0.05603337
vt 0.9585266 0.05603337
vt 0.9585266 0.05603337
vt 0.9585266 0.05603337
vt 0.05461896 0.05401725
vt 0.05461898 0.05401725
vt 0.05461896 0.05401725
vt 0.05461896 0.05401725
vt 0.05461896 0.05401725
vt 0.05461896 0.05401725
vt 0.04993272 0.05603337
vt 0.04993274 0.05603337
vt 0.04993274 0.05603337
vt 0.04993272 0.05603337
vt 0.04993274 0.05603337
vt 0.04993274 0.05603337
vt 0.4003333 0.6547137
vt 0.19254 0.6547137
vt -0.01525307 0.6547137
vt 1.023712 0.6547137
vt 0.8159194 0.6547137
vt 0.6081263 0.6547137
vt -0.01525307 0.9946334
vt 0.19254 0.9924902
vt -0.01525307 0.9924902
vt 0.19254 0.9946334
vt 0.4003333 0.9924902
vt 0.4003333 0.9946334
vt 0.6081263 0.9924902
vt 0.6081263 0.9946334
vt 0.8159194 0.9924902
vt 0.8159194 0.9946334
vt 1.023712 0.9924902
vt 1.023712 0.9946334
vt 1.023712 0.01320729
vt 1.023712 0.5339926
vt -0.01525307 0.5339926
vt -0.01525307 0.01320729
vt 0.9538404 0.05401725
vt 0.9538404 0.05401725
vt 0.9538404 0.05401725
vt 0.9538404 0.05401725
vt 0.9538404 0.05401725
vt 0.9538404 0.05401725
vt 0.9538404 0.05401725
vt 0.2893507 0.9275205
vt 0.2893507 0.9275205
vt 0.2893507 0.9275205
vt 1.03175 0.6572938
vt 1.03175 0.9712684
vt 0.02302289 0.9712684
vt 0.02302289 0.6572938
vt 1.023712 0.5687484
vt -0.01525307 0.5687484
vt 0.9585266 0.05603337
vt 0.9585266 0.05603337
vt 0.9585266 0.05603337
vt 0.9585266 0.05603337
vt 0.9585266 0.05603337
vt 0.9585266 0.05603337
vt 0.9585266 0.05603337
vt 0.9585266 0.05603337
vt 0.608126 0.6555459
vt 0.8159193 0.6555459
vt 1.023712 0.6555459
vt -0.01525307 0.6555459
vt 0.1925399 0.6555459
vt 0.400333 0.6555459
vt 1.023712 0.9946334
vt 0.8159193 0.9924902
vt 0.8159193 0.9946334
vt 1.023712 0.9924902
vt 0.608126 0.9924902
vt 0.608126 0.9946334
vt 0.400333 0.9924902
vt 0.400333 0.9946334
vt 0.1925399 0.9924902
vt 0.1925399 0.9946334
vt -0.01525307 0.9924902
vt -0.01525307 0.9946334
vn -0.6891517 -0.724617 0
vn -0.5575356 -0.724617 0.405073
vn -0.2129598 -0.7246171 0.6554221
vn 0.2129602 -0.7246171 0.6554219
vn 0.5575356 -0.7246169 0.4050734
vn 0.6891515 -0.7246174 -1.127088E-07
vn 0 -1 0
vn 0 1 0
vn -0.5575355 -0.7246169 0.4050732
vn -0.6891517 -0.724617 0
vn 0.6891514 -0.7246174 0
vn 0.5575355 -0.7246168 0.4050736
vn 0.2129601 -0.7246171 0.655422
vn -0.2129597 -0.7246171 0.6554222
vn -0.7868763 0.2323488 0.571699
vn -0.9726327 0.2323482 0
vn 0.9726325 0.2323492 0
vn 0.7868761 0.2323481 0.5716994
vn 0.3005607 0.2323489 0.9250283
vn -0.3005599 0.2323498 0.9250283
vn -0.2129591 -0.7246169 0.6554225
vn -0.5575352 -0.7246172 0.4050733
vn -0.6891519 -0.7246169 0
vn 0.6891519 -0.7246169 0
vn 0.5575353 -0.7246171 0.4050732
vn 0.2129591 -0.7246169 0.6554226
vn -0.3005593 0.2323498 0.9250285
vn -0.7868761 0.2323489 0.5716992
vn -0.9726327 0.2323482 0
vn 0.9726325 0.2323491 0
vn 0.7868762 0.2323483 0.5716993
vn 0.3005598 0.2323488 0.9250286
vn -0.8843219 0.4668778 0
vn -0.3006524 0.9537337 0
vn -0.7154313 0.4668778 0.5197913
vn -0.2432329 0.9537337 0.176719
vn -0.2732707 0.4668783 0.8410398
vn -0.09290668 0.9537339 0.285937
vn 0.2732712 0.4668781 0.8410396
vn 0.09290692 0.9537339 0.2859371
vn 0.7154313 0.4668777 0.5197915
vn 0.2432329 0.9537337 0.1767191
vn 0.8843216 0.4668784 0
vn 0.300652 0.9537339 0
vn -0.5575356 -0.724617 -0.4050731
vn -0.7868763 0.2323488 -0.571699
vn -0.2129598 -0.7246171 -0.6554221
vn -0.3005599 0.2323498 -0.9250283
vn 0.2129602 -0.7246171 -0.6554219
vn 0.3005607 0.2323489 -0.9250283
vn 0.5575356 -0.7246169 -0.4050734
vn 0.7868761 0.2323482 -0.5716994
vn -0.2432329 0.9537339 -0.1767188
vn -0.09290671 0.953734 -0.285937
vn 0.0929069 0.9537339 -0.2859371
vn 0.243233 0.9537337 -0.1767192
vn -0.5575355 -0.7246169 -0.4050732
vn -0.7154315 0.4668779 -0.5197912
vn 0.5575356 -0.7246168 -0.4050736
vn 0.7154313 0.4668776 -0.5197915
vn 0.2129601 -0.7246171 -0.6554219
vn 0.2732712 0.4668782 -0.8410396
vn -0.2129597 -0.7246171 -0.6554222
vn -0.2732707 0.4668784 -0.8410397
vn -0.7868761 0.2323489 -0.5716992
vn 0.7868762 0.2323483 -0.5716993
vn 0.3005598 0.2323488 -0.9250286
vn -0.3005593 0.2323498 -0.9250285
vn -0.5575352 -0.7246172 -0.4050733
vn -0.212959 -0.7246169 -0.6554226
vn 0.5575354 -0.7246172 -0.4050731
vn 0.2129591 -0.7246169 -0.6554226
vn -0.5575356 -0.724617 0.405073
vn -0.6891517 -0.724617 0
vn -0.2129598 -0.7246171 0.6554221
vn 0.2129602 -0.7246171 0.6554219
vn 0.5575356 -0.7246169 0.4050734
vn 0.6891515 -0.7246174 -1.127088E-07
vn -0.2129597 -0.7246171 0.6554222
vn -0.5575355 -0.7246169 0.4050732
vn -0.6891517 -0.724617 0
vn 0.6891514 -0.7246174 0
vn 0.5575355 -0.7246168 0.4050736
vn 0.2129601 -0.7246171 0.655422
vn -0.2129591 -0.7246169 0.6554225
vn -0.5575352 -0.7246172 0.4050733
vn -0.6891519 -0.7246169 0
vn 0.6891519 -0.7246169 0
vn 0.5575353 -0.7246171 0.4050732
vn 0.2129591 -0.7246169 0.6554226
vn -0.3006524 0.9537337 0
vn -0.7154313 0.4668778 0.5197913
vn -0.8843219 0.4668778 0
vn -0.2432329 0.9537337 0.176719
vn -0.2732707 0.4668783 0.8410398
vn -0.09290668 0.9537339 0.285937
vn 0.2732712 0.4668781 0.8410396
vn 0.09290692 0.9537339 0.2859371
vn 0.7154313 0.4668777 0.5197915
vn 0.2432329 0.9537337 0.1767191
vn 0.8843216 0.4668784 0
vn 0.300652 0.9537339 0
vn -0.6891517 -0.724617 0
vn -0.9726327 0.2323482 0
vn 0.9726325 0.2323492 0
vn 0.6891515 -0.7246174 -1.127088E-07
vn -0.5575356 -0.724617 -0.4050731
vn -0.6891517 -0.724617 0
vn 0 -1 0
vn -0.2129598 -0.7246171 -0.6554221
vn 0.2129602 -0.7246171 -0.6554219
vn 0.5575356 -0.7246169 -0.4050734
vn 0.6891515 -0.7246174 -1.127088E-07
vn -0.3006524 0.9537337 0
vn 0 1 0
vn 0.300652 0.9537339 0
vn -0.6891517 -0.724617 0
vn -0.8843219 0.4668778 0
vn 0.8843216 0.4668784 0
vn 0.6891514 -0.7246174 0
vn -0.9726327 0.2323482 0
vn 0.9726325 0.2323491 0
vn -0.2129597 -0.7246171 -0.6554222
vn -0.5575355 -0.7246169 -0.4050732
vn -0.6891519 -0.7246169 0
vn -0.6891517 -0.724617 0
vn 0.6891514 -0.7246174 0
vn 0.5575356 -0.7246168 -0.4050736
vn 0.6891519 -0.7246169 0
vn 0.2129601 -0.7246171 -0.6554219
vn -0.212959 -0.7246169 -0.6554226
vn -0.5575352 -0.7246172 -0.4050733
vn -0.6891519 -0.7246169 0
vn 0.6891519 -0.7246169 0
vn 0.5575354 -0.7246172 -0.4050731
vn 0.2129591 -0.7246169 -0.6554226
vn -0.3006524 0.9537337 0
vn -0.7154315 0.4668779 -0.5197912
vn -0.2432329 0.9537339 -0.1767188
vn -0.8843219 0.4668778 0
vn -0.2732707 0.4668784 -0.8410397
vn -0.09290671 0.953734 -0.285937
vn 0.2732712 0.4668782 -0.8410396
vn 0.0929069 0.9537339 -0.2859371
vn 0.7154313 0.4668776 -0.5197915
vn 0.243233 0.9537337 -0.1767192
vn 0.8843216 0.4668784 0
vn 0.300652 0.9537339 0
g wpn_axeBodySprayHers_geo_0
f 15/15/15 16/16/16 1/1/1
f 2/2/2 15/15/15 1/1/1
f 20/20/20 15/15/15 2/2/2
f 3/3/3 20/20/20 2/2/2
f 19/19/19 20/20/20 3/3/3
f 4/4/4 19/19/19 3/3/3
f 18/18/18 19/19/19 4/4/4
f 5/5/5 18/18/18 4/4/4
f 17/17/17 18/18/18 5/5/5
f 6/6/6 17/17/17 5/5/5
f 7/7/7 73/73/73 74/74/74
f 75/75/75 73/73/73 7/7/7
f 76/76/76 75/75/75 7/7/7
f 7/7/7 77/77/77 76/76/76
f 78/78/78 77/77/77 7/7/7
f 8/8/8 38/38/38 40/40/40
f 36/36/36 38/38/38 8/8/8
f 34/34/34 36/36/36 8/8/8
f 8/8/8 42/42/42 44/44/44
f 40/40/40 42/42/42 8/8/8
f 12/12/12 11/11/11 43/43/43
f 41/41/41 12/12/12 43/43/43
f 13/13/13 12/12/12 41/41/41
f 39/39/39 13/13/13 41/41/41
f 14/14/14 13/13/13 39/39/39
f 37/37/37 14/14/14 39/39/39
f 9/9/9 14/14/14 37/37/37
f 35/35/35 9/9/9 37/37/37
f 10/10/10 9/9/9 35/35/35
f 33/33/33 10/10/10 35/35/35
f 25/25/25 24/24/24 82/82/82
f 83/83/83 25/25/25 82/82/82
f 26/26/26 25/25/25 83/83/83
f 84/84/84 26/26/26 83/83/83
f 21/21/21 26/26/26 84/84/84
f 79/79/79 21/21/21 84/84/84
f 22/22/22 21/21/21 79/79/79
f 80/80/80 22/22/22 79/79/79
f 23/23/23 22/22/22 80/80/80
f 81/81/81 23/23/23 80/80/80
f 31/31/31 30/30/30 88/88/88
f 89/89/89 31/31/31 88/88/88
f 32/32/32 31/31/31 89/89/89
f 90/90/90 32/32/32 89/89/89
f 27/27/27 32/32/32 90/90/90
f 85/85/85 27/27/27 90/90/90
f 28/28/28 27/27/27 85/85/85
f 86/86/86 28/28/28 85/85/85
f 29/29/29 28/28/28 86/86/86
f 87/87/87 29/29/29 86/86/86
f 100/100/100 101/101/101 102/102/102
f 99/99/99 101/101/101 100/100/100
f 98/98/98 99/99/99 100/100/100
f 97/97/97 99/99/99 98/98/98
f 96/96/96 97/97/97 98/98/98
f 95/95/95 97/97/97 96/96/96
f 94/94/94 95/95/95 96/96/96
f 92/92/92 95/95/95 94/94/94
f 91/91/91 92/92/92 94/94/94
f 93/93/93 92/92/92 91/91/91
f 46/46/46 103/103/103 104/104/104
f 45/45/45 103/103/103 46/46/46
f 48/48/48 45/45/45 46/46/46
f 47/47/47 45/45/45 48/48/48
f 50/50/50 47/47/47 48/48/48
f 49/49/49 47/47/47 50/50/50
f 52/52/52 49/49/49 50/50/50
f 51/51/51 49/49/49 52/52/52
f 105/105/105 51/51/51 52/52/52
f 106/106/106 51/51/51 105/105/105
f 109/109/109 110/110/110 111/111/111
f 107/107/107 110/110/110 109/109/109
f 108/108/108 107/107/107 109/109/109
f 112/112/112 109/109/109 111/111/111
f 113/113/113 109/109/109 112/112/112
f 115/115/115 53/53/53 114/114/114
f 54/54/54 53/53/53 115/115/115
f 55/55/55 54/54/54 115/115/115
f 56/56/56 115/115/115 116/116/116
f 55/55/55 115/115/115 56/56/56
f 59/59/59 119/119/119 120/120/120
f 60/60/60 119/119/119 59/59/59
f 61/61/61 60/60/60 59/59/59
f 62/62/62 60/60/60 61/61/61
f 63/63/63 62/62/62 61/61/61
f 64/64/64 62/62/62 63/63/63
f 57/57/57 64/64/64 63/63/63
f 58/58/58 64/64/64 57/57/57
f 117/117/117 58/58/58 57/57/57
f 118/118/118 58/58/58 117/117/117
f 71/71/71 127/127/127 129/129/129
f 128/128/128 127/127/127 71/71/71
f 72/72/72 128/128/128 71/71/71
f 130/130/130 128/128/128 72/72/72
f 70/70/70 130/130/130 72/72/72
f 123/123/123 130/130/130 70/70/70
f 69/69/69 123/123/123 70/70/70
f 124/124/124 123/123/123 69/69/69
f 125/125/125 124/124/124 69/69/69
f 126/126/126 124/124/124 125/125/125
f 66/66/66 134/134/134 122/122/122
f 135/135/135 134/134/134 66/66/66
f 67/67/67 135/135/135 66/66/66
f 136/136/136 135/135/135 67/67/67
f 68/68/68 136/136/136 67/67/67
f 131/131/131 136/136/136 68/68/68
f 65/65/65 131/131/131 68/68/68
f 132/132/132 131/131/131 65/65/65
f 121/121/121 132/132/132 65/65/65
f 133/133/133 132/132/132 121/121/121
f 146/146/146 148/148/148 147/147/147
f 145/145/145 146/146/146 147/147/147
f 144/144/144 146/146/146 145/145/145
f 143/143/143 144/144/144 145/145/145
f 142/142/142 144/144/144 143/143/143
f 141/141/141 142/142/142 143/143/143
f 139/139/139 142/142/142 141/141/141
f 138/138/138 139/139/139 141/141/141
f 137/137/137 139/139/139 138/138/138
f 140/140/140 137/137/137 138/138/138
f 18/18/18 17/17/17 30/30/30
f 31/31/31 18/18/18 30/30/30
f 19/19/19 18/18/18 31/31/31
f 32/32/32 19/19/19 31/31/31
f 20/20/20 19/19/19 32/32/32
f 27/27/27 20/20/20 32/32/32
f 15/15/15 20/20/20 27/27/27
f 28/28/28 15/15/15 27/27/27
f 16/16/16 15/15/15 28/28/28
f 29/29/29 16/16/16 28/28/28
f 52/52/52 122/122/122 105/105/105
f 66/66/66 122/122/122 52/52/52
f 50/50/50 66/66/66 52/52/52
f 67/67/67 66/66/66 50/50/50
f 48/48/48 67/67/67 50/50/50
f 68/68/68 67/67/67 48/48/48
f 46/46/46 68/68/68 48/48/48
f 65/65/65 68/68/68 46/46/46
f 104/104/104 65/65/65 46/46/46
f 121/121/121 65/65/65 104/104/104
