g wpn_bone_geo
v 0.03145593 -6.477585E-18 -0.02315979
v 0 -3.914851E-18 -0.02799412
v 0 3.914851E-18 0.02799412
v 0.03145593 6.477584E-18 0.02315979
v 0.04448541 -1.03854E-25 0
v 0.03877057 0.1727902 -0.02854526
v -8.290633E-18 0.1727902 -0.03450375
v 4.145316E-18 0.1727902 0.03450375
v 0.03877058 0.1727902 0.0285453
v 0.05482987 0.1727902 0
v 0.06598353 0.2439904 -0.0457452
v -5.226084E-18 0.2413989 -0.03249805
v 5.226084E-18 0.2413989 0.03249805
v 0.06598353 0.2439904 0.0457452
v 0.08658479 0.215127 0
v 0.03367674 0.2588715 0.05521931
v 0.03367674 0.2588715 -0.05521931
v 0 0.2770315 0
v 0.03367674 0.294504 0
v 0.06598353 0.279623 0
v -0.03145593 1.901738E-18 0.02315979
v -0.03145593 1.901738E-18 -0.02315979
v -0.04448541 2.689464E-18 0
v -0.03877057 0.1727902 0.02854526
v -0.03877058 0.1727902 -0.0285453
v -0.05482987 0.1727902 0
v -0.06598353 0.2439904 0.0457452
v -0.06598353 0.2439904 -0.0457452
v -0.08658479 0.215127 0
v -0.03367674 0.2588715 -0.05521931
v -0.03367674 0.2588715 0.05521931
v -0.03367674 0.294504 0
v -0.06598353 0.279623 0
v -0.03877057 -0.1727902 -0.02854526
v -1.243595E-17 -0.1727902 -0.03450375
v -1.243595E-17 -0.1727902 0.03450375
v -0.03877058 -0.1727902 0.0285453
v -0.05482987 -0.1727902 0
v -0.06598353 -0.2439904 -0.0457452
v -1.478142E-17 -0.2413989 -0.03249805
v -1.478142E-17 -0.2413989 0.03249805
v -0.06598353 -0.2439904 0.0457452
v -0.08658479 -0.215127 0
v -0.03367674 -0.2588715 0.05521931
v -0.03367674 -0.2588715 -0.05521931
v -1.696329E-17 -0.2770315 0
v -0.03367674 -0.294504 0
v -0.06598353 -0.279623 0
v 0.03877057 -0.1727902 0.02854526
v 0.03877058 -0.1727902 -0.0285453
v 0.05482987 -0.1727902 0
v 0.06598353 -0.2439904 0.0457452
v 0.06598353 -0.2439904 -0.0457452
v 0.08658479 -0.215127 0
v 0.03367674 -0.2588715 -0.05521931
v 0.03367674 -0.2588715 0.05521931
v 0.03367674 -0.294504 0
v 0.06598353 -0.279623 0
vt 0.5 0.5799692
vt 0.5 0.6578543
vt 0.5 0.6578543
vt 0.5 0.5799692
vt 0.5 0.5799692
vt 0.5 0.6917797
vt 0.5 0.7696649
vt 0.5 0.7696649
vt 0.5 0.6917797
vt 0.5 0.6917797
vt 0.5 0.4795682
vt 0.5 0.7443777
vt 0.5 0.7443777
vt 0.5 0.4795682
vt 0.5 0.69178
vt 0.5 0.4795682
vt 0.5 0.4795682
vt 0.5 0.744378
vt 0.5 0.4795681
vt 0.5 0.4795682
vt 0.5 0.5799692
vt 0.5 0.5799692
vt 0.5 0.5799692
vt 0.5 0.6917797
vt 0.5 0.6917797
vt 0.5 0.6917797
vt 0.5 0.4795682
vt 0.5 0.4795682
vt 0.5 0.69178
vt 0.5 0.4795682
vt 0.5 0.4795682
vt 0.5 0.4795681
vt 0.5 0.4795682
vt 0.5 0.6917801
vt 0.5 0.7696655
vt 0.5 0.7696655
vt 0.5 0.6917801
vt 0.5 0.6917801
vt 0.5 0.479568
vt 0.5 0.744378
vt 0.5 0.744378
vt 0.5 0.479568
vt 0.5 0.6917802
vt 0.5 0.479568
vt 0.5 0.479568
vt 0.5 0.7443782
vt 0.5 0.479568
vt 0.5 0.4795681
vt 0.5 0.6917801
vt 0.5 0.6917801
vt 0.5 0.6917801
vt 0.5 0.479568
vt 0.5 0.479568
vt 0.5 0.6917802
vt 0.5 0.479568
vt 0.5 0.479568
vt 0.5 0.479568
vt 0.5 0.4795681
vn 0.5689703 0 -0.8223581
vn 0 0 -1
vn 0 0 1
vn 0.5689703 0 0.8223581
vn 1 0 0
vn 0.5235567 -0.229646 -0.8204579
vn 1.638358E-07 -0.1074507 -0.9942105
vn -1.611499E-07 -0.1074507 0.9942105
vn 0.5235566 -0.229646 0.8204579
vn 0.9529739 -0.3030525 -1.610097E-07
vn 0.7002645 0.09523942 -0.7075021
vn 0 0.4498886 -0.8930847
vn 0 0.4498886 0.8930847
vn 0.7002643 0.09523955 0.7075021
vn 0.9954904 -0.09486242 0
vn -0.170176 0.3686752 0.9138483
vn -0.1701759 0.3686751 -0.9138483
vn 0 1 0
vn -0.07502063 0.997182 0
vn 0.7917485 0.6108471 0
vn -0.5689703 0 0.8223581
vn -0.5689703 0 -0.8223581
vn -1 0 0
vn -0.5235567 -0.229646 0.8204579
vn -0.5235566 -0.229646 -0.8204579
vn -0.9529739 -0.3030525 1.610097E-07
vn -0.7002645 0.09523942 0.7075021
vn -0.7002643 0.09523955 -0.7075021
vn -0.9954904 -0.09486242 0
vn 0.170176 0.3686752 -0.9138483
vn 0.1701759 0.3686751 0.9138483
vn 0.07502063 0.997182 0
vn -0.7917485 0.6108471 0
vn -0.5235567 0.229646 -0.8204579
vn -1.638358E-07 0.1074507 -0.9942105
vn 1.611499E-07 0.1074507 0.9942105
vn -0.5235566 0.229646 0.8204579
vn -0.9529739 0.3030525 -1.610097E-07
vn -0.7002645 -0.09523942 -0.7075021
vn 0 -0.4498886 -0.8930847
vn 0 -0.4498886 0.8930847
vn -0.7002643 -0.09523955 0.7075021
vn -0.9954904 0.09486242 0
vn 0.170176 -0.3686752 0.9138483
vn 0.1701759 -0.3686751 -0.9138483
vn 0 -1 0
vn 0.07502063 -0.997182 0
vn -0.7917485 -0.6108471 0
vn 0.5235567 0.229646 0.8204579
vn 0.5235566 0.229646 -0.8204579
vn 0.9529739 0.3030525 1.610097E-07
vn 0.7002645 -0.09523942 0.7075021
vn 0.7002643 -0.09523955 -0.7075021
vn 0.9954904 0.09486242 0
vn -0.170176 -0.3686752 -0.9138483
vn -0.1701759 -0.3686751 0.9138483
vn -0.07502063 -0.997182 0
vn 0.7917485 -0.6108471 0
g wpn_bone_geo_0
f 47/47/47 39/39/39 45/45/45
f 48/48/48 39/39/39 47/47/47
f 44/44/44 48/48/48 47/47/47
f 42/42/42 48/48/48 44/44/44
f 37/37/37 42/42/42 44/44/44
f 43/43/43 42/42/42 37/37/37
f 38/38/38 43/43/43 37/37/37
f 39/39/39 43/43/43 38/38/38
f 34/34/34 39/39/39 38/38/38
f 45/45/45 39/39/39 34/34/34
f 35/35/35 45/45/45 34/34/34
f 40/40/40 45/45/45 35/35/35
f 55/55/55 40/40/40 35/35/35
f 57/57/57 40/40/40 55/55/55
f 58/58/58 57/57/57 55/55/55
f 52/52/52 57/57/57 58/58/58
f 54/54/54 52/52/52 58/58/58
f 51/51/51 52/52/52 54/54/54
f 50/50/50 51/51/51 54/54/54
f 1/1/1 51/51/51 50/50/50
f 2/2/2 1/1/1 50/50/50
f 7/7/7 1/1/1 2/2/2
f 25/25/25 7/7/7 2/2/2
f 30/30/30 7/7/7 25/25/25
f 28/28/28 30/30/30 25/25/25
f 33/33/33 30/30/30 28/28/28
f 29/29/29 33/33/33 28/28/28
f 27/27/27 33/33/33 29/29/29
f 26/26/26 27/27/27 29/29/29
f 24/24/24 27/27/27 26/26/26
f 23/23/23 24/24/24 26/26/26
f 21/21/21 24/24/24 23/23/23
f 38/38/38 21/21/21 23/23/23
f 37/37/37 21/21/21 38/38/38
f 31/31/31 27/27/27 24/24/24
f 32/32/32 27/27/27 31/31/31
f 18/18/18 32/32/32 31/31/31
f 12/12/12 32/32/32 18/18/18
f 17/17/17 12/12/12 18/18/18
f 7/7/7 12/12/12 17/17/17
f 6/6/6 7/7/7 17/17/17
f 1/1/1 7/7/7 6/6/6
f 5/5/5 1/1/1 6/6/6
f 51/51/51 1/1/1 5/5/5
f 49/49/49 51/51/51 5/5/5
f 52/52/52 51/51/51 49/49/49
f 56/56/56 52/52/52 49/49/49
f 57/57/57 52/52/52 56/56/56
f 46/46/46 57/57/57 56/56/56
f 40/40/40 57/57/57 46/46/46
f 45/45/45 40/40/40 46/46/46
f 36/36/36 37/37/37 44/44/44
f 3/3/3 37/37/37 36/36/36
f 4/4/4 3/3/3 36/36/36
f 9/9/9 3/3/3 4/4/4
f 10/10/10 9/9/9 4/4/4
f 15/15/15 9/9/9 10/10/10
f 11/11/11 15/15/15 10/10/10
f 20/20/20 15/15/15 11/11/11
f 19/19/19 20/20/20 11/11/11
f 16/16/16 20/20/20 19/19/19
f 13/13/13 16/16/16 19/19/19
f 8/8/8 16/16/16 13/13/13
f 31/31/31 8/8/8 13/13/13
f 24/24/24 8/8/8 31/31/31
f 3/3/3 21/21/21 37/37/37
f 8/8/8 21/21/21 3/3/3
f 9/9/9 8/8/8 3/3/3
f 16/16/16 8/8/8 9/9/9
f 14/14/14 16/16/16 9/9/9
f 20/20/20 16/16/16 14/14/14
f 15/15/15 20/20/20 14/14/14
f 46/46/46 47/47/47 45/45/45
f 41/41/41 47/47/47 46/46/46
f 56/56/56 41/41/41 46/46/46
f 36/36/36 41/41/41 56/56/56
f 49/49/49 36/36/36 56/56/56
f 4/4/4 36/36/36 49/49/49
f 5/5/5 4/4/4 49/49/49
f 10/10/10 4/4/4 5/5/5
f 6/6/6 10/10/10 5/5/5
f 11/11/11 10/10/10 6/6/6
f 17/17/17 11/11/11 6/6/6
f 19/19/19 11/11/11 17/17/17
f 18/18/18 19/19/19 17/17/17
f 13/13/13 19/19/19 18/18/18
f 31/31/31 13/13/13 18/18/18
f 14/14/14 9/9/9 15/15/15
f 24/24/24 21/21/21 8/8/8
f 25/25/25 26/26/26 29/29/29
f 22/22/22 26/26/26 25/25/25
f 2/2/2 22/22/22 25/25/25
f 35/35/35 22/22/22 2/2/2
f 50/50/50 35/35/35 2/2/2
f 55/55/55 35/35/35 50/50/50
f 53/53/53 55/55/55 50/50/50
f 58/58/58 55/55/55 53/53/53
f 54/54/54 58/58/58 53/53/53
f 23/23/23 34/34/34 38/38/38
f 22/22/22 34/34/34 23/23/23
f 26/26/26 22/22/22 23/23/23
f 32/32/32 33/33/33 27/27/27
f 30/30/30 33/33/33 32/32/32
f 12/12/12 30/30/30 32/32/32
f 7/7/7 30/30/30 12/12/12
f 28/28/28 25/25/25 29/29/29
f 34/34/34 22/22/22 35/35/35
f 41/41/41 44/44/44 47/47/47
f 36/36/36 44/44/44 41/41/41
f 48/48/48 43/43/43 39/39/39
f 42/42/42 43/43/43 48/48/48
f 53/53/53 50/50/50 54/54/54
