g wpn_whip_geo
v -0.01923782 -0.1077567 -0.01110699
v -0.01923782 -0.1077567 0.01110695
v -2.384186E-09 -0.1077567 0.02221397
v 0.01923782 -0.1077567 0.01110699
v 0.01923782 -0.1077567 -0.01110695
v 0 -0.1077567 -0.0222139
v -0.01923782 0.1077567 -0.01110699
v -0.01923782 0.1077567 0.01110695
v -2.384186E-09 0.1077567 0.02221397
v 0.01923782 0.1077567 0.01110699
v 0.01923782 0.1077567 -0.01110695
v 0 0.1077567 -0.0222139
v -0.008895126 0.1077567 -0.005135614
v -0.008895125 0.1077567 0.005135597
v -1.192093E-09 0.1077567 0.01027123
v 0.008895126 0.1077567 0.005135614
v 0.008895125 0.1077567 -0.005135597
v 0 0.1077567 -0.0102712
v -0.004906366 0.7635348 -0.00283269
v -0.004906365 0.7635348 0.002832696
v -1.192093E-09 0.7635348 0.005665403
v 0.004906366 0.7635348 0.002832706
v 0.004906366 0.7635348 -0.00283268
v 0 0.7635348 -0.005665369
v 0.02522764 0.7635348 0.00391978
v 0.02522764 0.7635348 -0.00391978
v 0.03340907 0.8477004 0.002257872
v 0.03340907 0.8477004 -0.002257872
v -0.03340907 0.8477004 0.002257872
v -0.03340907 0.8477004 -0.002257872
v -0.02522764 0.7635348 0.00391978
v -0.02522764 0.7635348 -0.00391978
v -0.01923782 -0.1077567 0.01110695
v -0.01923782 0.1077567 0.01110695
v 0.01923782 -0.1077567 -0.01110695
v 0 -0.1077567 -0.0222139
v -0.01923782 -0.1077567 -0.01110699
v -0.01923782 -0.1077567 0.01110695
v 0.01923782 -0.1077567 0.01110699
v -2.384186E-09 -0.1077567 0.02221397
v -0.01923782 0.1077567 -0.01110699
v 0 0.1077567 -0.0222139
v 0.01923782 0.1077567 -0.01110695
v -0.01923782 0.1077567 0.01110695
v 0.01923782 0.1077567 0.01110699
v -2.384186E-09 0.1077567 0.02221397
v -0.008895125 0.1077567 0.005135597
v -0.004906365 0.7635348 0.002832696
v 0.008895125 0.1077567 -0.005135597
v 0 0.1077567 -0.0102712
v -0.008895126 0.1077567 -0.005135614
v -0.008895125 0.1077567 0.005135597
v 0.008895126 0.1077567 0.005135614
v -1.192093E-09 0.1077567 0.01027123
v -0.004906366 0.7635348 -0.00283269
v 0 0.7635348 -0.005665369
v 0.004906366 0.7635348 -0.00283268
v -0.004906365 0.7635348 0.002832696
v 0.004906366 0.7635348 0.002832706
v -1.192093E-09 0.7635348 0.005665403
vt 0.9401262 0.02109721
vt 0.9943786 0.01020795
vt 0.7231151 0.02109721
vt 0.7773682 0.02109721
vt 0.831621 0.02109721
vt 0.8858736 0.02109721
vt 0.9401262 0.9789028
vt 0.9943786 0.9680135
vt 0.7231151 0.9789028
vt 0.7773682 0.9789028
vt 0.831621 0.9789028
vt 0.8858736 0.9789028
vt 0.9401262 0.02109721
vt 0.9943786 0.01020795
vt 0.7231151 0.02109721
vt 0.7773682 0.02109721
vt 0.831621 0.02109721
vt 0.8858736 0.02109721
vt 0.9401262 0.9789028
vt 0.9943786 0.9680135
vt 0.7231151 0.9789028
vt 0.7773682 0.9789028
vt 0.831621 0.9789028
vt 0.8858736 0.9789028
vt 0.8212315 0.7532641
vt 0.8212315 0.7532641
vt 0.8212315 0.7300809
vt 0.8212315 0.7300809
vt 0.8212313 0.7300812
vt 0.8212313 0.7300812
vt 0.8212315 0.7532644
vt 0.8212315 0.7532644
vt 0.6688619 0.03470879
vt 0.6688619 0.9925144
vt 0.8602519 0.05535589
vt 0.8602522 0.05535603
vt 0.8602523 0.05535589
vt 0.8602523 0.05535609
vt 0.8602519 0.05535609
vt 0.8602522 0.05535603
vt 0.8684191 0.9891107
vt 0.8684189 0.9891107
vt 0.8684191 0.9891107
vt 0.8684191 0.9891107
vt 0.8684192 0.9891107
vt 0.8684189 0.9891107
vt 0.6688619 0.03470879
vt 0.6688619 0.9925144
vt 0.8602519 0.05535589
vt 0.8602522 0.05535603
vt 0.8602523 0.05535589
vt 0.8602523 0.05535609
vt 0.8602519 0.05535609
vt 0.8602522 0.05535603
vt 0.8684191 0.9891107
vt 0.8684189 0.9891107
vt 0.8684191 0.9891107
vt 0.8684191 0.9891107
vt 0.8684192 0.9891107
vt 0.8684189 0.9891107
vn -0.7499995 -0.5000002 -0.4330133
vn -0.7500007 -0.4999997 0.4330118
vn -6.556517E-07 -0.5000004 0.8660253
vn 0.7500002 -0.4999999 0.4330123
vn 0.7499999 -0.5000001 -0.4330129
vn 6.556508E-07 -0.4999997 -0.8660255
vn -0.7499995 0.5000002 -0.4330133
vn -0.7500007 0.4999997 0.4330118
vn -6.556517E-07 0.5000004 0.8660253
vn 0.7500002 0.4999999 0.4330123
vn 0.7499999 0.5000001 -0.4330129
vn 6.556508E-07 0.4999997 -0.8660255
vn -0.7522733 -0.4954244 -0.4343265
vn -0.7522748 -0.4954242 0.4343244
vn -6.725985E-07 -0.4954249 0.8686509
vn 0.7522743 -0.4954243 0.4343249
vn 0.7522737 -0.4954243 -0.434326
vn 6.42704E-07 -0.4954239 -0.8686514
vn -0.7477124 0.5045487 -0.4316906
vn -0.7477121 0.5045472 0.4316929
vn -6.685183E-07 0.5045473 0.863384
vn 0.7477117 0.5045473 0.4316933
vn 0.7477128 0.5045485 -0.4316902
vn 6.388081E-07 0.5045487 -0.8633832
vn 0.5607754 -0.6068065 0.5633088
vn 0.5607754 -0.6068065 -0.5633088
vn 0.5903823 0.5474862 0.5930493
vn 0.5903823 0.5474862 -0.5930493
vn -0.5903823 0.5474862 0.5930493
vn -0.5903823 0.5474862 -0.5930493
vn -0.5607754 -0.6068065 0.5633088
vn -0.5607754 -0.6068065 -0.5633088
vn -0.7500007 -0.4999997 0.4330118
vn -0.7500007 0.4999997 0.4330118
vn 0.7499999 -0.5000001 -0.4330129
vn 6.556508E-07 -0.4999997 -0.8660255
vn -0.7499995 -0.5000002 -0.4330133
vn -0.7500007 -0.4999997 0.4330118
vn 0.7500002 -0.4999999 0.4330123
vn -6.556517E-07 -0.5000004 0.8660253
vn -0.7499995 0.5000002 -0.4330133
vn 6.556508E-07 0.4999997 -0.8660255
vn 0.7499999 0.5000001 -0.4330129
vn -0.7500007 0.4999997 0.4330118
vn 0.7500002 0.4999999 0.4330123
vn -6.556517E-07 0.5000004 0.8660253
vn -0.7522748 -0.4954242 0.4343244
vn -0.7477121 0.5045472 0.4316929
vn 0.7522737 -0.4954243 -0.434326
vn 6.42704E-07 -0.4954239 -0.8686514
vn -0.7522733 -0.4954244 -0.4343265
vn -0.7522748 -0.4954242 0.4343244
vn 0.7522743 -0.4954243 0.4343249
vn -6.725985E-07 -0.4954249 0.8686509
vn -0.7477124 0.5045487 -0.4316906
vn 6.388081E-07 0.5045487 -0.8633832
vn 0.7477128 0.5045485 -0.4316902
vn -0.7477121 0.5045472 0.4316929
vn 0.7477117 0.5045473 0.4316933
vn -6.685183E-07 0.5045473 0.863384
g wpn_whip_geo_0
f 9/9/9 34/34/34 33/33/33
f 3/3/3 9/9/9 33/33/33
f 10/10/10 9/9/9 3/3/3
f 4/4/4 10/10/10 3/3/3
f 11/11/11 10/10/10 4/4/4
f 5/5/5 11/11/11 4/4/4
f 12/12/12 11/11/11 5/5/5
f 6/6/6 12/12/12 5/5/5
f 7/7/7 12/12/12 6/6/6
f 1/1/1 7/7/7 6/6/6
f 8/8/8 7/7/7 1/1/1
f 2/2/2 8/8/8 1/1/1
f 38/38/38 39/39/39 40/40/40
f 35/35/35 39/39/39 38/38/38
f 37/37/37 35/35/35 38/38/38
f 36/36/36 35/35/35 37/37/37
f 44/44/44 46/46/46 45/45/45
f 43/43/43 44/44/44 45/45/45
f 41/41/41 44/44/44 43/43/43
f 42/42/42 41/41/41 43/43/43
f 21/21/21 48/48/48 47/47/47
f 15/15/15 21/21/21 47/47/47
f 22/22/22 21/21/21 15/15/15
f 16/16/16 22/22/22 15/15/15
f 23/23/23 22/22/22 16/16/16
f 17/17/17 23/23/23 16/16/16
f 24/24/24 23/23/23 17/17/17
f 18/18/18 24/24/24 17/17/17
f 19/19/19 24/24/24 18/18/18
f 13/13/13 19/19/19 18/18/18
f 20/20/20 19/19/19 13/13/13
f 14/14/14 20/20/20 13/13/13
f 52/52/52 53/53/53 54/54/54
f 49/49/49 53/53/53 52/52/52
f 51/51/51 49/49/49 52/52/52
f 50/50/50 49/49/49 51/51/51
f 58/58/58 60/60/60 59/59/59
f 57/57/57 58/58/58 59/59/59
f 55/55/55 58/58/58 57/57/57
f 56/56/56 55/55/55 57/57/57
f 32/32/32 26/26/26 31/31/31
f 30/30/30 26/26/26 32/32/32
f 29/29/29 30/30/30 32/32/32
f 27/27/27 30/30/30 29/29/29
f 31/31/31 27/27/27 29/29/29
f 25/25/25 27/27/27 31/31/31
f 26/26/26 25/25/25 31/31/31
f 28/28/28 25/25/25 26/26/26
f 30/30/30 28/28/28 26/26/26
f 27/27/27 28/28/28 30/30/30
f 27/27/27 25/25/25 28/28/28
f 31/31/31 29/29/29 32/32/32
