g Z1_ceiling
v -8.25 4.5 8
v 4.75 4.5 8
v -8.25 4.5 -5
v 4.75 4.5 -5
v -1.326861 4.5 1.35479
v 5.25 4.5 8
v 18.25 4.5 8
v 5.25 4.5 -5
v 18.25 4.5 -5
v 11.58873 4.5 1.785066
v 1 4.5 13
v 10.67114 4.5 13
v 1 4.5 8.5
v 10.67114 4.5 8.5
v -8.25 4.5 26.5
v -8.25 4.5 13.5
v 4.75 4.5 13.5
v 4.75 4.5 26.5
v 5.25 4.5 26.5
v 16 4.5 26.5
v 5.25 4.5 13.5
v 16 4.5 13.5
v 11.35872 4.5 19.79035
v -1.694154 4.5 20.55659
v 7.968378 4.5 10.63559
v 3 4.5 10.87451
v -8.25 4.972807 8.002384
v -0.3895527 4.972807 8.002384
v -0.3895527 4.5 8
v -8.25 4.5 8
v -0.3895527 4.5 8
vt 0.1485856 0.1643412
vt 0.1485856 0.1625339
vt 0.1485856 0.1625338
vt 0.1485856 0.1625338
vt 0.1485856 0.1928767
vt 0.5460882 0.1604596
vt 0.5460882 0.1604596
vt 0.5460882 0.1604596
vt 0.5460882 0.1604596
vt 0.5460882 0.1853803
vt 0.1485856 0.1404012
vt 0.1485856 0.1404012
vt 0.1485856 0.1404012
vt 0.1485856 0.1404012
vt 0.8034922 0.1568327
vt 0.8034922 0.1568326
vt 0.8034921 0.1568326
vt 0.8034921 0.1568327
vt 0.8071008 0.1627322
vt 0.8071008 0.1627322
vt 0.8071008 0.1627322
vt 0.8071008 0.1627322
vt 0.8071009 0.1876529
vt 0.8034921 0.1817534
vt 0.1485856 0.1948856
vt 0.1485856 0.1948856
vt 0.0385443 0.1476318
vt 0.03854424 0.1476318
vt 0.1485856 0.163242
vt 0.0385443 0.1408388
vt 0.03854424 0.1408388
vn 0 -0.894879 0.4463086
vn 0 -1 0
vn 0 -1 0
vn 0 -1 0
vn 0 -1 0
vn 0 -1 0
vn 0 -1 0
vn 0 -1 0
vn 0 -1 0
vn 0 -1 0
vn 0 -1 0
vn 0 -1 0
vn 0 -1 0
vn 0 -1 0
vn 0 -1 0
vn 0 -1 0
vn 0 -1 0
vn 0 -1 0
vn 0 -1 0
vn 0 -1 0
vn 0 -1 0
vn 0 -1 0
vn 0 -1 0
vn 0 -1 0
vn 0 -1 0
vn 0 -1 0
vn 0 -0.005042232 0.9999874
vn 0 -0.005042232 0.9999874
vn 0 -0.7088872 0.7053218
vn 0 -0.894879 0.4463086
vn 0 -0.7088872 0.7053218
g Z1_ceiling_0
f 5/5/5 3/3/3 4/4/4
f 2/2/2 5/5/5 4/4/4
f 1/1/1 5/5/5 2/2/2
f 29/29/29 1/1/1 2/2/2
f 28/28/28 30/30/30 31/31/31
f 27/27/27 30/30/30 28/28/28
f 5/5/5 1/1/1 3/3/3
f 10/10/10 8/8/8 9/9/9
f 6/6/6 8/8/8 10/10/10
f 7/7/7 6/6/6 10/10/10
f 7/7/7 10/10/10 9/9/9
f 13/13/13 14/14/14 25/25/25
f 26/26/26 13/13/13 25/25/25
f 11/11/11 13/13/13 26/26/26
f 25/25/25 11/11/11 26/26/26
f 12/12/12 11/11/11 25/25/25
f 14/14/14 12/12/12 25/25/25
f 24/24/24 18/18/18 15/15/15
f 17/17/17 18/18/18 24/24/24
f 16/16/16 17/17/17 24/24/24
f 23/23/23 19/19/19 21/21/21
f 20/20/20 19/19/19 23/23/23
f 22/22/22 20/20/20 23/23/23
f 22/22/22 23/23/23 21/21/21
f 24/24/24 15/15/15 16/16/16
