g Z1_collectables01_geo
v 0.5514354 1.172564 7.769362
v 0.5210761 1.169985 7.785239
v 0.4970842 1.168028 7.809753
v 0.4818081 1.166886 7.840507
v 0.4767431 1.16667 7.874487
v 0.4823849 1.167402 7.90837
v 0.4981816 1.16901 7.938838
v 0.5225865 1.171336 7.962909
v 0.5532111 1.174152 7.978225
v 0.5870573 1.177184 7.983289
v 0.6208119 1.180134 7.977605
v 0.6511711 1.182714 7.961729
v 0.675163 1.18467 7.937214
v 0.6904393 1.185812 7.906461
v 0.6955041 1.186028 7.87248
v 0.6898622 1.185297 7.838597
v 0.6740655 1.183689 7.80813
v 0.6496608 1.181363 7.784059
v 0.6190363 1.178546 7.768743
v 0.5851902 1.175514 7.763679
v 0.5770473 1.175426 7.855978
v 0.5685275 1.174731 7.864683
v 0.5667288 1.174654 7.87675
v 0.5701174 1.175013 7.885378
v 0.5773464 1.175693 7.891153
v 0.5893654 1.17677 7.892952
v 0.6001463 1.177686 7.887314
v 0.60511 1.178072 7.879486
v 0.6055185 1.178044 7.870218
v 0.5999089 1.177474 7.859398
v 0.5890339 1.176473 7.853959
v 0.6422695 1.241902 7.691915
v 0.6422695 1.241902 7.946207
v 0.6472967 1.257328 7.691915
v 0.6472967 1.257328 7.946207
v 0.8617486 1.19013 7.691915
v 0.8617486 1.19013 7.946207
v 0.8567214 1.174705 7.691915
v 0.8567214 1.174705 7.946207
v 0.8477122 1.194529 7.946207
v 0.8477122 1.194529 7.691915
v 0.6354293 1.168019 7.692933
v 0.6354293 1.168019 7.94519
v 0.8724782 1.189208 7.692933
v 0.8724782 1.189208 7.94519
v 0.8724782 1.168019 7.692933
v 0.8724782 1.168019 7.94519
v 0.8566416 1.189208 7.692933
v 0.8566416 1.189208 7.94519
v 0.8566416 1.172868 7.692933
v 0.8566416 1.172868 7.94519
v 0.6811891 1.172868 7.692933
v 0.6900156 1.172868 7.94519
v 0.6697662 1.172868 7.799706
v 0.6697662 1.179199 7.799706
v 0.6900156 1.179199 7.94519
v 0.6354293 1.179199 7.692933
v 0.6354293 1.179199 7.94519
v 0.6811891 1.179199 7.692933
v 12.02366 0.8460315 2.810234
v 11.93141 0.8460315 2.772021
v 11.93638 0.7920216 2.76705
v 12.02366 0.7920216 2.803205
v 12.11592 0.8460315 2.772021
v 12.11095 0.7920216 2.76705
v -11.72089 5.142899 15.78755
v -11.79336 5.142899 15.72675
v -11.92003 5.220942 15.87771
v -11.84736 5.220811 15.93827
v 15.56905 5.818621 10.85226
v 15.67342 5.818621 10.99591
v 15.56905 6.07696 10.85226
v 15.67342 6.07696 10.99591
v 14.83066 4.990506 14.70085
v 15.31891 4.990506 14.46271
v 14.83066 5.009404 14.70085
v 15.31891 5.009404 14.46271
v 14.64982 5.009404 14.33007
v 15.13808 5.009404 14.09194
v 14.64982 4.990506 14.33007
v 15.13808 4.990506 14.09194
v 0.6472967 1.257328 7.691915
v 0.6472967 1.257328 7.946207
v 0.6422695 1.241902 7.946207
v 0.8477122 1.194529 7.946207
v 0.8567214 1.174705 7.946207
v 0.6472967 1.257328 7.946207
v 0.8567214 1.174705 7.691915
v 0.6472967 1.257328 7.691915
v 0.6422695 1.241902 7.691915
v 0.8477122 1.194529 7.691915
v 0.8617486 1.19013 7.946207
v 0.8477122 1.194529 7.691915
v 0.8617486 1.19013 7.946207
v 0.8477122 1.194529 7.946207
v 0.8617486 1.19013 7.691915
v 0.8617486 1.19013 7.691915
v 0.8724782 1.168019 7.692933
v 0.8724782 1.168019 7.94519
v 0.8566416 1.189208 7.692933
v 0.8724782 1.189208 7.94519
v 0.8566416 1.189208 7.94519
v 0.8724782 1.189208 7.692933
v 0.6354293 1.168019 7.692933
v 0.6354293 1.168019 7.94519
v 0.6811891 1.172868 7.692933
v 0.8566416 1.172868 7.692933
v 0.8566416 1.172868 7.94519
v 0.6900156 1.172868 7.94519
v 0.6900156 1.172868 7.94519
v 0.6697662 1.179199 7.799706
v 0.6697662 1.172868 7.799706
v 0.6900156 1.179199 7.94519
v 0.6354293 1.179199 7.94519
v 0.6354293 1.179199 7.692933
v 0.6900156 1.179199 7.94519
v 0.6811891 1.179199 7.692933
v 0.6811891 1.172868 7.692933
v 0.6811891 1.179199 7.692933
v 12.02366 0.7920216 2.803205
v 12.02366 0.8460315 2.810234
v 14.83066 5.009404 14.70085
v 15.31891 5.009404 14.46271
v 15.13808 5.009404 14.09194
v 15.13808 4.990506 14.09194
v 14.64982 4.990506 14.33007
v 14.64982 5.009404 14.33007
vt 0.41461 0.017507
vt 0.443919 0.032441
vt 0.467178 0.0557
vt 0.482112 0.085009
vt 0.487257 0.117498
vt 0.482112 0.149986
vt 0.467178 0.179295
vt 0.443919 0.202554
vt 0.41461 0.217488
vt 0.382121 0.222634
vt 0.349633 0.217488
vt 0.320324 0.202554
vt 0.297065 0.179295
vt 0.282131 0.149986
vt 0.276985 0.117498
vt 0.282131 0.085009
vt 0.297065 0.0557
vt 0.320324 0.032441
vt 0.349633 0.017507
vt 0.382121 0.012361
vt 0.390702 0.100657
vt 0.398961 0.108917
vt 0.400789 0.120454
vt 0.397602 0.128745
vt 0.390702 0.134338
vt 0.379165 0.136165
vt 0.368757 0.130862
vt 0.363922 0.123411
vt 0.363454 0.114541
vt 0.368757 0.104133
vt 0.379165 0.09883
vt 0.477383 0.368353
vt 0.477383 0.368353
vt 0.477383 0.368353
vt 0.477383 0.368353
vt 0.478798 0.322029
vt 0.478798 0.322029
vt 0.478798 0.322029
vt 0.478798 0.322029
vt 0.018617 0.220918
vt 0.315311 0.220918
vt 0.470833 0.275738
vt 0.470833 0.275738
vt 0.470833 0.241192
vt 0.470833 0.241192
vt 0.470833 0.241192
vt 0.470833 0.241192
vt 0.470833 0.241192
vt 0.470833 0.241192
vt 0.470833 0.241192
vt 0.470833 0.241192
vt 0.470833 0.241192
vt 0.470833 0.241192
vt 0.474025 0.282339
vt 0.474025 0.282339
vt 0.474025 0.282339
vt 0.474025 0.282339
vt 0.474025 0.282339
vt 0.474025 0.282339
vt 0.7341974 0.99844
vt 0.5037514 0.99844
vt 0.5037514 0.879512
vt 0.7341974 0.879512
vt 0.988401 0.99844
vt 0.988401 0.879512
vt 0.855198 0.765307
vt 0.855198 0.87824
vt 0.5059704 0.87824
vt 0.5059694 0.765307
vt 0.564868 0.001992
vt 0.838672 0.001992
vt 0.564868 0.375152
vt 0.838672 0.375152
vt 0.025856 0.9821
vt 0.025856 0.9821
vt 0.025856 0.9821
vt 0.025856 0.9821
vt 0.006017 0.506247
vt 0.006017 0.993753
vt 0.006017 0.506247
vt 0.006017 0.993753
vt 0.315311 0.483667
vt 0.018617 0.483667
vt 0.477745 0.319531
vt 0.477745 0.319531
vt 0.477745 0.319531
vt 0.477745 0.319531
vt 0.477745 0.319531
vt 0.477745 0.319531
vt 0.477745 0.319531
vt 0.477745 0.319531
vt 0.477745 0.319531
vt 0.472961 0.281169
vt 0.472961 0.281169
vt 0.472961 0.281169
vt 0.472961 0.281169
vt 0.477745 0.319531
vt 0.470833 0.275738
vt 0.470833 0.275738
vt 0.474025 0.282339
vt 0.474025 0.282339
vt 0.474025 0.282339
vt 0.474025 0.282339
vt 0.470833 0.241192
vt 0.470833 0.241192
vt 0.474025 0.282339
vt 0.474025 0.282339
vt 0.474025 0.282339
vt 0.474025 0.282339
vt 0.476977 0.246568
vt 0.476977 0.246568
vt 0.476977 0.246568
vt 0.476977 0.246568
vt 0.470833 0.241192
vt 0.470833 0.241192
vt 0.470833 0.241192
vt 0.476977 0.246568
vt 0.476977 0.246568
vt 0.470833 0.241192
vt 0.730675 0.879512
vt 0.730675 0.99844
vt 0.417851 0.506247
vt 0.417851 0.993753
vt 0.025856 0.9821
vt 0.025856 0.9821
vt 0.025856 0.9821
vt 0.025856 0.9821
vn -0.08820511 0.9960789 -0.006823439
vn -0.08820447 0.996079 -0.006825211
vn -0.08820421 0.996079 -0.006827193
vn -0.08820507 0.9960789 -0.006824222
vn -0.08820564 0.9960789 -0.006826269
vn -0.08820335 0.996079 -0.006828735
vn -0.08820332 0.996079 -0.006825279
vn -0.08820269 0.9960791 -0.006822649
vn -0.08820178 0.9960793 -0.006822438
vn -0.088206 0.9960789 -0.006823403
vn -0.08820519 0.9960789 -0.006824113
vn -0.08820216 0.9960791 -0.006823163
vn -0.0882039 0.996079 -0.006821156
vn -0.08820388 0.996079 -0.006823814
vn -0.08820116 0.9960793 -0.006824716
vn -0.08820293 0.9960791 -0.006823672
vn -0.088204 0.996079 -0.006821674
vn -0.08820372 0.996079 -0.00682171
vn -0.08820516 0.9960789 -0.006823745
vn -0.0882052 0.9960789 -0.006823445
vn -0.08820491 0.9960789 -0.006824407
vn -0.08820489 0.9960789 -0.006824929
vn -0.08820433 0.996079 -0.006825959
vn -0.08820332 0.996079 -0.006825279
vn -0.08820284 0.9960791 -0.006823366
vn -0.08820452 0.996079 -0.006824343
vn -0.08820312 0.9960791 -0.006822846
vn -0.08820388 0.996079 -0.006823814
vn -0.08820286 0.9960791 -0.006824254
vn -0.08820459 0.996079 -0.00682225
vn -0.08820537 0.9960789 -0.00682343
vn -0.6723015 0.2191059 -0.7071091
vn -0.6722988 0.2191067 0.7071114
vn -0.3748772 0.7270803 -0.5751707
vn -0.3748738 0.7270814 0.5751716
vn 0.7243223 0.373458 -0.579557
vn 0.7243505 0.3734419 0.5795321
vn 0.4252044 -0.1385761 -0.894426
vn 0.4252444 -0.1385732 0.8944075
vn 0.2114691 0.6747515 0.7071006
vn 0.2114321 0.6747569 -0.7071064
vn -0.4082482 -0.4082483 -0.8164966
vn -0.4082482 -0.4082483 0.8164966
vn 0.5773503 0.5773503 -0.5773503
vn 0.5773503 0.5773503 0.5773503
vn 0.4082483 -0.4082483 -0.8164966
vn 0.4082483 -0.4082483 0.8164966
vn -0.5773503 0.5773503 -0.5773503
vn -0.5773503 0.5773503 0.5773503
vn -0.4082483 0.4082483 -0.8164966
vn -0.4082482 0.4082482 0.8164966
vn 0.4211394 0.4235424 -0.8020307
vn 0.4243186 0.4284089 0.7977591
vn 0.8929636 0.449906 -0.01416373
vn 0.7043566 0.7097585 -0.01117224
vn 0.6000771 0.6058617 0.5223399
vn -0.4082482 0.8164966 -0.4082483
vn -0.5773502 0.5773503 0.5773503
vn 0.595581 0.5989794 -0.5352634
vn -1.610919E-07 -0.1290556 0.9916373
vn -0.379943 -0.1193738 0.917275
vn -0.379943 -0.1193738 0.917275
vn -1.610919E-07 -0.1290556 0.9916373
vn 0.3799427 -0.1193817 0.9172741
vn 0.3799427 -0.1193817 0.9172741
vn 0.2366735 0.9297512 -0.2820429
vn 0.2366735 0.9297512 -0.2820429
vn 0.2366735 0.9297512 -0.2820429
vn 0.2366735 0.9297512 -0.2820429
vn -0.8090246 0 0.5877747
vn -0.8090246 0 0.5877747
vn -0.8090246 0 0.5877747
vn -0.8090246 0 0.5877747
vn -0.3255699 0 0.945518
vn 0.9455191 0 0.3255665
vn -0.2658273 0.5773506 0.7720118
vn 0.7720122 0.5773517 0.2658233
vn -0.772014 0.5773486 -0.2658252
vn 0.2658212 0.57735 -0.7720143
vn -0.9455189 0 -0.3255671
vn 0.3255638 0 -0.9455201
vn -0.3748772 0.7270803 -0.5751707
vn -0.3748738 0.7270814 0.5751716
vn -0.6722988 0.2191067 0.7071114
vn 0.2114691 0.6747515 0.7071006
vn 0.4252444 -0.1385732 0.8944075
vn -0.3748738 0.7270814 0.5751716
vn 0.4252044 -0.1385761 -0.894426
vn -0.3748772 0.7270803 -0.5751707
vn -0.6723015 0.2191059 -0.7071091
vn 0.2114321 0.6747569 -0.7071064
vn 0.7243505 0.3734419 0.5795321
vn 0.2114321 0.6747569 -0.7071064
vn 0.7243505 0.3734419 0.5795321
vn 0.2114691 0.6747515 0.7071006
vn 0.7243223 0.373458 -0.579557
vn 0.7243223 0.373458 -0.579557
vn 0.4082483 -0.4082483 -0.8164966
vn 0.4082483 -0.4082483 0.8164966
vn -0.5773503 0.5773503 -0.5773503
vn 0.5773503 0.5773503 0.5773503
vn -0.5773503 0.5773503 0.5773503
vn 0.5773503 0.5773503 -0.5773503
vn -0.4082482 -0.4082483 -0.8164966
vn -0.4082482 -0.4082483 0.8164966
vn 0.4211394 0.4235424 -0.8020307
vn -0.4082483 0.4082483 -0.8164966
vn -0.4082482 0.4082482 0.8164966
vn 0.4243186 0.4284089 0.7977591
vn 0.4243186 0.4284089 0.7977591
vn 0.7043566 0.7097585 -0.01117224
vn 0.8929636 0.449906 -0.01416373
vn 0.6000771 0.6058617 0.5223399
vn -0.5773502 0.5773503 0.5773503
vn -0.4082482 0.8164966 -0.4082483
vn 0.6000771 0.6058617 0.5223399
vn 0.595581 0.5989794 -0.5352634
vn 0.4211394 0.4235424 -0.8020307
vn 0.595581 0.5989794 -0.5352634
vn -1.610919E-07 -0.1290556 0.9916373
vn -1.610919E-07 -0.1290556 0.9916373
vn -0.2658273 0.5773506 0.7720118
vn 0.7720122 0.5773517 0.2658233
vn 0.2658212 0.57735 -0.7720143
vn 0.3255638 0 -0.9455201
vn -0.9455189 0 -0.3255671
vn -0.772014 0.5773486 -0.2658252
g Z1_collectables01_geo_0
f 35/35/35 32/32/32 33/33/33
f 34/34/34 32/32/32 35/35/35
f 40/40/40 82/82/82 83/83/83
f 41/41/41 82/82/82 40/40/40
f 39/39/39 36/36/36 37/37/37
f 38/38/38 36/36/36 39/39/39
f 85/85/85 86/86/86 92/92/92
f 84/84/84 86/86/86 85/85/85
f 87/87/87 84/84/84 85/85/85
f 88/88/88 91/91/91 97/97/97
f 89/89/89 91/91/91 88/88/88
f 90/90/90 89/89/89 88/88/88
f 94/94/94 93/93/93 95/95/95
f 96/96/96 93/93/93 94/94/94
f 43/43/43 98/98/98 99/99/99
f 42/42/42 98/98/98 43/43/43
f 101/101/101 100/100/100 102/102/102
f 103/103/103 100/100/100 101/101/101
f 54/54/54 107/107/107 106/106/106
f 108/108/108 107/107/107 54/54/54
f 109/109/109 108/108/108 54/54/54
f 57/57/57 55/55/55 59/59/59
f 56/56/56 55/55/55 57/57/57
f 58/58/58 56/56/56 57/57/57
f 112/112/112 118/118/118 117/117/117
f 111/111/111 112/112/112 117/117/117
f 110/110/110 112/112/112 111/111/111
f 113/113/113 110/110/110 111/111/111
f 105/105/105 53/53/53 116/116/116
f 114/114/114 105/105/105 116/116/116
f 104/104/104 105/105/105 114/114/114
f 115/115/115 104/104/104 114/114/114
f 52/52/52 104/104/104 115/115/115
f 119/119/119 52/52/52 115/115/115
f 62/62/62 60/60/60 61/61/61
f 63/63/63 60/60/60 62/62/62
f 120/120/120 64/64/64 121/121/121
f 65/65/65 64/64/64 120/120/120
f 68/68/68 66/66/66 67/67/67
f 69/69/69 66/66/66 68/68/68
f 73/73/73 70/70/70 71/71/71
f 72/72/72 70/70/70 73/73/73
f 78/78/78 81/81/81 80/80/80
f 79/79/79 81/81/81 78/78/78
f 122/122/122 79/79/79 78/78/78
f 123/123/123 79/79/79 122/122/122
f 76/76/76 127/127/127 126/126/126
f 74/74/74 76/76/76 126/126/126
f 77/77/77 76/76/76 74/74/74
f 75/75/75 77/77/77 74/74/74
f 124/124/124 77/77/77 75/75/75
f 125/125/125 124/124/124 75/75/75
f 21/21/21 1/1/1 2/2/2
f 20/20/20 1/1/1 21/21/21
f 31/31/31 20/20/20 21/21/21
f 19/19/19 20/20/20 31/31/31
f 18/18/18 19/19/19 31/31/31
f 23/23/23 5/5/5 6/6/6
f 4/4/4 5/5/5 23/23/23
f 22/22/22 4/4/4 23/23/23
f 3/3/3 4/4/4 22/22/22
f 2/2/2 3/3/3 22/22/22
f 21/21/21 2/2/2 22/22/22
f 25/25/25 8/8/8 9/9/9
f 7/7/7 8/8/8 25/25/25
f 24/24/24 7/7/7 25/25/25
f 6/6/6 7/7/7 24/24/24
f 23/23/23 6/6/6 24/24/24
f 27/27/27 12/12/12 13/13/13
f 11/11/11 12/12/12 27/27/27
f 26/26/26 11/11/11 27/27/27
f 10/10/10 11/11/11 26/26/26
f 9/9/9 10/10/10 26/26/26
f 25/25/25 9/9/9 26/26/26
f 29/29/29 15/15/15 16/16/16
f 14/14/14 15/15/15 29/29/29
f 28/28/28 14/14/14 29/29/29
f 13/13/13 14/14/14 28/28/28
f 27/27/27 13/13/13 28/28/28
f 30/30/30 17/17/17 18/18/18
f 16/16/16 17/17/17 30/30/30
f 29/29/29 16/16/16 30/30/30
f 30/30/30 18/18/18 31/31/31
f 47/47/47 45/45/45 49/49/49
f 44/44/44 45/45/45 47/47/47
f 46/46/46 44/44/44 47/47/47
f 48/48/48 44/44/44 46/46/46
f 50/50/50 48/48/48 46/46/46
f 49/49/49 48/48/48 50/50/50
f 51/51/51 49/49/49 50/50/50
f 47/47/47 49/49/49 51/51/51
f 105/105/105 47/47/47 51/51/51
f 52/52/52 46/46/46 104/104/104
f 50/50/50 46/46/46 52/52/52
f 53/53/53 105/105/105 51/51/51
