g Z1_chrisRoomOutline_geo
v 9.077527 6.232579 8.910354
v 9.891958 6.225309 8.906676
v 9.143207 6.448287 8.787516
v 9.826279 6.448287 8.787516
v 9.015044 6.467298 8.537486
v 9.954439 6.467298 8.537486
v 8.924719 6.225309 8.392154
v 10.04477 6.225309 8.392154
v 8.972007 6.163081 8.421081
v 9.997478 6.163082 8.421081
v 9.857573 6.163082 8.87775
v 9.111912 6.170351 8.881428
v 8.972007 6.137706 8.421081
v 9.997478 6.137706 8.421081
v 9.857573 6.137706 8.87775
v 9.111912 6.137706 8.881428
v 9.997478 6.137706 8.789236
v 9.997478 6.163082 8.789236
v 10.04477 6.225309 8.794264
v 9.954439 6.459566 8.737341
v 9.015044 6.459566 8.737341
v 8.924719 6.225309 8.794264
v 8.972007 6.163081 8.789236
v 8.972007 6.137706 8.789236
v 9.497321 6.137706 8.923606
v 9.497321 6.163082 8.923606
v 9.498481 6.225309 8.952533
v 9.496264 6.441017 8.829694
v 9.499037 6.483054 8.737341
v 9.499037 6.487702 8.537486
v 9.501786 6.225309 8.392154
v 9.500347 6.163082 8.421081
v 9.500347 6.137706 8.421081
v 8.924719 6.225309 8.392154
v 9.501786 6.225309 8.392154
v 9.499037 6.487702 8.537486
v 9.015044 6.467298 8.537486
v 9.954439 6.467298 8.537486
v 10.04477 6.225309 8.392154
v 9.997478 6.137706 8.789236
v 9.997478 6.137706 8.421081
v 9.500347 6.137706 8.421081
v 8.972007 6.137706 8.421081
v 8.972007 6.137706 8.789236
v 9.857573 6.137706 8.87775
v 9.111912 6.137706 8.881428
v 9.497321 6.137706 8.923606
vt 0.7661956 0.4356029
vt 0.7657036 0.4356029
vt 0.8125062 0.5916768
vt 0.8120151 0.5916768
vt 0.7414805 0.4142928
vt 0.7331724 0.5980035
vt 0.7414805 0.4142928
vt 0.6762044 0.4356029
vt 0.7189156 0.4161992
vt 0.7184236 0.4161992
vt 0.7810416 0.4161992
vt 0.7815337 0.4161992
vt 0.7189156 0.4161992
vt 0.7184236 0.4161992
vt 0.7810416 0.4161992
vt 0.7815337 0.4161992
vt 0.7184236 0.4161992
vt 0.7184236 0.4161992
vt 0.6762044 0.4356029
vt 0.7331724 0.5980035
vt 0.7336626 0.5980035
vt 0.6766955 0.4356029
vt 0.7189156 0.4161992
vt 0.7189156 0.4161992
vt 0.9950703 0.4161992
vt 0.9950703 0.4161992
vt 0.9950703 0.4356029
vt 0.9950703 0.5980035
vt 0.9950703 0.5980035
vt 0.7414805 0.4142928
vt 0.7414805 0.4142928
vt 0.9950703 0.4161992
vt 0.9950703 0.4161992
vt 0.6766955 0.4356029
vt 0.9950703 0.4356029
vt 0.9950703 0.5980035
vt 0.7336626 0.5980035
vt 0.7414805 0.4142928
vt 0.7414805 0.4142928
vt 0 1
vt 0 1
vt 0 1
vt 0 1
vt 0 1
vt 0 1
vt 0 1
vt 0 1
vn -0.3259969 0.003440159 0.9453647
vn 0.3286431 -0.004405178 0.9444439
vn -0.202058 0.671409 0.7130095
vn 0.2039329 0.6627311 0.7205546
vn -0.4383193 0.8202542 -0.3675041
vn 0.43955 0.8197243 -0.3672162
vn -0.6999943 -0.06919406 -0.7107883
vn 0.700142 -0.06911682 -0.7106504
vn -0.6384084 -0.3648633 -0.6777236
vn 0.6384085 -0.3648632 -0.6777236
vn 0.3320931 -0.253052 0.9086688
vn -0.3291557 -0.2522933 0.9099475
vn -0.577351 -0.57735 -0.57735
vn 0.5773502 -0.5773503 -0.5773503
vn 0.3013088 -0.4558835 0.8374863
vn -0.3014348 -0.4573972 0.8366151
vn 0.7607666 -0.4957228 0.4189188
vn 0.8272358 -0.3280832 0.4561164
vn 0.8666402 -0.1027534 0.4882381
vn 0.4396384 0.8221639 0.3616138
vn -0.4408188 0.8242744 0.3553176
vn -0.8691505 -0.09813017 0.4847143
vn -0.8290319 -0.3269901 0.4536338
vn -0.7655609 -0.4938371 0.4123606
vn 0.007860975 -0.4497056 0.8931423
vn 0.006320729 -0.2288917 0.9734313
vn 0.006524252 0.03110921 0.9994947
vn 0.004894351 0.7528873 0.6581312
vn 0.001376644 0.977897 0.2090827
vn 0.001003511 0.8736898 -0.4864826
vn 0.0001708429 0.04457597 -0.999006
vn -7.958687E-07 -0.2158526 -0.9764259
vn -8.143949E-07 -0.4472136 -0.8944272
vn -0.6999943 -0.06919406 -0.7107883
vn 0.0001708429 0.04457597 -0.999006
vn 0.001003511 0.8736898 -0.4864826
vn -0.4383193 0.8202542 -0.3675041
vn 0.43955 0.8197243 -0.3672162
vn 0.700142 -0.06911682 -0.7106504
vn 0.7607666 -0.4957228 0.4189188
vn 0.5773502 -0.5773503 -0.5773503
vn -8.143949E-07 -0.4472136 -0.8944272
vn -0.577351 -0.57735 -0.57735
vn -0.7655609 -0.4938371 0.4123606
vn 0.3013088 -0.4558835 0.8374863
vn -0.3014348 -0.4573972 0.8366151
vn 0.007860975 -0.4497056 0.8931423
g Z1_chrisRoomOutline_geo_0
f 31/31/31 30/30/30 38/38/38
f 5/5/5 30/30/30 31/31/31
f 7/7/7 5/5/5 31/31/31
f 39/39/39 31/31/31 38/38/38
f 40/40/40 42/42/42 41/41/41
f 43/43/43 42/42/42 40/40/40
f 44/44/44 43/43/43 40/40/40
f 45/45/45 44/44/44 40/40/40
f 46/46/46 44/44/44 45/45/45
f 47/47/47 46/46/46 45/45/45
f 32/32/32 35/35/35 8/8/8
f 34/34/34 35/35/35 32/32/32
f 9/9/9 34/34/34 32/32/32
f 23/23/23 34/34/34 9/9/9
f 24/24/24 23/23/23 9/9/9
f 12/12/12 23/23/23 24/24/24
f 16/16/16 12/12/12 24/24/24
f 26/26/26 12/12/12 16/16/16
f 25/25/25 26/26/26 16/16/16
f 11/11/11 26/26/26 25/25/25
f 15/15/15 11/11/11 25/25/25
f 18/18/18 11/11/11 15/15/15
f 17/17/17 18/18/18 15/15/15
f 10/10/10 18/18/18 17/17/17
f 14/14/14 10/10/10 17/17/17
f 33/33/33 10/10/10 14/14/14
f 9/9/9 13/13/13 24/24/24
f 33/33/33 13/13/13 9/9/9
f 32/32/32 33/33/33 9/9/9
f 10/10/10 33/33/33 32/32/32
f 8/8/8 10/10/10 32/32/32
f 18/18/18 10/10/10 8/8/8
f 19/19/19 18/18/18 8/8/8
f 11/11/11 18/18/18 19/19/19
f 2/2/2 11/11/11 19/19/19
f 26/26/26 11/11/11 2/2/2
f 27/27/27 26/26/26 2/2/2
f 12/12/12 26/26/26 27/27/27
f 1/1/1 12/12/12 27/27/27
f 23/23/23 12/12/12 1/1/1
f 22/22/22 23/23/23 1/1/1
f 34/34/34 23/23/23 22/22/22
f 21/21/21 34/34/34 22/22/22
f 37/37/37 34/34/34 21/21/21
f 36/36/36 37/37/37 21/21/21
f 3/3/3 22/22/22 1/1/1
f 21/21/21 22/22/22 3/3/3
f 29/29/29 21/21/21 3/3/3
f 36/36/36 21/21/21 29/29/29
f 20/20/20 36/36/36 29/29/29
f 6/6/6 36/36/36 20/20/20
f 8/8/8 6/6/6 20/20/20
f 4/4/4 20/20/20 29/29/29
f 2/2/2 20/20/20 4/4/4
f 28/28/28 2/2/2 4/4/4
f 27/27/27 2/2/2 28/28/28
f 1/1/1 27/27/27 28/28/28
f 28/28/28 3/3/3 1/1/1
f 29/29/29 3/3/3 28/28/28
f 4/4/4 29/29/29 28/28/28
f 20/20/20 19/19/19 8/8/8
f 2/2/2 19/19/19 20/20/20
