g Z1_detailWindowZings_geo
v -3.496717 0.9703885 -4.988791
v -2.206692 0.9703885 -4.988791
v -2.206692 1.633599 -4.988791
v -3.496717 1.633599 -4.988791
v -3.496717 1.802418 -4.988791
v -2.206692 1.802418 -4.988791
v -2.206692 2.509483 -4.988791
v -3.496717 2.509483 -4.988791
v -2.026026 1.802418 -4.988791
v -0.7303607 1.802418 -4.988791
v -0.7303607 2.509483 -4.988791
v -2.026026 2.509483 -4.988791
v -2.026026 0.9703885 -4.988791
v -0.7303607 0.9703885 -4.988791
v -0.7303607 1.633599 -4.988791
v -2.026026 1.633599 -4.988791
v 10.72049 0.8936059 -4.994808
v 13.11002 0.8936059 -4.994808
v 13.11002 2.952177 -4.994808
v 10.72049 2.952177 -4.994808
v 18.24481 1.263182 -1.127049
v 18.24481 1.263182 0.6610382
v 18.24481 3.088023 0.6610382
v 18.24481 3.088023 -1.127049
v -8.24021 0.5432923 15.72352
v -8.24021 0.5432923 16.1457
v -8.24021 0.1759766 16.1457
v -8.24021 0.1759766 15.72352
v -8.24021 0.5432923 16.34814
v -8.24021 0.5432923 16.77032
v -8.24021 0.1759766 16.77032
v -8.24021 0.1759766 16.34814
v -8.24021 1.857819 16.34814
v -8.24021 1.857819 16.77032
v -8.24021 1.515541 16.77032
v -8.24021 1.515541 16.34814
v -8.24021 1.420926 16.34814
v -8.24021 1.420926 16.77032
v -8.24021 1.07847 16.77032
v -8.24021 1.07847 16.34814
v -8.24021 0.9838539 16.34814
v -8.24021 0.9838539 16.77032
v -8.24021 0.6370277 16.77032
v -8.24021 0.6370277 16.34814
v -8.24021 1.857819 15.72352
v -8.24021 1.857819 16.1457
v -8.24021 1.515541 16.1457
v -8.24021 1.515541 15.72352
v -8.24021 1.420926 15.72352
v -8.24021 1.420926 16.1457
v -8.24021 1.07847 16.1457
v -8.24021 1.07847 15.72352
v -8.24021 0.9838539 15.72352
v -8.24021 0.9838539 16.1457
v -8.24021 0.6370277 16.1457
v -8.24021 0.6370277 15.72352
v -8.24021 1.95172 16.1457
v -8.24021 2.299084 16.1457
v -8.24021 1.95172 15.72352
v -8.24021 2.299085 15.72352
v -8.24021 1.95172 16.77032
v -8.24021 2.299085 16.77032
v -8.24021 1.95172 16.34814
v -8.24021 2.299085 16.34814
v 12.97585 1.096622 26.48439
v 11.68582 1.096622 26.48439
v 11.68582 1.856643 26.48439
v 12.97585 1.856643 26.48439
v 11.50516 1.096622 26.48439
v 10.20949 1.096622 26.48439
v 10.20949 1.856643 26.48439
v 11.50516 1.856643 26.48439
v 11.50516 2.06876 26.48439
v 10.20949 2.06876 26.48439
v 10.20949 2.843019 26.48439
v 11.50516 2.843019 26.48439
v 12.97585 2.06876 26.48439
v 11.68582 2.06876 26.48439
v 11.68582 2.843019 26.48439
v 12.97585 2.843019 26.48439
v 18.23152 2.164804 5.783691
v 18.23152 2.164804 4.716307
v 18.23152 1.122077 4.716307
v 18.23152 1.122077 5.783691
v -8.232237 2.171805 24.52302
v -8.232237 2.171805 23.233
v -8.232238 2.87887 23.233
v -8.232237 2.87887 24.52302
v -8.232237 2.171805 23.05233
v -8.232237 2.171805 21.75666
v -8.232238 2.87887 21.75666
v -8.232237 2.87887 23.05233
v -8.232237 1.323569 24.52302
v -8.232237 1.323569 23.233
v -8.232238 2.030633 23.233
v -8.232237 2.030633 24.52302
v -8.232237 1.323569 23.05233
v -8.232237 1.323569 21.75666
v -8.232238 2.030633 21.75666
v -8.232237 2.030633 23.05233
v 9.206554 5.806139 -7.517425
v 11.47372 5.806139 -7.517425
v 11.47372 7.497472 -7.517425
v 9.206554 7.497472 -7.517425
v -14.95936 6.153304 0.1255542
v -14.95936 6.153304 -2.61164
v -14.95936 8.081463 -2.61164
v -14.95936 8.081463 0.1255542
v -8.779476 6.146589 -7.442424
v -6.042281 6.146589 -7.442424
v -6.042281 8.074747 -7.442424
v -8.779476 8.074747 -7.442424
v 15.98026 5.719187 -2.716367
v 15.98026 5.719187 -1.022064
v 15.98026 7.410521 -1.022064
v 15.98026 7.410521 -2.716367
v 14.18059 5.97821 7.672911
v 13.82388 7.492578 7.672911
v 13.3742 7.558333 7.672911
v 12.56782 5.97821 7.67291
v 12.92452 7.492578 7.672911
v 12.56782 7.384705 7.67291
v 14.18059 7.384705 7.672911
v -4.836407 5.892335 19.35264
v -5.069671 6.964353 19.35264
v -5.363731 7.02413 19.35264
v -5.891055 5.892335 19.35264
v -5.657791 6.964353 19.35264
v -5.891055 6.866288 19.35264
v -4.836407 6.866288 19.35264
v -8.24021 0.5402186 4.315509
v -8.24021 0.5402186 4.737684
v -8.24021 0.1759766 4.737684
v -8.24021 0.1759766 4.315509
v -8.24021 0.5402186 4.940131
v -8.24021 0.5402186 5.362306
v -8.24021 0.1759766 5.362306
v -8.24021 0.1759766 4.940131
v -8.24021 1.86586 4.940131
v -8.24021 1.86586 5.362306
v -8.24021 1.523298 5.362306
v -8.24021 1.523298 4.940131
v -8.24021 1.428682 4.940131
v -8.24021 1.428682 5.362306
v -8.24021 1.070067 5.362306
v -8.24021 1.070067 4.940131
v -8.24021 0.9754516 4.940131
v -8.24021 0.9754516 5.362306
v -8.24021 0.6339539 5.362306
v -8.24021 0.6339539 4.940131
v -8.24021 1.86586 4.315509
v -8.24021 1.86586 4.737684
v -8.24021 1.523298 4.737684
v -8.24021 1.523298 4.315509
v -8.24021 1.428682 4.315509
v -8.24021 1.428682 4.737684
v -8.24021 1.070067 4.737684
v -8.24021 1.070067 4.315509
v -8.24021 0.9754516 4.315509
v -8.24021 0.9754516 4.737684
v -8.24021 0.6339539 4.737684
v -8.24021 0.6339539 4.315509
v -8.24021 1.959761 4.737684
v -8.24021 2.299084 4.737684
v -8.24021 1.959761 4.315509
v -8.24021 2.299085 4.315509
v -8.24021 1.959761 5.362306
v -8.24021 2.299085 5.362306
v -8.24021 1.959761 4.940131
v -8.24021 2.299085 4.940131
v 10.26977 6.18416 23.05622
v 8.503807 6.18416 23.05622
v 8.503807 7.665493 23.05622
v 10.26977 7.665493 23.05622
v 15.97196 6.354185 9.527006
v 15.97196 6.354185 11.0432
v 15.97196 7.626001 11.0432
v 15.97196 7.626001 9.527006
v -12.85035 5.940524 14.63173
v -12.85035 5.940524 12.5923
v -12.85035 7.154066 12.5923
v -12.85035 7.154066 14.63173
v -12.34189 6.0008 -3.836046
v -12.1006 7.515166 -3.836045
v -11.73648 7.580923 -3.836046
v -11.16163 6.0008 -3.836045
v -11.41529 7.515166 -3.836046
v -11.16163 7.407293 -3.836045
v -12.34189 7.407293 -3.836046
v -9.592587 5.940524 19.42728
v -11.63202 5.940524 19.42728
v -11.63202 7.154066 19.42728
v -9.592587 7.154066 19.42728
v -3.685503 2.171805 26.48227
v -4.97553 2.171805 26.48227
v -4.97553 2.87887 26.48227
v -3.685503 2.87887 26.48227
v -5.156194 2.171805 26.48227
v -6.45186 2.171805 26.48227
v -6.45186 2.87887 26.48227
v -5.156194 2.87887 26.48227
v -3.685503 1.323569 26.48227
v -4.97553 1.323569 26.48227
v -4.97553 2.030633 26.48227
v -3.685503 2.030633 26.48227
v -5.156194 1.323569 26.48227
v -6.45186 1.323569 26.48227
v -6.45186 2.030633 26.48227
v -5.156194 2.030633 26.48227
v 2.652388 2.171805 26.48227
v 1.362361 2.171805 26.48227
v 1.362361 2.87887 26.48227
v 2.652388 2.87887 26.48227
v 1.181697 2.171805 26.48227
v -0.1139697 2.171805 26.48227
v -0.1139697 2.87887 26.48227
v 1.181697 2.87887 26.48227
v 2.652388 1.323569 26.48227
v 1.362361 1.323569 26.48227
v 1.362361 2.030633 26.48227
v 2.652388 2.030633 26.48227
v 1.181697 1.323569 26.48227
v -0.1139697 1.323569 26.48227
v -0.1139697 2.030633 26.48227
v 1.181697 2.030633 26.48227
vt 0.7096069 0.2850667
vt 0.7096069 0.2850667
vt 0.7096069 0.3068622
vt 0.7096069 0.3068622
vt 0.7096069 0.3124102
vt 0.7096069 0.3124102
vt 0.7096069 0.335647
vt 0.7096069 0.335647
vt 0.7096069 0.3124102
vt 0.7096069 0.3124102
vt 0.7096069 0.335647
vt 0.7096069 0.335647
vt 0.7096069 0.2850667
vt 0.7096069 0.2850667
vt 0.7096069 0.3068622
vt 0.7096069 0.3068622
vt 0.7096071 0.2825434
vt 0.709607 0.2825434
vt 0.709607 0.3501955
vt 0.7096071 0.3501955
vt 0.7096069 0.2946889
vt 0.7096069 0.2946889
vt 0.7096069 0.3546598
vt 0.7096069 0.3546598
vt 0.7375004 0.2968518
vt 0.7375004 0.2968518
vt 0.7375004 0.2862672
vt 0.7375004 0.2862672
vt 0.7375004 0.2968518
vt 0.7375004 0.2968518
vt 0.7375004 0.2862672
vt 0.7375004 0.2862672
vt 0.7375004 0.3382853
vt 0.7375004 0.3382853
vt 0.7375004 0.3273502
vt 0.7375004 0.3273502
vt 0.7375004 0.3244652
vt 0.7375004 0.3244652
vt 0.7375004 0.3135302
vt 0.7375004 0.3135302
vt 0.7375004 0.3106451
vt 0.7375004 0.3106451
vt 0.7375004 0.2997101
vt 0.7375004 0.2997101
vt 0.7375004 0.3382853
vt 0.7375004 0.3382853
vt 0.7375004 0.3273502
vt 0.7375004 0.3273502
vt 0.7375004 0.3244652
vt 0.7375004 0.3244652
vt 0.7375004 0.3135302
vt 0.7375004 0.3135302
vt 0.7375004 0.3106451
vt 0.7375004 0.3106451
vt 0.7375004 0.2997101
vt 0.7375004 0.2997101
vt 0.7375004 0.3411486
vt 0.7375004 0.3510059
vt 0.7375004 0.3411486
vt 0.7375004 0.3510059
vt 0.7375004 0.3411486
vt 0.7375004 0.3510059
vt 0.7375004 0.3411486
vt 0.7375004 0.3510059
vt 0.709607 0.2892152
vt 0.709607 0.2892152
vt 0.709607 0.3141923
vt 0.709607 0.3141923
vt 0.7096071 0.2892152
vt 0.709607 0.2892152
vt 0.709607 0.3141923
vt 0.7096071 0.3141923
vt 0.7096071 0.3211632
vt 0.709607 0.3211632
vt 0.709607 0.3466082
vt 0.7096071 0.3466082
vt 0.709607 0.3211632
vt 0.709607 0.3211632
vt 0.709607 0.3466082
vt 0.709607 0.3466082
vt 0.7096069 0.3546598
vt 0.7096069 0.3546598
vt 0.7096069 0.2946889
vt 0.7096069 0.2946889
vt 0.7096069 0.3245497
vt 0.7096069 0.3245497
vt 0.7096069 0.3477863
vt 0.7096069 0.3477863
vt 0.7096069 0.3245497
vt 0.7096069 0.3245497
vt 0.7096069 0.3477863
vt 0.7096069 0.3477863
vt 0.7096069 0.2966734
vt 0.7096069 0.2966734
vt 0.7096069 0.3199102
vt 0.7096069 0.3199102
vt 0.7096069 0.2966734
vt 0.7096069 0.2966734
vt 0.7096069 0.3199102
vt 0.7096069 0.3199102
vt 0.7099456 0.2856582
vt 0.7099456 0.2856582
vt 0.7099454 0.3545545
vt 0.7099454 0.3545545
vt 0.7099455 0.2856581
vt 0.7099455 0.2856582
vt 0.7099455 0.3545545
vt 0.7099455 0.3545544
vt 0.7099454 0.2856581
vt 0.7099454 0.2856582
vt 0.7099456 0.3545545
vt 0.7099456 0.3545544
vt 0.7099455 0.2856582
vt 0.7099455 0.2856582
vt 0.7099454 0.3545545
vt 0.7099454 0.3545545
vt 0.5711641 0.1355654
vt 0.5711641 0.1875292
vt 0.5711641 0.1875292
vt 0.5711641 0.1355653
vt 0.5711641 0.1875292
vt 0.5711641 0.1875291
vt 0.5711641 0.1875291
vt 0.4547566 0.2902524
vt 0.4547566 0.3512713
vt 0.4547566 0.3512713
vt 0.4547566 0.2902523
vt 0.4547566 0.3512713
vt 0.4547566 0.3512713
vt 0.4547566 0.3512713
vt 0.7375003 0.2973738
vt 0.7375004 0.2973738
vt 0.7375004 0.2862672
vt 0.7375003 0.2862672
vt 0.7375003 0.2973738
vt 0.7375003 0.2973738
vt 0.7375003 0.2862672
vt 0.7375003 0.2862672
vt 0.7375003 0.3377958
vt 0.7375003 0.3377958
vt 0.7375003 0.3273502
vt 0.7375003 0.3273502
vt 0.7375003 0.3244652
vt 0.7375003 0.3244652
vt 0.7375003 0.3135302
vt 0.7375003 0.3135302
vt 0.7375003 0.3106451
vt 0.7375003 0.3106451
vt 0.7375003 0.3002319
vt 0.7375003 0.3002319
vt 0.7375003 0.3377958
vt 0.7375004 0.3377958
vt 0.7375004 0.3273502
vt 0.7375003 0.3273502
vt 0.7375003 0.3244652
vt 0.7375004 0.3244652
vt 0.7375004 0.3135302
vt 0.7375003 0.3135302
vt 0.7375003 0.3106451
vt 0.7375004 0.3106451
vt 0.7375004 0.3002319
vt 0.7375003 0.3002319
vt 0.7375004 0.3406591
vt 0.7375004 0.3510059
vt 0.7375003 0.3406591
vt 0.7375003 0.3510059
vt 0.7375003 0.3406591
vt 0.7375003 0.3510059
vt 0.7375003 0.3406591
vt 0.7375003 0.3510059
vt 0.7099455 0.2856582
vt 0.7099455 0.2856582
vt 0.7099454 0.3545545
vt 0.7099454 0.3545545
vt 0.7099455 0.2856582
vt 0.7099455 0.2856582
vt 0.7099454 0.3545545
vt 0.7099454 0.3545545
vt 0.7099454 0.2856582
vt 0.7099454 0.2856582
vt 0.7099455 0.3545545
vt 0.7099455 0.3545545
vt 0.3153427 0.1262386
vt 0.3153427 0.1906863
vt 0.3153427 0.1906863
vt 0.3153427 0.1262385
vt 0.3153427 0.1906863
vt 0.3153427 0.1906861
vt 0.3153427 0.1906862
vt 0.7099454 0.2856582
vt 0.7099454 0.2856582
vt 0.7099455 0.3545545
vt 0.7099455 0.3545545
vt 0.7096069 0.3245497
vt 0.7096069 0.3245497
vt 0.7096069 0.3477863
vt 0.7096069 0.3477863
vt 0.7096069 0.3245497
vt 0.7096069 0.3245497
vt 0.7096069 0.3477863
vt 0.7096069 0.3477863
vt 0.7096069 0.2966734
vt 0.7096069 0.2966734
vt 0.7096069 0.3199102
vt 0.7096069 0.3199102
vt 0.7096069 0.2966734
vt 0.7096069 0.2966734
vt 0.7096069 0.3199102
vt 0.7096069 0.3199102
vt 0.7096069 0.3245497
vt 0.7096069 0.3245497
vt 0.7096069 0.3477863
vt 0.7096069 0.3477863
vt 0.7096069 0.3245497
vt 0.7096069 0.3245497
vt 0.7096069 0.3477863
vt 0.7096069 0.3477863
vt 0.7096069 0.2966734
vt 0.7096069 0.2966734
vt 0.7096069 0.3199102
vt 0.7096069 0.3199102
vt 0.7096069 0.2966734
vt 0.7096069 0.2966734
vt 0.7096069 0.3199102
vt 0.7096069 0.3199102
vn 0 0 1
vn 0 0 1
vn 0 0 1
vn 0 0 1
vn 0 0 1
vn 0 0 1
vn 0 0 1
vn 0 0 1
vn 0 0 1
vn 0 0 1
vn 0 0 1
vn 0 0 1
vn 0 0 1
vn 0 0 1
vn 0 0 1
vn 0 0 1
vn 0 0 1
vn 0 0 1
vn 0 0 1
vn 0 0 1
vn -1 0 0
vn -1 0 0
vn -1 0 0
vn -1 0 0
vn 1 0 0
vn 1 0 0
vn 1 0 0
vn 1 0 0
vn 1 0 0
vn 1 0 0
vn 1 0 0
vn 1 0 0
vn 1 0 0
vn 1 0 0
vn 1 0 0
vn 1 0 0
vn 1 0 0
vn 1 0 0
vn 1 0 0
vn 1 0 0
vn 1 0 0
vn 1 0 0
vn 1 0 0
vn 1 0 0
vn 1 0 0
vn 1 0 0
vn 1 0 0
vn 1 0 0
vn 1 0 0
vn 1 0 0
vn 1 0 0
vn 1 0 0
vn 1 0 0
vn 1 0 0
vn 1 0 0
vn 1 0 0
vn 1 0 0
vn 1 0 0
vn 1 0 0
vn 1 0 0
vn 1 0 0
vn 1 0 0
vn 1 0 0
vn 1 0 0
vn 0 0 -1
vn 0 0 -1
vn 0 0 -1
vn 0 0 -1
vn 0 0 -1
vn 0 0 -1
vn 0 0 -1
vn 0 0 -1
vn 0 0 -1
vn 0 0 -1
vn 0 0 -1
vn 0 0 -1
vn 0 0 -1
vn 0 0 -1
vn 0 0 -1
vn 0 0 -1
vn -1 0 0
vn -1 0 0
vn -1 0 0
vn -1 0 0
vn 1 8.565105E-07 -2.365656E-07
vn 1 8.565105E-07 -2.365656E-07
vn 1 8.565105E-07 -2.365656E-07
vn 1 8.565105E-07 -2.365656E-07
vn 1 8.527825E-07 -2.355359E-07
vn 1 8.527825E-07 -2.355359E-07
vn 1 8.527825E-07 -2.355359E-07
vn 1 8.527825E-07 -2.355359E-07
vn 1 8.565105E-07 -2.365656E-07
vn 1 8.565105E-07 -2.365656E-07
vn 1 8.565105E-07 -2.365656E-07
vn 1 8.565105E-07 -2.365656E-07
vn 1 8.527825E-07 -2.355359E-07
vn 1 8.527825E-07 -2.355359E-07
vn 1 8.527825E-07 -2.355359E-07
vn 1 8.527825E-07 -2.355359E-07
vn 0 0 1
vn 0 0 1
vn 0 0 1
vn 0 0 1
vn 1 0 -4.459687E-07
vn 1 0 -4.459687E-07
vn 1 0 -4.459687E-07
vn 1 0 -4.459687E-07
vn 0 0 1
vn 0 0 1
vn 0 0 1
vn 0 0 1
vn -1 0 7.204754E-07
vn -1 0 7.204754E-07
vn -1 0 7.204754E-07
vn -1 0 7.204754E-07
vn -2.906907E-07 1.287559E-07 -1
vn -7.426027E-07 0 -1
vn 5.014216E-07 4.070364E-07 -1
vn 1.904846E-06 4.070364E-07 -1
vn 2.550703E-06 4.174209E-07 -1
vn 2.725069E-06 0 -1
vn 0 0 -1
vn -4.368947E-06 0 -1
vn -6.55342E-06 0 -1
vn 3.673392E-06 -7.12156E-07 -1
vn 2.88418E-06 -7.12156E-07 -1
vn 4.32627E-06 -1.068234E-06 -1
vn -1.71939E-06 0 -1
vn -1.375509E-05 0 -1
vn 1 0 0
vn 1 0 0
vn 1 0 0
vn 1 0 0
vn 1 0 0
vn 1 0 0
vn 1 0 0
vn 1 0 0
vn 1 0 0
vn 1 0 0
vn 1 0 0
vn 1 0 0
vn 1 0 0
vn 1 0 0
vn 1 0 0
vn 1 0 0
vn 1 0 0
vn 1 0 0
vn 1 0 0
vn 1 0 0
vn 1 0 0
vn 1 0 0
vn 1 0 0
vn 1 0 0
vn 1 0 0
vn 1 0 0
vn 1 0 0
vn 1 0 0
vn 1 0 0
vn 1 0 0
vn 1 0 0
vn 1 0 0
vn 1 0 0
vn 1 0 0
vn 1 0 0
vn 1 0 0
vn 1 0 0
vn 1 0 0
vn 1 0 0
vn 1 0 0
vn -1.19458E-06 0 -1
vn -1.19458E-06 0 -1
vn -1.19458E-06 0 -1
vn -1.19458E-06 0 -1
vn -1 0 8.051121E-07
vn -1 0 8.051121E-07
vn -1 0 8.051121E-07
vn -1 0 8.051121E-07
vn 1 0 0
vn 1 0 0
vn 1 0 0
vn 1 0 0
vn 0 0 1
vn 5.014664E-07 -1.724967E-07 1
vn 0 1.927467E-07 1
vn -1.331318E-06 3.077444E-07 1
vn -1.368614E-06 3.130153E-07 1
vn -2.737227E-06 0 1
vn 0 0 1
vn 0 0 -1
vn 0 0 -1
vn 0 0 -1
vn 0 0 -1
vn -1.71302E-06 1.726439E-06 -1
vn -1.71302E-06 1.726439E-06 -1
vn -1.71302E-06 1.726439E-06 -1
vn -1.71302E-06 1.726439E-06 -1
vn -1.705563E-06 1.726439E-06 -1
vn -1.705563E-06 1.726439E-06 -1
vn -1.705563E-06 1.726439E-06 -1
vn -1.705563E-06 1.726439E-06 -1
vn -1.71302E-06 1.726439E-06 -1
vn -1.71302E-06 1.726439E-06 -1
vn -1.71302E-06 1.726439E-06 -1
vn -1.71302E-06 1.726439E-06 -1
vn -1.705564E-06 1.726439E-06 -1
vn -1.705564E-06 1.726439E-06 -1
vn -1.705564E-06 1.726439E-06 -1
vn -1.705564E-06 1.726439E-06 -1
vn -1.71302E-06 1.726439E-06 -1
vn -1.71302E-06 1.726439E-06 -1
vn -1.71302E-06 1.726439E-06 -1
vn -1.71302E-06 1.726439E-06 -1
vn -1.705563E-06 1.726439E-06 -1
vn -1.705563E-06 1.726439E-06 -1
vn -1.705563E-06 1.726439E-06 -1
vn -1.705563E-06 1.726439E-06 -1
vn -1.71302E-06 1.726439E-06 -1
vn -1.71302E-06 1.726439E-06 -1
vn -1.71302E-06 1.726439E-06 -1
vn -1.71302E-06 1.726439E-06 -1
vn -1.705564E-06 1.726439E-06 -1
vn -1.705564E-06 1.726439E-06 -1
vn -1.705564E-06 1.726439E-06 -1
vn -1.705564E-06 1.726439E-06 -1
g Z1_detailWindowZings_geo_0
f 3/3/3 1/1/1 2/2/2
f 4/4/4 1/1/1 3/3/3
f 7/7/7 5/5/5 6/6/6
f 8/8/8 5/5/5 7/7/7
f 11/11/11 9/9/9 10/10/10
f 12/12/12 9/9/9 11/11/11
f 15/15/15 13/13/13 14/14/14
f 16/16/16 13/13/13 15/15/15
f 19/19/19 17/17/17 18/18/18
f 20/20/20 17/17/17 19/19/19
f 23/23/23 21/21/21 22/22/22
f 24/24/24 21/21/21 23/23/23
f 27/27/27 25/25/25 26/26/26
f 28/28/28 25/25/25 27/27/27
f 31/31/31 29/29/29 30/30/30
f 32/32/32 29/29/29 31/31/31
f 35/35/35 33/33/33 34/34/34
f 36/36/36 33/33/33 35/35/35
f 39/39/39 37/37/37 38/38/38
f 40/40/40 37/37/37 39/39/39
f 43/43/43 41/41/41 42/42/42
f 44/44/44 41/41/41 43/43/43
f 47/47/47 45/45/45 46/46/46
f 48/48/48 45/45/45 47/47/47
f 51/51/51 49/49/49 50/50/50
f 52/52/52 49/49/49 51/51/51
f 55/55/55 53/53/53 54/54/54
f 56/56/56 53/53/53 55/55/55
f 59/59/59 58/58/58 57/57/57
f 60/60/60 58/58/58 59/59/59
f 63/63/63 62/62/62 61/61/61
f 64/64/64 62/62/62 63/63/63
f 67/67/67 65/65/65 66/66/66
f 68/68/68 65/65/65 67/67/67
f 71/71/71 69/69/69 70/70/70
f 72/72/72 69/69/69 71/71/71
f 75/75/75 73/73/73 74/74/74
f 76/76/76 73/73/73 75/75/75
f 79/79/79 77/77/77 78/78/78
f 80/80/80 77/77/77 79/79/79
f 83/83/83 81/81/81 82/82/82
f 84/84/84 81/81/81 83/83/83
f 87/87/87 85/85/85 86/86/86
f 88/88/88 85/85/85 87/87/87
f 91/91/91 89/89/89 90/90/90
f 92/92/92 89/89/89 91/91/91
f 95/95/95 93/93/93 94/94/94
f 96/96/96 93/93/93 95/95/95
f 99/99/99 97/97/97 98/98/98
f 100/100/100 97/97/97 99/99/99
f 103/103/103 101/101/101 102/102/102
f 104/104/104 101/101/101 103/103/103
f 107/107/107 105/105/105 106/106/106
f 108/108/108 105/105/105 107/107/107
f 111/111/111 109/109/109 110/110/110
f 112/112/112 109/109/109 111/111/111
f 115/115/115 113/113/113 114/114/114
f 116/116/116 113/113/113 115/115/115
f 117/117/117 118/118/118 123/123/123
f 119/119/119 118/118/118 117/117/117
f 120/120/120 119/119/119 117/117/117
f 121/121/121 119/119/119 120/120/120
f 122/122/122 121/121/121 120/120/120
f 124/124/124 125/125/125 130/130/130
f 126/126/126 125/125/125 124/124/124
f 127/127/127 126/126/126 124/124/124
f 128/128/128 126/126/126 127/127/127
f 129/129/129 128/128/128 127/127/127
f 133/133/133 131/131/131 132/132/132
f 134/134/134 131/131/131 133/133/133
f 137/137/137 135/135/135 136/136/136
f 138/138/138 135/135/135 137/137/137
f 141/141/141 139/139/139 140/140/140
f 142/142/142 139/139/139 141/141/141
f 145/145/145 143/143/143 144/144/144
f 146/146/146 143/143/143 145/145/145
f 149/149/149 147/147/147 148/148/148
f 150/150/150 147/147/147 149/149/149
f 153/153/153 151/151/151 152/152/152
f 154/154/154 151/151/151 153/153/153
f 157/157/157 155/155/155 156/156/156
f 158/158/158 155/155/155 157/157/157
f 161/161/161 159/159/159 160/160/160
f 162/162/162 159/159/159 161/161/161
f 165/165/165 164/164/164 163/163/163
f 166/166/166 164/164/164 165/165/165
f 169/169/169 168/168/168 167/167/167
f 170/170/170 168/168/168 169/169/169
f 173/173/173 171/171/171 172/172/172
f 174/174/174 171/171/171 173/173/173
f 177/177/177 175/175/175 176/176/176
f 178/178/178 175/175/175 177/177/177
f 181/181/181 179/179/179 180/180/180
f 182/182/182 179/179/179 181/181/181
f 183/183/183 184/184/184 189/189/189
f 185/185/185 184/184/184 183/183/183
f 186/186/186 185/185/185 183/183/183
f 187/187/187 185/185/185 186/186/186
f 188/188/188 187/187/187 186/186/186
f 192/192/192 190/190/190 191/191/191
f 193/193/193 190/190/190 192/192/192
f 196/196/196 194/194/194 195/195/195
f 197/197/197 194/194/194 196/196/196
f 200/200/200 198/198/198 199/199/199
f 201/201/201 198/198/198 200/200/200
f 204/204/204 202/202/202 203/203/203
f 205/205/205 202/202/202 204/204/204
f 208/208/208 206/206/206 207/207/207
f 209/209/209 206/206/206 208/208/208
f 212/212/212 210/210/210 211/211/211
f 213/213/213 210/210/210 212/212/212
f 216/216/216 214/214/214 215/215/215
f 217/217/217 214/214/214 216/216/216
f 220/220/220 218/218/218 219/219/219
f 221/221/221 218/218/218 220/220/220
f 224/224/224 222/222/222 223/223/223
f 225/225/225 222/222/222 224/224/224
