g Z1_detailChrisBed_geo
v 11.93117 5.05239 11.41
v 11.94059 5.05239 14.44331
v 11.98445 5.528303 11.46608
v 11.98445 5.528303 14.39513
v 14.78859 5.528303 11.3878
v 14.78859 5.528303 14.49616
v 14.78859 5.023432 11.3878
v 14.78859 5.023432 14.49616
v 12.04337 5.023432 14.5458
v 12.08356 5.528303 14.49616
v 12.08356 5.528303 11.3878
v 12.03027 5.05239 11.33171
v 12.08356 5.561057 11.46608
v 14.78859 5.561057 11.46608
v 12.08356 5.561057 14.39513
v 14.78859 5.561057 14.39513
v 14.60734 5.023432 14.49616
v 14.60734 5.528303 14.49616
v 14.60734 5.561057 14.39513
v 14.60734 5.561057 11.46608
v 14.60734 5.528303 11.3878
v 14.60734 5.023432 11.3878
v 14.61794 5.023432 14.49616
v 14.61794 5.528303 14.49616
v 14.61794 5.561057 14.39513
v 14.61794 5.561057 11.46608
v 14.61794 5.528303 11.3878
v 14.61794 5.023432 11.3878
v 14.77575 5.023432 14.49616
v 14.77575 5.528303 14.49616
v 14.77575 5.561057 14.39513
v 14.77575 5.561057 11.46608
v 14.77575 5.528303 11.3878
v 14.77575 5.023432 11.3878
v 14.78859 5.038959 14.49616
v 14.77575 5.038959 14.49616
v 14.61794 5.038959 14.49616
v 14.60734 5.038959 14.49616
v 12.04337 5.038959 14.5458
v 11.94059 5.067917 14.44331
v 11.93117 5.067917 11.41
v 12.03027 5.067916 11.33171
v 14.60734 5.038959 11.3878
v 14.61794 5.038959 11.3878
v 14.77575 5.038959 11.3878
v 14.78859 5.038959 11.3878
v 11.98445 5.038959 14.24674
v 11.98445 5.023432 14.24203
v 12.19836 5.038959 14.49616
v 11.98445 5.023432 11.60023
v 11.98445 5.038959 11.5961
v 12.19313 5.038959 11.3878
v 12.19661 5.023432 11.3878
v 12.19956 5.023432 14.49616
v 14.60734 5.528303 14.49616
v 14.60734 5.561057 14.39513
v 14.60734 5.561057 11.46608
v 14.60734 5.528303 11.3878
v 14.61794 5.528303 14.49616
v 14.61794 5.561057 14.39513
v 14.61794 5.561057 11.46608
v 14.61794 5.528303 11.3878
v 14.77575 5.528303 14.49616
v 14.77575 5.561057 14.39513
v 14.77575 5.561057 11.46608
v 14.77575 5.528303 11.3878
v 14.61794 5.038959 14.49616
v 14.77575 5.528303 14.49616
v 14.77575 5.038959 14.49616
v 14.61794 5.528303 14.49616
v 12.19836 5.038959 14.49616
v 14.60734 5.528303 14.49616
v 14.60734 5.038959 14.49616
v 12.08356 5.528303 14.49616
v 11.94059 5.067917 14.44331
v 12.04337 5.038959 14.5458
v 11.98445 5.528303 14.39513
v 11.98445 5.038959 14.24674
v 12.03027 5.067916 11.33171
v 11.98445 5.528303 11.46608
v 11.93117 5.067917 11.41
v 12.08356 5.528303 11.3878
v 12.19313 5.038959 11.3878
v 14.77575 5.038959 11.3878
v 14.61794 5.528303 11.3878
v 14.61794 5.038959 11.3878
v 14.77575 5.528303 11.3878
v 11.98445 5.038959 11.5961
v 14.60734 5.038959 11.3878
v 14.60734 5.528303 11.3878
v 11.98445 5.528303 14.39513
v 11.94059 5.067917 14.44331
v 11.93117 5.067917 11.41
v 11.98445 5.528303 11.46608
vt 0 1
vt 0 1
vt 0.3813033 0.3655826
vt 0.3813033 0.3655825
vt 0 1
vt 0 1
vt 0 1
vt 0 1
vt 0 1
vt 0.3813033 0.3655825
vt 0.3813033 0.3655826
vt 0 1
vt 0.3813033 0.3967643
vt 0 1
vt 0.3813033 0.3967642
vt 0 1
vt 0 1
vt 0.3813033 0.3992528
vt 0.3813033 0.4304346
vt 0.3813033 0.4304347
vt 0.3813033 0.399253
vt 0 1
vt 0 1
vt 0 1
vt 0 1
vt 0 1
vt 0 1
vt 0 1
vt 0 1
vt 0.5690796 0.9029099
vt 0.5690796 0.9029099
vt 0.5690796 0.9029099
vt 0.5690796 0.9029099
vt 0 1
vt 0 1
vt 0 1
vt 0 1
vt 0 1
vt 0 1
vt 0 1
vt 0 1
vt 0 1
vt 0 1
vt 0 1
vt 0 1
vt 0 1
vt 0 1
vt 0 1
vt 0 1
vt 0 1
vt 0.3893794 0.3745494
vt 0 1
vt 0 1
vt 0 1
vt 0 1
vt 0 1
vt 0 1
vt 0 1
vt 0.5690796 0.9029099
vt 0.5690796 0.9029099
vt 0.5690796 0.9029099
vt 0.5690796 0.9029099
vt 0 1
vt 0 1
vt 0 1
vt 0 1
vt 0.5724065 0.8641552
vt 0.5724065 0.8641551
vt 0.5724065 0.8641552
vt 0.5724065 0.8641551
vt 0.3893794 0.3760811
vt 0.3893794 0.4082198
vt 0.3893794 0.4082198
vt 0.3893794 0.3745494
vt 0.3893794 0.3745494
vt 0.3893794 0.3745494
vt 0.3893794 0.3745494
vt 0.3893794 0.3745494
vt 0.3893794 0.3745494
vt 0.3893793 0.3745494
vt 0.3893794 0.3745494
vt 0.3893793 0.3745494
vt 0.3893794 0.3760113
vt 0.5724065 0.8641551
vt 0.5724065 0.8641551
vt 0.5724065 0.8641551
vt 0.5724065 0.8641551
vt 0 1
vt 0.3893794 0.4082198
vt 0.3893793 0.4082198
vt 0.3893794 0.3745494
vt 0.3893794 0.3745494
vt 0.3893794 0.3745494
vt 0.3893794 0.3745494
vn -0.9518938 0.02218472 -0.3056239
vn -0.9601405 0.01898761 0.2788725
vn -0.8164737 0.5334963 -0.2207994
vn -0.8303133 0.5216271 0.196176
vn 0 0.5540804 -0.8324633
vn 0 0.5880547 0.8088212
vn 0 0 -1
vn 0.0001224993 -3.931284E-05 1
vn -0.2353873 0.006781455 0.9718779
vn -0.1759305 0.5266571 0.8316734
vn -0.1392871 0.5030748 -0.8529449
vn -0.1663693 0.02094113 -0.9858412
vn -0.1561495 0.9683369 -0.1947843
vn 0 0.9804344 -0.1968464
vn -0.157194 0.9754313 0.1543495
vn 0 0.9877403 0.1561062
vn 0 -7.862214E-05 1
vn 0 0.5880506 0.8088241
vn 0 0.9877394 0.1561119
vn 0 0.9804334 -0.1968512
vn 0 0.5540762 -0.8324659
vn 0 0 -1
vn 0 -7.862165E-05 1
vn 0 0.5880517 0.8088233
vn 0 0.9877396 0.1561104
vn 0 0.9804336 -0.1968497
vn 0 0.5540776 -0.8324651
vn 0 0 -1
vn 6.124967E-05 -5.896602E-05 1
vn 0 0.5880531 0.8088223
vn 0 0.98774 0.1561083
vn 0 0.9804345 -0.1968458
vn 0 0.5540808 -0.8324628
vn 0 0 -1
vn 6.124967E-05 -1.903274E-05 1
vn 3.062483E-05 -2.854753E-05 1
vn 0 -3.80635E-05 1
vn 0 -3.775919E-05 1
vn -0.2316781 0.06355121 0.9707144
vn -0.9583548 0.06767447 0.2774459
vn -0.9500337 0.08383587 -0.3006786
vn -0.1618965 0.07921761 -0.983623
vn 0 0 -1
vn 0 0 -1
vn 0 0 -1
vn 0 0 -1
vn -0.9933267 0.02569697 -0.1124356
vn -0.9937238 0.01674939 -0.1106
vn 0.153933 0.02099312 0.9878583
vn -0.989954 0.01859658 0.1401608
vn -0.9894245 0.02846237 0.1422287
vn 0.168692 0.02844921 -0.9852582
vn 0.1663946 0.01862306 -0.9858833
vn 0.1537832 0.005845984 0.9880874
vn 0 0.5880506 0.8088241
vn 0 0.9877394 0.1561119
vn 0 0.9804334 -0.1968512
vn 0 0.5540762 -0.8324659
vn 0 0.5880517 0.8088233
vn 0 0.9877396 0.1561104
vn 0 0.9804336 -0.1968497
vn 0 0.5540776 -0.8324651
vn 0 0.5880531 0.8088223
vn 0 0.98774 0.1561083
vn 0 0.9804345 -0.1968458
vn 0 0.5540808 -0.8324628
vn 0 -3.80635E-05 1
vn 0 0.5880531 0.8088223
vn 3.062483E-05 -2.854753E-05 1
vn 0 0.5880517 0.8088233
vn 0.153933 0.02099312 0.9878583
vn 0 0.5880506 0.8088241
vn 0 -3.775919E-05 1
vn -0.1759305 0.5266571 0.8316734
vn -0.9583548 0.06767447 0.2774459
vn -0.2316781 0.06355121 0.9707144
vn -0.8303133 0.5216271 0.196176
vn -0.9933267 0.02569697 -0.1124356
vn -0.1618965 0.07921761 -0.983623
vn -0.8164737 0.5334963 -0.2207994
vn -0.9500337 0.08383587 -0.3006786
vn -0.1392871 0.5030748 -0.8529449
vn 0.168692 0.02844921 -0.9852582
vn 0 0 -1
vn 0 0.5540776 -0.8324651
vn 0 0 -1
vn 0 0.5540808 -0.8324628
vn -0.9894245 0.02846237 0.1422287
vn 0 0 -1
vn 0 0.5540762 -0.8324659
vn -0.8303133 0.5216271 0.196176
vn -0.9583548 0.06767447 0.2774459
vn -0.9500337 0.08383587 -0.3006786
vn -0.8164737 0.5334963 -0.2207994
g Z1_detailChrisBed_geo_0
f 15/15/15 4/4/4 10/10/10
f 13/13/13 4/4/4 15/15/15
f 20/20/20 13/13/13 15/15/15
f 11/11/11 13/13/13 20/20/20
f 21/21/21 11/11/11 20/20/20
f 19/19/19 10/10/10 18/18/18
f 15/15/15 10/10/10 19/19/19
f 20/20/20 15/15/15 19/19/19
f 31/31/31 59/59/59 30/30/30
f 60/60/60 59/59/59 31/31/31
f 32/32/32 60/60/60 31/31/31
f 61/61/61 60/60/60 32/32/32
f 62/62/62 61/61/61 32/32/32
f 33/33/33 62/62/62 32/32/32
f 48/48/48 47/47/47 88/88/88
f 40/40/40 47/47/47 48/48/48
f 2/2/2 40/40/40 48/48/48
f 39/39/39 40/40/40 2/2/2
f 9/9/9 39/39/39 2/2/2
f 49/49/49 39/39/39 9/9/9
f 54/54/54 49/49/49 9/9/9
f 38/38/38 49/49/49 54/54/54
f 17/17/17 38/38/38 54/54/54
f 37/37/37 38/38/38 17/17/17
f 23/23/23 37/37/37 17/17/17
f 36/36/36 37/37/37 23/23/23
f 29/29/29 36/36/36 23/23/23
f 35/35/35 36/36/36 29/29/29
f 8/8/8 35/35/35 29/29/29
f 68/68/68 67/67/67 69/69/69
f 70/70/70 67/67/67 68/68/68
f 74/74/74 75/75/75 76/76/76
f 71/71/71 74/74/74 76/76/76
f 72/72/72 74/74/74 71/71/71
f 73/73/73 72/72/72 71/71/71
f 77/77/77 75/75/75 74/74/74
f 51/51/51 94/94/94 93/93/93
f 91/91/91 94/94/94 51/51/51
f 78/78/78 91/91/91 51/51/51
f 92/92/92 91/91/91 78/78/78
f 82/82/82 89/89/89 83/83/83
f 79/79/79 82/82/82 83/83/83
f 80/80/80 82/82/82 79/79/79
f 81/81/81 80/80/80 79/79/79
f 85/85/85 84/84/84 86/86/86
f 87/87/87 84/84/84 85/85/85
f 90/90/90 89/89/89 82/82/82
f 3/3/3 13/13/13 11/11/11
f 4/4/4 13/13/13 3/3/3
f 41/41/41 1/1/1 50/50/50
f 12/12/12 1/1/1 41/41/41
f 42/42/42 12/12/12 41/41/41
f 53/53/53 12/12/12 42/42/42
f 52/52/52 53/53/53 42/42/42
f 22/22/22 53/53/53 52/52/52
f 43/43/43 22/22/22 52/52/52
f 28/28/28 22/22/22 43/43/43
f 44/44/44 28/28/28 43/43/43
f 34/34/34 28/28/28 44/44/44
f 45/45/45 34/34/34 44/44/44
f 7/7/7 34/34/34 45/45/45
f 46/46/46 7/7/7 45/45/45
f 24/24/24 38/38/38 37/37/37
f 55/55/55 38/38/38 24/24/24
f 25/25/25 55/55/55 24/24/24
f 56/56/56 55/55/55 25/25/25
f 26/26/26 56/56/56 25/25/25
f 57/57/57 56/56/56 26/26/26
f 58/58/58 57/57/57 26/26/26
f 58/58/58 44/44/44 43/43/43
f 27/27/27 44/44/44 58/58/58
f 26/26/26 27/27/27 58/58/58
f 6/6/6 36/36/36 35/35/35
f 63/63/63 36/36/36 6/6/6
f 16/16/16 63/63/63 6/6/6
f 64/64/64 63/63/63 16/16/16
f 14/14/14 64/64/64 16/16/16
f 65/65/65 64/64/64 14/14/14
f 66/66/66 65/65/65 14/14/14
f 66/66/66 46/46/46 45/45/45
f 5/5/5 46/46/46 66/66/66
f 14/14/14 5/5/5 66/66/66
f 50/50/50 88/88/88 41/41/41
f 48/48/48 88/88/88 50/50/50
