g Z1_detailSiding_geo
v 2.619585 3.062965 7.992747
v 3.302654 3.062965 7.992747
v 3.302654 2.740548 7.992747
v 2.619585 2.740548 7.992747
v 3.029144 0.8017333 19.54409
v 1.853032 0.8017333 20.76199
v 3.029144 0.8241134 19.54409
v 1.853032 0.8241134 20.76199
v 3.186962 0.8241134 19.6965
v 2.010855 0.8241134 20.91439
v 3.029144 0.8241134 19.54409
v 1.853032 0.8241134 20.76199
vt 0.1477937 0.990014
vt 0.1477937 0.990014
vt 0.1477937 0.990014
vt 0.1477937 0.990014
vt 0.008048788 0.9702195
vt 0.008048788 0.9702194
vt 0.008048788 0.9702195
vt 0.008048788 0.9702194
vt 0.008048788 0.9806829
vt 0.008048788 0.9806829
vt 0.008048788 0.9806829
vt 0.008048788 0.9806829
vn 0 0 -1
vn 0 0 -1
vn 0 0 -1
vn 0 0 -1
vn -0.7193384 0 -0.6946598
vn -0.7193384 0 -0.6946598
vn -0.5086491 0.7071068 -0.4911986
vn -0.5086491 0.7071068 -0.4911986
vn 0 1 0
vn 0 1 0
vn -0.5086491 0.7071068 -0.4911986
vn -0.5086491 0.7071068 -0.4911986
g Z1_detailSiding_geo_0
f 3/3/3 1/1/1 2/2/2
f 4/4/4 1/1/1 3/3/3
f 8/8/8 5/5/5 6/6/6
f 7/7/7 5/5/5 8/8/8
f 10/10/10 11/11/11 12/12/12
f 9/9/9 11/11/11 10/10/10
