g Z1_masterBedroom_geo
v -11.01835 5.0037 3.459189
v -11.01835 5.0037 0.5301394
v -11.01835 5.595874 3.459189
v -11.01835 5.595874 0.5301394
v -11.11746 5.0037 0.4291107
v -11.11746 5.595874 0.4291107
v -11.11746 5.595874 3.537469
v -11.11746 5.0037 3.537469
v -13.64125 5.0037 0.4291107
v -13.64125 5.595874 0.4291107
v -13.64125 5.595874 3.537469
v -13.64125 5.0037 3.537469
v -13.8917 5.417535 4.294879
v -13.8917 5.540931 4.294879
v -13.8917 5.417535 4.601436
v -13.8917 5.540931 4.601436
v -13.8917 5.139579 4.294879
v -13.8917 5.262975 4.294879
v -13.8917 5.139579 4.601436
v -13.8917 5.262975 4.601436
v -13.8917 5.417535 -0.6309694
v -13.8917 5.540931 -0.6309694
v -13.8917 5.417535 -0.3244125
v -13.8917 5.540931 -0.3244125
v -13.8917 5.139579 -0.6309694
v -13.8917 5.262975 -0.6309694
v -13.8917 5.139579 -0.3244125
v -13.8917 5.262975 -0.3244125
v -11.04685 6.234259 -3.404164
v -11.26039 6.234259 -3.537206
v -11.29873 5.981387 -3.475665
v -11.0852 5.981387 -3.342621
v -12.50185 6.208827 -3.527161
v -12.74371 6.208827 -3.353196
v -12.70663 5.994272 -3.301646
v -12.46477 5.994272 -3.475611
v -12.93042 6.322046 -3.421426
v -13.12309 6.322046 -3.165554
v -13.04935 6.000114 -3.110025
v -12.85668 6.000114 -3.365898
v -12.58893 6.411539 -3.732232
v -12.93098 6.372109 -3.655589
v -12.87162 6.017568 -3.573057
v -12.52956 6.056998 -3.6497
v -13.37754 7.33245 -3.826355
v -13.31905 7.46431 -3.826356
v -13.2315 7.552417 -3.826355
v -13.12824 7.583356 -3.826355
v -13.02498 7.552417 -3.826355
v -12.93744 7.46431 -3.826355
v -12.87895 7.33245 -3.826356
v -12.85841 7.176908 -3.826355
v -12.87895 7.021368 -3.826355
v -12.93744 6.889507 -3.826355
v -13.02498 6.8014 -3.826355
v -13.12824 6.770461 -3.826356
v -13.2315 6.8014 -3.826355
v -13.31905 6.889507 -3.826355
v -13.37754 7.021368 -3.826355
v -13.39808 7.176908 -3.826355
v -14.36615 7.785135 -3.826355
v -14.30765 7.916996 -3.826356
v -14.22011 8.005102 -3.826355
v -14.11685 8.036042 -3.826355
v -14.01359 8.005102 -3.826355
v -13.92605 7.916996 -3.826355
v -13.86755 7.785135 -3.826356
v -13.84701 7.629594 -3.826355
v -13.86755 7.474054 -3.826355
v -13.92605 7.342192 -3.826355
v -14.01359 7.254086 -3.826355
v -14.11685 7.223146 -3.826356
v -14.22011 7.254086 -3.826355
v -14.30765 7.342192 -3.826355
v -14.36615 7.474053 -3.826355
v -14.38669 7.629594 -3.826355
v -12.94051 5.613724 -2.837718
v -12.94051 5.73712 -2.837718
v -13.24706 5.613724 -2.837718
v -13.24706 5.73712 -2.837718
v -12.94051 5.392866 -2.837718
v -12.94051 5.516262 -2.837718
v -13.24706 5.392866 -2.837718
v -13.24706 5.516262 -2.837718
v -12.94051 5.172009 -2.837718
v -12.94051 5.295404 -2.837718
v -13.24706 5.172009 -2.837718
v -13.24706 5.295404 -2.837718
v -11.52642 5.172009 -2.837718
v -11.52642 5.295404 -2.837718
v -11.83298 5.172009 -2.837718
v -11.83298 5.295404 -2.837718
v -11.52642 5.392866 -2.837718
v -11.52642 5.516262 -2.837718
v -11.83298 5.392866 -2.837718
v -11.83298 5.516262 -2.837718
v -5.97832 5.613723 1.480951
v -5.97832 5.737119 1.480951
v -5.97832 5.613723 1.174394
v -5.97832 5.737119 1.174394
v -5.97832 5.392866 1.480951
v -5.97832 5.516262 1.480951
v -5.97832 5.392866 1.174394
v -5.97832 5.516262 1.174394
v -5.97832 5.172008 1.480951
v -5.97832 5.295404 1.480951
v -5.97832 5.172008 1.174394
v -5.97832 5.295404 1.174394
v -5.97832 5.172008 2.895038
v -5.97832 5.295404 2.895038
v -5.97832 5.172008 2.588481
v -5.97832 5.295404 2.588481
v -5.97832 5.392866 2.895038
v -5.97832 5.516262 2.895038
v -5.97832 5.392866 2.588481
v -5.97832 5.516262 2.588481
v -5.97832 5.613723 2.895038
v -5.97832 5.737119 2.895038
v -5.97832 5.613723 2.588481
v -5.97832 5.737119 2.588481
v -4.954078 6.579499 -2.681049
v -4.954078 6.579499 -1.290507
v -4.954078 7.622625 -2.681049
v -4.954078 7.622625 -1.290507
v -9.904554 4.981502 4.183538
v -7.026765 4.981502 4.183538
v -9.904554 4.981502 0.1297887
v -7.026765 4.981502 0.1297887
v -9.904554 4.981502 4.426366
v -7.026765 4.981502 4.426366
v -9.904554 4.981502 -0.1130388
v -7.026765 4.981502 -0.1130388
v -9.904554 4.981502 0.1520925
v -7.026765 4.981502 0.1520925
v -9.904554 4.981502 4.161235
v -7.026765 4.981502 4.161235
v -14.51401 5.792745 0.6481921
v -14.53183 5.708878 0.6481921
v -14.09358 5.70338 0.6481921
v -14.11141 5.619512 0.6481921
v -14.51401 5.792745 3.382328
v -14.53183 5.708878 3.382328
v -14.11141 5.619512 3.382328
v -14.09358 5.70338 3.382328
v -11.52642 5.613724 -2.837718
v -11.52642 5.73712 -2.837718
v -11.83298 5.613724 -2.837718
v -11.83298 5.73712 -2.837718
v -12.25139 5.93124 -3.029812
v -12.1209 5.93124 -3.029812
v -12.25139 6.169799 -3.029812
v -12.1209 6.169799 -3.029812
v -12.25139 6.169799 -3.160308
v -12.1209 6.169799 -3.160308
v -12.25139 5.93124 -3.160308
v -12.1209 5.93124 -3.160308
v -12.20599 5.93124 -3.353818
v -12.05224 5.93124 -3.353818
v -12.20599 6.143544 -3.353818
v -12.05224 6.143544 -3.353818
v -12.20599 6.143544 -3.416542
v -12.05224 6.143544 -3.416542
v -12.20599 5.93124 -3.416542
v -12.05224 5.93124 -3.416542
v -11.01835 5.0037 3.459189
v -11.01835 5.595874 3.459189
v -7.026765 4.981502 0.1297887
v -9.904554 4.981502 0.1297887
v -9.904554 4.981502 4.183538
v -7.026765 4.981502 4.183538
v -12.25139 6.169799 -3.029812
v -12.1209 6.169799 -3.029812
v -12.25139 6.169799 -3.160308
v -12.1209 6.169799 -3.160308
v -12.1209 5.93124 -3.029812
v -12.1209 6.169799 -3.160308
v -12.1209 5.93124 -3.160308
v -12.1209 6.169799 -3.029812
v -12.25139 6.169799 -3.029812
v -12.25139 5.93124 -3.029812
v -12.20599 6.143544 -3.353818
v -12.05224 6.143544 -3.353818
v -12.20599 6.143544 -3.416542
v -12.05224 6.143544 -3.416542
v -12.05224 5.93124 -3.353818
v -12.05224 6.143544 -3.416542
v -12.05224 5.93124 -3.416542
v -12.05224 6.143544 -3.353818
v -12.20599 6.143544 -3.353818
v -12.20599 5.93124 -3.353818
vt 0.96837 0.001856525
vt 0.96837 0.001856525
vt 0.96837 0.1393531
vt 0.96837 0.1393531
vt 0.9305845 0.001856525
vt 0.9305845 0.1393531
vt 0.9305845 0.1393531
vt 0.9305845 0.001856525
vt 0.4373573 0.001856525
vt 0.4373573 0.1393531
vt 0.4373573 0.1393531
vt 0.4373573 0.001856525
vt 0.1483252 0.01061677
vt 0.1483252 0.07307015
vt 0.006481528 0.01061677
vt 0.006481528 0.07307015
vt 0.1483252 0.01061677
vt 0.1483252 0.07307015
vt 0.006481528 0.01061677
vt 0.006481528 0.07307015
vt 0.1483252 0.01061677
vt 0.1483252 0.07307015
vt 0.006481528 0.01061677
vt 0.006481528 0.07307015
vt 0.1483252 0.01061677
vt 0.1483252 0.07307015
vt 0.006481528 0.01061677
vt 0.006481528 0.07307015
vt 0.5606886 0.468666
vt 0.4290847 0.4738941
vt 0.4318626 0.2571824
vt 0.5632826 0.2561445
vt 0.9431044 0.364559
vt 0.8254871 0.3597328
vt 0.8347379 0.2663033
vt 0.9471369 0.275758
vt 0.7605754 0.4189695
vt 0.6543183 0.4144881
vt 0.6762085 0.274445
vt 0.7818267 0.2882344
vt 0.9277924 0.4482735
vt 0.8359928 0.4466119
vt 0.8341446 0.3549799
vt 0.9266507 0.3571689
vt 0.8883847 0.9326742
vt 0.9007977 0.96306
vt 0.9193752 0.9833634
vt 0.9412887 0.9904929
vt 0.9632025 0.9833634
vt 0.9817802 0.96306
vt 0.9941933 0.9326742
vt 0.9985522 0.8968311
vt 0.9941933 0.8609884
vt 0.9817802 0.8306022
vt 0.963203 0.8102987
vt 0.9412892 0.803169
vt 0.9193752 0.8102987
vt 0.9007977 0.8306022
vt 0.8883847 0.8609883
vt 0.8840256 0.8968311
vt 0.8825328 0.7277417
vt 0.8951892 0.7597848
vt 0.9141312 0.7811953
vt 0.9364744 0.7887137
vt 0.9588178 0.7811953
vt 0.9777595 0.7597848
vt 0.990416 0.7277418
vt 0.9948606 0.6899444
vt 0.990416 0.6521469
vt 0.9777595 0.6201037
vt 0.9588181 0.5986932
vt 0.9364749 0.5911748
vt 0.9141314 0.5986932
vt 0.8951892 0.6201037
vt 0.8825328 0.6521468
vt 0.8780884 0.6899443
vt 0.1483252 0.01061677
vt 0.1483252 0.07307015
vt 0.006481528 0.01061677
vt 0.006481528 0.07307015
vt 0.1483252 0.01061677
vt 0.1483252 0.07307015
vt 0.006481528 0.01061677
vt 0.006481528 0.07307015
vt 0.1483252 0.01061677
vt 0.1483252 0.07307015
vt 0.006481528 0.01061677
vt 0.006481528 0.07307015
vt 0.1483252 0.01061677
vt 0.1483252 0.07307015
vt 0.006481528 0.01061677
vt 0.006481528 0.07307015
vt 0.1483252 0.01061677
vt 0.1483252 0.07307015
vt 0.006481528 0.01061677
vt 0.006481528 0.07307015
vt 0.1483252 0.01061677
vt 0.1483252 0.07307015
vt 0.006481528 0.01061677
vt 0.006481528 0.07307015
vt 0.1483252 0.01061677
vt 0.1483252 0.07307015
vt 0.006481528 0.01061677
vt 0.006481528 0.07307015
vt 0.1483252 0.01061677
vt 0.1483252 0.07307015
vt 0.006481528 0.01061677
vt 0.006481528 0.07307015
vt 0.1483252 0.01061677
vt 0.1483252 0.07307015
vt 0.006481528 0.01061677
vt 0.006481528 0.07307015
vt 0.1483252 0.01061677
vt 0.1483252 0.07307015
vt 0.006481528 0.01061677
vt 0.006481528 0.07307015
vt 0.1483252 0.01061677
vt 0.1483252 0.07307015
vt 0.006481528 0.01061677
vt 0.006481528 0.07307015
vt 0.004599256 0.6354228
vt 0.5196697 0.6354228
vt 0.004599256 0.9905092
vt 0.5196697 0.9905092
vt 0.3485762 0.199816
vt 0.9760517 0.2016785
vt 0.3485762 0.199816
vt 0.9760517 0.2016785
vt 0.3485762 0.161273
vt 1.000265 0.1687231
vt 0.3485762 0.161273
vt 1.000265 0.1687232
vt 0.9778381 0.1061297
vt 0.9778381 0.1061297
vt 0.9778381 0.1061297
vt 0.9778381 0.1061297
vt 0.07893755 0.1318235
vt 0.04499401 0.1349165
vt 0.05064674 0.4322561
vt 0.02218847 0.4335982
vt 0.04696853 0.1340598
vt 0.08108704 0.1317938
vt 0.04867199 0.4331091
vt 0.02003743 0.4336304
vt 0.1483252 0.01061677
vt 0.1483252 0.07307015
vt 0.006481528 0.01061677
vt 0.006481528 0.07307015
vt 0.5905297 0.884522
vt 0.6474435 0.884522
vt 0.5905297 0.9755589
vt 0.6474435 0.9755589
vt 0.6224041 0.930704
vt 0.6224041 0.930704
vt 0.5905297 0.884522
vt 0.6474435 0.884522
vt 0.7029843 0.884522
vt 0.7598981 0.884522
vt 0.7029843 0.9755589
vt 0.7598981 0.9755589
vt 0.6224041 0.930704
vt 0.6224041 0.930704
vt 0.7029843 0.884522
vt 0.7598981 0.884522
vt 0.4758652 0.01147505
vt 0.4758652 0.1393531
vt 0.9778382 0.1061297
vt 0.9778382 0.1061297
vt 0.9778382 0.1061297
vt 0.9778382 0.1061297
vt 0.6224041 0.930704
vt 0.6224041 0.930704
vt 0.5905297 0.9755589
vt 0.6474435 0.9755589
vt 0.5346454 0.884522
vt 0.5905297 0.9755589
vt 0.5905297 0.884522
vt 0.5346454 0.9755589
vt 0.5346454 0.9755589
vt 0.5346454 0.884522
vt 0.6224041 0.930704
vt 0.6224041 0.930704
vt 0.7029843 0.9755589
vt 0.7598981 0.9755589
vt 0.6471 0.884522
vt 0.7029843 0.9755589
vt 0.7029843 0.884522
vt 0.6471 0.9755589
vt 0.6471 0.9755589
vt 0.6471 0.884522
vn 0.8999527 -2.692658E-07 0.4359876
vn 0.9257055 1.209475E-07 -0.3782449
vn 0.8999527 -2.692658E-07 0.4359876
vn 0.9257055 1.209475E-07 -0.3782449
vn 0.3871131 3.667807E-07 -0.9220322
vn 0.3871131 3.667807E-07 -0.9220322
vn 0.3280729 0 0.9446524
vn 0.3280729 0 0.9446524
vn 0 0 -1
vn 0 0 -1
vn 0 0 1
vn 0 0 1
vn 1 0 0
vn 1 0 0
vn 1 0 0
vn 1 0 0
vn 1 0 0
vn 1 0 0
vn 1 0 0
vn 1 0 0
vn 1 0 0
vn 1 0 0
vn 1 0 0
vn 1 0 0
vn 1 0 0
vn 1 0 0
vn 1 0 0
vn 1 0 0
vn -0.5083194 0.2756374 0.8158649
vn -0.5083194 0.2756374 0.8158649
vn -0.5083194 0.2756374 0.8158649
vn -0.5083194 0.2756374 0.8158649
vn 0.5599073 0.2837914 0.7784384
vn 0.5599073 0.2837914 0.7784384
vn 0.5599073 0.2837914 0.7784384
vn 0.5599073 0.2837914 0.7784384
vn 0.7679053 0.2756392 0.5782254
vn 0.7679053 0.2756392 0.5782254
vn 0.7679053 0.2756392 0.5782254
vn 0.7679053 0.2756392 0.5782254
vn 0.1838463 0.2519555 0.9501152
vn 0.1838463 0.2519555 0.9501152
vn 0.1838463 0.2519555 0.9501152
vn 0.1838463 0.2519555 0.9501152
vn 2.908479E-07 -1.565699E-07 1
vn 2.908479E-07 -1.565699E-07 1
vn 2.908479E-07 -1.565699E-07 1
vn 2.908479E-07 -1.565699E-07 1
vn 2.908479E-07 -1.565699E-07 1
vn 2.908479E-07 -1.565699E-07 1
vn 2.908479E-07 -1.565699E-07 1
vn 2.908479E-07 -1.565699E-07 1
vn 2.908479E-07 -1.565699E-07 1
vn 2.908479E-07 -1.565699E-07 1
vn 2.908479E-07 -1.565699E-07 1
vn 2.908479E-07 -1.565699E-07 1
vn 2.908479E-07 -1.565699E-07 1
vn 2.908479E-07 -1.565699E-07 1
vn 2.908479E-07 -1.565699E-07 1
vn 2.908479E-07 -1.565699E-07 1
vn 2.908477E-07 -1.565654E-07 1
vn 2.908477E-07 -1.565654E-07 1
vn 2.908477E-07 -1.565654E-07 1
vn 2.908477E-07 -1.565654E-07 1
vn 2.908477E-07 -1.565654E-07 1
vn 2.908477E-07 -1.565654E-07 1
vn 2.908477E-07 -1.565654E-07 1
vn 2.908477E-07 -1.565654E-07 1
vn 2.908477E-07 -1.565654E-07 1
vn 2.908477E-07 -1.565654E-07 1
vn 2.908477E-07 -1.565654E-07 1
vn 2.908477E-07 -1.565654E-07 1
vn 2.908477E-07 -1.565654E-07 1
vn 2.908477E-07 -1.565654E-07 1
vn 2.908477E-07 -1.565654E-07 1
vn 2.908477E-07 -1.565654E-07 1
vn 0 0 1
vn 0 0 1
vn 0 0 1
vn 0 0 1
vn 0 0 1
vn 0 0 1
vn 0 0 1
vn 0 0 1
vn 0 0 1
vn 0 0 1
vn 0 0 1
vn 0 0 1
vn 0 0 1
vn 0 0 1
vn 0 0 1
vn 0 0 1
vn 0 0 1
vn 0 0 1
vn 0 0 1
vn 0 0 1
vn -1 0 0
vn -1 0 0
vn -1 0 0
vn -1 0 0
vn -1 0 0
vn -1 0 0
vn -1 0 0
vn -1 0 0
vn -1 0 0
vn -1 0 0
vn -1 0 0
vn -1 0 0
vn -1 0 0
vn -1 0 0
vn -1 0 0
vn -1 0 0
vn -1 0 0
vn -1 0 0
vn -1 0 0
vn -1 0 0
vn -1 0 0
vn -1 0 0
vn -1 0 0
vn -1 0 0
vn -1 0 0
vn -1 0 0
vn -1 0 0
vn -1 0 0
vn 0 1 0
vn 0 1 0
vn 0 1 0
vn 0 1 0
vn 0 1 0
vn 0 1 0
vn 0 1 0
vn 0 1 0
vn 0 1 0
vn 0 1 0
vn 0 1 0
vn 0 1 0
vn -1.656161E-07 0 -1
vn -1.656161E-07 0 -1
vn -1.656161E-07 0 -1
vn -1.656161E-07 0 -1
vn 0 0 1
vn 0 0 1
vn 0 0 1
vn 0 0 1
vn 0 0 1
vn 0 0 1
vn 0 0 1
vn 0 0 1
vn -0.7071068 0 0.7071068
vn 0.7071068 0 0.7071068
vn -0.5773503 0.5773503 0.5773503
vn 0.5773503 0.5773503 0.5773503
vn -0.5773503 0.5773503 -0.5773503
vn 0.5773503 0.5773503 -0.5773503
vn -0.7071068 0 -0.7071068
vn 0.7071068 0 -0.7071068
vn -0.7071068 0 0.7071068
vn 0.7071068 0 0.7071068
vn -0.5773503 0.5773503 0.5773503
vn 0.5773503 0.5773503 0.5773503
vn -0.5773503 0.5773503 -0.5773503
vn 0.5773503 0.5773503 -0.5773503
vn -0.7071068 0 -0.7071068
vn 0.7071068 0 -0.7071068
vn 0.8999527 -2.692658E-07 0.4359876
vn 0.8999527 -2.692658E-07 0.4359876
vn 0 1 0
vn 0 1 0
vn 0 1 0
vn 0 1 0
vn -0.5773503 0.5773503 0.5773503
vn 0.5773503 0.5773503 0.5773503
vn -0.5773503 0.5773503 -0.5773503
vn 0.5773503 0.5773503 -0.5773503
vn 0.7071068 0 0.7071068
vn 0.5773503 0.5773503 -0.5773503
vn 0.7071068 0 -0.7071068
vn 0.5773503 0.5773503 0.5773503
vn -0.5773503 0.5773503 0.5773503
vn -0.7071068 0 0.7071068
vn -0.5773503 0.5773503 0.5773503
vn 0.5773503 0.5773503 0.5773503
vn -0.5773503 0.5773503 -0.5773503
vn 0.5773503 0.5773503 -0.5773503
vn 0.7071068 0 0.7071068
vn 0.5773503 0.5773503 -0.5773503
vn 0.7071068 0 -0.7071068
vn 0.5773503 0.5773503 0.5773503
vn -0.5773503 0.5773503 0.5773503
vn -0.7071068 0 0.7071068
g Z1_masterBedroom_geo_0
f 7/7/7 11/11/11 12/12/12
f 8/8/8 7/7/7 12/12/12
f 3/3/3 7/7/7 8/8/8
f 1/1/1 3/3/3 8/8/8
f 4/4/4 166/166/166 165/165/165
f 2/2/2 4/4/4 165/165/165
f 6/6/6 4/4/4 2/2/2
f 5/5/5 6/6/6 2/2/2
f 10/10/10 6/6/6 5/5/5
f 9/9/9 10/10/10 5/5/5
f 16/16/16 13/13/13 14/14/14
f 15/15/15 13/13/13 16/16/16
f 20/20/20 17/17/17 18/18/18
f 19/19/19 17/17/17 20/20/20
f 24/24/24 21/21/21 22/22/22
f 23/23/23 21/21/21 24/24/24
f 28/28/28 25/25/25 26/26/26
f 27/27/27 25/25/25 28/28/28
f 49/49/49 56/56/56 55/55/55
f 54/54/54 49/49/49 55/55/55
f 50/50/50 49/49/49 54/54/54
f 53/53/53 50/50/50 54/54/54
f 51/51/51 50/50/50 53/53/53
f 52/52/52 51/51/51 53/53/53
f 57/57/57 48/48/48 47/47/47
f 46/46/46 57/57/57 47/47/47
f 58/58/58 57/57/57 46/46/46
f 45/45/45 58/58/58 46/46/46
f 59/59/59 58/58/58 45/45/45
f 60/60/60 59/59/59 45/45/45
f 65/65/65 72/72/72 71/71/71
f 70/70/70 65/65/65 71/71/71
f 66/66/66 65/65/65 70/70/70
f 69/69/69 66/66/66 70/70/70
f 67/67/67 66/66/66 69/69/69
f 68/68/68 67/67/67 69/69/69
f 74/74/74 63/63/63 62/62/62
f 61/61/61 74/74/74 62/62/62
f 75/75/75 74/74/74 61/61/61
f 76/76/76 75/75/75 61/61/61
f 38/38/38 40/40/40 37/37/37
f 39/39/39 40/40/40 38/38/38
f 34/34/34 36/36/36 33/33/33
f 35/35/35 36/36/36 34/34/34
f 42/42/42 44/44/44 41/41/41
f 43/43/43 44/44/44 42/42/42
f 30/30/30 32/32/32 29/29/29
f 31/31/31 32/32/32 30/30/30
f 80/80/80 77/77/77 78/78/78
f 79/79/79 77/77/77 80/80/80
f 84/84/84 81/81/81 82/82/82
f 83/83/83 81/81/81 84/84/84
f 88/88/88 85/85/85 86/86/86
f 87/87/87 85/85/85 88/88/88
f 92/92/92 89/89/89 90/90/90
f 91/91/91 89/89/89 92/92/92
f 96/96/96 93/93/93 94/94/94
f 95/95/95 93/93/93 96/96/96
f 100/100/100 97/97/97 98/98/98
f 99/99/99 97/97/97 100/100/100
f 104/104/104 101/101/101 102/102/102
f 103/103/103 101/101/101 104/104/104
f 108/108/108 105/105/105 106/106/106
f 107/107/107 105/105/105 108/108/108
f 112/112/112 109/109/109 110/110/110
f 111/111/111 109/109/109 112/112/112
f 116/116/116 113/113/113 114/114/114
f 115/115/115 113/113/113 116/116/116
f 120/120/120 117/117/117 118/118/118
f 119/119/119 117/117/117 120/120/120
f 124/124/124 121/121/121 122/122/122
f 123/123/123 121/121/121 124/124/124
f 129/129/129 126/126/126 125/125/125
f 130/130/130 126/126/126 129/129/129
f 132/132/132 127/127/127 128/128/128
f 131/131/131 127/127/127 132/132/132
f 133/133/133 167/167/167 168/168/168
f 134/134/134 167/167/167 133/133/133
f 136/136/136 169/169/169 170/170/170
f 135/135/135 169/169/169 136/136/136
f 140/140/140 137/137/137 139/139/139
f 138/138/138 137/137/137 140/140/140
f 141/141/141 143/143/143 144/144/144
f 142/142/142 143/143/143 141/141/141
f 148/148/148 145/145/145 146/146/146
f 147/147/147 145/145/145 148/148/148
f 152/152/152 149/149/149 150/150/150
f 151/151/151 149/149/149 152/152/152
f 154/154/154 171/171/171 172/172/172
f 153/153/153 171/171/171 154/154/154
f 155/155/155 180/180/180 179/179/179
f 173/173/173 155/155/155 179/179/179
f 156/156/156 155/155/155 173/173/173
f 174/174/174 156/156/156 173/173/173
f 176/176/176 175/175/175 177/177/177
f 178/178/178 175/175/175 176/176/176
f 160/160/160 157/157/157 158/158/158
f 159/159/159 157/157/157 160/160/160
f 162/162/162 181/181/181 182/182/182
f 161/161/161 181/181/181 162/162/162
f 163/163/163 190/190/190 189/189/189
f 183/183/183 163/163/163 189/189/189
f 164/164/164 163/163/163 183/183/183
f 184/184/184 164/164/164 183/183/183
f 186/186/186 185/185/185 187/187/187
f 188/188/188 185/185/185 186/186/186
f 48/48/48 56/56/56 49/49/49
f 57/57/57 56/56/56 48/48/48
f 73/73/73 63/63/63 74/74/74
f 64/64/64 63/63/63 73/73/73
f 72/72/72 64/64/64 73/73/73
f 65/65/65 64/64/64 72/72/72
