g Z1_portraits_geo
v -2.2418 6.519708 10.43547
v -1.648107 6.519708 10.43547
v -1.648107 5.809079 10.43547
v -2.2418 5.809078 10.43547
v -3.499079 6.649158 3.314531
v -3.846621 6.649158 3.314531
v -3.846621 6.132907 3.314531
v -3.499079 6.132906 3.314531
v -2.456667 6.645726 3.314531
v -2.803129 6.645726 3.314531
v -2.803129 6.132907 3.314531
v -2.456667 6.132906 3.314531
v -14.90003 7.552444 4.416563
v -14.90003 7.552444 5.646875
v -14.90003 7.109807 5.646875
v -14.90003 7.109807 4.416563
v -0.8950751 7.115747 13.82125
v -0.8950775 7.115747 13.35312
v -0.9062493 6.247947 13.35312
v -0.9062493 6.247946 13.82125
v -0.8936359 6.679005 13.82125
v -0.8936359 6.679005 13.35312
v -0.9182727 6.916015 13.82125
v -0.9182739 6.916015 13.35312
v -0.9182727 6.433159 13.82125
v -0.9182739 6.43316 13.35312
v 8.079837 6.207312 22.10406
v 8.303961 6.207313 22.19469
v 8.335093 5.924324 22.1175
v 8.110968 5.924323 22.02703
v 2.283015 6.877927 3.33375
v 1.776158 6.877927 3.33375
v 1.776161 6.550231 3.33375
v 2.283015 6.550231 3.33375
v 2.785906 6.550231 3.33375
v 2.785906 6.877927 3.33375
v 2.283015 6.222534 3.33375
v 1.776158 6.222534 3.33375
v 2.785906 6.222534 3.33375
v 14.56228 1.818757 7.918906
v 14.51829 1.917922 7.918906
v 14.3748 1.396117 7.918906
v 14.45246 1.984183 7.918906
v 14.3748 2.00745 7.918906
v 14.29714 1.984183 7.918906
v 14.23131 1.917923 7.918906
v 14.18732 1.818757 7.918906
v 14.17187 1.701784 7.918906
v 14.18732 1.58481 7.918906
v 14.23131 1.485645 7.918906
v 14.29714 1.419384 7.918906
v 14.45246 1.419384 7.918906
v 14.51829 1.485645 7.918906
v 14.56228 1.58481 7.918906
v 14.57773 1.701784 7.918906
v 12.21297 1.818757 7.918906
v 12.16898 1.917922 7.918906
v 12.02549 1.396117 7.918906
v 12.10315 1.984183 7.918906
v 12.02549 2.00745 7.918906
v 11.94783 1.984183 7.918906
v 11.882 1.917923 7.918906
v 11.83801 1.818757 7.918906
v 11.82256 1.701784 7.918906
v 11.83801 1.58481 7.918906
v 11.882 1.485645 7.918906
v 11.94783 1.419384 7.918906
v 12.10315 1.419384 7.918906
v 12.16898 1.485645 7.918906
v 12.21297 1.58481 7.918906
v 12.22842 1.701784 7.918906
v 5.823397 1.972616 7.920469
v 6.993189 1.972616 7.920469
v 6.993189 1.096891 7.920469
v 5.823397 1.09689 7.920469
v 1.282256 2.282936 7.920469
v 1.628718 2.282936 7.920469
v 1.628718 1.770117 7.920469
v 1.282256 1.770117 7.920469
v 0.8591844 2.629195 7.877187
v 0.8006914 2.761055 7.877187
v 0.6098884 2.067207 7.877187
v 0.7131503 2.849163 7.877187
v 0.6098886 2.880102 7.877187
v 0.5066269 2.849163 7.877187
v 0.4190857 2.761056 7.877187
v 0.3605926 2.629195 7.877187
v 0.3400525 2.473655 7.877187
v 0.3605926 2.318114 7.877187
v 0.4190856 2.186253 7.877187
v 0.5066267 2.098145 7.877187
v 0.7131501 2.098145 7.877187
v 0.8006913 2.186253 7.877187
v 0.8591843 2.318114 7.877187
v 0.8797244 2.473654 7.877187
v -0.3801882 2.282936 7.920469
v -0.03372574 2.282936 7.920469
v -0.03372574 1.770117 7.920469
v -0.3801882 1.770117 7.920469
v -8.185473 2.83173 -1.026875
v -8.185473 2.83173 0.5975
v -8.185473 2.247301 0.5975
v -8.185473 2.247301 -1.026875
v 4.685474 2.17707 -0.2992187
v 4.685472 2.17707 -0.8071875
v 4.685473 1.46644 -0.8071875
v 4.685473 1.46644 -0.2992187
v 4.685474 2.17707 2.046406
v 4.685472 2.17707 1.538437
v 4.685473 1.46644 1.538437
v 4.685473 1.46644 2.046406
v 6.645015 1.878571 2.614531
v 6.645015 1.555218 2.637031
v 6.645015 1.863558 2.399844
v 6.645015 1.540206 2.422344
v 6.645015 1.984788 2.286875
v 6.645015 1.787652 2.300625
v 6.645015 1.969776 2.072187
v 6.645015 1.77264 2.085938
v 6.648488 1.913222 2.250625
v 6.648488 1.721474 2.202969
v 6.648488 1.965285 2.041875
v 6.648488 1.773538 1.994062
v 5.256966 1.972616 4.255
v 5.256968 1.972616 4.815312
v 5.270341 0.9338965 4.815312
v 5.270341 0.9338963 4.255
v 5.255243 1.449855 4.255
v 5.255244 1.449855 4.815312
v 5.284732 1.733546 4.255
v 5.284734 1.733546 4.815312
v 5.284732 1.155589 4.255
v 5.284734 1.155589 4.815312
v -4.4957 4.915336 10.43547
v -3.902007 4.915336 10.43547
v -3.902007 4.204707 10.43547
v -4.4957 4.204706 10.43547
v -6.7496 3.310965 10.43547
v -6.155907 3.310964 10.43547
v -6.155907 2.600335 10.43547
v -6.7496 2.600335 10.43547
v -1.683015 2.629195 26.37719
v -1.741508 2.761055 26.37719
v -1.93231 2.067207 26.37719
v -1.829049 2.849163 26.37719
v -1.93231 2.880102 26.37719
v -2.035572 2.849163 26.37719
v -2.123113 2.761056 26.37719
v -2.181606 2.629195 26.37719
v -2.202146 2.473655 26.37719
v -2.181607 2.318114 26.37719
v -2.123113 2.186253 26.37719
v -2.035572 2.098145 26.37719
v -1.829049 2.098145 26.37719
v -1.741508 2.186253 26.37719
v -1.683015 2.318114 26.37719
v -1.662475 2.473654 26.37719
vt 0.6289814 0.7999255
vt 0.4293789 0.7999255
vt 0.4293789 0.5878046
vt 0.6289814 0.5878046
vt 0.1715912 0.9737706
vt 0.06354243 0.9737706
vt 0.06354243 0.8296094
vt 0.1715912 0.8296094
vt 0.3403932 0.9726405
vt 0.2323443 0.9726405
vt 0.2323443 0.8289485
vt 0.3403932 0.8289485
vt 0.4012919 0.9759716
vt 0.017475 0.9759716
vt 0.017475 0.8327596
vt 0.4012919 0.8327596
vt 0.9443433 0.4684777
vt 0.9443433 0.5650886
vt 0.7555934 0.5650887
vt 0.7555934 0.4684777
vt 0.8489907 0.4684777
vt 0.8489907 0.5650886
vt 0.9007365 0.4684777
vt 0.9007366 0.5650886
vt 0.7957236 0.4684777
vt 0.7957235 0.5650887
vt 0.8121581 0.8049113
vt 0.6387167 0.8049113
vt 0.6387167 0.6258482
vt 0.8121581 0.6258482
vt 0.3407117 0.470274
vt 0.03069884 0.470274
vt 0.0307003 0.2490962
vt 0.3407117 0.2490962
vt 0.6482984 0.2490962
vt 0.6482984 0.470274
vt 0.3407117 0.02791863
vt 0.03069884 0.02791863
vt 0.6482984 0.02791863
vt 0.8806262 0.3296551
vt 0.9097739 0.3156584
vt 0.7563987 0.2700018
vt 0.9292501 0.2947111
vt 0.9360892 0.2700018
vt 0.9292501 0.2452926
vt 0.9097742 0.2243451
vt 0.8806263 0.2103485
vt 0.846244 0.2054335
vt 0.8118618 0.2103485
vt 0.7827139 0.2243451
vt 0.7632377 0.2452926
vt 0.7632377 0.294711
vt 0.7827139 0.3156584
vt 0.8118616 0.3296551
vt 0.846244 0.3345701
vt 0.8806262 0.1297215
vt 0.9097739 0.1157247
vt 0.7563987 0.07006822
vt 0.9292501 0.09477744
vt 0.9360892 0.07006822
vt 0.9292501 0.04535899
vt 0.9097742 0.02441151
vt 0.8806263 0.01041491
vt 0.846244 0.005499907
vt 0.8118618 0.01041491
vt 0.7827139 0.02441151
vt 0.7632377 0.04535899
vt 0.7632377 0.09477741
vt 0.7827139 0.1157248
vt 0.8118616 0.1297215
vt 0.846244 0.1346365
vt 0.6480957 0.4703577
vt 0.03088814 0.4703577
vt 0.03088814 0.02986283
vt 0.6480957 0.02986283
vt 0.5427499 0.9984962
vt 0.431271 0.9984962
vt 0.431271 0.8382539
vt 0.5427499 0.8382539
vt 0.826427 0.9093118
vt 0.8455936 0.9562127
vt 0.9081138 0.709421
vt 0.874278 0.9875511
vt 0.9081138 0.9985558
vt 0.9419495 0.9875511
vt 0.9706342 0.9562131
vt 0.9898005 0.909312
vt 0.9965309 0.8539884
vt 0.9898005 0.798665
vt 0.9706342 0.7517639
vt 0.9419495 0.7204254
vt 0.8742781 0.7204254
vt 0.8455936 0.7517639
vt 0.826427 0.7986648
vt 0.8196967 0.8539884
vt 0.6836373 0.9924375
vt 0.5547371 0.9924375
vt 0.5547371 0.8162743
vt 0.6836373 0.8162743
vt 0.4012919 0.9759716
vt 0.017475 0.9759716
vt 0.017475 0.8327596
vt 0.4012919 0.8327596
vt 0.1715912 0.9737706
vt 0.06354243 0.9737706
vt 0.06354243 0.8296094
vt 0.1715912 0.8296094
vt 0.3403932 0.9726405
vt 0.2323443 0.9726405
vt 0.2323443 0.8289485
vt 0.3403932 0.8289485
vt 0.9187844 0.6877871
vt 0.9197264 0.5888585
vt 0.9923624 0.6922324
vt 0.9886429 0.5886745
vt 0.7156359 0.4525373
vt 0.7116739 0.3865718
vt 0.7773386 0.4475138
vt 0.7733765 0.3815484
vt 0.7260271 0.4285898
vt 0.7397674 0.3644275
vt 0.7860432 0.4460113
vt 0.7997836 0.381849
vt 0.9478092 0.4605557
vt 0.9478092 0.5742524
vt 0.750147 0.5742525
vt 0.750147 0.4605557
vt 0.8489907 0.4605557
vt 0.8489907 0.5742524
vt 0.9007365 0.4605557
vt 0.9007366 0.5742524
vt 0.7957236 0.4605557
vt 0.7957235 0.5742525
vt 0.4173398 0.8029922
vt 0.216233 0.8029922
vt 0.216233 0.595367
vt 0.4173398 0.595367
vt 0.2044714 0.8050979
vt 0.005665474 0.8050979
vt 0.005665474 0.5608733
vt 0.2044714 0.5608733
vt 0.05490299 0.9009051
vt 0.06244896 0.9193703
vt 0.08706353 0.822207
vt 0.07374219 0.9317084
vt 0.08706353 0.936041
vt 0.1003849 0.9317084
vt 0.1116782 0.9193704
vt 0.1192241 0.9009052
vt 0.1218739 0.879124
vt 0.1192241 0.8573428
vt 0.1116782 0.8388776
vt 0.1003849 0.8265395
vt 0.07374221 0.8265395
vt 0.06244896 0.8388776
vt 0.05490299 0.8573428
vt 0.0522532 0.879124
vn -1.851759E-06 0 -1
vn -1.851759E-06 0 -1
vn -1.851759E-06 0 -1
vn -1.851759E-06 0 -1
vn 0 0 1
vn 0 0 1
vn 0 0 1
vn 0 0 1
vn -1.099284E-06 0 1
vn -1.099284E-06 0 1
vn -1.099284E-06 0 1
vn -1.099284E-06 0 1
vn 1 0 -9.921895E-07
vn 1 0 -9.921895E-07
vn 1 0 -9.921895E-07
vn 1 0 -9.921895E-07
vn -0.9933231 0.1153655 3.89056E-06
vn -0.9933231 0.1153655 3.89056E-06
vn -0.9978994 -0.06478313 1.334709E-06
vn -0.9978994 -0.06478313 1.334709E-06
vn -0.9999983 -0.001848869 1.402626E-06
vn -0.9999983 -0.001848869 1.402626E-06
vn -0.9999819 0.006021865 2.617583E-06
vn -0.9999819 0.006021865 2.617583E-06
vn -0.9998465 0.01752553 1.410913E-06
vn -0.9998465 0.01752553 1.410913E-06
vn 0.3593935 0.28193 -0.8895795
vn 0.3593935 0.28193 -0.8895795
vn 0.3593935 0.28193 -0.8895795
vn 0.3593935 0.28193 -0.8895795
vn 0 0 1
vn 0 0 1
vn 0 0 1
vn 0 0 1
vn 0 0 1
vn 0 0 1
vn 0 0 1
vn 0 0 1
vn 0 0 1
vn 0 0 -1
vn 0 0 -1
vn -2.846127E-07 0 -1
vn 0 0 -1
vn 0 0 -1
vn 0 0 -1
vn -1.050553E-05 0 -1
vn -1.050553E-05 0 -1
vn 5.135566E-06 0 -1
vn 5.135566E-06 0 -1
vn -1.013383E-05 0 -1
vn -2.026767E-05 0 -1
vn 2.702301E-05 0 -1
vn 1.351151E-05 0 -1
vn 0 0 -1
vn 0 0 -1
vn 0 0 -1
vn 0 0 -1
vn -2.845682E-07 0 -1
vn 0 0 -1
vn 0 0 -1
vn 0 0 -1
vn -1.050553E-05 0 -1
vn -1.050553E-05 0 -1
vn 5.135514E-06 0 -1
vn 5.135514E-06 0 -1
vn -1.013383E-05 0 -1
vn -2.026767E-05 0 -1
vn 2.702374E-05 0 -1
vn 1.351187E-05 0 -1
vn 0 0 -1
vn 0 0 -1
vn 0 0 -1
vn 0 0 -1
vn 0 0 -1
vn 0 0 -1
vn -2.198567E-06 0 -1
vn -2.198567E-06 0 -1
vn -2.198567E-06 0 -1
vn -2.198567E-06 0 -1
vn 0 0 -1
vn 0 0 -1
vn -2.481777E-07 0 -1
vn -4.653564E-06 0 -1
vn -4.653564E-06 0 -1
vn 5.036984E-06 0 -1
vn -9.045571E-07 0 -1
vn -5.941541E-06 0 -1
vn 0 0 -1
vn 0 0 -1
vn 3.820877E-06 0 -1
vn 7.641755E-06 0 -1
vn 0 0 -1
vn 0 0 -1
vn 0 0 -1
vn 0 0 -1
vn -2.198567E-06 0 -1
vn -2.198567E-06 0 -1
vn -2.198567E-06 0 -1
vn -2.198567E-06 0 -1
vn 1 0 0
vn 1 0 0
vn 1 0 0
vn 1 0 0
vn -1 -5.410653E-07 1.501942E-06
vn -1 -5.410653E-07 1.501942E-06
vn -1 -5.410653E-07 1.501942E-06
vn -1 -5.410653E-07 1.501942E-06
vn -1 -5.410654E-07 1.501942E-06
vn -1 -5.410654E-07 1.501942E-06
vn -1 -5.410654E-07 1.501942E-06
vn -1 -5.410654E-07 1.501942E-06
vn 1 0 0
vn 1 0 0
vn 1 0 0
vn 1 0 0
vn 1 -2.296226E-06 0
vn 1 -2.296226E-06 0
vn 1 -2.296226E-06 0
vn 1 -2.296226E-06 0
vn 1 0 0
vn 1 0 0
vn 1 0 0
vn 1 0 0
vn 0.9933228 0.115369 -2.715603E-06
vn 0.9933228 0.115369 -2.715603E-06
vn 0.9978994 -0.06478273 -1.054202E-06
vn 0.9978994 -0.06478273 -1.054202E-06
vn 0.9999983 -0.00184864 -2.195264E-06
vn 0.9999983 -0.00184864 -2.195264E-06
vn 0.9999819 0.00602416 -2.45143E-06
vn 0.9999819 0.00602416 -2.45143E-06
vn 0.9998465 0.01752541 -1.637647E-06
vn 0.9998465 0.01752541 -1.637647E-06
vn -1.851758E-06 0 -1
vn -1.851758E-06 0 -1
vn -1.851758E-06 0 -1
vn -1.851758E-06 0 -1
vn -1.851761E-06 0 -1
vn -1.851761E-06 0 -1
vn -1.851761E-06 0 -1
vn -1.851761E-06 0 -1
vn -7.285853E-06 0 -1
vn 2.376613E-05 0 -1
vn -2.251569E-06 0 -1
vn -1.861427E-05 0 -1
vn -1.861427E-05 0 -1
vn 2.014796E-05 0 -1
vn -3.618132E-06 0 -1
vn -8.240131E-06 0 -1
vn -7.710196E-06 0 -1
vn -1.768696E-06 0 -1
vn 2.146746E-05 0 -1
vn 0 0 -1
vn 0 0 -1
vn 0 0 -1
vn 0 0 -1
vn -3.105198E-05 0 -1
g Z1_portraits_geo_0
f 3/3/3 1/1/1 2/2/2
f 4/4/4 1/1/1 3/3/3
f 7/7/7 5/5/5 6/6/6
f 8/8/8 5/5/5 7/7/7
f 11/11/11 9/9/9 10/10/10
f 12/12/12 9/9/9 11/11/11
f 15/15/15 13/13/13 14/14/14
f 16/16/16 13/13/13 15/15/15
f 24/24/24 17/17/17 18/18/18
f 23/23/23 17/17/17 24/24/24
f 22/22/22 23/23/23 24/24/24
f 21/21/21 23/23/23 22/22/22
f 26/26/26 21/21/21 22/22/22
f 25/25/25 21/21/21 26/26/26
f 19/19/19 25/25/25 26/26/26
f 20/20/20 25/25/25 19/19/19
f 29/29/29 27/27/27 28/28/28
f 30/30/30 27/27/27 29/29/29
f 35/35/35 37/37/37 39/39/39
f 34/34/34 37/37/37 35/35/35
f 31/31/31 34/34/34 35/35/35
f 33/33/33 34/34/34 31/31/31
f 32/32/32 33/33/33 31/31/31
f 36/36/36 31/31/31 35/35/35
f 37/37/37 33/33/33 38/38/38
f 34/34/34 33/33/33 37/37/37
f 42/42/42 49/49/49 48/48/48
f 50/50/50 49/49/49 42/42/42
f 51/51/51 50/50/50 42/42/42
f 42/42/42 53/53/53 52/52/52
f 54/54/54 53/53/53 42/42/42
f 55/55/55 54/54/54 42/42/42
f 58/58/58 65/65/65 64/64/64
f 66/66/66 65/65/65 58/58/58
f 67/67/67 66/66/66 58/58/58
f 58/58/58 69/69/69 68/68/68
f 70/70/70 69/69/69 58/58/58
f 71/71/71 70/70/70 58/58/58
f 74/74/74 72/72/72 73/73/73
f 75/75/75 72/72/72 74/74/74
f 78/78/78 76/76/76 77/77/77
f 79/79/79 76/76/76 78/78/78
f 82/82/82 89/89/89 88/88/88
f 90/90/90 89/89/89 82/82/82
f 91/91/91 90/90/90 82/82/82
f 82/82/82 93/93/93 92/92/92
f 94/94/94 93/93/93 82/82/82
f 95/95/95 94/94/94 82/82/82
f 98/98/98 96/96/96 97/97/97
f 99/99/99 96/96/96 98/98/98
f 102/102/102 100/100/100 101/101/101
f 103/103/103 100/100/100 102/102/102
f 106/106/106 104/104/104 105/105/105
f 107/107/107 104/104/104 106/106/106
f 110/110/110 108/108/108 109/109/109
f 111/111/111 108/108/108 110/110/110
f 115/115/115 112/112/112 113/113/113
f 114/114/114 112/112/112 115/115/115
f 119/119/119 116/116/116 117/117/117
f 118/118/118 116/116/116 119/119/119
f 123/123/123 120/120/120 121/121/121
f 122/122/122 120/120/120 123/123/123
f 131/131/131 124/124/124 125/125/125
f 130/130/130 124/124/124 131/131/131
f 129/129/129 130/130/130 131/131/131
f 128/128/128 130/130/130 129/129/129
f 133/133/133 128/128/128 129/129/129
f 132/132/132 128/128/128 133/133/133
f 126/126/126 132/132/132 133/133/133
f 127/127/127 132/132/132 126/126/126
f 136/136/136 134/134/134 135/135/135
f 137/137/137 134/134/134 136/136/136
f 140/140/140 138/138/138 139/139/139
f 141/141/141 138/138/138 140/140/140
f 144/144/144 151/151/151 150/150/150
f 152/152/152 151/151/151 144/144/144
f 153/153/153 152/152/152 144/144/144
f 144/144/144 155/155/155 154/154/154
f 156/156/156 155/155/155 144/144/144
f 157/157/157 156/156/156 144/144/144
f 42/42/42 40/40/40 55/55/55
f 41/41/41 40/40/40 42/42/42
f 43/43/43 41/41/41 42/42/42
f 42/42/42 44/44/44 43/43/43
f 45/45/45 44/44/44 42/42/42
f 46/46/46 45/45/45 42/42/42
f 42/42/42 47/47/47 46/46/46
f 48/48/48 47/47/47 42/42/42
f 58/58/58 56/56/56 71/71/71
f 57/57/57 56/56/56 58/58/58
f 59/59/59 57/57/57 58/58/58
f 58/58/58 60/60/60 59/59/59
f 61/61/61 60/60/60 58/58/58
f 62/62/62 61/61/61 58/58/58
f 58/58/58 63/63/63 62/62/62
f 64/64/64 63/63/63 58/58/58
f 82/82/82 80/80/80 95/95/95
f 81/81/81 80/80/80 82/82/82
f 83/83/83 81/81/81 82/82/82
f 82/82/82 84/84/84 83/83/83
f 85/85/85 84/84/84 82/82/82
f 86/86/86 85/85/85 82/82/82
f 82/82/82 87/87/87 86/86/86
f 88/88/88 87/87/87 82/82/82
f 144/144/144 142/142/142 157/157/157
f 143/143/143 142/142/142 144/144/144
f 145/145/145 143/143/143 144/144/144
f 144/144/144 146/146/146 145/145/145
f 147/147/147 146/146/146 144/144/144
f 148/148/148 147/147/147 144/144/144
f 144/144/144 149/149/149 148/148/148
f 150/150/150 149/149/149 144/144/144
