g Z1_screen_geo
v -3.679687 1.463079 14.53371
v -1.980701 1.463079 14.53371
v -3.679687 0.4733053 14.53371
v -1.980701 0.4733053 14.53371
v -3.239711 0.568955 14.89749
v -2.420676 0.568955 14.89749
v -2.420676 1.36743 14.89749
v -3.239711 1.36743 14.89749
v -2.02439 0.568955 14.57919
v -2.286505 0.568955 14.85202
v -2.02439 1.36743 14.57919
v -2.286505 1.36743 14.85202
v -3.635997 0.568955 14.57919
v -3.373883 0.568955 14.85202
v -3.373883 1.36743 14.85202
v -3.635997 1.36743 14.57919
v -3.228085 0.5800114 14.89749
v -2.432303 0.5800114 14.89749
v -2.432303 1.356373 14.89749
v -3.228085 1.356373 14.89749
v -2.028111 0.5800115 14.58306
v -2.282784 0.5800115 14.84815
v -2.028111 1.356373 14.58306
v -2.282784 1.356373 14.84815
v -3.632276 0.5800114 14.58306
v -3.377603 0.5800114 14.84815
v -3.377603 1.356373 14.84815
v -3.632276 1.356373 14.58306
v -3.330194 0.4530208 14.89749
v -2.330194 0.4530208 14.89749
v -3.330194 1.47315 14.89749
v -2.330194 1.47315 14.89749
v -3.686713 1.473222 14.5264
v -1.97425 1.473222 14.52513
v -3.686713 0.463163 14.5264
v -1.97425 0.4530208 14.52513
v -3.323322 0.4733053 14.89749
v -3.334007 0.4733053 14.89352
v -3.334007 1.463079 14.89352
v -3.323322 1.463079 14.89749
v -2.326381 0.4733053 14.89352
v -2.337065 0.4733053 14.89749
v -2.337065 1.463079 14.89749
v -2.326381 1.463079 14.89352
v 5.267004 1.088774 -4.984275
v 13.86629 1.084646 -4.995994
v 18.23814 1.084646 -4.995994
v 13.86629 1.599595 -4.995994
v 18.23814 1.599595 -4.995994
v 18.23814 1.084646 3.033063
v 18.23814 1.599595 3.033063
v 18.23814 1.599595 0.8237951
v 18.23814 1.084646 0.8237951
v 18.23814 1.599595 -1.276847
v 18.23814 1.084646 -1.276847
v 5.267004 1.088774 1.492968
v 5.267004 2.222402 1.492968
v 5.267004 2.222402 -4.984275
v 10.10077 2.222402 -4.984275
v 10.10077 1.084646 -4.984275
v -6.910278 0.5469171 24.00654
v -7.219968 0.5469171 23.37158
v -7.43837 1.363595 23.4781
v -7.12868 1.363595 24.11306
v -6.358242 0.5517599 23.7373
v -6.667932 0.5517599 23.10233
v -7.221034 0.5581978 23.3721
v -6.911344 0.5581978 24.00706
v -3.239711 0.568955 14.89749
v -2.432303 0.5800114 14.89749
v -2.420676 0.568955 14.89749
v -3.228085 0.5800114 14.89749
v -2.432303 1.356373 14.89749
v -2.420676 1.36743 14.89749
v -3.228085 1.356373 14.89749
v -3.239711 1.36743 14.89749
v -2.286505 0.568955 14.85202
v -2.028111 0.5800115 14.58306
v -2.02439 0.568955 14.57919
v -2.282784 0.5800115 14.84815
v -2.028111 1.356373 14.58306
v -2.02439 1.36743 14.57919
v -2.282784 1.356373 14.84815
v -2.286505 1.36743 14.85202
v -3.635997 0.568955 14.57919
v -3.377603 0.5800114 14.84815
v -3.373883 0.568955 14.85202
v -3.632276 0.5800114 14.58306
v -3.377603 1.356373 14.84815
v -3.373883 1.36743 14.85202
v -3.632276 1.356373 14.58306
v -3.635997 1.36743 14.57919
v -3.679687 1.463079 14.53371
v -3.334007 1.463079 14.89352
v -3.679687 0.4733053 14.53371
v -1.980701 1.463079 14.53371
v -1.980701 0.4733053 14.53371
v -2.326381 0.4733053 14.89352
v -3.334007 0.4733053 14.89352
v -2.337065 1.463079 14.89749
v -3.323322 1.463079 14.89749
v -3.323322 0.4733053 14.89749
v -2.337065 0.4733053 14.89749
v -2.326381 1.463079 14.89352
v 18.23814 1.599595 -4.995994
v 18.23814 1.084646 -4.995994
v 5.267004 2.222402 -4.984275
v 5.267004 1.088774 -4.984275
v -3.686713 1.473222 14.5264
v -3.679687 1.463079 14.53371
v -1.980701 0.4733053 14.53371
v -1.97425 0.4530208 14.52513
v -3.679687 0.4733053 14.53371
v -3.686713 0.463163 14.5264
v -3.330194 1.47315 14.89749
v -2.330194 0.4530208 14.89749
v -3.330194 0.4530208 14.89749
v -2.330194 1.47315 14.89749
v -1.980701 1.463079 14.53371
v -1.97425 1.473222 14.52513
v -3.334007 0.4733053 14.89352
v -3.323322 1.463079 14.89749
v -3.323322 0.4733053 14.89749
v -3.334007 1.463079 14.89352
v -2.337065 0.4733053 14.89749
v -2.326381 1.463079 14.89352
v -2.326381 0.4733053 14.89352
v -2.337065 1.463079 14.89749
v -3.330194 0.4530208 14.89749
v -3.334007 0.4733053 14.89352
v -3.330194 1.47315 14.89749
v -3.323322 1.463079 14.89749
v -3.334007 1.463079 14.89352
v -2.330194 0.4530208 14.89749
v -2.330194 1.47315 14.89749
v -2.337065 1.463079 14.89749
vt 0.4413329 0.3490194
vt 0.4413329 0.3490194
vt 0.4413329 0.3490194
vt 0.4413329 0.3490194
vt 0.4413329 0.3490194
vt 0.4413329 0.3490194
vt 0.4413329 0.3490194
vt 0.4413329 0.3490194
vt 0.4413329 0.3490194
vt 0.4413329 0.3490194
vt 0.4413329 0.3490194
vt 0.4413329 0.3490194
vt 0.4413329 0.3490194
vt 0.4413329 0.3490194
vt 0.4413329 0.3490194
vt 0.4413329 0.3490194
vt 0.5797728 0.2832517
vt 0.5797728 0.2832517
vt 0.5797728 0.3482517
vt 0.5797728 0.3482517
vt 0.5797728 0.2832517
vt 0.5797728 0.2832517
vt 0.5797728 0.3482517
vt 0.5797728 0.3482517
vt 0.5797728 0.2832517
vt 0.5797728 0.2832517
vt 0.5797728 0.3482517
vt 0.5797728 0.3482517
vt 0 1
vt 0 1
vt 0 1
vt 0 1
vt 0 1
vt 0 1
vt 0 1
vt 0 1
vt 0.4413329 0.3490194
vt 0.4413329 0.3490194
vt 0.4413329 0.3490194
vt 0.4413329 0.3490194
vt 0.4413329 0.3490194
vt 0.4413329 0.3490194
vt 0.4413329 0.3490193
vt 0.4413329 0.3490194
vt 0.9282616 0.4793769
vt 0.9282616 0.4793768
vt 0.9282616 0.4793769
vt 0.9282616 0.4793768
vt 0.9282616 0.4793769
vt 0.9242316 0.5050683
vt 0.9242316 0.5050683
vt 0.9242316 0.5050683
vt 0.9242316 0.5050683
vt 0.9242315 0.5050683
vt 0.9242315 0.5050683
vt 0.9282616 0.4793768
vt 0.9282616 0.4793768
vt 0.9282616 0.4793769
vt 0.9242315 0.5050683
vt 0.9242315 0.5050683
vt 0.9213862 0.9880991
vt 0.9213862 0.9880991
vt 0.9213861 0.9880991
vt 0.9213861 0.9880991
vt 0.9213862 0.923099
vt 0.9213862 0.923099
vt 0.9213861 0.9239192
vt 0.9213861 0.9239192
vt 0 1
vt 0 1
vt 0 1
vt 0 1
vt 0 1
vt 0 1
vt 0 1
vt 0 1
vt 0 1
vt 0 1
vt 0 1
vt 0 1
vt 0 1
vt 0 1
vt 0 1
vt 0 1
vt 0 1
vt 0 1
vt 0 1
vt 0 1
vt 0 1
vt 0 1
vt 0 1
vt 0 1
vt 0 1
vt 0 1
vt 0 1
vt 0 1
vt 0 1
vt 0 1
vt 0 1
vt 0 1
vt 0 1
vt 0 1
vt 0 1
vt 0 1
vt 0.9242315 0.5050682
vt 0.9242315 0.5050682
vt 0.9242315 0.5050682
vt 0.9242315 0.5050682
vt 0 1
vt 0 1
vt 0 1
vt 0 1
vt 0 1
vt 0 1
vt 0 1
vt 0 1
vt 0 1
vt 0 1
vt 0 1
vt 0 1
vt 0 1
vt 0 1
vt 0 1
vt 0 1
vt 0 1
vt 0 1
vt 0 1
vt 0 1
vt 0 1
vt 0 1
vt 0 1
vt 0 1
vt 0 1
vt 0 1
vt 0 1
vt 0 1
vn -0.7211292 1.361094E-05 0.6928007
vn 0.7418761 0.01595795 0.670347
vn -0.721128 -9.776271E-06 0.6928019
vn 0.7419396 -0.007960067 0.6704195
vn -1.325296E-05 0 1
vn -3.333438E-07 0 1
vn -3.333438E-07 0 1
vn -1.325296E-05 0 1
vn 0.7210883 4.503483E-06 0.6928432
vn 0.7211307 4.503483E-06 0.6927991
vn 0.7210882 -2.498018E-06 0.6928433
vn 0.7211304 -2.498017E-06 0.6927993
vn -0.7211219 -3.343659E-06 0.6928081
vn -0.7211134 -3.34366E-06 0.692817
vn -0.7211134 8.015547E-06 0.6928171
vn -0.7211219 8.015546E-06 0.6928082
vn -1.244549E-05 0 1
vn -4.444584E-07 0 1
vn -4.444584E-07 0 1
vn -1.244549E-05 0 1
vn 0.7210819 5.1803E-06 0.6928498
vn 0.7211379 5.1803E-06 0.6927916
vn 0.7210818 -2.65182E-06 0.6928499
vn 0.7211378 -2.65182E-06 0.6927916
vn -0.7211186 -4.070285E-06 0.6928116
vn -0.7211149 -4.070286E-06 0.6928155
vn -0.7211149 9.620598E-06 0.6928155
vn -0.7211186 9.620596E-06 0.6928116
vn -0.3763834 0.04130313 0.9255428
vn 0.3768479 0.03012499 0.9257852
vn -0.3756196 -0.08189072 0.9231489
vn 0.376326 -0.05947405 0.9245765
vn -0.7211283 2.562168E-05 0.6928015
vn 0.7617947 0.03193464 0.6470309
vn -0.7211259 -1.897065E-05 0.6928041
vn 0.7620568 -0.01592872 0.6473143
vn -0.1411006 0.02381081 0.9897088
vn -0.586259 0.02402264 0.8097675
vn -0.5866544 -0.04755842 0.8084398
vn -0.1401028 -0.0471357 0.9890143
vn 0.586533 0.01751382 0.8097361
vn 0.1410975 0.02381214 0.9897093
vn 0.1400986 -0.04713767 0.9890148
vn 0.5871179 -0.03449098 0.8087664
vn 0.7071068 0 0.7071068
vn 0 0 1
vn -0.7071068 0 0.7071068
vn 0 0 1
vn -0.7071068 0 0.7071068
vn -1 0 0
vn -1 0 0
vn -1 0 0
vn -1 0 0
vn -1 0 0
vn -1 0 0
vn 1 0 0
vn 1 0 0
vn 0.7071068 0 0.7071068
vn 0 0 1
vn 0 0 1
vn -0.007086533 0.9999689 0.003456268
vn -0.007086533 0.9999689 0.003456268
vn 0.8608329 0.2875536 -0.4198565
vn 0.8608329 0.2875536 -0.4198565
vn -0.007086533 0.9999689 0.003456268
vn -0.007086533 0.9999689 0.003456268
vn 0.8608329 0.2875536 -0.4198565
vn 0.8608329 0.2875536 -0.4198565
vn -1.325296E-05 0 1
vn -4.444584E-07 0 1
vn -3.333438E-07 0 1
vn -1.244549E-05 0 1
vn -4.444584E-07 0 1
vn -3.333438E-07 0 1
vn -1.244549E-05 0 1
vn -1.325296E-05 0 1
vn 0.7211307 4.503483E-06 0.6927991
vn 0.7210819 5.1803E-06 0.6928498
vn 0.7210883 4.503483E-06 0.6928432
vn 0.7211379 5.1803E-06 0.6927916
vn 0.7210818 -2.65182E-06 0.6928499
vn 0.7210882 -2.498018E-06 0.6928433
vn 0.7211378 -2.65182E-06 0.6927916
vn 0.7211304 -2.498017E-06 0.6927993
vn -0.7211219 -3.343659E-06 0.6928081
vn -0.7211149 -4.070286E-06 0.6928155
vn -0.7211134 -3.34366E-06 0.692817
vn -0.7211186 -4.070285E-06 0.6928116
vn -0.7211149 9.620598E-06 0.6928155
vn -0.7211134 8.015547E-06 0.6928171
vn -0.7211186 9.620596E-06 0.6928116
vn -0.7211219 8.015546E-06 0.6928082
vn -0.7211292 1.361094E-05 0.6928007
vn -0.5866544 -0.04755842 0.8084398
vn -0.721128 -9.776271E-06 0.6928019
vn 0.7418761 0.01595795 0.670347
vn 0.7419396 -0.007960067 0.6704195
vn 0.586533 0.01751382 0.8097361
vn -0.586259 0.02402264 0.8097675
vn 0.1400986 -0.04713767 0.9890148
vn -0.1401028 -0.0471357 0.9890143
vn -0.1411006 0.02381081 0.9897088
vn 0.1410975 0.02381214 0.9897093
vn 0.5871179 -0.03449098 0.8087664
vn -0.7071068 0 0.7071068
vn -0.7071068 0 0.7071068
vn 0.7071068 0 0.7071068
vn 0.7071068 0 0.7071068
vn -0.7211283 2.562168E-05 0.6928015
vn -0.7211292 1.361094E-05 0.6928007
vn 0.7419396 -0.007960067 0.6704195
vn 0.7620568 -0.01592872 0.6473143
vn -0.721128 -9.776271E-06 0.6928019
vn -0.7211259 -1.897065E-05 0.6928041
vn -0.3756196 -0.08189072 0.9231489
vn 0.3768479 0.03012499 0.9257852
vn -0.3763834 0.04130313 0.9255428
vn 0.376326 -0.05947405 0.9245765
vn 0.7418761 0.01595795 0.670347
vn 0.7617947 0.03193464 0.6470309
vn -0.586259 0.02402264 0.8097675
vn -0.1401028 -0.0471357 0.9890143
vn -0.1411006 0.02381081 0.9897088
vn -0.5866544 -0.04755842 0.8084398
vn 0.1410975 0.02381214 0.9897093
vn 0.5871179 -0.03449098 0.8087664
vn 0.586533 0.01751382 0.8097361
vn 0.1400986 -0.04713767 0.9890148
vn -0.3763834 0.04130313 0.9255428
vn -0.586259 0.02402264 0.8097675
vn -0.3756196 -0.08189072 0.9231489
vn -0.1401028 -0.0471357 0.9890143
vn -0.5866544 -0.04755842 0.8084398
vn 0.3768479 0.03012499 0.9257852
vn 0.376326 -0.05947405 0.9245765
vn 0.1400986 -0.04713767 0.9890148
g Z1_screen_geo_0
f 130/130/130 129/129/129 123/123/123
f 132/132/132 131/131/131 133/133/133
f 126/126/126 135/135/135 136/136/136
f 19/19/19 17/17/17 18/18/18
f 20/20/20 17/17/17 19/19/19
f 23/23/23 22/22/22 21/21/21
f 24/24/24 22/22/22 23/23/23
f 27/27/27 25/25/25 26/26/26
f 28/28/28 25/25/25 27/27/27
f 31/31/31 93/93/93 94/94/94
f 33/33/33 93/93/93 31/31/31
f 109/109/109 95/95/95 110/110/110
f 35/35/35 95/95/95 109/109/109
f 36/36/36 96/96/96 97/97/97
f 34/34/34 96/96/96 36/36/36
f 30/30/30 111/111/111 98/98/98
f 112/112/112 111/111/111 30/30/30
f 113/113/113 29/29/29 99/99/99
f 114/114/114 29/29/29 113/113/113
f 100/100/100 115/115/115 101/101/101
f 32/32/32 115/115/115 100/100/100
f 102/102/102 116/116/116 103/103/103
f 117/117/117 116/116/116 102/102/102
f 119/119/119 118/118/118 104/104/104
f 120/120/120 118/118/118 119/119/119
f 122/122/122 121/121/121 123/123/123
f 124/124/124 121/121/121 122/122/122
f 125/125/125 126/126/126 128/128/128
f 127/127/127 126/126/126 125/125/125
f 134/134/134 127/127/127 125/125/125
f 49/49/49 46/46/46 47/47/47
f 48/48/48 46/46/46 49/49/49
f 50/50/50 52/52/52 53/53/53
f 51/51/51 52/52/52 50/50/50
f 55/55/55 105/105/105 106/106/106
f 54/54/54 105/105/105 55/55/55
f 58/58/58 56/56/56 45/45/45
f 57/57/57 56/56/56 58/58/58
f 60/60/60 107/107/107 108/108/108
f 59/59/59 107/107/107 60/60/60
f 62/62/62 65/65/65 66/66/66
f 61/61/61 65/65/65 62/62/62
f 63/63/63 68/68/68 67/67/67
f 64/64/64 68/68/68 63/63/63
f 6/6/6 42/42/42 7/7/7
f 37/37/37 42/42/42 6/6/6
f 5/5/5 37/37/37 6/6/6
f 40/40/40 37/37/37 5/5/5
f 8/8/8 40/40/40 5/5/5
f 43/43/43 40/40/40 8/8/8
f 7/7/7 43/43/43 8/8/8
f 42/42/42 43/43/43 7/7/7
f 9/9/9 4/4/4 11/11/11
f 41/41/41 4/4/4 9/9/9
f 10/10/10 41/41/41 9/9/9
f 44/44/44 41/41/41 10/10/10
f 12/12/12 44/44/44 10/10/10
f 2/2/2 44/44/44 12/12/12
f 11/11/11 2/2/2 12/12/12
f 4/4/4 2/2/2 11/11/11
f 13/13/13 3/3/3 14/14/14
f 1/1/1 3/3/3 13/13/13
f 16/16/16 1/1/1 13/13/13
f 39/39/39 1/1/1 16/16/16
f 15/15/15 39/39/39 16/16/16
f 38/38/38 39/39/39 15/15/15
f 14/14/14 38/38/38 15/15/15
f 3/3/3 38/38/38 14/14/14
f 72/72/72 69/69/69 70/70/70
f 76/76/76 69/69/69 72/72/72
f 75/75/75 76/76/76 72/72/72
f 74/74/74 76/76/76 75/75/75
f 73/73/73 74/74/74 75/75/75
f 71/71/71 74/74/74 73/73/73
f 70/70/70 71/71/71 73/73/73
f 69/69/69 71/71/71 70/70/70
f 80/80/80 77/77/77 78/78/78
f 84/84/84 77/77/77 80/80/80
f 83/83/83 84/84/84 80/80/80
f 82/82/82 84/84/84 83/83/83
f 81/81/81 82/82/82 83/83/83
f 79/79/79 82/82/82 81/81/81
f 78/78/78 79/79/79 81/81/81
f 77/77/77 79/79/79 78/78/78
f 88/88/88 85/85/85 86/86/86
f 92/92/92 85/85/85 88/88/88
f 91/91/91 92/92/92 88/88/88
f 90/90/90 92/92/92 91/91/91
f 89/89/89 90/90/90 91/91/91
f 87/87/87 90/90/90 89/89/89
f 86/86/86 87/87/87 89/89/89
f 85/85/85 87/87/87 86/86/86
