g Z1_stewiesBanner_geo
v 15.98545 9.452638 7.75
v 4.610447 9.452638 7.75
v 15.98545 9.452638 -6.330881
v 4.610447 9.452638 -6.330881
v 4.610447 9.452638 6.436577
v 15.98545 9.452638 6.436577
v 4.610445 9.452638 4.713137
v 15.98545 9.452638 4.713136
v 4.610447 9.06038 6.436577
v 4.610445 9.06038 4.713136
v 4.610447 9.06038 -6.330881
v 15.98545 9.06038 -6.330881
v 15.98545 9.060379 4.713136
v 15.98545 9.060379 6.436577
v 15.98545 9.060379 7.75
v 4.610447 9.060379 7.75
v 4.610447 9.452638 -6.330881
v 4.610447 9.06038 -6.330881
v 15.98545 9.452638 -6.330881
v 15.98545 9.06038 -6.330881
vt 0.5160321 1
vt -2.33698 1
vt 5.191315 1
vt 7.993976 1
vt -2.776721 1
vt 0.9264473 1
vt -3.40973 1
vt 1.307838 1
vt -2.776721 3.099442E-06
vt -3.409729 3.099442E-06
vt 7.993976 0
vt 5.191315 0
vt 1.307838 0
vt 0.9264473 0
vt 0.5160321 0
vt -2.33698 0
vt -6.77877 1
vt -6.77877 3.103427E-07
vt 4.802467 1
vt 4.802467 0
vn -0.7071068 0 -0.7071068
vn 0.7071068 0 -0.7071068
vn -0.7071068 0 0.7071068
vn 0.7071066 -3.311852E-07 0.7071069
vn 1 0 -7.082943E-07
vn -1 0 0
vn 1 -2.341833E-07 -5.977636E-07
vn -1 0 0
vn 1 0 -7.082943E-07
vn 1 -2.341833E-07 -5.977636E-07
vn 0.7071066 -3.311852E-07 0.7071069
vn -0.7071068 0 0.7071068
vn -1 0 0
vn -1 0 0
vn -0.7071068 0 -0.7071068
vn 0.7071068 0 -0.7071068
vn 0.7071066 -3.311852E-07 0.7071069
vn 0.7071066 -3.311852E-07 0.7071069
vn -0.7071068 0 0.7071068
vn -0.7071068 0 0.7071068
g Z1_stewiesBanner_geo_0
f 3/3/3 11/11/11 12/12/12
f 4/4/4 11/11/11 3/3/3
f 13/13/13 8/8/8 19/19/19
f 6/6/6 8/8/8 13/13/13
f 14/14/14 6/6/6 13/13/13
f 1/1/1 6/6/6 14/14/14
f 15/15/15 1/1/1 14/14/14
f 2/2/2 1/1/1 15/15/15
f 16/16/16 2/2/2 15/15/15
f 5/5/5 2/2/2 16/16/16
f 9/9/9 5/5/5 16/16/16
f 7/7/7 5/5/5 9/9/9
f 10/10/10 7/7/7 9/9/9
f 17/17/17 7/7/7 10/10/10
f 18/18/18 17/17/17 10/10/10
f 13/13/13 19/19/19 20/20/20
