g Z9_bedroom_geo
v -18.81747 5.632076 1.274953
v -16.64744 5.632076 1.274953
v -16.57259 5.632076 1.193516
v -18.87547 5.632076 1.193516
v -18.81747 5.65899 1.193516
v -16.64744 5.65899 1.193516
v -16.57259 5.632076 -0.8803041
v -16.64744 5.65899 -0.8803041
v -18.81747 5.65899 -0.8803041
v -18.87547 5.632076 -0.8803041
v -16.57258 5.019917 -0.8803065
v -16.53581 5.019917 1.226536
v -16.61174 5.043712 1.310991
v -18.85902 5.043712 1.318736
v -18.91702 5.043711 1.237299
v -18.87547 5.019916 -0.8803041
v -16.57258 5.019917 1.09918
v -18.87547 5.019916 1.103475
v -13.16709 5.958433 -0.9929736
v -13.29759 5.958433 -0.9929736
v -13.16709 6.196992 -0.9929736
v -13.29759 6.196992 -0.9929736
v -13.16709 6.196992 -1.123469
v -13.29759 6.196992 -1.123469
v -13.16709 5.958433 -1.123469
v -13.29759 5.958433 -1.123469
v -12.89506 7.435433 8.509201
v -12.83657 7.303573 8.509198
v -12.81603 7.148032 8.509198
v -12.83657 6.992491 8.509198
v -12.89506 6.86063 8.509198
v -12.9826 6.772523 8.509198
v -13.08587 6.741584 8.509201
v -13.18913 6.772523 8.509198
v -13.27667 6.86063 8.509198
v -13.33516 6.992491 8.509198
v -13.3557 7.148032 8.509198
v -13.33516 7.303573 8.509201
v -13.27667 7.435433 8.509198
v -13.18913 7.52354 8.509198
v -13.08587 7.55448 8.509198
v -12.9826 7.52354 8.509198
v -12.04095 7.359642 -1.789517
v -12.09944 7.491502 -1.789519
v -12.18698 7.579609 -1.789517
v -12.29024 7.610549 -1.789517
v -12.3935 7.579609 -1.789517
v -12.48105 7.491502 -1.789517
v -12.53954 7.359642 -1.789519
v -12.56008 7.204102 -1.789517
v -12.53954 7.048561 -1.789517
v -12.48105 6.916699 -1.789517
v -12.3935 6.828592 -1.789517
v -12.29024 6.797654 -1.789519
v -12.18698 6.828592 -1.789517
v -12.09944 6.916699 -1.789517
v -12.04095 7.048561 -1.789517
v -12.02041 7.204102 -1.789517
v -14.03659 6.729052 8.509201
v -13.9781 6.597191 8.509198
v -13.95756 6.441649 8.509198
v -13.9781 6.286108 8.509198
v -14.03659 6.154248 8.509198
v -14.12414 6.066141 8.509198
v -14.2274 6.035201 8.509201
v -14.33066 6.066141 8.509198
v -14.4182 6.154248 8.509198
v -14.47669 6.286109 8.509198
v -14.49723 6.441649 8.509198
v -14.47669 6.597191 8.509201
v -14.4182 6.729052 8.509198
v -14.33066 6.817158 8.509198
v -14.2274 6.848097 8.509198
v -14.12414 6.817158 8.509198
v -12.47798 5.640917 -0.8008789
v -12.47798 5.764313 -0.8008789
v -12.17142 5.640917 -0.8008789
v -12.17142 5.764313 -0.8008789
v -12.47798 5.420058 -0.8008789
v -12.47798 5.543455 -0.8008789
v -12.17142 5.420058 -0.8008789
v -12.17142 5.543455 -0.8008789
v -13.89207 5.199202 -0.8008789
v -13.89207 5.322598 -0.8008789
v -13.58551 5.199202 -0.8008789
v -13.58551 5.322598 -0.8008789
v -12.47798 5.199202 -0.8008789
v -12.47798 5.322598 -0.8008789
v -12.17142 5.199202 -0.8008789
v -12.17142 5.322598 -0.8008789
v -13.21249 5.958433 -1.31698
v -13.36625 5.958433 -1.31698
v -13.21249 6.170737 -1.31698
v -13.36625 6.170737 -1.31698
v -13.21249 6.170737 -1.379705
v -13.36625 6.170737 -1.379705
v -13.21249 5.958433 -1.379705
v -13.36625 5.958433 -1.379705
v -13.89207 5.640917 -0.8008789
v -13.89207 5.764313 -0.8008789
v -13.58551 5.640917 -0.8008789
v -13.58551 5.764313 -0.8008789
v -13.89207 5.420058 -0.8008789
v -13.89207 5.543455 -0.8008789
v -13.58551 5.420058 -0.8008789
v -13.58551 5.543455 -0.8008789
v -18.81747 5.65899 1.193516
v -18.81747 5.632076 1.274953
v -18.81747 5.65899 -0.8803041
v -16.64744 5.65899 1.193516
v -18.81747 5.65899 1.193516
v -16.64744 5.65899 1.193516
v -16.64744 5.632076 1.274953
v -16.64744 5.65899 -0.8803041
v -13.16709 6.196992 -0.9929736
v -13.29759 6.196992 -0.9929736
v -13.16709 6.196992 -1.123469
v -13.29759 6.196992 -1.123469
v -13.29759 5.958433 -0.9929736
v -13.29759 6.196992 -1.123469
v -13.29759 6.196992 -0.9929736
v -13.29759 5.958433 -1.123469
v -13.16709 6.196992 -0.9929736
v -13.16709 5.958433 -0.9929736
v -13.21249 6.170737 -1.31698
v -13.36625 6.170737 -1.31698
v -13.21249 6.170737 -1.379705
v -13.36625 6.170737 -1.379705
v -13.36625 5.958433 -1.31698
v -13.36625 6.170737 -1.379705
v -13.36625 6.170737 -1.31698
v -13.36625 5.958433 -1.379705
v -13.21249 6.170737 -1.31698
v -13.21249 5.958433 -1.31698
vt 0.9753426 0.1795089
vt 0.5606363 0.1898986
vt 0.9424989 0.1730211
vt 0.9464266 0.1760591
vt 0.9468759 0.1943771
vt 0.5606364 0.1898986
vt 0.3503754 0.1738738
vt 0.4080434 0.1890027
vt 0.3496772 0.1954323
vt 0.3496443 0.1770204
vt 0.3503293 0.006304421
vt 0.9507191 0.0082125
vt 0.9886674 0.0105204
vt 0.9903178 0.01720578
vt 0.9613392 0.01524072
vt 0.3493546 0.009608746
vt 0.9117224 0.007871629
vt 0.9206295 0.008670896
vt 0.3082135 0.5912439
vt 0.3365527 0.5912439
vt 0.3082135 0.6625657
vt 0.3365527 0.6625657
vt 0.3588853 0.6564415
vt 0.3588853 0.6564415
vt 0.3082135 0.5912439
vt 0.3365527 0.5912439
vt 0.5883563 0.500635
vt 0.5731268 0.4662812
vt 0.5677859 0.4257608
vt 0.5731463 0.3852431
vt 0.5883925 0.3508965
vt 0.6112028 0.3279499
vt 0.638105 0.3198966
vt 0.6650031 0.3279629
vt 0.6878024 0.3509205
vt 0.7030319 0.3852746
vt 0.7083728 0.4257947
vt 0.7030123 0.4663126
vt 0.6877663 0.500659
vt 0.6649558 0.5236056
vt 0.6380538 0.5316589
vt 0.6111556 0.5235927
vt 0.3931986 0.4560834
vt 0.4053243 0.4857661
vt 0.423472 0.5055997
vt 0.4448785 0.5125643
vt 0.4662853 0.5055997
vt 0.4844331 0.4857661
vt 0.4965591 0.4560834
vt 0.5008171 0.4210697
vt 0.4965591 0.3860562
vt 0.4844331 0.3563732
vt 0.4662857 0.3365395
vt 0.444879 0.3295748
vt 0.423472 0.3365395
vt 0.4053243 0.3563732
vt 0.3931986 0.3860561
vt 0.3889404 0.4210697
vt 0.7573074 0.6060205
vt 0.7323005 0.5460417
vt 0.7235305 0.4752961
vt 0.7323318 0.4045554
vt 0.7573652 0.3445886
vt 0.7948195 0.3045253
vt 0.8389921 0.2904646
vt 0.8831583 0.3045474
vt 0.9205949 0.3446295
vt 0.9456019 0.4046089
vt 0.9543719 0.4753539
vt 0.9455705 0.5460948
vt 0.9205371 0.6060614
vt 0.8830829 0.6461246
vt 0.8389103 0.6601855
vt 0.7947439 0.6461025
vt 0.01116458 0.5720877
vt 0.01116456 0.4882231
vt 0.2016372 0.5720877
vt 0.2016372 0.4882231
vt 0.01116458 0.5720877
vt 0.01116456 0.4882231
vt 0.2016372 0.5720877
vt 0.2016372 0.4882231
vt 0.01116458 0.5720877
vt 0.01116456 0.4882231
vt 0.2016372 0.5720877
vt 0.2016372 0.4882231
vt 0.01116458 0.5720877
vt 0.01116456 0.4882231
vt 0.2016372 0.5720877
vt 0.2016372 0.4882231
vt 0.4376583 0.5910263
vt 0.4656493 0.5910263
vt 0.4376583 0.6627833
vt 0.4656493 0.6627833
vt 0.3588853 0.6564415
vt 0.3588853 0.6564415
vt 0.4376583 0.5910263
vt 0.4656493 0.5910263
vt 0.01116458 0.5720877
vt 0.01116456 0.4882231
vt 0.2016372 0.5720877
vt 0.2016372 0.4882231
vt 0.01116458 0.5720877
vt 0.01116456 0.4882231
vt 0.2016372 0.5720877
vt 0.2016372 0.4882231
vt 0.5606364 0.1898986
vt 0.5606363 0.1898986
vt 0.4080434 0.1890026
vt 0.4080434 0.1890027
vt 0.4080434 0.1890026
vt 0.9433683 0.1955519
vt 0.975342 0.176765
vt 0.3504161 0.1966166
vt 0.3588853 0.6564415
vt 0.3588853 0.6564415
vt 0.3082135 0.6625657
vt 0.3365527 0.6625657
vt 0.2803868 0.5912439
vt 0.3082135 0.6625657
vt 0.2803868 0.6625657
vt 0.3082135 0.5912439
vt 0.2803868 0.6625657
vt 0.2803868 0.5912439
vt 0.3588853 0.6564415
vt 0.3588853 0.6564415
vt 0.4376583 0.6627833
vt 0.4656493 0.6627833
vt 0.4101735 0.5910263
vt 0.4376583 0.6627833
vt 0.4101735 0.6627833
vt 0.4376583 0.5910263
vt 0.4101735 0.6627833
vt 0.4101735 0.5910263
vn -0.4745172 0.7501104 0.4606167
vn 0.4186031 0.757973 0.5002484
vn 0.8505035 0.4967805 0.1727802
vn -0.8732729 0.4677014 0.1365646
vn -0.2133747 0.9645027 0.1555821
vn 0.1698539 0.9729106 0.1568265
vn 0.8180374 0.575165 0
vn 0.1717433 0.9851418 0
vn -0.2155427 0.9764944 0
vn -0.8428969 0.5380751 0
vn 1 1.330279E-05 0
vn 0.9726788 0.07182728 0.2207637
vn 0.7433571 0.08305164 0.6637188
vn -0.8104521 0.1001864 0.5771742
vn -0.9849104 0.08094065 0.1529708
vn -1 2.516201E-06 0
vn 0.9899185 0.02158597 -0.1399835
vn -0.987875 0.02259335 -0.1535984
vn 0.7071068 0 0.7071068
vn -0.7071068 0 0.7071068
vn 0.5773503 0.5773502 0.5773503
vn -0.5773503 0.5773502 0.5773503
vn 0.5773503 0.5773502 -0.5773503
vn -0.5773503 0.5773502 -0.5773503
vn 0.7071068 0 -0.7071068
vn -0.7071068 0 -0.7071068
vn 1.454235E-07 0 -1
vn 1.454235E-07 0 -1
vn 1.454235E-07 0 -1
vn 1.454235E-07 0 -1
vn 1.454235E-07 0 -1
vn 1.454235E-07 0 -1
vn 1.454235E-07 0 -1
vn 1.454235E-07 0 -1
vn 1.454235E-07 0 -1
vn 1.454235E-07 0 -1
vn 1.454235E-07 0 -1
vn 1.454235E-07 0 -1
vn 1.454235E-07 0 -1
vn 1.454235E-07 0 -1
vn 1.454235E-07 0 -1
vn 1.454235E-07 0 -1
vn -1.454237E-07 0 1
vn -1.454237E-07 0 1
vn -1.454237E-07 0 1
vn -1.454237E-07 0 1
vn -1.454237E-07 0 1
vn -1.454237E-07 0 1
vn -1.454237E-07 0 1
vn -1.454237E-07 0 1
vn -1.454237E-07 0 1
vn -1.454237E-07 0 1
vn -1.454237E-07 0 1
vn -1.454237E-07 0 1
vn -1.454237E-07 0 1
vn -1.454237E-07 0 1
vn -1.454237E-07 0 1
vn -1.454237E-07 0 1
vn -5.816934E-07 0 -1
vn -5.816934E-07 0 -1
vn -5.816934E-07 0 -1
vn -5.816934E-07 0 -1
vn -5.816934E-07 0 -1
vn -5.816934E-07 0 -1
vn -5.816934E-07 0 -1
vn -5.816934E-07 0 -1
vn -5.816934E-07 0 -1
vn -5.816934E-07 0 -1
vn -5.816934E-07 0 -1
vn -5.816934E-07 0 -1
vn -5.816934E-07 0 -1
vn -5.816934E-07 0 -1
vn -5.816934E-07 0 -1
vn -5.816934E-07 0 -1
vn 0 0 1
vn 0 0 1
vn 0 0 1
vn 0 0 1
vn 0 0 1
vn 0 0 1
vn 0 0 1
vn 0 0 1
vn 0 0 1
vn 0 0 1
vn 0 0 1
vn 0 0 1
vn 0 0 1
vn 0 0 1
vn 0 0 1
vn 0 0 1
vn 0.7071068 0 0.7071068
vn -0.7071068 0 0.7071068
vn 0.5773503 0.5773503 0.5773503
vn -0.5773503 0.5773503 0.5773503
vn 0.5773503 0.5773503 -0.5773503
vn -0.5773503 0.5773503 -0.5773503
vn 0.7071068 0 -0.7071068
vn -0.7071068 0 -0.7071068
vn 0 0 1
vn 0 0 1
vn 0 0 1
vn 0 0 1
vn 0 0 1
vn 0 0 1
vn 0 0 1
vn 0 0 1
vn -0.2133747 0.9645027 0.1555821
vn -0.4745172 0.7501104 0.4606167
vn -0.2155427 0.9764944 0
vn 0.1698539 0.9729106 0.1568265
vn -0.2133747 0.9645027 0.1555821
vn 0.1698539 0.9729106 0.1568265
vn 0.4186031 0.757973 0.5002484
vn 0.1717433 0.9851418 0
vn 0.5773503 0.5773502 0.5773503
vn -0.5773503 0.5773502 0.5773503
vn 0.5773503 0.5773502 -0.5773503
vn -0.5773503 0.5773502 -0.5773503
vn -0.7071068 0 0.7071068
vn -0.5773503 0.5773502 -0.5773503
vn -0.5773503 0.5773502 0.5773503
vn -0.7071068 0 -0.7071068
vn 0.5773503 0.5773502 0.5773503
vn 0.7071068 0 0.7071068
vn 0.5773503 0.5773503 0.5773503
vn -0.5773503 0.5773503 0.5773503
vn 0.5773503 0.5773503 -0.5773503
vn -0.5773503 0.5773503 -0.5773503
vn -0.7071068 0 0.7071068
vn -0.5773503 0.5773503 -0.5773503
vn -0.5773503 0.5773503 0.5773503
vn -0.7071068 0 -0.7071068
vn 0.5773503 0.5773503 0.5773503
vn 0.7071068 0 0.7071068
g Z9_bedroom_geo_0
f 2/2/2 107/107/107 108/108/108
f 6/6/6 107/107/107 2/2/2
f 110/110/110 109/109/109 111/111/111
f 8/8/8 109/109/109 110/110/110
f 3/3/3 13/13/13 12/12/12
f 17/17/17 3/3/3 12/12/12
f 7/7/7 3/3/3 17/17/17
f 11/11/11 7/7/7 17/17/17
f 4/4/4 16/16/16 18/18/18
f 15/15/15 4/4/4 18/18/18
f 1/1/1 4/4/4 15/15/15
f 14/14/14 1/1/1 15/15/15
f 22/22/22 19/19/19 21/21/21
f 20/20/20 19/19/19 22/22/22
f 24/24/24 115/115/115 23/23/23
f 116/116/116 115/115/115 24/24/24
f 25/25/25 123/123/123 124/124/124
f 117/117/117 123/123/123 25/25/25
f 26/26/26 117/117/117 25/25/25
f 118/118/118 117/117/117 26/26/26
f 120/120/120 119/119/119 121/121/121
f 122/122/122 119/119/119 120/120/120
f 36/36/36 37/37/37 38/38/38
f 39/39/39 36/36/36 38/38/38
f 35/35/35 36/36/36 39/39/39
f 40/40/40 35/35/35 39/39/39
f 34/34/34 35/35/35 40/40/40
f 41/41/41 34/34/34 40/40/40
f 33/33/33 34/34/34 41/41/41
f 42/42/42 33/33/33 41/41/41
f 32/32/32 33/33/33 42/42/42
f 27/27/27 32/32/32 42/42/42
f 31/31/31 32/32/32 27/27/27
f 28/28/28 31/31/31 27/27/27
f 30/30/30 31/31/31 28/28/28
f 29/29/29 30/30/30 28/28/28
f 49/49/49 50/50/50 51/51/51
f 52/52/52 49/49/49 51/51/51
f 48/48/48 49/49/49 52/52/52
f 53/53/53 48/48/48 52/52/52
f 47/47/47 48/48/48 53/53/53
f 54/54/54 47/47/47 53/53/53
f 46/46/46 47/47/47 54/54/54
f 55/55/55 46/46/46 54/54/54
f 45/45/45 46/46/46 55/55/55
f 56/56/56 45/45/45 55/55/55
f 44/44/44 45/45/45 56/56/56
f 57/57/57 44/44/44 56/56/56
f 43/43/43 44/44/44 57/57/57
f 58/58/58 43/43/43 57/57/57
f 68/68/68 69/69/69 70/70/70
f 71/71/71 68/68/68 70/70/70
f 67/67/67 68/68/68 71/71/71
f 72/72/72 67/67/67 71/71/71
f 66/66/66 67/67/67 72/72/72
f 73/73/73 66/66/66 72/72/72
f 65/65/65 66/66/66 73/73/73
f 74/74/74 65/65/65 73/73/73
f 64/64/64 65/65/65 74/74/74
f 59/59/59 64/64/64 74/74/74
f 63/63/63 64/64/64 59/59/59
f 60/60/60 63/63/63 59/59/59
f 62/62/62 63/63/63 60/60/60
f 61/61/61 62/62/62 60/60/60
f 78/78/78 75/75/75 77/77/77
f 76/76/76 75/75/75 78/78/78
f 82/82/82 79/79/79 81/81/81
f 80/80/80 79/79/79 82/82/82
f 86/86/86 83/83/83 85/85/85
f 84/84/84 83/83/83 86/86/86
f 90/90/90 87/87/87 89/89/89
f 88/88/88 87/87/87 90/90/90
f 94/94/94 91/91/91 93/93/93
f 92/92/92 91/91/91 94/94/94
f 96/96/96 125/125/125 95/95/95
f 126/126/126 125/125/125 96/96/96
f 97/97/97 133/133/133 134/134/134
f 127/127/127 133/133/133 97/97/97
f 98/98/98 127/127/127 97/97/97
f 128/128/128 127/127/127 98/98/98
f 130/130/130 129/129/129 131/131/131
f 132/132/132 129/129/129 130/130/130
f 102/102/102 99/99/99 101/101/101
f 100/100/100 99/99/99 102/102/102
f 106/106/106 103/103/103 105/105/105
f 104/104/104 103/103/103 106/106/106
f 4/4/4 9/9/9 10/10/10
f 5/5/5 9/9/9 4/4/4
f 1/1/1 5/5/5 4/4/4
f 3/3/3 113/113/113 13/13/13
f 112/112/112 113/113/113 3/3/3
f 114/114/114 112/112/112 3/3/3
f 7/7/7 114/114/114 3/3/3
f 10/10/10 16/16/16 4/4/4
