g Z9_collisionGround_carpet_geo
v 15 0 -0.125
v 15 0 -6
v 2.785938 2.442491E-15 -0.125
v 2.785938 2.442491E-15 -6
v 8.223438 1.221245E-15 -2.942094
v 11.55672 0 -0.125
v 7.76516 0 -0.125
v 11.55672 0 0.125
v 7.76516 0 0.125
v -5.485587 0 -1.125
v -7.50739 -1.110223E-15 -1.125
v -5.485587 0 -8
v -13.36059 1.776357E-15 -8
v -13.36059 0 -1.125
v -11.21378 -1.110223E-15 -1.125
v -9.40615 -6.344132E-17 -4.276339
v -7.50739 -1.110223E-15 -0.8749998
v -11.21378 -1.110223E-15 -0.8749998
v -5.23605 5 -2.416856
v -2.1248 5 -2.416856
v -5.236004 5 4.697387
v -2.127697 5 4.697387
v -5.23605 4.5 -2.416856
v -5.236004 4.5 4.697387
v -2.1248 4.5 -2.416856
v -2.127697 4.5 4.697387
v -8.997575 5 -0.28907
v 1.80827 5 -0.8327387
v -9.999998 5 -7.010001
v -9.999998 5 0.3955829
v -9.999998 5 2.034022
v -9.999998 5 5
v -5.235958 5 5
v -5.236143 5 -7.010001
v -2.119006 5 -7.010001
v -2.130594 5 5
v 3.010599 5 5
v 3.010599 5 1.883725
v 3.010599 5 0.2452863
v 3.010599 5 -2.037898
v 3.010599 5 -3.676337
v 3.010599 5 -7.010001
v 2.535938 1.353917E-15 2.125
v 2.535938 2.442491E-15 -8
v -5.235587 3.108624E-15 2.378688
v -5.235587 4.218847E-15 -8
v -1.875 0 2.378688
v -1.875 8.326673E-16 9
v 5.535939 0 9
v 5.535939 -7.893685E-16 2.125
v -1.575 2.224776E-15 -1.670798
v 2.635938 2.794431E-16 4.163048
v -1.875 -8.526513E-16 6.962805
v -1.875 -8.524155E-16 5.171248
v -2.125 -8.524155E-16 5.171248
v -2.125 -1.776357E-15 6.962805
v 2.535938 2.274023E-15 -3.931571
v 2.535938 2.513781E-15 -2.140014
v 2.785938 -1.430511E-08 -2.140014
v 2.785938 -5.155815E-17 -3.931571
v 5.535939 -2.494671E-15 3.38322
v 5.535939 -2.494435E-15 5.021661
v 5.785939 -2.494671E-15 3.38322
v 5.785939 -2.494435E-15 5.021661
v -5.235587 2.513781E-15 -3.692019
v -5.235587 2.513545E-15 -5.453579
v -5.485587 -1.705303E-15 -5.453579
v -5.485587 -1.705303E-15 -3.692019
v 6.11455 5 -4.159444
v 3.25 5 -1.1197
v 8.836753 5 -1.1197
v 8.836753 5 -7
v 3.25 5 -7
v -13.36059 -2.220446E-15 -0.875
v -13.36059 -2.220446E-15 9
v -2.125 0 9
v -5.235587 -1.110223E-15 -0.875
v -5.235587 -3.700743E-16 2.628688
v -2.125 0 2.628688
v -5.485587 -4.479033E-16 9
v -9.172799 -9.098705E-16 2.681633
v 15 0 9
v 15 0 0.125
v 5.785939 1.776357E-15 9
v 5.785939 1.776357E-15 0.125
v 11.0625 8.881784E-16 4.457446
v 8.7553 5 4.114962
v 3.25 5.000005 8.602048
v 14.1303 5.000005 8.602048
v 14.1303 5.000005 -0.8802989
v 3.25 5.000005 -0.8802989
v -14.61908 5 3.120511
v -19 5 8.602048
v -10.2394 5 8.602048
v -10.2394 5 -2
v -19 5 -2
v -2.1248 5 -2.416856
v -5.23605 4.5 -2.416856
v -5.23605 5 -2.416856
v -2.1248 4.5 -2.416856
v -5.236004 5 4.697387
v -2.127697 4.5 4.697387
v -2.127697 5 4.697387
v -5.236004 4.5 4.697387
v -5.236004 5 4.697387
v -5.23605 5 -2.416856
v -2.1248 5 -2.416856
v -2.127697 5 4.697387
vt 0.01615191 0.7452813
vt 0.01615191 0.7452813
vt 0.01615191 0.7452813
vt 0.01615191 0.7452813
vt 0.01615191 0.7452813
vt 0.01615191 0.7452813
vt 0.01615191 0.7452813
vt 0.01615191 0.7452813
vt 0.01615191 0.7452813
vt 0.01615188 0.7452813
vt 0.01615188 0.7452813
vt 0.01615191 0.7452813
vt 0.01615191 0.7452813
vt 0.01615188 0.7452813
vt 0.01615188 0.7452813
vt 0.01615188 0.7452813
vt 0.01615189 0.7452813
vt 0.01615189 0.7452813
vt 0.01615188 0.7452813
vt 0.01615191 0.7452813
vt 0.01615188 0.7452813
vt 0.01615191 0.7452813
vt 0.01615191 0.7452813
vt 0.01615191 0.7452813
vt 0.01615191 0.7452813
vt 0.01615191 0.7452813
vt 0.01615195 0.7452813
vt 0.01615195 0.7452813
vt 0.01615189 0.7452813
vt 0.01615195 0.7452813
vt 0.01615189 0.7452813
vt 0.01615195 0.7452813
vt 0.01615195 0.7452812
vt 0.01615189 0.7452812
vt 0.01615189 0.7452813
vt 0.01615195 0.7452813
vt 0.01615195 0.7452813
vt 0.01615195 0.7452813
vt 0.01615195 0.7452813
vt 0.01615189 0.7452813
vt 0.01615195 0.7452813
vt 0.01615189 0.7452813
vt 0.01615195 0.7452813
vt 0.01615195 0.7452813
vt 0.01615195 0.7452813
vt 0.01615195 0.7452813
vt 0.01615195 0.7452813
vt 0.01615195 0.7452813
vt 0.01615188 0.7452813
vt 0.01615188 0.7452813
vt 0.01615195 0.7452813
vt 0.01615195 0.7452813
vt 0.01615195 0.7452813
vt 0.01615195 0.7452813
vt 0.01615195 0.7452813
vt 0.01615195 0.7452813
vt 0.01615195 0.7452813
vt 0.01615195 0.7452813
vt 0.01615195 0.7452813
vt 0.01615195 0.7452813
vt 0.01615188 0.7452813
vt 0.01615188 0.7452813
vt 0.01615188 0.7452813
vt 0.01615188 0.7452813
vt 0.01615195 0.7452813
vt 0.01615195 0.7452813
vt 0.01615195 0.7452813
vt 0.01615195 0.7452813
vt 0.01615191 0.7452813
vt 0.01615195 0.7452813
vt 0.01615188 0.7452813
vt 0.01615188 0.7452812
vt 0.01615195 0.7452812
vt 0.01615191 0.7452813
vt 0.01615191 0.7452813
vt 0.01615191 0.7452813
vt 0.01615191 0.7452813
vt 0.01615191 0.7452813
vt 0.01615191 0.7452813
vt 0.01615191 0.7452813
vt 0.01615191 0.7452813
vt 0.01615195 0.7452813
vt 0.01615195 0.7452813
vt 0.01615195 0.7452813
vt 0.01615195 0.7452813
vt 0.01615195 0.7452813
vt 0.01615191 0.7452813
vt 0.01615188 0.7452813
vt 0.01615188 0.7452813
vt 0.01615191 0.7452813
vt 0.01615191 0.7452813
vt 0.01615191 0.7452813
vt 0.01615188 0.7452813
vt 0.01615191 0.7452813
vt 0.01615191 0.7452813
vt 0.01615188 0.7452813
vt 0.01615191 0.7452813
vt 0.01615191 0.7452813
vt 0.01615191 0.7452813
vt 0.01615191 0.7452813
vt 0.01615191 0.7452813
vt 0.01615191 0.7452813
vt 0.01615191 0.7452813
vt 0.01615191 0.7452813
vt 0.01615195 0.7452812
vt 0.01615195 0.7452812
vt 0.01615195 0.7452813
vt 0.01615195 0.7452813
vn 0 1 0
vn 0 1 0
vn 0 1 0
vn 0 1 0
vn 0 1 0
vn 0 1 0
vn 0 1 0
vn 0 1 0
vn 0 1 0
vn 0 1 0
vn 0 1 0
vn 0 1 0
vn 0 1 0
vn 0 1 0
vn 0 1 0
vn 0 1 0
vn 0 1 0
vn 0 1 0
vn 1 0 -6.52026E-06
vn -1 -3.650826E-07 -0.000407216
vn 1 0 -6.52026E-06
vn -1 -3.650826E-07 -0.000407216
vn 1 0 -6.52026E-06
vn 1 0 -6.52026E-06
vn -1 -3.650826E-07 -0.000407216
vn -1 -3.650826E-07 -0.000407216
vn 0 1 0
vn 0 1 1.72897E-07
vn 0 1 0
vn 0 1 0
vn 0 1 0
vn 0 1 0
vn 0 1 0
vn 0 1 0
vn 0 1 0
vn 0 1 2.659447E-06
vn 0 1 1.04211E-07
vn 0 1 0
vn 0 1 0
vn 0 1 0
vn 0 1 0
vn 0 1 0
vn 0 1 0
vn 0 1 0
vn 0 1 0
vn 0 1 0
vn 0 1 0
vn 0 1 0
vn 0 1 0
vn 0 1 0
vn 0 1 0
vn 0 1 0
vn 0 1 0
vn 0 1 0
vn 0 1 0
vn 0 1 0
vn 0 1 0
vn 0 1 0
vn 0 1 0
vn 0 1 0
vn 0 1 0
vn 0 1 0
vn 0 1 0
vn 0 1 0
vn 0 1 0
vn 0 1 0
vn 0 1 0
vn 0 1 0
vn 0 1 0
vn 0 1 0
vn 0 1 0
vn 0 1 0
vn 0 1 0
vn 0 1 0
vn 0 1 0
vn 0 1 0
vn 0 1 0
vn 0 1 0
vn 0 1 0
vn 0 1 0
vn 0 1 0
vn 0 1 0
vn 0 1 0
vn 0 1 0
vn 0 1 0
vn 0 1 0
vn 8.869293E-07 1 0
vn 8.869293E-07 1 0
vn 0 1 -1.152172E-06
vn -9.084304E-07 1 0
vn 8.869293E-07 1 0
vn 0 1 0
vn 0 1 0
vn 0 1 0
vn 0 1 0
vn 0 1 0
vn 0 0 1
vn 0 0 1
vn 0 0 1
vn 0 0 1
vn 0 -1.220703E-06 -1
vn 0 -1.220703E-06 -1
vn 0 -1.220703E-06 -1
vn 0 -1.220703E-06 -1
vn 0 1 -2.745895E-06
vn 0 1 0
vn 0 1 0
vn 0 1 0
g Z9_collisionGround_carpet_geo_0
f 6/6/6 9/9/9 8/8/8
f 7/7/7 9/9/9 6/6/6
f 5/5/5 7/7/7 6/6/6
f 3/3/3 7/7/7 5/5/5
f 4/4/4 3/3/3 5/5/5
f 11/11/11 18/18/18 17/17/17
f 15/15/15 18/18/18 11/11/11
f 16/16/16 15/15/15 11/11/11
f 14/14/14 15/15/15 16/16/16
f 13/13/13 14/14/14 16/16/16
f 24/24/24 19/19/19 21/21/21
f 23/23/23 19/19/19 24/24/24
f 25/25/25 22/22/22 20/20/20
f 26/26/26 22/22/22 25/25/25
f 98/98/98 97/97/97 99/99/99
f 100/100/100 97/97/97 98/98/98
f 102/102/102 101/101/101 103/103/103
f 104/104/104 101/101/101 102/102/102
f 57/57/57 59/59/59 60/60/60
f 58/58/58 59/59/59 57/57/57
f 51/51/51 58/58/58 57/57/57
f 43/43/43 58/58/58 51/51/51
f 47/47/47 43/43/43 51/51/51
f 52/52/52 43/43/43 47/47/47
f 54/54/54 52/52/52 47/47/47
f 53/53/53 52/52/52 54/54/54
f 55/55/55 53/53/53 54/54/54
f 56/56/56 53/53/53 55/55/55
f 61/61/61 64/64/64 63/63/63
f 62/62/62 64/64/64 61/61/61
f 52/52/52 62/62/62 61/61/61
f 49/49/49 62/62/62 52/52/52
f 48/48/48 49/49/49 52/52/52
f 65/65/65 67/67/67 68/68/68
f 66/66/66 67/67/67 65/65/65
f 51/51/51 66/66/66 65/65/65
f 46/46/46 66/66/66 51/51/51
f 44/44/44 46/46/46 51/51/51
f 81/81/81 75/75/75 80/80/80
f 76/76/76 81/81/81 80/80/80
f 78/78/78 81/81/81 76/76/76
f 79/79/79 78/78/78 76/76/76
f 5/5/5 2/2/2 4/4/4
f 1/1/1 2/2/2 5/5/5
f 6/6/6 1/1/1 5/5/5
f 16/16/16 12/12/12 13/13/13
f 10/10/10 12/12/12 16/16/16
f 11/11/11 10/10/10 16/16/16
f 27/27/27 29/29/29 30/30/30
f 34/34/34 29/29/29 27/27/27
f 106/106/106 34/34/34 27/27/27
f 35/35/35 34/34/34 106/106/106
f 107/107/107 35/35/35 106/106/106
f 28/28/28 35/35/35 107/107/107
f 108/108/108 28/28/28 107/107/107
f 36/36/36 28/28/28 108/108/108
f 33/33/33 36/36/36 108/108/108
f 27/27/27 32/32/32 33/33/33
f 31/31/31 32/32/32 27/27/27
f 30/30/30 31/31/31 27/27/27
f 105/105/105 33/33/33 108/108/108
f 27/27/27 33/33/33 105/105/105
f 106/106/106 27/27/27 105/105/105
f 28/28/28 38/38/38 39/39/39
f 37/37/37 38/38/38 28/28/28
f 36/36/36 37/37/37 28/28/28
f 28/28/28 41/41/41 42/42/42
f 40/40/40 41/41/41 28/28/28
f 39/39/39 40/40/40 28/28/28
f 28/28/28 42/42/42 35/35/35
f 57/57/57 44/44/44 51/51/51
f 45/45/45 51/51/51 65/65/65
f 47/47/47 51/51/51 45/45/45
f 50/50/50 52/52/52 61/61/61
f 43/43/43 52/52/52 50/50/50
f 53/53/53 48/48/48 52/52/52
f 69/69/69 70/70/70 71/71/71
f 73/73/73 70/70/70 69/69/69
f 72/72/72 73/73/73 69/69/69
f 69/69/69 71/71/71 72/72/72
f 81/81/81 74/74/74 75/75/75
f 77/77/77 74/74/74 81/81/81
f 78/78/78 77/77/77 81/81/81
f 86/86/86 83/83/83 85/85/85
f 82/82/82 83/83/83 86/86/86
f 84/84/84 82/82/82 86/86/86
f 86/86/86 85/85/85 84/84/84
f 87/87/87 88/88/88 89/89/89
f 91/91/91 88/88/88 87/87/87
f 90/90/90 91/91/91 87/87/87
f 87/87/87 89/89/89 90/90/90
f 92/92/92 94/94/94 95/95/95
f 93/93/93 94/94/94 92/92/92
f 96/96/96 93/93/93 92/92/92
f 92/92/92 95/95/95 96/96/96
