g Z9_detailTile_geo
v 3.276906 5.136547 -5.212438
v 6.067232 5.136547 -6.972339
v 6.067232 7.666515 -6.972339
v 3.276906 7.666515 -5.212438
v 3.278663 7.666515 -6.972339
v 3.278663 5.136547 -6.972339
v 6.11455 5 -4.159445
v 3.25 5 -1.1197
v 8.836754 5 -1.1197
v 8.836754 5 -7
v 3.25 5 -7
v 15 0 -0.125
v 15 0 -6
v 2.785938 2.442491E-15 -0.125
v 2.785938 2.442491E-15 -6
v 8.223438 1.221245E-15 -2.942094
v 11.55672 0 -0.125
v 7.76516 0 -0.125
v 11.55672 0 0.125
v 7.76516 0 0.125
v -5.485587 0 -1.125
v -5.485587 0 -1.125
v -7.360586 -1.110223E-15 -1.125
v -5.485587 0 -8
v -13.36059 1.776357E-15 -8
v -13.36059 0 -1.125
v -11.36059 -1.110223E-15 -1.125
v -9.406151 -6.344132E-17 -4.276339
v -7.360586 -1.110223E-15 -0.8749998
v -11.36059 -1.110223E-15 -0.8749998
v -7.360586 -1.110223E-15 -1.125
v -11.36059 -1.110223E-15 -1.125
vt 0.7613941 0.9514235
vt 0.7613941 0.9514235
vt 0.7613941 0.9963218
vt 0.7613941 0.9963218
vt 0.7613941 0.9963218
vt 0.7613941 0.9514235
vt 0.3328865 0.9929667
vt 0.3328865 0.9226061
vt 0.3328865 0.9226062
vt 0.3328865 0.9226062
vt 0.3328865 0.9226061
vt 0.5519502 0.2856257
vt 0.5519502 0.2856255
vt 0.5519502 0.2856256
vt 0.5519502 0.2856256
vt 0.5519502 0.3543248
vt 0.5519502 0.2856257
vt 0.5519502 0.2856256
vt 0.5519502 0.2856257
vt 0.5519502 0.2856256
vt 0.5518361 0.2858157
vt 0.5518362 0.2858157
vt 0.5518362 0.2858158
vt 0.5518363 0.2858157
vt 0.5518363 0.2858158
vt 0.5518362 0.2858158
vt 0.5518362 0.2858157
vt 0.5518363 0.3537274
vt 0.5937188 0.8815798
vt 0.5937188 0.8815797
vt 0.5937188 0.8815798
vt 0.5937188 0.8815797
vn 0.9999995 0 0.000998119
vn 0 0 1
vn 0 0 1
vn 0.9999995 0 0.000998119
vn 0.7067538 0 0.7074596
vn 0.7067538 0 0.7074596
vn 0 1 0
vn 0 1 0
vn 0 1 0
vn 0 1 0
vn 0 1 0
vn 0 1 0
vn 0 1 0
vn 0 1 0
vn 0 1 0
vn 0 1 0
vn 0 1 0
vn 0 1 0
vn 0 1 0
vn 0 1 0
vn 0 1 0
vn 0 1 0
vn 0 1 0
vn 0 1 0
vn 0 1 0
vn 0 1 0
vn 0 1 0
vn 0 1 0
vn 0 1 0
vn 0 1 0
vn 0 1 0
vn 0 1 0
g Z9_detailTile_geo_0
f 6/6/6 2/2/2 3/3/3
f 5/5/5 6/6/6 3/3/3
f 1/1/1 6/6/6 5/5/5
f 4/4/4 1/1/1 5/5/5
f 17/17/17 20/20/20 19/19/19
f 18/18/18 20/20/20 17/17/17
f 16/16/16 18/18/18 17/17/17
f 14/14/14 18/18/18 16/16/16
f 15/15/15 14/14/14 16/16/16
f 30/30/30 31/31/31 32/32/32
f 29/29/29 31/31/31 30/30/30
f 7/7/7 8/8/8 9/9/9
f 11/11/11 8/8/8 7/7/7
f 10/10/10 11/11/11 7/7/7
f 7/7/7 9/9/9 10/10/10
f 16/16/16 13/13/13 15/15/15
f 12/12/12 13/13/13 16/16/16
f 17/17/17 12/12/12 16/16/16
f 28/28/28 23/23/23 22/22/22
f 27/27/27 23/23/23 28/28/28
f 26/26/26 27/27/27 28/28/28
f 28/28/28 24/24/24 25/25/25
f 21/21/21 24/24/24 28/28/28
f 22/22/22 21/21/21 28/28/28
f 28/28/28 25/25/25 26/26/26
