g Z9_floor_stairs_geo
v -5.23605 5 -2.416856
v -2.1248 5 -2.416856
v -5.236004 5 4.697387
v -2.127697 5 4.697387
v -5.23605 4.5 -2.416856
v -5.236004 4.5 4.697387
v -2.1248 4.5 -2.416856
v -2.127697 4.5 4.697387
v -8.997576 5 -0.28907
v 1.80827 5 -0.8327387
v -10 5 -7.010001
v -9.999998 5 0.3955829
v -9.999998 5 2.034022
v -10 5 5
v -5.235958 5 5
v -7.995256 5 -7.010001
v -2.119006 5 -7.010001
v -2.130594 5 5
v 3.010599 5 5
v 3.010599 5 1.883725
v 3.010599 5 0.2452863
v 3.010599 5 -2.037898
v 3.010599 5 -3.676337
v 3.010599 5 -7.010001
v 2.535938 1.353917E-15 2.125
v 2.535938 2.442491E-15 -8
v -5.235587 3.108624E-15 2.378688
v -5.235587 4.218847E-15 -8
v -1.875 0 2.378688
v -1.875 8.326673E-16 9
v 5.535939 0 9
v 5.535939 -7.893685E-16 2.125
v -1.575 2.224776E-15 -1.670798
v 2.635939 2.794431E-16 4.163048
v -1.875 -8.526513E-16 6.962805
v -1.875 -8.524155E-16 5.171248
v -2.125 -8.524155E-16 5.171248
v -2.125 -1.776357E-15 6.962805
v 2.535938 2.274023E-15 -3.931571
v 2.535938 2.513781E-15 -2.140014
v 2.785938 -1.430511E-08 -2.140014
v 2.785938 -5.155815E-17 -3.931571
v 5.535939 -2.494671E-15 3.38322
v 5.535939 -2.494435E-15 5.021661
v 5.785939 -2.494671E-15 3.38322
v 5.785939 -2.494435E-15 5.021661
v -5.235587 2.513781E-15 -3.692019
v -5.235587 2.513545E-15 -5.453579
v -5.485587 -1.705303E-15 -5.453579
v -5.485587 -1.705303E-15 -3.692019
v -5.236004 5 4.697387
v -5.23605 5 -2.416856
v -2.1248 5 -2.416856
v -2.119006 5 -7.010001
v -2.1248 5 -2.416856
v -2.127697 5 4.697387
v -2.127697 5 4.697387
v -2.130594 5 5
v -2.1248 5 -2.416856
v -5.23605 4.5 -2.416856
v -5.23605 5 -2.416856
v -2.1248 4.5 -2.416856
v -5.236004 5 4.697387
v -2.127697 4.5 4.697387
v -2.127697 5 4.697387
v -5.236004 4.5 4.697387
vt 0.4491293 0.9101822
vt 0.4491293 0.9101822
vt 0.4491293 0.9101822
vt 0.4491293 0.9101822
vt 0.4491293 0.9101822
vt 0.4491293 0.9101822
vt 0.4491293 0.9101822
vt 0.4491293 0.9101822
vt 0.3388355 0.3556604
vt 0.3359423 0.3558055
vt 0.3388355 0.3311729
vt 0.3388355 0.3311729
vt 0.3388355 0.3311729
vt 0.3388355 0.3311729
vt 0.3388355 0.3311729
vt 0.3388355 0.3311729
vt 0.3388354 0.3311875
vt 0.3359422 0.3312018
vt 0.3359423 0.3312019
vt 0.3359423 0.3312019
vt 0.3359423 0.3312018
vt 0.3359423 0.3312019
vt 0.3359423 0.3312019
vt 0.3359422 0.3312018
vt 0.5965394 0.8419579
vt 0.5965394 0.8419579
vt 0.5965393 0.8419579
vt 0.5965393 0.8419579
vt 0.5965394 0.8419579
vt 0.5964862 0.8418658
vt 0.5964862 0.8418657
vt 0.5964862 0.8418658
vt 0.5965394 0.9138164
vt 0.5964862 0.9132385
vt 0.5964862 0.8418658
vt 0.5964862 0.8418658
vt 0.5964862 0.8418658
vt 0.5964862 0.8418658
vt 0.5965394 0.8419579
vt 0.5965394 0.841958
vt 0.5965394 0.841958
vt 0.5965394 0.8419579
vt 0.5964862 0.8418658
vt 0.5964862 0.8418657
vt 0.5964862 0.8418658
vt 0.5964862 0.8418657
vt 0.5965393 0.841958
vt 0.5965393 0.8419579
vt 0.5965393 0.8419579
vt 0.5965393 0.841958
vt 0.3388355 0.3311729
vt 0.3388355 0.3311729
vt 0.3388354 0.3311875
vt 0.3359422 0.3312018
vt 0.3359424 0.3312018
vt 0.3359423 0.3312019
vt 0.3388354 0.3311875
vt 0.3388354 0.3311875
vt 0.4491293 0.9101822
vt 0.4491293 0.9101822
vt 0.4491293 0.9101822
vt 0.4491293 0.9101822
vt 0.4491293 0.9101822
vt 0.4491293 0.9101822
vt 0.4491293 0.9101822
vt 0.4491293 0.9101822
vn 1 0 -6.52026E-06
vn -1 -3.650826E-07 -0.000407216
vn 1 0 -6.52026E-06
vn -1 -3.650826E-07 -0.000407216
vn 1 0 -6.52026E-06
vn 1 0 -6.52026E-06
vn -1 -3.650826E-07 -0.000407216
vn -1 -3.650826E-07 -0.000407216
vn 0 1 -1.052398E-07
vn 0 1 1.72897E-07
vn 0 1 -1.052398E-07
vn 0 1 -1.052398E-07
vn 0 1 0
vn 0 1 2.627673E-07
vn 0 1 0
vn 0 1 0
vn 0 1 0
vn 0 1 2.659447E-06
vn 0 1 1.04211E-07
vn 0 1 0
vn 0 1 0
vn 0 1 0
vn 0 1 0
vn 0 1 0
vn 0 1 0
vn 0 1 0
vn 0 1 0
vn 0 1 0
vn 0 1 0
vn 0 1 0
vn 0 1 0
vn 0 1 0
vn 0 1 0
vn 0 1 0
vn 0 1 0
vn 0 1 0
vn 0 1 0
vn 0 1 0
vn 0 1 0
vn 0 1 0
vn 0 1 0
vn 0 1 0
vn 0 1 0
vn 0 1 0
vn 0 1 0
vn 0 1 0
vn 0 1 0
vn 0 1 0
vn 0 1 0
vn 0 1 0
vn 0 1 -2.745895E-06
vn 0 1 0
vn 0 1 0
vn 0 1 1.72897E-07
vn 0 1 1.72897E-07
vn 0 1 0
vn 0 1 7.790318E-07
vn 0 1 7.790318E-07
vn 0 0 1
vn 0 0 1
vn 0 0 1
vn 0 0 1
vn 0 -1.220703E-06 -1
vn 0 -1.220703E-06 -1
vn 0 -1.220703E-06 -1
vn 0 -1.220703E-06 -1
g Z9_floor_stairs_geo_0
f 6/6/6 1/1/1 3/3/3
f 5/5/5 1/1/1 6/6/6
f 7/7/7 4/4/4 2/2/2
f 8/8/8 4/4/4 7/7/7
f 60/60/60 59/59/59 61/61/61
f 62/62/62 59/59/59 60/60/60
f 64/64/64 63/63/63 65/65/65
f 66/66/66 63/63/63 64/64/64
f 9/9/9 11/11/11 12/12/12
f 16/16/16 11/11/11 9/9/9
f 52/52/52 16/16/16 9/9/9
f 17/17/17 16/16/16 52/52/52
f 53/53/53 17/17/17 52/52/52
f 51/51/51 52/52/52 9/9/9
f 15/15/15 51/51/51 9/9/9
f 57/57/57 51/51/51 15/15/15
f 58/58/58 57/57/57 15/15/15
f 39/39/39 41/41/41 42/42/42
f 40/40/40 41/41/41 39/39/39
f 33/33/33 40/40/40 39/39/39
f 25/25/25 40/40/40 33/33/33
f 29/29/29 25/25/25 33/33/33
f 34/34/34 25/25/25 29/29/29
f 36/36/36 34/34/34 29/29/29
f 35/35/35 34/34/34 36/36/36
f 37/37/37 35/35/35 36/36/36
f 38/38/38 35/35/35 37/37/37
f 43/43/43 46/46/46 45/45/45
f 44/44/44 46/46/46 43/43/43
f 34/34/34 44/44/44 43/43/43
f 31/31/31 44/44/44 34/34/34
f 30/30/30 31/31/31 34/34/34
f 47/47/47 49/49/49 50/50/50
f 48/48/48 49/49/49 47/47/47
f 33/33/33 48/48/48 47/47/47
f 28/28/28 48/48/48 33/33/33
f 26/26/26 28/28/28 33/33/33
f 9/9/9 14/14/14 15/15/15
f 13/13/13 14/14/14 9/9/9
f 12/12/12 13/13/13 9/9/9
f 10/10/10 55/55/55 56/56/56
f 54/54/54 55/55/55 10/10/10
f 24/24/24 54/54/54 10/10/10
f 10/10/10 19/19/19 20/20/20
f 18/18/18 19/19/19 10/10/10
f 56/56/56 18/18/18 10/10/10
f 10/10/10 22/22/22 23/23/23
f 21/21/21 22/22/22 10/10/10
f 20/20/20 21/21/21 10/10/10
f 10/10/10 23/23/23 24/24/24
f 39/39/39 26/26/26 33/33/33
f 27/27/27 33/33/33 47/47/47
f 29/29/29 33/33/33 27/27/27
f 32/32/32 34/34/34 43/43/43
f 25/25/25 34/34/34 32/32/32
f 35/35/35 30/30/30 34/34/34
