g Z9_guestbath_geo
v 5.132941 5.136547 -5.19763
v 5.132941 7.666472 -5.19763
v 3.269639 7.666472 -5.19763
v 3.269639 5.136547 -5.19763
v 6.079836 5.136547 -6.983519
v 6.079836 7.666472 -6.983519
v 6.079836 7.666472 -5.821246
v 6.079836 5.136547 -5.821246
v 5.968379 5.136547 -4.686251
v 5.968379 7.666472 -4.686251
v 5.141351 7.666472 -5.19763
v 5.141351 5.136547 -5.19763
v 3.269639 5.136547 -5.212438
v 3.269639 7.666472 -5.212438
v 5.132941 7.666472 -5.212438
v 5.132941 5.136547 -5.212438
v 6.065029 5.136547 -5.821246
v 6.065029 7.666472 -5.821246
v 6.065029 7.666472 -6.983519
v 6.065029 5.136547 -6.983519
v 5.147188 5.136547 -5.211238
v 5.147188 7.666472 -5.211238
v 5.974217 7.666472 -4.699859
v 5.974217 5.136547 -4.699859
vt 0.5693274 0.1578058
vt 0.5693274 0.1578058
vt 0.5693274 0.1578058
vt 0.5693274 0.1578058
vt 0.5693275 0.1578059
vt 0.5693275 0.1578059
vt 0.5693275 0.1578058
vt 0.5693275 0.1578058
vt 0.5693274 0.1578058
vt 0.5693274 0.1578058
vt 0.5693274 0.1578058
vt 0.5693274 0.1578058
vt 0.5693274 0.1578058
vt 0.5693274 0.1578058
vt 0.5693274 0.1578058
vt 0.5693274 0.1578058
vt 0.5693274 0.1578058
vt 0.5693274 0.1578058
vt 0.5693274 0.1578059
vt 0.5693274 0.1578059
vt 0.5693274 0.1578058
vt 0.5693274 0.1578058
vt 0.5693274 0.1578058
vt 0.5693274 0.1578058
vn 0 0 1
vn 0 0 1
vn 0 0 1
vn 0 0 1
vn 1 0 0
vn 1 0 0
vn 1 0 0
vn 1 0 0
vn -0.5259149 0 0.8505372
vn -0.5259149 0 0.8505372
vn -0.5259149 0 0.8505372
vn -0.5259149 0 0.8505372
vn 0 0 -1
vn 0 0 -1
vn 0 0 -1
vn 0 0 -1
vn -1 0 0
vn -1 0 0
vn -1 0 0
vn -1 0 0
vn 0.5259149 0 -0.8505372
vn 0.5259149 0 -0.8505372
vn 0.5259149 0 -0.8505372
vn 0.5259149 0 -0.8505372
g Z9_guestbath_geo_0
f 3/3/3 1/1/1 2/2/2
f 4/4/4 1/1/1 3/3/3
f 7/7/7 5/5/5 6/6/6
f 8/8/8 5/5/5 7/7/7
f 11/11/11 9/9/9 10/10/10
f 12/12/12 9/9/9 11/11/11
f 15/15/15 13/13/13 14/14/14
f 16/16/16 13/13/13 15/15/15
f 19/19/19 17/17/17 18/18/18
f 20/20/20 17/17/17 19/19/19
f 23/23/23 21/21/21 22/22/22
f 24/24/24 21/21/21 23/23/23
