g Z9_shadowCircle_geo
v -6.594492 0.01000173 0.1369617
v -5.88392 0.01000173 0.1369617
v -6.594492 0.01000173 -0.5736107
v -5.88392 0.01000173 -0.5736107
v 5.843927 0.01000109 8.818222
v 6.223217 0.01000109 8.818222
v 5.843927 0.01000109 8.438931
v 6.223217 0.01000109 8.438931
v 10.2658 0.01000061 8.919065
v 11.2658 0.01000061 8.919065
v 10.2658 0.01000061 7.919065
v 11.2658 0.01000061 7.919065
v 14.13737 1.498323 3.440892
v 14.47586 1.498323 3.440892
v 14.13737 1.498323 3.1024
v 14.47586 1.498323 3.1024
v 7.792198 5.008009 -1.29323
v 8.53041 5.008009 -1.29323
v 7.792198 5.008009 -2.031442
v 8.53041 5.008009 -2.031442
v 3.740461 1.821589 2.12847
v 4.478344 1.821589 2.12847
v 3.740461 2.829238 2.12847
v 4.478344 2.829238 2.12847
v -13.85362 5.847098 8.594481
v -14.59151 5.847098 8.594481
v -13.85362 6.854747 8.594481
v -14.59151 6.854747 8.594481
v -12.68338 6.575412 -1.894441
v -11.94549 6.575412 -1.894441
v -12.68338 7.583061 -1.894441
v -11.94549 7.583061 -1.894441
v -12.71388 6.525827 8.594481
v -13.45177 6.525827 8.594481
v -12.71388 7.533478 8.594481
v -13.45177 7.533478 8.594481
vt -2.384186E-07 0
vt 0.9999998 0
vt -2.384186E-07 0.9999995
vt 0.9999998 0.9999995
vt -2.384186E-07 0
vt 0.9999998 0
vt -2.384186E-07 0.9999995
vt 0.9999998 0.9999995
vt -2.384186E-07 0
vt 0.9999998 0
vt -2.384186E-07 0.9999995
vt 0.9999998 0.9999995
vt -2.384186E-07 0
vt 0.9999998 0
vt -2.384186E-07 0.9999995
vt 0.9999998 0.9999995
vt -2.384186E-07 0
vt 0.9999998 0
vt -2.384186E-07 0.9999995
vt 0.9999998 0.9999995
vt -2.384186E-07 0
vt 0.9999998 0
vt -2.384186E-07 0.9999995
vt 0.9999998 0.9999995
vt -2.384186E-07 0
vt 0.9999998 0
vt -2.384186E-07 0.9999995
vt 0.9999998 0.9999995
vt -2.384186E-07 0
vt 0.9999998 0
vt -2.384186E-07 0.9999995
vt 0.9999998 0.9999995
vt -2.384186E-07 0
vt 0.9999998 0
vt -2.384186E-07 0.9999995
vt 0.9999998 0.9999995
vn 0 1 0
vn 0 1 0
vn 0 1 0
vn 0 1 0
vn 0 1 0
vn 0 1 0
vn 0 1 0
vn 0 1 0
vn 0 1 0
vn 0 1 0
vn 0 1 0
vn 0 1 0
vn 0 1 0
vn 0 1 0
vn 0 1 0
vn 0 1 0
vn 0 1 0
vn 0 1 0
vn 0 1 0
vn 0 1 0
vn 0 0 1
vn 0 0 1
vn 0 0 1
vn 0 0 1
vn 0 0 -1
vn 0 0 -1
vn 0 0 -1
vn 0 0 -1
vn 0 0 1
vn 0 0 1
vn 0 0 1
vn 0 0 1
vn 0 0 -1
vn 0 0 -1
vn 0 0 -1
vn 0 0 -1
g Z9_shadowCircle_geo_0
f 4/4/4 1/1/1 2/2/2
f 3/3/3 1/1/1 4/4/4
f 8/8/8 5/5/5 6/6/6
f 7/7/7 5/5/5 8/8/8
f 12/12/12 9/9/9 10/10/10
f 11/11/11 9/9/9 12/12/12
f 16/16/16 13/13/13 14/14/14
f 15/15/15 13/13/13 16/16/16
f 20/20/20 17/17/17 18/18/18
f 19/19/19 17/17/17 20/20/20
f 24/24/24 21/21/21 22/22/22
f 23/23/23 21/21/21 24/24/24
f 28/28/28 25/25/25 26/26/26
f 27/27/27 25/25/25 28/28/28
f 32/32/32 29/29/29 30/30/30
f 31/31/31 29/29/29 32/32/32
f 36/36/36 33/33/33 34/34/34
f 35/35/35 33/33/33 36/36/36
